<svg xmlns="http://www.w3.org/2000/svg" width="15" height="13" viewBox="0 0 15 13">
    <g fill="none" fill-rule="evenodd">
        <g fill="#FFF" fill-rule="nonzero">
            <path d="M23.518 51.404H33.97v.4-.4c.572 0 1.031.474 1.031 1.054 0 .579-.459 1.054-1.031 1.054H23.511l3.569 3.693c.397.41.397 1.071 0 1.482-.196.202-.46.313-.733.313-.274 0-.538-.11-.734-.313l-5.316-5.502c-.192-.199-.298-.467-.297-.745 0-.278.11-.546.304-.744l5.307-5.39c.408-.413 1.066-.407 1.467.014.393.415.387 1.074-.013 1.482l-3.547 3.602z" transform="translate(-20 -46)"/>
        </g>
    </g>
</svg>
