<svg xmlns="http://www.w3.org/2000/svg" width="78" height="104" viewBox="0 0 78 104">
    <defs>
        <filter id="8n5m222bia" width="194.9%" height="154.3%" x="-47.5%" y="-27.2%" filterUnits="objectBoundingBox">
            <feOffset dy="44" in="SourceAlpha" result="shadowOffsetOuter1"/>
            <feGaussianBlur in="shadowOffsetOuter1" result="shadowBlurOuter1" stdDeviation="24.5"/>
            <feColorMatrix in="shadowBlurOuter1" result="shadowMatrixOuter1" values="0 0 0 0 0 0 0 0 0 0 0 0 0 0 0 0 0 0 0.6269941 0"/>
            <feMerge>
                <feMergeNode in="shadowMatrixOuter1"/>
                <feMergeNode in="SourceGraphic"/>
            </feMerge>
        </filter>
    </defs>
    <g fill="none" fill-rule="evenodd" opacity=".5">
        <g fill="#000" fill-rule="nonzero">
            <g filter="url(#8n5m222bia)" transform="translate(0 -371) translate(-1 19)">
                <g>
                    <path d="M17.885 15.345V10.679c0-1.996-.752-3.914-2.126-5.365-.959-1.037-2.203-1.763-3.55-2.152.077-.233.103-.466.103-.7C12.312 1.115 11.197 0 9.85 0 8.502 0 7.387 1.115 7.387 2.462c0 .234.026.467.104.7-1.348.389-2.592 1.115-3.551 2.152-1.374 1.451-2.126 3.37-2.126 5.365V15.345C.778 15.578 0 16.51 0 17.625c0 1.297 1.037 2.333 2.333 2.333h4.406v.26c0 1.71 1.4 3.11 3.11 3.11 1.711 0 3.111-1.4 3.111-3.11v-.26h4.406c1.296 0 2.333-1.036 2.333-2.332 0-1.115-.777-2.048-1.814-2.281zM9.85 1.037c.777 0 1.425.648 1.425 1.425 0 .156-.026.311-.078.467-.233-.026-.466-.052-.725-.078H9.228c-.234 0-.493.026-.726.078-.052-.156-.078-.311-.078-.467 0-.777.648-1.425 1.426-1.425zM2.85 10.679c0-1.737.648-3.395 1.84-4.64 1.27-1.373 3.085-2.151 4.951-2.151h.44c1.867 0 3.656.778 4.952 2.125 1.192 1.27 1.84 2.903 1.84 4.64v4.64H2.85v-4.614zM9.85 22.291c-1.14 0-2.074-.933-2.074-2.073 0-.078 0-.182.026-.26h4.095c0 .078.026.182.026.26 0 1.14-.933 2.073-2.073 2.073zm7.516-3.37H2.333c-.726 0-1.296-.57-1.296-1.295 0-.726.57-1.296 1.296-1.296h15.033c.726 0 1.296.57 1.296 1.296 0 .725-.57 1.296-1.296 1.296z" transform="translate(22 352)"/>
                </g>
            </g>
        </g>
    </g>
</svg>
