<svg width="20" height="22" viewBox="0 0 20 22" fill="none" xmlns="http://www.w3.org/2000/svg">
<path d="M10.5021 20.0626H16.8704C17.0517 20.0626 17.2169 20.0289 17.3638 19.9629C17.5132 19.8955 17.6491 19.7945 17.7672 19.6611C17.886 19.527 17.97 19.3806 18.0189 19.2239C18.0666 19.0696 18.0801 18.9019 18.0581 18.7218L16.5171 6.10296C16.4798 5.79932 16.3359 5.53596 16.1252 5.34934C15.9152 5.16328 15.6361 5.05182 15.3299 5.05182H5.67486C5.36881 5.05182 5.08953 5.16328 4.87955 5.34934C4.66901 5.53539 4.52452 5.79874 4.48764 6.10296L2.94668 18.7218C2.92462 18.9012 2.93814 19.0696 2.98583 19.2239C3.0348 19.3806 3.11864 19.5275 3.23751 19.6611C3.35566 19.7946 3.49103 19.8955 3.64092 19.9629C3.78783 20.0289 3.9531 20.0626 4.13431 20.0626H10.5026H10.5021ZM13.1359 7.95141C13.1359 7.69247 13.3459 7.4825 13.6048 7.4825C13.8638 7.4825 14.0737 7.69247 14.0737 7.95141C14.0737 8.93407 13.6721 9.82735 13.025 10.4745C12.3779 11.1216 11.4846 11.5232 10.502 11.5232C9.51937 11.5232 8.62606 11.1216 7.97895 10.4745C7.33181 9.82731 6.93025 8.93404 6.93025 7.95141C6.93025 7.69247 7.14022 7.4825 7.39915 7.4825C7.65809 7.4825 7.86806 7.69247 7.86806 7.95141C7.86806 8.67511 8.16443 9.33381 8.64187 9.81139C9.11945 10.289 9.77814 10.5852 10.5019 10.5852C11.2256 10.5852 11.8843 10.2888 12.3618 9.81139C12.8394 9.33381 13.1356 8.67511 13.1356 7.95141H13.1359ZM6.95969 4.1144C7.06318 3.3135 7.43417 2.59421 7.97909 2.0487C8.62624 1.40156 9.51951 1 10.5021 1C11.4848 1 12.3781 1.40159 13.0252 2.0487C13.5701 2.59421 13.9411 3.31365 14.0446 4.1144H15.3296C15.869 4.1144 16.3655 4.31454 16.7439 4.65006C17.1223 4.98502 17.3812 5.45336 17.4467 5.98902L18.9877 18.6079C19.0257 18.9184 18.9999 19.2183 18.9118 19.5017C18.8242 19.7827 18.6755 20.0435 18.4666 20.2793C18.2578 20.515 18.0167 20.6949 17.7485 20.8157C17.4779 20.9375 17.1833 21 16.8706 21H4.13436C3.82147 21 3.52767 20.9375 3.25646 20.8157C2.98827 20.6951 2.74711 20.515 2.53829 20.2793C2.32946 20.0435 2.18014 19.7821 2.09315 19.5017C2.00503 19.2183 1.9787 18.9189 2.01728 18.6079L3.55824 5.98902C3.62372 5.45336 3.88266 4.985 4.26103 4.65006C4.63996 4.31454 5.13594 4.1144 5.67532 4.1144H6.96035H6.95969ZM13.0962 4.1144C13.0001 3.57261 12.7368 3.08647 12.3621 2.7118C11.8845 2.23423 11.2258 1.93726 10.5021 1.93726C9.7784 1.93726 9.1197 2.23421 8.64213 2.7118C8.26746 3.08647 8.00424 3.57261 7.908 4.1144H13.0962Z" fill="black" stroke="black" stroke-width="0.4"/>
</svg>
