<svg width="24" height="24" viewBox="0 0 24 24" fill="none" xmlns="http://www.w3.org/2000/svg">
<path d="M21.9947 21.4648L20.4372 7.96506C20.3612 6.72882 19.4844 5.77127 18.4277 5.77127H16.675V4.99788C16.675 3.66906 16.1927 2.41812 15.3173 1.47576C14.4331 0.524082 13.2551 0 11.9998 0C9.42223 0 7.32504 2.24229 7.32504 4.99788V5.77127H5.57178C4.51564 5.77127 3.63876 6.72882 3.56277 7.96506L2.00534 21.4648C1.92106 22.8343 2.84471 24 4.01436 24H19.9852C21.1553 24 22.0789 22.8343 21.9947 21.4648ZM8.29935 4.99788C8.29935 2.78204 9.95907 0.979592 11.9998 0.979592C12.9823 0.979592 13.9074 1.39298 14.605 2.14433C15.3114 2.90449 15.7007 3.91837 15.7007 4.99788V5.77127H8.29935V4.99788ZM7.8122 9.15233C7.29289 9.15233 6.87199 8.72914 6.87199 8.20702C6.87199 7.6849 7.29289 7.26171 7.8122 7.26171C8.3315 7.26171 8.7524 7.6849 8.7524 8.20702C8.75245 8.72914 8.3315 9.15233 7.8122 9.15233ZM16.1878 9.15282C15.6685 9.15282 15.2476 8.72914 15.2476 8.20702C15.2476 7.68588 15.667 7.26318 16.1854 7.26171H16.1902C16.7086 7.26318 17.128 7.68588 17.128 8.20702C17.128 8.72914 16.7072 9.15282 16.1878 9.15282Z" fill="#707070"/>
</svg>
