<svg xmlns="http://www.w3.org/2000/svg" width="106" height="133" viewBox="0 0 106 133">
    <defs>
        <filter id="4klo7w96ja" width="194.9%" height="154.3%" x="-47.5%" y="-27.2%" filterUnits="objectBoundingBox">
            <feOffset dy="44" in="SourceAlpha" result="shadowOffsetOuter1"/>
            <feGaussianBlur in="shadowOffsetOuter1" result="shadowBlurOuter1" stdDeviation="24.5"/>
            <feColorMatrix in="shadowBlurOuter1" result="shadowMatrixOuter1" values="0 0 0 0 0 0 0 0 0 0 0 0 0 0 0 0 0 0 0.6269941 0"/>
            <feMerge>
                <feMergeNode in="shadowMatrixOuter1"/>
                <feMergeNode in="SourceGraphic"/>
            </feMerge>
        </filter>
    </defs>
    <g fill="none" fill-rule="evenodd">
        <g>
            <g filter="url(#4klo7w96ja)" transform="translate(0 -84) translate(-1 20)">
                <g transform="translate(18 64)">
                    <g fill="#FFF" fill-rule="nonzero">
                        <path d="M9.214 10.803c1.484 0 2.769-.532 3.819-1.583 1.05-1.05 1.582-2.334 1.582-3.819 0-1.483-.532-2.768-1.582-3.819C11.983.532 10.698 0 9.213 0 7.73 0 6.446.532 5.396 1.582c-1.05 1.05-1.583 2.335-1.583 3.82 0 1.484.533 2.769 1.583 3.819 1.05 1.05 2.335 1.582 3.819 1.582zm-2.89-8.291c.806-.806 1.75-1.198 2.89-1.198 1.138 0 2.084.392 2.89 1.198.805.805 1.197 1.75 1.197 2.89 0 1.138-.392 2.083-1.197 2.89-.806.805-1.752 1.197-2.89 1.197-1.139 0-2.084-.392-2.89-1.198-.806-.806-1.198-1.75-1.198-2.89 0-1.138.392-2.084 1.198-2.89zM18.665 17.245c-.03-.437-.091-.914-.182-1.417-.09-.507-.208-.987-.348-1.425-.145-.453-.342-.9-.586-1.329-.253-.445-.55-.832-.883-1.15-.349-.334-.775-.602-1.269-.798-.491-.194-1.036-.293-1.62-.293-.228 0-.45.094-.877.372-.263.172-.571.37-.915.59-.294.187-.692.363-1.183.521-.48.155-.967.234-1.447.234-.48 0-.968-.079-1.448-.234-.49-.158-.889-.334-1.182-.52l-.916-.59c-.427-.28-.648-.373-.877-.373-.583 0-1.128.099-1.62.293-.493.196-.92.464-1.269.797-.333.32-.63.707-.882 1.151-.244.429-.441.876-.586 1.33-.14.437-.257.917-.348 1.424-.09.502-.152.98-.182 1.417-.03.429-.045.874-.045 1.325 0 1.17.372 2.118 1.106 2.817.725.69 1.684 1.04 2.85 1.04h10.798c1.167 0 2.125-.35 2.85-1.04.734-.698 1.106-1.647 1.106-2.818 0-.451-.015-.897-.045-1.324zm-1.967 3.19c-.479.456-1.115.677-1.944.677H3.956c-.83 0-1.465-.221-1.944-.677-.47-.447-.698-1.057-.698-1.865 0-.42.014-.835.042-1.234.027-.39.082-.82.164-1.276.081-.45.184-.873.306-1.256.118-.367.278-.73.477-1.08.19-.334.408-.62.65-.851.224-.216.509-.392.843-.525.31-.122.658-.19 1.035-.2.046.025.128.072.26.158.271.176.583.377.927.597.388.247.888.47 1.485.664.61.197 1.234.297 1.852.297.618 0 1.24-.1 1.851-.297.598-.193 1.098-.417 1.486-.664.353-.226.655-.42.926-.597.132-.086.214-.133.26-.158.378.01.726.078 1.036.2.334.133.618.31.843.525.241.23.46.517.65.85.198.35.359.714.476 1.08.123.384.226.807.307 1.257.082.457.137.886.164 1.276.028.397.042.812.042 1.234 0 .808-.228 1.418-.698 1.865z" transform="translate(14 11)"/>
                    </g>
                    <circle cx="23" cy="23" r="22.4" stroke="#FFF" stroke-width="1.2"/>
                </g>
            </g>
        </g>
    </g>
</svg>
