<svg width="16" height="14" viewBox="0 0 16 14" fill="none" xmlns="http://www.w3.org/2000/svg">
<path d="M10.2657 12.091H9.64625C9.54142 10.7304 8.75444 9.51553 7.55552 8.86381C6.3566 8.21193 4.90915 8.21193 3.71015 8.86381C2.51123 9.51559 1.72427 10.7305 1.61942 12.091H1C1.07808 10.9154 1.60002 9.8134 2.46032 9.00847C3.32049 8.20346 4.45462 7.75554 5.63281 7.75554C6.811 7.75554 7.9451 8.20346 8.80529 9.00847C9.66557 9.81348 10.1876 10.9155 10.2657 12.091ZM3.46521 4.96854C3.46521 4.39361 3.69363 3.84219 4.10018 3.43565C4.50672 3.02922 5.05803 2.80078 5.63297 2.80078C6.2079 2.80078 6.75921 3.0292 7.16575 3.43565C7.57229 3.84219 7.80073 4.39361 7.80073 4.96854C7.80073 5.54337 7.57231 6.09478 7.16575 6.50133C6.75921 6.90787 6.2079 7.13619 5.63297 7.13619C5.05825 7.13557 4.50725 6.90695 4.1009 6.50061C3.69446 6.09425 3.46592 5.54329 3.46521 4.96854ZM4.08452 4.96854C4.08452 5.37914 4.24772 5.77305 4.53815 6.06336C4.82848 6.35377 5.22226 6.51688 5.63296 6.51688C6.04367 6.51688 6.43747 6.35378 6.72778 6.06336C7.01819 5.77302 7.1813 5.37914 7.1813 4.96854C7.1813 4.55783 7.01821 4.16403 6.72778 3.87362C6.43745 3.58329 6.04367 3.4201 5.63296 3.4201C5.22247 3.42061 4.82888 3.58382 4.53857 3.87412C4.24835 4.16446 4.08495 4.55796 4.08452 4.96854Z" fill="#E6427A" stroke="#E6427A" stroke-width="0.3"/>
<path d="M14.999 12.0923H14.5034C14.4196 11.0039 13.79 10.032 12.8308 9.51058C11.8717 8.98907 9.94508 9.51058 9.94508 9.51058C9.44428 8.84074 9.9088 8.84074 9.9088 8.84074C9.9088 8.84074 10.3501 8.62396 11.2927 8.62396C12.2352 8.62396 13.1425 8.9823 13.8307 9.62631C14.5189 10.2703 14.9365 11.1519 14.999 12.0923ZM9.55859 6.39436C9.55859 5.93442 9.74133 5.49328 10.0666 5.16805C10.3918 4.8429 10.8329 4.66016 11.2928 4.66016C11.7527 4.66016 12.1938 4.84289 12.519 5.16805C12.8443 5.49328 13.027 5.93442 13.027 6.39436C13.027 6.85423 12.8443 7.29536 12.519 7.62059C12.1938 7.94582 11.7527 8.12849 11.2928 8.12849C10.833 8.12799 10.3922 7.94509 10.0671 7.62002C9.742 7.29493 9.55917 6.85416 9.55859 6.39436ZM10.054 6.39436C10.054 6.72285 10.1846 7.03797 10.4169 7.27022C10.6492 7.50255 10.9642 7.63304 11.2928 7.63304C11.6214 7.63304 11.9364 7.50256 12.1687 7.27022C12.401 7.03795 12.5315 6.72285 12.5315 6.39436C12.5315 6.0658 12.401 5.75076 12.1687 5.51843C11.9364 5.28616 11.6214 5.15561 11.2928 5.15561C10.9644 5.15602 10.6495 5.28658 10.4173 5.51883C10.1851 5.7511 10.0544 6.0659 10.054 6.39436Z" fill="#E6427A" stroke="#E6427A" stroke-width="0.3"/>
</svg>
