<svg width="14" height="13" viewBox="0 0 14 13" fill="none" xmlns="http://www.w3.org/2000/svg">
<path d="M5.52747 2.02864V2.02864H13.1599C13.557 2.02864 13.8995 1.67696 13.8995 1.24987C13.8995 0.821699 13.5707 0.471094 13.1599 0.471094L5.42747 0.471201H5.42747C5.03039 0.471201 4.6879 0.822869 4.68789 1.24996L5.52747 2.02864ZM5.52747 2.02864H5.42747M5.52747 2.02864H5.42747M5.42747 2.02864C5.03038 2.02864 4.68799 1.67698 4.68789 1.24998L5.42747 2.02864Z" fill="#E6427A" stroke="white" stroke-width="0.2"/>
<path d="M5.42747 5.23281H13.1599C13.5707 5.23281 13.8995 5.58342 13.8995 6.01159C13.8995 6.43868 13.557 6.79036 13.1599 6.79036H5.42747C5.0167 6.79036 4.68789 6.43976 4.68789 6.01159C4.68789 5.58449 5.03038 5.23281 5.42747 5.23281Z" fill="#E6427A" stroke="white" stroke-width="0.2"/>
<path d="M5.42747 9.99844H13.1599C13.5718 9.99844 13.8995 10.3347 13.8995 10.7772C13.8995 11.2043 13.557 11.556 13.1599 11.556H5.42747C5.0167 11.556 4.68789 11.2054 4.68789 10.7772C4.68789 10.3501 5.03038 9.99844 5.42747 9.99844Z" fill="#E6427A" stroke="white" stroke-width="0.2"/>
<path d="M0.961808 1.93155L0.961911 1.93156V1.92702V0.60123C0.961911 0.32661 1.17339 0.1 1.43632 0.1H2.70297C2.95447 0.1 3.17738 0.314646 3.17738 0.60123V1.92702C3.17738 2.20164 2.9659 2.42825 2.70297 2.42825H1.43632C1.16933 2.42825 0.9497 2.19832 0.961808 1.93155Z" fill="#E6427A" stroke="white" stroke-width="0.2"/>
<path d="M1.43574 9.59609H2.70239C2.96532 9.59609 3.1768 9.8228 3.1768 10.0973V11.4231C3.1768 11.6977 2.96532 11.9243 2.70239 11.9243H1.43574C1.18424 11.9243 0.961328 11.7097 0.961328 11.4231V10.0973C0.961328 9.8227 1.17281 9.59609 1.43574 9.59609Z" fill="#E6427A" stroke="white" stroke-width="0.2"/>
<path d="M2.90195 4.06735L2.90442 4.06395C3.1065 3.79046 3.49612 3.73653 3.77584 3.94873C4.04262 4.16235 4.10735 4.57896 3.88939 4.8742L3.88899 4.87475L2.19516 7.20256L2.19516 7.20256L2.19473 7.20316C2.08165 7.36099 1.89141 7.45434 1.70161 7.45434C1.51175 7.45434 1.32067 7.36088 1.20705 7.21656L0.23606 5.87693L0.236063 5.87692L0.235546 5.87622C0.0155386 5.57819 0.0703946 5.16293 0.348199 4.95144L0.348225 4.95147L0.350507 4.94963C0.628908 4.72447 1.00587 4.77523 1.22346 5.06998L1.62111 5.60954L1.70221 5.71958L1.78253 5.60897L2.90195 4.06735Z" fill="#E6427A" stroke="white" stroke-width="0.2"/>
</svg>
