<svg width="19" height="20" viewBox="0 0 19 20" fill="none" xmlns="http://www.w3.org/2000/svg">
<path d="M2.09448 0H12.8043L18.481 5.60752V18.75C18.481 19.4406 17.9164 20 17.2205 20H2.09448C1.39866 20 0.833984 19.4406 0.833984 18.75V1.24999C0.833984 0.559387 1.39873 0 2.09448 0Z" fill="#E2574C"/>
<path d="M18.4626 5.62422H14.0691C13.3733 5.62422 12.8086 5.06425 12.8086 4.37423V0.0117188L18.4626 5.62422Z" fill="#B53629"/>
<path d="M14.6432 9.76875C14.8827 9.76875 15 9.57373 15 9.38472C15 9.18901 14.8777 9 14.6432 9H13.2791C13.0124 9 12.8637 9.20635 12.8637 9.43413V12.5659C12.8637 12.8451 13.0339 13 13.2641 13C13.4929 13 13.6638 12.8451 13.6638 12.5659V11.7063H14.4888C14.7448 11.7063 14.8728 11.5106 14.8728 11.3163C14.8728 11.1259 14.7448 10.9369 14.4888 10.9369H13.6638V9.76875H14.6432ZM10.0325 9H9.03443C8.76345 9 8.57112 9.17367 8.57112 9.43144V12.5686C8.57112 12.8885 8.84779 12.9887 9.04582 12.9887H10.0932C11.3329 12.9887 12.1516 12.2266 12.1516 11.0504C12.1509 9.80683 11.3802 9 10.0325 9ZM10.0804 12.2153H9.472V9.77345H10.0204C10.8505 9.77345 11.2115 10.2938 11.2115 11.0117C11.2115 11.6836 10.8568 12.2153 10.0804 12.2153ZM6.42419 9H5.43542C5.15587 9 5 9.17228 5 9.43413V12.5659C5 12.8451 5.17873 13 5.41893 13C5.65913 13 5.83785 12.8451 5.83785 12.5659V11.6515H6.4577C7.22268 11.6515 7.85399 11.1452 7.85399 10.3311C7.85407 9.53434 7.24495 9 6.42419 9ZM6.40776 10.9169H5.83793V9.73537H6.40776C6.75952 9.73537 6.9833 9.99183 6.9833 10.3264C6.98256 10.6604 6.75952 10.9169 6.40776 10.9169Z" fill="white"/>
</svg>
