<svg width="18" height="20" viewBox="0 0 18 20" fill="none" xmlns="http://www.w3.org/2000/svg">
<path d="M1.41919 0H12.1291L17.8057 5.60752V18.75C17.8057 19.4406 17.2411 20 16.5453 20H1.41919C0.723368 20 0.158691 19.4406 0.158691 18.75V1.24999C0.158691 0.559387 0.723433 0 1.41919 0Z" fill="#6CC0E9"/>
<path d="M17.7874 5.62507H13.3939C12.698 5.62507 12.1334 5.0651 12.1334 4.37508V0.0125732L17.7874 5.62507Z" fill="#63AFD3"/>
<path d="M4.79518 9.06596H5.61878V11.5145C5.61878 11.8347 5.589 12.0809 5.52944 12.2533C5.44941 12.4785 5.30423 12.6596 5.09391 12.7968C4.88359 12.9323 4.60626 13 4.26193 13C3.85804 13 3.54721 12.8936 3.32944 12.6807C3.11168 12.4661 3.00186 12.1522 3 11.7388L3.77893 11.6544C3.78824 11.876 3.82267 12.0325 3.88223 12.124C3.97157 12.263 4.10745 12.3325 4.28985 12.3325C4.47411 12.3325 4.6044 12.2832 4.68071 12.1847C4.75702 12.0844 4.79518 11.8777 4.79518 11.5646V9.06596Z" fill="white"/>
<path d="M6.50102 12.934V9.06596H7.82716C8.3297 9.06596 8.65728 9.08531 8.8099 9.12401C9.04442 9.18206 9.24078 9.30871 9.39898 9.50396C9.55719 9.69745 9.63629 9.94811 9.63629 10.2559C9.63629 10.4934 9.59069 10.6931 9.49949 10.8549C9.40829 11.0167 9.29196 11.1442 9.15051 11.2375C9.01091 11.3289 8.86853 11.3896 8.72335 11.4195C8.52606 11.4565 8.24036 11.4749 7.86624 11.4749H7.32741V12.934H6.50102ZM7.32741 9.72032V10.8179H7.7797C8.10541 10.8179 8.32318 10.7977 8.43299 10.7573C8.54281 10.7168 8.62843 10.6535 8.68985 10.5673C8.75313 10.4811 8.78477 10.3808 8.78477 10.2665C8.78477 10.1258 8.74103 10.0097 8.65355 9.91821C8.56607 9.82674 8.45533 9.76957 8.32132 9.7467C8.22267 9.72911 8.02445 9.72032 7.72665 9.72032H7.32741Z" fill="white"/>
<path d="M12.2188 11.5119V10.8602H14V12.4011C13.8269 12.5594 13.5756 12.6992 13.2462 12.8206C12.9186 12.9402 12.5864 13 12.2495 13C11.8214 13 11.4482 12.9156 11.1299 12.7467C10.8117 12.5761 10.5725 12.3333 10.4124 12.0185C10.2524 11.7018 10.1723 11.358 10.1723 10.9868C10.1723 10.584 10.2617 10.226 10.4404 9.91293C10.619 9.59982 10.8805 9.35972 11.2249 9.19261C11.4873 9.0642 11.814 9 12.2048 9C12.7129 9 13.1094 9.10114 13.3942 9.30343C13.6808 9.50396 13.8651 9.78188 13.947 10.1372L13.1261 10.2823C13.0684 10.0923 12.9596 9.94283 12.7995 9.83377C12.6413 9.72296 12.4431 9.66755 12.2048 9.66755C11.8437 9.66755 11.5562 9.77573 11.3421 9.99208C11.1299 10.2084 11.0239 10.5295 11.0239 10.9551C11.0239 11.4142 11.1318 11.759 11.3477 11.9894C11.5636 12.2181 11.8465 12.3325 12.1964 12.3325C12.3695 12.3325 12.5426 12.3008 12.7157 12.2375C12.8907 12.1724 13.0405 12.0941 13.1652 12.0026V11.5119H12.2188Z" fill="white"/>
</svg>
