<svg width="18" height="20" viewBox="0 0 18 20" fill="none" xmlns="http://www.w3.org/2000/svg">
<path d="M1.41919 0H12.1291L17.8057 5.60752V18.75C17.8057 19.4406 17.2411 20 16.5453 20H1.41919C0.723368 20 0.158691 19.4406 0.158691 18.75V1.24999C0.158691 0.559387 0.723433 0 1.41919 0Z" fill="#6CC0E9"/>
<path d="M17.7874 5.62507H13.3939C12.698 5.62507 12.1334 5.0651 12.1334 4.37508V0.0125732L17.7874 5.62507Z" fill="#63AFD3"/>
<path d="M3 12.934V9.06596H4.36822C4.8867 9.06596 5.22468 9.08531 5.38214 9.12401C5.6241 9.18206 5.82669 9.30871 5.98992 9.50396C6.15314 9.69745 6.23476 9.94811 6.23476 10.2559C6.23476 10.4934 6.18771 10.6931 6.09361 10.8549C5.99952 11.0167 5.8795 11.1442 5.73356 11.2375C5.58953 11.3289 5.44263 11.3896 5.29285 11.4195C5.08929 11.4565 4.79453 11.4749 4.40855 11.4749H3.85262V12.934H3ZM3.85262 9.72032V10.8179H4.31925C4.6553 10.8179 4.87998 10.7977 4.99328 10.7573C5.10658 10.7168 5.19491 10.6535 5.25828 10.5673C5.32357 10.4811 5.35622 10.3808 5.35622 10.2665C5.35622 10.1258 5.31109 10.0097 5.22084 9.91821C5.13058 9.82674 5.01632 9.76957 4.87806 9.7467C4.77628 9.72911 4.57177 9.72032 4.26452 9.72032H3.85262Z" fill="white"/>
<path d="M6.94335 12.934V9.06596H7.77292L9.5012 11.6491V9.06596H10.2933V12.934H9.43783L7.73548 10.4116V12.934H6.94335Z" fill="white"/>
<path d="M13.1623 11.5119V10.8602H15V12.4011C14.8214 12.5594 14.5622 12.6992 14.2223 12.8206C13.8843 12.9402 13.5415 13 13.194 13C12.7523 13 12.3673 12.9156 12.0389 12.7467C11.7105 12.5761 11.4638 12.3333 11.2986 12.0185C11.1335 11.7018 11.0509 11.358 11.0509 10.9868C11.0509 10.584 11.1431 10.226 11.3274 9.91293C11.5118 9.59982 11.7816 9.35972 12.1368 9.19261C12.4076 9.0642 12.7446 9 13.1479 9C13.6721 9 14.0811 9.10114 14.3749 9.30343C14.6707 9.50396 14.8608 9.78188 14.9453 10.1372L14.0984 10.2823C14.0389 10.0923 13.9265 9.94283 13.7614 9.83377C13.5982 9.72296 13.3937 9.66755 13.1479 9.66755C12.7753 9.66755 12.4786 9.77573 12.2578 9.99208C12.0389 10.2084 11.9294 10.5295 11.9294 10.9551C11.9294 11.4142 12.0408 11.759 12.2636 11.9894C12.4863 12.2181 12.7782 12.3325 13.1392 12.3325C13.3178 12.3325 13.4964 12.3008 13.675 12.2375C13.8555 12.1724 14.0101 12.0941 14.1387 12.0026V11.5119H13.1623Z" fill="white"/>
</svg>
