<svg width="18" height="20" viewBox="0 0 18 20" fill="none" xmlns="http://www.w3.org/2000/svg">
<path d="M1.41919 0H12.1291L17.8057 5.60752V18.75C17.8057 19.4406 17.2411 20 16.5453 20H1.41919C0.723368 20 0.158691 19.4406 0.158691 18.75V1.24999C0.158691 0.559387 0.723433 0 1.41919 0Z" fill="#EEC347"/>
<path d="M17.7875 5.62495H13.394C12.6982 5.62495 12.1335 5.06498 12.1335 4.37496V0.0124512L17.7875 5.62495Z" fill="#D09233"/>
<path d="M3 13V12.4908L5.41475 9.70552H3.22765V9H6.79692V9.50307L4.37405 12.2945H6.81318V13H3Z" fill="white"/>
<path d="M7.74018 13V9H8.85406V13H7.74018Z" fill="white"/>
<path d="M10.138 13V9H11.9105C12.3007 9 12.6531 9.03885 12.9674 9.11656C13.2818 9.19427 13.5311 9.3272 13.7154 9.51534C13.9051 9.69939 14 9.95092 14 10.2699C14 10.5767 13.9079 10.8282 13.7236 11.0245C13.5393 11.2209 13.2899 11.3681 12.9756 11.4663C12.6666 11.5603 12.3224 11.6074 11.943 11.6074H11.2519V13H10.138ZM11.2519 10.9325H11.8698C12.2221 10.9325 12.4823 10.8773 12.6503 10.7669C12.8184 10.6524 12.9024 10.4867 12.9024 10.2699C12.9024 10.045 12.8102 9.88957 12.626 9.80368C12.4471 9.7137 12.1842 9.66871 11.8373 9.66871H11.2519V10.9325Z" fill="white"/>
</svg>
