<svg width="18" height="20" viewBox="0 0 18 20" fill="none" xmlns="http://www.w3.org/2000/svg">
<path d="M1.41919 0H12.1291L17.8057 5.60752V18.75C17.8057 19.4406 17.2411 20 16.5453 20H1.41919C0.723368 20 0.158691 19.4406 0.158691 18.75V1.24999C0.158691 0.559387 0.723433 0 1.41919 0Z" fill="#DE3258"/>
<path d="M17.7875 5.62495H13.394C12.6982 5.62495 12.1335 5.06498 12.1335 4.37496V0.0124512L17.7875 5.62495Z" fill="#B31647"/>
<path d="M3 12V8H4.7768C5.13215 8 5.45404 8.03681 5.74245 8.11043C6.03085 8.18405 6.26003 8.31084 6.42999 8.4908C6.60509 8.67076 6.69265 8.91616 6.69265 9.22699C6.69265 9.52556 6.60509 9.77096 6.42999 9.96319C6.26003 10.1513 6.03085 10.2924 5.74245 10.3865C5.45404 10.4765 5.13215 10.5215 4.7768 10.5215H4.05835V12H3ZM5.73472 12L4.58367 10.2945L5.32528 9.76687L6.9244 12H5.73472ZM4.05835 9.84663H4.68409C4.99825 9.84663 5.23773 9.7955 5.40254 9.69325C5.56734 9.58691 5.64974 9.43149 5.64974 9.22699C5.64974 9.0184 5.56734 8.87321 5.40254 8.79141C5.23773 8.70961 4.99825 8.66871 4.68409 8.66871H4.05835V9.84663Z" fill="white"/>
<path d="M7.03599 12L8.63511 8H9.90204L11.5012 12H10.381L9.68574 9.93865C9.61364 9.73415 9.54153 9.51943 9.46943 9.29448C9.40248 9.06953 9.33295 8.85072 9.26085 8.63804H9.22995C9.16815 8.85072 9.1012 9.06953 9.0291 9.29448C8.96214 9.51943 8.89262 9.73415 8.82051 9.93865L8.11752 12H7.03599ZM8.05572 11.0061V10.3497H10.466V11.0061H8.05572Z" fill="white"/>
<path d="M12.0756 12V8H13.8524C14.2078 8 14.5296 8.03681 14.818 8.11043C15.1065 8.18405 15.3356 8.31084 15.5056 8.4908C15.6807 8.67076 15.7682 8.91616 15.7682 9.22699C15.7682 9.52556 15.6807 9.77096 15.5056 9.96319C15.3356 10.1513 15.1065 10.2924 14.818 10.3865C14.5296 10.4765 14.2078 10.5215 13.8524 10.5215H13.134V12H12.0756ZM14.8103 12L13.6593 10.2945L14.4009 9.76687L16 12H14.8103ZM13.134 9.84663H13.7597C14.0739 9.84663 14.3133 9.7955 14.4781 9.69325C14.6429 9.58691 14.7253 9.43149 14.7253 9.22699C14.7253 9.0184 14.6429 8.87321 14.4781 8.79141C14.3133 8.70961 14.0739 8.66871 13.7597 8.66871H13.134V9.84663Z" fill="white"/>
</svg>
