<svg width="18" height="20" viewBox="0 0 18 20" fill="none" xmlns="http://www.w3.org/2000/svg">
<path d="M1.41919 0H12.1291L17.8057 5.60752V18.75C17.8057 19.4406 17.2411 20 16.5453 20H1.41919C0.723368 20 0.158691 19.4406 0.158691 18.75V1.24999C0.158691 0.559387 0.723433 0 1.41919 0Z" fill="#4C80F3"/>
<path d="M17.7875 5.62495H13.394C12.6982 5.62495 12.1335 5.06498 12.1335 4.37496V0.0124512L17.7875 5.62495Z" fill="#2E54AB"/>
<path d="M3 11.929V8.07101H4.21307C4.65987 8.07101 5.04636 8.14004 5.37252 8.27811C5.69869 8.41223 5.9489 8.6213 6.12315 8.90533C6.30187 9.1854 6.39123 9.54438 6.39123 9.98225C6.39123 10.4201 6.30187 10.783 6.12315 11.071C5.9489 11.359 5.70316 11.574 5.38593 11.716C5.0687 11.858 4.69562 11.929 4.26669 11.929H3ZM3.91818 11.2722H4.15945C4.4186 11.2722 4.64423 11.2288 4.83636 11.142C5.02848 11.0552 5.17816 10.9191 5.2854 10.7337C5.39263 10.5444 5.44624 10.2939 5.44624 9.98225C5.44624 9.67061 5.39263 9.42406 5.2854 9.2426C5.17816 9.0572 5.02848 8.92505 4.83636 8.84615C4.64423 8.76331 4.4186 8.72189 4.15945 8.72189H3.91818V11.2722Z" fill="white"/>
<path d="M8.99052 12C8.6018 12 8.25777 11.9191 7.95841 11.7574C7.66352 11.5957 7.43342 11.3649 7.2681 11.0651C7.10278 10.7613 7.02012 10.4004 7.02012 9.98225C7.02012 9.5641 7.10278 9.2071 7.2681 8.91124C7.43342 8.61538 7.66352 8.39053 7.95841 8.23669C8.25777 8.0789 8.6018 8 8.99052 8C9.37924 8 9.72105 8.0789 10.0159 8.23669C10.3108 8.39053 10.5409 8.61538 10.7062 8.91124C10.8716 9.2071 10.9542 9.5641 10.9542 9.98225C10.9542 10.4004 10.8716 10.7613 10.7062 11.0651C10.5409 11.3649 10.3108 11.5957 10.0159 11.7574C9.72105 11.9191 9.37924 12 8.99052 12ZM8.99052 11.2959C9.19605 11.2959 9.37477 11.2426 9.52669 11.1361C9.68307 11.0296 9.80147 10.8777 9.88189 10.6805C9.96679 10.4832 10.0092 10.2505 10.0092 9.98225C10.0092 9.714 9.96679 9.48521 9.88189 9.29586C9.80147 9.10256 9.68307 8.95464 9.52669 8.85207C9.37477 8.74951 9.19605 8.69823 8.99052 8.69823C8.78053 8.69823 8.59734 8.74951 8.44096 8.85207C8.28904 8.95464 8.17064 9.10256 8.08575 9.29586C8.00532 9.48521 7.96511 9.714 7.96511 9.98225C7.96511 10.2505 8.00532 10.4832 8.08575 10.6805C8.17064 10.8777 8.28904 11.0296 8.44096 11.1361C8.59734 11.2426 8.78053 11.2959 8.99052 11.2959Z" fill="white"/>
<path d="M13.5993 12C13.2284 12 12.8911 11.925 12.5873 11.7751C12.2834 11.6252 12.0399 11.4024 11.8567 11.1065C11.6736 10.8107 11.582 10.4477 11.582 10.0178C11.582 9.69822 11.6356 9.4142 11.7428 9.16568C11.85 8.91716 11.9975 8.70611 12.1851 8.53254C12.3773 8.35503 12.5962 8.22288 12.8419 8.13609C13.0922 8.04536 13.3535 8 13.6261 8C13.9076 8 14.1578 8.04931 14.3767 8.14793C14.6001 8.24655 14.7833 8.36292 14.9263 8.49704L14.437 9.01775C14.3253 8.92308 14.2069 8.84615 14.0818 8.78698C13.9567 8.72781 13.8115 8.69823 13.6462 8.69823C13.4362 8.69823 13.2463 8.75148 13.0765 8.85799C12.9067 8.96055 12.7727 9.10848 12.6744 9.30177C12.5761 9.49507 12.5269 9.72584 12.5269 9.99408C12.5269 10.2663 12.5716 10.501 12.661 10.6982C12.7503 10.8915 12.8777 11.0394 13.043 11.142C13.2128 11.2446 13.4094 11.2959 13.6328 11.2959C13.816 11.2959 13.9791 11.2604 14.122 11.1893C14.2695 11.1183 14.3991 11.0296 14.5108 10.9231L15 11.432C14.8213 11.6174 14.6135 11.7594 14.3767 11.858C14.1399 11.9527 13.8808 12 13.5993 12Z" fill="white"/>
</svg>
