<svg width="220" height="209" viewBox="0 0 220 209" fill="none" xmlns="http://www.w3.org/2000/svg">
<path d="M117.951 168.047H66.0278V208.027H117.951V168.047Z" fill="#EBEBEB"/>
<path d="M104.896 207.728C104.846 207.728 104.746 198.816 104.746 187.813C104.746 176.81 104.796 167.897 104.896 167.897C104.995 167.897 105.045 176.81 105.045 187.813C105.045 198.816 104.995 207.728 104.896 207.728Z" fill="#E0E0E0"/>
<path d="M113.516 198.916H109.53V203.397H113.516V198.916Z" fill="#FAFAFA"/>
<path d="M87.7538 168.146H81.8738V176.66H87.7538V168.146Z" fill="#E0E0E0"/>
<path d="M87.7538 199.364H81.8738V207.878H87.7538V199.364Z" fill="#E0E0E0"/>
<path d="M212.082 157.99H146.654V208.426H212.082V157.99Z" fill="#EBEBEB"/>
<path d="M195.687 208.077C195.637 208.077 195.538 196.825 195.538 182.984C195.538 169.093 195.588 157.891 195.687 157.891C195.737 157.891 195.837 169.143 195.837 182.984C195.837 196.825 195.787 208.077 195.687 208.077Z" fill="#E0E0E0"/>
<path d="M206.55 196.975H201.518V202.65H206.55V196.975Z" fill="#FAFAFA"/>
<path d="M174.061 158.14H166.636V168.894H174.061V158.14Z" fill="#E0E0E0"/>
<path d="M174.061 197.522H166.636V208.277H174.061V197.522Z" fill="#E0E0E0"/>
<path d="M29.1622 160.169C31.8033 158.824 34.9426 158.625 37.8826 159.123C39.4772 159.372 41.1216 159.87 42.168 161.065C43.2643 162.26 43.4636 164.351 42.2179 165.347C41.4704 165.944 40.4738 166.044 39.527 166.044C37.2348 165.994 34.6935 165.596 32.8497 166.99C31.8033 167.786 31.1056 169.081 29.8599 169.479C28.6141 169.878 27.2687 169.131 26.6209 168.035C25.9731 166.94 25.9731 165.546 26.2721 164.301C26.1724 164.251 26.5212 161.563 29.1622 160.169Z" fill="#EBEBEB"/>
<path d="M23.1326 148.468C24.7272 150.759 27.9163 150.012 29.3614 148.618C30.8065 147.224 31.4543 145.182 32.0025 143.191C33.2981 138.759 34.5937 134.079 33.6469 129.549C33.3479 128.204 32.8496 126.86 31.9028 125.814C30.956 124.819 29.4611 124.221 28.1655 124.57C26.5709 124.968 25.5743 126.561 24.8767 128.005C22.7838 132.337 21.6875 137.166 21.6377 141.996C21.5879 144.236 21.837 146.626 23.1326 148.468Z" fill="#EBEBEB"/>
<path d="M18.648 151.804C20.392 149.713 20.7409 146.675 19.9436 144.086C19.1463 141.497 17.4022 139.257 15.3591 137.415C12.9673 135.274 10.1768 133.631 7.13709 132.585C5.94116 132.187 4.69539 131.839 3.44963 131.938C2.20386 132.038 0.958094 132.685 0.360126 133.83C-0.486995 135.473 0.310296 137.465 1.20725 139.108C2.80183 141.995 4.59573 144.734 6.58896 147.323C8.18354 149.414 10.0771 151.455 12.5188 152.401C14.9605 153.347 17.5517 153.248 18.8473 151.505" fill="#EBEBEB"/>
<path d="M22.9834 183.32C23.0332 183.32 23.0831 182.972 23.1329 182.275C23.1827 181.528 23.2824 180.532 23.4319 179.387C23.5814 178.192 23.7309 176.748 24.0797 175.205C24.4285 173.662 24.9268 171.969 25.6244 170.226C26.3221 168.533 27.1692 166.99 28.1658 165.745C29.1624 164.5 30.3085 163.604 31.3549 163.106C32.4512 162.559 33.398 162.36 34.0458 162.26C34.6936 162.21 35.0922 162.16 35.0922 162.111C35.0922 162.061 34.6936 162.061 34.0458 162.111C33.3482 162.16 32.3516 162.31 31.2553 162.857C30.1092 163.355 28.9132 164.251 27.8668 165.546C26.8204 166.791 25.9234 168.384 25.2258 170.127C24.5281 171.869 24.0298 173.562 23.7309 175.155C23.4319 176.748 23.2824 178.192 23.1827 179.437C23.0831 180.632 23.0332 181.628 23.0332 182.325C22.9834 182.972 22.9834 183.32 22.9834 183.32Z" fill="#E0E0E0"/>
<path d="M23.1825 181.13C23.1825 181.13 23.1825 180.981 23.2324 180.632C23.2324 180.284 23.2324 179.786 23.2324 179.238C23.2324 178.043 23.2324 176.301 23.2822 174.11C23.3818 169.778 23.7805 165.148 24.4781 158.576C25.1757 152.402 26.0727 145.233 27.0195 140.552C27.2188 139.507 27.4181 138.561 27.6174 137.715C27.8168 136.868 27.9663 136.171 28.1158 135.574C28.2652 135.026 28.3649 134.578 28.4646 134.229C28.5144 133.931 28.5642 133.731 28.5642 133.731C28.5642 133.731 28.5144 133.881 28.4147 134.18C28.3151 134.528 28.1656 134.976 28.0161 135.524C27.8168 136.121 27.6673 136.818 27.4181 137.665C27.2188 138.511 26.9696 139.457 26.7205 140.503C25.7737 144.735 24.7771 150.66 24.0296 157.232C23.332 163.804 22.9832 169.778 22.9334 174.11C22.8835 176.301 22.9334 178.043 23.033 179.238C23.0829 179.786 23.0829 180.284 23.1327 180.632C23.1825 180.981 23.1825 181.13 23.1825 181.13Z" fill="#E0E0E0"/>
<path d="M23.2324 169.579C23.2823 169.579 23.2823 169.081 23.2324 168.135C23.1826 167.19 23.0331 165.845 22.784 164.202C22.485 162.559 22.1362 160.568 21.4884 158.477C21.2392 157.481 20.5914 155.19 19.0965 151.655C17.1033 146.926 14.4124 143.042 12.0206 140.652C11.4724 140.005 10.8744 139.557 10.3761 139.109C10.127 138.91 9.87784 138.661 9.67851 138.511C9.42936 138.362 9.23004 138.213 9.03071 138.063C8.23342 137.516 7.83478 137.267 7.78495 137.267C7.73512 137.366 9.52902 138.412 11.8212 140.851C14.1134 143.291 16.7046 147.125 18.6979 151.805C19.7941 154.344 20.5914 156.634 21.1396 158.526C21.7874 160.617 22.186 162.559 22.485 164.202C22.784 165.845 22.9833 167.19 23.083 168.086C23.1328 169.081 23.1826 169.579 23.2324 169.579Z" fill="#E0E0E0"/>
<path d="M11.2729 188.2L12.4689 204.032H32.7998L33.9957 188.2H11.2729Z" fill="#EBEBEB"/>
<path d="M36.4375 181.926H9.32959V188.149H36.4375V181.926Z" fill="#EBEBEB"/>
<path d="M9.32959 203.435V205.177H10.5754H35.9391V203.435H9.32959Z" fill="#E0E0E0"/>
<path d="M11.8212 208.015L10.5754 204.978H34.9925L33.5474 208.015H11.8212Z" fill="#E0E0E0"/>
<path d="M33.5969 193.377C33.5969 193.377 33.5471 193.427 33.4973 193.527C33.3976 193.626 33.298 193.776 33.1983 193.925C32.8993 194.273 32.5007 194.821 32.0024 195.419L31.9525 195.468L31.9027 195.419C31.1552 194.373 30.1586 193.029 28.9627 191.386H29.1122C28.2651 192.63 27.2685 193.975 26.222 195.468L26.1223 195.618L26.0227 195.518C24.9762 194.273 23.8301 192.879 22.6342 191.485H22.8335C22.7837 191.535 22.7339 191.635 22.6342 191.734C21.5878 193.078 20.5413 194.323 19.5945 195.568L19.4949 195.717L19.3952 195.568C18.3488 194.124 17.402 192.73 16.505 191.485H16.6545C15.2593 193.078 14.0633 194.473 13.1166 195.518L13.0667 195.568L13.0169 195.468C12.5684 194.672 12.1698 194.074 11.9206 193.626C11.821 193.427 11.7213 193.278 11.6216 193.128C11.5718 193.029 11.522 192.979 11.522 192.929C11.522 192.929 11.5718 192.979 11.6216 193.078C11.7213 193.228 11.821 193.377 11.9206 193.576C12.2196 194.024 12.6182 194.622 13.0667 195.419H12.9671C13.864 194.373 15.0599 192.979 16.4552 191.336L16.5549 191.236L16.6545 191.336C17.5515 192.581 18.4983 193.925 19.5447 195.369H19.3454C20.2922 194.174 21.3386 192.879 22.3851 191.535C22.4349 191.435 22.5345 191.386 22.5844 191.286L22.684 191.187L22.7837 191.286C23.9796 192.73 25.1257 194.074 26.1722 195.319H25.9729C27.0193 193.875 28.0159 192.481 28.863 191.286L28.9627 191.187L29.0624 191.286C30.2085 192.929 31.2051 194.323 31.9027 195.369H31.803C32.3013 194.722 32.7498 194.273 33.0488 193.875C33.1983 193.726 33.298 193.576 33.3976 193.477C33.5471 193.427 33.5969 193.377 33.5969 193.377Z" fill="#F5F5F5"/>
<path d="M34.2448 188.1C34.2448 188.15 29.1621 188.249 22.8336 188.249C16.5549 188.249 11.4224 188.2 11.4224 188.1C11.4224 188.05 16.5051 187.951 22.8336 187.951C29.1621 187.951 34.2448 188 34.2448 188.1Z" fill="#F5F5F5"/>
<path d="M171.367 7.76664L167.181 7.78906L167.292 28.5509L171.478 28.5284L171.367 7.76664Z" fill="#E0E0E0"/>
<path d="M141.841 7.79855L131.028 7.85645L131.089 19.3078L141.903 19.2499L141.841 7.79855Z" fill="#EBEBEB"/>
<path d="M152.605 7.74874L141.792 7.80664L141.853 19.258L152.666 19.2001L152.605 7.74874Z" fill="#F5F5F5"/>
<path d="M131.007 11.0147C138.183 11.0644 145.408 11.0147 152.584 10.9151C152.733 10.9151 152.733 10.6661 152.584 10.6661C145.408 10.6163 138.183 10.6661 131.007 10.8155C130.907 10.8155 130.907 11.0147 131.007 11.0147Z" fill="#E0E0E0"/>
<path d="M143.89 19.0784L124.257 19.1836L124.307 28.5438L143.94 28.4386L143.89 19.0784Z" fill="#EBEBEB"/>
<path d="M163.474 18.9788L143.84 19.084L143.89 28.4442L163.524 28.3391L163.474 18.9788Z" fill="#F5F5F5"/>
<path d="M124.28 21.7687C137.335 21.918 150.441 21.7687 163.497 21.5695C163.646 21.5695 163.646 21.3206 163.497 21.3206C150.441 21.2708 137.335 21.2708 124.28 21.5695C124.18 21.5695 124.18 21.7687 124.28 21.7687Z" fill="#E0E0E0"/>
<path d="M193.096 28.5391H116.955V31.8749H193.096V28.5391Z" fill="#E0E0E0"/>
<path d="M132.502 30.1318H129.413V41.5334H132.502V30.1318Z" fill="#E0E0E0"/>
<path d="M178.595 30.1318H175.506V41.5334H178.595V30.1318Z" fill="#E0E0E0"/>
<path d="M175.432 3.44531e-05L171.246 0.0224609L171.399 28.6011L175.585 28.5786L175.432 3.44531e-05Z" fill="#EBEBEB"/>
<path d="M181.974 5.32172L175.496 5.35645L175.62 28.5081L182.098 28.4734L181.974 5.32172Z" fill="#F5F5F5"/>
<path d="M181.934 9.77048C181.934 9.82026 180.489 9.87005 178.695 9.87005C176.901 9.87005 175.456 9.82026 175.456 9.77048C175.456 9.72069 176.901 9.6709 178.695 9.6709C180.489 9.6709 181.934 9.72069 181.934 9.77048Z" fill="#E0E0E0"/>
<path d="M181.934 8.82419C181.934 8.87398 180.489 8.92376 178.695 8.92376C176.901 8.92376 175.456 8.87398 175.456 8.82419C175.456 8.7744 176.901 8.72461 178.695 8.72461C180.489 8.72461 181.934 8.7744 181.934 8.82419Z" fill="#E0E0E0"/>
<path d="M181.934 25.0049C181.934 25.0546 180.489 25.1044 178.695 25.1044C176.901 25.1044 175.456 25.0546 175.456 25.0049C175.456 24.9551 176.901 24.9053 178.695 24.9053C180.489 24.8555 181.934 24.9053 181.934 25.0049Z" fill="#E0E0E0"/>
<path d="M181.934 24.0097C181.934 24.0595 180.489 24.1093 178.695 24.1093C176.901 24.1093 175.456 24.0595 175.456 24.0097C175.456 23.9599 176.901 23.9102 178.695 23.9102C180.489 23.9102 181.934 23.9599 181.934 24.0097Z" fill="#E0E0E0"/>
<path d="M178.795 21.8677C178.745 21.8677 178.695 19.5276 178.695 16.6399C178.695 13.7522 178.745 11.4121 178.795 11.4121C178.844 11.4121 178.894 13.7522 178.894 16.6399C178.894 19.5774 178.844 21.8677 178.795 21.8677Z" fill="#E0E0E0"/>
<path d="M189.06 11.0137H181.984V28.4894H189.06V11.0137Z" fill="#EBEBEB"/>
<path d="M173.313 6.08516C173.974 6.08516 174.509 5.55018 174.509 4.89024C174.509 4.2303 173.974 3.69531 173.313 3.69531C172.653 3.69531 172.117 4.2303 172.117 4.89024C172.117 5.55018 172.653 6.08516 173.313 6.08516Z" fill="#E0E0E0"/>
<path d="M173.661 8.17676H172.915V25.1546H173.661V8.17676Z" fill="#E0E0E0"/>
<path d="M214.324 208.177C214.324 208.227 166.437 208.326 107.388 208.326C48.2884 208.326 0.401123 208.276 0.401123 208.177C0.401123 208.127 48.2884 208.027 107.388 208.027C166.437 208.027 214.324 208.077 214.324 208.177Z" fill="#263238"/>
<path d="M198.926 195.132C198.926 195.132 198.976 195.082 199.026 194.933C199.075 194.783 199.175 194.584 199.325 194.335C199.574 193.788 199.873 192.991 200.172 191.945C200.72 189.805 200.919 186.518 200.122 182.635C199.723 180.693 199.125 178.602 198.378 176.411C197.63 174.171 196.783 171.831 196.086 169.292C195.388 166.752 194.84 164.014 194.939 161.126C195.039 158.239 195.886 155.351 196.833 152.463C197.78 149.575 198.727 146.787 199.026 143.949C199.374 141.111 198.727 138.373 197.481 136.083C196.235 133.792 194.641 131.801 193.494 129.809C192.298 127.768 191.551 125.677 191.103 123.735C190.206 119.802 190.505 116.516 190.953 114.375C191.402 112.184 191.95 111.089 191.95 111.089C191.95 111.089 191.95 111.188 191.9 111.288C191.85 111.437 191.8 111.637 191.701 111.935C191.551 112.483 191.302 113.329 191.103 114.425C190.704 116.615 190.455 119.852 191.352 123.735C191.8 125.677 192.548 127.718 193.744 129.71C194.94 131.701 196.484 133.693 197.78 135.983C199.075 138.273 199.723 141.161 199.374 143.999C199.075 146.887 198.079 149.725 197.182 152.563C196.235 155.45 195.388 158.288 195.288 161.126C195.189 163.964 195.687 166.703 196.385 169.242C197.082 171.781 197.929 174.121 198.627 176.362C199.374 178.602 199.972 180.693 200.321 182.635C201.119 186.568 200.869 189.854 200.321 191.995C200.022 193.091 199.673 193.887 199.424 194.385C199.275 194.634 199.175 194.833 199.125 194.983C198.976 195.082 198.976 195.132 198.926 195.132Z" fill="#263238"/>
<path d="M195.089 131.751C195.089 131.751 192.697 124.133 196.983 119.652C197.132 119.503 197.382 119.553 197.431 119.802C197.68 121.046 197.979 124.88 195.089 131.751Z" fill="#FA96BB"/>
<path d="M196.533 122.191C196.583 122.191 196.483 122.739 196.384 123.585C196.234 124.531 196.035 125.677 195.836 126.971C195.637 128.216 195.438 129.361 195.288 130.307C195.139 131.153 195.089 131.701 195.04 131.701C194.99 131.701 194.99 131.153 195.089 130.307C195.189 129.461 195.338 128.216 195.537 126.921C195.737 125.627 195.986 124.432 196.185 123.585C196.334 122.739 196.483 122.191 196.533 122.191Z" fill="#263238"/>
<path d="M197.929 149.724C197.929 149.724 199.375 141.858 205.255 139.916C205.454 139.866 205.653 140.015 205.603 140.264C205.205 141.459 203.66 144.994 197.929 149.724Z" fill="#FA96BB"/>
<path d="M203.66 141.957C203.71 142.007 203.361 142.405 202.863 143.102C202.265 143.899 201.567 144.795 200.82 145.841C200.072 146.836 199.375 147.782 198.777 148.579C198.278 149.276 197.93 149.724 197.88 149.674C197.83 149.674 198.129 149.176 198.577 148.43C199.076 147.683 199.773 146.687 200.571 145.641C201.368 144.596 202.115 143.65 202.713 142.953C203.212 142.355 203.61 141.957 203.66 141.957Z" fill="#263238"/>
<path d="M196.335 169.441C196.335 169.441 195.438 161.524 200.52 157.94C200.72 157.79 200.919 157.94 200.919 158.139C200.869 159.433 200.421 163.217 196.335 169.441Z" fill="#FA96BB"/>
<path d="M199.524 160.329C199.574 160.329 199.374 160.877 199.075 161.673C198.727 162.57 198.328 163.665 197.88 164.86C197.431 166.055 197.032 167.15 196.733 168.046C196.434 168.843 196.285 169.391 196.235 169.341C196.185 169.341 196.285 168.793 196.534 167.947C196.783 167.1 197.182 165.955 197.63 164.71C198.079 163.466 198.527 162.321 198.876 161.524C199.275 160.777 199.524 160.329 199.524 160.329Z" fill="#263238"/>
<path d="M200.72 189.207C200.72 189.207 200.122 181.241 205.304 177.856C205.504 177.756 205.703 177.856 205.703 178.104C205.653 179.399 205.055 183.183 200.72 189.207Z" fill="#FA96BB"/>
<path d="M204.308 180.246C204.358 180.246 204.159 180.794 203.81 181.59C203.461 182.487 203.012 183.582 202.514 184.727C202.016 185.922 201.617 186.968 201.219 187.864C200.92 188.66 200.72 189.158 200.67 189.158C200.621 189.158 200.77 188.611 201.019 187.764C201.268 186.918 201.717 185.822 202.215 184.578C202.713 183.333 203.212 182.238 203.61 181.441C204.009 180.694 204.258 180.246 204.308 180.246Z" fill="#263238"/>
<path d="M191.701 125.079C191.701 125.079 184.625 121.395 184.475 115.221C184.475 115.022 184.725 114.873 184.874 114.972C185.92 115.669 188.86 118.208 191.701 125.079Z" fill="#FA96BB"/>
<path d="M185.92 117.312C185.97 117.312 186.269 117.71 186.817 118.407C187.415 119.203 188.063 120.149 188.81 121.145C189.558 122.191 190.255 123.087 190.804 123.884C191.302 124.581 191.651 125.029 191.601 125.029C191.551 125.079 191.202 124.68 190.604 123.983C190.056 123.336 189.309 122.34 188.511 121.295C187.714 120.199 187.066 119.203 186.568 118.457C186.169 117.809 185.87 117.312 185.92 117.312Z" fill="#263238"/>
<path d="M199.275 141.41C199.275 141.41 192 138.174 191.451 132C191.451 131.801 191.651 131.652 191.85 131.751C192.946 132.399 196.036 134.739 199.275 141.41Z" fill="#FA96BB"/>
<path d="M193.096 134.042C193.146 133.992 193.495 134.44 194.043 135.087C194.641 135.834 195.388 136.73 196.185 137.726C196.983 138.722 197.73 139.618 198.328 140.365C198.876 141.012 199.225 141.46 199.225 141.46C199.175 141.51 198.777 141.112 198.179 140.514C197.581 139.867 196.783 138.971 195.936 137.925C195.089 136.88 194.342 135.934 193.843 135.237C193.345 134.54 193.046 134.042 193.096 134.042Z" fill="#263238"/>
<path d="M195.089 159.682C195.089 159.682 190.056 153.459 192.448 147.733C192.548 147.534 192.797 147.484 192.897 147.683C193.594 148.779 195.239 152.264 195.089 159.682Z" fill="#FA96BB"/>
<path d="M192.946 150.272C192.996 150.272 193.096 150.77 193.295 151.617C193.495 152.563 193.744 153.708 194.043 154.953C194.292 156.197 194.541 157.342 194.79 158.288C194.989 159.135 195.089 159.683 195.039 159.683C194.989 159.683 194.79 159.185 194.541 158.338C194.292 157.492 193.993 156.347 193.744 155.002C193.445 153.708 193.245 152.513 193.096 151.667C192.946 150.82 192.897 150.272 192.946 150.272Z" fill="#263238"/>
<path d="M200.072 181.141C200.072 181.141 192.847 177.755 192.448 171.581C192.448 171.382 192.648 171.233 192.847 171.332C193.893 172.03 196.933 174.419 200.072 181.141Z" fill="#FA96BB"/>
<path d="M193.943 173.672C193.993 173.672 194.342 174.07 194.89 174.717C195.488 175.464 196.236 176.41 196.983 177.406C197.78 178.402 198.478 179.298 199.126 180.045C199.674 180.742 200.023 181.14 199.973 181.19C199.923 181.24 199.524 180.841 198.976 180.194C198.378 179.547 197.581 178.651 196.784 177.605C195.937 176.56 195.239 175.614 194.741 174.867C194.242 174.17 193.943 173.672 193.943 173.672Z" fill="#263238"/>
<path d="M214.474 149.774C214.474 149.774 214.474 149.824 214.474 149.974C214.474 150.123 214.474 150.272 214.474 150.471C214.474 150.969 214.424 151.617 214.374 152.413C214.274 154.106 214.175 156.496 213.975 159.334C213.477 162.222 211.982 165.408 209.989 168.545C208.544 170.835 206.999 172.926 205.703 174.868C204.408 176.81 203.262 178.602 202.514 180.195C201.717 181.788 201.268 183.133 201.019 184.079C200.87 184.577 200.82 184.925 200.72 185.174C200.67 185.423 200.621 185.572 200.621 185.572C200.621 185.572 200.621 185.423 200.67 185.174C200.72 184.925 200.77 184.527 200.92 184.029C201.169 183.083 201.567 181.689 202.365 180.096C203.112 178.502 204.208 176.66 205.554 174.718C206.849 172.777 208.394 170.686 209.789 168.395C211.733 165.308 213.228 162.172 213.776 159.284C213.975 156.446 214.125 154.056 214.274 152.363C214.324 151.567 214.374 150.92 214.424 150.422C214.424 150.223 214.474 150.073 214.474 149.924C214.474 149.824 214.474 149.774 214.474 149.774Z" fill="#263238"/>
<path d="M210.138 167.947C210.138 167.947 213.228 160.578 209.341 155.749C209.191 155.6 208.942 155.649 208.892 155.849C208.544 157.043 207.946 160.827 210.138 167.947Z" fill="#FA96BB"/>
<path d="M209.59 158.288C209.64 158.288 209.739 158.836 209.839 159.682C209.938 160.529 210.088 161.723 210.187 163.068C210.287 164.412 210.337 165.607 210.337 166.453C210.337 167.35 210.287 167.847 210.237 167.847C210.187 167.847 210.187 167.3 210.088 166.453C210.038 165.458 209.938 164.312 209.839 163.068C209.739 161.823 209.689 160.628 209.59 159.682C209.59 158.836 209.54 158.288 209.59 158.288Z" fill="#263238"/>
<g opacity="0.3">
<path d="M210.138 167.947C210.138 167.947 213.228 160.578 209.341 155.749C209.191 155.6 208.942 155.649 208.892 155.849C208.544 157.043 207.946 160.827 210.138 167.947Z" fill="black"/>
</g>
<path d="M200.67 185.672C200.67 185.672 203.112 178.054 198.876 173.573C198.727 173.424 198.478 173.474 198.428 173.723C198.179 174.967 197.88 178.801 200.67 185.672Z" fill="#FA96BB"/>
<path d="M199.325 176.162C199.375 176.162 199.524 176.66 199.673 177.556C199.872 178.403 200.072 179.598 200.271 180.892C200.47 182.187 200.619 183.431 200.669 184.278C200.719 185.174 200.719 185.672 200.719 185.672C200.669 185.672 200.619 185.124 200.47 184.278C200.321 183.332 200.171 182.187 199.972 180.892C199.773 179.647 199.624 178.502 199.474 177.506C199.325 176.66 199.275 176.162 199.325 176.162Z" fill="#263238"/>
<g opacity="0.3">
<path d="M200.67 185.672C200.67 185.672 203.112 178.054 198.876 173.573C198.727 173.424 198.478 173.474 198.428 173.723C198.179 174.967 197.88 178.801 200.67 185.672Z" fill="black"/>
</g>
<path d="M214.075 158.936C214.075 158.936 220.603 154.355 219.955 148.231C219.955 148.032 219.656 147.932 219.506 148.082C218.559 148.878 215.968 151.766 214.075 158.936Z" fill="#FA96BB"/>
<g opacity="0.3">
<path d="M214.075 158.936C214.075 158.936 220.603 154.355 219.955 148.231C219.955 148.032 219.656 147.932 219.506 148.082C218.559 148.878 215.968 151.766 214.075 158.936Z" fill="black"/>
</g>
<path d="M218.759 150.471C218.809 150.471 218.609 150.969 218.211 151.765C217.862 152.562 217.314 153.607 216.666 154.802C216.018 155.997 215.42 156.993 214.972 157.74C214.523 158.487 214.174 158.885 214.125 158.885C214.075 158.885 214.374 158.387 214.772 157.64C215.221 156.794 215.819 155.748 216.417 154.653C217.015 153.558 217.563 152.512 218.061 151.666C218.46 150.919 218.709 150.471 218.759 150.471Z" fill="#263238"/>
<path d="M203.311 178.154C203.311 178.154 211.185 176.909 213.327 171.134C213.377 170.934 213.228 170.735 213.028 170.785C211.782 171.134 208.195 172.577 203.311 178.154Z" fill="#FA96BB"/>
<g opacity="0.3">
<path d="M203.311 178.154C203.311 178.154 211.185 176.909 213.327 171.134C213.377 170.934 213.228 170.735 213.028 170.785C211.782 171.134 208.195 172.577 203.311 178.154Z" fill="black"/>
</g>
<path d="M211.234 172.677C211.284 172.727 210.836 173.076 210.188 173.623C209.49 174.171 208.543 174.918 207.447 175.665C206.351 176.461 205.354 177.108 204.607 177.557C203.859 178.005 203.361 178.254 203.361 178.204C203.361 178.154 203.76 177.855 204.507 177.357C205.304 176.81 206.251 176.113 207.298 175.416C208.344 174.669 209.291 174.022 210.088 173.424C210.736 172.926 211.234 172.627 211.234 172.677Z" fill="#263238"/>
<path d="M195.787 192.692L193.445 208.177H207.796L205.952 192.692H195.787Z" fill="#9CBDEB"/>
<path d="M206.55 197.472C206.55 197.572 203.959 197.621 200.77 197.621C197.581 197.621 194.99 197.572 194.99 197.472C194.99 197.373 197.581 197.323 200.77 197.323C203.959 197.323 206.55 197.373 206.55 197.472Z" fill="#5E718D"/>
<path d="M206.799 198.716C206.799 198.816 204.109 198.866 200.82 198.866C197.531 198.866 194.84 198.816 194.84 198.716C194.84 198.617 197.531 198.567 200.82 198.567C204.158 198.567 206.799 198.617 206.799 198.716Z" fill="#5E718D"/>
<path d="M150.989 42.4811C150.989 42.4811 150.839 42.4811 150.59 42.4811C150.341 42.4811 149.942 42.4313 149.444 42.4811C148.447 42.5309 146.953 42.7301 145.208 43.4769C143.464 44.2237 141.421 45.5182 139.827 47.6591C139.029 48.7545 138.332 50.049 137.933 51.4928C137.535 52.9865 137.385 54.5797 137.584 56.2725C137.784 57.9653 138.332 59.7079 139.229 61.3012C139.677 62.0978 140.225 62.8446 140.923 63.5417C141.571 64.2387 142.368 64.8859 143.215 65.334C144.062 65.7821 145.059 66.0809 146.105 66.0809C147.102 66.0311 148.148 65.6826 148.896 64.9357C149.643 64.1889 149.992 63.1433 149.992 62.048C149.992 60.9527 149.643 59.9071 148.996 59.0109C147.7 57.2185 145.607 55.9738 143.365 55.3265C141.122 54.6793 138.631 54.6793 136.289 55.227C135.093 55.5257 133.947 55.9738 132.9 56.5713C131.804 57.1687 130.857 57.9653 129.96 58.8615C129.761 59.1105 129.512 59.3096 129.362 59.5586L128.814 60.3054C128.465 60.8531 128.166 61.4007 127.917 61.9484C127.369 63.0936 127.02 64.3383 126.821 65.6328C126.472 68.172 126.771 70.8108 127.818 73.1011C128.814 75.3913 130.508 77.3829 132.651 78.5778C133.698 79.1752 134.894 79.5238 136.04 79.6233C137.236 79.6731 138.382 79.3744 139.378 78.8267C140.375 78.2293 141.222 77.3829 141.67 76.3373C142.119 75.2917 142.119 74.0968 141.72 73.1011C141.371 72.0555 140.674 71.1593 139.827 70.4623C139.029 69.7652 138.083 69.2175 137.086 68.869C135.093 68.2218 132.95 68.2716 131.007 68.7695C129.063 69.2673 127.369 70.2631 126.024 71.5576C124.678 72.8521 123.731 74.3956 123.183 75.9888C122.037 79.1753 122.336 82.4613 123.333 84.9507C124.329 87.4401 125.974 89.2325 127.419 90.4275C128.914 91.6224 130.259 92.2696 131.206 92.6181C131.655 92.8173 132.053 92.9169 132.302 93.0165C132.551 93.116 132.651 93.116 132.651 93.116C132.651 93.116 132.502 93.0662 132.252 93.0165C132.003 92.9667 131.655 92.8173 131.156 92.6679C130.209 92.3194 128.864 91.6722 127.319 90.527C125.824 89.3321 124.18 87.5397 123.133 85.0503C122.137 82.5609 121.788 79.225 122.984 75.9888C123.532 74.3956 124.529 72.8023 125.874 71.5078C127.22 70.2133 128.964 69.2175 130.907 68.6699C132.85 68.1222 135.043 68.0724 137.086 68.7695C138.083 69.118 139.079 69.6656 139.926 70.4125C140.774 71.1593 141.471 72.0555 141.87 73.1508C142.268 74.2462 142.268 75.4909 141.82 76.5862C141.372 77.6816 140.475 78.5778 139.428 79.1752C138.382 79.7727 137.136 80.0714 135.94 80.0216C134.694 79.9719 133.498 79.5736 132.402 78.9761C130.209 77.7812 128.515 75.7398 127.469 73.3998C126.422 71.0597 126.123 68.3711 126.422 65.7821C126.622 64.4876 126.97 63.2429 127.519 62.048C127.768 61.4505 128.117 60.9029 128.465 60.3552L129.063 59.5586C129.263 59.3096 129.512 59.0607 129.711 58.8117C130.608 57.8658 131.605 57.0691 132.701 56.4717C133.797 55.8742 134.993 55.4261 136.189 55.0776C138.581 54.4801 141.122 54.5299 143.415 55.1772C145.707 55.8742 147.8 57.0691 149.145 58.9611C149.793 59.9071 150.192 61.0024 150.192 62.1476C150.192 63.2429 149.793 64.3881 148.996 65.1847C148.198 65.9813 147.102 66.3298 146.056 66.3796C145.009 66.4294 143.963 66.1307 143.066 65.6328C142.169 65.1349 141.371 64.4876 140.724 63.7906C140.026 63.0936 139.478 62.2969 139.029 61.5003C138.083 59.8573 137.584 58.1147 137.335 56.4219C137.136 54.7291 137.285 53.0363 137.684 51.5426C138.083 50.049 138.78 48.7545 139.627 47.6591C141.272 45.4684 143.315 44.1739 145.109 43.4769C146.903 42.7301 148.398 42.5807 149.394 42.5309C149.893 42.4811 150.291 42.5309 150.54 42.5309C150.889 42.4313 150.989 42.4811 150.989 42.4811Z" fill="#9C9C9C"/>
<path d="M167.633 92.2695H97.77V146.091H167.633V92.2695Z" fill="#9CBDEB"/>
<path d="M97.77 92.2695L110.676 104.318H179.393L167.633 92.2695H97.77Z" fill="#9CBDEB"/>
<path d="M97.77 92.2695C99.0158 92.2695 127.868 92.2197 167.633 92.1201H167.682L167.732 92.1699C171.47 96.0036 175.356 99.9867 179.343 104.069C179.393 104.119 179.442 104.169 179.442 104.169L179.642 104.368H179.343C151.188 104.368 126.173 104.318 110.676 104.318H110.626C102.554 96.8002 98.2185 92.6678 97.77 92.2695C98.2185 92.6678 102.604 96.7007 110.726 104.219H110.676C126.223 104.219 151.188 104.169 179.343 104.169L179.243 104.368C179.193 104.318 179.143 104.269 179.143 104.269C175.157 100.186 171.27 96.2028 167.533 92.3691L167.633 92.4189C127.918 92.3193 99.0656 92.2695 97.77 92.2695Z" fill="#263238"/>
<path d="M118.749 117.114C118.001 117.114 117.354 117.762 117.304 118.508C117.304 119.255 117.952 119.952 118.699 119.952C119.446 120.002 120.144 119.355 120.194 118.608C120.244 117.861 119.596 117.164 118.848 117.114" fill="#263238"/>
<path d="M135.243 117.114C134.495 117.114 133.847 117.762 133.798 118.508C133.798 119.255 134.445 119.952 135.193 119.952C135.94 120.002 136.638 119.355 136.688 118.608C136.738 117.861 136.09 117.164 135.342 117.114" fill="#263238"/>
<path d="M135.392 130.01C135.343 130.06 135.193 128.666 133.997 126.923C133.399 126.077 132.552 125.131 131.356 124.384C130.21 123.637 128.715 123.089 127.12 123.039C125.526 122.99 124.031 123.488 122.835 124.135C121.639 124.832 120.692 125.678 120.045 126.525C118.749 128.217 118.55 129.562 118.5 129.562C118.5 129.562 118.5 129.462 118.55 129.313C118.599 129.163 118.599 128.915 118.749 128.666C118.948 128.118 119.297 127.321 119.945 126.425C120.593 125.579 121.49 124.633 122.735 123.936C123.981 123.239 125.526 122.741 127.17 122.791C128.815 122.84 130.359 123.388 131.506 124.185C132.701 124.981 133.598 125.927 134.147 126.823C134.745 127.72 135.044 128.516 135.193 129.114C135.293 129.412 135.293 129.612 135.343 129.761C135.392 129.91 135.392 130.01 135.392 130.01Z" fill="#263238"/>
<path opacity="0.5" d="M97.9194 92.8672L110.277 108.551H167.632V104.319H110.676L97.9194 92.8672Z" fill="black"/>
<path d="M153.879 145.991C153.829 145.991 153.73 136.631 153.73 125.08C153.73 113.529 153.78 104.169 153.879 104.169C153.929 104.169 154.028 113.529 154.028 125.08C153.979 136.631 153.929 145.991 153.879 145.991Z" fill="#263238"/>
<path d="M164.842 133.793H158.663V140.763H164.842V133.793Z" fill="#F5F5F5"/>
<path d="M97.7699 92.2695L83.4187 104.318H97.7699V92.2695Z" fill="#9CBDEB"/>
<g opacity="0.4">
<path d="M97.7699 92.2695L83.4187 104.318H97.7699V92.2695Z" fill="black"/>
</g>
<path d="M169.725 146.141H89.3984V208.028H169.725V146.141Z" fill="#9CBDEB"/>
<path opacity="0.19" d="M169.725 146.141H89.3984V208.028H169.725V146.141Z" fill="black"/>
<path d="M149.594 207.58C149.544 207.58 149.444 193.788 149.444 176.76C149.444 159.733 149.494 145.941 149.594 145.941C149.693 145.941 149.743 159.733 149.743 176.76C149.693 193.788 149.643 207.58 149.594 207.58Z" fill="#263238"/>
<path d="M162.898 193.938H156.719V200.908H162.898V193.938Z" fill="#F5F5F5"/>
<path d="M122.984 146.29H113.865V159.484H122.984V146.29Z" fill="#263238"/>
<path d="M122.984 194.635H113.865V207.829H122.984V194.635Z" fill="#263238"/>
<path d="M169.028 146.141C169.028 146.141 168.978 146.141 168.828 146.141C168.679 146.141 168.48 146.141 168.231 146.141C167.682 146.141 166.885 146.141 165.888 146.141C163.845 146.141 160.955 146.141 157.367 146.19C150.142 146.19 140.226 146.19 129.213 146.24C118.201 146.24 108.284 146.19 101.059 146.19C97.471 146.19 94.531 146.141 92.5378 146.141C91.5412 146.141 90.7439 146.141 90.1957 146.141C89.9466 146.141 89.7472 146.141 89.5978 146.141C89.4483 146.141 89.3984 146.141 89.3984 146.141C89.3984 146.141 89.4483 146.141 89.5978 146.141C89.7472 146.141 89.9466 146.141 90.1957 146.141C90.7439 146.141 91.5412 146.141 92.5378 146.141C94.5808 146.141 97.471 146.141 101.059 146.091C108.284 146.091 118.201 146.091 129.213 146.041C140.176 146.041 150.142 146.091 157.367 146.091C160.955 146.091 163.895 146.141 165.888 146.141C166.885 146.141 167.682 146.141 168.231 146.141C168.48 146.141 168.679 146.141 168.828 146.141C168.928 146.141 169.028 146.141 169.028 146.141Z" fill="#263238"/>
<path d="M52.9182 37.7972C52.3202 37.6478 49.5795 36.9508 44.148 35.6563H44.1978C42.2544 36.901 39.6632 37.847 36.6236 37.8968C35.1287 37.8968 33.5341 37.6976 31.9395 37.1997C30.3449 36.7019 28.8002 35.9052 27.3551 34.7601C24.5147 32.5694 22.3222 29.0842 21.8239 25.0016C21.5747 23.01 21.7242 20.8691 22.372 18.8776C23.0198 16.886 24.1161 14.9443 25.5612 13.351C26.3086 12.5046 27.2056 11.8076 28.1025 11.1603C28.551 10.8616 29.0493 10.5629 29.5476 10.3139L30.2951 9.96542L30.7436 9.81606L31.1422 9.66669C33.1853 8.87007 35.328 8.57134 37.4209 8.72071C39.5138 8.87007 41.507 9.41775 43.251 10.3637C44.9951 11.2599 46.49 12.5046 47.686 13.9485C48.8819 15.3426 49.729 16.9358 50.2772 18.529C50.8253 20.1223 51.0745 21.7155 51.0745 23.259C51.0745 26.2961 50.1277 28.9348 48.9816 30.8268V30.7272C51.4233 35.1086 52.6192 37.2993 52.9182 37.7972C52.6192 37.2993 51.3734 35.1086 48.8321 30.777V30.7272V30.6774C49.9782 28.7855 50.8751 26.1965 50.8751 23.2092C50.8751 21.7155 50.5762 20.1223 50.0778 18.5788C49.5297 17.0354 48.6826 15.4422 47.5365 14.0979C46.3904 12.7038 44.8955 11.5089 43.2012 10.6127C41.507 9.71648 39.5138 9.1688 37.4707 9.01944C35.4276 8.87007 33.2849 9.1688 31.2917 9.96542L30.8931 10.1148L30.5442 10.3139L29.7968 10.6625C29.2985 10.9114 28.85 11.2101 28.4015 11.5089C27.5046 12.1561 26.6574 12.8532 25.91 13.6498C24.4649 15.243 23.3686 17.0852 22.7707 19.0767C22.1727 21.0683 21.9734 23.1096 22.2225 25.1011C22.671 29.0842 24.8635 32.5196 27.6042 34.6605C28.9995 35.7559 30.5442 36.5525 32.089 37.0504C33.6337 37.5483 35.2283 37.7474 36.6734 37.7474C39.6632 37.6976 42.2046 36.7516 44.148 35.5567H44.1978H44.2477C49.5795 36.901 52.3202 37.6478 52.9182 37.7972Z" fill="#9C9C9C"/>
<path d="M35.2283 16.7868L35.7266 24.1057C35.7764 24.7032 36.2249 25.201 36.8229 25.201C37.4707 25.2508 38.0188 24.7529 38.0686 24.1555L38.8659 16.8366C38.9157 16.2889 38.4673 15.791 37.9191 15.791H36.1252C35.6269 15.8408 35.2283 16.2889 35.2283 16.7868Z" fill="#E6427A"/>
<path d="M38.7663 29.3328C38.4673 30.2788 37.4707 30.7767 36.5239 30.4779C35.5771 30.1792 35.0788 29.1834 35.3778 28.2375C35.6768 27.2915 36.6734 26.7936 37.6202 27.0923C38.567 27.3911 39.0653 28.3868 38.7663 29.3328Z" fill="#E6427A"/>
<path d="M76.6181 64.5826C75.7781 60.0478 75.1061 58.0323 74.2661 55.009C72.9222 49.8023 69.7302 44.9315 64.6903 43.4199L63.6824 51.146L64.8583 57.3604C65.3623 62.903 69.3942 70.2932 72.0822 78.859L79.138 82.7221C79.81 77.1795 76.9541 67.102 76.6181 64.5826Z" fill="#FABAAF"/>
<path d="M101.737 89.2286C100.49 88.9404 97.8448 89.4152 96.0259 89.7416C91.7227 85.7359 81.4585 79.8992 73.8653 75.6307C73.6702 75.4951 72.3304 76.5888 72.2244 76.9491L76.8369 83.6295C81.5641 86.1939 91.485 91.0685 94.847 92.6834C99.5149 94.9173 98.5568 93.3828 102.131 94.2771C102.012 93.6159 101.291 93.4039 101.067 93.103C100.842 92.802 98.8579 93.1581 99.4006 92.3782C99.973 91.7635 104.989 93.0817 105.336 92.1661C106.044 91.3564 102.954 89.3515 101.737 89.2286Z" fill="#FABAAF"/>
<path d="M75.2991 61.9414C75.2991 61.9414 77.3151 65.8044 78.491 70.6752C91.5947 108.634 70.5952 65.1326 70.5952 65.1326L75.2991 61.9414Z" fill="#FABAAF"/>
<path d="M71.0617 208.415H62.494C61.822 207.744 60.646 206.4 59.47 205.224L59.134 208.415H57.7901L57.6221 202.705V202.369C57.6221 202.369 57.6221 202.369 57.6221 202.201C57.7901 200.521 59.638 198.17 59.806 197.834C59.806 197.834 59.806 197.834 59.974 197.834C60.31 198.002 60.982 198.506 61.822 200.689C62.6619 202.537 63.8379 204.384 64.8459 204.888C65.5179 205.224 66.5259 205.056 67.1978 205.056C67.1978 205.056 67.1978 205.056 67.3658 205.056C67.5338 205.056 67.7018 205.056 67.7018 205.056C67.7018 205.056 71.2297 206.568 71.2297 207.072C71.2297 207.24 71.0617 207.911 71.0617 208.415Z" fill="#E6427A"/>
<path d="M67.5337 204.889H67.1977C67.1977 204.889 67.1977 204.889 67.0297 204.889C66.5257 204.889 65.3497 205.057 64.6778 204.721C63.6698 204.385 62.4938 202.37 61.6538 200.522C60.6459 198.507 60.1419 197.835 59.8059 197.667H59.6379C59.8059 197.331 59.8059 197.163 59.9739 196.827C60.3099 196.155 59.3019 189.941 58.4619 182.887H66.0217C65.0138 191.117 65.0138 196.995 65.3497 198.507C66.1897 201.698 67.5337 204.889 67.5337 204.889Z" fill="#FABAAF"/>
<path d="M95.421 155.844H37.6304C37.6304 155.844 47.7101 114.358 49.0541 108.312C53.758 86.8133 59.8058 84.4619 59.8058 84.4619H60.1418H74.7575C77.4454 89.3327 81.9813 98.9063 86.3492 112.511C91.2211 127.123 95.421 155.844 95.421 155.844Z" fill="#F97CAA"/>
<path d="M41.1582 167.265H88.1971C88.1971 167.265 83.1572 127.627 80.9732 112.679C78.9573 99.5781 75.9334 89.3327 73.0774 84.4619H58.1258C58.1258 84.4619 51.406 94.3714 48.214 108.312C46.8701 114.358 41.1582 167.265 41.1582 167.265Z" fill="#F97CAA"/>
<path d="M82.9894 183.053H66.1898H58.63H49.0542C49.0542 183.053 53.0861 112.511 53.2541 108.312C53.5901 95.7151 59.8059 84.4619 59.8059 84.4619H74.7576C77.4455 89.3327 79.2935 100.25 79.7975 113.015C80.6374 128.131 82.9894 183.053 82.9894 183.053Z" fill="#F97CAA"/>
<path d="M77.2774 75.0572C76.1014 76.2329 74.9255 81.1037 74.9255 84.4629H60.3098C60.3098 84.2949 60.4778 83.959 60.4778 83.791C60.8138 79.5921 55.7739 66.3234 55.7739 66.3234C55.7739 66.3234 61.6538 62.9643 65.3497 62.2924C66.5257 62.1245 76.2694 62.2924 76.2694 62.2924C76.2694 62.2924 77.9494 63.972 78.6214 65.1477C80.9733 68.6748 78.6214 73.5456 77.2774 75.0572Z" fill="#F97CAA"/>
<path d="M84.8373 54.3979C84.5014 59.9405 79.4615 62.4599 76.2696 62.2919C73.0776 61.956 71.7337 58.7648 70.7257 56.7493C69.7177 54.7338 69.5497 52.5504 69.2137 50.7028C69.0457 49.863 68.8777 49.1912 68.8777 48.5194C68.8777 47.3437 69.2137 46.168 70.0537 45.3282C71.9017 43.3127 73.0776 40.1215 73.0776 37.0982C73.0776 36.2585 72.9096 35.2507 72.7416 34.4109C72.0697 31.2197 68.3737 30.044 67.1978 29.5401H67.0298C66.8618 29.5401 66.8618 29.5401 66.8618 29.5401V29.7081C65.3498 30.044 64.5098 31.5556 63.8379 33.907C63.6699 34.5789 63.5019 35.2507 63.3339 36.0905C62.9979 38.6099 62.6619 41.8011 62.6619 45.3282C62.6619 47.3437 62.3259 49.0233 61.9899 50.3669C60.8139 48.6873 51.9101 40.2894 57.454 30.8838C58.798 28.7003 60.4779 27.5246 62.1579 27.1887C64.1738 26.6849 66.0218 27.0208 66.1898 27.0208C66.3578 26.6849 68.7097 22.4859 73.9176 23.4937C79.4615 24.5014 82.8214 29.0363 82.8214 33.907C82.9894 41.1292 76.7735 43.3127 78.4535 45.3282C80.4695 47.5116 85.0053 50.199 84.8373 54.3979Z" fill="#10215F"/>
<path d="M56.6142 54.9026C54.0943 55.0706 52.0783 55.5745 49.3904 58.9336L55.4382 66.3238C55.4382 66.3238 61.6541 63.3002 65.35 62.6284C66.526 62.4604 75.9337 62.2928 75.9337 62.2928C72.7418 61.9569 71.3979 58.7657 70.3899 56.7502C69.3819 54.7347 69.2139 52.5512 68.8779 50.7037C68.7099 49.8639 69.2139 49.1921 69.2139 48.5202C69.2139 47.1766 69.5499 46.1688 70.3899 45.1611C72.2378 43.1456 73.4138 39.9544 73.4138 36.9312C73.4138 36.0914 73.2458 35.0836 73.0778 34.2438C72.4058 31.0526 68.0379 29.8769 66.862 29.373H66.694H66.526C63.334 30.2128 62.4941 36.5952 62.3261 45.1611C62.3261 47.1766 61.9901 48.8562 61.6541 50.1998C60.9821 53.559 60.1421 54.3988 56.6142 54.9026Z" fill="#FABAAF"/>
<path d="M51.9102 75.3934C49.8943 72.3702 49.3903 70.8586 48.3823 68.8431C46.5344 65.316 46.7024 61.285 50.0623 58.2617L55.1022 62.1248L55.7221 65.8531C57.1694 69.4714 59.638 73.3773 61.99 79.4238L59.974 86.9825C56.7821 84.4632 52.5822 76.2332 51.9102 75.3934Z" fill="#FABAAF"/>
<path d="M76.6518 48.8648C76.0093 49.9709 74.4797 51.8232 73.0034 52.8277L72.8163 52.9741C72.7519 59.0575 68.6211 69.3802 68.0242 78.4443L65.2938 78.4443C64.94 78.5704 64.201 78.8188 63.8675 78.7781L63.8219 70.8201C65.1391 65.5662 68.4609 54.973 69.575 51.3864C71.0183 46.4863 71.6489 48.2551 73.4097 44.9165C73.8491 45.4776 73.7271 46.478 73.3123 47.1042C73.1253 47.2506 72.3363 48.1697 73.0034 48.251C73.8575 48.1859 76.2811 43.5744 77.241 44.0298C77.9081 44.1111 77.2943 47.7587 76.6518 48.8648Z" fill="#FABAAF"/>
<path d="M68.7095 73.545C67.8696 95.3797 61.9739 92.2832 57.7898 84.4622L61.9897 79.424C61.9897 74.2679 69.5495 51.7102 68.7095 73.545Z" fill="#FABAAF"/>
</svg>
