<svg width="36" height="36" viewBox="0 0 36 36" fill="none" xmlns="http://www.w3.org/2000/svg">
<circle opacity="0.12" cx="18" cy="18" r="18" fill="#18BE46"/>
<path d="M23.8833 18.2506V13.756L17.2855 16.0758V23.9167L20.528 22.7764C20.3874 22.4071 20.3108 22.0065 20.3108 21.5876C20.3108 20.6638 20.6856 19.8276 21.2908 19.2225C21.8959 18.6174 22.7321 18.2425 23.6558 18.2425C23.7325 18.2425 23.8085 18.2453 23.8834 18.2502L23.8833 18.2506ZM22.0232 22.1556C21.8369 22.0162 21.7983 21.7522 21.9372 21.5658C22.0766 21.379 22.3406 21.3409 22.527 21.4799L23.357 22.0988L24.6947 20.237C24.8303 20.0485 25.0926 20.0061 25.2811 20.1417C25.4696 20.2773 25.5125 20.5396 25.377 20.7281L23.8084 22.9118C23.8017 22.9228 23.794 22.9344 23.7858 22.9454C23.6464 23.1317 23.3824 23.1703 23.1961 23.0314L22.0232 22.1561L22.0232 22.1556ZM20.9302 23.5269L17.035 24.8959C16.9826 24.9196 16.9248 24.9323 16.8635 24.9323C16.8024 24.9323 16.744 24.9191 16.6921 24.8959L9.31474 22.3021C9.13392 22.2547 9 22.0899 9 21.8937V13.1611H9.00115C9.00115 13.1501 9.00167 13.1396 9.00231 13.1285V13.1264L9.00282 13.1209V13.1203C9.00397 13.1105 9.005 13.1005 9.00666 13.0906V13.0895L9.00718 13.0856L9.00833 13.0818L9.01166 13.0664V13.0652L9.01333 13.0586V13.0581L9.01499 13.0509L9.01717 13.0449L9.01769 13.0437L9.01986 13.036L9.02038 13.0349L9.02255 13.0288L9.02486 13.0212L9.02704 13.0145L9.02755 13.0133C9.0469 12.9621 9.07548 12.9163 9.11137 12.8783L9.11572 12.8733L9.1229 12.8661L9.12841 12.8611L9.13059 12.8589C9.13559 12.8546 9.14046 12.8496 9.14545 12.8451L9.14661 12.8439C9.17852 12.8164 9.21555 12.7932 9.25631 12.7756H9.25682L9.259 12.7745L9.26617 12.7711H9.26669L9.27502 12.7678L9.27553 12.7673L9.28271 12.7645L9.28489 12.764L16.7245 10.1486C16.811 10.1182 16.9081 10.1161 17.0012 10.1486L24.4117 12.7539C24.5925 12.8014 24.7264 12.9662 24.7264 13.1624V18.4187C25.2192 18.5852 25.6602 18.8635 26.02 19.2229C26.6251 19.828 27 20.6642 27 21.5879C27 22.5117 26.6258 23.3479 26.02 23.953C25.4149 24.5581 24.5787 24.933 23.655 24.933C22.7312 24.933 21.895 24.5581 21.2899 23.953C21.1582 23.8213 21.0381 23.679 20.9294 23.5269L20.9302 23.5269ZM25.4244 19.819C24.9719 19.3665 24.3464 19.0865 23.6558 19.0865C22.9652 19.0865 22.3402 19.3665 21.8872 19.819C21.4347 20.2715 21.1547 20.897 21.1547 21.5876C21.1547 22.2782 21.4347 22.9033 21.8872 23.3563C22.3397 23.8088 22.9652 24.0888 23.6558 24.0888C24.3464 24.0888 24.9719 23.8088 25.4244 23.3563C25.8769 22.9037 26.157 22.2782 26.157 21.5876C26.157 20.897 25.8769 20.2715 25.4244 19.819ZM14.4118 11.8534L20.5854 14.024L23.0381 13.1619L16.8645 10.9914L14.4118 11.854V11.8534ZM19.3171 14.4698L13.1434 12.2993L10.6907 13.1619L16.8643 15.3324L19.3171 14.4698ZM16.4427 16.0753L9.84491 13.7555V21.5964L16.4427 23.9162V16.0753Z" fill="#18BE46"/>
</svg>
