<svg width="36" height="36" viewBox="0 0 36 36" fill="none" xmlns="http://www.w3.org/2000/svg">
<circle opacity="0.12" cx="18" cy="18" r="18" fill="#DA3A36"/>
<path d="M25.4 18C25.4 22.087 22.0869 25.4 18 25.4C13.9131 25.4 10.6 22.0869 10.6 18C10.6 13.9131 13.9131 10.6 18 10.6C22.0869 10.6 25.4 13.9131 25.4 18Z" stroke="#DA3A36" stroke-width="1.2" stroke-linecap="round" stroke-linejoin="round"/>
<path d="M18 14.8002V18.0002" stroke="#DA3A36" stroke-width="1.4" stroke-linecap="round" stroke-linejoin="round"/>
<path d="M18.0003 22.0008C17.5584 22.0008 17.2003 21.6425 17.2003 21.2007C17.2003 20.7588 17.5584 20.4007 18.0003 20.4007C18.4421 20.4007 18.8003 20.7588 18.8003 21.2007C18.8003 21.6425 18.4421 22.0008 18.0003 22.0008Z" fill="#DA3A36"/>
</svg>
