<svg width="10" height="10" viewBox="0 0 10 10" fill="none" xmlns="http://www.w3.org/2000/svg">
<path d="M0 8.23529L0 9.41176C0 9.73664 0.27982 10 0.624996 10C0.970172 10 1.24999 9.73664 1.24999 9.41176L1.24999 8.23529C1.24999 7.91042 0.970172 7.64706 0.624996 7.64706C0.27982 7.64706 0 7.91042 0 8.23529Z" fill="#E6427A"/>
<path d="M8.75 8.23529V9.41176C8.75 9.73664 9.02982 10 9.375 10C9.72017 10 9.99999 9.73664 9.99999 9.41176V8.23529C9.99999 7.91042 9.72017 7.64706 9.375 7.64706C9.02982 7.64706 8.75 7.91042 8.75 8.23529Z" fill="#E6427A"/>
<path d="M9.37494 8.82373H0.624996C0.27982 8.82373 0 9.08709 0 9.41197C0 9.73684 0.27982 10.0002 0.624996 10.0002H9.37494C9.72012 10.0002 9.99994 9.73684 9.99994 9.41197C9.99994 9.08709 9.72012 8.82373 9.37494 8.82373Z" fill="#E6427A"/>
<path d="M5.00038 7.05885C4.8708 7.05978 4.74413 7.02278 4.63788 6.95297L2.13789 5.29415C2.00315 5.20419 1.91174 5.06767 1.88363 4.91446C1.85552 4.76124 1.89301 4.60378 1.9879 4.4765C2.03526 4.41288 2.09555 4.35872 2.16527 4.31715C2.235 4.27558 2.31278 4.24742 2.39413 4.23429C2.47549 4.22117 2.55879 4.22334 2.63925 4.24068C2.71971 4.25802 2.79572 4.29019 2.86289 4.33533L5.00038 5.74121L7.12536 4.23532C7.25797 4.14172 7.42466 4.10153 7.58875 4.12359C7.75284 4.14565 7.9009 4.22816 8.00036 4.35297C8.09981 4.47778 8.14252 4.63466 8.11908 4.7891C8.09563 4.94354 8.00797 5.0829 7.87536 5.1765L5.37538 6.94121C5.26719 7.01757 5.13561 7.05885 5.00038 7.05885Z" fill="#E6427A"/>
<path d="M5 5.88235C4.83424 5.88235 4.67527 5.82038 4.55806 5.71006C4.44085 5.59975 4.375 5.45013 4.375 5.29412V0.588235C4.375 0.432226 4.44085 0.282606 4.55806 0.17229C4.67527 0.0619746 4.83424 0 5 0C5.16576 0 5.32473 0.0619746 5.44194 0.17229C5.55914 0.282606 5.62499 0.432226 5.62499 0.588235V5.29412C5.62499 5.45013 5.55914 5.59975 5.44194 5.71006C5.32473 5.82038 5.16576 5.88235 5 5.88235Z" fill="#E6427A"/>
</svg>
