<svg width="36" height="36" viewBox="0 0 36 36" fill="none" xmlns="http://www.w3.org/2000/svg">
<circle opacity="0.12" cx="18" cy="18" r="18" fill="#18BE46"/>
<path d="M16.9773 9C12.5766 9 9 12.5763 9 16.9773C9 21.3779 12.5764 24.9545 16.9773 24.9545C17.8208 24.9545 18.7198 24.8507 19.5212 24.603C20.1062 26.011 21.4975 27 23.1136 27C25.2551 27 27 25.2552 27 23.1136C27 21.5002 26.0072 20.1144 24.603 19.5277C24.8507 18.7268 24.9545 17.8205 24.9545 16.9773C24.9545 12.5763 21.3781 9 16.9773 9ZM16.9773 9.81811C20.936 9.81811 24.1364 13.0184 24.1364 16.9772C24.1364 17.7549 24.0323 18.6003 23.8168 19.2974C23.5879 19.2552 23.3545 19.2272 23.1136 19.2272C20.9722 19.2272 19.2273 20.9719 19.2273 23.1136C19.2273 23.3527 19.2495 23.5893 19.2912 23.8167C18.5941 24.0333 17.7572 24.1363 16.9772 24.1363C13.0185 24.1363 9.81811 20.9359 9.81811 16.9772C9.81811 13.0186 13.0186 9.81811 16.9773 9.81811ZM16.9325 13.0845C16.7217 13.1076 16.5636 13.2879 16.5682 13.5V14.1456C16.1688 14.1965 15.8131 14.3094 15.5199 14.4779C15.131 14.7015 14.8304 15.0197 14.7465 15.4303C14.6626 15.841 14.8599 16.2938 15.2386 16.5873C15.6174 16.8808 16.1607 17.0741 16.9198 17.1754C17.5882 17.2646 18.0126 17.4449 18.2173 17.6036C18.4222 17.7624 18.423 17.8425 18.4026 17.9425C18.3822 18.0423 18.2726 18.2094 18.0255 18.3515C17.7786 18.4936 17.4151 18.6061 16.9708 18.6136C16.4974 18.6218 15.9226 18.5138 15.3025 18.2365C15.2033 18.1917 15.0903 18.1885 14.9886 18.2274C14.8869 18.2662 14.8048 18.344 14.7606 18.4434C14.7163 18.5429 14.7136 18.6559 14.753 18.7575C14.7923 18.8589 14.8704 18.9407 14.9702 18.9843C15.53 19.2349 16.0713 19.375 16.5682 19.4191V20.0454C16.5666 20.1548 16.609 20.2604 16.6859 20.3385C16.7628 20.4164 16.8677 20.4603 16.9773 20.4603C17.0868 20.4603 17.1917 20.4164 17.2686 20.3385C17.3455 20.2604 17.3879 20.1548 17.3863 20.0454V19.4062C17.7857 19.3534 18.1414 19.2296 18.4346 19.0611C18.8235 18.8375 19.1242 18.5193 19.2081 18.1087C19.2919 17.6979 19.0946 17.2452 18.7159 16.9517C18.3371 16.658 17.7874 16.4649 17.0283 16.3635C16.3599 16.2744 15.942 16.1004 15.7372 15.9416C15.5323 15.783 15.525 15.6965 15.5454 15.5965C15.5658 15.4965 15.6818 15.3295 15.929 15.1874C16.1759 15.0453 16.5394 14.9393 16.9837 14.9317C17.4571 14.9236 18.0319 15.0252 18.652 15.3024C18.8585 15.3943 19.1003 15.3013 19.1921 15.0947C19.2839 14.8882 19.1909 14.6464 18.9843 14.5546C18.4244 14.3042 17.8831 14.1751 17.3863 14.1327V13.4999C17.3889 13.3821 17.3405 13.269 17.2536 13.1893C17.1666 13.1097 17.0496 13.0715 16.9325 13.0845ZM23.1138 20.0452C24.8131 20.0452 26.1819 21.4141 26.1819 23.1134C26.1819 24.8127 24.8131 26.1816 23.1138 26.1816C21.4145 26.1816 20.0456 24.8127 20.0456 23.1134C20.0456 21.4141 21.4145 20.0452 23.1138 20.0452ZM24.52 21.4706C24.4003 21.4793 24.2906 21.5401 24.2195 21.6368C23.7272 22.2907 23.2395 23.0044 22.6663 23.7207C22.4309 23.4884 22.1822 23.246 21.9761 23.0304C21.9009 22.9509 21.7971 22.9047 21.6879 22.9023C21.5786 22.8998 21.4727 22.9412 21.3942 23.0173C21.3156 23.0933 21.2707 23.1976 21.2695 23.3069C21.2684 23.4163 21.311 23.5215 21.3879 23.5992C21.7105 23.9367 22.1895 24.4044 22.4171 24.6284C22.498 24.7089 22.609 24.752 22.7231 24.7471C22.8371 24.7423 22.9442 24.6899 23.0179 24.6027C23.7734 23.7177 24.3245 22.8556 24.8716 22.1291C24.9701 22.0017 24.9846 21.8282 24.9088 21.6862C24.8329 21.5441 24.6807 21.4597 24.52 21.4706Z" fill="#18BE46" stroke="#18BE46" stroke-width="0.2"/>
</svg>
