<svg width="36" height="36" viewBox="0 0 36 36" fill="none" xmlns="http://www.w3.org/2000/svg">
<circle opacity="0.12" cx="18" cy="18" r="18" fill="#36A9E1"/>
<path d="M26.6685 15.8766C26.66 15.8595 26.6685 15.8425 26.66 15.8168H26.6515L26.6513 15.7997C26.6363 15.7754 26.6191 15.7525 26.6 15.7314C26.6 15.7229 26.6 15.7229 26.5915 15.7229L26.5659 15.6716C26.5574 15.6716 26.5574 15.6716 26.5574 15.6631L26.5572 15.6629C26.5392 15.6483 26.519 15.6368 26.4974 15.6286L26.4803 15.6115C26.4631 15.603 26.4461 15.5858 26.429 15.5773H26.4118V15.5688L19.5697 13.003C19.5475 12.9965 19.5243 12.9936 19.5012 12.9944C19.4738 12.9847 19.4448 12.9789 19.4158 12.9774C19.3865 12.9781 19.3576 12.9839 19.3302 12.9944C19.3045 13.0029 19.2873 12.9944 19.2617 13.0029L15.8664 14.2774C15.8365 14.285 15.8077 14.2966 15.7809 14.3115L12.4196 15.5688C12.4024 15.5773 12.3854 15.5945 12.3683 15.603C12.3511 15.6115 12.3426 15.6115 12.3255 15.6201H12.3256C12.3247 15.6292 12.3176 15.6364 12.3085 15.6373C12.2728 15.6682 12.2437 15.706 12.2229 15.7484C12.2144 15.7569 12.1972 15.7655 12.1887 15.7826V15.7827C12.1625 15.8389 12.1478 15.9001 12.1459 15.9623V17.7668L9.29795 16.8175C9.18773 16.7647 9.06006 16.7616 8.94745 16.809C8.83485 16.8564 8.74774 16.9496 8.70837 17.0654C8.669 17.1811 8.68093 17.3082 8.74133 17.4144C8.80174 17.5207 8.90465 17.596 9.02427 17.6215L12.1459 18.665V19.905L10.8031 19.4517C10.5793 19.3831 10.3411 19.5041 10.2644 19.7254C10.2267 19.8321 10.2337 19.9493 10.2835 20.0507C10.3335 20.152 10.4221 20.2291 10.5295 20.2643L12.1459 20.8031V22.8129C12.1447 22.9908 12.2538 23.1509 12.4196 23.215L19.2617 25.7808H19.2619C19.3617 25.8149 19.4699 25.8149 19.5697 25.7808L26.4118 23.215C26.5779 23.1509 26.6869 22.9908 26.6855 22.8129V15.9624C26.684 15.9331 26.6782 15.9044 26.6685 15.8768L26.6685 15.8766ZM19.4159 13.8583L25.0435 15.9708L22.8455 16.8003L17.2092 14.688L19.4159 13.8583ZM18.9883 24.7629L13.0015 22.5135V21.0937L13.9336 21.4016V21.4017C13.9785 21.4122 14.0245 21.4178 14.0705 21.4187C14.275 21.4108 14.4452 21.259 14.4764 21.0567C14.5077 20.8546 14.3914 20.6585 14.1988 20.5892L13.0015 20.1872V18.9471L15.2338 19.6912C15.2772 19.7086 15.3237 19.7174 15.3705 19.7168C15.585 19.7213 15.7696 19.566 15.8022 19.354C15.8345 19.1419 15.7049 18.9386 15.4988 18.8786L13.0015 18.0491V16.5865L18.9884 18.8358L18.9883 24.7629ZM19.4159 18.083L13.7883 15.9705L15.9863 15.141L21.6227 17.2535L19.4159 18.083ZM25.8304 22.5132L19.8436 24.7625V18.8356L22.9567 17.6639C22.9652 17.6639 22.9738 17.6554 22.9823 17.6554L25.8304 16.5863L25.8304 22.5132ZM14.7341 9.84576C14.7705 9.73822 14.8482 9.64948 14.9501 9.59922C15.0519 9.54911 15.1696 9.54135 15.2771 9.57804L21.8738 11.8179V11.8181C22.0975 11.8941 22.2171 12.1371 22.141 12.3607C22.0651 12.5844 21.8222 12.704 21.5984 12.6279L15.0018 10.3889C14.8941 10.3524 14.8054 10.2747 14.7553 10.1728C14.705 10.071 14.6974 9.95328 14.7341 9.84574L14.7341 9.84576ZM11.3986 14.0255C11.597 14.0922 11.7181 14.2928 11.6845 14.4993C11.651 14.706 11.4727 14.858 11.2633 14.8585C11.2176 14.8586 11.1719 14.8515 11.1282 14.8371L9.58873 14.3239H9.58888C9.36471 14.2494 9.24346 14.0071 9.31818 13.783C9.39275 13.559 9.63497 13.4377 9.85914 13.5124L11.3986 14.0255ZM8.74724 11.5589C8.78319 11.4512 8.86029 11.3623 8.96186 11.3116C9.06343 11.2609 9.18096 11.2527 9.28864 11.2886L14.1988 12.9264C14.3986 12.9922 14.5211 13.1935 14.4874 13.4012C14.4537 13.6088 14.274 13.7612 14.0636 13.7605C14.0177 13.7602 13.9721 13.7526 13.9285 13.7381L9.01761 12.0994C8.79344 12.025 8.67219 11.7831 8.74646 11.5589L8.74724 11.5589Z" fill="#36A9E1"/>
</svg>
