<svg width="10" height="10" viewBox="0 0 10 10" fill="none" xmlns="http://www.w3.org/2000/svg">
<path d="M9.60715 3.05373C9.35501 2.45824 8.99475 1.92352 8.53561 1.46447C8.07648 1.00535 7.5416 0.644848 6.94627 0.392925C6.32951 0.13216 5.67497 0 5.00008 0C4.32519 0 3.67033 0.132166 3.05381 0.392925C2.45832 0.644848 1.9236 1.00517 1.46455 1.46447C1.00543 1.92352 0.644927 2.45826 0.393004 3.05373C0.13224 3.67025 0 4.32495 0 5C0 5.67481 0.132166 6.32959 0.392925 6.94619C0.644848 7.54176 1.00517 8.0764 1.46447 8.53561C1.92352 8.99465 2.45832 9.35499 3.05373 9.60708C3.67033 9.86784 4.32519 10 5.00008 10C5.67513 10 6.32967 9.86783 6.94634 9.60708C7.54184 9.35507 8.07656 8.99467 8.53569 8.53561C8.99481 8.07632 9.35507 7.5416 9.60723 6.94619C9.86792 6.32959 10 5.67481 10 5C10 4.32495 9.86793 3.67025 9.60717 3.05373H9.60715ZM5.00002 8.73631C4.56774 8.73631 4.2161 8.38475 4.2161 7.95247C4.2161 7.52019 4.56782 7.16863 5.00002 7.16863C5.4323 7.16863 5.78386 7.52019 5.78386 7.95247C5.78386 8.38475 5.4323 8.73631 5.00002 8.73631ZM6.88118 4.31494C6.73985 4.59597 6.5328 4.84616 6.28298 5.03856C6.21236 5.09289 6.13777 5.14295 6.06155 5.18788C6.05403 5.19223 6.0465 5.19634 6.0392 5.20053L6.0333 5.20379C6.02671 5.20783 6.01988 5.21171 6.01258 5.21536C5.70572 5.37748 5.51511 5.69335 5.51511 6.03979V6.39904C5.51511 6.43334 5.48733 6.46112 5.4531 6.46112H4.54632C4.51202 6.46112 4.48447 6.43334 4.48447 6.39904V6.03979C4.48447 5.31515 4.88121 4.65262 5.52031 4.31006C5.52264 4.30859 5.52512 4.30727 5.52768 4.30571C5.53226 4.30323 5.537 4.30059 5.54158 4.29795C5.58053 4.27514 5.61849 4.24953 5.65442 4.22182C5.92146 4.01631 6.07466 3.7055 6.07466 3.36922C6.07466 2.77644 5.59271 2.29427 4.99978 2.29427C4.40708 2.29427 3.92489 2.77646 3.92489 3.36922C3.92489 3.40328 3.89718 3.43107 3.86288 3.43107H2.95626C2.92195 3.43107 2.89425 3.40329 2.89425 3.36922C2.89425 3.08525 2.94997 2.80934 3.05978 2.54943C3.16595 2.29868 3.31761 2.07354 3.51092 1.88029C3.70393 1.68712 3.92916 1.5354 4.17991 1.42939C4.43982 1.31949 4.71548 1.26369 4.99969 1.26369C5.28374 1.26369 5.55957 1.31942 5.81948 1.42939C6.07023 1.53556 6.29553 1.68721 6.48862 1.88029C6.68156 2.07353 6.83375 2.2986 6.93976 2.54943C7.0495 2.80934 7.1053 3.08501 7.1053 3.36922C7.10545 3.70146 7.03002 4.01957 6.88117 4.31496L6.88118 4.31494Z" fill="#E6427A"/>
</svg>
