<svg width="36" height="36" viewBox="0 0 36 36" fill="none" xmlns="http://www.w3.org/2000/svg">
<circle opacity="0.12" cx="18" cy="18" r="18" fill="#E6427A"/>
<path d="M26.5135 11.4514C26.2449 11.4514 26.0271 11.6694 26.0271 11.9379V14.3905C24.7014 11.1455 21.5413 9 17.9999 9C13.9995 9 10.537 11.7106 9.58011 15.5911C9.51597 15.8521 9.6753 16.1156 9.93592 16.1802C9.97511 16.1897 10.0143 16.1946 10.0527 16.1946C10.2714 16.1946 10.4701 16.0463 10.5245 15.8246C11.3744 12.3793 14.4481 9.97318 18 9.97318C21.1142 9.97318 23.8957 11.8418 25.092 14.6765H23.3608C23.0922 14.6765 22.8743 14.8946 22.8743 15.163C22.8743 15.4316 23.0924 15.6494 23.3608 15.6494H26.5135C26.7821 15.6494 27 15.4314 27 15.163V11.938C27 11.6695 26.7821 11.4515 26.5135 11.4515L26.5135 11.4514Z" fill="#E6427A"/>
<path d="M26.0635 19.1761C25.8017 19.111 25.5391 19.2713 25.4749 19.532C24.6257 22.9779 21.5521 25.3846 17.9999 25.3846C14.8896 25.3846 12.1116 23.5223 10.9136 20.6948H12.6392C12.9078 20.6948 13.1256 20.4767 13.1256 20.2083C13.1256 19.9397 12.9076 19.7219 12.6392 19.7219H9.48645C9.21785 19.7219 9 19.9399 9 20.2083V23.4333C9 23.7019 9.21803 23.9198 9.48645 23.9198C9.75505 23.9198 9.9729 23.7017 9.9729 23.4333V20.9657C11.2972 24.2118 14.4569 26.358 18 26.358C22.0007 26.358 25.4634 23.6467 26.4199 19.7651C26.4843 19.5045 26.325 19.2408 26.0637 19.1765L26.0635 19.1761Z" fill="#E6427A"/>
<path d="M21.8816 15.2679L18.2328 13.2771C18.0874 13.198 17.9123 13.198 17.7668 13.2771L14.1181 15.2679C13.9618 15.3532 13.8647 15.517 13.8647 15.6949V19.6752C13.8647 19.853 13.9618 20.0169 14.1182 20.1023L17.7669 22.0922C17.8397 22.1316 17.92 22.1516 17.9999 22.1516C18.08 22.1516 18.1603 22.1316 18.2329 22.0922L21.8816 20.1023C22.038 20.0171 22.1351 19.853 22.1351 19.6752V15.6949C22.1351 15.517 22.038 15.3532 21.8816 15.2679H21.8816ZM17.9999 14.2587L20.6326 15.6949L17.9999 17.1306L15.3672 15.6949L17.9999 14.2587ZM14.8376 16.5143L17.5134 17.9736V20.8458L14.8376 19.3866V16.5143ZM18.4863 20.8455V17.9736L21.1622 16.5143V19.3864L18.4863 20.8455Z" fill="#E6427A"/>
</svg>
