<svg width="36" height="36" viewBox="0 0 36 36" fill="none" xmlns="http://www.w3.org/2000/svg">
<circle opacity="0.12" cx="18" cy="18" r="18" fill="#FA8300"/>
<path d="M21.9705 15.7134H25.3087C25.6965 15.7134 26 15.393 26 15.0221V11.667C26 11.2793 25.6796 10.9757 25.3087 10.9757C24.9378 10.9757 24.6174 11.2961 24.6174 11.667V13.3193L23.6227 12.3246C20.5205 9.22235 15.4457 9.22235 12.3435 12.3414C10.8262 13.8419 10 15.8482 10 17.9894C10 20.1306 10.8262 22.1201 12.3435 23.6375C13.844 25.138 15.8504 25.981 17.9916 25.981C20.1328 25.981 22.1222 25.1548 23.6396 23.6375C24.8703 22.4067 25.6627 20.8387 25.8988 19.1022C25.9494 18.7144 25.6796 18.3603 25.3086 18.3098C24.9209 18.2424 24.5668 18.529 24.5162 18.8999C24.3139 20.3331 23.6732 21.6143 22.6448 22.6428C20.1496 25.138 15.8165 25.138 13.3213 22.6428C12.0736 21.3951 11.3993 19.7428 11.3993 17.9895C11.3993 16.2362 12.0906 14.5669 13.3213 13.3362C15.884 10.7734 20.0652 10.7734 22.6448 13.3362L23.6395 14.3309H21.9872C21.5995 14.3309 21.296 14.6512 21.296 15.0221C21.296 15.3931 21.5826 15.7133 21.9704 15.7133L21.9705 15.7134Z" fill="#FA8300"/>
<path d="M17.9579 13.6231C17.5701 13.6231 17.2666 13.9434 17.2666 14.3144V17.9898C17.2666 18.3102 17.4689 18.58 17.7724 18.6641L20.4531 19.4228C20.5205 19.4396 20.5712 19.4565 20.6386 19.4565C20.942 19.4565 21.2287 19.2543 21.3129 18.9507C21.414 18.5798 21.1948 18.1921 20.824 18.0909L18.6492 17.4839V14.3312C18.6492 13.9434 18.3288 13.623 17.9579 13.623L17.9579 13.6231Z" fill="#FA8300"/>
</svg>
