<svg width="10" height="7" viewBox="0 0 10 7" fill="none" xmlns="http://www.w3.org/2000/svg">
<path d="M4.9998 1.86816C4.27451 1.86816 3.68115 2.46153 3.68115 3.18681C3.68115 3.91209 4.27451 4.50546 4.9998 4.50546C5.72508 4.50546 6.31844 3.91209 6.31844 3.18681C6.31844 2.46153 5.72508 1.86816 4.9998 1.86816Z" fill="#E6427A"/>
<path d="M9.93403 2.98902C9.91209 2.96701 9.38461 2.24174 8.51644 1.50547C7.35164 0.516516 6.13184 0 4.99992 0C2.28571 0 0.153801 2.86806 0.0659174 2.98902C-0.0219725 3.10989 -0.0219725 3.26373 0.0659174 3.37363C0.0878518 3.40661 0.615337 4.1319 1.4835 4.86814C2.6483 5.8571 3.8681 6.37361 5.00002 6.37361C7.71423 6.37361 9.84614 3.50555 9.93403 3.38459C10.022 3.26373 10.022 3.10988 9.93403 2.98902ZM5.00002 5.16477C3.91214 5.16477 3.02196 4.27468 3.02196 3.18671C3.02196 2.09874 3.91205 1.20865 5.00002 1.20865C6.08799 1.20865 6.97808 2.09874 6.97808 3.18671C6.97808 4.27468 6.08799 5.16477 5.00002 5.16477Z" fill="#E6427A"/>
</svg>
