<svg width="348" height="240" viewBox="0 0 348 240" fill="none" xmlns="http://www.w3.org/2000/svg">
<path d="M172.232 118.683C171.556 117.841 170.536 117.363 169.464 117.361L96.7965 117.643L64.6869 117.768C63.309 117.771 62.0904 118.55 61.5034 119.794C60.9165 121.041 61.0922 122.473 61.9627 123.539L79.276 144.717C80.2973 145.969 80.1182 147.825 78.8747 148.856L0 214.249V215.01L79.2461 149.307C80.7384 148.07 80.9556 145.845 79.727 144.347L62.4153 123.171C61.6891 122.281 61.5432 121.083 62.0323 120.042C62.5231 119.004 63.5395 118.356 64.6902 118.353L97.2757 118.227L169.465 117.947H169.477C170.375 117.947 171.214 118.35 171.776 119.049C172.344 119.756 172.552 120.664 172.355 121.545L159.844 177.179L156.741 190.968L149.68 222.375C149.426 223.503 148.602 224.333 147.48 224.599C146.355 224.864 145.248 224.491 144.517 223.595L127.973 203.357L123.141 197.45C122.541 196.712 121.69 196.258 120.744 196.166C119.8 196.075 118.877 196.359 118.147 196.966L66.2404 240H67.1557L118.52 197.415C119.13 196.911 119.9 196.672 120.687 196.75C121.476 196.826 122.186 197.206 122.687 197.821L127.518 203.734L144.061 223.967C144.926 225.021 146.287 225.482 147.614 225.169C148.94 224.855 149.95 223.832 150.25 222.504L157.212 191.544V191.542L160.445 177.177L172.927 121.676C173.163 120.618 172.911 119.528 172.232 118.683Z" fill="#30262A"/>
<path d="M242.171 102.108L221.351 194.691C220.805 197.112 217.71 197.843 216.141 195.921L201.812 178.396L200.176 176.395V176.393L199.743 175.866L196.513 171.915C195.469 170.635 193.579 170.451 192.307 171.507L173.327 187.242L172.911 187.586L109.693 239.999H20.207L156.248 127.331C157.508 126.288 157.689 124.423 156.652 123.156L145.142 109.074L144.703 108.539L140.757 103.711C139.172 101.771 140.544 98.8576 143.05 98.8495L178.683 98.7118H178.684L187.462 98.677C187.464 98.677 187.464 98.677 187.464 98.677L200.955 98.624L203.252 98.6157L208.856 98.5941H208.857L212.492 98.5809H212.495L222.286 98.5427L230.497 98.5114H230.498L239.256 98.4766C241.168 98.4698 242.592 100.244 242.171 102.108Z" fill="#EF8AB0"/>
<path d="M82.7383 240H134.113L176.315 205.011C176.922 204.506 177.82 204.594 178.319 205.205L190.173 219.702C190.922 220.619 192.398 220.269 192.658 219.115L201.814 178.397L204.841 164.934C205.042 164.044 204.364 163.198 203.454 163.203L203.145 163.205L202.593 163.206L147.15 163.42C145.956 163.424 145.3 164.813 146.056 165.737L155.77 177.62C156.264 178.224 156.178 179.114 155.576 179.611L82.7383 240Z" fill="#FFECF3"/>
<path d="M285.296 175.433C284.451 174.433 284.265 173.073 284.814 171.885C285.363 170.697 286.517 169.953 287.827 169.95L330.085 169.792H330.087L343.26 169.744H343.272C344.291 169.744 345.241 170.2 345.876 170.998C346.515 171.8 346.747 172.832 346.516 173.831L334.519 225.343C334.229 226.595 333.307 227.524 332.055 227.827C330.805 228.129 329.563 227.723 328.731 226.739L319.432 215.755C318.068 214.143 315.708 213.916 314.06 215.236L283.129 240H283.99L314.397 215.655C315.816 214.52 317.847 214.715 319.021 216.103L328.321 227.089C329.273 228.212 330.752 228.694 332.183 228.349C333.614 228.003 334.709 226.9 335.043 225.464L347.04 173.952C347.311 172.793 347.039 171.594 346.296 170.663C345.56 169.736 344.457 169.207 343.272 169.207H343.257L330.206 169.255L287.825 169.412C286.303 169.417 284.963 170.28 284.325 171.661C283.688 173.04 283.904 174.621 284.885 175.78L291.353 183.421C291.94 184.114 292.214 184.992 292.128 185.895C292.04 186.797 291.602 187.608 290.893 188.175L226.164 240H227.023L291.231 188.594C292.053 187.935 292.56 186.996 292.663 185.948C292.766 184.899 292.446 183.877 291.764 183.073L285.296 175.433Z" fill="#30262A"/>
<path d="M155.86 67.9938C155.86 67.9938 157.687 63.914 162.31 64.4252C166.933 64.9363 166.382 69.0259 168.584 68.6426C170.785 68.2592 173.867 68.6426 174.527 71.1986C175.188 73.7545 178.16 72.3488 178.27 74.5213C178.38 76.6939 174.858 78.2275 170.785 76.3105C166.712 74.3935 164.731 77.7996 159.008 77.183C153.284 76.566 152.575 75.7992 149.187 76.1827C145.799 76.566 145.88 73.8729 147.421 72.0837C148.962 70.2941 155.2 70.4646 155.86 67.9938Z" fill="#F7F7F7"/>
<path d="M143.821 10.5085C143.821 10.5085 146.195 5.20572 152.204 5.87009C158.213 6.53447 157.498 11.85 160.359 11.3517C163.22 10.8535 167.226 11.3518 168.084 14.674C168.943 17.9962 172.805 16.169 172.948 18.9928C173.092 21.8166 168.513 23.8099 163.22 21.3182C157.927 18.8267 155.352 23.2538 147.912 22.4522C140.473 21.6505 139.551 20.6539 135.148 21.1521C130.744 21.6505 130.849 18.1499 132.852 15.8243C134.855 13.4987 142.962 13.7199 143.821 10.5085Z" fill="#F7F7F7"/>
<path d="M322.51 99.7466C322.51 99.7466 318.488 91.5789 308.311 92.6024C298.134 93.6258 299.345 101.813 294.499 101.045C289.653 100.278 282.868 101.045 281.414 106.162C279.96 111.279 273.418 108.465 273.175 112.814C272.933 117.163 280.687 120.234 289.653 116.396C298.618 112.558 302.98 119.377 315.58 118.143C328.181 116.908 329.742 115.373 337.2 116.14C344.658 116.908 344.481 111.516 341.089 107.934C337.696 104.352 323.964 104.693 322.51 99.7466Z" fill="#F7F7F7"/>
<path d="M280.165 77.0404C280.165 77.0404 278.19 73.0779 273.195 73.5743C268.199 74.0709 268.794 78.0429 266.415 77.6705C264.036 77.2982 260.706 77.6705 259.992 80.1532C259.279 82.6356 256.067 81.2702 255.948 83.3804C255.829 85.4906 259.635 86.98 264.036 85.1181C268.437 83.2561 270.578 86.5647 276.763 85.9655C282.948 85.3665 283.714 84.6217 287.375 84.9941C291.036 85.3665 290.949 82.7505 289.284 81.0126C287.619 79.2748 280.878 79.4404 280.165 77.0404Z" fill="#F7F7F7"/>
<path d="M313.639 47.8004C313.639 47.8004 311.284 43.0745 305.326 43.6666C299.368 44.2588 300.078 48.996 297.24 48.5518C294.403 48.1078 290.431 48.5518 289.58 51.5126C288.729 54.4733 284.899 52.845 284.757 55.3616C284.615 57.8781 289.155 59.6547 294.403 57.4341C299.652 55.2135 302.205 59.1593 309.582 58.4447C316.958 57.7302 317.872 56.8419 322.238 57.2861C326.604 57.7302 326.501 54.6105 324.515 52.5378C322.529 50.4652 314.49 50.6627 313.639 47.8004Z" fill="#F7F7F7"/>
<path d="M194.334 239.999H245.71L306.026 189.991C306.633 189.489 307.532 189.575 308.031 190.185L319.884 204.683C320.634 205.6 322.109 205.252 322.368 204.098L330.083 169.791H330.085L330.204 169.254L334.553 149.916C334.754 149.026 334.075 148.18 333.164 148.184L276.861 148.402C275.668 148.406 275.013 149.794 275.767 150.719L285.48 162.6C285.976 163.205 285.889 164.096 285.288 164.592L194.334 239.999Z" fill="#FFECDF"/>
<path d="M208 98.6685C208 98.6685 210.474 100.362 212.688 100.5C214.902 100.637 215.684 98.6685 217.377 98.6685C219.07 98.6685 219.981 100.362 222.019 100.493C224.058 100.623 224.93 98.9293 226.703 98.7989C228.477 98.6685 229.618 99.8414 231.702 99.8414C233.786 99.8414 236 98.1476 236 98.1476C236 98.1476 229.717 96.0319 227.393 88.7668C225.309 82.2523 229.352 60.6239 228 52.4815C227.435 49.0819 227.745 44.4489 227.5 44.1758L217.948 46.6758C217.703 46.9489 215.329 49.0399 215.147 52.4815C215.093 53.4926 215.101 55.0144 215.142 56.692C215.146 56.8852 215.151 57.0804 215.157 57.2771C215.277 61.6227 215.582 66.7129 215.582 66.7129C215.724 69.2984 216.773 87.0698 216.693 88.7668C216.433 94.2718 208 98.6685 208 98.6685Z" fill="#E93779"/>
<path d="M234.296 21.5587C234.899 19.623 236.117 8.87592 236.117 8.87592C236.117 8.87592 235.216 7.8787 235.112 7.22535C234.974 6.3472 236.5 6.99859 236.5 6.99859C236.5 6.99859 236.565 8.91046 236.035 6.84184C236.399 7.02517 235.591 6.08678 236.036 6.09798C236.482 6.10969 236.055 5.92744 237 5.99862C237.945 6.07073 238.595 8.48291 238.334 9.32747C238.112 10.0473 238.399 17.8147 238.019 21.9589C234.5 23.4982 229 22.9982 234.296 21.5587Z" fill="#FABAAF"/>
<path d="M222.709 18.6859C223.055 18.1865 223.523 17.9082 224.036 17.7565C224.13 17.8262 224.222 17.8972 224.31 17.9712C224.938 18.2078 225.59 18.3666 226.248 18.4664C226.252 18.4676 226.255 18.4682 226.258 18.4683C229.428 18.9468 232.761 18.0665 234.362 17.9308C234.381 17.9292 234.407 17.9166 234.438 17.894C235.692 18.0892 237.482 18.4377 237.626 19.7924C237.632 19.8527 237.635 19.9132 237.635 19.9736C237.329 20.4689 237.046 20.8816 236.797 21.1794C235.349 22.9132 227.591 23.7188 223.436 24.0308C223.021 23.8038 222.652 23.5002 222.421 23.0474C222.101 22.4183 222.099 21.6424 222.125 20.9241C222.154 20.1634 222.26 19.3335 222.709 18.6859Z" fill="#FABAAF"/>
<path d="M217.742 18.3909C218.307 18.3214 217.875 17.8467 218.311 17.5894C220.166 16.4944 221.966 15.4052 221.705 11.8269C221.59 10.2646 225.054 8.42062 226.346 7.61397C226.823 7.31538 227.127 6.96327 227.254 6.58594C227.39 7.08633 227.585 8.36043 227.585 8.98021C227.585 9.76065 227.152 13.2761 226.703 13.5572C226.171 13.8897 224.385 14.1198 224.385 14.1198C224.291 14.1631 223.998 15.6317 223.616 17.7717C223.672 17.7481 223.729 17.7244 223.786 17.7006C223.797 17.7109 223.809 17.7198 223.826 17.725C224.857 18.0401 225.97 18.4819 226.71 19.2979C227.577 20.2545 227.388 21.398 226.722 22.4113C226.686 22.4655 226.714 22.5174 226.759 22.5404C226.546 22.6328 226.345 22.7184 226.159 22.7955C225.704 22.9849 225.338 23.1245 225.094 23.2001C223.19 23.788 222.554 24.7733 222.355 25.2269C221.764 28.8324 221.21 32.3314 220.948 33.9952C220.947 33.9988 220.946 34.0019 220.946 34.005C220.846 34.6376 220.789 35.0021 220.789 35.0021C220.056 33.8485 217.123 25.1136 217.129 22.3163C217.131 21.1435 217.374 19.7839 217.742 18.3909Z" fill="#FABAAF"/>
<path d="M223.5 78.6768C230.168 80.3684 223.192 75.7083 224.5 79.6768C225.807 83.6453 221.405 81.5465 225 81.6768C228.596 81.807 222.582 73.9721 225 75.9885C227.419 78.0054 220.83 74.6768 220.83 74.6768C220.83 74.6768 216.5 87.1768 228.06 90.3004C226.662 83.0796 227.216 56.8755 227.264 52.3078C227.322 46.8913 228.06 33.3468 228.06 33.3468C228.06 33.3468 230.009 29.5513 229.97 28.0595C229.925 26.3082 227.968 24.2929 226.158 22.7969C225.703 22.9863 225.337 23.1258 225.093 23.2015C223.189 23.7894 222.553 24.7747 222.354 25.2282C221.763 28.8338 221.209 32.3328 220.946 33.9966C220.945 34.0002 220.945 34.0032 220.945 34.0064C220.879 34.4872 220.838 34.8352 220.83 35.0035C220.765 36.3697 215.077 41.7693 213.901 47.9498C212.859 53.4219 217.496 75.9885 217.496 75.9885C217.496 75.9885 221.133 79.1324 219.499 78.6768C217.865 78.2217 225.271 82.6768 220.499 82.6768C215.727 82.6768 221.549 86.1768 221.549 86.1768C221.549 86.1768 216.832 76.9857 223.5 78.6768Z" fill="#E93779"/>
<path d="M219.995 39.825C218.991 39.7336 217.88 41.0605 217.736 40.9231C217.593 40.7857 212.019 30.4421 211.942 30.2814C211.765 29.9138 214.765 27.322 217.573 25.0458C217.433 24.3383 217.33 23.6225 217.193 22.9153C217.034 22.0948 216.876 21.1517 216.459 20.3906C213.093 23.6814 206.905 27.9774 206.993 29.6312C207.101 31.6444 216.876 43.8969 217.772 43.9429C218.668 43.9884 219.099 42.0193 219.959 42.0193C220.391 42.0193 222.39 42.1061 222.468 41.8805C222.673 41.2858 220.999 39.9165 219.995 39.825Z" fill="#FABAAF"/>
<path d="M227.251 6.58567C227.124 6.96338 226.821 7.36654 226.344 7.6653C225.051 8.47222 221.588 10.2644 221.702 11.8268C221.807 13.2665 221.855 14.7302 220.872 15.915C221.497 16.7549 222.578 17.425 222.834 18.4951C223.101 19.6099 222.047 20.6489 221.158 21.1152C221.359 21.0097 221.777 21.7707 221.775 21.9238C221.767 22.4156 221.168 22.3969 221.14 22.7082C221.076 23.4232 222.403 23.5137 222.675 24.0927C222.913 24.5992 222.855 24.9891 222.617 25.4543C222.292 26.0908 221.484 27.0319 222.153 27.7672C221.13 27.1066 219.819 26.9814 218.97 25.9192C218.491 25.32 218.738 24.899 218.696 24.2321C217.775 24.269 216.476 24.1373 215.955 23.298C215.519 22.5951 215.539 20.9219 216.219 20.3355C214.941 19.7083 213.872 18.8103 213.709 17.2246C213.599 16.1492 213.87 15.0959 214.636 14.3093C214.824 14.1157 217.021 12.7092 217.125 12.9462C217.097 12.8823 216.444 11.3883 216.15 9.53324C216.137 9.45204 216.125 9.36997 216.114 9.2874C215.822 7.16732 216.04 4.64943 218.172 3.25501C220.065 2.01665 223.525 3.0055 225.403 3.9734C225.545 4.04639 225.678 4.11982 225.801 4.19145C226.017 4.31823 226.2 4.4414 226.344 4.55592C227.169 5.21363 227.47 5.93754 227.251 6.58567Z" fill="#D19724"/>
<path d="M222.241 12.8773C222.727 12.8773 223.122 12.4846 223.122 12.0002C223.122 11.5157 222.727 11.123 222.241 11.123C221.754 11.123 221.359 11.5157 221.359 12.0002C221.359 12.4846 221.754 12.8773 222.241 12.8773Z" fill="white"/>
<path d="M232.864 9.99112L239.648 8.84547C239.993 8.7871 240.226 8.45888 240.168 8.11241L240.045 7.37816C239.987 7.0318 239.659 6.79823 239.314 6.8566L232.529 8.00224C232.184 8.06061 231.951 8.38883 232.009 8.7353L232.132 9.46955C232.19 9.81591 232.518 10.0495 232.864 9.99112Z" fill="#DB9768"/>
<path d="M237.191 9.97708L243.739 8.87144C244.191 8.79515 244.496 8.36572 244.419 7.91258L244.144 6.27225C244.068 5.819 243.639 5.51351 243.187 5.5898L236.64 6.69545C236.188 6.77185 235.883 7.20116 235.959 7.65442L236.235 9.29463C236.311 9.74789 236.739 10.0535 237.191 9.97708Z" fill="#F4E2D5"/>
<path d="M242.601 9.53205L252.985 7.77861C253.355 7.71609 253.605 7.36415 253.543 6.99265L253.064 4.14121C253.001 3.76971 252.65 3.51932 252.279 3.58183L241.896 5.33528C241.525 5.3979 241.275 5.74973 241.338 6.12134L241.817 8.97278C241.88 9.34417 242.231 9.59457 242.601 9.53205Z" fill="#DB9768"/>
<path d="M253.618 8.00352L254.133 7.91641C254.417 7.86843 254.609 7.59869 254.561 7.31386L253.909 3.43613C253.861 3.1513 253.592 2.95937 253.308 3.00735L252.793 3.09447C252.508 3.14245 252.317 3.41219 252.365 3.69702L253.016 7.57475C253.064 7.85957 253.334 8.0515 253.618 8.00352Z" fill="#F4E2D5"/>
<path d="M236.836 5.74823C236.836 5.74823 237.573 5.43498 237.853 6.11123C238.211 6.97283 237.832 8.38967 237.598 7.84683C237.39 7.36559 237.3 6.81977 237.3 6.81977C237.3 6.81977 237.566 8.53389 237.146 8.46127C236.726 8.38864 236.497 6.99339 236.497 6.99339C236.497 6.99339 236.607 8.6319 236.233 8.43449C235.858 8.23719 235.68 7.26045 235.68 7.26045C235.68 7.26045 235.849 8.58456 235.419 8.34497C234.989 8.1055 235.069 7.12566 235.009 6.70267C234.951 6.30302 235.189 6.13651 235.578 6.10859C235.578 6.10859 235.949 5.85532 236.207 5.9014C236.306 5.91898 236.387 5.81533 236.456 5.79695C236.587 5.7619 236.836 5.74823 236.836 5.74823Z" fill="#FABAAF"/>
</svg>
