<svg width="16" height="16" viewBox="0 0 16 16" fill="none" xmlns="http://www.w3.org/2000/svg">
<path d="M3.71061 13.5385H5.60039C5.60039 14.4179 6.05784 15.2305 6.80025 15.6702C7.54265 16.1099 8.45756 16.1099 9.19997 15.6702C9.94237 15.2305 10.3998 14.4179 10.3998 13.5385H12.2896C12.8105 13.5379 13.3029 13.2941 13.6274 12.876C13.9519 12.458 14.073 11.911 13.9568 11.3901C13.8406 10.8693 13.4994 10.4311 13.0299 10.1995C12.869 10.1165 12.7626 9.95293 12.7497 9.76872L12.4737 6.09294V6.09281C12.4073 5.26355 12.1238 4.46794 11.6532 3.79007C11.1825 3.11234 10.5423 2.57745 9.79989 2.24187V1.84612C9.79989 1.1865 9.45679 0.577026 8.89999 0.247356C8.34319 -0.0824518 7.657 -0.0824518 7.1002 0.247356C6.5434 0.577026 6.20031 1.1865 6.20031 1.84612V2.24187C5.45749 2.57758 4.81697 3.11301 4.34628 3.79144C3.87559 4.46988 3.59236 5.26604 3.52647 6.09597L3.25047 9.77175C3.24204 9.86612 3.2095 9.95664 3.15593 10.0338C3.10237 10.1112 3.02992 10.1726 2.94569 10.2117C2.48275 10.4495 2.14943 10.8895 2.03925 11.4084C1.92904 11.9274 2.05371 12.4697 2.37845 12.8834C2.70305 13.2972 3.19277 13.5379 3.7106 13.5385L3.71061 13.5385ZM7.99993 14.7693C7.68176 14.7693 7.37656 14.6396 7.15146 14.4088C6.92649 14.1779 6.80007 13.8649 6.80007 13.5385H9.19979C9.19979 13.8649 9.07338 14.1779 8.84841 14.4088C8.6233 14.6396 8.3181 14.7693 7.99993 14.7693ZM7.4 1.84619C7.4 1.62627 7.51436 1.42312 7.69997 1.31323C7.88557 1.20334 8.1143 1.20334 8.2999 1.31323C8.4855 1.42312 8.59986 1.62628 8.59986 1.84619V1.89289C8.20226 1.83067 7.7976 1.83067 7.4 1.89289V1.84619Z" fill="#E6427A"/>
</svg>
