<svg width="16" height="16" viewBox="0 0 16 16" fill="none" xmlns="http://www.w3.org/2000/svg">
<path d="M15.0467 14.4687L14.3631 1.37924C14.3232 0.606575 13.6788 0 12.8969 0H3.15077C2.36989 0 1.72612 0.606575 1.68618 1.37924L1.00201 14.4687C0.980958 14.8671 1.12617 15.2575 1.4032 15.5465C1.68022 15.8357 2.06532 16 2.46764 16H13.5812C13.984 16 14.3686 15.8356 14.645 15.5465C14.9221 15.2574 15.0678 14.8676 15.0468 14.4687H15.0467ZM12.4028 3.3421C11.9011 5.2852 10.1358 6.69926 8.02867 6.69926C5.92368 6.69926 4.15885 5.28789 3.65628 3.34639C3.26094 3.19326 2.9802 2.81201 2.9802 2.36547C2.9802 1.78398 3.45545 1.31235 4.04237 1.31235C4.62885 1.31224 5.1041 1.78401 5.1041 2.36547C5.1041 2.6985 4.94808 2.99516 4.70449 3.1879C5.12516 4.6234 6.45311 5.65512 8.02939 5.65512C9.60409 5.65512 10.9298 4.62597 11.352 3.19327C11.1041 3.00108 10.9448 2.70119 10.9448 2.36493C10.9448 1.78344 11.4205 1.31181 12.007 1.31181C12.5929 1.31181 13.0681 1.78347 13.0681 2.36493C13.0681 2.80767 12.7928 3.18625 12.4029 3.34205L12.4028 3.3421Z" fill="#E6427A"/>
</svg>
