<svg width="16" height="16" viewBox="0 0 16 16" fill="none" xmlns="http://www.w3.org/2000/svg">
<path d="M13.6364 6.28569H13.0545V4.57141C13.0545 2.93823 12.1674 1.42906 10.7273 0.61254C9.28716 -0.20418 7.51284 -0.20418 6.07273 0.61254C4.63261 1.42913 3.74545 2.93832 3.74545 4.57141V6.28569H3.16364C2.85507 6.28569 2.55908 6.4061 2.34078 6.62039C2.1226 6.8348 2 7.1255 2 7.42855V14.8571C2 15.1602 2.1226 15.4509 2.34078 15.6653C2.55909 15.8796 2.85507 16 3.16364 16H13.6364C13.9449 16 14.2409 15.8796 14.4592 15.6653C14.6774 15.4509 14.8 15.1602 14.8 14.8571V7.42855C14.8 7.12549 14.6774 6.83479 14.4592 6.62039C14.2409 6.4061 13.9449 6.28569 13.6364 6.28569ZM9.56364 12C9.56364 12.1515 9.50234 12.2969 9.39325 12.4041C9.28416 12.5112 9.1361 12.5714 8.98182 12.5714H7.81818C7.6639 12.5714 7.51584 12.5112 7.40675 12.4041C7.29766 12.2969 7.23636 12.1515 7.23636 12V10.2857C7.23636 10.1342 7.29766 9.98876 7.40675 9.88162C7.51584 9.77448 7.6639 9.71427 7.81818 9.71427H8.98182C9.1361 9.71427 9.28416 9.77448 9.39325 9.88162C9.50234 9.98876 9.56364 10.1342 9.56364 10.2857V12ZM11.8909 6.28569H4.90909V4.57141C4.90909 3.66208 5.27687 2.79001 5.93156 2.14704C6.58626 1.50407 7.47414 1.14283 8.4 1.14283C9.32586 1.14283 10.2138 1.50404 10.8684 2.14704C11.5231 2.79005 11.8909 3.66208 11.8909 4.57141V6.28569Z" fill="#E6427A"/>
</svg>
