<svg width="16" height="16" viewBox="0 0 16 16" fill="none" xmlns="http://www.w3.org/2000/svg">
<path fill-rule="evenodd" clip-rule="evenodd" d="M7.96578 13.1298C10.8183 13.1298 13.1308 10.8174 13.1308 7.9648C13.1308 5.11225 10.8183 2.7998 7.96578 2.7998C5.11323 2.7998 2.80078 5.11225 2.80078 7.9648C2.80078 10.8174 5.11323 13.1298 7.96578 13.1298ZM10.289 6.92885C10.2721 6.546 10.5482 6.20858 10.8808 6.20209C11.2189 6.1956 11.5007 6.50707 11.5007 6.9029C11.5007 7.29223 11.2246 7.6037 10.892 7.6037C10.8639 7.6037 10.8413 7.6037 10.8188 7.59722L10.5877 10.2058C10.5708 10.4134 10.4186 10.5692 10.2383 10.5692H8.00073H5.76321C5.58286 10.5692 5.43068 10.4134 5.41378 10.2058L5.1827 7.59722C5.16015 7.6037 5.13197 7.6037 5.10943 7.6037C4.77126 7.6037 4.50073 7.28574 4.50073 6.9029C4.50073 6.50707 4.7769 6.1956 5.1207 6.20209C5.45323 6.20858 5.72376 6.546 5.71249 6.92885C5.70685 7.1365 5.61667 7.32468 5.48141 7.44797C6.18028 8.52514 6.89043 8.60949 7.71329 6.82503C7.42022 6.65632 7.25677 6.22804 7.47094 5.79977C7.57803 5.59212 7.78093 5.49479 7.98946 5.50128H8.00073H8.012C8.22054 5.4883 8.42907 5.59212 8.53052 5.79977C8.74469 6.22804 8.58125 6.65632 8.28817 6.82503C9.11104 8.60949 9.82118 8.52514 10.5201 7.44797C10.3848 7.32468 10.2946 7.14299 10.289 6.92885Z" fill="#E6427A"/>
<path d="M8.01899 0C3.60817 0 0.0378818 3.56937 0.0378818 7.9811C0.0378818 9.9804 0.767421 11.8659 2.10097 13.3361L0 15.9623H8.0189C12.4297 15.9623 16 12.3929 16 7.98117C16 3.57035 12.4306 6.09189e-05 8.0189 6.09189e-05L8.01899 0ZM8.01899 14.0843C4.6535 14.0843 1.91582 11.3464 1.91582 7.9811C1.91582 4.6158 4.65381 1.87794 8.01899 1.87794C11.3845 1.87794 14.1221 4.6158 14.1221 7.9811C14.1221 11.3464 11.3843 14.0843 8.01899 14.0843Z" fill="#E6427A"/>
</svg>
