<svg width="20" height="20" viewBox="0 0 20 20" fill="none" xmlns="http://www.w3.org/2000/svg">
<path d="M10 0C7.34781 0 4.80432 1.05356 2.92898 2.92898C1.05356 4.80425 0 7.34788 0 10C0 12.6521 1.05356 15.1957 2.92898 17.071C4.80425 18.9464 7.34788 20 10 20C12.6521 20 15.1957 18.9464 17.071 17.071C18.9464 15.1957 20 12.6521 20 10C20 7.34788 18.9464 4.80432 17.071 2.92898C15.1957 1.05356 12.6521 0 10 0ZM16.6667 9.99993C16.6658 11.1912 16.3434 12.36 15.7334 13.3833L6.6167 4.26654C7.97187 3.4684 9.56547 3.17505 11.116 3.4384C12.6664 3.70166 14.0739 4.50454 15.0899 5.70528C16.1058 6.90602 16.6641 8.42723 16.6667 9.99989L16.6667 9.99993ZM3.33326 9.99993C3.33424 8.80869 3.65664 7.63987 4.26658 6.6166L13.3833 15.7333C12.0281 16.5315 10.4345 16.8248 8.88404 16.5615C7.33355 16.2982 5.92606 15.4953 4.91014 14.2946C3.89422 13.0938 3.33594 11.5726 3.3333 9.99996L3.33326 9.99993Z" fill="#E6427A"/>
</svg>
