<svg width="24" height="19" viewBox="0 0 24 19" fill="none" xmlns="http://www.w3.org/2000/svg">
<path d="M2.95 19H21.05C21.35 19 21.6 18.7532 21.6 18.4571V17.1247H2.4V18.4571C2.4 18.8026 2.65 19 2.95 19ZM22.5 3.20779C21.65 3.20779 21 3.84935 21 4.68831C21 5.08312 21.15 5.47792 21.45 5.72468L16.95 10.2649L12.7 2.76364C13.15 2.51688 13.45 2.02338 13.45 1.48052C13.45 0.641558 12.8 0 11.95 0C11.1 0 10.45 0.641558 10.45 1.48052C10.45 2.02338 10.75 2.51688 11.2 2.76364L6.95 10.2649L2.45 5.72468C2.85 5.47792 3 5.08312 3 4.68831C3 3.84935 2.35 3.20779 1.5 3.20779C0.65 3.20779 0 3.84935 0 4.68831C0 5.52727 0.65 6.16883 1.5 6.16883C1.55 6.16883 1.6 6.16883 1.6 6.16883L2.4 16.2364H21.6L22.4 6.16883C22.45 6.16883 22.5 6.16883 22.5 6.16883C23.35 6.16883 24 5.52727 24 4.68831C24 3.8987 23.35 3.20779 22.5 3.20779Z" fill="#E6427A"/>
</svg>
