<svg width="25" height="19" viewBox="0 0 25 19" fill="none" xmlns="http://www.w3.org/2000/svg">
<path d="M2.99492 19H21.0949C21.3949 19 21.6449 18.7532 21.6449 18.4571V17.1247H2.44492V18.4571C2.44492 18.8026 2.69492 19 2.99492 19ZM22.5449 3.20779C21.6949 3.20779 21.0449 3.84935 21.0449 4.68831C21.0449 5.08312 21.1949 5.47792 21.4949 5.72468L16.9949 10.2649L12.7449 2.76364C13.1949 2.51688 13.4949 2.02338 13.4949 1.48052C13.4949 0.641558 12.8449 0 11.9949 0C11.1449 0 10.4949 0.641558 10.4949 1.48052C10.4949 2.02338 10.7949 2.51688 11.2449 2.76364L6.99492 10.2649L2.49492 5.72468C2.89492 5.47792 3.04492 5.08312 3.04492 4.68831C3.04492 3.84935 2.39492 3.20779 1.54492 3.20779C0.694922 3.20779 0.0449219 3.84935 0.0449219 4.68831C0.0449219 5.52727 0.694922 6.16883 1.54492 6.16883C1.59492 6.16883 1.64492 6.16883 1.64492 6.16883L2.44492 16.2364H21.6449L22.4449 6.16883C22.4949 6.16883 22.5449 6.16883 22.5449 6.16883C23.3949 6.16883 24.0449 5.52727 24.0449 4.68831C24.0449 3.8987 23.3949 3.20779 22.5449 3.20779Z" fill="#707070"/>
</svg>
