<svg width="20" height="19" viewBox="0 0 20 19" fill="none" xmlns="http://www.w3.org/2000/svg">
<path d="M18.1065 9.0386H18.3338C19.142 9.0386 19.7985 9.69516 19.7985 10.5033C19.7985 11.3115 19.1419 11.9681 18.3338 11.9681H13.6871C13.4092 11.9681 13.2326 12.1953 13.2578 12.4731C13.5608 14.4935 13.99 15.1754 14.1921 17.2713C14.3942 19.2917 11.5152 19.6453 11.1111 17.7764C10.3283 14.2913 7.44935 11.968 6.51491 11.2609C6.31285 11.1094 6.21191 10.9073 6.21191 10.6547V2.32091C6.21191 2.01792 6.38878 1.76533 6.6664 1.63901C7.67646 1.20972 8.86344 0.25 12.298 0.25H17.6519C18.4601 0.25 19.1166 0.906558 19.1166 1.71473C19.1166 2.5229 18.46 3.17946 17.6519 3.17946H17.8287C18.561 3.17946 19.2429 3.70988 19.3441 4.44215C19.4704 5.32613 18.7633 6.10896 17.8793 6.10896H18.0562C18.7885 6.10896 19.4704 6.63938 19.5715 7.37166C19.6725 8.28098 18.9907 9.03864 18.1068 9.03864L18.1065 9.0386Z" fill="#E6427A"/>
<path d="M5.07595 10.3272V2.59946C5.07595 2.19536 4.7476 1.86719 4.34368 1.86719H0.732275C0.328171 1.86719 0 2.19554 0 2.59946V10.3272C0 10.7313 0.328356 11.0594 0.732275 11.0594L4.34368 11.0596C4.74778 11.0596 5.07595 10.7313 5.07595 10.3273V10.3272ZM3.33339 4.29148C3.33339 4.72077 2.97984 5.0743 2.55056 5.0743C2.12126 5.0743 1.76773 4.72076 1.76773 4.29148C1.76773 3.86218 2.12128 3.50865 2.55056 3.50865C2.97985 3.48328 3.33339 3.83683 3.33339 4.29148Z" fill="#E6427A"/>
</svg>
