<svg width="36" height="36" viewBox="0 0 36 36" fill="none" xmlns="http://www.w3.org/2000/svg">
<circle cx="18" cy="18" r="18" fill="#E6427A"/>
<path d="M15.571 27C14.9489 27 14.3668 26.7604 13.9318 26.3252L9.67429 22.0681C9.23894 21.6326 8.99949 21.05 9 20.4276C9.00017 19.8051 9.24011 19.2232 9.67509 18.7884L18.7918 9.67213C19.2038 9.25842 19.7576 9.01948 20.3504 9L24.687 9.00231C25.9603 9.00248 26.9976 10.0392 26.9986 11.313L26.9985 15.6313C26.9787 16.2429 26.7402 16.7962 26.3267 17.2088L17.2104 26.3246C16.7761 26.7596 16.1937 26.9997 15.5708 26.9997L15.571 27ZM20.3693 10.1831C20.0987 10.1921 19.829 10.3079 19.629 10.5082L10.5115 19.6258C10.2998 19.8375 10.1831 20.1228 10.183 20.4293C10.1828 20.7357 10.2991 21.0209 10.5109 21.2328L14.7684 25.4899C14.9801 25.7017 15.2653 25.818 15.5714 25.818C15.8779 25.818 16.1629 25.7013 16.3744 25.4896L25.4915 16.3729C25.6919 16.1731 25.8071 15.9033 25.8166 15.6128L25.8165 11.3143C25.8158 10.6925 25.309 10.186 24.6871 10.1859L20.3693 10.1831ZM22.7531 15.4136C21.5578 15.4135 20.5855 14.441 20.5854 13.246C20.5854 12.0508 21.5577 11.0783 22.753 11.078H22.7536C23.9484 11.078 24.9207 12.0503 24.9209 13.2456C24.9209 14.4413 23.9486 15.4136 22.7532 15.4136H22.7531ZM22.7536 12.261C22.2102 12.2612 21.7682 12.7029 21.7682 13.2458C21.7684 13.7888 22.2102 14.2306 22.7534 14.2307C23.2964 14.2307 23.7381 13.7889 23.7381 13.2458C23.7378 12.7029 23.2964 12.261 22.7536 12.261Z" fill="white"/>
</svg>
