<svg width="20" height="20" viewBox="0 0 20 20" fill="none" xmlns="http://www.w3.org/2000/svg">
<path d="M6.1942 14.9001L7.06473 13.3265C6.41741 12.8577 5.91146 12.2662 5.54688 11.5519C5.18229 10.8376 5 10.0824 5 9.28627C5 8.38597 5.22693 7.54892 5.6808 6.77511C3.97693 7.64565 2.55952 8.95889 1.42857 10.7148C2.67113 12.6345 4.25967 14.0296 6.1942 14.9001ZM10.5357 6.42913C10.5357 6.28032 10.4836 6.15383 10.3795 6.04967C10.2753 5.9455 10.1488 5.89342 10 5.89342C9.06994 5.89342 8.27195 6.22638 7.60603 6.8923C6.9401 7.55822 6.60714 8.35621 6.60714 9.28627C6.60714 9.43508 6.65923 9.56157 6.76339 9.66574C6.86756 9.7699 6.99405 9.82199 7.14286 9.82199C7.29167 9.82199 7.41815 9.7699 7.52232 9.66574C7.62649 9.56157 7.67857 9.43508 7.67857 9.28627C7.67857 8.64639 7.90551 8.09952 8.35938 7.64565C8.81324 7.19178 9.36012 6.96484 10 6.96484C10.1488 6.96484 10.2753 6.91276 10.3795 6.80859C10.4836 6.70443 10.5357 6.57794 10.5357 6.42913ZM14.5871 4.29743C14.5871 4.34952 14.5833 4.383 14.5759 4.39788C13.7946 5.79669 12.6228 7.90234 11.0603 10.7148C9.49777 13.5273 8.32217 15.6367 7.53348 17.043L6.98661 18.0363C6.9122 18.1553 6.80804 18.2148 6.67411 18.2148C6.58482 18.2148 6.08631 17.9544 5.17857 17.4336C5.05952 17.3592 5 17.255 5 17.1211C5 17.0318 5.16369 16.7081 5.49107 16.1501C4.42708 15.6665 3.4468 15.0229 2.55022 14.2193C1.65365 13.4157 0.877976 12.5043 0.223214 11.4849C0.0744048 11.2543 0 10.9976 0 10.7148C0 10.4321 0.0744048 10.1754 0.223214 9.94475C1.36161 8.19624 2.7753 6.81603 4.46429 5.80413C6.15327 4.79222 7.99851 4.28627 10 4.28627C10.6622 4.28627 11.3318 4.34952 12.0089 4.476L12.6116 3.39342C12.686 3.27437 12.7902 3.21484 12.9241 3.21484C12.9613 3.21484 13.0283 3.23717 13.125 3.28181C13.2217 3.32645 13.3371 3.38411 13.471 3.4548C13.6049 3.52548 13.7277 3.59431 13.8393 3.66127C13.9509 3.72824 14.0681 3.79706 14.1908 3.86775C14.3136 3.93843 14.3862 3.98121 14.4085 3.99609C14.5275 4.0705 14.5871 4.17094 14.5871 4.29743ZM15 9.28627C15 10.3205 14.7061 11.2636 14.1183 12.1155C13.5305 12.9674 12.753 13.5794 11.7857 13.9515L14.9107 8.34877C14.9702 8.68359 15 8.99609 15 9.28627ZM20 10.7148C20 10.9753 19.9256 11.232 19.7768 11.4849C19.4866 11.9611 19.0811 12.5006 18.5603 13.1032C17.4442 14.383 16.1514 15.3763 14.6819 16.0831C13.2124 16.79 11.6518 17.1434 10 17.1434L10.8259 15.6702C12.4033 15.5363 13.8635 15.0266 15.2065 14.1412C16.5495 13.2558 17.6711 12.1137 18.5714 10.7148C17.7158 9.383 16.6667 8.28925 15.4241 7.43359L16.1272 6.18359C16.8341 6.65978 17.513 7.22898 18.1641 7.89118C18.8151 8.55339 19.3527 9.23791 19.7768 9.94475C19.9256 10.1977 20 10.4544 20 10.7148Z" fill="#E6427A"/>
</svg>
