<svg width="16" height="16" viewBox="0 0 16 16" fill="none" xmlns="http://www.w3.org/2000/svg">
<mask id="path-1-inside-1_10542_345622" fill="white">
<path d="M11.5808 1C10.438 1 9.21892 1.45367 8.38093 2.28554L8.00004 2.66358L7.61899 2.28554C6.70479 1.45383 5.56196 1 4.41912 1C1.90479 1 0 2.96615 0 5.46136C0 8.33489 2.43808 10.7548 5.79052 13.7793C6.55247 14.4599 7.31426 15.1405 8 15.8966C8.68575 15.2159 9.44753 14.4599 10.2095 13.7793C13.638 10.7545 16 8.33473 16 5.46136C16 2.96603 14.0954 1 11.5809 1H11.5808Z"/>
</mask>
<path d="M8.38093 2.28554L9.08537 2.9953L9.08544 2.99523L8.38093 2.28554ZM8.00004 2.66358L7.29574 3.37349L8.00018 4.07236L8.70448 3.37334L8.00004 2.66358ZM7.61899 2.28554L8.32328 1.57563L8.30793 1.56041L8.29194 1.54585L7.61899 2.28554ZM5.79052 13.7793L5.12066 14.5218L5.12435 14.5251L5.79052 13.7793ZM8 15.8966L7.25928 16.5684L7.96202 17.3432L8.70444 16.6063L8 15.8966ZM10.2095 13.7793L9.54789 13.0294L9.5433 13.0335L10.2095 13.7793ZM11.5808 0C10.1974 0 8.71769 0.542178 7.67642 1.57585L9.08544 2.99523C9.72014 2.36516 10.6785 2 11.5808 2V0ZM7.67649 1.57578L7.29559 1.95382L8.70448 3.37334L9.08537 2.9953L7.67649 1.57578ZM8.70433 1.95367L8.32328 1.57563L6.91469 2.99545L7.29574 3.37349L8.70433 1.95367ZM8.29194 1.54585C7.20638 0.558241 5.82755 0 4.41912 0V2C5.29636 2 6.20321 2.34942 6.94603 3.02523L8.29194 1.54585ZM4.41912 0C1.33724 0 -1 2.42925 -1 5.46136H1C1 3.50305 2.47233 2 4.41912 2V0ZM-1 5.46136C-1 7.20163 -0.25621 8.73579 0.844358 10.172C1.93649 11.5971 3.45069 13.0151 5.12067 14.5218L6.46038 13.0368C4.77792 11.5189 3.39686 10.2147 2.43184 8.95545C1.47525 7.70717 1 6.59462 1 5.46136H-1ZM5.12435 14.5251C5.89282 15.2115 6.61474 15.8577 7.25928 16.5684L8.74072 15.2247C8.01377 14.4232 7.21212 13.7082 6.4567 13.0335L5.12435 14.5251ZM8.70444 16.6063C9.39352 15.9224 10.1367 15.1852 10.8757 14.5251L9.5433 13.0335C8.7584 13.7346 7.97797 14.5095 7.29556 15.1868L8.70444 16.6063ZM10.8711 14.5291C12.5848 13.0172 14.1012 11.5981 15.1869 10.1682C16.2819 8.72599 17 7.1939 17 5.46136H15C15 6.60218 14.5371 7.71665 13.594 8.95882C12.6415 10.2133 11.2627 11.5165 9.5479 13.0294L10.8711 14.5291ZM17 5.46136C17 2.42913 14.6629 0 11.5809 0V2C13.5278 2 15 3.50292 15 5.46136H17ZM11.5809 0H11.5808V2H11.5809V0Z" fill="black" mask="url(#path-1-inside-1_10542_345622)"/>
</svg>
