<svg width="20" height="20" viewBox="0 0 20 20" fill="none" xmlns="http://www.w3.org/2000/svg">
<path d="M11.6668 0H8.33341C7.67026 0 7.03449 0.263388 6.56554 0.732136C6.09678 1.20107 5.83338 1.83684 5.83338 2.49998V3.3333H0.833331C0.535523 3.3333 0.260419 3.49215 0.111608 3.74996C-0.0372028 4.00778 -0.0372028 4.32548 0.111608 4.58329C0.260419 4.8411 0.535532 4.99995 0.833331 4.99995H1.7541L3.0084 16.2941C3.12168 17.3133 3.60698 18.2547 4.37113 18.9384C5.13528 19.6222 6.12467 20.0002 7.14997 20H12.85C13.8755 20.0002 14.8649 19.622 15.6291 18.9381C16.3934 18.2543 16.8785 17.3125 16.9916 16.2934L18.25 5.00014H19.1667C19.4645 5.00014 19.7396 4.84129 19.8884 4.58348C20.0372 4.32567 20.0372 4.00796 19.8884 3.75015C19.7396 3.49235 19.4645 3.33349 19.1667 3.33349H14.1666V2.50017C14.1666 1.83703 13.9032 1.20127 13.4345 0.732326C12.9655 0.263578 12.3297 0.00019037 11.6666 0.00019037L11.6668 0ZM7.50007 2.49998C7.50007 2.279 7.58787 2.06694 7.74412 1.9107C7.90037 1.75445 8.11243 1.66665 8.33341 1.66665H11.6668C11.8878 1.66665 12.0998 1.75445 12.2561 1.9107C12.4123 2.06694 12.5001 2.279 12.5001 2.49998V3.3333H7.50007V2.49998ZM8.33341 13.3332C8.33341 13.631 8.17456 13.9061 7.91674 14.0549C7.65892 14.2037 7.34121 14.2037 7.0834 14.0549C6.82559 13.9061 6.66673 13.631 6.66673 13.3332V8.33325C6.66673 8.03545 6.82558 7.76035 7.0834 7.61155C7.34121 7.46274 7.65893 7.46274 7.91674 7.61155C8.17455 7.76035 8.33341 8.03546 8.33341 8.33325V13.3332ZM13.3335 13.3332C13.3335 13.631 13.1746 13.9061 12.9168 14.0549C12.659 14.2037 12.3413 14.2037 12.0835 14.0549C11.8256 13.9061 11.6668 13.631 11.6668 13.3332V8.33325C11.6668 8.03545 11.8256 7.76035 12.0835 7.61155C12.3413 7.46274 12.659 7.46274 12.9168 7.61155C13.1746 7.76035 13.3335 8.03546 13.3335 8.33325V13.3332Z" fill="#E6427A"/>
</svg>
