<svg width="16" height="16" viewBox="0 0 16 16" fill="none" xmlns="http://www.w3.org/2000/svg">
<path d="M9.84452 2.67203C9.94003 2.68481 10.0302 2.72326 10.1056 2.78317L15.796 7.22874H15.7961C15.9248 7.32995 16 7.48463 16 7.64837C16 7.81211 15.9248 7.96677 15.7961 8.06787L10.1057 12.5134H10.1056C10.0004 12.5954 9.86821 12.635 9.73525 12.6243C9.60228 12.6137 9.47811 12.5536 9.38719 12.456C9.29639 12.3583 9.24541 12.2301 9.2443 12.0967V10.324C8.04148 10.3355 3.90453 10.5643 0.880907 13.2081C0.762697 13.3097 0.605911 13.3543 0.451846 13.3305C0.297912 13.3066 0.161967 13.2166 0.0798476 13.084C-0.00214147 12.9516 -0.0221117 12.7898 0.0251447 12.6414C1.51908 8.0386 6.0092 6.00126 9.24399 5.11723V3.20566C9.24287 3.05185 9.30812 2.90499 9.4231 2.80277C9.53808 2.70056 9.69152 2.65293 9.84422 2.67215L9.84452 2.67203ZM10.3113 4.29473V5.51726C10.3113 5.63559 10.2721 5.75058 10.1996 5.8441C10.1272 5.93763 10.0257 6.00449 9.91112 6.03401C7.29726 6.69576 3.75433 8.17728 1.88687 11.1909C5.45952 9.09186 9.46657 9.23552 9.8057 9.25152C9.94227 9.25871 10.071 9.31801 10.165 9.41736C10.2592 9.51659 10.3115 9.6482 10.3114 9.78501V11.002L14.6014 7.65126L10.3113 4.29473Z" fill="black"/>
</svg>
