<svg width="22" height="20" viewBox="0 0 22 20" fill="none" xmlns="http://www.w3.org/2000/svg">
<path d="M11.0373 4C7.28518 4 3.77223 6.12107 1.11953 9.97456C1.04768 10.094 1 10.2434 1 10.3928C1 10.5422 1.04784 10.6916 1.14336 10.811C3.79607 14.6645 7.30911 16.7855 11.0372 16.7855C14.6937 16.7855 18.1828 14.6645 20.8833 10.7811C21.0507 10.5421 21.0267 10.2135 20.8833 10.0045C18.1828 6.12095 14.6698 4.00003 11.0372 4.00003L11.0373 4ZM11.0373 15.5906C7.69162 15.5906 4.53697 13.7386 2.12325 10.3927C4.53693 7.04702 7.69154 5.1948 11.0373 5.1948C14.2874 5.1948 17.3942 7.04686 19.8796 10.3927C17.3941 13.7384 14.2874 15.5906 11.0373 15.5906Z" fill="#E93779" stroke="#E93779" stroke-width="0.5"/>
<path d="M11 4C8.59375 4 6.625 5.96871 6.625 8.375C6.625 10.7813 8.59371 12.75 11 12.75C13.4063 12.75 15.375 10.7813 15.375 8.375C15.375 5.96871 13.4063 4 11 4ZM11 6.73431C10.0977 6.73431 9.35931 7.47263 9.35931 8.375C9.35931 8.67579 9.11327 8.92181 8.8125 8.92181C8.51172 8.92181 8.26569 8.67577 8.26569 8.375C8.26569 6.87108 9.49608 5.64069 11 5.64069C11.3008 5.64069 11.5468 5.88673 11.5468 6.1875C11.5468 6.48828 11.3008 6.73431 11 6.73431Z" fill="#E93779"/>
</svg>
