<svg width="16" height="16" viewBox="0 0 16 16" fill="none" xmlns="http://www.w3.org/2000/svg">
<path d="M3.06828 12.282L2.39064 13.6938C2.25881 13.9573 2.3154 14.2773 2.50356 14.5031C2.65416 14.6537 2.84231 14.7479 3.04937 14.7479C3.12461 14.7479 3.21875 14.7291 3.29412 14.7102L6.55055 13.5433C7.02114 13.6185 7.51052 13.6562 8 13.6562C12.4047 13.6562 16 10.7385 16 7.16209C16 3.58562 12.4047 0.667969 8 0.667969C3.59529 0.667969 0 3.58565 0 7.16209C0 9.15735 1.14824 11.0586 3.06827 12.2821L3.06828 12.282ZM8.00005 1.7973C11.7836 1.7973 14.8706 4.20671 14.8706 7.162C14.8706 10.1172 11.7836 12.5267 8.00005 12.5267C7.52946 12.5267 7.07766 12.489 6.62596 12.4138C6.51304 12.395 6.38122 12.4138 6.26828 12.4515L3.82119 13.3174L4.23531 12.4327C4.40469 12.094 4.27299 11.6609 3.9341 11.4727C2.16466 10.4563 1.12936 8.83752 1.12936 7.14334C1.12949 4.20677 4.21656 1.79745 7.99995 1.79745L8.00005 1.7973Z" fill="black"/>
</svg>
