<svg width="12" height="12" viewBox="0 0 12 12" fill="none" xmlns="http://www.w3.org/2000/svg">
<path d="M10.9736 11H10.3069C10.194 9.53548 9.3469 8.22778 8.05638 7.52627C6.76586 6.82458 5.20782 6.82458 3.91722 7.52627C2.62669 8.22784 1.7796 9.53553 1.66675 11H1C1.08404 9.73459 1.64586 8.54841 2.57189 7.68198C3.49779 6.81546 4.71856 6.33332 5.98677 6.33332C7.25498 6.33332 8.47573 6.81546 9.40165 7.68198C10.3277 8.5485 10.8895 9.73468 10.9735 11H10.9736ZM3.65356 3.33338C3.65356 2.71452 3.89943 2.12098 4.33705 1.68338C4.77465 1.24589 5.36808 1 5.98694 1C6.6058 1 7.19924 1.24587 7.63684 1.68338C8.07444 2.12098 8.32033 2.71452 8.32033 3.33338C8.32033 3.95213 8.07445 4.54568 7.63684 4.98328C7.19924 5.42088 6.6058 5.66666 5.98694 5.66666C5.36831 5.66599 4.77522 5.41989 4.33782 4.98251C3.90033 4.54511 3.65433 3.95205 3.65356 3.33338ZM4.32019 3.33338H4.3203C4.3203 3.77536 4.49586 4.19936 4.80848 4.51185C5.12099 4.82445 5.54485 5.00002 5.98694 5.00002C6.42903 5.00002 6.85292 4.82446 7.1654 4.51185C7.47801 4.19933 7.65358 3.77536 7.65358 3.33338C7.65358 2.8913 7.47802 2.46741 7.1654 2.15481C6.85289 1.84229 6.42903 1.66663 5.98694 1.66663C5.54508 1.66719 5.12142 1.84286 4.80893 2.15535C4.49653 2.46787 4.32076 2.89141 4.3203 3.33336L4.32019 3.33338Z" fill="#E6427A" stroke="#E6427A" stroke-width="0.3"/>
</svg>
