<svg width="12" height="12" viewBox="0 0 12 12" fill="none" xmlns="http://www.w3.org/2000/svg">
<path d="M8.18444 5.36872C9.73943 5.36872 11 6.62927 11 8.18432C11 9.73939 9.73941 10.9999 8.18444 10.9999C6.62946 10.9999 5.36883 9.73937 5.36883 8.18432C5.36883 6.62933 6.62939 5.36872 8.18444 5.36872ZM8.18444 1.00005C8.346 1.00005 8.47958 1.12009 8.50067 1.27589L8.50359 1.3192L8.50344 2.24808L10.0568 2.24822C10.5551 2.24822 10.9632 2.63463 10.9976 3.12416L11.0001 3.19148V4.43971C11.0001 4.60128 10.88 4.73479 10.7242 4.75594L10.6809 4.75886L1.6383 4.75872V10.0567C1.6383 10.2111 1.75306 10.3387 1.90188 10.3589L1.94327 10.3617H5.06379C5.24004 10.3617 5.38294 10.5046 5.38294 10.6809C5.38294 10.8424 5.26283 10.9759 5.10711 10.9971L5.06379 11H1.94327C1.44496 11 1.03691 10.6136 1.00242 10.1241L1 10.0567V3.19144C1 2.69313 1.3864 2.28508 1.87594 2.25059L1.94326 2.24817L3.49617 2.24803L3.49646 1.31915C3.49646 1.14283 3.63936 1 3.8156 1C3.97717 1 4.11068 1.12004 4.13183 1.27583L4.13476 1.31915L4.13447 2.24803H7.86502L7.86517 1.31915C7.86517 1.14283 8.00807 1 8.18431 1L8.18444 1.00005ZM8.18444 6.00701C6.98193 6.00701 6.00713 6.98183 6.00713 8.18432C6.00713 9.38683 6.98187 10.3616 8.18444 10.3616C9.387 10.3616 10.3617 9.38681 10.3617 8.18432C10.3617 6.98188 9.38693 6.00701 8.18444 6.00701ZM8.18444 6.61695C8.346 6.61695 8.47958 6.73698 8.50067 6.89278L8.50359 6.93609L8.50344 7.86497L9.43267 7.86512C9.59424 7.86512 9.72775 7.98522 9.7489 8.14095L9.75182 8.18426C9.75182 8.34583 9.63171 8.47941 9.47599 8.50049L9.43267 8.50341H8.18445C8.02288 8.50341 7.88937 8.38338 7.86822 8.22758L7.8653 8.18427V6.93611C7.8653 6.7598 8.0082 6.61696 8.18444 6.61696L8.18444 6.61695ZM10.0568 2.88639H1.94338C1.78901 2.88639 1.66142 3.00116 1.6412 3.14997L1.63842 3.19136V4.12031H10.3619V3.19136C10.3619 3.03699 10.2471 2.9094 10.0983 2.88917L10.0568 2.88639Z" fill="#E93779" stroke="#E6427A" stroke-width="0.1"/>
</svg>
