<svg width="221" height="26" viewBox="0 0 221 26" fill="none" xmlns="http://www.w3.org/2000/svg">
<path fill-rule="evenodd" clip-rule="evenodd" d="M0 4.16548H16.7561C16.7561 4.16548 13.3931 1.03027 8.51213 1.27976C3.63117 1.52925 0 4.16548 0 4.16548Z" fill="#D21F61"/>
<path fill-rule="evenodd" clip-rule="evenodd" d="M220.998 4.16548H204.242C204.242 4.16548 207.605 1.03027 212.486 1.27976C217.367 1.52925 220.998 4.16548 220.998 4.16548Z" fill="#D21F61"/>
<mask id="mask0_21793_54751" style="mask-type:alpha" maskUnits="userSpaceOnUse" x="0" y="0" width="221" height="26">
<path d="M209.093 0C205.401 0 170.821 0 138.707 0C138.707 0 111.52 0 82.2917 0C50.177 0 15.5977 0 11.9047 0C4.85141 0 0 4.16224 0 4.16224C19.9703 -6.43775 22.3818 26 36.7265 26H184.272C198.617 26 201.028 -6.43775 220.998 4.16224C220.998 4.16224 216.147 0 209.093 0Z" fill="white"/>
</mask>
<g mask="url(#mask0_21793_54751)">
<path fill-rule="evenodd" clip-rule="evenodd" d="M209.093 0C205.401 0 170.821 0 138.707 0C138.707 0 111.52 0 82.2917 0C50.177 0 15.5977 0 11.9047 0C4.85141 0 0 4.16224 0 4.16224C19.9703 -6.43775 22.3818 26 36.7265 26H184.272C198.617 26 201.028 -6.43775 220.998 4.16224C220.998 4.16224 216.147 0 209.093 0Z" fill="#E6427A"/>
</g>
</svg>
