<svg width="24" height="16" viewBox="0 0 24 16" fill="none" xmlns="http://www.w3.org/2000/svg">
<path d="M22.6667 6.66667H1.33333C0.533333 6.66667 0 7.2 0 8C0 8.8 0.533333 9.33333 1.33333 9.33333H22.6667C23.4667 9.33333 24 8.8 24 8C24 7.2 23.4667 6.66667 22.6667 6.66667ZM1.33333 2.66667H22.6667C23.4667 2.66667 24 2.13333 24 1.33333C24 0.533333 23.4667 0 22.6667 0H1.33333C0.533333 0 0 0.533333 0 1.33333C0 2.13333 0.533333 2.66667 1.33333 2.66667ZM12.6667 13.3333H1.33333C0.533333 13.3333 0 13.8667 0 14.6667C0 15.4667 0.533333 16 1.33333 16H12.6667C13.4667 16 14 15.4667 14 14.6667C14 13.8667 13.4667 13.3333 12.6667 13.3333Z" fill="black"/>
</svg>
