<svg width="213" height="173" viewBox="0 0 213 173" fill="none" xmlns="http://www.w3.org/2000/svg">
<path fill-rule="evenodd" clip-rule="evenodd" d="M50.0511 80.3482C50.7487 80.3482 49.9957 78.6875 48.184 78.6875C42.6766 78.6875 37.6455 83.464 32.8911 96.2478C25.6708 115.659 21.2711 117.651 17.3705 117.651C16.5463 117.651 16.2523 116.974 15.9273 116.974C15.5388 116.974 15.2041 117.781 15.2913 118.872C15.4821 121.269 18.5238 125.045 22.2342 125.045C37.0647 125.045 38.6343 80.3482 50.0511 80.3482Z" fill="#E6427A"/>
<path fill-rule="evenodd" clip-rule="evenodd" d="M61.5699 86.6981C60.8072 77.1161 50.8315 71.125 38.6984 71.125C16.9139 71.125 6.16166 85.6058 6.99847 96.1105C7.51563 102.61 13.0404 107.157 17.9282 107.157C24.6009 107.157 28.565 100.954 28.2608 97.1278C28.1011 95.1225 25.8663 94.1343 25.9389 95.0473C26.127 97.4058 23.2153 101.868 19.3465 101.868C16.4271 101.868 14.7579 99.5404 14.4959 96.2425C13.8376 87.9724 21.6131 74.0156 39.3919 74.0156C49.6034 74.0156 53.8262 79.4522 54.3303 85.785C55.0135 94.3678 49.2107 101.293 39.8939 101.293C39.0413 101.293 40.0074 103.866 42.5561 103.866C53.0303 103.866 62.4052 97.1931 61.5699 86.6981Z" fill="#E6427A"/>
<path fill-rule="evenodd" clip-rule="evenodd" d="M148.313 108.374C145.838 113.298 143.136 116.926 140.982 116.926C139.925 116.926 139.153 115.873 139.025 114.272C138.605 108.991 142.829 98.5641 147.207 98.5641C148.814 98.5641 150.016 100.557 149.996 103.667C149.3 105.545 148.749 107.087 148.313 108.374ZM91.0496 116.926C89.993 116.926 89.2206 115.873 89.0934 114.272C88.6729 108.991 92.8964 98.5641 97.2734 98.5641C98.926 98.5641 100.148 100.664 100.061 103.919L98.2477 108.635C95.8103 113.426 93.1641 116.926 91.0496 116.926ZM83.0452 134.135C81.8088 134.135 81.0959 133.307 81.0316 132.499C80.8913 130.736 82.7203 130.216 89.464 128.605C89.7662 128.533 90.0676 128.461 90.3671 128.389C88.6025 131.717 86.3952 134.135 83.0452 134.135ZM70.5228 108.374C68.0481 113.298 65.3452 116.926 63.1913 116.926C62.1347 116.926 61.3623 115.873 61.2344 114.272C60.8147 108.991 65.0389 98.5641 69.4157 98.5641C71.0242 98.5641 72.2252 100.557 72.2052 103.667C71.5088 105.545 70.9577 107.087 70.5228 108.374ZM125.524 98.3098C127.828 98.3098 126.125 106.01 117.336 108.375C118.795 103.177 122.656 98.3098 125.524 98.3098ZM205.934 108.974C205.57 108.606 204.791 107.818 204.422 107.444C204.319 107.34 204.155 107.357 204.089 107.475C200.326 114.133 196.96 117.181 194.827 117.181C194.239 117.181 193.831 116.694 193.775 115.973C193.588 113.629 193.858 112.279 198.973 98.8268H202.682C202.962 98.8268 203.202 98.6628 203.301 98.4086L204.207 96.028C204.3 95.7875 204.101 95.5124 203.837 95.5124H200.237C201.418 92.423 202.809 88.8071 204.443 84.5559C204.534 84.317 204.339 84.0391 204.077 84.0391H198.729C198.448 84.0391 198.205 84.2057 198.107 84.4614C196.446 88.782 195.044 92.4216 193.865 95.5124H191.182C190.902 95.5124 190.658 95.6764 190.561 95.9321L189.651 98.3154C189.563 98.553 189.756 98.8268 190.017 98.8268H192.603C190.981 103.102 189.884 106.085 189.148 108.27C186.17 113.516 182.325 117.692 180.658 117.692C179.982 117.692 179.665 117.206 179.607 116.483C179.486 114.972 180.749 111.593 183.44 104.637C184.936 100.767 183.45 96.3156 178.603 96.3156C176.692 96.3156 174.366 96.3977 171.681 98.9004L172.394 97.0467C172.486 96.8062 172.288 96.5324 172.026 96.5324H166.674C166.395 96.5324 166.154 96.6936 166.056 96.9479L161.893 107.773C158.219 114.245 155.101 117.691 153.855 117.691C153.268 117.691 152.863 117.206 152.805 116.482C152.648 114.515 152.762 112.993 158.394 98.3168C158.486 98.0791 158.292 97.8054 158.03 97.8054H152.671C152.394 97.8054 152.153 97.9708 152.055 98.2238C151.934 98.5391 151.818 98.8462 151.701 99.1492C150.787 97.0021 148.826 96.0224 146.479 96.0224C139.891 96.0224 135.032 102.529 133.436 108.7C128.707 116.509 122.947 117.692 120.397 117.692C118.083 117.692 116.968 115.667 116.776 113.252C116.715 112.476 116.741 111.675 116.836 110.862C122.268 110.653 131.824 106.798 131.305 100.28C131.053 97.1105 128.415 95.7667 124.798 95.7667C117.834 95.7667 111.907 102.72 110.792 109.411C107.289 115.387 103.601 118.946 99.7917 121.193C99.8823 120.965 99.9721 120.731 100.063 120.496L108.587 98.3197C108.679 98.0805 108.483 97.8054 108.222 97.8054H102.869C102.589 97.8054 102.347 97.9693 102.248 98.2238L101.834 99.3048C100.951 97.048 98.9502 96.0224 96.5453 96.0224C89.8855 96.0224 84.9913 102.672 83.4497 108.902C80.0627 114.645 77.2348 117.691 76.0649 117.691C75.4764 117.691 75.0713 117.206 75.0139 116.482C74.8576 114.515 74.9711 112.993 80.6036 98.3168C80.6949 98.0791 80.5007 97.8054 80.24 97.8054H74.8805C74.6031 97.8054 74.3626 97.9708 74.2643 98.2238C74.1441 98.5391 74.0265 98.8462 73.9103 99.1492C72.9968 97.0021 71.0359 96.0224 68.6884 96.0224C60.1862 96.0224 54.5611 106.858 55.1158 113.824C55.4628 118.187 57.8427 121.222 61.6334 121.222C64.2285 121.222 66.5857 119.706 69.032 115.899C69.0355 115.945 69.039 115.99 69.0431 116.036C69.2838 119.061 71.6521 121.22 74.4448 121.22C77.2132 121.22 79.3569 120.753 83.0994 114.842C83.7144 118.65 86.0036 121.222 89.4903 121.222C91.118 121.222 92.6509 120.624 94.1714 119.244L93.6902 120.496C93.2125 121.74 92.7395 122.997 92.2492 124.222C91.232 124.486 90.2108 124.713 89.1833 124.92C80.6099 126.646 76.4743 127.666 76.8428 132.305C77.1408 136.044 80.4633 138.341 84.4585 138.341C89.3209 138.343 92.7844 137.183 97.7304 126.146C102.412 124.225 106.69 121.077 110.919 114.466C111.807 118.557 114.506 121.731 119.325 121.731C122.623 121.731 127.694 121.373 132.958 114.29C133.434 118.399 135.771 121.222 139.424 121.222C142.02 121.222 144.377 119.706 146.822 115.899C146.826 115.945 146.829 115.99 146.834 116.036C147.075 119.061 149.442 121.22 152.237 121.22C154.047 121.22 155.589 121.02 157.486 119.23L156.918 120.706C156.828 120.947 157.023 121.22 157.285 121.22H162.637C162.916 121.22 163.158 121.056 163.257 120.802L168.93 106.055C171.61 101.129 174.707 99.0798 176.291 99.0798C178.244 99.0798 177.875 101.81 175.793 107.239C173.601 112.96 173.444 114.059 173.623 116.291C173.863 119.317 175.706 121.222 178.5 121.222C181.192 121.222 183.968 120.79 187.801 115.491C187.802 115.503 187.802 115.514 187.803 115.526C188.045 118.551 190.453 121.22 193.246 121.22C197.12 121.22 200.174 120.502 206.006 109.405C206.079 109.269 206.05 109.093 205.934 108.974Z" fill="#E6427A"/>
<path fill-rule="evenodd" clip-rule="evenodd" d="M50.0733 149.156C51.4074 149.156 51.9756 148.485 51.9756 147.422C51.9756 146.359 51.4074 145.688 50.0733 145.688H48.2503V149.156H50.0733ZM50.3282 151.834H48.2503V156.8H44.8984V142.969H50.3282C53.701 142.969 55.3861 144.88 55.3861 147.422C55.3861 149.706 53.8376 151.834 50.3282 151.834Z" fill="#E6427A"/>
<path fill-rule="evenodd" clip-rule="evenodd" d="M72.2427 142.969V154.198H76.6336V156.8H68.8906V142.969H72.2427Z" fill="#E6427A"/>
<path fill-rule="evenodd" clip-rule="evenodd" d="M96.0032 146.693L94.3168 151.756H97.7079L96.0032 146.693ZM98.5713 154.355H93.434L92.6108 156.8H89.1016L94.0815 142.969H97.9627L102.943 156.8H99.3943L98.5713 154.355Z" fill="#E6427A"/>
<path fill-rule="evenodd" clip-rule="evenodd" d="M128.527 142.969V156.8H125.175L119.567 148.268V156.8H116.215V142.969H119.567L125.175 151.539V142.969H128.527Z" fill="#E6427A"/>
<path fill-rule="evenodd" clip-rule="evenodd" d="M151.149 145.668H146.07V148.465H150.56V151.066H146.07V154.1H151.149V156.8H142.719V142.969H151.149V145.668Z" fill="#E6427A"/>
<path fill-rule="evenodd" clip-rule="evenodd" d="M164.34 142.969H174.986V145.668H171.339V156.8H167.986V145.668H164.34V142.969Z" fill="#E6427A"/>
<path fill-rule="evenodd" clip-rule="evenodd" d="M69.5156 49.0391C69.5151 51.5836 70.0559 54.5815 71.0548 57.5445C72.0533 60.5074 73.4486 63.2527 75.0089 65.3357C75.0093 62.7913 74.4686 59.7933 73.4698 56.8304C72.4709 53.8675 71.0759 51.1221 69.5156 49.0391Z" fill="#DB9768"/>
<path fill-rule="evenodd" clip-rule="evenodd" d="M130.598 41.2589C131.316 36.0567 131.575 30.864 131.349 26.2263C132.339 25.9434 133.116 25.0933 133.257 24.0024C133.445 22.5411 132.418 21.2033 130.964 21.0145C129.51 20.8256 128.179 21.8573 127.991 23.3186C127.85 24.4149 128.392 25.4415 129.286 25.9658C127.807 30.3998 126.647 35.4873 125.928 40.6937C124.952 47.7704 124.833 54.7257 125.588 60.3681C127.849 55.0906 129.622 48.3358 130.598 41.2589Z" fill="#DB9768"/>
<path fill-rule="evenodd" clip-rule="evenodd" d="M86.3216 57.194C86.5745 53.6957 86.2185 49.4663 85.3071 45.2042C84.3959 40.9422 82.9856 36.9106 81.3136 33.7734C81.0607 37.2716 81.4167 41.501 82.3281 45.763C83.2394 50.0249 84.6498 54.0565 86.3216 57.194Z" fill="#DB9768"/>
<path fill-rule="evenodd" clip-rule="evenodd" d="M102.225 55.6931C103.048 51.7458 103.281 46.8719 102.88 41.887C102.48 36.902 101.47 32.1156 100.026 28.3281C99.2036 32.2754 98.9704 37.1493 99.371 42.1343C99.7716 47.1192 100.781 51.9057 102.225 55.6931Z" fill="#DB9768"/>
<path fill-rule="evenodd" clip-rule="evenodd" d="M78.5901 48.9302C77.6128 45.3026 76.3354 41.7938 74.8912 38.7682C75.4994 38.322 75.8117 37.5363 75.6162 36.7575C75.359 35.7335 74.3244 35.1126 73.3052 35.3711C72.2861 35.6294 71.6684 36.669 71.9254 37.6932C72.1221 38.4767 72.7747 39.0202 73.5265 39.1186C73.7888 42.4167 74.4394 46.0626 75.4139 49.6806C76.7289 54.5626 78.5653 59.1609 80.6133 62.7129C80.6171 58.6762 79.9048 53.8121 78.5901 48.9302Z" fill="#DB9768"/>
<path fill-rule="evenodd" clip-rule="evenodd" d="M137.553 45.763C138.465 41.501 138.821 37.2716 138.568 33.7734C136.896 36.9106 135.485 40.9422 134.574 45.2042C133.663 49.4663 133.307 53.6957 133.56 57.194C135.232 54.0565 136.642 50.0249 137.553 45.763Z" fill="#DB9768"/>
<path fill-rule="evenodd" clip-rule="evenodd" d="M120.513 42.1343C120.914 37.1493 120.681 32.2752 119.858 28.3281C118.414 32.1156 117.404 36.9019 117.004 41.887C116.603 46.8721 116.836 51.746 117.659 55.6931C119.103 51.9058 120.113 47.1193 120.513 42.1343Z" fill="#DB9768"/>
<path fill-rule="evenodd" clip-rule="evenodd" d="M146.414 56.8304C145.416 59.7932 144.875 62.7911 144.875 65.3357C146.436 63.2527 147.83 60.5074 148.83 57.5445C149.828 54.5815 150.369 51.5836 150.369 49.0391C148.808 51.1221 147.413 53.8675 146.414 56.8304Z" fill="#DB9768"/>
<path fill-rule="evenodd" clip-rule="evenodd" d="M109.949 61.7344C91.0632 61.7344 76.2695 65.2273 76.2695 69.6863C76.2695 71.4603 78.6026 73.1241 83.0164 74.4983C83.1249 74.5315 83.2422 74.4784 83.2799 74.3774C83.318 74.2766 83.2629 74.1659 83.1561 74.1284C79.7105 72.9183 77.8131 71.5918 77.8131 70.3933C77.8131 67.0277 92.5295 64.1842 109.949 64.1842C127.369 64.1842 142.085 67.0277 142.085 70.3933C142.085 71.5918 140.188 72.9183 136.742 74.1284C136.635 74.1659 136.58 74.2766 136.618 74.3774C136.648 74.4579 136.729 74.5082 136.816 74.5082L136.882 74.4983C141.296 73.1241 143.629 71.4603 143.629 69.6863C143.629 65.2273 128.835 61.7344 109.949 61.7344Z" fill="#DB9768"/>
<path fill-rule="evenodd" clip-rule="evenodd" d="M108.862 19.5987C108.822 19.591 108.782 19.588 108.742 19.5796C107.759 24.7899 107.24 30.6995 107.24 36.6827C107.24 45.1537 108.245 53.7774 109.939 59.9258C111.633 53.7774 112.639 45.1539 112.639 36.6827C112.639 30.6995 112.119 24.7899 111.136 19.5796C111.096 19.588 111.056 19.591 111.016 19.5987C112.404 19.141 113.413 17.8439 113.413 16.2959C113.413 14.3678 111.858 12.8047 109.939 12.8047C108.02 12.8047 106.465 14.3678 106.465 16.2959C106.465 17.8437 107.474 19.141 108.862 19.5987Z" fill="#DB9768"/>
<path fill-rule="evenodd" clip-rule="evenodd" d="M88.5382 26.2258C88.3118 30.8637 88.5706 36.0565 89.2882 41.2589C90.2648 48.3357 92.0378 55.0906 94.2989 60.3681C95.0532 54.7257 94.9347 47.7704 93.9583 40.6937C93.24 35.4876 92.0797 30.4003 90.6006 25.9665C91.4953 25.4425 92.0386 24.4155 91.8976 23.3186C91.7098 21.8573 90.3785 20.8256 88.9243 21.0145C87.4701 21.2033 86.4437 22.5411 86.6316 24.0024C86.7717 25.0926 87.549 25.9422 88.5382 26.2258Z" fill="#DB9768"/>
<path fill-rule="evenodd" clip-rule="evenodd" d="M147.96 37.6932C148.217 36.669 147.599 35.6294 146.579 35.3711C145.56 35.1126 144.526 35.7335 144.269 36.7575C144.073 37.5358 144.384 38.321 144.992 38.7675C143.548 41.7933 142.27 45.3023 141.293 48.9302C139.978 53.8121 139.266 58.6762 139.27 62.7129C141.317 59.1609 143.154 54.5626 144.469 49.6806C145.443 46.0627 146.094 42.4168 146.356 39.1186C147.109 39.021 147.762 38.4773 147.96 37.6932Z" fill="#DB9768"/>
</svg>
