<svg width="24" height="24" viewBox="0 0 24 24" fill="none" xmlns="http://www.w3.org/2000/svg">
<path d="M2.95 22H21.05C21.35 22 21.6 21.7532 21.6 21.4571V20.1247H2.4V21.4571C2.4 21.8026 2.65 22 2.95 22ZM22.5 6.20779C21.65 6.20779 21 6.84935 21 7.68831C21 8.08312 21.15 8.47792 21.45 8.72468L16.95 13.2649L12.7 5.76364C13.15 5.51688 13.45 5.02338 13.45 4.48052C13.45 3.64156 12.8 3 11.95 3C11.1 3 10.45 3.64156 10.45 4.48052C10.45 5.02338 10.75 5.51688 11.2 5.76364L6.95 13.2649L2.45 8.72468C2.85 8.47792 3 8.08312 3 7.68831C3 6.84935 2.35 6.20779 1.5 6.20779C0.65 6.20779 0 6.84935 0 7.68831C0 8.52727 0.65 9.16883 1.5 9.16883C1.55 9.16883 1.6 9.16883 1.6 9.16883L2.4 19.2364H21.6L22.4 9.16883C22.45 9.16883 22.5 9.16883 22.5 9.16883C23.35 9.16883 24 8.52727 24 7.68831C24 6.8987 23.35 6.20779 22.5 6.20779Z" fill="#707070"/>
</svg>
