<svg width="21" height="20" viewBox="0 0 21 20" fill="none" xmlns="http://www.w3.org/2000/svg">
<path d="M10.0449 0C7.3928 0 4.84924 1.05361 2.97384 2.92904C1.09853 4.80436 0.0449219 7.34808 0.0449219 10.0001C0.0449219 12.6523 1.09853 15.1957 2.97384 17.0711C4.84932 18.9466 7.39288 20 10.0449 20C12.6971 20 15.2405 18.9466 17.1159 17.0711C18.9912 15.1958 20.0448 12.652 20.0448 10.0001C20.0448 8.24475 19.5827 6.52038 18.705 5.00007C17.8274 3.47987 16.565 2.21765 15.0448 1.33984C13.5246 0.462182 11.8001 7.9397e-05 10.0448 7.9397e-05L10.0449 0ZM10.0449 3.33333C10.3395 3.33333 10.6221 3.45051 10.8306 3.65885C11.0389 3.86718 11.156 4.14976 11.156 4.44444C11.156 4.73927 11.0389 5.02186 10.8306 5.23019C10.6221 5.43853 10.3395 5.55556 10.0449 5.55556C9.75018 5.55556 9.4676 5.43853 9.25927 5.23019C9.05078 5.02186 8.93375 4.73928 8.93375 4.44444C8.93375 4.14977 9.05078 3.86718 9.25927 3.65885C9.4676 3.45051 9.75018 3.33333 10.0449 3.33333ZM11.8225 16H8.26689L8.26705 16.0001C7.87006 16.0001 7.50332 15.7882 7.30475 15.4446C7.10633 15.1008 7.10633 14.6771 7.30475 14.3335C7.50331 13.9896 7.87006 13.7779 8.26705 13.7779H8.93375V9.33347H8.26705C7.87006 9.33347 7.50332 9.12157 7.3049 8.77792C7.10634 8.4341 7.10634 8.01046 7.3049 7.66681C7.50332 7.32299 7.87006 7.11125 8.26705 7.11125H10.7116C10.8294 7.11125 10.9425 7.15807 11.0258 7.2413C11.1092 7.3247 11.156 7.4377 11.156 7.55566V13.7779H11.8227C12.2197 13.7779 12.5864 13.9896 12.7848 14.3334C12.9834 14.6771 12.9834 15.1007 12.7848 15.4445C12.5864 15.7882 12.2197 16.0001 11.8227 16.0001L11.8225 16Z" fill="#E6427A"/>
</svg>
