<svg width="18" height="20" viewBox="0 0 18 20" fill="none" xmlns="http://www.w3.org/2000/svg">
<path d="M17.4539 18.0859L16.6066 1.72404C16.5571 0.758218 15.7585 0 14.7895 0H2.7105C1.74271 0 0.944844 0.758218 0.895343 1.72404L0.0474101 18.0859C0.0213217 18.5838 0.20129 19.0718 0.544627 19.4332C0.887961 19.7946 1.36524 20 1.86385 20H15.6375C16.1368 20 16.6134 19.7945 16.956 19.4332C17.2993 19.0717 17.48 18.5845 17.4539 18.0859ZM14.1771 4.17763C13.5553 6.6065 11.3675 8.37408 8.75596 8.37408C6.14712 8.37408 3.95986 6.60986 3.337 4.18299C2.84703 3.99158 2.4991 3.51502 2.4991 2.95684C2.4991 2.22998 3.0881 1.64044 3.8155 1.64044C4.54236 1.6403 5.13137 2.23001 5.13137 2.95684C5.13137 3.37313 4.938 3.74395 4.63611 3.98488C5.15747 5.77925 6.80327 7.06889 8.75685 7.06889C10.7085 7.06889 12.3515 5.78246 12.8747 3.99159C12.5675 3.75136 12.3701 3.37648 12.3701 2.95616C12.3701 2.2293 12.9597 1.63976 13.6865 1.63976C14.4127 1.63976 15.0017 2.22933 15.0017 2.95616C15.0017 3.50959 14.6604 3.98281 14.1772 4.17756L14.1771 4.17763Z" fill="#E6427A"/>
</svg>
