<svg width="21" height="16" viewBox="0 0 21 16" fill="none" xmlns="http://www.w3.org/2000/svg">
<path d="M18.733 3.28059C18.009 3.28059 17.4207 3.86891 17.4207 4.59286C17.4207 4.88702 17.5112 5.15846 17.6695 5.36212L15.95 6.60651C14.7056 7.51158 12.941 7.05903 12.2623 5.67886L10.6786 2.48875C11.1084 2.26248 11.4025 1.83268 11.4025 1.31228C11.4025 0.588325 10.8142 0 10.0902 0C9.36629 0 8.77796 0.588325 8.77796 1.31228C8.77796 1.83268 9.07212 2.26251 9.50191 2.48875L7.9182 5.67886C7.23941 7.05903 5.47476 7.48882 4.23044 6.60651L2.46565 5.33954C2.60143 5.13586 2.69191 4.86445 2.69191 4.59286C2.69191 3.86891 2.10359 3.28059 1.37963 3.28059C0.655827 3.28059 0.0449219 3.86877 0.0449219 4.59286C0.0449219 5.31682 0.633247 5.90514 1.3572 5.90514C1.53815 5.90514 1.69652 5.85983 1.85491 5.81466L4.86395 13.5749H15.2938L18.3029 5.83721C18.4386 5.88252 18.5743 5.9051 18.7326 5.9051C19.4566 5.9051 20.0449 5.31678 20.0449 4.59282C20.0452 3.86873 19.4569 3.28055 18.7329 3.28055L18.733 3.28059Z" fill="#E6427A"/>
<path d="M4.86377 15.3395C4.86377 15.6788 5.1352 15.9504 5.47468 15.9504H14.6603C14.9996 15.9504 15.2712 15.679 15.2712 15.3395V14.4797H4.86384L4.86377 15.3395Z" fill="#E6427A"/>
</svg>
