<svg width="21" height="20" viewBox="0 0 21 20" fill="none" xmlns="http://www.w3.org/2000/svg">
<path d="M17.1175 2.91912C15.6358 1.43565 13.6912 0.415669 11.5189 0.0944422C12.2115 0.624243 12.8257 1.51927 13.3192 2.68018C13.6317 3.41541 13.8975 4.25976 14.1053 5.18621C14.1204 5.17988 14.1352 5.17373 14.1503 5.1674C15.3043 4.68098 16.3674 3.97722 17.277 3.08276C17.2243 3.02764 17.1711 2.97307 17.1172 2.91907L17.1175 2.91912ZM10.2623 0.000381546V5.95104H10.2688C11.4507 5.95104 12.6097 5.74228 13.6966 5.34544C13.4929 4.42009 13.2303 3.57888 12.9204 2.84981C12.2178 1.19685 11.2833 0.133153 10.2623 0L10.2623 0.000381546ZM8.57032 0.094428C6.42951 0.411197 4.5095 1.40656 3.03602 2.8558C3.89855 3.75955 4.91455 4.48491 6.0256 5.0058C6.22687 4.14991 6.47817 3.3672 6.77022 2.68002C7.2637 1.51907 7.87775 0.624276 8.57047 0.0944757L8.57032 0.094428ZM6.42932 5.18457C7.4998 5.63003 8.6488 5.88962 9.82737 5.94159V0.000462656C8.80637 0.133616 7.87184 1.19732 7.16927 2.85027C6.87742 3.53668 6.6276 4.32258 6.42932 5.18462V5.18457ZM2.73364 3.16625C1.11031 4.90635 0.0993505 7.22654 0.0450171 9.78244H5.47979C5.49356 8.22765 5.65371 6.7561 5.9292 5.44039C4.74205 4.897 3.65557 4.12955 2.73371 3.16639L2.73364 3.16625ZM5.91446 9.78244H9.82742V6.37747C8.61851 6.32626 7.43827 6.06535 6.3356 5.61617C6.0776 6.87991 5.92768 8.29091 5.91447 9.78244H5.91446ZM0.0449219 10.2178C0.0979363 12.7039 1.05588 14.9668 2.60202 16.6901C3.55293 15.7339 4.67031 14.9805 5.88698 14.4585L5.90651 14.4503C5.64479 13.1627 5.49301 11.7295 5.4798 10.2179L0.0449219 10.2178ZM6.31589 14.2856C7.42937 13.8651 8.61632 13.6345 9.82742 13.6148V10.2176H5.91446C5.92748 11.6706 6.06996 13.0472 6.31588 14.2854L6.31589 14.2856ZM10.2623 13.6168C11.4721 13.6478 12.6567 13.8891 13.767 14.3198C14.0172 13.0727 14.1621 11.6842 14.1753 10.2178H10.2623L10.2623 13.6168ZM14.1757 14.4884C15.3879 15.0186 16.4991 15.7789 17.4424 16.7402C19.0153 15.0109 19.9914 12.728 20.0449 10.2179H14.6101C14.5968 11.7446 14.4422 13.191 14.1756 14.4885L14.1757 14.4884ZM20.0447 9.78243C19.9926 7.341 19.0678 5.11448 17.57 3.40366C16.6236 4.33125 15.5185 5.06161 14.3185 5.56743C14.278 5.58457 14.2374 5.60133 14.1967 5.6179C14.45 6.88798 14.5968 8.29751 14.6098 9.78284H20.0446L20.0447 9.78243ZM13.7852 5.77486C12.6663 6.176 11.4779 6.38681 10.2683 6.38681H10.2618V9.78248H14.1747C14.1619 8.35302 14.0237 6.99765 13.785 5.77491L13.7852 5.77486ZM2.8985 17.0068C2.92287 17.0316 2.94705 17.0564 2.97161 17.081C4.45337 18.5644 6.39795 19.5844 8.57019 19.9056C7.87766 19.3758 7.26347 18.4808 6.76995 17.3199C6.46526 16.6029 6.20485 15.7822 5.99947 14.8828C4.85161 15.3837 3.79727 16.1007 2.89865 17.0069L2.8985 17.0068ZM9.82709 19.9997V14.0504C8.64518 14.0705 7.48856 14.2994 6.40632 14.716C6.60814 15.6173 6.86595 16.4371 7.16899 17.1502C7.87156 18.8031 8.80608 19.8668 9.82709 20V19.9997ZM11.519 19.9056C13.6909 19.5844 15.6355 18.5644 17.1176 17.0809C17.1262 17.0724 17.1347 17.0636 17.1433 17.0551C16.2566 16.1487 15.2158 15.4284 14.0813 14.9206C13.8773 15.8053 13.62 16.6132 13.3194 17.3201C12.826 18.481 12.2119 19.3758 11.5192 19.9058L11.519 19.9056ZM13.6751 14.7492C12.5975 14.3228 11.4433 14.0833 10.2619 14.0522V19.9995C11.2829 19.8663 12.2175 18.8026 12.92 17.1497C13.2193 16.4457 13.4744 15.6371 13.675 14.7492H13.6751Z" fill="#E6427A"/>
</svg>
