<svg width="24" height="24" viewBox="0 0 24 24" fill="none" xmlns="http://www.w3.org/2000/svg">
<path d="M24 12C24 5.37259 18.6274 0 12 0C5.37259 0 0 5.37259 0 12C0 17.9896 4.38823 22.954 10.125 23.8542V15.4688H7.07813V12H10.125V9.35626C10.125 6.34875 11.9165 4.6875 14.6576 4.6875C15.9705 4.6875 17.3438 4.92188 17.3438 4.92188V7.875H15.8306C14.3399 7.875 13.875 8.80001 13.875 9.749V12H17.2031L16.6711 15.4688H13.875V23.8542C19.6118 22.954 24 17.9896 24 12Z" fill="#E6427A"/>
<path d="M16.6716 15.4688L17.2036 12H13.8755V9.749C13.8755 8.8 14.3404 7.875 15.8311 7.875H17.3442V4.92188C17.3442 4.92188 15.971 4.6875 14.6581 4.6875C11.917 4.6875 10.1255 6.34875 10.1255 9.35625V12H7.07861V15.4688H10.1255V23.8542C11.3679 24.0486 12.6331 24.0486 13.8755 23.8542V15.4688H16.6716Z" fill="white"/>
</svg>
