<svg width="20" height="20" viewBox="0 0 20 20" fill="none" xmlns="http://www.w3.org/2000/svg">
<path fill-rule="evenodd" clip-rule="evenodd" d="M0.927459 9.00297C0.37384 9.00297 -0.0151602 8.55724 0.0731731 8.01363C0.0731731 8.01363 0.00853623 8.33287 0.0748007 8.00595C0.998789 3.43845 5.03575 0 9.87599 0C15.3987 0 19.876 4.47708 19.876 10C19.876 15.5227 15.3987 20 9.87599 20C5.04129 20 1.00813 16.569 0.0777771 12.0089C0.0101164 11.6774 0.0728943 11.985 0.0728943 11.985C-0.00871878 11.4393 0.374233 10.997 0.927358 10.997H10.3803C10.7489 10.997 10.8349 11.2081 10.5729 11.4685L8.75435 13.2794C7.81173 14.2197 9.22612 15.6296 10.1688 14.6896L14.2475 10.681C14.6418 10.2948 14.6411 9.67069 14.2426 9.28402L10.1687 5.30962C9.22613 4.36956 7.81172 5.77999 8.75434 6.7198L10.5729 8.53087C10.8351 8.79128 10.7472 9.00264 10.3803 9.00264L0.927459 9.00297Z" fill="#E6427A"/>
</svg>
