<svg width="17" height="22" viewBox="0 0 17 22" fill="none" xmlns="http://www.w3.org/2000/svg">
<path d="M15.1286 9.73573L15.1286 9.73492C15.1249 8.82328 14.9407 7.92141 14.5865 7.08143C14.2324 6.24163 13.7155 5.48034 13.0656 4.84153C12.1613 3.9452 11.0162 3.33309 9.77143 3.07842V2.07187C9.77143 1.73457 9.63749 1.41108 9.39907 1.17255C9.16063 0.93402 8.83723 0.8 8.5 0.8C8.16277 0.8 7.83937 0.93402 7.60093 1.17255C7.3625 1.41108 7.22857 1.73457 7.22857 2.07187V3.07407C5.75392 3.36844 4.42035 4.1539 3.44701 5.30486C2.4373 6.49882 1.87957 8.01002 1.87143 9.5739V9.57495V15.9055C1.58372 16.0103 1.33029 16.1945 1.14142 16.4383C0.920356 16.7236 0.800269 17.0742 0.8 17.4352V17.4353V18.5072C0.8 18.655 0.858679 18.7967 0.963154 18.9012C1.06763 19.0057 1.20935 19.0645 1.35714 19.0645H5.58534C5.77294 19.6575 6.13736 20.1805 6.63145 20.5622C7.16664 20.9757 7.82378 21.2 8.5 21.2C9.17622 21.2 9.83336 20.9757 10.3686 20.5622C10.8626 20.1805 11.2271 19.6575 11.4147 19.0645H15.6429C15.7906 19.0645 15.9324 19.0057 16.0368 18.9012C16.1413 18.7967 16.2 18.655 16.2 18.5072V17.4353V17.4352C16.1997 17.0742 16.0796 16.7236 15.8586 16.4383C15.6697 16.1945 15.4163 16.0103 15.1286 15.9055L15.1286 9.73573ZM12.2868 5.63581L12.2882 5.63721C12.8321 6.17274 13.2646 6.81068 13.5609 7.51425C13.8571 8.21774 14.0112 8.97294 14.0143 9.7363C14.0143 9.73637 14.0143 9.73645 14.0143 9.73653L14.0143 16.3634C14.0143 16.5112 14.073 16.653 14.1774 16.7575C14.2819 16.862 14.4236 16.9207 14.5714 16.9207C14.7078 16.9207 14.8386 16.9749 14.9351 17.0714C15.0315 17.1679 15.0857 17.2988 15.0857 17.4353V17.9499H1.91429V17.4353C1.91429 17.2988 1.96849 17.1679 2.06495 17.0714C2.1614 16.9749 2.2922 16.9207 2.42857 16.9207C2.57636 16.9207 2.71808 16.862 2.82256 16.7575C2.92703 16.653 2.98571 16.5112 2.98571 16.3634V9.5754C2.99259 8.13265 3.56126 6.7494 4.57099 5.7193C5.58068 4.68924 6.95188 4.09341 8.39349 4.05827C9.11507 4.04545 9.83181 4.17853 10.5007 4.44953C11.1699 4.7206 11.7774 5.1241 12.2868 5.63581ZM12.0714 8.34579H12.2714V8.14579C12.2714 7.03543 11.8162 6.26338 11.1984 5.77344C10.5877 5.2892 9.82792 5.08747 9.21429 5.08747H9.01429V5.28747V6.00205V6.20997L9.22205 6.2019C9.47886 6.19192 9.73495 6.23517 9.97425 6.32893C10.2136 6.42269 10.4309 6.56494 10.6126 6.74675C10.7944 6.92856 10.9366 7.14601 11.0303 7.38543C11.124 7.62486 11.1673 7.88108 11.1573 8.13803L11.1492 8.34579H11.3571H12.0714ZM8.34286 2.07187C8.34286 2.03013 8.35943 1.99011 8.38891 1.96062C8.41839 1.93113 8.45835 1.91458 8.5 1.91458C8.54165 1.91458 8.58161 1.93113 8.61109 1.96062C8.64057 1.99011 8.65714 2.03013 8.65714 2.07187V2.94374H8.34286V2.07187ZM8.50001 20.0936C8.09871 20.0931 7.70741 19.9683 7.37986 19.7363C7.13195 19.5607 6.92977 19.3303 6.7881 19.0645H10.2119C10.0702 19.3303 9.86805 19.5607 9.62014 19.7363C9.29259 19.9683 8.9013 20.0931 8.50001 20.0936Z" fill="black" stroke="black" stroke-width="0.4"/>
</svg>
