<svg width="19" height="20" viewBox="0 0 19 20" fill="none" xmlns="http://www.w3.org/2000/svg">
<path fill-rule="evenodd" clip-rule="evenodd" d="M8.83691 7.96948V19.9999L1.41602 17.8722V11.7427L7.21745 12.0749L8.83691 7.96948Z" fill="#E6427A"/>
<path fill-rule="evenodd" clip-rule="evenodd" d="M16.3848 7.6955L9.42139 7.27051L11.1473 11.69L18.1107 11.265L16.3848 7.6955Z" fill="#E6427A"/>
<path fill-rule="evenodd" clip-rule="evenodd" d="M9.3199 7.96948L10.9393 12.0748L16.7403 11.7426V17.8722L9.31982 19.9998L9.3199 7.96948Z" fill="#E6427A"/>
<path fill-rule="evenodd" clip-rule="evenodd" d="M1.77052 7.6955L0.0449219 11.265L7.00869 11.69L8.73399 7.27051L1.77052 7.6955Z" fill="#E6427A"/>
<path d="M12.9291 2.06258C12.9291 3.1987 12.0041 4.12515 10.867 4.12485C9.72966 4.12529 8.80469 3.19885 8.80469 2.06258C8.80365 0.924975 9.72921 1.77884e-08 10.867 1.77884e-08C12.0041 -0.000148157 12.9291 0.92543 12.9291 2.06258Z" fill="#E6427A"/>
<path d="M7.713 2.00053C7.713 2.6158 7.21229 3.11726 6.59657 3.11711C5.98073 3.11726 5.47998 2.6158 5.47998 2.00053C5.47954 1.38469 5.98027 0.883789 6.59657 0.883789C7.21214 0.883789 7.713 1.38495 7.713 2.00053Z" fill="#E6427A"/>
<path d="M13.45 5.8953C13.45 6.51057 12.9493 7.01204 12.3334 7.01189C11.7175 7.01204 11.2168 6.51057 11.2168 5.8953C11.2164 5.27946 11.7171 4.77856 12.3334 4.77856C12.9492 4.77827 13.45 5.27957 13.45 5.8953Z" fill="#E6427A"/>
<path d="M9.89772 5.11261C9.89772 5.72788 9.39743 6.22919 8.78114 6.22919C8.16545 6.22919 7.66455 5.72788 7.66455 5.11261C7.66396 4.49677 8.16511 3.99561 8.78114 3.99561C9.39743 3.99561 9.89772 4.49677 9.89772 5.11261Z" fill="#E6427A"/>
<path d="M6.7089 5.68493C6.7089 6.47371 6.06696 7.11698 5.27715 7.11668C4.48749 7.11682 3.8457 6.47356 3.8457 5.68493C3.84511 4.89511 4.48749 4.25317 5.27715 4.25317C6.06681 4.25303 6.7089 4.89542 6.7089 5.68493Z" fill="#E6427A"/>
</svg>
