<svg width="24" height="24" viewBox="0 0 24 24" fill="none" xmlns="http://www.w3.org/2000/svg">
<g clip-path="url(#clip0_1563_858)">
<path d="M12 24C18.6274 24 24 18.6274 24 12C24 5.37259 18.6274 0 12 0C5.37258 0 0 5.37259 0 12C0 18.6274 5.37258 24 12 24Z" fill="#E6427A"/>
<path d="M12.4705 6.42578C9.1153 6.42578 7.4209 8.79603 7.4209 10.7728C7.4209 11.9724 7.8817 13.0327 8.8657 13.431C9.0289 13.4982 9.1729 13.4358 9.2209 13.2582C9.2545 13.1383 9.4033 12.8264 9.4369 12.7017C9.4849 12.5289 9.4657 12.4666 9.3361 12.313C9.0529 11.982 8.8753 11.6365 8.8753 11.0319C8.8753 9.01675 10.1329 7.58212 12.2737 7.58212C14.1697 7.58212 15.2113 8.75765 15.2113 10.2834C15.2113 12.289 14.3089 13.9204 12.9697 13.9204C12.2305 13.9204 11.6785 13.383 11.8561 12.6441C12.0673 11.7612 12.4801 10.8112 12.4801 10.1731C12.4801 9.60211 12.1729 9.19428 11.5297 9.19428C10.7761 9.19428 10.1665 9.89959 10.1665 10.9312C10.1665 11.5885 10.3825 11.9148 10.3825 11.9148C10.3825 11.9148 9.6193 15.259 9.4801 15.8252C9.2113 16.9528 9.4417 18.3298 9.4609 18.469C9.4705 18.5505 9.5809 18.5697 9.6289 18.5074C9.6961 18.421 10.5985 17.3222 10.9057 16.2283C10.9921 15.9212 11.4049 14.3186 11.4049 14.3186C11.6497 14.7792 12.3697 15.0767 13.1281 15.0767C15.3985 15.0767 16.9393 13.1431 16.9393 10.4178C16.9441 8.34981 15.1681 6.42578 12.4705 6.42578Z" fill="white"/>
</g>
<defs>
<clipPath id="clip0_1563_858">
<rect width="24" height="24" fill="white"/>
</clipPath>
</defs>
</svg>
