<svg width="32" height="32" viewBox="0 0 32 32" fill="none" xmlns="http://www.w3.org/2000/svg">
<circle cx="16" cy="16" r="16" fill="#E6427A"/>
<path d="M19.75 6H12.25C10.5924 6 9.00269 6.65848 7.83058 7.83058C6.65848 9.00269 6 10.5924 6 12.25L6 19.75C6 21.4076 6.65848 22.9973 7.83058 24.1694C9.00269 25.3415 10.5924 26 12.25 26H19.75C21.4076 26 22.9973 25.3415 24.1694 24.1694C25.3415 22.9973 26 21.4076 26 19.75V12.25C26 10.5924 25.3415 9.00269 24.1694 7.83058C22.9973 6.65848 21.4076 6 19.75 6V6ZM24.125 19.75C24.125 22.1625 22.1625 24.125 19.75 24.125H12.25C9.8375 24.125 7.875 22.1625 7.875 19.75V12.25C7.875 9.8375 9.8375 7.875 12.25 7.875H19.75C22.1625 7.875 24.125 9.8375 24.125 12.25V19.75Z" fill="white"/>
<path d="M16.0004 11C14.6743 11 13.4025 11.5268 12.4648 12.4645C11.5272 13.4021 11.0004 14.6739 11.0004 16C11.0004 17.3261 11.5272 18.5979 12.4648 19.5355C13.4025 20.4732 14.6743 21 16.0004 21C17.3265 21 18.5982 20.4732 19.5359 19.5355C20.4736 18.5979 21.0004 17.3261 21.0004 16C21.0004 14.6739 20.4736 13.4021 19.5359 12.4645C18.5982 11.5268 17.3265 11 16.0004 11ZM16.0004 19.125C15.1719 19.124 14.3776 18.7945 13.7918 18.2086C13.2059 17.6228 12.8764 16.8285 12.8754 16C12.8754 14.2763 14.2779 12.875 16.0004 12.875C17.7229 12.875 19.1254 14.2763 19.1254 16C19.1254 17.7225 17.7229 19.125 16.0004 19.125Z" fill="white"/>
<path d="M21.3745 11.2912C21.7425 11.2912 22.0408 10.993 22.0408 10.625C22.0408 10.257 21.7425 9.95874 21.3745 9.95874C21.0065 9.95874 20.7083 10.257 20.7083 10.625C20.7083 10.993 21.0065 11.2912 21.3745 11.2912Z" fill="white"/>
</svg>
