<svg width="24" height="24" viewBox="0 0 24 24" fill="none" xmlns="http://www.w3.org/2000/svg">
<circle cx="12" cy="12" r="12" fill="#E6427A"/>
<path d="M14.4386 11.8472C13.0706 11.1147 11.7608 10.4414 10.4219 9.73828V13.9442C11.8308 13.1768 13.3159 12.474 14.4444 11.8472H14.4386Z" fill="#E6427A"/>
<path d="M14.4386 11.8472C13.0706 11.1147 10.4219 9.73828 10.4219 9.73828L13.9534 12.1165C13.9537 12.1165 13.3101 12.474 14.4386 11.8472Z" fill="#E6427A"/>
<path d="M10.6791 17.2359C7.8377 17.1834 6.86722 17.1363 6.2707 17.0131C5.86712 16.9313 5.5164 16.7497 5.25925 16.4862C5.0605 16.2868 4.90245 15.9825 4.77982 15.5604C4.67463 15.2087 4.63367 14.9161 4.57526 14.2014C4.48585 12.5884 4.46454 11.2696 4.57526 9.79608C4.66661 8.98235 4.7109 8.01636 5.31766 7.45279C5.60415 7.18904 5.93743 7.0193 6.31167 6.94913C6.89629 6.83792 9.38699 6.75 11.9654 6.75C14.5381 6.75 17.0343 6.83792 17.6195 6.94913C18.087 7.03705 18.5255 7.30053 18.7829 7.64028C19.3365 8.5128 19.3462 9.59778 19.4024 10.4465C19.4257 10.8508 19.4257 13.147 19.4024 13.5513C19.3149 14.8926 19.2446 15.3671 19.0459 15.8591C18.923 16.1697 18.8181 16.3337 18.6365 16.5153C18.3517 16.7949 17.9886 16.9808 17.5957 17.0484C15.1368 17.2336 13.0489 17.2739 10.6791 17.2359ZM14.4445 11.8465C13.0765 11.114 11.7667 10.4348 10.4278 9.73173V13.9379C11.8367 13.1705 13.3221 12.4675 14.4503 11.8407L14.4445 11.8465Z" fill="white"/>
<g clip-path="url(#clip0_7476_230605)">
<path d="M19.475 17.1699H19.445C19.4383 17.1699 19.432 17.1726 19.4273 17.1773C19.4226 17.182 19.4199 17.1884 19.4199 17.1951V17.2252C19.4199 17.2319 19.4226 17.2383 19.4273 17.243C19.432 17.2477 19.4383 17.2504 19.445 17.2504H19.475C19.4817 17.2504 19.488 17.2477 19.4927 17.243C19.4974 17.2383 19.5001 17.2319 19.5001 17.2252V17.1951C19.5001 17.1884 19.4974 17.182 19.4927 17.1773C19.488 17.1726 19.4817 17.1699 19.475 17.1699V17.1699ZM19.4926 17.2252C19.4926 17.2349 19.4847 17.2428 19.475 17.2428H19.445C19.4353 17.2428 19.4274 17.2349 19.4274 17.2252V17.1951C19.4274 17.1854 19.4353 17.1775 19.445 17.1775H19.475C19.4847 17.1775 19.4926 17.1854 19.4926 17.1951V17.2252Z" fill="url(#paint0_linear_7476_230605)"/>
<path d="M19.4595 17.1895C19.4542 17.1895 19.4491 17.1916 19.4453 17.1953C19.4416 17.1991 19.4395 17.2042 19.4395 17.2096C19.4395 17.2149 19.4416 17.22 19.4453 17.2238C19.4491 17.2276 19.4542 17.2297 19.4595 17.2297C19.4648 17.2297 19.4699 17.2276 19.4737 17.2238C19.4774 17.22 19.4795 17.2149 19.4795 17.2096C19.4795 17.2042 19.4774 17.1991 19.4737 17.1953C19.4699 17.1916 19.4648 17.1895 19.4595 17.1895ZM19.4595 17.2221C19.4562 17.2221 19.453 17.2208 19.4506 17.2185C19.4483 17.2161 19.447 17.2129 19.447 17.2096C19.447 17.2026 19.4526 17.197 19.4595 17.197C19.4664 17.197 19.472 17.2026 19.472 17.2096C19.472 17.2165 19.4664 17.2221 19.4595 17.2221Z" fill="url(#paint1_linear_7476_230605)"/>
<path d="M19.4812 17.191C19.4827 17.191 19.4839 17.1898 19.4839 17.1883C19.4839 17.1868 19.4827 17.1855 19.4812 17.1855C19.4797 17.1855 19.4785 17.1868 19.4785 17.1883C19.4785 17.1898 19.4797 17.191 19.4812 17.191Z" fill="url(#paint2_linear_7476_230605)"/>
</g>
<defs>
<linearGradient id="paint0_linear_7476_230605" x1="19.4273" y1="17.243" x2="19.493" y2="17.1775" gradientUnits="userSpaceOnUse">
<stop stop-color="#FFC107"/>
<stop offset="0.507" stop-color="#F44336"/>
<stop offset="0.99" stop-color="#9C27B0"/>
</linearGradient>
<linearGradient id="paint1_linear_7476_230605" x1="19.4453" y1="17.2238" x2="19.4738" y2="17.1955" gradientUnits="userSpaceOnUse">
<stop stop-color="#FFC107"/>
<stop offset="0.507" stop-color="#F44336"/>
<stop offset="0.99" stop-color="#9C27B0"/>
</linearGradient>
<linearGradient id="paint2_linear_7476_230605" x1="19.4793" y1="17.1902" x2="19.4832" y2="17.1864" gradientUnits="userSpaceOnUse">
<stop stop-color="#FFC107"/>
<stop offset="0.507" stop-color="#F44336"/>
<stop offset="0.99" stop-color="#9C27B0"/>
</linearGradient>
<clipPath id="clip0_7476_230605">
<rect width="0.0801573" height="0.0804653" fill="white" transform="translate(19.4199 17.1699)"/>
</clipPath>
</defs>
</svg>
