<svg width="21" height="20" viewBox="0 0 21 20" fill="none" xmlns="http://www.w3.org/2000/svg">
<path d="M18.0731 10.2537C18.0731 8.84528 16.9464 7.78894 15.6083 7.78894C14.1999 7.78894 13.1436 8.9157 13.1436 10.2537C13.1436 11.6622 14.2703 12.7185 15.6083 12.7185C16.9464 12.7889 18.0731 11.6622 18.0731 10.2537Z" fill="#E6427A"/>
<path d="M6.6649 10.3239C8.70715 10.3239 10.3269 8.70422 10.3269 6.66197C10.3269 4.61972 8.70715 3 6.6649 3C4.62265 3 3.00293 4.61972 3.00293 6.66197C3.00293 8.70422 4.62265 10.3239 6.6649 10.3239Z" fill="#E6427A"/>
<path d="M17.4391 13.493H14.1292C14.3405 14.0564 14.4813 14.6198 14.4813 15.2536V16.2395C14.4813 16.8733 14.2701 17.4367 13.918 17.9297H18.918C19.5518 17.9297 20.0447 17.4367 20.0447 16.8029V16.0987C20.0447 14.6902 18.8475 13.493 17.4391 13.493Z" fill="#E6427A"/>
<path d="M9.41111 11.3802H3.91816C1.80548 11.3802 0.0449219 13.1408 0.0449219 15.2535V16.2394C0.0449219 17.1549 0.819569 17.9295 1.73506 17.9295H11.5942C12.5097 17.9295 13.2844 17.1549 13.2844 16.2394V15.2535C13.2139 13.1408 11.5238 11.3802 9.41111 11.3802Z" fill="#E6427A"/>
</svg>
