<svg width="24" height="24" viewBox="0 0 24 24" fill="none" xmlns="http://www.w3.org/2000/svg">
<circle cx="12" cy="12" r="12" fill="#E6427A"/>
<path d="M17.25 10.716V8.4904C16.2802 8.4904 15.5401 8.2122 15.0625 7.67148C14.5723 7.05437 14.2977 6.27288 14.2859 5.46159V5.30094L12.3281 5.25C12.3281 5.25 12.3281 5.34012 12.3281 5.46159V14.2894C12.261 14.6838 12.0828 15.0466 11.8178 15.3287C11.5527 15.6108 11.2135 15.7988 10.8459 15.8672C10.4782 15.9355 10.1 15.881 9.7621 15.7111C9.42422 15.5411 9.14301 15.2637 8.95643 14.9165C8.76985 14.5693 8.68688 14.169 8.71873 13.7695C8.75058 13.37 8.8957 12.9906 9.13452 12.6826C9.37334 12.3746 9.69434 12.1527 10.0542 12.047C10.4141 11.9412 10.7955 11.9567 11.1469 12.0913V9.93623C10.942 9.90015 10.7347 9.8818 10.5271 9.88138C9.78005 9.88138 9.04979 10.1195 8.42865 10.5655C7.80751 11.0115 7.32339 11.6455 7.03751 12.3873C6.75164 13.129 6.67684 13.9452 6.82258 14.7326C6.96832 15.52 7.32805 16.2433 7.85628 16.8111C8.38452 17.3788 9.05753 17.7654 9.79021 17.922C10.5229 18.0786 11.2823 17.9982 11.9725 17.691C12.6627 17.3838 13.2526 16.8635 13.6676 16.1959C14.0826 15.5284 14.3042 14.7435 14.3042 13.9407C14.3038 13.7743 14.294 13.6082 14.275 13.4431V9.85787C15.1652 10.4554 16.201 10.7541 17.25 10.716Z" fill="white"/>
</svg>
