<svg width="24" height="24" viewBox="0 0 24 24" fill="none" xmlns="http://www.w3.org/2000/svg">
<path d="M12 24C18.6274 24 24 18.6274 24 12C24 5.37259 18.6274 0 12 0C5.37259 0 0 5.37259 0 12C0 18.6274 5.37259 24 12 24Z" fill="#E6427A"/>
<path d="M19.3514 8.62437C18.8372 8.8524 18.284 9.00663 17.7039 9.07551C18.2962 8.72063 18.7508 8.15911 18.9653 7.48893C18.4111 7.81771 17.7969 8.05622 17.1439 8.18478C16.6206 7.62755 15.8752 7.2793 15.0497 7.2793C13.4659 7.2793 12.1813 8.56384 12.1813 10.1476C12.1813 10.3725 12.2068 10.5913 12.256 10.8013C9.87216 10.6818 7.7585 9.53991 6.34369 7.80402C6.09684 8.22757 5.95523 8.72063 5.95523 9.24621C5.95523 10.2411 6.46198 11.1194 7.23121 11.6337C6.76124 11.6189 6.31866 11.4899 5.93212 11.2745C5.93191 11.2867 5.93191 11.2989 5.93191 11.3109C5.93191 12.7007 6.92104 13.8599 8.23296 14.1232C7.99252 14.1891 7.73861 14.2239 7.47742 14.2239C7.29217 14.2239 7.1127 14.2062 6.93772 14.1728C7.30265 15.3121 8.36173 16.1414 9.61718 16.1648C8.63532 16.9342 7.3987 17.3926 6.05448 17.3926C5.82346 17.3926 5.59457 17.3791 5.37061 17.3524C6.63932 18.1665 8.14739 18.6412 9.76713 18.6412C15.043 18.6412 17.9283 14.2706 17.9283 10.4798C17.9283 10.3556 17.9255 10.2317 17.9199 10.1089C18.4808 9.70463 18.967 9.19958 19.3514 8.62437Z" fill="#F1F2F2"/>
</svg>
