<svg width="21" height="20" viewBox="0 0 21 20" fill="none" xmlns="http://www.w3.org/2000/svg">
<path d="M7.56403 9.61951C9.89784 9.61951 11.7488 7.76856 11.7488 5.43476C11.7488 3.10095 9.89784 1.25 7.56403 1.25C5.23022 1.25 3.37927 3.10095 3.37927 5.43476C3.37927 7.76856 5.23022 9.61951 7.56403 9.61951Z" fill="#E6427A"/>
<path d="M10.7033 10.8281H4.42618C2.0119 10.8281 0 12.84 0 15.2543V16.381C0 17.4272 0.885237 18.3124 1.93143 18.3124H13.1981C14.2443 18.3124 15.1295 17.4272 15.1295 16.381V15.2543C15.049 12.84 13.1176 10.8281 10.7033 10.8281Z" fill="#E6427A"/>
<path d="M13.6667 12.1055C16.4705 12.1055 18.1935 14.2689 18.6858 14.9902C18.7714 15.1224 18.7714 15.3147 18.6858 15.4469C18.1828 16.1681 16.4705 18.3316 13.6667 18.3316C10.8629 18.3316 9.13998 16.1681 8.64766 15.4469C8.55137 15.3147 8.55137 15.1224 8.64766 14.9902C9.15064 14.269 10.8629 12.1055 13.6667 12.1055Z" fill="#E6427A" stroke="white" stroke-width="0.6"/>
<path d="M13.6665 13.7266C13.5488 13.7266 13.4418 13.7386 13.3348 13.7746C13.4953 13.9188 13.5917 14.1231 13.5917 14.3756C13.5917 14.7963 13.292 15.1329 12.9175 15.1329C12.7034 15.1329 12.5108 15.0247 12.3824 14.8444C12.3503 14.9646 12.3396 15.0968 12.3396 15.2169C12.3396 16.0463 12.9389 16.7074 13.6666 16.7074C14.3943 16.7074 14.9936 16.0343 14.9936 15.2169C14.9936 14.3997 14.3942 13.7266 13.6665 13.7266Z" fill="#E6427A" stroke="white" stroke-width="0.6"/>
</svg>
