<svg width="25" height="25" viewBox="0 0 25 25" fill="none" xmlns="http://www.w3.org/2000/svg">
<path fill-rule="evenodd" clip-rule="evenodd" d="M15.5059 18.6357L21.418 24.5456C22.0033 25.1308 22.9539 25.1306 23.5393 24.5453C24.1244 23.9597 24.1243 23.0092 23.5389 22.4238L17.6308 16.5178C18.8193 14.9013 19.5219 12.9048 19.5219 10.7453C19.5219 5.35789 15.1484 0.984375 9.76094 0.984375C4.37351 0.984375 0 5.35789 0 10.7453C0 16.1327 4.37351 20.5062 9.76094 20.5062C11.9078 20.5062 13.8936 19.8119 15.5059 18.6353L15.5059 18.6357ZM9.76101 3.98484C13.4925 3.98484 16.522 7.01434 16.522 10.7458C16.522 14.4773 13.4923 17.5068 9.76101 17.5068C6.02957 17.5068 3.00003 14.4771 3.00003 10.7458C3.00003 7.01451 6.02953 3.98484 9.76101 3.98484Z" fill="#E6427A"/>
</svg>
