<svg width="14" height="9" viewBox="0 0 14 9" fill="none" xmlns="http://www.w3.org/2000/svg">
<path d="M7.04479 8.99998C6.85952 9.00112 6.67585 8.9633 6.50433 8.88871C6.3328 8.81411 6.1768 8.7042 6.04525 8.56527L0.414024 2.56938C0.148929 2.28712 0 1.90429 0 1.50511C0 1.10593 0.148929 0.723097 0.414024 0.440835C0.679119 0.158573 1.03867 0 1.41357 0C1.78847 0 2.14801 0.158573 2.41311 0.440835L7.04479 5.38745L11.6765 0.455825C11.9458 0.210254 12.2922 0.0819317 12.6465 0.0965035C13.0008 0.111075 13.3369 0.267467 13.5877 0.534427C13.8384 0.801386 13.9853 1.15925 13.9989 1.5365C14.0126 1.91376 13.8921 2.28262 13.6615 2.56938L8.03026 8.56527C7.76804 8.8422 7.41412 8.99832 7.04479 8.99998Z" fill="black"/>
</svg>
