<svg width="120" height="90" viewBox="0 0 120 90" fill="none" xmlns="http://www.w3.org/2000/svg">
<path d="M107.164 82.5226H116.44V82.5869H107.164V82.5226Z" fill="#EEEEEE"/>
<path d="M80.7695 83.2199H83.2041V83.2842H80.7695V83.2199Z" fill="#EEEEEE"/>
<path d="M101.508 80.1973H106.883V80.133H101.508V80.1973Z" fill="#EEEEEE"/>
<path d="M5.13281 80.5675H17.2294V80.6318H5.13281V80.5675Z" fill="#9C9C9C"/>
<path d="M19.7227 80.5675H21.4963V80.6318H19.7227V80.5675Z" fill="#EEEEEE"/>
<path d="M27.2617 81.7158H53.4963V81.6515H27.2617V81.7158Z" fill="#EEEEEE"/>
<path d="M6.51172 40.2188H49.4319V7.72419H6.51172V40.2188Z" fill="#F4F7F7"/>
<path d="M14.9723 16.0234H9.40234V10.9074H14.9723V16.0234Z" fill="#F5D8E3"/>
<path d="M41.4805 29.1875H47.0502V24.0715H41.4805V29.1875Z" fill="#F8F8F9"/>
<path d="M16.2969 18.7217H21.8667V13.6057H16.2969V18.7217Z" fill="#F5D8E3"/>
<path d="M35.1992 30.7979H40.7693V25.6818H35.1992V30.7979Z" fill="#F8F8F9"/>
<path d="M20.2227 35.6582H28.2419V25.8742H20.2227V35.6582Z" fill="#F8F8F9"/>
<path d="M36.2461 21.0557H44.2653V11.2717H36.2461V21.0557Z" fill="#F8F8F9"/>
<path d="M87.7266 55.5752H116.215V0.714504H87.7266V55.5752Z" fill="#EEEEEE"/>
<path d="M116.873 2.58203H87.0703V0.000212193H116.873V2.58203Z" fill="#D7D7D7"/>
<path d="M116.873 4.93066H87.0703V3.63962H116.873V4.93066Z" fill="#D7D7D7"/>
<path d="M116.873 6.8457H87.0703V5.55492H116.873V6.8457Z" fill="#D7D7D7"/>
<path d="M116.873 8.7627H87.0703V7.47165H116.873V8.7627Z" fill="#D7D7D7"/>
<path d="M116.873 10.6787H87.0703V9.38767H116.873V10.6787Z" fill="#D7D7D7"/>
<path d="M116.873 12.5947H87.0703V11.3037H116.873V12.5947Z" fill="#D7D7D7"/>
<path d="M116.873 14.5107H87.0703V13.22H116.873V14.5107Z" fill="#D7D7D7"/>
<path d="M87.0703 16.4258H116.873V15.1348H87.0703V16.4258Z" fill="#D7D7D7"/>
<path d="M87.0703 18.3418H116.873V17.0509H87.0703V18.3418Z" fill="#D7D7D7"/>
<path d="M87.0703 20.2578H116.873V18.9668H87.0703V20.2578Z" fill="#D7D7D7"/>
<path d="M87.0703 22.1738H116.873V20.8831H87.0703V22.1738Z" fill="#D7D7D7"/>
<path d="M87.0703 24.0898H116.873V22.799H87.0703V24.0898Z" fill="#D7D7D7"/>
<path d="M87.0703 26.0059H116.873V24.7148H87.0703V26.0059Z" fill="#D7D7D7"/>
<path d="M87.0703 27.9229H116.873V26.6318H87.0703V27.9229Z" fill="#D7D7D7"/>
<path d="M87.0703 29.8379H116.873V28.5471H87.0703V29.8379Z" fill="#D7D7D7"/>
<path d="M87.0703 31.7529H116.873V30.4622H87.0703V31.7529Z" fill="#D7D7D7"/>
<path d="M87.0703 33.6699H116.873V32.3788H87.0703V33.6699Z" fill="#D7D7D7"/>
<path d="M87.0703 35.585H116.873V34.2939H87.0703V35.585Z" fill="#D7D7D7"/>
<path d="M87.0703 37.501H116.873V36.2102H87.0703V37.501Z" fill="#D7D7D7"/>
<path d="M87.0703 39.418H116.873V38.1272H87.0703V39.418Z" fill="#D7D7D7"/>
<path d="M87.0703 41.333H116.873V40.042H87.0703V41.333Z" fill="#D7D7D7"/>
<path d="M87.0703 43.25H116.873V41.9589H87.0703V43.25Z" fill="#D7D7D7"/>
<path d="M87.0703 45.166H116.873V43.8752H87.0703V45.166Z" fill="#D7D7D7"/>
<path d="M87.0703 47.0791H116.873V45.7883H87.0703V47.0791Z" fill="#D7D7D7"/>
<path d="M87.0703 48.9971H116.873V47.7061H87.0703V48.9971Z" fill="#D7D7D7"/>
<path d="M87.0703 50.9121H116.873V49.621H87.0703V50.9121Z" fill="#D7D7D7"/>
<path d="M87.0703 52.8281H116.873V51.5374H87.0703V52.8281Z" fill="#D7D7D7"/>
<path d="M87.0703 54.7441H116.873V53.4534H87.0703V54.7441Z" fill="#D7D7D7"/>
<rect x="77.6133" y="3.60254" width="7.41874" height="16.1993" fill="white"/>
<rect x="19.8945" y="32.0459" width="7.41874" height="16.1993" fill="white"/>
<path d="M10.821 70.1221C10.7785 69.8584 9.79827 63.6471 11.7618 61.5025C12.1965 61.0277 12.7449 60.7795 13.3922 60.7651C17.3557 60.6797 17.8978 63.6036 17.9029 63.6334L17.4355 63.6998C17.4174 63.5951 16.9473 61.1203 13.4037 61.1993C12.8909 61.2108 12.4721 61.4014 12.1238 61.7819C10.2959 63.778 11.2787 69.9953 11.2889 70.058L10.821 70.1221Z" fill="#EEEEEE"/>
<path d="M10.5822 69.8369L10.1096 69.8233C10.1115 69.7664 10.2667 64.1001 7.22699 62.9295C4.24799 61.783 2.90808 64.14 2.85241 64.2409L2.42969 64.0459C2.44523 64.0176 4.01781 61.2225 7.40978 62.529C10.7489 63.8146 10.5905 69.5917 10.5822 69.8369Z" fill="#9C9C9C"/>
<path d="M10.5941 70.2822C10.594 70.1917 10.5656 61.2301 8.66333 58.6092C6.83671 56.0925 3.89053 57.2773 3.7659 57.3292L3.57031 56.9336C3.60456 56.9194 7.00474 55.5407 9.0567 58.3679C11.0381 61.0979 11.0668 69.9077 11.067 70.2817L10.5941 70.2822Z" fill="#9C9C9C"/>
<path d="M13.9602 60.979C13.9602 60.979 12.2295 61.5647 12.744 62.9483C13.2585 64.3317 18.731 66.6084 18.731 66.6084C18.731 66.6084 21.0227 64.679 18.9181 61.541C16.8133 58.4031 14.0069 59.9886 13.9602 60.979Z" fill="#E3E3E2"/>
<path d="M8.58188 58.1382C8.58188 58.1382 9.81052 58.017 9.71152 57.3297C9.61263 56.6421 4.93533 54.8732 2.17578 57.7338C2.17578 57.7338 3.94267 60.5217 6.49699 60.5582C9.05131 60.5945 8.58188 58.1382 8.58188 58.1382Z" fill="#D7D7D7"/>
<path d="M7.31611 62.7297C7.31611 62.7297 8.16404 62.101 7.24892 61.7942C6.33381 61.487 1.84359 61.5742 1.79688 65.6596C1.79688 65.6596 7.02653 66.4578 7.67383 64.9017C8.32112 63.3455 7.31611 62.7297 7.31611 62.7297Z" fill="#D7D7D7"/>
<path d="M14.8893 78.4434H6.77384L5.89844 70.2827H15.7648L14.8893 78.4434Z" fill="#D7D7D7"/>
<path d="M16.1977 71.1826H5.46484V69.3817H16.1977V71.1826Z" fill="#D7D7D7"/>
<path d="M112.539 75.7715C112.539 75.7715 110.957 72.6007 112.764 69.4754C114.572 66.3497 115.096 65.6133 113.943 64.973C112.791 64.3328 112.263 67.4736 112.263 67.4736C112.263 67.4736 111.291 65.3128 112.093 63.0515C112.895 60.7902 113.398 57.1075 112.303 56.7124C111.208 56.3175 112.094 61.3067 111.143 63.0075C111.143 63.0075 110.345 61.1143 110.214 59.298C110.083 57.482 110.288 54.582 109.423 53.8378C108.558 53.0939 108.004 53.6086 108.854 57.6165C109.704 61.6249 109.697 64.8828 109.697 64.8828C109.697 64.8828 107.82 59.6252 106.56 59.4717C105.3 59.3186 105.301 61.0212 106.38 62.498C107.459 63.9747 109.539 66.6203 109.88 67.9816C109.88 67.9816 107.819 64.0254 105.965 65.2377C104.111 66.4503 107.579 68.8402 109.124 69.7041C110.669 70.5673 111.743 75.9805 111.743 75.9805L112.539 75.7715Z" fill="#D7D7D7"/>
<path d="M111.29 77.0722C111.29 77.0722 112.831 73.8802 110.983 70.7796C109.134 67.6794 108.601 66.9504 109.745 66.2943C110.888 65.6381 111.458 68.7714 111.458 68.7714C111.458 68.7714 112.401 66.5975 111.57 64.3473C110.738 62.0975 110.187 58.4217 111.277 58.0117C112.367 57.6017 111.546 62.6028 112.519 64.2904C112.519 64.2904 113.292 62.3864 113.4 60.5686C113.508 58.7507 113.264 55.8538 114.12 55.0978C114.975 54.3423 115.536 54.8493 114.738 58.8688C113.941 62.888 113.989 66.1458 113.989 66.1458C113.989 66.1458 115.798 60.8628 117.056 60.6923C118.314 60.5215 118.334 62.2244 117.275 63.7155C116.216 65.2069 114.171 67.8811 113.847 69.2468C113.847 69.2468 115.856 65.2625 117.726 66.4494C119.595 67.6367 116.159 70.0737 114.626 70.9587C113.091 71.843 112.089 77.2705 112.089 77.2705L111.29 77.0722Z" fill="#868686"/>
<path d="M109.469 79.9844C109.469 79.9844 108.373 78.1305 109.688 76.3296C111.003 74.529 111.383 74.1056 110.569 73.7244C109.755 73.3433 109.35 75.1632 109.35 75.1632C109.35 75.1632 108.679 73.9006 109.271 72.5936C109.862 71.2869 110.254 69.152 109.479 68.9138C108.703 68.6757 109.287 71.5804 108.595 72.5606C108.595 72.5606 108.045 71.4547 107.968 70.3989C107.892 69.3431 108.065 67.6605 107.456 67.2214C106.848 66.7826 106.449 67.0771 107.016 69.4116C107.584 71.7461 107.549 73.6382 107.549 73.6382C107.549 73.6382 106.262 70.5698 105.368 70.4707C104.473 70.3715 104.458 71.3606 105.212 72.2267C105.965 73.0929 107.42 74.6461 107.65 75.4393C107.65 75.4393 106.221 73.1252 104.891 73.8145C103.561 74.5042 106.005 75.9196 107.097 76.4336C108.188 76.9472 108.901 80.0996 108.901 80.0996L109.469 79.9844Z" fill="#868686"/>
<path d="M117.952 76.0514H104.969L107.363 85.0874L113.985 85.501L117.952 76.0514Z" fill="#D7D7D7"/>
<path d="M84.2338 70.0176L83.4023 69.9077C83.5519 68.9458 84.4268 67.1266 86.6675 67.1266C89.3211 67.1266 90.6421 68.5339 90.7743 69.9289L89.9375 69.9955C89.8383 68.9517 88.789 67.8983 86.6675 67.8983C84.6004 67.8983 84.2478 69.9312 84.2338 70.0176Z" fill="#707070"/>
<path d="M94.0621 78.3047H80.4166C79.6688 78.3047 79.0625 77.748 79.0625 77.0612V70.5803C79.0625 69.8935 79.6688 69.3368 80.4166 69.3368H94.0621C94.8099 69.3368 95.4162 69.8935 95.4162 70.5803V77.0612C95.4162 77.748 94.8099 78.3047 94.0621 78.3047Z" fill="#D7D7D7"/>
<path d="M90.7741 78.4434C79.2226 78.4434 78.649 71.1616 78.6445 71.0879L79.1153 70.2445C79.1332 70.515 80.0445 77.6717 90.7741 77.6717C95.1895 77.6717 99.003 77.6717 99.3887 76.8951C99.7275 76.2119 98.0721 74.4617 95.4175 71.6548V70.5806C98.8003 74.1572 100.716 76.0807 100.153 77.2151C99.5665 78.3962 97.0118 78.4434 90.7741 78.4434Z" fill="#707070"/>
<path d="M120 87.3377C120 88.8081 93.1374 90 59.9999 90C26.8628 90 0 88.8081 0 87.3377C0 85.8673 26.8628 84.6752 59.9999 84.6752C93.1374 84.6752 120 85.8673 120 87.3377Z" fill="#D5D6F2"/>
<path d="M83.6233 3.38217H22.2433C21.2827 3.38217 20.5039 4.09753 20.5039 4.97983V46.9785C20.5039 47.8608 21.2827 48.5762 22.2433 48.5762H83.6233C84.5839 48.5762 85.3627 47.8608 85.3627 46.9785V4.97983C85.3627 4.09753 84.5839 3.38217 83.6233 3.38217ZM83.6233 3.70371C84.3892 3.70371 85.0127 4.27631 85.0127 4.97983V46.9785C85.0127 47.682 84.3892 48.2546 83.6233 48.2546H22.2433C21.4771 48.2546 20.854 47.682 20.854 46.9785V4.97983C20.854 4.27631 21.4771 3.70371 22.2433 3.70371H83.6233Z" fill="#4870C0"/>
<path d="M61.7891 48.5762H84.3012V48.4507H61.7891V48.5762Z" fill="white"/>
<path d="M83.6248 48.2539H61.7895V45.9499H80.7634C80.7634 45.4125 80.2893 44.9771 79.7043 44.9771H61.7895V21.0917L67.1566 18.452C67.389 18.6282 67.6822 18.7383 68.0063 18.7383C68.7462 18.7383 69.3483 18.1855 69.3483 17.5059C69.3483 17.3246 69.3029 17.1541 69.2262 16.9989L77.2412 9.21388C77.3913 9.26738 77.5531 9.29954 77.7237 9.29954C78.4636 9.29954 79.0655 8.7465 79.0655 8.06715C79.0655 7.38755 78.4636 6.8345 77.7237 6.8345C76.9838 6.8345 76.3817 7.38755 76.3817 8.06715C76.3817 8.24799 76.427 8.41904 76.5035 8.57389L68.4885 16.359C68.3384 16.3054 68.1765 16.2733 68.0063 16.2733C67.2663 16.2733 66.6642 16.8263 66.6642 17.5059C66.6642 17.5486 66.6732 17.589 66.6779 17.6304L61.7895 20.0348V9.8549H62.9512C63.3514 9.8549 63.6757 9.55702 63.6757 9.18944V6.76685C63.6757 6.39927 63.3514 6.1014 62.9512 6.1014H61.7895V3.70299H78.8904C79.2651 4.40831 79.7866 5.3063 80.007 5.4609L80.5682 5.7508L80.8024 6.80853L80.4036 6.86435C80.4036 6.86435 82.0654 15.5245 82.9518 17.4205C83.1957 17.9427 83.9903 18.8386 85.0142 19.8634V46.9778C85.0142 47.6813 84.3907 48.2539 83.6248 48.2539ZM77.3218 44.336H78.1253V43.7213H77.3218V44.336ZM67.6125 44.336H68.4157V43.7213H67.6125V44.336ZM77.3218 42.5128H78.1253V41.3046H77.3218V42.5128ZM67.6125 42.5128H68.4157V41.3046H67.6125V42.5128ZM77.3218 40.0964H78.1253V38.8882H77.3218V40.0964ZM67.6125 40.0964H68.4157V38.8882H67.6125V40.0964ZM77.3218 37.68H78.1253V36.4718H77.3218V37.68ZM67.6125 37.68H68.4157V36.4718H67.6125V37.68ZM77.3218 35.2635H78.1253V34.0553H77.3218V35.2635ZM67.6125 35.2635H68.4157V34.0553H67.6125V35.2635ZM77.3218 32.8469H78.1253V31.6387H77.3218V32.8469ZM67.6125 32.8469H68.4157V31.6387H67.6125V32.8469ZM77.3218 30.4305H78.1253V29.2222H77.3218V30.4305ZM67.6125 30.4305H68.4157V29.2222H67.6125V30.4305ZM77.3218 28.014H78.1253V26.8056H77.3218V28.014ZM67.6125 28.014H68.4157V26.8056H67.6125V28.014ZM77.3218 25.5974H78.1253V24.3892H77.3218V25.5974ZM67.6125 25.5974H68.4157V24.3892H67.6125V25.5974ZM77.3218 23.1809H78.1253V21.9727H77.3218V23.1809ZM67.6125 23.1809H68.4157V21.9727H67.6125V23.1809ZM77.3218 20.7645H78.1253V19.5561H77.3218V20.7645ZM67.6125 20.7645H68.4157V19.5561H67.6125V20.7645ZM77.3218 18.3481H78.1253V17.1396H77.3218V18.3481ZM77.3218 15.9314H78.1253V14.7232H77.3218V15.9314ZM77.3218 13.5148H78.1253V12.3068H77.3218V13.5148ZM77.3218 11.0983H78.1253V9.89014H77.3218V11.0983ZM61.7195 48.2539H58.4193V45.9499H61.7195V48.2539ZM58.3493 48.2539H26.1077C26.0026 47.3762 25.8752 46.611 25.74 45.9499H58.3493V48.2539ZM25.6044 45.3313C25.5585 45.136 25.5125 44.9524 25.4666 44.779C25.4529 44.727 25.4392 44.6764 25.4254 44.6265L25.8539 44.5763L24.1677 40.8038C24.5575 40.6793 24.7847 40.6011 24.7847 40.6011L24.7387 40.218H49.4326V30.3384C49.7263 30.112 49.9131 29.7727 49.9131 29.3938C49.9131 29.2742 49.8888 29.1608 49.8538 29.0512L57.6382 23.3564C57.8318 23.4559 58.0516 23.5177 58.2885 23.5177C58.309 23.5177 58.3291 23.5171 58.3493 23.5164V24.3892H57.9029V25.5974H58.3493V26.8056H57.9029V28.014H58.3493V29.2222H57.9029V30.4305H58.3493V31.6387H57.9029V32.8469H58.3493V34.0553H57.9029V35.2635H58.3493V36.4718H57.9029V37.68H58.3493V38.8882H57.9029V40.0964H58.3493V41.3046H57.9029V42.5128H58.3493V43.7213H57.9029V44.336H58.3493V44.9771H26.4219C26.0925 44.9771 25.7985 45.1149 25.6044 45.3313ZM48.1936 44.336H48.9968V43.7213H48.1936V44.336ZM38.484 44.336H39.2872V43.7213H38.484V44.336ZM28.7744 44.336H29.5776V43.7213H28.7744V44.336ZM48.1936 42.5128H48.9968V41.3046H48.1936V42.5128ZM38.484 42.5128H39.2872V41.3046H38.484V42.5128ZM28.7744 42.5128H29.5776V41.3046H28.7744V42.5128ZM61.7195 44.9771H58.4193V44.336H58.7064V43.7213H58.4193V42.5128H58.7064V41.3046H58.4193V40.0964H58.7064V38.8882H58.4193V37.68H58.7064V36.4718H58.4193V35.2635H58.7064V34.0553H58.4193V32.8469H58.7064V31.6387H58.4193V30.4305H58.7064V29.2222H58.4193V28.014H58.7064V26.8056H58.4193V25.5974H58.7064V24.3892H58.4193V23.5117C59.0982 23.4513 59.6306 22.9242 59.6306 22.285C59.6306 22.2423 59.6216 22.2019 59.6168 22.1603L61.7195 21.1262V44.9771ZM49.4326 28.1679V7.72349H20.8555V4.97911C20.8555 4.27558 21.4786 3.70299 22.2448 3.70299H58.3493V6.1014H53.6259C53.2259 6.1014 52.9016 6.39927 52.9016 6.76685V9.18944C52.9016 9.55702 53.2259 9.8549 53.6259 9.8549H58.1213V19.0069C57.9875 19.0648 57.8942 19.189 57.8942 19.3338C57.8942 19.5337 58.0709 19.696 58.2885 19.696C58.3093 19.696 58.3294 19.6945 58.3493 19.6916V21.0537C58.3291 21.0526 58.309 21.0524 58.2885 21.0524C57.5486 21.0524 56.9465 21.6054 56.9465 22.285C56.9465 22.4046 56.9711 22.5181 57.0059 22.6276L49.4326 28.1679ZM59.1382 21.3387C58.9374 21.1866 58.6913 21.0835 58.4193 21.0583V19.6757C58.5728 19.626 58.6831 19.4918 58.6831 19.3338C58.6831 19.1887 58.5899 19.0648 58.456 19.0066V9.8549H61.7195V20.0692L59.1382 21.3387ZM85.0142 11.254C84.0805 8.95588 83.161 6.47876 83.161 6.47876L82.7418 6.53741L82.4866 5.74334C82.4866 5.74334 82.7238 4.32703 82.6645 3.76215C82.6625 3.74312 82.6591 3.72331 82.6538 3.70299H83.6248C84.3907 3.70299 85.0142 4.27558 85.0142 4.97911V11.254ZM61.7195 6.1014H58.4193V3.70299H61.7195V6.1014Z" fill="white"/>
<path d="M58.4176 48.2539H58.3477V45.9499H58.4176V48.2539ZM58.4176 44.9771H58.3477V44.336H58.4176V44.9771ZM58.4176 43.7213H58.3477V42.5128H58.4176V43.7213ZM58.4176 41.3046H58.3477V40.0964H58.4176V41.3046ZM58.4176 38.8882H58.3477V37.68H58.4176V38.8882ZM58.4176 36.4718H58.3477V35.2635H58.4176V36.4718ZM58.4176 34.0553H58.3477V32.8469H58.4176V34.0553ZM58.4176 31.6387H58.3477V30.4305H58.4176V31.6387ZM58.4176 29.2222H58.3477V28.014H58.4176V29.2222ZM58.4176 26.8056H58.3477V25.5974H58.4176V26.8056ZM58.4176 24.3892H58.3477V23.5164C58.3712 23.5153 58.3944 23.5138 58.4176 23.5117V24.3892ZM58.4176 21.0583C58.3944 21.0562 58.3712 21.0547 58.3477 21.0537V19.6916C58.3717 19.6883 58.395 19.6829 58.4176 19.6757V21.0583ZM58.4176 6.1014H58.3477V3.70299H58.4176V6.1014Z" fill="#FBFCFC"/>
<path d="M61.7887 48.2539H61.7188V45.9499H61.7887V48.2539ZM61.7887 44.9771H61.7188V21.1262L61.7887 21.0917V44.9771ZM61.7188 20.0692V9.8549H61.7887V20.0348L61.7188 20.0692ZM61.7887 6.1014H61.7188V3.70299H61.7887V6.1014Z" fill="#FBFCFC"/>
<path d="M49.4326 40.2188H24.7387L24.704 39.9265H25.3398C25.3398 39.9265 26.015 40.2067 26.4544 40.2067C26.4995 40.2067 26.5418 40.2038 26.581 40.1974C26.7616 40.1676 27.3556 39.8838 27.9628 39.5505C28.1921 39.9289 28.6321 40.1856 29.1362 40.1856C29.8761 40.1856 30.4782 39.6325 30.4782 38.9529C30.4782 38.8333 30.4536 38.7199 30.4189 38.6103L30.4586 38.5812L34.0661 38.3826C34.2576 38.3721 34.4063 38.2247 34.4058 38.0506C34.4058 38.0444 34.4055 38.038 34.4052 38.0315L34.3837 37.7028L31.4374 37.8651L31.4391 37.8641L34.5125 37.6948L34.9351 35.3064L38.2034 32.9155C38.3969 33.015 38.6164 33.0765 38.8537 33.0765C39.5378 33.0765 40.0979 32.6019 40.1792 31.9931L47.5136 30.1446C47.7595 30.436 48.1398 30.6272 48.5711 30.6272C48.8988 30.6272 49.1993 30.5186 49.4326 30.3391V40.2188ZM48.1936 40.0971H48.9968V38.8889H48.1936V40.0971ZM38.484 40.0971H39.2872V38.8889H38.484V40.0971ZM48.1936 37.6807H48.9968V36.4725H48.1936V37.6807ZM38.484 37.6807H39.2872V36.4725H38.484V37.6807ZM48.1936 35.2642H48.9968V34.056H48.1936V35.2642ZM38.484 35.2642H39.2872V34.056H38.484V35.2642ZM48.1936 32.8476H48.9968V31.6394H48.1936V32.8476ZM23.632 38.2949C23.5205 37.5119 23.444 36.6682 23.4102 35.6578H24.8889L24.4301 38.2499L24.559 38.2427L28.235 38.0403C28.2347 38.0408 28.2341 38.041 28.2339 38.0416L27.6743 38.0722L23.632 38.2949ZM35.1773 33.9377L35.7036 30.9641C35.7052 30.9544 35.7061 30.9448 35.7061 30.9353C35.7061 30.8803 35.6781 30.8301 35.6338 30.7977H38.1451C37.7651 31.0156 37.5116 31.4032 37.5116 31.8439C37.5116 31.9637 37.5363 32.0772 37.571 32.1865L35.1773 33.9377ZM28.242 31.1586V25.8738H20.9888C21.0067 25.5106 21 25.1235 20.9731 24.7173C20.9512 24.3719 20.9134 24.0488 20.8555 23.7535V18.7208H21.8701V13.605H20.8555V7.72419H49.4326V28.1686L49.2214 28.3232C49.0279 28.2236 48.8083 28.1619 48.5711 28.1619C47.8869 28.1619 47.3268 28.6367 47.2456 29.2456L39.9111 31.0943C39.8126 30.9773 39.6924 30.8764 39.5558 30.7977H40.7684V27.2955H41.4823V29.1885H47.0521V27.4967C47.2316 27.4627 47.3666 27.3169 47.3666 27.142C47.3666 26.967 47.2316 26.8209 47.0521 26.787V24.0724H41.4823V26.9881H40.7684V25.6817H38.1507V21.0549H44.2672V11.2709H36.248V16.7265H33.3208C32.9206 16.7265 32.5963 17.0243 32.5963 17.3919V19.8145C32.5963 20.1821 32.9206 20.48 33.3208 20.48H36.248V21.0549H37.816V25.6817H35.1983V30.7756L28.242 31.1586Z" fill="#FBFCFC"/>
<path d="M47.0503 29.1875H41.4805V27.2945H46.6145C46.6775 27.4175 46.8128 27.5032 46.9704 27.5032C46.9976 27.5032 47.0245 27.5006 47.0503 27.4957V29.1875ZM46.6145 26.9872H41.4805V24.0715H47.0503V26.786C47.0245 26.7811 46.9976 26.7785 46.9704 26.7785C46.8125 26.7785 46.6775 26.8642 46.6145 26.9872Z" fill="#FEFEFF"/>
<path d="M20.8555 18.7217H21.87V13.6057H20.8555V18.7217Z" fill="#FEFEFF"/>
<path d="M40.7693 30.7979H39.5566C39.353 30.68 39.1127 30.6114 38.8545 30.6114C38.5946 30.6114 38.3518 30.6798 38.146 30.7979H35.6347C35.6019 30.7734 35.5602 30.7588 35.5146 30.7588C35.5106 30.7588 35.5067 30.759 35.5028 30.7593L35.3785 30.766C35.3768 30.766 35.3754 30.7662 35.3737 30.7662L35.1992 30.7757V25.6818H37.8169V26.5075C37.8169 26.9422 38.2017 27.2957 38.675 27.2957H40.7693V30.7979ZM40.7693 26.9883H38.675C38.3866 26.9883 38.1516 26.7727 38.1516 26.5075V25.6818H40.7693V26.9883Z" fill="#FEFEFF"/>
<path d="M24.8889 35.6582H23.4102C23.4096 35.642 23.409 35.6258 23.4088 35.6096C23.3947 35.2078 23.3872 34.7795 23.3872 34.318C23.3872 33.8977 23.3934 33.4501 23.4065 32.9702C23.4216 32.432 23.4429 31.853 23.4734 31.2272C23.4953 30.7533 23.5208 30.2492 23.5558 29.7154C23.2838 29.7074 23.0122 29.7033 22.7403 29.7033C22.111 29.7033 21.4822 29.7247 20.8555 29.7682V26.8831C20.928 26.5746 20.9709 26.2364 20.9888 25.8742H28.242V31.159L25.9385 31.2861C25.7758 31.2951 25.6414 31.4065 25.615 31.5544L24.8889 35.6582Z" fill="#FEFEFF"/>
<path d="M44.2653 21.0557H38.1488V20.4808H42.644C43.0442 20.4808 43.3685 20.1829 43.3685 19.8153V17.3927C43.3685 17.0251 43.0442 16.7273 42.644 16.7273H36.2461V11.2717H44.2653V21.0557ZM37.8141 21.0557H36.2461V20.4808H37.8141V21.0557Z" fill="#FEFEFF"/>
<path d="M84.3019 3.50879C84.0938 3.42776 83.865 3.383 83.625 3.383C83.8653 3.383 84.0938 3.42776 84.3019 3.50879Z" fill="white"/>
<path d="M83.6233 48.5762H26.1431C26.1311 48.4671 26.1188 48.3601 26.1062 48.2546H58.3478H58.4178H61.718H61.788H83.6233C84.3892 48.2546 85.0127 47.682 85.0127 46.9785V19.8642C85.1264 19.9781 85.2434 20.0939 85.3627 20.2109V46.9785C85.3627 46.9819 85.3627 46.9855 85.3624 46.9888C85.358 47.646 84.9214 48.2094 84.3002 48.4506C84.0921 48.5314 83.8633 48.5762 83.6233 48.5762ZM20.5039 29.7943V27.7804C20.6602 27.5214 20.7747 27.2197 20.854 26.8827V29.7678C20.7372 29.7758 20.6204 29.7845 20.5039 29.7943ZM20.854 23.7535C20.7954 23.4561 20.7165 23.1873 20.612 22.952L20.6067 22.9252L20.5787 22.8609C20.5549 22.811 20.53 22.7621 20.5039 22.7148V4.97983C20.5039 4.09753 21.2827 3.38217 22.2433 3.38217H78.7212C78.7721 3.48172 78.8284 3.59027 78.8889 3.70371H61.788H61.718H58.4178H58.3478H22.2433C21.4771 3.70371 20.854 4.27631 20.854 4.97983V7.72421V13.605V18.7208V23.7535ZM85.3627 12.1056C85.2468 11.8283 85.1297 11.543 85.0127 11.2547V4.97983C85.0127 4.27631 84.3892 3.70371 83.6233 3.70371H82.6523C82.6283 3.60725 82.57 3.49844 82.4879 3.38217H83.6233C83.8633 3.38217 84.0921 3.42693 84.3002 3.50796C84.9244 3.75053 85.3627 4.31823 85.3627 4.97983V12.1056Z" fill="#C7D9F2"/>
<path d="M77.3203 8.68262H78.1238V8.06788H77.3203V8.68262Z" fill="#4870C0"/>
<path d="M78.1238 11.0992H77.3203V9.89101H78.1238V11.0992ZM78.1238 13.5156H77.3203V12.3077H78.1238V13.5156ZM78.1238 15.9323H77.3203V14.7241H78.1238V15.9323ZM78.1238 18.349H77.3203V17.1405H78.1238V18.349ZM78.1238 20.7654H77.3203V19.5569H78.1238V20.7654ZM78.1238 23.1818H77.3203V21.9736H78.1238V23.1818ZM78.1238 25.5982H77.3203V24.39H78.1238V25.5982ZM78.1238 28.0149H77.3203V26.8064H78.1238V28.0149ZM78.1238 30.4313H77.3203V29.2231H78.1238V30.4313ZM78.1238 32.8477H77.3203V31.6395H78.1238V32.8477ZM78.1238 35.2644H77.3203V34.0562H78.1238V35.2644ZM78.1238 37.6808H77.3203V36.4726H78.1238V37.6808ZM78.1238 40.0973H77.3203V38.889H78.1238V40.0973ZM78.1238 42.5137H77.3203V41.3055H78.1238V42.5137Z" fill="#4870C0"/>
<path d="M77.3203 44.3379H78.1238V43.7231H77.3203V44.3379Z" fill="#4870C0"/>
<path d="M28.7734 42.5137H29.5766V41.3054H28.7734V42.5137Z" fill="#4870C0"/>
<path d="M28.7734 44.3379H29.5766V43.7231H28.7734V44.3379Z" fill="#4870C0"/>
<path d="M39.2876 35.2644H38.4844V34.0562H39.2876V35.2644ZM39.2876 37.6808H38.4844V36.4726H39.2876V37.6808ZM39.2876 40.0973H38.4844V38.889H39.2876V40.0973ZM39.2876 42.5137H38.4844V41.3055H39.2876V42.5137Z" fill="#4870C0"/>
<path d="M38.4844 44.3379H39.2876V43.7231H38.4844V44.3379Z" fill="#4870C0"/>
<path d="M48.9946 32.8477H48.1914V31.6395H48.9946V32.8477ZM48.9946 35.2644H48.1914V34.0562H48.9946V35.2644ZM48.9946 37.6808H48.1914V36.4726H48.9946V37.6808ZM48.9946 40.0973H48.1914V38.889H48.9946V40.0973ZM48.9946 42.5137H48.1914V41.3055H48.9946V42.5137Z" fill="#4870C0"/>
<path d="M48.1914 44.3379H48.9947V43.7231H48.1914V44.3379Z" fill="#4870C0"/>
<path d="M58.7058 25.5982H57.9023V24.39H58.7058V25.5982ZM58.7058 28.0149H57.9023V26.8064H58.7058V28.0149ZM58.7058 30.4313H57.9023V29.2231H58.7058V30.4313ZM58.7058 32.8477H57.9023V31.6395H58.7058V32.8477ZM58.7058 35.2644H57.9023V34.0562H58.7058V35.2644ZM58.7058 37.6808H57.9023V36.4726H58.7058V37.6808ZM58.7058 40.0973H57.9023V38.889H58.7058V40.0973ZM58.7058 42.5137H57.9023V41.3055H58.7058V42.5137Z" fill="#4870C0"/>
<path d="M57.9023 44.3379H58.7059V43.7231H57.9023V44.3379Z" fill="#4870C0"/>
<path d="M68.4126 20.7654H67.6094V19.5569H68.4126V20.7654ZM68.4126 23.1818H67.6094V21.9736H68.4126V23.1818ZM68.4126 25.5982H67.6094V24.39H68.4126V25.5982ZM68.4126 28.0149H67.6094V26.8064H68.4126V28.0149ZM68.4126 30.4313H67.6094V29.2231H68.4126V30.4313ZM68.4126 32.8477H67.6094V31.6395H68.4126V32.8477ZM68.4126 35.2644H67.6094V34.0562H68.4126V35.2644ZM68.4126 37.6808H67.6094V36.4726H68.4126V37.6808ZM68.4126 40.0973H67.6094V38.889H68.4126V40.0973ZM68.4126 42.5137H67.6094V41.3055H68.4126V42.5137Z" fill="#4870C0"/>
<path d="M67.6094 44.3379H68.4126V43.7231H67.6094V44.3379Z" fill="#4870C0"/>
<path d="M38.4844 42.5137H39.2876V41.3054H38.4844V42.5137Z" fill="#C7D9F2"/>
<path d="M77.3203 42.5137H78.1238V41.3054H77.3203V42.5137Z" fill="#F88DB4"/>
<path d="M77.3203 40.0977H78.1238V38.8895H77.3203V40.0977Z" fill="#F88DB4"/>
<path d="M77.3203 37.6816H78.1238V36.4735H77.3203V37.6816Z" fill="#F88DB4"/>
<path d="M77.3203 35.2646H78.1238V34.0564H77.3203V35.2646Z" fill="#F88DB4"/>
<path d="M77.3203 32.8477H78.1238V31.6395H77.3203V32.8477Z" fill="#F88DB4"/>
<path d="M77.3203 30.4336H78.1238V29.2254H77.3203V30.4336Z" fill="#F88DB4"/>
<path d="M77.3203 28.0146H78.1238V26.8062H77.3203V28.0146Z" fill="#F88DB4"/>
<path d="M77.3203 25.5996H78.1238V24.3914H77.3203V25.5996Z" fill="#F88DB4"/>
<path d="M77.3203 23.1826H78.1238V21.9744H77.3203V23.1826Z" fill="#F88DB4"/>
<path d="M77.3203 20.7666H78.1238V19.5582H77.3203V20.7666Z" fill="#F88DB4"/>
<path d="M77.3203 18.3486H78.1238V17.1404H77.3203V18.3486Z" fill="#F88DB4"/>
<path d="M77.3203 15.9336H78.1238V14.7254H77.3203V15.9336Z" fill="#F88DB4"/>
<path d="M77.3203 13.5166H78.1238V12.3084H77.3203V13.5166Z" fill="#F88DB4"/>
<path d="M77.3203 11.1006H78.1238V9.89231H77.3203V11.1006Z" fill="#F88DB4"/>
<path d="M77.3203 44.3379H78.1238V43.7231H77.3203V44.3379Z" fill="#F88DB4"/>
<path d="M28.7734 42.5137H29.5766V41.3054H28.7734V42.5137Z" fill="#F88DB4"/>
<path d="M28.7734 44.3379H29.5766V43.7231H28.7734V44.3379Z" fill="#F88DB4"/>
<path d="M38.4805 40.0977H39.2837V38.8895H38.4805V40.0977Z" fill="#F88DB4"/>
<path d="M38.4805 37.6816H39.2837V36.4735H38.4805V37.6816Z" fill="#F88DB4"/>
<path d="M38.4805 35.2646H39.2837V34.0564H38.4805V35.2646Z" fill="#F88DB4"/>
<path d="M38.4805 44.3379H39.2837V43.7231H38.4805V44.3379Z" fill="#F88DB4"/>
<path d="M48.1914 42.5137H48.9947V41.3054H48.1914V42.5137Z" fill="#F88DB4"/>
<path d="M48.1914 40.0977H48.9947V38.8895H48.1914V40.0977Z" fill="#F88DB4"/>
<path d="M48.1914 37.6816H48.9947V36.4735H48.1914V37.6816Z" fill="#F88DB4"/>
<path d="M48.1914 35.2646H48.9947V34.0564H48.1914V35.2646Z" fill="#F88DB4"/>
<path d="M48.1914 32.8477H48.9947V31.6395H48.1914V32.8477Z" fill="#F88DB4"/>
<path d="M48.1914 44.3379H48.9947V43.7231H48.1914V44.3379Z" fill="#F88DB4"/>
<path d="M58.7058 42.5137H57.9023V41.3055H58.7058V42.5137Z" fill="#F88DB4"/>
<path d="M58.7058 40.0977H57.9023V38.8894H58.7058V40.0977Z" fill="#F88DB4"/>
<path d="M58.7058 37.6816H57.9023V36.4734H58.7058V37.6816Z" fill="#F88DB4"/>
<path d="M58.7058 35.2646H57.9023V34.0564H58.7058V35.2646Z" fill="#F88DB4"/>
<path d="M58.7058 32.8477H57.9023V31.6394H58.7058V32.8477Z" fill="#F88DB4"/>
<path d="M58.7058 30.4336H57.9023V29.2254H58.7058V30.4336Z" fill="#F88DB4"/>
<path d="M58.7058 28.0146H57.9023V26.8062H58.7058V28.0146Z" fill="#F88DB4"/>
<path d="M58.7058 25.5996H57.9023V24.3914H58.7058V25.5996Z" fill="#F88DB4"/>
<path d="M58.7058 44.3379H57.9023V43.7231H58.7058V44.3379Z" fill="#F88DB4"/>
<path d="M67.6133 42.5137H68.4165V41.3054H67.6133V42.5137Z" fill="#F88DB4"/>
<path d="M67.6133 40.0977H68.4165V38.8895H67.6133V40.0977Z" fill="#F88DB4"/>
<path d="M67.6133 37.6816H68.4165V36.4735H67.6133V37.6816Z" fill="#F88DB4"/>
<path d="M67.6133 35.2646H68.4165V34.0564H67.6133V35.2646Z" fill="#F88DB4"/>
<path d="M67.6133 32.8477H68.4165V31.6395H67.6133V32.8477Z" fill="#F88DB4"/>
<path d="M67.6133 30.4336H68.4165V29.2254H67.6133V30.4336Z" fill="#F88DB4"/>
<path d="M67.6172 28.0459H68.4128V26.5882H67.6172V28.0459Z" fill="#F88DB4"/>
<path d="M67.6094 25.5996H68.4126V24.3914H67.6094V25.5996Z" fill="#F88DB4"/>
<path d="M67.6094 23.1826H68.4126V21.9744H67.6094V23.1826Z" fill="#F88DB4"/>
<path d="M67.6133 20.7666H68.4165V19.5582H67.6133V20.7666Z" fill="#F88DB4"/>
<path d="M67.6094 44.3379H68.4126V43.7231H67.6094V44.3379Z" fill="#F88DB4"/>
<path d="M77.7225 6.83519C76.9826 6.83519 76.3804 7.38823 76.3804 8.06784C76.3804 8.24867 76.4258 8.41972 76.5023 8.57458L68.4873 16.3596C68.3372 16.3061 68.1753 16.274 68.005 16.274C67.2651 16.274 66.663 16.827 66.663 17.5066C66.663 17.5493 66.672 17.5897 66.6767 17.6311L59.137 21.3393C58.9046 21.1631 58.6113 21.053 58.2873 21.053C57.5474 21.053 56.9453 21.6061 56.9453 22.2857C56.9453 22.4053 56.9699 22.5187 57.0047 22.6283L49.2202 28.3231C49.0267 28.2236 48.8071 28.1619 48.5699 28.1619C47.8857 28.1619 47.3256 28.6367 47.2444 29.2456L39.9099 31.0943C39.6643 30.8028 39.2837 30.6112 38.8524 30.6112C38.1125 30.6112 37.5104 31.1642 37.5104 31.8438C37.5104 31.9637 37.5351 32.0771 37.5698 32.1865L29.7853 37.8815C29.5918 37.782 29.3722 37.7203 29.135 37.7203C28.3951 37.7203 27.793 38.2733 27.793 38.9529C27.793 39.6325 28.3951 40.1855 29.135 40.1855C29.8749 40.1855 30.477 39.6325 30.477 38.9529C30.477 38.8333 30.4524 38.7199 30.4177 38.6103L38.2021 32.9155C38.3957 33.015 38.6152 33.0765 38.8524 33.0765C39.5366 33.0765 40.0967 32.6019 40.178 31.993L47.5124 30.1446C47.7583 30.436 48.1386 30.6271 48.5699 30.6271C49.3098 30.6271 49.9119 30.0744 49.9119 29.3945C49.9119 29.2749 49.8876 29.1615 49.8526 29.0519L53.7448 26.2045L57.637 23.3571C57.8305 23.4566 58.0504 23.5183 58.2873 23.5183C59.0275 23.5183 59.6294 22.9653 59.6294 22.2857C59.6294 22.243 59.6204 22.2026 59.6156 22.1609L67.1553 18.4527C67.3878 18.6289 67.681 18.739 68.005 18.739C68.745 18.739 69.3471 18.1862 69.3471 17.5066C69.3471 17.3253 69.3017 17.1547 69.225 16.9996L77.2399 9.21456C77.3901 9.26806 77.5519 9.30022 77.7225 9.30022C78.4624 9.30022 79.0642 8.74718 79.0642 8.06784C79.0642 7.38823 78.4624 6.83519 77.7225 6.83519Z" fill="#8DAEF4"/>
<path d="M38.8521 32.7275C38.3211 32.7275 37.8906 32.3319 37.8906 31.8442C37.8906 31.3565 38.3211 30.9611 38.8521 30.9611C39.3831 30.9611 39.8135 31.3565 39.8135 31.8442C39.8135 32.3319 39.3831 32.7275 38.8521 32.7275Z" fill="#D7D7D7"/>
<path d="M48.5708 30.2783C48.0398 30.2783 47.6094 29.883 47.6094 29.395C47.6094 28.9073 48.0398 28.5119 48.5708 28.5119C49.1021 28.5119 49.5325 28.9073 49.5325 29.395C49.5325 29.883 49.1021 30.2783 48.5708 30.2783Z" fill="#D7D7D7"/>
<path d="M58.2896 23.1689C57.7586 23.1689 57.3281 22.7736 57.3281 22.2859C57.3281 21.7982 57.7586 21.4028 58.2896 21.4028C58.8206 21.4028 59.2513 21.7982 59.2513 22.2859C59.2513 22.7736 58.8206 23.1689 58.2896 23.1689Z" fill="#D7D7D7"/>
<path d="M68.0047 18.3896C67.4737 18.3896 67.043 17.9943 67.043 17.5066C67.043 17.0189 67.4737 16.6232 68.0047 16.6232C68.5357 16.6232 68.9661 17.0189 68.9661 17.5066C68.9661 17.9943 68.5357 18.3896 68.0047 18.3896Z" fill="#DBE8F7"/>
<path d="M78.6849 8.06713C78.6849 8.55484 78.2544 8.9502 77.7234 8.9502C77.1922 8.9502 76.7617 8.55484 76.7617 8.06713C76.7617 7.57916 77.1922 7.1838 77.7234 7.1838C78.2544 7.1838 78.6849 7.57916 78.6849 8.06713Z" fill="white"/>
<path d="M46.9726 26.7793C46.8147 26.7793 46.6797 26.8649 46.6167 26.9879H38.6745C38.386 26.9879 38.1511 26.7723 38.1511 26.5071V18.8538H37.8164V26.5071C37.8164 26.9419 38.2012 27.2953 38.6745 27.2953H46.6167C46.6797 27.4183 46.8149 27.5039 46.9726 27.5039C47.1902 27.5039 47.3669 27.3416 47.3669 27.1417C47.3669 26.9416 47.1902 26.7793 46.9726 26.7793Z" fill="#4870C0"/>
<path d="M42.6433 20.4805H33.3183C32.9181 20.4805 32.5938 20.1826 32.5938 19.815V17.3924C32.5938 17.0248 32.9181 16.727 33.3183 16.727H42.6433C43.0435 16.727 43.3678 17.0248 43.3678 17.3924V19.815C43.3678 20.1826 43.0435 20.4805 42.6433 20.4805Z" fill="#4870C0"/>
<path d="M46.9726 27.5039C46.8149 27.5039 46.6797 27.4183 46.6167 27.2953H40.7688H38.6745C38.2012 27.2953 37.8164 26.9419 37.8164 26.5071V20.4797H38.1511V21.0546V26.5071C38.1511 26.7723 38.386 26.9879 38.6745 26.9879H46.6167C46.6797 26.8649 46.8147 26.7793 46.9726 26.7793C47.1902 26.7793 47.3669 26.9416 47.3669 27.1417C47.3669 27.3416 47.1902 27.5039 46.9726 27.5039Z" fill="#9C9C9C"/>
<path d="M42.6433 20.4805H33.3183C32.9181 20.4805 32.5938 20.1826 32.5938 19.815V17.3924C32.5938 17.0248 32.9181 16.727 33.3183 16.727H42.6433C43.0435 16.727 43.3678 17.0248 43.3678 17.3924V19.815C43.3678 20.1826 43.0435 20.4805 42.6433 20.4805Z" fill="#D7D7D7"/>
<path d="M58.4563 19.0079V7.97917H58.1217V19.0081C57.9878 19.066 57.8945 19.1903 57.8945 19.3351C57.8945 19.535 58.0712 19.6973 58.2889 19.6973C58.5067 19.6973 58.6835 19.535 58.6835 19.3351C58.6835 19.19 58.5902 19.066 58.4563 19.0079Z" fill="#4870C0"/>
<path d="M62.9519 9.85547H53.6266C53.2267 9.85547 52.9023 9.55759 52.9023 9.19001V6.76742C52.9023 6.39984 53.2267 6.10197 53.6266 6.10197H62.9519C63.3521 6.10197 63.6764 6.39984 63.6764 6.76742V9.19001C63.6764 9.55759 63.3521 9.85547 62.9519 9.85547Z" fill="#4870C0"/>
<path d="M58.2889 19.6973C58.0712 19.6973 57.8945 19.535 57.8945 19.3351C57.8945 19.1903 57.9878 19.066 58.1217 19.0081V9.85617H58.4563V19.0079C58.5902 19.066 58.6835 19.19 58.6835 19.3351C58.6835 19.493 58.5731 19.6273 58.4196 19.6769C58.397 19.6841 58.3737 19.6896 58.3496 19.6929C58.3297 19.6957 58.3096 19.6973 58.2889 19.6973Z" fill="#9C9C9C"/>
<path d="M62.9519 9.85547H53.6266C53.2267 9.85547 52.9023 9.55759 52.9023 9.19001V6.76742C52.9023 6.39984 53.2267 6.10197 53.6266 6.10197H62.9519C63.3521 6.10197 63.6764 6.39984 63.6764 6.76742V9.19001C63.6764 9.55759 63.3521 9.85547 62.9519 9.85547Z" fill="#D7D7D7"/>
<path d="M80.7604 45.9502H25.3594C25.3594 45.4128 25.8338 44.9774 26.4188 44.9774H79.7012C80.2862 44.9774 80.7604 45.4128 80.7604 45.9502Z" fill="#4870C0"/>
<path d="M80.7645 45.9502H25.741C25.6965 45.7328 25.6511 45.5265 25.6055 45.3316C25.7995 45.1152 26.0936 44.9774 26.423 44.9774H79.7053C80.2904 44.9774 80.7645 45.4128 80.7645 45.9502Z" fill="#9C9C9C"/>
<path d="M90.8681 82.9307L90.8164 82.3864L90.8178 82.3862L90.87 82.9304L90.8681 82.9307Z" fill="#CECDCC"/>
<path d="M102.326 82.6914H102.323L102.309 82.3027H102.311L102.326 82.6914Z" fill="#CECDCC"/>
<path d="M105.895 22.3652H105.894C105.707 22.2996 105.517 22.2356 105.324 22.1733C105.517 22.2356 105.707 22.2996 105.895 22.3652Z" fill="#FBFCFC"/>
<path d="M105.324 22.1729C104.898 22.0352 104.462 21.9056 104.02 21.7839H104.02C104.462 21.9056 104.899 22.0352 105.324 22.1729Z" fill="#F9F9F9"/>
<path d="M94.8585 20.1729C93.8259 20.0676 93.1762 20.0249 93.1378 20.0224H93.1367C93.1367 20.0224 93.7943 20.0646 94.8585 20.1729Z" fill="#F9F9F9"/>
<path d="M102.916 21.5C102.752 21.4601 102.587 21.421 102.423 21.3832H102.423C102.588 21.421 102.752 21.4599 102.916 21.4997V21.5ZM96.5553 20.3672C96.3183 20.3373 96.0895 20.3095 95.8711 20.2843V20.2841C96.0898 20.3095 96.3181 20.3371 96.5553 20.3669V20.3672Z" fill="#BECAE5"/>
<path d="M27.6719 38.0723L28.2314 38.0417L27.6719 38.0723ZM31.435 37.8652L34.3812 37.7029L31.435 37.8652Z" fill="#FCFDFD"/>
<path d="M28.2344 38.043L31.438 37.8665L28.2344 38.043Z" fill="#658ACF"/>
<path d="M26.2035 57.9092C26.4987 53.9592 26.4001 50.895 26.1445 48.5761H26.1448C26.4004 50.8948 26.499 53.9594 26.2035 57.9092Z" fill="#CECDCC"/>
<path d="M26.106 48.2539H26.1057C26.0007 47.3765 25.8735 46.6107 25.7383 45.9499C25.8735 46.611 26.001 47.3762 26.106 48.2539Z" fill="#CFCECC"/>
<path d="M26.1428 48.5762H26.1425C26.1305 48.4671 26.1181 48.3601 26.1055 48.2546H26.1057C26.1184 48.3601 26.1307 48.4671 26.1428 48.5762Z" fill="#9CACD3"/>
<path d="M25.6023 45.332C25.5567 45.1368 25.5108 44.9531 25.4648 44.7798C25.5108 44.9531 25.5567 45.1368 25.6026 45.332C25.6023 45.332 25.6023 45.332 25.6023 45.332Z" fill="#CFCECC"/>
<path d="M25.7412 45.9502C25.6967 45.7328 25.6514 45.5268 25.6055 45.3316C25.6055 45.3316 25.6055 45.3316 25.6057 45.3316C25.6514 45.5265 25.6967 45.7328 25.7412 45.9502Z" fill="#678ACF"/>
<path d="M12.8164 57.0898C12.933 55.7317 13.1452 54.1412 13.5196 52.4386C13.1456 54.1407 12.9335 55.7319 12.8164 57.0898ZM14.8181 47.9736C15.0494 47.2459 15.3406 46.2988 15.4966 45.7892L15.4971 45.789C15.341 46.2988 15.0497 47.2462 14.8181 47.9736Z" fill="#A0A0A0"/>
<path d="M19.0859 28.6787V28.6604C19.5447 28.6098 19.9062 28.4495 20.1854 28.1892H20.1874C19.9093 28.448 19.5472 28.6172 19.0859 28.6787Z" fill="#BDBCBA"/>
<path d="M18.6758 28.7051C18.6232 28.7051 18.5694 28.704 18.5145 28.7015C18.5123 28.6912 18.5101 28.6804 18.5078 28.6701C18.5924 28.6755 18.6742 28.6783 18.7534 28.6783C18.8691 28.6783 18.9794 28.6724 19.0847 28.6608V28.6791C18.9562 28.6963 18.8201 28.7051 18.6758 28.7051Z" fill="#C5C4C2"/>
<path d="M20.1953 28.1787C20.2038 28.1698 20.2123 28.1612 20.2207 28.1524V28.1539C20.2123 28.1623 20.2041 28.1706 20.1953 28.1787Z" fill="#BDBCBA"/>
<path d="M20.2227 28.1543V28.1528C20.2242 28.151 20.226 28.149 20.2276 28.1473C20.2283 28.147 20.2291 28.147 20.2299 28.1468C20.2276 28.1493 20.225 28.1518 20.2227 28.1543Z" fill="#C5C4C2"/>
<path d="M63.6602 87.0254H65.6543V77.2661H63.6602V87.0254Z" fill="#D7D7D7"/>
<path d="M64.5 87.0254H65.6539V77.2661H64.5V87.0254Z" fill="#4870C0"/>
<path d="M65.6538 87.0254H64.5V80.9265L65.6538 81.2869V87.0254Z" fill="#9C9C9C"/>
<path d="M64.5003 80.9268L63.6602 80.6643V78.1489H64.5003V80.9268Z" fill="#D7D7D7"/>
<path d="M65.6538 81.2881L64.5 80.9278V78.1499H65.6538V78.3835V78.4478V81.2881Z" fill="#9C9C9C"/>
<path d="M72.0625 87.0254H74.0568V77.2671H72.0625V87.0254Z" fill="#D7D7D7"/>
<path d="M46.2969 87.0254H48.2912V77.2671H46.2969V87.0254Z" fill="#4870C0"/>
<path d="M48.2929 87.0254H47.1836V78.1486H48.2929V78.3823V78.4466V81.6521V81.7164V87.0254Z" fill="#9C9C9C"/>
<path d="M74.3755 72.6411V87.0254H72.8855V78.1486H54.4213V87.0254H51.688V78.1486H47.1819V87.0254H46.2969V72.6411H74.3755Z" fill="#D7D7D7"/>
<path d="M52.4056 72.6416H51.9102V70.3816H52.9007L52.4056 72.6416Z" fill="#1D2A30"/>
<path d="M74.3772 87.0254H72.8873V78.1486H54.4231V78.3823V78.4466V87.0254H52.9023V72.6411H57.1497H68.0246H74.3772V78.3823V78.4466V87.0254Z" fill="#9C9C9C"/>
<path d="M68.5943 68.3541L68.61 68.3492L63.7821 67.2757C63.676 67.2475 63.5659 67.2277 63.4491 67.2277H52.5745C51.9525 67.2277 51.433 67.6622 51.3747 68.2309L51.1577 70.3595C51.1039 70.8865 51.4629 71.3498 51.9788 71.5075L51.9654 71.5096L52.0429 71.5268C52.0732 71.5345 52.1029 71.5422 52.1345 71.5476L56.8493 72.6066L56.8479 72.603C56.9445 72.6261 57.0445 72.6416 57.1495 72.6416H68.0244C68.6461 72.6416 69.1657 72.2071 69.2239 71.6384L69.4412 69.5098C69.4958 68.9741 69.1239 68.5038 68.5943 68.3541Z" fill="#1D2A30"/>
<path d="M56.8215 72.5996L52.6226 71.6564L52.1345 71.5468C52.1029 71.5414 52.0732 71.5337 52.0429 71.526L51.9654 71.5088L51.9788 71.5067C51.4971 71.3596 51.1521 70.9459 51.1523 70.4629C51.1523 70.4283 51.154 70.3937 51.1577 70.3587L51.3747 68.2301C51.433 67.6614 51.9525 67.2269 52.5745 67.2269H63.4491C63.5659 67.2269 63.676 67.2467 63.7821 67.275L68.61 68.3484L68.6044 68.3502C68.4901 68.317 68.3683 68.2992 68.2417 68.2992H57.3665C56.7448 68.2992 56.2253 68.7337 56.1671 69.3024L55.9497 71.4308C55.8943 71.9758 56.2774 72.4588 56.8215 72.5996Z" fill="#45555C"/>
<path d="M57.1492 72.6416C57.0349 72.6416 56.9248 72.6272 56.8203 72.6004L56.8481 72.6066L56.8467 72.603C56.9436 72.6261 57.0439 72.6416 57.1492 72.6416Z" fill="white"/>
<path d="M69.4409 69.5059C69.4409 69.5057 69.4409 69.5054 69.4409 69.5052C69.4409 69.5054 69.4409 69.5057 69.4409 69.5059ZM69.4412 69.5021C69.4412 69.5021 69.4412 69.5017 69.4412 69.5015C69.4412 69.5017 69.4412 69.5017 69.4412 69.5021ZM69.4418 69.4981V69.4979V69.4981ZM69.4429 69.4829C69.4429 69.4828 69.4429 69.4828 69.4429 69.4828C69.4429 69.4828 69.4429 69.4828 69.4429 69.4829ZM69.4432 69.4793C69.4432 69.4791 69.4432 69.4788 69.4432 69.4788C69.4432 69.4791 69.4432 69.4791 69.4432 69.4793ZM69.4437 69.4717C69.4437 69.4712 69.4437 69.4709 69.4437 69.4706C69.4437 69.4709 69.4437 69.4714 69.4437 69.4717ZM69.444 69.4683C69.444 69.4676 69.444 69.4671 69.444 69.4663C69.444 69.4671 69.444 69.4678 69.444 69.4683ZM69.444 69.465C69.4443 69.4642 69.4443 69.4635 69.4443 69.4626C69.4443 69.4635 69.4443 69.4642 69.444 69.465ZM69.4443 69.4622C69.4454 69.4423 69.446 69.4231 69.446 69.4035C69.4451 68.9124 69.0881 68.4934 68.5938 68.3538L68.6038 68.3506C69.1138 68.498 69.4731 68.9485 69.4443 69.4622Z" fill="white"/>
<path d="M68.0214 72.6416H57.1465C57.0415 72.6416 56.9415 72.6261 56.8449 72.603L56.8463 72.6066L56.8186 72.6004C56.2744 72.4595 55.8913 71.9766 55.9467 71.4316L56.1641 69.3032C56.2223 68.7345 56.7418 68.3 57.3636 68.3H68.2387C68.3653 68.3 68.4872 68.3178 68.6014 68.351L68.5913 68.3541C69.0856 68.4938 69.4427 68.9128 69.4436 69.4038C69.4436 69.4234 69.443 69.4427 69.4419 69.4625C69.4419 69.4625 69.4419 69.4628 69.4419 69.463C69.4419 69.4638 69.4419 69.4645 69.4416 69.4653C69.4416 69.4658 69.4416 69.4663 69.4416 69.4666C69.4416 69.4674 69.4416 69.4679 69.4416 69.4686C69.4416 69.4694 69.4413 69.4702 69.4413 69.4709C69.4413 69.4712 69.4413 69.4715 69.4413 69.472C69.441 69.4744 69.441 69.4769 69.4408 69.4792C69.4408 69.4792 69.4408 69.4795 69.4408 69.4797C69.4408 69.4808 69.4405 69.4821 69.4405 69.4831C69.4405 69.4831 69.4405 69.4831 69.4405 69.4833C69.4402 69.4882 69.4396 69.4931 69.4394 69.4983V69.4985C69.4391 69.4996 69.4391 69.5008 69.4388 69.5019C69.4388 69.5021 69.4388 69.5024 69.4388 69.5024C69.4388 69.5034 69.4388 69.5044 69.4385 69.5055C69.4385 69.5057 69.4385 69.506 69.4385 69.5062C69.4385 69.5072 69.4382 69.5085 69.4382 69.5098L69.2209 71.6384C69.1627 72.2071 68.6431 72.6416 68.0214 72.6416ZM58.9716 71.4026L58.9072 71.9633H59.5348L59.5995 71.4026H58.9716ZM58.1037 71.4026L58.0393 71.9633H58.6669L58.7316 71.4026H58.1037ZM63.9359 69.5548C63.2613 69.5548 62.658 70.0436 62.5886 70.6466C62.5194 71.2489 63.0101 71.738 63.685 71.738C64.3597 71.738 64.9629 71.2489 65.0321 70.6466C65.1015 70.0436 64.6106 69.5548 63.9359 69.5548ZM66.5091 70.2478C66.4069 70.2478 66.3159 70.3216 66.3055 70.4127L66.2523 70.8744C66.2419 70.9658 66.3159 71.0395 66.4178 71.0395H68.1906C68.2925 71.0395 68.3838 70.9658 68.3942 70.8744L68.4474 70.4127C68.4577 70.3216 68.3838 70.2478 68.2816 70.2478H66.5091Z" fill="#57676E"/>
<path d="M63.685 71.7383C63.01 71.7383 62.5194 71.2492 62.5885 70.6469C62.658 70.0439 63.2612 69.5551 63.9359 69.5551C64.6106 69.5551 65.1015 70.0439 65.032 70.6469C64.9629 71.2492 64.3596 71.7383 63.685 71.7383Z" fill="#69787E"/>
<path d="M68.1932 71.0391H66.4204C66.3184 71.0391 66.2445 70.9653 66.2549 70.874L66.3081 70.4123C66.3184 70.3211 66.4095 70.2474 66.5117 70.2474H68.2842C68.3864 70.2474 68.4603 70.3211 68.45 70.4123L68.3968 70.874C68.3864 70.9653 68.2951 71.0391 68.1932 71.0391Z" fill="#69787E"/>
<path d="M58.6706 71.9629H58.043L58.1074 71.4022H58.7353L58.6706 71.9629Z" fill="#69787E"/>
<path d="M59.5378 71.9629H58.9102L58.9746 71.4022H59.6025L59.5378 71.9629Z" fill="#69787E"/>
<path d="M35.0914 55.7031C35.0275 55.7031 34.9634 55.6833 34.9108 55.6424L34.2246 55.1102C34.1062 55.0186 34.0913 54.8563 34.191 54.7478C34.2904 54.6392 34.4674 54.6253 34.5856 54.7169L35.272 55.2491C35.3902 55.3409 35.4053 55.503 35.3054 55.6116C35.2502 55.672 35.1709 55.7031 35.0914 55.7031Z" fill="#4870C0"/>
<path d="M38.6016 58.4141C38.5377 58.4141 38.4736 58.3943 38.4212 58.3536C37.6768 57.7769 36.931 57.202 36.1827 56.6297C36.064 56.5389 36.048 56.3765 36.1469 56.2675C36.2457 56.1579 36.4224 56.1438 36.5412 56.2343C37.2903 56.8077 38.037 57.3831 38.7822 57.9601C38.9004 58.0519 38.9155 58.2142 38.8158 58.3225C38.7604 58.3829 38.6811 58.4141 38.6016 58.4141Z" fill="#4870C0"/>
<path d="M41.4053 60.5957C41.3412 60.5957 41.2767 60.5756 41.2241 60.5345L39.8958 59.4978C39.7779 59.4058 39.7633 59.2434 39.8633 59.1352C39.9633 59.0271 40.14 59.0135 40.2579 59.1053L41.587 60.1427C41.7047 60.2348 41.719 60.3971 41.6187 60.5054C41.5635 60.5651 41.4845 60.5957 41.4053 60.5957Z" fill="#4870C0"/>
<path d="M47.4596 65.3184C47.3957 65.3184 47.3319 65.2986 47.2792 65.2577C45.721 64.0528 44.1703 62.8397 42.6196 61.6266L42.5516 61.5734C42.4339 61.4813 42.4197 61.319 42.5199 61.2107C42.6202 61.1021 42.7972 61.0892 42.9148 61.1816L42.9828 61.2351C44.5327 62.4477 46.0825 63.6597 47.6399 64.8644C47.7584 64.9559 47.7735 65.118 47.6738 65.2265C47.6186 65.2872 47.5394 65.3184 47.4596 65.3184Z" fill="#4870C0"/>
<path d="M50.2851 67.4844C50.2221 67.4844 50.1588 67.4648 50.1067 67.4252C49.6584 67.0849 49.2111 66.7437 48.7647 66.4014C48.6459 66.3104 48.63 66.1481 48.7291 66.0393C48.8283 65.9299 49.0047 65.9153 49.1234 66.0063C49.5693 66.3484 50.0163 66.689 50.4635 67.0288C50.5828 67.1193 50.5996 67.2816 50.5011 67.3909C50.4456 67.4524 50.3655 67.4844 50.2851 67.4844Z" fill="#4870C0"/>
<path d="M46.6749 51.5684C46.5687 51.5684 46.4671 51.5125 46.42 51.4181L46.0411 50.6567C45.9767 50.5276 46.0386 50.3748 46.1792 50.3159C46.3198 50.2567 46.4861 50.3136 46.5503 50.4427L46.9295 51.2041C46.9939 51.3333 46.9317 51.4858 46.7914 51.545C46.7536 51.5606 46.7138 51.5684 46.6749 51.5684Z" fill="#4870C0"/>
<path d="M49.1756 56.4805C49.0692 56.4805 48.9675 56.4247 48.9205 56.3295C48.3287 55.1323 47.7946 54.0939 47.2872 53.1555C47.2183 53.0282 47.2748 52.8738 47.4135 52.8108C47.5524 52.7473 47.7201 52.7995 47.7887 52.9268C48.299 53.8706 48.8362 54.9139 49.4304 56.117C49.4943 56.2464 49.4321 56.3989 49.2912 56.4576C49.2537 56.4733 49.2142 56.4805 49.1756 56.4805Z" fill="#4870C0"/>
<path d="M50.6927 59.6172C50.5851 59.6172 50.482 59.5596 50.4361 59.4631C50.2317 59.0348 50.027 58.6068 49.8208 58.1793C49.7584 58.0494 49.8222 57.8974 49.9637 57.8402C50.1051 57.7824 50.2703 57.841 50.3333 57.9712C50.5395 58.3992 50.7445 58.8278 50.9492 59.2566C51.0111 59.3867 50.9467 59.5385 50.805 59.5956C50.7685 59.61 50.7302 59.6172 50.6927 59.6172Z" fill="#4870C0"/>
<path d="M53.9439 66.1611C53.8408 66.1611 53.7414 66.1086 53.6927 66.0178C52.7744 64.3131 51.918 62.5547 51.1293 60.9084C51.0669 60.7785 51.1313 60.627 51.2727 60.5697C51.4141 60.5126 51.5797 60.5712 51.6421 60.7016C52.428 62.342 53.2813 64.094 54.1948 65.7898C54.2632 65.9173 54.2066 66.0713 54.068 66.1346C54.0279 66.1526 53.9856 66.1611 53.9439 66.1611Z" fill="#4870C0"/>
<path d="M57.3269 52.6797C57.1723 52.6797 57.0469 52.5647 57.0469 52.4225V49.7239C57.0469 49.5816 57.1723 49.4666 57.3269 49.4666C57.4818 49.4666 57.607 49.5816 57.607 49.7239V52.4225C57.607 52.5647 57.4818 52.6797 57.3269 52.6797Z" fill="#4870C0"/>
<path d="M57.3424 55.7705C57.1889 55.7705 57.0637 55.6568 57.0623 55.5153C57.0578 55.0647 57.0528 54.614 57.0469 54.1636C57.0452 54.0216 57.169 53.9051 57.3236 53.9033C57.4768 53.9102 57.605 54.0149 57.607 54.1574C57.6129 54.6086 57.6179 55.0598 57.6224 55.511C57.6238 55.653 57.4995 55.7692 57.3449 55.7705H57.3424Z" fill="#4870C0"/>
<path d="M57.3576 62.7988H57.3562C57.2017 62.7981 57.0768 62.6823 57.0776 62.5403C57.0871 60.7513 57.086 58.9057 57.0742 57.0551C57.0731 56.9132 57.198 56.7971 57.3526 56.7964H57.3543C57.5083 56.7964 57.6335 56.9103 57.6343 57.0521C57.6461 58.9044 57.6472 60.7518 57.6377 62.5429C57.6369 62.6846 57.5117 62.7988 57.3576 62.7988Z" fill="#4870C0"/>
<path d="M57.327 66.1611H57.3236C57.169 66.1593 57.0449 66.0428 57.0469 65.9008C57.0539 65.37 57.0601 64.8389 57.0651 64.3083C57.0665 64.166 57.1984 64.0479 57.3477 64.0533C57.5023 64.0546 57.6266 64.1706 57.6252 64.3129C57.6202 64.844 57.614 65.3755 57.607 65.9069C57.6051 66.0482 57.4801 66.1611 57.327 66.1611Z" fill="#4870C0"/>
<path d="M67.6158 55.4238C67.5665 55.4238 67.5169 55.412 67.4715 55.3868C67.3391 55.3135 67.2962 55.1555 67.3763 55.0336L68.2112 53.7621C68.291 53.6402 68.4632 53.6011 68.5957 53.6747C68.7281 53.748 68.7707 53.9062 68.6909 54.0278L67.856 55.2993C67.8034 55.3796 67.7107 55.4238 67.6158 55.4238Z" fill="#4870C0"/>
<path d="M63.7604 61.2109C63.7119 61.2109 63.6632 61.1994 63.6184 61.1752C63.4851 61.1032 63.4408 60.9457 63.5192 60.823C64.3213 59.5724 65.3875 57.932 66.522 56.3351C66.6063 56.2163 66.7799 56.1829 66.9093 56.2603C67.039 56.338 67.0754 56.4975 66.9908 56.6166C65.8628 58.2047 64.8011 59.8384 64.0021 61.0844C63.9497 61.1657 63.8564 61.2109 63.7604 61.2109Z" fill="#4870C0"/>
<path d="M61.9596 64.0332C61.9111 64.0332 61.8624 64.0216 61.8176 63.9974C61.6843 63.9254 61.64 63.7677 61.7185 63.6453C62.0066 63.1959 62.2937 62.7458 62.5805 62.2954C62.6583 62.1724 62.83 62.1312 62.9636 62.203C63.0969 62.2748 63.142 62.4325 63.0639 62.5552C62.7768 63.0058 62.4897 63.4565 62.2013 63.9064C62.1489 63.9879 62.0557 64.0332 61.9596 64.0332Z" fill="#4870C0"/>
<path d="M60.2993 66.5684C60.2489 66.5684 60.1982 66.5561 60.1523 66.5301C60.0207 66.4552 59.9801 66.2968 60.0616 66.1759C60.2935 65.8314 60.5231 65.4857 60.7508 65.1389C60.8309 65.0171 61.0028 64.978 61.1353 65.0515C61.2678 65.1249 61.3103 65.2828 61.2305 65.4047C61.0017 65.753 60.7709 66.1007 60.5377 66.4468C60.4847 66.5251 60.3932 66.5684 60.2993 66.5684Z" fill="#4870C0"/>
<path d="M35.0915 55.7031C35.0276 55.7031 34.9635 55.6833 34.9108 55.6424L34.2247 55.1102C34.1589 55.0593 34.125 54.9867 34.125 54.9137C34.125 54.855 34.1466 54.7961 34.1911 54.7478C34.2463 54.6876 34.3255 54.6565 34.4053 54.6565C34.4689 54.6565 34.533 54.6763 34.5857 54.7169L35.2721 55.2491C35.3376 55.3 35.3715 55.3726 35.3715 55.4456C35.3718 55.5043 35.35 55.5635 35.3054 55.6116C35.2503 55.672 35.171 55.7031 35.0915 55.7031Z" fill="#F88DB4"/>
<path d="M38.6017 58.4141C38.5379 58.4141 38.4737 58.3943 38.4214 58.3536C37.677 57.7769 36.9312 57.202 36.1829 56.6297C36.1165 56.579 36.0823 56.5059 36.082 56.4324C36.082 56.3742 36.1033 56.3156 36.147 56.2675C36.2022 56.2063 36.282 56.1749 36.3621 56.1749C36.4254 56.1749 36.489 56.1944 36.5413 56.2343C37.2905 56.8077 38.0371 57.3831 38.7823 57.9601C38.8479 58.011 38.8818 58.0835 38.8818 58.1566C38.8821 58.2152 38.8602 58.2744 38.816 58.3225C38.7605 58.3829 38.6812 58.4141 38.6017 58.4141Z" fill="#F88DB4"/>
<path d="M41.4052 60.5977C41.3411 60.5977 41.2767 60.5776 41.2241 60.5364L39.8957 59.4998C39.8302 59.4486 39.7966 59.3761 39.7969 59.303C39.7969 59.2444 39.8187 59.1852 39.8633 59.1371C39.9184 59.0772 39.9974 59.0463 40.0769 59.0463C40.1411 59.0463 40.2052 59.0664 40.2579 59.1073L41.587 60.1447C41.6517 60.1953 41.6853 60.2674 41.6856 60.3399C41.6856 60.3991 41.6637 60.4588 41.6187 60.5074C41.5635 60.567 41.4845 60.5977 41.4052 60.5977Z" fill="#F88DB4"/>
<path d="M47.4597 65.3174C47.3959 65.3174 47.332 65.2976 47.2794 65.2567C45.7211 64.0518 44.1704 62.8387 42.6198 61.6256L42.5517 61.5724C42.4867 61.5217 42.4534 61.4497 42.4531 61.3771C42.4531 61.318 42.475 61.2583 42.5201 61.2097C42.5755 61.1497 42.6542 61.1191 42.7335 61.1191C42.7976 61.1191 42.8623 61.1392 42.9149 61.1806L42.983 61.2341C44.5328 62.4467 46.0827 63.6588 47.6401 64.8634C47.7059 64.914 47.7398 64.9866 47.7398 65.0596C47.7401 65.1183 47.7185 65.1772 47.674 65.2256C47.6188 65.2862 47.5395 65.3174 47.4597 65.3174Z" fill="#F88DB4"/>
<path d="M50.285 67.4844C50.222 67.4844 50.1587 67.4648 50.1066 67.4252C49.6583 67.0849 49.211 66.7437 48.7646 66.4014C48.6982 66.3505 48.6641 66.2774 48.6641 66.2039C48.6641 66.1457 48.6853 66.0873 48.729 66.0393C48.7845 65.978 48.864 65.9466 48.9441 65.9466C49.0074 65.9466 49.071 65.9662 49.1234 66.0063C49.5692 66.3484 50.0162 66.689 50.4634 67.0288C50.5306 67.0797 50.5651 67.1533 50.5651 67.2274C50.5651 67.2852 50.5441 67.3431 50.501 67.3909C50.4455 67.4524 50.3654 67.4844 50.285 67.4844Z" fill="#F88DB4"/>
<path d="M46.6749 51.5674C46.5687 51.5674 46.4671 51.5116 46.42 51.4172L46.0411 50.6558C46.0237 50.6208 46.0156 50.5842 46.0156 50.5485C46.0156 50.451 46.0764 50.3579 46.1792 50.3149C46.217 50.299 46.2565 50.2915 46.2954 50.2915C46.4018 50.2915 46.5032 50.3471 46.5503 50.4417L46.9295 51.2031C46.9468 51.2379 46.9549 51.2744 46.9549 51.3104C46.9547 51.4076 46.8939 51.5008 46.7914 51.544C46.7536 51.5597 46.7138 51.5674 46.6749 51.5674Z" fill="#F88DB4"/>
<path d="M49.1754 56.4805C49.069 56.4805 48.9673 56.4247 48.9202 56.3295C48.3285 55.1323 47.7944 54.0939 47.2869 53.1555C47.2671 53.1187 47.2575 53.0796 47.2578 53.0413C47.2578 52.9466 47.3147 52.8556 47.4133 52.8108C47.4533 52.7923 47.4959 52.7838 47.5379 52.7838C47.6409 52.7838 47.7398 52.8363 47.7885 52.9268C48.2988 53.8706 48.8359 54.9139 49.4302 56.117C49.4473 56.1515 49.4554 56.1875 49.4554 56.2227C49.4554 56.3207 49.3944 56.4144 49.291 56.4576C49.2535 56.4733 49.214 56.4805 49.1754 56.4805Z" fill="#F88DB4"/>
<path d="M50.6925 59.6172C50.585 59.6172 50.4819 59.5596 50.436 59.4631C50.2315 59.0348 50.0268 58.6068 49.8207 58.1793C49.8044 58.1453 49.7966 58.1098 49.7969 58.0748C49.7969 57.9763 49.8591 57.8824 49.9635 57.8402C50.0005 57.8251 50.0391 57.8179 50.0769 57.8179C50.1842 57.8179 50.2867 57.875 50.3332 57.9712C50.5393 58.3992 50.7443 58.8278 50.949 59.2566C50.965 59.2903 50.9726 59.3252 50.9726 59.3597C50.9726 59.4587 50.9101 59.5531 50.8048 59.5956C50.7684 59.61 50.73 59.6172 50.6925 59.6172Z" fill="#F88DB4"/>
<path d="M53.9439 66.1602C53.8408 66.1602 53.7414 66.1076 53.6926 66.0169C52.7743 64.3121 51.9179 62.5537 51.1293 60.9075C51.113 60.874 51.1055 60.839 51.1055 60.8046C51.1052 60.7058 51.1676 60.6111 51.2727 60.5687C51.3094 60.5538 51.3477 60.5468 51.3855 60.5468C51.4931 60.5468 51.5958 60.6039 51.6421 60.7007C52.4279 62.341 53.2812 64.093 54.1948 65.7889C54.2147 65.8258 54.2239 65.8648 54.2239 65.9031C54.2236 65.9978 54.1665 66.0886 54.0679 66.1336C54.0279 66.1516 53.9856 66.1602 53.9439 66.1602Z" fill="#F88DB4"/>
<path d="M57.3269 52.6787C57.1723 52.6787 57.0469 52.5637 57.0469 52.4215V49.7229C57.0469 49.5806 57.1723 49.4657 57.3269 49.4657C57.4818 49.4657 57.607 49.5806 57.607 49.7229V52.4215C57.607 52.5637 57.4818 52.6787 57.3269 52.6787Z" fill="#F88DB4"/>
<path d="M57.3449 55.7695H57.3423C57.1889 55.7695 57.0637 55.6558 57.0623 55.5144C57.0578 55.0637 57.0528 54.613 57.0469 54.1626C57.0469 54.1613 57.0469 54.1603 57.0469 54.1593C57.0472 54.0188 57.1701 53.9041 57.3236 53.9023C57.4768 53.9092 57.605 54.0139 57.607 54.1564C57.6129 54.6076 57.6179 55.0588 57.6224 55.51C57.6224 55.5105 57.6224 55.511 57.6224 55.5115C57.6227 55.6527 57.4989 55.7682 57.3449 55.7695Z" fill="#F88DB4"/>
<path d="M57.3576 62.7979H57.3562C57.2022 62.7971 57.0779 62.6821 57.0776 62.5411C57.0776 62.5404 57.0776 62.5398 57.0776 62.5393C57.0818 61.7427 57.084 60.9347 57.084 60.1201C57.084 59.1056 57.0807 58.0805 57.0742 57.0542C57.0742 57.0537 57.0742 57.0529 57.0742 57.0524C57.0742 56.9114 57.1986 56.7962 57.3526 56.7954H57.3543C57.5083 56.7954 57.6335 56.9093 57.6343 57.0511C57.6408 58.0787 57.6441 59.1045 57.6441 60.1201C57.6441 60.9355 57.6419 61.7442 57.6377 62.5419C57.6369 62.6836 57.5117 62.7979 57.3576 62.7979Z" fill="#F88DB4"/>
<path d="M57.3269 66.1602H57.3236C57.1701 66.1583 57.0469 66.0436 57.0469 65.9031C57.0469 65.9021 57.0469 65.9011 57.0469 65.8998C57.0539 65.3691 57.06 64.8379 57.0651 64.3073C57.0665 64.1681 57.1928 64.0521 57.3381 64.0521C57.3412 64.0521 57.3446 64.0521 57.3477 64.0524C57.5017 64.0536 57.6258 64.1686 57.6252 64.3101C57.6252 64.3106 57.6252 64.3111 57.6252 64.3119C57.6202 64.8431 57.614 65.3745 57.607 65.9059C57.605 66.0472 57.4801 66.1602 57.3269 66.1602Z" fill="#F88DB4"/>
<path d="M67.6157 55.4258C67.5664 55.4258 67.5169 55.4139 67.4715 55.3887C67.3841 55.3404 67.3357 55.255 67.3359 55.1675C67.3359 55.1225 67.3491 55.077 67.3763 55.0356L68.2111 53.7641C68.2638 53.6838 68.3562 53.6396 68.4511 53.6396C68.5004 53.6396 68.5503 53.6514 68.5956 53.6766C68.683 53.725 68.7315 53.8104 68.7312 53.8978C68.7309 53.9429 68.718 53.9884 68.6909 54.0298L67.856 55.3013C67.8034 55.3815 67.7107 55.4258 67.6157 55.4258Z" fill="#F88DB4"/>
<path d="M63.7603 61.209C63.7118 61.209 63.6631 61.1974 63.6183 61.1732C63.5298 61.1254 63.4805 61.04 63.4805 60.952C63.4802 60.9075 63.4928 60.8622 63.5191 60.8211C64.3212 59.5704 65.3874 57.9301 66.5219 56.3332C66.5754 56.2576 66.6653 56.2167 66.7566 56.2167C66.8092 56.2167 66.8622 56.23 66.9092 56.2583C66.9918 56.3077 67.0366 56.3903 67.0364 56.4747C67.0364 56.5228 67.0215 56.5714 66.9907 56.6146C65.8626 58.2027 64.8009 59.8364 64.0019 61.0824C63.9496 61.1637 63.8563 61.209 63.7603 61.209Z" fill="#F88DB4"/>
<path d="M61.9595 64.0342C61.911 64.0342 61.8623 64.0226 61.8175 63.9984C61.808 63.9933 61.7987 63.9876 61.79 63.9814C61.7612 63.9614 61.7379 63.9372 61.72 63.9099C61.6937 63.8698 61.6797 63.8238 61.6797 63.7769C61.6794 63.7324 61.692 63.6874 61.7183 63.6463C62.0065 63.1969 62.2936 62.7467 62.5804 62.2963C62.6322 62.2143 62.726 62.1687 62.822 62.1687C62.8702 62.1687 62.9189 62.1801 62.9635 62.204C63.0525 62.2518 63.1024 62.3383 63.1021 62.4267C63.1021 62.4707 63.0898 62.5152 63.0637 62.5561C62.7767 63.0068 62.4896 63.4575 62.2012 63.9074C62.1488 63.9889 62.0555 64.0342 61.9595 64.0342Z" fill="#F88DB4"/>
<path d="M60.2993 66.5684C60.2489 66.5684 60.1982 66.5561 60.1523 66.5301C60.0663 66.4812 60.0193 66.3968 60.0195 66.3104C60.0195 66.2643 60.0333 66.2178 60.0615 66.1759C60.2934 65.8314 60.5231 65.4857 60.7508 65.1389C60.8034 65.0588 60.8961 65.0142 60.9908 65.0142C61.0401 65.0142 61.0902 65.0263 61.1353 65.0515C61.2227 65.0998 61.2711 65.1853 61.2708 65.2728C61.2708 65.3178 61.2577 65.3633 61.2305 65.4047C61.0017 65.753 60.7709 66.1007 60.5376 66.4468C60.4847 66.5251 60.3931 66.5684 60.2993 66.5684Z" fill="#F88DB4"/>
<path d="M109.415 50.6625C109.415 50.6625 109.125 51.1033 109.088 51.4635C109.06 51.7487 108.801 52.1747 108.69 52.4099C108.578 52.6451 108.218 53.7101 108.205 53.9869C108.2 54.1008 108.472 54.8148 108.433 55.0436C108.394 55.2723 108.254 55.7242 108.475 55.7547C108.696 55.7844 108.946 55.414 108.946 55.414C108.946 55.414 108.925 55.6242 109.113 55.7038C109.476 55.8603 109.669 55.7233 109.669 55.7233C109.669 55.7233 109.803 55.9538 109.972 55.9853C110.343 56.0539 110.525 55.9159 110.525 55.9159C110.525 55.9159 110.689 56.0455 110.945 56.0409C111.273 56.0353 111.411 55.7723 111.411 55.7723C111.411 55.7723 111.827 55.8501 111.948 55.6705C112.068 55.4899 112.047 55.2982 112.097 55.1352C112.148 54.9722 112.11 53.4998 111.57 52.4386C111.031 51.3783 111.707 50.3448 111.707 50.3448L109.415 50.6625Z" fill="#EEA886"/>
<path d="M108.885 55.2775C108.885 55.2775 108.849 53.956 109.223 53.6745C109.598 53.393 109.641 53.8699 109.641 53.8699C109.641 53.8699 109.59 53.3986 109.999 53.3347C110.408 53.2717 110.426 53.831 110.426 53.831C110.426 53.831 110.493 53.468 110.923 53.5421C111.353 53.6171 111.251 54.0811 111.251 54.0811C111.251 54.0811 111.662 53.6264 111.928 54.0635C112.378 54.8006 111.945 55.672 111.945 55.672C111.945 55.672 111.818 55.8711 111.408 55.7739C111.408 55.7739 111.135 56.286 110.522 55.9174C110.522 55.9174 109.894 56.2378 109.666 55.7248C109.666 55.7248 108.975 56.0294 108.885 55.2775Z" fill="#DB9C7C"/>
<path d="M104.581 31.6278C104.581 31.6278 107.019 39.1676 107.843 41.9485C108.101 42.8208 108.726 51.1496 108.837 51.4848C108.947 51.821 112.039 52.2803 112.039 52.2803C112.039 52.2803 111.665 41.8605 111.63 41.2919C111.595 40.7233 108.218 29.0877 107.236 28.6719C106.5 28.3617 106.111 28.6182 105.184 29.2571C103.884 30.1535 104.581 31.6278 104.581 31.6278Z" fill="#323657"/>
<path d="M77.7051 19.6611L77.9766 19.2768L72.3969 15.8875L72.1255 16.2718L77.7051 19.6611Z" fill="#4DA8F2"/>
<path d="M74.3612 19.6269C74.3612 19.6269 74.4141 19.9204 74.5049 20.0371C74.5049 20.0371 74.6875 20.2399 74.8083 20.3909C74.8462 20.439 74.8781 20.4816 74.8951 20.5112C74.969 20.6344 75.0907 20.9252 75.3562 21.1752C75.6216 21.4262 76.6575 22.2207 76.6575 22.2207L77.5437 21.5225L78.4648 21.14C78.4648 21.14 77.9489 19.0601 77.7303 18.8008C77.7094 18.7749 77.6864 18.7508 77.6645 18.7295C77.4559 18.5267 77.2094 18.4564 77.0866 18.3619C77.0417 18.3267 76.5687 18.01 76.3991 18.0508C76.1655 18.1072 76.0268 18.235 75.9739 18.3804C75.9739 18.3804 75.5198 18.5101 75.3432 18.7564C75.3432 18.7564 74.9211 18.8638 74.7953 19.2287C74.7953 19.2287 74.3792 19.3824 74.3612 19.6269Z" fill="#EFAA88"/>
<path d="M106.56 83.1019C106.56 83.1019 106.783 84.5336 106.811 84.7484C106.838 84.9632 109.283 84.6215 109.283 84.6215L109.48 82.9176C109.48 82.9176 106.866 82.9 106.56 83.1019Z" fill="#424773"/>
<path d="M106.785 84.5672C106.785 84.5672 106.011 85.4303 105.262 85.8062C104.512 86.1822 103.335 86.3304 102.892 86.7202C102.573 87.0008 101.728 88.2102 104.839 88.1852C107.95 88.1611 109.45 88.3565 109.783 87.8926C110.117 87.4286 109.3 84.4709 109.3 84.4709C109.3 84.4709 108.564 84.7163 106.785 84.5672Z" fill="#292C47"/>
<path d="M89.0487 83.1019C89.0487 83.1019 89.2712 84.5336 89.2992 84.7484C89.3271 84.9632 91.7712 84.6215 91.7712 84.6215L91.9688 82.9176C91.9688 82.9176 89.3551 82.9 89.0487 83.1019Z" fill="#424773"/>
<path d="M89.2697 84.5663C89.2697 84.5663 88.4953 85.4294 87.7458 85.8054C86.9973 86.1813 84.241 86.4897 83.7979 86.8786C83.4785 87.1602 82.9466 88.2908 87.3237 88.1844C90.4333 88.1093 91.9343 88.3557 92.2676 87.8917C92.6009 87.4278 91.7856 84.47 91.7856 84.47C91.7856 84.47 91.091 84.7321 89.2697 84.5663Z" fill="#292C47"/>
<path d="M104.537 46.3271C104.537 46.3271 106.833 49.7137 106.663 52.7742C106.491 55.8348 107.495 59.1759 107.84 62.3735C108.224 65.9378 109.798 74.3759 109.856 76.2826C109.913 78.1893 109.612 84.2771 109.612 84.2771L106.461 84.3438C106.461 84.3438 103.814 69.592 103.129 68.0872C102.443 66.5814 99.0452 55.8505 98.9304 54.6467C98.8166 53.4428 104.537 46.3271 104.537 46.3271Z" fill="#292C47"/>
<path d="M92.4464 46.7864C92.4464 46.7864 90.7149 55.1745 90.4864 57.0479C90.2579 58.9212 90.1062 66.1138 89.9914 67.2843C89.8776 68.4548 88.9246 82.5695 88.6212 84.3438H92.649C92.649 84.3438 95.7407 74.0583 95.7407 69.191C95.7407 64.3237 98.1298 58.6101 99.6717 55.3995C101.214 52.188 104.743 52.1121 105.691 46.154C105.691 46.154 93.7288 44.8964 92.4464 46.7864Z" fill="#292C47"/>
<path d="M100.704 17.8595C100.704 17.8595 97.6209 16.7918 96.1998 18.9689C94.7777 21.1461 94.9154 25.5058 96.4692 26.042C98.023 26.5773 100.356 26.2976 101.153 24.9345C101.948 23.5723 102.666 21.6026 102.632 20.2867C102.597 18.9699 101.513 18.2401 100.704 17.8595Z" fill="#EEA886"/>
<path d="M96.8063 26.1437C96.8063 26.1437 96.9341 26.9161 96.7225 27.2967C96.5109 27.6773 100.716 27.6865 100.716 27.6865C100.716 27.6865 101.058 25.6178 101.705 23.8694C102.352 22.121 96.8063 26.1437 96.8063 26.1437Z" fill="#EEA886"/>
<path d="M101.704 23.8678C101.704 23.8678 101.414 24.3123 100.228 24.14C99.0436 23.9669 97.5986 22.5046 97.1036 22.3435C96.6086 22.1833 96.6036 21.9138 96.6036 21.9138L96.2942 22.3333L95.7693 22.3639C95.7693 22.3639 96.2483 21.0554 95.5248 20.522C94.8023 19.9886 96.2753 16.2863 100.076 17.5189C100.076 17.5189 102.994 18.2652 102.888 19.8062C102.782 21.3462 102.357 23.101 101.704 23.8678Z" fill="#D88A51"/>
<path d="M96.468 27.2504C96.468 27.2504 96.481 26.5234 96.8363 26.4531C97.1916 26.3836 100.755 26.066 101.191 26.2243V27.0717C101.191 27.0717 100.351 27.5513 96.468 27.2504Z" fill="#E2D2CA"/>
<path d="M96.6813 21.3549C96.7481 21.0965 97.4557 20.3575 97.7272 21.1484C97.9976 21.9392 97.317 23.0023 96.9378 22.9115C96.5575 22.8199 96.5126 22.0096 96.6813 21.3549Z" fill="#EEA886"/>
<path d="M90.5759 28.3512C93.019 28.0521 96.4709 27.2502 96.4709 27.2502L101.194 27.0724C101.194 27.0724 105.529 27.9577 107.237 28.6726C107.399 28.7411 107.4 32.2619 107.844 33.1852L106.429 35.9559C106.429 35.9559 105.61 41.4454 105.441 43.8864C105.363 45.007 107.127 54.3951 107.127 54.3951C107.127 54.3951 105.237 54.9119 102.014 55.2415C98.7892 55.5712 90.7346 55.1221 90.6837 54.7683C90.6328 54.4155 92.2435 41.6121 92.3154 40.95C92.4242 39.9323 91.9372 34.5242 91.9372 34.5242C91.1927 33.989 84.657 31.1738 82.8746 29.707C82.3976 29.3143 80.3837 27.4947 79.8109 26.8668C77.784 24.6425 76.1224 22.7339 75.9198 22.3227C75.6903 22.0885 78.1742 20.8457 78.3948 20.7781C78.5884 20.7179 81.2769 24.0285 82.3307 25.0888C82.8018 25.5611 84.7568 26.8807 84.7568 26.8807C84.7568 26.8807 89.0471 28.4327 90.5759 28.3512Z" fill="#323657"/>
<path d="M101.58 18.1174C101.58 18.1174 105.51 18.4026 101.701 23.8672L101.58 18.1174Z" fill="#D88A51"/>
<path d="M11.8581 31.4013C11.6185 30.6213 11.1247 30.1802 10.657 29.5293C10.657 29.5293 10.6128 29.2603 11.2011 29.2095C11.7141 29.0298 12.4225 29.0641 12.9954 28.9711C13.2296 28.9332 13.4597 28.8916 13.6773 28.8385C13.7085 28.831 13.7394 28.8231 13.77 28.815C13.7832 28.8117 13.796 28.8081 13.8088 28.8045C13.845 28.7947 13.8805 28.7842 13.9159 28.7734C13.9287 28.7698 13.9414 28.7659 13.9539 28.7616C13.9967 28.7482 14.0388 28.7341 14.0801 28.719C14.1269 28.702 14.1725 28.6843 14.2175 28.6653C14.5759 28.5138 14.8688 28.2933 15.0452 27.9476C15.058 27.9227 15.0699 27.8916 15.0811 27.8549C15.0833 27.8468 15.0858 27.8383 15.0883 27.8298C15.0914 27.8183 15.0945 27.8062 15.0976 27.7941C15.1004 27.7829 15.1029 27.7715 15.1057 27.7597C15.1154 27.7158 15.1248 27.6673 15.1329 27.615C15.1342 27.6078 15.1354 27.6002 15.1364 27.5927C15.1379 27.5852 15.1389 27.5776 15.1398 27.5698C15.141 27.5622 15.1423 27.5544 15.1432 27.5465C15.1448 27.537 15.146 27.5275 15.1473 27.518C15.1491 27.5036 15.151 27.4889 15.1529 27.4741C15.1538 27.4673 15.1548 27.4604 15.1554 27.4535C15.1592 27.4221 15.1629 27.3897 15.166 27.3563C15.1667 27.3514 15.1673 27.3465 15.1676 27.3416C15.1717 27.302 15.1754 27.261 15.1786 27.2194C15.1792 27.2152 15.1795 27.2106 15.1798 27.2064C15.1804 27.1978 15.1811 27.1893 15.1817 27.1811C15.1826 27.1697 15.1835 27.1579 15.1841 27.1464C15.1876 27.1009 15.1907 27.0544 15.1932 27.0073C15.2007 26.873 15.2057 26.7332 15.2085 26.5931C15.2088 26.579 15.2088 26.5645 15.2092 26.5505C15.2092 26.5443 15.2094 26.5381 15.2094 26.5318C15.2101 26.4876 15.2104 26.4431 15.2104 26.3992C15.2104 26.3675 15.2104 26.336 15.2101 26.3046C15.2086 26.1628 14.9899 25.9141 14.9399 25.7694C14.8905 25.6266 14.8099 25.5631 14.7711 25.424C14.6744 25.0765 14.4355 24.8405 14.2061 24.5936C13.9681 24.3375 13.7887 24.0734 13.6687 23.7327C13.5972 23.5297 13.5097 23.1634 13.6291 22.9599C13.8232 22.629 14.2317 22.8989 14.5041 22.9288C14.5157 22.7821 14.5118 22.6334 14.5276 22.4873C14.6016 21.7991 15.0949 21.2984 15.7328 21.0724C16.8218 20.6896 18.253 21.1293 19.0441 21.9507C19.5043 22.4286 19.5287 22.9673 19.3499 23.5848C19.1891 24.1402 19.56 25.2858 19.3514 25.8155C19.1663 26.2858 18.918 27.1307 18.6852 27.5834C18.238 28.4529 17.4897 28.2145 17.4531 29.2095C17.4525 29.2266 17.4522 29.2436 17.4522 29.2603C17.4522 29.2802 17.4525 29.2999 17.4534 29.3196C17.4541 29.3392 17.4553 29.3586 17.4569 29.3778C17.4578 29.3913 17.459 29.4044 17.4606 29.4175C17.4609 29.4221 17.4612 29.4267 17.4618 29.4309C17.4625 29.4385 17.4634 29.446 17.4647 29.4535C17.4662 29.4669 17.4681 29.48 17.47 29.4931C17.4725 29.5095 17.4753 29.5252 17.4781 29.5413C17.4863 29.5842 17.4959 29.6264 17.5071 29.6683C17.5112 29.6837 17.5156 29.6991 17.5202 29.7145C17.5349 29.7633 17.5515 29.8117 17.5702 29.8595C17.5736 29.8677 17.5768 29.8759 17.5802 29.8841C17.5858 29.8979 17.5915 29.9113 17.5971 29.9244C17.6002 29.9316 17.6033 29.9391 17.6068 29.9463C17.6114 29.9568 17.6161 29.9669 17.6208 29.9775C17.6254 29.9876 17.6305 29.9981 17.6354 30.0082C17.7057 30.1536 17.7925 30.2947 17.8905 30.4336C17.8962 30.4414 17.9021 30.4496 17.9077 30.4575C17.9149 30.4673 17.9218 30.4771 17.929 30.4869C17.943 30.5063 17.9577 30.5259 17.972 30.5452C17.9795 30.555 17.9867 30.5649 17.9942 30.5743C18.0161 30.6035 18.0389 30.6326 18.062 30.6618C18.0926 30.7004 18.1238 30.7391 18.1556 30.7777C18.1631 30.7872 18.1713 30.7967 18.1794 30.8065C18.1953 30.8258 18.2116 30.8452 18.2278 30.8645C18.244 30.8835 18.2603 30.9028 18.2765 30.9221C18.2918 30.9401 18.307 30.9578 18.3224 30.9758C18.3317 30.9866 18.3414 30.9977 18.3508 31.0088C18.3751 31.0373 18.3995 31.0655 18.4242 31.094C18.4582 31.1329 18.4922 31.1726 18.5263 31.2122C18.56 31.2512 18.5934 31.2901 18.6269 31.3294C18.6318 31.335 18.6368 31.3409 18.6415 31.3467C18.6534 31.3605 18.6652 31.3743 18.6768 31.388C18.6937 31.408 18.7105 31.428 18.7271 31.4479C18.7555 31.482 18.7836 31.516 18.8114 31.5504C18.8254 31.5674 18.8395 31.5844 18.8529 31.6018C18.867 31.6188 18.8804 31.6362 18.8938 31.6536C18.9213 31.6883 18.9482 31.7233 18.9744 31.7583C18.9953 31.7858 19.0156 31.8137 19.0359 31.8415C19.0437 31.8517 19.0509 31.8621 19.0583 31.8726C19.073 31.8936 19.0877 31.9142 19.1021 31.9355C19.1105 31.9477 19.119 31.9597 19.127 31.9722C19.1514 32.0085 19.1752 32.0449 19.1979 32.0819C19.2095 32.1002 19.2211 32.1188 19.2319 32.1372C19.2432 32.1555 19.2541 32.1738 19.2651 32.1932C19.2757 32.2115 19.286 32.2298 19.296 32.2482C19.2981 32.2518 19.3 32.2554 19.3019 32.259C19.3106 32.275 19.3191 32.2908 19.3271 32.3068C19.3372 32.3261 19.3472 32.3451 19.3565 32.3644C19.3755 32.4031 19.3937 32.4424 19.4111 32.4817C19.4199 32.5013 19.428 32.5213 19.4362 32.5413C19.4442 32.5612 19.4518 32.5812 19.4596 32.6015C19.4671 32.6215 19.4742 32.6418 19.4814 32.6624C18.5285 32.8173 17.1888 33.6277 16.904 33.8048C16.5887 33.6084 14.9813 32.6369 14.0356 32.6369C13.6431 32.6369 13.2844 32.759 12.9803 32.9296C12.7261 33.0717 12.5104 33.2475 12.3455 33.4136C12.2983 33.4609 12.2564 33.5098 12.2186 33.5598C12.1546 32.8276 12.0713 32.095 11.8581 31.4013Z" fill="#EBB973"/>
<path d="M43.597 29.4871C43.4587 29.6928 40.7378 29.7756 40.7179 29.9702C40.6975 30.1656 41.584 30.0503 41.8055 30.1492C42.0269 30.248 42.1695 30.7194 42.1695 30.7194C42.1695 30.7194 39.7402 30.8652 39.509 30.7259C39.2779 30.5859 38.496 30.3807 38.496 30.3807C38.496 30.3807 29.9911 33.1521 28.9291 33.06C27.6412 32.9492 20.4683 32.3597 20.1692 32.326C20.1223 31.9584 21.8721 29.9811 21.5139 29.1198C21.0025 29.9645 27.9317 30.0875 28.56 29.9645C29.2237 29.8344 38.9445 28.9137 39.9252 28.7552C41.9415 28.4292 43.8288 29.1422 43.597 29.4871Z" fill="#EBB973"/>
<path d="M28.6294 86.7262C28.6294 86.7262 26.5688 88.2048 24.725 88.3248C22.8816 88.4448 22.2309 86.7262 20.821 86.7262C19.4111 86.7262 18.6519 88.2048 16.9548 88.3186C15.2574 88.4324 14.5308 86.9539 13.0543 86.8401C11.5775 86.7262 10.6267 87.7501 8.8915 87.7501C7.15628 87.7501 5.3125 86.2715 5.3125 86.2715C5.3125 86.2715 10.5443 84.4247 12.4796 78.0828C14.2151 72.3962 10.0843 53.5164 11.2102 46.4088C11.6805 43.4412 13.4392 41.5793 13.6434 41.3408H20.3452C20.5491 41.5793 22.526 43.4045 22.678 46.4088C22.7226 47.2914 22.7158 48.6198 22.6821 50.0843C22.6783 50.2528 22.6742 50.4233 22.6695 50.5949C22.5697 54.3883 22.3157 58.8317 22.3157 58.8317C22.1975 61.0885 21.3236 76.6015 21.3904 78.0828C21.6072 82.8883 28.6294 86.7262 28.6294 86.7262Z" fill="#E93779"/>
<path d="M22.1253 34.9219C22.1034 35.0896 22.0737 35.253 22.0443 35.4088C21.9408 35.9554 20.3322 41.3395 20.3322 41.3395H13.6759C13.6759 41.3395 13.4084 40.4962 13.0789 39.4432C12.6817 38.177 12.1951 36.6071 11.9756 35.8363C11.9168 35.6285 11.877 35.4791 11.8636 35.4087C11.8345 35.253 11.8044 35.0896 11.7829 34.9218C11.7365 34.5628 11.7267 34.1858 11.8371 33.8337C11.8691 33.73 11.9119 33.6285 11.9671 33.5303C11.9671 33.5303 11.9671 33.5303 11.9671 33.53C12.0249 33.4263 12.0971 33.3263 12.1856 33.2313C12.358 33.0456 12.5837 32.8489 12.8496 32.6899C13.1677 32.499 13.543 32.3623 13.9535 32.3623C14.9428 32.3623 16.6242 33.4493 16.9541 33.6692C17.252 33.4709 18.6534 32.5642 19.6502 32.3909C19.757 32.3726 19.8589 32.3623 19.9546 32.3623C20.3652 32.3623 20.7408 32.499 21.0586 32.6899C21.3244 32.8489 21.5498 33.0456 21.7222 33.2313C21.8107 33.3263 21.8829 33.4263 21.941 33.53V33.5303C22.1838 33.9623 22.1857 34.4573 22.1253 34.9219Z" fill="#E93779"/>
<path d="M19.5822 33.0786C19.3588 31.6253 17.4394 31.0886 17.184 29.5378C17.0765 28.8848 17.1535 28.3519 17.2741 27.7251C17.2553 27.8228 16.4029 27.6081 16.3137 27.5708C16.0286 27.4514 15.8412 27.3202 15.6757 27.0602C15.6334 26.9938 15.2592 26.3207 15.2823 26.3252C15.4575 26.3595 15.6146 26.5966 15.7594 26.7128C16.0118 26.9156 16.3637 27.1825 16.6632 27.3035C16.793 27.3559 17.8283 27.4773 17.8891 27.3755C17.6392 27.7942 17.5545 28.0451 17.5014 28.5295C17.4957 28.5818 17.4904 28.6351 17.4856 28.6895C17.4806 28.744 17.4763 28.7996 17.4722 28.8563C17.4643 28.9701 17.4581 29.0882 17.454 29.2112C17.4066 30.6389 19.3674 31.503 19.5822 33.0786Z" fill="#EBB973"/>
<path d="M21.9538 40.3536C18.144 41.6004 18.7697 36.7809 19.4859 34.0796C19.4959 34.0429 19.5053 34.0066 19.5153 33.9709C19.6495 33.4771 19.6149 33.0495 19.4813 32.6635C19.4744 32.6431 19.4672 32.6229 19.4594 32.6026C19.4519 32.5823 19.4441 32.5623 19.436 32.5423C19.4278 32.5224 19.4197 32.5024 19.411 32.4827C19.3938 32.4434 19.3757 32.4041 19.3563 32.3655C19.347 32.3462 19.337 32.3272 19.327 32.3079C19.3189 32.2918 19.3104 32.2761 19.3017 32.2601C19.2998 32.2565 19.2979 32.2529 19.2958 32.2493C19.2858 32.2309 19.2755 32.2126 19.2646 32.1936C19.2539 32.1749 19.243 32.1566 19.2318 32.1382C19.2209 32.1196 19.2096 32.1013 19.1978 32.0829C19.175 32.0459 19.1512 32.0096 19.1269 31.9732C19.1188 31.9608 19.1104 31.9487 19.1019 31.9366C19.0876 31.9153 19.0729 31.8946 19.0582 31.8737C19.0507 31.8632 19.0435 31.8528 19.0357 31.8426C19.0157 31.8148 18.9951 31.7869 18.9742 31.7594C18.948 31.7244 18.9211 31.6893 18.8936 31.6546C18.8802 31.6373 18.8668 31.6199 18.8528 31.6029C18.8393 31.5855 18.8253 31.5685 18.8112 31.5515C18.7835 31.5171 18.7553 31.4831 18.7269 31.449C18.7104 31.429 18.6935 31.409 18.6766 31.389C18.6651 31.3753 18.6532 31.3615 18.6413 31.3478C18.6367 31.3419 18.6317 31.336 18.6267 31.3304C18.5933 31.2912 18.5598 31.2522 18.5261 31.2132C18.4921 31.1736 18.458 31.134 18.424 31.095C18.3994 31.0665 18.375 31.0384 18.3506 31.0099C18.3413 30.9987 18.3316 30.9876 18.3222 30.9768C18.3069 30.9588 18.2916 30.9412 18.2763 30.9231C18.2601 30.9038 18.2438 30.8845 18.2276 30.8655C18.2114 30.8462 18.1952 30.8269 18.1792 30.8075C18.1714 30.798 18.1633 30.7882 18.1555 30.7787C18.1237 30.7401 18.0925 30.7015 18.0618 30.6628C18.0391 30.6337 18.0163 30.6045 17.9941 30.5754C17.9866 30.5659 17.9794 30.5561 17.9719 30.5462C17.9576 30.5269 17.9429 30.5072 17.9288 30.488C17.9217 30.4781 17.9148 30.4683 17.9076 30.4585C17.902 30.4506 17.896 30.4424 17.8904 30.4346C17.7924 30.2957 17.7056 30.1546 17.6353 30.0092C17.6303 29.9991 17.6253 29.9886 17.6206 29.9785C17.616 29.968 17.6113 29.9578 17.6066 29.9474C17.6032 29.9402 17.6 29.9326 17.5969 29.9254C17.5913 29.9123 17.5857 29.8989 17.5801 29.8851C17.5767 29.8769 17.5735 29.8688 17.5701 29.8606C17.5513 29.8128 17.5348 29.7643 17.5201 29.7155C17.5154 29.7001 17.511 29.6847 17.507 29.6693C17.4957 29.6274 17.4861 29.5852 17.478 29.5423C17.4751 29.5262 17.4723 29.5105 17.4698 29.4942C17.468 29.4811 17.4661 29.468 17.4645 29.4545C17.4633 29.447 17.4623 29.4395 17.4617 29.432C17.4611 29.4277 17.4608 29.4231 17.4604 29.4186C17.4589 29.4055 17.4576 29.3924 17.4567 29.3789C17.4551 29.3596 17.4539 29.3403 17.4533 29.3206C17.4523 29.301 17.452 29.2814 17.452 29.2614C17.452 29.2447 17.4523 29.2276 17.453 29.2106C17.4777 28.5368 17.5008 27.7787 17.9734 27.3042C19.1205 26.1528 19.2237 24.911 18.8 23.3305C18.421 21.9167 17.4811 21.0645 16.0536 21.0412C16.0536 21.0412 15.834 21.0376 15.7323 21.0736C15.0947 21.2995 14.6014 21.8001 14.5274 22.4884C14.5212 22.5473 14.5181 22.6074 14.5181 22.6689C14.518 22.9062 14.4894 23.1548 14.5021 23.3889C14.4009 23.2183 14.0172 23.0495 13.8403 23.1963C13.6446 23.3589 13.7427 23.7648 13.8224 23.9555C14.004 24.39 14.4727 24.525 14.6763 24.9125C14.7646 25.0807 14.7668 25.3154 14.8335 25.5001C14.9345 25.7798 15.0577 26.0525 15.21 26.3056C15.2103 26.3371 15.2103 26.3685 15.2103 26.4003C15.2103 26.4442 15.21 26.4887 15.2094 26.5329C15.2094 26.5391 15.2091 26.5453 15.2091 26.5516C15.2087 26.5657 15.2087 26.5801 15.2084 26.5941C15.2056 26.7343 15.2006 26.8741 15.1931 27.0083C15.1903 27.0555 15.1875 27.102 15.184 27.1475C15.1834 27.159 15.1825 27.1708 15.1816 27.1822C15.1809 27.1904 15.1803 27.1989 15.1797 27.2074C15.1794 27.2117 15.1791 27.2163 15.1785 27.2205C15.175 27.2621 15.1713 27.303 15.1675 27.3426C15.1672 27.3475 15.1666 27.3524 15.1659 27.3573C15.1625 27.3904 15.1591 27.4228 15.1553 27.4546C15.1547 27.4615 15.1537 27.4684 15.1528 27.4752C15.151 27.4899 15.1491 27.5047 15.1472 27.5191C15.146 27.5286 15.1447 27.5381 15.1431 27.5476C15.1422 27.5555 15.1409 27.5633 15.1397 27.5708C15.1388 27.5787 15.1379 27.5862 15.1363 27.5938C15.1353 27.6013 15.1341 27.6088 15.1328 27.6161C15.1247 27.6684 15.1153 27.7169 15.1057 27.7608C15.1029 27.7726 15.1004 27.7841 15.0976 27.7952C15.0944 27.8073 15.0913 27.8194 15.0882 27.8309C15.0857 27.8394 15.0832 27.8479 15.081 27.8561C15.0698 27.8927 15.0579 27.9238 15.0451 27.9487C14.8687 28.2945 14.5759 28.5149 14.2174 28.6664C14.1725 28.6854 14.1269 28.7031 14.08 28.7201C14.0388 28.7352 13.9967 28.7493 13.9539 28.7627C13.9414 28.767 13.9286 28.7709 13.9158 28.7745C13.8805 28.7853 13.8449 28.7958 13.8087 28.8056C13.7959 28.8092 13.7831 28.8128 13.77 28.8161C13.7394 28.8243 13.7085 28.8321 13.6773 28.8397C13.4597 28.8927 13.2295 28.9343 12.9954 28.9723C13.1465 28.6779 13.588 27.6344 13.0303 26.3505C11.9285 23.8155 11.9597 21.8385 12.9926 20.4118C13.8808 19.1849 15.447 19.3113 15.8685 19.3709C16.3487 18.499 17.3182 17.7347 19.2724 18.3238C22.6323 19.3359 20.2884 22.4828 20.6253 24.6829C20.846 26.1233 22.7912 27.0875 22.5527 29.1179C22.5365 29.2561 22.5161 29.3917 22.493 29.5249C22.2505 30.9175 21.68 32.0573 21.9441 33.1192C22.0184 33.4191 22.1596 33.7131 22.3934 34.0045C24.0304 36.0445 24.316 39.5802 21.9538 40.3536Z" fill="#1C265E"/>
<path d="M14.6455 27.3345H14.1641C14.087 27.3345 14.0282 27.2359 14.0408 27.1275L14.2952 24.8935C14.2993 24.8581 14.309 24.829 14.322 24.8063C14.2268 24.7704 14.1587 24.6738 14.1587 24.5601C14.1587 24.4157 14.2689 24.2988 14.4048 24.2988C14.5409 24.2988 14.6511 24.4157 14.6511 24.5601C14.6511 24.6649 14.5931 24.7553 14.5091 24.7969C14.5263 24.8214 14.5381 24.8549 14.5425 24.8967L14.7695 27.1305C14.7804 27.2382 14.722 27.3345 14.6455 27.3345Z" fill="#E93779"/>
<path d="M3.22266 39.4108C3.22266 40.9922 9.80708 45.2911 10.3816 45.3158C10.9558 45.3408 11.2314 44.2711 11.7824 44.2711C12.0591 44.2711 13.3397 44.3183 13.3896 44.1957C13.5209 43.8728 12.4487 43.1288 11.8056 43.0791C11.1625 43.0294 10.4502 43.7501 10.3584 43.6755C10.2666 43.6008 6.04097 39.4443 6.2232 39.0628L12.2907 32.9553C12.2902 32.0959 11.7824 30.6725 10.7545 29.3408C9.24557 31.2657 3.22266 37.5855 3.22266 39.4108Z" fill="#EBB973"/>
</svg>
