<svg width="306" height="254" viewBox="0 0 306 254" fill="none" xmlns="http://www.w3.org/2000/svg">
<path d="M39.0014 183.41H54.9453L54.9453 140.774H39.0014L39.0014 183.41Z" fill="#E6E6E6"/>
<path d="M42.0285 183.383H39.0391V172.135H45.2525L42.0285 183.383Z" fill="#F0F0F0"/>
<path d="M129.947 183.41H145.891V140.774H129.947V183.41Z" fill="#E6E6E6"/>
<path d="M39.0287 180.333H132.582V140.759H39.0287V180.333Z" fill="#F0F0F0"/>
<path d="M129.544 183.383H132.592V172.135H126.379L129.544 183.383Z" fill="#F0F0F0"/>
<path d="M129.777 175.55H101.465V145.104H129.777V175.55ZM102.051 174.961H129.191V145.692H102.051V174.961Z" fill="#E6E6E6"/>
<path d="M99.9997 175.55H71.6875V145.104H99.9997V175.55ZM72.2151 174.961H99.4135V145.692H72.2737V174.961H72.2151Z" fill="#E6E6E6"/>
<path d="M70.1638 175.55H41.8516V145.104H70.1638V175.55ZM42.4377 174.961H69.5776V145.692H42.4377V174.961Z" fill="#E6E6E6"/>
<path d="M165.904 94.6387L259.809 94.6387V14.313L165.904 14.313V94.6387Z" fill="#E6E6E6"/>
<path d="M163.809 94.6387L258.887 94.6387V14.313L163.809 14.313V94.6387Z" fill="#F5F5F5"/>
<path d="M255.09 90.7624V18.1514L167.574 18.1514V90.7624L255.09 90.7624Z" fill="#FAFAFA"/>
<path d="M244.37 90.8076L209.903 18.1377H198.238L232.705 90.8076H244.37Z" fill="white"/>
<path d="M229.365 90.8076L194.898 18.1377H186.867L221.334 90.8076H229.365Z" fill="white"/>
<path d="M200.121 90.7478V18.1367H195.608V90.7478H200.121Z" fill="#E6E6E6"/>
<path d="M230.203 90.7946V18.1836H225.69V90.7946H230.203Z" fill="#E6E6E6"/>
<path d="M199.262 93.1934L199.262 15.2822L193.517 15.2822V93.1934H199.262Z" fill="#F5F5F5"/>
<path d="M229.344 93.1826L229.344 15.2715L223.599 15.2715V93.1826H229.344Z" fill="#F5F5F5"/>
<path d="M167.98 90.7663V18.1553H167.57V90.7663H167.98Z" fill="#E6E6E6"/>
<path d="M162.192 9.36426H263.951C264.244 9.36426 264.42 9.59982 264.42 9.83538C264.42 10.1298 264.186 10.3065 263.951 10.3065H162.192C161.899 10.3065 161.723 10.0709 161.723 9.83538C161.723 9.59982 161.957 9.36426 162.192 9.36426Z" fill="#E6E6E6"/>
<path d="M259.847 12.6035C260.198 12.6035 260.491 12.309 260.491 11.9557V10.5423C260.491 10.189 260.198 9.89453 259.847 9.89453C259.495 9.89453 259.202 10.189 259.202 10.5423V11.9557C259.143 12.309 259.495 12.6035 259.847 12.6035Z" fill="#E6E6E6"/>
<path d="M169.578 12.6035C169.93 12.6035 170.223 12.309 170.223 11.9557V10.5423C170.223 10.189 169.93 9.89453 169.578 9.89453C169.227 9.89453 168.934 10.189 168.934 10.5423V11.9557C168.934 12.309 169.227 12.6035 169.578 12.6035Z" fill="#E6E6E6"/>
<path opacity="0.6" d="M162.391 49.7217L257.41 49.7217V9.85332L162.391 9.85332V49.7217Z" fill="#E0E0E0"/>
<path d="M73.1509 140.747H59.9034C58.4966 140.747 57.3242 139.569 57.3242 138.155V115.071C57.3242 113.657 58.4966 112.479 59.9034 112.479H73.2095C74.6163 112.479 75.7887 113.657 75.7887 115.071V138.155C75.7301 139.569 74.6163 140.747 73.1509 140.747Z" fill="#FAFAFA"/>
<path d="M74.8508 112.891H58.2035C57.7345 112.891 57.3242 112.479 57.3242 112.008V111.301C57.3242 110.83 57.7345 110.418 58.2035 110.418H74.9094C75.3784 110.418 75.7887 110.83 75.7887 111.301V112.008C75.7301 112.479 75.3784 112.891 74.8508 112.891Z" fill="#E6E6E6"/>
<path d="M123.622 140.746H113.95C112.895 140.746 112.074 139.921 112.074 138.861V122.136C112.074 121.076 112.895 120.252 113.95 120.252H123.622C124.677 120.252 125.498 121.076 125.498 122.136V138.861C125.498 139.921 124.677 140.746 123.622 140.746Z" fill="#F0F0F0"/>
<path d="M124.853 120.488H112.719C112.367 120.488 112.074 120.193 112.074 119.84V119.31C112.074 118.957 112.367 118.662 112.719 118.662H124.853C125.205 118.662 125.498 118.957 125.498 119.31V119.84C125.498 120.252 125.205 120.488 124.853 120.488Z" fill="#E6E6E6"/>
<path d="M93.0244 140.747H74.7944C72.86 140.747 71.2773 139.157 71.2773 137.213V127.85C71.2773 125.906 72.86 124.316 74.7944 124.316H93.083C95.0174 124.316 96.6 125.906 96.6 127.85V137.213C96.5414 139.157 94.9588 140.747 93.0244 140.747Z" fill="#F0F0F0"/>
<path d="M95.3691 124.728H72.4497C71.8049 124.728 71.2773 124.198 71.2773 123.551V122.608C71.2773 121.961 71.8049 121.431 72.4497 121.431H95.3691C96.0139 121.431 96.5414 121.961 96.5414 122.608V123.551C96.5414 124.198 96.0139 124.728 95.3691 124.728Z" fill="#F5F5F5"/>
<path d="M172.397 183.411H175.328V134.768H172.397V183.411Z" fill="#E6E6E6"/>
<path d="M257.682 125.258H241.68V134.739H257.682V125.258Z" fill="#E6E6E6"/>
<path d="M162.105 134.752H241.648V125.271L162.105 125.271V134.752Z" fill="#F5F5F5"/>
<path d="M257.682 150.58H241.68V160.061H257.682V150.58Z" fill="#E6E6E6"/>
<path d="M162.105 160.012H241.648V150.53H162.105V160.012Z" fill="#F5F5F5"/>
<path d="M251.917 183.411H254.848V134.768H251.917V183.411Z" fill="#E6E6E6"/>
<path d="M238.745 183.411H241.676V134.768H238.745V183.411Z" fill="#F5F5F5"/>
<path d="M162.139 183.411H165.07V134.768H162.139V183.411Z" fill="#F5F5F5"/>
<path d="M47.6528 60.7344L85.2266 60.7344V18.3926L47.6528 18.3926L47.6528 60.7344Z" fill="#F0F0F0"/>
<path d="M44.9449 60.7344L84.6289 60.7344V18.3926L44.9449 18.3926L44.9449 60.7344Z" fill="#F5F5F5"/>
<path d="M48.3438 21.6741V57.3613H81.3453V21.6741H48.3438Z" fill="white"/>
<path d="M59.321 29.209C56.7419 29.209 54.2213 30.7401 53.1662 33.2724C51.7594 36.6291 53.342 40.5747 56.6832 41.9881L81.2439 52.3527V37.9836L61.9002 29.739C61.0795 29.3857 60.2003 29.209 59.321 29.209Z" fill="#F0F0F0"/>
<path d="M97.5708 81.8945H135.145V39.5528L97.5708 39.5528V81.8945Z" fill="#F0F0F0"/>
<path d="M94.9215 81.8945H134.605V39.5528L94.9215 39.5528V81.8945Z" fill="#F5F5F5"/>
<path d="M98.2344 42.8421V78.5293H131.236V42.8421H98.2344Z" fill="white"/>
<path d="M118.465 56.6513L98.2422 48.1123V62.8936L113.19 69.1948C116.648 70.6671 120.634 69.0182 122.099 65.5437C123.565 62.1281 121.924 58.1236 118.465 56.6513Z" fill="#F0F0F0"/>
<path d="M153.343 210C216.115 210 267.002 207.02 267.002 203.345C267.002 199.67 216.115 196.69 153.343 196.69C90.5705 196.69 39.6836 199.67 39.6836 203.345C39.6836 207.02 90.5705 210 153.343 210Z" fill="#F5F5F5"/>
<path d="M117.994 197.621H109.627C109.034 196.984 107.775 195.633 106.711 194.45L106.44 197.621H105.094L104.9 192.144L104.887 191.832C104.89 191.795 104.892 191.759 104.895 191.723C105.043 190.118 106.848 187.777 107.081 187.48C107.099 187.459 107.107 187.448 107.107 187.448C107.107 187.448 107.12 187.448 107.144 187.454C107.171 187.461 107.215 187.476 107.273 187.509C107.553 187.663 108.174 188.217 109.07 190.196C109.849 191.915 110.985 193.809 111.931 194.214C112.578 194.494 113.589 194.451 114.156 194.397C114.185 194.394 114.214 194.391 114.241 194.388L114.246 194.387C114.387 194.372 114.49 194.358 114.542 194.349C114.556 194.348 114.566 194.345 114.573 194.345H114.577C114.577 194.345 118.055 195.797 118.074 196.306C118.089 196.632 118.036 197.234 117.994 197.621Z" fill="#E6427A"/>
<path d="M114.566 194.342H114.559L114.529 194.346L114.234 194.384L114.227 194.385C114.202 194.388 114.172 194.391 114.143 194.394C113.576 194.448 112.566 194.491 111.918 194.211C110.974 193.806 109.837 191.912 109.059 190.193C108.163 188.214 107.54 187.66 107.26 187.506C107.202 187.473 107.159 187.457 107.13 187.45C107.106 187.445 107.095 187.445 107.095 187.445C107.095 187.445 107.086 187.456 107.07 187.477C107.183 187.196 107.297 186.917 107.408 186.654C107.677 186.014 106.827 179.971 105.91 173.153L113.204 173.124C112.22 181.155 112.235 186.843 112.539 188.206C113.195 191.133 114.566 194.342 114.566 194.342Z" fill="#FABAAF"/>
<path d="M155.908 44.2547C155.014 45.4276 150.909 47.7706 150.909 47.7706C150.909 47.7706 143.703 75.8211 138.66 75.5042C134.499 75.2431 123.928 63.7778 123.462 63.2704C122.999 61.2648 122.317 59.5729 122.317 59.5729C122.317 59.5729 119.701 58.3968 117.414 60.0714C115.528 61.4496 113.742 56.6717 113.742 56.6717C113.742 56.6717 119.283 56.9327 115.012 57.4372C110.741 57.9389 114.503 56.7177 114.503 56.7177C114.503 56.7177 112.748 58.0733 112.224 58.6597C111.693 59.2462 110.698 59.5729 110.698 59.5729C110.698 59.5729 116.164 55.3109 116.796 55.396C117.181 55.4458 118.518 54.9739 119.916 54.6309C120.826 54.4079 121.755 54.2408 122.472 54.3083C124.292 54.4754 126.084 56.9032 125.977 57.2374C125.869 57.572 123.008 56.4838 121.271 57.2374C119.532 57.991 118.04 58.6597 116.764 58.6597C116.72 58.6597 116.662 58.6513 116.589 58.6336C114.491 58.1058 113.349 60.193 113.783 55.9062C114.215 51.666 109.343 55.6384 113.783 53.7148C115.764 54.5242 107.03 54.1434 109.646 52.7126C113.066 50.8387 112.262 43.3349 112.562 41.6606C112.86 39.9864 115.024 38.8982 116.764 38.1447C118.011 37.6052 119.013 36.658 119.476 35.749C119.674 36.8428 120.146 39.6574 120.035 40.9918C119.966 41.8217 119.718 43.4019 119.403 44.7978C119.086 46.2085 118.704 47.434 118.375 47.5188C117.725 47.6859 115.263 47.5188 115.263 47.5188C115.263 47.5188 115.117 48.7708 115.018 50.014C114.925 51.1576 114.873 52.2984 115.012 52.4567C115.193 52.6619 117.798 52.3627 120.342 52.5535C121.915 52.6736 123.468 52.9817 124.4 53.7148C125.816 54.8262 138.33 67.5231 138.33 67.5231C138.33 67.5231 147.805 47.4722 148.501 46.0117C149.466 44.0032 153.169 40.7396 153.169 40.7396C153.169 40.7396 153.615 41.1589 153.05 42.1619C152.711 42.7661 151.657 43.5843 151.96 43.7514C152.266 43.9213 156.951 39.4 157.35 39.4C157.749 39.4 156.806 43.0818 155.908 44.2547Z" fill="#FABAAF"/>
<path d="M123.99 68.5958C122.926 69.7232 121.789 74.4071 121.637 77.7842C121.627 77.7656 121.617 77.7419 121.605 77.7232L107.405 77.6724V77.6708C107.465 77.4795 107.502 77.2543 107.524 77.0004C107.858 72.9462 103.004 60.1522 103.004 60.1522C103.004 60.1522 108.674 56.8225 112.336 56.1911C113.482 55.9948 122.96 56.1911 122.96 56.1911C122.96 56.1911 124.542 57.8145 125.245 58.9013C127.515 62.4002 125.371 67.14 123.99 68.5958Z" fill="#F97CAA"/>
<path d="M129.5 173.059L113.228 173.123L105.933 173.152L96.6836 173.188C96.6836 173.188 100.573 104.878 100.704 100.786C101.095 88.5852 107.116 77.6668 107.116 77.6668L121.616 77.7186C124.265 82.4387 125.95 92.9996 126.553 105.359C127.266 119.979 129.5 173.059 129.5 173.059Z" fill="#F97CAA"/>
<path d="M90.6953 157.808H136.253C136.253 157.808 131.424 119.465 129.207 105.004C127.25 92.236 124.258 82.4378 121.607 77.7175L107.109 77.6662C107.109 77.6662 100.549 87.2949 97.4692 100.706C96.1058 106.636 90.6953 157.808 90.6953 157.808Z" fill="#F97CAA"/>
<path d="M141.549 146.789H85.6055C85.6055 146.789 95.3469 106.657 96.6624 100.714C101.281 79.8638 107.104 77.6753 107.104 77.6753L107.404 77.6771L121.604 77.7276C121.616 77.7468 121.626 77.7695 121.637 77.7887C124.291 82.5266 128.558 91.753 132.908 105.015C137.463 118.89 141.549 146.789 141.549 146.789Z" fill="#F97CAA"/>
<path d="M131.264 48.5264C130.911 53.8478 126.12 56.3445 122.96 56.111C122.947 56.111 122.933 56.1091 122.922 56.1071C119.789 55.8505 118.518 52.7249 117.509 50.7395C116.502 48.756 116.37 46.6086 116.026 44.8914C115.873 44.1293 115.778 43.4115 115.782 42.742C115.79 41.5516 116.108 40.5078 116.956 39.6164C118.803 37.6773 119.867 34.5671 119.884 31.5822C119.886 31.5552 119.886 31.5282 119.886 31.5012C119.886 30.6291 119.797 29.7705 119.613 28.9544C118.926 25.929 115.396 24.6479 114.231 24.3064C114.159 24.2832 114.095 24.2659 114.043 24.2524C113.925 24.2196 113.859 24.2041 113.859 24.2041L113.847 24.1655L113.816 24.3006C112.415 24.6402 111.476 26.1201 110.858 28.4238L110.856 28.4334C110.684 29.0759 110.538 29.7802 110.414 30.5442C110.01 33.0197 109.838 36.0913 109.793 39.5276C109.766 41.5516 109.51 43.1453 109.123 44.4071C108.058 42.825 99.3271 34.6925 104.784 25.5065C106.049 23.3764 107.651 22.2882 109.302 21.8927C111.305 21.4084 113.106 21.7788 113.191 21.7981H113.195L113.212 21.8541C113.42 21.4547 115.667 17.4184 120.717 18.412C126.029 19.4539 129.266 23.7816 129.324 28.5338C129.411 35.6012 123.405 37.6561 125.146 39.6164C127.168 41.8912 131.536 44.4554 131.264 48.5264Z" fill="#10215F"/>
<path d="M113.471 79.3333C113.574 80.0864 105.835 80.5017 104.007 80.3903C103.324 80.3469 102.262 79.9411 98.7977 79.3107C92.9921 78.2537 84.4072 76.0661 83.5965 73.014C83.1978 71.5134 94.2014 56.5456 97.0682 52.9612C99.6615 49.7223 101.585 49.1069 104.007 48.9578C107.358 48.5784 108.189 47.7649 109.127 44.4108C109.482 43.1406 109.769 41.5551 109.796 39.5336C109.906 31.2267 110.758 25.047 113.82 24.3052C113.836 24.3014 113.849 24.2977 113.862 24.2958C113.925 24.2826 113.986 24.2694 114.048 24.2562C114.099 24.2694 114.162 24.2882 114.234 24.309C115.398 24.6525 118.929 25.9323 119.616 28.9598C119.801 29.7752 119.89 30.634 119.89 31.506C119.89 31.5324 119.89 31.5589 119.89 31.5853C119.852 34.5449 118.789 37.6121 116.96 39.5336C116.089 40.4471 115.778 41.5192 115.785 42.7461C115.781 43.4161 115.876 44.1334 116.03 44.8941C116.374 46.6117 116.507 48.7596 117.513 50.7434C118.521 52.729 119.793 55.8547 122.926 56.1114L122.963 56.1926C122.963 56.1926 113.484 55.9963 112.34 56.1926C108.677 56.8211 103.007 60.1526 103.007 60.1526C102.674 60.2904 93.313 70.2582 92.4548 70.8396C91.9138 71.2039 95.4487 72.6063 100.182 74.624C103.519 76.0472 105.619 77.7497 105.619 77.7497C105.619 77.7497 108.767 76.638 110.882 76.638C113.471 76.638 113.372 78.5821 113.471 79.3333Z" fill="#FABAAF"/>
<path d="M108.461 22.2151C108.007 22.1011 105.925 21.5693 101.8 20.5815H101.838C100.362 21.5313 98.3937 22.2531 96.085 22.2911C94.9496 22.2911 93.7385 22.1391 92.5273 21.7592C91.3162 21.3793 90.143 20.7715 89.0454 19.8977C86.8881 18.2261 85.2228 15.5667 84.8443 12.4514C84.6551 10.9318 84.7686 9.29815 85.2607 7.7785C85.7527 6.25886 86.5853 4.77721 87.6829 3.56149C88.2506 2.91564 88.9318 2.38377 89.6131 1.88988C89.9537 1.66194 90.3322 1.43399 90.7107 1.24404L91.2784 0.978097L91.619 0.864124L91.9218 0.750151C93.4735 0.142294 95.101 -0.0856535 96.6906 0.0283198C98.2802 0.142293 99.794 0.560196 101.119 1.28203C102.443 1.96587 103.579 2.91564 104.487 4.01738C105.395 5.08114 106.039 6.29685 106.455 7.51257C106.872 8.72828 107.061 9.944 107.061 11.1217C107.061 13.4392 106.342 15.4527 105.471 16.8964V16.8204C107.326 20.1636 108.234 21.8352 108.461 22.2151C108.234 21.8352 107.288 20.1636 105.358 16.8584V16.8204V16.7824C106.228 15.3387 106.909 13.3632 106.909 11.0837C106.909 9.944 106.682 8.72828 106.304 7.55056C105.887 6.37283 105.244 5.15712 104.374 4.13136C103.503 3.06761 102.368 2.15582 101.081 1.47198C99.794 0.788142 98.2802 0.37024 96.7284 0.256267C95.1767 0.142293 93.5492 0.37024 92.0353 0.978097L91.7326 1.09207L91.4676 1.24404L90.8999 1.50997C90.5214 1.69993 90.1808 1.92787 89.8402 2.15582C89.1589 2.64971 88.5155 3.18158 87.9478 3.78944C86.8502 5.00515 86.0176 6.41082 85.5634 7.93047C85.1093 9.45011 84.9579 11.0077 85.1471 12.5274C85.4877 15.5667 87.153 18.1881 89.2346 19.8217C90.2944 20.6575 91.4676 21.2653 92.6409 21.6453C93.8142 22.0252 95.0253 22.1771 96.1229 22.1771C98.3937 22.1391 100.324 21.4173 101.8 20.5055H101.838H101.876C105.925 21.5313 108.007 22.1011 108.461 22.2151Z" fill="#9C9C9C"/>
<path d="M95.0234 6.18267L95.4019 11.7674C95.4398 12.2233 95.7804 12.6032 96.2346 12.6032C96.7266 12.6412 97.1429 12.2612 97.1807 11.8054L97.7863 6.22066C97.8241 5.80276 97.4835 5.42285 97.0672 5.42285H95.7047C95.3262 5.46084 95.0234 5.80276 95.0234 6.18267Z" fill="#E6427A"/>
<path d="M97.7136 15.757C97.4865 16.4789 96.7295 16.8588 96.0104 16.6308C95.2913 16.4029 94.9129 15.6431 95.1399 14.9212C95.367 14.1994 96.124 13.8195 96.8431 14.0474C97.5622 14.2754 97.9407 15.0352 97.7136 15.757Z" fill="#E6427A"/>
<path d="M180.537 71.0794C181.886 61.4215 175.144 53.5303 165.531 53.5303H182.999H235.931C245.544 53.5303 252.285 61.3626 250.937 71.0794H180.537Z" fill="#263238"/>
<path opacity="0.7" d="M180.537 71.0794C181.886 61.4215 175.144 53.5303 165.531 53.5303H182.999H235.931C245.544 53.5303 252.285 61.3626 250.937 71.0794H180.537Z" fill="#A6BFF3"/>
<path d="M165.471 53.5303H218.403H235.871C226.257 53.5303 217.348 61.3626 215.999 71.0794L200.056 185.797C198.707 195.455 189.797 203.346 180.184 203.346H144.662C135.049 203.346 128.308 195.513 129.656 185.797L145.6 71.0794C146.948 61.3626 155.858 53.5303 165.471 53.5303Z" fill="#A6BFF3"/>
<path d="M165.181 185.797C163.832 195.455 170.573 203.346 180.187 203.346H162.719H109.787C100.174 203.346 93.4328 195.514 94.781 185.797H165.181Z" fill="#263238"/>
<path opacity="0.7" d="M165.181 185.797C163.832 195.455 170.573 203.346 180.187 203.346H162.719H109.787C100.174 203.346 93.4328 195.514 94.781 185.797H165.181Z" fill="#A6BFF3"/>
<path opacity="0.7" d="M176.493 89.216H203.75C204.571 89.216 205.274 88.5682 205.392 87.7437C205.509 86.9193 204.923 86.2715 204.161 86.2715H176.904C176.083 86.2715 175.38 86.9193 175.262 87.7437C175.145 88.5682 175.673 89.216 176.493 89.216Z" fill="white"/>
<path opacity="0.7" d="M175.73 94.6339H195.777C196.598 94.6339 197.302 93.9862 197.419 93.1617C197.536 92.3372 196.95 91.6895 196.188 91.6895H176.141C175.32 91.6895 174.617 92.3372 174.499 93.1617C174.382 93.9862 174.968 94.6339 175.73 94.6339Z" fill="white"/>
<path opacity="0.4" d="M164.462 95.4908C168.227 91.9635 168.79 86.4239 165.721 83.1178C162.651 79.8117 157.111 79.9911 153.347 83.5185C149.583 87.0458 149.019 92.5854 152.089 95.8915C155.158 99.1975 160.698 99.0182 164.462 95.4908Z" fill="white"/>
<path d="M151.111 89.512C150.935 90.8665 151.111 92.1032 151.521 93.2221C152.518 95.6366 154.862 97.2855 157.793 97.2855C160.724 97.2855 163.538 95.6366 165.179 93.2221C165.941 92.1032 166.469 90.8665 166.644 89.512C167.231 85.2131 164.241 81.6797 159.962 81.6797C155.683 81.6797 151.697 85.2131 151.111 89.512Z" fill="white"/>
<path d="M153.223 92.5158C153.985 94.4003 155.743 95.637 158.029 95.637C160.315 95.637 162.426 94.3414 163.715 92.5158C162.367 91.5147 160.608 90.9258 158.674 90.9258C156.74 90.9258 154.864 91.5147 153.223 92.5158Z" fill="#D3DFF9"/>
<path d="M156.504 87.568C156.329 89.0403 157.325 90.218 158.791 90.218C160.256 90.218 161.604 89.0403 161.839 87.568C162.015 86.0958 161.018 84.918 159.553 84.918C158.087 84.918 156.68 86.0958 156.504 87.568Z" fill="#D3DFF9"/>
<path opacity="0.7" d="M173.211 112.831H182.414C183.234 112.831 183.938 112.183 184.055 111.359C184.172 110.535 183.586 109.887 182.824 109.887H173.621C172.8 109.887 172.097 110.535 171.98 111.359C171.863 112.183 172.449 112.831 173.211 112.831Z" fill="white"/>
<path opacity="0.7" d="M187.982 112.831H201.112C201.933 112.831 202.636 112.183 202.753 111.359C202.87 110.535 202.284 109.887 201.522 109.887H188.392C187.571 109.887 186.868 110.535 186.751 111.359C186.633 112.183 187.161 112.831 187.982 112.831Z" fill="white"/>
<path opacity="0.7" d="M172.449 118.249H194.958C195.779 118.249 196.482 117.601 196.599 116.777C196.717 115.952 196.13 115.305 195.368 115.305H172.859C172.039 115.305 171.335 115.952 171.218 116.777C171.101 117.542 171.687 118.249 172.449 118.249Z" fill="white"/>
<path opacity="0.4" d="M161.193 119.105C164.957 115.578 165.52 110.038 162.451 106.732C159.382 103.426 153.842 103.605 150.078 107.133C146.313 110.66 145.75 116.2 148.819 119.506C151.889 122.812 157.429 122.632 161.193 119.105Z" fill="white"/>
<path d="M147.83 113.126C147.654 114.481 147.83 115.717 148.24 116.836C149.236 119.251 151.581 120.9 154.512 120.9C157.443 120.9 160.257 119.251 161.898 116.836C162.66 115.717 163.187 114.481 163.363 113.126C163.949 108.827 160.96 105.294 156.681 105.294C152.402 105.294 148.416 108.827 147.83 113.126Z" fill="white"/>
<path d="M149.938 116.129C150.7 118.014 152.458 119.25 154.744 119.25C157.03 119.25 159.14 117.955 160.43 116.129C159.082 115.128 157.323 114.539 155.389 114.539C153.455 114.48 151.579 115.069 149.938 116.129Z" fill="#D3DFF9"/>
<path d="M153.219 111.182C153.043 112.655 154.04 113.832 155.505 113.832C156.971 113.832 158.319 112.655 158.553 111.182C158.788 109.71 157.733 108.532 156.267 108.532C154.802 108.532 153.454 109.71 153.219 111.182Z" fill="#D3DFF9"/>
<path opacity="0.7" d="M169.926 136.446H185.928C186.749 136.446 187.452 135.799 187.569 134.974C187.687 134.15 187.101 133.502 186.338 133.502H170.336C169.515 133.502 168.812 134.15 168.695 134.974C168.577 135.74 169.164 136.446 169.926 136.446Z" fill="white"/>
<path opacity="0.7" d="M169.164 141.805H194.135C194.956 141.805 195.659 141.157 195.776 140.333C195.893 139.508 195.307 138.86 194.545 138.86H169.574C168.754 138.86 168.05 139.508 167.933 140.333C167.816 141.157 168.402 141.805 169.164 141.805Z" fill="white"/>
<path opacity="0.5" d="M141.849 164.832H180.067C181.181 164.832 182.236 163.89 182.353 162.771C182.529 161.652 181.708 160.71 180.595 160.71H142.376C141.262 160.71 140.207 161.652 140.09 162.771C139.973 163.89 140.735 164.832 141.849 164.832Z" fill="white"/>
<path opacity="0.5" d="M140.794 172.369H168.872C169.985 172.369 171.04 171.427 171.158 170.308C171.333 169.189 170.513 168.247 169.399 168.247H141.321C140.208 168.247 139.153 169.189 139.035 170.308C138.918 171.486 139.68 172.369 140.794 172.369Z" fill="white"/>
<path opacity="0.5" d="M155.153 72.1396H200.758C201.344 72.1396 201.871 71.6684 201.93 71.0795C201.988 70.4907 201.578 70.0195 201.051 70.0195H155.446C154.86 70.0195 154.333 70.4907 154.274 71.0795C154.157 71.6684 154.567 72.1396 155.153 72.1396Z" fill="white"/>
<path opacity="0.4" d="M157.923 142.725C161.688 139.198 162.251 133.658 159.181 130.352C156.112 127.046 150.572 127.225 146.808 130.753C143.044 134.28 142.48 139.82 145.55 143.126C148.619 146.432 154.159 146.253 157.923 142.725Z" fill="white"/>
<path d="M144.544 136.742C144.369 138.097 144.544 139.334 144.955 140.453C145.951 142.867 148.296 144.516 151.227 144.516C154.158 144.516 156.971 142.867 158.613 140.453C159.375 139.334 159.902 138.097 160.078 136.742C160.664 132.444 157.675 128.91 153.396 128.91C149.117 128.91 145.189 132.385 144.544 136.742Z" fill="white"/>
<path opacity="0.4" d="M146.656 139.687C147.418 141.571 149.177 142.808 151.463 142.808C153.749 142.808 155.859 141.512 157.149 139.687C155.801 138.686 154.042 138.097 152.108 138.097C150.232 138.097 148.356 138.686 146.656 139.687Z" fill="#D3DFF9"/>
<path opacity="0.4" d="M149.938 134.798C149.762 136.271 150.759 137.449 152.224 137.449C153.69 137.449 155.038 136.271 155.272 134.798C155.448 133.326 154.452 132.148 152.986 132.148C151.521 132.148 150.173 133.326 149.938 134.798Z" fill="#D3DFF9"/>
<path d="M169.043 86.0526C170.467 84.6244 170.467 82.3089 169.043 80.8807C167.62 79.4525 165.312 79.4525 163.888 80.8807C162.464 82.3089 162.464 84.6244 163.888 86.0526C165.312 87.4807 167.62 87.4807 169.043 86.0526Z" fill="#F999BA"/>
<path opacity="0.75" d="M166.963 83.4676L168.406 84.9151L167.906 85.4126L166.467 83.9689L165.024 85.4126L164.527 84.9151L165.967 83.4676L164.527 82.0238L165.024 81.5225L166.467 82.97L167.906 81.5225L168.406 82.0238L166.963 83.4676Z" fill="white"/>
<path d="M166.125 110.92C167.549 109.492 167.549 107.176 166.125 105.748C164.702 104.32 162.394 104.32 160.97 105.748C159.546 107.176 159.546 109.492 160.97 110.92C162.394 112.348 164.702 112.348 166.125 110.92Z" fill="#F999BA"/>
<path opacity="0.75" d="M164.045 108.335L165.488 109.782L164.989 110.28L163.549 108.836L162.106 110.28L161.609 109.782L163.049 108.335L161.609 106.891L162.106 106.39L163.549 107.837L164.989 106.39L165.488 106.891L164.045 108.335Z" fill="white"/>
<path d="M163.207 132.862C164.631 131.434 164.631 129.118 163.207 127.69C161.784 126.262 159.476 126.262 158.052 127.69C156.628 129.118 156.628 131.434 158.052 132.862C159.476 134.29 161.784 134.29 163.207 132.862Z" fill="#F999BA"/>
<path opacity="0.75" d="M161.127 130.276L162.57 131.724L162.071 132.221L160.631 130.777L159.188 132.221L158.691 131.724L160.131 130.276L158.691 128.832L159.188 128.331L160.631 129.779L162.071 128.331L162.57 128.832L161.127 130.276Z" fill="white"/>
<path d="M90.0752 239.047V249H88.3594L83.8955 241.87V249H82.1797V239.047H83.8955L88.373 246.19V239.047H90.0752ZM91.6406 245.384V245.227C91.6406 244.693 91.7181 244.199 91.873 243.743C92.028 243.283 92.2513 242.884 92.543 242.547C92.8392 242.205 93.1992 241.941 93.623 241.754C94.0514 241.562 94.5345 241.467 95.0723 241.467C95.6146 241.467 96.0977 241.562 96.5215 241.754C96.9499 241.941 97.3122 242.205 97.6084 242.547C97.9046 242.884 98.1302 243.283 98.2852 243.743C98.4401 244.199 98.5176 244.693 98.5176 245.227V245.384C98.5176 245.917 98.4401 246.411 98.2852 246.867C98.1302 247.323 97.9046 247.722 97.6084 248.063C97.3122 248.401 96.9521 248.665 96.5283 248.856C96.1045 249.043 95.6237 249.137 95.0859 249.137C94.5436 249.137 94.0583 249.043 93.6299 248.856C93.2061 248.665 92.846 248.401 92.5498 248.063C92.2536 247.722 92.028 247.323 91.873 246.867C91.7181 246.411 91.6406 245.917 91.6406 245.384ZM93.2881 245.227V245.384C93.2881 245.716 93.3223 246.031 93.3906 246.327C93.459 246.623 93.5661 246.883 93.7119 247.106C93.8577 247.33 94.0446 247.505 94.2725 247.633C94.5003 247.76 94.7715 247.824 95.0859 247.824C95.3913 247.824 95.6556 247.76 95.8789 247.633C96.1068 247.505 96.2936 247.33 96.4395 247.106C96.5853 246.883 96.6924 246.623 96.7607 246.327C96.8337 246.031 96.8701 245.716 96.8701 245.384V245.227C96.8701 244.898 96.8337 244.589 96.7607 244.297C96.6924 244.001 96.583 243.739 96.4326 243.511C96.2868 243.283 96.0999 243.105 95.8721 242.978C95.6488 242.845 95.3822 242.779 95.0723 242.779C94.7624 242.779 94.4935 242.845 94.2656 242.978C94.0423 243.105 93.8577 243.283 93.7119 243.511C93.5661 243.739 93.459 244.001 93.3906 244.297C93.3223 244.589 93.2881 244.898 93.2881 245.227ZM109.428 245.76H111.137C111.082 246.411 110.9 246.993 110.59 247.503C110.28 248.009 109.845 248.408 109.284 248.699C108.724 248.991 108.042 249.137 107.24 249.137C106.625 249.137 106.071 249.027 105.579 248.809C105.087 248.585 104.665 248.271 104.314 247.865C103.964 247.455 103.695 246.961 103.508 246.382C103.326 245.803 103.234 245.156 103.234 244.44V243.613C103.234 242.898 103.328 242.251 103.515 241.672C103.706 241.093 103.979 240.599 104.335 240.188C104.69 239.774 105.117 239.457 105.613 239.238C106.115 239.02 106.677 238.91 107.302 238.91C108.095 238.91 108.765 239.056 109.312 239.348C109.858 239.639 110.282 240.043 110.583 240.558C110.888 241.073 111.075 241.663 111.144 242.328H109.435C109.389 241.9 109.289 241.533 109.134 241.228C108.983 240.922 108.76 240.69 108.464 240.53C108.168 240.366 107.78 240.284 107.302 240.284C106.91 240.284 106.568 240.357 106.276 240.503C105.985 240.649 105.741 240.863 105.545 241.146C105.349 241.428 105.201 241.777 105.101 242.191C105.005 242.602 104.957 243.071 104.957 243.6V244.44C104.957 244.942 105 245.397 105.087 245.808C105.178 246.213 105.315 246.562 105.497 246.854C105.684 247.145 105.921 247.371 106.208 247.53C106.495 247.69 106.839 247.77 107.24 247.77C107.728 247.77 108.122 247.692 108.423 247.537C108.728 247.382 108.958 247.157 109.113 246.86C109.273 246.56 109.378 246.193 109.428 245.76ZM112.217 245.384V245.227C112.217 244.693 112.294 244.199 112.449 243.743C112.604 243.283 112.827 242.884 113.119 242.547C113.415 242.205 113.775 241.941 114.199 241.754C114.628 241.562 115.111 241.467 115.648 241.467C116.191 241.467 116.674 241.562 117.098 241.754C117.526 241.941 117.888 242.205 118.185 242.547C118.481 242.884 118.706 243.283 118.861 243.743C119.016 244.199 119.094 244.693 119.094 245.227V245.384C119.094 245.917 119.016 246.411 118.861 246.867C118.706 247.323 118.481 247.722 118.185 248.063C117.888 248.401 117.528 248.665 117.104 248.856C116.681 249.043 116.2 249.137 115.662 249.137C115.12 249.137 114.634 249.043 114.206 248.856C113.782 248.665 113.422 248.401 113.126 248.063C112.83 247.722 112.604 247.323 112.449 246.867C112.294 246.411 112.217 245.917 112.217 245.384ZM113.864 245.227V245.384C113.864 245.716 113.898 246.031 113.967 246.327C114.035 246.623 114.142 246.883 114.288 247.106C114.434 247.33 114.621 247.505 114.849 247.633C115.076 247.76 115.348 247.824 115.662 247.824C115.967 247.824 116.232 247.76 116.455 247.633C116.683 247.505 116.87 247.33 117.016 247.106C117.161 246.883 117.269 246.623 117.337 246.327C117.41 246.031 117.446 245.716 117.446 245.384V245.227C117.446 244.898 117.41 244.589 117.337 244.297C117.269 244.001 117.159 243.739 117.009 243.511C116.863 243.283 116.676 243.105 116.448 242.978C116.225 242.845 115.958 242.779 115.648 242.779C115.339 242.779 115.07 242.845 114.842 242.978C114.618 243.105 114.434 243.283 114.288 243.511C114.142 243.739 114.035 244.001 113.967 244.297C113.898 244.589 113.864 244.898 113.864 245.227ZM122.108 243.183V249H120.461V241.604H122.013L122.108 243.183ZM121.814 245.028L121.281 245.021C121.286 244.497 121.359 244.017 121.5 243.579C121.646 243.142 121.846 242.766 122.102 242.451C122.361 242.137 122.671 241.895 123.031 241.727C123.391 241.553 123.792 241.467 124.234 241.467C124.59 241.467 124.911 241.517 125.198 241.617C125.49 241.713 125.738 241.87 125.943 242.089C126.153 242.308 126.312 242.592 126.422 242.943C126.531 243.29 126.586 243.716 126.586 244.222V249H124.932V244.215C124.932 243.859 124.879 243.579 124.774 243.374C124.674 243.164 124.526 243.016 124.33 242.93C124.139 242.839 123.899 242.793 123.612 242.793C123.33 242.793 123.077 242.852 122.854 242.971C122.63 243.089 122.441 243.251 122.286 243.456C122.136 243.661 122.02 243.898 121.938 244.167C121.855 244.436 121.814 244.723 121.814 245.028ZM131.658 241.604V242.807H127.488V241.604H131.658ZM128.691 239.792H130.339V246.956C130.339 247.184 130.371 247.359 130.435 247.482C130.503 247.601 130.596 247.681 130.715 247.722C130.833 247.763 130.972 247.783 131.132 247.783C131.246 247.783 131.355 247.776 131.46 247.763C131.565 247.749 131.649 247.735 131.713 247.722L131.72 248.979C131.583 249.021 131.424 249.057 131.241 249.089C131.063 249.121 130.858 249.137 130.626 249.137C130.248 249.137 129.913 249.071 129.621 248.938C129.329 248.802 129.102 248.581 128.938 248.275C128.773 247.97 128.691 247.564 128.691 247.059V239.792ZM136.19 249.137C135.644 249.137 135.149 249.048 134.707 248.87C134.27 248.688 133.896 248.435 133.586 248.111C133.281 247.788 133.046 247.407 132.882 246.97C132.718 246.532 132.636 246.061 132.636 245.555V245.281C132.636 244.702 132.72 244.178 132.889 243.709C133.057 243.24 133.292 242.839 133.593 242.506C133.894 242.169 134.249 241.911 134.659 241.733C135.069 241.556 135.514 241.467 135.992 241.467C136.521 241.467 136.983 241.556 137.38 241.733C137.776 241.911 138.104 242.162 138.364 242.485C138.629 242.804 138.825 243.185 138.952 243.627C139.084 244.069 139.15 244.557 139.15 245.09V245.794H133.436V244.611H137.523V244.481C137.514 244.185 137.455 243.907 137.346 243.647C137.241 243.388 137.079 243.178 136.86 243.019C136.642 242.859 136.35 242.779 135.985 242.779C135.712 242.779 135.468 242.839 135.254 242.957C135.044 243.071 134.869 243.237 134.728 243.456C134.586 243.675 134.477 243.939 134.399 244.249C134.326 244.554 134.29 244.898 134.29 245.281V245.555C134.29 245.878 134.333 246.179 134.42 246.457C134.511 246.73 134.643 246.97 134.816 247.175C134.99 247.38 135.199 247.542 135.445 247.66C135.691 247.774 135.972 247.831 136.286 247.831C136.683 247.831 137.036 247.751 137.346 247.592C137.656 247.432 137.924 247.207 138.152 246.915L139.021 247.756C138.861 247.988 138.654 248.212 138.398 248.426C138.143 248.635 137.831 248.806 137.462 248.938C137.097 249.071 136.674 249.137 136.19 249.137ZM144.585 246.997C144.585 246.833 144.544 246.685 144.462 246.553C144.38 246.416 144.223 246.293 143.99 246.184C143.762 246.074 143.425 245.974 142.979 245.883C142.587 245.796 142.227 245.694 141.898 245.575C141.575 245.452 141.297 245.304 141.064 245.131C140.832 244.958 140.652 244.753 140.524 244.516C140.397 244.279 140.333 244.005 140.333 243.695C140.333 243.395 140.399 243.11 140.531 242.841C140.663 242.572 140.853 242.335 141.099 242.13C141.345 241.925 141.643 241.763 141.994 241.645C142.35 241.526 142.746 241.467 143.184 241.467C143.803 241.467 144.334 241.572 144.776 241.781C145.223 241.986 145.565 242.267 145.802 242.622C146.039 242.973 146.157 243.369 146.157 243.812H144.51C144.51 243.616 144.46 243.433 144.359 243.265C144.264 243.091 144.118 242.952 143.922 242.848C143.726 242.738 143.48 242.684 143.184 242.684C142.901 242.684 142.666 242.729 142.479 242.82C142.297 242.907 142.16 243.021 142.069 243.162C141.983 243.303 141.939 243.458 141.939 243.627C141.939 243.75 141.962 243.862 142.008 243.962C142.058 244.058 142.14 244.146 142.254 244.229C142.368 244.306 142.523 244.379 142.719 244.447C142.919 244.516 143.17 244.582 143.471 244.646C144.036 244.764 144.521 244.917 144.927 245.104C145.337 245.286 145.651 245.523 145.87 245.814C146.089 246.102 146.198 246.466 146.198 246.908C146.198 247.236 146.128 247.537 145.986 247.811C145.85 248.079 145.649 248.314 145.385 248.515C145.12 248.711 144.804 248.863 144.435 248.973C144.07 249.082 143.66 249.137 143.204 249.137C142.534 249.137 141.967 249.018 141.502 248.781C141.037 248.54 140.684 248.232 140.442 247.858C140.205 247.48 140.087 247.088 140.087 246.683H141.68C141.698 246.988 141.782 247.232 141.933 247.414C142.088 247.592 142.279 247.722 142.507 247.804C142.739 247.881 142.979 247.92 143.225 247.92C143.521 247.92 143.769 247.881 143.97 247.804C144.17 247.722 144.323 247.612 144.428 247.476C144.533 247.334 144.585 247.175 144.585 246.997ZM151.031 241.604V242.807H146.861V241.604H151.031ZM148.064 239.792H149.712V246.956C149.712 247.184 149.744 247.359 149.808 247.482C149.876 247.601 149.969 247.681 150.088 247.722C150.206 247.763 150.345 247.783 150.505 247.783C150.619 247.783 150.728 247.776 150.833 247.763C150.938 247.749 151.022 247.735 151.086 247.722L151.093 248.979C150.956 249.021 150.797 249.057 150.614 249.089C150.437 249.121 150.231 249.137 149.999 249.137C149.621 249.137 149.286 249.071 148.994 248.938C148.702 248.802 148.475 248.581 148.311 248.275C148.146 247.97 148.064 247.564 148.064 247.059V239.792ZM156.473 247.517V243.989C156.473 243.725 156.425 243.497 156.329 243.306C156.233 243.114 156.088 242.966 155.892 242.861C155.7 242.757 155.459 242.704 155.167 242.704C154.898 242.704 154.666 242.75 154.47 242.841C154.274 242.932 154.121 243.055 154.012 243.21C153.902 243.365 153.848 243.54 153.848 243.736H152.207C152.207 243.445 152.278 243.162 152.419 242.889C152.56 242.615 152.765 242.371 153.034 242.157C153.303 241.943 153.624 241.774 153.998 241.651C154.372 241.528 154.791 241.467 155.256 241.467C155.812 241.467 156.304 241.56 156.732 241.747C157.165 241.934 157.505 242.216 157.751 242.595C158.002 242.968 158.127 243.438 158.127 244.003V247.291C158.127 247.628 158.15 247.931 158.195 248.2C158.245 248.465 158.316 248.695 158.407 248.891V249H156.719C156.641 248.822 156.58 248.597 156.534 248.323C156.493 248.045 156.473 247.776 156.473 247.517ZM156.712 244.502L156.726 245.521H155.543C155.238 245.521 154.969 245.55 154.736 245.609C154.504 245.664 154.31 245.746 154.155 245.855C154 245.965 153.884 246.097 153.807 246.252C153.729 246.407 153.69 246.582 153.69 246.778C153.69 246.974 153.736 247.154 153.827 247.318C153.918 247.478 154.05 247.603 154.224 247.694C154.401 247.785 154.616 247.831 154.866 247.831C155.203 247.831 155.497 247.763 155.748 247.626C156.003 247.485 156.204 247.314 156.35 247.113C156.495 246.908 156.573 246.715 156.582 246.532L157.115 247.264C157.061 247.451 156.967 247.651 156.835 247.865C156.703 248.079 156.53 248.285 156.315 248.48C156.106 248.672 155.853 248.829 155.557 248.952C155.265 249.075 154.928 249.137 154.545 249.137C154.062 249.137 153.631 249.041 153.253 248.85C152.875 248.654 152.578 248.392 152.364 248.063C152.15 247.731 152.043 247.355 152.043 246.936C152.043 246.544 152.116 246.197 152.262 245.896C152.412 245.591 152.631 245.336 152.918 245.131C153.21 244.926 153.565 244.771 153.984 244.666C154.404 244.557 154.882 244.502 155.42 244.502H156.712ZM161.483 243.183V249H159.836V241.604H161.388L161.483 243.183ZM161.189 245.028L160.656 245.021C160.661 244.497 160.734 244.017 160.875 243.579C161.021 243.142 161.221 242.766 161.477 242.451C161.736 242.137 162.046 241.895 162.406 241.727C162.766 241.553 163.167 241.467 163.609 241.467C163.965 241.467 164.286 241.517 164.573 241.617C164.865 241.713 165.113 241.87 165.318 242.089C165.528 242.308 165.688 242.592 165.797 242.943C165.906 243.29 165.961 243.716 165.961 244.222V249H164.307V244.215C164.307 243.859 164.254 243.579 164.149 243.374C164.049 243.164 163.901 243.016 163.705 242.93C163.514 242.839 163.274 242.793 162.987 242.793C162.705 242.793 162.452 242.852 162.229 242.971C162.005 243.089 161.816 243.251 161.661 243.456C161.511 243.661 161.395 243.898 161.312 244.167C161.23 244.436 161.189 244.723 161.189 245.028ZM171.033 241.604V242.807H166.863V241.604H171.033ZM168.066 239.792H169.714V246.956C169.714 247.184 169.746 247.359 169.81 247.482C169.878 247.601 169.971 247.681 170.09 247.722C170.208 247.763 170.347 247.783 170.507 247.783C170.621 247.783 170.73 247.776 170.835 247.763C170.94 247.749 171.024 247.735 171.088 247.722L171.095 248.979C170.958 249.021 170.799 249.057 170.616 249.089C170.438 249.121 170.233 249.137 170.001 249.137C169.623 249.137 169.288 249.071 168.996 248.938C168.704 248.802 168.477 248.581 168.312 248.275C168.148 247.97 168.066 247.564 168.066 247.059V239.792ZM176.454 246.997C176.454 246.833 176.413 246.685 176.331 246.553C176.249 246.416 176.092 246.293 175.859 246.184C175.632 246.074 175.294 245.974 174.848 245.883C174.456 245.796 174.096 245.694 173.768 245.575C173.444 245.452 173.166 245.304 172.934 245.131C172.701 244.958 172.521 244.753 172.394 244.516C172.266 244.279 172.202 244.005 172.202 243.695C172.202 243.395 172.268 243.11 172.4 242.841C172.533 242.572 172.722 242.335 172.968 242.13C173.214 241.925 173.512 241.763 173.863 241.645C174.219 241.526 174.615 241.467 175.053 241.467C175.673 241.467 176.203 241.572 176.646 241.781C177.092 241.986 177.434 242.267 177.671 242.622C177.908 242.973 178.026 243.369 178.026 243.812H176.379C176.379 243.616 176.329 243.433 176.229 243.265C176.133 243.091 175.987 242.952 175.791 242.848C175.595 242.738 175.349 242.684 175.053 242.684C174.77 242.684 174.535 242.729 174.349 242.82C174.166 242.907 174.03 243.021 173.938 243.162C173.852 243.303 173.809 243.458 173.809 243.627C173.809 243.75 173.831 243.862 173.877 243.962C173.927 244.058 174.009 244.146 174.123 244.229C174.237 244.306 174.392 244.379 174.588 244.447C174.788 244.516 175.039 244.582 175.34 244.646C175.905 244.764 176.39 244.917 176.796 245.104C177.206 245.286 177.521 245.523 177.739 245.814C177.958 246.102 178.067 246.466 178.067 246.908C178.067 247.236 177.997 247.537 177.855 247.811C177.719 248.079 177.518 248.314 177.254 248.515C176.99 248.711 176.673 248.863 176.304 248.973C175.939 249.082 175.529 249.137 175.073 249.137C174.403 249.137 173.836 249.018 173.371 248.781C172.906 248.54 172.553 248.232 172.312 247.858C172.075 247.48 171.956 247.088 171.956 246.683H173.549C173.567 246.988 173.651 247.232 173.802 247.414C173.957 247.592 174.148 247.722 174.376 247.804C174.608 247.881 174.848 247.92 175.094 247.92C175.39 247.92 175.638 247.881 175.839 247.804C176.039 247.722 176.192 247.612 176.297 247.476C176.402 247.334 176.454 247.175 176.454 246.997ZM184.876 239.047V249H183.16V239.047H184.876ZM188.937 243.401V244.762H184.438V243.401H188.937ZM189.504 239.047V240.414H184.438V239.047H189.504ZM190.242 245.384V245.227C190.242 244.693 190.32 244.199 190.475 243.743C190.63 243.283 190.853 242.884 191.145 242.547C191.441 242.205 191.801 241.941 192.225 241.754C192.653 241.562 193.136 241.467 193.674 241.467C194.216 241.467 194.699 241.562 195.123 241.754C195.551 241.941 195.914 242.205 196.21 242.547C196.506 242.884 196.732 243.283 196.887 243.743C197.042 244.199 197.119 244.693 197.119 245.227V245.384C197.119 245.917 197.042 246.411 196.887 246.867C196.732 247.323 196.506 247.722 196.21 248.063C195.914 248.401 195.554 248.665 195.13 248.856C194.706 249.043 194.225 249.137 193.688 249.137C193.145 249.137 192.66 249.043 192.231 248.856C191.808 248.665 191.448 248.401 191.151 248.063C190.855 247.722 190.63 247.323 190.475 246.867C190.32 246.411 190.242 245.917 190.242 245.384ZM191.89 245.227V245.384C191.89 245.716 191.924 246.031 191.992 246.327C192.061 246.623 192.168 246.883 192.313 247.106C192.459 247.33 192.646 247.505 192.874 247.633C193.102 247.76 193.373 247.824 193.688 247.824C193.993 247.824 194.257 247.76 194.48 247.633C194.708 247.505 194.895 247.33 195.041 247.106C195.187 246.883 195.294 246.623 195.362 246.327C195.435 246.031 195.472 245.716 195.472 245.384V245.227C195.472 244.898 195.435 244.589 195.362 244.297C195.294 244.001 195.185 243.739 195.034 243.511C194.888 243.283 194.701 243.105 194.474 242.978C194.25 242.845 193.984 242.779 193.674 242.779C193.364 242.779 193.095 242.845 192.867 242.978C192.644 243.105 192.459 243.283 192.313 243.511C192.168 243.739 192.061 244.001 191.992 244.297C191.924 244.589 191.89 244.898 191.89 245.227ZM202.95 247.257V241.604H204.604V249H203.046L202.95 247.257ZM203.183 245.719L203.736 245.705C203.736 246.202 203.682 246.66 203.572 247.079C203.463 247.494 203.294 247.856 203.066 248.166C202.839 248.471 202.547 248.711 202.191 248.884C201.836 249.052 201.41 249.137 200.913 249.137C200.553 249.137 200.223 249.084 199.922 248.979C199.621 248.875 199.361 248.713 199.143 248.494C198.928 248.275 198.762 247.991 198.644 247.64C198.525 247.289 198.466 246.869 198.466 246.382V241.604H200.113V246.396C200.113 246.664 200.145 246.89 200.209 247.072C200.273 247.25 200.359 247.394 200.469 247.503C200.578 247.612 200.706 247.69 200.852 247.735C200.997 247.781 201.152 247.804 201.316 247.804C201.786 247.804 202.155 247.713 202.424 247.53C202.697 247.343 202.891 247.093 203.005 246.778C203.123 246.464 203.183 246.111 203.183 245.719ZM207.927 243.183V249H206.279V241.604H207.831L207.927 243.183ZM207.633 245.028L207.1 245.021C207.104 244.497 207.177 244.017 207.318 243.579C207.464 243.142 207.665 242.766 207.92 242.451C208.18 242.137 208.49 241.895 208.85 241.727C209.21 241.553 209.611 241.467 210.053 241.467C210.408 241.467 210.729 241.517 211.017 241.617C211.308 241.713 211.557 241.87 211.762 242.089C211.971 242.308 212.131 242.592 212.24 242.943C212.35 243.29 212.404 243.716 212.404 244.222V249H210.75V244.215C210.75 243.859 210.698 243.579 210.593 243.374C210.493 243.164 210.344 243.016 210.148 242.93C209.957 242.839 209.718 242.793 209.431 242.793C209.148 242.793 208.895 242.852 208.672 242.971C208.449 243.089 208.259 243.251 208.104 243.456C207.954 243.661 207.838 243.898 207.756 244.167C207.674 244.436 207.633 244.723 207.633 245.028ZM218.598 247.469V238.5H220.252V249H218.755L218.598 247.469ZM213.785 245.384V245.24C213.785 244.68 213.851 244.169 213.983 243.709C214.116 243.244 214.307 242.845 214.558 242.513C214.808 242.175 215.114 241.918 215.474 241.74C215.834 241.558 216.239 241.467 216.69 241.467C217.137 241.467 217.529 241.553 217.866 241.727C218.203 241.9 218.491 242.148 218.728 242.472C218.965 242.791 219.154 243.174 219.295 243.62C219.436 244.062 219.536 244.554 219.596 245.097V245.555C219.536 246.083 219.436 246.566 219.295 247.004C219.154 247.441 218.965 247.82 218.728 248.139C218.491 248.458 218.201 248.704 217.859 248.877C217.522 249.05 217.128 249.137 216.677 249.137C216.23 249.137 215.827 249.043 215.467 248.856C215.111 248.67 214.808 248.408 214.558 248.07C214.307 247.733 214.116 247.337 213.983 246.881C213.851 246.421 213.785 245.922 213.785 245.384ZM215.433 245.24V245.384C215.433 245.721 215.462 246.035 215.521 246.327C215.585 246.619 215.683 246.876 215.815 247.1C215.948 247.318 216.118 247.492 216.328 247.619C216.542 247.742 216.798 247.804 217.094 247.804C217.467 247.804 217.775 247.722 218.017 247.558C218.258 247.394 218.447 247.173 218.584 246.895C218.725 246.612 218.821 246.298 218.871 245.951V244.714C218.844 244.445 218.787 244.194 218.7 243.962C218.618 243.729 218.507 243.527 218.365 243.354C218.224 243.176 218.049 243.039 217.839 242.943C217.634 242.843 217.39 242.793 217.107 242.793C216.807 242.793 216.551 242.857 216.342 242.984C216.132 243.112 215.959 243.287 215.822 243.511C215.69 243.734 215.592 243.994 215.528 244.29C215.465 244.586 215.433 244.903 215.433 245.24ZM223.875 239.047L223.711 246.067H222.303L222.132 239.047H223.875ZM222.084 248.221C222.084 247.97 222.166 247.76 222.33 247.592C222.499 247.419 222.731 247.332 223.027 247.332C223.319 247.332 223.549 247.419 223.718 247.592C223.886 247.76 223.971 247.97 223.971 248.221C223.971 248.462 223.886 248.67 223.718 248.843C223.549 249.011 223.319 249.096 223.027 249.096C222.731 249.096 222.499 249.011 222.33 248.843C222.166 248.67 222.084 248.462 222.084 248.221Z" fill="black"/>
</svg>
