<svg width="134" height="97" viewBox="0 0 134 97" fill="none" xmlns="http://www.w3.org/2000/svg">
<path d="M133.33 96.9961H0.670291C0.300096 96.9961 0 96.7662 0 96.4828C0 96.1993 0.300096 95.9696 0.670291 95.9696H133.33C133.7 95.9696 134 96.1993 134 96.4828C134 96.7662 133.7 96.9961 133.33 96.9961Z" fill="#ECD3C3"/>
<path fill-rule="evenodd" clip-rule="evenodd" d="M90.1018 66.6508H47.7743C45.0062 66.6508 42.7617 64.0339 42.7617 60.8054V9.4162C42.7617 6.18762 45.0062 3.57031 47.7743 3.57031H90.1018C92.8699 3.57031 95.1144 6.18762 95.1144 9.4162V60.8054C95.1144 64.0339 92.8699 66.6508 90.1018 66.6508Z" fill="url(#paint0_linear_16629_199577)"/>
<path d="M42.8594 7.92188H95.1818V4.90859C95.1818 2.7469 93.4249 0.994267 91.258 0.994267H46.7832C44.6163 0.994267 42.8594 2.7469 42.8594 4.90859V7.92188Z" fill="#F483AC"/>
<path opacity="0.7" d="M90.7055 41.9883H48.1777V40.5966C48.1777 39.2814 49.2465 38.2154 50.5648 38.2154H88.3185C89.6365 38.2154 90.7055 39.2814 90.7055 40.5966V41.9883Z" fill="#CAD6FF"/>
<path d="M88.2128 60.6055H50.7523C49.3531 60.6055 48.2188 59.4737 48.2188 58.0779V41.9874H90.7465V58.0779C90.7465 59.4737 89.612 60.6055 88.2128 60.6055Z" fill="white"/>
<path fill-rule="evenodd" clip-rule="evenodd" d="M66.5336 21.8793C66.5336 25.5928 64.5222 28.8372 61.5266 30.5887C60.9247 30.9397 60.2828 31.2316 59.6096 31.4541C59.5491 31.4747 59.4878 31.4944 59.4268 31.5132C58.4778 31.8073 57.4691 31.9652 56.4235 31.9652C54.809 31.9652 53.2833 31.5881 51.9292 30.917C48.6006 29.2661 46.3125 25.8394 46.3125 21.8793C46.3125 16.309 50.8394 11.793 56.4235 11.793C62.0071 11.793 66.5336 16.309 66.5336 21.8793Z" fill="white"/>
<mask id="mask0_16629_199577" style="mask-type:alpha" maskUnits="userSpaceOnUse" x="46" y="13" width="20" height="19">
<rect x="46.875" y="13.4531" width="18.2552" height="18.5096" rx="9.12759" fill="white"/>
</mask>
<g mask="url(#mask0_16629_199577)">
<path d="M60.7051 27.5316C60.6325 27.9009 58.5919 28.5666 58.5919 28.5666C58.5919 28.5666 58.7189 29.2269 58.642 29.8636C58.538 30.7279 57.714 31.1685 57.7515 32.1962C57.7733 32.7932 59.5502 36.3231 59.9174 40.7676C60.2852 45.2114 60.5436 49.214 60.5436 49.214C60.5436 49.214 60.5304 49.1198 60.5061 48.9484C60.5061 48.9484 60.5061 48.9478 60.5061 48.9472C60.2605 47.232 58.8842 37.8242 58.2138 37.9243C57.8889 37.9733 57.8223 43.3259 57.8272 49.3758C57.8332 57.0653 57.9542 65.8811 57.8073 66.3603C57.5447 67.2162 55.4024 67.1032 54.7986 66.8823C54.1948 66.6614 53.5627 66.4363 52.749 66.7955C51.9353 67.1539 51.0175 67.0242 50.7101 67.0242C49.4934 67.0242 48.6289 66.2571 48.6289 66.2571C48.6289 66.2571 54.3237 64.9801 54.0611 62.3577C53.7992 59.7354 49.9132 42.7327 51.805 36.6545C52.7125 33.7401 53.5904 32.8222 53.5644 32.1709C53.5379 31.5204 52.4948 30.2916 52.5045 29.7345C52.5111 29.3367 52.5045 28.5111 52.5045 28.5111L50.3525 27.0289C50.5455 25.9992 51.1033 25.7578 51.1033 25.7578C51.1033 25.7578 51.1063 25.7584 51.1112 25.7595C51.2783 25.8018 53.9552 26.4826 54.6934 26.9105C55.4545 27.3516 55.7171 28.1109 55.7171 28.1109C55.748 28.0741 56.7516 26.9051 58.2508 26.5792C59.7735 26.2478 60.4034 26.1924 60.4034 26.1924C60.4034 26.1924 60.9266 26.4024 60.7051 27.5316Z" fill="#85A8D1"/>
<path d="M60.5739 27.7227C60.5739 27.7227 60.7063 32.0461 60.8416 32.4697C60.977 32.8934 62.365 39.195 62.545 39.825C62.9146 41.119 62.6438 42.4272 62.4148 42.3075C62.2784 42.2364 61.996 40.4558 61.8761 40.461C61.7562 40.4663 61.9018 41.038 61.8605 41.1931C61.8193 41.3481 61.546 41.4866 61.546 41.4866C61.546 41.4866 61.2505 39.9035 61.3152 39.7384C61.3799 39.5731 61.4374 39.0398 61.4374 39.0398C61.4374 39.0398 59.0324 33.7126 58.9973 33.0061C58.9535 32.1235 58.6133 28.5251 58.6133 28.5251L60.5739 27.7227Z" fill="#FDB3B1"/>
<path d="M50.3571 26.9922C49.7572 28.6639 50.0442 32.016 50.0989 32.8838C50.1535 33.7519 51.2028 35.9487 51.6576 35.9685C52.1122 35.9881 52.3306 35.139 52.7669 35.139C52.986 35.139 53.9998 35.1765 54.0394 35.0792C54.1436 34.8227 53.2945 34.2322 52.7852 34.1928C52.276 34.1534 51.7121 34.7256 51.6394 34.6664C51.5667 34.6071 51.6786 32.3201 51.6394 32.2508C51.4757 31.9615 51.7422 28.7126 52.3442 28.3718L50.3571 26.9922Z" fill="#FDB3B1"/>
<path d="M60.8143 22.3693C60.9928 22.7115 60.7569 23.1986 60.3806 23.2638C60.2305 23.2898 60.0412 23.2764 59.9679 23.4123C59.9261 23.4895 59.945 23.5842 59.9364 23.6718C59.9086 23.956 59.6086 24.1226 59.3387 24.2041C58.6974 24.3966 57.9636 24.3797 57.4052 24.0067C57.3138 23.9458 57.2285 23.8691 57.1522 23.781C57.1522 23.781 57.1516 23.7804 57.1516 23.7798L57.1511 23.7792C57.1504 23.7785 57.1498 23.778 57.1492 23.778C57.053 23.6663 56.9696 23.5365 56.9019 23.3965C56.8027 23.038 56.914 22.5787 56.9745 22.1822C56.9745 22.1816 56.975 22.1804 56.975 22.1798C56.983 22.1273 56.9902 22.0759 56.9956 22.0258C57.0247 21.7688 57.0144 21.5508 56.8819 21.423C56.4493 21.0035 56.6841 20.584 56.8819 20.1157C57.0798 19.6468 56.7833 19.5484 56.5613 19.2031C56.3392 18.8579 56.5358 18.8452 56.5613 18.3769C56.5861 17.9085 55.9181 17.8035 55.9181 17.8035H55.7191C55.0566 17.8035 54.5193 18.372 54.5193 19.0739V20.1681C54.5193 20.2864 54.5557 20.5405 54.6355 20.8411C54.7257 21.1809 54.8715 21.581 55.0832 21.9141C55.085 21.9165 55.0862 21.919 55.088 21.9214H55.0795C55.0795 21.9214 55.0813 22.0246 55.0802 22.187C55.0789 22.385 55.0735 22.6716 55.056 22.9643C54.9791 23.3988 54.8116 23.6493 54.6681 23.7283C54.4491 23.8491 53.9748 23.8394 53.8006 23.6589C53.737 23.5925 53.6886 23.505 53.6046 23.4694C53.5126 23.4301 53.4086 23.4652 53.3118 23.4917C53.1339 23.5413 52.8084 23.4983 52.6699 23.3741C52.5204 23.2407 52.4521 22.9643 52.6844 22.7289C52.803 22.6075 53.0583 22.3764 52.9415 22.2533C52.8581 22.1652 52.7147 22.1634 52.6263 22.0801C52.5295 21.9884 52.5326 21.8279 52.5839 21.7041C52.6354 21.5804 52.7249 21.4766 52.7867 21.3577C52.806 21.3204 52.823 21.2799 52.8217 21.2376C52.8193 21.158 52.7533 21.094 52.6826 21.0589C52.6112 21.0245 52.5319 21.0101 52.4618 20.9744C52.2342 20.8622 52.1526 20.5568 52.2204 20.3099C52.2881 20.0631 52.4702 19.8657 52.6608 19.6974C52.8351 19.5435 53.0377 19.3744 53.0497 19.1403C53.0612 18.9128 52.8864 18.7238 52.812 18.509C52.7303 18.2712 52.7769 18.0003 52.9022 17.7829C53.0273 17.5656 53.2246 17.3985 53.4405 17.2748C53.7594 17.0919 54.169 17.0014 54.4872 17.1861L54.5314 17.1958C54.3214 16.9042 54.3874 16.4872 54.5592 16.1709C54.829 15.676 55.3397 15.3254 55.8926 15.2554C56.445 15.1853 57.0258 15.3978 57.4063 15.81C57.4704 15.8787 57.5303 15.9542 57.6108 16.0018C57.7911 16.1087 58.0179 16.0489 58.2212 16.0006C58.4245 15.9517 58.6684 15.9282 58.8141 16.0797C59.0047 16.2765 58.8988 16.6332 59.061 16.8541C59.1681 16.9996 59.3593 17.0448 59.5274 17.1064C59.6963 17.1679 59.8772 17.288 59.8838 17.4697C59.8917 17.6768 59.6709 17.8186 59.6159 18.0184C59.5499 18.2574 59.7356 18.4879 59.9189 18.6521C60.1029 18.8157 60.3158 18.9973 60.3255 19.2454C60.3321 19.4277 60.225 19.6219 60.3079 19.7837C60.4041 19.9696 60.7097 20.0125 60.7283 20.2219C60.7338 20.2901 60.7035 20.3565 60.6969 20.4253C60.6769 20.6456 60.9014 20.8182 60.9231 21.0385C60.9558 21.3681 60.5323 21.6167 60.5807 21.9438C60.6044 22.1063 60.7388 22.2251 60.8143 22.3693Z" fill="#242433"/>
<path d="M60.3977 26.195C60.3977 26.195 59.7678 26.2505 58.245 26.5818C56.7458 26.9077 55.7429 28.0762 55.7119 28.113C55.7114 28.1136 55.7114 28.1136 55.7114 28.1136C55.7114 28.1136 55.4487 27.3544 54.6877 26.9131C53.9496 26.4852 51.2725 25.8044 51.1055 25.7622C51.2967 25.3331 51.7178 24.7073 52.5623 24.6354C53.6749 24.5412 54.6144 24.4562 54.8595 24.056C54.9708 23.8737 55.0253 23.4126 55.0519 22.9654C55.0694 22.6727 55.0748 22.3861 55.0761 22.1881C55.0773 22.0258 55.0754 21.9226 55.0754 21.9226H55.0839C55.0822 21.9202 55.0809 21.9177 55.0791 21.9153C54.8673 21.5822 54.7216 21.1821 54.6314 20.8423C54.5515 20.5417 54.5152 20.2876 54.5152 20.1693V19.0751C54.5152 18.3732 55.0524 17.8047 55.715 17.8047H55.914C55.914 17.8047 56.582 17.9097 56.5572 18.378C56.5317 18.8464 56.3351 18.859 56.5572 19.2043C56.7791 19.5496 57.0757 19.6479 56.8778 20.1169C56.6799 20.5852 56.4452 21.0046 56.8778 21.4241C57.0103 21.552 57.0206 21.77 56.9915 22.027C56.9872 22.0355 56.9819 22.0439 56.9764 22.0517C56.9746 22.0837 56.9721 22.1278 56.9709 22.1809L56.9703 22.1833C56.9098 22.5798 56.7985 23.0391 56.8977 23.3976C56.9382 23.5455 57.0144 23.6765 57.1451 23.7791C57.1458 23.7791 57.1464 23.7796 57.1469 23.7803L57.1475 23.7809L57.1481 23.7821C57.2304 24.0199 57.3497 24.2185 57.5196 24.3265C58.2056 24.7598 59.2644 24.5184 59.7279 24.7876C60.4896 25.2294 60.3977 26.195 60.3977 26.195Z" fill="#FDB3B1"/>
<path d="M56.9773 22.0512C56.9739 22.1124 56.9695 22.2143 56.9684 22.3424C56.7546 22.6643 56.4745 22.9867 56.1208 22.9864C55.6733 22.9864 55.3337 22.5889 55.0846 22.1998C55.0829 22.1973 55.0815 22.195 55.0798 22.1925C55.0788 22.1907 55.0777 22.1892 55.0767 22.1874C55.0779 22.0254 55.0762 21.9219 55.0762 21.9219L55.0846 21.9221C55.3337 22.3113 55.6733 22.6073 56.1208 22.6073C56.4793 22.6075 56.7624 22.3777 56.9773 22.0512Z" fill="#D68A88"/>
</g>
<path d="M70.9955 18.3727L71.5851 19.564L72.9032 19.7551L71.9492 20.6827L72.1744 21.9922L70.9955 21.3739L69.8167 21.9922L70.0419 20.6827L69.0879 19.7551L70.406 19.564L70.9955 18.3727Z" fill="#DB9768"/>
<path d="M75.4777 18.3727L76.0672 19.564L77.3853 19.7551L76.4317 20.6827L76.6568 21.9922L75.4777 21.3739L74.2989 21.9922L74.524 20.6827L73.5703 19.7551L74.8884 19.564L75.4777 18.3727Z" fill="#DB9768"/>
<path d="M79.9604 18.3727L80.5496 19.564L81.8678 19.7551L80.9141 20.6827L81.1392 21.9922L79.9604 21.3739L78.7813 21.9922L79.0064 20.6827L78.0527 19.7551L79.3708 19.564L79.9604 18.3727Z" fill="#DB9768"/>
<path d="M84.4448 18.3727L85.0343 19.564L86.3524 19.7551L85.3984 20.6827L85.6236 21.9922L84.4448 21.3739L83.266 21.9922L83.4911 20.6827L82.5371 19.7551L83.8552 19.564L84.4448 18.3727Z" fill="#DB9768"/>
<path d="M88.9249 18.3727L89.5145 19.564L90.8326 19.7551L89.8789 20.6827L90.104 21.9922L88.9249 21.3739L87.7461 21.9922L87.9713 20.6827L87.0176 19.7551L88.3357 19.564L88.9249 18.3727Z" fill="white"/>
<path d="M70.7323 25.4531C70.3884 25.4531 70.1083 25.6382 70.1083 25.8655V31.2508C70.1083 31.4781 70.3884 31.6632 70.7323 31.6632H89.3526C89.6965 31.6632 89.9766 31.4781 89.9766 31.2508V25.8655C89.9766 25.6382 89.6965 25.4531 89.3526 25.4531H70.7323ZM89.3526 32.0625H70.7323C70.0551 32.0625 69.5039 31.6985 69.5039 31.2508V25.8655C69.5039 25.418 70.0551 25.0538 70.7323 25.0538H89.3526C90.0298 25.0538 90.581 25.418 90.581 25.8655V31.2508C90.581 31.6985 90.0298 32.0625 89.3526 32.0625Z" fill="#CAD6FF"/>
<path d="M88.1549 28.0117H71.7976C71.6677 28.0117 71.5625 27.9065 71.5625 27.7769V27.6925C71.5625 27.5629 71.6677 27.4577 71.7976 27.4577H88.1549C88.2848 27.4577 88.39 27.5629 88.39 27.6925V27.7769C88.39 27.9065 88.2848 28.0117 88.1549 28.0117Z" fill="#CAD6FF"/>
<path d="M88.1549 29.6328H71.7976C71.6677 29.6328 71.5625 29.5276 71.5625 29.398V29.3136C71.5625 29.184 71.6677 29.0788 71.7976 29.0788H88.1549C88.2848 29.0788 88.39 29.184 88.39 29.3136V29.398C88.39 29.5276 88.2848 29.6328 88.1549 29.6328Z" fill="#CAD6FF"/>
<path fill-rule="evenodd" clip-rule="evenodd" d="M81.4897 16.4131H78.6851C78.1277 16.4131 77.6758 15.9623 77.6758 15.4063V12.6084C77.6758 12.0524 78.1277 11.6016 78.6851 11.6016H81.4897C82.0473 11.6016 82.499 12.0524 82.499 12.6084V15.4063C82.499 15.9623 82.0473 16.4131 81.4897 16.4131Z" fill="#F483AC"/>
<path fill-rule="evenodd" clip-rule="evenodd" d="M79.7061 15.0648L78.4866 14.0044C78.3867 13.9173 78.3762 13.766 78.4635 13.6663C78.5506 13.5666 78.7022 13.5564 78.8022 13.6432L79.6644 14.393L80.8939 13.025C80.9827 12.9263 81.1346 12.9183 81.2332 13.0065C81.3321 13.0948 81.3402 13.2464 81.2516 13.345L79.7061 15.0648Z" fill="#F3F3F3"/>
<path d="M4.27734 72.4203V96.0703H23.829V72.4203H4.27734Z" stroke="#D7D7D7"/>
<path d="M6.27539 74.4262V79.7891H21.1747V74.4262H6.27539Z" stroke="#D7D7D7"/>
<path d="M6.27539 82.8616V94.9023H21.1747V82.8616H6.27539Z" stroke="#D7D7D7"/>
<path d="M13.6528 77.4023C13.8441 77.4023 13.997 77.248 13.997 77.0602C13.997 76.8723 13.8441 76.718 13.6528 76.718C13.4615 76.718 13.3086 76.8723 13.3086 77.0602C13.3086 77.248 13.4615 77.4023 13.6528 77.4023Z" stroke="#D7D7D7"/>
<path d="M13.5934 82.6311V95.1742H14.1376V82.6311H13.5934Z" stroke="#D7D7D7" stroke-width="0.3"/>
<path d="M10.8647 71.9219H8.33203V63.2627H10.8647V71.9219Z" fill="#F2ECEC"/>
<path d="M10.1725 65.0462C10.1725 65.3853 9.89697 65.6602 9.55698 65.6602C9.21699 65.6602 8.94141 65.3853 8.94141 65.0462C8.94141 64.7071 9.21699 64.432 9.55698 64.432C9.89697 64.432 10.1725 64.7071 10.1725 65.0462Z" fill="#E1E1E1"/>
<path d="M15.9291 71.9219H13.3965V63.2627H15.9291V71.9219Z" fill="#F2ECEC"/>
<path d="M15.235 65.0462C15.235 65.3853 14.9595 65.6602 14.6195 65.6602C14.2795 65.6602 14.0039 65.3853 14.0039 65.0462C14.0039 64.7071 14.2795 64.432 14.6195 64.432C14.9595 64.432 15.235 64.7071 15.235 65.0462Z" fill="#E1E1E1"/>
<path d="M13.3959 71.9219H10.8633V63.2627H13.3959V71.9219Z" fill="#E4DFDF"/>
<path d="M18.3002 71.9219H15.7676V63.2627H18.3002V71.9219Z" fill="#D7D7D7"/>
<path d="M23.3745 93.5288H28.2582V81.6993H29.3185V93.5288H34.4076C34.7003 93.5288 34.9791 93.6381 35.1735 93.8292L36.565 95.1979C36.8338 95.4623 36.7481 95.8759 36.3899 96.0417C36.1314 96.1612 35.8121 96.1091 35.6214 95.9158L34.1205 94.3971H29.3185V95.5998C29.3185 95.8547 29.0812 96.0614 28.7885 96.0614C28.4958 96.0614 28.2582 95.8547 28.2582 95.5998V94.3971H24.1221L22.6292 95.9076C22.4345 96.1048 22.1078 96.1549 21.8477 96.0275C21.4995 95.857 21.4207 95.4504 21.6855 95.1899L23.3745 93.5288Z" fill="#1F3059"/>
<path d="M32.1349 60.3611L33.0586 81.6953H19.6016L17.5189 60.83C17.2989 58.6259 19.2932 56.7309 21.8331 56.7309H27.8074C30.1356 56.7309 32.0472 58.3344 32.1349 60.3611Z" fill="#C7D8F4"/>
<path d="M20.714 82.5312H41.0783C41.694 82.5312 42.1934 82.1584 42.1934 81.6991C42.1934 81.2394 41.694 80.867 41.0783 80.867H20.714C20.0983 80.867 19.5988 81.2394 19.5988 81.6991C19.5988 82.1584 20.0983 82.5312 20.714 82.5312Z" fill="#AAC8FA"/>
<path d="M40.5834 80.9336H41.5117L40.6332 75.5274C40.5814 75.207 40.2664 74.9688 39.8949 74.9688H32.7813V75.8371H39.6866L40.5834 80.9336Z" fill="#1F3059"/>
<path d="M26.7825 80.8672H27.7793L26.8479 75.5127C26.7934 75.1999 26.4848 74.9683 26.1213 74.9683H18.992V75.8366H25.8973L26.7825 80.8672Z" fill="#1F3059"/>
<path d="M47.0191 47.9092L53.5398 51.1484L60.0879 41.8343L52.1673 39.348L47.0191 47.9092Z" fill="#292C47"/>
<path d="M47.6836 47.4908L53.3675 50.4062L59.0762 42.024L52.1717 39.7861L47.6836 47.4908Z" fill="white"/>
<path d="M45.1982 46.0021C45.1982 46.0021 46.3326 45.5117 46.8313 45.2554C47.3293 44.9983 48.6108 44.6462 48.7142 44.5627C48.8176 44.4792 52.5125 44.2732 52.7368 44.0984C52.9611 43.9237 53.1791 44.5079 52.2213 44.6979C51.2636 44.8873 49.9312 45.351 49.858 45.689C49.7848 46.0277 50.842 46.108 50.9486 46.3868C51.056 46.6648 50.9192 46.6023 50.7672 46.6623C50.6161 46.7222 49.5104 46.1687 49.0244 46.3262C48.5384 46.4831 47.7954 46.2656 47.4231 46.381C47.0509 46.4959 45.2388 47.0469 45.2388 47.0469L45.1982 46.0021Z" fill="#EEA886"/>
<path d="M53.8564 49.9844C53.8564 49.9844 54.8098 49.2088 55.2711 48.8842C55.7324 48.5595 56.5982 47.6054 56.7263 47.5493C56.8536 47.4938 58.5072 44.4267 58.7768 44.3044C59.0464 44.1812 58.5214 43.768 57.9515 44.5097C57.3801 45.252 56.378 46.2068 55.9975 46.1366C55.6156 46.0672 55.9436 45.136 55.6942 44.9363C55.4463 44.7367 55.4576 44.8777 55.337 44.9836C55.2157 45.0894 55.3617 46.2463 55.009 46.599C54.6562 46.9518 54.5933 47.6692 54.3274 47.9415C54.0623 48.2138 52.7832 49.5424 52.7832 49.5424L53.8564 49.9844Z" fill="#EEA886"/>
<path d="M33.1161 92.7652C33.1161 92.7652 33.835 93.5445 34.5298 93.8845C35.2256 94.2244 36.3176 94.359 36.7291 94.711C37.0249 94.9648 37.8096 96.058 34.9226 96.0363C32.0347 96.014 30.6424 96.1907 30.334 95.771C30.0239 95.352 30.781 92.6778 30.781 92.6778C30.781 92.6778 31.4652 92.8997 33.1161 92.7652Z" fill="#292C47"/>
<path d="M49.3701 92.7617C49.3701 92.7617 50.088 93.541 50.7837 93.881C51.4795 94.2209 54.0369 94.5002 54.4487 94.8516C54.7453 95.1061 55.2391 96.1279 51.1766 96.0328C48.2894 95.9645 46.8971 96.1871 46.5879 95.7675C46.2779 95.3485 47.0352 92.6743 47.0352 92.6743C47.0352 92.6743 47.6796 92.9115 49.3701 92.7617Z" fill="#292C47"/>
<path d="M35.2018 58.1894C35.2018 58.1894 33.0694 61.2501 33.2282 64.0175C33.388 66.7841 32.4562 69.8053 32.1358 72.6957C31.7782 75.9183 30.3175 83.5468 30.2652 85.2707C30.2119 86.994 30.4915 92.498 30.4915 92.498L33.4164 92.5586C33.4164 92.5586 35.8718 79.222 36.5081 77.861C37.1444 76.5006 40.2991 66.7988 40.4047 65.7101C40.5103 64.6214 35.2018 58.1894 35.2018 58.1894Z" fill="#1C265E"/>
<path d="M46.4216 58.6039C46.4216 58.6039 48.0283 66.1877 48.2399 67.881C48.4522 69.5749 48.5938 76.0772 48.6992 77.1352C48.8062 78.1939 49.4063 90.9865 49.9727 92.5586H46.2334C46.2334 92.5586 43.3635 83.2591 43.3635 78.8591C43.3635 74.4591 41.1464 69.2937 39.7149 66.3906C38.2834 63.4873 35.0069 63.4185 34.128 58.0324C34.128 58.0324 45.2301 56.8952 46.4216 58.6039Z" fill="#1C265E"/>
<path d="M38.7575 32.4544C38.7575 32.4544 41.6192 31.4885 42.9375 33.4571C44.2575 35.4255 44.1306 39.3666 42.6879 39.8512C41.246 40.3358 39.0791 40.0826 38.3404 38.8506C37.6025 37.6189 36.9357 35.8381 36.9679 34.648C37.0001 33.458 38.0061 32.798 38.7575 32.4544Z" fill="#EEA886"/>
<path d="M42.378 39.9408C42.378 39.9408 42.2581 40.6389 42.4557 40.9833C42.6524 41.327 38.7482 41.3359 38.7482 41.3359C38.7482 41.3359 38.4315 39.4651 37.8303 37.8844C37.23 36.3037 42.378 39.9408 42.378 39.9408Z" fill="#EEA886"/>
<path d="M37.8323 37.8862C37.8323 37.8862 38.102 38.288 39.201 38.132C40.3017 37.9762 41.6424 36.6537 42.1021 36.5085C42.5617 36.3633 42.5659 36.1196 42.5659 36.1196L42.8534 36.4991L43.341 36.527C43.341 36.527 42.8958 35.344 43.5674 34.8615C44.2382 34.379 42.8704 31.0325 39.3435 32.1467C39.3435 32.1467 36.635 32.8216 36.7333 34.2141C36.8317 35.6065 37.226 37.1927 37.8323 37.8862Z" fill="#3A3F47"/>
<path d="M32.7984 65.483C32.7984 65.483 34.5522 65.9499 37.5451 66.2477C40.5372 66.5456 48.0133 66.14 48.0606 65.8204C48.1078 65.5009 46.452 53.9234 46.5457 53.327C46.6403 52.7307 46.6911 50.6063 46.6911 50.6063C46.7279 51.1885 47.3846 53.5662 48.1761 54.8628C48.4625 55.3309 49.4222 56.7985 49.8854 56.4649C52.1252 54.8488 55.5927 48.758 55.8125 48.7063C55.6286 48.6337 54.1689 48.0265 53.9641 47.9652C53.7854 47.911 52.169 49.457 51.1909 50.4156C50.754 50.8429 50.444 51.1535 50.444 51.1535C50.1612 50.5788 49.1315 46.9569 48.8118 45.7031C48.0903 42.8764 48.2007 42.7591 48.2007 42.7591C46.0116 42.1602 42.6895 40.9427 42.6895 40.9427L38.3052 40.7808C38.3052 40.7808 34.2817 41.5818 32.6968 42.2284C32.5462 42.2897 32.5453 45.4728 32.1329 46.3077L33.4463 48.8128C33.4463 48.8128 34.2064 53.7754 34.3631 55.9821C34.4358 56.9955 32.7984 65.483 32.7984 65.483Z" fill="#1C265E"/>
<path d="M31.9488 50.4428C32.0645 50.777 32.5838 51.0595 32.9212 51.1826C33.1376 51.2617 33.3796 51.2872 33.6233 51.2464L33.7956 51.2177L36.7993 50.7139C36.7993 50.7139 37.4564 43.8711 32.6951 42.2314C32.5697 42.2684 30.8978 47.3789 31.9488 50.4428Z" fill="#1C265E"/>
<path d="M32.9215 51.1826C33.1375 51.2617 33.3796 51.2872 33.6234 51.2464L33.7949 51.2177L33.4989 47.7208L32.9215 51.1826Z" fill="#505A8F"/>
<path d="M50.4423 51.1568L50.8094 52.5625C50.8094 52.5625 51.2079 51.1517 51.1888 50.4189C50.7522 50.8463 50.4423 51.1568 50.4423 51.1568Z" fill="#505A8F"/>
<path d="M57.0722 41.3359L57.4531 40.7441L54.4505 39.8077L54.0696 40.3964L57.0722 41.3359Z" fill="#292C47"/>
<path d="M97.7065 95.9646H99.5447C99.5447 95.9646 100.392 94.0165 100.533 93.9914C100.675 93.9651 100.675 95.9646 100.675 95.9646H100.993C100.993 95.9646 101.311 93.6584 101.205 93.2729C101.139 93.0346 100.746 92.5832 100.466 92.1797C100.466 92.1797 99.8028 92.4731 99.7143 93.2777C99.6514 93.8525 99.4987 95.1242 98.6917 95.1958C98.4482 95.2726 97.9537 95.312 97.8483 95.4269C97.7417 95.5419 97.7065 95.9646 97.7065 95.9646Z" fill="#201F39"/>
<path d="M89.3684 95.9659H91.2066C91.2066 95.9659 91.2066 95.966 91.2077 95.9646C91.2333 95.9061 92.0572 94.0165 92.1954 93.9914C92.199 93.9914 92.2015 93.9914 92.2038 93.9927C92.3371 94.0524 92.3371 95.9659 92.3371 95.9659H92.6547C92.6547 95.9659 92.6547 95.966 92.6547 95.9646C92.6631 95.9036 92.9722 93.6536 92.8668 93.2729C92.8012 93.0346 92.4087 92.5832 92.1275 92.1797C92.1275 92.1797 91.4647 92.4731 91.3764 93.2788C91.3133 93.8477 91.1631 95.105 90.3718 95.1935C90.3657 95.1949 90.3597 95.196 90.3537 95.196C90.11 95.2728 89.6157 95.3121 89.5103 95.4271C89.4036 95.5421 89.3684 95.9659 89.3684 95.9659Z" fill="#201F39"/>
<path d="M89.098 72.8557C89.2748 75.0086 90.901 92.1999 90.7944 93.1612C90.6903 94.1146 90.6115 95.1058 90.3728 95.1968C91.164 95.1082 91.3143 93.851 91.3773 93.2821C91.4658 92.4764 92.1284 92.183 92.1284 92.183C92.4096 92.5865 92.8022 93.0379 92.8677 93.2762C92.9732 93.6569 92.6641 95.9069 92.6556 95.9679H92.6677C92.6677 95.9679 92.9853 93.6617 92.8797 93.2762C92.7743 92.8919 91.8194 91.9579 91.8546 91.5592C91.8897 91.1616 93.4455 81.0089 93.4455 79.2402C93.4455 77.4705 92.3852 73.9321 92.3852 73.9321L95.1893 67.15L95.4668 66.4782C95.085 62.995 91.6972 57.7803 91.3662 57.2773C91.3312 57.476 91.2729 57.7945 91.2002 58.2052C90.6066 61.5522 88.9537 71.086 89.098 72.8557Z" fill="#EEA987"/>
<path d="M98.162 79.4545C98.7059 83.5533 99.2137 88.4915 99.1204 93.1576C99.101 94.125 98.9361 95.1191 98.6926 95.1957C99.4997 95.1238 99.6524 93.8523 99.7153 93.2775C99.8038 92.473 100.467 92.1795 100.467 92.1795C100.296 91.9341 100.168 91.7064 100.182 91.5557C100.208 91.2516 101.123 85.249 101.552 81.6471C101.589 81.3441 101.621 81.0581 101.65 80.7935C100.027 80.0308 98.8526 79.1865 97.9971 78.2383C98.0517 78.6344 98.1075 79.0404 98.162 79.4545Z" fill="#EEA987"/>
<path d="M95.1891 67.1495L95.4668 66.4778C95.085 62.9942 91.6972 57.7796 91.3666 57.2773C91.3666 57.2773 95.0794 64.3363 95.1891 67.1495Z" fill="#EEA987"/>
<path d="M101.65 80.7942C101.622 81.0581 101.589 81.3443 101.553 81.6471C101.496 81.621 101.44 81.5949 101.385 81.5687C100.019 80.9259 98.9706 80.2263 98.1628 79.4552C98.1077 79.0404 98.0524 78.6344 97.9971 78.2383C98.8525 79.1865 100.028 80.0305 101.65 80.7942Z" fill="#EEA987"/>
<path d="M132.773 96.0533C115.231 95.6185 108.922 94.1741 107.606 87.3273C107.135 84.881 107.046 83.0788 102.445 81.1509C102.169 81.0355 101.905 80.9179 101.652 80.7987C100.029 80.035 98.8539 79.1911 97.9983 78.2428C95.5327 75.5112 90.0747 71.4591 89.8533 66.4104C89.4715 62.9267 91.698 57.7816 91.3673 57.2792C91.3502 57.2533 91.3414 57.24 91.3414 57.24C91.3414 57.24 92.4235 52.3876 92.4589 51.6376C92.4952 50.8879 92.3925 47.1963 92.3925 47.1963C92.3925 47.1963 91.0681 46.6474 90.9245 45.6923C90.8488 45.1859 90.9391 44.5574 91.0724 43.9905C91.2654 43.1704 91.5488 42.4806 91.5488 42.4806C91.5488 42.4806 92.6368 41.9999 93.5886 42.6835C94.3724 43.2466 95.0984 44.0092 95.0984 44.0092C95.0984 44.0092 96.8347 42.206 98.6104 42.4114C100.387 42.6164 100.874 44.052 100.874 44.052C100.874 44.052 98.5606 51.1954 98.6777 51.4005C98.7356 51.5026 99.6175 52.1363 100.756 53.3442C101.191 53.8044 101.662 54.3485 102.14 54.9782C102.93 56.0198 103.737 57.2961 104.418 58.8176C106.588 63.6712 112.585 78.302 113.77 80.2484C116.514 84.7562 120.455 87.8522 124.743 89.4697C130.886 91.7871 132.773 96.0533 132.773 96.0533Z" fill="#E93779"/>
<path d="M77.5803 36.2233C77.9522 36.7023 79.6596 37.659 79.6596 37.659C79.6596 37.659 82.6562 49.1134 84.7536 48.984C86.4841 48.8774 90.8801 44.1955 91.074 43.9884C91.2667 43.1694 91.5502 42.4785 91.5502 42.4785C91.5502 42.4785 92.6383 41.9982 93.5896 42.6821C94.3735 43.2448 95.0994 44.0076 95.0994 44.0076C95.0994 44.0076 96.8358 42.2043 98.612 42.4103C100.388 42.6151 100.876 44.0507 100.876 44.0507C100.876 44.0507 101.277 44.0843 101.495 44.3238C101.715 44.5633 106.145 49.4512 106.145 49.4512C106.145 49.4512 102.319 53.6204 102.056 53.6552C101.896 53.6755 101.34 53.4828 100.758 53.3427C100.38 53.2517 99.9936 53.1835 99.6954 53.211C98.9382 53.2792 98.1929 54.2706 98.2377 54.4071C98.2826 54.5438 99.4725 54.0994 100.195 54.4071C100.918 54.7148 101.539 54.9879 102.069 54.9879C102.088 54.9879 102.112 54.9845 102.142 54.9773C103.014 54.7617 108.907 51.5096 108.726 49.7591C108.547 48.0276 102.87 40.8013 101.024 40.0158C100.2 40.3463 97.9081 40.2613 96.82 39.6771C95.3975 38.9119 95.732 35.8477 95.6071 35.164C95.4835 34.4803 94.5832 34.036 93.8598 33.7283C93.3411 33.508 92.9244 33.1212 92.7317 32.75C92.6494 33.1966 92.453 34.346 92.4992 34.8909C92.5282 35.2298 92.6313 35.8751 92.7621 36.4451C92.8942 37.0211 93.0529 37.5216 93.1898 37.5562C93.4599 37.6244 94.4839 37.5562 94.4839 37.5562C94.4839 37.5562 94.5445 38.0675 94.5857 38.5751C94.6245 39.0421 94.6462 39.508 94.5881 39.5726C94.513 39.6564 93.4297 39.5342 92.3719 39.6121C91.7175 39.6612 91.0717 39.787 90.6839 40.0863C90.095 40.5402 84.8907 45.7249 84.8907 45.7249C84.8907 45.7249 80.9502 37.5372 80.6607 36.9408C80.2597 36.1206 78.7196 34.7879 78.7196 34.7879C78.7196 34.7879 78.5342 34.9591 78.7692 35.3687C78.91 35.6154 79.3485 35.9495 79.2224 36.0178C79.0951 36.0871 77.1467 34.2409 76.9807 34.2409C76.8147 34.2409 77.2071 35.7443 77.5803 36.2233Z" fill="#EEA987"/>
<path d="M92.373 39.6124C93.4308 39.5345 94.5141 39.6567 94.5893 39.5728C94.6475 39.5082 94.6256 39.0424 94.5868 38.5754C94.5456 38.0677 94.485 37.5564 94.485 37.5564C94.485 37.5564 93.4612 37.6247 93.191 37.5564C93.054 37.5218 92.8954 37.0212 92.7632 36.4453C92.447 36.9112 91.7466 38.0223 91.7029 38.7875C91.675 39.2795 91.8496 39.513 92.373 39.6124Z" fill="#201F39"/>
<path d="M101.249 39.8816C101.197 39.9324 101.12 39.9776 101.021 40.0168C100.197 40.347 97.9055 40.2617 96.818 39.6777C95.3959 38.9132 95.7301 35.8485 95.6056 35.165C95.4809 34.4815 94.5806 34.037 93.8577 33.7294C93.3387 33.5086 92.9229 33.122 92.7292 32.7505C92.6527 32.604 92.6108 32.46 92.6105 32.3291C92.6087 30.8825 95.1916 29.9013 97.0097 30.2089C98.8276 30.5164 99.0844 33.1484 98.9215 33.9686C98.759 34.789 98.5288 35.9851 100.239 36.9765C101.949 37.9676 101.739 39.4031 101.249 39.8816Z" fill="#201F39"/>
<path d="M95.4972 37.2656C95.5273 37.9414 94.706 38.5 94.5833 38.5795C94.5421 38.0702 94.4806 37.5584 94.4806 37.5584C94.9109 37.4733 95.4972 37.2656 95.4972 37.2656Z" fill="#EBB973"/>
<defs>
<linearGradient id="paint0_linear_16629_199577" x1="42.7618" y1="39.4051" x2="97.3354" y2="39.8462" gradientUnits="userSpaceOnUse">
<stop stop-color="#DCEBFF"/>
<stop offset="0.1841" stop-color="#FAFCFE"/>
<stop offset="0.3992" stop-color="#ECF1FC"/>
<stop offset="0.6297" stop-color="#E4ECFD"/>
<stop offset="0.8695" stop-color="#EEF4FF"/>
<stop offset="1" stop-color="#D3DDF1"/>
<stop offset="1" stop-color="#9FBBF1"/>
</linearGradient>
</defs>
</svg>
