<svg width="111" height="41" viewBox="0 0 111 41" fill="none" xmlns="http://www.w3.org/2000/svg">
<g filter="url(#filter0_d_5194_99336)">
<path d="M4.5 20C4.5 8.9543 13.4543 0 24.5 0H96.5L107 12.5L96.5 26H42.5H19.7843C14.4799 26 9.39286 28.1071 5.64214 31.8579L4.5 33V20Z" fill="#D7D7D7"/>
</g>
<path d="M21.5312 8.89062V16H20.3057V8.89062H21.5312ZM24.1045 11.8447V16H22.9277V10.7168H24.0361L24.1045 11.8447ZM23.8945 13.1631L23.5137 13.1582C23.5169 12.7839 23.569 12.4404 23.6699 12.1279C23.7741 11.8154 23.9173 11.5469 24.0996 11.3223C24.2852 11.0977 24.5065 10.9251 24.7637 10.8047C25.0208 10.681 25.3073 10.6191 25.623 10.6191C25.877 10.6191 26.1064 10.6549 26.3115 10.7266C26.5199 10.7949 26.6973 10.9072 26.8438 11.0635C26.9935 11.2197 27.1074 11.4232 27.1855 11.6738C27.2637 11.9212 27.3027 12.2256 27.3027 12.5869V16H26.1211V12.582C26.1211 12.3281 26.0837 12.1279 26.0088 11.9814C25.9372 11.8317 25.8314 11.7259 25.6914 11.6641C25.5547 11.599 25.3838 11.5664 25.1787 11.5664C24.9769 11.5664 24.7962 11.6087 24.6367 11.6934C24.4772 11.778 24.3421 11.8936 24.2314 12.04C24.124 12.1865 24.041 12.3558 23.9824 12.5479C23.9238 12.7399 23.8945 12.945 23.8945 13.1631ZM31.4824 14.9404V12.4209C31.4824 12.2321 31.4482 12.0693 31.3799 11.9326C31.3115 11.7959 31.2074 11.6901 31.0674 11.6152C30.9307 11.5404 30.7581 11.5029 30.5498 11.5029C30.3577 11.5029 30.1917 11.5355 30.0518 11.6006C29.9118 11.6657 29.8027 11.7536 29.7246 11.8643C29.6465 11.9749 29.6074 12.1003 29.6074 12.2402H28.4355C28.4355 12.0319 28.486 11.8301 28.5869 11.6348C28.6878 11.4395 28.8343 11.2653 29.0264 11.1123C29.2184 10.9593 29.4479 10.8389 29.7148 10.751C29.9818 10.6631 30.2812 10.6191 30.6133 10.6191C31.0104 10.6191 31.362 10.6859 31.668 10.8193C31.9772 10.9528 32.2197 11.1546 32.3955 11.4248C32.5745 11.6917 32.6641 12.027 32.6641 12.4307V14.7793C32.6641 15.0202 32.6803 15.2367 32.7129 15.4287C32.7487 15.6175 32.7992 15.7819 32.8643 15.9219V16H31.6582C31.6029 15.873 31.5589 15.7119 31.5264 15.5166C31.4971 15.318 31.4824 15.126 31.4824 14.9404ZM31.6533 12.7871L31.6631 13.5146H30.8184C30.6003 13.5146 30.4082 13.5358 30.2422 13.5781C30.0762 13.6172 29.9378 13.6758 29.8271 13.7539C29.7165 13.832 29.6335 13.9264 29.5781 14.0371C29.5228 14.1478 29.4951 14.2731 29.4951 14.4131C29.4951 14.5531 29.5277 14.6816 29.5928 14.7988C29.6579 14.9128 29.7523 15.0023 29.876 15.0674C30.0029 15.1325 30.1559 15.165 30.335 15.165C30.5758 15.165 30.7858 15.1162 30.9648 15.0186C31.1471 14.9176 31.2904 14.7956 31.3945 14.6523C31.4987 14.5059 31.554 14.3675 31.5605 14.2373L31.9414 14.7598C31.9023 14.8932 31.8356 15.0365 31.7412 15.1895C31.6468 15.3424 31.5231 15.4889 31.3701 15.6289C31.2204 15.7656 31.0397 15.8779 30.8281 15.9658C30.6198 16.0537 30.3789 16.0977 30.1055 16.0977C29.7604 16.0977 29.4528 16.0293 29.1826 15.8926C28.9124 15.7526 28.7008 15.5654 28.5479 15.3311C28.3949 15.0934 28.3184 14.8249 28.3184 14.5254C28.3184 14.2454 28.3704 13.998 28.4746 13.7832C28.582 13.5651 28.7383 13.3828 28.9434 13.2363C29.1517 13.0898 29.4056 12.9792 29.7051 12.9043C30.0046 12.8262 30.3464 12.7871 30.7305 12.7871H31.6533ZM36.0527 15.1602C36.2448 15.1602 36.4173 15.1227 36.5703 15.0479C36.7266 14.9697 36.8519 14.8623 36.9463 14.7256C37.0439 14.5889 37.0977 14.431 37.1074 14.252H38.2158C38.2093 14.5938 38.1084 14.9046 37.9131 15.1846C37.7178 15.4645 37.459 15.6875 37.1367 15.8535C36.8145 16.0163 36.458 16.0977 36.0674 16.0977C35.6637 16.0977 35.3122 16.0293 35.0127 15.8926C34.7132 15.7526 34.4642 15.5605 34.2656 15.3164C34.0671 15.0723 33.9173 14.7907 33.8164 14.4717C33.7188 14.1527 33.6699 13.8109 33.6699 13.4463V13.2754C33.6699 12.9108 33.7188 12.569 33.8164 12.25C33.9173 11.9277 34.0671 11.6445 34.2656 11.4004C34.4642 11.1562 34.7132 10.9658 35.0127 10.8291C35.3122 10.6891 35.6621 10.6191 36.0625 10.6191C36.4857 10.6191 36.8568 10.7038 37.1758 10.873C37.4948 11.0391 37.7454 11.2718 37.9277 11.5713C38.1133 11.8675 38.2093 12.2126 38.2158 12.6064H37.1074C37.0977 12.4111 37.0488 12.2354 36.9609 12.0791C36.8763 11.9196 36.7559 11.7926 36.5996 11.6982C36.4466 11.6038 36.2627 11.5566 36.0479 11.5566C35.8102 11.5566 35.6133 11.6055 35.457 11.7031C35.3008 11.7975 35.1787 11.9277 35.0908 12.0938C35.0029 12.2565 34.9395 12.4404 34.9004 12.6455C34.8646 12.8473 34.8467 13.0573 34.8467 13.2754V13.4463C34.8467 13.6644 34.8646 13.876 34.9004 14.0811C34.9362 14.2861 34.998 14.4701 35.0859 14.6328C35.1771 14.7923 35.3008 14.9209 35.457 15.0186C35.6133 15.113 35.8118 15.1602 36.0527 15.1602ZM41.541 10.7168V11.5762H38.5625V10.7168H41.541ZM39.4219 9.42285H40.5986V14.54C40.5986 14.7028 40.6214 14.8281 40.667 14.916C40.7158 15.0007 40.7826 15.0576 40.8672 15.0869C40.9518 15.1162 41.0511 15.1309 41.165 15.1309C41.2464 15.1309 41.3245 15.126 41.3994 15.1162C41.4743 15.1064 41.5345 15.0967 41.5801 15.0869L41.585 15.9854C41.4873 16.0146 41.3734 16.0407 41.2432 16.0635C41.1162 16.0863 40.9697 16.0977 40.8037 16.0977C40.5335 16.0977 40.2943 16.0505 40.0859 15.9561C39.8776 15.8584 39.7148 15.7005 39.5977 15.4824C39.4805 15.2643 39.4219 14.9746 39.4219 14.6133V9.42285ZM43.709 10.7168V16H42.5273V10.7168H43.709ZM42.4492 9.33008C42.4492 9.15104 42.5078 9.00293 42.625 8.88574C42.7454 8.7653 42.9115 8.70508 43.123 8.70508C43.3314 8.70508 43.4958 8.7653 43.6162 8.88574C43.7367 9.00293 43.7969 9.15104 43.7969 9.33008C43.7969 9.50586 43.7367 9.65234 43.6162 9.76953C43.4958 9.88672 43.3314 9.94531 43.123 9.94531C42.9115 9.94531 42.7454 9.88672 42.625 9.76953C42.5078 9.65234 42.4492 9.50586 42.4492 9.33008ZM46.7168 15.0674L48.0107 10.7168H49.2314L47.3955 16H46.6338L46.7168 15.0674ZM45.7256 10.7168L47.0439 15.0869L47.1074 16H46.3457L44.5 10.7168H45.7256ZM52.2197 16.0977C51.8291 16.0977 51.4759 16.0342 51.1602 15.9072C50.8477 15.777 50.5807 15.5964 50.3594 15.3652C50.1413 15.1341 49.9736 14.8623 49.8564 14.5498C49.7393 14.2373 49.6807 13.9004 49.6807 13.5391V13.3438C49.6807 12.9303 49.7409 12.556 49.8613 12.2207C49.9818 11.8854 50.1494 11.599 50.3643 11.3613C50.5791 11.1204 50.833 10.9365 51.126 10.8096C51.4189 10.6826 51.7363 10.6191 52.0781 10.6191C52.4557 10.6191 52.7861 10.6826 53.0693 10.8096C53.3525 10.9365 53.5869 11.1156 53.7725 11.3467C53.9613 11.5745 54.1012 11.8464 54.1924 12.1621C54.2868 12.4779 54.334 12.8262 54.334 13.207V13.71H50.252V12.8652H53.1719V12.7725C53.1654 12.5609 53.123 12.3623 53.0449 12.1768C52.9701 11.9912 52.8545 11.8415 52.6982 11.7275C52.542 11.6136 52.3337 11.5566 52.0732 11.5566C51.8779 11.5566 51.7038 11.599 51.5508 11.6836C51.401 11.765 51.2757 11.8838 51.1748 12.04C51.0739 12.1963 50.9958 12.3851 50.9404 12.6064C50.8883 12.8245 50.8623 13.0703 50.8623 13.3438V13.5391C50.8623 13.7702 50.8932 13.985 50.9551 14.1836C51.0202 14.3789 51.1146 14.5498 51.2383 14.6963C51.362 14.8428 51.5117 14.9583 51.6875 15.043C51.8633 15.1243 52.0635 15.165 52.2881 15.165C52.5713 15.165 52.8236 15.1081 53.0449 14.9941C53.2663 14.8802 53.4583 14.7191 53.6211 14.5107L54.2412 15.1113C54.1273 15.2773 53.9792 15.4368 53.7969 15.5898C53.6146 15.7396 53.3916 15.8617 53.1279 15.9561C52.8675 16.0505 52.5648 16.0977 52.2197 16.0977ZM62.5127 15.0283V16H58.7383V15.0283H62.5127ZM59.085 8.89062V16H57.8594V8.89062H59.085ZM62.0195 11.8594V12.8164H58.7383V11.8594H62.0195ZM62.4883 8.89062V9.86719H58.7383V8.89062H62.4883ZM64.9883 15.0674L66.2822 10.7168H67.5029L65.667 16H64.9053L64.9883 15.0674ZM63.9971 10.7168L65.3154 15.0869L65.3789 16H64.6172L62.7715 10.7168H63.9971ZM70.4912 16.0977C70.1006 16.0977 69.7474 16.0342 69.4316 15.9072C69.1191 15.777 68.8522 15.5964 68.6309 15.3652C68.4128 15.1341 68.2451 14.8623 68.1279 14.5498C68.0107 14.2373 67.9521 13.9004 67.9521 13.5391V13.3438C67.9521 12.9303 68.0124 12.556 68.1328 12.2207C68.2533 11.8854 68.4209 11.599 68.6357 11.3613C68.8506 11.1204 69.1045 10.9365 69.3975 10.8096C69.6904 10.6826 70.0078 10.6191 70.3496 10.6191C70.7272 10.6191 71.0576 10.6826 71.3408 10.8096C71.624 10.9365 71.8584 11.1156 72.0439 11.3467C72.2327 11.5745 72.3727 11.8464 72.4639 12.1621C72.5583 12.4779 72.6055 12.8262 72.6055 13.207V13.71H68.5234V12.8652H71.4434V12.7725C71.4368 12.5609 71.3945 12.3623 71.3164 12.1768C71.2415 11.9912 71.126 11.8415 70.9697 11.7275C70.8135 11.6136 70.6051 11.5566 70.3447 11.5566C70.1494 11.5566 69.9753 11.599 69.8223 11.6836C69.6725 11.765 69.5472 11.8838 69.4463 12.04C69.3454 12.1963 69.2673 12.3851 69.2119 12.6064C69.1598 12.8245 69.1338 13.0703 69.1338 13.3438V13.5391C69.1338 13.7702 69.1647 13.985 69.2266 14.1836C69.2917 14.3789 69.3861 14.5498 69.5098 14.6963C69.6335 14.8428 69.7832 14.9583 69.959 15.043C70.1348 15.1243 70.335 15.165 70.5596 15.165C70.8428 15.165 71.0951 15.1081 71.3164 14.9941C71.5378 14.8802 71.7298 14.7191 71.8926 14.5107L72.5127 15.1113C72.3988 15.2773 72.2507 15.4368 72.0684 15.5898C71.8861 15.7396 71.6631 15.8617 71.3994 15.9561C71.139 16.0505 70.8363 16.0977 70.4912 16.0977ZM74.6904 11.8447V16H73.5137V10.7168H74.6221L74.6904 11.8447ZM74.4805 13.1631L74.0996 13.1582C74.1029 12.7839 74.1549 12.4404 74.2559 12.1279C74.36 11.8154 74.5033 11.5469 74.6855 11.3223C74.8711 11.0977 75.0924 10.9251 75.3496 10.8047C75.6068 10.681 75.8932 10.6191 76.209 10.6191C76.4629 10.6191 76.6924 10.6549 76.8975 10.7266C77.1058 10.7949 77.2832 10.9072 77.4297 11.0635C77.5794 11.2197 77.6934 11.4232 77.7715 11.6738C77.8496 11.9212 77.8887 12.2256 77.8887 12.5869V16H76.707V12.582C76.707 12.3281 76.6696 12.1279 76.5947 11.9814C76.5231 11.8317 76.4173 11.7259 76.2773 11.6641C76.1406 11.599 75.9697 11.5664 75.7646 11.5664C75.5628 11.5664 75.3822 11.6087 75.2227 11.6934C75.0632 11.778 74.9281 11.8936 74.8174 12.04C74.71 12.1865 74.627 12.3558 74.5684 12.5479C74.5098 12.7399 74.4805 12.945 74.4805 13.1631ZM81.5117 10.7168V11.5762H78.5332V10.7168H81.5117ZM79.3926 9.42285H80.5693V14.54C80.5693 14.7028 80.5921 14.8281 80.6377 14.916C80.6865 15.0007 80.7533 15.0576 80.8379 15.0869C80.9225 15.1162 81.0218 15.1309 81.1357 15.1309C81.2171 15.1309 81.2952 15.126 81.3701 15.1162C81.445 15.1064 81.5052 15.0967 81.5508 15.0869L81.5557 15.9854C81.458 16.0146 81.3441 16.0407 81.2139 16.0635C81.0869 16.0863 80.9404 16.0977 80.7744 16.0977C80.5042 16.0977 80.265 16.0505 80.0566 15.9561C79.8483 15.8584 79.6855 15.7005 79.5684 15.4824C79.4512 15.2643 79.3926 14.9746 79.3926 14.6133V9.42285Z" fill="#262425"/>
<defs>
<filter id="filter0_d_5194_99336" x="0.5" y="0" width="110.5" height="41" filterUnits="userSpaceOnUse" color-interpolation-filters="sRGB">
<feFlood flood-opacity="0" result="BackgroundImageFix"/>
<feColorMatrix in="SourceAlpha" type="matrix" values="0 0 0 0 0 0 0 0 0 0 0 0 0 0 0 0 0 0 127 0" result="hardAlpha"/>
<feOffset dy="4"/>
<feGaussianBlur stdDeviation="2"/>
<feComposite in2="hardAlpha" operator="out"/>
<feColorMatrix type="matrix" values="0 0 0 0 0 0 0 0 0 0 0 0 0 0 0 0 0 0 0.2 0"/>
<feBlend mode="normal" in2="BackgroundImageFix" result="effect1_dropShadow_5194_99336"/>
<feBlend mode="normal" in="SourceGraphic" in2="effect1_dropShadow_5194_99336" result="shape"/>
</filter>
</defs>
</svg>
