<svg width="18" height="18" viewBox="0 0 18 18" fill="none" xmlns="http://www.w3.org/2000/svg">
<path d="M14.3493 5.89862L12.1308 8.11707C12.3408 8.86064 12.2786 9.6546 11.9552 10.3563C11.6318 11.0579 11.0686 11.6211 10.3669 11.9445C9.66526 12.2679 8.8712 12.3302 8.12777 12.1201L6.74414 13.5036V13.5037C7.47839 13.7113 8.23742 13.8186 9.00041 13.8222C13.9704 13.8222 18.0004 9.00013 18.0004 9.00013C16.9359 7.7991 15.7067 6.75475 14.3493 5.89844L14.3493 5.89862Z" fill="black"/>
<path d="M3.65149 12.1029L5.87483 9.87957C5.65971 9.13307 5.71956 8.33411 6.0435 7.6279C6.36744 6.92169 6.93399 6.35516 7.64016 6.03124C8.34623 5.7073 9.14519 5.64745 9.89183 5.86257L11.2562 4.49819C10.522 4.29046 9.76294 4.18332 8.99994 4.17969C4.02997 4.17969 0 8.99966 0 8.99966C1.0646 10.2013 2.29391 11.246 3.6514 12.1029L3.65149 12.1029Z" fill="black"/>
<path d="M1.17245 16.8277C1.28279 16.938 1.43235 16.9999 1.58844 16.9999C1.74455 16.9999 1.89424 16.938 2.00458 16.8277L16.8277 2.00454H16.8276C16.9763 1.85596 17.0343 1.63929 16.9799 1.43618C16.9255 1.23308 16.7669 1.07444 16.5639 1.02004C16.3608 0.965638 16.1441 1.02381 15.9954 1.17239L1.17229 15.9955H1.17243C1.06194 16.1059 1 16.2555 1 16.4115C1 16.5676 1.06194 16.7173 1.17243 16.8276L1.17245 16.8277Z" fill="black"/>
</svg>
