<svg width="16" height="16" viewBox="0 0 16 16" fill="none" xmlns="http://www.w3.org/2000/svg">
<path d="M12.8422 2.94506C11.6774 1.82921 10.1629 1.14995 8.55492 1.02205C6.94697 0.894144 5.34406 1.32555 4.01751 2.24324C2.69101 3.16103 1.72203 4.50874 1.27461 6.0585C0.827216 7.60829 0.928837 9.26502 1.5623 10.7486C2.19568 12.2322 3.32201 13.4515 4.75091 14.2001C6.17968 14.9489 7.82315 15.1813 9.40362 14.8579C10.984 14.5344 12.4042 13.6751 13.424 12.4253C14.4437 11.1755 15.0006 9.61182 15.0002 7.99853C15.0014 7.05404 14.8108 6.11908 14.4399 5.25047C14.069 4.38175 13.5256 3.59746 12.8425 2.94503L12.8422 2.94506ZM14.2664 7.64253H11.1261C11.1096 6.69272 11.0014 5.74686 10.8033 4.81797C11.4502 4.53598 12.0504 4.15735 12.5836 3.69523C13.6002 4.76721 14.2004 6.16715 14.276 7.64261L14.2664 7.64253ZM5.57167 7.64253C5.58936 6.77932 5.68633 5.91958 5.86128 5.07417C6.5522 5.29352 7.27278 5.4048 7.99761 5.40415C8.72243 5.40479 9.44301 5.29352 10.1339 5.07417C10.3057 5.91991 10.3995 6.77962 10.414 7.64253H5.57167ZM10.4045 8.35463H10.4046C10.3932 9.21722 10.3026 10.0769 10.134 10.923C8.74854 10.4831 7.26085 10.4831 5.87543 10.923C5.69888 10.0777 5.60043 9.21795 5.58114 8.35463H10.4045ZM12.0519 3.20142C11.6211 3.5702 11.1419 3.87845 10.6277 4.11761C10.5239 3.757 10.397 3.40339 10.2479 3.059C10.074 2.64986 9.84998 2.26391 9.58092 1.91008C10.4943 2.14872 11.3421 2.59007 12.0614 3.20142H12.0519ZM7.99763 1.70833C8.55777 1.70833 9.14178 2.30408 9.59511 3.34384C9.74018 3.67987 9.86152 4.02576 9.95827 4.37872C9.32565 4.58684 8.66376 4.69269 7.99766 4.69207C7.33153 4.69271 6.66967 4.58684 6.03705 4.37872C6.13379 4.02573 6.25513 3.67985 6.40021 3.34384C6.85354 2.30175 7.43752 1.70833 7.99769 1.70833H7.99763ZM6.41437 1.91009C6.14531 2.26392 5.92129 2.64987 5.7474 3.05901C5.59926 3.40373 5.47241 3.75734 5.36761 4.11762C4.85335 3.87845 4.37416 3.57018 3.9434 3.20143C4.65995 2.59138 5.50442 2.15001 6.41437 1.91009ZM3.41158 3.69513C3.94481 4.15726 4.54501 4.53588 5.19185 4.81788C4.99379 5.7469 4.8856 6.69277 4.86908 7.64243H1.71926C1.79524 6.16703 2.39545 4.76742 3.41169 3.69505L3.41158 3.69513ZM1.71915 8.35462H4.86897C4.8855 9.30442 4.9937 10.2503 5.19174 11.1792C4.54479 11.462 3.94459 11.8414 3.41147 12.3044C2.39524 11.2311 1.79514 9.83054 1.71905 8.35454L1.71915 8.35462ZM3.93379 12.7982C4.36518 12.4294 4.84418 12.1204 5.35801 11.8795C5.46186 12.241 5.5887 12.5954 5.7378 12.9406C5.91127 13.3491 6.13538 13.7343 6.40487 14.0871C5.49503 13.848 4.65057 13.4075 3.93379 12.7982ZM7.99755 14.2888C7.43741 14.2888 6.85341 13.6931 6.40007 12.6557C6.25511 12.3188 6.13367 11.9723 6.03691 11.6184C7.31054 11.2006 8.68454 11.2006 9.95825 11.6184C9.86107 11.972 9.73974 12.3187 9.59509 12.6557C9.14175 13.6954 8.55777 14.2888 7.99761 14.2888H7.99755ZM9.58082 14.0871C9.85019 13.7343 10.0743 13.3491 10.2478 12.9406C10.3969 12.5953 10.5237 12.241 10.6276 11.8795C11.1414 12.1204 11.6205 12.4294 12.0518 12.7982C11.3351 13.4075 10.4907 13.848 9.58082 14.0871ZM12.5836 12.3045C12.0505 11.8415 11.4503 11.4621 10.8033 11.1793C11.0014 10.2502 11.1096 9.30438 11.1261 8.35471H14.2759C14.1998 9.83074 13.5997 11.2314 12.5835 12.3045L12.5836 12.3045Z" fill="#E6427A" stroke="#E6427A" stroke-width="0.2"/>
</svg>
