<svg width="36" height="36" viewBox="0 0 36 36" fill="none" xmlns="http://www.w3.org/2000/svg">
<circle cx="18" cy="18" r="18" fill="white"/>
<path d="M13.658 26.8828C12.2428 27.6268 11.0513 26.7621 11.3218 25.1851L12.1338 20.4506C12.1389 20.4199 12.1001 20.3012 12.0781 20.2795L8.63819 16.9266C7.4934 15.8105 7.94756 14.4099 9.53066 14.1799L14.2842 13.4893C14.3153 13.4847 14.4165 13.411 14.4301 13.3832L16.5561 9.0756C17.2635 7.64196 18.736 7.64097 19.4438 9.0756L21.5698 13.3832C21.5837 13.4113 21.6849 13.4847 21.7156 13.4893L26.4692 14.1799C28.0517 14.4099 28.5071 15.81 27.3617 16.9266L23.9218 20.2795C23.8994 20.3012 23.8609 20.4202 23.8661 20.4506L24.6784 25.1851C24.9485 26.7611 23.7578 27.6271 22.3418 26.8828L18.09 24.6475C18.0621 24.633 17.9373 24.633 17.9098 24.6475L13.658 26.8828Z" fill="#E6427A"/>
</svg>
