<svg width="36" height="36" viewBox="0 0 36 36" fill="none" xmlns="http://www.w3.org/2000/svg">
<circle cx="18" cy="18" r="17.5" fill="#F7F7F7" stroke="#D7D7D7"/>
<path d="M19.3334 10H16.6667C16.1362 10 15.6276 10.2107 15.2524 10.5857C14.8774 10.9609 14.6667 11.4695 14.6667 12V12.6666H10.6667C10.4284 12.6666 10.2083 12.7937 10.0893 13C9.97024 13.2062 9.97024 13.4604 10.0893 13.6666C10.2083 13.8729 10.4284 14 10.6667 14H11.4033L12.4067 23.0353C12.4973 23.8506 12.8856 24.6037 13.4969 25.1508C14.1082 25.6978 14.8997 26.0002 15.72 26H20.28C21.1004 26.0001 21.8919 25.6976 22.5032 25.1504C23.1147 24.6034 23.5028 23.85 23.5933 23.0347L24.6 14.0001H25.3333C25.5716 14.0001 25.7917 13.873 25.9107 13.6668C26.0298 13.4605 26.0298 13.2064 25.9107 13.0001C25.7917 12.7939 25.5716 12.6668 25.3333 12.6668H21.3333V12.0001C21.3333 11.4696 21.1226 10.961 20.7476 10.5859C20.3724 10.2109 19.8638 10.0002 19.3333 10.0002L19.3334 10ZM16.0001 12C16.0001 11.8232 16.0703 11.6536 16.1953 11.5286C16.3203 11.4036 16.4899 11.3333 16.6667 11.3333H19.3334C19.5102 11.3333 19.6799 11.4036 19.8049 11.5286C19.9299 11.6536 20.0001 11.8232 20.0001 12V12.6666H16.0001V12ZM16.6667 20.6666C16.6667 20.9048 16.5396 21.1249 16.3334 21.2439C16.1271 21.363 15.873 21.363 15.6667 21.2439C15.4605 21.1249 15.3334 20.9048 15.3334 20.6666V16.6666C15.3334 16.4284 15.4605 16.2083 15.6667 16.0892C15.873 15.9702 16.1271 15.9702 16.3334 16.0892C16.5396 16.2083 16.6667 16.4284 16.6667 16.6666V20.6666ZM20.6668 20.6666C20.6668 20.9048 20.5397 21.1249 20.3334 21.2439C20.1272 21.363 19.873 21.363 19.6668 21.2439C19.4605 21.1249 19.3334 20.9048 19.3334 20.6666V16.6666C19.3334 16.4284 19.4605 16.2083 19.6668 16.0892C19.873 15.9702 20.1272 15.9702 20.3334 16.0892C20.5397 16.2083 20.6668 16.4284 20.6668 16.6666V20.6666Z" fill="black"/>
</svg>
