<svg width="36" height="36" viewBox="0 0 36 36" fill="none" xmlns="http://www.w3.org/2000/svg">
<circle cx="18" cy="18" r="18" fill="white"/>
<path d="M13.658 26.8828C12.2428 27.6268 11.0513 26.7621 11.3218 25.1851L12.1338 20.4506C12.1389 20.4199 12.1001 20.3012 12.0781 20.2795L8.63819 16.9266C7.4934 15.8105 7.94756 14.4099 9.53066 14.1799L14.2842 13.4893C14.3153 13.4847 14.4165 13.411 14.4301 13.3832L16.5561 9.0756C17.2635 7.64196 18.736 7.64097 19.4438 9.0756L21.5698 13.3832C21.5837 13.4113 21.6849 13.4847 21.7156 13.4893L26.4692 14.1799C28.0517 14.4099 28.5071 15.81 27.3617 16.9266L23.9218 20.2795C23.8994 20.3012 23.8609 20.4202 23.8661 20.4506L24.6784 25.1851C24.9485 26.7611 23.7578 27.6271 22.3418 26.8828L18.09 24.6475C18.0621 24.633 17.9373 24.633 17.9098 24.6475L13.658 26.8828ZM18.7374 23.416L22.9893 25.6513C23.3843 25.859 23.3826 25.8603 23.3073 25.4206L22.495 20.6861C22.4125 20.2051 22.6001 19.6251 22.9508 19.2832L26.3907 15.9303C26.7103 15.6188 26.711 15.6207 26.2694 15.5567L21.5155 14.866C21.0325 14.7958 20.5392 14.4384 20.3225 13.9991L18.1966 9.6912C17.9989 9.29138 18.0012 9.29106 17.8038 9.6912L15.6779 13.9991C15.4618 14.4368 14.9695 14.7955 14.4846 14.866L9.73067 15.5567C9.28912 15.6207 9.28976 15.6188 9.60937 15.9303L13.0493 19.2832C13.3987 19.6238 13.5879 20.2032 13.5051 20.6861L12.6931 25.4206C12.6174 25.8603 12.6158 25.859 13.0108 25.6513L17.2627 23.416C17.6945 23.1889 18.3039 23.188 18.7374 23.416Z" fill="black"/>
</svg>
