<svg width="111" height="41" viewBox="0 0 111 41" fill="none" xmlns="http://www.w3.org/2000/svg">
<g filter="url(#filter0_d_1215_16019)">
<path d="M4 20C4 8.9543 12.9543 0 24 0H96L106.5 12.5L96 26H42H19.2843C13.9799 26 8.89286 28.1071 5.14214 31.8579L4 33V20Z" fill="#E6427A"/>
</g>
<path d="M20.9482 8.89062V16H19.7227V8.89062H20.9482ZM23.8486 12.001V12.9727H20.6357V12.001H23.8486ZM24.2539 8.89062V9.86719H20.6357V8.89062H24.2539ZM27.335 16.0977C26.9443 16.0977 26.5911 16.0342 26.2754 15.9072C25.9629 15.777 25.696 15.5964 25.4746 15.3652C25.2565 15.1341 25.0889 14.8623 24.9717 14.5498C24.8545 14.2373 24.7959 13.9004 24.7959 13.5391V13.3438C24.7959 12.9303 24.8561 12.556 24.9766 12.2207C25.097 11.8854 25.2646 11.599 25.4795 11.3613C25.6943 11.1204 25.9482 10.9365 26.2412 10.8096C26.5342 10.6826 26.8516 10.6191 27.1934 10.6191C27.571 10.6191 27.9014 10.6826 28.1846 10.8096C28.4678 10.9365 28.7021 11.1156 28.8877 11.3467C29.0765 11.5745 29.2165 11.8464 29.3076 12.1621C29.402 12.4779 29.4492 12.8262 29.4492 13.207V13.71H25.3672V12.8652H28.2871V12.7725C28.2806 12.5609 28.2383 12.3623 28.1602 12.1768C28.0853 11.9912 27.9697 11.8415 27.8135 11.7275C27.6572 11.6136 27.4489 11.5566 27.1885 11.5566C26.9932 11.5566 26.819 11.599 26.666 11.6836C26.5163 11.765 26.391 11.8838 26.29 12.04C26.1891 12.1963 26.111 12.3851 26.0557 12.6064C26.0036 12.8245 25.9775 13.0703 25.9775 13.3438V13.5391C25.9775 13.7702 26.0085 13.985 26.0703 14.1836C26.1354 14.3789 26.2298 14.5498 26.3535 14.6963C26.4772 14.8428 26.627 14.9583 26.8027 15.043C26.9785 15.1243 27.1787 15.165 27.4033 15.165C27.6865 15.165 27.9388 15.1081 28.1602 14.9941C28.3815 14.8802 28.5736 14.7191 28.7363 14.5107L29.3564 15.1113C29.2425 15.2773 29.0944 15.4368 28.9121 15.5898C28.7298 15.7396 28.5068 15.8617 28.2432 15.9561C27.9827 16.0505 27.68 16.0977 27.335 16.0977ZM33.3457 14.9404V12.4209C33.3457 12.2321 33.3115 12.0693 33.2432 11.9326C33.1748 11.7959 33.0706 11.6901 32.9307 11.6152C32.7939 11.5404 32.6214 11.5029 32.4131 11.5029C32.221 11.5029 32.055 11.5355 31.915 11.6006C31.7751 11.6657 31.666 11.7536 31.5879 11.8643C31.5098 11.9749 31.4707 12.1003 31.4707 12.2402H30.2988C30.2988 12.0319 30.3493 11.8301 30.4502 11.6348C30.5511 11.4395 30.6976 11.2653 30.8896 11.1123C31.0817 10.9593 31.3112 10.8389 31.5781 10.751C31.8451 10.6631 32.1445 10.6191 32.4766 10.6191C32.8737 10.6191 33.2253 10.6859 33.5312 10.8193C33.8405 10.9528 34.083 11.1546 34.2588 11.4248C34.4378 11.6917 34.5273 12.027 34.5273 12.4307V14.7793C34.5273 15.0202 34.5436 15.2367 34.5762 15.4287C34.612 15.6175 34.6624 15.7819 34.7275 15.9219V16H33.5215C33.4661 15.873 33.4222 15.7119 33.3896 15.5166C33.3604 15.318 33.3457 15.126 33.3457 14.9404ZM33.5166 12.7871L33.5264 13.5146H32.6816C32.4635 13.5146 32.2715 13.5358 32.1055 13.5781C31.9395 13.6172 31.8011 13.6758 31.6904 13.7539C31.5798 13.832 31.4967 13.9264 31.4414 14.0371C31.3861 14.1478 31.3584 14.2731 31.3584 14.4131C31.3584 14.5531 31.391 14.6816 31.4561 14.7988C31.5212 14.9128 31.6156 15.0023 31.7393 15.0674C31.8662 15.1325 32.0192 15.165 32.1982 15.165C32.4391 15.165 32.6491 15.1162 32.8281 15.0186C33.0104 14.9176 33.1536 14.7956 33.2578 14.6523C33.362 14.5059 33.4173 14.3675 33.4238 14.2373L33.8047 14.7598C33.7656 14.8932 33.6989 15.0365 33.6045 15.1895C33.5101 15.3424 33.3864 15.4889 33.2334 15.6289C33.0837 15.7656 32.903 15.8779 32.6914 15.9658C32.4831 16.0537 32.2422 16.0977 31.9688 16.0977C31.6237 16.0977 31.3161 16.0293 31.0459 15.8926C30.7757 15.7526 30.5641 15.5654 30.4111 15.3311C30.2581 15.0934 30.1816 14.8249 30.1816 14.5254C30.1816 14.2454 30.2337 13.998 30.3379 13.7832C30.4453 13.5651 30.6016 13.3828 30.8066 13.2363C31.015 13.0898 31.2689 12.9792 31.5684 12.9043C31.8678 12.8262 32.2096 12.7871 32.5938 12.7871H33.5166ZM38.1797 10.7168V11.5762H35.2012V10.7168H38.1797ZM36.0605 9.42285H37.2373V14.54C37.2373 14.7028 37.2601 14.8281 37.3057 14.916C37.3545 15.0007 37.4212 15.0576 37.5059 15.0869C37.5905 15.1162 37.6898 15.1309 37.8037 15.1309C37.8851 15.1309 37.9632 15.126 38.0381 15.1162C38.113 15.1064 38.1732 15.0967 38.2188 15.0869L38.2236 15.9854C38.126 16.0146 38.012 16.0407 37.8818 16.0635C37.7549 16.0863 37.6084 16.0977 37.4424 16.0977C37.1722 16.0977 36.9329 16.0505 36.7246 15.9561C36.5163 15.8584 36.3535 15.7005 36.2363 15.4824C36.1191 15.2643 36.0605 14.9746 36.0605 14.6133V9.42285ZM42.2666 14.7549V10.7168H43.4482V16H42.335L42.2666 14.7549ZM42.4326 13.6562L42.8281 13.6465C42.8281 14.0013 42.7891 14.3285 42.7109 14.6279C42.6328 14.9242 42.5124 15.1829 42.3496 15.4043C42.1868 15.6224 41.9785 15.7933 41.7246 15.917C41.4707 16.0374 41.1663 16.0977 40.8115 16.0977C40.5544 16.0977 40.3184 16.0602 40.1035 15.9854C39.8887 15.9105 39.7031 15.7949 39.5469 15.6387C39.3939 15.4824 39.2751 15.279 39.1904 15.0283C39.1058 14.7777 39.0635 14.4782 39.0635 14.1299V10.7168H40.2402V14.1396C40.2402 14.3317 40.263 14.4928 40.3086 14.623C40.3542 14.75 40.416 14.8525 40.4941 14.9307C40.5723 15.0088 40.6634 15.0641 40.7676 15.0967C40.8717 15.1292 40.9824 15.1455 41.0996 15.1455C41.4349 15.1455 41.6986 15.0804 41.8906 14.9502C42.0859 14.8167 42.2243 14.6377 42.3057 14.4131C42.3903 14.1885 42.4326 13.9362 42.4326 13.6562ZM45.8359 11.7227V16H44.6592V10.7168H45.7822L45.8359 11.7227ZM47.4521 10.6826L47.4424 11.7764C47.3708 11.7633 47.2926 11.7536 47.208 11.7471C47.1266 11.7406 47.0452 11.7373 46.9639 11.7373C46.762 11.7373 46.5846 11.7666 46.4316 11.8252C46.2786 11.8805 46.1501 11.9619 46.0459 12.0693C45.945 12.1735 45.8669 12.3005 45.8115 12.4502C45.7562 12.5999 45.7236 12.7676 45.7139 12.9531L45.4453 12.9727C45.4453 12.6406 45.4779 12.333 45.543 12.0498C45.6081 11.7666 45.7057 11.5176 45.8359 11.3027C45.9694 11.0879 46.1354 10.9202 46.334 10.7998C46.5358 10.6794 46.7686 10.6191 47.0322 10.6191C47.1038 10.6191 47.1803 10.6257 47.2617 10.6387C47.3464 10.6517 47.4098 10.6663 47.4521 10.6826ZM50.4209 16.0977C50.0303 16.0977 49.6771 16.0342 49.3613 15.9072C49.0488 15.777 48.7819 15.5964 48.5605 15.3652C48.3424 15.1341 48.1748 14.8623 48.0576 14.5498C47.9404 14.2373 47.8818 13.9004 47.8818 13.5391V13.3438C47.8818 12.9303 47.9421 12.556 48.0625 12.2207C48.1829 11.8854 48.3506 11.599 48.5654 11.3613C48.7803 11.1204 49.0342 10.9365 49.3271 10.8096C49.6201 10.6826 49.9375 10.6191 50.2793 10.6191C50.6569 10.6191 50.9873 10.6826 51.2705 10.8096C51.5537 10.9365 51.7881 11.1156 51.9736 11.3467C52.1624 11.5745 52.3024 11.8464 52.3936 12.1621C52.488 12.4779 52.5352 12.8262 52.5352 13.207V13.71H48.4531V12.8652H51.373V12.7725C51.3665 12.5609 51.3242 12.3623 51.2461 12.1768C51.1712 11.9912 51.0557 11.8415 50.8994 11.7275C50.7432 11.6136 50.5348 11.5566 50.2744 11.5566C50.0791 11.5566 49.9049 11.599 49.752 11.6836C49.6022 11.765 49.4769 11.8838 49.376 12.04C49.2751 12.1963 49.1969 12.3851 49.1416 12.6064C49.0895 12.8245 49.0635 13.0703 49.0635 13.3438V13.5391C49.0635 13.7702 49.0944 13.985 49.1562 14.1836C49.2214 14.3789 49.3158 14.5498 49.4395 14.6963C49.5632 14.8428 49.7129 14.9583 49.8887 15.043C50.0645 15.1243 50.2646 15.165 50.4893 15.165C50.7725 15.165 51.0247 15.1081 51.2461 14.9941C51.4674 14.8802 51.6595 14.7191 51.8223 14.5107L52.4424 15.1113C52.3285 15.2773 52.1803 15.4368 51.998 15.5898C51.8158 15.7396 51.5928 15.8617 51.3291 15.9561C51.0687 16.0505 50.766 16.0977 50.4209 16.0977ZM56.6758 14.9062V8.5H57.8574V16H56.7881L56.6758 14.9062ZM53.2383 13.417V13.3145C53.2383 12.9141 53.2855 12.5495 53.3799 12.2207C53.4743 11.8887 53.611 11.6038 53.79 11.3662C53.9691 11.1253 54.1872 10.9414 54.4443 10.8145C54.7015 10.6842 54.9912 10.6191 55.3135 10.6191C55.6325 10.6191 55.9124 10.681 56.1533 10.8047C56.3942 10.9284 56.5993 11.1058 56.7686 11.3369C56.9378 11.5648 57.0729 11.8382 57.1738 12.1572C57.2747 12.473 57.3464 12.8245 57.3887 13.2119V13.5391C57.3464 13.9167 57.2747 14.2617 57.1738 14.5742C57.0729 14.8867 56.9378 15.1569 56.7686 15.3848C56.5993 15.6126 56.3926 15.7884 56.1484 15.9121C55.9076 16.0358 55.626 16.0977 55.3037 16.0977C54.9847 16.0977 54.6966 16.0309 54.4395 15.8975C54.1855 15.764 53.9691 15.5768 53.79 15.3359C53.611 15.0951 53.4743 14.8118 53.3799 14.4863C53.2855 14.1576 53.2383 13.8011 53.2383 13.417ZM54.415 13.3145V13.417C54.415 13.6579 54.4362 13.8825 54.4785 14.0908C54.5241 14.2992 54.5941 14.4831 54.6885 14.6426C54.7829 14.7988 54.9049 14.9225 55.0547 15.0137C55.2077 15.1016 55.39 15.1455 55.6016 15.1455C55.8685 15.1455 56.0882 15.0869 56.2607 14.9697C56.4333 14.8525 56.5684 14.6947 56.666 14.4961C56.7669 14.2943 56.8353 14.0697 56.8711 13.8223V12.9385C56.8516 12.7464 56.8109 12.5674 56.749 12.4014C56.6904 12.2354 56.6107 12.0905 56.5098 11.9668C56.4089 11.8398 56.2835 11.7422 56.1338 11.6738C55.9873 11.6022 55.8132 11.5664 55.6113 11.5664C55.3965 11.5664 55.2142 11.612 55.0645 11.7031C54.9147 11.7943 54.791 11.9196 54.6934 12.0791C54.599 12.2386 54.529 12.4242 54.4834 12.6357C54.4378 12.8473 54.415 13.0736 54.415 13.3145ZM63.0039 8.89062V16H61.7783V8.89062H63.0039ZM65.5869 11.791V16H64.4102V10.7168H65.5186L65.5869 11.791ZM65.3965 13.1631L64.9961 13.1582C64.9961 12.7936 65.0417 12.4567 65.1328 12.1475C65.224 11.8382 65.3574 11.5697 65.5332 11.3418C65.709 11.1107 65.9271 10.9333 66.1875 10.8096C66.4512 10.6826 66.7555 10.6191 67.1006 10.6191C67.3415 10.6191 67.5612 10.6549 67.7598 10.7266C67.9616 10.7949 68.1357 10.904 68.2822 11.0537C68.432 11.2035 68.5459 11.3955 68.624 11.6299C68.7054 11.8643 68.7461 12.1475 68.7461 12.4795V16H67.5693V12.582C67.5693 12.3249 67.5303 12.123 67.4521 11.9766C67.3773 11.8301 67.2682 11.7259 67.125 11.6641C66.985 11.599 66.8174 11.5664 66.6221 11.5664C66.4007 11.5664 66.2119 11.6087 66.0557 11.6934C65.9027 11.778 65.7773 11.8936 65.6797 12.04C65.582 12.1865 65.5104 12.3558 65.4648 12.5479C65.4193 12.7399 65.3965 12.945 65.3965 13.1631ZM68.6729 12.8506L68.1211 12.9727C68.1211 12.6536 68.165 12.3525 68.2529 12.0693C68.3441 11.7829 68.4759 11.5322 68.6484 11.3174C68.8242 11.0993 69.0407 10.9284 69.2979 10.8047C69.555 10.681 69.8496 10.6191 70.1816 10.6191C70.4518 10.6191 70.6927 10.6566 70.9043 10.7314C71.1191 10.8031 71.3014 10.917 71.4512 11.0732C71.6009 11.2295 71.7148 11.4329 71.793 11.6836C71.8711 11.931 71.9102 12.2305 71.9102 12.582V16H70.7285V12.5771C70.7285 12.3102 70.6895 12.1035 70.6113 11.957C70.5365 11.8105 70.429 11.7096 70.2891 11.6543C70.1491 11.5957 69.9814 11.5664 69.7861 11.5664C69.6038 11.5664 69.4427 11.6006 69.3027 11.6689C69.166 11.734 69.0505 11.8268 68.9561 11.9473C68.8617 12.0645 68.79 12.1995 68.7412 12.3525C68.6956 12.5055 68.6729 12.6715 68.6729 12.8506ZM76.0996 14.9404V12.4209C76.0996 12.2321 76.0654 12.0693 75.9971 11.9326C75.9287 11.7959 75.8245 11.6901 75.6846 11.6152C75.5479 11.5404 75.3753 11.5029 75.167 11.5029C74.9749 11.5029 74.8089 11.5355 74.6689 11.6006C74.529 11.6657 74.4199 11.7536 74.3418 11.8643C74.2637 11.9749 74.2246 12.1003 74.2246 12.2402H73.0527C73.0527 12.0319 73.1032 11.8301 73.2041 11.6348C73.305 11.4395 73.4515 11.2653 73.6436 11.1123C73.8356 10.9593 74.0651 10.8389 74.332 10.751C74.599 10.6631 74.8984 10.6191 75.2305 10.6191C75.6276 10.6191 75.9792 10.6859 76.2852 10.8193C76.5944 10.9528 76.8369 11.1546 77.0127 11.4248C77.1917 11.6917 77.2812 12.027 77.2812 12.4307V14.7793C77.2812 15.0202 77.2975 15.2367 77.3301 15.4287C77.3659 15.6175 77.4163 15.7819 77.4814 15.9219V16H76.2754C76.2201 15.873 76.1761 15.7119 76.1436 15.5166C76.1143 15.318 76.0996 15.126 76.0996 14.9404ZM76.2705 12.7871L76.2803 13.5146H75.4355C75.2174 13.5146 75.0254 13.5358 74.8594 13.5781C74.6934 13.6172 74.555 13.6758 74.4443 13.7539C74.3337 13.832 74.2507 13.9264 74.1953 14.0371C74.14 14.1478 74.1123 14.2731 74.1123 14.4131C74.1123 14.5531 74.1449 14.6816 74.21 14.7988C74.2751 14.9128 74.3695 15.0023 74.4932 15.0674C74.6201 15.1325 74.7731 15.165 74.9521 15.165C75.193 15.165 75.403 15.1162 75.582 15.0186C75.7643 14.9176 75.9076 14.7956 76.0117 14.6523C76.1159 14.5059 76.1712 14.3675 76.1777 14.2373L76.5586 14.7598C76.5195 14.8932 76.4528 15.0365 76.3584 15.1895C76.264 15.3424 76.1403 15.4889 75.9873 15.6289C75.8376 15.7656 75.6569 15.8779 75.4453 15.9658C75.237 16.0537 74.9961 16.0977 74.7227 16.0977C74.3776 16.0977 74.07 16.0293 73.7998 15.8926C73.5296 15.7526 73.318 15.5654 73.165 15.3311C73.012 15.0934 72.9355 14.8249 72.9355 14.5254C72.9355 14.2454 72.9876 13.998 73.0918 13.7832C73.1992 13.5651 73.3555 13.3828 73.5605 13.2363C73.7689 13.0898 74.0228 12.9792 74.3223 12.9043C74.6217 12.8262 74.9635 12.7871 75.3477 12.7871H76.2705ZM81.8955 10.7168H82.9648V15.8535C82.9648 16.3288 82.8639 16.7324 82.6621 17.0645C82.4603 17.3965 82.1787 17.6488 81.8174 17.8213C81.4561 17.9971 81.0378 18.085 80.5625 18.085C80.3607 18.085 80.1361 18.0557 79.8887 17.9971C79.6445 17.9385 79.4069 17.8441 79.1758 17.7139C78.9479 17.5869 78.7575 17.4193 78.6045 17.2109L79.1562 16.5176C79.3451 16.7422 79.5534 16.9066 79.7812 17.0107C80.0091 17.1149 80.2484 17.167 80.499 17.167C80.7692 17.167 80.9987 17.1165 81.1875 17.0156C81.3796 16.918 81.5277 16.7731 81.6318 16.5811C81.736 16.389 81.7881 16.1546 81.7881 15.8779V11.9131L81.8955 10.7168ZM78.3066 13.417V13.3145C78.3066 12.9141 78.3555 12.5495 78.4531 12.2207C78.5508 11.8887 78.6908 11.6038 78.873 11.3662C79.0553 11.1253 79.2767 10.9414 79.5371 10.8145C79.7975 10.6842 80.0921 10.6191 80.4209 10.6191C80.7627 10.6191 81.054 10.681 81.2949 10.8047C81.5391 10.9284 81.7425 11.1058 81.9053 11.3369C82.068 11.5648 82.195 11.8382 82.2861 12.1572C82.3805 12.473 82.4505 12.8245 82.4961 13.2119V13.5391C82.4538 13.9167 82.3822 14.2617 82.2812 14.5742C82.1803 14.8867 82.0469 15.1569 81.8809 15.3848C81.7148 15.6126 81.5098 15.7884 81.2656 15.9121C81.0247 16.0358 80.7399 16.0977 80.4111 16.0977C80.0889 16.0977 79.7975 16.0309 79.5371 15.8975C79.2799 15.764 79.0586 15.5768 78.873 15.3359C78.6908 15.0951 78.5508 14.8118 78.4531 14.4863C78.3555 14.1576 78.3066 13.8011 78.3066 13.417ZM79.4834 13.3145V13.417C79.4834 13.6579 79.5062 13.8825 79.5518 14.0908C79.6006 14.2992 79.6738 14.4831 79.7715 14.6426C79.8724 14.7988 79.9993 14.9225 80.1523 15.0137C80.3086 15.1016 80.4925 15.1455 80.7041 15.1455C80.9808 15.1455 81.207 15.0869 81.3828 14.9697C81.5618 14.8525 81.6986 14.6947 81.793 14.4961C81.8906 14.2943 81.959 14.0697 81.998 13.8223V12.9385C81.9785 12.7464 81.9378 12.5674 81.876 12.4014C81.8174 12.2354 81.7376 12.0905 81.6367 11.9668C81.5358 11.8398 81.4089 11.7422 81.2559 11.6738C81.1029 11.6022 80.9222 11.5664 80.7139 11.5664C80.5023 11.5664 80.3184 11.612 80.1621 11.7031C80.0059 11.7943 79.8773 11.9196 79.7764 12.0791C79.6787 12.2386 79.6055 12.4242 79.5566 12.6357C79.5078 12.8473 79.4834 13.0736 79.4834 13.3145ZM86.5146 16.0977C86.124 16.0977 85.7708 16.0342 85.4551 15.9072C85.1426 15.777 84.8757 15.5964 84.6543 15.3652C84.4362 15.1341 84.2686 14.8623 84.1514 14.5498C84.0342 14.2373 83.9756 13.9004 83.9756 13.5391V13.3438C83.9756 12.9303 84.0358 12.556 84.1562 12.2207C84.2767 11.8854 84.4443 11.599 84.6592 11.3613C84.874 11.1204 85.1279 10.9365 85.4209 10.8096C85.7139 10.6826 86.0312 10.6191 86.373 10.6191C86.7507 10.6191 87.0811 10.6826 87.3643 10.8096C87.6475 10.9365 87.8818 11.1156 88.0674 11.3467C88.2562 11.5745 88.3962 11.8464 88.4873 12.1621C88.5817 12.4779 88.6289 12.8262 88.6289 13.207V13.71H84.5469V12.8652H87.4668V12.7725C87.4603 12.5609 87.418 12.3623 87.3398 12.1768C87.265 11.9912 87.1494 11.8415 86.9932 11.7275C86.8369 11.6136 86.6286 11.5566 86.3682 11.5566C86.1729 11.5566 85.9987 11.599 85.8457 11.6836C85.696 11.765 85.5706 11.8838 85.4697 12.04C85.3688 12.1963 85.2907 12.3851 85.2354 12.6064C85.1833 12.8245 85.1572 13.0703 85.1572 13.3438V13.5391C85.1572 13.7702 85.1882 13.985 85.25 14.1836C85.3151 14.3789 85.4095 14.5498 85.5332 14.6963C85.6569 14.8428 85.8066 14.9583 85.9824 15.043C86.1582 15.1243 86.3584 15.165 86.583 15.165C86.8662 15.165 87.1185 15.1081 87.3398 14.9941C87.5612 14.8802 87.7533 14.7191 87.916 14.5107L88.5361 15.1113C88.4222 15.2773 88.2741 15.4368 88.0918 15.5898C87.9095 15.7396 87.6865 15.8617 87.4229 15.9561C87.1624 16.0505 86.8597 16.0977 86.5146 16.0977Z" fill="white"/>
<defs>
<filter id="filter0_d_1215_16019" x="0" y="0" width="110.5" height="41" filterUnits="userSpaceOnUse" color-interpolation-filters="sRGB">
<feFlood flood-opacity="0" result="BackgroundImageFix"/>
<feColorMatrix in="SourceAlpha" type="matrix" values="0 0 0 0 0 0 0 0 0 0 0 0 0 0 0 0 0 0 127 0" result="hardAlpha"/>
<feOffset dy="4"/>
<feGaussianBlur stdDeviation="2"/>
<feComposite in2="hardAlpha" operator="out"/>
<feColorMatrix type="matrix" values="0 0 0 0 0 0 0 0 0 0 0 0 0 0 0 0 0 0 0.2 0"/>
<feBlend mode="normal" in2="BackgroundImageFix" result="effect1_dropShadow_1215_16019"/>
<feBlend mode="normal" in="SourceGraphic" in2="effect1_dropShadow_1215_16019" result="shape"/>
</filter>
</defs>
</svg>
