<svg width="36" height="36" viewBox="0 0 36 36" fill="none" xmlns="http://www.w3.org/2000/svg">
<circle cx="18" cy="18" r="17.5" fill="#F7F7F7" stroke="#D7D7D7"/>
<path fill-rule="evenodd" clip-rule="evenodd" d="M23.625 26.1008V23.625H27V21.825H23.625V13.2734C23.625 13.0257 23.5245 12.8014 23.3619 12.6388C23.1989 12.4758 22.9744 12.375 22.7266 12.375H14.175V9H12.375V12.375H9V14.175H12.375V22.7266C12.375 22.9743 12.4754 23.1986 12.638 23.3612C12.8011 23.5242 13.0255 23.625 13.2733 23.625H21.8249V27H23.625V26.1008ZM14.175 14.1751V21.825H21.825V14.1751H14.175ZM14.175 12.375H15.975V14.1751H14.175V12.375ZM21.825 20.025H23.625V21.825H21.825V20.025Z" fill="black"/>
</svg>
