<svg width="306" height="288" viewBox="0 0 306 288" fill="none" xmlns="http://www.w3.org/2000/svg">
<path d="M242.467 23.4999C242.467 29.2988 237.688 33.9997 231.792 33.9997C225.896 33.9997 221.117 29.2988 221.117 23.4999C221.117 17.7009 225.896 13 231.792 13C237.688 13 242.467 17.7009 242.467 23.4999Z" fill="#FFDCE9"/>
<path d="M226.375 18.3281V21.9633L233.863 23.6565L226.375 25.3501V28.9852L240.237 23.6565L226.375 18.3281Z" fill="white"/>
<path d="M105.229 12.5533C105.232 19.4578 99.5243 25.0766 92.5559 25.0624C85.4779 25.0476 80.5634 19.7231 79.9003 14.1058C79.4612 10.3862 80.474 7.07748 82.9627 4.27239C85.4721 1.44396 88.7131 -0.00660994 92.5334 2.26425e-05C99.4644 0.0125509 105.271 5.53774 105.229 12.5533Z" fill="#EAEAEA"/>
<path d="M94.2999 17.232C93.1783 17.232 92.0569 17.2335 90.9351 17.231C90.532 17.2303 90.3839 17.103 90.3871 16.7061C90.4014 14.9855 90.3072 13.2625 90.4361 11.5452C90.519 10.4407 90.9628 9.4515 91.6568 8.57575C92.1266 7.98299 92.6176 7.40841 93.1658 6.88395C93.3429 6.71469 93.432 6.5226 93.4283 6.2767C93.4236 5.98216 93.4528 5.68714 93.4455 5.39285C93.4368 5.02486 93.5594 4.71927 93.9106 4.58048C94.2764 4.43554 94.6346 4.50973 94.9313 4.7824C95.2202 5.04795 95.3324 5.4039 95.4218 5.76501C95.6518 6.69283 95.4737 7.57374 95.0854 8.42738C94.9555 8.71331 94.8374 9.00515 94.692 9.28323C94.5969 9.46525 94.6705 9.52937 94.8354 9.55467C94.9203 9.56794 95.0087 9.56204 95.0958 9.56179C96.1011 9.56007 97.1068 9.55688 98.1123 9.55565C98.6587 9.55492 99.0331 9.81236 99.163 10.2742C99.3083 10.7913 99.0983 11.384 98.6562 11.6164C98.4574 11.7206 98.4637 11.765 98.637 11.8847C99.0046 12.1384 99.2494 12.46 99.1744 12.9402C99.1178 13.3028 98.9352 13.5531 98.5721 13.6674C98.5039 13.689 98.3982 13.6828 98.3847 13.7715C98.3708 13.8636 98.4807 13.8786 98.5378 13.9206C99.0206 14.2746 99.085 15.2191 98.3765 15.5075C98.2401 15.5631 98.1797 15.596 98.3238 15.7321C98.6355 16.0261 98.6387 16.4017 98.4931 16.7623C98.3518 17.1121 98.0326 17.2192 97.6645 17.218C96.5429 17.2143 95.4215 17.2168 94.2999 17.2168V17.232Z" fill="#FDFDFE"/>
<path d="M89.0312 18.2155C88.1039 18.2182 87.1766 18.2196 86.2493 18.2246C85.973 18.226 85.8449 18.0742 85.816 17.8266C85.8005 17.6952 85.809 17.5608 85.809 17.4279C85.8095 15.518 85.8095 13.6075 85.812 11.6976C85.8127 11.2264 85.9328 11.1117 86.4156 11.111C87.2465 11.1095 88.0772 11.108 88.9081 11.1115C89.2412 11.113 89.412 11.2557 89.4125 11.5679C89.4145 13.5727 89.4076 15.5774 89.4038 17.5822C89.4038 17.5913 89.3983 17.6004 89.3953 17.6095C89.3434 17.6257 89.3494 17.6438 89.3933 17.6637C89.4091 17.8797 89.4031 18.0853 89.1501 18.1781C89.1426 18.1182 89.1216 18.0516 89.0502 18.0725C88.9682 18.0963 89.0424 18.1668 89.0312 18.2155Z" fill="#FDFDFE"/>
<path d="M33.2436 229.27H51.1367L51.1367 182.57H33.2436L33.2436 229.27Z" fill="#E6E6E6"/>
<path d="M36.6421 229.242H33.2871V216.922H40.2602L36.6421 229.242Z" fill="#F0F0F0"/>
<path d="M135.312 229.27H153.205V182.57H135.312V229.27Z" fill="#E6E6E6"/>
<path d="M33.2753 225.898H138.266V182.553H33.2753V225.898Z" fill="#F0F0F0"/>
<path d="M134.857 229.242H138.278V216.922H131.305L134.857 229.242Z" fill="#F0F0F0"/>
<path d="M135.119 220.66H103.346V187.312H135.119V220.66ZM104.004 220.015H134.461V187.958H104.004V220.015Z" fill="#E6E6E6"/>
<path d="M101.701 220.66H69.9277V187.312H101.701V220.66ZM70.5198 220.015H101.043V187.958H70.5856V220.015H70.5198Z" fill="#E6E6E6"/>
<path d="M68.2168 220.66H36.4434V187.312H68.2168V220.66ZM37.1012 220.015H67.5589V187.958H37.1012V220.015Z" fill="#E6E6E6"/>
<path d="M164.441 132.039H269.826V44.0586L164.441 44.0586V132.039Z" fill="#E6E6E6"/>
<path d="M162.092 132.039H268.793V44.0586L162.092 44.0586V132.039Z" fill="#F5F5F5"/>
<path d="M264.531 127.792V48.2617L166.317 48.2617V127.792L264.531 127.792Z" fill="#FAFAFA"/>
<path d="M252.504 127.841L213.823 48.2461H200.732L239.413 127.841H252.504Z" fill="white"/>
<path d="M235.664 127.841L196.983 48.2461H187.971L226.651 127.841H235.664Z" fill="white"/>
<path d="M202.844 127.777L202.844 48.2461H197.778L197.778 127.777H202.844Z" fill="#E6E6E6"/>
<path d="M236.604 127.828L236.604 48.2969H231.538L231.538 127.828H236.604Z" fill="#E6E6E6"/>
<path d="M201.879 130.457L201.879 45.1211H195.432L195.432 130.457H201.879Z" fill="#F5F5F5"/>
<path d="M235.637 130.445L235.637 45.1094H229.19L229.19 130.445H235.637Z" fill="#F5F5F5"/>
<path d="M166.773 127.796L166.773 48.2656H166.312L166.312 127.796H166.773Z" fill="#E6E6E6"/>
<path d="M160.274 38.6367H274.474C274.803 38.6367 275.001 38.8947 275.001 39.1527C275.001 39.4752 274.737 39.6687 274.474 39.6687H160.274C159.945 39.6687 159.748 39.4107 159.748 39.1527C159.748 38.8947 160.011 38.6367 160.274 38.6367Z" fill="#E6E6E6"/>
<path d="M269.87 42.1858C270.264 42.1858 270.593 41.8633 270.593 41.4763V39.9283C270.593 39.5413 270.264 39.2188 269.87 39.2188C269.475 39.2188 269.146 39.5413 269.146 39.9283V41.4763C269.08 41.8633 269.475 42.1858 269.87 42.1858Z" fill="#E6E6E6"/>
<path d="M168.563 42.1858C168.958 42.1858 169.287 41.8633 169.287 41.4763V39.9283C169.287 39.5413 168.958 39.2188 168.563 39.2188C168.169 39.2188 167.84 39.5413 167.84 39.9283V41.4763C167.84 41.8633 168.169 42.1858 168.563 42.1858Z" fill="#E6E6E6"/>
<path opacity="0.6" d="M160.5 82.8398L267.135 82.8398V39.1721L160.5 39.1721V82.8398Z" fill="#E0E0E0"/>
<path d="M71.5721 182.539H56.705C55.1262 182.539 53.8105 181.249 53.8105 179.701V154.416C53.8105 152.868 55.1262 151.578 56.705 151.578H71.6379C73.2167 151.578 74.5323 152.868 74.5323 154.416V179.701C74.4665 181.249 73.2167 182.539 71.5721 182.539Z" fill="#FAFAFA"/>
<path d="M73.4798 152.029H54.7973C54.271 152.029 53.8105 151.578 53.8105 151.062V150.288C53.8105 149.772 54.271 149.32 54.7973 149.32H73.5456C74.0718 149.32 74.5323 149.772 74.5323 150.288V151.062C74.4665 151.578 74.0718 152.029 73.4798 152.029Z" fill="#E6E6E6"/>
<path d="M128.211 182.54H117.357C116.173 182.54 115.252 181.637 115.252 180.476V162.158C115.252 160.997 116.173 160.094 117.357 160.094H128.211C129.395 160.094 130.316 160.997 130.316 162.158V180.476C130.316 181.637 129.395 182.54 128.211 182.54Z" fill="#F0F0F0"/>
<path d="M129.593 160.351H115.976C115.581 160.351 115.252 160.029 115.252 159.642V159.061C115.252 158.674 115.581 158.352 115.976 158.352H129.593C129.987 158.352 130.316 158.674 130.316 159.061V159.642C130.316 160.093 129.987 160.351 129.593 160.351Z" fill="#E6E6E6"/>
<path d="M93.8725 182.539H73.4138C71.2429 182.539 69.4668 180.797 69.4668 178.669V168.413C69.4668 166.285 71.2429 164.543 73.4138 164.543H93.9382C96.1091 164.543 97.8852 166.285 97.8852 168.413V178.669C97.8195 180.797 96.0433 182.539 93.8725 182.539Z" fill="#F0F0F0"/>
<path d="M96.5038 164.995H70.7825C70.0588 164.995 69.4668 164.414 69.4668 163.705V162.673C69.4668 161.963 70.0588 161.383 70.7825 161.383H96.5038C97.2274 161.383 97.8195 161.963 97.8195 162.673V163.705C97.8195 164.414 97.2274 164.995 96.5038 164.995Z" fill="#F5F5F5"/>
<path d="M196.416 229.27H199.705V175.991H196.416V229.27Z" fill="#E6E6E6"/>
<path d="M184.867 175.977H274.434V165.592H184.867V175.977Z" fill="#F5F5F5"/>
<path d="M184.867 203.641H274.135V193.256H184.867V203.641Z" fill="#F5F5F5"/>
<path d="M270.875 229.27H274.164V175.991H270.875V229.27Z" fill="#F5F5F5"/>
<path d="M184.906 229.27H188.195V175.991H184.906V229.27Z" fill="#F5F5F5"/>
<path d="M98.9774 118.078H141.145V71.7013H98.9774V118.078Z" fill="#F0F0F0"/>
<path d="M96.0017 118.078H140.537V71.7013H96.0017V118.078Z" fill="#F5F5F5"/>
<path d="M99.7188 75.3064V114.395H136.755V75.3064H99.7188Z" fill="white"/>
<path d="M122.424 90.4309L99.7285 81.0781V97.2681L116.503 104.17C120.385 105.782 124.858 103.976 126.502 100.171C128.147 96.4296 126.305 92.0434 122.424 90.4309Z" fill="#F0F0F0"/>
<path d="M198.238 244L118.047 243.93C108.44 243.93 100.58 236.603 100.58 227.657V40.2728C100.58 31.2558 108.44 24 118.047 24L198.238 24.0704C207.845 24.0704 215.705 31.3967 215.705 40.3433V227.727C215.705 236.674 207.924 244 198.238 244Z" fill="#BFC6DF"/>
<path d="M105.422 40.5703C105.422 35.0475 109.899 30.5703 115.422 30.5703H136.665C138.934 30.5703 140.773 32.4092 140.773 34.6777C140.773 36.9461 142.612 38.785 144.88 38.785H177.628C179.896 38.785 181.735 36.9461 181.735 34.6777C181.735 32.4092 183.574 30.5703 185.842 30.5703H200.913C206.436 30.5703 210.913 35.0475 210.913 40.5703V226.486C210.913 232.009 206.436 236.486 200.913 236.486H115.422C109.899 236.486 105.422 232.009 105.422 226.486V40.5703Z" fill="white"/>
<path d="M195.427 67.8125H120.202C116.802 67.8125 114.047 70.5019 114.047 73.8196V214.586C114.047 217.903 116.802 220.593 120.202 220.593H149.14H153.887H159.506H195.428C198.827 220.593 201.582 217.903 201.582 214.586V73.8193C201.582 70.5017 198.826 67.8125 195.427 67.8125Z" stroke="#ABBCF8" stroke-width="0.4" stroke-miterlimit="10"/>
<path d="M171.282 89.7178C171.282 96.9775 165.252 102.861 157.815 102.861C150.377 102.861 144.348 96.9775 144.348 89.7178C144.348 82.4586 150.377 76.5742 157.815 76.5742C165.253 76.5748 171.282 82.4592 171.282 89.7178Z" fill="#DAE9FF"/>
<path d="M133.491 111.625L134.671 115.078L138.4 115.05L135.4 117.213L136.58 120.665L133.546 118.549L130.545 120.711L131.67 117.241L128.637 115.124L132.366 115.095L133.491 111.625Z" fill="#F5EDE7"/>
<path d="M145.37 111.625L146.55 115.078L150.279 115.05L147.279 117.213L148.459 120.665L145.425 118.549L142.425 120.711L143.55 117.241L140.516 115.124L144.245 115.095L145.37 111.625Z" fill="#F5EDE7"/>
<path d="M157.249 111.625L158.429 115.078L162.158 115.05L159.158 117.213L160.338 120.665L157.303 118.549L154.303 120.711L155.428 117.241L152.395 115.124L156.124 115.095L157.249 111.625Z" fill="#F5EDE7"/>
<path d="M169.128 111.625L170.307 115.078L174.037 115.05L171.037 117.213L172.216 120.665L169.182 118.549L166.182 120.711L167.307 117.241L164.273 115.124L168.003 115.095L169.128 111.625Z" fill="#F5EDE7"/>
<path d="M181.007 111.625L182.187 115.078L185.916 115.05L182.916 117.213L184.096 120.665L181.062 118.549L178.061 120.711L179.186 117.241L176.152 115.124L179.882 115.095L181.007 111.625Z" fill="#F5EDE7"/>
<path d="M127.027 134.625H121.35V136.106H127.027V134.625Z" fill="#7392E2"/>
<path d="M156.693 134.625H128.637V135.72H156.693V134.625Z" fill="#7392E2"/>
<path d="M133.596 139.023H121.35V140.504H133.596V139.023Z" fill="#DFE0FC"/>
<path d="M167.238 139.023H138.586V140.504H167.238V139.023Z" fill="#DFE0FC"/>
<path d="M194.282 139.023H172.229V140.504H194.282V139.023Z" fill="#DFE0FC"/>
<path d="M148.727 143.738H121.35V145.219H148.727V143.738Z" fill="#DFE0FC"/>
<path d="M194.28 143.738H180.598V145.219H194.28V143.738Z" fill="#DFE0FC"/>
<path d="M177.379 143.738H153.395V145.219H177.379V143.738Z" fill="#DFE0FC"/>
<path d="M156.293 148.449H121.35V149.93H156.293V148.449Z" fill="#DFE0FC"/>
<path d="M175.284 229.7C175.284 229.77 167.556 229.911 157.962 229.911C148.367 229.911 140.639 229.84 140.639 229.7C140.639 229.629 148.367 229.488 157.962 229.488C167.556 229.488 175.284 229.559 175.284 229.7Z" fill="#4E5675"/>
<path d="M120.284 55.4896C119.49 55.4896 118.551 55.4896 117.613 55.4896C116.458 55.4896 115.303 55.4192 114.509 55.4896C114.293 55.4896 114.148 55.3487 114.148 55.1374C114.148 54.926 114.293 54.7852 114.509 54.7852C115.303 54.7852 116.458 54.7852 117.613 54.7852C118.768 54.7852 119.923 54.8556 120.717 54.7852C120.933 54.7852 121.078 54.926 121.078 55.1374C121.078 55.3487 120.933 55.4896 120.717 55.4896C120.572 55.4896 120.428 55.4896 120.284 55.4896Z" fill="#5C6175"/>
<path d="M116.748 57.885C116.676 57.885 116.531 57.8146 116.459 57.7441L114.294 55.349C114.149 55.2081 114.149 54.9968 114.294 54.8559L116.459 52.6721C116.604 52.5312 116.82 52.5312 116.964 52.6721C117.109 52.813 117.109 53.0243 116.964 53.1652L115.016 55.1377L116.964 57.3214C117.109 57.4623 117.109 57.6737 116.964 57.8146C116.892 57.8146 116.82 57.885 116.748 57.885Z" fill="#5C6175"/>
<path fill-rule="evenodd" clip-rule="evenodd" d="M195.967 55.257C195.699 55.257 195.517 55.0372 195.491 54.7836L195.249 52.6702C195.205 52.3067 195.604 51.9685 195.967 51.9685C196.34 51.9685 196.729 52.3067 196.695 52.6702L196.452 54.7836C196.426 55.0372 196.244 55.257 195.967 55.257ZM195.967 49.2549L195.015 50.2778C194.894 50.413 194.695 50.4553 194.53 50.4046L193.127 49.9904L193.119 51.2246C193.119 51.4529 192.945 51.6642 192.703 51.6896L191.24 51.8671L191.75 53.0084C191.837 53.2028 191.776 53.4226 191.612 53.5494L190.417 54.6652L191.638 55.8065C191.785 55.9417 191.828 56.1531 191.75 56.3306L191.24 57.4719L192.703 57.6494C192.954 57.6832 193.136 57.903 193.119 58.1481L193.127 59.3485L194.53 58.9343C194.72 58.8752 194.911 58.9427 195.032 59.078L195.967 60.084L196.92 59.0611C197.05 58.9259 197.249 58.8836 197.413 58.9343L198.807 59.3485L198.825 58.1143C198.825 57.9283 198.885 57.7085 199.24 57.6493L200.704 57.4718L200.193 56.3305C200.106 56.1361 200.167 55.9163 200.323 55.781L201.526 54.6651L200.306 53.5323C200.158 53.3971 200.115 53.1857 200.193 53.0082L200.704 51.867L199.24 51.6894C198.989 51.6556 198.807 51.4358 198.825 51.1907L198.808 49.9903L197.413 50.4045C197.223 50.4636 197.032 50.3961 196.911 50.2608L195.967 49.2549ZM194.513 49.424L195.612 48.2574C195.812 48.0545 196.123 48.0376 196.322 48.2489L197.422 49.424L199.128 48.9168C199.44 48.8154 199.76 49.0352 199.76 49.3564L199.777 50.8104L201.457 51.0048C201.769 51.0471 201.968 51.3683 201.838 51.6557L201.206 53.0759L202.574 54.344C202.756 54.5299 202.747 54.8258 202.557 55.0118L201.206 56.2545L201.83 57.6578C201.968 57.9452 201.786 58.2918 201.457 58.3256L199.777 58.5285L199.76 59.9825C199.76 60.2869 199.457 60.5151 199.145 60.4221L197.422 59.9149L196.331 61.0815C196.123 61.2844 195.82 61.3013 195.621 61.0899L194.513 59.9149L192.807 60.4221C192.504 60.5151 192.183 60.2953 192.175 59.9825L192.166 58.5285L190.486 58.3256C190.175 58.2917 189.976 57.9705 190.105 57.6746L190.729 56.2545L189.369 54.9948C189.188 54.8004 189.196 54.5045 189.387 54.327L190.729 53.0758L190.114 51.6725C189.976 51.3936 190.157 51.047 190.486 51.0047L192.166 50.8103L192.175 49.3563C192.183 49.052 192.487 48.8237 192.798 48.9167L194.513 49.424ZM195.967 55.9587C196.366 55.9587 196.695 56.2715 196.695 56.6604C196.695 57.0493 196.366 57.3705 195.967 57.3705C195.569 57.3705 195.249 57.0493 195.249 56.6604C195.249 56.2715 195.569 55.9587 195.967 55.9587Z" fill="#7392E2"/>
<path d="M69.6158 243.742H60.2256C59.5607 243.045 58.1477 241.564 56.9534 240.269L56.6499 243.742H55.1393L54.9207 237.743L54.9062 237.401C54.9099 237.361 54.9117 237.322 54.9153 237.282C55.0815 235.524 57.107 232.96 57.369 232.635C57.3889 232.612 57.3979 232.6 57.3979 232.6C57.3979 232.6 57.4123 232.6 57.4394 232.606C57.4702 232.613 57.519 232.63 57.584 232.667C57.8984 232.835 58.5958 233.442 59.6004 235.609C60.4749 237.493 61.7506 239.567 62.8112 240.011C63.5375 240.317 64.6722 240.27 65.3083 240.211C65.3408 240.207 65.3733 240.205 65.404 240.202L65.4094 240.2C65.5684 240.183 65.6841 240.168 65.7419 240.159C65.7582 240.157 65.769 240.154 65.7762 240.154H65.7817C65.7817 240.154 69.6844 241.744 69.7061 242.302C69.7224 242.659 69.6627 243.318 69.6158 243.742Z" fill="#E6427A"/>
<path d="M65.7665 240.15H65.7594L65.7255 240.154L65.3939 240.195L65.3868 240.197C65.3583 240.2 65.3244 240.203 65.2923 240.206C64.6559 240.266 63.5221 240.313 62.7948 240.006C61.7359 239.562 60.4595 237.488 59.586 235.605C58.5806 233.438 57.8818 232.83 57.568 232.662C57.502 232.626 57.4539 232.609 57.4218 232.601C57.3951 232.595 57.3826 232.595 57.3826 232.595C57.3826 232.595 57.3719 232.607 57.3541 232.63C57.4807 232.322 57.609 232.017 57.7338 231.729C58.0351 231.028 57.0813 224.409 56.0527 216.941L64.2388 216.91C63.1335 225.706 63.1513 231.936 63.4918 233.429C64.2281 236.635 65.7665 240.15 65.7665 240.15Z" fill="#FABAAF"/>
<path d="M112.163 75.7577C111.16 77.0424 106.552 79.6087 106.552 79.6087C106.552 79.6087 98.4661 110.332 92.8062 109.985C88.1367 109.699 76.274 97.1412 75.7508 96.5856C75.2308 94.3888 74.4657 92.5357 74.4657 92.5357C74.4657 92.5357 71.5296 91.2475 68.9626 93.0817C66.847 94.5912 64.8424 89.358 64.8424 89.358C64.8424 89.358 71.0611 89.6438 66.2679 90.1964C61.4742 90.7459 65.6965 89.4083 65.6965 89.4083C65.6965 89.4083 63.7268 90.8931 63.1382 91.5354C62.5429 92.1778 61.426 92.5357 61.426 92.5357C61.426 92.5357 67.56 87.8675 68.2695 87.9607C68.7013 88.0153 70.2018 87.4984 71.7713 87.1227C72.7917 86.8785 73.8345 86.6954 74.639 86.7693C76.6824 86.9523 78.6935 89.6115 78.5726 89.9776C78.4517 90.3441 75.2405 89.1522 73.2916 89.9776C71.3396 90.803 69.6653 91.5354 68.2333 91.5354C68.184 91.5354 68.1186 91.5262 68.0371 91.5069C65.6828 90.9288 64.401 93.2148 64.8883 88.5195C65.3725 83.8752 59.9052 88.2262 64.8883 86.1192C67.1118 87.0058 57.3091 86.5887 60.2452 85.0215C64.0839 82.9691 63.1813 74.7501 63.5181 72.9164C63.8518 71.0826 66.2813 69.8907 68.2334 69.0654C69.6331 68.4745 70.7574 67.437 71.2774 66.4414C71.4996 67.6394 72.0295 70.7223 71.905 72.1838C71.8266 73.0928 71.5484 74.8236 71.1955 76.3525C70.8389 77.8976 70.4107 79.24 70.0412 79.3328C69.3124 79.5158 66.5492 79.3328 66.5492 79.3328C66.5492 79.3328 66.3857 80.7042 66.2746 82.0659C66.1698 83.3184 66.1111 84.5679 66.2679 84.7413C66.4708 84.9661 69.3939 84.6383 72.2485 84.8473C74.0142 84.9789 75.757 85.3163 76.8034 86.1192C78.3926 87.3366 92.4362 101.243 92.4362 101.243C92.4362 101.243 103.07 79.2818 103.851 77.6821C104.933 75.4822 109.089 71.9075 109.089 71.9075C109.089 71.9075 109.589 72.3669 108.955 73.4654C108.575 74.1272 107.392 75.0233 107.732 75.2064C108.076 75.3925 113.333 70.4403 113.781 70.4403C114.229 70.4403 113.17 74.473 112.163 75.7577Z" fill="#FABAAF"/>
<path d="M76.3432 102.42C75.149 103.655 73.8726 108.785 73.7026 112.484C73.6911 112.464 73.6796 112.438 73.6663 112.418L57.7304 112.362V112.36C57.7973 112.151 57.8393 111.904 57.8641 111.626C58.2386 107.185 52.791 93.1721 52.791 93.1721C52.791 93.1721 59.1539 89.5251 63.264 88.8336C64.5499 88.6185 75.1872 88.8336 75.1872 88.8336C75.1872 88.8336 76.9623 90.6117 77.7515 91.802C80.2986 95.6344 77.8929 100.826 76.3432 102.42Z" fill="#F97CAA"/>
<path d="M82.5256 216.839L64.2642 216.909L56.078 216.941L45.6973 216.98C45.6973 216.98 50.0619 142.161 50.2089 137.679C50.6482 124.315 57.4053 112.356 57.4053 112.356L73.6777 112.412C76.6509 117.582 78.5419 129.15 79.2187 142.687C80.0181 158.7 82.5256 216.839 82.5256 216.839Z" fill="#F97CAA"/>
<path d="M38.9766 200.133H90.1038C90.1038 200.133 84.6849 158.137 82.1966 142.297C80.0001 128.312 76.6425 117.58 73.6674 112.41L57.3971 112.354C57.3971 112.354 50.0347 122.9 46.5785 137.59C45.0485 144.085 38.9766 200.133 38.9766 200.133Z" fill="#F97CAA"/>
<path d="M96.0508 188.062H33.2676C33.2676 188.062 44.1999 144.106 45.6762 137.597C50.8589 114.759 57.3939 112.362 57.3939 112.362L57.7305 112.364L73.6665 112.42C73.6802 112.441 73.692 112.465 73.7039 112.487C76.682 117.676 81.471 127.782 86.3526 142.307C91.4645 157.505 96.0508 188.062 96.0508 188.062Z" fill="#F97CAA"/>
<path d="M84.5064 80.438C84.11 86.2664 78.7328 89.001 75.1872 88.7453C75.1719 88.7453 75.1567 88.7432 75.1436 88.7411C71.6285 88.46 70.2019 85.0365 69.0694 82.8619C67.9391 80.6894 67.791 78.3374 67.4055 76.4565C67.2335 75.6218 67.1267 74.8356 67.1311 74.1023C67.1398 72.7984 67.497 71.6551 68.4487 70.6788C70.5221 68.5549 71.7156 65.1483 71.7352 61.879C71.7374 61.8494 71.7374 61.8199 71.7374 61.7903C71.7374 60.8351 71.6372 59.8946 71.4303 59.0007C70.6593 55.6871 66.6977 54.2838 65.391 53.9098C65.3104 53.8844 65.2385 53.8654 65.1797 53.8506C65.0468 53.8147 64.9728 53.7978 64.9728 53.7978L64.9597 53.7555L64.9249 53.9035C63.3524 54.2754 62.2983 55.8963 61.6058 58.4196L61.6036 58.4301C61.4097 59.1339 61.2464 59.9052 61.107 60.7421C60.654 63.4534 60.4602 66.8178 60.4101 70.5816C60.3796 72.7984 60.0921 74.544 59.6587 75.9261C58.463 74.1932 48.6647 65.2857 54.7889 55.2243C56.2089 52.8912 58.0057 51.6993 59.8591 51.2661C62.1067 50.7356 64.1278 51.1414 64.2236 51.1625H64.228L64.2476 51.2238C64.4806 50.7864 67.0026 46.3653 72.6695 47.4537C78.6304 48.5949 82.2632 53.335 82.3285 58.54C82.4265 66.281 75.6859 68.5317 77.6395 70.6788C79.9089 73.1703 84.8113 75.9789 84.5064 80.438Z" fill="#10215F"/>
<path d="M64.5386 114.178C64.6537 115.003 55.9694 115.458 53.9177 115.336C53.1507 115.288 51.9597 114.844 48.0714 114.153C41.5561 112.996 31.9216 110.6 31.0119 107.257C30.5644 105.613 42.9133 89.2188 46.1304 85.2928C49.0408 81.7452 51.1991 81.0713 53.9177 80.9079C57.6782 80.4924 58.6113 79.6014 59.6638 75.9276C60.0623 74.5363 60.384 72.7997 60.4138 70.5856C60.5374 61.4871 61.494 54.7185 64.9306 53.906C64.9477 53.9019 64.9626 53.8977 64.9775 53.8957C65.0478 53.8812 65.116 53.8667 65.1863 53.8522C65.2438 53.8667 65.3141 53.8874 65.3951 53.9101C66.7011 54.2864 70.664 55.6881 71.4353 59.0041C71.6419 59.8972 71.7421 60.8379 71.7421 61.793C71.7421 61.822 71.7421 61.8509 71.7421 61.8798C71.6995 65.1215 70.5063 68.481 68.4546 70.5856C67.4767 71.5862 67.1272 72.7604 67.1358 74.1042C67.1315 74.8381 67.238 75.6237 67.4106 76.4569C67.7963 78.3382 67.9454 80.6909 69.0746 82.8637C70.2059 85.0385 71.6334 88.4621 75.1489 88.7433L75.1915 88.8322C75.1915 88.8322 64.5535 88.6172 63.2688 88.8322C59.1589 89.5206 52.7949 93.1695 52.7949 93.1695C52.422 93.3204 41.9162 104.238 40.9531 104.875C40.3459 105.274 44.3131 106.81 49.6246 109.02C53.3701 110.579 55.7265 112.444 55.7265 112.444C55.7265 112.444 59.259 111.226 61.6325 111.226C64.5386 111.226 64.4278 113.355 64.5386 114.178Z" fill="#FABAAF"/>
<path d="M58.9174 51.6173C58.4078 51.4925 56.0717 50.9099 51.442 49.828H51.4844C49.828 50.8683 47.6193 51.6589 45.0284 51.7006C43.7541 51.7006 42.395 51.5341 41.0358 51.118C39.6766 50.7019 38.3599 50.0361 37.1281 49.079C34.7071 47.2481 32.8382 44.3353 32.4135 40.9232C32.2011 39.2587 32.3286 37.4694 32.8807 35.8049C33.4329 34.1405 34.3673 32.5176 35.5991 31.1861C36.2362 30.4787 37.0007 29.8961 37.7653 29.3551C38.1475 29.1055 38.5723 28.8558 38.997 28.6477L39.6341 28.3565L40.0164 28.2316L40.3562 28.1068C42.0976 27.441 43.924 27.1913 45.7079 27.3162C47.4919 27.441 49.1908 27.8987 50.6774 28.6894C52.164 29.4384 53.4383 30.4787 54.4576 31.6854C55.477 32.8505 56.1991 34.1821 56.6663 35.5137C57.1335 36.8452 57.3459 38.1768 57.3459 39.4668C57.3459 42.0051 56.5389 44.2105 55.562 45.7917V45.7085C57.6432 49.3703 58.6626 51.2012 58.9174 51.6173C58.6626 51.2012 57.6007 49.3703 55.4346 45.7501V45.7085V45.6669C56.4115 44.0856 57.176 41.9218 57.176 39.4251C57.176 38.1768 56.9212 36.8452 56.4964 35.5553C56.0292 34.2653 55.3071 32.9337 54.3302 31.8102C53.3533 30.6451 52.0791 29.6464 50.635 28.8974C49.1908 28.1484 47.4919 27.6907 45.7504 27.5658C44.009 27.441 42.1826 27.6907 40.4836 28.3565L40.1438 28.4813L39.8465 28.6477L39.2094 28.939C38.7846 29.1471 38.4024 29.3968 38.0201 29.6464C37.2556 30.1874 36.5335 30.7699 35.8964 31.4357C34.6646 32.7673 33.7302 34.3069 33.2205 35.9714C32.7108 37.6358 32.5409 39.3419 32.7533 41.0064C33.1356 44.3353 35.0044 47.2065 37.3405 48.9958C38.5298 49.9113 39.8465 50.577 41.1632 50.9932C42.4799 51.4093 43.8391 51.5757 45.0708 51.5757C47.6193 51.5341 49.7855 50.7435 51.442 49.7448H51.4844H51.5269C56.0717 50.8683 58.4078 51.4925 58.9174 51.6173Z" fill="#9C9C9C"/>
<path d="M43.8398 34.0588L44.2646 40.1757C44.3071 40.675 44.6893 41.0911 45.199 41.0911C45.7512 41.1328 46.2184 40.7166 46.2609 40.2173L46.9405 34.1004C46.9829 33.6427 46.6007 33.2266 46.1335 33.2266H44.6044C44.1796 33.2682 43.8398 33.6427 43.8398 34.0588Z" fill="#E6427A"/>
<path d="M46.8546 44.5424C46.5997 45.3331 45.7503 45.7492 44.9433 45.4995C44.1362 45.2498 43.7115 44.4176 43.9663 43.627C44.2212 42.8364 45.0707 42.4203 45.8777 42.6699C46.6847 42.9196 47.1094 43.7518 46.8546 44.5424Z" fill="#E6427A"/>
<path d="M180.771 180.535C180.867 179.859 180.92 179.178 180.929 178.496C180.926 174.252 178.998 170.229 175.668 167.513C172.337 164.796 167.946 163.669 163.682 164.434C159.418 165.199 155.721 167.778 153.59 171.473C150.714 169.83 147.179 169.738 144.218 171.231C141.257 172.724 139.281 175.594 138.977 178.842C134.681 179.827 131.157 182.82 129.553 186.844C127.949 190.868 128.472 195.408 130.952 198.98C133.431 202.554 137.549 204.702 141.961 204.725H173.623C177.515 204.718 181.212 203.054 183.75 200.167C186.289 197.279 187.42 193.453 186.848 189.684C186.276 185.914 184.058 182.575 180.771 180.535L180.771 180.535ZM149.694 184.04C149.811 184.148 149.878 184.299 149.878 184.457C149.878 184.616 149.811 184.766 149.694 184.875C149.583 184.99 149.429 185.055 149.267 185.055C149.106 185.055 148.952 184.99 148.841 184.875L148.05 184.112L147.259 184.875H147.258C147.148 184.99 146.994 185.055 146.832 185.055C146.671 185.055 146.517 184.99 146.406 184.875C146.288 184.766 146.221 184.616 146.221 184.457C146.221 184.299 146.288 184.148 146.406 184.04L147.185 183.265L146.406 182.491V182.49C146.17 182.26 146.17 181.886 146.406 181.656C146.641 181.425 147.023 181.425 147.258 181.656L148.05 182.418L148.841 181.656H148.841C149.077 181.425 149.458 181.425 149.694 181.656C149.929 181.886 149.929 182.26 149.694 182.49L148.915 183.265L149.694 184.04ZM164.307 196.154V196.154C164.098 196.41 163.717 196.452 163.455 196.249C161.838 194.97 159.822 194.272 157.743 194.272C155.664 194.272 153.649 194.97 152.032 196.249C151.938 196.324 151.823 196.369 151.703 196.381C151.517 196.383 151.341 196.299 151.228 196.154C151.021 195.897 151.064 195.524 151.326 195.32C153.157 193.874 155.439 193.085 157.792 193.085C160.144 193.085 162.427 193.874 164.258 195.32C164.519 195.524 164.563 195.897 164.356 196.154L164.307 196.154ZM169.178 184.04H169.178C169.296 184.148 169.363 184.299 169.363 184.457C169.363 184.616 169.296 184.766 169.178 184.875C169.067 184.99 168.913 185.055 168.752 185.055C168.59 185.055 168.436 184.99 168.326 184.875L167.534 184.112L166.742 184.875C166.632 184.99 166.478 185.055 166.316 185.055C166.155 185.055 166 184.99 165.89 184.875C165.773 184.766 165.706 184.616 165.706 184.457C165.706 184.299 165.773 184.148 165.89 184.04L166.669 183.265L165.89 182.491V182.49C165.655 182.26 165.655 181.886 165.89 181.656C166.126 181.425 166.507 181.425 166.743 181.656L167.534 182.418L168.325 181.656H168.326C168.561 181.425 168.943 181.425 169.178 181.656C169.414 181.886 169.414 182.26 169.178 182.49L168.399 183.265L169.178 184.04Z" fill="#F5EDE7"/>
<path d="M232.808 134L234.848 140.111H241.449L236.108 143.888L238.149 150L232.808 146.223L227.467 150L229.507 143.888L224.166 140.111H230.768L232.808 134Z" fill="#F5EDE7"/>
<path d="M242.466 149L244.146 153.584H249.583L245.185 156.417L246.864 161L242.466 158.168L238.068 161L239.748 156.417L235.35 153.584H240.787L242.466 149Z" fill="#F5EDE7"/>
<path d="M87.7988 273.047V283H86.083L81.6191 275.87V283H79.9033V273.047H81.6191L86.0967 280.19V273.047H87.7988ZM89.3643 279.384V279.227C89.3643 278.693 89.4417 278.199 89.5967 277.743C89.7516 277.283 89.9749 276.884 90.2666 276.547C90.5628 276.205 90.9229 275.941 91.3467 275.754C91.7751 275.562 92.2581 275.467 92.7959 275.467C93.3382 275.467 93.8213 275.562 94.2451 275.754C94.6735 275.941 95.0358 276.205 95.332 276.547C95.6283 276.884 95.8538 277.283 96.0088 277.743C96.1637 278.199 96.2412 278.693 96.2412 279.227V279.384C96.2412 279.917 96.1637 280.411 96.0088 280.867C95.8538 281.323 95.6283 281.722 95.332 282.063C95.0358 282.401 94.6758 282.665 94.252 282.856C93.8281 283.043 93.3473 283.137 92.8096 283.137C92.2673 283.137 91.7819 283.043 91.3535 282.856C90.9297 282.665 90.5697 282.401 90.2734 282.063C89.9772 281.722 89.7516 281.323 89.5967 280.867C89.4417 280.411 89.3643 279.917 89.3643 279.384ZM91.0117 279.227V279.384C91.0117 279.716 91.0459 280.031 91.1143 280.327C91.1826 280.623 91.2897 280.883 91.4355 281.106C91.5814 281.33 91.7682 281.505 91.9961 281.633C92.224 281.76 92.4951 281.824 92.8096 281.824C93.1149 281.824 93.3792 281.76 93.6025 281.633C93.8304 281.505 94.0173 281.33 94.1631 281.106C94.3089 280.883 94.416 280.623 94.4844 280.327C94.5573 280.031 94.5938 279.716 94.5938 279.384V279.227C94.5938 278.898 94.5573 278.589 94.4844 278.297C94.416 278.001 94.3066 277.739 94.1562 277.511C94.0104 277.283 93.8236 277.105 93.5957 276.978C93.3724 276.845 93.1058 276.779 92.7959 276.779C92.486 276.779 92.2171 276.845 91.9893 276.978C91.766 277.105 91.5814 277.283 91.4355 277.511C91.2897 277.739 91.1826 278.001 91.1143 278.297C91.0459 278.589 91.0117 278.898 91.0117 279.227ZM101.272 273.047H104.793C105.549 273.047 106.194 273.161 106.728 273.389C107.261 273.617 107.669 273.954 107.951 274.4C108.238 274.842 108.382 275.389 108.382 276.041C108.382 276.538 108.291 276.975 108.108 277.354C107.926 277.732 107.669 278.051 107.336 278.311C107.003 278.566 106.607 278.764 106.146 278.905L105.627 279.158H102.462L102.448 277.798H104.82C105.23 277.798 105.572 277.725 105.846 277.579C106.119 277.433 106.324 277.235 106.461 276.984C106.602 276.729 106.673 276.442 106.673 276.123C106.673 275.777 106.604 275.476 106.468 275.221C106.336 274.961 106.131 274.763 105.853 274.626C105.575 274.485 105.221 274.414 104.793 274.414H102.988V283H101.272V273.047ZM106.953 283L104.615 278.529L106.413 278.522L108.785 282.911V283H106.953ZM113.188 283.137C112.641 283.137 112.146 283.048 111.704 282.87C111.267 282.688 110.893 282.435 110.583 282.111C110.278 281.788 110.043 281.407 109.879 280.97C109.715 280.532 109.633 280.061 109.633 279.555V279.281C109.633 278.702 109.717 278.178 109.886 277.709C110.054 277.24 110.289 276.839 110.59 276.506C110.891 276.169 111.246 275.911 111.656 275.733C112.066 275.556 112.511 275.467 112.989 275.467C113.518 275.467 113.98 275.556 114.377 275.733C114.773 275.911 115.102 276.162 115.361 276.485C115.626 276.804 115.822 277.185 115.949 277.627C116.081 278.069 116.147 278.557 116.147 279.09V279.794H110.433V278.611H114.521V278.481C114.511 278.185 114.452 277.907 114.343 277.647C114.238 277.388 114.076 277.178 113.857 277.019C113.639 276.859 113.347 276.779 112.982 276.779C112.709 276.779 112.465 276.839 112.251 276.957C112.041 277.071 111.866 277.237 111.725 277.456C111.583 277.675 111.474 277.939 111.396 278.249C111.324 278.554 111.287 278.898 111.287 279.281V279.555C111.287 279.878 111.33 280.179 111.417 280.457C111.508 280.73 111.64 280.97 111.813 281.175C111.987 281.38 112.196 281.542 112.442 281.66C112.688 281.774 112.969 281.831 113.283 281.831C113.68 281.831 114.033 281.751 114.343 281.592C114.653 281.432 114.922 281.207 115.149 280.915L116.018 281.756C115.858 281.988 115.651 282.212 115.396 282.426C115.14 282.635 114.828 282.806 114.459 282.938C114.094 283.071 113.671 283.137 113.188 283.137ZM119.743 281.694L121.555 275.604H123.264L120.693 283H119.627L119.743 281.694ZM118.355 275.604L120.201 281.722L120.29 283H119.224L116.64 275.604H118.355ZM126.046 275.604V283H124.392V275.604H126.046ZM124.282 273.662C124.282 273.411 124.364 273.204 124.528 273.04C124.697 272.871 124.929 272.787 125.226 272.787C125.517 272.787 125.747 272.871 125.916 273.04C126.085 273.204 126.169 273.411 126.169 273.662C126.169 273.908 126.085 274.113 125.916 274.277C125.747 274.441 125.517 274.523 125.226 274.523C124.929 274.523 124.697 274.441 124.528 274.277C124.364 274.113 124.282 273.908 124.282 273.662ZM131.111 283.137C130.564 283.137 130.07 283.048 129.628 282.87C129.19 282.688 128.817 282.435 128.507 282.111C128.201 281.788 127.967 281.407 127.803 280.97C127.639 280.532 127.557 280.061 127.557 279.555V279.281C127.557 278.702 127.641 278.178 127.81 277.709C127.978 277.24 128.213 276.839 128.514 276.506C128.814 276.169 129.17 275.911 129.58 275.733C129.99 275.556 130.435 275.467 130.913 275.467C131.442 275.467 131.904 275.556 132.301 275.733C132.697 275.911 133.025 276.162 133.285 276.485C133.549 276.804 133.745 277.185 133.873 277.627C134.005 278.069 134.071 278.557 134.071 279.09V279.794H128.356V278.611H132.444V278.481C132.435 278.185 132.376 277.907 132.267 277.647C132.162 277.388 132 277.178 131.781 277.019C131.562 276.859 131.271 276.779 130.906 276.779C130.633 276.779 130.389 276.839 130.175 276.957C129.965 277.071 129.79 277.237 129.648 277.456C129.507 277.675 129.398 277.939 129.32 278.249C129.247 278.554 129.211 278.898 129.211 279.281V279.555C129.211 279.878 129.254 280.179 129.341 280.457C129.432 280.73 129.564 280.97 129.737 281.175C129.91 281.38 130.12 281.542 130.366 281.66C130.612 281.774 130.893 281.831 131.207 281.831C131.604 281.831 131.957 281.751 132.267 281.592C132.576 281.432 132.845 281.207 133.073 280.915L133.941 281.756C133.782 281.988 133.575 282.212 133.319 282.426C133.064 282.635 132.752 282.806 132.383 282.938C132.018 283.071 131.594 283.137 131.111 283.137ZM137.366 281.359L139.075 275.604H140.128L139.841 277.326L138.118 283H137.175L137.366 281.359ZM136.361 275.604L137.694 281.387L137.804 283H136.751L134.748 275.604H136.361ZM141.728 281.318L143.02 275.604H144.626L142.63 283H141.577L141.728 281.318ZM140.306 275.604L141.994 281.291L142.206 283H141.263L139.52 277.319L139.232 275.604H140.306ZM149.896 280.997C149.896 280.833 149.855 280.685 149.773 280.553C149.691 280.416 149.534 280.293 149.302 280.184C149.074 280.074 148.737 279.974 148.29 279.883C147.898 279.796 147.538 279.694 147.21 279.575C146.886 279.452 146.608 279.304 146.376 279.131C146.144 278.958 145.964 278.753 145.836 278.516C145.708 278.279 145.645 278.005 145.645 277.695C145.645 277.395 145.711 277.11 145.843 276.841C145.975 276.572 146.164 276.335 146.41 276.13C146.656 275.925 146.955 275.763 147.306 275.645C147.661 275.526 148.058 275.467 148.495 275.467C149.115 275.467 149.646 275.572 150.088 275.781C150.535 275.986 150.876 276.267 151.113 276.622C151.35 276.973 151.469 277.369 151.469 277.812H149.821C149.821 277.616 149.771 277.433 149.671 277.265C149.575 277.091 149.429 276.952 149.233 276.848C149.037 276.738 148.791 276.684 148.495 276.684C148.213 276.684 147.978 276.729 147.791 276.82C147.609 276.907 147.472 277.021 147.381 277.162C147.294 277.303 147.251 277.458 147.251 277.627C147.251 277.75 147.274 277.862 147.319 277.962C147.369 278.058 147.451 278.146 147.565 278.229C147.679 278.306 147.834 278.379 148.03 278.447C148.231 278.516 148.481 278.582 148.782 278.646C149.347 278.764 149.833 278.917 150.238 279.104C150.648 279.286 150.963 279.523 151.182 279.814C151.4 280.102 151.51 280.466 151.51 280.908C151.51 281.236 151.439 281.537 151.298 281.811C151.161 282.079 150.961 282.314 150.696 282.515C150.432 282.711 150.115 282.863 149.746 282.973C149.382 283.082 148.971 283.137 148.516 283.137C147.846 283.137 147.278 283.018 146.813 282.781C146.349 282.54 145.995 282.232 145.754 281.858C145.517 281.48 145.398 281.088 145.398 280.683H146.991C147.009 280.988 147.094 281.232 147.244 281.414C147.399 281.592 147.59 281.722 147.818 281.804C148.051 281.881 148.29 281.92 148.536 281.92C148.832 281.92 149.081 281.881 149.281 281.804C149.482 281.722 149.634 281.612 149.739 281.476C149.844 281.334 149.896 281.175 149.896 280.997ZM160.383 279.288H157.792V277.928H160.383C160.834 277.928 161.199 277.855 161.477 277.709C161.755 277.563 161.957 277.363 162.085 277.107C162.217 276.848 162.283 276.551 162.283 276.219C162.283 275.904 162.217 275.61 162.085 275.337C161.957 275.059 161.755 274.836 161.477 274.667C161.199 274.498 160.834 274.414 160.383 274.414H158.318V283H156.603V273.047H160.383C161.153 273.047 161.807 273.184 162.345 273.457C162.887 273.726 163.299 274.1 163.582 274.578C163.865 275.052 164.006 275.594 164.006 276.205C164.006 276.848 163.865 277.399 163.582 277.859C163.299 278.32 162.887 278.673 162.345 278.919C161.807 279.165 161.153 279.288 160.383 279.288ZM164.97 279.384V279.227C164.97 278.693 165.047 278.199 165.202 277.743C165.357 277.283 165.58 276.884 165.872 276.547C166.168 276.205 166.528 275.941 166.952 275.754C167.381 275.562 167.864 275.467 168.401 275.467C168.944 275.467 169.427 275.562 169.851 275.754C170.279 275.941 170.641 276.205 170.938 276.547C171.234 276.884 171.459 277.283 171.614 277.743C171.769 278.199 171.847 278.693 171.847 279.227V279.384C171.847 279.917 171.769 280.411 171.614 280.867C171.459 281.323 171.234 281.722 170.938 282.063C170.641 282.401 170.281 282.665 169.857 282.856C169.434 283.043 168.953 283.137 168.415 283.137C167.873 283.137 167.387 283.043 166.959 282.856C166.535 282.665 166.175 282.401 165.879 282.063C165.583 281.722 165.357 281.323 165.202 280.867C165.047 280.411 164.97 279.917 164.97 279.384ZM166.617 279.227V279.384C166.617 279.716 166.651 280.031 166.72 280.327C166.788 280.623 166.895 280.883 167.041 281.106C167.187 281.33 167.374 281.505 167.602 281.633C167.829 281.76 168.101 281.824 168.415 281.824C168.72 281.824 168.985 281.76 169.208 281.633C169.436 281.505 169.623 281.33 169.769 281.106C169.914 280.883 170.021 280.623 170.09 280.327C170.163 280.031 170.199 279.716 170.199 279.384V279.227C170.199 278.898 170.163 278.589 170.09 278.297C170.021 278.001 169.912 277.739 169.762 277.511C169.616 277.283 169.429 277.105 169.201 276.978C168.978 276.845 168.711 276.779 168.401 276.779C168.091 276.779 167.823 276.845 167.595 276.978C167.371 277.105 167.187 277.283 167.041 277.511C166.895 277.739 166.788 278.001 166.72 278.297C166.651 278.589 166.617 278.898 166.617 279.227ZM177.377 280.997C177.377 280.833 177.336 280.685 177.254 280.553C177.172 280.416 177.015 280.293 176.782 280.184C176.554 280.074 176.217 279.974 175.771 279.883C175.379 279.796 175.019 279.694 174.69 279.575C174.367 279.452 174.089 279.304 173.856 279.131C173.624 278.958 173.444 278.753 173.316 278.516C173.189 278.279 173.125 278.005 173.125 277.695C173.125 277.395 173.191 277.11 173.323 276.841C173.455 276.572 173.645 276.335 173.891 276.13C174.137 275.925 174.435 275.763 174.786 275.645C175.142 275.526 175.538 275.467 175.976 275.467C176.595 275.467 177.126 275.572 177.568 275.781C178.015 275.986 178.357 276.267 178.594 276.622C178.831 276.973 178.949 277.369 178.949 277.812H177.302C177.302 277.616 177.252 277.433 177.151 277.265C177.056 277.091 176.91 276.952 176.714 276.848C176.518 276.738 176.272 276.684 175.976 276.684C175.693 276.684 175.458 276.729 175.271 276.82C175.089 276.907 174.952 277.021 174.861 277.162C174.775 277.303 174.731 277.458 174.731 277.627C174.731 277.75 174.754 277.862 174.8 277.962C174.85 278.058 174.932 278.146 175.046 278.229C175.16 278.306 175.315 278.379 175.511 278.447C175.711 278.516 175.962 278.582 176.263 278.646C176.828 278.764 177.313 278.917 177.719 279.104C178.129 279.286 178.443 279.523 178.662 279.814C178.881 280.102 178.99 280.466 178.99 280.908C178.99 281.236 178.92 281.537 178.778 281.811C178.642 282.079 178.441 282.314 178.177 282.515C177.912 282.711 177.596 282.863 177.227 282.973C176.862 283.082 176.452 283.137 175.996 283.137C175.326 283.137 174.759 283.018 174.294 282.781C173.829 282.54 173.476 282.232 173.234 281.858C172.997 281.48 172.879 281.088 172.879 280.683H174.472C174.49 280.988 174.574 281.232 174.725 281.414C174.88 281.592 175.071 281.722 175.299 281.804C175.531 281.881 175.771 281.92 176.017 281.92C176.313 281.92 176.561 281.881 176.762 281.804C176.962 281.722 177.115 281.612 177.22 281.476C177.325 281.334 177.377 281.175 177.377 280.997ZM183.823 275.604V276.807H179.653V275.604H183.823ZM180.856 273.792H182.504V280.956C182.504 281.184 182.536 281.359 182.6 281.482C182.668 281.601 182.761 281.681 182.88 281.722C182.998 281.763 183.137 281.783 183.297 281.783C183.411 281.783 183.52 281.776 183.625 281.763C183.73 281.749 183.814 281.735 183.878 281.722L183.885 282.979C183.748 283.021 183.589 283.057 183.406 283.089C183.229 283.121 183.023 283.137 182.791 283.137C182.413 283.137 182.078 283.071 181.786 282.938C181.494 282.802 181.267 282.581 181.103 282.275C180.938 281.97 180.856 281.564 180.856 281.059V273.792ZM188.355 283.137C187.809 283.137 187.314 283.048 186.872 282.87C186.435 282.688 186.061 282.435 185.751 282.111C185.446 281.788 185.211 281.407 185.047 280.97C184.883 280.532 184.801 280.061 184.801 279.555V279.281C184.801 278.702 184.885 278.178 185.054 277.709C185.222 277.24 185.457 276.839 185.758 276.506C186.059 276.169 186.414 275.911 186.824 275.733C187.234 275.556 187.679 275.467 188.157 275.467C188.686 275.467 189.148 275.556 189.545 275.733C189.941 275.911 190.27 276.162 190.529 276.485C190.794 276.804 190.99 277.185 191.117 277.627C191.249 278.069 191.315 278.557 191.315 279.09V279.794H185.601V278.611H189.688V278.481C189.679 278.185 189.62 277.907 189.511 277.647C189.406 277.388 189.244 277.178 189.025 277.019C188.807 276.859 188.515 276.779 188.15 276.779C187.877 276.779 187.633 276.839 187.419 276.957C187.209 277.071 187.034 277.237 186.893 277.456C186.751 277.675 186.642 277.939 186.564 278.249C186.492 278.554 186.455 278.898 186.455 279.281V279.555C186.455 279.878 186.498 280.179 186.585 280.457C186.676 280.73 186.808 280.97 186.981 281.175C187.155 281.38 187.364 281.542 187.61 281.66C187.856 281.774 188.137 281.831 188.451 281.831C188.848 281.831 189.201 281.751 189.511 281.592C189.821 281.432 190.09 281.207 190.317 280.915L191.186 281.756C191.026 281.988 190.819 282.212 190.563 282.426C190.308 282.635 189.996 282.806 189.627 282.938C189.262 283.071 188.839 283.137 188.355 283.137ZM197.112 281.469V272.5H198.767V283H197.27L197.112 281.469ZM192.3 279.384V279.24C192.3 278.68 192.366 278.169 192.498 277.709C192.63 277.244 192.822 276.845 193.072 276.513C193.323 276.175 193.628 275.918 193.988 275.74C194.348 275.558 194.754 275.467 195.205 275.467C195.652 275.467 196.044 275.553 196.381 275.727C196.718 275.9 197.005 276.148 197.242 276.472C197.479 276.791 197.668 277.174 197.81 277.62C197.951 278.062 198.051 278.554 198.11 279.097V279.555C198.051 280.083 197.951 280.566 197.81 281.004C197.668 281.441 197.479 281.82 197.242 282.139C197.005 282.458 196.716 282.704 196.374 282.877C196.037 283.05 195.643 283.137 195.191 283.137C194.745 283.137 194.341 283.043 193.981 282.856C193.626 282.67 193.323 282.408 193.072 282.07C192.822 281.733 192.63 281.337 192.498 280.881C192.366 280.421 192.3 279.922 192.3 279.384ZM193.947 279.24V279.384C193.947 279.721 193.977 280.035 194.036 280.327C194.1 280.619 194.198 280.876 194.33 281.1C194.462 281.318 194.633 281.492 194.843 281.619C195.057 281.742 195.312 281.804 195.608 281.804C195.982 281.804 196.29 281.722 196.531 281.558C196.773 281.394 196.962 281.173 197.099 280.895C197.24 280.612 197.336 280.298 197.386 279.951V278.714C197.358 278.445 197.301 278.194 197.215 277.962C197.133 277.729 197.021 277.527 196.88 277.354C196.739 277.176 196.563 277.039 196.354 276.943C196.148 276.843 195.905 276.793 195.622 276.793C195.321 276.793 195.066 276.857 194.856 276.984C194.647 277.112 194.474 277.287 194.337 277.511C194.205 277.734 194.107 277.994 194.043 278.29C193.979 278.586 193.947 278.903 193.947 279.24ZM205.09 273.047L207.4 277.798L209.711 273.047H211.611L208.262 279.336V283H206.532V279.336L203.183 273.047H205.09ZM215.344 283.137C214.797 283.137 214.302 283.048 213.86 282.87C213.423 282.688 213.049 282.435 212.739 282.111C212.434 281.788 212.199 281.407 212.035 280.97C211.871 280.532 211.789 280.061 211.789 279.555V279.281C211.789 278.702 211.873 278.178 212.042 277.709C212.211 277.24 212.445 276.839 212.746 276.506C213.047 276.169 213.402 275.911 213.812 275.733C214.223 275.556 214.667 275.467 215.146 275.467C215.674 275.467 216.137 275.556 216.533 275.733C216.93 275.911 217.258 276.162 217.518 276.485C217.782 276.804 217.978 277.185 218.105 277.627C218.238 278.069 218.304 278.557 218.304 279.09V279.794H212.589V278.611H216.677V278.481C216.668 278.185 216.608 277.907 216.499 277.647C216.394 277.388 216.232 277.178 216.014 277.019C215.795 276.859 215.503 276.779 215.139 276.779C214.865 276.779 214.621 276.839 214.407 276.957C214.198 277.071 214.022 277.237 213.881 277.456C213.74 277.675 213.63 277.939 213.553 278.249C213.48 278.554 213.443 278.898 213.443 279.281V279.555C213.443 279.878 213.487 280.179 213.573 280.457C213.664 280.73 213.797 280.97 213.97 281.175C214.143 281.38 214.353 281.542 214.599 281.66C214.845 281.774 215.125 281.831 215.439 281.831C215.836 281.831 216.189 281.751 216.499 281.592C216.809 281.432 217.078 281.207 217.306 280.915L218.174 281.756C218.014 281.988 217.807 282.212 217.552 282.426C217.297 282.635 216.984 282.806 216.615 282.938C216.251 283.071 215.827 283.137 215.344 283.137ZM222.979 275.604V276.807H218.81V275.604H222.979ZM220.013 273.792H221.66V280.956C221.66 281.184 221.692 281.359 221.756 281.482C221.824 281.601 221.918 281.681 222.036 281.722C222.155 281.763 222.294 281.783 222.453 281.783C222.567 281.783 222.676 281.776 222.781 281.763C222.886 281.749 222.97 281.735 223.034 281.722L223.041 282.979C222.904 283.021 222.745 283.057 222.562 283.089C222.385 283.121 222.18 283.137 221.947 283.137C221.569 283.137 221.234 283.071 220.942 282.938C220.651 282.802 220.423 282.581 220.259 282.275C220.095 281.97 220.013 281.564 220.013 281.059V273.792ZM226.151 273.047L225.987 280.067H224.579L224.408 273.047H226.151ZM224.36 282.221C224.36 281.97 224.442 281.76 224.606 281.592C224.775 281.419 225.007 281.332 225.304 281.332C225.595 281.332 225.826 281.419 225.994 281.592C226.163 281.76 226.247 281.97 226.247 282.221C226.247 282.462 226.163 282.67 225.994 282.843C225.826 283.011 225.595 283.096 225.304 283.096C225.007 283.096 224.775 283.011 224.606 282.843C224.442 282.67 224.36 282.462 224.36 282.221Z" fill="black"/>
</svg>
