<svg width="306" height="257" viewBox="0 0 306 257" fill="none" xmlns="http://www.w3.org/2000/svg">
<path d="M282.367 134.409C282.712 132.028 279.333 130.07 276.799 129.84C275.609 129.724 274.342 129.916 273.19 129.532C270.733 128.688 269.735 125.463 267.316 124.464C265.511 123.696 263.438 124.387 261.672 125.271C259.905 126.154 258.178 127.267 256.219 127.382C254.53 127.497 252.687 126.845 251.19 127.689C250.076 128.304 249.5 129.571 248.464 130.339C247.465 131.068 246.16 131.222 244.931 131.299C243.703 131.375 242.397 131.375 241.284 131.913C240.17 132.412 239.21 133.641 239.441 134.831L282.367 134.409Z" fill="#E8E7E7"/>
<path d="M256.297 175.605L247.734 212.695H251.344L259.906 175.951L256.297 175.605Z" fill="#E0E0E0"/>
<path d="M271.887 175.605L280.449 212.695H283.866L275.573 175.605H271.887Z" fill="#E0E0E0"/>
<path d="M250.537 147.73L255.375 173.263H260.904L255.72 147.73H250.537Z" fill="#E0E0E0"/>
<path d="M165.799 175.605L158.85 212.695H162.382L169.677 175.605H165.799Z" fill="#E0E0E0"/>
<path d="M180.467 175.605L188.415 212.503H191.947L184.23 175.605H180.467Z" fill="#E0E0E0"/>
<path d="M160.041 147.73L164.917 173.263H170.446L165.224 147.73H160.041Z" fill="#E0E0E0"/>
<path d="M149.098 145.426L150.096 150.072H261.058L259.791 145.426H149.098Z" fill="#E8E7E7"/>
<path d="M151.209 154.449L152.399 159.095H262.632L261.634 154.449H151.209Z" fill="#E8E7E7"/>
<path d="M153.398 163.777L154.512 168.423H264.399L263.363 163.777H153.398Z" fill="#E8E7E7"/>
<path d="M280.295 173.262H161.807V177.908H280.295V173.262Z" fill="#E8E7E7"/>
<path d="M232.299 115.787C230.418 115.787 228.729 114.827 227.769 113.176C226.809 111.525 226.809 109.605 227.769 107.954L242.743 81.8453C243.664 80.1943 245.354 79.2344 247.274 79.2344C249.155 79.2344 250.844 80.1943 251.804 81.8453L266.932 107.877C267.892 109.528 267.892 111.448 266.932 113.099C266.01 114.75 264.321 115.71 262.401 115.71L232.299 115.787ZM247.274 80.7702C245.93 80.7702 244.739 81.4613 244.087 82.6132L229.113 108.722C228.46 109.874 228.46 111.256 229.113 112.37C229.765 113.521 230.956 114.174 232.261 114.174L262.363 114.097C263.668 114.097 264.859 113.406 265.511 112.254C266.164 111.102 266.164 109.72 265.511 108.607L250.384 82.5748C249.769 81.4613 248.579 80.7702 247.274 80.7702Z" fill="#E8E7E7"/>
<path d="M244.316 92.0971L245.007 101.849C245.046 102.656 245.699 103.27 246.505 103.309C247.35 103.347 248.079 102.733 248.156 101.888L249.154 92.0971C249.231 91.3676 248.655 90.7148 247.887 90.7148L245.507 90.7532C244.816 90.7916 244.278 91.3676 244.316 92.0971Z" fill="#E8E7E7"/>
<path d="M249.154 108.761C248.77 110.028 247.426 110.68 246.159 110.296C244.892 109.912 244.239 108.569 244.623 107.302C245.007 106.035 246.351 105.382 247.618 105.766C248.885 106.15 249.538 107.494 249.154 108.761Z" fill="#E8E7E7"/>
<path d="M250.152 172.648C252.034 185.933 253.877 199.218 255.758 212.541L257.217 212.58C256.257 199.064 255.297 185.242 250.152 172.648Z" fill="#F97CAA"/>
<path d="M265.704 170.805C261.788 175.105 260.214 180.979 259.215 186.7C257.795 194.802 257.68 204.362 258.102 212.617L260.137 212.656C259.331 198.449 261.25 184.281 265.704 170.805Z" fill="#F97CAA"/>
<path d="M251.19 196.259C250.729 194.301 250.23 192.266 249.117 190.577C247.581 188.311 245.123 186.852 242.628 185.739C240.132 184.625 237.521 183.742 235.256 182.168C237.79 186.315 243.472 187.39 246.391 191.268C247.85 193.187 248.425 195.606 249.001 197.948C250.23 203.055 250.998 207.47 252.227 212.539H253.878C253.302 207.01 252.419 201.673 251.19 196.259Z" fill="#F97CAA"/>
<path d="M261.633 212.578C261.633 212.578 263.053 196.721 264.09 193.842C265.127 190.924 274.956 182.899 274.879 183.283C274.802 183.667 267.507 192.459 266.471 194.264C265.434 196.068 263.629 212.617 263.629 212.617H261.633V212.578Z" fill="#F97CAA"/>
<path d="M215.174 196.029C215.942 196.298 216.556 196.989 216.902 197.757C217.248 198.525 217.324 199.369 217.286 200.214C217.209 201.827 216.403 203.516 215.52 204.86C214.099 203.785 213.638 201.75 213.485 200.675C213.216 199.024 213.754 195.875 215.174 196.029Z" fill="#F97CAA"/>
<path d="M217.248 207.356C216.979 206.472 217.286 205.436 217.939 204.783C218.591 204.13 219.551 203.785 220.473 203.823C220.895 203.823 221.394 203.938 221.663 204.246C221.932 204.553 221.932 205.013 221.74 205.397C221.586 205.781 221.279 206.05 220.934 206.28C219.82 207.087 218.591 207.663 217.248 207.356Z" fill="#F97CAA"/>
<path d="M215.828 212.385C215.828 212.385 215.828 212.269 215.867 212.039C215.905 211.809 215.943 211.501 215.982 211.156C216.097 210.388 216.212 209.313 216.711 208.238C217.21 207.163 217.978 206.357 218.593 205.934C218.9 205.704 219.207 205.589 219.399 205.512C219.514 205.473 219.591 205.435 219.629 205.435C219.668 205.435 219.706 205.397 219.706 205.435C219.706 205.473 219.245 205.589 218.631 206.011C218.017 206.433 217.287 207.24 216.788 208.276C216.289 209.313 216.135 210.388 216.02 211.156C215.982 211.54 215.905 211.847 215.867 212.039C215.867 212.269 215.828 212.385 215.828 212.385Z" fill="#F97CAA"/>
<path d="M214.982 198.449C214.982 198.449 214.982 198.488 215.021 198.603C215.021 198.718 215.059 198.833 215.059 199.025C215.098 199.371 215.174 199.908 215.213 200.523C215.328 201.79 215.482 203.556 215.597 205.552C215.712 207.511 215.789 209.277 215.827 210.582C215.827 211.235 215.866 211.734 215.866 212.118C215.866 212.272 215.866 212.425 215.866 212.54C215.866 212.617 215.866 212.694 215.866 212.694C215.866 212.694 215.866 212.655 215.866 212.54C215.866 212.425 215.866 212.31 215.827 212.118C215.827 211.734 215.789 211.235 215.75 210.582C215.712 209.315 215.635 207.511 215.482 205.552C215.366 203.594 215.213 201.828 215.136 200.523C215.098 199.908 215.059 199.371 215.021 198.987C215.021 198.833 214.982 198.68 214.982 198.564C214.982 198.488 214.982 198.449 214.982 198.449Z" fill="#F97CAA"/>
<path d="M214.983 208.505C214.561 206.586 213.14 204.935 211.297 204.205C210.836 204.013 210.222 203.898 209.876 204.282C209.531 204.628 209.646 205.242 209.876 205.703C210.759 207.584 212.871 208.813 214.944 208.659" fill="#F97CAA"/>
<path d="M211.604 205.664C211.604 205.664 211.719 205.702 211.911 205.779C211.987 205.818 212.103 205.856 212.256 205.933C212.371 206.01 212.525 206.048 212.679 206.163C212.832 206.24 212.986 206.355 213.178 206.47C213.37 206.586 213.523 206.739 213.715 206.893C214.061 207.2 214.445 207.584 214.752 208.045C215.059 208.505 215.289 208.966 215.481 209.427C215.558 209.657 215.635 209.849 215.673 210.08C215.75 210.272 215.75 210.463 215.789 210.655C215.827 210.847 215.827 211.001 215.827 211.155C215.827 211.308 215.827 211.423 215.827 211.539C215.827 211.731 215.827 211.846 215.827 211.846C215.789 211.846 215.827 211.385 215.712 210.694C215.673 210.502 215.635 210.31 215.597 210.118C215.558 209.926 215.481 209.696 215.405 209.465C215.213 209.043 214.982 208.582 214.675 208.121C214.368 207.661 214.022 207.277 213.677 206.97C213.485 206.816 213.331 206.662 213.178 206.547C213.024 206.432 212.832 206.317 212.717 206.202C212.026 205.856 211.604 205.702 211.604 205.664Z" fill="#F97CAA"/>
<path d="M285.448 212.823C285.448 212.883 226.883 213.002 154.629 213.002C82.3754 213.002 23.8105 212.942 23.8105 212.823C23.8105 212.704 82.3754 212.645 154.629 212.645C226.883 212.645 285.448 212.704 285.448 212.823Z" fill="#263238"/>
<path d="M184.664 200.859L113.209 200.794C104.649 200.794 97.6445 194.105 97.6445 185.937V14.857C97.6445 6.62454 104.649 0 113.209 0L184.664 0.0643174C193.224 0.0643174 200.228 6.75317 200.228 14.9213V186.002C200.228 194.17 193.295 200.859 184.664 200.859Z" fill="#4E5675"/>
<path d="M101.959 16C101.959 10.4772 106.436 6 111.959 6H129.709C131.78 6 133.459 7.67893 133.459 9.75C133.459 11.8211 135.138 13.5 137.209 13.5H166.209C168.28 13.5 169.959 11.8211 169.959 9.75C169.959 7.67893 171.638 6 173.709 6H185.959C191.482 6 195.959 10.4772 195.959 16V184C195.959 189.523 191.482 194 185.959 194H111.959C106.436 194 101.959 189.523 101.959 184V16Z" fill="white"/>
<mask id="mask0_21041_54241" style="mask-type:alpha" maskUnits="userSpaceOnUse" x="115" y="35" width="68" height="61">
<rect x="115.832" y="35.5391" width="65.8885" height="59.0863" rx="15.5" fill="#C4C4C4" stroke="#F7F7F7"/>
</mask>
<g mask="url(#mask0_21041_54241)">
<rect x="116.33" y="36.0391" width="64.8885" height="58.0863" rx="15" fill="white" stroke="#F0DACA" stroke-width="2"/>
<path d="M116.138 93.7712L136.942 67.3473L157.746 93.7712H116.138Z" fill="#F0DACA" stroke="#F0DACA"/>
<path d="M151.719 93.7718L166.529 74.2986L181.34 93.7718H151.719Z" fill="#F0DACA" stroke="#F0DACA"/>
<path d="M173.49 50.7532C173.49 55.0228 169.619 58.5729 164.728 58.5729C159.838 58.5729 155.967 55.0228 155.967 50.7532C155.967 46.4837 159.838 42.9336 164.728 42.9336C169.619 42.9336 173.49 46.4837 173.49 50.7532Z" fill="#F0DACA" stroke="#F0DACA"/>
</g>
<path d="M164.211 187.802C164.211 187.867 157.325 187.995 148.776 187.995C140.227 187.995 133.34 187.931 133.34 187.802C133.34 187.738 140.227 187.609 148.776 187.609C157.325 187.609 164.211 187.674 164.211 187.802Z" fill="#4E5675"/>
<path d="M115.203 28.7525C114.496 28.7525 113.66 28.7525 112.823 28.7525C111.794 28.7525 110.765 28.6882 110.058 28.7525C109.865 28.7525 109.736 28.6239 109.736 28.431C109.736 28.238 109.865 28.1094 110.058 28.1094C110.765 28.1094 111.794 28.1094 112.823 28.1094C113.853 28.1094 114.882 28.1737 115.589 28.1094C115.782 28.1094 115.911 28.238 115.911 28.431C115.911 28.6239 115.782 28.7525 115.589 28.7525C115.46 28.7525 115.332 28.7525 115.203 28.7525Z" fill="#5C6175"/>
<path d="M112.053 30.9379C111.988 30.9379 111.86 30.8736 111.795 30.8092L109.866 28.6225C109.737 28.4939 109.737 28.3009 109.866 28.1723L111.795 26.1785C111.924 26.0499 112.117 26.0499 112.246 26.1785C112.374 26.3071 112.374 26.5001 112.246 26.6287L110.509 28.4296L112.246 30.4234C112.374 30.552 112.374 30.7449 112.246 30.8736C112.181 30.8736 112.117 30.9379 112.053 30.9379Z" fill="#5C6175"/>
<path d="M186.658 26.8823C187.226 26.8823 187.687 26.4216 187.687 25.8533C187.687 25.2849 187.226 24.8242 186.658 24.8242C186.09 24.8242 185.629 25.2849 185.629 25.8533C185.629 26.4216 186.09 26.8823 186.658 26.8823Z" fill="#5C6175"/>
<path d="M187.687 29.0056C187.687 29.5845 187.237 30.0347 186.658 30.0347C186.079 30.0347 185.629 29.5845 185.629 29.0056C185.629 28.4268 186.079 27.9766 186.658 27.9766C187.237 28.0409 187.687 28.4911 187.687 29.0056Z" fill="#5C6175"/>
<path d="M186.658 33.187C187.226 33.187 187.687 32.7263 187.687 32.158C187.687 31.5896 187.226 31.1289 186.658 31.1289C186.09 31.1289 185.629 31.5896 185.629 32.158C185.629 32.7263 186.09 33.187 186.658 33.187Z" fill="#5C6175"/>
<path d="M267.371 17.7666L263.186 17.7891L263.297 38.5509L267.483 38.5284L267.371 17.7666Z" fill="#E0E0E0"/>
<path d="M237.844 17.8015L227.031 17.8594L227.093 29.3107L237.906 29.2528L237.844 17.8015Z" fill="#EBEBEB"/>
<path d="M248.608 17.7507L237.795 17.8086L237.856 29.26L248.669 29.2021L248.608 17.7507Z" fill="#F5F5F5"/>
<path d="M227.01 21.0156C234.186 21.0654 241.411 21.0156 248.587 20.9161C248.736 20.9161 248.736 20.6671 248.587 20.6671C241.411 20.6173 234.186 20.6671 227.01 20.8165C226.911 20.8165 226.911 21.0156 227.01 21.0156Z" fill="#E0E0E0"/>
<path d="M239.893 29.0745L220.26 29.1797L220.31 38.5399L239.943 38.4347L239.893 29.0745Z" fill="#EBEBEB"/>
<path d="M259.477 28.9769L239.844 29.082L239.894 38.4423L259.527 38.3371L259.477 28.9769Z" fill="#F5F5F5"/>
<path d="M220.284 31.7657C233.339 31.9151 246.445 31.7657 259.5 31.5666C259.65 31.5666 259.65 31.3177 259.5 31.3177C246.445 31.2679 233.339 31.2679 220.284 31.5666C220.184 31.5666 220.184 31.7657 220.284 31.7657Z" fill="#E0E0E0"/>
<path d="M289.1 38.5391H212.959V41.8749H289.1V38.5391Z" fill="#E0E0E0"/>
<path d="M228.506 40.1328H225.416V51.5344H228.506V40.1328Z" fill="#E0E0E0"/>
<path d="M274.599 40.1328H271.51V51.5344H274.599V40.1328Z" fill="#E0E0E0"/>
<path d="M271.436 10.001L267.25 10.0234L267.403 38.602L271.589 38.5796L271.436 10.001Z" fill="#EBEBEB"/>
<path d="M277.98 15.3207L271.502 15.3555L271.626 38.5071L278.104 38.4724L277.98 15.3207Z" fill="#F5F5F5"/>
<path d="M277.939 19.7675C277.939 19.8173 276.494 19.8671 274.7 19.8671C272.906 19.8671 271.461 19.8173 271.461 19.7675C271.461 19.7178 272.906 19.668 274.7 19.668C276.494 19.668 277.939 19.7178 277.939 19.7675Z" fill="#E0E0E0"/>
<path d="M277.939 18.8222C277.939 18.872 276.494 18.9218 274.7 18.9218C272.906 18.9218 271.461 18.872 271.461 18.8222C271.461 18.7724 272.906 18.7227 274.7 18.7227C276.494 18.7227 277.939 18.7724 277.939 18.8222Z" fill="#E0E0E0"/>
<path d="M277.939 35.0058C277.939 35.0556 276.494 35.1054 274.7 35.1054C272.906 35.1054 271.461 35.0556 271.461 35.0058C271.461 34.956 272.906 34.9063 274.7 34.9063C276.494 34.8565 277.939 34.9063 277.939 35.0058Z" fill="#E0E0E0"/>
<path d="M277.939 34.0097C277.939 34.0595 276.494 34.1093 274.7 34.1093C272.906 34.1093 271.461 34.0595 271.461 34.0097C271.461 33.9599 272.906 33.9102 274.7 33.9102C276.494 33.9102 277.939 33.9599 277.939 34.0097Z" fill="#E0E0E0"/>
<path d="M274.799 31.8657C274.749 31.8657 274.699 29.5257 274.699 26.638C274.699 23.7502 274.749 21.4102 274.799 21.4102C274.849 21.4102 274.898 23.7502 274.898 26.638C274.898 29.5755 274.849 31.8657 274.799 31.8657Z" fill="#E0E0E0"/>
<path d="M285.064 21.0156H277.988V38.4914H285.064V21.0156Z" fill="#EBEBEB"/>
<path d="M269.317 16.0852C269.978 16.0852 270.513 15.5502 270.513 14.8902C270.513 14.2303 269.978 13.6953 269.317 13.6953C268.657 13.6953 268.121 14.2303 268.121 14.8902C268.121 15.5502 268.657 16.0852 269.317 16.0852Z" fill="#E0E0E0"/>
<path d="M269.665 18.1758H268.918V35.1537H269.665V18.1758Z" fill="#E0E0E0"/>
<path d="M43.8711 167.108C46.3138 165.864 49.2174 165.68 51.9366 166.141C53.4114 166.371 54.9323 166.831 55.9002 167.937C56.9141 169.042 57.0985 170.976 55.9463 171.897C55.2549 172.449 54.3332 172.541 53.4575 172.541C51.3374 172.495 48.9869 172.127 47.2817 173.416C46.3138 174.153 45.6686 175.35 44.5164 175.719C43.3642 176.087 42.1198 175.397 41.5206 174.383C40.9215 173.37 40.9215 172.081 41.198 170.93C41.1058 170.884 41.4285 168.397 43.8711 167.108Z" fill="#EBEBEB"/>
<path d="M38.2943 156.286C39.7691 158.404 42.7188 157.714 44.0554 156.424C45.3919 155.135 45.9911 153.247 46.498 151.405C47.6963 147.306 48.8946 142.978 48.0189 138.787C47.7424 137.544 47.2815 136.301 46.4059 135.334C45.5302 134.413 44.1475 133.86 42.9492 134.182C41.4744 134.551 40.5526 136.024 39.9074 137.36C37.9717 141.366 36.9578 145.833 36.9117 150.3C36.8656 152.372 37.096 154.582 38.2943 156.286Z" fill="#EBEBEB"/>
<path d="M34.1459 159.374C35.759 157.44 36.0816 154.631 35.3442 152.236C34.6068 149.842 32.9937 147.77 31.1041 146.066C28.8919 144.086 26.3109 142.566 23.4995 141.599C22.3934 141.231 21.2412 140.908 20.089 141C18.9368 141.092 17.7846 141.691 17.2315 142.75C16.448 144.27 17.1854 146.112 18.015 147.631C19.4898 150.302 21.149 152.835 22.9926 155.23C24.4674 157.164 26.2187 159.052 28.4771 159.927C30.7354 160.801 33.132 160.709 34.3303 159.098" fill="#EBEBEB"/>
<path d="M38.1562 188.523C38.2023 188.523 38.2484 188.2 38.2945 187.556C38.3406 186.865 38.4328 185.944 38.571 184.885C38.7093 183.78 38.8476 182.444 39.1702 181.017C39.4928 179.589 39.9537 178.023 40.5989 176.412C41.2442 174.846 42.0277 173.418 42.9494 172.267C43.8712 171.116 44.9312 170.287 45.8991 169.827C46.913 169.32 47.7887 169.136 48.3879 169.044C48.987 168.998 49.3557 168.952 49.3557 168.906C49.3557 168.86 48.987 168.86 48.3879 168.906C47.7426 168.952 46.8209 169.09 45.8069 169.596C44.7469 170.057 43.6408 170.886 42.6729 172.083C41.7051 173.234 40.8755 174.708 40.2302 176.32C39.585 177.931 39.1241 179.497 38.8476 180.971C38.571 182.444 38.4328 183.78 38.3406 184.931C38.2484 186.036 38.2023 186.957 38.2023 187.602C38.1563 188.2 38.1562 188.523 38.1562 188.523Z" fill="#E0E0E0"/>
<path d="M38.3384 186.495C38.3384 186.495 38.3384 186.357 38.3845 186.035C38.3845 185.712 38.3845 185.252 38.3845 184.745C38.3845 183.64 38.3845 182.028 38.4305 180.002C38.5227 175.996 38.8914 171.713 39.5367 165.635C40.1819 159.925 41.0115 153.294 41.8872 148.965C42.0715 147.998 42.2559 147.123 42.4402 146.34C42.6246 145.557 42.7628 144.913 42.9011 144.36C43.0394 143.854 43.1316 143.439 43.2237 143.117C43.2698 142.84 43.3159 142.656 43.3159 142.656C43.3159 142.656 43.2698 142.794 43.1776 143.071C43.0855 143.393 42.9472 143.807 42.8089 144.314C42.6246 144.867 42.4863 145.511 42.2559 146.294C42.0715 147.077 41.8411 147.952 41.6106 148.919C40.735 152.833 39.8132 158.313 39.1219 164.392C38.4766 170.47 38.154 175.996 38.1079 180.002C38.0618 182.028 38.1079 183.64 38.2001 184.745C38.2462 185.252 38.2462 185.712 38.2923 186.035C38.3384 186.357 38.3384 186.495 38.3384 186.495Z" fill="#E0E0E0"/>
<path d="M38.3899 175.812C38.436 175.812 38.436 175.351 38.3899 174.476C38.3438 173.601 38.2055 172.358 37.9751 170.838C37.6986 169.319 37.3759 167.477 36.7768 165.543C36.5463 164.622 35.9472 162.504 34.5645 159.234C32.721 154.859 30.2322 151.268 28.02 149.057C27.513 148.459 26.96 148.044 26.4991 147.63C26.2687 147.445 26.0382 147.215 25.8539 147.077C25.6234 146.939 25.4391 146.801 25.2547 146.663C24.5173 146.156 24.1486 145.926 24.1025 145.926C24.0564 146.018 25.7156 146.985 27.8357 149.241C29.9557 151.498 32.3523 155.044 34.1958 159.372C35.2098 161.721 35.9472 163.839 36.4542 165.589C37.0533 167.523 37.422 169.319 37.6986 170.838C37.9751 172.358 38.1594 173.601 38.2516 174.43C38.2977 175.351 38.3438 175.812 38.3899 175.812Z" fill="#E0E0E0"/>
<path d="M27.3281 193.039L28.4342 207.683H47.2383L48.3444 193.039H27.3281Z" fill="#EBEBEB"/>
<path d="M50.6013 187.234H25.5293V192.991H50.6013V187.234Z" fill="#EBEBEB"/>
<path d="M25.5293 207.129V208.741H26.6815H50.1405V207.129H25.5293Z" fill="#E0E0E0"/>
<path d="M27.8358 211.364L26.6836 208.555H49.2669L47.9303 211.364H27.8358Z" fill="#E0E0E0"/>
<path d="M47.9718 197.827C47.9718 197.827 47.9257 197.873 47.8796 197.965C47.7875 198.057 47.6953 198.195 47.6031 198.333C47.3266 198.656 46.9579 199.162 46.497 199.715L46.4509 199.761L46.4048 199.715C45.7135 198.748 44.7917 197.505 43.6856 195.985H43.8239C43.0404 197.136 42.1186 198.38 41.1507 199.761L41.0586 199.899L40.9664 199.807C39.9985 198.656 38.9385 197.366 37.8324 196.077H38.0167C37.9706 196.123 37.9246 196.215 37.8324 196.307C36.8645 197.551 35.8967 198.702 35.021 199.853L34.9288 199.991L34.8366 199.853C33.8688 198.518 32.9931 197.228 32.1635 196.077H32.3018C31.0113 197.551 29.9052 198.84 29.0295 199.807L28.9834 199.853L28.9373 199.761C28.5225 199.024 28.1538 198.472 27.9234 198.057C27.8312 197.873 27.739 197.735 27.6469 197.597C27.6008 197.505 27.5547 197.459 27.5547 197.413C27.5547 197.413 27.6008 197.459 27.6469 197.551C27.739 197.689 27.8312 197.827 27.9234 198.011C28.1999 198.426 28.5686 198.978 28.9834 199.715H28.8912C29.7208 198.748 30.827 197.459 32.1174 195.939L32.2096 195.847L32.3018 195.939C33.1314 197.09 34.0071 198.333 34.9749 199.669H34.7906C35.6662 198.564 36.6341 197.366 37.6019 196.123C37.648 196.031 37.7402 195.985 37.7863 195.893L37.8785 195.801L37.9706 195.893C39.0768 197.228 40.1368 198.472 41.1047 199.623H40.9203C41.8882 198.287 42.8099 196.998 43.5934 195.893L43.6856 195.801L43.7778 195.893C44.8378 197.413 45.7596 198.702 46.4048 199.669H46.3126C46.7735 199.07 47.1883 198.656 47.4648 198.287C47.6031 198.149 47.6953 198.011 47.7875 197.919C47.9257 197.873 47.9718 197.827 47.9718 197.827Z" fill="#F5F5F5"/>
<path d="M48.5694 192.943C48.5694 192.989 43.8684 193.081 38.0152 193.081C32.208 193.081 27.4609 193.035 27.4609 192.943C27.4609 192.897 32.1619 192.805 38.0152 192.805C43.8684 192.805 48.5694 192.851 48.5694 192.943Z" fill="#F5F5F5"/>
<path d="M65.8449 53.9271C65.2919 53.789 62.757 53.1443 57.7334 51.947H57.7795C55.982 53.0983 53.5854 53.9732 50.7741 54.0192C49.3914 54.0192 47.9166 53.8351 46.4418 53.3746C44.9669 52.9141 43.5382 52.1773 42.2016 51.1181C39.5746 49.092 37.5467 45.8685 37.0858 42.0925C36.8554 40.2505 36.9937 38.2704 37.5928 36.4284C38.1919 34.5864 39.2059 32.7905 40.5425 31.3169C41.2338 30.5341 42.0634 29.8894 42.893 29.2907C43.3078 29.0144 43.7686 28.7382 44.2295 28.5079L44.9208 28.1856L45.3356 28.0474L45.7043 27.9093C47.594 27.1725 49.5758 26.8962 51.5115 27.0343C53.4472 27.1725 55.2907 27.679 56.9038 28.554C58.5169 29.3828 59.8995 30.5341 61.0057 31.8695C62.1118 33.1589 62.8953 34.6325 63.4023 36.106C63.9092 37.5796 64.1397 39.0532 64.1397 40.4807C64.1397 43.2897 63.264 45.7304 62.204 47.4802V47.3881C64.4623 51.4405 65.5684 53.4667 65.8449 53.9271C65.5684 53.4667 64.4162 51.4405 62.0657 47.4342V47.3881V47.3421C63.1257 45.5922 63.9553 43.1977 63.9553 40.4347C63.9553 39.0532 63.6788 37.5796 63.2179 36.1521C62.7109 34.7246 61.9274 33.251 60.8674 32.0077C59.8074 30.7183 58.4247 29.6131 56.8577 28.7842C55.2907 27.9553 53.4472 27.4488 51.5576 27.3106C49.6679 27.1725 47.6861 27.4488 45.8426 28.1856L45.4739 28.3237L45.1513 28.5079L44.46 28.8303C43.9991 29.0605 43.5843 29.3368 43.1695 29.6131C42.3399 30.2117 41.5564 30.8564 40.8651 31.5932C39.5285 33.0668 38.5146 34.7706 37.9615 36.6126C37.4084 38.4546 37.2241 40.3426 37.4545 42.1846C37.8693 45.8685 39.8972 49.0459 42.4321 51.026C43.7225 52.0391 45.1513 52.7759 46.58 53.2364C48.0088 53.6969 49.4836 53.8811 50.8201 53.8811C53.5854 53.8351 55.9359 52.9601 57.7334 51.8549H57.7795H57.8256C62.757 53.0983 65.2919 53.789 65.8449 53.9271Z" fill="#9C9C9C"/>
<path d="M49.4824 34.4952L49.9433 41.2645C49.9894 41.8171 50.4042 42.2775 50.9572 42.2775C51.5564 42.3236 52.0634 41.8631 52.1095 41.3105L52.8469 34.5413C52.893 34.0347 52.4782 33.5742 51.9712 33.5742H50.312C49.8511 33.6203 49.4824 34.0347 49.4824 34.4952Z" fill="#E6427A"/>
<path d="M52.757 46.0975C52.4805 46.9724 51.5587 47.4329 50.683 47.1566C49.8074 46.8803 49.3465 45.9594 49.623 45.0844C49.8995 44.2095 50.8213 43.749 51.697 44.0253C52.5727 44.3016 53.0335 45.2226 52.757 46.0975Z" fill="#E6427A"/>
<path d="M87.765 78.7023C86.9881 74.508 86.3666 72.6438 85.5897 69.8476C84.3466 65.032 81.3944 60.527 76.7331 59.1289L75.8008 66.2747L76.8884 72.0225C77.3546 77.1488 81.0837 83.984 83.5697 91.9065L90.0957 95.4794C90.7172 90.3531 88.0757 81.0324 87.765 78.7023Z" fill="#FABAAF"/>
<path d="M110.998 101.498C109.845 101.231 107.398 101.67 105.715 101.972C101.735 98.2675 92.2421 92.8691 85.2191 88.9212C85.0387 88.7957 83.7995 89.8073 83.7014 90.1405L87.9675 96.3192C92.3398 98.6911 101.516 103.2 104.625 104.693C108.942 106.759 108.056 105.34 111.362 106.167C111.252 105.556 110.586 105.36 110.378 105.081C110.17 104.803 108.335 105.132 108.837 104.411C109.366 103.842 114.005 105.062 114.327 104.215C114.982 103.466 112.123 101.612 110.998 101.498Z" fill="#FABAAF"/>
<path d="M86.544 76.2578C86.544 76.2578 88.4085 79.8307 89.4962 84.3357C101.616 119.443 82.1934 79.2094 82.1934 79.2094L86.544 76.2578Z" fill="#FABAAF"/>
<path d="M82.6257 211.732H74.7013C74.0798 211.111 72.9921 209.868 71.9045 208.78L71.5937 211.732H70.3507L70.1953 206.45V206.14C70.1953 206.14 70.1953 206.14 70.1953 205.984C70.3507 204.431 72.0599 202.256 72.2152 201.945C72.2152 201.945 72.2152 201.945 72.3706 201.945C72.6814 202.101 73.3029 202.567 74.0798 204.586C74.8567 206.295 75.9443 208.004 76.8766 208.47C77.4981 208.78 78.4304 208.625 79.0519 208.625C79.0519 208.625 79.0519 208.625 79.2073 208.625C79.3627 208.625 79.5181 208.625 79.5181 208.625C79.5181 208.625 82.781 210.023 82.781 210.489C82.781 210.645 82.6257 211.266 82.6257 211.732Z" fill="#E6427A"/>
<path d="M79.3631 208.471H79.0524C79.0524 208.471 79.0524 208.471 78.897 208.471C78.4309 208.471 77.3432 208.627 76.7217 208.316C75.7894 208.005 74.7018 206.141 73.9249 204.432C72.9926 202.568 72.5264 201.947 72.2157 201.791H72.0603C72.2157 201.481 72.2157 201.325 72.3711 201.015C72.6818 200.393 71.7496 194.646 70.9727 188.121H77.9647C77.0324 195.733 77.0325 201.17 77.3432 202.568C78.1201 205.52 79.3631 208.471 79.3631 208.471Z" fill="#FABAAF"/>
<path d="M105.156 163.111H51.7051C51.7051 163.111 61.0278 124.741 62.2709 119.149C66.6215 99.2647 72.2151 97.0898 72.2151 97.0898H72.5259H86.0439C88.53 101.595 92.7252 110.449 96.7651 123.032C101.271 136.547 105.156 163.111 105.156 163.111Z" fill="#F97CAA"/>
<path d="M54.9668 173.674H98.473C98.473 173.674 93.8116 137.013 91.7917 123.188C89.9271 111.071 87.1303 101.595 84.4889 97.0898H70.6601C70.6601 97.0898 64.4449 106.255 61.4927 119.149C60.2497 124.741 54.9668 173.674 54.9668 173.674Z" fill="#F97CAA"/>
<path d="M93.6581 188.277H78.1202H71.1281H62.2715C62.2715 188.277 66.0006 123.032 66.156 119.149C66.4667 107.498 72.2158 97.0898 72.2158 97.0898H86.0445C88.5306 101.595 90.2398 111.692 90.7059 123.498C91.4828 137.479 93.6581 188.277 93.6581 188.277Z" fill="#F97CAA"/>
<path d="M88.3749 88.3908C87.2872 89.4782 86.1996 93.9832 86.1996 97.0901H72.6816C72.6816 96.9347 72.8369 96.6241 72.8369 96.4687C73.1477 92.5851 68.4863 80.3129 68.4863 80.3129C68.4863 80.3129 73.9246 77.206 77.3429 76.5847C78.4306 76.4293 87.4426 76.5847 87.4426 76.5847C87.4426 76.5847 88.9964 78.1381 89.6179 79.2255C91.7932 82.4877 89.6179 86.9927 88.3749 88.3908Z" fill="#F97CAA"/>
<path d="M95.3671 69.2821C95.0564 74.4084 90.395 76.7386 87.4428 76.5832C84.4906 76.2726 83.2476 73.321 82.3153 71.4569C81.383 69.5928 81.2276 67.5733 80.9169 65.8645C80.7615 65.0878 80.6061 64.4664 80.6061 63.845C80.6061 62.7576 80.9169 61.6702 81.6938 60.8935C83.4029 59.0294 84.4906 56.0778 84.4906 53.2816C84.4906 52.5049 84.3352 51.5728 84.1798 50.7961C83.5583 47.8446 80.14 46.7572 79.0523 46.2911H78.8969C78.7416 46.2911 78.7415 46.2911 78.7415 46.2911V46.4465C77.3431 46.7572 76.5662 48.1553 75.9447 50.3301C75.7893 50.9515 75.634 51.5728 75.4786 52.3496C75.1678 54.6797 74.8571 57.6313 74.8571 60.8935C74.8571 62.7576 74.5463 64.3111 74.2355 65.5538C73.1479 64.0004 64.9128 56.2332 70.0403 47.5339C71.2833 45.5144 72.8371 44.427 74.3909 44.1163C76.2555 43.6503 77.9647 43.961 78.12 43.961C78.2754 43.6503 80.4507 39.7667 85.2675 40.6988C90.395 41.6308 93.5026 45.8251 93.5026 50.3301C93.658 57.0099 87.9089 59.0294 89.4627 60.8935C91.3273 62.913 95.5225 65.3985 95.3671 69.2821Z" fill="#10215F"/>
<path d="M69.2633 69.749C66.9327 69.9044 65.0681 70.3704 62.582 73.4773L68.1757 80.3124C68.1757 80.3124 73.9247 77.5159 77.3431 76.8945C78.4307 76.7392 87.132 76.5842 87.132 76.5842C84.1798 76.2735 82.9367 73.3219 82.0044 71.4578C81.0722 69.5937 80.9168 67.5742 80.606 65.8654C80.4507 65.0887 80.9168 64.4673 80.9168 63.8459C80.9168 62.6032 81.2276 61.6711 82.0044 60.7391C83.7136 58.8749 84.8013 55.9234 84.8013 53.1272C84.8013 52.3505 84.6459 51.4184 84.4905 50.6417C83.869 47.6902 79.8291 46.6028 78.7415 46.1367H78.5861H78.4307C75.4785 46.9134 74.7016 52.8165 74.5462 60.7391C74.5462 62.6032 74.2355 64.1566 73.9247 65.3994C73.3032 68.5063 72.5263 69.283 69.2633 69.749Z" fill="#FABAAF"/>
<path d="M64.9125 88.7006C63.0479 85.9044 62.5818 84.5063 61.6495 82.6421C59.9404 79.3799 60.0957 75.6517 63.2033 72.8555L67.8647 76.4284L68.4381 79.8767C69.7767 83.2233 72.0599 86.8358 74.2352 92.4282L72.3707 99.4193C69.4185 97.0891 65.534 89.4773 64.9125 88.7006Z" fill="#FABAAF"/>
<path d="M87.7973 64.1657C87.2031 65.1887 85.7883 66.9019 84.4229 67.831L84.2498 67.9664C84.1903 73.5929 80.3697 83.1404 79.8177 91.5238L77.2923 91.5238C76.9651 91.6404 76.2816 91.8701 75.9731 91.8325L75.9309 84.4722C77.1492 79.6129 80.2216 69.8152 81.2519 66.4979C82.5869 61.9658 83.1702 63.6018 84.7987 60.5139C85.205 61.0329 85.0923 61.9581 84.7086 62.5374C84.5356 62.6728 83.8059 63.5228 84.4229 63.598C85.2128 63.5378 87.4544 59.2726 88.3423 59.6938C88.9592 59.769 88.3916 63.1427 87.7973 64.1657Z" fill="#FABAAF"/>
<path d="M80.4512 86.9921C79.6743 107.187 74.2214 104.323 70.3516 97.0895L74.236 92.4297C74.236 87.6608 81.2281 66.7972 80.4512 86.9921Z" fill="#FABAAF"/>
<path d="M81.1573 61.9652C81.1573 61.9652 78.4645 62.1619 75.8027 60.457C75.8027 60.457 77.1336 63.4734 81.1573 63.08V61.9652Z" fill="#E3A297"/>
<rect x="131.732" y="113.195" width="50.8096" height="4.50211" rx="2.25106" fill="#E8E7E7"/>
<rect x="131.732" y="121.559" width="28.299" height="4.50211" rx="2.25106" fill="#E8E7E7"/>
<rect x="113.08" y="138.277" width="70.7475" height="3.2158" rx="1.6079" fill="#F2F2F2"/>
<rect x="113.08" y="145.355" width="70.7475" height="3.2158" rx="1.6079" fill="#F2F2F2"/>
<rect x="113.08" y="153.07" width="40.519" height="3.2158" rx="1.6079" fill="#F2F2F2"/>
<path d="M86.2812 242.047V252H84.5654L80.1016 244.87V252H78.3857V242.047H80.1016L84.5791 249.19V242.047H86.2812ZM87.8467 248.384V248.227C87.8467 247.693 87.9242 247.199 88.0791 246.743C88.234 246.283 88.4574 245.884 88.749 245.547C89.0452 245.205 89.4053 244.941 89.8291 244.754C90.2575 244.562 90.7406 244.467 91.2783 244.467C91.8206 244.467 92.3037 244.562 92.7275 244.754C93.1559 244.941 93.5182 245.205 93.8145 245.547C94.1107 245.884 94.3363 246.283 94.4912 246.743C94.6462 247.199 94.7236 247.693 94.7236 248.227V248.384C94.7236 248.917 94.6462 249.411 94.4912 249.867C94.3363 250.323 94.1107 250.722 93.8145 251.063C93.5182 251.401 93.1582 251.665 92.7344 251.856C92.3105 252.043 91.8298 252.137 91.292 252.137C90.7497 252.137 90.2643 252.043 89.8359 251.856C89.4121 251.665 89.0521 251.401 88.7559 251.063C88.4596 250.722 88.234 250.323 88.0791 249.867C87.9242 249.411 87.8467 248.917 87.8467 248.384ZM89.4941 248.227V248.384C89.4941 248.716 89.5283 249.031 89.5967 249.327C89.665 249.623 89.7721 249.883 89.918 250.106C90.0638 250.33 90.2507 250.505 90.4785 250.633C90.7064 250.76 90.9775 250.824 91.292 250.824C91.5973 250.824 91.8617 250.76 92.085 250.633C92.3128 250.505 92.4997 250.33 92.6455 250.106C92.7913 249.883 92.8984 249.623 92.9668 249.327C93.0397 249.031 93.0762 248.716 93.0762 248.384V248.227C93.0762 247.898 93.0397 247.589 92.9668 247.297C92.8984 247.001 92.7891 246.739 92.6387 246.511C92.4928 246.283 92.306 246.105 92.0781 245.978C91.8548 245.845 91.5882 245.779 91.2783 245.779C90.9684 245.779 90.6995 245.845 90.4717 245.978C90.2484 246.105 90.0638 246.283 89.918 246.511C89.7721 246.739 89.665 247.001 89.5967 247.297C89.5283 247.589 89.4941 247.898 89.4941 248.227ZM102.25 249.765L104.232 242.047H105.271L105.155 244.036L103.036 252H101.956L102.25 249.765ZM100.767 242.047L102.373 249.703L102.517 252H101.368L99.0645 242.047H100.767ZM107.521 249.683L109.106 242.047H110.815L108.512 252H107.363L107.521 249.683ZM105.675 242.047L107.637 249.785L107.924 252H106.844L104.759 244.036L104.649 242.047H105.675ZM111.39 248.384V248.227C111.39 247.693 111.467 247.199 111.622 246.743C111.777 246.283 112 245.884 112.292 245.547C112.588 245.205 112.948 244.941 113.372 244.754C113.8 244.562 114.284 244.467 114.821 244.467C115.364 244.467 115.847 244.562 116.271 244.754C116.699 244.941 117.061 245.205 117.357 245.547C117.654 245.884 117.879 246.283 118.034 246.743C118.189 247.199 118.267 247.693 118.267 248.227V248.384C118.267 248.917 118.189 249.411 118.034 249.867C117.879 250.323 117.654 250.722 117.357 251.063C117.061 251.401 116.701 251.665 116.277 251.856C115.854 252.043 115.373 252.137 114.835 252.137C114.293 252.137 113.807 252.043 113.379 251.856C112.955 251.665 112.595 251.401 112.299 251.063C112.003 250.722 111.777 250.323 111.622 249.867C111.467 249.411 111.39 248.917 111.39 248.384ZM113.037 248.227V248.384C113.037 248.716 113.071 249.031 113.14 249.327C113.208 249.623 113.315 249.883 113.461 250.106C113.607 250.33 113.794 250.505 114.021 250.633C114.249 250.76 114.521 250.824 114.835 250.824C115.14 250.824 115.405 250.76 115.628 250.633C115.856 250.505 116.043 250.33 116.188 250.106C116.334 249.883 116.441 249.623 116.51 249.327C116.583 249.031 116.619 248.716 116.619 248.384V248.227C116.619 247.898 116.583 247.589 116.51 247.297C116.441 247.001 116.332 246.739 116.182 246.511C116.036 246.283 115.849 246.105 115.621 245.978C115.398 245.845 115.131 245.779 114.821 245.779C114.511 245.779 114.243 245.845 114.015 245.978C113.791 246.105 113.607 246.283 113.461 246.511C113.315 246.739 113.208 247.001 113.14 247.297C113.071 247.589 113.037 247.898 113.037 248.227ZM121.302 246.012V252H119.654V244.604H121.227L121.302 246.012ZM123.564 244.556L123.551 246.087C123.451 246.069 123.341 246.055 123.223 246.046C123.109 246.037 122.995 246.032 122.881 246.032C122.598 246.032 122.35 246.073 122.136 246.155C121.922 246.233 121.742 246.347 121.596 246.497C121.454 246.643 121.345 246.821 121.268 247.03C121.19 247.24 121.145 247.475 121.131 247.734L120.755 247.762C120.755 247.297 120.8 246.866 120.892 246.47C120.983 246.073 121.119 245.725 121.302 245.424C121.489 245.123 121.721 244.888 121.999 244.72C122.282 244.551 122.607 244.467 122.977 244.467C123.077 244.467 123.184 244.476 123.298 244.494C123.416 244.512 123.505 244.533 123.564 244.556ZM126.258 241.5V252H124.604V241.5H126.258ZM130.852 244.604L127.632 248.172L125.868 249.977L125.438 248.582L126.771 246.935L128.862 244.604H130.852ZM129.218 252L126.818 248.527L127.857 247.372L131.125 252H129.218ZM139.424 243.373L136.45 252H134.652L138.398 242.047H139.547L139.424 243.373ZM141.912 252L138.932 243.373L138.802 242.047H139.957L143.717 252H141.912ZM141.769 248.309V249.669H136.354V248.309H141.769ZM146.431 241.5V252H144.776V241.5H146.431ZM148.242 241.5H149.89V250.421L149.732 252H148.242V241.5ZM154.716 248.233V248.377C154.716 248.924 154.654 249.427 154.531 249.888C154.413 250.343 154.23 250.74 153.984 251.077C153.743 251.414 153.442 251.676 153.082 251.863C152.727 252.046 152.314 252.137 151.845 252.137C151.384 252.137 150.983 252.05 150.642 251.877C150.3 251.704 150.013 251.458 149.78 251.139C149.552 250.82 149.368 250.439 149.227 249.997C149.085 249.555 148.985 249.067 148.926 248.534V248.076C148.985 247.538 149.085 247.051 149.227 246.613C149.368 246.171 149.552 245.791 149.78 245.472C150.013 245.148 150.298 244.9 150.635 244.727C150.977 244.553 151.375 244.467 151.831 244.467C152.305 244.467 152.722 244.558 153.082 244.74C153.447 244.923 153.75 245.182 153.991 245.52C154.233 245.852 154.413 246.249 154.531 246.709C154.654 247.169 154.716 247.677 154.716 248.233ZM153.068 248.377V248.233C153.068 247.901 153.041 247.589 152.986 247.297C152.932 247.001 152.84 246.741 152.713 246.518C152.59 246.294 152.421 246.119 152.207 245.991C151.997 245.859 151.735 245.793 151.421 245.793C151.129 245.793 150.879 245.843 150.669 245.943C150.459 246.044 150.284 246.18 150.143 246.354C150.001 246.527 149.89 246.727 149.808 246.955C149.73 247.183 149.678 247.429 149.65 247.693V248.931C149.691 249.272 149.778 249.587 149.91 249.874C150.047 250.157 150.238 250.384 150.484 250.558C150.73 250.726 151.047 250.811 151.435 250.811C151.74 250.811 151.997 250.749 152.207 250.626C152.417 250.503 152.583 250.332 152.706 250.113C152.834 249.89 152.925 249.63 152.979 249.334C153.039 249.038 153.068 248.719 153.068 248.377ZM160.561 250.257V244.604H162.215V252H160.656L160.561 250.257ZM160.793 248.719L161.347 248.705C161.347 249.202 161.292 249.66 161.183 250.079C161.073 250.494 160.905 250.856 160.677 251.166C160.449 251.471 160.157 251.711 159.802 251.884C159.446 252.052 159.02 252.137 158.523 252.137C158.163 252.137 157.833 252.084 157.532 251.979C157.231 251.875 156.972 251.713 156.753 251.494C156.539 251.275 156.372 250.991 156.254 250.64C156.135 250.289 156.076 249.869 156.076 249.382V244.604H157.724V249.396C157.724 249.664 157.756 249.89 157.819 250.072C157.883 250.25 157.97 250.394 158.079 250.503C158.188 250.612 158.316 250.69 158.462 250.735C158.608 250.781 158.763 250.804 158.927 250.804C159.396 250.804 159.765 250.713 160.034 250.53C160.308 250.343 160.501 250.093 160.615 249.778C160.734 249.464 160.793 249.111 160.793 248.719ZM165.551 246.107V252H163.903V244.604H165.455L165.551 246.107ZM165.284 248.028L164.724 248.021C164.724 247.511 164.787 247.039 164.915 246.606C165.043 246.174 165.229 245.798 165.476 245.479C165.722 245.155 166.027 244.907 166.392 244.733C166.761 244.556 167.187 244.467 167.67 244.467C168.007 244.467 168.315 244.517 168.593 244.617C168.875 244.713 169.119 244.866 169.324 245.075C169.534 245.285 169.693 245.554 169.803 245.882C169.917 246.21 169.974 246.606 169.974 247.071V252H168.326V247.215C168.326 246.855 168.271 246.572 168.162 246.367C168.057 246.162 167.905 246.016 167.704 245.93C167.508 245.839 167.273 245.793 167 245.793C166.69 245.793 166.426 245.852 166.207 245.971C165.993 246.089 165.817 246.251 165.681 246.456C165.544 246.661 165.444 246.898 165.38 247.167C165.316 247.436 165.284 247.723 165.284 248.028ZM169.871 247.591L169.099 247.762C169.099 247.315 169.16 246.894 169.283 246.497C169.411 246.096 169.595 245.745 169.837 245.444C170.083 245.139 170.386 244.9 170.746 244.727C171.106 244.553 171.519 244.467 171.983 244.467C172.362 244.467 172.699 244.519 172.995 244.624C173.296 244.724 173.551 244.884 173.761 245.103C173.97 245.321 174.13 245.606 174.239 245.957C174.349 246.303 174.403 246.723 174.403 247.215V252H172.749V247.208C172.749 246.834 172.694 246.545 172.585 246.34C172.48 246.135 172.33 245.993 172.134 245.916C171.938 245.834 171.703 245.793 171.43 245.793C171.174 245.793 170.949 245.841 170.753 245.937C170.562 246.028 170.4 246.158 170.268 246.326C170.135 246.49 170.035 246.679 169.967 246.894C169.903 247.108 169.871 247.34 169.871 247.591ZM180.248 249.997C180.248 249.833 180.207 249.685 180.125 249.553C180.043 249.416 179.886 249.293 179.653 249.184C179.425 249.074 179.088 248.974 178.642 248.883C178.25 248.796 177.89 248.694 177.562 248.575C177.238 248.452 176.96 248.304 176.728 248.131C176.495 247.958 176.315 247.753 176.188 247.516C176.06 247.279 175.996 247.005 175.996 246.695C175.996 246.395 176.062 246.11 176.194 245.841C176.326 245.572 176.516 245.335 176.762 245.13C177.008 244.925 177.306 244.763 177.657 244.645C178.013 244.526 178.409 244.467 178.847 244.467C179.466 244.467 179.997 244.572 180.439 244.781C180.886 244.986 181.228 245.267 181.465 245.622C181.702 245.973 181.82 246.369 181.82 246.812H180.173C180.173 246.616 180.123 246.433 180.022 246.265C179.927 246.091 179.781 245.952 179.585 245.848C179.389 245.738 179.143 245.684 178.847 245.684C178.564 245.684 178.329 245.729 178.143 245.82C177.96 245.907 177.824 246.021 177.732 246.162C177.646 246.303 177.603 246.458 177.603 246.627C177.603 246.75 177.625 246.862 177.671 246.962C177.721 247.058 177.803 247.146 177.917 247.229C178.031 247.306 178.186 247.379 178.382 247.447C178.582 247.516 178.833 247.582 179.134 247.646C179.699 247.764 180.184 247.917 180.59 248.104C181 248.286 181.314 248.523 181.533 248.814C181.752 249.102 181.861 249.466 181.861 249.908C181.861 250.236 181.791 250.537 181.649 250.811C181.513 251.079 181.312 251.314 181.048 251.515C180.784 251.711 180.467 251.863 180.098 251.973C179.733 252.082 179.323 252.137 178.867 252.137C178.197 252.137 177.63 252.018 177.165 251.781C176.7 251.54 176.347 251.232 176.105 250.858C175.868 250.48 175.75 250.088 175.75 249.683H177.343C177.361 249.988 177.445 250.232 177.596 250.414C177.751 250.592 177.942 250.722 178.17 250.804C178.402 250.881 178.642 250.92 178.888 250.92C179.184 250.92 179.432 250.881 179.633 250.804C179.833 250.722 179.986 250.612 180.091 250.476C180.196 250.334 180.248 250.175 180.248 249.997ZM188.67 242.047V252H186.954V242.047H188.67ZM192.73 246.401V247.762H188.232V246.401H192.73ZM193.298 242.047V243.414H188.232V242.047H193.298ZM194.036 248.384V248.227C194.036 247.693 194.114 247.199 194.269 246.743C194.424 246.283 194.647 245.884 194.938 245.547C195.235 245.205 195.595 244.941 196.019 244.754C196.447 244.562 196.93 244.467 197.468 244.467C198.01 244.467 198.493 244.562 198.917 244.754C199.345 244.941 199.708 245.205 200.004 245.547C200.3 245.884 200.526 246.283 200.681 246.743C200.836 247.199 200.913 247.693 200.913 248.227V248.384C200.913 248.917 200.836 249.411 200.681 249.867C200.526 250.323 200.3 250.722 200.004 251.063C199.708 251.401 199.348 251.665 198.924 251.856C198.5 252.043 198.019 252.137 197.481 252.137C196.939 252.137 196.454 252.043 196.025 251.856C195.602 251.665 195.242 251.401 194.945 251.063C194.649 250.722 194.424 250.323 194.269 249.867C194.114 249.411 194.036 248.917 194.036 248.384ZM195.684 248.227V248.384C195.684 248.716 195.718 249.031 195.786 249.327C195.854 249.623 195.962 249.883 196.107 250.106C196.253 250.33 196.44 250.505 196.668 250.633C196.896 250.76 197.167 250.824 197.481 250.824C197.787 250.824 198.051 250.76 198.274 250.633C198.502 250.505 198.689 250.33 198.835 250.106C198.981 249.883 199.088 249.623 199.156 249.327C199.229 249.031 199.266 248.716 199.266 248.384V248.227C199.266 247.898 199.229 247.589 199.156 247.297C199.088 247.001 198.979 246.739 198.828 246.511C198.682 246.283 198.495 246.105 198.268 245.978C198.044 245.845 197.778 245.779 197.468 245.779C197.158 245.779 196.889 245.845 196.661 245.978C196.438 246.105 196.253 246.283 196.107 246.511C195.962 246.739 195.854 247.001 195.786 247.297C195.718 247.589 195.684 247.898 195.684 248.227ZM206.744 250.257V244.604H208.398V252H206.84L206.744 250.257ZM206.977 248.719L207.53 248.705C207.53 249.202 207.476 249.66 207.366 250.079C207.257 250.494 207.088 250.856 206.86 251.166C206.632 251.471 206.341 251.711 205.985 251.884C205.63 252.052 205.204 252.137 204.707 252.137C204.347 252.137 204.017 252.084 203.716 251.979C203.415 251.875 203.155 251.713 202.937 251.494C202.722 251.275 202.556 250.991 202.438 250.64C202.319 250.289 202.26 249.869 202.26 249.382V244.604H203.907V249.396C203.907 249.664 203.939 249.89 204.003 250.072C204.067 250.25 204.153 250.394 204.263 250.503C204.372 250.612 204.5 250.69 204.646 250.735C204.791 250.781 204.946 250.804 205.11 250.804C205.58 250.804 205.949 250.713 206.218 250.53C206.491 250.343 206.685 250.093 206.799 249.778C206.917 249.464 206.977 249.111 206.977 248.719ZM211.721 246.183V252H210.073V244.604H211.625L211.721 246.183ZM211.427 248.028L210.894 248.021C210.898 247.497 210.971 247.017 211.112 246.579C211.258 246.142 211.459 245.766 211.714 245.451C211.974 245.137 212.284 244.895 212.644 244.727C213.004 244.553 213.405 244.467 213.847 244.467C214.202 244.467 214.523 244.517 214.811 244.617C215.102 244.713 215.351 244.87 215.556 245.089C215.765 245.308 215.925 245.592 216.034 245.943C216.144 246.29 216.198 246.716 216.198 247.222V252H214.544V247.215C214.544 246.859 214.492 246.579 214.387 246.374C214.286 246.164 214.138 246.016 213.942 245.93C213.751 245.839 213.512 245.793 213.225 245.793C212.942 245.793 212.689 245.852 212.466 245.971C212.243 246.089 212.053 246.251 211.898 246.456C211.748 246.661 211.632 246.898 211.55 247.167C211.468 247.436 211.427 247.723 211.427 248.028ZM222.392 250.469V241.5H224.046V252H222.549L222.392 250.469ZM217.579 248.384V248.24C217.579 247.68 217.645 247.169 217.777 246.709C217.91 246.244 218.101 245.845 218.352 245.513C218.602 245.175 218.908 244.918 219.268 244.74C219.628 244.558 220.033 244.467 220.484 244.467C220.931 244.467 221.323 244.553 221.66 244.727C221.997 244.9 222.285 245.148 222.521 245.472C222.758 245.791 222.948 246.174 223.089 246.62C223.23 247.062 223.33 247.554 223.39 248.097V248.555C223.33 249.083 223.23 249.566 223.089 250.004C222.948 250.441 222.758 250.82 222.521 251.139C222.285 251.458 221.995 251.704 221.653 251.877C221.316 252.05 220.922 252.137 220.471 252.137C220.024 252.137 219.621 252.043 219.261 251.856C218.905 251.67 218.602 251.408 218.352 251.07C218.101 250.733 217.91 250.337 217.777 249.881C217.645 249.421 217.579 248.922 217.579 248.384ZM219.227 248.24V248.384C219.227 248.721 219.256 249.035 219.315 249.327C219.379 249.619 219.477 249.876 219.609 250.1C219.742 250.318 219.912 250.492 220.122 250.619C220.336 250.742 220.591 250.804 220.888 250.804C221.261 250.804 221.569 250.722 221.811 250.558C222.052 250.394 222.241 250.173 222.378 249.895C222.519 249.612 222.615 249.298 222.665 248.951V247.714C222.638 247.445 222.581 247.194 222.494 246.962C222.412 246.729 222.3 246.527 222.159 246.354C222.018 246.176 221.842 246.039 221.633 245.943C221.428 245.843 221.184 245.793 220.901 245.793C220.601 245.793 220.345 245.857 220.136 245.984C219.926 246.112 219.753 246.287 219.616 246.511C219.484 246.734 219.386 246.994 219.322 247.29C219.258 247.586 219.227 247.903 219.227 248.24ZM227.669 242.047L227.505 249.067H226.097L225.926 242.047H227.669ZM225.878 251.221C225.878 250.97 225.96 250.76 226.124 250.592C226.293 250.419 226.525 250.332 226.821 250.332C227.113 250.332 227.343 250.419 227.512 250.592C227.68 250.76 227.765 250.97 227.765 251.221C227.765 251.462 227.68 251.67 227.512 251.843C227.343 252.011 227.113 252.096 226.821 252.096C226.525 252.096 226.293 252.011 226.124 251.843C225.96 251.67 225.878 251.462 225.878 251.221Z" fill="black"/>
</svg>
