<svg width="48" height="48" viewBox="0 0 48 48" fill="none" xmlns="http://www.w3.org/2000/svg">
<circle cx="24" cy="24" r="24" fill="#E6427A"/>
<path d="M17.5659 32.3077H20.4006C20.4006 33.6268 21.0868 34.8458 22.2004 35.5053C23.314 36.1649 24.6863 36.1649 25.7999 35.5053C26.9136 34.8458 27.5997 33.6268 27.5997 32.3077H30.4344C31.2158 32.3069 31.9544 31.9412 32.4411 31.314C32.9278 30.687 33.1096 29.8666 32.9352 29.0852C32.7609 28.3039 32.249 27.6466 31.5448 27.2992C31.3036 27.1748 31.1439 26.9294 31.1246 26.6531L30.7106 21.1394V21.1392C30.611 19.8953 30.1857 18.7019 29.4798 17.6851C28.7738 16.6685 27.8134 15.8662 26.6998 15.3628V14.7692C26.6998 13.7798 26.1852 12.8655 25.35 12.371C24.5148 11.8763 23.4855 11.8763 22.6503 12.371C21.8151 12.8655 21.3005 13.7798 21.3005 14.7692V15.3628C20.1862 15.8664 19.2255 16.6695 18.5194 17.6872C17.8134 18.7048 17.3885 19.8991 17.2897 21.144L16.8757 26.6576C16.8631 26.7992 16.8142 26.935 16.7339 27.0508C16.6535 27.1668 16.5449 27.2589 16.4185 27.3176C15.7241 27.6742 15.2241 28.3342 15.0589 29.1126C14.8936 29.8911 15.0806 30.7045 15.5677 31.3251C16.0546 31.9457 16.7892 32.3069 17.5659 32.3077L17.5659 32.3077ZM23.9999 34.1539C23.5226 34.1539 23.0648 33.9594 22.7272 33.6132C22.3897 33.2669 22.2001 32.7973 22.2001 32.3077H25.7997C25.7997 32.7973 25.6101 33.2669 25.2726 33.6132C24.9349 33.9594 24.4772 34.1539 23.9999 34.1539ZM23.1 14.7693C23.1 14.4394 23.2715 14.1347 23.55 13.9699C23.8284 13.805 24.1714 13.805 24.4498 13.9699C24.7283 14.1347 24.8998 14.4394 24.8998 14.7693V14.8393C24.3034 14.746 23.6964 14.746 23.1 14.8393V14.7693Z" fill="white"/>
</svg>
