<svg width="48" height="48" viewBox="0 0 48 48" fill="none" xmlns="http://www.w3.org/2000/svg">
<circle cx="24" cy="24" r="24" fill="#FFECF3"/>
<path d="M19.692 13.998L18.4614 17.075H14.1538C12.9604 17.075 12 18.0356 12 19.2288V31.5365C12 32.7298 12.9607 33.6903 14.1538 33.6903H33.8461C35.0395 33.6903 35.9999 32.7296 35.9999 31.5365V19.2288C35.9999 18.0354 35.0393 17.075 33.8461 17.075H29.5385L28.3079 13.998H19.692ZM23.9996 19.2288C27.3873 19.2288 30.1535 21.9949 30.1535 25.3826C30.1535 28.7703 27.3873 31.5365 23.9996 31.5365C20.6119 31.5365 17.8458 28.7703 17.8458 25.3826C17.8458 21.9949 20.6119 19.2288 23.9996 19.2288ZM23.9996 21.075C21.6097 21.075 19.692 22.9927 19.692 25.3826C19.692 27.7725 21.6097 29.6902 23.9996 29.6902C26.3897 29.6902 28.3072 27.7725 28.3072 25.3826C28.3072 22.9927 26.3895 21.075 23.9996 21.075Z" fill="#E6427A"/>
</svg>
