<svg width="228" height="220" viewBox="0 0 228 220" fill="none" xmlns="http://www.w3.org/2000/svg">
<path d="M54.7473 14.3516L59.419 26.3769H56.4795L54.1699 18.9929L54.7473 14.3516Z" fill="#E0E0E0"/>
<path d="M38.731 3.21875L37.1562 26.2673L53.7434 26.6365L55.6331 3.21875H38.731Z" fill="#EBEBEB"/>
<path d="M40.4087 5.06642L39.0439 24.2647L51.4318 24.8449L53.1116 4.96094L40.4087 5.06642Z" fill="#FAFAFA"/>
<path d="M43.1465 7.8125L42.0967 21.2619H48.9205L50.1278 7.8125H43.1465Z" fill="#E0E0E0"/>
<path d="M22.3691 26.4256V14.875H30.7677V26.4256H22.3691Z" fill="#F5F5F5"/>
<path d="M27.1422 14.8736C27.1422 14.8736 29.1894 -0.0526032 28.612 0.000139449C28.0346 0.000139449 26.6173 13.6077 26.6173 13.6077C26.6173 13.6077 26.5648 2.37356 26.0399 2.4263C25.515 2.47904 26.0399 14.2934 26.0399 14.2934C26.0399 14.2934 25.0951 4.69423 24.6227 4.9052C24.1502 5.11617 24.8326 14.8736 24.8326 14.8736H27.1422Z" fill="#FBD6E5"/>
<path d="M25.6201 14.8708C25.6201 14.8708 26.3025 7.43411 26.565 7.96154C26.7749 8.48897 26.565 12.3919 26.565 12.3919C26.565 12.3919 28.5071 2.79276 29.032 3.10922C29.5569 3.42567 27.0374 13.4995 27.0374 13.4995C27.0374 13.4995 28.9271 7.75057 29.347 8.33074C29.7669 8.96365 27.7723 14.3434 27.7723 14.3434C27.7723 14.3434 29.8194 10.5459 29.9244 11.0734C30.0819 11.6008 28.9271 14.8708 28.9271 14.8708H25.6201Z" fill="#FBD6E5"/>
<path d="M24.4146 14.9231C24.4146 14.9231 19.9004 6.06237 20.4778 6.32608C21.0552 6.5898 23.8897 12.3387 23.8897 12.3387C23.8897 12.3387 22 6.80077 22.4199 6.64254C22.8399 6.48431 24.9395 12.8662 24.9395 12.8662L25.4119 14.9231H24.4146Z" fill="#FBD6E5"/>
<path d="M22.3696 15.8752L26.254 15.9806L30.7682 15.8752L30.9257 14.8203H22.2646L22.3696 15.8752Z" fill="#EBEBEB"/>
<path d="M72.7545 26.1172H13.8613V29.1762H72.7545V26.1172Z" fill="#E0E0E0"/>
<path d="M223.801 29.375H165.433V131.956H223.801V29.375Z" fill="#FAFAFA"/>
<path d="M183.595 132.886C183.595 132.886 177.192 86.7378 173.832 81.6747C173.832 81.6747 192.939 67.2764 193.516 28.1953H164.489V132.886H183.595Z" fill="#EBEBEB"/>
<path d="M205.593 132.707C205.593 132.707 211.997 86.5582 215.356 81.495C215.356 81.495 196.25 67.0967 195.673 28.0156H224.7V132.759H205.593V132.707Z" fill="#EBEBEB"/>
<path d="M225.32 25.7266H222.591H160.023V27.3615V29.6294V132.211V133.898V135.586H227.997V133.898V132.211V25.7266H225.32ZM177.187 82.7923V108.899H165.482V82.7923H177.187ZM165.43 80.8937V53.8375H177.135V80.8937H165.43ZM195.034 80.8937V53.8375H209.678V80.8937H195.034ZM209.678 82.7923V108.899H195.034V82.7923H209.678ZM177.66 80.8937V53.8375H193.092V80.8937H177.66ZM193.144 82.7923V108.899H177.712V82.7923H193.144ZM177.66 53.4156V29.6294H193.092V53.4156H177.66ZM193.144 109.374V132.158H177.712V109.374H193.144ZM195.034 109.374H209.678V132.158H195.034V109.374ZM195.034 53.4156V29.6294H209.678V53.4156H195.034ZM210.203 82.7923H222.591V108.899H210.203V82.7923ZM210.203 80.8937V53.8375H222.591V80.8937H210.203ZM222.591 53.4156H210.203V29.6294H222.591V53.4156ZM177.187 29.6294V53.4156H165.482V29.6294H177.187ZM165.43 109.374H177.135V132.158H165.43V109.374ZM210.203 132.211V109.427H222.591V132.211H210.203Z" fill="#E0E0E0"/>
<g opacity="0.7">
<path d="M201.593 206.759C201.593 206.759 201.644 206.709 201.694 206.558C201.744 206.406 201.845 206.205 201.996 205.952C202.247 205.398 202.549 204.591 202.851 203.532C203.404 201.364 203.605 198.036 202.801 194.102C202.398 192.136 201.795 190.018 201.04 187.799C200.286 185.53 199.431 183.16 198.726 180.588C198.022 178.017 197.469 175.243 197.57 172.319C197.67 169.394 198.525 166.469 199.481 163.544C200.437 160.62 201.392 157.796 201.694 154.922C202.046 152.047 201.392 149.274 200.135 146.954C198.877 144.635 197.268 142.618 196.111 140.601C194.904 138.533 194.149 136.415 193.697 134.449C192.791 130.465 193.093 127.137 193.546 124.969C193.998 122.75 194.552 121.641 194.552 121.641C194.552 121.641 194.552 121.741 194.501 121.842C194.451 121.994 194.401 122.195 194.3 122.498C194.149 123.053 193.898 123.91 193.697 125.019C193.294 127.238 193.043 130.516 193.948 134.449C194.401 136.415 195.155 138.483 196.362 140.5C197.57 142.517 199.129 144.534 200.437 146.854C201.744 149.173 202.398 152.098 202.046 154.972C201.744 157.897 200.738 160.771 199.833 163.645C198.877 166.57 198.022 169.444 197.922 172.319C197.821 175.193 198.324 177.966 199.028 180.538C199.732 183.11 200.588 185.48 201.292 187.749C202.046 190.018 202.65 192.136 203.002 194.102C203.807 198.086 203.555 201.414 203.002 203.582C202.7 204.692 202.348 205.499 202.096 206.003C201.946 206.255 201.845 206.457 201.795 206.608C201.644 206.709 201.644 206.759 201.593 206.759Z" fill="#263238"/>
<path d="M197.729 142.597C197.729 142.597 195.315 134.881 199.641 130.343C199.792 130.192 200.043 130.242 200.093 130.494C200.345 131.755 200.647 135.638 197.729 142.597Z" fill="#FA96BB"/>
<path d="M199.179 132.898C199.23 132.898 199.129 133.453 199.029 134.31C198.878 135.269 198.677 136.428 198.476 137.739C198.275 139 198.074 140.16 197.923 141.118C197.772 141.975 197.722 142.53 197.672 142.53C197.621 142.53 197.621 141.975 197.722 141.118C197.822 140.261 197.973 139 198.174 137.689C198.375 136.378 198.627 135.168 198.828 134.31C198.978 133.453 199.129 132.898 199.179 132.898Z" fill="#263238"/>
<path d="M200.592 160.811C200.592 160.811 202.051 152.844 207.986 150.877C208.187 150.826 208.388 150.978 208.338 151.23C207.936 152.44 206.376 156.02 200.592 160.811Z" fill="#FA96BB"/>
<path d="M206.369 152.93C206.419 152.98 206.067 153.384 205.564 154.09C204.96 154.896 204.256 155.804 203.501 156.863C202.747 157.872 202.043 158.83 201.439 159.637C200.936 160.342 200.584 160.796 200.534 160.746C200.483 160.746 200.785 160.242 201.238 159.485C201.741 158.729 202.445 157.72 203.25 156.661C204.055 155.602 204.809 154.644 205.413 153.938C205.916 153.333 206.318 152.93 206.369 152.93Z" fill="#263238"/>
<path d="M198.988 180.757C198.988 180.757 198.083 172.739 203.214 169.108C203.415 168.957 203.616 169.108 203.616 169.31C203.566 170.621 203.113 174.454 198.988 180.757Z" fill="#FA96BB"/>
<path d="M202.198 171.531C202.248 171.531 202.047 172.086 201.745 172.893C201.393 173.8 200.99 174.91 200.538 176.12C200.085 177.33 199.683 178.44 199.381 179.347C199.079 180.154 198.928 180.709 198.878 180.659C198.828 180.659 198.928 180.104 199.18 179.247C199.431 178.389 199.834 177.23 200.286 175.969C200.739 174.708 201.192 173.548 201.544 172.742C201.946 171.985 202.198 171.531 202.198 171.531Z" fill="#263238"/>
<path d="M203.42 200.77C203.42 200.77 202.816 192.702 208.047 189.273C208.248 189.172 208.45 189.273 208.45 189.525C208.399 190.836 207.796 194.669 203.42 200.77Z" fill="#FA96BB"/>
<path d="M207.042 191.703C207.092 191.703 206.891 192.258 206.539 193.065C206.187 193.972 205.734 195.082 205.231 196.242C204.728 197.452 204.326 198.511 203.923 199.418C203.621 200.225 203.42 200.73 203.37 200.73C203.32 200.73 203.471 200.175 203.722 199.318C203.974 198.46 204.426 197.351 204.929 196.09C205.432 194.83 205.935 193.72 206.338 192.913C206.74 192.157 206.992 191.703 207.042 191.703Z" fill="#263238"/>
<path d="M194.303 135.808C194.303 135.808 187.161 132.076 187.01 125.823C187.01 125.622 187.261 125.47 187.412 125.571C188.468 126.277 191.436 128.849 194.303 135.808Z" fill="#FA96BB"/>
<path d="M188.468 127.93C188.519 127.93 188.82 128.333 189.374 129.039C189.977 129.846 190.631 130.804 191.386 131.813C192.14 132.872 192.844 133.779 193.398 134.586C193.901 135.292 194.253 135.746 194.203 135.746C194.152 135.796 193.8 135.393 193.197 134.687C192.643 134.031 191.889 133.023 191.084 131.964C190.279 130.854 189.625 129.846 189.122 129.09C188.72 128.434 188.418 127.93 188.468 127.93Z" fill="#263238"/>
<path d="M201.96 152.362C201.96 152.362 194.616 149.084 194.062 142.831C194.062 142.629 194.264 142.478 194.465 142.579C195.572 143.235 198.69 145.605 201.96 152.362Z" fill="#FA96BB"/>
<path d="M195.711 144.91C195.761 144.86 196.113 145.313 196.666 145.969C197.27 146.725 198.024 147.633 198.829 148.642C199.634 149.65 200.388 150.558 200.992 151.314C201.545 151.97 201.897 152.424 201.897 152.424C201.847 152.474 201.445 152.071 200.841 151.466C200.238 150.81 199.433 149.902 198.578 148.843C197.723 147.784 196.968 146.826 196.465 146.12C195.962 145.414 195.66 144.91 195.711 144.91Z" fill="#263238"/>
<path d="M197.731 170.875C197.731 170.875 192.651 164.572 195.065 158.773C195.166 158.571 195.417 158.52 195.518 158.722C196.222 159.832 197.882 163.361 197.731 170.875Z" fill="#FA96BB"/>
<path d="M195.566 161.344C195.616 161.344 195.717 161.848 195.918 162.705C196.119 163.663 196.371 164.823 196.672 166.084C196.924 167.345 197.175 168.504 197.427 169.463C197.628 170.32 197.729 170.875 197.678 170.875C197.628 170.875 197.427 170.37 197.175 169.513C196.924 168.656 196.622 167.496 196.371 166.134C196.069 164.823 195.868 163.613 195.717 162.756C195.566 161.898 195.515 161.344 195.566 161.344Z" fill="#263238"/>
<path d="M202.765 192.607C202.765 192.607 195.472 189.178 195.069 182.925C195.069 182.723 195.271 182.572 195.472 182.673C196.528 183.379 199.596 185.799 202.765 192.607Z" fill="#FA96BB"/>
<path d="M196.565 185.039C196.616 185.039 196.968 185.442 197.521 186.098C198.125 186.854 198.879 187.813 199.634 188.821C200.439 189.83 201.143 190.737 201.797 191.494C202.35 192.2 202.702 192.603 202.652 192.654C202.601 192.704 202.199 192.301 201.646 191.645C201.042 190.989 200.237 190.082 199.433 189.023C198.577 187.964 197.873 187.006 197.37 186.249C196.867 185.543 196.565 185.039 196.565 185.039Z" fill="#263238"/>
<path d="M217.304 160.836C217.304 160.836 217.304 160.886 217.304 161.038C217.304 161.189 217.304 161.34 217.304 161.542C217.304 162.046 217.254 162.702 217.204 163.509C217.103 165.223 217.002 167.643 216.801 170.518C216.298 173.442 214.789 176.67 212.777 179.846C211.319 182.166 209.759 184.284 208.452 186.251C207.144 188.217 205.987 190.032 205.233 191.646C204.428 193.26 203.975 194.621 203.724 195.579C203.573 196.084 203.522 196.437 203.422 196.689C203.372 196.941 203.321 197.092 203.321 197.092C203.321 197.092 203.321 196.941 203.372 196.689C203.422 196.437 203.472 196.033 203.623 195.529C203.875 194.571 204.277 193.159 205.082 191.545C205.836 189.932 206.943 188.066 208.301 186.099C209.609 184.133 211.168 182.015 212.576 179.695C214.538 176.569 216.047 173.392 216.6 170.467C216.801 167.593 216.952 165.173 217.103 163.458C217.153 162.651 217.204 161.996 217.254 161.491C217.254 161.29 217.304 161.139 217.304 160.987C217.304 160.886 217.304 160.836 217.304 160.836Z" fill="#263238"/>
<path d="M212.919 179.263C212.919 179.263 216.037 171.8 212.114 166.908C211.963 166.757 211.712 166.807 211.661 167.009C211.309 168.219 210.706 172.052 212.919 179.263Z" fill="#FA96BB"/>
<path d="M212.372 169.484C212.422 169.484 212.523 170.039 212.623 170.896C212.724 171.754 212.875 172.964 212.975 174.325C213.076 175.687 213.126 176.897 213.126 177.754C213.126 178.662 213.076 179.166 213.025 179.166C212.975 179.166 212.975 178.612 212.875 177.754C212.824 176.746 212.724 175.586 212.623 174.325C212.523 173.065 212.472 171.854 212.372 170.896C212.372 170.039 212.322 169.484 212.372 169.484Z" fill="#263238"/>
<g opacity="0.3">
<path d="M212.919 179.263C212.919 179.263 216.037 171.8 212.114 166.908C211.963 166.757 211.712 166.807 211.661 167.009C211.309 168.219 210.706 172.052 212.919 179.263Z" fill="black"/>
</g>
<path d="M203.365 197.214C203.365 197.214 205.83 189.499 201.554 184.96C201.403 184.809 201.152 184.859 201.102 185.111C200.85 186.372 200.548 190.255 203.365 197.214Z" fill="#FA96BB"/>
<path d="M202.012 187.578C202.062 187.578 202.213 188.082 202.364 188.99C202.565 189.847 202.766 191.058 202.967 192.369C203.168 193.68 203.319 194.941 203.369 195.798C203.419 196.705 203.419 197.21 203.419 197.21C203.369 197.21 203.319 196.655 203.168 195.798C203.017 194.84 202.866 193.68 202.665 192.369C202.464 191.108 202.314 189.948 202.163 188.94C202.012 188.082 201.962 187.578 202.012 187.578Z" fill="#263238"/>
<g opacity="0.3">
<path d="M203.365 197.214C203.365 197.214 205.83 189.499 201.554 184.96C201.403 184.809 201.152 184.859 201.102 185.111C200.85 186.372 200.548 190.255 203.365 197.214Z" fill="black"/>
</g>
<path d="M216.899 170.121C216.899 170.121 223.489 165.481 222.835 159.279C222.835 159.077 222.533 158.976 222.382 159.128C221.426 159.934 218.811 162.859 216.899 170.121Z" fill="#FA96BB"/>
<g opacity="0.3">
<path d="M216.899 170.121C216.899 170.121 223.489 165.481 222.835 159.279C222.835 159.077 222.533 158.976 222.382 159.128C221.426 159.934 218.811 162.859 216.899 170.121Z" fill="black"/>
</g>
<path d="M221.638 161.562C221.689 161.562 221.488 162.067 221.085 162.874C220.733 163.68 220.18 164.739 219.526 165.95C218.872 167.16 218.268 168.168 217.816 168.925C217.363 169.681 217.011 170.085 216.961 170.085C216.91 170.085 217.212 169.58 217.614 168.824C218.067 167.967 218.671 166.908 219.274 165.798C219.878 164.689 220.431 163.63 220.934 162.773C221.337 162.016 221.588 161.562 221.638 161.562Z" fill="#263238"/>
<path d="M206.039 189.596C206.039 189.596 213.986 188.335 216.149 182.486C216.2 182.284 216.049 182.082 215.848 182.133C214.59 182.486 210.968 183.948 206.039 189.596Z" fill="#FA96BB"/>
<g opacity="0.3">
<path d="M206.039 189.596C206.039 189.596 213.986 188.335 216.149 182.486C216.2 182.284 216.049 182.082 215.848 182.133C214.59 182.486 210.968 183.948 206.039 189.596Z" fill="black"/>
</g>
<path d="M214.032 184.068C214.083 184.118 213.63 184.471 212.976 185.026C212.272 185.581 211.316 186.337 210.21 187.094C209.103 187.9 208.097 188.556 207.342 189.01C206.588 189.464 206.085 189.716 206.085 189.665C206.085 189.615 206.487 189.312 207.242 188.808C208.047 188.253 209.002 187.547 210.059 186.841C211.115 186.085 212.071 185.429 212.875 184.824C213.529 184.32 214.032 184.018 214.032 184.068Z" fill="#263238"/>
<path d="M198.435 204.312L196.071 219.995H210.558L208.697 204.312H198.435Z" fill="#9CBDEB"/>
<path d="M209.3 209.159C209.3 209.26 206.685 209.31 203.466 209.31C200.246 209.31 197.631 209.26 197.631 209.159C197.631 209.058 200.246 209.008 203.466 209.008C206.685 209.008 209.3 209.058 209.3 209.159Z" fill="#5E718D"/>
<path d="M209.552 210.425C209.552 210.526 206.836 210.576 203.516 210.576C200.197 210.576 197.48 210.526 197.48 210.425C197.48 210.324 200.197 210.273 203.516 210.273C206.887 210.273 209.552 210.324 209.552 210.425Z" fill="#5E718D"/>
</g>
<path d="M224.806 219.619C224.806 219.672 174.468 219.777 112.432 219.777C50.3403 219.777 0.00195312 219.725 0.00195312 219.619C0.00195312 219.514 50.3403 219.461 112.432 219.461C174.468 219.461 224.806 219.514 224.806 219.619Z" fill="#263238"/>
<path d="M98.465 112.321C97.3464 112.061 94.9723 112.489 93.3401 112.782C89.4786 109.176 80.2679 103.92 73.454 100.077C73.279 99.955 72.0767 100.94 71.9816 101.264L76.1207 107.279C80.3627 109.588 89.2653 113.977 92.2823 115.431C96.471 117.443 95.6113 116.061 98.8185 116.866C98.712 116.271 98.0653 116.08 97.8636 115.809C97.662 115.538 95.8814 115.859 96.3685 115.156C96.8821 114.603 101.383 115.79 101.695 114.965C102.33 114.236 99.5569 112.431 98.465 112.321Z" fill="#FABAAF"/>
<path d="M155.34 184.006L98.7034 183.742C91.8798 183.689 86.4209 178.152 86.4209 171.295L87.0508 28.6308C87.1033 21.7745 92.6147 16.2367 99.4383 16.2894L156.074 16.5531C162.898 16.6059 168.357 22.1437 168.357 29L167.78 171.664C167.727 178.468 162.163 184.006 155.34 184.006Z" fill="#263238"/>
<path d="M155.967 21.1953L144.997 21.1426C143.527 21.1426 142.32 22.4084 142.32 23.9379V25.942C142.32 27.4715 141.113 28.7373 139.643 28.7373L118.227 28.6318C116.758 28.6318 115.55 27.366 115.55 25.8365V23.8324C115.55 22.3029 114.343 21.0371 112.873 21.0371H108.989L99.3837 20.9844C94.6071 20.9844 90.7229 24.8345 90.7229 29.6339L90.1455 168.87C90.1455 173.67 93.9772 177.572 98.7538 177.572L155.285 177.836C160.062 177.836 163.946 173.986 163.946 169.187L164.523 29.9503C164.576 25.0982 160.744 21.1953 155.967 21.1953Z" fill="#FAFAFA"/>
<path d="M159.054 145.729H95.6987C94.019 145.729 92.6543 144.358 92.6543 142.67V52.1137C92.6543 50.426 94.019 49.0547 95.6987 49.0547H159.001C160.681 49.0547 162.045 50.426 162.045 52.1137V142.723C162.098 144.358 160.733 145.729 159.054 145.729Z" fill="#EEF1F5"/>
<path d="M162.045 44.8906H92.6543V54.4895H162.045V44.8906Z" fill="#DEE2E7"/>
<path d="M96.9529 51.059C97.6777 51.059 98.2652 50.4687 98.2652 49.7404C98.2652 49.0122 97.6777 48.4219 96.9529 48.4219C96.2282 48.4219 95.6406 49.0122 95.6406 49.7404C95.6406 50.4687 96.2282 51.059 96.9529 51.059Z" fill="#F5F5F5"/>
<path d="M102.31 51.059C103.035 51.059 103.623 50.4687 103.623 49.7404C103.623 49.0122 103.035 48.4219 102.31 48.4219C101.586 48.4219 100.998 49.0122 100.998 49.7404C100.998 50.4687 101.586 51.059 102.31 51.059Z" fill="#F5F5F5"/>
<path d="M108.979 49.7404C108.979 50.4788 108.402 51.059 107.667 51.059C106.932 51.059 106.354 50.4788 106.354 49.7404C106.354 49.002 106.932 48.4219 107.667 48.4219C108.402 48.4746 108.979 49.0548 108.979 49.7404Z" fill="#F5F5F5"/>
<path d="M54.6476 66.0183C54.111 65.8838 51.6516 65.2562 46.7776 64.0907H46.8223C45.0784 65.2114 42.7531 66.0631 40.0255 66.108C38.684 66.108 37.2531 65.9287 35.8222 65.4804C34.3912 65.0321 33.005 64.3148 31.7083 63.2837C29.1595 61.3113 27.192 58.1732 26.7448 54.4972C26.5212 52.7041 26.6554 50.7764 27.2367 48.9832C27.818 47.1901 28.8017 45.4417 30.0985 44.0072C30.7692 43.2451 31.5741 42.6175 32.379 42.0347C32.7815 41.7658 33.2286 41.4968 33.6758 41.2726L34.3465 40.9588L34.749 40.8243L35.1067 40.6899C36.9401 39.9726 38.8628 39.7036 40.7409 39.8381C42.619 39.9726 44.4076 40.4657 45.9727 41.3175C47.5378 42.1244 48.8792 43.2451 49.9524 44.5452C51.0256 45.8004 51.7858 47.2349 52.2777 48.6694C52.7695 50.104 52.9931 51.5385 52.9931 52.9282C52.9931 55.6628 52.1435 58.0387 51.115 59.7422V59.6526C53.3061 63.5975 54.3793 65.57 54.6476 66.0183C54.3793 65.57 53.2614 63.5975 50.9809 59.6974V59.6526V59.6077C52.0094 57.9042 52.8143 55.5731 52.8143 52.8834C52.8143 51.5385 52.546 50.104 52.0988 48.7143C51.6069 47.3246 50.8467 45.89 49.8183 44.6797C48.7898 43.4244 47.4483 42.3485 45.928 41.5416C44.4076 40.7347 42.619 40.2416 40.7856 40.1071C38.9523 39.9726 37.0295 40.2416 35.2408 40.9588L34.8831 41.0933L34.5701 41.2726L33.8994 41.5864C33.4522 41.8106 33.0498 42.0796 32.6473 42.3485C31.8424 42.9313 31.0823 43.5589 30.4115 44.2762C29.1147 45.7107 28.131 47.3694 27.5944 49.1626C27.0578 50.9557 26.8789 52.7937 27.1025 54.5869C27.505 58.1732 29.4725 61.2664 31.9319 63.1941C33.1839 64.1803 34.5701 64.8976 35.9563 65.3459C37.3425 65.7942 38.7734 65.9735 40.0702 65.9735C42.7531 65.9287 45.0337 65.0769 46.7776 64.001H46.8223H46.867C51.6516 65.2114 54.111 65.8838 54.6476 66.0183Z" fill="#9C9C9C"/>
<path d="M38.7793 47.0919L39.2265 53.6818C39.2712 54.2197 39.6736 54.668 40.2102 54.668C40.7915 54.7128 41.2834 54.2646 41.3281 53.7266L42.0436 47.1367C42.0883 46.6436 41.6858 46.1953 41.194 46.1953H39.5842C39.137 46.2401 38.7793 46.6436 38.7793 47.0919Z" fill="#E6427A"/>
<path d="M41.9523 58.392C41.684 59.2438 40.7897 59.6921 39.9401 59.4231C39.0905 59.1541 38.6433 58.2576 38.9116 57.4058C39.1799 56.554 40.0743 56.1058 40.9239 56.3747C41.7735 56.6437 42.2206 57.5403 41.9523 58.392Z" fill="#E6427A"/>
<path d="M75.9182 90.1244C75.1644 86.0414 74.5614 84.2267 73.8077 81.5047C72.6017 76.8168 69.7375 72.4313 65.215 71.0703L64.3105 78.0266L65.3658 83.6218C65.818 88.6122 69.436 95.266 71.848 102.978L78.1794 106.457C78.7824 101.466 76.2197 92.3928 75.9182 90.1244Z" fill="#FABAAF"/>
<path d="M74.7377 87.7422C74.7377 87.7422 76.5467 91.2204 77.602 95.606C89.3607 129.784 70.5166 90.6155 70.5166 90.6155L74.7377 87.7422Z" fill="#FABAAF"/>
<path d="M70.9401 219.621H63.2517C62.6487 219.016 61.5934 217.806 60.5382 216.748L60.2367 219.621H59.0306L58.8799 214.479V214.177C58.8799 214.177 58.8799 214.177 58.8799 214.026C59.0306 212.513 60.6889 210.396 60.8397 210.094C60.8397 210.094 60.8397 210.094 60.9904 210.094C61.2919 210.245 61.8949 210.699 62.6487 212.665C63.4025 214.328 64.4577 215.992 65.3623 216.445C65.9653 216.748 66.8698 216.597 67.4728 216.597C67.4728 216.597 67.4728 216.597 67.6236 216.597C67.7743 216.597 67.9251 216.597 67.9251 216.597C67.9251 216.597 71.0909 217.958 71.0909 218.411C71.0909 218.563 70.9401 219.167 70.9401 219.621Z" fill="#F97CAA"/>
<path d="M67.7715 216.444H67.47C67.47 216.444 67.47 216.444 67.3193 216.444C66.867 216.444 65.8117 216.595 65.2087 216.292C64.3042 215.99 63.2489 214.175 62.4952 212.512C61.5906 210.697 61.1384 210.092 60.8369 209.941H60.6861C60.8369 209.638 60.8369 209.487 60.9876 209.185C61.2891 208.58 60.3846 202.984 59.6309 196.633H66.4147C65.5102 204.043 65.5102 209.336 65.8117 210.697C66.5655 213.57 67.7715 216.444 67.7715 216.444Z" fill="#FABAAF"/>
<path d="M92.794 172.293H40.9365C40.9365 172.293 49.9814 134.941 51.1874 129.497C55.4084 110.141 60.8353 108.023 60.8353 108.023H61.1368H74.2519C76.6639 112.409 80.7341 121.029 84.6535 133.278C89.0252 146.434 92.794 172.293 92.794 172.293Z" fill="#F97CAA"/>
<path d="M44.1055 182.576H86.315C86.315 182.576 81.7926 146.888 79.8328 133.429C78.0238 121.634 75.3104 112.409 72.7477 108.023H59.3311C59.3311 108.023 53.3011 116.946 50.4369 129.497C49.2309 134.941 44.1055 182.576 44.1055 182.576Z" fill="#F97CAA"/>
<path d="M81.6387 196.791H66.5638H59.7802H51.1875C51.1875 196.791 54.8055 133.278 54.9562 129.497C55.2577 118.155 60.8354 108.023 60.8354 108.023H74.252C76.664 112.409 78.3222 122.238 78.7744 133.731C79.5282 147.341 81.6387 196.791 81.6387 196.791Z" fill="#F97CAA"/>
<path d="M76.5141 99.5605C75.4589 100.619 74.4036 105.005 74.4036 108.029H61.2881C61.2881 107.878 61.4389 107.576 61.4389 107.424C61.7404 103.644 57.2178 91.6967 57.2178 91.6967C57.2178 91.6967 62.4941 88.6721 65.8107 88.0672C66.866 87.916 75.6096 88.0672 75.6096 88.0672C75.6096 88.0672 77.1172 89.5795 77.7202 90.6381C79.8307 93.8139 77.7202 98.1995 76.5141 99.5605Z" fill="#F97CAA"/>
<path d="M83.3019 80.9497C83.0004 85.9401 78.4779 88.2084 75.6137 88.0572C72.7495 87.7547 71.5435 84.8815 70.639 83.0668C69.7345 81.2521 69.5838 79.2862 69.2823 77.6228C69.1315 76.8667 68.9808 76.2618 68.9808 75.6569C68.9808 74.5983 69.2823 73.5398 70.036 72.7836C71.6942 70.969 72.7495 68.0957 72.7495 65.3737C72.7495 64.6176 72.5987 63.7102 72.448 62.9541C71.845 60.0809 68.5285 59.0223 67.4733 58.5687H67.3225C67.1718 58.5687 67.1718 58.5687 67.1718 58.5687V58.7199C65.815 59.0223 65.0613 60.3833 64.4583 62.5005C64.3076 63.1054 64.1568 63.7102 64.0061 64.4664C63.7046 66.7347 63.4031 69.6079 63.4031 72.7836C63.4031 74.5983 63.1016 76.1105 62.8001 77.3203C61.7448 75.8081 53.7552 68.2469 58.7299 59.7784C59.9359 57.8125 61.4433 56.754 62.9508 56.4515C64.7598 55.9979 66.418 56.3003 66.5688 56.3003C66.7195 55.9979 68.83 52.2173 73.5032 53.1246C78.4779 54.032 81.4929 58.115 81.4929 62.5005C81.6436 69.0031 76.0659 70.969 77.5734 72.7836C79.3824 74.7495 83.4526 77.1691 83.3019 80.9497Z" fill="#10215F"/>
<path d="M57.9724 81.3922C55.7112 81.5434 53.9022 81.9971 51.4902 85.0215L56.9172 91.6753C56.9172 91.6753 62.4949 88.953 65.8113 88.3481C66.8666 88.1969 75.3085 88.046 75.3085 88.046C72.4443 87.7435 71.2383 84.8703 70.3338 83.0556C69.4293 81.2409 69.2785 79.275 68.977 77.6116C68.8263 76.8555 69.2785 76.2506 69.2785 75.6457C69.2785 74.4359 69.58 73.5286 70.3338 72.6212C71.992 70.8066 73.0472 67.9333 73.0472 65.2113C73.0472 64.4552 72.8965 63.5478 72.7458 62.7917C72.1428 59.9185 68.2233 58.8599 67.1681 58.4062H67.0173H66.8666C64.0023 59.1624 63.2486 64.9088 63.0979 72.6212C63.0979 74.4359 62.7964 75.9481 62.4949 77.1579C61.8919 80.1824 61.1381 80.9385 57.9724 81.3922Z" fill="#FABAAF"/>
<path d="M53.7488 99.8549C51.9398 97.1328 51.4875 95.7718 50.583 93.957C48.9247 90.7813 49.0755 87.1518 52.0905 84.4297L56.6131 87.9079L57.1694 91.2649C58.4682 94.5228 60.6834 98.0396 62.794 103.484L60.9849 110.29C58.1206 108.021 54.3518 100.611 53.7488 99.8549Z" fill="#FABAAF"/>
<path d="M75.9433 75.9661C75.3668 76.9621 73.9941 78.6299 72.6693 79.5343L72.5015 79.6661C72.4437 85.1435 68.0873 94.4381 67.5516 102.599L65.7511 102.599C65.4336 102.713 64.7705 102.936 64.4712 102.9L64.4302 95.7345C65.6123 91.004 68.5931 81.4659 69.5928 78.2365C70.888 73.8245 71.4539 75.4172 73.034 72.4111C73.4282 72.9164 73.3188 73.8171 72.9466 74.3809C72.7787 74.5128 72.0708 75.3403 72.6693 75.4135C73.4358 75.3548 75.6107 71.2027 76.4721 71.6127C77.0706 71.6859 76.5199 74.9702 75.9433 75.9661Z" fill="#FABAAF"/>
<path d="M68.8263 98.1927C68.0725 117.852 62.782 115.064 59.0273 108.022L62.7961 103.486C62.7961 98.8436 69.58 78.5328 68.8263 98.1927Z" fill="#FABAAF"/>
<path d="M130.184 127.296C132.376 127.296 134.153 126.212 134.153 124.875C134.153 123.537 132.376 122.453 130.184 122.453C127.993 122.453 126.216 123.537 126.216 124.875C126.216 126.212 127.993 127.296 130.184 127.296Z" fill="#C8D8FA"/>
<path d="M149.942 118.63C149.72 118.382 149.474 118.146 149.263 117.898C146.196 114.413 145.471 109.074 145.143 104.61C144.803 99.873 144.955 95.042 143.879 90.3881C142.802 85.7225 139.348 81.8128 134.701 80.23C134.654 79.7693 134.56 79.3087 134.432 78.9071C134.115 77.9621 133.518 77.1353 132.5 76.592C130.557 75.5525 128.286 76.273 127.291 78.2338C127.045 78.7181 126.858 79.3795 126.811 80.0174C124.727 80.5962 122.772 81.6592 121.157 83.1475C117.984 86.0768 116.755 90.7071 116.334 94.8766C115.971 98.4202 116.287 101.798 116.123 105.366C116.006 107.834 115.643 110.515 114.964 112.901C114.625 114.118 114.121 115.299 113.43 116.35C112.833 117.26 111.92 117.921 111.382 118.843C111.171 119.197 110.984 119.481 111.078 119.906C111.288 120.839 112.623 121.3 113.384 121.571C115.058 122.174 116.849 122.469 118.593 122.717C123.474 123.402 128.45 123.544 133.366 123.438C137.803 123.343 142.38 123.142 146.7 122.067C147.8 121.796 149.287 121.441 150.095 120.567C150.762 119.859 150.469 119.221 149.942 118.63ZM128.625 79.6394C128.871 78.6708 129.491 77.7613 130.58 77.6668C132.055 77.5369 132.559 78.5527 132.804 79.7221C131.411 79.474 130.007 79.4504 128.625 79.6394Z" fill="#A6BFF3"/>
<path d="M116.044 106.531C116.044 106.531 133.276 110.665 145.334 106.791C145.334 106.791 145.217 105.739 145.147 104.593C145.147 104.593 132.843 108.255 116.161 104.133C116.161 104.133 116.091 106.046 116.067 106.294L116.044 106.531Z" fill="#D6E2FC"/>
<path d="M115.843 108.445C115.843 108.445 131.53 113.336 145.566 108.646C145.566 108.646 145.812 110.406 146.175 111.658C146.538 112.898 129.622 117.907 115.27 111.658C115.27 111.658 115.808 108.729 115.843 108.445Z" fill="#D6E2FC"/>
<path d="M146.19 111.653C145.827 110.412 145.582 108.641 145.582 108.641C145.137 108.794 144.68 108.936 144.224 109.066L144.961 112.55C145.804 112.184 146.249 111.865 146.19 111.653Z" fill="#A6BFF3"/>
<path d="M140.136 109.999L140.92 113.72C141.646 113.567 142.313 113.401 142.91 113.224L142.138 109.586C141.482 109.751 140.803 109.893 140.136 109.999Z" fill="#A6BFF3"/>
<path d="M136.095 110.517L136.54 114.439C137.336 114.356 138.108 114.25 138.822 114.132L138.015 110.328C137.371 110.399 136.727 110.458 136.095 110.517Z" fill="#A6BFF3"/>
<path d="M127.764 110.523L127.308 114.575C128.092 114.646 128.947 114.681 129.649 114.705V110.63C129.052 110.606 128.373 110.571 127.764 110.523Z" fill="#A6BFF3"/>
<path d="M115.844 108.438C115.809 108.709 115.271 111.65 115.271 111.65C115.774 111.863 116.266 112.064 116.769 112.265L117.483 108.886C116.441 108.626 115.844 108.438 115.844 108.438Z" fill="#A6BFF3"/>
<path d="M123.697 110.078L122.878 113.964C123.651 114.106 124.411 114.236 125.172 114.331L125.629 110.314C124.962 110.243 124.318 110.161 123.697 110.078Z" fill="#A6BFF3"/>
<path d="M131.742 110.676V114.728C132.679 114.716 133.545 114.68 134.4 114.621L133.943 110.641C133.206 110.676 132.445 110.688 131.742 110.676Z" fill="#A6BFF3"/>
<path d="M119.563 109.359L118.802 112.962C119.457 113.163 120.125 113.352 120.78 113.517L121.576 109.749C120.85 109.619 120.183 109.489 119.563 109.359Z" fill="#A6BFF3"/>
<path d="M125.323 85.9491C125.323 90.445 121.711 94.0858 117.261 94.0858C112.811 94.0858 109.199 90.445 109.199 85.9491C109.199 81.4533 112.811 77.8125 117.261 77.8125C121.711 77.8125 125.323 81.4533 125.323 85.9491Z" fill="#F9FBFF" stroke="#F97CAA" stroke-width="0.5"/>
<path d="M116.414 82.0001L116.734 86.709C116.766 87.0934 117.053 87.4138 117.437 87.4138C117.852 87.4458 118.203 87.1255 118.235 86.7411L118.747 82.0321C118.779 81.6797 118.491 81.3594 118.14 81.3594H116.989C116.67 81.3914 116.414 81.6797 116.414 82.0001Z" fill="#F97CAA"/>
<path d="M118.681 90.0675C118.49 90.6761 117.851 90.9964 117.244 90.8042C116.636 90.612 116.317 89.9714 116.509 89.3627C116.7 88.7541 117.339 88.4337 117.947 88.6259C118.554 88.8181 118.873 89.4588 118.681 90.0675Z" fill="#F97CAA"/>
<path d="M125.985 127.343C125.423 126.989 125.06 126.469 125.095 125.784C125.095 125.737 125.025 125.725 125.014 125.772C124.908 126.457 125.236 127.237 125.903 127.52C126.009 127.556 126.067 127.391 125.985 127.343Z" fill="#9FB8E7"/>
<path d="M124.331 127.237C123.863 126.717 123.734 126.044 123.968 125.382C124.004 125.276 123.828 125.193 123.781 125.299C123.477 125.996 123.676 126.823 124.261 127.308C124.308 127.355 124.366 127.284 124.331 127.237Z" fill="#9FB8E7"/>
<path d="M135.456 126.004C135.702 125.85 135.854 125.626 135.843 125.33C135.843 125.307 135.878 125.307 135.878 125.33C135.925 125.626 135.784 125.956 135.491 126.086C135.445 126.098 135.421 126.027 135.456 126.004Z" fill="#9FB8E7"/>
<path d="M136.17 125.959C136.369 125.734 136.427 125.439 136.322 125.167C136.31 125.12 136.381 125.084 136.404 125.132C136.533 125.427 136.451 125.793 136.193 125.994C136.17 126.006 136.146 125.982 136.17 125.959Z" fill="#9FB8E7"/>
<path d="M105.96 83.2396L104.005 81.8222C103.982 81.7986 103.935 81.8104 103.912 81.834L101.441 85.295C101.43 85.3186 101.395 85.3304 101.371 85.3186L98.1987 84.22C98.1636 84.2082 98.1519 84.1728 98.1636 84.1374L98.9362 81.645C98.9479 81.5977 99.0064 81.5859 99.0416 81.6096L101.043 83.2514C101.067 83.2751 101.102 83.2751 101.125 83.2514L103.865 80.3693C103.888 80.3457 103.935 80.3457 103.958 80.3693L106.03 83.1333C106.089 83.2042 106.019 83.2751 105.96 83.2396Z" fill="#A6BFF3"/>
<path d="M109.157 78.7475L105.282 75.4638C105.258 75.4401 105.247 75.4165 105.258 75.3811L106.218 72.4753C106.23 72.428 106.195 72.369 106.136 72.3808L102.893 72.8769C102.835 72.8887 102.8 72.8296 102.812 72.7824L103.584 70.4554C103.596 70.4082 103.561 70.3491 103.502 70.3609L101.325 70.6916C101.29 70.6916 101.266 70.7271 101.266 70.7625L100.938 75.0267C100.938 75.074 100.985 75.1094 101.032 75.0976L104.521 74.1408C104.579 74.129 104.626 74.1762 104.603 74.2353L103.994 76.0898C103.982 76.1252 103.994 76.1607 104.029 76.1725L109.086 78.8775C109.157 78.9129 109.227 78.8066 109.157 78.7475Z" fill="#A6BFF3"/>
<path d="M113.709 76.5092L112 72.2923V72.2804L113.756 70.0243V70.0125L111.766 66.9886V66.9768L113.264 65.9609C113.276 65.9609 113.276 65.9609 113.287 65.9609L115.02 70.2606V70.2724L113.264 72.5403V72.5521L113.744 76.5092C113.732 76.5092 113.709 76.521 113.709 76.5092Z" fill="#A6BFF3"/>
</svg>
