<svg width="20" height="20" viewBox="0 0 20 20" fill="none" xmlns="http://www.w3.org/2000/svg">
<circle cx="10" cy="10" r="10" fill="white"/>
<path d="M12.6856 4.75C11.8285 4.75 10.9142 5.09025 10.2857 5.71416L10 5.99769L9.71424 5.71416C9.0286 5.09037 8.17147 4.75 7.31434 4.75C5.42859 4.75 4 6.22461 4 8.09602C4 10.2512 5.82856 12.0661 8.34289 14.3344C8.91435 14.8449 9.48569 15.3554 10 15.9224C10.5143 15.412 11.0856 14.8449 11.6571 14.3344C14.2285 12.0658 16 10.251 16 8.09602C16 6.22452 14.5715 4.75 12.6857 4.75H12.6856Z" fill="#E6427A"/>
</svg>
