<svg width="14" height="14" viewBox="0 0 14 14" fill="none" xmlns="http://www.w3.org/2000/svg">
<path d="M7.05266 2.90747e-06C4.3137 2.90747e-06 2.10156 2.3094 2.10156 5.12183C2.10156 6.13613 2.40704 6.94318 2.88054 7.70941L6.6152 13.7541L6.61508 13.7542C6.70809 13.9068 6.87386 14 7.05263 14C7.2314 14 7.39716 13.9068 7.49018 13.7542L11.2248 7.70953C11.6982 6.94318 12.0037 6.13613 12.0037 5.12182C12.0037 2.30939 9.79159 0 7.0526 0L7.05266 2.90747e-06ZM7.05266 1.02443C9.21675 1.02443 10.9794 2.84258 10.9794 5.12189C10.9794 5.94266 10.7643 6.49987 10.3499 7.17059L7.05272 12.5058L3.75555 7.17059C3.3411 6.49987 3.12593 5.94266 3.12593 5.12189C3.12593 2.84261 4.88857 1.02443 7.05266 1.02443V1.02443ZM7.05266 2.39028C5.64443 2.39028 4.49175 3.54296 4.49175 4.95119C4.49175 6.35942 5.64443 7.5121 7.05266 7.5121C8.46088 7.5121 9.61357 6.35942 9.61357 4.95119C9.61357 3.54296 8.46088 2.39028 7.05266 2.39028ZM7.05266 3.4147C7.90736 3.4147 8.58914 4.09661 8.58914 4.95119C8.58914 5.80577 7.90724 6.48768 7.05266 6.48768C6.19795 6.48768 5.51617 5.80577 5.51617 4.95119C5.51617 4.09649 6.19808 3.4147 7.05266 3.4147V3.4147Z" fill="#E6427A"/>
</svg>
