<svg width="12" height="12" viewBox="0 0 12 12" fill="none" xmlns="http://www.w3.org/2000/svg">
<path d="M0.234197 11.7657C0.384196 11.9157 0.587598 12 0.799738 12C1.01188 12 1.21528 11.9157 1.36528 11.7657L10.4 2.73147V8.80013C10.4 9.08602 10.5525 9.35012 10.8 9.49298C11.0475 9.63584 11.3525 9.63584 11.6 9.49298C11.8475 9.35012 12 9.08601 12 8.80013V0.800011C12 0.587866 11.9157 0.384288 11.7657 0.234288C11.6157 0.0842886 11.4121 0 11.2 0H3.19987C2.91398 0 2.64988 0.1525 2.50702 0.400005C2.36416 0.647511 2.36416 0.952517 2.50702 1.20002C2.64988 1.44752 2.91399 1.60002 3.19987 1.60002H9.26853L0.234288 10.6347C0.0842886 10.7847 0 10.9881 0 11.2003C0 11.4124 0.084197 11.6157 0.234197 11.7657Z" fill="#707070"/>
</svg>
