<svg width="14" height="14" viewBox="0 0 14 14" fill="none" xmlns="http://www.w3.org/2000/svg">
<path d="M13.9139 5.90671C13.6338 4.13562 12.6849 2.53967 11.2626 1.44768C9.84044 0.355723 8.05323 -0.148707 6.27016 0.0381361C4.4868 0.225102 2.84339 1.08929 1.67832 2.45248C0.51349 3.81555 -0.0838294 5.5738 0.00949659 7.3645C0.102926 9.1552 0.879867 10.8417 2.18021 12.0763C3.48045 13.311 5.20499 13.9995 6.99815 14C8.19868 13.9985 9.37883 13.6903 10.4268 13.1046C10.6253 12.9937 10.7495 12.7853 10.7527 12.5579C10.7559 12.3305 10.6374 12.1187 10.4422 12.0024C10.2468 11.886 10.0042 11.8826 9.80573 11.9936C8.57678 12.6856 7.1356 12.8998 5.75851 12.5952C4.38136 12.2905 3.16507 11.4884 2.34265 10.3424C1.52033 9.19654 1.1497 7.78743 1.30193 6.3852C1.45406 4.98302 2.1183 3.68619 3.16742 2.74325C3.76444 2.20154 4.47 1.79308 5.23725 1.54506C6.0044 1.29716 6.81553 1.21534 7.61677 1.30515C8.75069 1.4282 9.82209 1.88703 10.6936 2.62273C11.5652 3.35854 12.1971 4.33792 12.5085 5.43506C12.8199 6.5322 12.7967 7.6976 12.4416 8.78138C12.361 9.00691 12.212 9.20175 12.0155 9.33855C11.8189 9.47544 11.5847 9.54768 11.3452 9.54501C11.0363 9.54469 10.7401 9.42186 10.5217 9.20337C10.3032 8.98498 10.1804 8.68882 10.1801 8.37988V4.4543C10.1801 4.22696 10.0587 4.01688 9.86185 3.90321C9.66498 3.78953 9.42241 3.78953 9.22553 3.90321C9.02866 4.01688 8.90732 4.22696 8.90732 4.4543V4.47081C8.35985 4.0497 7.68901 3.82023 6.99825 3.81788C5.94772 3.81128 4.96155 4.3237 4.36317 5.18715C3.76468 6.0507 3.63107 7.15384 4.00607 8.13529C4.38106 9.11674 5.21628 9.84971 6.23804 10.0941C7.25969 10.3386 8.33632 10.0629 9.11472 9.35742C9.30403 9.7911 9.61531 10.1605 10.0108 10.4203C10.4063 10.6802 10.8688 10.8195 11.342 10.8211C11.8502 10.8263 12.347 10.6704 12.7613 10.376C13.1755 10.0815 13.4859 9.66349 13.6481 9.18186C13.9952 8.12656 14.0862 7.00418 13.9139 5.90671ZM6.99793 8.90912C6.49159 8.90912 6.00601 8.70799 5.64806 8.34993C5.29 7.99198 5.08886 7.5064 5.08886 7.00006C5.08886 6.49372 5.29 6.00814 5.64806 5.65019C6.00601 5.29213 6.49159 5.09099 6.99793 5.09099C7.50427 5.09099 7.98985 5.29213 8.3478 5.65019C8.70586 6.00814 8.90699 6.49372 8.90699 7.00006C8.90699 7.5064 8.70586 7.99198 8.3478 8.34993C7.98985 8.70799 7.50427 8.90912 6.99793 8.90912Z" fill="#E6427A"/>
</svg>
