<svg width="190" height="120" viewBox="0 0 190 120" fill="none" xmlns="http://www.w3.org/2000/svg">
<mask id="mask0_22254_89387" style="mask-type:luminance" maskUnits="userSpaceOnUse" x="23" y="0" width="137" height="114">
<path d="M103.932 113.431C97.199 113.537 90.4586 113.061 84.1086 112.445C78.1235 111.865 72.4793 109.994 66.5874 108.971C62.3792 108.24 58.0937 106.294 54.4084 104.375C42.6914 98.2754 33.3741 90.7517 28.4622 78.8998C24.1823 68.5728 22.9314 57.1926 24.479 46.2663C26.4298 32.4947 33.863 20.0168 45.3979 10.9278C57.1553 1.66333 73.676 -1.68368 88.8402 0.784942C95.4772 1.86549 103.525 3.89319 109.541 6.7064C118.064 10.6926 124.74 19.0129 125.807 27.3873C126.765 34.9013 129.352 41.9708 139.114 41.5269C144.913 41.2633 150.334 44.3621 153.855 48.3606C158.252 53.3541 158.091 58.5706 158.905 64.5909C159.096 66.0072 159.195 67.4337 159.202 68.8605C159.239 76.6995 156.442 84.4757 151.327 90.785C148.871 93.8134 145.621 96.1485 143.127 99.1318C141.287 101.333 139.86 103.34 137.328 104.982C127.676 111.24 115.815 113.243 103.932 113.431Z" fill="white"/>
</mask>
<g mask="url(#mask0_22254_89387)">
<path d="M320.421 -0.683594H-17.2037V146.479H320.421V-0.683594Z" fill="url(#paint0_linear_22254_89387)"/>
<path d="M320.331 87H-17.2037V88.3009H320.331V87Z" fill="white"/>
<path d="M152.441 22.8766C152.012 22.8766 151.664 23.1951 151.664 23.5879C151.664 23.7767 151.744 23.949 151.876 24.0761C149.317 23.9191 147.277 21.5596 147.277 18.6811H147.264V18.1517H145.318C145.593 17.9138 145.765 17.5777 145.765 17.2054C145.765 16.6011 145.312 16.0914 144.701 15.9453V-0.585938H143.994V15.943C143.377 16.0857 142.92 16.5974 142.92 17.2056C142.92 17.5779 143.091 17.914 143.366 18.1519H141.461V18.6812H141.446C141.446 21.5196 139.463 23.8535 136.954 24.0683C137.081 23.9418 137.158 23.773 137.158 23.588C137.158 23.1952 136.81 22.8768 136.381 22.8768C135.951 22.8768 135.604 23.1952 135.604 23.588C135.604 23.981 135.951 24.2995 136.381 24.2995C136.448 24.2995 136.513 24.2916 136.575 24.2768V24.9788H136.603C136.603 26.8699 137.747 28.4755 139.322 29.0169C138.91 29.1866 138.622 29.5668 138.622 30.0073C138.622 30.6067 139.155 31.0943 139.809 31.0943C140.464 31.0943 140.996 30.6067 140.996 30.0073C140.996 29.6924 140.849 29.4084 140.614 29.2101C141.28 29.1876 141.904 28.982 142.446 28.6371C142.986 28.9883 143.611 29.1984 144.278 29.2189C143.697 29.2891 143.248 29.7452 143.248 30.2957C143.248 30.8951 143.78 31.3823 144.435 31.3823C145.09 31.3823 145.622 30.8951 145.622 30.2957C145.622 29.7385 145.161 29.2773 144.57 29.216C145.193 29.1846 145.778 28.9879 146.29 28.6657C146.76 28.9572 147.292 29.1454 147.858 29.2024C147.606 29.4015 147.446 29.696 147.446 30.0241C147.446 30.6235 147.979 31.1106 148.633 31.1106C149.288 31.1106 149.821 30.6235 149.821 30.0241C149.821 29.6209 149.58 29.2687 149.222 29.0814C150.896 28.6031 152.135 26.949 152.135 24.9872H151.497C151.497 27.0004 150.03 28.6383 148.225 28.6383C147.717 28.6383 147.235 28.5084 146.805 28.2768C147.665 27.5081 148.219 26.2906 148.23 24.9788H152.148V24.2469C152.238 24.2806 152.337 24.2995 152.441 24.2995C152.87 24.2995 153.218 23.981 153.218 23.588C153.218 23.1951 152.87 22.8766 152.441 22.8766ZM148.633 29.5201C148.937 29.5201 149.183 29.7463 149.183 30.0239C149.183 30.3016 148.936 30.5277 148.633 30.5277C148.329 30.5277 148.082 30.3016 148.082 30.0239C148.082 29.7463 148.329 29.5201 148.633 29.5201ZM144.701 16.5664C144.954 16.6855 145.127 16.9275 145.127 17.2056C145.127 17.4837 144.954 17.725 144.701 17.8443V16.5664ZM144.701 18.7341H145.593C145.569 19.8201 145.245 20.8331 144.701 21.693V18.7341ZM144.701 23.489C145.116 23.8515 145.578 24.1576 146.075 24.3965H144.701V23.489ZM143.993 16.5615V17.8492C143.735 17.7319 143.556 17.4875 143.556 17.2056C143.556 16.9236 143.735 16.6786 143.993 16.5615ZM143.993 18.7341V21.697C143.476 20.8361 143.168 19.8216 143.145 18.7341H143.993ZM142.082 18.7341H142.508C142.537 20.2297 143.063 21.6004 143.922 22.674C142.872 23.7371 141.416 24.3964 139.809 24.3964H138.216C140.439 23.641 142.061 21.3913 142.082 18.7341ZM143.993 23.4364V24.3965H142.491C143.037 24.1463 143.543 23.8215 143.993 23.4364ZM139.809 30.5111C139.506 30.5111 139.259 30.2854 139.259 30.0073C139.259 29.7296 139.506 29.5035 139.809 29.5035C140.113 29.5035 140.359 29.7296 140.359 30.0073C140.36 30.2854 140.113 30.5111 139.809 30.5111ZM140.491 28.6298C138.698 28.6298 137.24 26.9919 137.24 24.9787H140.55C140.56 26.2727 141.099 27.4765 141.941 28.2462C141.504 28.492 141.011 28.6298 140.491 28.6298ZM142.45 27.891C141.691 27.2317 141.197 26.1461 141.187 24.9787H143.743C143.743 26.1668 143.235 27.2239 142.45 27.891ZM144.985 30.2957C144.985 30.5734 144.738 30.7995 144.435 30.7995C144.132 30.7995 143.885 30.5734 143.885 30.2957C143.885 30.018 144.132 29.7919 144.435 29.7919C144.738 29.7919 144.985 30.018 144.985 30.2957ZM144.39 28.6381C143.874 28.6381 143.387 28.4989 142.955 28.2511C143.701 27.5844 144.215 26.6229 144.347 25.5316C144.478 26.6377 145.006 27.612 145.771 28.2811C145.352 28.5101 144.884 28.6381 144.39 28.6381ZM146.287 27.9273C145.486 27.2694 144.963 26.1678 144.952 24.9787H147.593C147.581 26.1678 147.069 27.2696 146.287 27.9273ZM148.633 24.3964C147.112 24.3964 145.735 23.7411 144.74 22.6838C145.645 21.6086 146.2 20.2341 146.23 18.7339H146.641C146.662 21.3912 148.284 23.6409 150.508 24.3962H148.633V24.3964Z" fill="white"/>
<path d="M62.7927 82.6172V81.3452H62.209V25.5035C62.209 22.4167 60.6436 19.4777 57.9142 17.4407C55.7857 15.8519 53.0579 14.912 50.2336 14.7944C49.8257 14.7766 49.3852 14.7771 48.979 14.7944C46.1543 14.912 43.4265 15.8519 41.2978 17.4407C38.5684 19.4777 37.0029 22.4167 37.0029 25.5035V81.3452H36.4193V82.6172H35.1765V84.1797H64.0354V82.6172H62.7927ZM50.2078 15.754C52.792 15.8668 55.2845 16.7274 57.2278 18.1779C59.7123 20.0322 61.1374 22.7024 61.1374 25.5035V27.5047H50.208L50.2078 15.754ZM50.2078 28.5828H61.1372V41.1284H50.2078V28.5828ZM50.2078 42.2069H61.1372V54.7526H50.2078V42.2069ZM50.2078 55.8307H61.1372V68.3769H50.2078V55.8307ZM50.2078 69.4548H61.1372V81.2186H50.2078V69.4548ZM38.0748 25.5035C38.0748 22.7023 39.4997 20.0322 41.9837 18.1779C43.9274 16.7274 46.4199 15.8672 49.0041 15.754V27.5047H38.0748V25.5035ZM38.0748 28.5828H49.0041V41.1284H38.0748V28.5828ZM38.0748 42.2069H49.0041V54.7526H38.0748V42.2069ZM38.0748 55.8307H49.0041V68.3769H38.0748V55.8307ZM38.0748 69.4548H49.0041V81.2186H38.0748V69.4548Z" fill="white"/>
<path d="M118.708 8.97656V16.0762H78.9746V8.97656H72.9792V88.0716H78.9746V22.5573H118.708V88.0718H124.703V8.97656H118.708ZM78.6229 9.27592V17.2145L73.6004 13.1876L78.5163 9.27606L78.6229 9.27592ZM73.3309 9.27592H77.9971L73.3309 12.9888V9.27592ZM73.3309 13.3862L78.4543 17.494L73.3309 21.5709V13.3862ZM78.6229 17.7735V25.7969L73.6004 21.7701L78.6229 17.7735ZM73.3309 21.9686L78.5331 26.1398L73.3309 30.279V21.9686ZM78.6229 26.4816V30.4693H73.6112L78.6229 26.4816ZM78.6229 87.6469H73.6112L78.6229 83.6594V87.6469ZM73.3309 87.4566V79.1463L78.5331 83.3174L73.3309 87.4566ZM78.6229 82.9744L73.6004 78.9472L78.6229 74.9506V82.9744ZM73.3309 78.7479V70.5637L78.4543 74.6715L73.3309 78.7479ZM78.6229 74.392L73.6004 70.3651L78.5163 66.453H78.6229V74.392ZM73.3309 70.166V66.453H77.9971L73.3309 70.166ZM78.6616 66.1538H73.2924V31.0413H78.6616V66.1538ZM124.352 9.27592V17.2145L119.329 13.1876L124.245 9.27606L124.352 9.27592ZM119.06 9.27592H123.726L119.06 12.9888V9.27592ZM119.06 13.3862L124.183 17.494L119.064 21.5675L119.06 21.5709V13.3862ZM124.352 17.7735V25.7969L119.329 21.7701L124.352 17.7735ZM119.06 21.9686L119.064 21.9721L124.262 26.1398L119.06 30.279V21.9686ZM124.352 26.4816V30.4693H119.34L124.352 26.4816ZM79.0314 22.263V16.3705H118.708V22.263H79.0314ZM124.352 87.6469H119.34L124.352 83.6594V87.6469ZM119.06 87.4566V79.1463L124.262 83.3174L119.06 87.4566ZM124.352 82.9744L119.329 78.9472L124.352 74.9506V82.9744ZM119.06 78.7479V70.5637L124.183 74.6715L119.06 78.7479ZM124.352 74.392L119.329 70.3651L124.245 66.453H124.352V74.392ZM119.06 70.166V66.453H123.726L119.06 70.166ZM124.391 66.1538H119.021V31.0413H124.391V66.1538Z" fill="white"/>
<path d="M-17.2037 3.74219V9.22962H320.421V3.74219H-17.2037ZM27.9206 8.90801L34.7272 4.32682L41.4816 8.90801H27.9206ZM35.041 4.06423H49.1363L42.0616 8.82588L35.041 4.06423ZM42.6433 8.90801L49.4737 4.3106L56.2519 8.90801H42.6433ZM49.8113 4.06423H63.8746L56.8161 8.81468L49.8113 4.06423ZM57.3813 8.90801L64.2122 4.3106L70.9904 8.90801H57.3813ZM64.5498 4.06423H78.6452L71.5704 8.8256L64.5498 4.06423ZM72.1523 8.90801L78.9832 4.3106L85.7614 8.90801H72.1523ZM79.3204 4.06423H93.2022L86.2348 8.75352L79.3204 4.06423ZM86.7093 8.90801L93.5398 4.3106L99.8572 8.90801H86.7093ZM93.8774 4.06423H107.073L100.175 8.70657V8.66393L93.8774 4.06423ZM100.58 8.90801L107.41 4.3106L114.189 8.90801H100.58ZM107.748 4.06423H121.844L114.769 8.8256L107.748 4.06423ZM115.351 8.90801L122.182 4.3106L128.96 8.90801H115.351ZM122.519 4.06423H136.582L129.523 8.81497L122.519 4.06423ZM130.089 8.90801L136.92 4.3106L143.698 8.90801H130.089ZM137.257 4.06423H151.353L144.278 8.8256L137.257 4.06423ZM144.86 8.90801L151.69 4.3106L158.469 8.90801H144.86ZM152.028 4.06423H165.909L158.942 8.75352L152.028 4.06423ZM159.417 8.90801L166.247 4.3106L173.026 8.90801H159.417ZM166.585 4.06423H180.681L173.606 8.82588L166.585 4.06423ZM174.188 8.90801L181.018 4.3106L187.796 8.90801H174.188ZM181.355 4.06423H195.419L188.36 8.81468L181.355 4.06423Z" fill="white"/>
<path d="M118.73 22.4609H78.676V88.2811H118.73V22.4609Z" fill="white"/>
<path opacity="0.4" d="M85.1492 22.13C86.8433 22.13 88.2167 20.8688 88.2167 19.313C88.2167 17.7573 86.8433 16.4961 85.1492 16.4961C83.4551 16.4961 82.0818 17.7573 82.0818 19.313C82.0818 20.8688 83.4551 22.13 85.1492 22.13Z" fill="white"/>
<path d="M85.1496 21.0832C86.2144 21.0832 87.0775 20.2907 87.0775 19.3131C87.0775 18.3355 86.2144 17.543 85.1496 17.543C84.0849 17.543 83.2217 18.3355 83.2217 19.3131C83.2217 20.2907 84.0849 21.0832 85.1496 21.0832Z" fill="white"/>
<path opacity="0.4" d="M94.3347 22.13C96.0288 22.13 97.4022 20.8688 97.4022 19.313C97.4022 17.7573 96.0288 16.4961 94.3347 16.4961C92.6406 16.4961 91.2673 17.7573 91.2673 19.313C91.2673 20.8688 92.6406 22.13 94.3347 22.13Z" fill="white"/>
<path d="M94.335 21.0832C95.3998 21.0832 96.2629 20.2907 96.2629 19.3131C96.2629 18.3355 95.3998 17.543 94.335 17.543C93.2703 17.543 92.4072 18.3355 92.4072 19.3131C92.4072 20.2907 93.2703 21.0832 94.335 21.0832Z" fill="white"/>
<path opacity="0.4" d="M103.52 22.13C105.214 22.13 106.588 20.8688 106.588 19.313C106.588 17.7573 105.214 16.4961 103.52 16.4961C101.826 16.4961 100.453 17.7573 100.453 19.313C100.453 20.8688 101.826 22.13 103.52 22.13Z" fill="white"/>
<path d="M103.521 21.0832C104.585 21.0832 105.449 20.2907 105.449 19.3131C105.449 18.3355 104.585 17.543 103.521 17.543C102.456 17.543 101.593 18.3355 101.593 19.3131C101.593 20.2907 102.456 21.0832 103.521 21.0832Z" fill="white"/>
<path opacity="0.4" d="M112.706 22.13C114.4 22.13 115.773 20.8688 115.773 19.313C115.773 17.7573 114.4 16.4961 112.706 16.4961C111.012 16.4961 109.638 17.7573 109.638 19.313C109.638 20.8688 111.012 22.13 112.706 22.13Z" fill="white"/>
<path d="M112.706 21.0832C113.771 21.0832 114.634 20.2907 114.634 19.3131C114.634 18.3355 113.771 17.543 112.706 17.543C111.641 17.543 110.778 18.3355 110.778 19.3131C110.778 20.2907 111.641 21.0832 112.706 21.0832Z" fill="white"/>
<path opacity="0.4" d="M121.641 62.8409C123.089 62.8409 124.262 61.7363 124.262 60.3736C124.262 59.0109 123.089 57.9062 121.641 57.9062C120.194 57.9062 119.021 59.0109 119.021 60.3736C119.021 61.7363 120.194 62.8409 121.641 62.8409Z" fill="white"/>
<path d="M121.642 61.9251C122.552 61.9251 123.289 61.231 123.289 60.3747C123.289 59.5184 122.552 58.8242 121.642 58.8242C120.732 58.8242 119.995 59.5184 119.995 60.3747C119.995 61.231 120.732 61.9251 121.642 61.9251Z" fill="white"/>
<path opacity="0.4" d="M121.641 55.4503C123.089 55.4503 124.262 54.3456 124.262 52.983C124.262 51.6203 123.089 50.5156 121.641 50.5156C120.194 50.5156 119.021 51.6203 119.021 52.983C119.021 54.3456 120.194 55.4503 121.641 55.4503Z" fill="white"/>
<path d="M121.642 54.5345C122.552 54.5345 123.289 53.8404 123.289 52.9841C123.289 52.1278 122.552 51.4336 121.642 51.4336C120.732 51.4336 119.995 52.1278 119.995 52.9841C119.995 53.8404 120.732 54.5345 121.642 54.5345Z" fill="white"/>
<path opacity="0.4" d="M121.641 48.0636C123.089 48.0636 124.262 46.9589 124.262 45.5962C124.262 44.2336 123.089 43.1289 121.641 43.1289C120.194 43.1289 119.021 44.2336 119.021 45.5962C119.021 46.9589 120.194 48.0636 121.641 48.0636Z" fill="white"/>
<path d="M121.642 47.1478C122.552 47.1478 123.289 46.4536 123.289 45.5973C123.289 44.741 122.552 44.0469 121.642 44.0469C120.732 44.0469 119.995 44.741 119.995 45.5973C119.995 46.4536 120.732 47.1478 121.642 47.1478Z" fill="white"/>
<path opacity="0.4" d="M121.641 40.6729C123.089 40.6729 124.262 39.5683 124.262 38.2056C124.262 36.8429 123.089 35.7383 121.641 35.7383C120.194 35.7383 119.021 36.8429 119.021 38.2056C119.021 39.5683 120.194 40.6729 121.641 40.6729Z" fill="white"/>
<path d="M121.642 39.7572C122.552 39.7572 123.289 39.063 123.289 38.2067C123.289 37.3504 122.552 36.6562 121.642 36.6562C120.732 36.6562 119.995 37.3504 119.995 38.2067C119.995 39.063 120.732 39.7572 121.642 39.7572Z" fill="white"/>
<path opacity="0.4" d="M75.9919 62.939C77.4543 62.939 78.6399 61.8264 78.6399 60.4539C78.6399 59.0814 77.4543 57.9688 75.9919 57.9688C74.5294 57.9688 73.3438 59.0814 73.3438 60.4539C73.3438 61.8264 74.5294 62.939 75.9919 62.939Z" fill="white"/>
<path d="M75.9923 62.0139C76.9115 62.0139 77.6566 61.3148 77.6566 60.4523C77.6566 59.5898 76.9115 58.8906 75.9923 58.8906C75.0731 58.8906 74.328 59.5898 74.328 60.4523C74.328 61.3148 75.0731 62.0139 75.9923 62.0139Z" fill="white"/>
<path opacity="0.4" d="M75.9919 55.4973C77.4543 55.4973 78.6399 54.3848 78.6399 53.0123C78.6399 51.6399 77.4543 50.5273 75.9919 50.5273C74.5294 50.5273 73.3438 51.6399 73.3438 53.0123C73.3438 54.3848 74.5294 55.4973 75.9919 55.4973Z" fill="white"/>
<path d="M75.9923 54.5723C76.9115 54.5723 77.6566 53.8731 77.6566 53.0107C77.6566 52.1483 76.9115 51.4492 75.9923 51.4492C75.0731 51.4492 74.328 52.1483 74.328 53.0107C74.328 53.8731 75.0731 54.5723 75.9923 54.5723Z" fill="white"/>
<path opacity="0.4" d="M75.9919 48.0559C77.4543 48.0559 78.6399 46.9434 78.6399 45.5709C78.6399 44.1985 77.4543 43.0859 75.9919 43.0859C74.5294 43.0859 73.3438 44.1985 73.3438 45.5709C73.3438 46.9434 74.5294 48.0559 75.9919 48.0559Z" fill="white"/>
<path d="M75.9923 47.1309C76.9115 47.1309 77.6566 46.4317 77.6566 45.5693C77.6566 44.7069 76.9115 44.0078 75.9923 44.0078C75.0731 44.0078 74.328 44.7069 74.328 45.5693C74.328 46.4317 75.0731 47.1309 75.9923 47.1309Z" fill="white"/>
<path opacity="0.4" d="M75.9919 40.6145C77.4544 40.6145 78.64 39.502 78.64 38.1295C78.64 36.7571 77.4544 35.6445 75.9919 35.6445C74.5294 35.6445 73.3439 36.7571 73.3439 38.1295C73.3439 39.502 74.5294 40.6145 75.9919 40.6145Z" fill="white"/>
<path d="M75.9923 39.6894C76.9115 39.6894 77.6566 38.9903 77.6566 38.1279C77.6566 37.2655 76.9115 36.5664 75.9923 36.5664C75.0732 36.5664 74.3281 37.2655 74.3281 38.1279C74.3281 38.9903 75.0732 39.6894 75.9923 39.6894Z" fill="white"/>
<path opacity="0.53" d="M118.663 9.125C118.663 9.125 132.274 22.1547 155.527 22.1428C178.78 22.1309 194.7 9.125 194.7 9.125H118.663Z" fill="white"/>
<path opacity="0.75" d="M128.472 9.125C128.472 9.125 141.49 16.8559 156.043 16.8577C171.311 16.8595 182.356 9.17295 182.356 9.17295L128.472 9.125Z" fill="white"/>
<path opacity="0.53" d="M78.8931 9.125C78.8931 9.125 66.0032 19.6747 43.9821 19.6654C21.9611 19.6561 6.88489 9.125 6.88489 9.125H78.8931Z" fill="white"/>
<path opacity="0.75" d="M69.6037 9.125C69.6037 9.125 57.2751 15.583 43.4934 15.5843C29.0346 15.5857 18.5745 9.16118 18.5745 9.16118L69.6037 9.125Z" fill="white"/>
</g>
<mask id="mask1_22254_89387" style="mask-type:luminance" maskUnits="userSpaceOnUse" x="23" y="0" width="137" height="114">
<path d="M103.932 113.431C97.199 113.537 90.4586 113.061 84.1086 112.445C78.1235 111.865 72.4793 109.994 66.5874 108.971C62.3792 108.24 58.0937 106.294 54.4084 104.375C42.6914 98.2754 33.3741 90.7517 28.4622 78.8998C24.1823 68.5728 22.9314 57.1926 24.479 46.2663C26.4298 32.4947 33.863 20.0168 45.3979 10.9278C57.1553 1.66333 73.676 -1.68368 88.8402 0.784942C95.4772 1.86549 103.525 3.89319 109.541 6.7064C118.064 10.6926 124.74 19.0129 125.807 27.3873C126.765 34.9013 129.352 41.9708 139.114 41.5269C144.913 41.2633 150.334 44.3621 153.855 48.3606C158.252 53.3541 158.091 58.5706 158.905 64.5909C159.096 66.0072 159.195 67.4337 159.202 68.8605C159.239 76.6995 156.442 84.4757 151.327 90.785C148.871 93.8134 145.621 96.1485 143.127 99.1318C141.287 101.333 139.86 103.34 137.328 104.982C127.676 111.24 115.815 113.243 103.932 113.431Z" fill="white"/>
</mask>
<g mask="url(#mask1_22254_89387)">
<path d="M185.242 114.717L15.5803 111.778L80.2335 92.3028L142.828 91.8672L185.242 114.717Z" fill="url(#paint1_linear_22254_89387)"/>
</g>
<path d="M106.496 88.3906C106.496 88.7216 105.887 89.2181 105.887 89.604C105.887 89.9901 106.163 92.3064 106.163 92.3064H106.661V90.2225L107.877 92.3065H110.254L110.088 91.6998C110.088 91.6998 108.817 91.314 108.761 91.0931C108.761 91.0931 107.894 90.794 107.72 90.2732C107.547 89.7524 107.147 88.4176 106.496 88.3906Z" fill="#4D99F2"/>
<path d="M84.4631 88.7216L85.8738 87.509L85.2923 89.4936L86.482 90.8732L87.0902 90.2231L86.6478 89.6596L86.1092 89.0957C86.1092 89.0957 86.553 87.7089 86.7578 87.3306C86.9629 86.952 86.7578 85.9102 86.7578 85.9102C86.7578 85.9102 85.6524 86.0197 85.3762 86.461C85.0998 86.9021 84.049 88.4465 84.049 88.4465L84.4631 88.7216Z" fill="#4D99F2"/>
<path d="M86.1088 89.0938L86.6474 89.6578L86.6477 89.6572C86.661 89.6209 87.346 87.7588 87.7534 86.7853C87.8149 86.6381 88.6707 85.1486 89.9055 83.2469C89.8523 83.2283 89.7994 83.2087 89.7468 83.1887C89.7468 83.1887 89.7465 83.1887 89.7462 83.1885L89.7459 83.1881C89.2196 82.9872 88.7128 82.7174 88.2222 82.418C87.4193 84.3225 86.7939 85.8216 86.7591 85.9045L86.7577 85.9082C86.7577 85.9082 86.9627 86.95 86.7577 87.3286C86.5528 87.707 86.1088 89.0938 86.1088 89.0938Z" fill="#9E4E29"/>
<path d="M104.908 81.5117C105.603 84.5293 106.496 88.1654 106.496 88.3901C107.147 88.417 107.547 89.7517 107.721 90.2727C107.894 90.7934 108.762 91.0924 108.762 91.0924C108.707 90.872 107.933 88.9967 107.822 88.4451C107.759 88.1297 107.569 86.046 107.573 82.5659C106.602 82.3553 105.871 81.8961 104.908 81.5117Z" fill="#9E4E29"/>
<path d="M95.6514 43.875C96.6286 46.1768 98.0999 48.4011 98.1076 49.4381L99.0862 38.5722L99.0865 38.572C99.0182 38.3112 99.2012 36.8119 99.3525 35.6918C99.3525 35.6918 99.3529 35.6915 99.3529 35.6913C99.4481 34.9863 99.5311 34.4316 99.5311 34.4316C99.5322 34.4316 99.5334 34.4316 99.5344 34.4319C99.5405 34.4325 99.5559 34.4339 99.5787 34.4355H99.581C99.8019 34.4526 100.582 34.6656 100.935 34.4335C101.179 34.2736 101.752 31.9442 101.766 31.4733C101.786 30.824 101.73 30.2259 101.5 29.7627C101.507 29.788 101.514 29.8137 101.52 29.8394C101.52 29.8394 100.266 29.3013 99.5286 30.3337C99.0137 31.0547 98.8285 31.6204 98.6072 31.6572C98.3861 31.694 98.2976 30.8538 97.8923 31.0008C97.4867 31.148 97.6261 32.2242 97.29 32.7971C97.265 32.84 97.2298 32.8646 97.1867 32.8724C97.0629 33.3352 96.4078 35.7833 96.3223 36.0512C96.2988 36.124 96.2612 36.229 96.2136 36.3566C95.9275 37.1206 95.2733 38.6954 95.1056 39.0476C94.9429 39.3897 94.8513 39.7593 94.8167 40.1483C94.7162 41.2868 95.1071 42.593 95.6514 43.875Z" fill="#9E4E29"/>
<path d="M95.9305 29.0561C95.5586 29.9319 95.8133 30.8563 95.6493 31.7449C95.6366 31.8135 94.0749 32.0493 93.8527 32.3898C93.2236 33.3537 93.6416 34.8768 94.7879 35.2189C95.8855 35.5464 96.6546 35.097 97.0244 34.0454C97.1929 33.5661 97.3602 33.039 97.4974 32.5575C97.615 32.1443 97.4648 31.2934 97.9808 31.1059C98.3862 30.9589 98.3862 31.6942 98.6073 31.6575C98.8286 31.6207 99.0138 31.055 99.5287 30.3339C100.266 29.3016 101.52 29.8396 101.52 29.8396C101.514 29.8139 101.507 29.7883 101.5 29.763C101.171 28.6106 100.111 27.8712 98.9487 27.733C97.5311 27.5645 96.4264 27.8884 95.9305 29.0561Z" fill="#394E78"/>
<path d="M98.1041 33.4336C98.1386 34.7183 99.3531 35.6905 99.3531 35.6905C99.3531 35.6905 99.3533 35.6902 99.3533 35.69C99.4485 34.9849 99.5315 34.4303 99.5315 34.4303C98.6323 34.3879 98.1041 33.4336 98.1041 33.4336Z" fill="#9E4E29"/>
<path d="M97.0118 33.5814C97.0118 33.8586 97.2365 34.0833 97.5137 34.0833C97.7907 34.0833 98.0153 33.8586 98.0153 33.5814C98.0153 33.3552 97.8656 33.1641 97.6598 33.1016C97.7506 33.0507 97.8122 32.9531 97.8122 32.8414C97.8122 32.6764 97.6784 32.543 97.5138 32.543C97.3488 32.543 97.2151 32.6764 97.2151 32.8414C97.2151 32.9532 97.2766 33.0507 97.3676 33.1016C97.1615 33.164 97.0118 33.3551 97.0118 33.5814Z" fill="#4D99F2"/>
<path d="M99.3694 38.7069C99.7864 39.1012 100.564 39.8184 101.288 40.5172C104.908 40.7585 108.539 40.1506 107.764 39.2118C107.608 39.0221 107.447 38.9402 107.286 38.9267C106.645 38.8732 105.993 39.9031 105.517 39.5303C105.314 39.3722 105.395 39.002 105.554 38.565C105.862 37.7132 106.466 36.6085 105.84 36.3326C105.83 36.3282 105.82 36.324 105.811 36.3203C105.804 36.3173 105.797 36.3145 105.79 36.312C104.327 35.7626 103.75 39.2795 102.913 39.6603C102.903 39.6648 102.892 39.6692 102.882 39.6731C102.873 39.6767 102.863 39.6801 102.854 39.6831C102.841 39.6873 102.827 39.6911 102.814 39.6945C102.807 39.6965 102.799 39.6984 102.792 39.6998C102.785 39.7018 102.777 39.7034 102.77 39.7046C101.956 39.8683 100.03 39.0159 99.3694 38.7069Z" fill="#394E78"/>
<path d="M107.286 38.9281C106.645 38.8744 105.994 39.9045 105.517 39.5316C105.315 39.3737 105.395 39.0033 105.554 38.5664L107.286 38.9281Z" fill="#4D99F2"/>
<path d="M80.9183 80.5599C80.9278 80.5488 80.9378 80.5372 80.9489 80.5252C80.9489 80.5249 80.9488 80.5249 80.9491 80.5249C81.1812 80.2718 81.813 79.8565 83.4469 79.8824C84.9297 79.9058 86.4717 81.3505 88.2216 82.4191C88.7122 82.7185 89.219 82.9881 89.7452 83.1891L89.7454 83.1894C89.7458 83.1897 89.746 83.1897 89.746 83.1897C89.7986 83.2097 89.8516 83.2293 89.9047 83.2479C90.4132 83.4265 90.9406 83.5384 91.4886 83.5477C94.7053 83.6035 95.5372 81.3289 100.321 80.9417C102.533 80.7626 103.858 81.0925 104.908 81.5118C105.87 81.8962 106.602 82.3554 107.573 82.5661C107.834 82.6227 108.112 82.6614 108.417 82.676C108.42 82.676 108.422 82.6762 108.425 82.6762C108.827 82.6949 109.187 82.6849 109.517 82.6498H109.518C109.959 82.6032 110.347 82.5115 110.704 82.3839C111.852 81.9743 112.69 81.1924 114.044 80.3306C114.546 80.011 115.046 79.8227 115.516 79.721C115.996 79.6173 116.444 79.6037 116.831 79.633C117.619 79.6923 118.155 79.9281 118.193 79.9448C118.193 79.9451 118.194 79.9453 118.195 79.9456L112.064 73.5786L110.279 71.7767C110.646 71.5719 111.007 71.3836 111.37 71.2266C111.373 71.2252 111.376 71.2239 111.379 71.2225C111.839 71.0245 112.3 70.8776 112.777 70.8146C113.355 70.7384 113.861 70.7073 114.303 70.7085C115.458 70.7113 116.174 70.9317 116.58 71.1251C116.762 71.2115 116.882 71.2926 116.951 71.3461L110.254 65.6787L104.204 60.2682C102.991 57.4056 101.961 55.1888 101.961 55.0782C101.961 54.8026 102.493 51.6607 102.514 50.9422C102.521 50.6892 102.516 50.3888 102.501 50.0584C102.405 47.9421 101.918 44.5994 101.918 44.5994C101.918 44.5994 102.013 44.4508 102.146 44.228V44.2277C102.471 43.683 103.019 42.6941 102.94 42.3406C102.889 42.1093 102.124 41.3258 101.288 40.5181C100.564 39.8193 99.7863 39.1021 99.3693 38.7078C100.03 39.0168 101.956 39.8692 102.77 39.7056C102.777 39.7039 102.785 39.7026 102.792 39.7008C102.799 39.6991 102.807 39.6974 102.814 39.6956C102.828 39.6923 102.841 39.6883 102.854 39.6841C102.864 39.681 102.873 39.6776 102.882 39.6741C102.892 39.6703 102.903 39.6658 102.913 39.6614C103.75 39.2806 104.327 35.7635 105.79 36.3131C103.98 35.5811 100.44 37.6784 99.3722 38.356C99.2295 38.2986 98.7969 38.1384 98.2191 38.0492C97.3001 37.9077 96.4487 38.0177 95.7557 38.3679C94.762 38.0038 93.7274 37.7432 92.672 37.6761C91.4942 37.6011 90.2879 37.7751 89.2218 38.2821C89.2379 38.2762 89.2973 38.2576 89.4185 38.2509C89.4188 38.2507 89.4191 38.2507 89.4194 38.2509C89.5826 38.2422 89.8587 38.2551 90.2938 38.349C90.7337 38.444 91.1588 39.0364 91.6812 39.551C92.1376 40.001 92.6681 40.3913 93.3482 40.3393C94.7168 40.2341 95.9468 38.7068 96.0922 38.5201C97.2714 38.0351 98.5638 38.3722 99.0795 38.5462C99.0809 38.5508 99.0819 38.5547 99.0829 38.5581C99.0829 38.5581 99.0829 38.5581 99.0829 38.5583L98.9254 40.3123L98.5549 44.4478L98.1077 49.4381C98.108 49.5032 98.1028 49.5634 98.0916 49.6186C97.7597 51.218 96.0694 54.14 96.1923 56.9539C96.1923 56.9539 96.1523 58.4228 96.0869 60.4061L83.0026 71.7519C83.0026 71.7519 83.7787 72.3526 85.6443 72.4431C86.1188 72.4662 86.6636 72.4562 87.2844 72.3952L86.9849 72.7826L85.61 74.5624L80.9183 80.5599Z" fill="#4D99F2"/>
<path d="M88.7518 39.8193C88.9937 39.1416 91.1896 39.4699 91.6817 39.5524C91.1593 39.0378 90.7341 38.4454 90.2941 38.3503C89.8588 38.2565 89.5828 38.2436 89.4195 38.2523C89.4191 38.252 89.4189 38.252 89.4185 38.2523C89.3528 38.2598 89.2859 38.271 89.2177 38.2852C89.2174 38.2854 89.2171 38.2854 89.2169 38.2854C87.5941 38.6298 88.5098 40.498 88.7518 39.8193Z" fill="#394E78"/>
<path d="M86.9785 72.7803C88.6548 72.9951 90.3803 72.8123 91.9744 72.251C92.5142 72.0611 93.05 71.8235 93.6217 71.7458C94.1685 71.6718 94.7647 71.7489 95.3039 71.8475C96.5041 72.0677 97.6362 72.5441 98.7776 72.9587C100.293 73.509 101.826 74.0765 103.441 74.2407C105.547 74.4552 107.72 73.9478 109.514 72.8225C109.614 72.7596 109.722 72.6945 109.833 72.6346C110.201 72.4355 110.61 72.2916 110.94 72.4568L111.603 73.1121C111.603 73.1121 117.827 72.2706 117.026 71.41C117.024 71.4078 117.022 71.4056 117.02 71.4033C116.99 71.3752 116.857 71.2559 116.58 71.1241C116.038 70.8914 115.183 70.7304 114.303 70.6797C113.861 70.6785 113.355 70.7374 112.777 70.8137C112.3 70.8767 111.839 71.0236 111.379 71.2216C111.377 71.2228 110.696 71.5596 110.395 71.7083C110.394 71.7086 110.394 71.7089 110.393 71.7095C110.315 71.7482 110.263 71.7742 110.255 71.7777C110.225 71.7936 110.196 71.8104 110.168 71.8268C108.629 72.7226 106.914 73.3147 105.15 73.5593C103.897 73.7329 102.604 73.7298 101.388 73.3846C100.187 73.0439 99.1066 72.3856 97.9834 71.841C96.8601 71.2968 95.6277 70.8552 94.3877 70.9982C93.606 71.0883 92.8721 71.4053 92.1259 71.6549C90.8352 72.087 89.4797 72.3408 88.1188 72.3535C87.0897 72.3632 87.1767 72.4016 86.9785 72.7803Z" fill="#394E78"/>
<path d="M110.704 82.3829C114.064 81.7462 114.848 82.6823 116.485 82.3821C118.299 82.0491 118.195 79.9447 118.195 79.9447C118.194 79.9443 118.193 79.9441 118.193 79.9437C118.155 79.927 117.619 79.6913 116.832 79.6319C116.425 79.6183 115.981 79.6509 115.517 79.7201C115.046 79.8218 114.546 80.0102 114.044 80.3297C112.69 81.1916 111.852 81.9734 110.704 82.3829Z" fill="#394E78"/>
<path d="M86.1886 82.0304C87.5217 81.9701 89.7061 83.1783 89.7454 83.1912L89.7451 83.1908C87.3409 82.2736 85.3455 79.9141 83.447 79.884C81.8131 79.858 81.1812 80.2734 80.9492 80.5264C80.9489 80.5264 80.9489 80.5264 80.9489 80.5268C80.903 80.5866 80.8606 80.6493 80.8225 80.7146C80.1549 81.8595 84.6111 82.1016 86.1886 82.0304Z" fill="#394E78"/>
<path d="M101.918 44.602C101.918 44.602 102.405 47.9448 102.501 50.061C102.646 50.2474 102.751 50.3713 102.802 50.4128C103.34 50.8469 111.694 54.862 111.694 54.862C111.694 54.862 111.712 55.5218 111.868 55.8344C112.002 56.1025 112.874 57.1365 112.874 57.1365C112.874 57.1365 113.17 56.7718 112.996 56.5981C112.917 56.5195 112.389 55.9383 112.475 55.7996C112.475 55.7996 113.152 56.4246 113.343 56.6676C113.451 56.8049 113.475 57.3892 113.534 57.6224C113.565 57.7437 113.729 57.7625 113.786 57.6517C113.937 57.3625 114.147 56.6306 113.985 56.2337C113.569 55.2094 112.527 54.0021 112.527 54.0021C112.527 54.0021 110.474 52.1662 104.781 48.5206C104.449 48.3077 103.343 46.2383 102.146 44.2305C102.013 44.4536 101.918 44.602 101.918 44.602Z" fill="#9E4E29"/>
<path d="M89.2811 47.787C89.2811 48.8634 96.1894 52.3749 96.6059 52.3749C97.0227 52.3749 98.203 51.9934 98.4805 52.0284C98.7582 52.0629 100.286 52.4449 100.32 52.2712C100.355 52.0977 99.0014 50.7784 98.5847 50.7784C98.1681 50.7784 96.6059 51.2479 96.6059 51.2479C96.6059 51.2479 91.746 47.0832 91.7806 46.9789C91.802 46.9148 93.9449 45.2787 95.6515 43.8769C95.1072 42.5948 94.7163 41.2886 94.8171 40.1501C94.8311 39.9941 94.8538 39.8408 94.8877 39.6914C94.7561 39.7842 94.6077 39.877 94.4983 39.9427C92.7132 42.4396 89.2811 46.5293 89.2811 47.787Z" fill="#9E4E29"/>
<path d="M97.9084 41.2109C97.9084 41.2109 97.9026 41.9139 97.2211 42.523C96.5396 43.132 95.6863 43.8476 95.6863 43.8476L96.0496 44.7598C96.0496 44.7598 98.3372 42.6662 97.9084 41.2109Z" fill="#9E4E29"/>
<path d="M100.192 52.315C100.192 52.315 98.6326 52.0273 98.4807 52.0273C98.2316 52.0272 97.168 52.287 97.168 52.287L97.0674 52.562C97.0674 52.562 98.2934 52.2752 98.4414 52.2946C98.5892 52.3141 99.9329 52.4515 100.192 52.315Z" fill="#394E78"/>
<path d="M22.1995 114.466C34.46 114.466 44.3991 113.409 44.3991 112.106C44.3991 110.803 34.46 109.746 22.1995 109.746C9.93907 109.746 0 110.803 0 112.106C0 113.409 9.93907 114.466 22.1995 114.466Z" fill="#EBD8E4"/>
<path d="M33.9892 111.038C33.8182 111.185 31.2072 112.554 31.2072 112.554L30.9608 112.102C30.9608 112.102 32.0123 110.996 32.061 110.81C32.061 110.81 32.8482 110.279 32.9219 109.922C32.9759 109.66 32.6 108.66 31.9999 107.38C31.3997 106.1 32.1356 104.691 32.1356 104.691C32.1356 104.691 33.4927 105.711 33.79 106.349C34.0872 106.987 35.5733 110.175 35.5733 110.175L35.2257 110.364C35.2257 110.364 33.703 107.516 33.1898 107.795C32.6759 108.076 34.1601 110.892 33.9892 111.038Z" fill="#1B1937"/>
<path d="M11.0357 107.872C10.9918 108.574 10.7715 112.086 10.7715 112.086H10.3755C10.3755 112.086 10.4015 108.855 9.8165 108.855C9.23136 108.855 9.18782 112.039 8.96752 112.086C8.74756 112.133 5.79944 112.086 5.79944 112.086V111.57C5.79944 111.57 7.25162 111.103 7.38382 110.962C7.38382 110.962 8.3289 110.873 8.56428 110.595C8.73659 110.391 8.88514 109.333 8.9706 107.922C9.05607 106.51 10.3755 105.625 10.3755 105.625C10.3755 105.625 11.0796 107.17 11.0357 107.872Z" fill="#1B1937"/>
<path d="M32.9219 109.919C32.8481 110.276 32.061 110.807 32.061 110.807C32.1094 110.62 31.1791 108.728 30.9625 106.767C30.7463 104.806 27.6973 95.609 26.5638 91.2083C25.9462 88.8099 23.6786 84.9215 23.4367 84.2124C23.2328 83.6148 22.7109 79.991 22.2586 75.3391C19.3012 80.0354 16.0519 84.8854 16.0519 84.8854C16.0519 84.8854 16.9761 89.3325 16.536 92.3754C15.8813 96.9038 10.3753 105.624 10.3753 105.624C10.3753 105.624 9.05586 106.509 8.97039 107.92C8.88492 109.332 8.73638 110.39 8.56407 110.593C8.32868 110.871 7.38361 110.961 7.38361 110.961C7.51535 110.82 7.60322 108.714 8.35131 106.888C9.09939 105.062 12.3114 95.3714 12.4878 90.8307C12.564 88.8654 12.405 84.2192 12.5318 83.4809C12.7363 82.2895 15.1717 69.2494 20.4961 62.2271C20.8114 61.8111 21.1494 61.498 21.4936 61.2664C22.1511 60.8226 22.8305 60.6753 23.4153 60.6719H23.4177C23.4836 60.6756 23.5626 60.6774 23.6531 60.6784C24.9488 60.6966 28.5974 60.6162 29.5283 64.6645C30.4434 68.6445 28.2891 83.5913 28.2891 83.5913C28.2891 83.5913 30.1385 87.224 31.2074 90.1067C32.7986 94.3967 32.1353 104.688 32.1353 104.688C32.1353 104.688 31.3996 106.097 31.9997 107.377C32.6001 108.658 32.9759 109.658 32.9219 109.919Z" fill="#9E4E29"/>
<path d="M32.8595 48.9823C32.2404 49.1732 31.5293 49.1585 30.8386 48.9387C29.3562 48.467 27.7765 47.2625 27.0582 45.8687C26.5247 44.8333 26.9 43.2418 27.0521 42.1298C27.2328 40.8079 27.5565 39.5109 27.9225 38.2295C28.2179 37.195 28.7881 34.0305 26.8818 34.1528C28.0328 36.4551 26.9209 38.1751 25.5649 39.2027C25.2225 38.9653 24.8275 38.3586 24.7187 37.9543C24.6142 37.5662 24.8958 36.9985 24.58 36.6743C24.2001 36.2844 23.9434 36.8509 23.6496 36.9685C23.4643 37.0425 22.4637 35.671 22.2783 35.3375C22.093 35.0041 22.0188 34.2996 22.0188 34.2996C22.0188 34.2996 21.3888 34.3737 20.9811 34.2996C20.5733 34.2256 20.4315 34.0125 20.4314 34.0123C20.2955 33.8081 21.7918 32.8716 21.9465 32.7905C22.6425 32.4251 23.4291 32.1891 24.2183 32.1743C24.5752 32.1675 24.9346 32.2028 25.279 32.2992C25.8165 32.4495 25.805 32.6073 26.1688 32.1948C26.7103 31.581 26.8211 30.7659 27.5905 30.3141C29.4473 29.2236 31.8435 31.1941 32.4764 32.8401C33.3536 35.1212 33.2609 37.6874 32.6067 40.0127C32.2684 41.2151 32.3915 43.0209 33.2479 43.9543C34.1467 44.934 34.9531 45.7212 34.5577 47.2064C34.308 48.1438 33.6607 48.7353 32.8595 48.9823Z" fill="#1B1937"/>
<path d="M20.6874 62.0962C20.6874 62.0962 20.7728 58.1187 20.8583 56.6644C20.9438 55.2102 21.2004 52.0831 21.2004 52.0831C21.2004 52.0831 19.3601 50.5733 19.8319 48.4954C19.8886 48.2452 20.3559 47.7953 21.012 47.2691C22.0669 46.4231 23.6088 45.3804 24.7137 44.6562C24.3418 45.367 24.3334 46.4205 24.7068 47.4264C24.8485 47.8088 26.5643 49.6323 28.2984 51.4232V51.4239L26.0773 58.8669L26.077 58.8676L25.6669 60.7823L20.6874 62.0962Z" fill="#FFA23A"/>
<path opacity="0.6" d="M20.7039 61.1491C20.7039 61.1491 23.894 64.1973 28.2985 70.6555C32.7029 77.1138 35.4829 84.0052 35.4829 84.0052L45.7521 69.9262C45.7521 69.9262 35.0981 56.8367 20.7039 61.1491Z" fill="#FFA23A"/>
<path opacity="0.69" d="M20.7039 61.1502L34.1573 99.0822L48.121 81.8336C48.121 81.8336 33.7851 55.7667 20.7039 61.1502Z" fill="#FFA23A"/>
<path opacity="0.84" d="M20.6874 61.7095C20.6874 61.7095 26.985 79.1062 27.2669 110.046C27.2826 111.757 46.8828 100.783 46.8828 100.783C46.8828 100.783 34.4124 52.7959 20.6874 61.7095Z" fill="#FFA23A"/>
<path d="M35.098 56.0207C35.098 57.3466 26.5883 60.2542 26.0753 60.2542C25.9737 60.2542 25.8358 60.236 25.6769 60.2068C25.0311 60.0887 24.0408 59.7929 23.7662 59.8273C23.4241 59.8698 21.5425 60.3404 21.4997 60.1266C21.4572 59.9127 23.1248 58.2876 23.6379 58.2876C24.1509 58.2876 26.0754 58.8657 26.0754 58.8657C26.0754 58.8657 26.0761 58.8653 26.0774 58.8646C26.2037 58.7908 32.0614 55.3778 32.0193 55.2509C31.9973 55.1846 30.1373 53.3213 28.2984 51.4209C26.5644 49.6299 24.8486 47.8064 24.7068 47.424C24.3334 46.4181 24.3418 45.3646 24.7137 44.6539C23.6088 45.378 22.0669 46.4207 21.012 47.2667L23.5336 43.2786C23.5336 43.2786 23.3307 42.5605 23.1375 41.766C22.9632 41.0473 22.7971 40.2658 22.7971 39.8966C22.7964 39.8969 22.7961 39.8969 22.7954 39.8969C22.7903 39.8993 22.7714 39.9075 22.7401 39.9209C22.7398 39.9209 22.7391 39.9209 22.7387 39.9212C22.4825 40.0297 21.4481 40.4508 21.092 40.341C20.8682 40.272 19.8322 37.5609 19.8322 36.9308C19.8322 36.4005 19.8844 34.6095 20.4314 34.0117C20.4314 34.0117 20.5731 34.2249 20.9811 34.299C21.3888 34.3731 22.0189 34.299 22.0189 34.299C22.0189 34.299 22.093 35.0034 22.2784 35.337C22.4637 35.6706 23.4643 37.0421 23.6497 36.9679C23.835 36.8937 24.0572 36.4119 24.465 36.5231C24.8726 36.6343 24.6504 37.8205 25.0209 38.3765C25.3277 38.837 25.4078 39.0171 25.5651 39.2022L26.7886 43.7935L26.8047 43.8756C27.3665 44.0819 28.0501 44.6166 28.8108 45.8213C30.5713 48.6092 35.098 54.2671 35.098 56.0207Z" fill="#9E4E29"/>
<path d="M20.7584 61.9102C20.7584 61.9102 21.4989 63.9315 22.3669 67.5054C22.7229 68.9712 23.641 73.118 23.641 73.118L22.2198 75.3251L20.7584 61.9102Z" fill="#9E4E29"/>
<path d="M24.4281 38.75C24.391 40.0884 23.1377 41.7648 23.1377 41.7648C22.9632 41.0462 22.7971 40.2647 22.7971 39.8952C23.6796 39.5663 24.4281 38.75 24.4281 38.75Z" fill="#9E4E29"/>
<path d="M169.534 120.001C180.837 120.001 190 119.076 190 117.936C190 116.796 180.837 115.871 169.534 115.871C158.23 115.871 149.067 116.796 149.067 117.936C149.067 119.076 158.23 120.001 169.534 120.001Z" fill="#EBD8E4"/>
<path d="M174.154 42.6516C174.148 43.9313 174.342 45.3046 174.656 46.5485C174.784 47.0554 175.863 48.5562 175.531 49.0875C175.196 49.6248 173.81 49.2089 173.378 49.1048C172.04 48.7825 170.955 47.7316 171.17 46.1955C171.318 45.1452 172.479 43.3131 173.412 42.6979C174.115 42.234 174.545 42.3599 174.154 42.6516Z" fill="#1B1937"/>
<path d="M154.431 113.275C153.45 114.545 152.786 115.56 152.781 115.863C152.775 116.276 153.515 117.059 153.515 117.059C153.508 116.84 155.006 114.975 155.731 112.856C156.383 110.951 160.763 101.96 164.233 97.4257C164.622 96.9174 165 96.4642 165.36 96.0843C165.567 95.8658 165.787 95.6038 166.016 95.3125C165.572 95.5976 165.085 95.8561 164.549 96.0843C162.239 97.0692 160.007 97.5086 157.939 97.8763C157.815 98.2211 157.694 98.575 157.577 98.9355C155.929 103.983 154.946 110.264 154.946 110.264C154.946 110.264 155.412 112.006 154.431 113.275Z" fill="#FDBB6F"/>
<path d="M171.457 79.358C173.313 83.4473 174.894 86.783 174.894 86.783C174.894 86.783 173.115 91.6206 173.101 95.1104C173.08 100.303 177.404 111.204 177.404 111.204C177.404 111.204 178.812 112.505 178.672 114.103C178.532 115.702 178.85 116.635 179.009 116.892C179.227 117.244 180.273 117.502 180.273 117.502C180.149 117.322 180.402 114.942 179.866 112.768C179.332 110.593 177.343 99.1789 177.903 94.052C178.146 91.833 179.099 86.6437 179.081 85.794C179.076 85.6057 179.007 80.529 179.006 77.4391C179.003 70.2632 175.161 61.5852 175.642 61.3427C175.076 61.1132 175.282 74.9113 170.887 78.0991C171.079 78.5248 171.269 78.9453 171.457 79.358Z" fill="#FDBB6F"/>
<path d="M170.887 78.0986C171.079 78.5243 171.269 78.9448 171.457 79.3577C171.591 79.2542 171.722 79.1525 171.849 79.0515C175.3 76.3146 177.207 76.136 178.229 76.3493C178.217 76.265 178.205 76.1804 178.192 76.0957C178.175 75.9771 178.157 75.8576 178.139 75.7376C178.138 75.7285 178.136 75.7199 178.135 75.7108C177.569 75.4815 175.282 74.9109 170.887 78.0986Z" fill="#FDBB6F"/>
<path d="M157.577 98.9356C158.051 98.8492 158.537 98.7656 159.031 98.6773C160.676 98.3852 162.424 98.0473 164.233 97.4259C164.622 96.9175 165 96.4646 165.36 96.0846C165.567 95.8659 165.787 95.6041 166.016 95.3125C165.571 95.5979 165.085 95.8564 164.549 96.0846C162.239 97.0692 160.007 97.5088 157.939 97.8764C157.815 98.2214 157.694 98.5753 157.577 98.9356Z" fill="#FDBB6F"/>
<path d="M149.782 115.485L150.12 115.781C150.12 115.781 150.7 115.107 151.349 114.475C151.387 114.438 151.425 114.401 151.464 114.364C151.483 114.346 151.502 114.327 151.522 114.309C151.541 114.291 151.56 114.273 151.579 114.255C151.628 114.21 151.676 114.166 151.724 114.122C151.744 114.105 151.763 114.088 151.782 114.071C151.801 114.054 151.821 114.037 151.84 114.02C151.859 114.003 151.878 113.987 151.897 113.971C151.906 113.962 151.916 113.954 151.925 113.946C151.954 113.922 151.982 113.899 152.01 113.876C152.066 113.83 152.121 113.786 152.175 113.745C152.302 113.649 152.422 113.568 152.531 113.508C152.742 113.391 152.912 113.353 153.011 113.439V113.439C153.017 113.444 153.022 113.45 153.027 113.456C153.453 113.944 151.172 116.631 151.323 116.833C151.476 117.037 154.03 119.2 154.03 119.2L154.414 118.761C154.414 118.761 153.523 117.276 153.515 117.057C153.515 117.057 152.774 116.274 152.781 115.861C152.786 115.558 153.45 114.543 154.431 113.274C155.412 112.004 154.946 110.262 154.946 110.262C154.946 110.262 153.19 111.055 152.703 111.688C152.445 112.024 151.636 113.075 150.935 113.986C150.915 114.013 150.894 114.039 150.874 114.066C150.853 114.092 150.833 114.118 150.813 114.145C150.783 114.184 150.752 114.223 150.723 114.262C150.713 114.275 150.703 114.287 150.693 114.3C150.674 114.325 150.655 114.351 150.635 114.376C150.606 114.413 150.578 114.45 150.55 114.487C150.531 114.511 150.513 114.535 150.494 114.559C150.467 114.595 150.44 114.63 150.413 114.664C150.387 114.698 150.361 114.732 150.336 114.765C150.244 114.885 150.159 114.994 150.085 115.09C149.905 115.325 149.79 115.474 149.782 115.484C149.782 115.485 149.782 115.485 149.782 115.485Z" fill="#E93779"/>
<path d="M176.544 113.718C176.559 114.516 176.633 118.508 176.633 118.508L177.082 118.528C177.082 118.528 177.194 115.421 177.73 114.952C177.775 114.912 177.824 114.891 177.877 114.893C177.934 114.896 177.985 114.925 178.032 114.976C178.512 115.504 178.456 118.386 178.661 118.588C178.667 118.593 178.673 118.597 178.678 118.598C178.925 118.662 182.27 118.756 182.27 118.756L182.296 118.173C182.296 118.173 180.673 117.57 180.53 117.404C180.53 117.404 179.463 117.255 179.21 116.928C179.025 116.689 178.909 115.482 178.883 113.877C178.857 112.273 177.404 111.203 177.404 111.203C177.404 111.203 176.529 112.919 176.544 113.718Z" fill="#E93779"/>
<path d="M135.61 107.246C135.61 107.246 146.107 106.939 148.904 102.683C152.011 97.9551 158.096 98.8325 164.549 96.0812C171.002 93.3303 169.722 85.5749 174.401 81.5519C178.315 78.1858 179.006 77.4375 179.006 77.4375C179.071 70.712 176.148 60.8151 176.148 60.8151H176.148L177.037 54.7095C177.037 54.7095 177.978 53.6418 178.05 52.2827C178.07 51.8999 176.398 50.0326 174.954 48.3477C174.954 48.3477 171.916 48.6022 170.993 51.4407C170.582 52.7046 170.82 59.6609 170.82 59.6609C170.82 59.6609 170.106 60.0611 168.527 61.1587C165.992 62.9201 161.229 66.4777 153.618 73.0574C146.698 79.0401 141.538 90.0841 138.555 97.8285C136.629 102.828 135.61 107.246 135.61 107.246Z" fill="#E93779"/>
<path d="M138.555 97.8278C141.538 97.3735 145.223 96.1279 147.978 92.9529C153.453 86.6426 152.904 80.4368 165.79 78.107C178.676 75.777 176.147 60.8251 176.147 60.8251L170.821 59.6602C170.821 59.6602 169.873 60.2061 168.527 61.1582C165.992 62.9195 161.229 66.4771 153.618 73.0571C146.697 79.0396 141.538 90.0834 138.555 97.8278Z" fill="#9E295A"/>
<path opacity="0.46" d="M170.82 59.6602C170.82 59.6602 165.498 60.291 162.16 63.3976C159.205 66.1488 156.47 69.5622 152.751 70.1447C149.032 70.7271 145.969 70.2722 141.876 73.0086C133.527 78.5907 133.053 95.9679 133.053 95.9679C133.053 95.9679 142.206 97.2784 147.681 90.9683C153.155 84.6582 152.552 79.513 165.437 77.1829C178.323 74.8531 176.148 60.8148 176.148 60.8148L170.82 59.6602Z" fill="#EC257F"/>
<path d="M146.897 68.883C147.188 68.883 147.809 66.0679 148.209 66.0679C148.792 66.0679 148.148 67.233 148.135 67.4752C148.135 67.4803 148.135 67.4853 148.135 67.49C148.135 67.7128 148.413 67.8094 148.567 67.632C148.874 67.2762 149.231 66.8375 149.295 66.6504C149.41 66.3104 149.534 64.8544 149.593 64.6602C149.651 64.4662 159.661 61.4565 162.675 59.5153C163.61 58.9128 167.996 51.5059 168.142 51.5059C168.276 51.5059 170.457 58.4946 170.781 59.5321C170.789 59.5592 170.802 59.5837 170.819 59.605C170.797 58.946 170.604 52.6381 170.993 51.4406C171.916 48.6022 174.954 48.3476 174.954 48.3476C174.019 47.2564 173.179 46.2412 172.956 45.755C172.918 45.6702 172.907 45.2665 172.909 44.8072C172.91 44.5383 172.915 44.2506 172.92 43.9968C172.929 43.6288 173.225 43.3228 173.584 43.2928C173.61 43.2906 173.636 43.29 173.663 43.2906C173.691 43.2914 173.722 43.2922 173.756 43.2917C174.162 43.2914 174.899 43.2257 175.034 43.1811C175.331 43.0837 175.61 40.534 175.64 39.9204C175.7 38.7086 175.098 36.1572 173.462 36.3285C172.764 36.4016 171.138 37.0178 170.772 37.6C169.938 38.9255 170.976 40.772 170.74 42.2342C170.624 42.9488 170.609 44.7166 169.674 44.9025C169.612 44.9147 169.552 44.9255 169.491 44.9345C169.462 45.5159 169.439 45.9115 169.425 45.9821C169.362 46.3041 168.26 46.5096 168.01 46.5942C165.651 47.3924 165.291 48.9764 164.301 50.6393C163.3 52.3217 162.348 54.0333 161.411 55.7521C160.921 56.6538 160.164 57.3913 159.251 57.8599C156.361 59.3419 149.983 62.6274 149.236 63.1447C148.027 63.9807 147.003 65.9222 146.766 66.7474C146.529 67.5726 146.606 68.883 146.897 68.883Z" fill="#FDBB6F"/>
<path d="M175.644 36.3204C175.363 35.6835 174.835 35.1719 174.186 34.8722C173.811 34.6991 173.371 34.6278 172.961 34.6175C172.554 34.6074 172.15 34.8482 171.772 34.8137C170.768 34.2217 168.827 35.3312 168.313 36.0401C167.376 37.3328 167.343 38.8845 166.948 40.3543C166.49 42.059 166.328 44.0636 165.252 45.4888C164.25 46.8146 163.045 47.9725 163.739 49.7788C164.681 52.2316 168.77 52.3578 170.261 50.4435C171.433 48.9384 171.776 46.7009 171.306 44.8673C170.783 42.8231 170.632 40.0811 171.135 38.0008C171.046 38.3707 171.203 38.9728 171.203 38.9728C171.203 38.9728 172.154 38.6571 172.484 38.6257C173.655 38.5148 174.826 38.3778 176.004 38.3855C176.102 37.682 175.948 37.0078 175.644 36.3204Z" fill="#1B1937"/>
<path d="M171.548 42.6602C171.766 43.9706 172.909 44.8082 172.909 44.8082C172.909 44.8082 172.909 44.8082 172.909 44.8079C172.91 44.5391 172.915 44.2515 172.92 43.9978C172.929 43.6295 173.226 43.3234 173.585 43.2937C172.649 43.3032 171.548 42.6602 171.548 42.6602Z" fill="#FDBB6F"/>
<defs>
<linearGradient id="paint0_linear_22254_89387" x1="-41.3198" y1="-17.7389" x2="104.526" y2="-123.782" gradientUnits="userSpaceOnUse">
<stop stop-color="#E6427A" stop-opacity="0.16"/>
<stop offset="1" stop-color="#D39C6E" stop-opacity="0.1"/>
</linearGradient>
<linearGradient id="paint1_linear_22254_89387" x1="58.9376" y1="116.661" x2="187.084" y2="111.226" gradientUnits="userSpaceOnUse">
<stop stop-color="#FFA9C2"/>
<stop offset="1" stop-color="#FFEFE3"/>
</linearGradient>
</defs>
</svg>
