<svg width="20" height="20" viewBox="0 0 20 20" fill="none" xmlns="http://www.w3.org/2000/svg">
<circle cx="10" cy="10" r="10" fill="white"/>
<path d="M10.6379 6.06904L10.638 6.069C11.1648 5.546 11.9488 5.25 12.6856 5.25H12.6857C14.2878 5.25 15.5 6.49297 15.5 8.09602C15.5 9.0256 15.1209 9.91365 14.3946 10.8703C13.6636 11.8331 12.6123 12.825 11.3263 13.9595L11.3263 13.9595L11.324 13.9615C10.8751 14.3625 10.4276 14.7966 10.0114 15.2073C9.57991 14.769 9.12492 14.3626 8.68362 13.9684L8.67782 13.9632C8.67751 13.9629 8.6772 13.9626 8.67689 13.9624C7.41702 12.8257 6.36492 11.8336 5.62544 10.8686C4.89001 9.90895 4.5 9.02184 4.5 8.09602C4.5 6.49306 5.71236 5.25 7.31434 5.25C8.03556 5.25 8.77145 5.5357 9.37002 6.07698L9.64788 6.35264L10.0001 6.70207L10.3522 6.35257L10.6379 6.06904Z" stroke="black"/>
</svg>
