<svg width="20" height="20" viewBox="0 0 20 20" fill="none" xmlns="http://www.w3.org/2000/svg">
<path fill-rule="evenodd" clip-rule="evenodd" d="M9.57572 0.000562545C4.29663 0.000562545 0 4.2969 0 9.5758C0 14.8547 4.29634 19.151 9.57572 19.151V19.1512H9.57686C10.3605 19.1501 11.1392 19.047 11.8981 18.8562C13.0636 19.5863 14.6597 20.0503 16.7852 19.9956C16.9945 19.9902 17.1929 19.9018 17.3369 19.7498C17.4807 19.5979 17.5583 19.3948 17.5523 19.1857C17.5462 18.9764 17.4573 18.7782 17.3049 18.6348C16.354 17.7397 16.048 17.1294 15.9572 16.8298C15.9424 16.7835 15.9394 16.757 15.9333 16.7244C17.9716 14.913 19.1483 12.3142 19.1504 9.57629H19.1506V9.5761V9.57591V9.57572C19.1506 4.29662 14.8542 0 9.57533 0L9.57572 0.000562545ZM9.57572 1.57601C14.0034 1.57601 17.5755 5.14828 17.576 9.5758C17.5741 11.9615 16.5083 14.2207 14.6683 15.7395V15.7393C14.5782 15.8137 14.5059 15.9072 14.4564 16.013C14.4564 16.013 14.3653 16.2419 14.3474 16.4607C14.3296 16.6795 14.3504 16.9611 14.4497 17.2869C14.5413 17.5899 14.701 17.9311 14.9501 18.3104C13.8767 18.1397 13.0859 17.7911 12.4966 17.3685C12.2996 17.2272 12.0484 17.1844 11.8159 17.2527C11.0884 17.4662 10.3341 17.5752 9.57603 17.5763H9.57546C5.14798 17.5757 1.57615 14.0037 1.57615 9.57603C1.57615 5.14836 5.14861 1.57576 9.57643 1.57576L9.57572 1.57601ZM5.5595 8.79244C5.30441 8.79149 5.05935 8.89179 4.87826 9.07157C4.69716 9.25134 4.59497 9.49565 4.59402 9.75077C4.59308 10.0072 4.69432 10.2534 4.87561 10.4347C5.0569 10.616 5.3031 10.7174 5.55952 10.7163C5.81461 10.7155 6.05894 10.6131 6.23872 10.4322C6.4185 10.2511 6.51899 10.006 6.51785 9.75078C6.51709 9.49701 6.41585 9.25364 6.23626 9.07405C6.05667 8.89465 5.81349 8.79321 5.55952 8.79246L5.5595 8.79244ZM9.57936 8.79244C9.32407 8.79149 9.07901 8.89179 8.89792 9.07157C8.71682 9.25134 8.61463 9.49565 8.61387 9.75077C8.61274 10.0072 8.71417 10.2534 8.89546 10.4347C9.07676 10.616 9.32296 10.7174 9.57937 10.7163C9.83446 10.7155 10.0788 10.6131 10.2586 10.4322C10.4383 10.2511 10.5386 10.006 10.5377 9.75078C10.5368 9.49701 10.4355 9.25364 10.2561 9.07405C10.0765 8.89465 9.83316 8.79321 9.57938 8.79246L9.57936 8.79244ZM13.5992 8.79244H13.599C13.3439 8.79149 13.0989 8.89179 12.9178 9.07157C12.7367 9.25134 12.6345 9.49565 12.6335 9.75077C12.6326 10.0072 12.734 10.2534 12.9153 10.4347C13.0966 10.616 13.3426 10.7174 13.599 10.7163C13.8541 10.7155 14.0986 10.6131 14.2782 10.4322C14.458 10.2511 14.5585 10.006 14.5576 9.75078C14.5566 9.49701 14.4554 9.25364 14.2758 9.07405C14.0962 8.89465 13.853 8.79321 13.599 8.79246L13.5992 8.79244Z" fill="black"/>
</svg>
