<svg width="16" height="16" viewBox="0 0 16 16" fill="none" xmlns="http://www.w3.org/2000/svg">
<path d="M12.2378 15C9.5078 15 6.69027 13.74 4.50277 11.5525C2.19271 9.24256 0.932768 6.355 1.00277 3.5725V3.46752L1.07272 3.37999C1.26522 3.135 1.45772 2.92502 1.65022 2.71496C2.38522 1.97996 3.24275 1.41993 4.20528 1.05249C4.2928 1.01746 4.39778 1 4.50276 1C4.83529 1 5.39523 1.17505 5.50033 1.50744C5.8503 2.45238 6.27036 3.69494 6.5853 4.86744C6.63779 5.09498 6.58529 5.75991 6.25276 5.95241L5.13276 6.65235C5.06282 6.70484 5.02778 6.7749 5.0102 6.84485C4.97517 7.03736 5.04524 7.28235 5.18525 7.49232C5.62275 8.10488 6.13019 8.69985 6.70772 9.27735C7.28522 9.83741 7.88022 10.3449 8.47519 10.7824C8.77268 11.0099 9.19272 11.0273 9.29769 10.8523L10.0152 9.7323C10.1903 9.45227 10.7328 9.38233 10.9253 9.38233C10.9952 9.38233 11.0478 9.38233 11.1003 9.39979C12.5354 9.71472 13.3928 9.99475 14.4953 10.5023C14.8278 10.6598 15.0728 11.3948 14.9153 11.7973C14.5478 12.7599 13.9878 13.6173 13.2529 14.3524C13.0429 14.5624 12.8154 14.7549 12.5878 14.9299L12.5352 15L12.2378 15ZM1.63277 3.695C1.59773 6.28497 2.7878 8.9625 4.90527 11.0625L4.95776 11.115C7.0227 13.1799 9.68276 14.37 12.2378 14.37H12.3253C12.5178 14.2125 12.6928 14.0551 12.8503 13.8975C13.5153 13.2324 14.0228 12.445 14.3728 11.5525C14.4078 11.4475 14.3203 11.115 14.2328 11.0451C13.2178 10.5901 12.3952 10.3275 10.9953 10.0126C10.8028 10.0126 10.6103 10.0651 10.5578 10.1001L9.87527 11.1851C9.57779 11.6751 8.73783 11.7275 8.14274 11.2901C7.51274 10.8351 6.90018 10.3101 6.30521 9.71512C5.71024 9.12015 5.18521 8.49015 4.73027 7.86015C4.46782 7.51018 4.36271 7.09012 4.43278 6.72271C4.48528 6.46026 4.62529 6.25018 4.83525 6.11015L5.95525 5.41021C5.97271 5.35772 6.0252 5.09528 6.00775 5.00774C5.71026 3.85271 5.27274 2.62774 4.94024 1.70024C4.90521 1.68279 4.69525 1.61272 4.53778 1.61272H4.46783C3.57536 1.96269 2.78777 2.47025 2.12286 3.13519C1.94781 3.32757 1.79033 3.5025 1.63286 3.695L1.63277 3.695Z" fill="#E6427A" stroke="#E6427A" stroke-width="0.4"/>
</svg>
