<svg width="101" height="26" viewBox="0 0 101 26" fill="none" xmlns="http://www.w3.org/2000/svg">
<path fill-rule="evenodd" clip-rule="evenodd" d="M51.3811 5.20587C51.1245 2.00275 47.7672 0 43.6838 0C36.3523 0 32.7338 4.8408 33.0152 8.35249C33.1893 10.5252 35.0487 12.0454 36.6937 12.0454C38.9394 12.0454 40.2735 9.97149 40.1711 8.69251C40.1173 8.02216 39.3652 7.69183 39.3897 7.9971C39.4529 8.78544 38.473 10.2772 37.171 10.2772C36.1884 10.2772 35.6267 9.49902 35.5385 8.39657C35.3169 5.63202 37.9338 0.966279 43.9172 0.966279C47.3538 0.966279 48.775 2.78372 48.9446 4.90074C49.1745 7.76989 47.2217 10.0848 44.0861 10.0848C43.7992 10.0848 44.1243 10.9452 44.9821 10.9452C48.5072 10.9452 51.6622 8.71434 51.3811 5.20587Z" fill="#E6427A"/>
<path fill-rule="evenodd" clip-rule="evenodd" d="M47.5047 3.08452C47.7395 3.08452 47.486 2.5293 46.8764 2.5293C45.0229 2.5293 43.3296 4.12605 41.7295 8.39962C39.2996 14.8888 37.8189 15.5544 36.5062 15.5544C36.2288 15.5544 36.1299 15.3283 36.0206 15.3283C35.8897 15.3283 35.7771 15.5981 35.8064 15.9628C35.8707 16.7642 36.8944 18.0265 38.143 18.0265C43.1341 18.0265 43.6625 3.08452 47.5047 3.08452Z" fill="#E6427A"/>
<path fill-rule="evenodd" clip-rule="evenodd" d="M80.5741 12.4533C79.7415 14.0993 78.8318 15.3124 78.1069 15.3124C77.7514 15.3124 77.4915 14.9602 77.4483 14.425C77.3071 12.6596 78.7287 9.1739 80.2018 9.1739C80.743 9.1739 81.147 9.84017 81.1405 10.8799C80.9064 11.5075 80.7207 12.0232 80.5741 12.4533ZM61.3024 15.3124C60.9468 15.3124 60.6868 14.9602 60.644 14.425C60.5025 12.6596 61.9239 9.1739 63.3969 9.1739C63.9531 9.1739 64.3643 9.87583 64.335 10.964L63.7249 12.5407C62.9046 14.1421 62.014 15.3124 61.3024 15.3124ZM58.6085 21.0651C58.1925 21.0651 57.9525 20.7881 57.9309 20.5183C57.8836 19.9287 58.4991 19.755 60.7687 19.2166C60.8704 19.1924 60.9719 19.1682 61.0727 19.1441C60.4788 20.2567 59.736 21.0651 58.6085 21.0651ZM54.3942 12.4533C53.5612 14.0993 52.6516 15.3124 51.9268 15.3124C51.5712 15.3124 51.3112 14.9602 51.2682 14.425C51.1269 12.6596 52.5486 9.1739 54.0215 9.1739C54.5629 9.1739 54.9671 9.84017 54.9603 10.8799C54.726 11.5075 54.5405 12.0232 54.3942 12.4533ZM72.9047 9.08897C73.6799 9.08897 73.107 11.6632 70.149 12.4537C70.6399 10.7159 71.9392 9.08897 72.9047 9.08897ZM99.966 12.6541C99.8436 12.531 99.582 12.2675 99.4575 12.1426C99.423 12.1078 99.3676 12.1133 99.3453 12.1528C98.0789 14.3786 96.9461 15.3974 96.2279 15.3974C96.0301 15.3974 95.8933 15.2347 95.8742 14.9936C95.8114 14.2098 95.9022 13.7588 97.6237 9.26171H98.8719C98.966 9.26171 99.047 9.20696 99.08 9.12196L99.3854 8.32611C99.416 8.24566 99.3495 8.15378 99.2606 8.15378H98.0491C98.4466 7.12096 98.9143 5.91216 99.4645 4.4911C99.4952 4.41122 99.4295 4.31836 99.3411 4.31836H97.5413C97.4469 4.31836 97.3649 4.37402 97.3319 4.45952C96.773 5.90395 96.3014 7.12061 95.9044 8.15378H95.0017C94.9072 8.15378 94.8252 8.20867 94.7927 8.2941L94.4864 9.09079C94.4565 9.17025 94.5218 9.26171 94.6097 9.26171H95.4795C94.9384 10.6798 94.5731 11.6668 94.3257 12.3957C93.3218 14.1584 92.0228 15.5682 91.4597 15.5682C91.2322 15.5682 91.1256 15.4056 91.106 15.164C91.0655 14.6591 91.4905 13.5293 92.3957 11.2042C92.8997 9.9103 92.3995 8.42234 90.7681 8.42234C90.125 8.42234 89.3421 8.44972 88.4382 9.28635L88.6784 8.66668C88.7096 8.58631 88.6431 8.49485 88.5547 8.49485H86.7535C86.6599 8.49485 86.5784 8.54862 86.5455 8.63369L85.1464 12.247C83.9096 14.4122 82.8586 15.5679 82.4395 15.5679C82.2417 15.5679 82.1053 15.4056 82.0858 15.1637C82.0332 14.5063 82.0713 13.9976 83.9671 9.09128C83.9977 9.01189 83.9326 8.92036 83.8446 8.92036H82.041C81.9476 8.92036 81.8666 8.97553 81.8335 9.06019C81.793 9.16562 81.7535 9.26824 81.7145 9.36953C81.4068 8.6518 80.7468 8.32428 79.9569 8.32428C77.7467 8.32428 76.1191 10.4851 75.5766 12.5421C73.9832 15.1673 72.039 15.5682 71.1792 15.5682C70.4004 15.5682 70.0252 14.8914 69.9605 14.084C69.9398 13.8248 69.9487 13.5567 69.9807 13.2849C71.8089 13.2153 75.0247 11.9265 74.8502 9.74773C74.7652 8.68802 73.8776 8.23886 72.6601 8.23886C70.3225 8.23886 68.3346 10.5517 67.9524 12.7832C66.7714 14.7873 65.5288 15.9863 64.2445 16.7386C64.275 16.6624 64.3052 16.5843 64.3356 16.5058L67.2045 9.09219C67.2355 9.01224 67.1696 8.92036 67.0817 8.92036H65.28C65.1861 8.92036 65.1046 8.97518 65.0713 9.06019L64.9319 9.42161C64.6345 8.6671 63.9613 8.32428 63.1519 8.32428C60.9197 8.32428 59.2819 10.5285 58.756 12.6038C57.6121 14.5338 56.6541 15.5679 56.2593 15.5679C56.0613 15.5679 55.9248 15.4056 55.9056 15.1637C55.853 14.5063 55.8912 13.9976 57.7869 9.09128C57.8175 9.01189 57.7522 8.92036 57.6644 8.92036H55.8606C55.7674 8.92036 55.6864 8.97553 55.6533 9.06019C55.6128 9.16562 55.5732 9.26824 55.5342 9.36953C55.2268 8.6518 54.5668 8.32428 53.7768 8.32428C50.9154 8.32428 49.0224 11.9465 49.2089 14.2754C49.3257 15.7337 50.1268 16.7482 51.4025 16.7482C52.2758 16.7482 53.0691 16.2414 53.8924 14.969C53.8936 14.9843 53.8947 14.9992 53.8961 15.0145C53.9771 16.0259 54.7742 16.7479 55.7141 16.7479C56.6469 16.7479 57.3696 16.5887 58.6316 14.6064C58.8375 15.882 59.6026 16.7482 60.7776 16.7482C61.3254 16.7482 61.8413 16.5485 62.353 16.0872L62.191 16.5058C62.0302 16.9215 61.8711 17.3415 61.7061 17.7513C61.3638 17.8396 61.0201 17.9153 60.6743 17.9845C57.789 18.5615 56.3971 18.9025 56.5212 20.4532C56.6214 21.7034 57.7395 22.4714 59.0842 22.4714C60.7205 22.4718 61.8862 22.0838 63.5508 18.3942C65.1267 17.752 66.5666 16.6994 67.9901 14.4885C68.2887 15.8564 69.1961 16.9184 70.8185 16.9184C71.9288 16.9184 73.6369 16.7908 75.4098 14.419C75.5675 15.7975 76.3506 16.7482 77.5827 16.7482C78.4561 16.7482 79.2493 16.2414 80.0727 14.969C80.0738 14.9843 80.0749 14.9992 80.0763 15.0145C80.1573 16.0259 80.9544 16.7479 81.8946 16.7479C82.5041 16.7479 83.0246 16.6763 83.6636 16.0767L83.4704 16.576C83.4397 16.6563 83.5058 16.7479 83.5937 16.7479H85.3949C85.4889 16.7479 85.5703 16.693 85.6034 16.608L87.5125 11.678C88.4145 10.0316 89.4571 9.34636 89.9905 9.34636C90.6471 9.34636 90.5229 10.2592 89.8224 12.0739C89.0847 13.9864 89.0321 14.3539 89.0922 15.1C89.1731 16.1114 89.7931 16.7482 90.7332 16.7482C91.639 16.7482 92.5744 16.5985 93.8635 14.8287C93.8639 14.834 93.8641 14.8388 93.8646 14.844C93.9456 15.8554 94.7562 16.7479 95.6964 16.7479C97.0001 16.7479 98.0277 16.5077 99.9906 12.7981C100.015 12.7526 100.005 12.6936 99.966 12.6541Z" fill="#E6427A"/>
<path fill-rule="evenodd" clip-rule="evenodd" d="M74.5895 22.9023C75.1336 22.9023 75.3655 22.6306 75.3655 22.1994C75.3655 21.7684 75.1336 21.4967 74.5895 21.4967H73.8454V22.9023H74.5895ZM74.6936 23.988H73.8454V26.0005H72.4775V20.3945H74.6936C76.0696 20.3945 76.7575 21.1694 76.7575 22.1994C76.7575 23.1258 76.1256 23.988 74.6936 23.988Z" fill="#E6427A"/>
<path fill-rule="evenodd" clip-rule="evenodd" d="M83.6322 21.9039L82.9441 23.9562H84.3281L83.6322 21.9039ZM84.6802 25.0101H82.5841L82.2479 26.0005H80.8159L82.848 20.3945H84.4321L86.4642 26.0005H85.0163L84.6802 25.0101Z" fill="#E6427A"/>
<path d="M91.7652 20.3174L93.1172 22.8458L94.4786 20.3174H96.1484L93.9046 23.9462V25.9986H92.3345V23.9462L90.0859 20.3174H91.7652Z" fill="#E6427A"/>
<path fill-rule="evenodd" clip-rule="evenodd" d="M6.02809 15.8932C6.11824 14.6468 5.9904 13.1398 5.66422 11.6215C5.33723 10.1028 4.83075 8.66652 4.23167 7.54883C4.1407 8.79512 4.26855 10.302 4.59555 11.8205C4.92254 13.339 5.42819 14.7753 6.02809 15.8932Z" fill="#DB9768"/>
<path fill-rule="evenodd" clip-rule="evenodd" d="M11.7322 15.3592C12.0272 13.9528 12.1108 12.2163 11.9674 10.4403C11.8232 8.66427 11.4617 6.95874 10.9438 5.60938C10.6488 7.01575 10.5652 8.75229 10.7086 10.5283C10.852 12.3046 11.2142 14.0098 11.7322 15.3592Z" fill="#DB9768"/>
<path fill-rule="evenodd" clip-rule="evenodd" d="M18.2927 10.5283C18.4361 8.75221 18.3525 7.01575 18.0575 5.60938C17.5395 6.95874 17.1773 8.66411 17.0339 10.4403C16.8896 12.2163 16.9732 13.9528 17.2682 15.3592C17.787 14.0098 18.1484 12.3046 18.2927 10.5283Z" fill="#DB9768"/>
<path fill-rule="evenodd" clip-rule="evenodd" d="M21.9097 10.2159C22.1671 8.36215 22.2597 6.5119 22.1785 4.85945C22.5334 4.75859 22.8129 4.45624 22.8628 4.06759C22.93 3.54699 22.5621 3.0704 22.04 3.00307C21.5188 2.93575 21.041 3.30329 20.9738 3.82406C20.923 4.21459 21.1181 4.58034 21.4385 4.76718C20.9083 6.34698 20.4919 8.1596 20.2346 10.0146C19.8838 12.5358 19.8412 15.0139 20.1117 17.0242C20.923 15.144 21.559 12.7373 21.9097 10.2159Z" fill="#DB9768"/>
<path fill-rule="evenodd" clip-rule="evenodd" d="M24.4054 11.8205C24.7324 10.302 24.8595 8.79512 24.7693 7.54883C24.1694 8.66652 23.6637 10.1028 23.3367 11.6215C23.0098 13.1398 22.8819 14.6468 22.9729 15.8932C23.5728 14.7753 24.0784 13.339 24.4054 11.8205Z" fill="#DB9768"/>
<path fill-rule="evenodd" clip-rule="evenodd" d="M3.2546 12.9505C2.90384 11.6577 2.44571 10.4072 1.92777 9.32894C2.14576 9.16999 2.25804 8.89104 2.18756 8.61364C2.09578 8.24855 1.72453 8.02751 1.35901 8.11946C0.993501 8.21157 0.772223 8.58198 0.864011 8.94691C0.934492 9.22603 1.16888 9.41794 1.43851 9.4532C1.53193 10.6286 1.7655 11.9283 2.11544 13.2178C2.58668 14.9572 3.24558 16.5956 3.98071 17.8611C3.98153 16.4229 3.72665 14.6898 3.2546 12.9505Z" fill="#DB9768"/>
<path fill-rule="evenodd" clip-rule="evenodd" d="M27.5822 15.7662C27.224 16.8218 27.0298 17.89 27.0298 18.7965C27.5895 18.0543 28.0903 17.0763 28.4484 16.0206C28.8065 14.9649 29.0008 13.8968 29 12.9902C28.441 13.7324 27.9403 14.7105 27.5822 15.7662Z" fill="#DB9768"/>
<path fill-rule="evenodd" clip-rule="evenodd" d="M0 12.9902C0 13.8968 0.19342 14.9649 0.552376 16.0206C0.910514 17.0763 1.41042 18.0543 1.97017 18.7965C1.97098 17.89 1.77676 16.8218 1.41862 15.7662C1.06048 14.7105 0.559743 13.7324 0 12.9902Z" fill="#DB9768"/>
<path fill-rule="evenodd" clip-rule="evenodd" d="M14.5027 17.5107C7.72837 17.5107 2.42188 18.7551 2.42188 20.3438C2.42188 20.9758 3.25862 21.5687 4.84197 22.0582L4.93704 22.0153L4.89196 21.9265C3.6561 21.4953 2.97588 21.0228 2.97588 20.5957C2.97588 19.3967 8.25452 18.3836 14.5027 18.3836C20.7508 18.3836 26.0294 19.3967 26.0294 20.5957C26.0294 21.0228 25.3492 21.4953 24.1125 21.9265L24.0683 22.0153L24.1396 22.0619L24.1625 22.0582C25.7459 21.5687 26.5834 20.9758 26.5834 20.3438C26.5834 18.7551 21.2769 17.5107 14.5027 17.5107Z" fill="#DB9768"/>
<path fill-rule="evenodd" clip-rule="evenodd" d="M14.102 2.49617C14.0913 2.49405 14.0807 2.49503 14.07 2.49282C13.7176 4.34928 13.5316 6.45468 13.5316 8.5865C13.5316 11.6047 13.8922 14.6772 14.4994 16.8677C15.1075 14.6772 15.4681 11.6047 15.4681 8.5865C15.4681 6.45468 15.2813 4.34928 14.9289 2.49282C14.9182 2.49503 14.9076 2.49405 14.8969 2.49617C15.3895 2.3297 15.746 1.87029 15.746 1.32302C15.746 0.635943 15.1879 0.0791016 14.4994 0.0791016C13.811 0.0791016 13.2529 0.635943 13.2529 1.32302C13.2529 1.87029 13.6094 2.3297 14.102 2.49617Z" fill="#DB9768"/>
<path fill-rule="evenodd" clip-rule="evenodd" d="M6.82309 4.85913C6.74195 6.51182 6.83456 8.36215 7.0919 10.2159C7.44184 12.7373 8.0778 15.144 8.88914 17.0242C9.15959 15.0139 9.11698 12.5358 8.76703 10.0146C8.50888 8.15968 8.09337 6.34706 7.56231 4.76726C7.88357 4.58066 8.07862 4.21484 8.02781 3.82406C7.96061 3.30329 7.48282 2.93575 6.96159 3.00307C6.43955 3.0704 6.07158 3.54699 6.13878 4.06759C6.18959 4.45608 6.46823 4.75818 6.82309 4.85913Z" fill="#DB9768"/>
<path fill-rule="evenodd" clip-rule="evenodd" d="M28.1367 8.94691C28.2293 8.58198 28.0072 8.21157 27.6417 8.11946C27.2762 8.02751 26.905 8.24855 26.8132 8.61364C26.7427 8.89088 26.855 9.16958 27.073 9.32877C26.555 10.407 26.0961 11.6574 25.7453 12.9505C25.2741 14.6898 25.0184 16.4229 25.02 17.8611C25.7543 16.5956 26.4132 14.9572 26.8845 13.2178C27.2344 11.9283 27.468 10.6286 27.5622 9.45303C27.8319 9.41819 28.0663 9.22611 28.1367 8.94691Z" fill="#DB9768"/>
</svg>
