<svg width="20" height="24" viewBox="0 0 20 24" fill="none" xmlns="http://www.w3.org/2000/svg">
<path d="M19.9947 21.4648L18.4373 7.96506C18.3613 6.72882 17.4845 5.77127 16.4278 5.77127H14.675V4.99788C14.675 3.66906 14.1928 2.41812 13.3174 1.47576C12.4332 0.524082 11.2552 0 9.99985 0C7.42232 0 5.32514 2.24229 5.32514 4.99788V5.77127H3.57187C2.51573 5.77127 1.63885 6.72882 1.56286 7.96506L0.00543374 21.4648C-0.0788436 22.8343 0.844797 24 2.01445 24H17.9852C19.1554 24 20.079 22.8343 19.9947 21.4648ZM6.29944 4.99788C6.29944 2.78204 7.95917 0.979592 9.99985 0.979592C10.9824 0.979592 11.9075 1.39298 12.6051 2.14433C13.3115 2.90449 13.7007 3.91837 13.7007 4.99788V5.77127H6.29944V4.99788ZM5.81229 9.15233C5.29298 9.15233 4.87208 8.72914 4.87208 8.20702C4.87208 7.6849 5.29298 7.26171 5.81229 7.26171C6.33159 7.26171 6.75249 7.6849 6.75249 8.20702C6.75254 8.72914 6.33159 9.15233 5.81229 9.15233ZM14.1879 9.15282C13.6686 9.15282 13.2477 8.72914 13.2477 8.20702C13.2477 7.68588 13.6671 7.26318 14.1855 7.26171H14.1903C14.7087 7.26318 15.1281 7.68588 15.1281 8.20702C15.1281 8.72914 14.7072 9.15282 14.1879 9.15282Z" fill="#E6427A"/>
</svg>
