<svg width="21" height="24" viewBox="0 0 21 24" fill="none" xmlns="http://www.w3.org/2000/svg">
<path d="M20.0396 21.4648L18.4822 7.96506C18.4062 6.72882 17.5293 5.77127 16.4727 5.77127H14.7199V4.99788C14.7199 3.66906 14.2376 2.41812 13.3622 1.47576C12.478 0.524082 11.3001 0 10.0447 0C7.46715 0 5.36997 2.24229 5.36997 4.99788V5.77127H3.6167C2.56056 5.77127 1.68369 6.72882 1.60769 7.96506L0.0502641 21.4648C-0.0340133 22.8343 0.889627 24 2.05928 24H18.0301C19.2002 24 20.1239 22.8343 20.0396 21.4648ZM6.34427 4.99788C6.34427 2.78204 8.004 0.979592 10.0447 0.979592C11.0273 0.979592 11.9524 1.39298 12.65 2.14433C13.3563 2.90449 13.7456 3.91837 13.7456 4.99788V5.77127H6.34427V4.99788ZM5.85712 9.15233C5.33781 9.15233 4.91691 8.72914 4.91691 8.20702C4.91691 7.6849 5.33781 7.26171 5.85712 7.26171C6.37642 7.26171 6.79732 7.6849 6.79732 8.20702C6.79737 8.72914 6.37642 9.15233 5.85712 9.15233ZM14.2327 9.15282C13.7134 9.15282 13.2925 8.72914 13.2925 8.20702C13.2925 7.68588 13.712 7.26318 14.2303 7.26171H14.2352C14.7535 7.26318 15.1729 7.68588 15.1729 8.20702C15.1729 8.72914 14.7521 9.15282 14.2327 9.15282Z" fill="#707070"/>
</svg>
