<svg width="125" height="116" viewBox="0 0 125 116" fill="none" xmlns="http://www.w3.org/2000/svg">
<g opacity="0.55">
<path d="M90.8065 24.341L87.3292 33.6077L86.848 34.8909L85.2591 39.1199L78.5951 33.4903L77.7734 32.7945L77.9686 32.2749L83.3253 18.0156L90.8065 24.341Z" fill="#E1E9F1"/>
<path d="M108.111 30.7707L107.063 33.5584L106.658 34.6337L102.559 45.5541L95.0781 39.2242L99.0003 28.7782L99.4906 27.4725L100.625 24.4453L108.111 30.7707Z" fill="#E1E9F1"/>
<path d="M85.2578 39.1148L95.0768 39.2232L100.624 24.4444L90.8051 24.3359L85.2578 39.1148Z" fill="#F0F3F8"/>
<path d="M94.3577 18.7168C92.7643 18.8704 91.5976 20.28 91.752 21.8614C91.87 23.1039 93.8992 25.6521 94.7799 26.7049C94.9705 26.9353 95.3337 26.8991 95.4789 26.6371C96.1372 25.4398 97.6398 22.5482 97.5217 21.3057C97.3674 19.7243 95.9511 18.5632 94.3577 18.7168ZM94.7299 22.5888C94.1443 22.643 93.6223 22.2183 93.5678 21.6355C93.5133 21.0527 93.94 20.5331 94.5256 20.4788C95.1112 20.4246 95.6333 20.8493 95.6878 21.4322C95.7468 22.015 95.3155 22.5346 94.7299 22.5888Z" fill="#E1E9F1"/>
<path d="M107.149 33.345L106.622 34.7411L99.0003 28.7862L86.7526 35.1387L78.5951 33.4941L77.7734 32.7983L78.0685 32.0166L87.3292 33.6115L99.5768 27.25L107.149 33.345Z" fill="white"/>
</g>
<g opacity="0.55">
<path d="M17.8022 39.9056L17.0352 38.0156L9.53296 41.0315L10.3 42.9215L17.8022 39.9056Z" fill="#E1E9F1"/>
<path d="M20.402 47.589L20.0742 46.7812L13.4513 49.4437L13.7791 50.2515L20.402 47.589Z" fill="#E1E9F1"/>
<path d="M20.1989 48.6203L19.8711 47.8125L14.3199 50.0441L14.6477 50.8519L20.1989 48.6203Z" fill="#E1E9F1"/>
<path d="M23.187 57.9908L22.3633 55.9609L18.2116 57.6299L19.0353 59.6597L23.187 57.9908Z" fill="#E1E9F1"/>
<path d="M24.3865 62.7209L23.8086 61.2969L20.9003 62.466L21.4782 63.89L24.3865 62.7209Z" fill="#E1E9F1"/>
<path d="M19.8324 46.8802L17.1133 40.1797L10.9846 42.6434L13.7037 49.3439L19.8324 46.8802Z" fill="#F0F3F8"/>
<path d="M22.2196 56.0109L19.3555 48.9531L15.4899 50.5071L18.3541 57.5649L22.2196 56.0109Z" fill="#F0F3F8"/>
<path d="M23.6443 61.365L22.4023 58.3047L19.8322 59.3379L21.0741 62.3981L23.6443 61.365Z" fill="#F0F3F8"/>
</g>
<g opacity="0.55">
<path d="M15.8406 24.7217L18.6053 22.0091C18.7623 21.8528 18.8408 21.6407 18.8296 21.4342L20.8541 19.4472C22.7215 20.971 25.4862 20.8817 27.2415 19.157C28.15 18.2639 28.6547 17.0751 28.6659 15.8025C28.6771 14.5299 28.1836 13.3299 27.292 12.4257C26.3947 11.5215 25.2002 11.0192 23.9216 11.008C22.643 10.9968 21.4373 11.4824 20.5288 12.3755C19.6203 13.2685 19.1156 14.4574 19.1044 15.7299C19.0988 16.8351 19.4633 17.8788 20.1475 18.7272L18.1174 20.7198C17.9099 20.7086 17.6968 20.7756 17.5398 20.9319L14.7751 23.6445C14.6237 23.7896 14.5508 23.985 14.5508 24.1747C14.5508 24.3701 14.6237 24.5599 14.7695 24.7106C15.0611 25.012 15.5378 25.012 15.8406 24.7217ZM21.1962 18.4035C20.4896 17.689 20.1026 16.7458 20.1082 15.7411C20.1138 14.7364 20.5176 13.7987 21.2298 13.0955C21.9476 12.3922 22.8954 12.0071 23.9048 12.0127C24.9142 12.0183 25.8563 12.4201 26.5629 13.1345C27.2695 13.849 27.6565 14.7923 27.6509 15.7969C27.6453 16.8016 27.2415 17.7393 26.5293 18.4425C25.0544 19.8937 22.6598 19.877 21.1962 18.4035Z" fill="#F0F3F8"/>
<path d="M14.7656 24.7275C14.6198 24.5768 14.5469 24.387 14.5469 24.1917C14.5469 23.9963 14.6254 23.8066 14.7712 23.6614L17.5359 20.9488C17.6929 20.7925 17.906 20.72 18.1135 20.7367L18.8201 21.4512C18.8313 21.6577 18.7584 21.8698 18.5958 22.0261L15.8311 24.7387C15.5395 25.0233 15.0628 25.0233 14.7656 24.7275Z" fill="#E1E9F1"/>
</g>
<g opacity="0.55">
<path d="M44.8209 76.8359C44.8209 76.8359 41.3747 78.119 38.0903 81.3556C34.968 84.4245 33.2578 87.3516 33.2578 87.3516C35.7777 86.5973 38.1681 85.282 40.241 83.3994C42.3075 81.5167 43.8363 79.2666 44.8209 76.8359Z" fill="#F0F3F8"/>
<path d="M36.4137 88.0687C34.5092 88.159 32.7278 88.6748 31.1602 89.5194C32.8055 90.2093 34.6258 90.5574 36.5304 90.4672C38.4349 90.3769 40.2163 89.8611 41.7839 89.0229C40.1386 88.3266 38.3118 87.9785 36.4137 88.0687Z" fill="#F0F3F8"/>
<path d="M29.4922 78.2969C29.1165 80.0312 29.1165 81.8816 29.5635 83.7256C30.0104 85.5695 30.8526 87.2136 31.9797 88.5934C32.3555 86.859 32.3555 85.0086 31.9085 83.1647C31.4615 81.3207 30.6194 79.6702 29.4922 78.2969Z" fill="#F0F3F8"/>
<path d="M36.0961 103.377C38.2922 102.165 38.6873 100.798 37.6444 99.2184C36.5949 97.6323 35.2475 96.3687 33.7188 95.4531C33.7188 95.4531 33.8807 98.0837 35.6297 100.534C36.5107 101.759 36.6468 102.668 36.0961 103.377Z" fill="#F0F3F8"/>
<path d="M34.9963 93.2788C34.9445 93.2659 34.8927 93.253 34.8474 93.2401L34.5882 93.1692C34.504 93.1498 34.4133 93.1305 34.3291 93.1047L34.1996 93.0724L34.07 93.0467L33.8044 92.9886C33.4546 92.9177 33.0983 92.8597 32.742 92.8146C32.0295 92.7243 31.3169 92.6727 30.5978 92.6598C29.8853 92.6469 29.1792 92.6727 28.4731 92.763C28.486 92.7436 28.5055 92.7178 28.5184 92.6985C28.9978 92.0666 29.4901 91.4477 30.0019 90.8416C30.5136 90.2356 31.0383 89.6424 31.576 89.0622C31.8481 88.772 32.1201 88.4883 32.3987 88.2047C32.6772 87.921 32.9558 87.6437 33.2473 87.3729C32.9558 87.6373 32.6708 87.9145 32.3922 88.1982C32.1137 88.4819 31.8351 88.7656 31.5631 89.0493C31.0189 89.6295 30.4942 90.2227 29.9824 90.8223C29.4707 91.4284 28.9719 92.0473 28.4925 92.6727C28.3565 92.8468 28.2269 93.0273 28.0974 93.2014C28.0715 92.9628 28.0261 92.7243 27.9743 92.4922C27.916 92.2536 27.8512 92.0151 27.7735 91.783C27.6957 91.5509 27.6115 91.3188 27.5143 91.0931C27.4172 90.8674 27.3135 90.6418 27.1969 90.4226C27.2488 90.5322 27.3006 90.6482 27.3459 90.7578C27.3977 90.8674 27.4431 90.9835 27.4884 91.0995C27.5791 91.3252 27.6633 91.5573 27.7411 91.7894C27.8188 92.0215 27.8901 92.2601 27.9484 92.4922L27.9937 92.6727C28.0067 92.7307 28.0196 92.7952 28.0326 92.8532C28.0585 92.9693 28.0779 93.0853 28.0974 93.1949C27.754 93.6527 27.4237 94.1169 27.1062 94.594C26.9961 94.7552 26.886 94.9228 26.7759 95.0905C26.6657 95.2581 26.5556 95.4193 26.452 95.5869L26.1346 96.0898L25.8301 96.5992C25.7783 96.683 25.7264 96.7668 25.6746 96.8571L25.5256 97.115L25.3766 97.3729C25.3248 97.4567 25.2795 97.5469 25.2276 97.6307L24.9426 98.153L24.8714 98.2819L24.8066 98.4109L24.6705 98.6752C24.4827 99.0234 24.3207 99.3844 24.1458 99.7391C24.0616 99.9196 23.9839 100.1 23.8997 100.281L23.7766 100.551C23.7377 100.642 23.6989 100.732 23.66 100.822L23.4333 101.37L23.2195 101.925L23.1158 102.202L23.0187 102.486L22.8956 102.847H22.8697C22.8826 102.363 22.9021 101.873 22.9215 101.39C22.9733 100.139 23.0316 98.8944 23.1094 97.6437C23.1871 96.3929 23.2778 95.1485 23.3879 93.9042C23.4527 93.1627 23.5239 92.4213 23.6017 91.6798C23.8414 91.8345 24.0875 91.9635 24.3402 92.0538C25.9985 92.6211 27.7799 91.9506 27.7799 91.9506C27.0155 91.2091 26.0827 90.6224 25.0009 90.2549C24.5993 90.1195 24.1912 90.0164 23.7831 89.9584L23.8673 89.2427L23.9839 88.3143C23.9904 88.2433 24.0033 88.1724 24.0098 88.1015C25.5515 89.7262 27.1905 90.429 27.1905 90.429C26.8406 88.6882 26.1086 86.9926 24.9685 85.471C24.8066 85.2518 24.6382 85.0648 24.4568 84.91L24.5086 84.5941L24.5799 84.1299L24.6576 83.6657L24.7353 83.2015C24.7612 83.0467 24.7871 82.892 24.8131 82.7373L24.9815 81.8153C25.0074 81.6606 25.0398 81.5058 25.0722 81.3575L25.1629 80.8998L25.2536 80.442C25.2859 80.2873 25.3183 80.139 25.3507 79.9842L25.3702 79.9004C25.4738 79.8746 27.9743 79.2041 30.0213 77.0765C31.0643 75.9869 31.9323 75.6838 32.7356 76.0836C31.129 74.1687 29.7039 74.0333 28.337 75.355C26.9767 76.6703 25.992 78.2176 25.3702 79.8746L25.5451 79.0623C25.7135 78.3208 25.8884 77.5794 26.0763 76.8443L26.0827 76.8508C26.0827 76.8508 26.0827 76.8444 26.0763 76.8315C26.1993 76.3608 26.3224 75.8901 26.452 75.4259C26.452 75.4259 28.648 72.8405 30.5072 68.8818C32.47 64.7168 32.5347 61.0547 32.5347 61.0547C30.5655 62.789 28.946 64.9811 27.8577 67.5537C26.7694 70.1262 26.3224 72.8083 26.452 75.4259C26.3224 75.8901 26.1929 76.3544 26.0763 76.8186C25.9985 76.5478 25.3637 74.4975 23.9709 72.1635C22.3903 69.5201 20.3757 68.1146 20.3757 68.1146C20.6024 69.8489 21.2178 71.5639 22.2348 73.1242C23.2519 74.6845 24.5734 75.9288 26.0698 76.8379C25.8754 77.5729 25.6941 78.3144 25.5256 79.0558L25.3248 79.9713C25.2924 80.1261 25.26 80.2744 25.2276 80.4291L25.137 80.8869L25.0463 81.3446C25.0139 81.4994 24.9815 81.6541 24.9556 81.8024L24.7871 82.7244C24.6576 83.44 24.541 84.1557 24.4309 84.8714C23.3814 83.9494 22.1118 84.0912 20.5052 85.4903C21.3668 85.2195 22.1701 85.6579 23.0316 86.8894C23.3296 87.3214 23.6535 87.7018 23.9774 88.0499C23.8932 88.6753 23.8219 89.3072 23.7507 89.9326C23.0834 89.8294 22.4162 89.823 21.762 89.9003C21.7296 89.8874 22.5523 90.977 23.5693 91.6411C23.4916 92.389 23.4268 93.1369 23.362 93.8848C23.2584 95.1292 23.1677 96.38 23.0899 97.6243C22.9863 99.3587 22.9021 101.093 22.8632 102.834H22.8179L22.7919 102.389L22.7855 102.228L22.779 102.144L22.7725 102.067L22.7401 101.744L22.7077 101.422L22.6948 101.261L22.6753 101.099L22.5976 100.455L22.5847 100.377L22.5717 100.3L22.5458 100.139L22.494 99.8164L22.4421 99.494L22.3838 99.1781C22.345 98.9654 22.3061 98.7526 22.2608 98.5398L22.1247 97.908C21.749 96.2252 21.2632 94.5682 20.6931 92.9371C20.4081 92.1247 20.1036 91.3188 19.7732 90.5193C19.4493 89.7198 19.106 88.9268 18.7432 88.1466C18.2639 87.1086 17.7586 86.077 17.2209 85.0712C18.6785 84.0525 19.9352 82.6986 20.8615 81.0545C21.7943 79.404 22.2996 77.6245 22.4097 75.8515C20.9457 76.8701 19.689 78.2241 18.7562 79.8811C17.8299 81.5252 17.3246 83.2917 17.208 85.0519C16.9359 84.5425 16.6574 84.0461 16.3658 83.5496C16.5861 83.9236 16.7934 84.2975 16.9942 84.6779C17.0655 84.8069 17.1367 84.9423 17.2015 85.0712V85.0777C17.2015 85.0777 17.2015 85.0777 17.208 85.0777C17.3375 85.3227 17.4671 85.5741 17.5966 85.8256C17.9853 86.5928 18.361 87.3729 18.7173 88.1595C18.9894 88.7527 19.2485 89.3587 19.5012 89.9584C18.8469 89.694 18.1602 89.4877 17.4736 89.3136C16.7804 89.1395 16.0743 89.0041 15.3618 88.901C15.0055 88.8558 14.6492 88.8172 14.2929 88.7914L14.0273 88.772L13.8913 88.7656L13.7552 88.7591C13.6645 88.7591 13.5739 88.7527 13.4896 88.7527L13.2241 88.7462C13.1334 88.7462 13.0427 88.7462 12.9585 88.7462C12.8678 88.7462 12.7771 88.7462 12.6929 88.7527C12.5115 88.7591 12.3366 88.7656 12.1552 88.7785C11.7989 88.7978 11.4426 88.843 11.0863 88.8881C9.40856 88.2885 7.56883 88.037 5.67079 88.2305C3.77924 88.4239 2.02372 89.0364 0.501412 89.9648C0.423677 89.9648 3.57195 91.654 5.91048 91.4284C8.83202 91.1511 11.0799 88.8881 11.0799 88.8881C11.4361 88.8494 11.7924 88.8107 12.1487 88.7978C12.3301 88.7849 12.505 88.7849 12.6864 88.7785C12.7771 88.7785 12.8678 88.7785 12.952 88.7785C13.0427 88.7785 13.1334 88.7785 13.2176 88.7785L13.4832 88.7849C13.5739 88.7849 13.6646 88.7914 13.7488 88.7978L13.8848 88.8043L14.0208 88.8107L14.2864 88.8301C14.6427 88.8558 14.999 88.8945 15.3553 88.9461C16.0614 89.0428 16.7675 89.1718 17.4606 89.3458C17.8104 89.4297 18.1538 89.5264 18.4971 89.6295C18.8339 89.7327 19.1643 89.8423 19.4947 89.9713C19.5724 90.1647 19.6566 90.3516 19.7344 90.5451C20.0583 91.3445 20.3627 92.1505 20.6478 92.9628C21.2178 94.5876 21.7101 96.2446 22.0858 97.9273L22.2219 98.5592C22.2672 98.7719 22.2996 98.9847 22.345 99.191L22.4033 99.5069L22.4551 99.8293L22.5069 100.152L22.5328 100.313L22.5458 100.39L22.5587 100.468L22.643 101.106L22.6624 101.267L22.6753 101.428L22.7077 101.751L22.7401 102.073L22.7466 102.15L22.7531 102.234L22.766 102.395L22.7919 102.84H16.2169V105.084V105.181V115.999H29.4383V102.84H22.9021L23.0251 102.486L23.1223 102.208L23.2324 101.931L23.4462 101.377L23.6794 100.829C23.7183 100.738 23.7572 100.648 23.796 100.558L23.9191 100.287C24.0033 100.107 24.081 99.926 24.1653 99.7455C24.3402 99.3909 24.5086 99.0298 24.69 98.6817L24.826 98.4173L24.8973 98.2884L24.9685 98.1594L25.2536 97.6372C25.2989 97.5469 25.3507 97.4631 25.4025 97.3793L25.5515 97.1214L25.7005 96.8635C25.7524 96.7797 25.8042 96.6959 25.856 96.6121L26.1669 96.1027L26.4844 95.5998C26.588 95.4322 26.6981 95.271 26.8083 95.1034C26.9184 94.9357 27.0285 94.7746 27.1386 94.6134C27.5662 93.9815 28.0131 93.3561 28.4796 92.7501C28.8294 92.7114 29.1792 92.6921 29.529 92.6792C29.8853 92.6663 30.248 92.6663 30.6043 92.6727C30.98 92.6791 31.3493 92.6985 31.7185 92.7307C31.9258 92.9177 32.1137 93.1111 32.2951 93.3174C32.4311 93.4722 32.5671 93.6334 32.6967 93.7946C31.9517 94.2717 31.2975 94.9164 30.7987 95.7159C30.2934 96.5218 30.0019 97.3986 29.9047 98.2819C30.6561 97.8048 31.3169 97.1536 31.8222 96.3477C32.321 95.5482 32.6125 94.6843 32.7096 93.8074C32.755 93.8655 32.7939 93.9235 32.8392 93.9815C32.8845 94.0396 32.9234 94.0976 32.9623 94.1556C33.0011 94.2136 33.0465 94.2717 33.0854 94.3297L33.202 94.5102C33.2214 94.5424 33.2408 94.5682 33.2603 94.6005L33.3186 94.6907C33.4676 94.9357 33.6036 95.1872 33.7332 95.4386L33.6425 95.2452C33.6101 95.1807 33.5842 95.1163 33.5518 95.0518L33.4546 94.8648C33.4222 94.8003 33.3833 94.7423 33.351 94.6778C33.2084 94.4264 33.0465 94.1943 32.8781 93.9622C32.7096 93.7301 32.5218 93.5109 32.3274 93.2981C32.2303 93.1949 32.1266 93.0918 32.0295 92.9886C31.9323 92.8984 31.8351 92.8081 31.7315 92.7243C32.0748 92.7501 32.4117 92.7888 32.755 92.8339C33.1113 92.879 33.4611 92.937 33.8174 93.008L34.083 93.0595L34.2125 93.0853L34.3421 93.1176C34.4263 93.1369 34.517 93.1563 34.6012 93.1756L34.8603 93.2401C34.9057 93.253 34.951 93.2659 35.0028 93.2788C35.6636 93.8655 36.4668 94.3168 37.3737 94.5747C38.2871 94.839 39.2135 94.8777 40.0945 94.7294C39.4272 94.1363 38.624 93.6849 37.7041 93.4206C36.7843 93.1821 35.8709 93.1369 34.9963 93.2788Z" fill="#F0F3F8"/>
<path d="M8.12109 70.3047C8.40612 72.903 9.26121 75.4884 10.7382 77.861C12.2151 80.2337 14.1585 82.1486 16.374 83.5541C16.374 83.5541 15.5254 80.2788 13.3617 76.4748C11.0815 72.471 8.12109 70.3047 8.12109 70.3047Z" fill="#F0F3F8"/>
<path d="M17.7789 86.2103C16.4962 84.9724 14.9221 83.9924 13.1212 83.3928C11.3139 82.7932 9.46769 82.632 7.69922 82.8512C8.98185 84.0891 10.556 85.0627 12.3568 85.6687C14.1577 86.2683 16.0104 86.4295 17.7789 86.2103Z" fill="#F0F3F8"/>
<path d="M16.4588 92.2635C16.1997 91.3609 15.7462 90.5614 15.1568 89.8973C15.3252 89.7748 15.4936 89.6588 15.6685 89.5427C15.9082 89.388 16.1544 89.2461 16.4135 89.1172C16.2839 89.1752 16.1544 89.2397 16.0248 89.3042C15.9017 89.3751 15.7722 89.446 15.6491 89.5169C15.4029 89.6652 15.1697 89.8328 14.943 90.0069C14.7163 90.181 14.496 90.368 14.2887 90.5679C14.2369 90.6194 14.1851 90.6646 14.1332 90.7161L13.9842 90.8709C13.9324 90.9225 13.8871 90.974 13.8417 91.0321L13.6992 91.1932C13.8936 90.9805 14.0879 90.7742 14.3017 90.5807L14.3794 90.5098C14.4053 90.484 14.4312 90.4582 14.4571 90.4389L14.6191 90.2971C14.6709 90.2519 14.7292 90.2068 14.7875 90.1617C14.8458 90.1165 14.8976 90.0714 14.9559 90.0263C15.0142 89.9811 15.0725 89.936 15.1244 89.8973C14.9818 90.7677 15.0207 91.6768 15.2863 92.5794C15.5519 93.4885 16.0054 94.2944 16.6013 94.9585C16.7633 94.0946 16.7244 93.1726 16.4588 92.2635Z" fill="#F0F3F8"/>
<path d="M9.25958 98.1935C8.92273 97.3617 9.30493 96.53 10.4839 95.5823C12.8419 93.6996 13.7164 91.2109 13.7164 91.2109C11.9933 91.6751 10.3479 92.5262 8.90977 93.7706C7.4652 95.0085 7.47815 96.4269 9.25958 98.1935Z" fill="#F0F3F8"/>
<path d="M30.7229 114.789H14.9297V115.995H30.7229V114.789Z" fill="#E1E9F1"/>
<path d="M29.4363 105.266H16.2148V105.531H29.4363V105.266Z" fill="#E1E9F1"/>
</g>
<g opacity="0.55">
<path d="M106.5 115.312L119.242 115.312L119.242 109.053L106.5 109.053L106.5 115.312Z" fill="#F0F3F8"/>
<path d="M99.4458 115.312H106.5V109.053H99.4458V115.312Z" fill="#E1E9F1"/>
<path d="M106.286 109.047L119.848 109.047L119.848 106.376L106.286 106.376L106.286 109.047Z" fill="#F0F3F8"/>
<path d="M98.8446 109.047H106.281V106.376H98.8446V109.047Z" fill="#E1E9F1"/>
<path d="M106.498 109.359H119.24V109.044H106.498V109.359Z" fill="#E1E9F1"/>
<path d="M112.152 113.782H111.758V113.39C111.758 113.371 111.77 113.359 111.788 113.359C111.806 113.359 111.819 113.371 111.819 113.39V113.722H112.152C112.171 113.722 112.183 113.734 112.183 113.752C112.183 113.77 112.171 113.782 112.152 113.782Z" fill="white"/>
<path d="M116.886 113.795H116.097C116.079 113.795 116.067 113.783 116.067 113.765C116.067 113.746 116.079 113.734 116.097 113.734H116.886C116.905 113.734 116.917 113.746 116.917 113.765C116.917 113.783 116.899 113.795 116.886 113.795ZM115.308 113.795H114.519C114.501 113.795 114.489 113.783 114.489 113.765C114.489 113.746 114.501 113.734 114.519 113.734H115.308C115.326 113.734 115.338 113.746 115.338 113.765C115.338 113.783 115.326 113.795 115.308 113.795ZM113.73 113.795H112.941C112.922 113.795 112.91 113.783 112.91 113.765C112.91 113.746 112.922 113.734 112.941 113.734H113.73C113.748 113.734 113.76 113.746 113.76 113.765C113.76 113.783 113.748 113.795 113.73 113.795Z" fill="white"/>
<path d="M118.073 113.782H117.679C117.661 113.782 117.648 113.77 117.648 113.752C117.648 113.734 117.661 113.722 117.679 113.722H118.013V113.39C118.013 113.371 118.025 113.359 118.043 113.359C118.061 113.359 118.073 113.371 118.073 113.39V113.782Z" fill="white"/>
<path d="M118.042 112.696C118.024 112.696 118.012 112.684 118.012 112.666V111.929C118.012 111.911 118.024 111.898 118.042 111.898C118.06 111.898 118.072 111.911 118.072 111.929V112.666C118.072 112.684 118.054 112.696 118.042 112.696Z" fill="white"/>
<path d="M118.043 111.212C118.025 111.212 118.013 111.2 118.013 111.182V110.849H117.679C117.661 110.849 117.648 110.837 117.648 110.819C117.648 110.801 117.661 110.789 117.679 110.789H118.073V111.182C118.073 111.2 118.055 111.212 118.043 111.212Z" fill="white"/>
<path d="M116.886 110.85H116.097C116.079 110.85 116.067 110.838 116.067 110.819C116.067 110.801 116.079 110.789 116.097 110.789H116.886C116.905 110.789 116.917 110.801 116.917 110.819C116.917 110.838 116.899 110.85 116.886 110.85ZM115.308 110.85H114.519C114.501 110.85 114.489 110.838 114.489 110.819C114.489 110.801 114.501 110.789 114.519 110.789H115.308C115.326 110.789 115.338 110.801 115.338 110.819C115.338 110.838 115.326 110.85 115.308 110.85ZM113.73 110.85H112.941C112.922 110.85 112.91 110.838 112.91 110.819C112.91 110.801 112.922 110.789 112.941 110.789H113.73C113.748 110.789 113.76 110.801 113.76 110.819C113.76 110.838 113.748 110.85 113.73 110.85Z" fill="white"/>
<path d="M111.788 111.212C111.77 111.212 111.758 111.2 111.758 111.182V110.789H112.152C112.171 110.789 112.183 110.801 112.183 110.819C112.183 110.837 112.171 110.849 112.152 110.849H111.819V111.182C111.819 111.2 111.806 111.212 111.788 111.212Z" fill="white"/>
<path d="M111.788 112.696C111.77 112.696 111.758 112.684 111.758 112.666V111.929C111.758 111.911 111.77 111.898 111.788 111.898C111.806 111.898 111.819 111.911 111.819 111.929V112.666C111.819 112.684 111.806 112.696 111.788 112.696Z" fill="white"/>
<path d="M113.313 111.844H117.551V111.385H113.313V111.844Z" fill="white"/>
<path d="M115.428 112.758H117.547V112.299H115.428V112.758Z" fill="white"/>
<path d="M119.836 106.375H106.273L119.836 108.012V106.375Z" fill="#E1E9F1"/>
</g>
<g opacity="0.55">
<path d="M116.445 96.7266H100.473V106.388H116.445V96.7266Z" fill="#F0F3F8"/>
<path d="M123.507 96.7266H116.453V106.388H123.507V96.7266Z" fill="#E1E9F1"/>
<path d="M116.671 94.0547H99.8789V96.7253H116.671V94.0547Z" fill="#F0F3F8"/>
<path d="M124.109 94.0547H116.672V96.7253H124.109V94.0547Z" fill="#E1E9F1"/>
<path d="M116.445 96.7188H100.473V97.0339H116.445V96.7188Z" fill="#E1E9F1"/>
<path d="M107.956 105.165H107.562C107.543 105.165 107.531 105.153 107.531 105.135C107.531 105.117 107.543 105.105 107.562 105.105H107.895V104.772C107.895 104.754 107.908 104.742 107.926 104.742C107.944 104.742 107.956 104.754 107.956 104.772V105.165Z" fill="white"/>
<path d="M106.767 105.178H105.978C105.96 105.178 105.948 105.166 105.948 105.147C105.948 105.129 105.96 105.117 105.978 105.117H106.767C106.785 105.117 106.797 105.129 106.797 105.147C106.797 105.166 106.785 105.178 106.767 105.178ZM105.189 105.178H104.4C104.381 105.178 104.369 105.166 104.369 105.147C104.369 105.129 104.381 105.117 104.4 105.117H105.189C105.207 105.117 105.219 105.129 105.219 105.147C105.219 105.166 105.207 105.178 105.189 105.178ZM103.616 105.178H102.827C102.809 105.178 102.797 105.166 102.797 105.147C102.797 105.129 102.809 105.117 102.827 105.117H103.616C103.635 105.117 103.647 105.129 103.647 105.147C103.647 105.166 103.629 105.178 103.616 105.178Z" fill="white"/>
<path d="M102.039 105.165H101.645V104.772C101.645 104.754 101.657 104.742 101.675 104.742C101.693 104.742 101.705 104.754 101.705 104.772V105.105H102.039C102.057 105.105 102.069 105.117 102.069 105.135C102.069 105.153 102.057 105.165 102.039 105.165Z" fill="white"/>
<path d="M101.675 104.079C101.657 104.079 101.645 104.067 101.645 104.049V103.311C101.645 103.293 101.657 103.281 101.675 103.281C101.693 103.281 101.705 103.293 101.705 103.311V104.049C101.705 104.061 101.693 104.079 101.675 104.079Z" fill="white"/>
<path d="M101.675 102.595C101.657 102.595 101.645 102.583 101.645 102.565V102.172H102.039C102.057 102.172 102.069 102.184 102.069 102.202C102.069 102.22 102.057 102.232 102.039 102.232H101.705V102.565C101.705 102.583 101.693 102.595 101.675 102.595Z" fill="white"/>
<path d="M106.767 102.232H105.978C105.96 102.232 105.948 102.22 105.948 102.202C105.948 102.184 105.96 102.172 105.978 102.172H106.767C106.785 102.172 106.797 102.184 106.797 102.202C106.797 102.22 106.785 102.232 106.767 102.232ZM105.189 102.232H104.4C104.381 102.232 104.369 102.22 104.369 102.202C104.369 102.184 104.381 102.172 104.4 102.172H105.189C105.207 102.172 105.219 102.184 105.219 102.202C105.219 102.22 105.207 102.232 105.189 102.232ZM103.616 102.232H102.827C102.809 102.232 102.797 102.22 102.797 102.202C102.797 102.184 102.809 102.172 102.827 102.172H103.616C103.635 102.172 103.647 102.184 103.647 102.202C103.647 102.22 103.629 102.232 103.616 102.232Z" fill="white"/>
<path d="M107.926 102.595C107.908 102.595 107.895 102.583 107.895 102.565V102.232H107.562C107.543 102.232 107.531 102.22 107.531 102.202C107.531 102.184 107.543 102.172 107.562 102.172H107.956V102.565C107.956 102.583 107.944 102.595 107.926 102.595Z" fill="white"/>
<path d="M107.925 104.079C107.907 104.079 107.895 104.067 107.895 104.049V103.311C107.895 103.293 107.907 103.281 107.925 103.281C107.943 103.281 107.955 103.293 107.955 103.311V104.049C107.955 104.061 107.943 104.079 107.925 104.079Z" fill="white"/>
<path d="M106.405 102.758H102.168V103.217H106.405V102.758Z" fill="white"/>
<path d="M104.287 103.672H102.168V104.131H104.287V103.672Z" fill="white"/>
</g>
<g opacity="0.55">
<path d="M115.491 65.0574L100.351 67.2638C100.03 67.3102 99.8072 67.6092 99.8538 67.9289L101.703 80.5182C101.765 80.9461 102.164 81.2399 102.594 81.1781L116.714 79.1211C117.429 79.018 117.988 78.4973 118.164 77.8426C118.713 77.4611 119.008 76.8012 118.91 76.1362L117.501 66.5421C117.361 65.5884 116.46 64.9182 115.491 65.0574ZM117.382 73.5791L111.14 74.4865C110.472 74.5844 109.851 74.1204 109.752 73.4605C109.654 72.7955 110.12 72.1769 110.783 72.0789L117.025 71.1716L117.382 73.5791ZM116.988 70.8726L110.747 71.7799C109.913 71.9036 109.333 72.6718 109.457 73.5018C109.581 74.3318 110.353 74.9092 111.187 74.7855L117.429 73.8781L117.91 77.1724C118.03 77.9715 117.47 78.7138 116.672 78.8272L102.552 80.8842C102.288 80.9203 102.045 80.7399 102.003 80.4769L100.227 68.3929C100.32 68.4289 100.418 68.4393 100.522 68.4238L114.834 66.341C115.636 66.2225 116.382 66.7792 116.496 67.5732L116.988 70.8726Z" fill="#E1E9F1"/>
<path d="M110.79 72.087C110.122 72.185 109.661 72.8036 109.759 73.4687C109.858 74.1337 110.479 74.5925 111.148 74.4946L117.389 73.5872L117.037 71.1797L110.79 72.087ZM111.085 73.9945C110.692 74.0512 110.329 73.7831 110.272 73.3913C110.215 72.9995 110.484 72.6386 110.878 72.5819C111.272 72.5252 111.634 72.7933 111.691 73.1851C111.748 73.5769 111.479 73.9378 111.085 73.9945Z" fill="#F0F3F8"/>
<path d="M109.453 73.5048C109.577 74.3348 110.349 74.9122 111.183 74.7885L117.425 73.8811L117.906 77.1754C118.025 77.9745 117.466 78.7168 116.668 78.8302L102.548 80.8872C102.284 80.9233 102.041 80.7429 101.999 80.4799L100.223 68.3959C100.316 68.432 100.414 68.4423 100.518 68.4268L114.83 66.344C115.632 66.2255 116.378 66.7823 116.492 67.5762L116.974 70.8704L110.732 71.7778C109.914 71.9066 109.334 72.6799 109.453 73.5048Z" fill="#F0F3F8"/>
<path d="M111.692 73.1731C111.749 73.5649 111.48 73.9258 111.086 73.9825C110.693 74.0392 110.33 73.7711 110.273 73.3793C110.216 72.9875 110.486 72.6267 110.879 72.57C111.273 72.5132 111.635 72.7865 111.692 73.1731Z" fill="#E1E9F1"/>
</g>
<g opacity="0.55">
<path d="M48.7156 15.5946L69.8368 15.5647C70.9585 15.5647 71.8703 14.6572 71.8643 13.5408L71.8463 2.01801C71.8463 0.901553 70.9345 -0.00594106 69.8128 2.92911e-05L48.6916 0.0298811C47.5699 0.0298811 46.6581 0.937374 46.6641 2.05383L46.6821 13.5766C46.6821 14.6871 47.5939 15.5946 48.7156 15.5946Z" fill="#F0F3F8"/>
<path d="M46.6811 12.192L71.8633 12.1562L71.8594 9.48153L46.6772 9.51729L46.6811 12.192Z" fill="#E1E9F1"/>
<path d="M48.7834 6.96339L56.0117 6.95312L56.0103 5.9919L48.782 6.00216L48.7834 6.96339Z" fill="#E1E9F1"/>
<path d="M48.7735 4.43482L52.3906 4.42969L52.3892 3.46846L48.7721 3.4736L48.7735 4.43482Z" fill="#E1E9F1"/>
<path d="M53.5078 4.42701L57.125 4.42188L57.1236 3.46065L53.5065 3.46579L53.5078 4.42701Z" fill="#E1E9F1"/>
<path d="M58.2383 4.41919L61.8555 4.41406L61.8541 3.45284L58.2369 3.45797L58.2383 4.41919Z" fill="#E1E9F1"/>
<path d="M64.3125 3.5313L64.3185 6.29557C64.3185 6.64185 64.6004 6.92246 64.9484 6.92246L68.8535 6.91649C69.2014 6.91649 69.4833 6.63588 69.4833 6.2896L69.4773 3.52532C69.4773 3.17904 69.1954 2.89844 68.8475 2.89844L64.9424 2.90441C64.5884 2.90441 64.3125 3.18501 64.3125 3.5313Z" fill="#E1E9F1"/>
<path d="M64.3125 4.28356V4.194H65.2783V2.89844H65.3683V4.194H66.8979V2.89844H66.9879V4.194L69.4773 4.18803V4.27759H68.4755V5.52539H69.4773V5.61495L66.9879 5.62092V6.91648H66.8979V5.62092L64.3125 5.62689V5.53733H64.8824V4.86865H66.0101V4.28953L64.3125 4.28356ZM64.9723 4.95224V5.53136L68.3856 5.52539V4.27759L66.1001 4.28356V4.95224H64.9723Z" fill="#F0F3F8"/>
</g>
<path d="M74.022 25.5104V108.661C74.022 109.039 73.9875 109.402 73.9186 109.759C73.7531 110.617 73.3947 111.399 72.8914 112.071C71.8436 113.478 70.1615 114.383 68.2726 114.383H34.8314C32.9356 114.383 31.2604 113.471 30.2126 112.071C29.7094 111.399 29.3509 110.61 29.1854 109.759C29.1165 109.402 29.082 109.039 29.082 108.661V25.5104C29.082 25.4417 29.082 25.3663 29.0889 25.2977C29.0889 25.2702 29.0889 25.2428 29.0889 25.2085C29.2475 22.1827 31.7568 19.7812 34.8383 19.7812H68.2795C71.3541 19.7812 73.8703 22.1827 74.0289 25.2085C74.0289 25.2359 74.0289 25.2633 74.0289 25.2977C74.022 25.3663 74.022 25.4349 74.022 25.5104Z" fill="white"/>
<path d="M72.8898 112.086C71.8419 113.492 70.1599 114.398 68.271 114.398H34.8297C32.9339 114.398 31.2588 113.486 30.2109 112.086H72.8898Z" fill="#F0F2F5"/>
<path d="M68.2536 19.7915C71.4316 19.7915 74.0099 22.3576 74.0099 25.5206V108.671C74.0099 111.834 71.4316 114.401 68.2536 114.401H34.8124C31.6344 114.401 29.0561 111.834 29.0561 108.671V25.5206C29.0561 22.3576 31.6344 19.7915 34.8124 19.7915H68.2536ZM68.2536 18.3438H34.8124C30.8347 18.3438 27.6016 21.5617 27.6016 25.5206V108.671C27.6016 112.63 30.8347 115.848 34.8124 115.848H68.2536C72.2313 115.848 75.4644 112.63 75.4644 108.671V25.5206C75.4575 21.5617 72.2244 18.3438 68.2536 18.3438Z" fill="#CBDEF8"/>
<path d="M68.2522 20.1449C71.2234 20.1449 73.6431 22.5532 73.6431 25.5104V108.661C73.6431 111.618 71.2234 114.027 68.2522 114.027H34.8109C31.8397 114.027 29.4201 111.618 29.4201 108.661V25.5104C29.4201 22.5532 31.8397 20.1449 34.8109 20.1449H68.2522ZM68.2522 19.7812H34.8109C31.6329 19.7812 29.0547 22.3473 29.0547 25.5104V108.661C29.0547 111.824 31.6329 114.39 34.8109 114.39H68.2522C71.4302 114.39 74.0084 111.824 74.0084 108.661V25.5104C74.0084 22.3473 71.4302 19.7812 68.2522 19.7812Z" fill="#CBDEF8"/>
<path d="M69.7483 21.9062H66.8047V23.3402H69.7483V21.9062Z" fill="#CBDEF8"/>
<path d="M66.6942 22.1875H66.2461V23.0657H66.6942V22.1875Z" fill="#CBDEF8"/>
<path d="M35.8709 22.6172H35.4297V23.3376H35.8709V22.6172Z" fill="#CBDEF8"/>
<path d="M35.0467 22.3828H34.6055V23.3434H35.0467V22.3828Z" fill="#CBDEF8"/>
<path d="M34.2185 22.1484H33.7773V23.3423H34.2185V22.1484Z" fill="#CBDEF8"/>
<path d="M33.4021 21.9062H32.9609V23.3402H33.4021V21.9062Z" fill="#CBDEF8"/>
<path d="M59.7721 23.353H43.6409C43.2411 23.353 42.9102 23.0305 42.9102 22.6257C42.9102 22.2278 43.2342 21.8984 43.6409 21.8984H59.7721C60.1719 21.8984 60.5028 22.2209 60.5028 22.6257C60.5028 23.0305 60.1788 23.353 59.7721 23.353Z" fill="#F0F2F5"/>
<path d="M58.6419 112.183H44.9511C44.8959 112.183 44.8477 112.135 44.8477 112.08C44.8477 112.025 44.8959 111.977 44.9511 111.977H58.6488C58.704 111.977 58.7522 112.025 58.7522 112.08C58.7522 112.135 58.6971 112.183 58.6419 112.183Z" fill="#CBDEF8"/>
<path d="M73.6449 25.4922H29.4219V104.07H73.6449V25.4922Z" fill="#F3F4F4"/>
<path d="M32.6133 27.0156V34.4326L50.5782 40.69V36.9095L45.6975 33.3348V27.0156H32.6133Z" fill="#E8EDF1"/>
<path d="M41.2685 42.0262L38.6367 45.5078L42.1348 48.1272L44.7665 44.6456L41.2685 42.0262Z" fill="#E8EDF1"/>
<path d="M55.5902 27.0156H53.6875V28.9093H55.5902V27.0156Z" fill="#E8EDF1"/>
<path d="M55.5902 30.0234H53.6875V31.9171H55.5902V30.0234Z" fill="#E8EDF1"/>
<path d="M64.0884 26.5391H59.7109V36.3918H64.0884V26.5391Z" fill="#E8EDF1"/>
<path d="M64.0884 37.0234H59.7109V42.7388H64.0884V37.0234Z" fill="#E8EDF1"/>
<path d="M72.2489 27.0156H65.7344V34.3434H72.2489V27.0156Z" fill="#E8EDF1"/>
<path d="M63.3658 51.1875H58.9883V53.0194H63.3658V51.1875Z" fill="#E8EDF1"/>
<path d="M48.25 65.2093C50.5813 62.8889 50.5813 59.1268 48.25 56.8064C45.9186 54.486 42.1387 54.486 39.8073 56.8064C37.4759 59.1268 37.4759 62.8889 39.8073 65.2093C42.1387 67.5297 45.9186 67.5297 48.25 65.2093Z" fill="#E8EDF1"/>
<path d="M70.3795 51.3557C71.5749 51.3557 72.5441 50.3911 72.5441 49.2013C72.5441 48.0114 71.5749 47.0469 70.3795 47.0469C69.184 47.0469 68.2148 48.0114 68.2148 49.2013C68.2148 50.3911 69.184 51.3557 70.3795 51.3557Z" fill="#E8EDF1"/>
<path d="M61.7227 55.375H66.4655V59.6289L64.4732 62.0029L61.7227 55.375Z" fill="#E8EDF1"/>
<path d="M47.5479 74.0234V77.2276L40.2613 80.4867L39.1445 77.6256L47.5479 74.0234Z" fill="#E8EDF1"/>
<path d="M40.4688 81.0136L47.5486 77.8438V80.945L41.5097 83.6552L40.4688 81.0136Z" fill="#E8EDF1"/>
<path d="M41.7188 84.1766L47.5508 81.5625V85.8576H42.3737L41.7188 84.1766Z" fill="#E8EDF1"/>
<path d="M37.0561 75.0095L33.6368 62.625L32.3201 62.7965L31.6445 72.0866L35.3258 75.7505L37.0561 75.0095Z" fill="#E8EDF1"/>
<path d="M53.7671 56.1211L51.6523 56.9922L52.2007 58.3109L54.3154 57.4398L53.7671 56.1211Z" fill="#E8EDF1"/>
<path d="M55.1109 59.3242L52.9961 60.1953L53.7869 62.0972L55.9017 61.2262L55.1109 59.3242Z" fill="#E8EDF1"/>
<path d="M56.689 63.1367L54.5742 64.0078L55.1225 65.3265L57.2373 64.4554L56.689 63.1367Z" fill="#E8EDF1"/>
<path d="M31.3445 69.6164H30.7516L29.9727 64.6557L30.0967 62.6797L31.8202 62.8101L31.3445 69.6164Z" fill="#E8EDF1"/>
<path d="M34.4595 48.7188H30.5508V52.6091H34.4595V48.7188Z" fill="#E8EDF1"/>
<path d="M32.7821 53.5312H29.418V55.7474H32.7821V53.5312Z" fill="#E8EDF1"/>
<path d="M33.9099 53.5312H33.3516V55.7474H33.9099V53.5312Z" fill="#E8EDF1"/>
<path d="M32.7821 56.6719H29.418V58.888H32.7821V56.6719Z" fill="#E8EDF1"/>
<path d="M41.9084 69.9531H39.5508V72.2997H41.9084V69.9531Z" fill="#E8EDF1"/>
<path d="M44.3075 69.0391H43.1562V70.1849H44.3075V69.0391Z" fill="#E8EDF1"/>
<path d="M56.463 43.037L52.6836 46.4062L53.1343 46.9071L56.9138 43.5379L56.463 43.037Z" fill="#E8EDF1"/>
<path d="M56.463 38.0214L52.6836 41.3906L53.1343 41.8915L56.9138 38.5222L56.463 38.0214Z" fill="#E8EDF1"/>
<path d="M56.463 33.0214L52.6836 36.3906L53.1343 36.8915L56.9138 33.5222L56.463 33.0214Z" fill="#E8EDF1"/>
<path d="M56.0824 72.0391H52.7734V83.7306H56.0824V72.0391Z" fill="#E8EDF1"/>
<path d="M71.0611 33.229H32.029C31.4086 33.229 30.8984 32.7281 30.8984 32.1038V29.9768C30.8984 29.3593 31.4017 28.8516 32.029 28.8516H71.0611C71.6815 28.8516 72.1916 29.3524 72.1916 29.9768V32.1038C72.1916 32.7281 71.6884 33.229 71.0611 33.229Z" fill="white"/>
<path d="M69.7498 30.0867C69.7498 30.2102 69.6533 30.3063 69.5292 30.3063C69.4051 30.3063 69.3086 30.2102 69.3086 30.0867C69.3086 29.9632 69.4051 29.8672 69.5292 29.8672C69.6533 29.8672 69.7498 29.9632 69.7498 30.0867Z" fill="#D2D9E1"/>
<path d="M69.7498 31.0477C69.7498 31.1712 69.6533 31.2672 69.5292 31.2672C69.4051 31.2672 69.3086 31.1712 69.3086 31.0477C69.3086 30.9242 69.4051 30.8281 69.5292 30.8281C69.6533 30.8281 69.7498 30.9242 69.7498 31.0477Z" fill="#D2D9E1"/>
<path d="M69.7498 32.0086C69.7498 32.1321 69.6533 32.2282 69.5292 32.2282C69.4051 32.2282 69.3086 32.1321 69.3086 32.0086C69.3086 31.8851 69.4051 31.7891 69.5292 31.7891C69.6533 31.7891 69.7498 31.892 69.7498 32.0086Z" fill="#D2D9E1"/>
<path d="M34.2463 31.5679C34.5398 31.2758 34.5398 30.8023 34.2463 30.5102C33.9529 30.2182 33.4771 30.2182 33.1837 30.5102C32.8902 30.8023 32.8902 31.2758 33.1837 31.5679C33.4771 31.8599 33.9529 31.8599 34.2463 31.5679Z" fill="#D2D9E1"/>
<g opacity="0.6">
<path d="M69.0567 69.2529V61.9458H73.641V60.8068H69.0567V53.5819L59.6882 44.2576V25.4922H58.5438V34.1785L43.7913 25.4922H41.544L58.5438 35.5027V44.7241L60.0742 46.2473L53.8561 51.798L29.418 43.2833V45.6984L37.2216 48.4155L33.8713 61.0126L37.8558 75.4212L35.1328 76.5876L29.418 70.8996V72.512L34.8709 77.9392L36.7529 77.1365L40.1721 85.8776H40.7857L37.2768 76.91L48.9685 71.9014V85.8776H51.2572V70.9202L55.1521 69.2529H64.8171L64.5206 76.9512L68.7051 85.8776H69.9666L65.6719 76.7179L65.9545 69.2529H69.0567ZM60.4809 46.6521L67.9192 54.0554V68.114H63.3901L57.0685 52.9233L54.4765 52.0176L60.4809 46.6521ZM54.9177 68.114L38.9175 74.9683L35.057 61.0126L38.3039 48.7928L55.3451 54.7346L60.9083 68.114H54.9177Z" fill="white" fill-opacity="0.6"/>
</g>
<path d="M66.2164 45.0354C68.4437 45.0354 70.2492 43.2384 70.2492 41.0216C70.2492 38.8049 68.4437 37.0078 66.2164 37.0078C63.9891 37.0078 62.1836 38.8049 62.1836 41.0216C62.1836 43.2384 63.9891 45.0354 66.2164 45.0354Z" fill="#E1E6EB"/>
<path d="M66.025 44.7854C68.2523 44.7854 70.0578 42.9884 70.0578 40.7716C70.0578 38.5549 68.2523 36.7578 66.025 36.7578C63.7977 36.7578 61.9922 38.5549 61.9922 40.7716C61.9922 42.9884 63.7977 44.7854 66.025 44.7854Z" fill="white"/>
<path d="M65.1436 40.4649L64.7024 40.4855C64.6265 40.4855 64.6059 40.3894 64.6748 40.362L67.322 39.3877C67.3702 39.3671 67.4254 39.4151 67.4047 39.47L66.4258 42.1047C66.3982 42.1733 66.3017 42.1527 66.3017 42.0773L66.3224 41.6381C66.35 40.9863 65.8054 40.4443 65.1436 40.4649Z" fill="#F97CAA"/>
<path d="M48.0992 36.5C46.1345 36.5 44.5352 38.0849 44.5352 40.0472C44.5352 41.5773 46.7136 44.9393 47.6649 46.3321C47.8717 46.634 48.3198 46.634 48.5266 46.3321C49.4779 44.9461 51.6563 41.5842 51.6563 40.0472C51.6563 38.0849 50.0639 36.5 48.0992 36.5ZM48.0992 41.2823C47.3754 41.2823 46.7894 40.6991 46.7894 39.9786C46.7894 39.2582 47.3754 38.675 48.0992 38.675C48.823 38.675 49.409 39.2582 49.409 39.9786C49.409 40.6991 48.823 41.2823 48.0992 41.2823Z" fill="#F97CAA"/>
<path d="M48.7615 84.3425C49.0321 84.2304 49.1601 83.9211 49.0474 83.6517C48.9347 83.3824 48.6239 83.255 48.3533 83.3672C48.0827 83.4794 47.9547 83.7887 48.0674 84.058C48.1801 84.3273 48.4909 84.4547 48.7615 84.3425Z" fill="#FAE0B2"/>
<path d="M52.253 83.8564C52.253 84.1446 52.0186 84.3848 51.7222 84.3848C51.4327 84.3848 51.1914 84.1515 51.1914 83.8564C51.1914 83.5683 51.4258 83.3281 51.7222 83.3281C52.0186 83.3281 52.253 83.5683 52.253 83.8564Z" fill="#FAE0B2"/>
<path d="M55.4049 83.9855C55.4721 83.7015 55.2952 83.4171 55.0098 83.3503C54.7245 83.2835 54.4387 83.4595 54.3716 83.7436C54.3044 84.0276 54.4813 84.312 54.7667 84.3788C55.0521 84.4456 55.3378 84.2695 55.4049 83.9855Z" fill="#FAE0B2"/>
<path d="M124.502 115.727H10.6523V115.933H124.502V115.727Z" fill="#1B1A2E"/>
<g opacity="0.8">
<path d="M100.103 39.2812H79.7024C79.2211 39.2812 78.8379 39.6627 78.8379 40.1417V56.4899C78.8379 56.9689 79.2211 57.3504 79.7024 57.3504H81.0838V60.2865L84.0338 57.3504H100.112C100.593 57.3504 100.976 56.9689 100.976 56.4899V40.1506C100.968 39.6715 100.584 39.2812 100.103 39.2812Z" fill="white"/>
<path d="M81.0272 60.3982V57.4H79.6903C79.1912 57.4 78.7812 56.992 78.7812 56.4952V40.147C78.7812 39.6502 79.1912 39.2422 79.6903 39.2422H100.091C100.59 39.2422 101 39.6502 101 40.147V56.4952C101 56.992 100.59 57.4 100.091 57.4H84.0307L81.0272 60.3982ZM79.6992 39.322C79.2447 39.322 78.8793 39.6857 78.8793 40.1381V56.4864C78.8793 56.9388 79.2447 57.3024 79.6992 57.3024H81.1252V60.1765L84.0129 57.3024H100.109C100.563 57.3024 100.929 56.9388 100.929 56.4864V40.147C100.929 39.6946 100.563 39.3309 100.109 39.3309H79.6992V39.322Z" fill="#1F4168"/>
<path d="M96.2651 46.4157H94.1707L91.9604 43.3199C91.8891 43.2223 91.7465 43.1957 91.6484 43.2667C91.5504 43.3376 91.5237 43.4795 91.595 43.5771L93.6181 46.4157H86.194L88.2171 43.5771C88.2884 43.4795 88.2617 43.3376 88.1637 43.2667C88.0656 43.1957 87.923 43.2223 87.8517 43.3199L85.6415 46.4157H83.547C83.4223 46.4157 83.3242 46.5132 83.3242 46.6374C83.3242 46.7616 83.4223 46.8592 83.547 46.8592H84.3046L86.0158 53.2193C86.0158 53.2282 86.0247 53.2282 86.0247 53.237C86.0247 53.2459 86.0247 53.2459 86.0336 53.2548C86.0425 53.2637 86.0425 53.2814 86.0514 53.2903C86.0603 53.2991 86.0692 53.308 86.0782 53.3258L86.0871 53.3346C86.096 53.3435 86.1049 53.3435 86.1138 53.3524L86.1227 53.3612C86.1316 53.3701 86.1406 53.3701 86.1495 53.3701C86.1584 53.3701 86.1584 53.3701 86.1673 53.379C86.1762 53.379 86.1851 53.3878 86.194 53.3878H86.2029C86.2208 53.3878 86.2297 53.3878 86.2475 53.3878H88.0835H91.7643H93.6003C93.6181 53.3878 93.627 53.3878 93.6448 53.3878C93.6538 53.3878 93.6537 53.3878 93.6537 53.3878C93.6627 53.3878 93.6716 53.379 93.6805 53.379C93.6894 53.379 93.6894 53.379 93.6983 53.3701C93.7072 53.3701 93.7161 53.3612 93.7251 53.3612L93.734 53.3524C93.7429 53.3435 93.7518 53.3435 93.7607 53.3346L93.7696 53.3258C93.7785 53.3169 93.7874 53.308 93.7964 53.2903C93.8053 53.2814 93.8053 53.2725 93.8142 53.2548C93.8142 53.2548 93.8142 53.2459 93.8231 53.237C93.8231 53.2282 93.832 53.2282 93.832 53.2193L95.5075 46.8681H96.2651C96.3899 46.8681 96.4879 46.7705 96.4879 46.6463C96.4879 46.5221 96.3899 46.4157 96.2651 46.4157ZM93.9924 50.7711H92.2901L92.5219 49.0502H94.4559L93.9924 50.7711ZM93.4042 52.9443H91.996L92.2278 51.2146H93.8677L93.4042 52.9443ZM90.1244 52.9443V51.2146H91.7732L91.5415 52.9443H90.1244ZM88.2528 52.9443L88.0211 51.2146H89.6699V52.9443H88.2528ZM86.3901 52.9443L85.9267 51.2146H87.5665L87.7983 52.9443H86.3901ZM89.6699 49.0502V50.7711H87.9587L87.727 49.0502H89.6699ZM87.6646 48.5978L87.4329 46.8769H89.6699V48.5978H87.6646ZM87.5042 50.7711H85.8019L85.3384 49.0502H87.2724L87.5042 50.7711ZM91.8356 50.7711H90.1244V49.0502H92.0673L91.8356 50.7711ZM90.1244 48.5978V46.8681H92.3614L92.1297 48.5889H90.1244V48.5978ZM86.9783 46.8681L87.21 48.5889H85.2137L84.7502 46.8681H86.9783ZM94.5717 48.5978H92.5753L92.8071 46.8769H95.0352L94.5717 48.5978Z" fill="#5E718D"/>
<path d="M94.8415 47.53L94.3691 47.0599L94.5117 46.918L94.8415 47.2373L95.5902 46.4922L95.7328 46.643L94.8415 47.53Z" fill="white"/>
</g>
<path d="M47.665 47.0234L46.6615 53.5273L35.1211 56.0288L36.6264 65.0341L41.1422 95.5521L62.2159 96.0524" stroke="#99B6F1" stroke-width="1.2"/>
<path d="M77.8014 105.797L78.0585 108.243C78.0585 108.243 80.3247 111.279 81.1135 115.313H57.5977C57.5977 115.313 58.2601 111.839 59.8856 110.074V107.519L77.8014 105.797Z" fill="#F97CAA"/>
<path d="M84.4005 104.3L83.5202 105.788C83.128 107.202 80.3563 110.151 78.0335 105.909L77.249 106.369L77.0573 106.482C76.4951 106.811 75.8065 106.846 75.2138 106.581L74.9436 106.46C74.9436 106.46 73.5796 107.024 71.7361 107.471C70.7382 107.713 69.6051 107.917 68.4633 107.982C67.8139 108.021 67.1646 108.013 66.5414 107.939C66.5414 107.939 62.2923 108.264 60.8193 108.004L59.9434 108.273C59.4858 108.412 58.989 108.312 58.6229 108.008C58.5052 107.909 58.4355 107.765 58.4355 107.614C58.4355 107.601 58.4355 107.592 58.4355 107.579C58.5009 106.568 58.7144 102.816 58.3745 99.7541C58.3745 99.7541 58.174 102.747 56.6531 103.211C55.1321 103.675 52.1643 102.582 51.5804 100.526C50.9964 98.4703 52.7439 97.811 52.7439 97.811C52.7439 97.811 52.1077 90.7973 55.4067 87.0584C55.8251 86.5812 56.3306 86.1909 56.8884 85.8873L62.3534 82.9334L63.0158 80.6996L72.0063 79.2553C72.4944 79.1772 72.9869 79.3203 73.3573 79.6456L74.1243 80.3223C74.1243 80.3223 77.9332 82.0746 80.7747 84.1349C81.8642 84.9243 82.5091 86.1822 82.5091 87.5225V95.8808L83.3589 100.149L84.2785 101.428C84.8843 102.274 84.9322 103.402 84.4005 104.3Z" fill="#F97CAA"/>
<path d="M72.314 79.7073C70.2309 83.0385 67.202 84.253 67.202 84.253L63.5195 81.2385L64.0991 75.5L71.8738 76.5367L71.6995 78.7705C71.6821 78.9917 71.7692 79.2129 71.9348 79.3647L72.314 79.7073Z" fill="#FFC89F"/>
<path d="M75.6907 76.8565C75.6907 76.8565 77.094 78.1664 76.4229 79.3245C76.4229 79.3245 76.4403 78.9775 76.3008 78.8257C76.3008 78.8257 76.3183 79.6238 75.6602 79.9014C75.6602 79.9014 76.035 79.0383 75.2985 78.4961C75.2985 78.4961 74.9542 79.0122 74.3702 78.791C74.3702 78.791 74.453 78.9862 74.8191 79.0556C74.8191 79.0556 74.0957 79.3375 73.4071 78.804C73.4071 78.804 72.5617 79.2898 71.507 78.6349L64.0156 77.7023C63.6495 75.7852 62.4642 66.4683 68.975 64.3906C68.975 64.3906 77.5167 68.2987 76.6931 72.107C75.8738 75.9196 75.6907 76.8565 75.6907 76.8565Z" fill="#10215F"/>
<path d="M72.0608 74.555L71.3156 80.4843L64.1641 81.213L65.1097 73.6875L72.0608 74.555Z" fill="#FFC89F"/>
<path d="M69.0618 79.0907C66.5037 78.774 64.6907 76.4492 65.0089 73.9031L65.7149 68.273C66.033 65.7269 68.3689 63.9225 70.927 64.2392C73.4852 64.5558 75.2981 66.8807 74.98 69.4268L74.2696 75.0568C73.9515 77.6029 71.62 79.4073 69.0618 79.0907Z" fill="#FFC89F"/>
<path d="M71.5408 78.7266L71.4232 79.6591C70.8305 79.6288 69.8761 79.5333 69.0742 79.0042C69.7497 79.2557 70.9089 79.0432 71.5408 78.7266Z" fill="#FF9A6C"/>
<path d="M69.1237 64.9658C69.1237 64.9658 70.3614 64.6839 71.9259 66.3191C73.4904 67.9543 74.3838 70.6002 76.1749 71.8797C76.1749 71.8797 76.2011 76.3994 73.9959 77.397C73.9959 77.397 75.5561 77.8914 76.2447 75.8225C76.2447 75.8225 78.8464 74.0788 75.6912 66.4015C75.1988 64.6708 70.7579 60.3507 65.1666 63.5995C65.1666 63.5995 62.4952 64.6318 61.179 69.2512C61.179 69.2512 58.2025 75.4451 63.2578 77.4447C63.2578 77.4447 64.5826 79.119 65.9903 78.2037C65.9903 78.2037 65.1361 77.8134 64.8703 77.371C64.8703 77.371 66.4871 78.3859 67.5374 77.7743C67.5374 77.7743 65.5196 77.1975 65.0664 76.1391C65.0664 76.1391 65.877 77.1888 66.888 76.3169C66.888 76.3169 63.1794 75.6143 64.4083 70.6435C64.4083 70.6435 66.9316 72.2397 67.6681 69.1514C68.3828 66.1543 69.1237 64.9658 69.1237 64.9658Z" fill="#10215F"/>
<path d="M76.2497 75.8151C76.3412 75.763 76.4284 75.7023 76.5112 75.6372C76.594 75.5722 76.6724 75.4984 76.7465 75.4247C76.8947 75.2729 77.0254 75.1081 77.1387 74.9302C77.2477 74.7524 77.3435 74.5659 77.4133 74.3664C77.483 74.1712 77.5396 73.9673 77.5789 73.7635C77.6181 73.5553 77.6442 73.3471 77.653 73.1345C77.6573 73.0825 77.6573 73.0304 77.6573 72.974V72.8136C77.6486 72.7095 77.6486 72.601 77.6355 72.4969C77.5919 72.0718 77.4874 71.6555 77.3523 71.2564C77.0603 70.4583 76.7596 69.6515 76.4807 68.8448C76.2017 68.0337 75.9446 67.2226 75.6875 66.4028L75.7006 66.3984C75.8749 66.7888 76.0318 67.1879 76.1887 67.5869C76.3456 67.9859 76.4894 68.3893 76.6332 68.7884C76.777 69.1918 76.9121 69.5995 77.0428 70.0029C77.1126 70.2067 77.1779 70.4106 77.2433 70.6145C77.2782 70.7142 77.3087 70.8183 77.3392 70.9224L77.4263 71.2304C77.5396 71.6468 77.6225 72.0675 77.6791 72.4926C77.7358 72.9177 77.7576 73.3514 77.6965 73.7851C77.6312 74.2146 77.4786 74.6353 77.2302 74.9996C76.9818 75.3553 76.6463 75.6633 76.2453 75.8324L76.2497 75.8151Z" fill="#10215F"/>
<path d="M69.1342 64.9696C68.8422 65.6766 68.6156 66.401 68.3934 67.134C68.3411 67.3162 68.2757 67.4984 68.2278 67.6805L68.145 67.9538C68.1188 68.0449 68.0927 68.136 68.0709 68.2314C67.975 68.6001 67.9053 68.9774 67.8486 69.3548C67.8181 69.5413 67.792 69.7365 67.744 69.923C67.6961 70.1095 67.6307 70.296 67.5436 70.4739C67.452 70.6474 67.3344 70.8165 67.1818 70.951C67.1034 71.0204 67.0206 71.0768 66.9291 71.1245C66.8376 71.1722 66.7417 71.2069 66.6415 71.2286C66.441 71.2763 66.2405 71.2763 66.0401 71.2546C65.8439 71.2329 65.6522 71.1852 65.4648 71.1245C65.0944 71.003 64.7457 70.8382 64.4102 70.6474L64.4189 70.6343C64.7762 70.7775 65.1336 70.9119 65.4997 71.003C65.6827 71.0507 65.8701 71.0854 66.0531 71.0985C66.2362 71.1158 66.4236 71.1071 66.5979 71.0638C66.7722 71.0204 66.9378 70.9423 67.0729 70.8295C67.2124 70.7168 67.3257 70.5693 67.4128 70.4088C67.5043 70.2483 67.5741 70.0748 67.6307 69.8926C67.6612 69.8016 67.6874 69.7105 67.7092 69.6194C67.731 69.5283 67.7527 69.4329 67.7702 69.3418L68.0055 68.2184C68.0273 68.123 68.0447 68.0319 68.0622 67.9364L68.1232 67.6545C68.1624 67.468 68.206 67.2815 68.2539 67.095C68.3062 66.9085 68.3585 66.7263 68.4239 66.5441C68.4849 66.3619 68.5503 66.1798 68.62 66.0019C68.7594 65.6463 68.9163 65.2906 69.1124 64.9609L69.1342 64.9696Z" fill="#10215F"/>
<path d="M64.7053 73.6233H64.714C65.25 73.6883 65.7381 73.311 65.8035 72.7818L65.9647 71.4979C66.0301 70.9644 65.651 70.4786 65.1193 70.4135H65.1106C64.5745 70.3485 64.0864 70.7258 64.0211 71.255L63.8598 72.5389C63.7901 73.0724 64.1692 73.5582 64.7053 73.6233Z" fill="#FFC89F"/>
<path d="M65.3126 70.9813C65.2298 70.9856 65.147 70.9943 65.0729 71.0116C64.9944 71.0333 64.9247 71.0637 64.855 71.1027C64.7896 71.1418 64.7286 71.1938 64.6763 71.2502C64.624 71.3066 64.5761 71.3673 64.5456 71.441C64.5107 71.5104 64.4846 71.5842 64.4715 71.6579C64.4584 71.736 64.4453 71.8184 64.4323 71.9008C64.4061 72.0613 64.3713 72.2261 64.332 72.3866C64.332 72.2218 64.3407 72.057 64.3538 71.8921C64.3582 71.8097 64.3669 71.7317 64.3756 71.6449C64.3843 71.5582 64.4148 71.4757 64.4541 71.3977C64.5325 71.2415 64.6632 71.1114 64.8201 71.0377C64.8986 70.9986 64.9814 70.9769 65.0685 70.9683C65.147 70.9552 65.2298 70.9596 65.3126 70.9813Z" fill="#FF9A6C"/>
<path d="M64.7695 72.6776C64.7913 72.6299 64.8131 72.5909 64.8349 72.5475L64.8959 72.4304L64.9569 72.3133C64.9787 72.2743 65.0005 72.2309 65.0267 72.1875C65.0441 72.2352 65.0441 72.2873 65.0354 72.3393C65.0267 72.387 65.0136 72.4391 64.9874 72.4825C64.9656 72.5258 64.9351 72.5692 64.8959 72.6039C64.8611 72.6299 64.8218 72.6603 64.7695 72.6776Z" fill="#FF9A6C"/>
<path d="M65.1076 73.966C65.3014 73.816 65.3363 73.538 65.1856 73.3451C65.0349 73.1522 64.7556 73.1175 64.5618 73.2675C64.368 73.4175 64.3331 73.6954 64.4838 73.8883C64.6345 74.0812 64.9138 74.116 65.1076 73.966Z" fill="#F97CAA"/>
<g opacity="0.4">
<path d="M83.4249 101.281C83.4249 101.281 83.4249 103.172 81.7078 104.326C80.7229 104.99 79.7031 104.63 79.7031 104.63C79.7031 104.63 80.1694 104.829 80.9277 105.011C81.5422 105.163 82.1872 104.912 82.5358 104.387C82.9586 103.745 83.4249 102.713 83.4249 101.281Z" fill="#A34669"/>
</g>
<path d="M71.6705 113.066L71.3158 99.1168L69.4743 97.0312L67.5625 100.732L68.573 113.854C69.6536 113.753 70.726 113.44 71.6705 113.066Z" fill="#E279A0"/>
<path d="M76.1408 92.3967C75.9926 92.3186 75.8488 92.2232 75.7137 92.1234C75.5786 92.0236 75.4479 91.9109 75.3259 91.7981C75.2038 91.681 75.0905 91.5552 74.9859 91.4207C74.8813 91.2906 74.7898 91.1475 74.707 91C74.7593 91.0694 74.8029 91.1388 74.8552 91.2039L74.9293 91.3036L75.0121 91.399C75.0644 91.4641 75.121 91.5248 75.1777 91.5856C75.2343 91.6463 75.2954 91.707 75.3564 91.7634C75.474 91.8805 75.6048 91.9889 75.7355 92.0974C75.8009 92.1494 75.8663 92.2015 75.936 92.2492C76.0014 92.3012 76.0711 92.349 76.1408 92.3967Z" fill="#A65B3C"/>
<path d="M82.3057 97.6953C82.6761 98.2245 82.9594 98.81 83.1642 99.4216C83.3647 100.033 83.4823 100.679 83.4388 101.326C83.3995 101.972 83.1991 102.605 82.8504 103.148C82.7633 103.282 82.6674 103.412 82.5672 103.538C82.4669 103.664 82.3536 103.781 82.2403 103.898C82.0093 104.123 81.7522 104.327 81.4646 104.475C81.177 104.622 80.8588 104.713 80.532 104.731C80.2051 104.748 79.8783 104.696 79.5732 104.588C79.2682 104.479 78.9805 104.314 78.7234 104.115C78.4663 103.915 78.2353 103.681 78.0436 103.421C77.8518 103.161 77.6906 102.874 77.586 102.566C77.5337 102.414 77.4988 102.254 77.4814 102.094C77.4727 102.011 77.4727 101.933 77.4727 101.851C77.477 101.768 77.4857 101.686 77.5032 101.608C77.5206 101.53 77.5467 101.452 77.5729 101.373L77.647 101.144C77.6949 100.992 77.7472 100.836 77.7995 100.684C77.8518 100.532 77.9041 100.38 77.9608 100.228C78.0174 100.077 78.0741 99.9248 78.1307 99.7773H78.1351C77.9302 100.385 77.7211 100.996 77.5511 101.616C77.4814 101.929 77.5337 102.254 77.6339 102.553C77.7385 102.857 77.8954 103.139 78.0828 103.395C78.2745 103.651 78.5011 103.885 78.7495 104.08C79.0023 104.28 79.2856 104.44 79.5863 104.549C79.887 104.661 80.2095 104.713 80.532 104.7C80.8545 104.687 81.1682 104.601 81.4559 104.453C81.7435 104.31 82.0006 104.11 82.2316 103.885C82.4626 103.659 82.663 103.408 82.833 103.135C83.1773 102.592 83.3734 101.959 83.4039 101.317C83.4388 100.675 83.3342 100.033 83.1337 99.4216C83.0335 99.118 82.9158 98.8187 82.772 98.5281C82.6369 98.2462 82.48 97.9642 82.3057 97.6953Z" fill="#A34669"/>
<path d="M61.2138 102.934L48.1133 102.273L47.5732 112.891L60.6737 113.551L61.2138 102.934Z" fill="#B3C7EE"/>
<path d="M70.1332 103.387L61.2109 102.938L60.6708 113.555L69.5931 114.004L70.1332 103.387Z" fill="#99B6F1"/>
<path d="M53.2894 111.867L53.0062 111.854C52.9931 111.854 52.9844 111.845 52.9844 111.832C52.9844 111.819 52.9931 111.81 53.0062 111.81L53.2459 111.824L53.2589 111.584C53.2589 111.571 53.272 111.562 53.2807 111.562C53.2938 111.562 53.3025 111.571 53.3025 111.584L53.2894 111.867Z" fill="white"/>
<path d="M52.44 111.82C52.4356 111.82 52.4356 111.82 52.44 111.82L51.8734 111.789C51.8604 111.789 51.8517 111.781 51.8517 111.768C51.8517 111.755 51.8647 111.746 51.8734 111.746L52.44 111.776C52.4531 111.776 52.4618 111.785 52.4618 111.798C52.4574 111.811 52.4487 111.82 52.44 111.82ZM51.3069 111.763L50.7404 111.733C50.7273 111.733 50.7186 111.724 50.7186 111.711C50.7186 111.698 50.7316 111.689 50.7404 111.689L51.3069 111.72C51.32 111.72 51.3287 111.729 51.3287 111.742C51.3287 111.755 51.32 111.763 51.3069 111.763ZM50.1782 111.707C50.1738 111.707 50.1738 111.707 50.1782 111.707L49.6116 111.676C49.5986 111.676 49.5898 111.668 49.5898 111.655C49.5898 111.642 49.6029 111.633 49.6116 111.633L50.1782 111.663C50.1912 111.663 50.2 111.672 50.2 111.685C50.1956 111.698 50.1869 111.707 50.1782 111.707Z" fill="white"/>
<path d="M49.0489 111.653L48.7656 111.64L48.7787 111.358C48.7787 111.345 48.7918 111.336 48.8005 111.336C48.8136 111.336 48.8223 111.345 48.8223 111.358L48.8092 111.597L49.0489 111.61C49.062 111.61 49.0707 111.619 49.0707 111.632C49.0707 111.645 49.062 111.653 49.0489 111.653Z" fill="white"/>
<path d="M48.8265 110.846C48.8134 110.846 48.8047 110.837 48.8047 110.824L48.8308 110.295C48.8308 110.282 48.8439 110.273 48.8526 110.273C48.8657 110.273 48.8744 110.282 48.8744 110.295L48.8483 110.824C48.8483 110.837 48.8396 110.846 48.8265 110.846Z" fill="white"/>
<path d="M48.8851 109.797C48.872 109.797 48.8633 109.788 48.8633 109.775L48.8764 109.492L49.1596 109.505C49.1727 109.505 49.1814 109.514 49.1814 109.527C49.1814 109.54 49.1683 109.549 49.1596 109.549L48.9199 109.536L48.9069 109.775C48.9069 109.788 48.8938 109.797 48.8851 109.797Z" fill="white"/>
<path d="M52.5455 109.718L51.9789 109.688C51.9658 109.688 51.9571 109.679 51.9571 109.666C51.9571 109.653 51.9702 109.644 51.9789 109.644L52.5455 109.675C52.5585 109.675 52.5672 109.684 52.5672 109.697C52.5672 109.71 52.5585 109.718 52.5455 109.718ZM51.4167 109.662C51.4167 109.662 51.4124 109.662 51.4167 109.662L50.8502 109.631C50.8371 109.631 50.8284 109.623 50.8284 109.61C50.8284 109.597 50.8415 109.588 50.8502 109.588L51.4167 109.618C51.4298 109.618 51.4385 109.627 51.4385 109.64C51.4342 109.653 51.4254 109.662 51.4167 109.662ZM50.2836 109.605L49.7171 109.575C49.704 109.575 49.6953 109.566 49.6953 109.553C49.6953 109.54 49.7084 109.531 49.7171 109.531L50.2836 109.562C50.2967 109.562 50.3054 109.57 50.3054 109.583C50.3054 109.597 50.2967 109.605 50.2836 109.605Z" fill="white"/>
<path d="M53.3639 110.021C53.3509 110.021 53.3422 110.012 53.3422 109.999L53.3552 109.76L53.1155 109.747C53.1025 109.747 53.0938 109.738 53.0938 109.725C53.0938 109.712 53.1068 109.703 53.1155 109.703L53.3988 109.716L53.3857 109.999C53.3857 110.012 53.3727 110.021 53.3639 110.021Z" fill="white"/>
<path d="M53.3069 111.065C53.2939 111.065 53.2852 111.056 53.2852 111.043L53.3113 110.514C53.3113 110.501 53.3244 110.492 53.3331 110.492C53.3462 110.492 53.3549 110.501 53.3549 110.514L53.3287 111.043C53.3287 111.056 53.32 111.065 53.3069 111.065Z" fill="white"/>
<path d="M52.2606 110.059L49.2227 109.906L49.2059 110.236L52.2438 110.39L52.2606 110.059Z" fill="white"/>
<path d="M50.7065 110.639L49.1875 110.562L49.1707 110.893L50.6897 110.969L50.7065 110.639Z" fill="white"/>
<path d="M60.2226 103.858L59.0039 103.797L58.9303 105.244L60.149 105.305L60.2226 103.858Z" fill="white"/>
<path d="M58.4022 103.765L57.1836 103.703L57.11 105.15L58.3286 105.211L58.4022 103.765Z" fill="white"/>
<path d="M56.5897 103.671L55.3711 103.609L55.2975 105.056L56.5161 105.118L56.5897 103.671Z" fill="white"/>
<path d="M59.9521 98.3633L46.8516 97.7031L46.6233 102.191L59.7238 102.851L59.9521 98.3633Z" fill="#B3C7EE"/>
<path d="M68.8793 98.8246L59.957 98.375L59.7287 102.863L68.651 103.312L68.8793 98.8246Z" fill="#99B6F1"/>
<path d="M60.2115 96.4867L46.5234 95.7969L46.426 97.7115L60.1141 98.4013L60.2115 96.4867Z" fill="#B3C7EE"/>
<path d="M69.407 96.9398L60.2148 96.4766L60.1174 98.3912L69.3096 98.8545L69.407 96.9398Z" fill="#99B6F1"/>
<path d="M59.9561 98.3946L46.8555 97.7344L46.844 97.9603L59.9446 98.6205L59.9561 98.3946Z" fill="#99B6F1"/>
<path d="M52.0512 101.414L51.7679 101.401C51.7548 101.401 51.7461 101.392 51.7461 101.379C51.7461 101.366 51.7592 101.357 51.7679 101.357L52.0076 101.37L52.0206 101.131C52.0206 101.118 52.0337 101.109 52.0424 101.109C52.0555 101.109 52.0642 101.118 52.0642 101.131L52.0512 101.414Z" fill="white"/>
<path d="M51.2017 101.367C51.1973 101.367 51.1973 101.367 51.2017 101.367L50.6352 101.336C50.6221 101.336 50.6134 101.328 50.6134 101.315C50.6134 101.301 50.6264 101.293 50.6352 101.293L51.2017 101.323C51.2148 101.323 51.2235 101.332 51.2235 101.345C51.2191 101.358 51.2104 101.367 51.2017 101.367ZM50.0686 101.31L49.5021 101.28C49.489 101.28 49.4803 101.271 49.4803 101.258C49.4803 101.245 49.4934 101.236 49.5021 101.236L50.0686 101.267C50.0817 101.267 50.0904 101.275 50.0904 101.288C50.0904 101.301 50.0817 101.31 50.0686 101.31ZM48.9399 101.254C48.9355 101.254 48.9355 101.254 48.9399 101.254L48.3734 101.223C48.3603 101.223 48.3516 101.214 48.3516 101.201C48.3516 101.188 48.3646 101.18 48.3734 101.18L48.9399 101.21C48.953 101.21 48.9617 101.219 48.9617 101.232C48.9573 101.245 48.9486 101.254 48.9399 101.254Z" fill="white"/>
<path d="M47.8106 101.2L47.5273 101.187L47.5404 100.905C47.5404 100.892 47.5491 100.883 47.5622 100.883C47.5753 100.883 47.584 100.892 47.584 100.905L47.5709 101.144L47.8106 101.157C47.8237 101.157 47.8324 101.166 47.8324 101.179C47.8324 101.187 47.8237 101.2 47.8106 101.2Z" fill="white"/>
<path d="M47.5882 100.393C47.5751 100.393 47.5664 100.384 47.5664 100.371L47.5926 99.842C47.5926 99.829 47.6056 99.8203 47.6143 99.8203C47.6274 99.8203 47.6361 99.829 47.6361 99.842L47.61 100.371C47.61 100.384 47.6013 100.393 47.5882 100.393Z" fill="white"/>
<path d="M47.6468 99.3436C47.6337 99.3436 47.625 99.3349 47.625 99.3218L47.6381 99.0391L47.9213 99.0521C47.9344 99.0521 47.9431 99.0608 47.9431 99.0739C47.9431 99.0869 47.9301 99.0956 47.9213 99.0956L47.6817 99.0826L47.6686 99.3218C47.6686 99.3349 47.6555 99.3436 47.6468 99.3436Z" fill="white"/>
<path d="M51.3111 99.2574L50.7445 99.2269C50.7315 99.2269 50.7227 99.2182 50.7227 99.2052C50.7227 99.1921 50.7358 99.1834 50.7445 99.1834L51.3111 99.2139C51.3241 99.2139 51.3329 99.2226 51.3329 99.2356C51.3329 99.2487 51.3241 99.2574 51.3111 99.2574ZM50.1824 99.2008C50.1824 99.2008 50.178 99.2008 50.1824 99.2008L49.6158 99.1704C49.6027 99.1704 49.594 99.1617 49.594 99.1486C49.594 99.1356 49.6071 99.1269 49.6158 99.1269L50.1824 99.1573C50.1954 99.1573 50.2041 99.166 50.2041 99.1791C50.1998 99.1921 50.1911 99.2008 50.1824 99.2008ZM49.0493 99.1443L48.4827 99.1138C48.4697 99.1138 48.4609 99.1051 48.4609 99.0921C48.4609 99.079 48.474 99.0703 48.4827 99.0703L49.0493 99.1008C49.0623 99.1008 49.0711 99.1095 49.0711 99.1225C49.0711 99.1356 49.0623 99.1443 49.0493 99.1443Z" fill="white"/>
<path d="M52.1257 99.5597C52.1126 99.5597 52.1039 99.551 52.1039 99.538L52.1169 99.2987L51.8773 99.2857C51.8642 99.2857 51.8555 99.277 51.8555 99.2639C51.8555 99.2509 51.8685 99.2422 51.8773 99.2422L52.1605 99.2552L52.1475 99.538C52.1475 99.551 52.1344 99.5597 52.1257 99.5597Z" fill="white"/>
<path d="M52.0687 100.612C52.0556 100.612 52.0469 100.603 52.0469 100.59L52.073 100.061C52.073 100.048 52.0861 100.039 52.0948 100.039C52.1079 100.039 52.1166 100.048 52.1166 100.061L52.0905 100.59C52.0905 100.603 52.0817 100.612 52.0687 100.612Z" fill="white"/>
<path d="M51.0262 99.6062L47.9883 99.4531L47.9715 99.7833L51.0094 99.9364L51.0262 99.6062Z" fill="white"/>
<path d="M49.476 100.194L47.957 100.117L47.9402 100.447L49.4592 100.524L49.476 100.194Z" fill="white"/>
<path d="M60.2105 96.4641L60.1582 97.4227L50.1914 95.9609L60.2105 96.4641Z" fill="#99B6F1"/>
<path d="M48.1136 102.273L48.0352 103.796L59.7277 102.859L48.1136 102.273Z" fill="#99B6F1"/>
<g opacity="0.4">
<path d="M49.8326 107.211C49.8326 107.211 49.1571 109.809 52.0639 113.106L48.9174 112.945C48.9174 112.95 47.4269 106.843 49.8326 107.211Z" fill="#99B6F1"/>
</g>
<path d="M85.4226 83.5378L83.8275 86.4569L80.9207 91.779L80.7377 92.1086L80.6985 92.178C80.5067 92.5337 80.1319 92.7549 79.7266 92.7549H75.4427C75.1072 92.7549 74.8936 92.3992 75.0549 92.1043L76.7327 89.029L79.7746 83.4597C79.9663 83.104 80.3411 82.8828 80.7464 82.8828H85.0303C85.3703 82.8871 85.5838 83.2428 85.4226 83.5378Z" fill="#1F4168"/>
<path d="M85.4705 83.2551C85.4095 83.2247 85.3397 83.2073 85.2656 83.2073H80.9861C80.5808 83.2073 80.206 83.4286 80.0142 83.7842L75.2945 92.4245C75.2422 92.5155 75.2292 92.6153 75.2466 92.7064C75.0374 92.598 74.9372 92.3334 75.0636 92.1078L79.7833 83.4676C79.975 83.1119 80.3498 82.8907 80.7551 82.8907H85.039C85.2656 82.8864 85.44 83.0512 85.4705 83.2551Z" fill="#112E4C"/>
<path d="M80.6614 85.5665H79.8247C79.7593 85.5665 79.7157 85.4971 79.7506 85.4407L80.6745 83.7534C80.7137 83.684 80.7835 83.6406 80.8663 83.6406H81.703C81.7684 83.6406 81.812 83.71 81.7771 83.7664L80.8532 85.4537C80.814 85.5231 80.7399 85.5665 80.6614 85.5665Z" fill="#1B1A2E"/>
<g opacity="0.4">
<path d="M80.2971 86.8359C80.2971 86.8359 79.809 87.9116 79.809 89.7811C79.809 89.8375 79.809 89.8939 79.8134 89.9502C79.1509 89.3517 78.2706 88.983 77.3031 88.983C77.1114 88.983 76.9196 88.996 76.7366 89.0264L75.0588 92.1016C74.8975 92.3966 75.1111 92.7522 75.4466 92.7522H79.7306C80.1358 92.7522 80.5106 92.531 80.7024 92.1754L80.7416 92.106L80.9247 91.7763L82.0882 89.651C82.0839 89.6466 80.5106 86.8359 80.2971 86.8359Z" fill="#1F4168"/>
</g>
<path d="M82.2994 97.6946C82.2994 97.6946 82.8964 100.618 80.0245 103.19C80.0245 103.19 78.3161 102.544 78.1244 99.7809L78.4469 98.2888C78.5558 97.7813 78.3902 97.2565 78.0067 96.9008L77.8585 96.7664C77.5884 96.5148 77.4097 96.1808 77.3617 95.8165L77.3269 95.5475C77.2877 95.2526 77.1351 94.9837 76.9042 94.7972L75.8408 93.934L74.7077 92.867C74.6554 92.8193 74.6075 92.7672 74.5639 92.7152L73.9843 91.9995C73.8492 91.8347 73.8623 91.5961 74.0104 91.4443C74.1717 91.2795 74.4375 91.2751 74.6031 91.4313L75.296 92.0862C75.3527 92.1383 75.4094 92.186 75.4704 92.2294L77.767 93.8386L77.1656 93.0925C77.0785 92.9841 76.9739 92.8887 76.8606 92.8063L75.5967 91.8911L74.638 91.0192C74.4637 90.8631 74.4419 90.6028 74.5813 90.4163C74.7208 90.2298 74.9823 90.1821 75.1784 90.3035L76.5381 91.1277L77.937 91.9127C78.0067 91.9518 78.0765 91.9995 78.1418 92.0515L78.6256 92.4376C78.8217 92.5937 79.0962 92.6154 79.3185 92.494L78.643 91.787C78.5515 91.6872 78.4469 91.6004 78.3423 91.518L76.7124 90.2732L75.9192 89.6486C75.6752 89.4577 75.6273 89.1064 75.8059 88.8548C75.9846 88.6076 76.3289 88.5382 76.5904 88.6987L77.9196 89.5228L79.641 90.6852C79.7674 90.772 79.8894 90.8717 79.9983 90.9802L80.5649 91.5354L80.7305 89.9522L80.4734 88.0611C80.4734 88.0611 79.8676 86.5343 80.7784 86.1699C81.0137 86.0745 81.2752 86.222 81.3275 86.4692L81.6108 87.8876L82.003 88.8201C82.1381 89.1368 82.2209 89.4751 82.2558 89.8177L82.3996 91.3402L82.5216 91.8564C82.6088 92.2164 82.5696 92.5981 82.4127 92.932C82.2122 93.3658 81.9333 93.9644 81.7938 94.294C81.5629 94.8449 81.5193 95.4261 81.711 95.99L82.2994 97.6946Z" fill="#FFC89F"/>
<path d="M80.5703 91.5469C80.6923 91.677 80.8013 91.8158 80.9015 91.9589C81.0018 92.1021 81.102 92.2539 81.1761 92.4144L80.8667 91.985C80.7664 91.8418 80.6618 91.6943 80.5703 91.5469Z" fill="#FF9A6C"/>
<path d="M79.3281 92.5C79.4589 92.6128 79.5765 92.7429 79.6855 92.8774C79.7944 93.0118 79.8947 93.155 79.9687 93.3111C79.8642 93.1723 79.7596 93.0378 79.6506 92.9034C79.546 92.7689 79.4371 92.6388 79.3281 92.5Z" fill="#FF9A6C"/>
<path d="M78.5 92.3281C78.5872 92.3845 78.6656 92.4452 78.7484 92.5103C78.8268 92.5754 78.9053 92.6404 78.9794 92.7098C79.0535 92.7792 79.1276 92.8486 79.1973 92.9267C79.267 93.0004 79.3324 93.0785 79.3934 93.1609L79.1711 92.9527L78.9489 92.7445L78.7223 92.5363L78.609 92.4322L78.5 92.3281Z" fill="#FF9A6C"/>
<path d="M81.887 94.1016C81.8434 94.1926 81.778 94.2751 81.7083 94.3488C81.6386 94.4225 81.5514 94.4876 81.4642 94.5353C81.3727 94.5874 81.2768 94.6264 81.1766 94.6481C81.1287 94.6611 81.0764 94.6654 81.0241 94.6741C80.9979 94.6784 80.9718 94.6741 80.9456 94.6784C80.9195 94.6784 80.8933 94.6784 80.8672 94.6784C80.9674 94.6654 81.0677 94.6524 81.1635 94.6221C81.2594 94.596 81.3509 94.5527 81.4381 94.5049C81.5253 94.4572 81.6081 94.3965 81.6821 94.3314C81.7214 94.2967 81.7562 94.262 81.7911 94.223C81.826 94.1796 81.8565 94.1406 81.887 94.1016Z" fill="#FF9A6C"/>
<path d="M80.5755 94.75C80.5624 94.7977 80.545 94.8411 80.5188 94.8801C80.4927 94.9192 80.4665 94.9582 80.4317 94.9929C80.3663 95.0623 80.2792 95.1144 80.1876 95.1491C80.0961 95.1838 80.0002 95.1968 79.9044 95.1968C79.8564 95.1968 79.8085 95.1881 79.7606 95.1881C79.7126 95.1794 79.669 95.1707 79.6211 95.1577C79.669 95.1577 79.717 95.1621 79.7606 95.1664C79.8085 95.1664 79.8521 95.1664 79.9 95.1664C79.9479 95.1621 79.9915 95.1621 80.0395 95.1491C80.0613 95.1447 80.083 95.1404 80.1048 95.136L80.1702 95.1143C80.3445 95.0493 80.4927 94.9235 80.5755 94.75Z" fill="#FF9A6C"/>
<path d="M79.1301 95.3828C79.1171 95.4609 79.0866 95.5346 79.043 95.5997C78.9994 95.6647 78.9384 95.7255 78.8687 95.7645C78.7989 95.8035 78.7161 95.8296 78.6377 95.8252H78.6072L78.5767 95.8209L78.5157 95.8122C78.4764 95.8035 78.4372 95.7949 78.4023 95.7819C78.4416 95.7819 78.4808 95.7905 78.52 95.7905H78.5767H78.6072L78.6333 95.7862L78.69 95.7775L78.7423 95.7645C78.7597 95.7602 78.7771 95.7515 78.7946 95.7472L78.8207 95.7385C78.8294 95.7341 78.8381 95.7298 78.8469 95.7255C78.9122 95.6908 78.9689 95.6387 79.0168 95.578C79.0604 95.5216 79.0996 95.4565 79.1301 95.3828Z" fill="#FF9A6C"/>
<path d="M47.9535 105.393L48.093 102.617C48.093 102.617 46.3498 102.916 45.1077 104.972C44.6196 105.784 44.5194 106.768 44.8288 107.666L46.1842 111.561C46.267 111.795 46.4108 112.003 46.5982 112.16L47.8663 113.222L48.7379 114.402C48.9166 114.645 49.2653 114.693 49.505 114.506L50.0671 114.059L50.4027 114.111C50.6119 114.146 50.8254 114.094 50.9954 113.968L51.4094 113.665L52.0544 113.11L50.394 113.027L49.5442 112.489L49.0648 110.108C48.9253 109.41 49.0081 108.681 49.3132 108.035L49.6357 107.336C49.6357 107.336 51.3571 107.093 51.1959 105.805C51.1654 105.562 50.9039 105.415 50.6773 105.515L50.0148 105.805L49.2435 105.792C48.3675 105.745 47.9535 105.393 47.9535 105.393Z" fill="#FFC89F"/>
<path d="M50.0793 114.061C49.7829 113.952 49.4909 113.84 49.199 113.722L48.9811 113.636C48.907 113.605 48.8329 113.579 48.7632 113.54C48.6237 113.462 48.5017 113.349 48.4189 113.211C48.3753 113.141 48.3448 113.068 48.3186 112.994L48.2402 112.773C48.1879 112.625 48.1312 112.478 48.0789 112.33L47.9221 111.888C47.8698 111.74 47.8175 111.593 47.7695 111.445C47.8305 111.588 47.8828 111.736 47.9439 111.883L48.1138 112.321C48.1705 112.469 48.2228 112.616 48.2794 112.76L48.3622 112.981C48.3884 113.055 48.4189 113.124 48.4581 113.189C48.5365 113.319 48.6498 113.432 48.7849 113.506C48.8503 113.545 48.9244 113.571 48.9985 113.601L49.2164 113.692C49.4997 113.814 49.7873 113.935 50.0793 114.061Z" fill="#FF9A6C"/>
<path d="M47.8753 113.223C47.775 113.106 47.6748 112.98 47.5789 112.859C47.483 112.737 47.3872 112.611 47.2913 112.49C47.1954 112.364 47.1039 112.238 47.0124 112.113L46.8773 111.922C46.8337 111.857 46.7858 111.792 46.7422 111.727C46.7945 111.787 46.8424 111.848 46.8904 111.909L47.0385 112.091C47.1344 112.212 47.2303 112.338 47.3262 112.46C47.422 112.585 47.5136 112.711 47.6051 112.837C47.6966 112.967 47.7881 113.093 47.8753 113.223Z" fill="#FF9A6C"/>
<path d="M47.0391 104.57C47.1001 104.653 47.1654 104.731 47.2352 104.809C47.3049 104.883 47.379 104.956 47.4531 105.026C47.5315 105.095 47.61 105.16 47.6928 105.221C47.7756 105.282 47.8627 105.338 47.9499 105.394C47.9019 105.373 47.854 105.351 47.8104 105.329C47.7669 105.303 47.7189 105.277 47.6753 105.251C47.5882 105.195 47.5054 105.13 47.4269 105.06C47.3485 104.991 47.2788 104.913 47.2134 104.835C47.1829 104.796 47.148 104.752 47.1219 104.709C47.0914 104.661 47.0652 104.618 47.0391 104.57Z" fill="#FF9A6C"/>
<path d="M49.6491 107.344C49.5227 107.387 49.3876 107.405 49.2525 107.413C49.1174 107.422 48.9823 107.413 48.8516 107.379C48.9867 107.379 49.1174 107.379 49.2525 107.37C49.3832 107.361 49.514 107.352 49.6491 107.344Z" fill="#FF9A6C"/>
<path d="M36.6096 70.4854L36.9791 68.8011L37.3458 69.6865L37.4095 68.4184L37.7954 69.6222L37.9271 67.8562L40.0016 82.2818L39.5762 81.6361L39.363 82.3731L39.0745 81.7078L38.8353 82.4486L38.4067 80.9939L38.3401 82.5194L36.6096 70.4854Z" fill="#F3F4F4"/>
<path d="M36.4413 71.9555L36.07 71.4522L35.9635 71.7585L36.4413 71.9555Z" fill="#F97CAA"/>
<path d="M37.1531 73.7467L36.3945 74.4391L36.7368 75.1895L37.1531 73.7467Z" fill="#F97CAA"/>
<path d="M37.5547 73.0703L38.3858 73.883L38.4875 73.3897L37.5547 73.0703Z" fill="#F97CAA"/>
<path d="M37.6738 77.6904L36.9796 76.1756L36.786 76.6836L37.6738 77.6904Z" fill="#F97CAA"/>
<path d="M38.8566 75.4935L38.3307 77.1337L39.0346 76.1921L38.8566 75.4935Z" fill="#F97CAA"/>
<path d="M37.8833 76.957L38.1945 76.3911L37.9346 76.1513L37.8833 76.957Z" fill="#F97CAA"/>
<path d="M38.2676 74.8603L37.7344 74.1406L38.0845 75.1868L38.2676 74.8603Z" fill="#F97CAA"/>
<path d="M38.4041 78.338L38.7949 78.0407L38.87 78.5056L38.4041 78.338Z" fill="#F97CAA"/>
<path d="M37.4492 71.7891L38.0507 72.4822L37.9512 71.7085L37.4492 71.7891Z" fill="#F97CAA"/>
<path d="M36.8686 72.3849L37.0218 72.9076L37.0029 72.3634L37.227 72.1789L36.9562 72.0738L36.8029 71.5511L36.8218 72.0953L36.5977 72.2798L36.8686 72.3849Z" fill="#F97CAA"/>
<path d="M39.2129 78.4647L39.3203 78.8384L39.3048 78.4499L39.4655 78.3225L39.2716 78.2442L39.1641 77.8705L39.1797 78.2589L39.0201 78.394L39.2129 78.4647Z" fill="#F97CAA"/>
<path d="M37.2129 75.9178L37.3203 76.2915L37.3083 75.9025L37.4678 75.7675L37.2751 75.6967L37.1641 75.3236L37.1797 75.7121L37.0189 75.8395L37.2129 75.9178Z" fill="#F97CAA"/>
<path d="M36.4433 70.9555L36.0719 70.4522L35.9654 70.7585L36.4433 70.9555Z" fill="#F97CAA"/>
<path d="M37.1551 72.7467L36.3964 73.4391L36.7387 74.1895L37.1551 72.7467Z" fill="#F97CAA"/>
<path d="M37.5566 72.0703L38.3877 72.883L38.4895 72.3897L37.5566 72.0703Z" fill="#F97CAA"/>
<path d="M37.6757 76.6904L36.9816 75.1756L36.7879 75.6836L37.6757 76.6904Z" fill="#F97CAA"/>
<path d="M38.8585 74.4935L38.3326 76.1337L39.0365 75.1921L38.8585 74.4935Z" fill="#F97CAA"/>
<path d="M37.8852 75.957L38.1964 75.3911L37.9365 75.1513L37.8852 75.957Z" fill="#F97CAA"/>
<path d="M38.2695 73.8603L37.7363 73.1406L38.0865 74.1868L38.2695 73.8603Z" fill="#F97CAA"/>
<path d="M38.406 77.338L38.7969 77.0407L38.8719 77.5056L38.406 77.338Z" fill="#F97CAA"/>
<path d="M37.4512 70.7891L38.0526 71.4822L37.9532 70.7085L37.4512 70.7891Z" fill="#F97CAA"/>
<path d="M36.8705 71.3849L37.0238 71.9076L37.0048 71.3634L37.2289 71.1789L36.9581 71.0738L36.8049 70.5511L36.8238 71.0953L36.5997 71.2798L36.8705 71.3849Z" fill="#F97CAA"/>
<path d="M39.2148 77.4647L39.3223 77.8384L39.3067 77.4499L39.4675 77.3225L39.2735 77.2442L39.1661 76.8705L39.1816 77.2589L39.0221 77.394L39.2148 77.4647Z" fill="#F97CAA"/>
<path d="M37.2148 74.9178L37.3223 75.2915L37.3103 74.9025L37.4698 74.7675L37.2771 74.6967L37.1661 74.3236L37.1816 74.7121L37.0208 74.8395L37.2148 74.9178Z" fill="#F97CAA"/>
<path d="M36.4433 73.9555L36.0719 73.4522L35.9654 73.7585L36.4433 73.9555Z" fill="#F97CAA"/>
<path d="M37.1551 75.7467L36.3964 76.4391L36.7387 77.1895L37.1551 75.7467Z" fill="#F97CAA"/>
<path d="M37.5566 75.0703L38.3877 75.883L38.4895 75.3897L37.5566 75.0703Z" fill="#F97CAA"/>
<path d="M37.6757 79.6904L36.9816 78.1756L36.7879 78.6836L37.6757 79.6904Z" fill="#F97CAA"/>
<path d="M38.8585 77.4935L38.3326 79.1337L39.0365 78.1921L38.8585 77.4935Z" fill="#F97CAA"/>
<path d="M37.8852 78.957L38.1964 78.3911L37.9365 78.1513L37.8852 78.957Z" fill="#F97CAA"/>
<path d="M38.2695 76.8603L37.7363 76.1406L38.0865 77.1868L38.2695 76.8603Z" fill="#F97CAA"/>
<path d="M38.406 80.338L38.7969 80.0407L38.8719 80.5056L38.406 80.338Z" fill="#F97CAA"/>
<path d="M37.4512 73.7891L38.0526 74.4822L37.9532 73.7085L37.4512 73.7891Z" fill="#F97CAA"/>
<path d="M36.8705 74.3849L37.0238 74.9076L37.0048 74.3634L37.2289 74.1789L36.9581 74.0738L36.8049 73.5511L36.8238 74.0953L36.5997 74.2798L36.8705 74.3849Z" fill="#F97CAA"/>
<path d="M39.2148 80.4647L39.3223 80.8384L39.3067 80.4499L39.4675 80.3225L39.2735 80.2442L39.1661 79.8705L39.1816 80.2589L39.0221 80.394L39.2148 80.4647Z" fill="#F97CAA"/>
<path d="M37.2148 77.9178L37.3223 78.2915L37.3103 77.9025L37.4698 77.7675L37.2771 77.6967L37.1661 77.3236L37.1816 77.7121L37.0208 77.8395L37.2148 77.9178Z" fill="#F97CAA"/>
<path d="M37.1523 74.9086L36.7809 74.4053L36.6744 74.7117L37.1523 74.9086Z" fill="#F97CAA"/>
<path d="M37.864 76.6998L37.1054 77.3923L37.4477 78.1426L37.864 76.6998Z" fill="#F97CAA"/>
<path d="M38.2656 76.0234L39.0967 76.8361L39.1984 76.3429L38.2656 76.0234Z" fill="#F97CAA"/>
<path d="M38.3847 80.6436L37.6905 79.1288L37.4969 79.6367L38.3847 80.6436Z" fill="#F97CAA"/>
<path d="M39.5675 78.4467L39.0416 80.0869L39.7455 79.1452L39.5675 78.4467Z" fill="#F97CAA"/>
<path d="M38.5942 79.9101L38.9054 79.3442L38.6455 79.1045L38.5942 79.9101Z" fill="#F97CAA"/>
<path d="M38.9785 77.8135L38.4453 77.0938L38.7955 78.1399L38.9785 77.8135Z" fill="#F97CAA"/>
<path d="M39.115 81.2911L39.5059 80.9939L39.5809 81.4587L39.115 81.2911Z" fill="#F97CAA"/>
<path d="M38.1602 74.7422L38.7616 75.4353L38.6621 74.6616L38.1602 74.7422Z" fill="#F97CAA"/>
<path d="M37.5795 75.338L37.7328 75.8607L37.7138 75.3165L37.9379 75.132L37.6671 75.0269L37.5138 74.5042L37.5328 75.0484L37.3087 75.2329L37.5795 75.338Z" fill="#F97CAA"/>
<path d="M39.9238 81.4178L40.0312 81.7915L40.0157 81.4031L40.1765 81.2756L39.9825 81.1973L39.8751 80.8236L39.8906 81.2121L39.7311 81.3471L39.9238 81.4178Z" fill="#F97CAA"/>
<path d="M37.9238 78.8709L38.0312 79.2446L38.0192 78.8556L38.1788 78.7206L37.986 78.6499L37.8751 78.2768L37.8906 78.6652L37.7298 78.7926L37.9238 78.8709Z" fill="#F97CAA"/>
<path d="M103.904 66.7578H102.098V115.715H103.904V66.7578Z" fill="#DBDBDB"/>
<path d="M102.999 58.3672L88.8086 82.874H117.189L102.999 58.3672Z" fill="#D6E6FB"/>
<path d="M102.998 61.9219L91.8906 81.1039H114.105L102.998 61.9219Z" fill="white"/>
<path d="M101.871 67.4688H104.122L103.97 75.738H102.023L101.871 67.4688Z" fill="#D6E6FB"/>
<path d="M103.965 76.7656H102.02V78.7058H103.965V76.7656Z" fill="#D6E6FB"/>
<path d="M116.008 93.7458H89.9922V85.4922H116.008V93.7458ZM90.1375 93.5938H115.862V85.6442H90.1375V93.5938Z" fill="white"/>
</svg>
