<svg width="60" height="60" viewBox="0 0 60 60" fill="none" xmlns="http://www.w3.org/2000/svg">
<circle cx="30" cy="30" r="30" fill="#E6427A"/>
<path d="M24.9741 18.332L23.5383 21.9218H18.5128C17.1205 21.9218 16 23.0426 16 24.4345V38.7935C16 40.1858 17.1208 41.3063 18.5128 41.3063H41.4872C42.8794 41.3063 43.9999 40.1855 43.9999 38.7935V24.4345C43.9999 23.0423 42.8792 21.9218 41.4872 21.9218H36.4616L35.0259 18.332H24.9741ZM29.9996 24.4345C33.9519 24.4345 37.1791 27.6617 37.1791 31.614C37.1791 35.5664 33.9519 38.7935 29.9996 38.7935C26.0473 38.7935 22.8201 35.5664 22.8201 31.614C22.8201 27.6617 26.0473 24.4345 29.9996 24.4345ZM29.9996 26.5885C27.2114 26.5885 24.9741 28.8258 24.9741 31.614C24.9741 34.4023 27.2114 36.6396 29.9996 36.6396C32.788 36.6396 35.0251 34.4023 35.0251 31.614C35.0251 28.8258 32.7878 26.5885 29.9996 26.5885Z" fill="white"/>
</svg>
