<svg width="19" height="18" viewBox="0 0 19 18" fill="none" xmlns="http://www.w3.org/2000/svg">
<path d="M11.4552 0H8.45515C7.85831 0 7.28612 0.237049 6.86406 0.658922C6.44218 1.08096 6.20512 1.65316 6.20512 2.24998V2.99997H1.70508C1.43705 2.99997 1.18946 3.14294 1.05553 3.37497C0.921596 3.607 0.921596 3.89293 1.05553 4.12496C1.18946 4.35699 1.43706 4.49996 1.70508 4.49996H2.53377L3.66264 14.6647C3.76459 15.5819 4.20136 16.4292 4.8891 17.0446C5.57683 17.66 6.46728 18.0002 7.39005 18H12.5201C13.443 18.0002 14.3335 17.6598 15.0212 17.0443C15.7091 16.4289 16.1457 15.5813 16.2475 14.664L17.3801 4.50013H18.2051C18.4731 4.50013 18.7207 4.35716 18.8546 4.12513C18.9886 3.8931 18.9886 3.60717 18.8546 3.37514C18.7207 3.14311 18.4731 3.00014 18.2051 3.00014H13.705V2.25015C13.705 1.65333 13.468 1.08115 13.0461 0.659094C12.624 0.237221 12.0518 0.000171333 11.455 0.000171333L11.4552 0ZM7.70514 2.24998C7.70514 2.0511 7.78416 1.86025 7.92479 1.71963C8.06541 1.57901 8.25626 1.49999 8.45515 1.49999H11.4552C11.6541 1.49999 11.8449 1.57901 11.9855 1.71963C12.1262 1.86025 12.2052 2.0511 12.2052 2.24998V2.99997H7.70514V2.24998ZM8.45515 11.9999C8.45515 12.2679 8.31218 12.5155 8.08014 12.6494C7.84811 12.7833 7.56217 12.7833 7.33014 12.6494C7.0981 12.5155 6.95513 12.2679 6.95513 11.9999V7.49993C6.95513 7.23191 7.0981 6.98432 7.33014 6.85039C7.56217 6.71646 7.84811 6.71646 8.08014 6.85039C8.31218 6.98432 8.45515 7.23192 8.45515 7.49993V11.9999ZM12.9552 11.9999C12.9552 12.2679 12.8122 12.5155 12.5802 12.6494C12.3482 12.7833 12.0622 12.7833 11.8302 12.6494C11.5982 12.5155 11.4552 12.2679 11.4552 11.9999V7.49993C11.4552 7.23191 11.5981 6.98432 11.8302 6.85039C12.0622 6.71646 12.3482 6.71646 12.5802 6.85039C12.8122 6.98432 12.9552 7.23192 12.9552 7.49993V11.9999Z" fill="black"/>
</svg>
