<svg width="60" height="60" viewBox="0 0 60 60" fill="none" xmlns="http://www.w3.org/2000/svg">
<circle cx="30" cy="30" r="30" fill="#E6427A"/>
<path fill-rule="evenodd" clip-rule="evenodd" d="M20.0386 30.7639L24.5433 34.2682L17.1654 41.6461C16.6623 40.9745 16.2965 40.1934 16.1212 39.3395L16.12 39.3383C16.0888 39.1849 16.0681 39.0291 16.0485 38.871C16.0438 38.8306 16.0346 38.7902 16.03 38.7487C16.0104 38.5502 16 38.3495 16 38.1452V34.8013L20.0386 30.7639ZM35.1198 26.738L44 33.5459V38.1452C44 41.3888 41.3888 44 38.1452 44H21.8548C21.6759 44 21.5005 43.9896 21.3263 43.9735C21.2709 43.9688 21.2155 43.9619 21.1601 43.955C21.0424 43.9412 20.9248 43.9238 20.8094 43.9031C20.7436 43.8915 20.6778 43.8811 20.612 43.8661C20.6109 43.8661 20.6086 43.8661 20.6074 43.8661C20.4701 43.8361 20.3351 43.8004 20.2013 43.7611C20.0928 43.7288 19.9855 43.6919 19.8805 43.6538C19.8516 43.6435 19.8228 43.6342 19.794 43.6227C19.4282 43.4842 19.0797 43.3111 18.7532 43.1046L35.1198 26.738ZM25.9799 21.3598C26.9226 21.3598 27.6669 22.1052 27.6669 23.0479C27.6669 23.9906 26.9226 24.7349 25.9799 24.7349C25.0372 24.7349 24.2918 23.9906 24.2918 23.0479C24.2918 22.1052 25.0372 21.3598 25.9799 21.3598ZM25.9799 19.2055C23.8706 19.2055 22.1386 20.9398 22.1386 23.0479C22.1386 25.156 23.8706 26.888 25.9799 26.888C28.088 26.888 29.82 25.156 29.82 23.0479C29.82 20.9398 28.088 19.2055 25.9799 19.2055ZM21.8548 16H38.1452C41.3888 16 44 18.6112 44 21.8536V30.8319L35.6817 24.4545C35.4798 24.2998 35.2305 24.2214 34.9767 24.2329C34.709 24.2456 34.454 24.3575 34.2647 24.5468L26.078 32.7335L20.6097 28.4792C20.409 28.3234 20.1597 28.2438 19.9059 28.253C19.6359 28.2646 19.3786 28.3765 19.187 28.568L16 31.7562V21.8536C16 18.6112 18.6112 16 21.8548 16Z" fill="white"/>
</svg>
