<svg width="60" height="60" viewBox="0 0 60 60" fill="none" xmlns="http://www.w3.org/2000/svg">
<circle cx="30" cy="30" r="30" fill="#E6427A"/>
<path d="M32.3335 16H27.6668C26.7384 16 25.8483 16.3687 25.1917 17.025C24.5355 17.6815 24.1667 18.5716 24.1667 19.5V20.6666H17.1667C16.7497 20.6666 16.3646 20.889 16.1563 21.2499C15.9479 21.6109 15.9479 22.0557 16.1563 22.4166C16.3646 22.7775 16.7497 22.9999 17.1667 22.9999H18.4557L20.2118 38.8118C20.3704 40.2386 21.0498 41.5566 22.1196 42.5138C23.1894 43.4711 24.5745 44.0003 26.01 44H33.99C35.4257 44.0003 36.8109 43.4708 37.8807 42.5133C38.9508 41.556 39.6299 40.2375 39.7882 38.8107L41.55 23.0002H42.8333C43.2503 23.0002 43.6354 22.7778 43.8438 22.4169C44.0521 22.0559 44.0521 21.6111 43.8438 21.2502C43.6354 20.8893 43.2503 20.6669 42.8333 20.6669H35.8333V19.5002C35.8333 18.5718 35.4645 17.6818 34.8083 17.0253C34.1517 16.369 33.2616 16.0003 32.3332 16.0003L32.3335 16ZM26.5001 19.5C26.5001 19.1906 26.623 18.8937 26.8418 18.675C27.0605 18.4562 27.3574 18.3333 27.6668 18.3333H32.3335C32.6429 18.3333 32.9398 18.4562 33.1585 18.675C33.3773 18.8937 33.5002 19.1906 33.5002 19.5V20.6666H26.5001V19.5ZM27.6668 34.6665C27.6668 35.0834 27.4444 35.4685 27.0834 35.6769C26.7225 35.8852 26.2777 35.8852 25.9168 35.6769C25.5558 35.4685 25.3334 35.0834 25.3334 34.6665V27.6666C25.3334 27.2496 25.5558 26.8645 25.9168 26.6562C26.2777 26.4478 26.7225 26.4478 27.0834 26.6562C27.4444 26.8645 27.6668 27.2496 27.6668 27.6666V34.6665ZM34.6669 34.6665C34.6669 35.0834 34.4445 35.4685 34.0835 35.6769C33.7226 35.8852 33.2778 35.8852 32.9168 35.6769C32.5559 35.4685 32.3335 35.0834 32.3335 34.6665V27.6666C32.3335 27.2496 32.5559 26.8645 32.9168 26.6562C33.2778 26.4478 33.7226 26.4478 34.0835 26.6562C34.4444 26.8645 34.6669 27.2496 34.6669 27.6666V34.6665Z" fill="white"/>
</svg>
