<svg width="16" height="16" viewBox="0 0 16 16" fill="none" xmlns="http://www.w3.org/2000/svg">
<path d="M5.78523 7.57172C5.01183 6.98942 4.09852 6.14468 2.91116 5.03159C2.11202 4.28379 1.14163 3.37623 0 2.35156V11.3248C0 11.7529 0.145506 12.1439 0.391025 12.4579C1.3757 11.5674 2.21189 10.7854 2.95115 10.0918C4.1328 8.98444 5.02889 8.14821 5.78523 7.57166V7.57172Z" fill="#E93779"/>
<path d="M9.73619 7.92578C8.47465 8.75066 7.53 8.75066 6.26562 7.92578C5.50651 8.48231 4.58746 9.34427 3.34298 10.5087C2.60666 11.1965 1.78179 11.9701 0.808594 12.8519C0.877144 12.8975 0.948496 12.9375 1.01985 12.9746C1.03692 12.9831 1.05119 12.9917 1.06839 12.9974C1.14255 13.0317 1.21683 13.063 1.29392 13.0858H1.30245C1.37661 13.1086 1.45369 13.1258 1.53078 13.1372C1.55079 13.14 1.57079 13.1429 1.59066 13.1457C1.67055 13.1572 1.75337 13.1628 1.83606 13.1628L14.1657 13.163C14.2485 13.163 14.3284 13.1545 14.4111 13.146C14.4311 13.146 14.4511 13.1402 14.471 13.1374C14.5481 13.1232 14.6251 13.1089 14.6993 13.0861H14.7078C14.7849 13.0633 14.862 13.0318 14.9334 12.9976C14.9504 12.9891 14.9647 12.9834 14.9819 12.9748C15.0561 12.9378 15.1274 12.8978 15.1932 12.8521C14.22 11.9702 13.3951 11.1968 12.6588 10.509C11.4173 9.34456 10.4954 8.4826 9.73612 7.92604L9.73619 7.92578Z" fill="#E93779"/>
<path d="M10.2148 7.57166C10.9712 8.14821 11.8674 8.98441 13.0489 10.0918C13.791 10.7853 14.6272 11.5674 15.6091 12.4579C15.8545 12.1439 16.0001 11.7529 16.0001 11.3248V2.35156C14.8584 3.37623 13.8881 4.28659 13.0889 5.03159C11.9017 6.14468 10.9884 6.98665 10.2148 7.57172V7.57166Z" fill="#E93779"/>
<path d="M6.41004 7.33713C6.41004 7.33713 6.4215 7.34286 6.42711 7.34566C6.63836 7.49117 6.83523 7.61107 7.02073 7.70815C7.04073 7.71961 7.06354 7.73096 7.08354 7.73949C7.12355 7.7595 7.16343 7.77657 7.20051 7.79377C7.23758 7.81085 7.27466 7.82512 7.30894 7.83939C7.33748 7.85085 7.36882 7.86219 7.39736 7.87073C7.44017 7.885 7.48298 7.89927 7.5286 7.91074C7.55433 7.91647 7.57714 7.92501 7.60275 7.93074C7.64836 7.94221 7.69691 7.95075 7.74265 7.95648C7.76266 7.95928 7.78546 7.96502 7.80547 7.96795C7.86255 7.97368 7.92243 7.97941 7.97951 7.97941H8.02806C8.08514 7.97941 8.14222 7.97661 8.20211 7.96795C8.22211 7.96795 8.24492 7.96221 8.26492 7.95648C8.31054 7.95075 8.35628 7.94221 8.40482 7.93074C8.42763 7.92501 8.45337 7.91927 8.47898 7.91074C8.52179 7.89927 8.5646 7.885 8.61021 7.87073C8.63875 7.86219 8.6701 7.85073 8.69864 7.83939C8.73571 7.82511 8.77279 7.81084 8.80707 7.79377C8.84708 7.7767 8.88415 7.7595 8.92403 7.73949C8.94404 7.73096 8.96684 7.71949 8.98685 7.70815C9.17516 7.61399 9.36936 7.49409 9.58046 7.34566C9.5862 7.34286 9.59193 7.33993 9.59754 7.33713C10.3852 6.78631 11.3556 5.87874 12.7027 4.61721C13.4848 3.88663 14.4295 2.99893 15.5425 2H0.464844C1.57513 2.99893 2.52259 3.8865 3.30464 4.61721C4.6546 5.87874 5.62218 6.78631 6.40984 7.33713H6.41004Z" fill="#E93779"/>
</svg>
