<svg width="279" height="213" viewBox="0 0 279 213" fill="none" xmlns="http://www.w3.org/2000/svg">
<path d="M275.408 134.408C275.753 132.027 272.374 130.069 269.84 129.839C268.65 129.723 267.383 129.915 266.231 129.531C263.774 128.687 262.776 125.462 260.357 124.463C258.552 123.695 256.479 124.386 254.713 125.27C252.946 126.153 251.219 127.266 249.26 127.381C247.571 127.496 245.728 126.844 244.231 127.688C243.117 128.303 242.541 129.57 241.505 130.338C240.506 131.067 239.201 131.221 237.972 131.298C236.744 131.374 235.438 131.374 234.325 131.912C233.211 132.411 232.251 133.64 232.482 134.83L275.408 134.408Z" fill="#E8E7E7"/>
<path d="M249.338 175.605L240.775 212.695H244.385L252.947 175.951L249.338 175.605Z" fill="#E0E0E0"/>
<path d="M264.928 175.605L273.49 212.695H276.907L268.614 175.605H264.928Z" fill="#E0E0E0"/>
<path d="M243.578 147.73L248.416 173.263H253.945L248.761 147.73H243.578Z" fill="#E0E0E0"/>
<path d="M158.84 175.605L151.891 212.695H155.423L162.718 175.605H158.84Z" fill="#E0E0E0"/>
<path d="M173.508 175.605L181.456 212.503H184.988L177.271 175.605H173.508Z" fill="#E0E0E0"/>
<path d="M153.082 147.73L157.958 173.263H163.487L158.265 147.73H153.082Z" fill="#E0E0E0"/>
<path d="M142.139 145.427L143.137 150.073H254.099L252.832 145.427H142.139Z" fill="#E8E7E7"/>
<path d="M144.25 154.449L145.44 159.095H255.673L254.675 154.449H144.25Z" fill="#E8E7E7"/>
<path d="M146.439 163.779L147.553 168.425H257.44L256.404 163.779H146.439Z" fill="#E8E7E7"/>
<path d="M273.336 173.264H154.848V177.91H273.336V173.264Z" fill="#E8E7E7"/>
<path d="M225.34 115.786C223.459 115.786 221.77 114.826 220.81 113.175C219.85 111.524 219.85 109.604 220.81 107.953L235.784 81.8443C236.705 80.1933 238.395 79.2334 240.315 79.2334C242.196 79.2334 243.885 80.1933 244.845 81.8443L259.973 107.876C260.933 109.527 260.933 111.447 259.973 113.098C259.051 114.749 257.362 115.709 255.442 115.709L225.34 115.786ZM240.315 80.7692C238.971 80.7692 237.78 81.4603 237.128 82.6122L222.154 108.721C221.501 109.873 221.501 111.255 222.154 112.369C222.806 113.52 223.997 114.173 225.302 114.173L255.404 114.096C256.709 114.096 257.9 113.405 258.552 112.253C259.205 111.102 259.205 109.719 258.552 108.606L243.425 82.5738C242.81 81.4603 241.62 80.7692 240.315 80.7692Z" fill="#E8E7E7"/>
<path d="M237.357 92.0961L238.049 101.849C238.087 102.655 238.74 103.269 239.546 103.308C240.391 103.346 241.12 102.732 241.197 101.887L242.195 92.0961C242.272 91.3666 241.696 90.7139 240.928 90.7139L238.548 90.7523C237.857 90.7907 237.319 91.3666 237.357 92.0961Z" fill="#E8E7E7"/>
<path d="M242.195 108.76C241.811 110.027 240.467 110.679 239.2 110.295C237.933 109.911 237.28 108.568 237.664 107.301C238.048 106.034 239.392 105.381 240.659 105.765C241.926 106.149 242.579 107.493 242.195 108.76Z" fill="#E8E7E7"/>
<path d="M243.193 172.648C245.075 185.933 246.918 199.218 248.799 212.541L250.258 212.58C249.298 199.064 248.338 185.242 243.193 172.648Z" fill="#F97CAA"/>
<path d="M258.745 170.806C254.829 175.106 253.255 180.98 252.256 186.701C250.836 194.803 250.721 204.363 251.143 212.618L253.178 212.657C252.372 198.45 254.291 184.282 258.745 170.806Z" fill="#F97CAA"/>
<path d="M244.231 196.262C243.77 194.304 243.271 192.269 242.158 190.579C240.622 188.314 238.164 186.855 235.669 185.742C233.173 184.628 230.562 183.745 228.297 182.171C230.831 186.318 236.513 187.393 239.432 191.271C240.891 193.19 241.466 195.609 242.042 197.951C243.271 203.058 244.039 207.473 245.268 212.542H246.919C246.343 207.013 245.46 201.676 244.231 196.262Z" fill="#F97CAA"/>
<path d="M254.674 212.579C254.674 212.579 256.094 196.722 257.131 193.843C258.168 190.924 267.997 182.9 267.92 183.284C267.843 183.668 260.548 192.46 259.512 194.265C258.475 196.069 256.67 212.618 256.67 212.618H254.674V212.579Z" fill="#F97CAA"/>
<path d="M208.215 196.032C208.983 196.301 209.597 196.992 209.943 197.76C210.289 198.527 210.365 199.372 210.327 200.217C210.25 201.829 209.444 203.519 208.561 204.863C207.14 203.788 206.679 201.753 206.526 200.678C206.257 199.027 206.795 195.878 208.215 196.032Z" fill="#F97CAA"/>
<path d="M210.289 207.359C210.02 206.475 210.327 205.439 210.98 204.786C211.632 204.133 212.592 203.788 213.514 203.826C213.936 203.826 214.435 203.941 214.704 204.248C214.973 204.556 214.973 205.016 214.781 205.4C214.627 205.784 214.32 206.053 213.975 206.283C212.861 207.09 211.632 207.666 210.289 207.359Z" fill="#F97CAA"/>
<path d="M208.869 212.388C208.869 212.388 208.869 212.273 208.908 212.043C208.946 211.813 208.984 211.505 209.023 211.16C209.138 210.392 209.253 209.317 209.752 208.242C210.251 207.167 211.019 206.36 211.634 205.938C211.941 205.708 212.248 205.593 212.44 205.516C212.555 205.477 212.632 205.439 212.67 205.439C212.709 205.439 212.747 205.401 212.747 205.439C212.747 205.477 212.286 205.593 211.672 206.015C211.058 206.437 210.328 207.244 209.829 208.28C209.33 209.317 209.176 210.392 209.061 211.16C209.023 211.544 208.946 211.851 208.908 212.043C208.908 212.273 208.869 212.388 208.869 212.388Z" fill="#F97CAA"/>
<path d="M208.023 198.45C208.023 198.45 208.023 198.489 208.062 198.604C208.062 198.719 208.1 198.834 208.1 199.026C208.139 199.372 208.215 199.909 208.254 200.524C208.369 201.791 208.523 203.557 208.638 205.553C208.753 207.511 208.83 209.278 208.868 210.583C208.868 211.236 208.907 211.735 208.907 212.119C208.907 212.273 208.907 212.426 208.907 212.541C208.907 212.618 208.907 212.695 208.907 212.695C208.907 212.695 208.907 212.656 208.907 212.541C208.907 212.426 208.907 212.311 208.868 212.119C208.868 211.735 208.83 211.236 208.791 210.583C208.753 209.316 208.676 207.511 208.523 205.553C208.407 203.595 208.254 201.829 208.177 200.524C208.139 199.909 208.1 199.372 208.062 198.988C208.062 198.834 208.023 198.681 208.023 198.565C208.023 198.489 208.023 198.45 208.023 198.45Z" fill="#F97CAA"/>
<path d="M208.024 208.51C207.602 206.591 206.181 204.94 204.338 204.21C203.877 204.018 203.263 203.903 202.917 204.287C202.572 204.632 202.687 205.247 202.917 205.707C203.8 207.589 205.912 208.817 207.985 208.664" fill="#F97CAA"/>
<path d="M204.645 205.669C204.645 205.669 204.76 205.707 204.952 205.784C205.028 205.823 205.144 205.861 205.297 205.938C205.412 206.014 205.566 206.053 205.72 206.168C205.873 206.245 206.027 206.36 206.219 206.475C206.411 206.59 206.564 206.744 206.756 206.898C207.102 207.205 207.486 207.589 207.793 208.049C208.1 208.51 208.33 208.971 208.522 209.432C208.599 209.662 208.676 209.854 208.714 210.084C208.791 210.276 208.791 210.468 208.83 210.66C208.868 210.852 208.868 211.006 208.868 211.159C208.868 211.313 208.868 211.428 208.868 211.543C208.868 211.735 208.868 211.851 208.868 211.851C208.83 211.851 208.868 211.39 208.753 210.699C208.714 210.507 208.676 210.315 208.638 210.123C208.599 209.931 208.522 209.7 208.446 209.47C208.254 209.048 208.023 208.587 207.716 208.126C207.409 207.665 207.063 207.282 206.718 206.974C206.526 206.821 206.372 206.667 206.219 206.552C206.065 206.437 205.873 206.322 205.758 206.206C205.067 205.861 204.645 205.707 204.645 205.669Z" fill="#F97CAA"/>
<path d="M278.489 212.821C278.489 212.881 219.924 213 147.67 213C75.4164 213 16.8516 212.94 16.8516 212.821C16.8516 212.702 75.4164 212.643 147.67 212.643C219.924 212.643 278.489 212.702 278.489 212.821Z" fill="#263238"/>
<path d="M177.705 200.859L106.25 200.794C97.6895 200.794 90.6855 194.105 90.6855 185.937V14.857C90.6855 6.62454 97.6895 0 106.25 0L177.705 0.0643174C186.265 0.0643174 193.269 6.75317 193.269 14.9213V186.002C193.269 194.17 186.336 200.859 177.705 200.859Z" fill="#4E5675"/>
<path d="M95 16C95 10.4772 99.4772 6 105 6H122.75C124.821 6 126.5 7.67893 126.5 9.75C126.5 11.8211 128.179 13.5 130.25 13.5H159.25C161.321 13.5 163 11.8211 163 9.75C163 7.67893 164.679 6 166.75 6H179C184.523 6 189 10.4772 189 16V184C189 189.523 184.523 194 179 194H105C99.4772 194 95 189.523 95 184V16Z" fill="white"/>
<circle cx="114.839" cy="49.2706" r="7.71791" fill="#F2F2F2"/>
<rect x="125.773" y="42.1963" width="50.8096" height="4.50211" rx="2.25106" fill="#F2F2F2"/>
<rect x="125.773" y="50.5576" width="28.299" height="4.50211" rx="2.25106" fill="#F2F2F2"/>
<circle cx="114.839" cy="79.2706" r="7.71791" fill="#F2F2F2"/>
<rect x="125.773" y="72.1963" width="50.8096" height="4.50211" rx="2.25106" fill="#F2F2F2"/>
<rect x="125.773" y="80.5576" width="28.299" height="4.50211" rx="2.25106" fill="#F2F2F2"/>
<circle cx="114.839" cy="109.271" r="7.71791" fill="#F2F2F2"/>
<rect x="125.773" y="102.196" width="50.8096" height="4.50211" rx="2.25106" fill="#F2F2F2"/>
<rect x="125.773" y="110.558" width="28.299" height="4.50211" rx="2.25106" fill="#F2F2F2"/>
<circle cx="114.839" cy="139.271" r="7.71791" fill="#F2F2F2"/>
<rect x="125.773" y="132.196" width="50.8096" height="4.50211" rx="2.25106" fill="#F2F2F2"/>
<rect x="125.773" y="140.558" width="28.299" height="4.50211" rx="2.25106" fill="#F2F2F2"/>
<circle cx="114.839" cy="169.271" r="7.71791" fill="#F2F2F2"/>
<rect x="125.773" y="162.196" width="50.8096" height="4.50211" rx="2.25106" fill="#F2F2F2"/>
<rect x="125.773" y="170.558" width="28.299" height="4.50211" rx="2.25106" fill="#F2F2F2"/>
<path d="M157.252 187.802C157.252 187.867 150.366 187.995 141.817 187.995C133.268 187.995 126.381 187.931 126.381 187.802C126.381 187.738 133.268 187.609 141.817 187.609C150.366 187.609 157.252 187.674 157.252 187.802Z" fill="#4E5675"/>
<path d="M111.389 32.4192C113.537 30.2644 113.537 26.7709 111.389 24.6161C109.241 22.4613 105.759 22.4613 103.611 24.6161C101.463 26.7709 101.463 30.2644 103.611 32.4192C105.759 34.574 109.241 34.574 111.389 32.4192Z" fill="#F999BA"/>
<path opacity="0.75" d="M108.251 28.5197L110.429 30.7036L109.675 31.4543L107.502 29.2761L105.325 31.4543L104.576 30.7036L106.748 28.5197L104.576 26.3414L105.325 25.585L107.502 27.7689L109.675 25.585L110.429 26.3414L108.251 28.5197Z" fill="white"/>
<path d="M179.699 26.8843C180.267 26.8843 180.728 26.4236 180.728 25.8552C180.728 25.2869 180.267 24.8262 179.699 24.8262C179.131 24.8262 178.67 25.2869 178.67 25.8552C178.67 26.4236 179.131 26.8843 179.699 26.8843Z" fill="#5C6175"/>
<path d="M180.728 29.0066C180.728 29.5854 180.278 30.0356 179.699 30.0356C179.12 30.0356 178.67 29.5854 178.67 29.0066C178.67 28.4277 179.12 27.9775 179.699 27.9775C180.278 28.0419 180.728 28.4921 180.728 29.0066Z" fill="#5C6175"/>
<path d="M179.699 33.187C180.267 33.187 180.728 32.7263 180.728 32.158C180.728 31.5896 180.267 31.1289 179.699 31.1289C179.131 31.1289 178.67 31.5896 178.67 32.158C178.67 32.7263 179.131 33.187 179.699 33.187Z" fill="#5C6175"/>
<path d="M239.977 30.0739C240.9 24.3581 237.015 18.9764 231.299 18.0535C225.583 17.1306 220.201 21.016 219.278 26.7317C218.356 32.4475 222.241 37.8292 227.957 38.7521C233.672 39.675 239.054 35.7896 239.977 30.0739Z" fill="#F5DBC9"/>
<path d="M228.129 51.839C228.064 51.839 228 49.9096 228 47.5299C228 45.1502 228.064 43.2207 228.129 43.2207C228.193 43.2207 228.257 45.1502 228.257 47.5299C228.193 49.9096 228.193 51.839 228.129 51.839Z" fill="#DCA680"/>
<path d="M222.083 40.7761C222.147 40.7761 221.118 42.6412 219.896 44.828C218.61 47.0147 217.581 48.7513 217.517 48.7513C217.452 48.7513 218.481 46.8861 219.703 44.6994C220.925 42.5126 222.019 40.7118 222.083 40.7761Z" fill="#DCA680"/>
<path d="M215.846 36.9175C215.91 36.9819 214.816 37.8823 213.402 38.9756C211.987 40.069 210.829 40.9694 210.829 40.9051C210.765 40.8408 211.858 39.9404 213.273 38.847C214.688 37.6893 215.846 36.8532 215.846 36.9175Z" fill="#DCA680"/>
<path d="M238.548 47.594C238.548 47.594 238.42 47.2081 238.291 46.5006C238.163 45.8575 237.905 44.9571 237.648 43.928C237.391 42.9633 237.134 42.0628 236.876 41.4197C236.683 40.7765 236.555 40.3906 236.555 40.3906C236.555 40.3906 236.748 40.7765 237.005 41.4197C237.262 42.0628 237.519 42.9633 237.841 43.928C238.098 44.9571 238.291 45.8575 238.42 46.5006C238.548 47.1438 238.613 47.594 238.548 47.594Z" fill="#DCA680"/>
<path d="M249.161 40.0694C249.097 40.1337 247.746 38.9761 246.074 37.4968C244.402 36.0175 243.051 34.7955 243.115 34.7955C243.18 34.7312 244.53 35.8889 246.203 37.3682C247.939 38.7831 249.225 40.0051 249.161 40.0694Z" fill="#DCA680"/>
<path d="M253.276 29.65C253.276 29.65 252.762 29.5857 251.99 29.4571C251.218 29.3284 250.125 29.1355 248.967 29.0068C247.745 28.8782 246.716 28.8139 245.88 28.7496C245.108 28.6853 244.594 28.6853 244.594 28.621C244.594 28.621 245.108 28.5566 245.88 28.5566C246.652 28.5566 247.745 28.621 248.967 28.7496C250.189 28.8782 251.218 29.0712 251.99 29.2641C252.826 29.5214 253.276 29.65 253.276 29.65Z" fill="#DCA680"/>
<path d="M253.277 19.4878C253.277 19.5522 251.026 20.131 248.196 20.8385C245.366 21.546 243.115 22.0605 243.051 21.9962C243.051 21.9319 245.302 21.353 248.132 20.6455C250.962 19.9381 253.277 19.4235 253.277 19.4878Z" fill="#DCA680"/>
<path d="M241.443 7.58984C241.507 7.65416 240.414 9.32637 238.999 11.4488C237.584 13.5712 236.426 15.2434 236.362 15.1791C236.298 15.1148 237.391 13.4426 238.806 11.3202C240.221 9.26206 241.379 7.58984 241.443 7.58984Z" fill="#DCA680"/>
<path d="M229.673 5.14551C229.673 5.14551 229.673 5.72435 229.673 6.56046C229.673 7.46088 229.673 8.68288 229.673 10.0335C229.673 11.3842 229.673 12.6062 229.738 13.5066C229.738 14.407 229.738 14.9215 229.738 14.9215C229.738 14.9215 229.673 14.407 229.609 13.5066C229.545 12.6062 229.48 11.3842 229.48 10.0335C229.48 8.68288 229.545 7.46088 229.545 6.56046C229.609 5.66004 229.673 5.14551 229.673 5.14551Z" fill="#DCA680"/>
<path d="M220.798 16.2081C220.733 16.2081 219.64 14.5359 218.354 12.4135C217.067 10.2911 216.038 8.49023 216.102 8.49023C216.167 8.49023 217.26 10.1624 218.546 12.2849C219.833 14.4073 220.862 16.1438 220.798 16.2081Z" fill="#DCA680"/>
<path d="M215.459 20.7103C215.459 20.7103 215.009 20.646 214.366 20.5174C213.658 20.3887 212.758 20.1315 211.729 19.8742C210.7 19.5526 209.799 19.231 209.156 19.0381C208.513 18.7808 208.127 18.5879 208.127 18.5879C208.127 18.5879 208.577 18.7165 209.22 18.9095C209.863 19.1024 210.764 19.424 211.793 19.6813C212.822 20.0028 213.722 20.2601 214.43 20.3887C215.073 20.5817 215.459 20.7103 215.459 20.7103Z" fill="#DCA680"/>
<path d="M213.144 28.7495C213.144 28.8138 211.665 29.0068 209.799 29.1997C207.934 29.3927 206.455 29.457 206.455 29.3927C206.455 29.3284 207.934 29.1354 209.799 28.9425C211.6 28.8138 213.144 28.6852 213.144 28.7495Z" fill="#DCA680"/>
<path d="M55.7656 212.124H60.4279C60.4279 212.124 62.5895 207.123 62.9286 207.08C63.2676 206.995 63.2676 212.124 63.2676 212.124H64.0729C64.0729 212.124 64.8782 206.19 64.6239 205.215C64.4544 204.622 63.4372 203.435 62.759 202.418C62.759 202.418 61.0636 203.181 60.8517 205.215C60.6822 206.699 60.3007 209.962 58.2663 210.132C57.6305 210.344 56.4014 210.429 56.1047 210.725C55.8504 211.064 55.7656 212.124 55.7656 212.124Z" fill="#10215F"/>
<path d="M34.5742 212.124H39.2365C39.3212 211.954 41.3981 207.123 41.7371 207.08C41.7371 207.08 41.7371 207.08 41.7795 207.08C42.1186 207.25 42.1186 212.124 42.1186 212.124H42.9239C42.9663 211.954 43.7292 206.19 43.4749 205.215C43.3054 204.622 42.3305 203.435 41.61 202.418C41.61 202.418 39.9146 203.181 39.7027 205.258C39.5332 206.699 39.1517 209.962 37.1597 210.174H37.1173C36.4815 210.386 35.2524 210.471 34.9557 210.768C34.659 211.064 34.5742 212.124 34.5742 212.124Z" fill="#10215F"/>
<path d="M33.8534 152.871C34.3196 158.381 38.4309 202.503 38.1766 204.961C37.9223 207.419 37.7104 209.962 37.117 210.174C39.109 209.962 39.4905 206.741 39.66 205.257C39.872 203.181 41.5673 202.418 41.5673 202.418C42.2878 203.435 43.2627 204.622 43.4322 205.215C43.6865 206.19 42.9236 211.954 42.8812 212.124H42.9236C42.9236 212.124 43.7289 206.19 43.4746 205.215C43.2203 204.24 40.762 201.824 40.8892 200.807C40.9739 199.79 44.9157 173.766 44.9157 169.231C44.9157 164.696 42.2031 155.626 42.2031 155.626L49.3236 138.248L50.0442 136.51C49.0693 127.567 40.4653 114.216 39.6176 112.902C39.5329 113.411 39.3633 114.216 39.1938 115.276C37.7104 123.88 33.5143 148.336 33.8534 152.871Z" fill="#FABAAF"/>
<path d="M56.9096 169.781C58.3083 180.293 59.5798 192.965 59.3255 204.918C59.2831 207.419 58.8593 209.962 58.2235 210.131C60.2579 209.962 60.6818 206.698 60.8089 205.215C61.0209 203.138 62.7162 202.417 62.7162 202.417C62.2924 201.781 61.9533 201.188 61.9957 200.807C62.0805 200.044 64.3692 184.616 65.4712 175.376C65.556 174.613 65.6407 173.85 65.7255 173.172C61.6142 171.222 58.605 169.061 56.4434 166.603C56.6129 167.705 56.7824 168.722 56.9096 169.781Z" fill="#FABAAF"/>
<path d="M3.42104 74.6718C4.69257 75.6043 7.36277 77.1725 7.36277 77.1725C7.36277 77.1725 23.4264 103.451 28.4701 101.543C32.6237 99.9752 39.7867 85.0135 40.1257 84.3778C40.1257 83.5301 40.2105 82.2162 40.9734 81.0718C42.4993 78.7407 45.0423 79.1221 45.5085 77.5963C46.0171 75.7314 42.7112 71.4082 39.9562 72.5102C38.388 73.1036 36.9045 73.9089 36.184 74.9685C35.082 76.5367 26.3085 93.3632 26.3085 93.3632C26.3085 93.3632 10.4144 75.9433 9.27006 74.6718C7.65946 72.9341 2.87005 70.7725 2.87005 70.7725C2.87005 70.7725 2.53097 71.3235 3.42104 72.1711C3.97204 72.6798 3.12435 73.066 2.87005 73.3203C2.61574 73.5746 4.18396 73.4003 3.76011 73.5274C3.37866 73.6122 2.14952 73.7394 3.42104 74.6718Z" fill="#FABAAF"/>
<path d="M68.4801 75.2224C68.1411 74.7138 66.7848 72.8489 64.4112 72.0436C63.6483 71.7893 63.8179 71.7469 61.6563 71.4926C58.3503 71.1111 57.545 70.3058 56.6126 66.9999C56.2735 65.7283 55.9768 64.2025 55.9344 62.2104C55.8073 54.0303 55.002 47.927 51.9503 47.2064H51.9079C51.8655 47.2064 51.7808 47.1641 51.7384 47.1641C51.696 47.1641 51.6112 47.2064 51.5688 47.2064C50.4245 47.5455 46.949 48.817 46.2708 51.7839C46.1013 52.5892 46.0165 53.4369 46.0165 54.2846C46.0165 54.327 46.0165 54.327 46.0165 54.3694C46.0589 57.2939 47.1185 60.3032 48.8986 62.2104C49.7463 63.1005 50.043 64.1601 50.043 65.3893C50.043 66.0674 49.9582 66.7456 49.7887 67.5085C49.4496 69.2038 49.3225 71.323 48.3476 73.2727C47.3728 75.2224 46.1013 78.3164 43.0072 78.5707L42.9648 78.6555C42.9648 78.6555 51.1026 83.9535 52.2046 84.1655C55.7649 84.7164 68.7768 75.6462 68.4801 75.2224Z" fill="#FABAAF"/>
<path d="M59.4521 71.0267C59.7064 71.1115 60.1303 71.2386 60.6389 71.3234C61.0627 71.4081 61.1475 71.3658 61.9528 71.4929C62.6733 71.5777 63.0548 71.6201 63.521 71.7472C63.9449 71.8744 64.3263 72.0015 64.5382 72.0863C64.9621 72.2558 65.5131 72.5101 66.1488 72.8916C66.1488 72.8916 66.9118 73.4002 67.5475 74.0784C70.1329 76.8333 72.125 81.7075 72.125 81.7075C73.1846 83.9963 75.0495 87.1327 78.7369 90.3115C78.7369 90.3115 90.1383 68.6532 90.9436 67.085C91.7489 69.5009 93.1052 69.2466 93.1052 69.2466C93.1052 69.2466 83.1449 100.102 78.2283 99.2969C74.1594 98.6188 65.0045 84.8015 64.5806 84.1658C64.1144 83.6572 63.2243 81.6227 62.3343 81.0717C60.8084 80.1393 59.5369 79.9697 58.6892 79.8426C56.6124 79.1221 55.9342 76.8757 53.8574 76.1552C56.1886 73.5697 57.121 73.6545 59.4521 71.0267Z" fill="#FABAAF"/>
<path d="M92.0857 66.5759C92.3512 66.4186 92.6059 66.2204 92.8714 66.0631C93.2081 65.8434 93.5966 65.6539 93.9333 65.4341C94.6995 65.0141 95.5282 64.6653 96.3267 64.3683C96.9611 64.1142 97.6366 63.8495 98.2818 63.6364C98.4868 63.5827 98.681 63.4879 98.886 63.4342C98.886 63.4342 99.0473 64.0491 98.0586 64.7904C97.4369 65.2602 96.125 65.6042 96.293 65.9107C96.461 66.2172 102.92 63.7784 103.271 63.9492C103.623 64.1199 100.895 67.4204 99.5162 68.1764C98.1371 68.9325 92.6148 72.0341 92.6148 72.0341C90.4257 73.8789 90.4053 71.5298 90.1875 71.3678C90.084 71.3073 90.082 71.1326 90.0888 70.8241C90.0827 70.2999 90.193 70.0519 90.3684 69.2171C90.4464 68.8462 90.5244 68.4752 90.6541 68.1344C90.7233 67.8972 90.8967 67.4584 91.0069 67.2104C91.1171 66.9624 91.1965 67.0282 91.4727 66.9119C91.6562 66.7762 91.9022 66.7117 92.0857 66.5759Z" fill="#FABAAF"/>
<path d="M141.975 211.446C98.658 210.344 83.0606 206.741 79.8394 189.703C78.695 183.599 78.4407 179.107 67.0818 174.317C66.4036 174.021 65.7679 173.724 65.1321 173.427C61.1056 171.52 58.2235 169.401 56.1043 167.07C50.0009 160.246 36.5228 150.158 35.9718 137.57C35.0393 128.881 38.9387 116.844 39.2777 115.064C39.2354 114.852 39.6592 112.945 39.6592 112.945C39.6592 112.945 42.3294 102.646 42.4142 100.781C42.4989 98.9158 42.2446 89.7185 42.2446 89.7185C42.2446 89.7185 38.981 88.3622 38.5996 85.9887C38.4301 84.7171 38.642 83.1489 38.9811 81.7502C39.4473 79.7158 40.1678 77.978 40.1678 77.978C40.1678 77.978 42.838 76.7913 45.2115 78.4867C47.1612 79.8853 48.9413 81.7926 48.9413 81.7926C48.9413 81.7926 53.2221 77.2999 57.6301 77.8085C62.038 78.3171 63.2248 81.8774 63.2248 81.8774C63.2248 81.8774 57.5029 99.6787 57.7996 100.187C57.9268 100.442 60.1308 102.01 62.9281 105.019C63.9877 106.164 65.1745 107.52 66.3612 109.088C68.3109 111.673 70.303 114.852 71.9983 118.667C77.3387 130.746 92.1732 167.239 95.0977 172.071C101.879 183.303 111.628 191.017 122.181 195.043C137.312 200.807 141.975 211.446 141.975 211.446Z" fill="#F97CAA"/>
<path d="M34.7433 71.0265C35.0823 76.2822 39.8294 78.7405 42.9234 78.4861H42.9658C46.0598 78.2318 47.289 75.1378 48.3062 73.1881C49.281 71.2385 49.4082 69.1192 49.7473 67.4239C49.9168 66.661 50.0016 65.9828 50.0016 65.3047C50.0016 64.1179 49.6625 63.1007 48.8572 62.2106C47.0347 60.3033 45.9751 57.2517 45.9751 54.2848C45.9751 54.2424 45.9751 54.2424 45.9751 54.2C45.9751 53.3523 46.0598 52.5046 46.2294 51.6993C46.9075 48.7325 50.383 47.4609 51.5274 47.1219C51.6122 47.0795 51.6546 47.0795 51.6969 47.0795C51.8241 47.0371 51.8665 47.0371 51.8665 47.0371V46.9947L51.9089 47.1219C53.3075 47.4609 54.1976 48.902 54.8334 51.1907C55.0029 51.8265 55.1301 52.5046 55.2572 53.2676C55.6387 55.7258 55.8082 58.7351 55.8506 62.1259C55.893 64.1179 56.1473 65.6861 56.5287 66.9153C57.5883 65.347 66.1923 57.3364 60.8095 48.3086C59.5804 46.1894 57.9698 45.1298 56.3592 44.7483C54.3671 44.2821 52.6294 44.6212 52.5446 44.6636V44.706C52.3327 44.3245 50.1287 40.3404 45.1698 41.3152C39.9565 42.3324 36.7353 46.6132 36.6929 51.2755C36.6082 58.2265 42.542 60.2609 40.8042 62.2106C38.7698 64.4994 34.489 67.0424 34.7433 71.0265Z" fill="#10215F"/>
<path d="M0.25925 66.3095C2.61914 69.3172 8.44945 76.5356 8.44945 76.5356L13.9096 75.1475C14.326 75.0549 14.6037 74.731 14.6499 74.3146C14.6962 74.0369 14.6037 73.7593 14.4648 73.5742L6.78364 63.857C6.1821 63.1167 5.21039 62.839 4.28494 63.1629L0.768247 64.4586C0.0278899 64.7825 -0.249745 65.7079 0.25925 66.3095Z" fill="#263238"/>
<path d="M14.0943 73.9445C14.0943 73.9445 13.9092 73.7594 13.5853 73.4355C13.2614 73.1116 12.7987 72.6026 12.2434 71.9548C11.1329 70.7054 9.60588 68.9008 8.07889 66.8648C7.70871 66.3558 7.33853 65.8468 6.96836 65.3379C6.59818 64.8289 6.27427 64.3661 5.81155 64.1348C5.34882 63.8571 4.83983 63.996 4.37711 64.1348C3.91438 64.2736 3.49793 64.4587 3.08148 64.5975C2.29485 64.8289 1.69331 65.0602 1.18432 65.2453C0.721596 65.3841 0.490234 65.4767 0.490234 65.4304C0.490234 65.4304 0.721596 65.2916 1.18432 65.1528C1.64704 64.9677 2.29485 64.7363 3.03521 64.4587C3.45166 64.3199 3.86811 64.1348 4.33084 63.996C4.5622 63.9034 4.83983 63.8109 5.11746 63.8109C5.3951 63.7646 5.719 63.8571 5.95037 63.996C6.45936 64.2736 6.82954 64.7826 7.19972 65.2916C7.5699 65.8006 7.94007 66.2633 8.31025 66.8186C9.83724 68.8545 11.318 70.6592 12.4285 71.9548C12.9375 72.5563 13.4002 73.0653 13.7241 73.4818C13.9092 73.7131 14.0943 73.9445 14.0943 73.9445Z" fill="#455A64"/>
<path d="M3.35862 65.2913C3.58998 65.1988 3.86761 65.2913 3.96016 65.5227C4.0527 65.754 3.96016 66.0317 3.7288 66.1242C3.49744 66.2168 3.2198 66.1242 3.12726 65.8929C3.03472 65.7078 3.12726 65.4301 3.35862 65.2913Z" fill="white"/>
<path fill-rule="evenodd" clip-rule="evenodd" d="M3.33589 74.6819C3.33589 74.6819 1.81006 71.9693 1.93721 71.3335C2.06437 70.6978 3.67497 67.6461 4.48027 67.3494C5.96371 66.7984 7.34676 66.2851 6.75338 67.8533C6.37192 68.8705 4.89118 70.6029 5.14548 71.0691C5.39979 71.5353 6.2604 73.7494 6.2604 73.7494L3.33589 74.6819Z" fill="#FABAAF"/>
</svg>
