<svg width="10" height="10" viewBox="0 0 10 10" fill="none" xmlns="http://www.w3.org/2000/svg">
<path d="M8.29852 1.00305C8.1132 1.00086 7.93537 1.07736 7.80933 1.21375L2.41382 6.63855V2.71963C2.41382 2.33178 2.1009 2.0173 1.71498 2.0173C1.32906 2.0173 1.01614 2.33178 1.01614 2.71963V8.33827C0.995239 8.42607 0.995239 8.51731 1.01614 8.60509C1.08821 8.77597 1.22361 8.91173 1.39364 8.98448C1.48068 9.00517 1.57179 9.00517 1.65914 8.98448H7.30568C7.6916 8.98448 8.00452 8.67 8.00452 8.28215C8.00452 7.8943 7.6916 7.57982 7.30568 7.57982H3.40623L8.78817 2.14138C8.92325 2.01377 9 1.83599 9 1.64974C9 1.4635 8.92325 1.28541 8.78817 1.15811C8.65277 1.0421 8.47573 0.985813 8.29852 1.00305Z" fill="#DA3A36"/>
</svg>
