<svg width="24" height="24" viewBox="0 0 24 24" fill="none" xmlns="http://www.w3.org/2000/svg">
<path d="M20.9325 8.79374C21.0645 9.38278 21.141 9.98818 21.141 10.61C21.141 15.4115 17.031 19.4143 11.619 20.2741C12.7635 20.7323 14.046 21 15.4125 21C16.701 21 17.9175 20.765 19.0155 20.3559C20.406 20.826 21.924 20.9479 23.1795 20.9479C22.6126 20.2737 22.1324 19.5322 21.75 18.7405C23.142 17.5089 24 15.8771 24 14.0802C24 11.9561 22.8045 10.0626 20.9325 8.79374ZM18.891 10.61C18.891 6.40782 14.6625 3 9.4455 3C4.2285 3 0 6.40782 0 10.61C0 12.8025 1.1565 14.7719 2.9985 16.1612C2.53656 17.3345 1.88559 18.4256 1.071 19.392C2.958 19.392 5.388 19.1466 7.2585 18.0072C7.962 18.1426 8.6925 18.2214 9.4455 18.2214C14.6625 18.2199 18.891 14.8136 18.891 10.61Z" fill="#707070"/>
</svg>
