<svg width="24" height="18" viewBox="0 0 24 18" fill="none" xmlns="http://www.w3.org/2000/svg">
<path d="M20.9325 5.79374C21.0645 6.38278 21.141 6.98818 21.141 7.60995C21.141 12.4115 17.031 16.4143 11.619 17.2741C12.7635 17.7323 14.046 18 15.4125 18C16.701 18 17.9175 17.765 19.0155 17.3559C20.406 17.826 21.924 17.9479 23.1795 17.9479C22.6126 17.2737 22.1324 16.5322 21.75 15.7405C23.142 14.5089 24 12.8771 24 11.0802C24 8.95612 22.8045 7.06256 20.9325 5.79374ZM18.891 7.60995C18.891 3.40782 14.6625 0 9.44552 0C4.22852 0 1.52588e-05 3.40782 1.52588e-05 7.60995C1.52588e-05 9.8025 1.15652 11.7719 2.99852 13.1612C2.53657 14.3345 1.8856 15.4256 1.07102 16.392C2.95802 16.392 5.38802 16.1466 7.25852 15.0072C7.96202 15.1426 8.69252 15.2214 9.44552 15.2214C14.6625 15.2199 18.891 11.8136 18.891 7.60995Z" fill="#E6427A"/>
</svg>
