<svg width="10" height="10" viewBox="0 0 10 10" fill="none" xmlns="http://www.w3.org/2000/svg">
<path d="M1.70148 8.99695C1.8868 8.99914 2.06463 8.92264 2.19067 8.78625L7.58618 3.36145V7.28037C7.58618 7.66822 7.8991 7.9827 8.28502 7.9827C8.67094 7.9827 8.98386 7.66822 8.98386 7.28037V1.66173C9.00476 1.57393 9.00476 1.48269 8.98386 1.39491C8.91179 1.22403 8.77639 1.08827 8.60636 1.01552C8.51932 0.994827 8.42821 0.994827 8.34086 1.01552H2.69432C2.3084 1.01552 1.99548 1.33 1.99548 1.71785C1.99548 2.1057 2.3084 2.42018 2.69432 2.42018H6.59377L1.21183 7.85862C1.07675 7.98623 1 8.16401 1 8.35026C1 8.5365 1.07675 8.71459 1.21183 8.84189C1.34723 8.9579 1.52427 9.01419 1.70148 8.99695Z" fill="#18BE46"/>
</svg>
