<svg width="36" height="36" viewBox="0 0 36 36" fill="none" xmlns="http://www.w3.org/2000/svg">
<circle cx="18" cy="18" r="17.5" fill="#E6427A" stroke="#D7D7D7"/>
<path d="M20.1985 10.2449V13.3688H23.3224L20.1985 10.2449Z" fill="white"/>
<path d="M19.7778 14.2107C19.5452 14.2107 19.3567 14.0223 19.3567 13.7897V10.0005H13.0414C12.7036 9.99116 12.3769 10.1211 12.1379 10.3601C11.899 10.599 11.7689 10.9258 11.7783 11.2635V24.7365C11.7689 25.0742 11.899 25.401 12.1379 25.6399C12.3769 25.8789 12.7036 26.0088 13.0414 25.9995H22.304C22.6417 26.0088 22.9685 25.8789 23.2074 25.6399C23.4464 25.401 23.5764 25.0742 23.567 24.7365V14.2108L19.7778 14.2107ZM20.6198 22.6311H14.7256C14.493 22.6311 14.3045 22.4426 14.3045 22.2101C14.3045 21.9775 14.493 21.7891 14.7256 21.7891H20.6198C20.8522 21.7891 21.0408 21.9775 21.0408 22.2101C21.0408 22.4426 20.8522 22.6311 20.6198 22.6311ZM20.6198 20.1049H14.7256C14.493 20.1049 14.3045 19.9164 14.3045 19.684C14.3045 19.4514 14.493 19.2629 14.7256 19.2629H20.6198C20.8522 19.2629 21.0408 19.4514 21.0408 19.684C21.0408 19.9165 20.8522 20.1049 20.6198 20.1049ZM20.6198 17.5788H14.7256C14.493 17.5788 14.3045 17.3903 14.3045 17.1579C14.3045 16.9253 14.493 16.7368 14.7256 16.7368H20.6198C20.8522 16.7368 21.0408 16.9253 21.0408 17.1579C21.0408 17.3903 20.8522 17.5788 20.6198 17.5788Z" fill="white"/>
</svg>
