<svg width="14" height="10" viewBox="0 0 14 10" fill="none" xmlns="http://www.w3.org/2000/svg">
<path d="M7.04479 9.49998C6.85952 9.50112 6.67585 9.4633 6.50433 9.38871C6.3328 9.31411 6.1768 9.2042 6.04525 9.06527L0.414024 3.06938C0.148929 2.78712 0 2.40429 0 2.00511C0 1.60593 0.148929 1.2231 0.414024 0.940835C0.679119 0.658573 1.03867 0.5 1.41357 0.5C1.78847 0.5 2.14801 0.658573 2.41311 0.940835L7.04479 5.88745L11.6765 0.955825C11.9458 0.710254 12.2922 0.581932 12.6465 0.596503C13.0008 0.611075 13.3369 0.767467 13.5877 1.03443C13.8384 1.30139 13.9853 1.65925 13.9989 2.0365C14.0126 2.41376 13.8921 2.78262 13.6615 3.06938L8.03026 9.06527C7.76804 9.3422 7.41412 9.49832 7.04479 9.49998Z" fill="black"/>
</svg>
