<svg width="14" height="9" viewBox="0 0 14 9" fill="none" xmlns="http://www.w3.org/2000/svg">
<path d="M7.04479 2.47955e-05C6.85952 -0.0011158 6.67585 0.0366964 6.50433 0.111293C6.3328 0.185888 6.1768 0.2958 6.04525 0.434728L0.414024 6.43062C0.148929 6.71288 0 7.09571 0 7.49489C0 7.89407 0.148929 8.2769 0.414024 8.55916C0.679119 8.84143 1.03867 9 1.41357 9C1.78847 9 2.14801 8.84143 2.41311 8.55916L7.04479 3.61255L11.6765 8.54417C11.9458 8.78975 12.2922 8.91807 12.6465 8.9035C13.0008 8.88892 13.3369 8.73253 13.5877 8.46557C13.8384 8.19861 13.9853 7.84075 13.9989 7.4635C14.0126 7.08624 13.8921 6.71738 13.6615 6.43062L8.03026 0.434728C7.76804 0.157801 7.41412 0.00168037 7.04479 2.47955e-05Z" fill="#E6427A"/>
</svg>
