<svg width="36" height="36" viewBox="0 0 36 36" fill="none" xmlns="http://www.w3.org/2000/svg">
<circle cx="18" cy="18" r="18" fill="white"/>
<path d="M20.2675 10.8638C18.9163 11.3962 17.4702 12.1208 15.8459 12.8844C15.0254 13.9091 14.8202 16.1633 14.615 17.8028L16.8715 14.9339L18.9228 16.9832C17.8972 18.2127 16.8715 19.0325 17.2817 19.6472C17.692 20.057 18.3074 19.8521 18.9228 19.2374C20.7652 17.6018 21.9998 16.9832 21.9998 14.9341L24.8715 13.4906V10.0069C23.46 9.93977 21.5257 10.3742 20.2675 10.8642L20.2675 10.8638ZM16.91 15.555L14.9357 18.0589C14.7992 18.2322 14.5134 18.2601 14.3459 18.1166L11.333 21.9012L14.7049 24.9752H17.1279L21.7946 19.6473L20.5446 18.3985C20.1435 18.7438 19.6981 19.1007 19.2113 19.5321C19.2067 19.5366 19.203 19.5405 19.1984 19.5448C18.8628 19.8775 18.5168 20.1195 18.1343 20.2236C17.7467 20.3292 17.2951 20.2433 16.9933 19.9419C16.9742 19.9224 16.957 19.9008 16.9421 19.8778C16.7724 19.6235 16.7477 19.2972 16.8268 19.0324C16.9059 18.7675 17.0559 18.5326 17.237 18.2959C17.5341 17.9079 17.9513 17.4665 18.3588 17.0023L16.91 15.555ZM11.333 25.1712V25.991L23.2306 26V25.1802L11.333 25.1712Z" fill="#707070"/>
</svg>
