<svg width="37" height="36" viewBox="0 0 37 36" fill="none" xmlns="http://www.w3.org/2000/svg">
<circle cx="18.5" cy="18" r="18" fill="white"/>
<path d="M19.6074 10V9.85H19.4574H18.1612H18.0112V10V11.6806C17.5322 11.7433 17.0942 11.8699 16.6986 12.0618C16.1082 12.3482 15.6431 12.7565 15.3075 13.2864L15.3075 13.2864L15.3069 13.2874C14.9756 13.8198 14.8129 14.4458 14.8129 15.1594C14.8129 15.8813 14.9631 16.4968 15.273 16.9974L15.273 16.9974L15.2742 16.9992C15.5855 17.4868 16.0186 17.8951 16.5691 18.2254L16.5707 18.2264C17.1191 18.5463 17.7565 18.8334 18.4818 19.0884L18.4822 19.0885C18.9745 19.26 19.3597 19.4428 19.6424 19.6349L19.6441 19.636C19.926 19.8222 20.119 20.0263 20.2335 20.2452L20.2334 20.2452L20.2354 20.2488C20.3555 20.4641 20.4184 20.7214 20.4184 21.0258C20.4184 21.3391 20.3481 21.613 20.2111 21.8516L20.2106 21.8525C20.0809 22.0819 19.8857 22.264 19.6181 22.3979C19.3581 22.5253 19.0289 22.5928 18.6241 22.5928C18.3864 22.5928 18.1481 22.5585 17.9087 22.4894C17.682 22.4223 17.4759 22.3116 17.2893 22.1562C17.1098 22.0065 16.963 21.7984 16.8527 21.5251C16.7443 21.2567 16.6868 20.9125 16.6868 20.4871V20.3371H16.5368H14.5H14.35V20.4871C14.35 21.232 14.4702 21.8722 14.7176 22.4022L14.7178 22.4028C14.9627 22.9217 15.2943 23.3427 15.7138 23.6617C16.1276 23.9764 16.5881 24.2038 17.0945 24.3435L17.0965 24.344C17.35 24.4102 17.6045 24.4599 17.8597 24.493V26V26.15H18.0097H19.2975H19.4475V26V24.4926C19.9256 24.4319 20.3643 24.3158 20.7628 24.1429L20.7634 24.1426C21.3878 23.8683 21.877 23.466 22.2253 22.9349C22.5812 22.4009 22.7552 21.7564 22.7552 21.0089C22.7552 20.2876 22.6052 19.6773 22.2948 19.1873C21.9944 18.6987 21.5663 18.2928 21.0157 17.968C20.4782 17.6422 19.8436 17.3495 19.1132 17.089C18.5919 16.8948 18.188 16.7058 17.8975 16.5231C17.6158 16.3368 17.4268 16.1361 17.3184 15.9243C17.2076 15.7077 17.1497 15.4513 17.1497 15.151C17.1497 14.8384 17.2052 14.566 17.3124 14.3307C17.4221 14.102 17.5907 13.9229 17.8226 13.7918L17.8226 13.7918L17.8247 13.7906C18.0534 13.6564 18.3533 13.584 18.7336 13.584C18.9948 13.584 19.2215 13.6335 19.4169 13.7287L19.4169 13.7288L19.4183 13.7294C19.6209 13.8256 19.7934 13.9648 19.9366 14.1489L19.9366 14.1489L19.9378 14.1505C20.0801 14.3284 20.1897 14.5504 20.2638 14.8203L20.2638 14.8204L20.2648 14.8237C20.3439 15.0876 20.3847 15.3925 20.3847 15.7401V15.8901H20.5347H22.5547H22.7047V15.7401C22.7047 15.0926 22.6131 14.5137 22.4265 14.006C22.2461 13.4942 21.9827 13.0597 21.6348 12.706C21.2874 12.3526 20.8671 12.0857 20.3765 11.9046C20.1344 11.8142 19.878 11.7467 19.6074 11.7018V10Z" fill="#707070" stroke="#707070" stroke-width="0.3"/>
</svg>
