<svg width="14" height="14" viewBox="0 0 14 14" fill="none" xmlns="http://www.w3.org/2000/svg">
<path d="M8.9847 0.755798C7.80241 1.22167 6.53701 1.85568 5.11575 2.52389C4.39786 3.42047 4.2183 5.39289 4.03875 6.82746L6.01319 4.31718L7.80808 6.11031C6.91064 7.18615 6.01319 7.90343 6.37214 8.44132C6.73108 8.79991 7.26958 8.62061 7.80808 8.08273C9.42018 6.65156 10.5004 6.11031 10.5004 4.31731L13.0132 3.05428V0.00601524C11.7781 -0.0527033 10.0856 0.327397 8.98463 0.756215L8.9847 0.755798ZM6.04685 4.86065L4.31933 7.05153C4.19989 7.20315 3.94987 7.22757 3.80324 7.10199L1.16699 10.4136L4.11737 13.1033H6.23752L10.3209 8.44136L9.22713 7.34872C8.8762 7.65083 8.48645 7.96309 8.06052 8.34056C8.05651 8.34456 8.05326 8.34794 8.04925 8.3517C7.75553 8.64279 7.4528 8.85453 7.11812 8.94565C6.77895 9.03805 6.38382 8.96293 6.11978 8.69913C6.103 8.6821 6.08798 8.66319 6.07496 8.64304C5.92647 8.42056 5.90481 8.13508 5.97405 7.90335C6.04328 7.6716 6.17449 7.46601 6.33299 7.25895C6.59291 6.9194 6.958 6.53314 7.31457 6.12702L6.04685 4.86065ZM1.16699 13.2748V13.9921L11.5773 14V13.2827L1.16699 13.2748Z" fill="#707070"/>
</svg>
