<svg width="10" height="10" viewBox="0 0 10 10" fill="none" xmlns="http://www.w3.org/2000/svg">
<path d="M5.99657 0.542711C5.1863 0.868608 4.33409 1.30313 3.39265 1.74582C3.34238 1.76964 3.29772 1.80511 3.2631 1.84867C2.94674 2.24397 2.79904 2.77727 2.68761 3.33421C2.58459 3.8492 2.52649 4.3796 2.47034 4.8388L0.580053 7.21558C0.466999 7.35823 0.484608 7.58707 0.618164 7.71075L2.32546 9.26867H0.5V10H7.93913V9.26867H4.79884L7.35985 6.34333C7.48294 6.20527 7.47588 5.97083 7.34462 5.84049L6.70058 5.19678C6.799 5.10363 6.89181 5.01039 6.97874 4.91112C7.29656 4.54814 7.50625 4.09515 7.55423 3.52844L9.08672 2.76658C9.20216 2.70355 9.27829 2.57433 9.27727 2.44282L9.28067 0.369118C9.27923 0.187499 9.1227 0.0205066 8.94151 0.00724418C7.9469 -0.0462627 6.86204 0.20307 5.99657 0.542661L5.99657 0.542711ZM8.54908 0.73105L8.54568 2.22578L7.03224 2.97616C6.91791 3.0386 6.84203 3.16594 6.84169 3.29609C6.84169 3.83218 6.70984 4.10788 6.43015 4.4274C6.15044 4.74683 5.76535 5.15184 5.2045 5.65C5.0917 5.76067 4.89051 5.97232 4.74955 5.85578C4.64662 5.72851 4.84576 5.58356 4.87894 5.53983C5.08897 5.32001 5.34273 5.13218 5.66037 4.75108C5.77717 4.61208 5.76662 4.38359 5.63749 4.25591L4.41796 3.03697C4.27181 2.89261 3.99986 2.9097 3.87302 3.07125L3.36993 3.70355C3.3826 3.62716 3.38941 3.54907 3.40421 3.47498C3.49999 2.99631 3.64519 2.58969 3.80436 2.36272C4.68591 1.94861 5.47168 1.55764 6.19595 1.26168C7.04731 0.955866 7.70751 0.723045 8.54899 0.730863L8.54908 0.73105ZM4.19319 3.84847L4.87917 4.53411C4.66591 4.77298 4.44506 5.00887 4.2808 5.22358C4.00653 5.56054 3.91705 6.02313 4.14358 6.35872C4.65951 6.78431 5.24284 6.49959 5.62222 6.13014C5.79703 5.97183 5.98954 5.81326 6.1481 5.68064L6.58636 6.11865L3.82718 9.26873H3.41563L1.36534 7.39843C2.31043 6.21037 3.25555 5.03777 4.19313 3.8483L4.19319 3.84847Z" fill="#E6427A"/>
</svg>
