<svg width="17" height="22" viewBox="0 0 17 22" fill="none" xmlns="http://www.w3.org/2000/svg">
<path d="M15.1735 9.73573L15.1735 9.73492C15.1698 8.82328 14.9856 7.92141 14.6314 7.08143C14.2773 6.24163 13.7604 5.48034 13.1105 4.84153C12.2063 3.9452 11.0612 3.33309 9.81635 3.07842V2.07187C9.81635 1.73457 9.68242 1.41108 9.44399 1.17255C9.20555 0.93402 8.88215 0.8 8.54492 0.8C8.20769 0.8 7.88429 0.93402 7.64586 1.17255C7.40743 1.41108 7.27349 1.73457 7.27349 2.07187V3.07407C5.79884 3.36844 4.46527 4.1539 3.49193 5.30486C2.48222 6.49882 1.92449 8.01002 1.91635 9.5739V9.57495V15.9055C1.62865 16.0103 1.37521 16.1945 1.18634 16.4383C0.965278 16.7236 0.845191 17.0742 0.844922 17.4352V17.4353V18.5072C0.844922 18.655 0.903601 18.7967 1.00808 18.9012C1.11256 19.0057 1.25428 19.0645 1.40206 19.0645H5.63026C5.81786 19.6575 6.18228 20.1805 6.67637 20.5622C7.21157 20.9757 7.8687 21.2 8.54492 21.2C9.22114 21.2 9.87828 20.9757 10.4135 20.5622C10.9076 20.1805 11.272 19.6575 11.4596 19.0645H15.6878C15.8356 19.0645 15.9773 19.0057 16.0818 18.9012C16.1862 18.7967 16.2449 18.655 16.2449 18.5072V17.4353V17.4352C16.2447 17.0742 16.1246 16.7236 15.9035 16.4383C15.7146 16.1945 15.4612 16.0103 15.1735 15.9055L15.1735 9.73573ZM12.3318 5.63581L12.3332 5.63721C12.877 6.17274 13.3095 6.81068 13.6058 7.51425C13.902 8.21774 14.0561 8.97294 14.0592 9.7363C14.0592 9.73637 14.0592 9.73645 14.0592 9.73653L14.0592 16.3634C14.0592 16.5112 14.1179 16.653 14.2224 16.7575C14.3268 16.862 14.4686 16.9207 14.6164 16.9207C14.7527 16.9207 14.8835 16.9749 14.98 17.0714C15.0764 17.1679 15.1306 17.2988 15.1306 17.4353V17.9499H1.95921V17.4353C1.95921 17.2988 2.01341 17.1679 2.10987 17.0714C2.20632 16.9749 2.33712 16.9207 2.47349 16.9207C2.62128 16.9207 2.763 16.862 2.86748 16.7575C2.97196 16.653 3.03064 16.5112 3.03064 16.3634V9.5754C3.03751 8.13265 3.60619 6.7494 4.61592 5.7193C5.6256 4.68924 6.9968 4.09341 8.43841 4.05827C9.15999 4.04545 9.87673 4.17853 10.5457 4.44953C11.2148 4.7206 11.8223 5.1241 12.3318 5.63581ZM12.1164 8.34579H12.3164V8.14579C12.3164 7.03543 11.8612 6.26338 11.2433 5.77344C10.6326 5.2892 9.87284 5.08747 9.25921 5.08747H9.05921V5.28747V6.00205V6.20997L9.26697 6.2019C9.52378 6.19192 9.77987 6.23517 10.0192 6.32893C10.2585 6.42269 10.4758 6.56494 10.6576 6.74675C10.8393 6.92856 10.9815 7.14601 11.0752 7.38543C11.169 7.62486 11.2122 7.88108 11.2022 8.13803L11.1941 8.34579H11.4021H12.1164ZM8.38778 2.07187C8.38778 2.03013 8.40436 1.99011 8.43383 1.96062C8.46331 1.93113 8.50327 1.91458 8.54492 1.91458C8.58657 1.91458 8.62653 1.93113 8.65601 1.96062C8.68549 1.99011 8.70206 2.03013 8.70206 2.07187V2.94374H8.38778V2.07187ZM8.54493 20.0936C8.14363 20.0931 7.75233 19.9683 7.42479 19.7363C7.17687 19.5607 6.9747 19.3303 6.83302 19.0645H10.2568C10.1151 19.3303 9.91297 19.5607 9.66506 19.7363C9.33752 19.9683 8.94622 20.0931 8.54493 20.0936Z" fill="black" stroke="black" stroke-width="0.4"/>
</svg>
