<svg width="99" height="30" viewBox="0 0 99 30" fill="none" xmlns="http://www.w3.org/2000/svg">
<path fill-rule="evenodd" clip-rule="evenodd" d="M18.426 10.1418C18.1694 6.92884 14.8121 4.91992 10.7287 4.91992C3.39726 4.91992 -0.221327 9.77563 0.0601688 13.2981C0.234214 15.4776 2.09358 17.0024 3.7386 17.0024C5.98431 17.0024 7.31845 14.9221 7.21599 13.6392C7.16219 12.9668 6.41011 12.6354 6.43458 12.9417C6.49787 13.7324 5.51794 15.2288 4.21588 15.2288C3.23335 15.2288 2.67162 14.4482 2.58344 13.3424C2.36185 10.5693 4.97872 5.88918 10.9621 5.88918C14.3987 5.88918 15.8199 7.71221 15.9896 9.83576C16.2194 12.7137 14.2666 15.0358 11.1311 15.0358C10.8441 15.0358 11.1692 15.8988 12.027 15.8988C15.5521 15.8988 18.7071 13.6611 18.426 10.1418Z" fill="#E6427A"/>
<path fill-rule="evenodd" clip-rule="evenodd" d="M14.5496 8.01397C14.7844 8.01397 14.531 7.45703 13.9213 7.45703C12.0678 7.45703 10.3746 9.0587 8.77446 13.3454C6.34451 19.8546 4.86383 20.5223 3.55114 20.5223C3.27372 20.5223 3.17478 20.2955 3.0655 20.2955C2.93463 20.2955 2.82205 20.5661 2.85137 20.9319C2.91564 21.7358 3.93931 23.0019 5.18794 23.0019C10.1791 23.0019 10.7074 8.01397 14.5496 8.01397Z" fill="#E6427A"/>
<path fill-rule="evenodd" clip-rule="evenodd" d="M47.6191 17.412C46.7864 19.063 45.8768 20.2798 45.1518 20.2798C44.7964 20.2798 44.5364 19.9266 44.4933 19.3897C44.352 17.6189 45.7736 14.1224 47.2467 14.1224C47.788 14.1224 48.1919 14.7908 48.1854 15.8337C47.9513 16.4632 47.7657 16.9805 47.6191 17.412ZM28.3473 20.2798C27.9917 20.2798 27.7317 19.9266 27.6889 19.3897C27.5475 17.6189 28.9688 14.1224 30.4418 14.1224C30.998 14.1224 31.4092 14.8265 31.3799 15.918L30.7698 17.4996C29.9495 19.1059 29.0589 20.2798 28.3473 20.2798ZM25.6534 26.0503C25.2374 26.0503 24.9975 25.7724 24.9758 25.5018C24.9285 24.9104 25.544 24.7362 27.8136 24.196C27.9153 24.1718 28.0168 24.1475 28.1176 24.1233C27.5237 25.2394 26.7809 26.0503 25.6534 26.0503ZM21.4391 17.412C20.6061 19.063 19.6965 20.2798 18.9717 20.2798C18.6161 20.2798 18.3561 19.9266 18.3131 19.3897C18.1718 17.6189 19.5935 14.1224 21.0664 14.1224C21.6078 14.1224 22.0121 14.7908 22.0052 15.8337C21.7709 16.4632 21.5854 16.9805 21.4391 17.412ZM39.9496 14.0373C40.7248 14.0373 40.1519 16.6194 37.1939 17.4124C37.6848 15.6692 38.9842 14.0373 39.9496 14.0373ZM67.0109 17.6133C66.8886 17.4898 66.627 17.2256 66.5024 17.1003C66.468 17.0653 66.4125 17.0709 66.3902 17.1105C65.1238 19.3432 63.991 20.3651 63.2728 20.3651C63.075 20.3651 62.9382 20.2019 62.9191 19.9601C62.8563 19.1739 62.9471 18.7214 64.6687 14.2105H65.9169C66.0109 14.2105 66.0919 14.1556 66.1249 14.0703L66.4303 13.272C66.4609 13.1914 66.3944 13.0992 66.3055 13.0992H65.094C65.4916 12.0632 65.9593 10.8507 66.5095 9.42523C66.5401 9.3451 66.4744 9.25195 66.386 9.25195H64.5862C64.4918 9.25195 64.4099 9.30779 64.3768 9.39355C63.8179 10.8424 63.3463 12.0628 62.9494 13.0992H62.0466C61.9521 13.0992 61.8702 13.1542 61.8376 13.2399L61.5313 14.0391C61.5015 14.1188 61.5667 14.2105 61.6546 14.2105H62.5244C61.9833 15.633 61.618 16.623 61.3706 17.3542C60.3667 19.1223 59.0677 20.5365 58.5046 20.5365C58.2771 20.5365 58.1705 20.3734 58.1509 20.131C58.1104 19.6246 58.5354 18.4913 59.4406 16.159C59.9446 14.8611 59.4444 13.3686 57.813 13.3686C57.1699 13.3686 56.3871 13.396 55.4832 14.2352L55.7233 13.6137C55.7545 13.5331 55.688 13.4413 55.5996 13.4413H53.7984C53.7049 13.4413 53.6234 13.4952 53.5904 13.5806L52.1913 17.205C50.9545 19.3769 49.9035 20.5361 49.4844 20.5361C49.2867 20.5361 49.1502 20.3734 49.1307 20.1307C49.0781 19.4713 49.1163 18.961 51.012 14.0396C51.0426 13.9599 50.9775 13.8681 50.8896 13.8681H49.086C48.9925 13.8681 48.9115 13.9235 48.8784 14.0084C48.8379 14.1141 48.7984 14.2171 48.7594 14.3187C48.4517 13.5987 47.7918 13.2702 47.0018 13.2702C44.7916 13.2702 43.1641 15.4377 42.6215 17.501C41.0281 20.1343 39.0839 20.5365 38.2241 20.5365C37.4453 20.5365 37.0701 19.8576 37.0054 19.0476C36.9847 18.7877 36.9936 18.5187 37.0256 18.2461C38.8539 18.1763 42.0697 16.8835 41.8951 14.698C41.8102 13.6351 40.9226 13.1845 39.705 13.1845C37.3674 13.1845 35.3795 15.5044 34.9973 17.7429C33.8163 19.7532 32.5737 20.9558 31.2895 21.7105C31.3199 21.634 31.3502 21.5556 31.3805 21.4769L34.2494 14.0405C34.2804 13.9603 34.2146 13.8681 34.1266 13.8681H32.3249C32.231 13.8681 32.1495 13.9231 32.1162 14.0084L31.9769 14.3709C31.6794 13.6141 31.0062 13.2702 30.1968 13.2702C27.9646 13.2702 26.3268 15.4812 25.801 17.5629C24.657 19.4989 23.6991 20.5361 23.3042 20.5361C23.1062 20.5361 22.9698 20.3734 22.9505 20.1307C22.898 19.4713 22.9361 18.961 24.8318 14.0396C24.8625 13.9599 24.7971 13.8681 24.7094 13.8681H22.9056C22.8123 13.8681 22.7313 13.9235 22.6982 14.0084C22.6577 14.1141 22.6182 14.2171 22.5791 14.3187C22.2717 13.5987 21.6117 13.2702 20.8217 13.2702C17.9603 13.2702 16.0673 16.9036 16.2539 19.2397C16.3707 20.7024 17.1717 21.7201 18.4474 21.7201C19.3207 21.7201 20.114 21.2117 20.9373 19.9354C20.9385 19.9507 20.9397 19.9657 20.9411 19.981C21.0221 20.9956 21.8191 21.7198 22.759 21.7198C23.6918 21.7198 24.4145 21.5601 25.6766 19.5717C25.8824 20.8513 26.6476 21.7201 27.8225 21.7201C28.3704 21.7201 28.8862 21.5198 29.3979 21.0571L29.2359 21.4769C29.0751 21.8939 28.916 22.3152 28.751 22.7263C28.4087 22.8148 28.065 22.8907 27.7192 22.9602C24.8339 23.539 23.442 23.881 23.5661 25.4365C23.6663 26.6905 24.7845 27.4609 26.1292 27.4609C27.7655 27.4613 28.9311 27.0721 30.5958 23.3711C32.1716 22.727 33.6115 21.6711 35.0351 19.4534C35.3336 20.8255 36.2411 21.8908 37.8634 21.8908C38.9737 21.8908 40.6819 21.7628 42.4547 19.3837C42.6125 20.7665 43.3956 21.7201 44.6276 21.7201C45.501 21.7201 46.2942 21.2117 47.1176 19.9354C47.1187 19.9507 47.1198 19.9657 47.1212 19.981C47.2023 20.9956 47.9993 21.7198 48.9395 21.7198C49.549 21.7198 50.0695 21.6479 50.7085 21.0465L50.5153 21.5473C50.4846 21.6279 50.5507 21.7198 50.6386 21.7198H52.4399C52.5338 21.7198 52.6152 21.6647 52.6483 21.5794L54.5574 16.6342C55.4594 14.9828 56.502 14.2954 57.0354 14.2954C57.692 14.2954 57.5678 15.211 56.8674 17.0313C56.1296 18.9498 56.077 19.3184 56.1371 20.0668C56.218 21.0813 56.838 21.7201 57.7782 21.7201C58.684 21.7201 59.6193 21.5699 60.9084 19.7947C60.9089 19.8 60.9091 19.8048 60.9095 19.81C60.9905 20.8246 61.8012 21.7198 62.7413 21.7198C64.045 21.7198 65.0727 21.4788 67.0355 17.7578C67.0601 17.7122 67.0503 17.653 67.0109 17.6133Z" fill="#E6427A"/>
<path fill-rule="evenodd" clip-rule="evenodd" d="M38.2643 27.4379C38.713 27.4379 38.9043 27.2131 38.9043 26.8565C38.9043 26.4998 38.713 26.2751 38.2643 26.2751H37.6506V27.4379H38.2643ZM38.3501 28.3361H37.6506V30.001H36.5225V25.3633H38.3501C39.485 25.3633 40.0523 26.0043 40.0523 26.8565C40.0523 27.6228 39.5312 28.3361 38.3501 28.3361Z" fill="#E6427A"/>
<path fill-rule="evenodd" clip-rule="evenodd" d="M45.7257 25.3633V29.1291H47.2037V30.001H44.5977V25.3633H45.7257Z" fill="#E6427A"/>
<path fill-rule="evenodd" clip-rule="evenodd" d="M53.7221 26.612L53.1546 28.3098H54.2961L53.7221 26.612ZM54.5864 29.1816H52.8577L52.5805 30.001H51.3994L53.0754 25.3633H54.3818L56.0578 30.001H54.8637L54.5864 29.1816Z" fill="#E6427A"/>
<path fill-rule="evenodd" clip-rule="evenodd" d="M64.667 25.3633V30.001H63.5387L61.6515 27.1404V30.001H60.5234V25.3633H61.6515L63.5387 28.237V25.3633H64.667Z" fill="#E6427A"/>
<path fill-rule="evenodd" clip-rule="evenodd" d="M72.2811 26.2685H70.5723V27.2065H72.0835V28.0784H70.5723V29.0958H72.2811V30.001H69.4443V25.3633H72.2811V26.2685Z" fill="#E6427A"/>
<path fill-rule="evenodd" clip-rule="evenodd" d="M76.7207 25.3633H80.3036V26.2685H79.0765V30.001H77.9478V26.2685H76.7207V25.3633Z" fill="#E6427A"/>
<path fill-rule="evenodd" clip-rule="evenodd" d="M78.3335 13.6117C78.4109 12.539 78.3012 11.2419 78.0213 9.93502C77.7407 8.62794 77.3061 7.39169 76.7921 6.42969C76.714 7.50237 76.8237 8.79938 77.1043 10.1063C77.3849 11.4133 77.8188 12.6496 78.3335 13.6117Z" fill="#DB9768"/>
<path fill-rule="evenodd" clip-rule="evenodd" d="M83.2281 13.1515C83.4812 11.941 83.553 10.4464 83.4299 8.91779C83.3061 7.38913 82.996 5.92117 82.5516 4.75977C82.2984 5.97024 82.2267 7.46489 82.3498 8.99355C82.4728 10.5223 82.7836 11.99 83.2281 13.1515Z" fill="#DB9768"/>
<path fill-rule="evenodd" clip-rule="evenodd" d="M88.8571 8.99355C88.9802 7.46482 88.9085 5.97024 88.6553 4.75977C88.2109 5.92117 87.9001 7.38899 87.777 8.91779C87.6532 10.4464 87.725 11.941 87.9781 13.1515C88.4232 11.99 88.7334 10.5223 88.8571 8.99355Z" fill="#DB9768"/>
<path fill-rule="evenodd" clip-rule="evenodd" d="M91.9611 8.72474C92.1819 7.1292 92.2614 5.53668 92.1918 4.11441C92.4963 4.02759 92.7361 3.76736 92.779 3.43285C92.8366 2.98476 92.5209 2.57456 92.0729 2.51661C91.6257 2.45866 91.2157 2.77501 91.1581 3.22324C91.1145 3.55937 91.2818 3.87417 91.5568 4.03499C91.1018 5.39473 90.7446 6.95486 90.5238 8.55146C90.2228 10.7215 90.1862 12.8544 90.4183 14.5847C91.1145 12.9663 91.6602 10.8949 91.9611 8.72474Z" fill="#DB9768"/>
<path fill-rule="evenodd" clip-rule="evenodd" d="M94.1023 10.1063C94.3829 8.79938 94.4919 7.50237 94.4146 6.42969C93.8998 7.39169 93.4659 8.62794 93.1853 9.93502C92.9048 11.2419 92.7951 12.539 92.8731 13.6117C93.3879 12.6496 93.8218 11.4133 94.1023 10.1063Z" fill="#DB9768"/>
<path fill-rule="evenodd" clip-rule="evenodd" d="M75.9538 11.0784C75.6529 9.96562 75.2598 8.88934 74.8153 7.96127C75.0024 7.82447 75.0987 7.58437 75.0383 7.34561C74.9595 7.03138 74.6409 6.84113 74.3273 6.92027C74.0137 6.99955 73.8238 7.31837 73.9026 7.63246C73.963 7.8727 74.1642 8.03788 74.3955 8.06823C74.4757 9.07994 74.6761 10.1985 74.9764 11.3085C75.3807 12.8056 75.9461 14.2157 76.5769 15.305C76.5776 14.0671 76.3589 12.5754 75.9538 11.0784Z" fill="#DB9768"/>
<path fill-rule="evenodd" clip-rule="evenodd" d="M96.8285 13.5026C96.5212 14.4111 96.3545 15.3305 96.3545 16.1107C96.8348 15.472 97.2644 14.6302 97.5717 13.7215C97.8791 12.8129 98.0457 11.8936 98.045 11.1133C97.5654 11.752 97.1358 12.5939 96.8285 13.5026Z" fill="#DB9768"/>
<path fill-rule="evenodd" clip-rule="evenodd" d="M73.1611 11.1133C73.1611 11.8936 73.3271 12.8129 73.6351 13.7215C73.9424 14.6302 74.3714 15.472 74.8517 16.1107C74.8524 15.3305 74.6857 14.4111 74.3784 13.5026C74.0711 12.5939 73.6414 11.752 73.1611 11.1133Z" fill="#DB9768"/>
<path fill-rule="evenodd" clip-rule="evenodd" d="M85.6053 15.0039C79.7926 15.0039 75.2393 16.075 75.2393 17.4423C75.2393 17.9863 75.9572 18.4966 77.3158 18.918L77.3974 18.881L77.3587 18.8045C76.2983 18.4335 75.7146 18.0267 75.7146 17.6591C75.7146 16.6271 80.244 15.7552 85.6053 15.7552C90.9666 15.7552 95.496 16.6271 95.496 17.6591C95.496 18.0267 94.9123 18.4335 93.8512 18.8045L93.8132 18.881L93.8744 18.9211L93.8941 18.918C95.2527 18.4966 95.9714 17.9863 95.9714 17.4423C95.9714 16.075 91.4181 15.0039 85.6053 15.0039Z" fill="#DB9768"/>
<path fill-rule="evenodd" clip-rule="evenodd" d="M85.2617 2.08038C85.2526 2.07855 85.2434 2.0794 85.2343 2.0775C84.9319 3.67537 84.7723 5.48749 84.7723 7.32236C84.7723 9.92011 85.0817 12.5646 85.6028 14.45C86.1246 12.5646 86.434 9.92011 86.434 7.32236C86.434 5.48749 86.2737 3.67537 85.9713 2.0775C85.9621 2.0794 85.953 2.07855 85.9438 2.08038C86.3665 1.9371 86.6724 1.54168 86.6724 1.07064C86.6724 0.479276 86.1935 0 85.6028 0C85.0121 0 84.5332 0.479276 84.5332 1.07064C84.5332 1.54168 84.8391 1.9371 85.2617 2.08038Z" fill="#DB9768"/>
<path fill-rule="evenodd" clip-rule="evenodd" d="M79.0158 4.11413C78.9462 5.53661 79.0257 7.1292 79.2465 8.72474C79.5468 10.8949 80.0925 12.9663 80.7887 14.5847C81.0207 12.8544 80.9841 10.7215 80.6839 8.55146C80.4624 6.95493 80.1058 5.3948 79.6501 4.03506C79.9258 3.87445 80.0932 3.55958 80.0496 3.22324C79.9919 2.77501 79.5819 2.45866 79.1347 2.51661C78.6868 2.57456 78.371 2.98476 78.4287 3.43285C78.4723 3.76722 78.7114 4.02724 79.0158 4.11413Z" fill="#DB9768"/>
<path fill-rule="evenodd" clip-rule="evenodd" d="M97.3042 7.63246C97.3837 7.31837 97.1931 6.99955 96.8795 6.92027C96.5658 6.84113 96.2473 7.03138 96.1685 7.34561C96.1081 7.58423 96.2044 7.82412 96.3914 7.96113C95.947 8.8892 95.5532 9.9654 95.2522 11.0784C94.8479 12.5754 94.6285 14.0671 94.6299 15.305C95.26 14.2157 95.8254 12.8056 96.2297 11.3085C96.53 10.1985 96.7304 9.07994 96.8113 8.06808C97.0426 8.03809 97.2437 7.87277 97.3042 7.63246Z" fill="#DB9768"/>
</svg>
