<svg width="24" height="24" viewBox="0 0 24 24" fill="none" xmlns="http://www.w3.org/2000/svg">
<path d="M22.6667 10.6667H1.33333C0.533333 10.6667 0 11.2 0 12C0 12.8 0.533333 13.3333 1.33333 13.3333H22.6667C23.4667 13.3333 24 12.8 24 12C24 11.2 23.4667 10.6667 22.6667 10.6667ZM1.33333 6.66667H22.6667C23.4667 6.66667 24 6.13333 24 5.33333C24 4.53333 23.4667 4 22.6667 4H1.33333C0.533333 4 0 4.53333 0 5.33333C0 6.13333 0.533333 6.66667 1.33333 6.66667ZM12.6667 17.3333H1.33333C0.533333 17.3333 0 17.8667 0 18.6667C0 19.4667 0.533333 20 1.33333 20H12.6667C13.4667 20 14 19.4667 14 18.6667C14 17.8667 13.4667 17.3333 12.6667 17.3333Z" fill="black"/>
</svg>
