<svg width="20" height="22" viewBox="0 0 20 22" fill="none" xmlns="http://www.w3.org/2000/svg">
<path d="M16.1286 9.73573L16.1286 9.73492C16.1249 8.82328 15.9407 7.92141 15.5865 7.08143C15.2324 6.24163 14.7155 5.48034 14.0656 4.84153C13.1613 3.9452 12.0162 3.33309 10.7714 3.07842V2.07187C10.7714 1.73457 10.6375 1.41108 10.3991 1.17255C10.1606 0.93402 9.83723 0.8 9.5 0.8C9.16277 0.8 8.83937 0.93402 8.60093 1.17255C8.3625 1.41108 8.22857 1.73457 8.22857 2.07187V3.07407C6.75392 3.36844 5.42035 4.1539 4.44701 5.30486C3.4373 6.49882 2.87957 8.01002 2.87143 9.5739V9.57495V15.9055C2.58372 16.0103 2.33029 16.1945 2.14142 16.4383C1.92036 16.7236 1.80027 17.0742 1.8 17.4352V17.4353V18.5072C1.8 18.655 1.85868 18.7967 1.96315 18.9012C2.06763 19.0057 2.20935 19.0645 2.35714 19.0645H6.58534C6.77294 19.6575 7.13736 20.1805 7.63145 20.5622C8.16664 20.9757 8.82378 21.2 9.5 21.2C10.1762 21.2 10.8334 20.9757 11.3686 20.5622C11.8626 20.1805 12.2271 19.6575 12.4147 19.0645H16.6429C16.7906 19.0645 16.9324 19.0057 17.0368 18.9012C17.1413 18.7967 17.2 18.655 17.2 18.5072V17.4353V17.4352C17.1997 17.0742 17.0796 16.7236 16.8586 16.4383C16.6697 16.1945 16.4163 16.0103 16.1286 15.9055L16.1286 9.73573ZM13.2868 5.63581L13.2882 5.63721C13.8321 6.17274 14.2646 6.81068 14.5609 7.51425C14.8571 8.21774 15.0112 8.97294 15.0143 9.7363C15.0143 9.73637 15.0143 9.73645 15.0143 9.73653L15.0143 16.3634C15.0143 16.5112 15.073 16.653 15.1774 16.7575C15.2819 16.862 15.4236 16.9207 15.5714 16.9207C15.7078 16.9207 15.8386 16.9749 15.9351 17.0714C16.0315 17.1679 16.0857 17.2988 16.0857 17.4353V17.9499H2.91429V17.4353C2.91429 17.2988 2.96849 17.1679 3.06495 17.0714C3.1614 16.9749 3.2922 16.9207 3.42857 16.9207C3.57636 16.9207 3.71808 16.862 3.82256 16.7575C3.92703 16.653 3.98571 16.5112 3.98571 16.3634V9.5754C3.99259 8.13265 4.56126 6.7494 5.57099 5.7193C6.58068 4.68924 7.95188 4.09341 9.39349 4.05827C10.1151 4.04545 10.8318 4.17853 11.5007 4.44953C12.1699 4.7206 12.7774 5.1241 13.2868 5.63581ZM13.0714 8.34579H13.2714V8.14579C13.2714 7.03543 12.8162 6.26338 12.1984 5.77344C11.5877 5.2892 10.8279 5.08747 10.2143 5.08747H10.0143V5.28747V6.00205V6.20997L10.2221 6.2019C10.4789 6.19192 10.7349 6.23517 10.9743 6.32893C11.2136 6.42269 11.4309 6.56494 11.6126 6.74675C11.7944 6.92856 11.9366 7.14601 12.0303 7.38543C12.124 7.62486 12.1673 7.88108 12.1573 8.13803L12.1492 8.34579H12.3571H13.0714ZM9.34286 2.07187C9.34286 2.03013 9.35943 1.99011 9.38891 1.96062C9.41839 1.93113 9.45835 1.91458 9.5 1.91458C9.54165 1.91458 9.58161 1.93113 9.61109 1.96062C9.64057 1.99011 9.65714 2.03013 9.65714 2.07187V2.94374H9.34286V2.07187ZM9.50001 20.0936C9.09871 20.0931 8.70741 19.9683 8.37986 19.7363C8.13195 19.5607 7.92977 19.3303 7.7881 19.0645H11.2119C11.0702 19.3303 10.868 19.5607 10.6201 19.7363C10.2926 19.9683 9.9013 20.0931 9.50001 20.0936Z" fill="black" stroke="black" stroke-width="0.4"/>
<circle cx="14" cy="5" r="4" fill="#E6427A"/>
</svg>
