<svg width="48" height="48" viewBox="0 0 48 48" fill="none" xmlns="http://www.w3.org/2000/svg">
<circle cx="24" cy="24" r="24" fill="#FFECF3"/>
<path fill-rule="evenodd" clip-rule="evenodd" d="M21.2073 18.6014C21.2658 17.7659 21.1829 16.7557 20.9714 15.7379C20.7593 14.7199 20.4309 13.7571 20.0424 13.0078C19.9834 13.8433 20.0664 14.8534 20.2784 15.8713C20.4904 16.8892 20.8183 17.8521 21.2073 18.6014Z" fill="#DB9768"/>
<path fill-rule="evenodd" clip-rule="evenodd" d="M24.9059 18.2428C25.0972 17.3 25.1514 16.1359 25.0584 14.9454C24.9649 13.7549 24.7305 12.6116 24.3947 11.707C24.2033 12.6498 24.1491 13.8139 24.2421 15.0044C24.3351 16.1951 24.57 17.3382 24.9059 18.2428Z" fill="#DB9768"/>
<path fill-rule="evenodd" clip-rule="evenodd" d="M29.1598 15.0044C29.2528 13.8138 29.1986 12.6498 29.0073 11.707C28.6715 12.6116 28.4366 13.7548 28.3436 14.9454C28.2501 16.1359 28.3043 17.3 28.4956 18.2428C28.832 17.3382 29.0663 16.1951 29.1598 15.0044Z" fill="#DB9768"/>
<path fill-rule="evenodd" clip-rule="evenodd" d="M31.5054 14.7955C31.6723 13.5528 31.7323 12.3125 31.6797 11.2048C31.9098 11.1372 32.091 10.9345 32.1234 10.674C32.167 10.325 31.9284 10.0055 31.5899 9.96041C31.2519 9.91528 30.9421 10.1617 30.8985 10.5108C30.8656 10.7725 30.992 11.0177 31.1998 11.143C30.856 12.202 30.586 13.4171 30.4192 14.6605C30.1917 16.3506 30.1641 18.0118 30.3395 19.3594C30.8656 18.099 31.278 16.4857 31.5054 14.7955Z" fill="#DB9768"/>
<path fill-rule="evenodd" clip-rule="evenodd" d="M33.1242 15.8713C33.3362 14.8534 33.4186 13.8433 33.3601 13.0078C32.9711 13.7571 32.6432 14.7199 32.4312 15.7379C32.2192 16.7557 32.1363 17.7659 32.1953 18.6014C32.5843 17.8521 32.9121 16.8892 33.1242 15.8713Z" fill="#DB9768"/>
<path fill-rule="evenodd" clip-rule="evenodd" d="M19.4088 16.6284C19.1814 15.7617 18.8843 14.9235 18.5484 14.2007C18.6898 14.0942 18.7626 13.9072 18.7169 13.7212C18.6574 13.4765 18.4167 13.3283 18.1796 13.3899C17.9426 13.4517 17.7992 13.7 17.8587 13.9446C17.9044 14.1317 18.0564 14.2604 18.2312 14.284C18.2918 15.072 18.4432 15.9432 18.6701 16.8076C18.9757 17.9736 19.403 19.0719 19.8797 19.9202C19.8802 18.9561 19.7149 17.7943 19.4088 16.6284Z" fill="#DB9768"/>
<path fill-rule="evenodd" clip-rule="evenodd" d="M35.1843 18.5161C34.9521 19.2237 34.8262 19.9398 34.8262 20.5474C35.1891 20.05 35.5138 19.3943 35.7461 18.6867C35.9783 17.979 36.1042 17.263 36.1037 16.6553C35.7413 17.1528 35.4166 17.8084 35.1843 18.5161Z" fill="#DB9768"/>
<path fill-rule="evenodd" clip-rule="evenodd" d="M17.2988 16.6553C17.2988 17.263 17.4242 17.979 17.657 18.6867C17.8892 19.3943 18.2134 20.05 18.5764 20.5474C18.5769 19.9398 18.4509 19.2237 18.2187 18.5161C17.9865 17.8084 17.6618 17.1528 17.2988 16.6553Z" fill="#DB9768"/>
<path fill-rule="evenodd" clip-rule="evenodd" d="M26.7028 19.6846C22.3101 19.6846 18.8691 20.5188 18.8691 21.5837C18.8691 22.0074 19.4117 22.4048 20.4384 22.733L20.5001 22.7042L20.4708 22.6446C19.6695 22.3556 19.2284 22.0388 19.2284 21.7525C19.2284 20.9488 22.6512 20.2697 26.7028 20.2697C30.7543 20.2697 34.1771 20.9488 34.1771 21.7525C34.1771 22.0388 33.7361 22.3556 32.9342 22.6446L32.9055 22.7042L32.9517 22.7354L32.9666 22.733C33.9933 22.4048 34.5364 22.0074 34.5364 21.5837C34.5364 20.5188 31.0955 19.6846 26.7028 19.6846Z" fill="#DB9768"/>
<path fill-rule="evenodd" clip-rule="evenodd" d="M26.4426 9.62027C26.4357 9.61884 26.4288 9.6195 26.4219 9.61802C26.1934 10.8625 26.0728 12.2738 26.0728 13.7029C26.0728 15.7261 26.3066 17.7857 26.7004 19.2541C27.0947 17.7857 27.3285 15.7261 27.3285 13.7029C27.3285 12.2738 27.2073 10.8625 26.9788 9.61802C26.9719 9.6195 26.965 9.61884 26.9581 9.62027C27.2775 9.50868 27.5087 9.20071 27.5087 8.83385C27.5087 8.37328 27.1468 8 26.7004 8C26.254 8 25.8921 8.37328 25.8921 8.83385C25.8921 9.20071 26.1233 9.50868 26.4426 9.62027Z" fill="#DB9768"/>
<path fill-rule="evenodd" clip-rule="evenodd" d="M21.7233 11.2046C21.6707 12.3125 21.7307 13.5528 21.8976 14.7955C22.1245 16.4857 22.5369 18.099 23.063 19.3594C23.2384 18.0118 23.2107 16.3506 22.9838 14.6605C22.8164 13.4171 22.547 12.202 22.2026 11.143C22.4109 11.0179 22.5374 10.7727 22.5045 10.5108C22.4609 10.1617 22.1511 9.91528 21.8131 9.96041C21.4746 10.0055 21.236 10.325 21.2795 10.674C21.3125 10.9344 21.4932 11.1369 21.7233 11.2046Z" fill="#DB9768"/>
<path fill-rule="evenodd" clip-rule="evenodd" d="M35.5435 13.9446C35.6035 13.7 35.4595 13.4517 35.2225 13.3899C34.9855 13.3283 34.7447 13.4765 34.6852 13.7212C34.6395 13.9071 34.7123 14.0939 34.8537 14.2006C34.5178 14.9234 34.2202 15.7616 33.9928 16.6284C33.6872 17.7943 33.5214 18.9561 33.5225 19.9202C33.9986 19.0719 34.4259 17.9736 34.7314 16.8076C34.9584 15.9432 35.1098 15.072 35.1709 14.2839C35.3458 14.2605 35.4978 14.1318 35.5435 13.9446Z" fill="#DB9768"/>
<path fill-rule="evenodd" clip-rule="evenodd" d="M15.8757 24.4501C15.7379 22.671 13.9341 21.5586 11.7401 21.5586C7.80114 21.5586 5.85695 24.2473 6.00819 26.1978C6.1017 27.4046 7.1007 28.2489 7.98453 28.2489C9.1911 28.2489 9.9079 27.0971 9.85285 26.3867C9.82395 26.0143 9.41987 25.8309 9.43302 26.0004C9.46702 26.4383 8.94053 27.2668 8.24096 27.2668C7.71307 27.2668 7.41127 26.8346 7.36389 26.2223C7.24484 24.6868 8.65082 22.0953 11.8655 22.0953C13.712 22.0953 14.4756 23.1048 14.5667 24.2806C14.6902 25.8742 13.641 27.16 11.9563 27.16C11.8022 27.16 11.9768 27.6379 12.4377 27.6379C14.3316 27.6379 16.0268 26.3988 15.8757 24.4501Z" fill="#E6427A"/>
<path fill-rule="evenodd" clip-rule="evenodd" d="M13.7936 23.2723C13.9197 23.2723 13.7836 22.9639 13.456 22.9639C12.4602 22.9639 11.5504 23.8508 10.6907 26.2244C9.38516 29.8287 8.58963 30.1984 7.88435 30.1984C7.7353 30.1984 7.68214 30.0728 7.62343 30.0728C7.55311 30.0728 7.49262 30.2227 7.50838 30.4252C7.54291 30.8704 8.09291 31.5715 8.76376 31.5715C11.4454 31.5715 11.7292 23.2723 13.7936 23.2723Z" fill="#E6427A"/>
<path fill-rule="evenodd" clip-rule="evenodd" d="M31.5608 28.4754C31.1134 29.3896 30.6247 30.0634 30.2352 30.0634C30.0442 30.0634 29.9045 29.8678 29.8813 29.5705C29.8054 28.59 30.5692 26.6539 31.3607 26.6539C31.6515 26.6539 31.8685 27.024 31.8651 27.6015C31.7393 27.9501 31.6395 28.2365 31.5608 28.4754ZM21.2065 30.0634C21.0154 30.0634 20.8757 29.8678 20.8528 29.5705C20.7767 28.59 21.5404 26.6539 22.3318 26.6539C22.6306 26.6539 22.8516 27.0438 22.8358 27.6482L22.508 28.524C22.0673 29.4134 21.5888 30.0634 21.2065 30.0634ZM19.7591 33.2587C19.5356 33.2587 19.4067 33.1048 19.3951 32.955C19.3696 32.6275 19.7003 32.531 20.9197 32.2319C20.9744 32.2185 21.0289 32.2051 21.0831 32.1917C20.764 32.8097 20.3649 33.2587 19.7591 33.2587ZM17.4948 28.4754C17.0473 29.3896 16.5586 30.0634 16.1692 30.0634C15.9781 30.0634 15.8384 29.8678 15.8153 29.5705C15.7394 28.59 16.5033 26.6539 17.2946 26.6539C17.5855 26.6539 17.8027 27.024 17.799 27.6015C17.6731 27.9501 17.5735 28.2365 17.4948 28.4754ZM27.4401 26.6068C27.8566 26.6068 27.5488 28.0365 25.9596 28.4757C26.2233 27.5104 26.9214 26.6068 27.4401 26.6068ZM41.9796 28.5869C41.9138 28.5185 41.7733 28.3722 41.7064 28.3028C41.6879 28.2835 41.658 28.2866 41.6461 28.3085C40.9657 29.5448 40.3571 30.1106 39.9712 30.1106C39.8649 30.1106 39.7914 30.0203 39.7811 29.8864C39.7474 29.451 39.7962 29.2005 40.7211 26.7027H41.3918C41.4423 26.7027 41.4858 26.6723 41.5036 26.6251L41.6676 26.1831C41.6841 26.1384 41.6483 26.0873 41.6006 26.0873H40.9497C41.1632 25.5137 41.4145 24.8423 41.7101 24.053C41.7266 24.0086 41.6913 23.957 41.6438 23.957H40.6768C40.6261 23.957 40.5821 23.9879 40.5643 24.0354C40.264 24.8377 40.0107 25.5135 39.7974 26.0873H39.3123C39.2616 26.0873 39.2176 26.1178 39.2001 26.1653L39.0355 26.6078C39.0195 26.6519 39.0545 26.7027 39.1017 26.7027H39.5691C39.2783 27.4904 39.0821 28.0386 38.9491 28.4434C38.4098 29.4225 37.7119 30.2055 37.4093 30.2055C37.2871 30.2055 37.2298 30.1152 37.2193 29.981C37.1975 29.7006 37.4259 29.0731 37.9122 27.7816C38.183 27.063 37.9143 26.2365 37.0378 26.2365C36.6922 26.2365 36.2716 26.2517 35.786 26.7164L35.915 26.3722C35.9318 26.3276 35.896 26.2768 35.8485 26.2768H34.8808C34.8305 26.2768 34.7867 26.3066 34.769 26.3539L34.0173 28.3608C33.3528 29.5634 32.7881 30.2053 32.563 30.2053C32.4567 30.2053 32.3834 30.1152 32.3729 29.9808C32.3447 29.6157 32.3652 29.3332 33.3837 26.6081C33.4001 26.564 33.3652 26.5131 33.3179 26.5131H32.3489C32.2987 26.5131 32.2552 26.5438 32.2374 26.5908C32.2156 26.6493 32.1944 26.7063 32.1734 26.7626C32.0081 26.364 31.6535 26.182 31.2291 26.182C30.0416 26.182 29.1672 27.3822 28.8757 28.5247C28.0196 29.9829 26.975 30.2055 26.5131 30.2055C26.0946 30.2055 25.893 29.8296 25.8583 29.3811C25.8472 29.2372 25.8519 29.0883 25.8692 28.9373C26.8514 28.8986 28.5792 28.1828 28.4854 26.9727C28.4398 26.3841 27.9629 26.1346 27.3087 26.1346C26.0528 26.1346 24.9847 27.4192 24.7794 28.6587C24.1449 29.7718 23.4773 30.4377 22.7872 30.8556C22.8036 30.8133 22.8198 30.7699 22.8362 30.7263L24.3776 26.6086C24.3942 26.5642 24.3588 26.5131 24.3116 26.5131H23.3436C23.2931 26.5131 23.2493 26.5436 23.2314 26.5908L23.1566 26.7915C22.9967 26.3725 22.6351 26.182 22.2002 26.182C21.0009 26.182 20.1209 27.4063 19.8384 28.559C19.2238 29.631 18.7091 30.2053 18.4969 30.2053C18.3905 30.2053 18.3172 30.1152 18.3069 29.9808C18.2787 29.6157 18.2991 29.3332 19.3177 26.6081C19.3341 26.564 19.2991 26.5131 19.2519 26.5131H18.2828C18.2327 26.5131 18.1891 26.5438 18.1713 26.5908C18.1496 26.6493 18.1283 26.7063 18.1074 26.7626C17.9422 26.364 17.5876 26.182 17.1632 26.182C15.6258 26.182 14.6087 28.1939 14.7089 29.4875C14.7717 30.2974 15.2021 30.8609 15.8875 30.8609C16.3567 30.8609 16.7829 30.5795 17.2253 29.8727C17.2259 29.8812 17.2265 29.8895 17.2273 29.898C17.2708 30.4598 17.699 30.8608 18.204 30.8608C18.7052 30.8608 19.0935 30.7724 19.7716 29.6713C19.8821 30.3798 20.2932 30.8609 20.9245 30.8609C21.2189 30.8609 21.496 30.75 21.7709 30.4938L21.6839 30.7263C21.5975 30.9572 21.512 31.1905 21.4234 31.4181C21.2395 31.4671 21.0548 31.5092 20.869 31.5476C19.3188 31.8681 18.571 32.0575 18.6376 32.9188C18.6915 33.6132 19.2922 34.0397 20.0147 34.0397C20.8939 34.04 21.5201 33.8245 22.4145 31.7752C23.2612 31.4185 24.0348 30.8338 24.7997 29.6058C24.96 30.3656 25.4476 30.9555 26.3193 30.9555C26.9158 30.9555 27.8336 30.8846 28.7861 29.5672C28.8708 30.3329 29.2916 30.8609 29.9535 30.8609C30.4228 30.8609 30.8489 30.5795 31.2913 29.8727C31.2919 29.8812 31.2925 29.8895 31.2933 29.898C31.3368 30.4598 31.765 30.8608 32.2702 30.8608C32.5977 30.8608 32.8773 30.821 33.2207 30.488L33.1168 30.7653C33.1004 30.8099 33.1359 30.8608 33.1831 30.8608H34.1509C34.2013 30.8608 34.2451 30.8303 34.2629 30.7831L35.2886 28.0448C35.7732 27.1303 36.3334 26.7497 36.62 26.7497C36.9727 26.7497 36.906 27.2567 36.5297 28.2647C36.1333 29.327 36.105 29.5311 36.1373 29.9455C36.1808 30.5072 36.5139 30.8609 37.019 30.8609C37.5057 30.8609 38.0082 30.7778 38.7008 29.7948C38.7011 29.7977 38.7012 29.8004 38.7014 29.8033C38.7449 30.3651 39.1805 30.8608 39.6856 30.8608C40.386 30.8608 40.9382 30.7273 41.9928 28.6669C42.006 28.6417 42.0007 28.6089 41.9796 28.5869Z" fill="#E6427A"/>
<path fill-rule="evenodd" clip-rule="evenodd" d="M28.3452 34.2796C28.6375 34.2796 28.7621 34.1287 28.7621 33.8892C28.7621 33.6498 28.6375 33.4989 28.3452 33.4989H27.9454V34.2796H28.3452ZM28.4011 34.8826H27.9454V36.0004H27.2104V32.8867H28.4011C29.1404 32.8867 29.51 33.3171 29.51 33.8892C29.51 34.4037 29.1705 34.8826 28.4011 34.8826Z" fill="#E6427A"/>
<path fill-rule="evenodd" clip-rule="evenodd" d="M33.2031 33.7251L32.8334 34.865H33.577L33.2031 33.7251ZM33.7661 35.4503H32.64L32.4593 36.0004H31.6899L32.7817 32.8867H33.6328L34.7246 36.0004H33.9467L33.7661 35.4503Z" fill="#E6427A"/>
<path d="M37.5736 32.8438L38.3 34.2481L39.0315 32.8438H39.9286L38.7231 34.8593V35.9993H37.8795V34.8593L36.6714 32.8438H37.5736Z" fill="#E6427A"/>
</svg>
