<svg width="48" height="48" viewBox="0 0 48 48" fill="none" xmlns="http://www.w3.org/2000/svg">
<circle cx="24" cy="24" r="24" fill="#FFECF3"/>
<path fill-rule="evenodd" clip-rule="evenodd" d="M13.3042 19.857L30.826 15.8834L30.5832 14.8124C30.5158 14.5075 30.2082 14.3161 29.9061 14.3835L13.4851 18.082C13.1802 18.1494 12.9888 18.4543 13.0562 18.7592C13.1397 19.1233 13.2207 19.4929 13.3044 19.8572L13.3042 19.857ZM13.1585 17.1109L29.7872 13.369C30.5803 13.191 31.3707 13.6901 31.5489 14.4832L33.2916 22.1853H32.2502L31.4597 18.6971L13.9378 22.6707L15.0224 27.4539L15.1196 27.8774C15.1573 28.0474 15.3273 28.158 15.5 28.1175L15.6295 28.0879V29.1076L15.6106 29.1132C14.9524 29.2616 14.2968 28.8435 14.1458 28.1879L12.0387 18.8756C11.9497 18.479 12.0144 18.1068 12.2303 17.7614C12.4461 17.4162 12.7617 17.2002 13.1583 17.1112L13.1585 17.1109ZM17.4749 22.4631C16.6629 22.4631 16.0018 23.1267 16.0018 23.9388V33.5211C16.0018 34.3331 16.6627 34.9942 17.4749 34.9942H34.5244C35.3364 34.9942 36 34.3306 36 33.5211V23.9388C36 23.1269 35.3364 22.4631 34.5244 22.4631H17.4749ZM34.1659 26.7524V24.8019C34.1659 24.6751 34.066 24.5752 33.9392 24.5752H29.5768C29.4528 24.5752 29.3502 24.6777 29.3502 24.8019V26.7524C29.3502 26.8764 29.4526 26.979 29.5768 26.979H33.9392C34.0605 26.979 34.1659 26.8791 34.1659 26.7524ZM30.9501 32.6658C30.8233 32.6658 30.7207 32.5632 30.7207 32.4392V31.9861C30.7207 31.862 30.8233 31.7594 30.9501 31.7594H33.9365C34.0605 31.7594 34.1631 31.862 34.1631 31.9861V32.4392C34.1631 32.5632 34.0607 32.6658 33.9365 32.6658H30.9501ZM26.7823 32.6658C26.6582 32.6658 26.5556 32.5632 26.5556 32.4392V31.9886C26.5556 31.8619 26.6581 31.762 26.7823 31.762H29.7714C29.8954 31.762 29.998 31.8644 29.998 31.9886V32.4392C29.998 32.5632 29.8954 32.6658 29.7714 32.6658H26.7823ZM22.6168 32.6658C22.4927 32.6658 22.3901 32.5632 22.3901 32.4392V31.9886C22.3901 31.8619 22.4926 31.762 22.6168 31.762H25.6059C25.7299 31.762 25.8325 31.8644 25.8325 31.9886V32.4392C25.8325 32.5632 25.7299 32.6658 25.6059 32.6658H22.6168ZM18.4517 32.6658C18.3276 32.6658 18.225 32.5632 18.225 32.4392V31.9886C18.225 31.8619 18.3276 31.762 18.4517 31.762H21.4408C21.5648 31.762 21.6674 31.8644 21.6674 31.9886V32.4392C21.6674 32.5632 21.565 32.6658 21.4408 32.6658H18.4517Z" fill="#E6427A"/>
</svg>
