<svg width="16" height="16" viewBox="0 0 16 16" fill="none" xmlns="http://www.w3.org/2000/svg">
<path d="M8 1C4.14017 1 1 4.14017 1 8C1 11.8598 4.14017 15 8 15C11.8598 15 15 11.8598 15 8C15 4.14017 11.8598 1 8 1ZM8 14.2135C4.57388 14.2135 1.78652 11.4261 1.78652 8C1.78652 4.57388 4.57388 1.78652 8 1.78652C11.4261 1.78652 14.2135 4.57388 14.2135 8C14.2135 11.4261 11.4261 14.2135 8 14.2135ZM8 2.70421C7.78274 2.70421 7.60674 2.88021 7.60674 3.09747V7.60702H4.14607C3.92881 7.60702 3.75281 7.78302 3.75281 8.00028C3.75281 8.21754 3.92881 8.39354 4.14607 8.39354H8C8.21726 8.39354 8.39326 8.21754 8.39326 8.00028V3.09747C8.39326 2.88043 8.21726 2.70421 8 2.70421Z" fill="#E6427A" stroke="#E6427A" stroke-width="0.3"/>
</svg>
