<svg width="14" height="14" viewBox="0 0 14 14" fill="none" xmlns="http://www.w3.org/2000/svg">
<path d="M6.9511 2.90747e-06C4.21214 2.90747e-06 2 2.3094 2 5.12183C2 6.13613 2.30548 6.94318 2.77897 7.70941L6.51364 13.7541L6.51352 13.7542C6.60653 13.9068 6.7723 14 6.95107 14C7.12983 14 7.2956 13.9068 7.38862 13.7542L11.1233 7.70953C11.5967 6.94318 11.9021 6.13613 11.9021 5.12182C11.9021 2.30939 9.69002 0 6.95104 0L6.9511 2.90747e-06ZM6.9511 1.02443C9.11519 1.02443 10.8778 2.84258 10.8778 5.12189C10.8778 5.94266 10.6627 6.49987 10.2483 7.17059L6.95116 12.5058L3.65398 7.17059C3.23954 6.49987 3.02436 5.94266 3.02436 5.12189C3.02436 2.84261 4.787 1.02443 6.9511 1.02443V1.02443ZM6.9511 2.39028C5.54287 2.39028 4.39018 3.54296 4.39018 4.95119C4.39018 6.35942 5.54287 7.5121 6.9511 7.5121C8.35932 7.5121 9.51201 6.35942 9.51201 4.95119C9.51201 3.54296 8.35932 2.39028 6.9511 2.39028ZM6.9511 3.4147C7.8058 3.4147 8.48758 4.09661 8.48758 4.95119C8.48758 5.80577 7.80568 6.48768 6.9511 6.48768C6.09639 6.48768 5.41461 5.80577 5.41461 4.95119C5.41461 4.09649 6.09651 3.4147 6.9511 3.4147V3.4147Z" fill="#E6427A"/>
</svg>
