<svg width="14" height="13" viewBox="0 0 14 13" fill="none" xmlns="http://www.w3.org/2000/svg">
<path d="M13.1442 1.17101C12.0031 0.0299398 10.1415 0.0299398 9.00046 1.17101L2.84498 7.35651C2.15442 8.04708 2.15442 9.15822 2.84498 9.84873C3.53554 10.5393 4.64669 10.5393 5.3372 9.84873L9.15064 6.00531C9.39088 5.76507 9.39088 5.40483 9.15064 5.16456C8.9104 4.9243 8.55016 4.92432 8.3099 5.16456L4.46648 8.97801C4.25619 9.1883 3.89591 9.1883 3.68583 8.97801C3.47555 8.76772 3.47555 8.40745 3.68583 8.19737L9.84131 2.01186C10.5019 1.35128 11.6128 1.35128 12.2734 2.01186C12.934 2.67245 12.934 3.78339 12.2734 4.44397L6.11794 10.6295C4.97688 11.7705 3.14525 11.7705 2.03431 10.6295C0.893241 9.48841 0.893241 7.65678 2.03431 6.54584L7.55923 1.02093C7.79947 0.780688 7.79947 0.420448 7.55923 0.18018C7.31899 -0.0600602 6.95875 -0.0600602 6.71848 0.18018L1.19356 5.67507C-0.397854 7.26649 -0.397854 9.87871 1.19356 11.4702C2.78498 13.0616 5.3972 13.0616 6.98872 11.4702L13.1442 5.31475C14.2853 4.17368 14.2853 2.31208 13.1442 1.17101Z" fill="#E6427A"/>
</svg>
