<svg width="14" height="14" viewBox="0 0 14 14" fill="none" xmlns="http://www.w3.org/2000/svg">
<path d="M7 0C5.14348 0 3.36305 0.737471 2.05023 2.05023C0.73747 3.36299 0 5.14357 0 7C0 8.85643 0.73747 10.637 2.05023 11.9498C3.36299 13.2625 5.14357 14 7 14C8.85643 14 10.637 13.2625 11.9498 11.9498C13.2625 10.637 14 8.85643 14 7C13.9979 5.14408 13.2597 3.36485 11.9474 2.05263C10.6352 0.74035 8.85589 0.00216 7.00006 5.99679e-05L7 0ZM9.48688 9.02623L6.68688 7.62617C6.57063 7.56804 6.4729 7.47863 6.40446 7.36812C6.33614 7.25749 6.30004 7.12999 6.30004 7.00001V3.49986C6.30004 3.24978 6.4334 3.01869 6.64997 2.89364C6.86653 2.7686 7.13348 2.7686 7.35006 2.89364C7.56663 3.01869 7.69998 3.24978 7.69998 3.49986V6.56711L10.1132 7.77369C10.3369 7.88549 10.4839 8.10826 10.4989 8.35801C10.5139 8.60762 10.3945 8.84633 10.1858 8.98415C9.97707 9.12197 9.71058 9.1379 9.48687 9.0261L9.48688 9.02623Z" fill="#262425"/>
</svg>
