<svg width="25" height="24" viewBox="0 0 25 24" fill="none" xmlns="http://www.w3.org/2000/svg">
<path d="M22.4487 23.9996C23.455 23.9996 24.2749 23.1797 24.2749 22.1735V18.5586L18.3867 23.9997L22.4487 23.9996Z" fill="#E6427A"/>
<path d="M24.2406 17.2924C24.1659 17.0688 23.9424 16.957 23.7188 16.957H19.0233C17.7563 16.957 16.75 17.9633 16.75 19.2303V23.4415C16.75 23.6651 16.8618 23.8515 17.0853 23.9632C17.1599 24.0004 17.2343 24.0004 17.3089 24.0004C17.4579 24.0004 17.5699 23.9633 17.6817 23.8515L24.1288 17.8886C24.278 17.7394 24.3526 17.5159 24.2406 17.2923V17.2924Z" fill="#E6427A"/>
<path d="M22.45 1.9375H21.6673V3.68904C21.6673 4.69531 20.8474 5.51518 19.8412 5.51518H18.686C17.6797 5.51518 16.8598 4.69531 16.8598 3.68904L16.8601 1.9375H7.9533V3.68904C7.9533 4.69531 7.13343 5.51518 6.12716 5.51518L4.93475 5.51492C3.92848 5.51492 3.10861 4.69505 3.10861 3.68878V1.93751H2.32614C1.31987 1.93751 0.5 2.75738 0.5 3.76365V6.14873H24.3135V3.76365C24.2763 2.75738 23.4564 1.93751 22.4502 1.93751L22.45 1.9375Z" fill="#E6427A"/>
<path d="M0.500054 22.1724C0.500054 23.1787 1.31992 23.9986 2.3262 23.9986H16.3013C16.2267 23.8496 16.1523 23.6632 16.1523 23.4397L16.152 19.2285C16.152 17.6633 17.4191 16.3588 19.0217 16.3588H23.7546C23.941 16.3588 24.1274 16.396 24.3135 16.5078V7.26562H0.5L0.500054 22.1724Z" fill="#E6427A"/>
<path d="M4.93684 4.91929H6.09204C6.76271 4.91929 7.32185 4.36039 7.32185 3.68948V1.22981C7.32185 0.559135 6.76295 0 6.09204 0H4.93684C4.26617 0 3.70703 0.558896 3.70703 1.22981V3.68948C3.70703 4.36015 4.26619 4.91929 4.93684 4.91929Z" fill="#E6427A"/>
<path d="M18.6886 4.91929H19.8438C20.5145 4.91929 21.0736 4.36039 21.0736 3.68948V1.22981C21.0736 0.559135 20.5147 0 19.8438 0H18.6886C18.0179 0 17.4588 0.558896 17.4588 1.22981V3.68948C17.4216 4.36015 17.9805 4.91929 18.6886 4.91929Z" fill="#E6427A"/>
</svg>
