<svg width="25" height="24" viewBox="0 0 25 24" fill="none" xmlns="http://www.w3.org/2000/svg">
<path d="M21.15 11.9988C21.15 9.70438 20.2386 7.50392 18.6162 5.88151C16.9939 4.25906 14.7934 3.34766 12.4988 3.34766C10.2042 3.34766 8.00392 4.25906 6.38151 5.88151C4.75906 7.50377 3.84766 9.70423 3.84766 11.9988C3.84766 14.2934 4.75906 16.4938 6.38151 18.1162C8.00377 19.7386 10.2042 20.65 12.4988 20.65C14.7923 20.6474 16.9913 19.7351 18.6133 18.1134C20.235 16.4915 21.1473 14.2925 21.1499 11.9989L21.15 11.9988ZM11.6619 11.9988V8.65003C11.6619 8.35084 11.8215 8.07446 12.0805 7.92496C12.3395 7.77546 12.6587 7.77546 12.9177 7.92496C13.1767 8.07446 13.3363 8.35085 13.3363 8.65003V11.4819L15.1056 12.366C15.3323 12.4793 15.4954 12.6889 15.5494 12.9366C15.6034 13.1842 15.5425 13.4428 15.3837 13.6401C15.2246 13.8375 14.9851 13.9522 14.7317 13.9522C14.6022 13.9524 14.4745 13.9223 14.3588 13.864L12.1262 12.7478C11.9868 12.6785 11.8697 12.5716 11.7876 12.4393C11.7056 12.307 11.662 12.1545 11.6619 11.9988L11.6619 11.9988Z" fill="#E6427A"/>
<path d="M24.5 12C24.5 8.81752 23.2358 5.76546 20.9854 3.51458C18.7349 1.26423 15.6828 0 12.5 0C9.31719 0 6.26546 1.26423 4.01458 3.51458C1.76423 5.76513 0.5 8.81719 0.5 12C0.5 15.1828 1.76423 18.2345 4.01458 20.4854C6.26513 22.7358 9.31719 24 12.5 24C15.6816 23.9964 18.7317 22.7311 20.9816 20.4815C23.2312 18.2319 24.4966 15.1818 24.5001 11.9999L24.5 12ZM2.17441 12H2.17459C2.17459 9.26153 3.26238 6.6352 5.19881 4.69863C7.13524 2.7622 9.76157 1.67441 12.5002 1.67441C15.2388 1.67441 17.865 2.7622 19.8016 4.69863C21.738 6.63505 22.8258 9.26139 22.8258 12C22.8258 14.7386 21.738 17.3648 19.8016 19.3014C17.8651 21.2378 15.2388 22.3256 12.5002 22.3256C9.76263 22.3228 7.13778 21.2339 5.20216 19.2982C3.2665 17.3624 2.17756 14.7377 2.17479 12.0002L2.17441 12Z" fill="#E6427A"/>
</svg>
