<svg width="36" height="36" viewBox="0 0 36 36" fill="none" xmlns="http://www.w3.org/2000/svg">
<circle cx="18" cy="18" r="18" fill="#FFECF3"/>
<path d="M24.3908 14.594C24.6983 14.2864 25.0059 13.9789 25.3134 13.6693L25.4742 13.5085C25.5004 13.4824 25.5185 13.4542 25.5325 13.4221C25.5346 13.4181 25.5366 13.414 25.5386 13.408C25.5406 13.404 25.5426 13.398 25.5446 13.3939C25.5466 13.3899 25.5486 13.3839 25.5486 13.3799V13.3758C25.5647 13.3216 25.5647 13.2633 25.5486 13.209V13.207C25.5426 13.1829 25.5325 13.1608 25.5205 13.1386C25.5084 13.1165 25.4923 13.0984 25.4742 13.0803C25.1587 12.7648 24.8431 12.4492 24.5275 12.1336C24.4129 12.019 24.2159 12.019 24.1013 12.1336C23.7395 12.4954 23.3796 12.8552 23.0178 13.217C21.9926 12.429 20.7644 11.9044 19.48 11.7275C19.2609 11.6974 19.0397 11.6773 18.8186 11.6652V10.5355H20.1051C20.3162 10.5355 20.5172 10.3506 20.5072 10.1335C20.4971 9.9164 20.3303 9.73145 20.1051 9.73145H16.7301C16.519 9.73145 16.318 9.91638 16.328 10.1335C16.3381 10.3506 16.5049 10.5355 16.7301 10.5355H18.0166V11.6673C16.9412 11.7255 15.8818 12.009 14.919 12.5115C13.6445 13.1769 12.5691 14.2201 11.8595 15.4705C11.1258 16.765 10.7861 18.2726 10.9007 19.756C11.0153 21.2515 11.5721 22.6727 12.4947 23.8525C13.3812 24.9882 14.5994 25.8466 15.9602 26.321C17.3794 26.8155 18.9533 26.8617 20.4027 26.4677C21.7977 26.0878 23.0782 25.2958 24.041 24.2163C25.0079 23.1309 25.6612 21.772 25.8723 20.3308C25.9285 19.9529 25.9587 19.575 25.9607 19.193V19.191C25.9547 17.5266 25.3979 15.9084 24.3908 14.5938L24.3908 14.594ZM19.6105 19.2294C19.5884 19.7118 19.2768 20.1581 18.8205 20.3169V20.8395C18.8205 21.0647 18.6356 21.2315 18.4185 21.2416C18.2014 21.2516 18.0164 21.0506 18.0164 20.8395V20.3088C17.7612 20.2184 17.54 20.0455 17.3933 19.8003C17.128 19.36 17.1943 18.8053 17.5159 18.4153C17.6466 18.2565 17.8235 18.1379 18.0185 18.0695V14.1295C18.0185 13.9044 18.2034 13.7376 18.4205 13.7275C18.6376 13.7174 18.8226 13.9185 18.8226 14.1295V18.0714C19.2849 18.2442 19.5924 18.6724 19.6125 19.1669V19.1709V19.195C19.6105 19.2051 19.6105 19.2172 19.6105 19.2292L19.6105 19.2294Z" fill="#E6427A"/>
</svg>
