<svg width="16" height="16" viewBox="0 0 16 16" fill="none" xmlns="http://www.w3.org/2000/svg">
<path d="M4.95536 11.9185L5.65179 10.6596C5.13393 10.2846 4.72917 9.81138 4.4375 9.23996C4.14583 8.66853 4 8.06436 4 7.42746C4 6.70722 4.18155 6.03757 4.54464 5.41853C3.18155 6.11496 2.04762 7.16555 1.14286 8.57031C2.1369 10.106 3.40774 11.2221 4.95536 11.9185ZM8.42857 5.14174C8.42857 5.02269 8.3869 4.9215 8.30357 4.83817C8.22024 4.75484 8.11905 4.71317 8 4.71317C7.25595 4.71317 6.61756 4.97954 6.08482 5.51228C5.55208 6.04502 5.28571 6.68341 5.28571 7.42746C5.28571 7.5465 5.32738 7.64769 5.41071 7.73103C5.49405 7.81436 5.59524 7.85603 5.71429 7.85603C5.83333 7.85603 5.93452 7.81436 6.01786 7.73103C6.10119 7.64769 6.14286 7.5465 6.14286 7.42746C6.14286 6.91555 6.32441 6.47805 6.6875 6.11496C7.0506 5.75186 7.4881 5.57031 8 5.57031C8.11905 5.57031 8.22024 5.52865 8.30357 5.44531C8.3869 5.36198 8.42857 5.26079 8.42857 5.14174ZM11.6696 3.43638C11.6696 3.47805 11.6667 3.50484 11.6607 3.51674C11.0357 4.63579 10.0982 6.32031 8.84822 8.57031C7.59821 10.8203 6.65774 12.5078 6.02679 13.6328L5.58929 14.4275C5.52976 14.5227 5.44643 14.5703 5.33929 14.5703C5.26786 14.5703 4.86905 14.362 4.14286 13.9453C4.04762 13.8858 4 13.8025 4 13.6953C4 13.6239 4.13095 13.365 4.39286 12.9185C3.54167 12.5316 2.75744 12.0167 2.04018 11.3739C1.32292 10.731 0.702381 10.0019 0.178571 9.18638C0.0595238 9.00186 0 8.7965 0 8.57031C0 8.34412 0.0595238 8.13877 0.178571 7.95424C1.08929 6.55543 2.22024 5.45127 3.57143 4.64174C4.92262 3.83222 6.39881 3.42746 8 3.42746C8.52976 3.42746 9.06548 3.47805 9.60714 3.57924L10.0893 2.71317C10.1488 2.61793 10.2321 2.57031 10.3393 2.57031C10.369 2.57031 10.4226 2.58817 10.5 2.62388C10.5774 2.6596 10.6696 2.70573 10.7768 2.76228C10.8839 2.81882 10.9821 2.87388 11.0714 2.92746C11.1607 2.98103 11.2545 3.03609 11.3527 3.09263C11.4509 3.14918 11.5089 3.18341 11.5268 3.19531C11.622 3.25484 11.6696 3.33519 11.6696 3.43638ZM12 7.42746C12 8.25484 11.7649 9.0093 11.2946 9.69085C10.8244 10.3724 10.2024 10.862 9.42857 11.1596L11.9286 6.67746C11.9762 6.94531 12 7.19531 12 7.42746ZM16 8.57031C16 8.77865 15.9405 8.984 15.8214 9.18638C15.5893 9.56734 15.2649 9.99888 14.8482 10.481C13.9554 11.5048 12.9211 12.2995 11.7455 12.865C10.5699 13.4304 9.32143 13.7132 8 13.7132L8.66072 12.5346C9.92262 12.4275 11.0908 12.0197 12.1652 11.3114C13.2396 10.6031 14.1369 9.68936 14.8571 8.57031C14.1726 7.50484 13.3333 6.62984 12.3393 5.94531L12.9018 4.94531C13.4673 5.32627 14.0104 5.78162 14.5313 6.31138C15.0521 6.84115 15.4821 7.38877 15.8214 7.95424C15.9405 8.15662 16 8.36198 16 8.57031Z" fill="#9C9FA0"/>
</svg>
