<svg width="18" height="18" viewBox="0 0 18 18" fill="none" xmlns="http://www.w3.org/2000/svg">
<path d="M16.6801 14.7039C17.2398 15.2641 17.2398 16.1355 16.6801 16.6958C16.4003 16.9759 16.0583 17.1004 15.6851 17.1004C15.312 17.1004 14.97 16.9759 14.6901 16.6958L8.9999 11.0001L3.30969 16.6958C3.02985 16.9759 2.68781 17.1004 2.31468 17.1004C1.94155 17.1004 1.59952 16.9759 1.31967 16.6958C0.759979 16.1355 0.759979 15.2641 1.31967 14.7039L7.00988 9.00817L1.31967 3.31249C0.759979 2.75226 0.759979 1.88079 1.31967 1.32056C1.87936 0.760333 2.75 0.760333 3.30969 1.32056L8.9999 7.01624L14.6901 1.32056C15.2498 0.760333 16.1204 0.760333 16.6801 1.32056C17.2398 1.88079 17.2398 2.75226 16.6801 3.31249L10.9899 9.00817L16.6801 14.7039Z" fill="black" stroke="#FFECF3" stroke-width="0.5"/>
</svg>
