<svg width="18" height="18" viewBox="0 0 18 18" fill="none" xmlns="http://www.w3.org/2000/svg">
<path d="M8.97405 16.9481C4.57707 16.9481 1 13.371 1 8.97405C1 4.57707 4.57707 1 8.97405 1C10.2683 1 11.5528 1.31708 12.6899 1.91655C13.107 2.13708 13.2671 2.65365 13.0471 3.07137C12.827 3.48909 12.3111 3.64903 11.8922 3.42852C11.0003 2.95761 9.99111 2.70916 8.97405 2.70916C5.51942 2.70903 2.70838 5.51929 2.70838 8.97418C2.70838 12.4291 5.51864 15.2392 8.9734 15.2392C12.428 15.2392 15.2391 12.4289 15.2391 8.97418C15.2391 8.57928 15.2025 8.18451 15.1299 7.80225C15.0419 7.33888 15.3465 6.89141 15.8098 6.80341C16.2732 6.7149 16.7207 7.0205 16.8082 7.48337C16.9008 7.97074 16.9476 8.47186 16.9476 8.97366C16.9482 13.3713 13.3705 16.9484 8.97385 16.9484L8.97405 16.9481Z" fill="#18BE46" stroke="white" stroke-width="0.2"/>
<path d="M8.14496 12.122H8.14445C7.91817 12.122 7.70044 12.0311 7.53985 11.8711L5.13595 9.45962C4.8028 9.12533 4.80394 8.58477 5.13761 8.25109C5.4719 7.91794 6.01246 7.91856 6.34614 8.25275L8.1461 10.0585L15.5425 2.66432C15.8762 2.33064 16.4174 2.33064 16.7511 2.66432C17.0842 2.99799 17.0842 3.53918 16.7511 3.87233L8.74959 11.8722C8.589 12.0316 8.37128 12.1219 8.14499 12.1219L8.14496 12.122Z" fill="#18BE46" stroke="white" stroke-width="0.2"/>
</svg>
