<svg width="20" height="20" viewBox="0 0 20 20" fill="none" xmlns="http://www.w3.org/2000/svg">
<path d="M18.5336 16.3372C19.1555 16.9597 19.1555 17.928 18.5336 18.5504C18.2226 18.8617 17.8426 19 17.428 19C17.0134 19 16.6334 18.8617 16.3225 18.5504L10 12.2219L3.67754 18.5504C3.3666 18.8617 2.98656 19 2.57198 19C2.15739 19 1.77735 18.8617 1.46641 18.5504C0.84453 17.928 0.84453 16.9597 1.46641 16.3372L7.78887 10.0086L1.46641 3.68012C0.84453 3.05764 0.84453 2.08934 1.46641 1.46686C2.08829 0.84438 3.05566 0.84438 3.67754 1.46686L10 7.79539L16.3225 1.46686C16.9443 0.84438 17.9117 0.84438 18.5336 1.46686C19.1555 2.08934 19.1555 3.05764 18.5336 3.68012L12.2111 10.0086L18.5336 16.3372Z" fill="black" stroke="white" stroke-width="0.5"/>
</svg>
