<svg width="13" height="12" viewBox="0 0 13 12" fill="none" xmlns="http://www.w3.org/2000/svg">
<path d="M7.50007 0H5.50005C5.10216 0 4.7207 0.158033 4.43932 0.439282C4.15807 0.720642 4.00003 1.1021 4.00003 1.49999V1.99998H0.999998C0.821314 1.99998 0.656252 2.09529 0.566965 2.24998C0.477678 2.40467 0.477678 2.59529 0.566965 2.74997C0.656252 2.90466 0.821319 2.99997 0.999998 2.99997H1.55246L2.30504 9.77648C2.37301 10.388 2.66419 10.9528 3.12268 11.3631C3.58117 11.7733 4.1748 12.0001 4.78998 12H8.21002C8.82531 12.0001 9.41895 11.7732 9.87744 11.3628C10.336 10.9526 10.6271 10.3875 10.695 9.77602L11.45 3.00009H12C12.1787 3.00009 12.3437 2.90478 12.433 2.75009C12.5223 2.5954 12.5223 2.40478 12.433 2.25009C12.3437 2.09541 12.1787 2.0001 12 2.0001H8.99997V1.5001C8.99997 1.10222 8.84193 0.720765 8.56068 0.439396C8.27931 0.158147 7.89784 0.000114222 7.49995 0.000114222L7.50007 0ZM5.00004 1.49999C5.00004 1.3674 5.05272 1.24017 5.14647 1.14642C5.24022 1.05267 5.36746 0.99999 5.50005 0.99999H7.50007C7.63266 0.99999 7.75989 1.05267 7.85364 1.14642C7.94739 1.24017 8.00007 1.3674 8.00007 1.49999V1.99998H5.00004V1.49999ZM5.50005 7.99992C5.50005 8.17861 5.40473 8.34366 5.25004 8.43295C5.09535 8.52223 4.90473 8.52223 4.75004 8.43295C4.59535 8.34366 4.50004 8.1786 4.50004 7.99992V4.99995C4.50004 4.82127 4.59535 4.65621 4.75004 4.56693C4.90473 4.47764 5.09536 4.47764 5.25004 4.56693C5.40473 4.65621 5.50005 4.82128 5.50005 4.99995V7.99992ZM8.50008 7.99992C8.50008 8.17861 8.40477 8.34366 8.25008 8.43295C8.09539 8.52223 7.90476 8.52223 7.75007 8.43295C7.59538 8.34366 7.50007 8.1786 7.50007 7.99992V4.99995C7.50007 4.82127 7.59538 4.65621 7.75007 4.56693C7.90476 4.47764 8.09539 4.47764 8.25008 4.56693C8.40476 4.65621 8.50008 4.82128 8.50008 4.99995V7.99992Z" fill="#707070"/>
</svg>
