<svg width="60" height="68" viewBox="0 0 60 68" fill="none" xmlns="http://www.w3.org/2000/svg">
<path d="M4.28568 0H40.6992L60 19.0656V63.75C60 66.0981 58.0801 68 55.7143 68H4.28568C1.9199 68 0 66.0981 0 63.75V4.24996C0 1.90192 1.92012 0 4.28568 0Z" fill="#4C80F3"/>
<path d="M59.938 19.125H45C42.6343 19.125 40.7144 17.2211 40.7144 14.8751V0.0425262L59.938 19.125Z" fill="#2E54AB"/>
<path d="M12 42.7692V30.2308H15.5381C16.8413 30.2308 17.9685 30.4551 18.9199 30.9038C19.8712 31.3397 20.6009 32.0192 21.1092 32.9423C21.6305 33.8526 21.8911 35.0192 21.8911 36.4423C21.8911 37.8654 21.6305 39.0449 21.1092 39.9808C20.6009 40.9167 19.8842 41.6154 18.959 42.0769C18.0337 42.5385 16.9455 42.7692 15.6945 42.7692H12ZM14.678 40.6346H15.3817C16.1376 40.6346 16.7957 40.4936 17.356 40.2115C17.9164 39.9295 18.353 39.4872 18.6657 38.8846C18.9785 38.2692 19.1349 37.4551 19.1349 36.4423C19.1349 35.4295 18.9785 34.6282 18.6657 34.0385C18.353 33.4359 17.9164 33.0064 17.356 32.75C16.7957 32.4808 16.1376 32.3462 15.3817 32.3462H14.678V40.6346Z" fill="white"/>
<path d="M29.4724 43C28.3386 43 27.3352 42.7372 26.462 42.2115C25.6019 41.6859 24.9308 40.9359 24.4486 39.9615C23.9664 38.9744 23.7254 37.8013 23.7254 36.4423C23.7254 35.0833 23.9664 33.9231 24.4486 32.9615C24.9308 32 25.6019 31.2692 26.462 30.7692C27.3352 30.2564 28.3386 30 29.4724 30C30.6061 30 31.603 30.2564 32.4631 30.7692C33.3232 31.2692 33.9944 32 34.4765 32.9615C34.9587 33.9231 35.1998 35.0833 35.1998 36.4423C35.1998 37.8013 34.9587 38.9744 34.4765 39.9615C33.9944 40.9359 33.3232 41.6859 32.4631 42.2115C31.603 42.7372 30.6061 43 29.4724 43ZM29.4724 40.7115C30.0718 40.7115 30.5931 40.5385 31.0362 40.1923C31.4923 39.8462 31.8376 39.3526 32.0722 38.7115C32.3198 38.0705 32.4436 37.3141 32.4436 36.4423C32.4436 35.5705 32.3198 34.8269 32.0722 34.2115C31.8376 33.5833 31.4923 33.1026 31.0362 32.7692C30.5931 32.4359 30.0718 32.2692 29.4724 32.2692C28.8599 32.2692 28.3256 32.4359 27.8695 32.7692C27.4264 33.1026 27.081 33.5833 26.8334 34.2115C26.5989 34.8269 26.4816 35.5705 26.4816 36.4423C26.4816 37.3141 26.5989 38.0705 26.8334 38.7115C27.081 39.3526 27.4264 39.8462 27.8695 40.1923C28.3256 40.5385 28.8599 40.7115 29.4724 40.7115Z" fill="white"/>
<path d="M42.9145 43C41.8329 43 40.849 42.7564 39.9629 42.2692C39.0767 41.7821 38.3665 41.0577 37.8322 40.0962C37.2979 39.1346 37.0307 37.9551 37.0307 36.5577C37.0307 35.5192 37.1871 34.5962 37.4999 33.7885C37.8126 32.9808 38.2427 32.2949 38.79 31.7308C39.3504 31.1538 39.9889 30.7244 40.7057 30.4423C41.4354 30.1474 42.1978 30 42.9927 30C43.8137 30 44.5435 30.1603 45.1821 30.4808C45.8337 30.8013 46.368 31.1795 46.785 31.6154L45.358 33.3077C45.0322 33 44.6869 32.75 44.322 32.5577C43.9571 32.3654 43.5336 32.2692 43.0514 32.2692C42.4389 32.2692 41.885 32.4423 41.3898 32.7885C40.8946 33.1218 40.5037 33.6026 40.217 34.2308C39.9303 34.859 39.7869 35.609 39.7869 36.4808C39.7869 37.3654 39.9172 38.1282 40.1779 38.7692C40.4385 39.3974 40.8099 39.8782 41.2921 40.2115C41.7873 40.5449 42.3607 40.7115 43.0123 40.7115C43.5466 40.7115 44.0222 40.5962 44.4393 40.3654C44.8693 40.1346 45.2472 39.8462 45.573 39.5L47 41.1538C46.4787 41.7564 45.8728 42.2179 45.1821 42.5385C44.4914 42.8462 43.7355 43 42.9145 43Z" fill="white"/>
</svg>
