<svg width="343" height="132" viewBox="0 0 343 132" fill="none" xmlns="http://www.w3.org/2000/svg">
<rect x="0.5" y="0.5" width="342" height="131" rx="29.5" fill="white" stroke="#E6427A" stroke-dasharray="6 6"/>
<circle cx="172" cy="48" r="24" fill="#FFECF3"/>
<path d="M167.692 37.998L166.461 41.075H162.154C160.96 41.075 160 42.0356 160 43.2288V55.5365C160 56.7298 160.961 57.6903 162.154 57.6903H181.846C183.039 57.6903 184 56.7296 184 55.5365V43.2288C184 42.0354 183.039 41.075 181.846 41.075H177.539L176.308 37.998H167.692ZM172 43.2288C175.387 43.2288 178.153 45.9949 178.153 49.3826C178.153 52.7703 175.387 55.5365 172 55.5365C168.612 55.5365 165.846 52.7703 165.846 49.3826C165.846 45.9949 168.612 43.2288 172 43.2288ZM172 45.075C169.61 45.075 167.692 46.9927 167.692 49.3826C167.692 51.7725 169.61 53.6902 172 53.6902C174.39 53.6902 176.307 51.7725 176.307 49.3826C176.307 46.9927 174.39 45.075 172 45.075Z" fill="#E6427A"/>
<path d="M61.8496 93.0469H63.1621V99.7803C63.1621 100.528 62.9958 101.15 62.6631 101.646C62.3304 102.143 61.8883 102.517 61.3369 102.768C60.79 103.014 60.1953 103.137 59.5527 103.137C58.8783 103.137 58.2676 103.014 57.7207 102.768C57.1784 102.517 56.7477 102.143 56.4287 101.646C56.1143 101.15 55.957 100.528 55.957 99.7803V93.0469H57.2627V99.7803C57.2627 100.3 57.3584 100.728 57.5498 101.065C57.7412 101.403 58.0078 101.653 58.3496 101.817C58.696 101.981 59.097 102.063 59.5527 102.063C60.013 102.063 60.4141 101.981 60.7559 101.817C61.1022 101.653 61.3711 101.403 61.5625 101.065C61.7539 100.728 61.8496 100.3 61.8496 99.7803V93.0469ZM66.3066 97.0254V105.844H65.0352V95.6035H66.1973L66.3066 97.0254ZM71.29 99.2402V99.3838C71.29 99.9215 71.2262 100.421 71.0986 100.881C70.971 101.337 70.7842 101.733 70.5381 102.07C70.2965 102.408 69.998 102.67 69.6426 102.856C69.2871 103.043 68.8792 103.137 68.4189 103.137C67.9495 103.137 67.5348 103.059 67.1748 102.904C66.8148 102.749 66.5094 102.524 66.2588 102.228C66.0081 101.931 65.8076 101.576 65.6572 101.161C65.5114 100.746 65.4111 100.279 65.3564 99.7598V98.9941C65.4111 98.4473 65.5137 97.9574 65.6641 97.5244C65.8145 97.0915 66.0127 96.7223 66.2588 96.417C66.5094 96.1071 66.8125 95.8724 67.168 95.7129C67.5234 95.5488 67.9336 95.4668 68.3984 95.4668C68.8633 95.4668 69.2757 95.5579 69.6357 95.7402C69.9958 95.918 70.2988 96.1732 70.5449 96.5059C70.791 96.8385 70.9756 97.2373 71.0986 97.7021C71.2262 98.1624 71.29 98.6751 71.29 99.2402ZM70.0186 99.3838V99.2402C70.0186 98.8711 69.9798 98.5247 69.9023 98.2012C69.8249 97.873 69.7041 97.5859 69.54 97.3398C69.3805 97.0892 69.1755 96.8932 68.9248 96.752C68.6742 96.6061 68.3757 96.5332 68.0293 96.5332C67.7103 96.5332 67.4323 96.5879 67.1953 96.6973C66.9629 96.8066 66.7646 96.9548 66.6006 97.1416C66.4365 97.3239 66.3021 97.5335 66.1973 97.7705C66.097 98.0029 66.0218 98.2445 65.9717 98.4951V100.266C66.0628 100.585 66.1904 100.885 66.3545 101.168C66.5186 101.446 66.7373 101.672 67.0107 101.845C67.2842 102.013 67.6283 102.098 68.043 102.098C68.3848 102.098 68.6787 102.027 68.9248 101.886C69.1755 101.74 69.3805 101.542 69.54 101.291C69.7041 101.04 69.8249 100.753 69.9023 100.43C69.9798 100.102 70.0186 99.7529 70.0186 99.3838ZM74.2773 92.5V103H73.0059V92.5H74.2773ZM75.9727 99.3838V99.2266C75.9727 98.6934 76.0501 98.1989 76.2051 97.7432C76.36 97.2829 76.5833 96.8841 76.875 96.5469C77.1667 96.2051 77.5199 95.9408 77.9346 95.7539C78.3493 95.5625 78.8141 95.4668 79.3291 95.4668C79.8486 95.4668 80.3158 95.5625 80.7305 95.7539C81.1497 95.9408 81.5052 96.2051 81.7969 96.5469C82.0931 96.8841 82.3187 97.2829 82.4736 97.7432C82.6286 98.1989 82.7061 98.6934 82.7061 99.2266V99.3838C82.7061 99.917 82.6286 100.411 82.4736 100.867C82.3187 101.323 82.0931 101.722 81.7969 102.063C81.5052 102.401 81.152 102.665 80.7373 102.856C80.3271 103.043 79.8623 103.137 79.3428 103.137C78.8232 103.137 78.3561 103.043 77.9414 102.856C77.5267 102.665 77.1712 102.401 76.875 102.063C76.5833 101.722 76.36 101.323 76.2051 100.867C76.0501 100.411 75.9727 99.917 75.9727 99.3838ZM77.2373 99.2266V99.3838C77.2373 99.7529 77.2806 100.102 77.3672 100.43C77.4538 100.753 77.5837 101.04 77.7568 101.291C77.9346 101.542 78.1556 101.74 78.4199 101.886C78.6842 102.027 78.9919 102.098 79.3428 102.098C79.6891 102.098 79.9922 102.027 80.252 101.886C80.5163 101.74 80.735 101.542 80.9082 101.291C81.0814 101.04 81.2113 100.753 81.2979 100.43C81.389 100.102 81.4346 99.7529 81.4346 99.3838V99.2266C81.4346 98.862 81.389 98.5179 81.2979 98.1943C81.2113 97.8662 81.0791 97.5768 80.9014 97.3262C80.7282 97.071 80.5094 96.8704 80.2451 96.7246C79.9854 96.5788 79.68 96.5059 79.3291 96.5059C78.9827 96.5059 78.6774 96.5788 78.4131 96.7246C78.1533 96.8704 77.9346 97.071 77.7568 97.3262C77.5837 97.5768 77.4538 97.8662 77.3672 98.1943C77.2806 98.5179 77.2373 98.862 77.2373 99.2266ZM88.6533 101.735V97.9277C88.6533 97.6361 88.5941 97.3831 88.4756 97.1689C88.3617 96.9502 88.1885 96.7816 87.9561 96.6631C87.7236 96.5446 87.4365 96.4854 87.0947 96.4854C86.7757 96.4854 86.4954 96.54 86.2539 96.6494C86.0169 96.7588 85.8301 96.9023 85.6934 97.0801C85.5612 97.2578 85.4951 97.4492 85.4951 97.6543H84.2305C84.2305 97.39 84.2988 97.1279 84.4355 96.8682C84.5723 96.6084 84.7682 96.3737 85.0234 96.1641C85.2832 95.9499 85.5931 95.7812 85.9531 95.6582C86.3177 95.5306 86.7233 95.4668 87.1699 95.4668C87.7077 95.4668 88.1816 95.5579 88.5918 95.7402C89.0065 95.9225 89.3301 96.1982 89.5625 96.5674C89.7995 96.932 89.918 97.39 89.918 97.9414V101.387C89.918 101.633 89.9385 101.895 89.9795 102.173C90.0251 102.451 90.0911 102.69 90.1777 102.891V103H88.8584C88.7946 102.854 88.7445 102.66 88.708 102.419C88.6715 102.173 88.6533 101.945 88.6533 101.735ZM88.8721 98.5156L88.8857 99.4043H87.6074C87.2474 99.4043 86.9261 99.4339 86.6436 99.4932C86.361 99.5479 86.124 99.6322 85.9326 99.7461C85.7412 99.86 85.5954 100.004 85.4951 100.177C85.3949 100.345 85.3447 100.544 85.3447 100.771C85.3447 101.004 85.3971 101.216 85.502 101.407C85.6068 101.599 85.764 101.751 85.9736 101.865C86.1878 101.975 86.4499 102.029 86.7598 102.029C87.1471 102.029 87.4889 101.947 87.7852 101.783C88.0814 101.619 88.3161 101.419 88.4893 101.182C88.667 100.945 88.7627 100.715 88.7764 100.491L89.3164 101.1C89.2845 101.291 89.1979 101.503 89.0566 101.735C88.9154 101.968 88.7262 102.191 88.4893 102.405C88.2568 102.615 87.9788 102.79 87.6553 102.932C87.3363 103.068 86.9762 103.137 86.5752 103.137C86.0739 103.137 85.6341 103.039 85.2559 102.843C84.8822 102.647 84.5905 102.385 84.3809 102.057C84.1758 101.724 84.0732 101.353 84.0732 100.942C84.0732 100.546 84.1507 100.197 84.3057 99.8965C84.4606 99.5911 84.6839 99.3382 84.9756 99.1377C85.2673 98.9326 85.6182 98.7777 86.0283 98.6729C86.4385 98.568 86.8965 98.5156 87.4023 98.5156H88.8721ZM96.5693 101.564V92.5H97.8408V103H96.6787L96.5693 101.564ZM91.5928 99.3838V99.2402C91.5928 98.6751 91.6611 98.1624 91.7979 97.7021C91.9391 97.2373 92.1374 96.8385 92.3926 96.5059C92.6523 96.1732 92.96 95.918 93.3154 95.7402C93.6755 95.5579 94.0765 95.4668 94.5186 95.4668C94.9834 95.4668 95.389 95.5488 95.7354 95.7129C96.0863 95.8724 96.3825 96.1071 96.624 96.417C96.8701 96.7223 97.0638 97.0915 97.2051 97.5244C97.3464 97.9574 97.4443 98.4473 97.499 98.9941V99.623C97.4489 100.165 97.3509 100.653 97.2051 101.086C97.0638 101.519 96.8701 101.888 96.624 102.193C96.3825 102.499 96.0863 102.733 95.7354 102.897C95.3844 103.057 94.9743 103.137 94.5049 103.137C94.0719 103.137 93.6755 103.043 93.3154 102.856C92.96 102.67 92.6523 102.408 92.3926 102.07C92.1374 101.733 91.9391 101.337 91.7979 100.881C91.6611 100.421 91.5928 99.9215 91.5928 99.3838ZM92.8643 99.2402V99.3838C92.8643 99.7529 92.9007 100.099 92.9736 100.423C93.0511 100.746 93.1696 101.031 93.3291 101.277C93.4886 101.523 93.6914 101.717 93.9375 101.858C94.1836 101.995 94.4775 102.063 94.8193 102.063C95.2386 102.063 95.5827 101.975 95.8516 101.797C96.125 101.619 96.3438 101.384 96.5078 101.093C96.6719 100.801 96.7995 100.484 96.8906 100.143V98.4951C96.8359 98.2445 96.7562 98.0029 96.6514 97.7705C96.5511 97.5335 96.4189 97.3239 96.2549 97.1416C96.0954 96.9548 95.8971 96.8066 95.6602 96.6973C95.4277 96.5879 95.152 96.5332 94.833 96.5332C94.4867 96.5332 94.1882 96.6061 93.9375 96.752C93.6914 96.8932 93.4886 97.0892 93.3291 97.3398C93.1696 97.5859 93.0511 97.873 92.9736 98.2012C92.9007 98.5247 92.8643 98.8711 92.8643 99.2402ZM104.547 92.5V103H103.282V92.5H104.547ZM104.246 99.0215L103.72 99.001C103.724 98.4951 103.799 98.028 103.945 97.5996C104.091 97.1667 104.296 96.7907 104.561 96.4717C104.825 96.1527 105.139 95.9066 105.504 95.7334C105.873 95.5557 106.281 95.4668 106.728 95.4668C107.092 95.4668 107.42 95.5169 107.712 95.6172C108.004 95.7129 108.252 95.8678 108.457 96.082C108.667 96.2962 108.826 96.5742 108.936 96.916C109.045 97.2533 109.1 97.6657 109.1 98.1533V103H107.828V98.1396C107.828 97.7523 107.771 97.4424 107.657 97.21C107.543 96.973 107.377 96.8021 107.158 96.6973C106.939 96.5879 106.671 96.5332 106.352 96.5332C106.037 96.5332 105.75 96.5993 105.49 96.7314C105.235 96.8636 105.014 97.0459 104.827 97.2783C104.645 97.5107 104.501 97.7773 104.396 98.0781C104.296 98.3743 104.246 98.6888 104.246 99.0215ZM114.062 103.137C113.548 103.137 113.08 103.05 112.661 102.877C112.246 102.699 111.889 102.451 111.588 102.132C111.292 101.813 111.064 101.435 110.904 100.997C110.745 100.56 110.665 100.081 110.665 99.5615V99.2744C110.665 98.6729 110.754 98.1374 110.932 97.668C111.109 97.194 111.351 96.793 111.656 96.4648C111.962 96.1367 112.308 95.8883 112.695 95.7197C113.083 95.5511 113.484 95.4668 113.898 95.4668C114.427 95.4668 114.883 95.5579 115.266 95.7402C115.653 95.9225 115.97 96.1777 116.216 96.5059C116.462 96.8294 116.644 97.2122 116.763 97.6543C116.881 98.0918 116.94 98.5703 116.94 99.0898V99.6572H111.417V98.625H115.676V98.5293C115.658 98.2012 115.589 97.8822 115.471 97.5723C115.357 97.2624 115.174 97.0072 114.924 96.8066C114.673 96.6061 114.331 96.5059 113.898 96.5059C113.611 96.5059 113.347 96.5674 113.105 96.6904C112.864 96.8089 112.657 96.9867 112.483 97.2236C112.31 97.4606 112.176 97.75 112.08 98.0918C111.984 98.4336 111.937 98.8278 111.937 99.2744V99.5615C111.937 99.9124 111.984 100.243 112.08 100.553C112.18 100.858 112.324 101.127 112.511 101.359C112.702 101.592 112.932 101.774 113.201 101.906C113.475 102.038 113.785 102.104 114.131 102.104C114.577 102.104 114.956 102.013 115.266 101.831C115.576 101.649 115.847 101.405 116.079 101.1L116.845 101.708C116.685 101.95 116.482 102.18 116.236 102.398C115.99 102.617 115.687 102.795 115.327 102.932C114.972 103.068 114.55 103.137 114.062 103.137ZM122.778 101.735V97.9277C122.778 97.6361 122.719 97.3831 122.601 97.1689C122.487 96.9502 122.313 96.7816 122.081 96.6631C121.849 96.5446 121.562 96.4854 121.22 96.4854C120.901 96.4854 120.62 96.54 120.379 96.6494C120.142 96.7588 119.955 96.9023 119.818 97.0801C119.686 97.2578 119.62 97.4492 119.62 97.6543H118.355C118.355 97.39 118.424 97.1279 118.561 96.8682C118.697 96.6084 118.893 96.3737 119.148 96.1641C119.408 95.9499 119.718 95.7812 120.078 95.6582C120.443 95.5306 120.848 95.4668 121.295 95.4668C121.833 95.4668 122.307 95.5579 122.717 95.7402C123.132 95.9225 123.455 96.1982 123.688 96.5674C123.924 96.932 124.043 97.39 124.043 97.9414V101.387C124.043 101.633 124.063 101.895 124.104 102.173C124.15 102.451 124.216 102.69 124.303 102.891V103H122.983C122.92 102.854 122.869 102.66 122.833 102.419C122.797 102.173 122.778 101.945 122.778 101.735ZM122.997 98.5156L123.011 99.4043H121.732C121.372 99.4043 121.051 99.4339 120.769 99.4932C120.486 99.5479 120.249 99.6322 120.058 99.7461C119.866 99.86 119.72 100.004 119.62 100.177C119.52 100.345 119.47 100.544 119.47 100.771C119.47 101.004 119.522 101.216 119.627 101.407C119.732 101.599 119.889 101.751 120.099 101.865C120.313 101.975 120.575 102.029 120.885 102.029C121.272 102.029 121.614 101.947 121.91 101.783C122.206 101.619 122.441 101.419 122.614 101.182C122.792 100.945 122.888 100.715 122.901 100.491L123.441 101.1C123.41 101.291 123.323 101.503 123.182 101.735C123.04 101.968 122.851 102.191 122.614 102.405C122.382 102.615 122.104 102.79 121.78 102.932C121.461 103.068 121.101 103.137 120.7 103.137C120.199 103.137 119.759 103.039 119.381 102.843C119.007 102.647 118.715 102.385 118.506 102.057C118.301 101.724 118.198 101.353 118.198 100.942C118.198 100.546 118.276 100.197 118.431 99.8965C118.586 99.5911 118.809 99.3382 119.101 99.1377C119.392 98.9326 119.743 98.7777 120.153 98.6729C120.563 98.568 121.021 98.5156 121.527 98.5156H122.997ZM130.694 101.564V92.5H131.966V103H130.804L130.694 101.564ZM125.718 99.3838V99.2402C125.718 98.6751 125.786 98.1624 125.923 97.7021C126.064 97.2373 126.262 96.8385 126.518 96.5059C126.777 96.1732 127.085 95.918 127.44 95.7402C127.8 95.5579 128.201 95.4668 128.644 95.4668C129.108 95.4668 129.514 95.5488 129.86 95.7129C130.211 95.8724 130.507 96.1071 130.749 96.417C130.995 96.7223 131.189 97.0915 131.33 97.5244C131.471 97.9574 131.569 98.4473 131.624 98.9941V99.623C131.574 100.165 131.476 100.653 131.33 101.086C131.189 101.519 130.995 101.888 130.749 102.193C130.507 102.499 130.211 102.733 129.86 102.897C129.509 103.057 129.099 103.137 128.63 103.137C128.197 103.137 127.8 103.043 127.44 102.856C127.085 102.67 126.777 102.408 126.518 102.07C126.262 101.733 126.064 101.337 125.923 100.881C125.786 100.421 125.718 99.9215 125.718 99.3838ZM126.989 99.2402V99.3838C126.989 99.7529 127.026 100.099 127.099 100.423C127.176 100.746 127.295 101.031 127.454 101.277C127.614 101.523 127.816 101.717 128.062 101.858C128.309 101.995 128.603 102.063 128.944 102.063C129.364 102.063 129.708 101.975 129.977 101.797C130.25 101.619 130.469 101.384 130.633 101.093C130.797 100.801 130.924 100.484 131.016 100.143V98.4951C130.961 98.2445 130.881 98.0029 130.776 97.7705C130.676 97.5335 130.544 97.3239 130.38 97.1416C130.22 96.9548 130.022 96.8066 129.785 96.6973C129.553 96.5879 129.277 96.5332 128.958 96.5332C128.612 96.5332 128.313 96.6061 128.062 96.752C127.816 96.8932 127.614 97.0892 127.454 97.3398C127.295 97.5859 127.176 97.873 127.099 98.2012C127.026 98.5247 126.989 98.8711 126.989 99.2402ZM138.241 101.038C138.241 100.856 138.2 100.687 138.118 100.532C138.041 100.373 137.879 100.229 137.633 100.102C137.391 99.9694 137.027 99.8555 136.539 99.7598C136.129 99.6732 135.757 99.5706 135.425 99.4521C135.097 99.3337 134.816 99.1901 134.584 99.0215C134.356 98.8529 134.181 98.6546 134.058 98.4268C133.935 98.1989 133.873 97.9323 133.873 97.627C133.873 97.3353 133.937 97.0596 134.064 96.7998C134.197 96.54 134.381 96.3099 134.618 96.1094C134.86 95.9089 135.149 95.7516 135.486 95.6377C135.824 95.5238 136.2 95.4668 136.614 95.4668C137.207 95.4668 137.713 95.5716 138.132 95.7812C138.551 95.9909 138.872 96.2712 139.096 96.6221C139.319 96.9684 139.431 97.3535 139.431 97.7773H138.166C138.166 97.5723 138.104 97.374 137.981 97.1826C137.863 96.9867 137.688 96.8249 137.455 96.6973C137.227 96.5697 136.947 96.5059 136.614 96.5059C136.263 96.5059 135.979 96.5605 135.76 96.6699C135.546 96.7747 135.388 96.9092 135.288 97.0732C135.192 97.2373 135.145 97.4105 135.145 97.5928C135.145 97.7295 135.167 97.8525 135.213 97.9619C135.263 98.0667 135.35 98.1647 135.473 98.2559C135.596 98.3424 135.769 98.4245 135.992 98.502C136.215 98.5794 136.5 98.6569 136.847 98.7344C137.453 98.8711 137.952 99.0352 138.344 99.2266C138.736 99.418 139.027 99.6527 139.219 99.9307C139.41 100.209 139.506 100.546 139.506 100.942C139.506 101.266 139.438 101.562 139.301 101.831C139.169 102.1 138.975 102.332 138.72 102.528C138.469 102.72 138.168 102.87 137.817 102.979C137.471 103.084 137.081 103.137 136.648 103.137C135.997 103.137 135.445 103.021 134.994 102.788C134.543 102.556 134.201 102.255 133.969 101.886C133.736 101.517 133.62 101.127 133.62 100.717H134.892C134.91 101.063 135.01 101.339 135.192 101.544C135.375 101.744 135.598 101.888 135.862 101.975C136.127 102.057 136.389 102.098 136.648 102.098C136.995 102.098 137.284 102.052 137.517 101.961C137.754 101.87 137.934 101.744 138.057 101.585C138.18 101.425 138.241 101.243 138.241 101.038ZM142.432 92.5V103H141.167V92.5H142.432ZM142.131 99.0215L141.604 99.001C141.609 98.4951 141.684 98.028 141.83 97.5996C141.976 97.1667 142.181 96.7907 142.445 96.4717C142.71 96.1527 143.024 95.9066 143.389 95.7334C143.758 95.5557 144.166 95.4668 144.612 95.4668C144.977 95.4668 145.305 95.5169 145.597 95.6172C145.888 95.7129 146.137 95.8678 146.342 96.082C146.551 96.2962 146.711 96.5742 146.82 96.916C146.93 97.2533 146.984 97.6657 146.984 98.1533V103H145.713V98.1396C145.713 97.7523 145.656 97.4424 145.542 97.21C145.428 96.973 145.262 96.8021 145.043 96.6973C144.824 96.5879 144.555 96.5332 144.236 96.5332C143.922 96.5332 143.635 96.5993 143.375 96.7314C143.12 96.8636 142.899 97.0459 142.712 97.2783C142.53 97.5107 142.386 97.7773 142.281 98.0781C142.181 98.3743 142.131 98.6888 142.131 99.0215ZM148.543 99.3838V99.2266C148.543 98.6934 148.62 98.1989 148.775 97.7432C148.93 97.2829 149.154 96.8841 149.445 96.5469C149.737 96.2051 150.09 95.9408 150.505 95.7539C150.92 95.5625 151.384 95.4668 151.899 95.4668C152.419 95.4668 152.886 95.5625 153.301 95.7539C153.72 95.9408 154.076 96.2051 154.367 96.5469C154.663 96.8841 154.889 97.2829 155.044 97.7432C155.199 98.1989 155.276 98.6934 155.276 99.2266V99.3838C155.276 99.917 155.199 100.411 155.044 100.867C154.889 101.323 154.663 101.722 154.367 102.063C154.076 102.401 153.722 102.665 153.308 102.856C152.897 103.043 152.433 103.137 151.913 103.137C151.394 103.137 150.926 103.043 150.512 102.856C150.097 102.665 149.742 102.401 149.445 102.063C149.154 101.722 148.93 101.323 148.775 100.867C148.62 100.411 148.543 99.917 148.543 99.3838ZM149.808 99.2266V99.3838C149.808 99.7529 149.851 100.102 149.938 100.43C150.024 100.753 150.154 101.04 150.327 101.291C150.505 101.542 150.726 101.74 150.99 101.886C151.255 102.027 151.562 102.098 151.913 102.098C152.259 102.098 152.562 102.027 152.822 101.886C153.087 101.74 153.305 101.542 153.479 101.291C153.652 101.04 153.782 100.753 153.868 100.43C153.959 100.102 154.005 99.7529 154.005 99.3838V99.2266C154.005 98.862 153.959 98.5179 153.868 98.1943C153.782 97.8662 153.649 97.5768 153.472 97.3262C153.299 97.071 153.08 96.8704 152.815 96.7246C152.556 96.5788 152.25 96.5059 151.899 96.5059C151.553 96.5059 151.248 96.5788 150.983 96.7246C150.724 96.8704 150.505 97.071 150.327 97.3262C150.154 97.5768 150.024 97.8662 149.938 98.1943C149.851 98.5179 149.808 98.862 149.808 99.2266ZM159.959 95.6035V96.5742H155.96V95.6035H159.959ZM157.313 93.8057H158.578V101.168C158.578 101.419 158.617 101.608 158.694 101.735C158.772 101.863 158.872 101.947 158.995 101.988C159.118 102.029 159.25 102.05 159.392 102.05C159.496 102.05 159.606 102.041 159.72 102.022C159.838 102 159.927 101.981 159.986 101.968L159.993 103C159.893 103.032 159.761 103.062 159.597 103.089C159.437 103.121 159.243 103.137 159.016 103.137C158.706 103.137 158.421 103.075 158.161 102.952C157.901 102.829 157.694 102.624 157.539 102.337C157.389 102.045 157.313 101.653 157.313 101.161V93.8057ZM166.289 95.6035V103H165.018V95.6035H166.289ZM164.922 93.6416C164.922 93.4365 164.983 93.2633 165.106 93.1221C165.234 92.9808 165.421 92.9102 165.667 92.9102C165.909 92.9102 166.093 92.9808 166.221 93.1221C166.353 93.2633 166.419 93.4365 166.419 93.6416C166.419 93.8376 166.353 94.0062 166.221 94.1475C166.093 94.2842 165.909 94.3525 165.667 94.3525C165.421 94.3525 165.234 94.2842 165.106 94.1475C164.983 94.0062 164.922 93.8376 164.922 93.6416ZM169.577 97.0732V103H168.306V95.6035H169.509L169.577 97.0732ZM169.317 99.0215L168.729 99.001C168.734 98.4951 168.8 98.028 168.928 97.5996C169.055 97.1667 169.244 96.7907 169.495 96.4717C169.746 96.1527 170.058 95.9066 170.432 95.7334C170.805 95.5557 171.238 95.4668 171.73 95.4668C172.077 95.4668 172.396 95.5169 172.688 95.6172C172.979 95.7129 173.232 95.8656 173.446 96.0752C173.66 96.2848 173.827 96.5537 173.945 96.8818C174.064 97.21 174.123 97.6064 174.123 98.0713V103H172.858V98.1328C172.858 97.7454 172.792 97.4355 172.66 97.2031C172.533 96.9707 172.35 96.8021 172.113 96.6973C171.876 96.5879 171.598 96.5332 171.279 96.5332C170.906 96.5332 170.593 96.5993 170.343 96.7314C170.092 96.8636 169.892 97.0459 169.741 97.2783C169.591 97.5107 169.481 97.7773 169.413 98.0781C169.349 98.3743 169.317 98.6888 169.317 99.0215ZM174.109 98.3242L173.262 98.584C173.266 98.1784 173.332 97.7887 173.46 97.415C173.592 97.0413 173.781 96.7087 174.027 96.417C174.278 96.1253 174.586 95.8952 174.95 95.7266C175.315 95.5534 175.732 95.4668 176.201 95.4668C176.598 95.4668 176.949 95.5192 177.254 95.624C177.564 95.7288 177.824 95.8906 178.033 96.1094C178.247 96.3236 178.409 96.5993 178.519 96.9365C178.628 97.2738 178.683 97.6748 178.683 98.1396V103H177.411V98.126C177.411 97.7113 177.345 97.39 177.213 97.1621C177.085 96.9297 176.903 96.7679 176.666 96.6768C176.434 96.5811 176.156 96.5332 175.832 96.5332C175.554 96.5332 175.308 96.5811 175.094 96.6768C174.88 96.7725 174.7 96.9046 174.554 97.0732C174.408 97.2373 174.296 97.4264 174.219 97.6406C174.146 97.8548 174.109 98.0827 174.109 98.3242ZM184.958 101.735V97.9277C184.958 97.6361 184.899 97.3831 184.78 97.1689C184.666 96.9502 184.493 96.7816 184.261 96.6631C184.028 96.5446 183.741 96.4854 183.399 96.4854C183.08 96.4854 182.8 96.54 182.559 96.6494C182.322 96.7588 182.135 96.9023 181.998 97.0801C181.866 97.2578 181.8 97.4492 181.8 97.6543H180.535C180.535 97.39 180.604 97.1279 180.74 96.8682C180.877 96.6084 181.073 96.3737 181.328 96.1641C181.588 95.9499 181.898 95.7812 182.258 95.6582C182.622 95.5306 183.028 95.4668 183.475 95.4668C184.012 95.4668 184.486 95.5579 184.896 95.7402C185.311 95.9225 185.635 96.1982 185.867 96.5674C186.104 96.932 186.223 97.39 186.223 97.9414V101.387C186.223 101.633 186.243 101.895 186.284 102.173C186.33 102.451 186.396 102.69 186.482 102.891V103H185.163C185.099 102.854 185.049 102.66 185.013 102.419C184.976 102.173 184.958 101.945 184.958 101.735ZM185.177 98.5156L185.19 99.4043H183.912C183.552 99.4043 183.231 99.4339 182.948 99.4932C182.666 99.5479 182.429 99.6322 182.237 99.7461C182.046 99.86 181.9 100.004 181.8 100.177C181.7 100.345 181.649 100.544 181.649 100.771C181.649 101.004 181.702 101.216 181.807 101.407C181.911 101.599 182.069 101.751 182.278 101.865C182.493 101.975 182.755 102.029 183.064 102.029C183.452 102.029 183.794 101.947 184.09 101.783C184.386 101.619 184.621 101.419 184.794 101.182C184.972 100.945 185.067 100.715 185.081 100.491L185.621 101.1C185.589 101.291 185.503 101.503 185.361 101.735C185.22 101.968 185.031 102.191 184.794 102.405C184.562 102.615 184.284 102.79 183.96 102.932C183.641 103.068 183.281 103.137 182.88 103.137C182.379 103.137 181.939 103.039 181.561 102.843C181.187 102.647 180.895 102.385 180.686 102.057C180.48 101.724 180.378 101.353 180.378 100.942C180.378 100.546 180.455 100.197 180.61 99.8965C180.765 99.5911 180.989 99.3382 181.28 99.1377C181.572 98.9326 181.923 98.7777 182.333 98.6729C182.743 98.568 183.201 98.5156 183.707 98.5156H185.177ZM193.004 95.6035H194.152V102.843C194.152 103.494 194.02 104.05 193.756 104.511C193.492 104.971 193.122 105.32 192.648 105.557C192.179 105.798 191.637 105.919 191.021 105.919C190.766 105.919 190.465 105.878 190.119 105.796C189.777 105.718 189.44 105.584 189.107 105.393C188.779 105.206 188.504 104.953 188.28 104.634L188.943 103.882C189.253 104.256 189.577 104.515 189.914 104.661C190.256 104.807 190.593 104.88 190.926 104.88C191.327 104.88 191.673 104.805 191.965 104.654C192.257 104.504 192.482 104.281 192.642 103.984C192.806 103.693 192.888 103.333 192.888 102.904V97.2305L193.004 95.6035ZM187.911 99.3838V99.2402C187.911 98.6751 187.977 98.1624 188.109 97.7021C188.246 97.2373 188.44 96.8385 188.69 96.5059C188.946 96.1732 189.253 95.918 189.613 95.7402C189.973 95.5579 190.379 95.4668 190.83 95.4668C191.295 95.4668 191.701 95.5488 192.047 95.7129C192.398 95.8724 192.694 96.1071 192.936 96.417C193.182 96.7223 193.375 97.0915 193.517 97.5244C193.658 97.9574 193.756 98.4473 193.811 98.9941V99.623C193.76 100.165 193.662 100.653 193.517 101.086C193.375 101.519 193.182 101.888 192.936 102.193C192.694 102.499 192.398 102.733 192.047 102.897C191.696 103.057 191.286 103.137 190.816 103.137C190.374 103.137 189.973 103.043 189.613 102.856C189.258 102.67 188.952 102.408 188.697 102.07C188.442 101.733 188.246 101.337 188.109 100.881C187.977 100.421 187.911 99.9215 187.911 99.3838ZM189.176 99.2402V99.3838C189.176 99.7529 189.212 100.099 189.285 100.423C189.363 100.746 189.479 101.031 189.634 101.277C189.793 101.523 189.996 101.717 190.242 101.858C190.488 101.995 190.782 102.063 191.124 102.063C191.543 102.063 191.89 101.975 192.163 101.797C192.437 101.619 192.653 101.384 192.812 101.093C192.977 100.801 193.104 100.484 193.195 100.143V98.4951C193.145 98.2445 193.068 98.0029 192.963 97.7705C192.863 97.5335 192.73 97.3239 192.566 97.1416C192.407 96.9548 192.209 96.8066 191.972 96.6973C191.735 96.5879 191.457 96.5332 191.138 96.5332C190.791 96.5332 190.493 96.6061 190.242 96.752C189.996 96.8932 189.793 97.0892 189.634 97.3398C189.479 97.5859 189.363 97.873 189.285 98.2012C189.212 98.5247 189.176 98.8711 189.176 99.2402ZM199.143 103.137C198.628 103.137 198.16 103.05 197.741 102.877C197.326 102.699 196.969 102.451 196.668 102.132C196.372 101.813 196.144 101.435 195.984 100.997C195.825 100.56 195.745 100.081 195.745 99.5615V99.2744C195.745 98.6729 195.834 98.1374 196.012 97.668C196.189 97.194 196.431 96.793 196.736 96.4648C197.042 96.1367 197.388 95.8883 197.775 95.7197C198.163 95.5511 198.564 95.4668 198.979 95.4668C199.507 95.4668 199.963 95.5579 200.346 95.7402C200.733 95.9225 201.05 96.1777 201.296 96.5059C201.542 96.8294 201.724 97.2122 201.843 97.6543C201.961 98.0918 202.021 98.5703 202.021 99.0898V99.6572H196.497V98.625H200.756V98.5293C200.738 98.2012 200.669 97.8822 200.551 97.5723C200.437 97.2624 200.255 97.0072 200.004 96.8066C199.753 96.6061 199.411 96.5059 198.979 96.5059C198.691 96.5059 198.427 96.5674 198.186 96.6904C197.944 96.8089 197.737 96.9867 197.563 97.2236C197.39 97.4606 197.256 97.75 197.16 98.0918C197.064 98.4336 197.017 98.8278 197.017 99.2744V99.5615C197.017 99.9124 197.064 100.243 197.16 100.553C197.26 100.858 197.404 101.127 197.591 101.359C197.782 101.592 198.012 101.774 198.281 101.906C198.555 102.038 198.865 102.104 199.211 102.104C199.658 102.104 200.036 102.013 200.346 101.831C200.656 101.649 200.927 101.405 201.159 101.1L201.925 101.708C201.765 101.95 201.562 102.18 201.316 102.398C201.07 102.617 200.767 102.795 200.407 102.932C200.052 103.068 199.63 103.137 199.143 103.137ZM208.856 103H207.592V94.8242C207.592 94.291 207.688 93.8421 207.879 93.4775C208.075 93.1084 208.355 92.8304 208.72 92.6436C209.084 92.4521 209.517 92.3564 210.019 92.3564C210.164 92.3564 210.31 92.3656 210.456 92.3838C210.606 92.402 210.752 92.4294 210.894 92.4658L210.825 93.498C210.729 93.4753 210.62 93.4593 210.497 93.4502C210.379 93.4411 210.26 93.4365 210.142 93.4365C209.873 93.4365 209.64 93.4912 209.444 93.6006C209.253 93.7054 209.107 93.8604 209.007 94.0654C208.907 94.2705 208.856 94.5234 208.856 94.8242V103ZM210.429 95.6035V96.5742H206.423V95.6035H210.429ZM211.502 99.3838V99.2266C211.502 98.6934 211.579 98.1989 211.734 97.7432C211.889 97.2829 212.113 96.8841 212.404 96.5469C212.696 96.2051 213.049 95.9408 213.464 95.7539C213.879 95.5625 214.343 95.4668 214.858 95.4668C215.378 95.4668 215.845 95.5625 216.26 95.7539C216.679 95.9408 217.035 96.2051 217.326 96.5469C217.622 96.8841 217.848 97.2829 218.003 97.7432C218.158 98.1989 218.235 98.6934 218.235 99.2266V99.3838C218.235 99.917 218.158 100.411 218.003 100.867C217.848 101.323 217.622 101.722 217.326 102.063C217.035 102.401 216.681 102.665 216.267 102.856C215.856 103.043 215.392 103.137 214.872 103.137C214.353 103.137 213.885 103.043 213.471 102.856C213.056 102.665 212.701 102.401 212.404 102.063C212.113 101.722 211.889 101.323 211.734 100.867C211.579 100.411 211.502 99.917 211.502 99.3838ZM212.767 99.2266V99.3838C212.767 99.7529 212.81 100.102 212.896 100.43C212.983 100.753 213.113 101.04 213.286 101.291C213.464 101.542 213.685 101.74 213.949 101.886C214.214 102.027 214.521 102.098 214.872 102.098C215.218 102.098 215.521 102.027 215.781 101.886C216.046 101.74 216.264 101.542 216.438 101.291C216.611 101.04 216.741 100.753 216.827 100.43C216.918 100.102 216.964 99.7529 216.964 99.3838V99.2266C216.964 98.862 216.918 98.5179 216.827 98.1943C216.741 97.8662 216.608 97.5768 216.431 97.3262C216.257 97.071 216.039 96.8704 215.774 96.7246C215.515 96.5788 215.209 96.5059 214.858 96.5059C214.512 96.5059 214.207 96.5788 213.942 96.7246C213.683 96.8704 213.464 97.071 213.286 97.3262C213.113 97.5768 212.983 97.8662 212.896 98.1943C212.81 98.5179 212.767 98.862 212.767 99.2266ZM221.086 96.7656V103H219.821V95.6035H221.052L221.086 96.7656ZM223.396 95.5625L223.39 96.7383C223.285 96.7155 223.185 96.7018 223.089 96.6973C222.998 96.6882 222.893 96.6836 222.774 96.6836C222.483 96.6836 222.225 96.7292 222.002 96.8203C221.779 96.9115 221.59 97.0391 221.435 97.2031C221.28 97.3672 221.157 97.5632 221.065 97.791C220.979 98.0143 220.922 98.2604 220.895 98.5293L220.539 98.7344C220.539 98.2878 220.582 97.8685 220.669 97.4766C220.76 97.0846 220.899 96.7383 221.086 96.4375C221.273 96.1322 221.51 95.8952 221.797 95.7266C222.089 95.5534 222.435 95.4668 222.836 95.4668C222.927 95.4668 223.032 95.4782 223.15 95.501C223.269 95.5192 223.351 95.5397 223.396 95.5625ZM231.135 95.6035V96.5742H227.136V95.6035H231.135ZM228.489 93.8057H229.754V101.168C229.754 101.419 229.793 101.608 229.87 101.735C229.948 101.863 230.048 101.947 230.171 101.988C230.294 102.029 230.426 102.05 230.567 102.05C230.672 102.05 230.782 102.041 230.896 102.022C231.014 102 231.103 101.981 231.162 101.968L231.169 103C231.069 103.032 230.937 103.062 230.772 103.089C230.613 103.121 230.419 103.137 230.191 103.137C229.882 103.137 229.597 103.075 229.337 102.952C229.077 102.829 228.87 102.624 228.715 102.337C228.564 102.045 228.489 101.653 228.489 101.161V93.8057ZM233.883 92.5V103H232.618V92.5H233.883ZM233.582 99.0215L233.056 99.001C233.06 98.4951 233.135 98.028 233.281 97.5996C233.427 97.1667 233.632 96.7907 233.896 96.4717C234.161 96.1527 234.475 95.9066 234.84 95.7334C235.209 95.5557 235.617 95.4668 236.063 95.4668C236.428 95.4668 236.756 95.5169 237.048 95.6172C237.34 95.7129 237.588 95.8678 237.793 96.082C238.003 96.2962 238.162 96.5742 238.271 96.916C238.381 97.2533 238.436 97.6657 238.436 98.1533V103H237.164V98.1396C237.164 97.7523 237.107 97.4424 236.993 97.21C236.879 96.973 236.713 96.8021 236.494 96.6973C236.275 96.5879 236.007 96.5332 235.688 96.5332C235.373 96.5332 235.086 96.5993 234.826 96.7314C234.571 96.8636 234.35 97.0459 234.163 97.2783C233.981 97.5107 233.837 97.7773 233.732 98.0781C233.632 98.3743 233.582 98.6888 233.582 99.0215ZM241.703 95.6035V103H240.432V95.6035H241.703ZM240.336 93.6416C240.336 93.4365 240.397 93.2633 240.521 93.1221C240.648 92.9808 240.835 92.9102 241.081 92.9102C241.323 92.9102 241.507 92.9808 241.635 93.1221C241.767 93.2633 241.833 93.4365 241.833 93.6416C241.833 93.8376 241.767 94.0062 241.635 94.1475C241.507 94.2842 241.323 94.3525 241.081 94.3525C240.835 94.3525 240.648 94.2842 240.521 94.1475C240.397 94.0062 240.336 93.8376 240.336 93.6416ZM248.04 101.038C248.04 100.856 247.999 100.687 247.917 100.532C247.84 100.373 247.678 100.229 247.432 100.102C247.19 99.9694 246.826 99.8555 246.338 99.7598C245.928 99.6732 245.556 99.5706 245.224 99.4521C244.896 99.3337 244.615 99.1901 244.383 99.0215C244.155 98.8529 243.979 98.6546 243.856 98.4268C243.733 98.1989 243.672 97.9323 243.672 97.627C243.672 97.3353 243.736 97.0596 243.863 96.7998C243.995 96.54 244.18 96.3099 244.417 96.1094C244.659 95.9089 244.948 95.7516 245.285 95.6377C245.622 95.5238 245.998 95.4668 246.413 95.4668C247.006 95.4668 247.511 95.5716 247.931 95.7812C248.35 95.9909 248.671 96.2712 248.895 96.6221C249.118 96.9684 249.229 97.3535 249.229 97.7773H247.965C247.965 97.5723 247.903 97.374 247.78 97.1826C247.662 96.9867 247.486 96.8249 247.254 96.6973C247.026 96.5697 246.746 96.5059 246.413 96.5059C246.062 96.5059 245.777 96.5605 245.559 96.6699C245.344 96.7747 245.187 96.9092 245.087 97.0732C244.991 97.2373 244.943 97.4105 244.943 97.5928C244.943 97.7295 244.966 97.8525 245.012 97.9619C245.062 98.0667 245.148 98.1647 245.271 98.2559C245.395 98.3424 245.568 98.4245 245.791 98.502C246.014 98.5794 246.299 98.6569 246.646 98.7344C247.252 98.8711 247.751 99.0352 248.143 99.2266C248.535 99.418 248.826 99.6527 249.018 99.9307C249.209 100.209 249.305 100.546 249.305 100.942C249.305 101.266 249.236 101.562 249.1 101.831C248.967 102.1 248.774 102.332 248.519 102.528C248.268 102.72 247.967 102.87 247.616 102.979C247.27 103.084 246.88 103.137 246.447 103.137C245.796 103.137 245.244 103.021 244.793 102.788C244.342 102.556 244 102.255 243.768 101.886C243.535 101.517 243.419 101.127 243.419 100.717H244.69C244.709 101.063 244.809 101.339 244.991 101.544C245.174 101.744 245.397 101.888 245.661 101.975C245.925 102.057 246.188 102.098 246.447 102.098C246.794 102.098 247.083 102.052 247.315 101.961C247.552 101.87 247.732 101.744 247.855 101.585C247.979 101.425 248.04 101.243 248.04 101.038ZM257.508 103.137C256.993 103.137 256.526 103.05 256.106 102.877C255.692 102.699 255.334 102.451 255.033 102.132C254.737 101.813 254.509 101.435 254.35 100.997C254.19 100.56 254.11 100.081 254.11 99.5615V99.2744C254.11 98.6729 254.199 98.1374 254.377 97.668C254.555 97.194 254.796 96.793 255.102 96.4648C255.407 96.1367 255.753 95.8883 256.141 95.7197C256.528 95.5511 256.929 95.4668 257.344 95.4668C257.872 95.4668 258.328 95.5579 258.711 95.7402C259.098 95.9225 259.415 96.1777 259.661 96.5059C259.907 96.8294 260.09 97.2122 260.208 97.6543C260.326 98.0918 260.386 98.5703 260.386 99.0898V99.6572H254.862V98.625H259.121V98.5293C259.103 98.2012 259.035 97.8822 258.916 97.5723C258.802 97.2624 258.62 97.0072 258.369 96.8066C258.118 96.6061 257.777 96.5059 257.344 96.5059C257.057 96.5059 256.792 96.5674 256.551 96.6904C256.309 96.8089 256.102 96.9867 255.929 97.2236C255.756 97.4606 255.621 97.75 255.525 98.0918C255.43 98.4336 255.382 98.8278 255.382 99.2744V99.5615C255.382 99.9124 255.43 100.243 255.525 100.553C255.626 100.858 255.769 101.127 255.956 101.359C256.147 101.592 256.378 101.774 256.646 101.906C256.92 102.038 257.23 102.104 257.576 102.104C258.023 102.104 258.401 102.013 258.711 101.831C259.021 101.649 259.292 101.405 259.524 101.1L260.29 101.708C260.131 101.95 259.928 102.18 259.682 102.398C259.436 102.617 259.132 102.795 258.772 102.932C258.417 103.068 257.995 103.137 257.508 103.137ZM264.016 101.858L266.039 95.6035H267.331L264.672 103H263.824L264.016 101.858ZM262.327 95.6035L264.412 101.893L264.556 103H263.708L261.028 95.6035H262.327ZM271.521 103.137C271.007 103.137 270.539 103.05 270.12 102.877C269.705 102.699 269.348 102.451 269.047 102.132C268.751 101.813 268.523 101.435 268.363 100.997C268.204 100.56 268.124 100.081 268.124 99.5615V99.2744C268.124 98.6729 268.213 98.1374 268.391 97.668C268.568 97.194 268.81 96.793 269.115 96.4648C269.421 96.1367 269.767 95.8883 270.154 95.7197C270.542 95.5511 270.943 95.4668 271.357 95.4668C271.886 95.4668 272.342 95.5579 272.725 95.7402C273.112 95.9225 273.429 96.1777 273.675 96.5059C273.921 96.8294 274.103 97.2122 274.222 97.6543C274.34 98.0918 274.399 98.5703 274.399 99.0898V99.6572H268.876V98.625H273.135V98.5293C273.117 98.2012 273.048 97.8822 272.93 97.5723C272.816 97.2624 272.633 97.0072 272.383 96.8066C272.132 96.6061 271.79 96.5059 271.357 96.5059C271.07 96.5059 270.806 96.5674 270.564 96.6904C270.323 96.8089 270.116 96.9867 269.942 97.2236C269.769 97.4606 269.635 97.75 269.539 98.0918C269.443 98.4336 269.396 98.8278 269.396 99.2744V99.5615C269.396 99.9124 269.443 100.243 269.539 100.553C269.639 100.858 269.783 101.127 269.97 101.359C270.161 101.592 270.391 101.774 270.66 101.906C270.934 102.038 271.243 102.104 271.59 102.104C272.036 102.104 272.415 102.013 272.725 101.831C273.035 101.649 273.306 101.405 273.538 101.1L274.304 101.708C274.144 101.95 273.941 102.18 273.695 102.398C273.449 102.617 273.146 102.795 272.786 102.932C272.431 103.068 272.009 103.137 271.521 103.137ZM277.141 97.1826V103H275.876V95.6035H277.072L277.141 97.1826ZM276.84 99.0215L276.313 99.001C276.318 98.4951 276.393 98.028 276.539 97.5996C276.685 97.1667 276.89 96.7907 277.154 96.4717C277.419 96.1527 277.733 95.9066 278.098 95.7334C278.467 95.5557 278.875 95.4668 279.321 95.4668C279.686 95.4668 280.014 95.5169 280.306 95.6172C280.597 95.7129 280.846 95.8678 281.051 96.082C281.26 96.2962 281.42 96.5742 281.529 96.916C281.639 97.2533 281.693 97.6657 281.693 98.1533V103H280.422V98.1396C280.422 97.7523 280.365 97.4424 280.251 97.21C280.137 96.973 279.971 96.8021 279.752 96.6973C279.533 96.5879 279.264 96.5332 278.945 96.5332C278.631 96.5332 278.344 96.5993 278.084 96.7314C277.829 96.8636 277.608 97.0459 277.421 97.2783C277.239 97.5107 277.095 97.7773 276.99 98.0781C276.89 98.3743 276.84 98.6888 276.84 99.0215ZM286.711 95.6035V96.5742H282.712V95.6035H286.711ZM284.065 93.8057H285.33V101.168C285.33 101.419 285.369 101.608 285.446 101.735C285.524 101.863 285.624 101.947 285.747 101.988C285.87 102.029 286.002 102.05 286.144 102.05C286.248 102.05 286.358 102.041 286.472 102.022C286.59 102 286.679 101.981 286.738 101.968L286.745 103C286.645 103.032 286.513 103.062 286.349 103.089C286.189 103.121 285.995 103.137 285.768 103.137C285.458 103.137 285.173 103.075 284.913 102.952C284.653 102.829 284.446 102.624 284.291 102.337C284.141 102.045 284.065 101.653 284.065 101.161V93.8057Z" fill="#262425"/>
</svg>
