<svg width="21" height="26" viewBox="0 0 21 26" fill="none" xmlns="http://www.w3.org/2000/svg">
<path fill-rule="evenodd" clip-rule="evenodd" d="M19.7939 4.01232L20.1905 9.67121L20.1911 9.6712C20.3612 11.9778 19.9617 14.2908 19.0275 16.4067C18.0932 18.5225 16.653 20.3762 14.8337 21.8045L10.8562 24.8268C10.5566 25.0577 10.1389 25.0577 9.83943 24.8268V24.8266L5.89563 21.8045C4.07628 20.3762 2.63611 18.5223 1.70188 16.4067C0.767647 14.2911 0.368122 11.9781 0.538207 9.67121H0.538457L0.934981 4.01232C0.961668 3.65468 1.2133 3.35366 1.5607 3.26389L10.1521 1.02937C10.2908 0.990212 10.4379 0.990212 10.5766 1.02937L19.168 3.26389C19.5154 3.35371 19.767 3.6547 19.7937 4.01232H19.7939ZM11.7699 10.4769C11.394 10.7455 10.9521 10.8889 10.5 10.8889C9.89379 10.8889 9.31241 10.6314 8.88376 10.1729C8.4551 9.71451 8.21429 9.09275 8.21429 8.44445C8.21429 7.96098 8.34834 7.48837 8.5995 7.08638C8.85066 6.6844 9.20763 6.37109 9.62529 6.18607C10.043 6.00106 10.5025 5.95265 10.9459 6.04697C11.3893 6.14129 11.7966 6.3741 12.1162 6.71596C12.4359 7.05782 12.6536 7.49338 12.7418 7.96756C12.83 8.44173 12.7847 8.93323 12.6117 9.37989C12.4387 9.82656 12.1458 10.2083 11.7699 10.4769ZM14.3326 16.821C14.2255 16.9356 14.0801 17 13.9286 17H7.07143C6.91988 17 6.77453 16.9356 6.66737 16.821C6.5602 16.7064 6.5 16.551 6.5 16.3889C6.5 15.2544 6.92143 14.1663 7.67157 13.364C8.42172 12.5618 9.43913 12.1111 10.5 12.1111C11.5609 12.1111 12.5783 12.5618 13.3284 13.364C14.0786 14.1663 14.5 15.2544 14.5 16.3889C14.5 16.551 14.4398 16.7064 14.3326 16.821Z" fill="#E6427A"/>
<path d="M20.1905 9.67121L20.0408 9.68169L20.0507 9.82242L20.1918 9.82121L20.1905 9.67121ZM19.7939 4.01232L19.9436 4.00184L19.9338 3.86232H19.7939V4.01232ZM20.1911 9.6712L20.3407 9.66017L20.3304 9.51999L20.1898 9.52121L20.1911 9.6712ZM19.0275 16.4067L18.8902 16.3461L19.0275 16.4067ZM14.8337 21.8045L14.9245 21.9239L14.9263 21.9224L14.8337 21.8045ZM10.8562 24.8268L10.7654 24.7074L10.7646 24.708L10.8562 24.8268ZM9.83943 24.8268H9.68943V24.9006L9.74784 24.9456L9.83943 24.8268ZM9.83943 24.8266H9.98943V24.7525L9.93066 24.7075L9.83943 24.8266ZM5.89563 21.8045L5.803 21.9225L5.80439 21.9235L5.89563 21.8045ZM1.70188 16.4067L1.56466 16.4673L1.70188 16.4067ZM0.538207 9.67121V9.52121H0.39886L0.388614 9.66018L0.538207 9.67121ZM0.538457 9.67121V9.82121H0.678314L0.68809 9.68169L0.538457 9.67121ZM0.934981 4.01232L0.785396 4.00116L0.785348 4.00184L0.934981 4.01232ZM1.5607 3.26389L1.59823 3.40911L1.59845 3.40906L1.5607 3.26389ZM10.1521 1.02937L10.1899 1.17457L10.1929 1.17372L10.1521 1.02937ZM10.5766 1.02937L10.5358 1.17375L10.5388 1.17454L10.5766 1.02937ZM19.168 3.26389L19.1302 3.40906L19.1304 3.40911L19.168 3.26389ZM19.7937 4.01232L19.6441 4.02348L19.6545 4.16232H19.7937V4.01232ZM11.7699 10.4769L11.6827 10.3549V10.3549L11.7699 10.4769ZM8.88376 10.1729L8.77419 10.2754L8.88376 10.1729ZM8.5995 7.08638L8.72671 7.16587L8.5995 7.08638ZM12.6117 9.37989L12.7516 9.43407V9.43407L12.6117 9.37989ZM14.3326 16.821L14.4422 16.9235V16.9235L14.3326 16.821ZM6.66737 16.821L6.5578 16.9235L6.5578 16.9235L6.66737 16.821ZM7.67157 13.364L7.78114 13.4665H7.78114L7.67157 13.364ZM13.3284 13.364L13.438 13.2616L13.3284 13.364ZM20.3401 9.66073L19.9436 4.00184L19.6443 4.02281L20.0408 9.68169L20.3401 9.66073ZM20.1898 9.52121L20.1892 9.52122L20.1918 9.82121L20.1924 9.8212L20.1898 9.52121ZM19.1647 16.4673C20.1088 14.3289 20.5126 11.9913 20.3407 9.66017L20.0415 9.68223C20.2098 11.9643 19.8145 14.2528 18.8902 16.3461L19.1647 16.4673ZM14.9263 21.9224C16.765 20.479 18.2205 18.6056 19.1647 16.4673L18.8902 16.3461C17.9659 18.4394 16.541 20.2734 14.7411 21.6865L14.9263 21.9224ZM10.9469 24.9462L14.9245 21.9239L14.743 21.685L10.7654 24.7074L10.9469 24.9462ZM9.74784 24.9456C10.1013 25.2181 10.5943 25.2181 10.9478 24.9456L10.7646 24.708C10.519 24.8973 10.1766 24.8973 9.93102 24.708L9.74784 24.9456ZM9.68943 24.8266V24.8268H9.98943V24.8266H9.68943ZM5.80439 21.9235L9.74819 24.9456L9.93066 24.7075L5.98686 21.6854L5.80439 21.9235ZM1.56466 16.4673C2.50883 18.6054 3.96431 20.479 5.803 21.9224L5.98825 21.6865C4.18826 20.2734 2.7634 18.4392 1.8391 16.3461L1.56466 16.4673ZM0.388614 9.66018C0.216721 11.9916 0.620491 14.3292 1.56466 16.4673L1.8391 16.3461C0.914804 14.253 0.519524 11.9646 0.687801 9.68224L0.388614 9.66018ZM0.538457 9.52121H0.538207V9.82121H0.538457V9.52121ZM0.785348 4.00184L0.388824 9.66073L0.68809 9.68169L1.08461 4.02281L0.785348 4.00184ZM1.52317 3.11866C1.11359 3.2245 0.816867 3.57941 0.785397 4.00116L1.08457 4.02348C1.10647 3.72994 1.31301 3.48282 1.59823 3.40911L1.52317 3.11866ZM10.1143 0.884195L1.52294 3.11871L1.59845 3.40906L10.1899 1.17454L10.1143 0.884195ZM10.6173 0.88501C10.452 0.83833 10.2767 0.83833 10.1113 0.885011L10.1929 1.17372C10.3049 1.14209 10.4238 1.14209 10.5358 1.17372L10.6173 0.88501ZM19.2057 3.11871L10.6143 0.884195L10.5388 1.17454L19.1302 3.40906L19.2057 3.11871ZM19.9433 4.00116C19.9118 3.57941 19.6151 3.22456 19.2055 3.11866L19.1304 3.40911C19.4157 3.48287 19.6222 3.72998 19.6441 4.02348L19.9433 4.00116ZM19.7939 3.86232H19.7937V4.16232H19.7939V3.86232ZM10.5 11.0389C10.9841 11.0389 11.4564 10.8853 11.8571 10.599L11.6827 10.3549C11.3316 10.6057 10.9201 10.7389 10.5 10.7389V11.0389ZM8.77419 10.2754C9.23008 10.7629 9.85064 11.0389 10.5 11.0389V10.7389C9.93695 10.7389 9.39474 10.4998 8.99332 10.0705L8.77419 10.2754ZM8.06429 8.44445C8.06429 9.12941 8.31862 9.78817 8.77419 10.2754L8.99332 10.0705C8.59158 9.64084 8.36429 9.0561 8.36429 8.44445H8.06429ZM8.47229 7.0069C8.20593 7.43322 8.06429 7.93347 8.06429 8.44445H8.36429C8.36429 7.98849 8.49076 7.54352 8.72671 7.16587L8.47229 7.0069ZM9.56454 6.04893C9.11839 6.24656 8.7387 6.5805 8.47229 7.0069L8.72671 7.16587C8.96261 6.7883 9.29688 6.49561 9.68605 6.32322L9.56454 6.04893ZM10.9771 5.90025C10.5026 5.79931 10.0108 5.85122 9.56454 6.04893L9.68605 6.32322C10.0751 6.15089 10.5025 6.106 10.9147 6.19369L10.9771 5.90025ZM12.2258 6.61351C11.8859 6.25 11.4516 6.00118 10.9771 5.90025L10.9147 6.19369C11.327 6.2814 11.7073 6.4982 12.0067 6.81841L12.2258 6.61351ZM12.8893 7.94013C12.796 7.43875 12.5656 6.97692 12.2258 6.61351L12.0067 6.81841C12.3062 7.13873 12.5112 7.54801 12.5943 7.99499L12.8893 7.94013ZM12.7516 9.43407C12.9347 8.96125 12.9825 8.44148 12.8893 7.94013L12.5943 7.99499C12.6775 8.44198 12.6347 8.90521 12.4719 9.32572L12.7516 9.43407ZM11.8571 10.599C12.2577 10.3127 12.5684 9.90695 12.7516 9.43407L12.4719 9.32572C12.309 9.74617 12.0338 10.1039 11.6827 10.3549L11.8571 10.599ZM13.9286 17.15C14.1233 17.15 14.3078 17.0672 14.4422 16.9235L14.2231 16.7186C14.1431 16.804 14.037 16.85 13.9286 16.85V17.15ZM7.07143 17.15H13.9286V16.85H7.07143V17.15ZM6.5578 16.9235C6.6922 17.0672 6.87672 17.15 7.07143 17.15V16.85C6.96303 16.85 6.85686 16.804 6.77693 16.7186L6.5578 16.9235ZM6.35 16.3889C6.35 16.5876 6.42373 16.7801 6.5578 16.9235L6.77693 16.7186C6.69668 16.6327 6.65 16.5143 6.65 16.3889H6.35ZM7.56201 13.2616C6.78495 14.0926 6.35 15.2177 6.35 16.3889H6.65C6.65 15.291 7.05791 14.2399 7.78114 13.4665L7.56201 13.2616ZM10.5 11.9611C9.39598 11.9611 8.33939 12.4302 7.56201 13.2616L7.78114 13.4665C8.50405 12.6934 9.48229 12.2611 10.5 12.2611V11.9611ZM13.438 13.2616C12.6606 12.4302 11.604 11.9611 10.5 11.9611V12.2611C11.5177 12.2611 12.496 12.6934 13.2189 13.4665L13.438 13.2616ZM14.65 16.3889C14.65 15.2177 14.2151 14.0926 13.438 13.2616L13.2189 13.4665C13.9421 14.2399 14.35 15.291 14.35 16.3889H14.65ZM14.4422 16.9235C14.5763 16.7801 14.65 16.5876 14.65 16.3889H14.35C14.35 16.5143 14.3033 16.6327 14.2231 16.7186L14.4422 16.9235Z" fill="#E6427A"/>
</svg>
