<svg width="25" height="21" viewBox="0 0 25 21" fill="none" xmlns="http://www.w3.org/2000/svg">
<path d="M5.95458 0C5.90568 0 5.85484 0.00136368 5.80341 0.00350651C5.76912 0.00487016 5.73464 0.00642874 5.69958 0.00857146C4.31259 0.098378 3.01282 0.921049 2.04015 2.3248C1.04703 3.75797 0.5 5.64427 0.5 7.63649C0.5 11.8472 2.94694 15.2726 5.95482 15.2726C7.24053 15.2726 8.49023 14.6308 9.47377 13.4652C10.4647 12.2907 11.1261 10.6647 11.3359 8.88634V8.88595C11.3846 8.47335 11.4094 8.05277 11.4094 7.63625C11.4094 3.4255 8.96243 0.00010273 5.95455 0.00010273L5.95458 0ZM9.53861 8.41961C9.25653 10.8104 7.74931 12.5456 5.95458 12.5456C3.95293 12.5456 2.32437 10.3433 2.32437 7.63645C2.32437 5.01242 3.84092 2.85862 5.77689 2.73319C5.83747 2.7293 5.89728 2.72735 5.95436 2.72735C7.956 2.72735 9.58457 4.92962 9.58457 7.63649C9.58477 7.89753 9.56918 8.16092 9.5386 8.4196L9.53861 8.41961Z" fill="#E6427A"/>
<path d="M17.3867 10.2406C17.3867 10.4161 17.4473 10.5492 17.5687 10.6396C17.6901 10.7299 17.8747 10.8114 18.1225 10.8836V9.62891C17.6318 9.65969 17.3867 9.86384 17.3867 10.2406L17.3867 10.2406Z" fill="#E6427A"/>
<path d="M19.0533 12.3493C18.9088 12.2513 18.7073 12.1609 18.4492 12.0781V13.3253C18.9964 13.3097 19.2703 13.1213 19.2703 12.76C19.2703 12.5842 19.1979 12.4473 19.0533 12.3493L19.0533 12.3493Z" fill="#E6427A"/>
<path d="M19.8351 1.71216e-05H8.12109C8.12324 0.00118598 8.12538 0.00235482 8.12752 0.00352363C8.16337 0.02242 8.19902 0.0420952 8.23447 0.0619666C8.24596 0.0683954 8.25746 0.0744344 8.26876 0.0808631C8.31531 0.107357 8.36187 0.134628 8.40785 0.162875C8.42207 0.171641 8.4361 0.180797 8.45032 0.189563C8.48226 0.209434 8.51421 0.229304 8.54577 0.249951C8.56428 0.262029 8.58259 0.274692 8.6011 0.286965C8.62818 0.305082 8.65525 0.323199 8.68214 0.341902C8.70201 0.355733 8.72149 0.369954 8.74116 0.38398C8.76649 0.402097 8.79181 0.420019 8.81675 0.438723C8.83701 0.453723 8.85707 0.469113 8.87714 0.484502C8.90149 0.503009 8.92564 0.521515 8.9498 0.540412C8.97006 0.556386 8.99032 0.57275 9.01038 0.589113C9.03395 0.608204 9.05752 0.62749 9.0811 0.646973C9.10136 0.663921 9.12142 0.681064 9.14148 0.698205C9.16447 0.718075 9.18765 0.737945 9.21044 0.758204C9.23051 0.775931 9.25038 0.793853 9.27025 0.811774C9.29304 0.832423 9.31564 0.853268 9.33824 0.874306C9.35791 0.892618 9.37759 0.91132 9.39707 0.930022C9.41947 0.951645 9.44187 0.973269 9.46408 0.995282C9.48337 1.01418 9.50246 1.03327 9.52155 1.05255C9.54395 1.07515 9.56616 1.09814 9.58837 1.12132C9.60687 1.14061 9.62558 1.16009 9.64408 1.17976C9.66649 1.20353 9.6885 1.22788 9.7107 1.25223C9.72863 1.2719 9.74674 1.29158 9.76447 1.31164C9.78707 1.33697 9.80928 1.36288 9.83149 1.38859C9.84863 1.40827 9.86577 1.42795 9.88252 1.44801C9.9057 1.47548 9.92869 1.50353 9.95148 1.53158C9.96707 1.55067 9.98285 1.56957 9.99843 1.58885C10.0236 1.62022 10.0485 1.65236 10.0732 1.68431C10.0861 1.70106 10.0993 1.71723 10.112 1.73418C10.1494 1.78327 10.1866 1.83314 10.2232 1.88379C10.4323 2.1725 10.6238 2.47894 10.7969 2.80056C11.5477 4.19438 11.9531 5.87362 11.9531 7.63644C11.9531 7.74514 11.9516 7.85423 11.9483 7.96332C11.9473 7.99858 11.945 8.03404 11.9436 8.06949C11.9407 8.14332 11.9381 8.21696 11.9339 8.29059C11.9313 8.33306 11.9276 8.37533 11.9247 8.4178C11.92 8.48443 11.9159 8.55086 11.9101 8.61728C11.9062 8.66112 11.9011 8.70456 11.8968 8.74819C11.8906 8.80995 11.8852 8.8717 11.8779 8.93326L11.9514 20.182H15.9311L18.033 18.0801C18.111 18.002 18.2284 17.9788 18.3301 18.0209C18.432 18.0629 18.4984 18.1625 18.4984 18.2727V20.1818H20.3273L21.8072 17.5921C21.8686 17.4847 21.9944 17.4317 22.114 17.4637C22.2334 17.4954 22.3168 17.6036 22.3168 17.7273V20.1818H24.4987V4.66367C24.4987 2.09206 22.4066 0 19.835 0L19.8351 1.71216e-05ZM17.6806 3.81819H18.2261C18.3767 3.81819 18.4988 3.94033 18.4988 4.09092C18.4988 4.24151 18.3767 4.36365 18.2261 4.36365H17.6806C17.53 4.36365 17.4079 4.24151 17.4079 4.09092C17.4079 3.94033 17.53 3.81819 17.6806 3.81819ZM13.8624 4.36367H13.3169C13.1664 4.36367 13.0442 4.24153 13.0442 4.09094C13.0442 3.94035 13.1663 3.81821 13.3169 3.81821H13.8624C14.013 3.81821 14.1351 3.94035 14.1351 4.09094C14.1351 4.24153 14.013 4.36367 13.8624 4.36367ZM15.4988 4.36367C15.3482 4.36367 15.226 4.24153 15.226 4.09094C15.226 3.94035 15.3482 3.81821 15.4988 3.81821H16.0442C16.1948 3.81821 16.317 3.94035 16.317 4.09094C16.317 4.24153 16.1948 4.36367 16.0442 4.36367H15.4988ZM20.2567 13.3777C20.156 13.5792 20.0192 13.7444 19.8462 13.8735C19.6732 14.0027 19.4718 14.0995 19.2422 14.164C19.0123 14.2285 18.7709 14.2659 18.5179 14.2764V15.1285H18.0531V14.2686C17.6915 14.2427 17.3391 14.1692 16.9957 14.0479C16.6522 13.9267 16.3411 13.7677 16.0624 13.5716L16.5348 12.65C16.5761 12.6915 16.6472 12.7456 16.7477 12.8126C16.8484 12.8798 16.9696 12.9457 17.1118 13.0102C17.2538 13.0748 17.4112 13.1354 17.5842 13.1921C17.7572 13.249 17.9366 13.2878 18.1224 13.3082V11.9759C18.0759 11.9656 18.0295 11.9539 17.983 11.9411C17.9364 11.9282 17.89 11.914 17.8435 11.8986C17.5801 11.8263 17.3516 11.7474 17.158 11.6623C16.9643 11.5772 16.8028 11.4764 16.6739 11.3601C16.5447 11.244 16.4479 11.1098 16.3834 10.9573C16.3187 10.805 16.2866 10.623 16.2866 10.4113C16.2866 10.1531 16.3318 9.9221 16.4222 9.71796C16.5124 9.514 16.6365 9.33965 16.7939 9.19512C16.9513 9.05058 17.1385 8.937 17.3555 8.85421C17.5725 8.77162 17.8047 8.71999 18.0527 8.69934L18.0531 7.90919H18.5179V8.69156C18.8586 8.71747 19.1724 8.78721 19.459 8.90078C19.7456 9.01455 19.9974 9.14604 20.2143 9.29585L19.7419 10.1633C19.7109 10.1273 19.6528 10.0835 19.5675 10.0317C19.4824 9.98003 19.3817 9.92704 19.2654 9.87289C19.1493 9.81874 19.0213 9.76964 18.882 9.72581C18.7425 9.68198 18.598 9.65217 18.4482 9.63678V10.9766L18.6418 11.0232C18.9102 11.0955 19.1543 11.173 19.3739 11.2556C19.5932 11.3382 19.7793 11.4415 19.9316 11.5655C20.0838 11.6894 20.2015 11.8379 20.2841 12.0109C20.3666 12.1839 20.4079 12.397 20.4079 12.6498C20.4079 12.9336 20.3577 13.1764 20.2568 13.3778L20.2567 13.3777ZM20.4079 4.36367H19.8624C19.7118 4.36367 19.5896 4.24153 19.5896 4.09094C19.5896 3.94035 19.7118 3.81821 19.8624 3.81821H20.4079C20.5584 3.81821 20.6806 3.94035 20.6806 4.09094C20.6806 4.24153 20.5584 4.36367 20.4079 4.36367ZM22.5897 4.36367H22.0442C21.8936 4.36367 21.7715 4.24153 21.7715 4.09094C21.7715 3.94035 21.8936 3.81821 22.0442 3.81821H22.5897C22.7403 3.81821 22.8624 3.94035 22.8624 4.09094C22.8624 4.24153 22.7403 4.36367 22.5897 4.36367Z" fill="#E6427A"/>
<path d="M5.95585 3.27344C5.91046 3.27344 5.86254 3.275 5.81364 3.27831C5.03557 3.32857 4.30407 3.79377 3.75395 4.5878C3.18473 5.40912 2.87109 6.49225 2.87109 7.63713C2.87109 10.0432 4.2548 12.0008 5.95582 12.0008C6.67565 12.0008 7.37753 11.6386 7.93233 10.9814C8.49921 10.3097 8.87773 9.37735 8.99811 8.35655C9.02617 8.11909 9.04039 7.87694 9.04039 7.63732C9.04058 5.23108 7.65668 3.27347 5.95581 3.27347L5.95585 3.27344ZM7.59105 7.9784C7.46521 9.04498 6.77757 9.81892 5.95585 9.81892C5.80527 9.81892 5.68312 9.69678 5.68312 9.54619C5.68312 9.3956 5.80527 9.27346 5.95585 9.27346C6.48787 9.27346 6.95795 8.68923 7.04931 7.91449C7.06002 7.82293 7.06548 7.72962 7.06548 7.63709C7.06548 6.75014 6.55725 6.00074 5.95567 6.00074C5.9395 6.00074 5.92352 6.00133 5.90735 6.0023C5.32217 6.04029 4.84586 6.77355 4.84586 7.6371C4.84586 7.78768 4.72372 7.90983 4.57313 7.90983C4.42255 7.90983 4.3004 7.78769 4.3004 7.6371C4.3004 6.47238 4.99081 5.51507 5.87212 5.45801C5.89978 5.45626 5.92764 5.45529 5.95549 5.45529C6.86817 5.45529 7.61074 6.43399 7.61074 7.63712C7.61113 7.75088 7.60431 7.86562 7.59106 7.97842L7.59105 7.9784Z" fill="#E6427A"/>
</svg>
