<svg width="32" height="32" viewBox="0 0 32 32" fill="none" xmlns="http://www.w3.org/2000/svg">
<circle cx="16" cy="16" r="16" fill="#FFECF3"/>
<path d="M18.1992 8.24512V11.3691H21.3232L18.1992 8.24512Z" fill="#E6427A"/>
<path d="M17.7773 12.2107C17.5447 12.2107 17.3562 12.0223 17.3562 11.7897V8.00047H11.0409C10.7031 7.99116 10.3764 8.12114 10.1374 8.36007C9.8985 8.59901 9.76836 8.92578 9.77783 9.26353V22.7365C9.76838 23.0742 9.8985 23.401 10.1374 23.6399C10.3764 23.8789 10.7031 24.0088 11.0409 23.9995H20.3035C20.6412 24.0088 20.968 23.8789 21.2069 23.6399C21.4459 23.401 21.5759 23.0742 21.5666 22.7365V12.2108L17.7773 12.2107ZM18.6193 20.6311H12.7251C12.4925 20.6311 12.304 20.4426 12.304 20.2101C12.304 19.9775 12.4925 19.7891 12.7251 19.7891H18.6193C18.8517 19.7891 19.0404 19.9775 19.0404 20.2101C19.0404 20.4426 18.8517 20.6311 18.6193 20.6311ZM18.6193 18.1049H12.7251C12.4925 18.1049 12.304 17.9164 12.304 17.684C12.304 17.4514 12.4925 17.2629 12.7251 17.2629H18.6193C18.8517 17.2629 19.0404 17.4514 19.0404 17.684C19.0404 17.9165 18.8517 18.1049 18.6193 18.1049ZM18.6193 15.5788H12.7251C12.4925 15.5788 12.304 15.3903 12.304 15.1579C12.304 14.9253 12.4925 14.7368 12.7251 14.7368H18.6193C18.8517 14.7368 19.0404 14.9253 19.0404 15.1579C19.0404 15.3903 18.8517 15.5788 18.6193 15.5788Z" fill="#E6427A"/>
</svg>
