<svg width="37" height="36" viewBox="0 0 37 36" fill="none" xmlns="http://www.w3.org/2000/svg">
<circle cx="18.5" cy="18" r="18" fill="#FFECF3"/>
<path d="M26.3192 13.7523C25.6677 13.7523 25.1382 14.2818 25.1382 14.9334C25.1382 15.1981 25.2196 15.4424 25.3621 15.6257L23.8146 16.7457C22.6947 17.5602 21.1065 17.1529 20.4956 15.9108L19.0703 13.0397C19.4571 12.836 19.7218 12.4492 19.7218 11.9809C19.7218 11.3293 19.1923 10.7998 18.5408 10.7998C17.8892 10.7998 17.3597 11.3293 17.3597 11.9809C17.3597 12.4492 17.6245 12.8361 18.0113 13.0397L16.5859 15.9108C15.975 17.1529 14.3869 17.5397 13.267 16.7457L11.6787 15.6054C11.8009 15.4221 11.8823 15.1778 11.8823 14.9334C11.8823 14.2818 11.3528 13.7523 10.7012 13.7523C10.0498 13.7523 9.5 14.2817 9.5 14.9334C9.5 15.5849 10.0295 16.1144 10.681 16.1144C10.8439 16.1144 10.9864 16.0737 11.129 16.033L13.8371 23.0172H23.224L25.9321 16.0533C26.0543 16.0941 26.1764 16.1144 26.319 16.1144C26.9705 16.1144 27.5 15.5849 27.5 14.9333C27.5003 14.2817 26.9708 13.7523 26.3192 13.7523L26.3192 13.7523Z" fill="#E6427A"/>
<path d="M13.8359 24.6053C13.8359 24.9107 14.0802 25.1551 14.3858 25.1551H22.6528C22.9582 25.1551 23.2026 24.9109 23.2026 24.6053V23.8315H13.836L13.8359 24.6053Z" fill="#E6427A"/>
</svg>
