<svg width="18" height="18" viewBox="0 0 18 18" fill="none" xmlns="http://www.w3.org/2000/svg">
<path d="M8.97405 16.9481C4.57707 16.9481 1 13.371 1 8.97405C1 4.57707 4.57707 1 8.97405 1C10.2683 1 11.5528 1.31708 12.6899 1.91655C13.107 2.13708 13.2671 2.65365 13.0471 3.07137C12.827 3.48909 12.3111 3.64903 11.8922 3.42852C11.0003 2.95761 9.99111 2.70916 8.97405 2.70916C5.51942 2.70903 2.70838 5.51929 2.70838 8.97418C2.70838 12.4291 5.51864 15.2392 8.9734 15.2392C12.428 15.2392 15.2391 12.4289 15.2391 8.97418C15.2391 8.57928 15.2025 8.18451 15.1299 7.80225C15.0419 7.33888 15.3465 6.89141 15.8098 6.80341C16.2732 6.7149 16.7207 7.0205 16.8082 7.48337C16.9008 7.97074 16.9476 8.47186 16.9476 8.97366C16.9482 13.3713 13.3705 16.9484 8.97385 16.9484L8.97405 16.9481Z" fill="#9C9FA0" stroke="white" stroke-width="0.2"/>
<path d="M8.14398 12.1243H8.14347C7.9172 12.1243 7.69946 12.0335 7.53888 11.8735L5.13497 9.462C4.80182 9.12771 4.80296 8.58715 5.13663 8.25347C5.47093 7.92032 6.01149 7.92094 6.34516 8.25513L8.14513 10.0608L15.5416 2.6667C15.8752 2.33302 16.4164 2.33302 16.7501 2.6667C17.0832 3.00037 17.0832 3.54156 16.7501 3.87471L8.74861 11.8746C8.58803 12.034 8.3703 12.1243 8.14402 12.1243L8.14398 12.1243Z" fill="#9C9FA0" stroke="white" stroke-width="0.2"/>
</svg>
