<svg width="16" height="16" viewBox="0 0 16 16" fill="none" xmlns="http://www.w3.org/2000/svg">
<path d="M14.8267 13.0705C15.3242 13.5685 15.3242 14.3431 14.8267 14.8411C14.5779 15.0901 14.2739 15.2008 13.9422 15.2008C13.6106 15.2008 13.3065 15.0901 13.0578 14.8411L7.99981 9.7783L2.94184 14.8411C2.69309 15.0901 2.38906 15.2008 2.05739 15.2008C1.72572 15.2008 1.42169 15.0901 1.17293 14.8411C0.675428 14.3431 0.675428 13.5685 1.17293 13.0705L6.2309 8.0077L1.17293 2.94487C0.675428 2.44689 0.675428 1.67225 1.17293 1.17427C1.67044 0.676286 2.44433 0.676286 2.94184 1.17427L7.99981 6.23709L13.0578 1.17427C13.5553 0.676286 14.3292 0.676286 14.8267 1.17427C15.3242 1.67225 15.3242 2.44689 14.8267 2.94487L9.76871 8.0077L14.8267 13.0705Z" fill="#707070" stroke="#F7F7F7" stroke-width="0.5"/>
</svg>
