<svg width="16" height="11" viewBox="0 0 16 11" fill="none" xmlns="http://www.w3.org/2000/svg">
<path d="M10.2657 10.091H9.64625C9.54142 8.7304 8.75444 7.51553 7.55552 6.86381C6.3566 6.21193 4.90915 6.21193 3.71015 6.86381C2.51123 7.51559 1.72427 8.73046 1.61942 10.091H1C1.07808 8.91539 1.60002 7.8134 2.46032 7.00847C3.32049 6.20346 4.45462 5.75554 5.63281 5.75554C6.811 5.75554 7.9451 6.20346 8.80529 7.00847C9.66557 7.81348 10.1876 8.91547 10.2657 10.091ZM3.46521 2.96854C3.46521 2.39361 3.69363 1.84219 4.10018 1.43565C4.50672 1.02922 5.05803 0.800781 5.63297 0.800781C6.2079 0.800781 6.75921 1.0292 7.16575 1.43565C7.57229 1.84219 7.80073 2.39361 7.80073 2.96854C7.80073 3.54337 7.57231 4.09478 7.16575 4.50133C6.75921 4.90787 6.2079 5.13619 5.63297 5.13619C5.05825 5.13557 4.50725 4.90695 4.1009 4.50061C3.69446 4.09425 3.46592 3.54329 3.46521 2.96854ZM4.08452 2.96854C4.08452 3.37914 4.24772 3.77305 4.53815 4.06336C4.82848 4.35377 5.22226 4.51688 5.63296 4.51688C6.04367 4.51688 6.43747 4.35378 6.72778 4.06336C7.01819 3.77302 7.1813 3.37914 7.1813 2.96854C7.1813 2.55783 7.01821 2.16403 6.72778 1.87362C6.43745 1.58329 6.04367 1.4201 5.63296 1.4201C5.22247 1.42061 4.82888 1.58382 4.53857 1.87412C4.24835 2.16446 4.08495 2.55796 4.08452 2.96854Z" fill="#E6427A" stroke="#E6427A" stroke-width="0.3"/>
<path d="M14.999 10.0923H14.5034C14.4196 9.00386 13.79 8.03196 12.8308 7.51058C11.8717 6.98907 9.94508 7.51058 9.94508 7.51058C9.44428 6.84074 9.9088 6.84074 9.9088 6.84074C9.9088 6.84074 10.3501 6.62396 11.2927 6.62396C12.2352 6.62396 13.1425 6.9823 13.8307 7.62631C14.5189 8.27032 14.9365 9.15191 14.999 10.0923ZM9.55859 4.39436C9.55859 3.93442 9.74133 3.49328 10.0666 3.16805C10.3918 2.8429 10.8329 2.66016 11.2928 2.66016C11.7527 2.66016 12.1938 2.84289 12.519 3.16805C12.8443 3.49328 13.027 3.93442 13.027 4.39436C13.027 4.85423 12.8443 5.29536 12.519 5.62059C12.1938 5.94582 11.7527 6.12849 11.2928 6.12849C10.833 6.12799 10.3922 5.94509 10.0671 5.62002C9.742 5.29493 9.55917 4.85416 9.55859 4.39436ZM10.054 4.39436C10.054 4.72285 10.1846 5.03797 10.4169 5.27022C10.6492 5.50255 10.9642 5.63304 11.2928 5.63304C11.6214 5.63304 11.9364 5.50256 12.1687 5.27022C12.401 5.03795 12.5315 4.72285 12.5315 4.39436C12.5315 4.0658 12.401 3.75076 12.1687 3.51843C11.9364 3.28616 11.6214 3.15561 11.2928 3.15561C10.9644 3.15602 10.6495 3.28658 10.4173 3.51883C10.1851 3.7511 10.0544 4.0659 10.054 4.39436Z" fill="#E6427A" stroke="#E6427A" stroke-width="0.3"/>
</svg>
