<svg width="60" height="60" viewBox="0 0 60 60" fill="none" xmlns="http://www.w3.org/2000/svg">
<circle cx="30" cy="30" r="30" fill="#E6427A"/>
<path d="M40.7778 23.1556V23.3112H37.6356C37.1068 23.3112 36.6089 23.2179 36.1423 23.0313C34.6801 22.4401 33.6534 21.0402 33.6534 19.4223V19.3913L33.5598 17.2443L33.5288 16.3422L33.4978 16H33.6221L40.7778 23.1556ZM37.6356 24.8668C37.0445 24.8668 36.4533 24.7735 35.9244 24.5869C35.0533 24.3069 34.2755 23.8091 33.6534 23.1869C32.689 22.1912 32.0978 20.8846 32.0978 19.4223L32.0666 18.5823L32.0043 16.9957L31.9422 16H22.7333C20.6799 16 19 17.6799 19 19.7333V40.2667C19 42.3201 20.6799 44 22.7333 44H37.0445C39.0979 44 40.7778 42.3201 40.7778 40.2667V24.8666L37.6356 24.8668Z" fill="white"/>
</svg>
