<svg width="122" height="119" viewBox="0 0 122 119" fill="none" xmlns="http://www.w3.org/2000/svg">
<path d="M19.9629 41.7109H32.976V28.3402H19.9629V41.7109Z" fill="#E7E8E5"/>
<path d="M32.9766 28.3445H33.5532V41.7148H32.9766V28.3445Z" fill="#DADBD8"/>
<path d="M21.7266 39.9023H31.2129V30.1552H21.7266V39.9023Z" fill="white"/>
<path d="M24.4473 37.1055H28.4932V32.9487H24.4473V37.1055Z" fill="#F3F2F1"/>
<path d="M68.3887 14.3672H81.4018V0.99645H68.3887V14.3672Z" fill="#E7E8E5"/>
<path d="M81.4023 1.0007H81.979V14.3711H81.4023V1.0007Z" fill="#DADBD8"/>
<path d="M70.1543 12.5586H79.6406V2.81141H70.1543V12.5586Z" fill="white"/>
<path d="M72.873 9.76172H76.919V5.60491H72.873V9.76172Z" fill="#F3F2F1"/>
<path d="M99.1695 93.5316C101.376 90.5674 106.629 89.4659 108.444 87.5982C110.821 85.1477 110.809 81.4717 108.785 80.1458C107.028 78.9925 101.201 86.7884 100.545 87.6577C98.2857 90.6526 97.6331 92.8762 97.2087 95.0279C97.2565 93.1987 97.304 91.5166 97.3417 90.2218C97.4647 85.9913 97.6179 84.6317 97.6879 84.2136C97.9392 84.0074 98.2203 83.7701 98.3862 83.6437C99.7972 82.5629 102.923 81.2755 104.487 79.7073C106.769 77.4139 106.4 74.669 104.798 73.6476C103.126 72.5797 100.166 75.1051 98.5944 77.6074C97.0227 80.1094 97.6956 82.5085 97.2565 84.5725C97.1635 84.98 97.0679 86.5277 96.98 88.6767C96.6088 86.5606 95.47 84.6678 93.7939 83.3807C91.6298 81.6057 89.762 79.4466 87.9792 79.7251C86.1969 80.0038 87.1659 82.8623 88.5669 84.869C89.8222 86.6565 96.0211 88.4392 96.9325 89.876C96.8245 92.786 96.7292 96.4721 96.6612 99.9058C96.1717 98.1335 96.508 97.9838 94.5072 95.2622C93.3173 93.6473 88.4365 91.651 87.8565 92.7653C87.2765 93.8796 88.1577 95.9718 90.0007 97.4394C91.4869 98.6235 94.7707 98.6211 95.5465 99.3561C95.7248 99.5265 96.3122 100.184 96.6486 100.564C96.5682 104.753 96.5334 108.452 96.5734 109.714L96.8922 109.727C96.8772 109.401 96.9147 107.271 96.9774 104.448C97.7786 102.947 103.169 102.07 104.834 100.509C106.576 98.8765 107.826 96.9701 107.081 95.693C106.458 94.6278 101.557 96.075 99.5487 97.8394C98.2203 99.0131 97.4094 100.267 97.0379 101.952C97.0831 100.03 97.1358 97.9657 97.1859 96.0182C97.5851 95.5383 98.5066 94.4189 99.1695 93.5316" fill="#F9DFCF"/>
<path d="M99.7216 115.188H94.0521C93.7419 115.188 93.4747 114.583 93.4137 113.737L93.0117 108.22H100.762L100.36 113.737C100.296 114.583 100.032 115.188 99.7216 115.188" fill="#9C9C9C"/>
<path d="M100.829 109.734H92.8575C92.6666 109.734 92.5059 109.463 92.486 109.102L92.3228 106.352C92.2975 105.929 92.4708 105.56 92.6945 105.56H100.992C101.216 105.56 101.389 105.929 101.364 106.352L101.2 109.102C101.18 109.463 101.02 109.734 100.829 109.734Z" fill="#D7D7D7"/>
<path d="M59.4153 116.819C87.0668 116.819 109.483 117.306 109.483 117.907C109.483 118.509 87.0668 118.996 59.4153 118.996C31.7636 118.996 9.34766 118.509 9.34766 117.907C9.34766 117.306 31.7636 116.819 59.4153 116.819Z" fill="#FFECF3"/>
<path d="M43.345 92.3626L22.2942 101.441L9.45774 74.1658L9.45781 74.165L4.04768 62.6732L25.0983 53.5953L35.1976 75.0529L43.345 92.3626Z" fill="#F7F7F7"/>
<path d="M25.3863 96.8569L37.7106 91.5418C38.547 91.1804 38.9147 90.2292 38.5322 89.4165L23.9857 58.5098C23.5967 57.6819 22.5908 57.3088 21.7382 57.6754L9.46323 62.9697C8.61872 63.3338 8.24751 64.2948 8.63367 65.1156L23.1898 96.0419C23.57 96.851 24.5537 97.2153 25.3863 96.8569V96.8569ZM39.9512 91.158L23.6086 98.2057L7.20797 63.3598L23.5506 56.3121L39.9512 91.158" fill="#DB9768"/>
<path d="M19.1813 79.1555C18.0705 76.7956 19.1385 74.0335 21.5667 72.9862C23.9948 71.939 26.8637 73.0032 27.9746 75.3631C29.0854 77.7238 28.0173 80.4859 25.5892 81.5332C23.161 82.5805 20.2922 81.5154 19.1813 79.1555" fill="#F9DFCF"/>
<path d="M47.8785 105.026L25.1964 102.36L26.991 72.1194L26.9915 72.1187L27.746 59.3767L50.4276 62.0432L49.0165 85.834L47.8785 105.026Z" fill="#F7F7F7"/>
<path d="M30.0758 99.9203L43.3552 101.481C44.2567 101.586 45.0303 100.942 45.0838 100.041L47.1164 65.7733C47.1714 64.8557 46.4719 64.0246 45.5537 63.9157L32.3273 62.3616C31.4174 62.2545 30.636 62.906 30.5819 63.8159L28.5484 98.1052C28.4946 99.002 29.1791 99.8143 30.0758 99.9203V99.9203ZM45.492 102.273L27.8831 100.203L30.1747 61.5679L47.7836 63.6379L45.492 102.273" fill="#DB9768"/>
<path d="M33.0937 81.3646C33.2488 78.748 35.4956 76.8762 38.1119 77.1836C40.7283 77.491 42.7235 79.8615 42.5684 82.4781C42.4129 85.0953 40.166 86.9672 37.5497 86.6598C34.9334 86.3524 32.9386 83.9812 33.0937 81.3646" fill="#F9E0CF"/>
<path d="M54.4163 35.1016C54.7186 35.1016 55.0465 35.077 55.394 35.0282C55.4379 35.0219 55.482 35.0153 55.5266 35.0083L55.0173 34.0743C54.6906 34.1183 54.3817 34.1402 54.0955 34.1402C53.0985 34.1402 52.3788 33.8733 52.1626 33.3354C52.1388 33.2761 52.1215 33.2146 52.1106 33.1512C52.1134 33.2043 52.1184 33.2556 52.1253 33.3048C52.1906 33.6454 52.347 33.9562 52.449 34.1727C52.4715 34.2196 52.4927 34.2655 52.511 34.3112C52.5733 34.4661 52.6777 34.598 52.8188 34.707C52.8192 34.7072 52.8196 34.7076 52.82 34.7078L52.8206 34.7083C53.0149 34.8576 53.2779 34.9636 53.5957 35.028H53.5961C53.5971 35.0282 53.5981 35.0284 53.5991 35.0286C53.6598 35.0408 53.722 35.0513 53.7863 35.0604C53.7867 35.0606 53.7871 35.0606 53.7875 35.0606C53.8085 35.0635 53.8297 35.0664 53.851 35.0691C54.027 35.0908 54.216 35.1016 54.4163 35.1016ZM55.7392 34.9727C56.1433 34.9002 56.5689 34.797 57.0073 34.6636C57.1534 34.6191 57.3005 34.5714 57.449 34.5203L56.9547 33.6133C56.3529 33.8131 55.7712 33.9564 55.2321 34.0428L55.7392 34.9727ZM57.6435 34.4514C57.8694 34.3697 58.0976 34.2804 58.3263 34.1836C58.5303 34.0972 58.7294 34.0073 58.923 33.914C58.9458 33.903 58.9686 33.8919 58.9914 33.8807L58.5049 32.9876C58.3233 33.0742 58.1371 33.1582 57.9466 33.2388C57.679 33.352 57.4131 33.4545 57.1503 33.5465L57.6437 34.4516M59.1748 33.7895C59.3517 33.6996 59.5236 33.6071 59.6901 33.5126C60.0317 33.3182 60.3495 33.1152 60.6407 32.9084L60.1633 32.0327C59.7256 32.3364 59.2298 32.6292 58.6889 32.8979L59.1748 33.7895ZM60.8054 32.7891C61.0359 32.6172 61.2475 32.4429 61.438 32.268C61.6198 32.1007 61.782 31.933 61.9219 31.7671L61.4598 30.9189C61.1617 31.251 60.7794 31.5883 60.3291 31.9148L60.8054 32.7891Z" fill="#F3BD98"/>
<path d="M62.0596 31.5977C62.4935 31.0338 62.6644 30.4971 62.4929 30.0699C62.4834 30.0468 62.4731 30.0188 62.462 29.987C62.3856 29.7777 62.254 29.3844 62.0977 29.0881C62.1033 29.1001 62.1083 29.1123 62.1134 29.1247C62.2956 29.578 62.092 30.1533 61.6003 30.755L62.0596 31.5977ZM62.0056 28.9307C61.9388 28.8298 61.8689 28.7535 61.798 28.7204C61.8794 28.7831 61.9489 28.8532 62.0056 28.9307Z" fill="#F3BD98"/>
<path d="M61.9215 31.7656C61.9715 31.7083 62.017 31.6519 62.0605 31.5948L61.6013 30.7522C61.5563 30.807 61.5089 30.8622 61.4594 30.9174L61.9215 31.7656" fill="#E6AD84"/>
<path d="M60.64 32.9102C60.6858 32.8783 60.7293 32.8458 60.7728 32.8144C60.7835 32.8066 60.794 32.7987 60.8047 32.7908L60.3285 31.9165C60.2742 31.956 60.219 31.9951 60.1626 32.0344L60.64 32.9102" fill="#E6AD84"/>
<path d="M57.4501 34.5234C57.5147 34.5011 57.5796 34.4781 57.6445 34.4546L57.1514 33.5497C57.0861 33.5726 57.0208 33.5948 56.9557 33.6165L57.4501 34.5234Z" fill="#E6AD84"/>
<path d="M58.9904 33.8789C58.9935 33.8775 58.9967 33.876 58.9997 33.8746C59.0426 33.8535 59.0852 33.8324 59.1275 33.8111C59.143 33.8034 59.1585 33.7956 59.1738 33.7877L58.6879 32.8961C58.6273 32.9262 58.5658 32.9562 58.5039 32.9858L58.9904 33.8789Z" fill="#E6AD84"/>
<path d="M55.5257 35.0078C55.5285 35.0074 55.5313 35.007 55.5341 35.0066C55.6016 34.996 55.6696 34.9847 55.7383 34.9722L55.2312 34.0423C55.1589 34.0539 55.0873 34.0643 55.0164 34.0738L55.5257 35.0078" fill="#E6AD84"/>
<path d="M52.1616 33.3318C52.6078 34.4416 55.1974 34.3984 57.9457 33.2353C60.6938 32.0721 62.5598 30.2294 62.1138 29.1198C61.6676 28.01 59.0781 28.0532 56.33 29.2164C53.5819 30.3795 51.7157 32.2222 52.1616 33.3318Z" fill="#FFD5B7"/>
<path d="M54.4048 33.4609C55.25 33.4609 56.4034 33.1996 57.6048 32.6911C59.7797 31.7707 61.2872 30.3889 60.972 29.6048C60.8307 29.2539 60.3483 29.082 59.6632 29.082C58.818 29.082 57.6644 29.3434 56.4633 29.8517C54.2885 30.7723 52.7808 32.1541 53.096 32.9382C53.2371 33.2891 53.7198 33.4609 54.4048 33.4609Z" fill="#FFEBDE"/>
<path d="M49.2142 20.1235C48.9117 21.8703 45.109 22.6114 40.7885 21.8212C36.468 21.0313 33.2111 18.9744 33.5136 17.2275C33.5839 16.8225 33.7051 15.3419 34.1096 15.0485C35.4504 14.0773 38.5657 14.8879 41.8844 15.495C44.9733 16.0599 48.3762 16.105 49.2155 17.5737C49.7242 18.4645 49.3005 19.6255 49.2142 20.1235" fill="#FFD5B7"/>
<path d="M44.4331 21.8242C43.8087 21.8242 43.1494 21.7873 42.4677 21.7109L42.9019 20.2411C43.4987 20.3014 44.0756 20.3306 44.6253 20.3306C44.932 20.3306 45.2301 20.3216 45.5179 20.3038L45.0722 21.8109C44.8638 21.82 44.6506 21.8242 44.4331 21.8242ZM45.3897 21.7934L45.8375 20.2799C48.0093 20.0901 49.5384 19.3785 49.7273 18.2888C49.7435 18.1954 49.7495 18.1009 49.7456 18.0056C49.758 18.0834 49.7663 18.1585 49.7714 18.2318C49.7751 18.3966 49.764 18.5601 49.7446 18.7175C49.703 19.0546 49.6242 19.3639 49.5694 19.6001C49.5519 19.6718 49.5364 19.7419 49.5245 19.8106C49.4785 20.0763 49.3522 20.3184 49.1553 20.5353C48.9551 20.7558 48.6825 20.9507 48.348 21.1176C48.3475 21.1179 48.3472 21.1182 48.3467 21.1182C48.3462 21.1184 48.3457 21.119 48.3452 21.119C48.2113 21.1858 48.068 21.248 47.9153 21.3056C47.9145 21.3058 47.9135 21.3061 47.9127 21.3066C47.5637 21.438 47.1669 21.5458 46.731 21.6283C46.3487 21.7005 45.9361 21.7536 45.499 21.786C45.4629 21.7887 45.4264 21.791 45.3897 21.7934M42.1657 21.6748C41.8151 21.6299 41.4586 21.5747 41.099 21.5089C40.7786 21.4502 40.4642 21.3847 40.1565 21.3127C40.1199 21.3042 40.0834 21.2955 40.047 21.2867L40.474 19.8393C40.7626 19.9056 41.0571 19.9667 41.3568 20.0214C41.7774 20.0983 42.192 20.1605 42.5992 20.2082L42.1657 21.6748ZM39.7546 21.2145C39.4624 21.1394 39.1769 21.0587 38.8995 20.973C38.357 20.8049 37.8454 20.6178 37.3698 20.4166L37.7894 18.997C38.5138 19.2943 39.319 19.5566 40.1813 19.7695L39.7546 21.2145ZM37.096 20.2974C36.7015 20.1198 36.3349 19.9319 36.0004 19.7363C35.6958 19.5576 35.4181 19.3726 35.1719 19.1831L35.5777 17.8087C36.1096 18.1917 36.7645 18.5551 37.514 18.8808L37.096 20.2974" fill="#F3BD98"/>
<path d="M34.9217 18.9805C34.123 18.3068 33.7119 17.5872 33.8279 16.9146C33.8339 16.8801 33.8398 16.8394 33.8458 16.7935C33.8917 16.4689 33.9605 15.8523 34.0963 15.3692C34.092 15.3883 34.0883 15.4074 34.085 15.4268C33.9612 16.1403 34.4314 16.9053 35.3255 17.6148L34.9217 18.9805ZM34.1813 15.1109C34.2464 14.9439 34.3237 14.8115 34.4157 14.7409C34.3177 14.8574 34.239 14.9811 34.1813 15.1109Z" fill="#F3BD98"/>
<path d="M35.1731 19.1836C35.0832 19.1172 35.0003 19.0503 34.9199 18.9819L35.3237 17.6162C35.4053 17.681 35.4903 17.7452 35.5789 17.8092L35.1731 19.1836" fill="#E6AD84"/>
<path d="M37.3695 20.4141C37.2923 20.3825 37.2184 20.3488 37.1445 20.3169C37.1283 20.3095 37.1117 20.302 37.0957 20.2949L37.5137 18.8782C37.6041 18.9178 37.6958 18.9565 37.7891 18.9945L37.3695 20.4141" fill="#E6AD84"/>
<path d="M42.468 21.7109C42.3678 21.6998 42.2673 21.6878 42.166 21.6748L42.5995 20.2083C42.7008 20.22 42.802 20.2311 42.9023 20.2412L42.468 21.7109" fill="#E6AD84"/>
<path d="M40.0483 21.2891C40.0439 21.2883 40.0395 21.2872 40.0351 21.2861C39.9413 21.2636 39.8481 21.2405 39.7559 21.2169L40.1826 19.7718C40.2795 19.7957 40.3772 19.8191 40.4753 19.8416L40.0483 21.2891Z" fill="#E6AD84"/>
<path d="M45.0723 21.8125L45.5179 20.3053C45.6259 20.2984 45.7323 20.2905 45.8375 20.2815L45.3898 21.795C45.3874 21.7952 45.3851 21.7955 45.3828 21.7958C45.2807 21.8024 45.1769 21.808 45.0723 21.8125Z" fill="#E6AD84"/>
<path d="M49.7313 18.2862C49.4287 20.0331 45.681 20.809 41.3608 20.0188C37.0403 19.2288 33.7831 17.1719 34.0859 15.4251C34.3884 13.678 38.1362 12.9024 42.4564 13.6926C46.7769 14.4825 50.034 16.5394 49.7313 18.2862Z" fill="#FFD5B7"/>
<path d="M44.5184 19.3906C43.6524 19.3906 42.6883 19.3033 41.6829 19.1196C38.264 18.4942 35.6656 16.9868 35.8795 15.7525C36.0304 14.8811 37.5427 14.3786 39.6221 14.3786C40.488 14.3786 41.4522 14.4657 42.4574 14.6496C45.8765 15.275 48.4749 16.7824 48.261 18.0167C48.1101 18.8881 46.5978 19.3906 44.5184 19.3906Z" fill="#FFECDE"/>
<path d="M73.2005 77.5642L48.3447 78.9723C47.4636 79.0222 46.5987 79.2278 45.7934 79.5787L18.7946 91.3478C17.8144 91.7752 17.2724 92.799 17.4918 93.8085L21.9589 114.351C22.2654 115.761 23.8788 116.503 25.2203 115.851L51.8687 102.896L76.4747 102.086C77.7676 102.044 78.7323 100.918 78.5268 99.6921L75.2335 80.0197C75.0634 79.0039 74.2719 77.5334 73.2005 77.5642Z" fill="#FFEBF2"/>
<path d="M23.3341 115.938C22.6624 115.677 22.1231 115.114 21.9588 114.358L19.7253 104.087L17.4918 93.8155C17.4592 93.6657 17.4435 93.5156 17.4434 93.367C17.4429 92.5153 17.9598 91.7186 18.7945 91.3548L23.1076 89.4748L23.8336 90.2418L19.7295 92.0463C18.7637 92.4708 18.2318 93.4928 18.4509 94.5023L22.9119 115.046C22.9856 115.385 23.1337 115.686 23.3341 115.938ZM44.3739 81.2116L44.0514 80.3452L45.7934 79.5857C46.5986 79.2348 47.4636 79.0292 48.3447 78.9793L50.3248 78.8671C50.4202 78.9043 50.5183 78.9372 50.619 78.9655L52.6764 79.541L48.8471 79.751C47.978 79.799 47.1252 80.0022 46.3318 80.3508L44.3739 81.2116ZM64.4221 78.8968L64.6707 78.0545L68.5268 77.836C68.5021 78.1145 68.4777 78.3946 68.4536 78.6757L64.4221 78.8968Z" fill="#FFEBF2"/>
<path d="M73.3612 78.4021L48.8455 79.7468C47.9765 79.7947 47.1236 79.998 46.3302 80.3465L19.7279 92.042C18.7621 92.4666 18.2303 93.4885 18.4494 94.498L22.9104 115.042C23.2166 116.452 24.8105 117.197 26.1317 116.549L52.3854 103.668L76.6562 102.92C77.9313 102.881 78.88 101.758 78.6742 100.533L75.3729 80.8616C75.2026 79.8456 74.4179 78.3741 73.3612 78.4021Z" fill="#F8D0DF"/>
<path d="M51.169 101.301C51.0579 101.301 50.9579 101.226 50.9333 101.116L47.0895 83.927C47.0613 83.8 47.1439 83.6747 47.2741 83.6471C47.2914 83.6434 47.3088 83.6417 47.3257 83.6417C47.4369 83.6417 47.5368 83.7168 47.5615 83.8268L51.4052 101.016C51.4337 101.142 51.3511 101.268 51.2207 101.295C51.2033 101.299 51.1862 101.301 51.169 101.301" fill="#FFEBF2"/>
<path d="M24.4126 112.613L21.7031 99.3911C26.4901 107.367 24.4126 112.613 24.4126 112.613Z" fill="#FFEBF2"/>
<path d="M32.9627 101.84C27.3395 101.84 22.0048 99.1409 21.7753 99.0235C21.7768 99.0237 21.7787 99.0237 21.7809 99.0237C22.425 99.0237 45.8374 89.2357 45.8374 89.2357C45.8374 89.2357 46.4441 96.4421 39.2285 100.383C37.2745 101.451 35.0976 101.84 32.9627 101.84ZM21.7753 99.0235C21.771 99.0228 21.7683 99.0216 21.7676 99.0195C21.7676 99.0195 21.77 99.0207 21.7753 99.0235Z" fill="#FFEBF2"/>
<path d="M48.3951 101.543L46.1406 89.7619C46.1406 89.7619 49.1144 94.1186 48.3951 101.543" fill="#FFEBF2"/>
<path d="M22.2555 93.5859C22.2092 93.5859 22.165 93.5598 22.1452 93.5158C22.1181 93.4566 22.1456 93.3872 22.2068 93.3608L23.355 92.8667C23.3707 92.8599 23.3874 92.8566 23.4038 92.8566C23.4499 92.8566 23.4944 92.8827 23.5142 92.9267C23.5412 92.9859 23.5137 93.0556 23.4526 93.0817L22.3043 93.5761C22.2884 93.5829 22.272 93.5859 22.2555 93.5859ZM24.552 92.5976C24.5057 92.5976 24.4615 92.5715 24.4414 92.5275C24.4146 92.468 24.4422 92.3986 24.503 92.3723L25.6513 91.8781C25.6672 91.8713 25.6839 91.868 25.7001 91.868C25.7464 91.868 25.7906 91.8944 25.8107 91.9381C25.8375 91.9976 25.81 92.067 25.7491 92.0933L24.6008 92.5875C24.5849 92.5943 24.5682 92.5976 24.552 92.5976ZM26.8486 91.6091C26.8022 91.6091 26.758 91.5829 26.7379 91.539C26.7109 91.4797 26.7387 91.4101 26.7995 91.384L27.9478 90.8898C27.9637 90.883 27.9801 90.8797 27.9966 90.8797C28.0429 90.8797 28.0871 90.9058 28.1069 90.9498C28.134 91.009 28.1065 91.0787 28.0454 91.1048L26.8971 91.5992C26.8814 91.606 26.8647 91.6091 26.8486 91.6091ZM29.1448 90.6207C29.0984 90.6207 29.0542 90.5946 29.0344 90.5506C29.0074 90.4911 29.0349 90.4217 29.096 90.3954L30.2443 89.9012C30.26 89.8944 30.2766 89.8911 30.2931 89.8911C30.3394 89.8911 30.3836 89.9175 30.4034 89.9612C30.4305 90.0207 30.403 90.0901 30.3419 90.1165L29.1936 90.6106C29.1777 90.6174 29.1612 90.6207 29.1448 90.6207ZM31.4413 89.6322C31.3949 89.6322 31.3507 89.6061 31.3307 89.5621C31.3039 89.5028 31.3314 89.4332 31.3925 89.4071L32.5408 88.9129C32.5565 88.9061 32.5731 88.9028 32.5893 88.9028C32.6357 88.9028 32.6799 88.9289 32.6999 88.9729C32.727 89.0322 32.6992 89.1018 32.6384 89.1279L31.4901 89.6223C31.4742 89.6291 31.4577 89.6322 31.4413 89.6322ZM33.7378 88.6438C33.6914 88.6438 33.6472 88.6177 33.6272 88.5738C33.6001 88.5143 33.6279 88.4449 33.6888 88.4185L34.837 87.9244C34.853 87.9175 34.8694 87.9142 34.8858 87.9142C34.9322 87.9142 34.9764 87.9404 34.9964 87.9843C35.0233 88.0438 34.9957 88.1132 34.9346 88.1396L33.7866 88.6337C33.7707 88.6406 33.754 88.6438 33.7378 88.6438ZM36.0341 87.6553C35.9877 87.6553 35.9435 87.6292 35.9237 87.5852C35.8966 87.5259 35.9242 87.4563 35.9853 87.4302L37.1335 86.936C37.1495 86.9292 37.1659 86.9259 37.1823 86.9259C37.2287 86.9259 37.2729 86.952 37.2927 86.996C37.3198 87.0553 37.2922 87.1249 37.2311 87.151L36.0829 87.6454C36.0672 87.6522 36.0505 87.6553 36.0341 87.6553ZM38.3306 86.667C38.2842 86.667 38.24 86.6409 38.2202 86.5969C38.1931 86.5374 38.2207 86.468 38.2818 86.4416L39.4298 85.9475C39.4457 85.9407 39.4624 85.9374 39.4786 85.9374C39.525 85.9374 39.5692 85.9635 39.5892 86.0075C39.6163 86.067 39.5885 86.1363 39.5276 86.1627L38.3794 86.6568C38.3634 86.6637 38.347 86.667 38.3306 86.667ZM40.6271 85.6784C40.5807 85.6784 40.5365 85.6523 40.5165 85.6083C40.4896 85.549 40.5172 85.4794 40.5781 85.4533L41.7263 84.9592C41.7422 84.9521 41.7589 84.949 41.7751 84.949C41.8215 84.949 41.8657 84.9751 41.8857 85.0191C41.9125 85.0784 41.885 85.148 41.8241 85.1741L40.6759 85.6685C40.6599 85.6753 40.6433 85.6784 40.6271 85.6784ZM42.9233 84.6901C42.877 84.6901 42.8328 84.664 42.813 84.62C42.7859 84.5605 42.8134 84.4911 42.8746 84.4648L44.0228 83.9706C44.0387 83.9638 44.0552 83.9605 44.0716 83.9605C44.118 83.9605 44.1622 83.9866 44.182 84.0306C44.209 84.0901 44.1815 84.1595 44.1204 84.1858L42.9721 84.68C42.9564 84.6868 42.9398 84.6901 42.9233 84.6901Z" fill="#FFEBF2"/>
<path d="M49.8428 83.582C49.7163 83.582 49.6098 83.4861 49.602 83.3614C49.5938 83.2316 49.695 83.1201 49.8281 83.1121L68.1905 82.0102C68.1794 82.1687 68.1685 82.3263 68.1581 82.4836L49.8578 83.5816C49.8527 83.582 49.8477 83.582 49.8428 83.582" fill="#FFECF3"/>
<path d="M50.5479 87.4453C50.4214 87.4453 50.3148 87.3494 50.3071 87.2245C50.2989 87.0949 50.4001 86.9834 50.5332 86.9754L67.9697 85.929C67.9637 86.0884 67.9579 86.246 67.9528 86.4012L50.5629 87.4448C50.5578 87.4451 50.5528 87.4453 50.5479 87.4453" fill="#FFECF3"/>
<path d="M51.4932 92.2656C51.3667 92.2656 51.2604 92.1697 51.2524 92.045C51.2442 91.9152 51.3454 91.8037 51.4787 91.7957L68.0025 90.8043C68.0117 90.9584 68.0214 91.115 68.0318 91.2738L51.5084 92.2652C51.5034 92.2656 51.4983 92.2656 51.4932 92.2656Z" fill="#FFECF3"/>
<path d="M78.9609 112.271L80.074 112.809C80.074 112.809 84.9103 104.113 85.5057 96.4614C85.612 95.0957 85.5772 93.7723 85.3463 92.5496C85.3463 92.5496 85.394 92.2001 85.4764 91.5809C85.5149 91.292 85.5616 90.9451 85.6157 90.5463C85.7732 89.3782 85.9895 87.7808 86.2368 85.961C86.8057 81.7734 87.5423 76.4204 88.1158 72.4858L87.8153 72.3603L84.5695 71.0033L83.8989 68.2403L81.4812 67.4156C81.4812 67.4156 80.9416 68.7848 80.4588 75.2541C80.3699 76.1025 80.2884 77.0378 80.2279 78.0532C80.0392 81.1499 80.0255 84.9923 80.4579 89.3844C80.5687 90.5086 80.7089 91.6697 80.8821 92.8624C81.0094 93.7371 81.0286 94.928 80.9746 96.2964C80.7318 102.55 78.9609 112.271 78.9609 112.271" fill="#FFB27D"/>
<path d="M80.5352 68.3272L80.6618 66.9778C82.7892 67.6784 88.4733 65.0225 88.4733 65.0225C88.4733 65.0225 90.5339 67.2662 90.2636 72.6448C90.131 75.2701 89.8896 86.4251 89.6383 89.7264C89.5465 90.9225 89.4667 91.7739 89.4348 92.1142C89.4338 92.1159 89.4338 92.1167 89.4338 92.1176C89.4238 92.221 89.4538 92.3192 89.4957 92.4095C89.8667 93.1891 90.1729 94.001 90.4252 94.8323C92.8987 102.995 90.0442 113.047 90.0442 113.047L89.3042 112.677C89.3042 112.677 87.6804 101.49 86.3609 96.5482C86.1375 95.71 85.922 95.0515 85.7245 94.6578C85.152 93.5109 84.6194 91.6363 84.1357 89.4073C83.2231 85.1932 82.487 79.7112 81.9983 75.4796C81.9305 75.4839 80.5352 68.3272 80.5352 68.3272" fill="#FFB27D"/>
<path d="M66.8496 60.7286L67.0041 62.0469C67.0041 62.0469 67.073 62.0469 67.193 62.0355C67.5709 62.003 68.4909 61.9382 69.53 61.7963C71.0935 61.6001 72.9502 61.2515 73.6891 60.6743C74.8139 59.8028 76.6617 57.1332 77.8651 54.4643C77.8995 54.3986 77.9251 54.3329 77.9507 54.2681C78.5775 52.8518 79.0163 51.446 79.0499 50.324C79.0764 49.6374 79.0163 49.0496 78.9042 48.5372C78.7585 47.862 78.5175 47.3281 78.2685 46.925C78.2341 46.8595 78.1997 46.7942 78.1476 46.7397C77.7353 46.1188 77.3318 45.8573 77.3318 45.8573C77.1252 45.7483 76.9028 45.8791 76.6706 46.1949V46.2059C76.4807 46.4565 76.275 46.8378 76.0773 47.3171C76.0684 47.3281 76.0605 47.339 76.0605 47.3499C76.0172 47.4479 75.974 47.5568 75.9228 47.6767C75.906 47.6985 75.8972 47.7312 75.8883 47.7529C75.7939 48.0036 75.6994 48.2649 75.6049 48.5372C74.5482 51.4574 73.4225 55.8806 72.4858 57.1989C72.0823 57.7646 70.2354 58.8761 68.7654 59.7047C67.7086 60.2924 66.8496 60.7286 66.8496 60.7286" fill="#FFB27D"/>
<path d="M76.2246 47.9839C76.8642 48.3677 79.6873 49.464 80.6215 49.5298C84.1256 49.7778 87.633 46.4821 87.7772 43.8478C87.2718 43.6114 83.8673 42.9603 83.6124 42.9779C83.3637 42.9956 83.1052 43.0285 82.8908 43.0626C82.462 42.7733 81.6918 41.368 81.2468 39.0171L81.0955 39.1076L78.5669 40.6435C78.5669 40.6435 78.8354 41.7067 79.0344 42.7239C79.1894 43.52 79.3002 44.2892 79.2074 44.5044C79.0083 44.6091 77.9826 45.3249 77.9826 45.3249C77.9826 45.3249 78.8885 44.6761 78.8876 44.6784C78.8624 44.762 76.5147 45.7367 76.2246 47.9839Z" fill="#FFB27D"/>
<path d="M78.3202 41.8599C78.3202 41.8599 81.9585 40.661 81.3985 37.4462C80.8404 34.2314 80.933 31.9116 78.587 32.5412C76.2411 33.1708 76.0051 34.5561 76.0078 35.6937C76.0115 36.8315 77.36 42.089 78.3202 41.8599" fill="#FFB27D"/>
<path d="M77.4702 114.559H80.926C81.172 114.17 81.6923 113.201 82.1317 112.479L82.2425 114.559H82.7985L82.8792 111.07L82.8849 110.878C82.883 110.857 82.883 110.834 82.8811 110.813C82.821 109.831 82.0735 108.4 81.9777 108.219C81.9721 108.205 81.9683 108.199 81.9683 108.199C81.9683 108.199 81.9627 108.199 81.9533 108.203C81.9402 108.207 81.9417 108.199 81.9172 108.219C81.8027 108.313 81.5251 108.67 81.1551 109.879C80.8358 110.93 80.3644 112.087 79.9756 112.335C79.7071 112.506 79.2901 112.479 79.0554 112.446C79.0441 112.444 79.0328 112.443 79.0197 112.441H79.0178C78.9521 112.43 78.9051 112.42 78.8882 112.416L78.8807 112.414C78.8807 112.414 77.4458 113.302 77.4364 113.612C77.4308 113.813 77.4533 114.322 77.4702 114.559Z" fill="black"/>
<path d="M86.2372 114.363H89.8312C90.0871 113.961 90.6282 112.959 91.0852 112.212L91.2004 114.363H91.7786L91.8626 110.754L91.8685 110.556C91.8665 110.534 91.8665 110.51 91.8646 110.488C91.802 109.473 91.0247 107.992 90.925 107.805C90.9192 107.791 90.9153 107.785 90.9153 107.785C90.9153 107.785 90.9094 107.785 90.8997 107.788C90.886 107.793 90.8684 107.803 90.843 107.823C90.7239 107.921 90.4543 108.272 90.0695 109.523C89.7375 110.61 89.2472 111.807 88.8429 112.063C88.5636 112.24 88.1299 112.212 87.8858 112.178C87.8741 112.176 87.8623 112.175 87.8487 112.172H87.8467C87.7783 112.161 87.7295 112.151 87.7119 112.146L87.7041 112.145C87.7041 112.145 86.2119 113.064 86.2021 113.385C86.1962 113.592 86.2197 114.118 86.2372 114.363Z" fill="black"/>
<path d="M116.182 115.94C110.723 115.95 99.7081 116.546 97.7492 113.281C96.2474 110.783 96.6108 107.394 93.4937 107.062C87.9294 106.473 86.9216 102.444 87.5944 97.9993C88.3609 92.9285 88.3609 88.9539 84.5454 87.9938C79.6596 86.7653 78.7966 79.148 78.7966 79.148C78.7455 78.7877 77.9421 71.4901 77.8768 71.0362C77.6071 69.1918 77.4623 67.4462 77.4254 65.816C77.3374 62.1341 77.7859 59.0376 78.4985 56.7003C78.331 55.0244 77.9307 52.7074 77.309 52.1474C77.0535 51.9175 76.7526 51.522 76.5028 51.0336C76.0003 50.0429 75.7164 48.6713 76.4687 47.529C76.5056 47.475 76.5425 47.4221 76.5822 47.3693C76.9825 46.8424 77.8768 46.0594 77.9023 46.0356L77.9052 46.0349L79.5631 47.1618C79.5631 47.1618 80.429 46.6572 81.8683 46.4726C82.3509 46.4105 82.8988 46.384 83.5007 46.4252C85.6412 46.572 88.9395 48.6997 88.9395 48.6997C88.9395 48.6997 86.3254 55.0032 86.9017 56.6189H86.9045C86.9045 56.6189 87.5575 57.1832 88.3609 58.232C88.7782 58.7749 89.2381 59.4479 89.6697 60.239C90.527 61.8152 91.2765 63.8633 91.3673 66.2953C91.444 68.3122 91.9919 72.6379 92.2956 75.2396C95.4838 102.494 117.088 111.772 121.948 115.683C122.402 116.05 119.825 115.933 116.182 115.94Z" fill="#E93779"/>
<path d="M70.5627 46.7657C70.7344 49.7853 73.0637 51.2021 74.5995 51.0696C74.6061 51.0696 74.6128 51.0685 74.6184 51.0674C76.1411 50.9218 77.2026 49.3604 77.6931 48.2338C78.1828 47.1083 78.5536 46.0746 78.7205 45.1001C78.7951 44.6676 78.9364 43.9122 78.9345 43.5323C79.2589 43.0874 79.1328 42.3415 78.7205 41.8357C77.8224 40.7353 76.1033 38.8442 76.0949 37.1504C76.0939 37.1351 76.0939 37.1198 76.0939 37.1044C76.0939 36.6096 76.1373 36.1223 76.2269 35.6592C76.5609 33.9424 78.277 33.2154 78.843 33.0216C78.8779 33.0085 78.9091 32.9986 78.9345 32.991C78.9921 32.9724 79.0242 32.9636 79.0242 32.9636L79.0298 32.9417L79.0449 33.0183C79.7261 33.211 80.1827 34.0508 80.4827 35.3581L80.4836 35.3636C80.5676 35.7282 80.6383 36.1278 80.6987 36.5614C80.8949 37.9661 80.9775 38.1002 80.9992 40.0502C81.112 41.2441 81.0516 43.1902 81.2393 43.9062C81.7573 43.0084 86.0884 38.9154 83.4356 33.7026C82.8204 32.4939 82.0421 31.8764 81.2393 31.6519C80.2657 31.3771 79.3902 31.5873 79.3487 31.5983H79.3468L79.3383 31.63C79.2374 31.4034 78.1449 29.1129 75.6901 29.6768C73.108 30.268 71.5344 32.7238 71.5061 35.4205C71.4636 39.431 74.3835 40.5971 73.5373 41.7095C72.5542 43.0004 70.4306 44.4555 70.5627 46.7657Z" fill="#10215F"/>
<path d="M78.8258 64.934L70.4153 93.2259C69.8213 95.2257 68.0352 96.5793 66.0248 96.7734C65.399 96.8323 64.7505 96.7822 64.1048 96.6039L48.0096 92.1326C45.3037 91.3782 43.739 88.6471 44.5154 86.032L52.9282 57.7358C53.3808 56.2224 54.5144 55.0768 55.921 54.5284C56.9383 54.1291 58.0987 54.0443 59.2395 54.3613L75.3339 58.8291C78.0402 59.5831 79.6049 62.3142 78.8258 64.934" fill="#F4D4BD"/>
<path d="M66.0563 97.8438C67.4584 97.2961 68.5961 96.1497 69.0474 94.6329L77.4575 66.3409C77.5929 65.8854 77.6574 65.4267 77.6574 64.9754C77.6582 62.8312 76.2015 60.8591 73.966 60.2361L57.8716 55.7682C57.3968 55.6369 56.9196 55.5753 56.4515 55.5753C56.2838 55.5753 56.1173 55.583 55.9524 55.5988C54.5459 56.1471 53.4122 57.2928 52.9597 58.8062L44.5468 87.1024C44.4118 87.5572 44.3477 88.015 44.3477 88.4656C44.3477 88.015 44.4118 87.5572 44.5468 87.1024L52.9597 58.8062C53.4122 57.2928 54.5459 56.1471 55.9524 55.5988C56.5495 55.3643 57.196 55.2383 57.8585 55.2383C58.3249 55.2383 58.7997 55.3007 59.271 55.4317L75.3654 59.8995C77.6013 60.5226 79.058 62.495 79.0572 64.6392C79.0572 65.0901 78.9927 65.5492 78.8572 66.0043L78.2589 68.0161L70.4467 94.2963C69.8528 96.2961 68.0667 97.6497 66.0563 97.8438" fill="#FFEBDE"/>
<path d="M65.5571 97.8672C65.0887 97.8672 64.6115 97.8056 64.1363 97.6743L48.041 93.203C45.8056 92.5795 44.3489 90.6074 44.3477 88.4656C44.3477 88.015 44.4118 87.5571 44.5468 87.1023L52.9597 58.8062C53.4122 57.2928 54.5459 56.1471 55.9524 55.5987C56.1173 55.5829 56.2838 55.5752 56.4515 55.5752C56.9196 55.5752 57.3968 55.6369 57.8716 55.7682L73.966 60.236C76.2015 60.8591 77.6582 62.8311 77.6574 64.9753C77.6574 65.4267 77.5929 65.8853 77.4575 66.3409L69.0474 94.6328C68.596 96.1497 67.4584 97.2961 66.0562 97.8437C65.8913 97.8595 65.7248 97.8672 65.5571 97.8672M68.116 72.4361L61.9219 93.6886L63.6443 94.1576L69.8385 72.9055L68.116 72.4361Z" fill="#F7F7F7"/>
<path d="M48.6505 89.9961L46.9277 89.5267L53.1219 68.2746L54.8443 68.7436L48.6505 89.9961Z" fill="#F3E6DE"/>
<path d="M51.1165 90.6758L49.3965 90.1979L55.589 68.9504L57.3091 69.4283L51.1165 90.6758Z" fill="#F3E6DE"/>
<path d="M53.6185 91.3711L51.8984 90.8932L58.091 69.6457L59.811 70.1236L53.6185 91.3711" fill="#F3E6DE"/>
<path d="M63.6462 94.1602L61.9238 93.6911L68.118 72.4387L69.8404 72.9081L63.6462 94.1602Z" fill="#F3E6DE"/>
<path d="M69.6126 66.8969L68.7562 69.7812L67.7364 69.504C66.7087 69.2229 66.1112 68.1908 66.398 67.1973L66.9557 65.2834L69.0151 65.8533C69.4772 65.9842 69.744 66.4502 69.6126 66.8969" fill="#F3BD98"/>
<path d="M69.1219 65.4816L67.0625 64.9116L67.6799 62.8013C67.9667 61.8078 69.0382 61.2302 70.066 61.5074L71.1255 61.7962L70.2014 64.9039C70.0699 65.3545 69.588 65.6125 69.1219 65.4816" fill="#F3BD98"/>
<path d="M71.0765 66.4284L73.1479 67.0022L72.5982 68.8853C72.3114 69.8788 71.2438 70.4603 70.2161 70.1792L69.1406 69.8865L69.9971 67.006C70.1285 66.5593 70.6105 66.3013 71.0765 66.4284" fill="#F3BD98"/>
<path d="M73.8766 64.4956L73.2512 66.6367L71.1798 66.0629C70.7178 65.932 70.4509 65.466 70.5823 65.0193L71.5065 61.9116L72.5382 62.1928C73.5659 62.47 74.1634 63.5021 73.8766 64.4956" fill="#F3BD98"/>
<path d="M27.0561 118.859H22.2207V105.566H27.0561V118.859Z" fill="#99B6F1"/>
<path d="M22.2195 118.859H9.44531V105.566H22.2195V118.859Z" fill="#B3C7EE"/>
<path d="M9.44531 113V112.07H22.2195V113H9.44531Z" fill="url(#paint0_linear_9641_235968)"/>
<path d="M22.2207 113V112.07H27.0561V113H22.2207Z" fill="url(#paint1_linear_9641_235968)"/>
<path d="M18.7642 105.361C18.7642 105.361 22.6804 103.664 25.4104 104.309L24.8652 104.657L25.1401 105.271C25.1401 105.271 22.1028 104.516 18.6855 105.461L18.7642 105.361Z" fill="#C8D6F2"/>
<path d="M18.0961 105.297C18.0961 105.297 17.5871 105.238 16.828 105.138C14.8131 104.874 11.0394 104.32 10.3621 103.808C9.29754 103.004 11.8199 99.5872 12.9115 99.1131C14.0031 98.6393 18.0961 105.297 18.0961 105.297Z" fill="#A2BFFB"/>
<path d="M26.0791 101.04C26.2609 101.886 18.0195 105.543 18.0195 105.543C18.0195 105.543 18.1696 105.156 18.4134 104.55C18.4134 104.55 18.4137 104.549 18.414 104.549C19.3052 102.336 21.4516 97.2001 22.1569 97.2713C22.228 97.2782 22.3107 97.3025 22.4032 97.3412C23.4866 97.7961 25.9114 100.26 26.0791 101.04" fill="#A2BFFB"/>
<path d="M22.3357 98.0917C21.8324 98.9264 18.4689 104.461 18.416 104.547C19.3072 102.334 21.4536 97.1982 22.1589 97.2693C22.1589 97.2693 22.2986 97.2654 22.4052 97.3393C22.5339 97.4285 22.6138 97.6311 22.3357 98.0917" fill="#C8D6F2"/>
<path d="M16.8281 105.137H16.8269C14.812 104.872 11.0382 104.319 10.3609 103.807C10.0549 102.984 10.8485 102.918 11.4261 102.86C12.0034 102.802 16.8281 105.137 16.8281 105.137" fill="#C8D6F2"/>
<path d="M16.5586 105.559C16.5586 105.559 17.0207 104.555 17.9299 104.5C18.8796 104.442 19.4191 105.559 19.4191 105.559H16.5586" fill="#C8D6F2"/>
<path d="M22.4271 107.391H9.06055V105.562H22.4271V107.391Z" fill="#B2C7F1"/>
<path d="M27.4677 107.391H22.4297V105.562H27.4677V107.391Z" fill="#B2C7F1"/>
<path d="M17.0261 105.411C17.0261 105.411 14.4081 104.62 12.6418 105.143C10.6055 105.746 10.726 108.144 10.726 108.144L11.2051 107.957L11.8515 108.246C11.8515 108.246 11.9607 105.707 13.6207 105.351C15.0562 105.044 17.0261 105.411 17.0261 105.411Z" fill="#C8D6F2"/>
<path d="M15.6819 118.973H14.707V105.565H15.6819V118.973Z" fill="url(#paint2_linear_9641_235968)"/>
<path d="M39.7626 117.855H36.25V109.596H39.7626V117.855Z" fill="#99B6F1"/>
<path d="M36.2502 117.855H26.9707V109.596H36.2502V117.855Z" fill="#B3C7EE"/>
<path d="M26.9707 114.215V113.637H36.2502V114.215H26.9707Z" fill="url(#paint3_linear_9641_235968)"/>
<path d="M36.25 114.215V113.637H39.7626V114.215H36.25Z" fill="url(#paint4_linear_9641_235968)"/>
<path d="M33.7407 109.469C33.7407 109.469 36.5855 108.415 38.5686 108.815L38.1726 109.032L38.3723 109.414C38.3723 109.414 36.166 108.944 33.6836 109.531L33.7407 109.469Z" fill="#C8D6F2"/>
<path d="M33.2557 109.426C33.2557 109.426 32.886 109.389 32.3346 109.327C30.8709 109.163 28.1296 108.819 27.6376 108.501C26.8643 108.001 28.6965 105.878 29.4895 105.584C30.2825 105.289 33.2557 109.426 33.2557 109.426Z" fill="#A2BFFB"/>
<path d="M39.0539 106.784C39.1859 107.31 33.1992 109.582 33.1992 109.582C33.1992 109.582 33.3082 109.342 33.4853 108.965C33.4853 108.965 33.4855 108.965 33.4858 108.964C34.1332 107.589 35.6924 104.398 36.2047 104.442C36.2563 104.447 36.3164 104.462 36.3836 104.486C37.1706 104.769 38.9321 106.3 39.0539 106.784" fill="#A2BFFB"/>
<path d="M36.3317 104.954C35.9661 105.473 33.5228 108.911 33.4844 108.965C34.1318 107.59 35.691 104.399 36.2033 104.443C36.2033 104.443 36.3048 104.441 36.3822 104.486C36.4757 104.542 36.5337 104.668 36.3317 104.954" fill="#C8D6F2"/>
<path d="M32.3312 109.328H32.3303C30.8667 109.164 28.1254 108.82 27.6334 108.502C27.411 107.991 27.9876 107.949 28.4071 107.913C28.8265 107.877 32.3312 109.328 32.3312 109.328" fill="#C8D6F2"/>
<path d="M32.1348 109.59C32.1348 109.59 32.4705 108.967 33.1309 108.932C33.8208 108.896 34.2127 109.59 34.2127 109.59H32.1348" fill="#C8D6F2"/>
<path d="M36.3992 110.73H26.6895V109.594H36.3992V110.73Z" fill="#B2C7F1"/>
<path d="M40.0601 110.73H36.4004V109.594H40.0601V110.73Z" fill="#B2C7F1"/>
<path d="M32.474 109.5C32.474 109.5 30.5723 109.009 29.2891 109.334C27.8099 109.708 27.8975 111.198 27.8975 111.198L28.2455 111.082L28.7151 111.262C28.7151 111.262 28.7944 109.684 30.0003 109.463C31.043 109.272 32.474 109.5 32.474 109.5Z" fill="#C8D6F2"/>
<path d="M31.5016 117.926H30.793V109.595H31.5016V117.926Z" fill="url(#paint5_linear_9641_235968)"/>
<path d="M76.0059 63.488L76.3052 64.8945C76.3052 64.8945 76.6807 64.8071 77.2793 64.664C77.4587 64.6198 77.5619 64.5871 77.5619 64.5871C78.0405 64.466 78.6131 64.3017 79.2378 64.126H79.247C80.316 63.7954 81.5123 63.4005 82.5217 62.9605C83.2309 62.6416 83.8472 62.3014 84.2664 61.9604C84.3092 61.9277 84.3426 61.8951 84.3854 61.8509C85.3865 60.917 86.5753 58.1692 87.4983 55.2235C87.6275 54.817 87.7465 54.4106 87.8664 54.0147C88.294 52.542 88.636 51.0921 88.8414 49.8392C88.9697 49.0917 89.0552 48.4101 89.0729 47.8497C89.0803 47.6519 89.0896 47.4652 89.0803 47.2891C89.0636 44.1021 87.832 43.6627 87.832 43.6627C87.8069 43.6515 87.7809 43.6407 87.7465 43.6298C87.5327 43.5857 87.3105 43.7726 87.08 44.1352C86.7891 44.5858 86.4814 45.3221 86.1654 46.2121C85.6774 47.6298 85.1643 49.4655 84.6856 51.29C84.4198 52.2892 84.1632 53.2894 83.9076 54.2127C83.7617 54.7729 83.6167 55.3004 83.4791 55.7845C83.2142 56.7078 82.9753 57.4544 82.7615 57.9271C82.624 58.2354 82.2308 58.664 81.7093 59.1473C80.803 59.9936 79.4776 61.0159 78.3231 61.8509C77.8444 62.2025 77.3908 62.5214 77.0153 62.7847C76.4074 63.2132 76.0059 63.488 76.0059 63.488Z" fill="#FFB27D"/>
<path d="M71.1578 65.6576C71.7555 65.9269 72.6224 66.9205 73.9143 66.2397C74.8397 65.7607 76.1102 64.9878 76.5898 64.8243L76.2687 63.6499C76.2687 63.6499 76.3084 63.6261 75.9841 63.3652C75.6484 63.4678 73.9056 64.0035 73.0903 63.8194C72.1744 63.607 70.708 64.9757 70.708 64.9757C70.708 64.9757 70.5595 65.3981 71.1578 65.6576Z" fill="#FFB27D"/>
<defs>
<linearGradient id="paint0_linear_9641_235968" x1="15.8329" y1="112.066" x2="15.8324" y2="113.001" gradientUnits="userSpaceOnUse">
<stop stop-color="white"/>
<stop offset="0.1841" stop-color="#FAFCFE"/>
<stop offset="0.3992" stop-color="#ECF1FC"/>
<stop offset="0.6297" stop-color="#D5E0F7"/>
<stop offset="0.8695" stop-color="#B4C9F2"/>
<stop offset="1" stop-color="#9FBAEE"/>
</linearGradient>
<linearGradient id="paint1_linear_9641_235968" x1="24.6386" y1="112.066" x2="24.6374" y2="113.001" gradientUnits="userSpaceOnUse">
<stop stop-color="white"/>
<stop offset="0.1841" stop-color="#FAFCFE"/>
<stop offset="0.3992" stop-color="#ECF1FC"/>
<stop offset="0.6297" stop-color="#D5E0F7"/>
<stop offset="0.8695" stop-color="#B4C9F2"/>
<stop offset="1" stop-color="#9FBAEE"/>
</linearGradient>
<linearGradient id="paint2_linear_9641_235968" x1="15.1945" y1="105.521" x2="13.9929" y2="118.875" gradientUnits="userSpaceOnUse">
<stop stop-color="white"/>
<stop offset="0.1841" stop-color="#FAFCFE"/>
<stop offset="0.3992" stop-color="#ECF1FC"/>
<stop offset="0.6297" stop-color="#D5E0F7"/>
<stop offset="0.8695" stop-color="#B4C9F2"/>
<stop offset="1" stop-color="#9FBAEE"/>
</linearGradient>
<linearGradient id="paint3_linear_9641_235968" x1="31.6108" y1="113.635" x2="31.6105" y2="114.215" gradientUnits="userSpaceOnUse">
<stop stop-color="white"/>
<stop offset="0.1841" stop-color="#FAFCFE"/>
<stop offset="0.3992" stop-color="#ECF1FC"/>
<stop offset="0.6297" stop-color="#D5E0F7"/>
<stop offset="0.8695" stop-color="#B4C9F2"/>
<stop offset="1" stop-color="#9FBAEE"/>
</linearGradient>
<linearGradient id="paint4_linear_9641_235968" x1="38.0064" y1="113.635" x2="38.0058" y2="114.215" gradientUnits="userSpaceOnUse">
<stop stop-color="white"/>
<stop offset="0.1841" stop-color="#FAFCFE"/>
<stop offset="0.3992" stop-color="#ECF1FC"/>
<stop offset="0.6297" stop-color="#D5E0F7"/>
<stop offset="0.8695" stop-color="#B4C9F2"/>
<stop offset="1" stop-color="#9FBAEE"/>
</linearGradient>
<linearGradient id="paint5_linear_9641_235968" x1="31.1473" y1="109.568" x2="30.5077" y2="117.883" gradientUnits="userSpaceOnUse">
<stop stop-color="white"/>
<stop offset="0.1841" stop-color="#FAFCFE"/>
<stop offset="0.3992" stop-color="#ECF1FC"/>
<stop offset="0.6297" stop-color="#D5E0F7"/>
<stop offset="0.8695" stop-color="#B4C9F2"/>
<stop offset="1" stop-color="#9FBAEE"/>
</linearGradient>
</defs>
</svg>
