<svg width="89" height="56" viewBox="0 0 89 56" fill="none" xmlns="http://www.w3.org/2000/svg">
<path d="M30.9111 48.195L33.2794 23.3988L5.64539 8.45155C4.85537 8.5698 4.07121 8.68325 3.29509 8.79183L30.9111 48.195Z" fill="url(#paint0_linear_14322_257797)"/>
<path d="M6.16619 4.99259L6.93255 7.82934C6.74558 7.13662 5.56131 6.90532 4.28738 7.31266C3.02302 7.71722 2.14613 8.59979 2.31652 9.29041L1.55339 6.46855C1.48973 6.23226 1.91129 5.87357 2.58807 5.54006C2.69506 5.48715 2.80814 5.43544 2.92721 5.38446C3.16201 5.28348 3.41869 5.188 3.68958 5.10125C3.74783 5.08232 3.80547 5.06456 3.86293 5.04784C4.00301 5.00608 4.14056 4.96853 4.27391 4.93566C5.28658 4.68846 6.08675 4.69953 6.16619 4.99259Z" fill="#10215F"/>
<path d="M6.93261 7.83357C6.97211 7.97963 6.96402 8.13474 6.91492 8.29218C6.7313 8.88073 5.97069 9.50461 4.96571 9.82637C3.96032 10.1482 3.01001 10.0717 2.56271 9.68456C2.44367 9.58134 2.36048 9.45664 2.32069 9.31115L2.31619 9.29468C2.1458 8.60404 3.02282 7.72148 4.28725 7.31701C5.56128 6.90927 6.7456 7.14056 6.93261 7.83357Z" fill="white"/>
<ellipse cx="43.6988" cy="54.1249" rx="43.6988" ry="1.87487" fill="url(#paint1_linear_14322_257797)"/>
<path d="M37.2699 5.85762C37.1802 5.77429 37.0733 5.69762 36.9522 5.62952C37.051 5.51619 37.1317 5.36762 37.184 5.2019C37.1906 5.1819 37.1963 5.1619 37.202 5.14143C37.2096 5.14333 37.2177 5.14572 37.2248 5.1481C37.3606 5.19095 37.4437 5.33143 37.4437 5.49048C37.4437 5.53762 37.4361 5.58667 37.4209 5.63524C37.3915 5.72857 37.3369 5.80571 37.2699 5.85762ZM36.8287 5.56476C36.8069 5.55476 36.7855 5.54476 36.7637 5.53524C36.7665 5.50095 36.7736 5.46667 36.7846 5.43286C36.8178 5.32762 36.8834 5.24048 36.9688 5.18667C36.9988 5.16809 37.0291 5.15428 37.0605 5.14619C37.0591 5.15095 37.0572 5.15619 37.0557 5.16095C37.0049 5.32191 36.9251 5.46333 36.8287 5.56476ZM36.635 5.48238C36.5324 5.44333 36.4232 5.40952 36.3087 5.38143C36.2926 5.24714 36.3092 5.09286 36.3581 4.93905C36.3643 4.91857 36.3714 4.89857 36.379 4.87857L36.3795 4.87714C36.3994 4.82286 36.4236 4.77191 36.4498 4.72429C36.5614 4.52191 36.7181 4.38905 36.8544 4.38905C36.8743 4.38905 36.8943 4.39191 36.9137 4.3981C37.0743 4.44905 37.145 4.70857 37.0947 5.0019C37.0272 5.00952 36.9603 5.03286 36.8976 5.07238C36.7846 5.14286 36.6991 5.25619 36.6563 5.39191C36.6469 5.42191 36.6397 5.45191 36.635 5.48238ZM36.2536 4.82952C36.161 5.0219 36.0656 5.18572 35.9749 5.3181C35.9573 5.31524 35.9397 5.31333 35.9222 5.31143C36.0347 4.94476 36.0936 4.44572 36.0936 3.96238C36.0936 3.87715 36.0898 3.79334 36.0827 3.71096C36.2289 3.53477 36.3752 3.40191 36.4778 3.31762C36.4854 3.31095 36.4935 3.30905 36.5001 3.30905C36.5063 3.30905 36.5115 3.31096 36.5139 3.31191C36.5201 3.31429 36.5338 3.32239 36.5357 3.34191C36.541 3.4081 36.5452 3.49096 36.5452 3.58477C36.5452 3.86191 36.5082 4.24143 36.3515 4.61191C36.3448 4.62762 36.3382 4.64333 36.3315 4.65905L36.331 4.66C36.3054 4.7181 36.2798 4.77429 36.2541 4.82762L36.2536 4.82952ZM35.7859 5.29714C35.7507 5.29429 35.7151 5.2919 35.679 5.29C35.6785 5.28714 35.6785 5.28381 35.6781 5.28095C35.6591 5.11286 35.6163 4.92048 35.5536 4.7181C35.594 4.59286 35.6415 4.46381 35.6966 4.33429C35.7688 4.16238 35.8599 4.0081 35.9573 3.87286C35.9582 3.90286 35.9587 3.93238 35.9587 3.96238C35.9587 4.44714 35.9032 4.90191 35.8025 5.24286C35.7973 5.26143 35.7916 5.27952 35.7859 5.29714ZM35.4829 5.28476C35.4629 5.28476 35.443 5.28476 35.423 5.28524C35.4344 5.18619 35.4549 5.07857 35.4829 4.96524C35.5109 5.07857 35.5313 5.18619 35.5432 5.28524C35.5228 5.28476 35.5028 5.28476 35.4829 5.28476ZM35.4126 4.71857C35.3494 4.92095 35.3072 5.11286 35.2882 5.28095C35.2877 5.28381 35.2872 5.28714 35.2872 5.29C35.2511 5.2919 35.2155 5.29429 35.1799 5.29714C35.1747 5.27952 35.169 5.26143 35.1637 5.24286C35.0626 4.90191 35.0075 4.44714 35.0075 3.96238C35.0075 3.93238 35.008 3.90286 35.0089 3.87334C35.1063 4.00857 35.1975 4.16286 35.2696 4.33429C35.3243 4.46381 35.3722 4.59334 35.4126 4.7181V4.71857ZM34.9909 5.3181C34.903 5.19 34.8114 5.03286 34.7221 4.84857C34.6898 4.78238 34.6575 4.71286 34.6262 4.63905C34.6224 4.63 34.6186 4.62096 34.6148 4.61191C34.4049 4.11477 34.4091 3.60286 34.4305 3.34191C34.4319 3.32239 34.4457 3.31429 34.4519 3.31191C34.458 3.30953 34.4732 3.30524 34.4884 3.31762C34.591 3.40191 34.7373 3.53524 34.8835 3.71096C34.8769 3.79334 34.8731 3.87715 34.8731 3.96238C34.8731 4.44572 34.9315 4.94476 35.0445 5.31143C35.0265 5.31333 35.0084 5.31524 34.9909 5.3181ZM34.6594 5.38095C34.5449 5.40905 34.4357 5.44286 34.3331 5.48143C34.3289 5.45143 34.3217 5.42143 34.3122 5.39191C34.2695 5.25619 34.1835 5.14286 34.071 5.07238C34.0083 5.03286 33.9413 5.00952 33.8739 5.0019C33.8236 4.70857 33.8943 4.44905 34.0553 4.3981C34.0743 4.39191 34.0938 4.38905 34.1142 4.38905C34.2467 4.38905 34.3982 4.51476 34.5093 4.70762V4.70809C34.5435 4.76619 34.5725 4.83048 34.5967 4.89857L34.5972 4.89952C34.6015 4.91238 34.6062 4.92524 34.6105 4.93905C34.6599 5.09524 34.6751 5.25095 34.6594 5.38095ZM34.1389 5.56429C34.043 5.46286 33.9632 5.32191 33.9129 5.16095C33.911 5.15619 33.9095 5.15095 33.9081 5.14619C33.9394 5.15428 33.9703 5.16809 33.9998 5.18667C34.0852 5.24048 34.1508 5.32762 34.184 5.43286C34.1945 5.46667 34.2016 5.50048 34.2044 5.53381C34.1821 5.54381 34.1608 5.55381 34.1389 5.56429ZM33.6972 5.85667C33.6312 5.80428 33.5771 5.72762 33.5477 5.63524C33.4802 5.42238 33.5681 5.20381 33.7438 5.1481C33.7514 5.14572 33.759 5.14333 33.7666 5.14143C33.7718 5.1619 33.778 5.1819 33.7842 5.2019C33.8369 5.36714 33.9171 5.51524 34.0154 5.62809C33.8939 5.69619 33.787 5.77286 33.6972 5.85667ZM35.442 2.32858C35.4544 2.3062 35.4748 2.30382 35.4829 2.30382C35.4914 2.30382 35.5118 2.3062 35.5237 2.32858C35.6633 2.58953 35.8846 3.08143 35.9435 3.66857C35.8068 3.83857 35.6728 4.04429 35.5726 4.28143C35.5403 4.35762 35.5104 4.43381 35.4829 4.50953C35.4558 4.43381 35.4259 4.35762 35.3936 4.28143C35.2934 4.04429 35.1595 3.83905 35.0227 3.66857C35.0816 3.08143 35.3024 2.58953 35.442 2.32858ZM35.3281 2.01143C35.3281 1.92572 35.3974 1.85572 35.4829 1.85572C35.5684 1.85572 35.6382 1.92572 35.6382 2.01143C35.6382 2.09667 35.5684 2.16667 35.4829 2.16667C35.3974 2.16667 35.3281 2.09667 35.3281 2.01143ZM37.364 5.95476C37.4461 5.88667 37.5131 5.79095 37.5492 5.67619C37.6389 5.39238 37.5121 5.09762 37.2656 5.01952C37.2538 5.01572 37.2424 5.01286 37.2305 5.01C37.2732 4.74619 37.2272 4.51 37.1104 4.37476C37.1868 4.34762 37.2419 4.27429 37.2419 4.1881C37.2419 4.07858 37.1536 3.98953 37.0443 3.98953C36.9351 3.98953 36.8468 4.07858 36.8468 4.1881C36.8468 4.21096 36.8506 4.23333 36.8582 4.25429C36.7656 4.25286 36.6701 4.29 36.5808 4.35762C36.6943 3.94096 36.6877 3.55048 36.6696 3.33096C36.6644 3.26762 36.625 3.21286 36.5666 3.1881C36.5082 3.16286 36.4412 3.17286 36.3923 3.21334C36.3045 3.28572 36.1862 3.39191 36.0623 3.52905C35.9844 2.97524 35.7768 2.5162 35.642 2.26477C35.6405 2.26191 35.6391 2.25905 35.6372 2.25667C35.7184 2.20524 35.7726 2.11429 35.7726 2.01143C35.7726 1.85096 35.6429 1.72096 35.4829 1.72096C35.3233 1.72096 35.1932 1.85096 35.1932 2.01143C35.1932 2.11429 35.2473 2.20477 35.3285 2.25667C35.3266 2.25905 35.3257 2.26191 35.3238 2.26477C35.1894 2.5162 34.9819 2.97524 34.904 3.52905C34.78 3.39191 34.6618 3.28572 34.5739 3.21334C34.5245 3.17286 34.458 3.16286 34.3996 3.1881C34.3412 3.21286 34.3013 3.26762 34.2966 3.33096C34.2909 3.40001 34.2861 3.48572 34.2861 3.58381C34.2861 3.7981 34.3075 4.07048 34.3849 4.35571C34.2837 4.28 34.1755 4.24333 34.0719 4.25667C34.08 4.23524 34.0843 4.21239 34.0843 4.1881C34.0843 4.07858 33.9955 3.98953 33.8863 3.98953C33.777 3.98953 33.6887 4.07858 33.6887 4.1881C33.6887 4.28572 33.7585 4.36619 33.8511 4.38286C33.739 4.52 33.6958 4.75143 33.7381 5.01C33.7262 5.01238 33.7148 5.01572 33.7029 5.01952C33.5101 5.08048 33.3905 5.27428 33.3905 5.49143C33.3905 5.5519 33.4 5.61429 33.4194 5.67619C33.4555 5.79 33.5211 5.88524 33.6032 5.95333C33.4636 6.11428 33.3848 6.29619 33.3848 6.48904V6.49048C33.3848 6.5281 33.4342 6.54143 33.4536 6.50905C33.6901 6.11952 34.5093 5.90571 35.4829 5.90571C36.4574 5.90571 37.2761 6.11952 37.5131 6.50952C37.5316 6.54143 37.5815 6.52762 37.5815 6.49048V6.48904C37.5815 6.29714 37.5031 6.11572 37.364 5.95476Z" fill="#E93779"/>
<path d="M50.733 15.2955C50.7358 16.5171 49.4616 20.3321 49.143 20.8359C49.143 20.8359 49.1184 20.6768 49.0749 20.4005L49.0743 20.396C48.9603 19.6695 48.7194 18.1415 48.4629 16.5666C48.3763 16.3687 48.1002 15.9383 47.2726 15.6817C47.1669 15.6485 47.0077 15.5877 46.8098 15.5048C45.3825 14.9087 41.9272 13.1925 41.6393 12.8651C41.3113 12.4926 38.5265 7.34165 38.4276 7.35017C38.3282 7.35875 36.9869 7.28971 36.6482 7.18542C36.3096 7.0813 36.0726 6.17524 36.0726 6.17524C36.0726 6.17524 37.9498 6.34655 37.9582 6.26854C37.9828 6.02103 37.1423 6.08328 37.1177 5.88525C37.0931 5.68715 37.0931 5.63185 37.0931 5.63185C37.0931 5.63185 38.1868 5.7238 38.3349 5.82271C38.483 5.92184 42.9985 11.5965 43.1712 11.6327C43.298 11.6592 46.2281 12.5969 47.9147 13.3108C47.7493 12.3762 47.6213 11.7348 47.5811 11.7159C47.5811 11.7159 46.8048 11.6153 46.574 11.4701C46.379 11.3474 46.1906 9.81206 46.1906 9.47118C46.1906 9.20052 46.2756 8.64408 46.3348 8.42553C46.3896 8.59034 46.522 8.7441 46.7288 8.8745C47.2904 9.22681 48.7949 10.0321 48.7451 10.7145C48.6317 12.2773 48.9905 12.8854 49.7963 13.3636C49.9852 13.476 50.2211 13.5509 50.467 13.5812C50.6268 14.1896 50.7319 14.7834 50.733 15.2955Z" fill="#FDBB6F"/>
<path d="M46.3346 8.42224C46.3901 8.58715 46.5215 8.76324 46.7289 8.89372C47.2903 9.24613 48.7949 10.0288 48.7456 10.7112C48.6318 12.274 48.9904 12.8822 49.7959 13.3603C49.9851 13.4727 50.2208 13.5475 50.4667 13.578C51.1606 13.6649 51.9334 13.3981 51.9543 12.6216C51.9826 11.5704 50.7329 11.2011 50.7329 11.2011C50.7329 11.2011 51.0269 10.5376 51.1572 9.70954C51.1629 9.6741 51.168 9.6382 51.1725 9.60213C51.3 8.67622 51.2048 7.5766 50.2792 6.9676C49.4566 6.42671 47.9537 6.85864 47.1379 7.28133C47.0756 7.31319 47.0178 7.34529 46.9651 7.37653C46.8711 7.43197 46.7912 7.48576 46.7289 7.53575C46.3703 7.82301 46.2394 8.13913 46.3346 8.42224Z" fill="#E59900"/>
<path d="M48.7164 10.7849C48.7164 10.9964 48.8878 11.168 49.0992 11.168C49.3107 11.168 49.4821 10.9964 49.4821 10.7849C49.4821 10.5734 49.3107 10.4018 49.0992 10.4018C48.8878 10.4018 48.7164 10.5734 48.7164 10.7849Z" fill="white"/>
<path d="M59.528 43.9895C56.6313 44.7284 56.4043 46.1204 55.8359 47.8537C55.2681 49.5867 53.8201 49.6435 52.2583 49.7003C50.6964 49.7571 50.157 50.424 49.1063 51.3047C48.055 52.1855 44.4208 51.5756 44.4208 51.5756C44.4208 51.5756 45.6701 48.1378 46.2775 44.9838C46.8849 41.8303 46.6441 30.3859 46.6233 28.3911C46.5982 26.0255 46.2775 20.1101 46.2775 20.1101C46.2775 20.1101 45.4312 18.4524 45.4482 17.8009C45.4677 17.0362 46.3177 16.156 47.1037 15.5025C47.3018 15.5854 47.4608 15.6462 47.5665 15.6794C48.3939 15.936 48.6699 16.3664 48.7567 16.5643C49.0132 18.1392 49.2541 19.6671 49.3679 20.3938L49.3685 20.3982C49.3974 20.6082 49.415 20.76 49.4188 20.8336C49.4471 21.4302 51.9175 23.7885 52.4287 26.4876C52.8814 28.8776 50.8668 38.7334 50.8668 38.7334C50.8668 38.7334 51.8037 38.2786 52.5135 38.0797C53.2234 37.8809 54.7004 37.9945 56.7734 37.9945C58.8464 37.9945 60.6069 37.2275 60.6069 37.2275C60.6069 37.2275 62.4247 43.251 59.528 43.9895Z" fill="#E17E75"/>
<path d="M60.5074 37.231C60.5074 37.231 60.5093 37.2343 60.5151 37.24C60.5461 37.2724 60.6891 37.3837 61.1963 37.3858C61.2678 37.3863 61.3471 37.3844 61.4341 37.3799C61.581 37.3721 61.7363 37.3704 61.8884 37.3768C62.0212 37.3733 62.161 37.3695 62.308 37.3674C63.1818 37.3548 63.2508 38.2815 63.2508 38.2815C63.2508 38.2815 64.1414 39.0088 64.2568 38.9453C64.3721 38.8814 64.6061 38.6844 64.6061 38.6844L63.2933 36.5603C63.2933 36.5603 62.4014 36.4907 61.8098 36.3238L62.7082 35.6126L62.4942 35.2665L61.1763 36.0051L61.1061 36.0447C61.0983 36.0501 61.0906 36.0558 61.0835 36.0615C60.7323 36.3363 60.5074 37.231 60.5074 37.231Z" fill="#E17E75"/>
<path d="M60.3456 37.6003L60.6109 38.6797C60.6109 38.6797 61.3818 38.3675 61.9779 38.2822C62.5746 38.1969 63.3469 38.1828 63.3469 38.1828C63.3469 38.1828 63.2782 37.2562 62.4041 37.2687C62.2572 37.2708 62.1172 37.2746 61.9849 37.2782C61.7241 37.2851 61.4925 37.2921 61.2921 37.2872C60.7851 37.285 60.642 37.1737 60.6109 37.1413L60.3456 37.6003Z" fill="#FDBB6F"/>
<path d="M37.0175 22.1836H33.4386C32.667 21.1017 32.0446 19.933 31.5534 18.8351C31.6751 19.2337 31.9229 19.983 32.1543 20.6717C31.9229 19.9827 31.6751 19.2337 31.553 18.8351C31.5144 18.7088 31.4887 18.618 31.48 18.575C31.4607 18.4802 31.441 18.3809 31.4272 18.2788C31.3969 18.0605 31.3905 17.8309 31.4625 17.6169C31.4837 17.5537 31.5117 17.4919 31.5479 17.4321V17.4319C31.5856 17.369 31.6324 17.3079 31.6907 17.2502C31.8031 17.1373 31.9509 17.0176 32.1244 16.9209C32.3324 16.8046 32.578 16.7215 32.8465 16.7215C33.3872 16.7215 34.2442 17.1835 34.6366 17.4134C34.7137 17.4586 34.773 17.4948 34.8083 17.5166C35.0025 17.3967 35.9099 16.8502 36.5608 16.7406C36.5975 16.8288 36.6242 16.9218 36.6398 17.0211C36.6265 16.9232 36.6031 16.8293 36.5718 16.7389C36.6416 16.7277 36.7082 16.7215 36.7706 16.7215C37.0391 16.7215 37.2847 16.8046 37.4926 16.9209C37.6661 17.0176 37.8135 17.1373 37.9264 17.2502C37.9842 17.3079 38.0315 17.369 38.0691 17.4319V17.4321C38.228 17.695 38.2293 17.9962 38.1899 18.2788C38.1756 18.3809 38.1559 18.4802 38.1366 18.575C38.0691 18.9067 37.0231 22.1653 37.0175 22.1836ZM32.9585 22.1836H32.6647C32.6624 22.1764 32.4884 21.666 32.2745 21.0301C32.4843 21.4193 32.7115 21.8059 32.9585 22.1836Z" fill="#E93779"/>
<path d="M36.5716 16.7393C35.9197 16.8446 35.0034 17.3965 34.8086 17.5169C34.5926 17.3832 33.4936 16.7219 32.8466 16.7219C32.5782 16.7219 32.3326 16.805 32.1247 16.9212C31.951 17.0179 31.8033 17.1376 31.6906 17.2505C31.6327 17.3083 31.5855 17.3693 31.5478 17.4322V17.4324C31.5114 17.4923 31.4836 17.554 31.463 17.6172C31.3687 17.5796 31.1976 17.5108 30.97 17.4169H30.9696C30.8986 17.3876 30.8219 17.3557 30.7406 17.3216C29.0476 16.6148 25.2387 14.9278 24.8445 13.9013C24.3389 12.5837 24.0458 7.81709 23.8815 7.44868C23.7162 7.08027 23.7872 4.27499 24.2343 4.20141C24.4606 4.16438 24.554 4.60591 24.6191 5.04791C24.6819 5.47819 24.7179 5.90847 24.8225 5.89629C25.0339 5.87191 25.0986 5.31883 25.2633 5.2204C25.4281 5.12244 25.5165 5.15947 25.5165 5.15947C25.5165 5.15947 25.3406 5.96191 25.3168 6.36266C25.2984 6.66077 24.9163 7.1487 24.9163 7.1487C24.9163 7.1487 26.2043 12.7801 26.4692 12.8953C27.1674 13.1998 28.5228 14.0879 30.0259 14.373L30.0308 14.3737C30.3428 14.4327 30.662 14.4658 30.983 14.4619C31.3341 14.3396 31.7436 14.2896 32.135 14.2263H32.1355C32.2953 14.2005 32.4529 14.1722 32.6015 14.1361C32.6231 14.131 32.6442 14.1256 32.6653 14.12C32.6742 14.1178 32.6828 14.1153 32.6917 14.1129C32.7164 14.1062 32.7407 14.099 32.7649 14.0917C32.7735 14.0892 32.7824 14.0866 32.791 14.0837C32.8202 14.0746 32.8489 14.0649 32.8772 14.0547C32.909 14.0431 32.9405 14.0311 32.971 14.0181C33.2161 13.9149 33.4168 13.7649 33.5371 13.5295C33.5461 13.5126 33.5542 13.4914 33.5618 13.4664C33.5632 13.4609 33.565 13.455 33.5668 13.4493C33.569 13.4414 33.5708 13.4332 33.573 13.4249C33.5753 13.4173 33.5766 13.4096 33.5789 13.4015C33.5852 13.3717 33.5919 13.3387 33.5973 13.303C33.5982 13.2981 33.5991 13.293 33.5995 13.2879C33.6004 13.2827 33.6013 13.2776 33.6018 13.2723C33.6027 13.2671 33.6036 13.2618 33.6045 13.2565C33.6054 13.25 33.6063 13.2435 33.6072 13.237C33.6085 13.2272 33.6094 13.2172 33.6108 13.2072C33.6117 13.2025 33.6121 13.1978 33.6126 13.1931C33.6152 13.1717 33.6179 13.1497 33.6197 13.1269C33.6202 13.1236 33.6206 13.1202 33.6211 13.1169C33.6238 13.0899 33.626 13.062 33.6283 13.0337C33.6287 13.0308 33.6292 13.0277 33.6292 13.0248C33.6296 13.019 33.6301 13.0132 33.6305 13.0077C33.631 12.9998 33.6319 12.9918 33.6323 12.984C33.6346 12.953 33.6368 12.9214 33.6386 12.8893C33.6435 12.7979 33.6471 12.7027 33.6489 12.6073C33.6494 12.5977 33.6494 12.5879 33.6494 12.5783C33.6494 12.5741 33.6498 12.5698 33.6498 12.5656C33.6503 12.5355 33.6503 12.5052 33.6503 12.4754C33.6503 12.4537 33.6503 12.4323 33.6503 12.4109C33.4774 12.1254 33.3571 11.7928 33.2812 11.5082C33.2094 11.2401 33.1766 11.0147 33.1766 10.9092V9.93523C33.1766 9.89351 33.1789 9.85227 33.1834 9.81196C33.2341 9.34371 33.5712 9.00295 34.0072 8.84874C34.0772 8.82437 34.2272 8.82671 34.2272 8.82671C36.5272 8.77047 34.3066 10.4279 35.3011 11.4684C35.464 11.6381 35.5579 11.7792 35.6041 11.9118C35.6225 11.9651 35.6333 12.0173 35.6378 12.0694C35.6382 12.0788 35.6391 12.0881 35.6396 12.0975C35.64 12.1069 35.64 12.1165 35.64 12.1258C35.64 12.5645 35.2288 13.048 35.1843 14.3886C35.1839 14.4002 35.1839 14.4118 35.1839 14.4232C35.1839 14.4367 35.1839 14.4502 35.1848 14.4635C35.1848 14.4769 35.1857 14.49 35.187 14.5032C35.1875 14.5124 35.1884 14.5213 35.1893 14.5302C35.1897 14.5333 35.1897 14.5364 35.1902 14.5393C35.1906 14.5444 35.1915 14.5495 35.1924 14.5547C35.1933 14.5638 35.1947 14.5727 35.196 14.5817C35.1978 14.5928 35.1996 14.6035 35.2014 14.6144C35.2068 14.6436 35.2135 14.6724 35.2212 14.7009C35.2239 14.7114 35.227 14.7219 35.2301 14.7324C35.2405 14.7656 35.2517 14.7986 35.2643 14.8311C35.2665 14.8367 35.2687 14.8422 35.271 14.8478C35.275 14.8571 35.2786 14.8663 35.2827 14.8752C35.2849 14.8802 35.2872 14.8853 35.2894 14.8901C35.2925 14.8973 35.2957 14.9042 35.2988 14.9113C35.302 14.9182 35.3056 14.9254 35.3087 14.9323C35.3572 15.0313 35.4165 15.1274 35.4833 15.2219C35.4874 15.2272 35.4914 15.2328 35.4955 15.2381C35.5004 15.2449 35.5049 15.2515 35.5098 15.2583C35.5193 15.2714 35.5296 15.2848 35.539 15.298C35.5444 15.3045 35.5493 15.3114 35.5543 15.3177C35.5691 15.3376 35.5848 15.3574 35.601 15.3773C35.6216 15.4036 35.6432 15.4299 35.6647 15.4562C35.6701 15.4625 35.6755 15.4691 35.6809 15.4757C35.6917 15.4888 35.7029 15.5022 35.7141 15.5151C35.7253 15.5283 35.7366 15.5414 35.7473 15.5545C35.7581 15.5667 35.7684 15.5787 35.7788 15.5909C35.7855 15.5984 35.7918 15.606 35.7985 15.6135C35.8151 15.633 35.8317 15.6522 35.8484 15.6714C35.8717 15.698 35.895 15.725 35.9184 15.752C35.9413 15.7785 35.9642 15.805 35.9871 15.8317C35.9902 15.8355 35.9938 15.8395 35.997 15.8435C36.005 15.8529 36.0131 15.8623 36.0212 15.8717C36.0329 15.8853 36.0445 15.8989 36.0558 15.9125C36.0751 15.9358 36.0944 15.9588 36.1132 15.9823C36.1227 15.9937 36.1325 16.0055 36.1415 16.0172C36.1514 16.0287 36.1608 16.0407 36.1698 16.0524C36.1887 16.0761 36.2071 16.0999 36.2246 16.1238C36.2389 16.1426 36.2529 16.1616 36.2668 16.1803C36.2722 16.1874 36.2771 16.1944 36.282 16.2015C36.2924 16.2158 36.3022 16.2299 36.3121 16.2445C36.318 16.2527 36.3238 16.2609 36.3292 16.2693C36.3458 16.2942 36.362 16.3188 36.3777 16.344C36.3857 16.3564 36.3934 16.3693 36.401 16.3817C36.4086 16.3942 36.4158 16.4066 36.4235 16.4193V16.4198C36.4306 16.4322 36.4378 16.4446 36.445 16.4573C36.4464 16.4597 36.4477 16.4623 36.4491 16.4646C36.4549 16.4756 36.4607 16.4862 36.4661 16.4972C36.4728 16.5104 36.48 16.5233 36.4863 16.5365C36.4993 16.5627 36.5115 16.5895 36.5236 16.6162C36.5294 16.6296 36.5352 16.6432 36.5406 16.6569C36.546 16.6705 36.5514 16.6839 36.5563 16.6977C36.5617 16.7113 36.5667 16.7252 36.5716 16.7393Z" fill="#F5B872"/>
<path d="M38.2628 21.9718C35.6566 22.8205 36.0846 19.5397 36.5745 17.7005C36.5815 17.6756 36.5881 17.6507 36.5946 17.6266C36.6866 17.2904 36.6627 16.9993 36.5716 16.7364C36.567 16.7226 36.5618 16.7087 36.5566 16.6949C36.5515 16.6811 36.5458 16.6677 36.5402 16.6541C36.535 16.6404 36.5294 16.6268 36.5233 16.6134C36.5116 16.5866 36.4994 16.5599 36.4862 16.5336C36.4797 16.5205 36.4726 16.5076 36.4661 16.4944C36.4604 16.4834 36.4543 16.4728 36.4487 16.4618C36.4473 16.4594 36.4459 16.4569 36.4445 16.4545C36.4379 16.4421 36.4309 16.4294 36.4234 16.4169V16.4165C36.4159 16.4038 36.4083 16.3914 36.4008 16.3789C36.3933 16.3662 36.3858 16.3536 36.3778 16.3411C36.3619 16.316 36.3459 16.2914 36.329 16.2665C36.3234 16.258 36.3178 16.2498 36.3122 16.2416C36.3023 16.2271 36.2924 16.213 36.2821 16.1986C36.277 16.1916 36.2718 16.1846 36.2666 16.1775C36.253 16.1587 36.239 16.1397 36.2244 16.1209C36.2066 16.097 36.1883 16.0733 36.1695 16.0496C36.1601 16.0379 36.1512 16.0261 36.1413 16.0144C36.1324 16.0026 36.1226 15.9909 36.1132 15.9794C36.094 15.956 36.0752 15.9329 36.0555 15.9097C36.0442 15.8961 36.0325 15.8825 36.0212 15.8688C36.0132 15.8594 36.0053 15.8501 35.9968 15.8407C35.994 15.8367 35.9903 15.8327 35.987 15.8289C35.964 15.8022 35.9415 15.7757 35.918 15.7491C35.895 15.7221 35.8715 15.6951 35.8485 15.6686C35.8317 15.6494 35.8148 15.6301 35.7979 15.6106C35.7918 15.6031 35.7852 15.5956 35.7786 15.5881C35.7683 15.5759 35.758 15.5639 35.7472 15.5517C35.7364 15.5386 35.7251 15.5254 35.7139 15.5125C35.7031 15.4994 35.6918 15.486 35.681 15.4729C35.6754 15.4665 35.6702 15.4597 35.6646 15.4534C35.643 15.4271 35.6214 15.4008 35.6008 15.3745C35.5853 15.3546 35.5693 15.3348 35.5543 15.3149C35.5492 15.3086 35.544 15.3017 35.5388 15.2951C35.5295 15.282 35.5191 15.2686 35.5098 15.2555C35.5046 15.2487 35.4999 15.2421 35.4952 15.2353C35.4915 15.23 35.4872 15.2244 35.4835 15.219C35.4164 15.1245 35.3568 15.0284 35.3089 14.9295C35.3056 14.9226 35.3019 14.9155 35.2991 14.9086C35.2958 14.9014 35.2925 14.8945 35.2892 14.8873C35.2869 14.8824 35.2845 14.8773 35.2826 14.8724C35.2789 14.8635 35.2747 14.8544 35.2709 14.845C35.2686 14.8394 35.2667 14.8338 35.2643 14.8283C35.2517 14.7957 35.2404 14.7628 35.2301 14.7295C35.2268 14.7191 35.224 14.7086 35.2212 14.6981C35.2137 14.6696 35.2066 14.6408 35.2015 14.6116C35.1991 14.6007 35.1977 14.59 35.1958 14.5789C35.1944 14.5699 35.193 14.561 35.1921 14.5519C35.1911 14.5468 35.1907 14.5416 35.1902 14.5365C35.1897 14.5336 35.1893 14.5305 35.1893 14.5273C35.1883 14.5184 35.1874 14.5095 35.1869 14.5004C35.1855 14.4872 35.185 14.4741 35.1846 14.4607C35.1836 14.4473 35.1836 14.4339 35.1836 14.4203C35.1836 14.409 35.1836 14.3974 35.1841 14.3858C35.2287 13.0452 35.6397 12.5617 35.6397 12.123C35.6397 12.1136 35.6397 12.104 35.6393 12.0947C35.6388 12.0853 35.6383 12.076 35.6374 12.0666C35.6332 12.0144 35.6224 11.9623 35.6036 11.909C35.5576 11.7761 35.4638 11.6355 35.3009 11.4654C34.3066 10.4251 36.5271 8.76724 34.2268 8.82407C34.2268 8.82407 34.0767 8.82162 34.0072 8.84611C33.5708 8.99994 33.2339 9.34091 33.1833 9.80935C33.179 9.84947 33.1767 9.89048 33.1767 9.93241V10.9063C33.1767 11.0118 33.2091 11.2376 33.2809 11.5053C33.3569 11.79 33.4775 12.1226 33.6502 12.4081C33.6502 12.4295 33.6502 12.4509 33.6502 12.4725C33.6502 12.5024 33.6501 12.5327 33.6497 12.5628C33.6497 12.567 33.6492 12.5713 33.6492 12.5755C33.6492 12.5851 33.6492 12.5949 33.6487 12.6045C33.6469 12.6999 33.6436 12.7951 33.6384 12.8865C33.6365 12.9186 33.6347 12.9502 33.6323 12.9812C33.6319 12.989 33.6309 12.997 33.6304 13.0048C33.63 13.0104 33.6295 13.0162 33.629 13.022C33.629 13.0249 33.6286 13.028 33.6286 13.0309C33.6262 13.0592 33.6234 13.0871 33.6211 13.1141C33.6206 13.1174 33.6201 13.1208 33.6197 13.1241C33.6178 13.1466 33.615 13.1687 33.6126 13.1903C33.6121 13.195 33.6117 13.1996 33.6107 13.2043C33.6093 13.2144 33.6084 13.2244 33.607 13.2342C33.606 13.2407 33.6051 13.2472 33.6042 13.2536C33.6037 13.259 33.6028 13.2643 33.6018 13.2695C33.6014 13.2748 33.6009 13.2799 33.5995 13.285C33.599 13.2902 33.5981 13.2953 33.5971 13.3002C33.5915 13.3358 33.5854 13.3688 33.5788 13.3987C33.5765 13.4068 33.5751 13.4146 33.5732 13.4221C33.5708 13.4304 33.569 13.4386 33.5666 13.4464C33.5648 13.4522 33.5633 13.458 33.5619 13.4636C33.554 13.4885 33.546 13.5097 33.5371 13.5267C33.4165 13.762 33.2161 13.9121 32.9707 14.0153C32.9402 14.0283 32.9092 14.0403 32.8768 14.0519C32.8487 14.0621 32.8201 14.0717 32.791 14.0808C32.7821 14.0838 32.7736 14.0864 32.7647 14.0889C32.7403 14.0963 32.7164 14.1034 32.6915 14.1101C32.6826 14.1125 32.6741 14.115 32.6647 14.1172C32.6441 14.1228 32.623 14.1281 32.6014 14.1332C32.4526 14.1693 32.2955 14.1977 32.135 14.2235C32.2382 14.0231 32.5404 13.3127 32.1589 12.4386C31.4053 10.7128 31.4269 9.36687 32.1331 8.39541C32.7408 7.56013 33.812 7.64635 34.1002 7.68702C34.4286 7.09326 35.0917 6.57299 36.4285 6.97422C38.7269 7.66301 37.1235 9.80558 37.3539 11.3033C37.505 12.2839 38.8353 12.9404 38.6724 14.3227C38.6612 14.4167 38.6476 14.5091 38.6316 14.5998C38.4655 15.5477 38.0756 16.3238 38.2558 17.0468C38.3069 17.251 38.4036 17.4512 38.5631 17.6496C39.6832 19.0382 39.8784 21.4452 38.2628 21.9718Z" fill="#10215F"/>
<path d="M33.2643 13.1094H32.9349C32.8821 13.1094 32.8418 13.0426 32.8503 12.9687L33.0247 11.4477C33.0272 11.4235 33.0341 11.4038 33.0427 11.3886C32.9779 11.3639 32.9311 11.2981 32.9311 11.221C32.9311 11.1224 33.0066 11.0431 33.0994 11.0431C33.1926 11.0431 33.2681 11.1224 33.2681 11.221C33.2681 11.2922 33.2282 11.3536 33.1707 11.3819C33.1827 11.3989 33.1908 11.4213 33.1939 11.45L33.3493 12.9709C33.3566 13.044 33.3167 13.1094 33.2643 13.1094Z" fill="white"/>
<path d="M39.7113 52.7539C38.5959 52.7539 38.1686 51.7096 37.2777 51.7096C36.3558 51.7096 35.8592 52.672 34.7496 52.746C34.7088 52.7487 34.6686 52.7502 34.6288 52.7502C33.6041 52.7502 33.1288 51.8551 32.1991 51.7837C32.1482 51.7797 32.0987 51.7779 32.0492 51.7779C31.1666 51.7779 30.5521 52.376 29.4774 52.376C28.3426 52.376 27.137 51.4138 27.137 51.4138C27.137 51.4138 27.8712 51.1558 28.7854 50.4683C29.5153 49.9192 30.3606 49.0961 31.0371 47.9118C31.3417 47.3785 31.6128 46.7721 31.8237 46.0844C31.96 45.6391 32.041 45.0696 32.0793 44.4041C32.0924 44.1687 32.1006 43.9213 32.104 43.6633C32.1171 42.6375 32.0551 41.4422 31.9518 40.1557C31.9353 39.9503 31.9178 39.743 31.8994 39.5333C31.8005 38.4055 31.6753 37.2196 31.5473 36.0252C31.5143 35.718 31.4809 35.41 31.4479 35.1022C31.4105 34.756 31.3732 34.4098 31.3368 34.0654C31.3038 33.7499 31.2709 33.4363 31.2393 33.1244C31.1908 32.6486 31.1448 32.1779 31.1026 31.7157C31.0909 31.5873 31.0793 31.4589 31.0686 31.3317C30.8625 28.9759 30.7704 26.8717 30.9935 25.4706C31.3009 23.5392 32.4508 22.3274 32.5842 22.1723H32.606H32.8994C33.1094 22.4941 33.3339 22.8096 33.5725 23.1148C34.9091 24.8234 38.4533 28.2919 38.4533 28.2919C38.4533 28.2919 38.4659 28.2576 38.4868 28.1949C38.4213 30.6636 38.2554 33.5556 38.2554 33.5556C38.2394 33.8551 38.203 34.5133 38.1555 35.3802C38.1468 35.5424 38.1376 35.7128 38.1279 35.8886C38.1255 35.9339 38.123 35.9792 38.1201 36.0252C38.0643 37.0569 37.9974 38.289 37.9319 39.5333C37.9213 39.7404 37.9101 39.9486 37.8995 40.1557C37.8345 41.4096 37.7729 42.6434 37.7273 43.6633C37.7152 43.9255 37.7045 44.1734 37.6948 44.4041C37.6594 45.2626 37.641 45.8797 37.6502 46.0844C37.6793 46.7254 37.8951 47.3397 38.22 47.9118C38.7147 48.7819 39.4615 49.5538 40.1871 50.1704C41.3112 51.1265 42.3835 51.7096 42.3835 51.7096C42.3835 51.7096 41.0363 52.672 39.8306 52.7499C39.7899 52.7527 39.7501 52.7539 39.7113 52.7539ZM38.4945 27.8625C38.0134 27.3705 34.5769 23.8429 33.4009 22.2021C33.3941 22.192 33.3868 22.1822 33.38 22.1723H36.9586H36.9669C37.1002 22.3274 38.3927 23.5152 38.4921 25.4706C38.5212 26.0449 38.5168 26.9095 38.4945 27.8625Z" fill="#E93779"/>
<path d="M38.6143 28.6523C38.6143 28.6523 34.5046 24.482 33.165 22.6184C30.5513 18.9814 29.5462 14.3936 29.5208 14.2765L29.5203 14.2742C30.7709 13.7912 31.7628 14.1682 31.7628 14.1682C31.7628 14.1682 33.1655 17.9021 34.5921 20.1633C35.2323 21.1777 38.5801 25.4692 38.5801 25.4692C38.6295 25.7399 38.6598 26.0337 38.6774 26.33C38.7444 27.4742 38.6143 28.6523 38.6143 28.6523Z" fill="white"/>
<path d="M42.9694 20.5355C42.9694 21.5646 38.6639 24.3624 38.2885 24.3786C37.9126 24.3948 37.7324 23.6986 37.3721 23.6986C37.1915 23.6986 36.3537 23.7293 36.3215 23.6495C36.2356 23.4394 36.9366 22.9551 37.357 22.923C37.7778 22.8906 38.2431 23.3596 38.3031 23.311C38.3632 23.2624 41.1264 20.5573 41.0073 20.309L38.2562 17.0478C38.0756 16.3248 38.4657 15.5488 38.6317 14.6008C39.6183 15.8537 42.9694 19.3475 42.9694 20.5355Z" fill="#F5B872"/>
<path d="M65.5023 48.3012L64.3506 26.6671L85.2702 5.92396C85.8049 6.01338 86.3358 6.0983 86.8613 6.17874L65.5023 48.3012Z" fill="url(#paint2_linear_14322_257797)"/>
<path d="M84.7653 2.70283L84.2059 5.2987C84.3424 4.6648 85.2069 4.45315 86.1368 4.8259C87.0598 5.1961 87.6999 6.00373 87.5755 6.6357L88.1325 4.05346C88.179 3.83724 87.8713 3.509 87.3773 3.20381C87.2992 3.1554 87.2166 3.10808 87.1297 3.06143C86.9583 2.96902 86.7709 2.88165 86.5732 2.80227C86.5307 2.78495 86.4886 2.76869 86.4466 2.75339C86.3444 2.71518 86.244 2.68082 86.1466 2.65074C85.4074 2.42453 84.8233 2.43467 84.7653 2.70283Z" fill="#10215F"/>
<path d="M84.2059 5.29536C84.1771 5.42902 84.183 5.57096 84.2188 5.71503C84.3528 6.2536 84.9081 6.8245 85.6417 7.11894C86.3756 7.41349 87.0693 7.34347 87.3958 6.98917C87.4827 6.89472 87.5434 6.78061 87.5725 6.64747L87.5758 6.6324C87.7001 6.00041 87.0599 5.19279 86.1369 4.82266C85.2069 4.44955 84.3424 4.6612 84.2059 5.29536Z" fill="white"/>
<defs>
<linearGradient id="paint0_linear_14322_257797" x1="33.4183" y1="24.3518" x2="6.14281" y2="28.3277" gradientUnits="userSpaceOnUse">
<stop stop-color="white"/>
<stop offset="0.1841" stop-color="#FAFCFE"/>
<stop offset="0.3992" stop-color="#ECF1FC"/>
<stop offset="0.6297" stop-color="#D5E0F7"/>
<stop offset="0.8695" stop-color="#B4C9F2"/>
<stop offset="1" stop-color="#9FBAEE"/>
</linearGradient>
<linearGradient id="paint1_linear_14322_257797" x1="92.366" y1="56.3284" x2="5.74599" y2="40.5455" gradientUnits="userSpaceOnUse">
<stop stop-color="white"/>
<stop offset="0.564337" stop-color="#FFE4EE"/>
<stop offset="1" stop-color="#FBF2F5"/>
</linearGradient>
<linearGradient id="paint2_linear_14322_257797" x1="64.7085" y1="23.5889" x2="84.5683" y2="25.8982" gradientUnits="userSpaceOnUse">
<stop stop-color="white"/>
<stop offset="0.1841" stop-color="#FAFCFE"/>
<stop offset="0.3992" stop-color="#ECF1FC"/>
<stop offset="0.6297" stop-color="#D5E0F7"/>
<stop offset="0.8695" stop-color="#B4C9F2"/>
<stop offset="1" stop-color="#9FBAEE"/>
</linearGradient>
</defs>
</svg>
