<svg width="16" height="16" viewBox="0 0 16 16" fill="none" xmlns="http://www.w3.org/2000/svg">
<path d="M8 16C10.1218 16 12.1565 15.1571 13.6568 13.6568C15.1571 12.1566 16 10.1216 16 8C16 5.8784 15.1571 3.84348 13.6568 2.34315C12.1566 0.842892 10.1216 0 8 0C5.8784 0 3.84348 0.842892 2.34315 2.34315C0.842892 3.84341 0 5.8784 0 8C0 10.1216 0.842892 12.1565 2.34315 13.6568C3.84341 15.1571 5.8784 16 8 16ZM7.8869 2.90693C8.1436 2.90693 8.38989 3.00887 8.57141 3.19054C8.75309 3.37209 8.85502 3.61838 8.85502 3.87505C8.85502 4.13187 8.75309 4.37816 8.57154 4.55969C8.38986 4.74124 8.1437 4.8433 7.8869 4.8433C7.63011 4.8433 7.38379 4.74124 7.20226 4.55969C7.02074 4.37814 6.91866 4.13184 6.91866 3.87505C6.91866 3.61835 7.02071 3.37206 7.20226 3.19054C7.38381 3.00902 7.63011 2.90693 7.8869 2.90693H7.8869ZM6.59931 7.05933C6.49862 7.02857 6.41032 6.96645 6.34733 6.882C6.28433 6.79767 6.24986 6.69537 6.24899 6.58996C6.24886 6.46 6.30057 6.33537 6.39246 6.24348C6.48423 6.15147 6.60886 6.09988 6.73894 6.09976H8.66146C8.69605 6.09988 8.72929 6.11365 8.75372 6.13807C8.77815 6.1625 8.79191 6.19574 8.79191 6.23034V11.0535C8.79191 11.7882 9.12686 12.0459 9.4008 12.1336C9.5015 12.1645 9.58979 12.2265 9.65279 12.311C9.71578 12.3954 9.75026 12.4977 9.75113 12.603C9.75113 12.733 9.69954 12.8576 9.60765 12.9495C9.51576 13.0415 9.39113 13.0931 9.26105 13.0931H6.73897C6.60901 13.0931 6.48438 13.0415 6.39249 12.9496C6.30048 12.8577 6.24889 12.733 6.24889 12.603C6.24976 12.4977 6.28424 12.3954 6.34723 12.311C6.41023 12.2265 6.49852 12.1644 6.59922 12.1336C6.87328 12.0458 7.20824 11.7881 7.20824 11.0535V8.13932C7.20824 7.40469 6.87328 7.147 6.59935 7.05922L6.59931 7.05933Z" fill="black"/>
</svg>
