<svg width="60" height="68" viewBox="0 0 60 68" fill="none" xmlns="http://www.w3.org/2000/svg">
<path d="M4.28568 0H40.6992L60 19.0656V63.75C60 66.0981 58.0801 68 55.7143 68H4.28568C1.9199 68 0 66.0981 0 63.75V4.24996C0 1.90192 1.92012 0 4.28568 0Z" fill="#6CC0E9"/>
<path d="M59.9375 19.1252H44.9995C42.6338 19.1252 40.7139 17.2213 40.7139 14.8752V0.0426941L59.9375 19.1252Z" fill="#63AFD3"/>
<path d="M18.3855 30.1979H20.8563V37.5435C20.8563 38.504 20.767 39.2427 20.5883 39.7599C20.3482 40.4354 19.9127 40.9789 19.2817 41.3905C18.6508 41.7968 17.8188 42 16.7858 42C15.5741 42 14.6416 41.6807 13.9883 41.0422C13.335 40.3984 13.0056 39.4565 13 38.2164L15.3368 37.9631C15.3647 38.628 15.468 39.0976 15.6467 39.372C15.9147 39.7889 16.3223 39.9974 16.8695 39.9974C17.4223 39.9974 17.8132 39.8496 18.0421 39.5541C18.2711 39.2533 18.3855 38.6332 18.3855 37.6939V30.1979Z" fill="white"/>
<path d="M23.503 41.8021V30.1979H27.4815C28.9891 30.1979 29.9718 30.2559 30.4297 30.372C31.1332 30.5462 31.7223 30.9261 32.197 31.5119C32.6716 32.0923 32.9089 32.8443 32.9089 33.7678C32.9089 34.4802 32.7721 35.0792 32.4985 35.5646C32.2249 36.0501 31.8759 36.4327 31.4515 36.7124C31.0327 36.9868 30.6056 37.1689 30.1701 37.2586C29.5782 37.3694 28.7211 37.4248 27.5987 37.4248H25.9822V41.8021H23.503ZM25.9822 32.1609V35.4538H27.3391C28.3162 35.4538 28.9695 35.3931 29.299 35.2718C29.6284 35.1504 29.8853 34.9604 30.0695 34.7018C30.2594 34.4433 30.3543 34.1425 30.3543 33.7995C30.3543 33.3773 30.2231 33.029 29.9607 32.7546C29.6982 32.4802 29.366 32.3087 28.964 32.2401C28.668 32.1873 28.0734 32.1609 27.1799 32.1609H25.9822Z" fill="white"/>
<path d="M40.6563 37.5356V35.5805H46V40.2032C45.4807 40.6781 44.7269 41.0976 43.7386 41.4617C42.7558 41.8206 41.7591 42 40.7485 42C39.4642 42 38.3447 41.7467 37.3898 41.2401C36.435 40.7282 35.7175 40 35.2373 39.0554C34.7571 38.1055 34.517 37.0739 34.517 35.9604C34.517 34.752 34.785 33.6781 35.3211 32.7388C35.8571 31.7995 36.6416 31.0792 37.6746 30.5778C38.4619 30.1926 39.4419 30 40.6145 30C42.1388 30 43.3282 30.3034 44.1825 30.9103C45.0424 31.5119 45.5952 32.3456 45.8409 33.4116L43.3784 33.847C43.2053 33.277 42.8787 32.8285 42.3985 32.5013C41.9239 32.1689 41.3292 32.0026 40.6145 32.0026C39.5312 32.0026 38.6685 32.3272 38.0264 32.9763C37.3898 33.6253 37.0716 34.5884 37.0716 35.8654C37.0716 37.2427 37.3954 38.277 38.0431 38.9683C38.6909 39.6544 39.5396 39.9974 40.5893 39.9974C41.1086 39.9974 41.6279 39.9024 42.1472 39.7124C42.6721 39.5172 43.1216 39.2823 43.4957 39.0079V37.5356H40.6563Z" fill="white"/>
</svg>
