<svg width="60" height="60" viewBox="0 0 60 60" fill="none" xmlns="http://www.w3.org/2000/svg">
<circle cx="30" cy="30" r="30" fill="#E6427A"/>
<path d="M41.8137 18.1866C38.8974 15.2711 34.1696 15.2711 31.2541 18.1866L27.0877 22.3513C27.4175 22.3153 27.7508 22.2999 28.0857 22.2999C29.14 22.2999 30.1654 22.4675 31.1361 22.7904L33.4971 20.4304C34.3081 19.6187 35.3864 19.1726 36.5331 19.1726C37.68 19.1726 38.7583 19.6187 39.569 20.4304C40.38 21.2403 40.8259 22.3171 40.8259 23.4654C40.8259 24.6121 40.38 25.6904 39.569 26.5003L34.9499 31.1195C34.1389 31.9316 33.0606 32.3775 31.9139 32.3775C30.7654 32.3775 29.6889 31.9316 28.8772 31.1199C28.4824 30.7267 28.1748 30.2688 27.9629 29.7697C27.4366 29.7988 26.9444 30.0176 26.5684 30.3934L25.3379 31.6254C25.6746 32.2491 26.1068 32.8369 26.6332 33.3653C29.5487 36.2809 34.2773 36.2809 37.1933 33.3653L41.8132 28.7443C44.7279 25.8291 44.7279 21.1023 41.8134 18.1868L41.8137 18.1866Z" fill="white"/>
<path d="M31.9636 37.697C30.9075 37.697 29.872 37.5261 28.879 37.1894L26.5018 39.5666C25.6919 40.3783 24.6135 40.8244 23.4669 40.8244C22.3201 40.8244 21.2436 40.3785 20.4319 39.5666C19.6202 38.7564 19.1741 37.6783 19.1741 36.5316C19.1741 35.3849 19.6202 34.3064 20.4319 33.4949L25.0511 28.8757C25.8628 28.0657 26.9394 27.6196 28.086 27.6196C29.2345 27.6196 30.3111 28.0657 31.1218 28.8757C31.5167 29.2704 31.8249 29.7284 32.0378 30.2274C32.5659 30.2001 33.0589 29.9796 33.4349 29.6038L34.6636 28.3733C34.3269 27.7477 33.8937 27.16 33.3665 26.6319C30.4511 23.7164 25.7225 23.7164 22.807 26.6319L18.1878 31.2529C15.2707 34.1685 15.2707 38.8949 18.1878 41.8124C21.1032 44.7281 25.8298 44.7281 28.7453 41.8124L32.9048 37.6528C32.5946 37.6818 32.2811 37.6974 31.9649 37.6974L31.9636 37.697Z" fill="white"/>
</svg>
