<svg width="213" height="213" viewBox="0 0 213 213" fill="none" xmlns="http://www.w3.org/2000/svg">
<path fill-rule="evenodd" clip-rule="evenodd" d="M50.0515 100.347C50.7492 100.347 49.9962 98.6865 48.1845 98.6865C42.6771 98.6865 37.646 103.463 32.8915 116.247C25.6713 135.658 21.2715 137.65 17.3709 137.65C16.5468 137.65 16.2528 136.973 15.9278 136.973C15.5393 136.973 15.2046 137.78 15.2918 138.871C15.4826 141.268 18.5243 145.044 22.2347 145.044C37.0652 145.044 38.6347 100.347 50.0515 100.347Z" fill="#E6427A"/>
<path fill-rule="evenodd" clip-rule="evenodd" d="M61.5704 106.695C60.8077 97.1132 50.8319 91.1221 38.6989 91.1221C16.9144 91.1221 6.16215 105.603 6.99896 116.108C7.51612 122.607 13.0409 127.154 17.9287 127.154C24.6014 127.154 28.5655 120.951 28.2613 117.125C28.1016 115.12 25.8668 114.131 25.9393 115.044C26.1275 117.403 23.2158 121.865 19.347 121.865C16.4276 121.865 14.7584 119.537 14.4964 116.24C13.8381 107.969 21.6136 94.0127 39.3924 94.0127C49.6039 94.0127 53.8267 99.4492 54.3308 105.782C55.014 114.365 49.2112 121.29 39.8944 121.29C39.0418 121.29 40.0079 123.864 42.5566 123.864C53.0308 123.864 62.4057 117.19 61.5704 106.695Z" fill="#E6427A"/>
<path fill-rule="evenodd" clip-rule="evenodd" d="M148.313 128.375C145.838 133.299 143.136 136.927 140.982 136.927C139.925 136.927 139.153 135.874 139.025 134.273C138.605 128.992 142.829 118.565 147.207 118.565C148.814 118.565 150.016 120.558 149.996 123.668C149.3 125.546 148.749 127.088 148.313 128.375ZM91.0496 136.927C89.993 136.927 89.2206 135.874 89.0934 134.273C88.6729 128.992 92.8964 118.565 97.2734 118.565C98.926 118.565 100.148 120.665 100.061 123.92L98.2477 128.636C95.8103 133.427 93.1641 136.927 91.0496 136.927ZM83.0452 154.136C81.8088 154.136 81.0959 153.308 81.0316 152.5C80.8913 150.737 82.7203 150.217 89.464 148.606C89.7662 148.534 90.0676 148.462 90.3671 148.39C88.6025 151.718 86.3952 154.136 83.0452 154.136ZM70.5228 128.375C68.0481 133.299 65.3452 136.927 63.1913 136.927C62.1347 136.927 61.3623 135.874 61.2344 134.273C60.8147 128.992 65.0389 118.565 69.4157 118.565C71.0242 118.565 72.2252 120.558 72.2052 123.668C71.5088 125.546 70.9577 127.088 70.5228 128.375ZM125.524 118.311C127.828 118.311 126.125 126.011 117.336 128.376C118.795 123.178 122.656 118.311 125.524 118.311ZM205.934 128.975C205.57 128.607 204.791 127.819 204.422 127.445C204.319 127.341 204.155 127.358 204.089 127.476C200.326 134.134 196.96 137.181 194.827 137.181C194.239 137.181 193.831 136.695 193.775 135.974C193.588 133.629 193.858 132.28 198.973 118.828H202.682C202.962 118.828 203.202 118.664 203.301 118.41L204.207 116.029C204.3 115.788 204.101 115.513 203.837 115.513H200.237C201.418 112.424 202.809 108.808 204.443 104.557C204.534 104.318 204.339 104.04 204.077 104.04H198.729C198.448 104.04 198.205 104.207 198.107 104.462C196.446 108.783 195.044 112.423 193.865 115.513H191.182C190.902 115.513 190.658 115.677 190.561 115.933L189.651 118.316C189.563 118.554 189.756 118.828 190.017 118.828H192.603C190.981 123.103 189.884 126.086 189.148 128.271C186.17 133.517 182.325 137.693 180.658 137.693C179.982 137.693 179.665 137.207 179.607 136.484C179.486 134.973 180.749 131.594 183.44 124.638C184.936 120.768 183.45 116.317 178.603 116.317C176.692 116.317 174.366 116.399 171.681 118.901L172.394 117.048C172.486 116.807 172.288 116.533 172.026 116.533H166.674C166.395 116.533 166.154 116.695 166.056 116.949L161.893 127.774C158.219 134.246 155.101 137.692 153.855 137.692C153.268 137.692 152.863 137.207 152.805 136.483C152.648 134.516 152.762 132.994 158.394 118.318C158.486 118.08 158.292 117.806 158.03 117.806H152.671C152.394 117.806 152.153 117.972 152.055 118.225C151.934 118.54 151.818 118.847 151.701 119.15C150.787 117.003 148.826 116.023 146.479 116.023C139.891 116.023 135.032 122.53 133.436 128.701C128.707 136.51 122.947 137.693 120.397 137.693C118.083 137.693 116.968 135.668 116.776 133.253C116.715 132.477 116.741 131.676 116.836 130.863C122.268 130.654 131.824 126.799 131.305 120.281C131.053 117.111 128.415 115.768 124.798 115.768C117.834 115.768 111.907 122.721 110.792 129.412C107.289 135.388 103.601 138.947 99.7917 141.194C99.8823 140.966 99.9721 140.732 100.063 140.497L108.587 118.321C108.679 118.081 108.483 117.806 108.222 117.806H102.869C102.589 117.806 102.347 117.97 102.248 118.225L101.834 119.306C100.951 117.049 98.9502 116.023 96.5453 116.023C89.8855 116.023 84.9913 122.673 83.4497 128.903C80.0627 134.646 77.2348 137.692 76.0649 137.692C75.4764 137.692 75.0713 137.207 75.0139 136.483C74.8576 134.516 74.9711 132.994 80.6036 118.318C80.6949 118.08 80.5007 117.806 80.24 117.806H74.8805C74.6031 117.806 74.3626 117.972 74.2643 118.225C74.1441 118.54 74.0265 118.847 73.9103 119.15C72.9968 117.003 71.0359 116.023 68.6884 116.023C60.1862 116.023 54.5611 126.859 55.1158 133.825C55.4628 138.188 57.8427 141.223 61.6334 141.223C64.2285 141.223 66.5857 139.707 69.032 135.9C69.0355 135.946 69.039 135.991 69.0431 136.037C69.2838 139.062 71.6521 141.221 74.4448 141.221C77.2132 141.221 79.3569 140.754 83.0994 134.843C83.7144 138.651 86.0036 141.223 89.4903 141.223C91.118 141.223 92.6509 140.625 94.1714 139.245L93.6902 140.497C93.2125 141.741 92.7395 142.997 92.2492 144.223C91.232 144.487 90.2108 144.714 89.1833 144.921C80.6099 146.647 76.4743 147.667 76.8428 152.306C77.1408 156.045 80.4633 158.342 84.4585 158.342C89.3209 158.344 92.7844 157.183 97.7304 146.147C102.412 144.226 106.69 141.078 110.919 134.467C111.807 138.558 114.506 141.731 119.325 141.731C122.623 141.731 127.694 141.374 132.958 134.291C133.434 138.4 135.771 141.223 139.424 141.223C142.02 141.223 144.377 139.707 146.822 135.9C146.826 135.946 146.829 135.991 146.834 136.037C147.075 139.062 149.442 141.221 152.237 141.221C154.047 141.221 155.589 141.021 157.486 139.231L156.918 140.707C156.828 140.948 157.023 141.221 157.285 141.221H162.637C162.916 141.221 163.158 141.057 163.257 140.803L168.93 126.056C171.61 121.13 174.707 119.081 176.291 119.081C178.244 119.081 177.875 121.811 175.793 127.24C173.601 132.961 173.444 134.06 173.623 136.292C173.863 139.318 175.706 141.223 178.5 141.223C181.192 141.223 183.968 140.791 187.801 135.492C187.802 135.504 187.802 135.515 187.803 135.526C188.045 138.552 190.453 141.221 193.246 141.221C197.12 141.221 200.174 140.503 206.006 129.406C206.079 129.27 206.05 129.093 205.934 128.975Z" fill="#E6427A"/>
<path fill-rule="evenodd" clip-rule="evenodd" d="M50.0719 169.159C51.406 169.159 51.9741 168.488 51.9741 167.425C51.9741 166.362 51.406 165.691 50.0719 165.691H48.2489V169.159H50.0719ZM50.3268 171.837H48.2489V176.803H44.897V162.972H50.3268C53.6995 162.972 55.3847 164.883 55.3847 167.425C55.3847 169.709 53.8362 171.837 50.3268 171.837Z" fill="#E6427A"/>
<path fill-rule="evenodd" clip-rule="evenodd" d="M72.2437 162.972V174.201H76.6346V176.803H68.8916V162.972H72.2437Z" fill="#E6427A"/>
<path fill-rule="evenodd" clip-rule="evenodd" d="M96.0042 166.696L94.3178 171.758H97.7089L96.0042 166.696ZM98.5722 174.358H93.435L92.6118 176.803H89.1025L94.0825 162.972H97.9636L102.944 176.803H99.3953L98.5722 174.358Z" fill="#E6427A"/>
<path fill-rule="evenodd" clip-rule="evenodd" d="M128.526 162.972V176.803H125.174L119.566 168.271V176.803H116.214V162.972H119.566L125.174 171.542V162.972H128.526Z" fill="#E6427A"/>
<path fill-rule="evenodd" clip-rule="evenodd" d="M151.149 165.671H146.069V168.468H150.56V171.069H146.069V174.103H151.149V176.803H142.718V162.972H151.149V165.671Z" fill="#E6427A"/>
<path fill-rule="evenodd" clip-rule="evenodd" d="M164.341 162.972H174.987V165.671H171.34V176.803H167.987V165.671H164.341V162.972Z" fill="#E6427A"/>
<path fill-rule="evenodd" clip-rule="evenodd" d="M69.5156 69.043C69.5151 71.5875 70.0559 74.5854 71.0548 77.5484C72.0533 80.5113 73.4486 83.2566 75.0089 85.3396C75.0093 82.7952 74.4686 79.7973 73.4698 76.8343C72.4709 73.8714 71.0759 71.126 69.5156 69.043Z" fill="#DB9768"/>
<path fill-rule="evenodd" clip-rule="evenodd" d="M130.597 61.2589C131.315 56.0567 131.574 50.864 131.348 46.2263C132.338 45.9434 133.115 45.0933 133.256 44.0024C133.444 42.5411 132.417 41.2033 130.963 41.0145C129.509 40.8256 128.178 41.8573 127.99 43.3186C127.849 44.4149 128.391 45.4415 129.285 45.9658C127.806 50.3998 126.646 55.4873 125.927 60.6937C124.951 67.7704 124.832 74.7257 125.587 80.3681C127.848 75.0906 129.621 68.3358 130.597 61.2589Z" fill="#DB9768"/>
<path fill-rule="evenodd" clip-rule="evenodd" d="M86.322 77.194C86.5749 73.6957 86.219 69.4663 85.3076 65.2042C84.3964 60.9422 82.986 56.9106 81.3141 53.7734C81.0612 57.2716 81.4172 61.501 82.3286 65.763C83.2399 70.0249 84.6503 74.0565 86.322 77.194Z" fill="#DB9768"/>
<path fill-rule="evenodd" clip-rule="evenodd" d="M102.226 75.6941C103.048 71.7468 103.281 66.8729 102.881 61.8879C102.48 56.903 101.471 52.1165 100.027 48.3291C99.2041 52.2764 98.9709 57.1503 99.3715 62.1352C99.7721 67.1202 100.781 71.9066 102.226 75.6941Z" fill="#DB9768"/>
<path fill-rule="evenodd" clip-rule="evenodd" d="M78.5891 68.9292C77.6118 65.3016 76.3344 61.7928 74.8903 58.7673C75.4984 58.3211 75.8107 57.5354 75.6152 56.7565C75.358 55.7325 74.3234 55.1117 73.3043 55.3701C72.2851 55.6284 71.6674 56.6681 71.9244 57.6922C72.1211 58.4757 72.7738 59.0193 73.5255 59.1176C73.7878 62.4157 74.4384 66.0616 75.413 69.6797C76.7279 74.5616 78.5644 79.16 80.6123 82.7119C80.6161 78.6752 79.9039 73.8111 78.5891 68.9292Z" fill="#DB9768"/>
<path fill-rule="evenodd" clip-rule="evenodd" d="M137.555 65.763C138.467 61.501 138.823 57.2716 138.57 53.7734C136.898 56.9106 135.487 60.9422 134.576 65.2042C133.665 69.4663 133.309 73.6957 133.562 77.194C135.233 74.0565 136.644 70.0249 137.555 65.763Z" fill="#DB9768"/>
<path fill-rule="evenodd" clip-rule="evenodd" d="M120.512 62.1352C120.913 57.1503 120.68 52.2762 119.857 48.3291C118.413 52.1165 117.403 56.9029 117.003 61.8879C116.602 66.873 116.835 71.747 117.658 75.6941C119.102 71.9068 120.112 67.1203 120.512 62.1352Z" fill="#DB9768"/>
<path fill-rule="evenodd" clip-rule="evenodd" d="M146.412 76.8343C145.414 79.7971 144.873 82.795 144.873 85.3396C146.434 83.2566 147.828 80.5113 148.828 77.5484C149.826 74.5854 150.367 71.5875 150.367 69.043C148.806 71.126 147.411 73.8714 146.412 76.8343Z" fill="#DB9768"/>
<path fill-rule="evenodd" clip-rule="evenodd" d="M109.948 81.7344C91.0623 81.7344 76.2686 85.2273 76.2686 89.6863C76.2686 91.4603 78.6016 93.1241 83.0154 94.4983C83.1239 94.5315 83.2412 94.4784 83.2789 94.3774C83.317 94.2766 83.2619 94.1659 83.1551 94.1284C79.7095 92.9183 77.8121 91.5918 77.8121 90.3933C77.8121 87.0277 92.5286 84.1842 109.948 84.1842C127.368 84.1842 142.084 87.0277 142.084 90.3933C142.084 91.5918 140.187 92.9183 136.741 94.1284C136.634 94.1659 136.579 94.2766 136.617 94.3774C136.647 94.4579 136.728 94.5082 136.815 94.5082L136.881 94.4983C141.295 93.1241 143.628 91.4603 143.628 89.6863C143.628 85.2273 128.834 81.7344 109.948 81.7344Z" fill="#DB9768"/>
<path fill-rule="evenodd" clip-rule="evenodd" d="M108.864 39.5997C108.824 39.592 108.784 39.589 108.744 39.5806C107.761 44.7909 107.242 50.7005 107.242 56.6837C107.242 65.1547 108.247 73.7784 109.941 79.9268C111.635 73.7784 112.641 65.1549 112.641 56.6837C112.641 50.7005 112.121 44.7909 111.138 39.5806C111.098 39.589 111.058 39.592 111.018 39.5997C112.406 39.1419 113.415 37.8448 113.415 36.2969C113.415 34.3688 111.86 32.8057 109.941 32.8057C108.022 32.8057 106.467 34.3688 106.467 36.2969C106.467 37.8447 107.476 39.1419 108.864 39.5997Z" fill="#DB9768"/>
<path fill-rule="evenodd" clip-rule="evenodd" d="M88.5367 46.2258C88.3104 50.8637 88.5691 56.0565 89.2868 61.2589C90.2633 68.3357 92.0363 75.0906 94.2974 80.3681C95.0517 74.7257 94.9333 67.7704 93.9569 60.6937C93.2385 55.4876 92.0782 50.4003 90.5991 45.9665C91.4939 45.4425 92.0372 44.4155 91.8962 43.3186C91.7083 41.8573 90.377 40.8256 88.9228 41.0145C87.4686 41.2033 86.4422 42.5411 86.6301 44.0024C86.7702 45.0926 87.5476 45.9422 88.5367 46.2258Z" fill="#DB9768"/>
<path fill-rule="evenodd" clip-rule="evenodd" d="M147.961 57.6922C148.218 56.6681 147.6 55.6284 146.581 55.3701C145.561 55.1117 144.527 55.7325 144.27 56.7565C144.074 57.5348 144.385 58.3201 144.993 58.7665C143.549 61.7923 142.271 65.3013 141.294 68.9292C139.979 73.8111 139.267 78.6752 139.271 82.7119C141.319 79.16 143.156 74.5616 144.471 69.6797C145.445 66.0617 146.095 62.4159 146.358 59.1176C147.11 59.02 147.764 58.4763 147.961 57.6922Z" fill="#DB9768"/>
</svg>
