<svg width="60" height="68" viewBox="0 0 60 68" fill="none" xmlns="http://www.w3.org/2000/svg">
<path d="M4.28568 0H40.6992L60 19.0656V63.75C60 66.0981 58.0801 68 55.7143 68H4.28568C1.9199 68 0 66.0981 0 63.75V4.24996C0 1.90192 1.92012 0 4.28568 0Z" fill="#62C794"/>
<path d="M59.9375 19.1252H44.9995C42.6338 19.1252 40.7139 17.2213 40.7139 14.8753V0.0427246L59.9375 19.1252Z" fill="#49AD7B"/>
<path d="M13.0114 31.3636H16.0455L19.25 39.1818H19.3864L22.5909 31.3636H25.625V43H23.2386V35.4261H23.142L20.1307 42.9432H18.5057L15.4943 35.3977H15.3977V43H13.0114V31.3636ZM27.652 43V31.3636H32.2429C33.1255 31.3636 33.8774 31.5322 34.4986 31.8693C35.1198 32.2027 35.5933 32.6667 35.919 33.2614C36.2486 33.8523 36.4134 34.5341 36.4134 35.3068C36.4134 36.0795 36.2467 36.7614 35.9134 37.3523C35.58 37.9432 35.0971 38.4034 34.4645 38.733C33.8357 39.0625 33.0743 39.2273 32.1804 39.2273H29.2543V37.2557H31.7827C32.2562 37.2557 32.6463 37.1742 32.9531 37.0114C33.2637 36.8447 33.4948 36.6155 33.6463 36.3239C33.8016 36.0284 33.8793 35.6894 33.8793 35.3068C33.8793 34.9205 33.8016 34.5833 33.6463 34.2955C33.4948 34.0038 33.2637 33.7784 32.9531 33.6193C32.6425 33.4564 32.2486 33.375 31.7713 33.375H30.1122V43H27.652ZM42.2443 43.1591C41.3958 43.1591 40.6402 43.0133 39.9773 42.7216C39.3182 42.4261 38.7973 42.0208 38.4148 41.5057C38.036 40.9867 37.8409 40.3883 37.8295 39.7102H40.3068C40.322 39.9943 40.4148 40.2443 40.5852 40.4602C40.7595 40.6723 40.9905 40.8371 41.2784 40.9545C41.5663 41.072 41.8902 41.1307 42.25 41.1307C42.625 41.1307 42.9564 41.0644 43.2443 40.9318C43.5322 40.7992 43.7576 40.6155 43.9205 40.3807C44.0833 40.1458 44.1648 39.875 44.1648 39.5682C44.1648 39.2576 44.0777 38.983 43.9034 38.7443C43.733 38.5019 43.4867 38.3125 43.1648 38.1761C42.8466 38.0398 42.4678 37.9716 42.0284 37.9716H40.9432V36.1648H42.0284C42.3996 36.1648 42.7273 36.1004 43.0114 35.9716C43.2992 35.8428 43.5227 35.6648 43.6818 35.4375C43.8409 35.2064 43.9205 34.9375 43.9205 34.6307C43.9205 34.339 43.8504 34.0833 43.7102 33.8636C43.5739 33.6402 43.3807 33.4659 43.1307 33.3409C42.8845 33.2159 42.5966 33.1534 42.267 33.1534C41.9337 33.1534 41.6288 33.214 41.3523 33.3352C41.0758 33.4527 40.8542 33.6212 40.6875 33.8409C40.5208 34.0606 40.4318 34.3182 40.4205 34.6136H38.0625C38.0739 33.9432 38.2652 33.3523 38.6364 32.8409C39.0076 32.3295 39.5076 31.9299 40.1364 31.642C40.7689 31.3504 41.483 31.2045 42.2784 31.2045C43.0814 31.2045 43.7841 31.3504 44.3864 31.642C44.9886 31.9337 45.4564 32.3277 45.7898 32.8239C46.1269 33.3163 46.2936 33.8693 46.2898 34.483C46.2936 35.1345 46.0909 35.678 45.6818 36.1136C45.2765 36.5492 44.7481 36.8258 44.0966 36.9432V37.0341C44.9527 37.1439 45.6042 37.4413 46.0511 37.9261C46.5019 38.4072 46.7254 39.0095 46.7216 39.733C46.7254 40.3958 46.5341 40.9848 46.1477 41.5C45.7652 42.0152 45.2367 42.4205 44.5625 42.7159C43.8883 43.0114 43.1155 43.1591 42.2443 43.1591Z" fill="white"/>
</svg>
