<svg width="60" height="68" viewBox="0 0 60 68" fill="none" xmlns="http://www.w3.org/2000/svg">
<path d="M4.28568 0H40.6992L60 19.0656V63.75C60 66.0981 58.0801 68 55.7143 68H4.28568C1.9199 68 0 66.0981 0 63.75V4.24996C0 1.90192 1.92012 0 4.28568 0Z" fill="#62C794"/>
<path d="M59.9375 19.1252H44.9995C42.6338 19.1252 40.7139 17.2213 40.7139 14.8753V0.0427246L59.9375 19.1252Z" fill="#49AD7B"/>
<path d="M13.0114 31.3636H16.0455L19.25 39.1818H19.3864L22.5909 31.3636H25.625V43H23.2386V35.4261H23.142L20.1307 42.9432H18.5057L15.4943 35.3977H15.3977V43H13.0114V31.3636ZM27.652 43V31.3636H32.2429C33.1255 31.3636 33.8774 31.5322 34.4986 31.8693C35.1198 32.2027 35.5933 32.6667 35.919 33.2614C36.2486 33.8523 36.4134 34.5341 36.4134 35.3068C36.4134 36.0795 36.2467 36.7614 35.9134 37.3523C35.58 37.9432 35.0971 38.4034 34.4645 38.733C33.8357 39.0625 33.0743 39.2273 32.1804 39.2273H29.2543V37.2557H31.7827C32.2562 37.2557 32.6463 37.1742 32.9531 37.0114C33.2637 36.8447 33.4948 36.6155 33.6463 36.3239C33.8016 36.0284 33.8793 35.6894 33.8793 35.3068C33.8793 34.9205 33.8016 34.5833 33.6463 34.2955C33.4948 34.0038 33.2637 33.7784 32.9531 33.6193C32.6425 33.4564 32.2486 33.375 31.7713 33.375H30.1122V43H27.652ZM37.767 40.9545V39.017L42.625 31.3636H44.2955V34.0455H43.3068L40.2443 38.892V38.983H47.1477V40.9545H37.767ZM43.3523 43V40.3636L43.3977 39.5057V31.3636H45.7045V43H43.3523Z" fill="white"/>
</svg>
