<svg width="36" height="36" viewBox="0 0 36 36" fill="none" xmlns="http://www.w3.org/2000/svg">
<circle cx="18" cy="18" r="17.5" fill="#62C794" stroke="#D7D7D7"/>
<path d="M24.0742 9.00006H23.8151C23.7666 9.01802 23.718 9.0415 23.6674 9.05594L21.5838 9.64971L17.528 10.8194C17.026 10.9632 16.5239 11.1007 16.0219 11.2476C15.8467 11.2708 15.6907 11.3702 15.5958 11.5194C15.5345 11.6526 15.5016 11.7971 15.4991 11.9437V21.9559C15.4555 21.9179 15.4076 21.8853 15.3563 21.8588C15.0973 21.7088 14.8255 21.5821 14.5439 21.4805C13.9955 21.3253 13.4125 21.3437 12.8751 21.5332C12.3375 21.7227 11.8719 22.074 11.5419 22.5387C11.2037 22.9995 11.0149 23.5528 11.0008 24.1242C10.9868 24.6955 11.1481 25.2575 11.4632 25.7344C12.1631 26.724 13.1225 27.1539 14.3298 26.9508C15.0136 26.835 15.6258 26.4591 16.0384 25.9018C16.4339 25.3867 16.6241 24.75 16.6241 24.1024V14.6431C16.6241 14.545 16.6761 14.4532 16.7745 14.4381C17.6288 14.2005 18.48 13.9571 19.3312 13.7181L22.954 12.6782C23.089 12.6405 23.2335 12.6079 23.3741 12.5684V19.692C23.3273 19.6701 23.2824 19.6443 23.2401 19.6146C22.5224 19.1013 21.5958 18.9799 20.77 19.2909C20.313 19.4383 19.9034 19.705 19.5837 20.0635C19.2639 20.4218 19.0456 20.859 18.951 21.33C18.7386 22.1749 18.9549 23.0701 19.5297 23.7248C20.1073 24.4172 20.9818 24.7908 21.8813 24.7292C22.7809 24.6677 23.5964 24.1785 24.0744 23.414C24.3725 22.9218 24.5342 22.3513 24.4991 21.7757V9.74141C24.4991 9.40291 24.4069 9.14063 24.074 9L24.0742 9.00006ZM23.3668 11.3141C23.3448 11.3612 23.3037 11.3966 23.2537 11.411C22.7713 11.5516 22.2894 11.6898 21.814 11.8284L19.7504 12.419L16.7684 13.2719L16.6242 13.3043V12.2949C16.6242 12.2577 16.6692 12.2292 16.7072 12.2176C17.5032 11.9883 18.298 11.7623 19.0932 11.5338L21.0725 10.9636L23.2336 10.3441C23.2749 10.3384 23.3158 10.33 23.3559 10.3188C23.3725 10.6644 23.3742 10.9903 23.3668 11.3141L23.3668 11.3141Z" fill="white"/>
</svg>
