<svg width="48" height="48" viewBox="0 0 48 48" fill="none" xmlns="http://www.w3.org/2000/svg">
<circle cx="24" cy="24" r="24" fill="#FFECF3"/>
<path d="M32.457 12.7572H29.2714V15.0287C29.2714 15.2181 29.1962 15.3999 29.0621 15.5337C28.9281 15.6677 28.7465 15.743 28.5569 15.743C28.1626 15.743 27.8427 15.4231 27.8427 15.0287V12.7572H20.1857V15.0287C20.1857 15.2181 20.1105 15.3999 19.9765 15.5337C19.8424 15.6678 19.6608 15.743 19.4715 15.743C19.0769 15.743 18.757 15.4231 18.757 15.0288V12.7573H15.5715C14.625 12.76 13.7182 13.1372 13.0488 13.8063C12.3797 14.4754 12.0025 15.3823 12 16.3287V33.2287C12.0025 34.1752 12.3797 35.082 13.0488 35.7514C13.7182 36.4205 14.625 36.7977 15.5715 36.8002H32.4575C33.4039 36.7977 34.3107 36.4205 34.9801 35.7514C35.6493 35.082 36.0264 34.1752 36.0289 33.2287V16.3287C36.0264 15.3823 35.6492 14.4754 34.9801 13.8063C34.3107 13.1372 33.4039 12.76 32.4575 12.7573L32.457 12.7572ZM34.6 33.2287C34.6 33.7972 34.3743 34.3421 33.9724 34.7439C33.5703 35.146 33.0255 35.3717 32.457 35.3717H15.571C15.0025 35.3717 14.4576 35.146 14.0555 34.7439C13.6537 34.3421 13.428 33.7972 13.428 33.2287V19.2146H34.5997L34.6 33.2287ZM17.4429 25.6005V22.029C17.4429 21.6344 17.7626 21.3145 18.1572 21.3145H21.7286C21.918 21.3145 22.0998 21.3897 22.2336 21.5238C22.3676 21.6578 22.4429 21.8394 22.4429 22.029V25.6005C22.4369 25.9923 22.1205 26.3085 21.7286 26.3147H18.1572C17.7626 26.3147 17.4429 25.9948 17.4429 25.6005L17.4429 25.6005ZM17.4429 32.5578V28.9861C17.4429 28.5917 17.7626 28.2718 18.1572 28.2718H21.7286C21.918 28.2718 22.0998 28.3471 22.2336 28.4811C22.3676 28.6149 22.4429 28.7967 22.4429 28.9861V32.5575C22.4369 32.9494 22.1205 33.2658 21.7286 33.2718H18.1572C17.7626 33.2718 17.4429 32.9521 17.4429 32.5575L17.4429 32.5578ZM20.1858 12.7572H18.7573L18.7571 11.9144C18.7633 11.5226 19.0795 11.2062 19.4716 11.2002C19.6609 11.2002 19.8425 11.2754 19.9766 11.4095C20.1106 11.5432 20.1858 11.7251 20.1858 11.9144L20.1858 12.7572ZM29.2713 12.7572H27.8429L27.8426 11.9144C27.8426 11.5198 28.1625 11.2002 28.5569 11.2002C28.949 11.2062 29.2651 11.5226 29.2714 11.9144L29.2713 12.7572ZM23.9314 25.596H23.9311C23.9311 25.2016 24.251 24.8818 24.6456 24.8818H29.8713C30.2659 24.8818 30.5855 25.2016 30.5855 25.596C30.5855 25.9906 30.2659 26.3105 29.8713 26.3105H24.6456C24.251 26.3105 23.9311 25.9906 23.9311 25.596H23.9314ZM23.9314 23.2216L23.9311 23.2219C23.9311 22.8272 24.251 22.5076 24.6456 22.5076H27.5541C27.9485 22.5076 28.2683 22.8273 28.2683 23.2219C28.2683 23.6162 27.9485 23.9361 27.5541 23.9361H24.6456C24.456 23.9361 24.2744 23.8608 24.1404 23.7268C24.0064 23.5928 23.9311 23.4112 23.9311 23.2218L23.9314 23.2216ZM23.9314 32.5546L23.9311 32.5548C23.9311 32.1602 24.251 31.8404 24.6456 31.8404H29.8713C30.2659 31.8404 30.5855 32.1602 30.5855 32.5548C30.5855 32.9492 30.2659 33.2691 29.8713 33.2691H24.6456C24.456 33.2691 24.2744 33.1938 24.1404 33.0598C24.0064 32.9258 23.9311 32.7442 23.9311 32.5548L23.9314 32.5546ZM23.9314 30.1802L23.9311 30.1805C23.9311 29.7861 24.251 29.4662 24.6456 29.4662H27.5541C27.9485 29.4662 28.2683 29.7861 28.2683 30.1805C28.2683 30.5751 27.9485 30.8947 27.5541 30.8947H24.6456C24.456 30.8947 24.2744 30.8195 24.1404 30.6854C24.0064 30.5516 23.9311 30.3698 23.9311 30.1805L23.9314 30.1802Z" fill="#E6427A"/>
</svg>
