<svg width="20" height="20" viewBox="0 0 20 20" fill="none" xmlns="http://www.w3.org/2000/svg">
<circle cx="10" cy="10" r="10" fill="#E6427A"/>
<path d="M10.8334 5H9.16671C8.83513 5 8.51725 5.13169 8.28277 5.36607C8.04839 5.60053 7.91669 5.91842 7.91669 6.24999V6.66665H5.41667C5.26776 6.66665 5.13021 6.74608 5.0558 6.87498C4.9814 7.00389 4.9814 7.16274 5.0558 7.29164C5.13021 7.42055 5.26777 7.49998 5.41667 7.49998H5.87705L6.5042 13.1471C6.56084 13.6566 6.80349 14.1273 7.18557 14.4692C7.56764 14.8111 8.06234 15.0001 8.57499 15H11.425C11.9378 15.0001 12.4325 14.811 12.8145 14.469C13.1967 14.1272 13.4393 13.6563 13.4958 13.1467L14.125 7.50007H14.5833C14.7322 7.50007 14.8698 7.42065 14.9442 7.29174C15.0186 7.16283 15.0186 7.00398 14.9442 6.87508C14.8698 6.74617 14.7322 6.66675 14.5833 6.66675H12.0833V6.25008C12.0833 5.91852 11.9516 5.60064 11.7172 5.36616C11.4828 5.13179 11.1649 5.0001 10.8333 5.0001L10.8334 5ZM8.75003 6.24999C8.75003 6.1395 8.79393 6.03347 8.87206 5.95535C8.95018 5.87722 9.05621 5.83333 9.16671 5.83333H10.8334C10.9439 5.83333 11.0499 5.87722 11.128 5.95535C11.2062 6.03347 11.2501 6.1395 11.2501 6.24999V6.66665H8.75003V6.24999ZM9.16671 11.6666C9.16671 11.8155 9.08728 11.9531 8.95837 12.0275C8.82946 12.1019 8.6706 12.1019 8.5417 12.0275C8.41279 11.9531 8.33336 11.8155 8.33336 11.6666V9.16663C8.33336 9.01773 8.41279 8.88018 8.5417 8.80577C8.67061 8.73137 8.82946 8.73137 8.95837 8.80577C9.08728 8.88018 9.16671 9.01773 9.16671 9.16663V11.6666ZM11.6667 11.6666C11.6667 11.8155 11.5873 11.9531 11.4584 12.0275C11.3295 12.1019 11.1706 12.1019 11.0417 12.0275C10.9128 11.9531 10.8334 11.8155 10.8334 11.6666V9.16663C10.8334 9.01773 10.9128 8.88018 11.0417 8.80577C11.1706 8.73137 11.3295 8.73137 11.4584 8.80577C11.5873 8.88018 11.6667 9.01773 11.6667 9.16663V11.6666Z" fill="white"/>
</svg>
