<svg width="14" height="23" viewBox="0 0 14 23" fill="none" xmlns="http://www.w3.org/2000/svg">
<path d="M12.6476 10.1426L2.93556 0.504587C2.77605 0.3447 2.58626 0.217795 2.37716 0.131192C2.16807 0.0445882 1.94379 0 1.71727 0C1.49075 0 1.26647 0.0445882 1.05737 0.131192C0.84827 0.217795 0.658489 0.3447 0.498973 0.504587C0.179384 0.824198 0 1.25655 0 1.70721C0 2.15787 0.179384 2.59022 0.498973 2.90983L8.99271 11.4391L0.498973 19.883C0.179384 20.2026 0 20.635 0 21.0856C0 21.5363 0.179384 21.9686 0.498973 22.2882C0.657891 22.4494 0.847404 22.5777 1.05653 22.6655C1.26566 22.7534 1.49024 22.7991 1.71727 22.8C1.94429 22.7991 2.16888 22.7534 2.378 22.6655C2.58713 22.5777 2.77664 22.4494 2.93556 22.2882L12.6476 12.6502C12.8218 12.4905 12.9608 12.2966 13.0558 12.0808C13.1509 11.865 13.2 11.632 13.2 11.3964C13.2 11.1608 13.1509 10.9278 13.0558 10.712C12.9608 10.4962 12.8218 10.3024 12.6476 10.1426Z" fill="white"/>
</svg>
