<svg width="60" height="60" viewBox="0 0 60 60" fill="none" xmlns="http://www.w3.org/2000/svg">
<g opacity="0.5">
<circle cx="30" cy="30" r="30" fill="#E6427A"/>
<path d="M36.6476 28.1426L26.9356 18.5046C26.776 18.3447 26.5863 18.2178 26.3772 18.1312C26.1681 18.0446 25.9438 18 25.7173 18C25.4907 18 25.2665 18.0446 25.0574 18.1312C24.8483 18.2178 24.6585 18.3447 24.499 18.5046C24.1794 18.8242 24 19.2565 24 19.7072C24 20.1579 24.1794 20.5902 24.499 20.9098L32.9927 29.4391L24.499 37.883C24.1794 38.2026 24 38.635 24 39.0856C24 39.5363 24.1794 39.9686 24.499 40.2882C24.6579 40.4494 24.8474 40.5777 25.0565 40.6655C25.2657 40.7534 25.4902 40.7991 25.7173 40.8C25.9443 40.7991 26.1689 40.7534 26.378 40.6655C26.5871 40.5777 26.7766 40.4494 26.9356 40.2882L36.6476 30.6502C36.8218 30.4905 36.9608 30.2966 37.0558 30.0808C37.1509 29.865 37.2 29.632 37.2 29.3964C37.2 29.1608 37.1509 28.9278 37.0558 28.712C36.9608 28.4962 36.8218 28.3024 36.6476 28.1426Z" fill="white"/>
</g>
</svg>
