<svg width="60" height="68" viewBox="0 0 60 68" fill="none" xmlns="http://www.w3.org/2000/svg">
<path d="M4.28568 0H40.6992L60 19.0656V63.75C60 66.0981 58.0801 68 55.7143 68H4.28568C1.9199 68 0 66.0981 0 63.75V4.24996C0 1.90192 1.92012 0 4.28568 0Z" fill="#E2574C"/>
<path d="M59.938 19.125H45C42.6343 19.125 40.7144 17.2211 40.7144 14.8751V0.0425415L59.938 19.125Z" fill="#B53629"/>
<path d="M43.9244 32.221C44.6423 32.221 44.9938 31.6005 44.9938 30.9992C44.9938 30.3765 44.6273 29.7751 43.9244 29.7751H39.8358C39.0365 29.7751 38.5909 30.4317 38.5909 31.1564V41.1204C38.5909 42.0087 39.1008 42.5017 39.7908 42.5017C40.4766 42.5017 40.9888 42.0087 40.9888 41.1204V38.3856H43.4617C44.2288 38.3856 44.6124 37.7629 44.6124 37.1447C44.6124 36.5391 44.2288 35.9375 43.4617 35.9375H40.9888V32.221H43.9244ZM30.1051 29.7751H27.1136C26.3014 29.7751 25.7249 30.3277 25.7249 31.1478V41.129C25.7249 42.1468 26.5542 42.4656 27.1477 42.4656H30.2871C34.0027 42.4656 36.4563 40.0411 36.4563 36.2988C36.4543 32.3422 34.1444 29.7751 30.1051 29.7751ZM30.2487 40.005H28.4251V32.236H30.0687C32.5567 32.236 33.6387 33.8914 33.6387 36.1757C33.6387 38.3135 32.5757 40.005 30.2487 40.005ZM19.2901 29.7751H16.3265C15.4887 29.7751 15.0215 30.3233 15.0215 31.1564V41.1204C15.0215 42.0087 15.5572 42.5017 16.2771 42.5017C16.997 42.5017 17.5327 42.0087 17.5327 41.1204V38.2113H19.3905C21.6834 38.2113 23.5756 36.6005 23.5756 34.0101C23.5758 31.4752 21.7501 29.7751 19.2901 29.7751ZM19.2409 35.874H17.5329V32.1148H19.2409C20.2952 32.1148 20.9659 32.9308 20.9659 33.9954C20.9637 35.058 20.2952 35.874 19.2409 35.874Z" fill="white"/>
</svg>
