<svg width="36" height="36" viewBox="0 0 36 36" fill="none" xmlns="http://www.w3.org/2000/svg">
<circle cx="18" cy="18" r="17.5" fill="#E2574C" stroke="#D7D7D7"/>
<path d="M20.4734 9.27734V12.7918H23.9878L20.4734 9.27734Z" fill="white"/>
<path d="M19.9999 13.7371C19.7383 13.7371 19.5262 13.525 19.5262 13.2634V9.00053H12.4215C12.0415 8.99006 11.6739 9.13628 11.4051 9.40508C11.1363 9.67389 10.9899 10.0415 11.0005 10.4215V25.5785C10.9899 25.9585 11.1363 26.3261 11.4051 26.5949C11.6739 26.8637 12.0415 27.01 12.4215 26.9995H22.8419C23.2219 27.0099 23.5895 26.8637 23.8583 26.5949C24.1271 26.3261 24.2733 25.9585 24.2629 25.5785V13.7372L19.9999 13.7371ZM20.9472 23.2099H14.3162C14.0545 23.2099 13.8425 22.9979 13.8425 22.7364C13.8425 22.4747 14.0545 22.2627 14.3162 22.2627H20.9472C21.2087 22.2627 21.4209 22.4747 21.4209 22.7364C21.4209 22.9979 21.2087 23.2099 20.9472 23.2099ZM20.9472 20.368H14.3162C14.0545 20.368 13.8425 20.156 13.8425 19.8945C13.8425 19.6328 14.0545 19.4208 14.3162 19.4208H20.9472C21.2087 19.4208 21.4209 19.6328 21.4209 19.8945C21.4209 20.156 21.2087 20.368 20.9472 20.368ZM20.9472 17.5261H14.3162C14.0545 17.5261 13.8425 17.3141 13.8425 17.0526C13.8425 16.7909 14.0545 16.5789 14.3162 16.5789H20.9472C21.2087 16.5789 21.4209 16.7909 21.4209 17.0526C21.4209 17.3141 21.2087 17.5261 20.9472 17.5261Z" fill="white"/>
</svg>
