<svg width="60" height="68" viewBox="0 0 60 68" fill="none" xmlns="http://www.w3.org/2000/svg">
<path d="M4.28568 0H40.6992L60 19.0656V63.75C60 66.0981 58.0801 68 55.7143 68H4.28568C1.9199 68 0 66.0981 0 63.75V4.24996C0 1.90192 1.92012 0 4.28568 0Z" fill="#6CC0E9"/>
<path d="M59.9375 19.1252H44.9995C42.6338 19.1252 40.7139 17.2213 40.7139 14.8753V0.0427246L59.9375 19.1252Z" fill="#63AFD3"/>
<path d="M14.043 41.0902V30.4205H17.5883C18.9319 30.4205 19.8076 30.4739 20.2157 30.5806C20.8426 30.7407 21.3676 31.0901 21.7905 31.6286C22.2135 32.1624 22.425 32.8538 22.425 33.7029C22.425 34.3579 22.3031 34.9087 22.0592 35.355C21.8154 35.8014 21.5044 36.1532 21.1263 36.4104C20.7531 36.6627 20.3724 36.8301 19.9843 36.9126C19.4568 37.0145 18.693 37.0654 17.6928 37.0654H16.2523V41.0902H14.043ZM16.2523 32.2255V35.2532H17.4615C18.3322 35.2532 18.9144 35.1974 19.208 35.0858C19.5016 34.9742 19.7305 34.7995 19.8947 34.5617C20.0639 34.324 20.1485 34.0474 20.1485 33.732C20.1485 33.3439 20.0315 33.0236 19.7977 32.7713C19.5638 32.519 19.2677 32.3613 18.9095 32.2982C18.6457 32.2497 18.1158 32.2255 17.3196 32.2255H16.2523Z" fill="white"/>
<path d="M24.2611 41.0902V30.4205H26.4107L30.8891 37.5458V30.4205H32.9417V41.0902H30.7249L26.3137 34.1323V41.0902H24.2611Z" fill="white"/>
<path d="M40.3758 37.1673V35.3696H45.1378V39.62C44.675 40.0567 44.0032 40.4425 43.1225 40.7773C42.2467 41.1072 41.3585 41.2722 40.4579 41.2722C39.3134 41.2722 38.3157 41.0393 37.4648 40.5735C36.6139 40.1028 35.9745 39.4332 35.5466 38.5647C35.1187 37.6913 34.9047 36.7427 34.9047 35.719C34.9047 34.6078 35.1435 33.6204 35.6212 32.7568C36.0989 31.8931 36.7981 31.2308 37.7186 30.7698C38.4202 30.4156 39.2935 30.2385 40.3385 30.2385C41.6969 30.2385 42.7568 30.5175 43.5181 31.0755C44.2844 31.6286 44.777 32.3953 44.996 33.3754L42.8016 33.7757C42.6473 33.2517 42.3562 32.8392 41.9283 32.5384C41.5053 32.2327 40.9754 32.0799 40.3385 32.0799C39.3731 32.0799 38.6043 32.3783 38.0321 32.9751C37.4648 33.5719 37.1812 34.4574 37.1812 35.6316C37.1812 36.898 37.4698 37.849 38.047 38.4846C38.6242 39.1154 39.3806 39.4308 40.3161 39.4308C40.7788 39.4308 41.2416 39.3435 41.7044 39.1688C42.1721 38.9893 42.5727 38.7733 42.906 38.521V37.1673H40.3758Z" fill="white"/>
</svg>
