<svg width="264" height="122" viewBox="0 0 264 122" fill="none" xmlns="http://www.w3.org/2000/svg">
<path d="M68.0296 32.323L73.3136 31.4823L72.864 28.6559L74.5328 27.9187C75.941 27.2965 76.5783 25.6506 75.9561 24.2425L73.4476 18.5645L71.3851 19.4757L67.5823 21.1556L68.8297 23.9792L68.8888 24.1129C69.0192 24.4082 68.8857 24.7535 68.5903 24.8839C68.295 25.0144 67.9497 24.8808 67.8193 24.5854L67.5829 24.0506C67.3221 23.4599 66.6316 23.1925 66.0409 23.4535C65.4501 23.7144 65.1827 24.4049 65.4438 24.9956C65.7047 25.5863 66.3952 25.8536 66.9859 25.5926L66.9866 25.5924L68.1137 28.1439L67.9269 28.2031C67.7508 28.2809 67.5693 28.3294 67.3877 28.3528L68.0196 32.3247L68.0296 32.323ZM74.5694 24.3035C74.8326 24.8994 74.5628 25.5957 73.967 25.8588C73.3713 26.1219 72.6749 25.8522 72.4118 25.2564L74.5694 24.3035Z" fill="#FB9A7D"/>
<path d="M80.2752 9.49974L80.464 10.3477L83.1652 9.74543L83.1663 9.74521L82.7104 8.70409L82.7049 8.70595C82.6515 8.58387 82.584 8.46613 82.4903 8.36145L80.4897 6.12617C79.858 5.4201 78.7735 5.36009 78.0676 5.99191C77.3616 6.62373 77.3014 7.70821 77.9333 8.41417C78.0447 8.53886 78.1712 8.64224 78.3063 8.72638L78.3055 8.72725L80.3916 10.0258L80.2746 9.50007L80.2752 9.49974Z" fill="#FB9A7D"/>
<path d="M89.0481 27.2081L89.0463 27.2063C89.7301 26.3821 89.9369 25.2133 89.4782 24.1653C89.4754 24.1588 89.4716 24.1529 89.4688 24.1465L83.1647 9.74609L83.6897 10.9453L80.7429 11.6034L83.5495 24.2126L74.9484 31.2225L74.5389 31.2877L75.2485 35.7474V35.7475L75.2398 35.8478L74.2695 46.9787V46.9789L73.7683 45.8018L68.7734 34.0708L68.0292 32.3236H68.0294L68.0292 32.3235L68.0192 32.3251L66.1631 32.6205L56.642 26.9452L54.9033 13.7522L51.9095 14.1447L51.9915 12.8383L51.0082 28.5276C51.0076 28.5345 51.0061 28.5413 51.0058 28.5483C50.9476 29.4772 51.3312 30.3302 51.9736 30.9072L51.9723 30.9091L62.438 40.2932C62.6126 40.4497 62.7986 40.5845 62.9899 40.7074L66.4436 57.1675L66.528 58.8876L62.7611 80.8908L52.2334 108.206L52.2353 108.207C52.1574 108.409 52.113 108.628 52.113 108.857H55.7344L55.8674 108.93L67.436 82.5489L67.4347 82.5484C67.5016 82.3962 67.554 82.2364 67.5892 82.0701L67.5899 82.0702L71.5207 63.5076C72.7336 63.9538 74.0738 64.1065 75.4409 63.889C75.9349 63.8103 76.4094 63.6854 76.8635 63.5223L79.4109 81.7387L79.6507 108.866V108.873L83.2685 108.931L83.2715 108.857L84.3671 81.6554L84.364 81.6553C84.3653 81.6213 84.369 81.5881 84.369 81.5537C84.369 81.4768 84.3644 81.4009 84.3576 81.3256L84.3588 81.3255L81.9993 55.4652L81.9972 55.4667C81.9812 55.2915 81.9615 55.1157 81.9335 54.9393V54.9392L80.0827 37.9927L89.0481 27.2081Z" fill="#FF9EC3"/>
<path d="M83.164 9.74579L80.4629 10.348L80.2741 9.5L80.2734 9.50033L80.3904 10.026L80.4624 10.3491L80.7422 11.6031L83.6891 10.945L83.164 9.74579Z" fill="white"/>
<path d="M54.6223 11.6153L54.7358 12.4768L51.9921 12.8375L51.9102 14.1438L54.904 13.7513L54.7368 12.4775L54.6927 12.1427L54.6232 11.6152L54.6223 11.6153Z" fill="white"/>
<path d="M54.7369 12.4775L54.6234 11.6161H54.6243L54.6938 12.1435L56.1949 10.1895L56.1937 10.1889C56.2908 10.0626 56.3726 9.92151 56.4332 9.76551C56.7767 8.88247 56.3394 7.88832 55.4564 7.54491C54.5735 7.20139 53.5792 7.63883 53.2358 8.52177L52.1483 11.3174C52.0988 11.4445 52.0714 11.5749 52.0633 11.7041L51.9922 12.8383L51.9933 12.8382L54.7369 12.4775Z" fill="#FB9A7D"/>
<path d="M68.0312 32.323L68.0314 32.3231H68.0312L68.7754 34.0703L73.7703 45.8012L71.6953 40.9266L71.7924 32.7625L72.2158 32.6951L74.8421 40.4259L74.2715 46.9781L75.2418 35.8473L75.2505 35.747V35.7469L74.5409 31.2871L73.3153 31.4821L68.0312 32.3229V32.323Z" fill="white"/>
<path d="M72.2119 32.6953L71.7885 32.7627L71.6914 40.9268L73.7665 45.8014L74.2676 46.9785V46.9783L74.8382 40.4261L72.2119 32.6953Z" fill="#40327A"/>
<path d="M79.6523 108.872V108.864V111H85.0946C85.3918 111 85.6328 110.759 85.6328 110.462C85.6328 110.265 85.5253 110.083 85.3522 109.989L83.274 108.855H83.2731L83.2702 108.93L79.6523 108.872Z" fill="#40327A"/>
<path d="M68.1151 28.1445L66.988 25.593L66.9873 25.5932C66.3965 25.8541 65.7062 25.5869 65.4452 24.9962C65.1842 24.4054 65.4516 23.715 66.0422 23.4541C66.633 23.1931 67.3234 23.4604 67.5843 24.0511L67.8206 24.586C67.9511 24.8814 68.2963 25.015 68.5917 24.8845C68.8871 24.7541 69.0206 24.4088 68.8902 24.1134L68.8311 23.9797L67.5836 21.1562L71.3863 19.4762H71.3865L73.4489 18.565L73.4549 18.5625L74.9976 22.0545C75.5882 21.7936 75.8557 21.1032 75.5946 20.5124L74.4324 17.8818C74.8397 17.3495 74.9451 16.6128 74.6364 15.9602C74.2585 15.1613 73.3562 14.7872 72.5149 14.9697C72.49 14.8667 72.4545 14.7647 72.4073 14.665C72.0407 13.8899 71.0868 13.5891 70.3023 13.9356L68.3482 14.799C68.305 14.8181 68.2636 14.8398 68.2231 14.8622C68.1758 14.878 68.1292 14.8958 68.083 14.9162L67.4702 15.1869C67.4702 15.1869 67.4701 15.1869 67.47 15.1869L65.5159 16.0502C64.9491 16.3007 64.6073 16.8478 64.589 17.4285C63.0283 18.4564 62.3883 20.4869 63.1687 22.2533L64.6601 25.6289L65.3581 27.2089C65.7154 28.0174 66.555 28.4613 67.3891 28.3536C67.5708 28.3303 67.7522 28.2818 67.9283 28.2039L68.1151 28.1445Z" fill="#10215F"/>
<path d="M73.9654 25.858C74.5612 25.595 74.831 24.8986 74.5678 24.3027L72.4102 25.2556C72.6732 25.8514 73.3696 26.1211 73.9654 25.858Z" fill="white"/>
<path d="M52.1134 108.855L52.1133 111H57.5555C57.8527 111 58.0937 110.759 58.0937 110.462C58.0937 110.265 57.9862 110.083 57.8132 109.989L55.8678 108.928L55.7348 108.855H52.1134Z" fill="#40327A"/>
<path d="M159.099 3.45508C159.074 3.45828 159.049 3.46271 159.023 3.46581L159.047 3.66584L159.072 3.86979C159.144 3.86123 159.215 3.84885 159.287 3.83915L159.099 3.45508Z" fill="#FA8C3C"/>
<path d="M184.426 105.965V106.214V108H189.591C189.872 108 190.101 107.771 190.101 107.489C190.101 107.302 189.999 107.13 189.835 107.041L187.863 105.965H187.861H184.426Z" fill="#40327A"/>
<path d="M178.911 41.8872L188.313 45.154L188.314 45.1516C188.701 45.2863 189.122 45.3401 189.556 45.2878C191.078 45.1044 192.163 43.722 191.98 42.2C191.979 42.1934 191.977 42.187 191.976 42.1804L190.192 27.3697L190.34 28.6032L187.483 28.3942L186.781 37.8944L179.102 33.4175L179.1 33.4224C178.538 33.0935 177.897 32.8991 177.227 32.87L174.462 32.4243V32.4244H174.462L173.833 33.8938L168.986 45.2116L168.512 46.3198V46.3195L168.512 46.3196L167.612 35.7531L167.605 35.6596L168.287 31.4288L168.801 31.5117L167.233 28.5915L166.734 28.3698C165.96 28.0259 165.633 27.1051 166.013 26.3501L166.021 26.3349L162.95 20.6165L162.612 6.34961L162.641 7.59159L159.817 7.10889L157.454 20.8776L157.458 20.8779C157.38 21.3307 157.416 21.7944 157.56 22.2272L157.558 22.2281L162.303 36.4897L162.305 36.4887C162.462 36.9591 162.703 37.3936 163.013 37.7749L161.223 53.8594C161.223 53.8594 161.223 53.8595 161.223 53.8595C161.159 54.2563 161.129 54.6507 161.129 55.0403V55.0404C161.128 55.2895 161.141 55.5365 161.165 55.7807L161.265 57.8179L161.268 57.8763H161.267L162.26 105.965L162.261 106.001L165.695 106.006L165.696 105.985L166.719 62.2292C166.931 62.2829 167.147 62.3294 167.367 62.3648C168.768 62.5908 170.141 62.4077 171.364 61.9047L184.425 106.214V105.965H187.86C187.86 105.821 187.84 105.682 187.807 105.549L187.809 105.548L175.845 57.5227L175.92 55.9963L178.911 41.8872Z" fill="#FF9EC3"/>
<path d="M174.463 32.4253L169.441 31.6156L168.802 31.5126L168.288 31.4297L167.605 35.6605V35.6606L167.613 35.7541L168.513 46.3206L168.513 46.3205L167.984 40.1016L170.491 32.7703L170.893 32.8351L170.969 40.5828L168.987 45.2126L173.834 33.8948L174.463 32.4254H174.463V32.4252H174.463V32.4253Z" fill="white"/>
<path d="M170.893 32.8343L170.492 32.7695L167.984 40.1008L168.513 46.3198V46.3201L168.988 45.2119L170.97 40.582L170.893 32.8343Z" fill="#40327A"/>
<path d="M174.354 28.4848L175.421 26.0846L175.422 26.0848C175.982 26.3339 176.637 26.0817 176.886 25.5218C177.135 24.9618 176.883 24.306 176.323 24.057C175.763 23.8079 175.108 24.06 174.858 24.62L174.735 24.8978L174.735 24.8979L173.328 28.0626C172.712 29.4469 171.165 30.1234 169.752 29.6857L169.441 31.614L174.464 32.4238L175.063 28.7075C174.881 28.6866 174.699 28.6381 174.523 28.5597L174.354 28.4848Z" fill="#FB9A7D"/>
<path d="M173.711 24.4676L175.511 20.4185C174.739 20.7531 173.837 20.7796 173.009 20.4116L169.887 19.0234C169.633 19.2979 169.411 19.6104 169.235 19.9606L168.805 20.8126L167.652 23.1006L172.092 25.075C172.708 25.349 173.428 25.0767 173.711 24.4676Z" fill="#FB9A7D"/>
<path d="M166.735 28.3699L167.234 28.5916L169.422 29.5645C169.53 29.6129 169.641 29.6521 169.752 29.6864C171.164 30.1241 172.712 29.4476 173.327 28.0633L174.735 24.8986L174.734 24.8985L174.858 24.6207C175.107 24.0607 175.763 23.8086 176.323 24.0577C176.883 24.3067 177.135 24.9625 176.886 25.5225C176.637 26.0824 175.981 26.3346 175.421 26.0855L175.42 26.0853L174.353 28.4855L174.522 28.5607C174.698 28.6391 174.88 28.6875 175.062 28.7085C175.844 28.7986 176.627 28.3793 176.963 27.6223L177.561 26.2783L178.887 23.2965C179.685 21.502 178.936 19.4158 177.219 18.5197C177.352 17.8555 177.015 17.1643 176.37 16.8776C175.94 16.6864 175.468 16.7179 175.081 16.9209C174.941 16.5822 174.677 16.294 174.316 16.1335L174.147 16.0584L174.147 16.0583L172.506 15.3288C172.505 15.3284 172.504 15.3282 172.504 15.3278L172.401 15.282C172.241 15.211 172.075 15.1723 171.911 15.1599C171.005 15.0333 170.09 15.4807 169.647 16.3166C168.909 16.4872 168.257 16.9873 167.925 17.7325C167.426 18.8549 167.823 20.1466 168.807 20.8117L169.236 19.9597C169.412 19.6096 169.634 19.297 169.888 19.0226L173.01 20.4107C173.838 20.7787 174.741 20.7522 175.513 20.4177L173.712 24.4668C173.429 25.0759 172.71 25.3481 172.094 25.0742L167.654 23.0999H167.654L166.022 26.3354L166.014 26.3505C165.634 27.1052 165.961 28.0259 166.735 28.3699ZM167.773 24.2499L169.811 25.1757C169.555 25.7385 168.892 25.9875 168.329 25.7319C167.766 25.4762 167.517 24.8128 167.773 24.2499Z" fill="#10215F"/>
<path d="M168.329 25.7319C168.891 25.9876 169.555 25.7385 169.81 25.1758L167.772 24.25C167.517 24.8129 167.766 25.4763 168.329 25.7319Z" fill="white"/>
<path d="M187.632 26.3554L187.571 27.1775L190.19 27.3701H190.191L190.062 26.2993H190.061C190.054 26.2398 190.044 26.1803 190.027 26.1207L189.272 23.3761C189.034 22.5093 188.137 21.9999 187.271 22.2384C186.404 22.4769 185.894 23.373 186.133 24.2398C186.175 24.3929 186.239 24.5341 186.318 24.6627L186.317 24.6633L187.602 26.7478L187.631 26.3554H187.632Z" fill="#FB9A7D"/>
<path d="M190.193 27.3702L187.574 27.1776L187.635 26.3555H187.634L187.605 26.7478L187.574 27.1785L187.484 28.3945L190.342 28.6035L190.193 27.3702Z" fill="white"/>
<path d="M160.161 5.09435L160.021 5.90687L162.61 6.35005L162.611 6.35026L162.585 5.2721L162.584 5.272C162.583 5.21206 162.578 5.15182 162.567 5.09105L162.222 3.10352L162.151 2.6951L162.079 2.28647C162.015 1.91663 161.83 1.599 161.572 1.3643C161.213 1.03686 160.712 0.872007 160.197 0.961758C159.997 0.996524 159.813 1.06771 159.649 1.16509C159.083 1.49965 158.753 2.15845 158.872 2.84458C158.899 3.00098 158.949 3.14767 159.015 3.28333L159.014 3.28364L159.098 3.45448L159.287 3.83855L160.093 5.48194L160.16 5.09425L160.161 5.09435Z" fill="#FB9A7D"/>
<path d="M162.611 6.34955L160.023 5.90636L160.162 5.09385L160.161 5.09375L160.095 5.48144L160.022 5.90719L159.816 7.10893L162.641 7.59153L162.611 6.34955Z" fill="white"/>
<path d="M162.261 106.001L162.26 105.965H162.258L160.286 107.041C160.122 107.13 160.02 107.302 160.02 107.489C160.02 107.771 160.248 108 160.53 108H165.695V105.985L165.694 106.006L162.261 106.001Z" fill="#40327A"/>
<path d="M110.314 48.6406C110.709 44.862 110.497 40.6903 110.162 37.2915C109.88 34.4405 108.039 23.8212 108.398 19.1138C108.702 15.1306 111.278 11.3428 114.989 11.0441C119.346 10.6936 119.401 12.6422 119.401 12.6422C121.393 11.8096 125.689 13.7275 125.718 19.1134C125.739 23.2193 124.706 27.1745 123.624 31.8737C119.744 40.3328 112.249 47.8308 110.314 48.6406Z" fill="#10215F"/>
<path d="M122.961 13.5774C123.16 13.4072 123.32 13.168 123.408 12.8815C123.624 12.1726 123.318 11.4362 122.725 11.2408C122.697 11.2317 122.669 11.2239 122.64 11.2172C122.744 10.5577 122.633 9.96848 122.351 9.62977C122.536 9.56239 122.668 9.37927 122.668 9.16355C122.668 8.89003 122.455 8.66812 122.193 8.66812C121.93 8.66812 121.717 8.88998 121.717 9.16355C121.717 9.2214 121.727 9.27701 121.745 9.32867C121.522 9.32588 121.292 9.41856 121.078 9.58764C121.35 8.54624 121.334 7.57111 121.291 7.02231C121.279 6.86392 121.184 6.72684 121.043 6.66508C120.903 6.60273 120.742 6.62747 120.624 6.728C120.412 6.90945 120.128 7.17455 119.83 7.51722C119.643 6.13316 119.143 4.98676 118.819 4.35821C118.815 4.35142 118.812 4.34472 118.807 4.33854C119.003 4.20992 119.133 3.98299 119.133 3.72519C119.133 3.32523 118.82 3 118.436 3C118.052 3 117.739 3.32523 117.739 3.72519C117.739 3.98299 117.869 4.20936 118.064 4.33798C118.06 4.34472 118.057 4.35146 118.053 4.35821C117.729 4.98676 117.229 6.13376 117.042 7.51778C116.744 7.17511 116.459 6.90945 116.248 6.728C116.13 6.62747 115.969 6.60277 115.829 6.66508C115.688 6.72688 115.593 6.86392 115.58 7.02231C115.567 7.19473 115.556 7.40878 115.556 7.65421C115.556 8.18898 115.607 8.86975 115.793 9.58252C115.551 9.39326 115.289 9.30226 115.04 9.33537C115.06 9.28203 115.07 9.22414 115.07 9.1635C115.07 8.88998 114.857 8.66808 114.594 8.66808C114.331 8.66808 114.118 8.88993 114.118 9.1635C114.118 9.40731 114.287 9.60894 114.51 9.65051C114.24 9.99257 114.136 10.5711 114.238 11.2171C114.209 11.2233 114.181 11.2316 114.152 11.2407C113.689 11.3934 113.401 11.8776 113.401 12.4202C113.401 12.5713 113.423 12.7269 113.47 12.8814C113.557 13.1661 113.715 13.4043 113.912 13.574C113.576 13.9767 113.387 14.4311 113.387 14.9119V14.9158C113.387 15.0102 113.505 15.0433 113.552 14.963C114.122 13.9896 116.092 13.4549 118.436 13.4549C120.78 13.4549 122.751 13.9896 123.32 14.9636C123.366 15.0428 123.485 15.0085 123.485 14.9158V14.912C123.485 14.4329 123.297 13.9796 122.961 13.5774ZM118.063 3.72519C118.063 3.51114 118.23 3.33704 118.436 3.33704C118.642 3.33704 118.809 3.51119 118.809 3.72519C118.809 3.93918 118.642 4.11333 118.436 4.11333C118.23 4.11328 118.063 3.93918 118.063 3.72519ZM118.338 4.51771C118.366 4.46265 118.416 4.45646 118.436 4.45646C118.456 4.45646 118.505 4.46265 118.534 4.51771C118.87 5.16984 119.402 6.39887 119.544 7.86547C119.215 8.29068 118.892 8.80465 118.651 9.39722C118.574 9.58764 118.502 9.77802 118.436 9.96681C118.37 9.77806 118.299 9.58764 118.221 9.39722C117.98 8.80461 117.657 8.29119 117.328 7.86603C117.47 6.39942 118.002 5.16984 118.338 4.51771ZM114.138 13.3325C113.979 13.2022 113.849 13.0107 113.779 12.7792C113.617 12.2479 113.828 11.7014 114.251 11.562C114.269 11.5559 114.287 11.5508 114.306 11.5463C114.319 11.5963 114.333 11.6463 114.348 11.6968C114.474 12.1091 114.668 12.4793 114.905 12.7618C114.612 12.932 114.355 13.1236 114.138 13.3325ZM115.202 12.6018C114.971 12.3484 114.779 11.9963 114.657 11.5946C114.653 11.5823 114.649 11.5699 114.646 11.5576C114.721 11.5784 114.796 11.6126 114.867 11.6587C115.072 11.7929 115.23 12.0108 115.31 12.2737C115.336 12.358 115.352 12.4428 115.36 12.5265C115.306 12.5506 115.254 12.5759 115.202 12.6018ZM116.454 12.144C116.179 12.2142 115.917 12.2984 115.669 12.395C115.658 12.3203 115.641 12.2456 115.619 12.1714C115.516 11.8327 115.309 11.5491 115.038 11.3727C114.887 11.2749 114.727 11.216 114.564 11.1974C114.442 10.4644 114.613 9.81619 115 9.68808C115.046 9.67292 115.094 9.66562 115.142 9.66562C115.461 9.66562 115.826 9.9796 116.093 10.4615C116.094 10.4621 116.094 10.4627 116.094 10.4632C116.174 10.6082 116.245 10.7682 116.303 10.939C116.304 10.9395 116.304 10.9401 116.304 10.9406C116.315 10.9732 116.326 11.0058 116.336 11.0395C116.456 11.43 116.491 11.8193 116.454 12.144ZM117.252 11.9867C117.041 11.6665 116.82 11.2744 116.605 10.8144C116.527 10.6488 116.45 10.4746 116.374 10.2909C116.374 10.2904 116.374 10.2904 116.374 10.2904C116.364 10.2679 116.355 10.2454 116.346 10.2229C115.841 8.98103 115.852 7.70146 115.903 7.04988C115.907 7.00157 115.94 6.98134 115.955 6.97515C115.969 6.96897 116.006 6.95776 116.042 6.98864C116.289 7.19985 116.641 7.53238 116.994 7.97219C116.977 8.17777 116.968 8.38726 116.968 8.60019C116.968 9.80782 117.109 11.0548 117.38 11.9698C117.337 11.9749 117.294 11.9805 117.252 11.9867ZM118.267 10.4892C118.115 10.9947 118.013 11.4745 117.967 11.8946C117.966 11.9019 117.965 11.9098 117.964 11.9171C117.878 11.9216 117.792 11.9272 117.707 11.9351C117.694 11.8913 117.68 11.8457 117.667 11.7997C117.425 10.9476 117.292 9.81126 117.292 8.60023C117.292 8.52551 117.293 8.45138 117.295 8.37726C117.529 8.71537 117.749 9.10073 117.922 9.52877C118.054 9.85284 118.169 10.1758 118.267 10.4887V10.4892H118.267ZM118.436 11.9036C118.388 11.9036 118.34 11.9041 118.291 11.9053C118.32 11.6581 118.368 11.389 118.436 11.1059C118.504 11.389 118.552 11.6581 118.58 11.9053C118.532 11.9041 118.484 11.9036 118.436 11.9036ZM119.165 11.935C119.079 11.9272 118.994 11.9215 118.907 11.917C118.907 11.9097 118.906 11.9019 118.905 11.8946C118.859 11.4739 118.757 10.9942 118.606 10.488C118.702 10.1752 118.818 9.85274 118.949 9.52868C119.124 9.10007 119.343 8.71477 119.577 8.37661C119.58 8.45073 119.581 8.52546 119.581 8.60019C119.581 9.81122 119.447 10.9475 119.205 11.7997C119.192 11.8457 119.178 11.8912 119.165 11.935ZM120.29 10.7661C120.067 11.2475 119.838 11.6559 119.62 11.9872C119.577 11.9805 119.535 11.9749 119.492 11.9698C119.764 11.0548 119.904 9.80782 119.904 8.60019C119.904 8.38675 119.895 8.17721 119.879 7.97163C120.231 7.53182 120.583 7.19985 120.83 6.98864C120.848 6.97292 120.867 6.96785 120.883 6.96785C120.898 6.96785 120.91 6.97236 120.917 6.97515C120.931 6.98134 120.965 7.00157 120.969 7.04988C120.982 7.21557 120.992 7.42175 120.992 7.6571C120.992 8.34908 120.902 9.29668 120.526 10.2229C120.509 10.2623 120.493 10.3016 120.477 10.3404C120.476 10.3415 120.476 10.342 120.476 10.3431C120.416 10.488 120.353 10.6279 120.291 10.7616C120.291 10.7633 120.29 10.7644 120.29 10.7661ZM121.208 12.3973C120.961 12.3001 120.698 12.2158 120.423 12.1456C120.384 11.8103 120.424 11.4238 120.541 11.0396C120.557 10.9885 120.574 10.9385 120.591 10.8891C120.592 10.888 120.592 10.8869 120.593 10.8858C120.642 10.7504 120.699 10.6223 120.762 10.5038C120.762 10.5032 120.762 10.5032 120.762 10.5032C121.031 9.99769 121.408 9.66576 121.735 9.66576C121.784 9.66576 121.832 9.67306 121.878 9.68822C122.264 9.81629 122.435 10.4645 122.313 11.1976C122.152 11.2161 121.991 11.2751 121.84 11.3728C121.568 11.5492 121.362 11.8329 121.259 12.1716C121.236 12.2462 121.219 12.3214 121.208 12.3973ZM121.673 12.6034C121.622 12.5782 121.57 12.5534 121.517 12.5293C121.525 12.4439 121.542 12.3585 121.568 12.2737C121.648 12.0108 121.805 11.7929 122.011 11.6586C122.082 11.6125 122.156 11.5783 122.231 11.5575C122.228 11.5699 122.224 11.5823 122.221 11.5946C122.098 11.9967 121.906 12.3501 121.674 12.6034H121.673V12.6034ZM122.736 13.3354C122.52 13.1264 122.263 12.9348 121.971 12.7647C122.208 12.4816 122.403 12.1108 122.529 11.6969C122.544 11.6463 122.559 11.5964 122.572 11.5464C122.591 11.5509 122.609 11.5559 122.628 11.5621C122.953 11.6694 123.154 12.0199 123.154 12.4181C123.154 12.5361 123.136 12.658 123.099 12.7793C123.028 13.0124 122.897 13.205 122.736 13.3354Z" fill="#E6427A"/>
<path d="M117.154 12.7441C116.28 12.847 115.677 12.4675 115.323 12.1289C115.294 12.0562 115.265 11.9828 115.237 11.9087C115.128 11.7721 115.074 11.6753 115.074 11.6753C115.074 11.6753 106.932 17.5537 107.107 18.1795C107.275 18.7834 114.946 25.7687 116.564 25.8405C116.599 26.0165 117.555 27.6657 117.555 27.6657C117.555 27.6657 114.51 27.9361 115.046 29.6921C115.18 30.3835 115.299 31.0781 115.378 31.7805C114.373 31.6305 113.232 29.761 112.251 29.1326C110.367 27.9273 102.966 19.743 103.221 17.7664C103.466 15.865 112.951 9.73442 114.384 9.59236C114.382 9.5891 114.381 9.58515 114.38 9.58203C115.186 9.93963 115.148 10.9799 116.458 11.0453C117.768 11.1109 118.406 11.1415 118.406 11.1415C118.406 11.1415 118.744 12.5561 117.154 12.7441Z" fill="#FDBB6F"/>
<path d="M140.55 109.588L104.974 109.578C104.504 108.444 106.74 104.504 108.398 102.13C111.753 97.3242 110.142 81.5312 110.073 79.2467C110.073 79.2467 108.564 61.7406 108.446 60.1862C108.336 58.7384 108.417 56.9611 108.642 55.1901C108.96 52.6766 109.564 50.1754 110.314 48.6408C110.443 48.3756 110.577 48.1391 110.715 47.9368C110.715 47.9361 110.715 47.9361 110.715 47.9354C110.732 47.8998 111.165 47.0447 111.752 46.0159H111.753C111.754 46.0132 111.756 46.0098 111.758 46.007C111.958 45.6564 112.178 45.2845 112.404 44.9188C112.592 44.6167 112.785 44.3104 112.974 44.0138C113.015 43.9502 113.055 43.8873 113.095 43.8251C113.815 42.702 114.45 41.7594 114.476 41.7211L114.477 41.7197C114.477 41.7197 114.588 40.6247 113.26 35.6291C112.89 34.2394 113.637 32.1648 113.934 31.4273C113.938 31.4177 113.941 31.4088 113.945 31.3999C114.008 31.2441 114.049 31.1546 114.049 31.1546C114.049 31.1546 116.213 25.9499 117.035 25.8672C118.35 25.8672 116.582 35.4761 118.239 35.4761C118.936 35.4761 121.05 25.8084 122.625 26.0394C122.627 26.0394 122.629 26.0401 122.631 26.0401L122.634 26.0518L124.559 33.3078C124.559 33.3078 124.559 33.3085 124.558 33.3105C124.496 33.4801 121.557 41.4272 121.891 42.3629C122.396 43.7854 122.931 45.8211 123.279 47.2272V47.2279C123.323 47.4042 123.364 47.5711 123.401 47.7248C123.413 47.7727 123.424 47.8192 123.435 47.8643C123.448 47.919 123.461 47.9723 123.472 48.0229C123.483 48.0659 123.493 48.1076 123.502 48.148C123.504 48.1548 123.506 48.1623 123.507 48.1692C123.517 48.2129 123.528 48.2553 123.537 48.2949C123.547 48.3353 123.556 48.3735 123.564 48.4091C123.57 48.4337 123.576 48.457 123.58 48.4789C123.585 48.4953 123.588 48.511 123.592 48.5267C123.595 48.539 123.597 48.5513 123.6 48.5629C123.606 48.5862 123.611 48.6081 123.615 48.6286C123.618 48.6388 123.62 48.6491 123.622 48.6586C123.631 48.6963 123.638 48.7277 123.644 48.7529C123.647 48.7687 123.651 48.7817 123.653 48.7919C123.658 48.8152 123.661 48.8275 123.661 48.8275V48.8282C123.661 48.8282 123.889 49.1242 124.241 49.9C124.352 50.1433 124.475 50.4346 124.607 50.7777V50.7784C127.365 61.4467 139.767 102.475 140.55 109.588Z" fill="#E6427A"/>
<path d="M124.238 49.8973C124.192 49.8607 123.357 49.2004 122.673 49.3926C120.87 49.8987 120.203 49.7056 120.203 49.7056C120.203 49.7056 120.206 49.7051 120.213 49.7051C120.22 49.7051 120.227 49.7047 120.234 49.7037C120.238 49.7033 120.242 49.7033 120.246 49.7028C120.541 49.6699 121.403 49.3463 122.098 49.1267L122.154 49.1096L122.298 49.0656L122.346 49.0513C122.622 48.9707 122.85 48.9179 122.972 48.9244C122.972 48.9244 122.972 48.9244 122.973 48.9244C123.02 48.9457 123.084 48.9753 123.16 49.0114C123.487 49.2388 124.202 49.8654 124.238 49.8973Z" fill="#95BDEF"/>
<path d="M134.559 43.1781C134.503 44.9622 124.987 50.1949 124.655 50.1354C124.611 50.1272 124.553 50.1019 124.485 50.063C124.413 50.0213 124.33 49.9652 124.239 49.8989C124.239 49.8989 124.238 49.8982 124.237 49.8976C124.2 49.8654 123.487 49.2393 123.158 49.0117C123.098 48.97 123.051 48.9419 123.024 48.9331C123.009 48.9283 122.992 48.9255 122.972 48.9249C122.971 48.9249 122.971 48.9249 122.971 48.9249C122.849 48.918 122.621 48.9707 122.345 49.0513L122.297 49.0657C122.25 49.0801 122.202 49.0944 122.153 49.1101L122.097 49.1272C121.402 49.3467 120.54 49.67 120.245 49.7028C120.241 49.7035 120.237 49.7035 120.233 49.7041C120.226 49.7048 120.218 49.7055 120.212 49.7055C120.205 49.7055 120.202 49.7055 120.202 49.7055C119.815 49.7055 121.143 47.2085 121.917 46.9706C122.307 46.8509 122.879 47.0471 123.416 47.2727C123.418 47.2775 123.418 47.2823 123.42 47.287C123.893 47.4915 124.32 47.6972 124.544 47.6972C125.043 47.6972 127.034 45.6164 127.754 44.9028C128.473 44.1892 130.962 41.3346 130.962 41.3346C130.962 41.3346 126.019 33.1427 125.706 33.0095C124.766 32.6109 124.557 33.3068 124.557 33.3068L122.632 26.0508C122.642 26.0645 122.652 26.0747 122.663 26.0809C123.327 26.4684 125.195 26.2244 126.425 26.5751C128.307 27.1096 134.614 41.394 134.559 43.1781Z" fill="#FDBB6F"/>
<path d="M122.094 21.1299C122.092 21.1094 122.09 21.0882 122.089 21.067C122.089 21.0663 122.089 21.0663 122.089 21.0663C121.994 19.7682 121.882 18.4352 121.727 17.36C121.296 16.1138 120.431 15.0174 118.738 14.8711C118.738 14.8711 117.898 17.5028 116.346 18.4865C116.355 19.2616 116.392 19.9568 116.469 20.3383C116.856 22.2475 118.24 22.6036 118.24 22.6036C118.24 22.6036 118.33 23.2168 118.398 23.9126C118.482 24.7609 118.562 25.7876 118.35 25.8669C118.286 25.8909 117.351 25.8744 117.244 25.871C117.244 25.871 116.979 25.8514 116.565 25.8409C116.493 26.0804 116.418 26.3186 116.336 26.5547C116.609 26.151 116.855 25.8851 117.036 25.8669C118.35 25.8669 116.582 35.4757 118.24 35.4757C118.937 35.4757 121.05 25.8081 122.625 26.0391C122.386 25.6803 122.265 23.4704 122.094 21.1299Z" fill="#FDBB6F"/>
<path d="M120.451 21.5332C120.286 23.2282 118.397 23.9128 118.397 23.9128C118.328 23.217 118.238 22.6036 118.238 22.6036C119.76 22.6928 120.451 21.5332 120.451 21.5332Z" fill="#FDBB6F"/>
<path d="M33.5438 15.0049C32.4959 14.8406 32.6607 18.8581 32.1642 18.8026C31.6678 18.7477 31.516 17.5089 31.1303 17.2886C30.7436 17.0683 30.5357 17.1512 30.5357 17.1512C30.5357 17.1512 30.949 18.9494 31.0051 19.8475C31.0477 20.5159 31.9434 21.6088 31.9434 21.6088C31.9434 21.6088 28.9228 34.2277 28.3011 34.486C26.664 35.1683 23.4851 37.1583 19.959 37.7972C19.9555 37.7982 19.952 37.7987 19.948 37.7987C19.8758 37.8117 19.8034 37.8237 19.731 37.8356C18.8017 39.0946 18.8004 41.1981 19.2681 42.6933C19.3919 43.0892 19.5517 43.4631 19.7428 43.8126C24.108 42.0136 31.2887 38.7896 32.1116 36.7402C33.2984 33.7877 33.9856 23.1068 34.3719 22.2811C34.7581 21.456 34.5923 15.1702 33.5438 15.0049Z" fill="#C67256"/>
<path d="M18.7338 119H14.1778C13.8553 118.652 13.1704 117.913 12.5905 117.268L12.4434 119H11.7107L11.6042 116.008L11.5977 115.838C11.5991 115.818 11.5998 115.798 11.602 115.778C11.6825 114.902 12.6652 113.623 12.7928 113.461C12.8015 113.449 12.8066 113.443 12.8066 113.443C12.8066 113.443 12.8131 113.443 12.8261 113.446C12.8413 113.45 12.8653 113.459 12.8964 113.477C13.0487 113.56 13.3878 113.863 13.8756 114.944C14.2996 115.883 14.9186 116.917 15.4324 117.139C15.7854 117.292 16.3355 117.269 16.6435 117.238C16.6595 117.237 16.6754 117.235 16.6899 117.234C16.6914 117.234 16.6921 117.233 16.6935 117.233C16.7704 117.225 16.8268 117.217 16.8544 117.213C16.8624 117.212 16.8675 117.211 16.8711 117.211L16.874 117.21C16.874 117.21 18.7671 118.004 18.7779 118.281C18.7853 118.46 18.7563 118.788 18.7338 119Z" fill="#1C265E"/>
<path d="M16.8765 117.21L16.8736 117.211L16.8569 117.213L16.696 117.233C16.6946 117.233 16.6939 117.234 16.6924 117.234C16.6779 117.235 16.662 117.237 16.6461 117.238C16.3381 117.268 15.7879 117.291 15.435 117.139C14.9211 116.917 14.3021 115.883 13.8782 114.944C13.3904 113.863 13.0512 113.56 12.8989 113.476C12.8678 113.458 12.8439 113.45 12.8287 113.446C12.8157 113.443 12.8091 113.443 12.8091 113.443C12.8091 113.443 12.804 113.449 12.7954 113.46C12.8569 113.306 12.9193 113.155 12.9794 113.011C13.1251 112.661 12.6634 109.36 12.1641 105.637L16.1358 105.621C15.5995 110.008 15.6075 113.114 15.7735 113.859C16.13 115.457 16.8765 117.21 16.8765 117.21Z" fill="#C67256"/>
<path d="M22.0012 48.5276C21.4206 49.1433 20.8024 51.7018 20.7198 53.5461C20.714 53.5353 20.7082 53.5237 20.7016 53.5129L12.9704 53.4854C12.9711 53.4847 12.9711 53.4847 12.9711 53.484C13.003 53.3799 13.024 53.2571 13.0356 53.1191C13.2175 50.9039 10.5742 43.916 10.5742 43.916C10.5742 43.916 13.6618 42.097 15.6557 41.7529C16.279 41.6453 21.4402 41.7529 21.4402 41.7529C21.4402 41.7529 22.3005 42.639 22.6839 43.2323C23.9197 45.1439 22.7528 47.7326 22.0012 48.5276Z" fill="url(#paint0_linear_4149_29380)"/>
<path d="M20.6453 53.5121L12.9688 53.4843V52.6074H20.7818L20.6453 53.5121Z" fill="#1C265E"/>
<path d="M24.9916 105.586L16.1318 105.621L12.16 105.637L7.125 105.656C7.125 105.656 9.24208 68.347 9.31312 66.1116C9.52618 59.4483 12.8044 53.4844 12.8044 53.4844L20.6988 53.5126C22.1411 56.0905 23.0586 61.8592 23.387 68.6094C23.7747 76.5946 24.9916 105.586 24.9916 105.586Z" fill="white"/>
<path d="M3.87109 97.2571H28.6752C28.6752 97.2571 26.0462 76.3154 24.8391 68.4164C23.7735 61.4432 22.1442 56.0908 20.7018 53.5126L12.8077 53.4844C12.8077 53.4844 9.23607 58.7445 7.55867 66.0689C6.81679 69.3083 3.87109 97.2571 3.87109 97.2571Z" fill="white"/>
<path d="M31.5606 91.2332H1.10156C1.10156 91.2332 6.40556 69.314 7.12162 66.0683C9.63589 54.6798 12.8068 53.4844 12.8068 53.4844L12.9699 53.4851L20.7011 53.5125C20.7077 53.5234 20.7135 53.5349 20.7193 53.5458C22.1638 56.1338 24.4874 61.1733 26.856 68.4164C29.3355 75.9955 31.5606 91.2332 31.5606 91.2332Z" fill="url(#paint1_linear_4149_29380)"/>
<path d="M4.5191 91.1934H27.9032L27.9885 91.8608H4.42969L4.5191 91.1934Z" fill="#CEDBFD"/>
<path d="M7.60363 97.2578L24.6477 97.2148V97.9145L7.5625 97.9867L7.60363 97.2578Z" fill="#D3DFFD"/>
<path d="M16.2719 54.3933C16.3265 54.8041 12.1137 55.0311 11.1184 54.9699C10.7462 54.9467 10.1686 54.7242 8.2825 54.3802C5.12129 53.8037 0.446895 52.6085 0.00573878 50.9411C-0.211094 50.1214 5.77933 41.947 7.34096 39.9893C8.75237 38.2199 9.79961 37.8836 11.1183 37.802C12.9423 37.5954 13.3953 37.1503 13.9065 35.319C14.0998 34.6254 14.2557 33.7589 14.2705 32.6546C14.3303 28.1174 14.7932 24.7421 16.4618 24.3372C16.4691 24.335 16.4765 24.3333 16.4843 24.3317C16.518 24.3245 16.5516 24.3173 16.5849 24.3105C16.6136 24.3182 16.6476 24.3279 16.687 24.3397C17.3204 24.5269 19.2426 25.226 19.6168 26.879C19.7177 27.3249 19.7661 27.7941 19.7661 28.27C19.7661 28.2848 19.7661 28.2992 19.7658 28.3139C19.7448 29.9298 19.1663 31.6056 18.171 32.6546C17.6971 33.1534 17.5268 33.7392 17.5314 34.4095C17.5293 34.7755 17.5806 35.1669 17.6639 35.5832C17.8035 36.2813 17.6894 36.953 18.4048 37.2909C18.9655 37.5558 19.6386 37.5442 20.1665 37.8854C20.9652 38.4016 21.4554 39.698 21.5013 40.604C21.5163 40.8996 21.6546 41.4433 21.3956 41.6605C21.2042 41.821 20.7947 41.7414 20.5628 41.7377C19.9439 41.7282 19.3251 41.7186 18.7063 41.7128C17.7203 41.7035 16.6323 41.5855 15.6552 41.7539C13.6612 42.0975 10.5742 43.9167 10.5742 43.9167C10.3925 43.9915 5.29584 49.4365 4.82817 49.7534C4.53439 49.9529 6.45886 50.7183 9.03542 51.8206C10.8522 52.5978 11.9956 53.5281 11.9956 53.5281C11.9956 53.5281 13.7098 52.9212 14.8606 52.9212C16.2719 52.9212 16.2177 53.9825 16.2719 54.3933Z" fill="#C67256"/>
<path d="M15.4609 31.6719C15.6416 33.7921 17.6649 35.5337 17.6649 35.5337C17.4329 34.3763 17.4497 33.4135 18.1719 32.6528C17.0271 33.5256 15.4609 31.6719 15.4609 31.6719Z" fill="#C67256"/>
<path d="M20.573 28.9762C20.3819 29.0907 20.1909 29.1525 20.0144 29.1208C19.313 28.9948 19.7588 27.5116 19.6156 26.879C19.2414 25.226 17.3192 24.5268 16.6858 24.3397C16.6464 24.3278 16.6124 24.3181 16.5836 24.3105C16.5188 24.2927 16.4831 24.2843 16.4831 24.2843L16.477 24.2632L16.4601 24.3371C15.6966 24.5223 15.185 25.3304 14.8498 26.5886C14.8489 26.5903 14.8485 26.5924 14.8481 26.5941C14.7546 26.9453 14.6754 27.3304 14.6077 27.7471C14.3878 29.0988 14.2943 30.7771 14.2696 32.6548C14.2468 34.3152 13.8995 35.7013 12.2478 36.4517C11.1062 36.9702 9.6746 36.475 8.85512 35.5547C8.13599 34.747 7.94558 33.5924 8.29502 32.5794C8.48987 32.0145 8.84599 31.5203 9.29901 31.1326C9.45307 31.0008 11.25 30.4365 11.2496 30.4426C10.7745 28.2467 10.4282 26.8767 11.5425 24.9957C12.2317 23.8321 13.1027 23.2383 14.0051 23.0209C14.6841 22.8571 15.4417 23.0999 16.0723 22.9506C16.6691 22.8093 17.2335 22.2401 17.8406 22.025C19.0485 21.5971 20.5368 21.558 21.4278 22.6261C22.5979 24.0287 23.0088 26.3128 21.813 27.7332C21.5677 28.0245 21.07 28.6784 20.573 28.9762Z" fill="#1C265E"/>
<path d="M13.8352 34.8851H14.5679C14.6853 34.8851 14.7746 34.7424 14.7556 34.5856L14.3683 31.3527C14.3622 31.3015 14.3475 31.2594 14.3275 31.2267C14.4724 31.1745 14.576 31.0347 14.576 30.8703C14.576 30.6614 14.4083 30.4922 14.2015 30.4922C13.9943 30.4922 13.8266 30.6614 13.8266 30.8703C13.8266 31.022 13.915 31.1528 14.0428 31.2129C14.0167 31.2484 13.9986 31.2967 13.992 31.3574L13.6465 34.5898C13.6299 34.7458 13.7188 34.8851 13.8352 34.8851Z" fill="white"/>
<path d="M222.871 92.573C222.731 93.6758 222.057 106.26 222.202 106.612C222.263 106.76 222.326 106.916 222.389 107.073C222.38 107.062 222.376 107.056 222.376 107.056C222.376 107.056 222.369 107.056 222.355 107.059C222.339 107.063 222.315 107.072 222.284 107.09C222.129 107.177 221.784 107.488 221.287 108.598C220.857 109.563 220.227 110.625 219.705 110.853C219.345 111.01 218.786 110.986 218.473 110.955C218.457 110.953 218.44 110.952 218.422 110.95L218.248 110.927L218.238 110.926C219.357 109.043 220.005 106.365 220.075 105.709C220.635 100.46 216.945 83.603 216.888 83.4205C216.643 82.233 216.343 80.7404 216.032 79.1447C215.703 77.4579 214.369 74.9624 215.05 73.3002C215.98 71.0316 218.186 69.3532 220.006 67.8193C222.111 66.0455 223.685 64.3132 225.183 61.966C225.756 61.0672 226.489 59.6196 227.478 59.2402C227.095 61.7678 226.802 64.5149 227.143 67.0533C227.398 68.9459 227.868 71.3926 226.547 73.0847C225.427 74.5202 223.787 75.5541 222.54 76.8806C220.893 78.633 220.694 79.3254 221.709 81.4136C222.774 83.6179 223.315 85.8178 223.245 88.2825C223.208 89.5972 223.065 91.0412 222.871 92.573Z" fill="#8B4F2F"/>
<path d="M226.682 37.2155C226.188 36.8057 225.692 36.398 225.191 35.9953C223.492 34.6269 221.77 33.0418 219.893 31.9135C219.558 31.7123 214.246 16.616 214.008 16.3017C213.77 15.9879 211.55 15 211.55 15C211.55 15 211.509 15.1151 211.417 15.5452C211.324 15.9753 213.127 16.4576 212.895 16.9547C212.822 17.1113 209.019 15.3873 209.019 15.3873C209.019 15.3873 208.855 17.4452 209.488 17.9085C210.12 18.3721 212.876 19.4929 213.089 19.5472C213.302 19.6015 215.376 32.3479 215.791 33.362C216.106 34.1323 217.019 34.8428 217.58 35.4251C218.777 36.6672 220.01 37.8742 221.249 39.0746C222.338 40.1306 224.669 43.0847 225.954 43.8649C227.035 44.5204 229.781 43.4065 230.566 42.1319C232.264 39.3727 228.38 38.6285 227.048 37.5202C226.926 37.4185 226.804 37.317 226.682 37.2155Z" fill="#8B4F2F"/>
<path d="M229.972 121.841H234.606C234.934 121.484 235.63 120.595 236.22 119.932L236.37 121.841H237.115L237.223 118.637L237.23 118.462C237.229 118.442 237.227 118.422 237.225 118.402C237.144 117.5 236.144 116.186 236.014 116.02C236.005 116.008 236.001 116.002 236.001 116.002C236.001 116.002 235.993 116.002 235.98 116.005C235.965 116.009 235.941 116.018 235.909 116.036C235.754 116.123 235.409 116.434 234.913 117.545C234.482 118.509 233.852 119.572 233.33 119.8C232.97 119.957 232.411 119.932 232.098 119.901C232.082 119.9 232.066 119.898 232.051 119.897C232.05 119.896 232.048 119.896 232.047 119.896C231.958 119.887 231.896 119.878 231.873 119.874C231.867 119.873 231.863 119.872 231.863 119.872C231.863 119.872 229.939 120.688 229.927 120.973C229.92 121.157 229.949 121.624 229.972 121.841Z" fill="#2A2861"/>
<path d="M236.495 101.519C236.355 102.622 236.291 103.701 236.332 104.723C236.285 105.969 236.623 106.754 236.879 107.822C236.383 111.548 235.681 115.206 235.826 115.558C235.887 115.706 235.95 115.861 236.014 116.019C236.004 116.008 236 116.001 236 116.001C236 116.001 235.993 116.001 235.979 116.005C235.963 116.009 235.94 116.018 235.908 116.035C235.753 116.122 235.408 116.434 234.911 117.544C234.481 118.509 233.851 119.571 233.329 119.799C232.969 119.956 232.41 119.931 232.097 119.901C232.081 119.899 232.065 119.898 232.05 119.896H232.046L231.872 119.873L231.862 119.872C232.981 117.988 233.629 115.311 233.699 114.655C234.26 109.406 230.569 92.5488 230.512 92.3663C230.267 91.1788 229.968 89.6862 229.656 88.0904C229.605 87.8248 229.553 87.5544 229.5 87.2841C229.462 87.0846 229.423 86.8844 229.385 86.6826C229.205 85.7508 229.026 84.805 228.855 83.8809C228.879 83.9624 228.905 84.0449 228.93 84.1273C228.953 84.1997 228.976 84.2721 228.999 84.3445C229.012 84.3815 229.023 84.4177 229.035 84.4547C229.051 84.5024 229.067 84.5493 229.083 84.5971C229.138 84.7581 229.195 84.9198 229.256 85.0816C229.273 85.1301 229.292 85.1779 229.31 85.2264C229.367 85.3735 229.425 85.5206 229.487 85.6677C229.507 85.7146 229.527 85.7617 229.548 85.8094C229.582 85.8895 229.617 85.9696 229.653 86.0497C229.69 86.1298 229.727 86.2091 229.765 86.2884C229.84 86.4471 229.919 86.6042 230.001 86.759C230.036 86.8268 230.073 86.8946 230.111 86.9615C230.117 86.9731 230.123 86.9839 230.129 86.9946C230.211 87.1402 230.295 87.2834 230.383 87.4244C230.393 87.4414 230.403 87.4575 230.414 87.4737C230.453 87.5353 230.494 87.5969 230.534 87.6577C230.58 87.7278 230.628 87.7971 230.676 87.8657C230.727 87.938 230.779 88.0089 230.832 88.0782C230.884 88.1468 230.936 88.2138 230.99 88.2801C231.016 88.3139 231.044 88.3471 231.071 88.3802C231.095 88.4079 231.118 88.4356 231.141 88.4626C231.172 88.4988 231.204 88.5342 231.236 88.5696C231.289 88.6297 231.344 88.689 231.4 88.7467C231.46 88.8099 231.522 88.8708 231.584 88.9308C231.614 88.9593 231.644 88.9878 231.675 89.0155C231.891 89.2142 232.119 89.3945 232.36 89.5531C232.422 89.5939 232.486 89.634 232.55 89.6717C232.582 89.6909 232.615 89.7094 232.647 89.7279C232.67 89.741 232.693 89.7541 232.716 89.7664C232.761 89.7903 232.805 89.8134 232.85 89.8365C232.881 89.8518 232.913 89.8673 232.944 89.8819C232.977 89.8981 233.01 89.9127 233.043 89.9273C233.046 89.9288 233.048 89.9296 233.05 89.9304C233.078 89.9435 233.107 89.9559 233.135 89.9674C233.164 89.9798 233.194 89.9913 233.223 90.0028C233.262 90.0182 233.3 90.0329 233.34 90.0467C233.418 90.0752 233.497 90.1014 233.577 90.1253C236.26 90.9286 236.971 93.5848 236.869 97.2284C236.832 98.543 236.69 99.987 236.495 101.519Z" fill="#8B4F2F"/>
<path d="M236.869 97.2282C236.773 94.2408 235.939 92.0991 233.577 91.3921C231.521 90.7767 230.209 88.7551 229.385 86.6826C229.205 85.7508 229.026 84.805 228.855 83.8809C228.879 83.9624 228.905 84.0449 228.93 84.1273C228.953 84.1997 228.976 84.2721 228.999 84.3445C229.012 84.3815 229.023 84.4177 229.035 84.4547C229.051 84.5016 229.067 84.5493 229.083 84.5971C229.137 84.7581 229.195 84.9198 229.256 85.0816C229.273 85.1301 229.292 85.1779 229.31 85.2264C229.367 85.3735 229.425 85.5206 229.487 85.6677C229.507 85.7146 229.527 85.7624 229.548 85.8094C229.582 85.8895 229.617 85.9696 229.653 86.0497C229.69 86.1298 229.727 86.2091 229.765 86.2884C229.839 86.4471 229.918 86.6042 230.001 86.759C230.036 86.8276 230.073 86.8946 230.111 86.9615C230.117 86.9731 230.123 86.9839 230.129 86.9946C230.21 87.1402 230.295 87.2842 230.383 87.4244C230.393 87.4414 230.403 87.4575 230.414 87.4737C230.453 87.5353 230.493 87.5969 230.534 87.6577C230.58 87.7278 230.627 87.7971 230.676 87.8657C230.727 87.938 230.779 88.0089 230.832 88.0782C230.883 88.1468 230.936 88.2138 230.99 88.2801C231.016 88.3139 231.044 88.3471 231.071 88.3802C231.094 88.4079 231.118 88.4356 231.141 88.4626C231.172 88.4988 231.204 88.5342 231.236 88.5696C231.289 88.6297 231.344 88.689 231.4 88.7467C231.46 88.8099 231.522 88.8708 231.584 88.9308C231.614 88.9593 231.644 88.9878 231.675 89.0155C231.891 89.2142 232.119 89.3945 232.36 89.5531C232.423 89.5939 232.486 89.634 232.55 89.6717C232.582 89.6909 232.615 89.7094 232.647 89.7279C232.67 89.741 232.693 89.7541 232.716 89.7664C232.761 89.7903 232.805 89.8134 232.85 89.8365C232.881 89.8518 232.913 89.8673 232.944 89.8819C232.977 89.8981 233.01 89.9127 233.043 89.9273C233.046 89.9288 233.048 89.9296 233.05 89.9304C233.078 89.9435 233.107 89.955 233.135 89.9674C233.164 89.9798 233.194 89.9913 233.223 90.0028C233.262 90.0182 233.3 90.0329 233.34 90.0467C233.418 90.0752 233.497 90.1014 233.577 90.1253C236.26 90.9284 236.971 93.5847 236.869 97.2282Z" fill="#8B4F2F"/>
<path d="M263.857 121.95C263.857 121.95 248.088 122.64 246.213 118.922C244.778 116.077 245.123 112.217 242.139 111.841C236.814 111.169 235.851 106.582 236.494 101.52C237.228 95.7455 237.228 91.2193 233.576 90.1265C231.788 89.5915 230.723 88.0919 229.906 86.5153C229.039 84.8414 228.731 84.8264 227.291 83.8143C225.476 82.5382 225.084 80.2908 224.113 78.4497C223.277 76.8644 221.474 75.8257 220.157 74.6524C219.408 73.9854 218.652 73.1941 217.755 72.7234C217.469 72.5735 216.117 72.3436 216.02 72.0369C215.764 71.2255 218.638 68.7975 219.265 68.2691C220.666 67.0887 222.359 64.9261 223.588 63.5549C226.009 60.8545 228.108 58.2918 227.788 54.4906C227.627 52.5822 227.245 49.9439 226.649 49.3063C226.404 49.0445 226.116 48.5939 225.879 48.0379C225.398 46.9096 225.126 45.3477 225.846 44.047C225.88 43.9854 225.916 43.9252 225.955 43.8652C226.338 43.2653 227.193 42.3734 227.22 42.3457L228.807 43.6288C228.807 43.6288 229.636 43.0542 231.013 42.844C231.475 42.7731 231.999 42.7431 232.574 42.7901C234.625 42.9572 237.954 45.4132 237.954 45.4132C237.954 45.4132 235.279 52.5579 235.833 54.3986C235.833 54.3986 236.458 55.0408 237.229 56.2354C237.629 56.853 238.068 57.6193 238.481 58.5204C239.302 60.3156 240.018 62.6476 240.106 65.4171C240.178 67.7136 240.703 72.6395 240.995 75.6023C244.046 106.639 263.857 121.95 263.857 121.95Z" fill="url(#paint2_linear_4149_29380)"/>
<path d="M227.803 54.4276L235.831 54.399V53.498H227.664L227.803 54.4276Z" fill="#B72F2F"/>
<path d="M248.917 50.795C248.863 52.9599 239.083 58.8238 238.48 58.5188H238.479C237.883 58.2085 236.854 57.2719 236.15 57.3305C235.446 57.389 234.091 57.5646 234.091 57.5646C234.091 57.5646 234.11 55.9458 235.831 56.0436C236.341 56.0721 236.833 56.1522 237.228 56.2338C237.752 56.3416 238.106 56.4525 238.106 56.4525C238.106 56.4525 245.33 50.5971 245.201 50.249C244.853 49.3125 239.223 45.0205 239.223 45.0205C238.443 44.3181 238.06 45.3863 237.953 45.4117C237.953 45.4117 234.624 42.9557 232.573 42.7886C231.998 42.7415 231.474 42.7716 231.012 42.8425C229.635 43.0527 228.806 43.6272 228.806 43.6272L227.219 42.3442C227.219 42.3442 227.219 42.3442 227.218 42.3449C227.192 42.3718 226.337 43.2637 225.953 43.8636C225.915 43.9237 225.879 43.9838 225.845 44.0453C225.834 42.9718 225.821 41.9614 225.809 41.1088C225.787 39.5892 226.663 38.2245 227.988 37.7147L230.659 36.6866L230.76 36.5218L230.727 34.4316L230.7 32.6964C230.699 32.6964 230.699 32.6964 230.699 32.6964C230.649 32.6964 229.075 32.7149 228.717 32.6163C228.353 32.5162 227.7 29.126 227.817 27.9916C227.9 27.1937 228.173 25.8952 228.623 24.9141C228.925 24.6345 229.468 24.3904 230.333 24.8332C231.783 25.5764 232.297 28.7594 232.297 28.7594C232.297 28.7594 232.889 27.2892 233.76 27.5865C234.631 27.8853 233.575 29.7013 233.701 30.4892C233.895 31.7099 235.032 32.7234 235.032 32.7234C235.032 32.7234 234.921 35.3072 235.175 36.3893C235.482 37.1394 237.452 37.7894 239.223 38.3647C241.147 38.9886 248.971 48.6301 248.917 50.795Z" fill="#8B4F2F"/>
<path d="M230.699 32.697L230.727 34.4325C231.33 33.986 232.318 32.9878 232.597 31.1191C232.597 31.1191 231.745 32.5185 230.699 32.697Z" fill="#8B4F2F"/>
<path d="M228.625 24.9152C228.927 24.6352 229.469 24.3907 230.335 24.834C231.785 25.5771 232.299 28.7605 232.299 28.7605C232.299 28.7605 232.891 27.2893 233.761 27.5881C234.633 27.8864 233.577 29.702 233.702 30.4894C233.897 31.7105 235.034 32.724 235.034 32.724C235.071 32.6906 235.109 32.6571 235.145 32.6229C235.145 32.6229 235.146 32.6224 235.146 32.622C235.304 32.4765 235.453 32.328 235.594 32.1769C237.728 29.8879 237.95 27.0432 237.124 25.7135C236.88 25.3213 236.664 24.9904 236.474 24.7125C236.474 24.7125 238.398 24.3217 238.813 25.8741C239.228 27.4266 236.546 30.9297 238.398 33.8922C239.356 35.4251 240.063 36.7453 238.481 40.604C236.35 45.802 244.246 46.2293 244.246 46.2293C244.246 46.2293 242.982 43.3827 245.396 41.5715C247.551 39.9547 247.532 36.0295 245.396 34.6425C243.784 33.596 241.387 31.4803 242.982 28.3754C244.576 25.2705 242.218 21.2168 239.225 20.8715C236.232 20.5267 235.337 23.2955 235.337 23.2955C234.973 23.1952 231.478 21.8229 229.288 23.9039C229.036 24.1431 228.815 24.5005 228.625 24.9152Z" fill="#201F39"/>
<path d="M216.347 112.894H220.981C221.309 112.537 222.005 111.647 222.595 110.985L222.745 112.894H223.49L223.598 109.69L223.605 109.515C223.604 109.495 223.602 109.474 223.6 109.454C223.519 108.553 222.519 107.239 222.389 107.072C222.38 107.061 222.376 107.055 222.376 107.055C222.376 107.055 222.368 107.055 222.355 107.058C222.34 107.062 222.316 107.071 222.284 107.089C222.129 107.175 221.784 107.487 221.288 108.598C220.857 109.562 220.227 110.625 219.705 110.853C219.345 111.009 218.786 110.985 218.473 110.954C218.457 110.952 218.441 110.951 218.426 110.949C218.424 110.949 218.423 110.949 218.422 110.949C218.333 110.939 218.271 110.93 218.248 110.926C218.242 110.925 218.238 110.925 218.238 110.925C218.238 110.925 216.314 111.74 216.302 112.025C216.295 112.209 216.324 112.676 216.347 112.894Z" fill="#2A2861"/>
<defs>
<linearGradient id="paint0_linear_4149_29380" x1="16.8994" y1="56.6706" x2="16.8994" y2="38.9595" gradientUnits="userSpaceOnUse">
<stop stop-color="white"/>
<stop offset="0.1841" stop-color="#FAFCFE"/>
<stop offset="0.3992" stop-color="#ECF1FC"/>
<stop offset="0.6297" stop-color="#D5E0F7"/>
<stop offset="0.8695" stop-color="#B4C9F2"/>
<stop offset="1" stop-color="#9FBAEE"/>
</linearGradient>
<linearGradient id="paint1_linear_4149_29380" x1="16.3321" y1="91.3567" x2="16.0248" y2="53.4583" gradientUnits="userSpaceOnUse">
<stop stop-color="white"/>
<stop offset="0.1841" stop-color="#FAFCFE"/>
<stop offset="0.3992" stop-color="#ECF1FC"/>
<stop offset="0.6297" stop-color="#D5E0F7"/>
<stop offset="0.8695" stop-color="#B4C9F2"/>
<stop offset="1" stop-color="#9FBAEE"/>
</linearGradient>
<linearGradient id="paint2_linear_4149_29380" x1="216.004" y1="82.173" x2="263.857" y2="82.173" gradientUnits="userSpaceOnUse">
<stop stop-color="white"/>
<stop offset="0.1841" stop-color="#FAFCFE"/>
<stop offset="0.3992" stop-color="#ECF1FC"/>
<stop offset="0.6297" stop-color="#D5E0F7"/>
<stop offset="0.8695" stop-color="#B4C9F2"/>
<stop offset="1" stop-color="#9FBAEE"/>
</linearGradient>
</defs>
</svg>
