<svg width="60" height="68" viewBox="0 0 60 68" fill="none" xmlns="http://www.w3.org/2000/svg">
<path d="M4.28568 0H40.6992L60 19.0656V63.75C60 66.0981 58.0801 68 55.7143 68H4.28568C1.9199 68 0 66.0981 0 63.75V4.24996C0 1.90192 1.92012 0 4.28568 0Z" fill="#DE3258"/>
<path d="M59.938 19.125H45C42.6343 19.125 40.7144 17.2211 40.7144 14.8751V0.042532L59.938 19.125Z" fill="#B31647"/>
<path d="M12.9482 42.176V29.176H17.5952C18.5246 29.176 19.3665 29.2957 20.1208 29.5349C20.8751 29.7742 21.4745 30.1862 21.919 30.7711C22.3769 31.356 22.6059 32.1535 22.6059 33.1638C22.6059 34.1341 22.3769 34.9316 21.919 35.5564C21.4745 36.1678 20.8751 36.6264 20.1208 36.9322C19.3665 37.2246 18.5246 37.3708 17.5952 37.3708H15.7162V42.176H12.9482ZM20.1006 42.176L17.0901 36.6331L19.0298 34.9184L23.2121 42.176H20.1006ZM15.7162 35.1776H17.3528C18.1744 35.1776 18.8008 35.0114 19.2318 34.6791C19.6628 34.3335 19.8783 33.8284 19.8783 33.1638C19.8783 32.4858 19.6628 32.014 19.2318 31.7481C18.8008 31.4823 18.1744 31.3493 17.3528 31.3493H15.7162V35.1776Z" fill="white"/>
<path d="M23.5039 42.176L27.6862 29.176H30.9997L35.182 42.176H32.2524L30.434 35.4766C30.2454 34.812 30.0569 34.1142 29.8683 33.3831C29.6932 32.652 29.5113 31.9409 29.3228 31.2496H29.242C29.0803 31.9409 28.9052 32.652 28.7166 33.3831C28.5415 34.1142 28.3597 34.812 28.1711 35.4766L26.3325 42.176H23.5039ZM26.1709 38.946V36.8125H32.4747V38.946H26.1709Z" fill="white"/>
<path d="M36.6844 42.176V29.176H41.3314C42.2608 29.176 43.1027 29.2957 43.857 29.5349C44.6113 29.7742 45.2107 30.1862 45.6552 30.7711C46.1131 31.356 46.3421 32.1535 46.3421 33.1638C46.3421 34.1341 46.1131 34.9316 45.6552 35.5564C45.2107 36.1678 44.6113 36.6264 43.857 36.9322C43.1027 37.2246 42.2608 37.3708 41.3314 37.3708H39.4524V42.176H36.6844ZM43.8368 42.176L40.8263 36.6331L42.7659 34.9184L46.9482 42.176H43.8368ZM39.4524 35.1776H41.089C41.9106 35.1776 42.537 35.0114 42.968 34.6791C43.399 34.3335 43.6145 33.8284 43.6145 33.1638C43.6145 32.4858 43.399 32.014 42.968 31.7481C42.537 31.4823 41.9106 31.3493 41.089 31.3493H39.4524V35.1776Z" fill="white"/>
</svg>
