<svg width="14" height="14" viewBox="0 0 14 14" fill="none" xmlns="http://www.w3.org/2000/svg">
<path d="M9.36737 1.47506C9.15704 1.37618 8.90642 1.46649 8.80742 1.67694C8.70853 1.88739 8.79885 2.13813 9.0093 2.23689C11.0114 3.17807 12.305 5.21507 12.305 7.42635C12.305 10.5867 9.73386 13.1579 6.57346 13.1579C3.41307 13.1579 0.841938 10.5869 0.841938 7.42665C0.841938 4.62559 2.86225 2.28921 5.5218 1.79374L5.15597 2.17731C4.99555 2.34548 5.00177 2.61207 5.16995 2.7725C5.25122 2.85024 5.35597 2.88888 5.4605 2.88888C5.57148 2.88888 5.68222 2.84531 5.76502 2.75852L6.90477 1.56414C6.99403 1.47066 7.03525 1.34136 7.01693 1.21347C6.99861 1.08546 6.92215 0.973188 6.81023 0.908705L5.32862 0.0561016C5.12697 -0.0596953 4.86977 0.00947743 4.75387 0.211004C4.63808 0.41253 4.70736 0.66985 4.90877 0.785749L5.2571 0.98622C2.26131 1.59749 0 4.25304 0 7.42667C0 11.0513 2.94892 14 6.57333 14C10.1976 14 13.1467 11.0513 13.1467 7.42667C13.1468 4.89056 11.6632 2.55439 9.36724 1.47507L9.36737 1.47506Z" fill="#707070"/>
</svg>
