<svg width="16" height="16" viewBox="0 0 16 16" fill="none" xmlns="http://www.w3.org/2000/svg">
<mask id="path-1-inside-1_3653_186710" fill="white">
<path d="M12.2571 14.8857C14.4286 13.4286 16 10.7714 16 8C16 3.57143 12.4286 0 8 0C3.57143 0 0 3.57143 0 8C0 12 2.91429 15.3143 6.74286 15.9143C7.05714 15.9714 7.37143 16 7.68571 16"/>
</mask>
<path d="M11.5885 13.8893C11.0382 14.2586 10.8914 15.0041 11.2607 15.5544C11.63 16.1047 12.3755 16.2514 12.9258 15.8822L11.5885 13.8893ZM6.74286 15.9143L6.95752 14.7336L6.94311 14.731L6.92865 14.7288L6.74286 15.9143ZM7.68571 17.2C8.34846 17.2 8.88571 16.6627 8.88571 16C8.88571 15.3373 8.34846 14.8 7.68571 14.8V17.2ZM12.9258 15.8822C15.4014 14.2209 17.2 11.2039 17.2 8H14.8C14.8 10.339 13.4557 12.6362 11.5885 13.8893L12.9258 15.8822ZM17.2 8C17.2 2.90869 13.0913 -1.2 8 -1.2V1.2C11.7658 1.2 14.8 4.23417 14.8 8H17.2ZM8 -1.2C2.90869 -1.2 -1.2 2.90869 -1.2 8H1.2C1.2 4.23417 4.23417 1.2 8 1.2V-1.2ZM-1.2 8C-1.2 12.5965 2.15009 16.4092 6.55707 17.0998L6.92865 14.7288C3.67849 14.2194 1.2 11.4035 1.2 8H-1.2ZM6.52819 17.0949C6.91215 17.1647 7.29827 17.2 7.68571 17.2V14.8C7.44459 14.8 7.20214 14.7781 6.95752 14.7336L6.52819 17.0949Z" fill="black" mask="url(#path-1-inside-1_3653_186710)"/>
<path d="M11 12V15H14" stroke="black" stroke-miterlimit="10" stroke-linecap="round" stroke-linejoin="round"/>
</svg>
