<svg width="23" height="24" viewBox="0 0 23 24" fill="none" xmlns="http://www.w3.org/2000/svg">
<path fill-rule="evenodd" clip-rule="evenodd" d="M11.2488 9.5625V23.999L2.34375 21.4458V14.0903L9.30547 14.489L11.2488 9.5625Z" fill="#E6427A"/>
<path fill-rule="evenodd" clip-rule="evenodd" d="M20.3072 9.23655L11.9512 8.72656L14.0223 14.0299L22.3783 13.5199L20.3072 9.23655Z" fill="#E6427A"/>
<path fill-rule="evenodd" clip-rule="evenodd" d="M11.8282 9.5625L13.7715 14.4889L20.7327 14.0902V21.4457L11.8281 23.9989L11.8282 9.5625Z" fill="#E6427A"/>
<path fill-rule="evenodd" clip-rule="evenodd" d="M2.76994 9.23655L0.699219 13.5199L9.05574 14.0299L11.1261 8.72656L2.76994 9.23655Z" fill="#E6427A"/>
<path d="M16.1602 2.47509C16.1602 3.83844 15.0502 4.95018 13.6857 4.94982C12.3209 4.95035 11.2109 3.83862 11.2109 2.47509C11.2097 1.10997 12.3204 2.13461e-08 13.6857 2.13461e-08C15.0503 -0.000177789 16.1602 1.11052 16.1602 2.47509Z" fill="#E6427A"/>
<path d="M9.90033 2.40258C9.90033 3.14091 9.29948 3.74267 8.56061 3.74249C7.8216 3.74267 7.2207 3.14091 7.2207 2.40258C7.22017 1.66358 7.82105 1.0625 8.56061 1.0625C9.2993 1.0625 9.90033 1.66389 9.90033 2.40258Z" fill="#E6427A"/>
<path d="M16.7853 7.07446C16.7853 7.81279 16.1844 8.41455 15.4454 8.41436C14.7064 8.41454 14.1055 7.81279 14.1055 7.07446C14.1049 6.33545 14.7058 5.73438 15.4454 5.73438C16.1844 5.73402 16.7853 6.33559 16.7853 7.07446Z" fill="#E6427A"/>
<path d="M12.5216 6.13337C12.5216 6.8717 11.9213 7.47328 11.1817 7.47328C10.4429 7.47328 9.8418 6.8717 9.8418 6.13337C9.84109 5.39436 10.4425 4.79297 11.1817 4.79297C11.9213 4.79297 12.5216 5.39436 12.5216 6.13337Z" fill="#E6427A"/>
<path d="M8.69561 6.82357C8.69561 7.77012 7.92528 8.54204 6.9775 8.54167C6.02991 8.54185 5.25977 7.76993 5.25977 6.82357C5.25905 5.8758 6.02991 5.10547 6.9775 5.10547C7.9251 5.10529 8.69561 5.87616 8.69561 6.82357Z" fill="#E6427A"/>
</svg>
