<svg width="10" height="10" viewBox="0 0 10 10" fill="none" xmlns="http://www.w3.org/2000/svg">
<path fill-rule="evenodd" clip-rule="evenodd" d="M9.18251 5.22778V9.31823C9.18251 9.69484 8.87587 10 8.49926 10H1.68177C1.30516 10 1 9.69484 1 9.31823V5.22778C1 4.85117 1.30516 4.54601 1.68177 4.54601H1.90955V3.18256C1.90955 1.43502 3.34448 0 5.09054 0C6.83807 0 8.2731 1.43493 8.2731 3.18256V4.54601H8.49939C8.87601 4.54601 9.18265 4.85117 9.18265 5.22778H9.18251ZM2.69406 4.56386H7.48872V3.22273C7.48872 1.88012 6.41107 0.784443 5.09072 0.784443C3.77192 0.784443 2.69429 1.88003 2.69429 3.22273L2.69406 4.56386Z" fill="white"/>
</svg>
