<svg width="44" height="44" viewBox="0 0 44 44" fill="none" xmlns="http://www.w3.org/2000/svg">
<path d="M22 44C34.1503 44 44 34.1503 44 22C44 9.84974 34.1503 0 22 0C9.84974 0 0 9.84974 0 22C0 34.1503 9.84974 44 22 44Z" fill="#D7D7D7"/>
<path d="M9.45788 35.339V35.5619L9.6237 35.7109C12.9066 38.6607 17.2393 40.4705 21.9997 40.4705C26.7606 40.4705 31.0929 38.6607 34.3759 35.7109L34.5418 35.5619V35.339V34.32C34.5418 31.0769 31.9069 28.4939 28.7156 28.4939H15.284C12.0409 28.4939 9.45788 31.1287 9.45788 34.32V35.339ZM0.5 22C0.5 10.1414 10.1414 0.5 22 0.5C33.8586 0.5 43.5 10.1414 43.5 22C43.5 33.8586 33.8586 43.5 22 43.5C10.1414 43.5 0.5 33.8586 0.5 22ZM29.4011 18.3411C29.4011 14.267 26.0742 10.94 22 10.94C17.9259 10.94 14.5989 14.267 14.5989 18.3411C14.5989 22.4153 17.9259 25.7423 22 25.7423C26.0741 25.7423 29.4011 22.4153 29.4011 18.3411Z" fill="white" stroke="#D7D7D7"/>
</svg>
