<svg width="73" height="72" viewBox="0 0 73 72" fill="none" xmlns="http://www.w3.org/2000/svg">
<path d="M36.5 0C16.6479 0 0.5 16.1492 0.5 36C0.5 55.8508 16.6492 72 36.5 72C56.3508 72 72.5 55.8508 72.5 36C72.5 16.1492 56.3508 0 36.5 0ZM56.3177 24.9615L30.6026 50.6766C30.1016 51.1781 29.443 51.43 28.7849 51.43C28.1269 51.43 27.4682 51.1781 26.9667 50.6766L16.6806 40.3906C15.6754 39.3854 15.6754 37.7597 16.6806 36.7545C17.6858 35.7493 19.3115 35.7493 20.3167 36.7545L28.7851 45.2223L52.6817 21.3256C53.6869 20.3204 55.3126 20.3204 56.3178 21.3256C57.3236 22.3313 57.3236 23.9565 56.3178 24.9617L56.3177 24.9615Z" fill="#E6427A"/>
</svg>
