<svg width="10" height="12" viewBox="0 0 10 12" fill="none" xmlns="http://www.w3.org/2000/svg">
<path d="M2.35647 10.9999H7.56863C8.58987 10.9999 9.42534 10.1644 9.42534 9.14322L9.42543 3.85148C9.42543 2.83025 8.58987 1.99478 7.56873 1.99478H7.22392V1.26532C7.22392 1.11943 7.10458 1.00009 6.9587 1.00009C6.81281 1.00009 6.69347 1.11943 6.69347 1.26532V1.99478L3.23196 1.99469V1.26523C3.23196 1.11933 3.11262 1 2.96673 1C2.82085 1 2.7015 1.11934 2.7015 1.26523V1.99469H2.3567C1.33547 1.99469 0.5 2.83025 0.5 3.85139V9.12987C0.499908 10.1644 1.33537 11 2.35663 11L2.35647 10.9999ZM2.35647 2.52519H2.70127V3.51987C2.70127 3.66577 2.82061 3.7851 2.9665 3.7851C3.11238 3.7851 3.23172 3.66576 3.23172 3.51987V2.52519H6.7065V3.51987C6.7065 3.66577 6.82584 3.7851 6.97173 3.7851C7.11762 3.7851 7.23695 3.66576 7.23695 3.51987V2.52519H7.58175C8.31121 2.52519 8.908 3.12197 8.908 3.85144V4.92568H1.03031V3.85144C1.03031 3.12197 1.6271 2.52519 2.35656 2.52519H2.35647ZM1.03022 5.4562H8.89488V9.12991C8.89488 9.85938 8.29809 10.4562 7.56863 10.4562H2.35647C1.62701 10.4562 1.03022 9.85938 1.03022 9.12991V5.4562Z" fill="#E6427A" stroke="#E6427A" stroke-width="0.3"/>
</svg>
