<svg width="250" height="276" viewBox="0 0 250 276" fill="none" xmlns="http://www.w3.org/2000/svg">
<path d="M118.236 243.186C59.3869 243.186 11.5099 195.278 11.5099 136.39C11.5099 119.19 15.6927 102.097 23.6059 86.959C23.8361 86.5184 24.3808 86.3487 24.8202 86.5786C25.2605 86.8094 25.431 87.353 25.2004 87.7936C17.4209 102.675 13.3089 119.48 13.3089 136.391C13.3089 194.285 60.3794 241.386 118.236 241.386C176.093 241.386 223.163 194.285 223.163 136.391C223.163 98.7953 202.876 63.84 170.22 45.1657C169.789 44.919 169.639 44.3693 169.886 43.9375C170.132 43.5058 170.683 43.3571 171.113 43.6028C204.329 62.5969 224.962 98.151 224.962 136.391C224.962 195.278 177.085 243.186 118.236 243.186Z" fill="#D7D7D7"/>
<path d="M37.0671 125.617C37.0671 117.729 43.1184 112.086 51.2613 112.086C55.781 112.086 59.5538 113.73 62.0191 116.721L58.1345 120.309C56.3783 118.291 54.1749 117.244 51.56 117.244C46.6671 117.244 43.1925 120.683 43.1925 125.617C43.1925 130.55 46.6666 133.989 51.56 133.989C54.1749 133.989 56.3783 132.942 58.1345 130.887L62.0191 134.475C59.5538 137.503 55.781 139.147 51.224 139.147C43.1184 139.147 37.0671 133.503 37.0671 125.617Z" fill="#262425"/>
<path d="M63.887 125.617C63.887 117.842 69.9382 112.086 78.1934 112.086C86.4113 112.086 92.4999 117.805 92.4999 125.617C92.4999 133.429 86.4113 139.147 78.1934 139.147C69.9382 139.147 63.887 133.391 63.887 125.617ZM86.3736 125.617C86.3736 120.645 82.8622 117.244 78.193 117.244C73.5237 117.244 70.0123 120.645 70.0123 125.617C70.0123 130.588 73.5237 133.989 78.193 133.989C82.8622 133.989 86.3736 130.588 86.3736 125.617Z" fill="#262425"/>
<path d="M120.851 138.699L120.814 123.001L113.12 135.934H110.393L102.735 123.337V138.699H97.0574V112.535H102.063L111.849 128.795L121.486 112.535H126.454L126.529 138.699H120.851Z" fill="#262425"/>
<path d="M132.731 112.535H138.783V138.699H132.731V112.535Z" fill="#262425"/>
<path d="M168.963 112.535V138.699H163.995L150.959 122.814V138.699H144.982V112.535H149.987L162.986 128.42V112.535H168.963Z" fill="#262425"/>
<path d="M192.833 125.206H198.362V135.821C195.486 137.989 191.526 139.147 187.79 139.147C179.573 139.147 173.521 133.504 173.521 125.617C173.521 117.729 179.573 112.086 187.902 112.086C192.497 112.086 196.307 113.656 198.847 116.609L194.962 120.197C193.057 118.179 190.854 117.245 188.201 117.245C183.121 117.245 179.647 120.646 179.647 125.617C179.647 130.514 183.121 133.99 188.126 133.99C189.77 133.99 191.301 133.691 192.833 132.868V125.206H192.833Z" fill="#262425"/>
<path d="M60.7522 171.194L62.8066 166.634C65.01 168.241 68.2973 169.362 71.435 169.362C75.0209 169.362 76.4775 168.166 76.4775 166.559C76.4775 161.663 61.2745 165.026 61.2745 155.308C61.2745 150.86 64.8605 147.16 72.2942 147.16C75.581 147.16 78.9428 147.945 81.3709 149.477L79.5033 154.075C77.0757 152.692 74.5722 152.019 72.2564 152.019C68.671 152.019 67.2885 153.365 67.2885 155.009C67.2885 159.831 82.4915 156.504 82.4915 166.11C82.4915 170.483 78.8682 174.221 71.3977 174.221C67.2512 174.221 63.068 172.988 60.7522 171.194Z" fill="#E6427A"/>
<path d="M84.9937 160.691C84.9937 152.917 91.0449 147.16 99.3001 147.16C107.518 147.16 113.607 152.879 113.607 160.691C113.607 168.503 107.518 174.221 99.3001 174.221C91.0449 174.221 84.9937 168.466 84.9937 160.691ZM107.48 160.691C107.48 155.72 103.969 152.318 99.2996 152.318C94.6304 152.318 91.119 155.72 91.119 160.691C91.119 165.662 94.6304 169.064 99.2996 169.064C103.969 169.064 107.48 165.662 107.48 160.691Z" fill="#E6427A"/>
<path d="M116.521 160.691C116.521 152.917 122.572 147.16 130.827 147.16C139.045 147.16 145.133 152.879 145.133 160.691C145.133 168.503 139.045 174.221 130.827 174.221C122.572 174.221 116.521 168.466 116.521 160.691ZM139.008 160.691C139.008 155.72 135.496 152.318 130.827 152.318C126.158 152.318 122.646 155.72 122.646 160.691C122.646 165.662 126.158 169.064 130.827 169.064C135.496 169.064 139.008 165.662 139.008 160.691Z" fill="#E6427A"/>
<path d="M173.673 147.609V173.774H168.705L155.668 157.889V173.774H149.692V147.609H154.697L167.695 163.495V147.609H173.673Z" fill="#E6427A"/>
<path d="M75.2234 195.277L75.9167 193.738C76.6604 194.281 77.7693 194.659 78.828 194.659C80.0376 194.659 80.5291 194.255 80.5291 193.713C80.5291 192.061 75.4 193.196 75.4 189.917C75.4 188.417 76.6096 187.168 79.1178 187.168C80.2267 187.168 81.3609 187.433 82.18 187.95L81.5496 189.501C80.7309 189.034 79.8866 188.807 79.1047 188.807C77.8951 188.807 77.4287 189.261 77.4287 189.816C77.4287 191.443 82.5574 190.321 82.5574 193.562C82.5574 195.037 81.3352 196.298 78.8144 196.298C77.4166 196.298 76.0052 195.882 75.2234 195.277Z" fill="#E6427A"/>
<path d="M85.6613 188.985H82.8386V187.32H90.5258V188.985H87.7031V196.147H85.6618V188.985H85.6613Z" fill="#E6427A"/>
<path d="M96.9929 194.256H92.8972L92.1158 196.147H90.0242L93.9558 187.32H95.972L99.9162 196.147H97.7743L96.9929 194.256ZM96.3503 192.705L94.9516 189.325L93.5523 192.705H96.3503Z" fill="#E6427A"/>
<path d="M104.532 193.02V196.147H102.49V192.995L99.075 187.32H101.243L103.599 191.242L105.956 187.32H107.96L104.532 193.02Z" fill="#E6427A"/>
<path d="M114.214 188.985H111.392V187.32H119.079V188.985H116.256V196.147H114.215V188.985H114.214Z" fill="#E6427A"/>
<path d="M119.952 192.264V187.32H121.993V192.187C121.993 193.865 122.724 194.558 123.96 194.558C125.208 194.558 125.926 193.865 125.926 192.187V187.32H127.942V192.264C127.942 194.861 126.455 196.299 123.947 196.299C121.439 196.299 119.952 194.861 119.952 192.264Z" fill="#E6427A"/>
<path d="M138.051 187.32V196.147H136.375L131.977 190.788V196.147H129.961V187.32H131.65L136.035 192.68V187.32H138.051Z" fill="#E6427A"/>
<path d="M146.977 194.508V196.147H140.147V187.32H146.814V188.96H142.176V190.876H146.272V192.465H142.176V194.509H146.977V194.508Z" fill="#E6427A"/>
<path d="M148.606 187.32H152.613C155.499 187.32 157.477 189.06 157.477 191.734C157.477 194.407 155.498 196.147 152.613 196.147H148.606V187.32ZM152.512 194.47C154.264 194.47 155.41 193.424 155.41 191.733C155.41 190.043 154.264 188.997 152.512 188.997H150.647V194.47H152.512Z" fill="#E6427A"/>
<path d="M158.59 195.101C158.59 194.458 159.094 193.978 159.8 193.978C160.506 193.978 161.01 194.458 161.01 195.101C161.01 195.731 160.506 196.248 159.8 196.248C159.094 196.249 158.59 195.731 158.59 195.101ZM158.628 187.32H160.972L160.581 193.083H159.019L158.628 187.32Z" fill="#E6427A"/>
<path d="M125.719 43.2424C126.294 46.4834 126.686 49.7159 126.91 52.9176C127.754 65.5311 125.867 77.835 121.713 89.1668C120.947 91.2552 118.495 92.1662 116.567 91.0598L116.349 90.9348C114.818 90.056 114.192 88.2012 114.802 86.5442C118.911 75.3961 120.606 63.2377 119.385 50.7906C119.201 48.6146 118.899 46.46 118.513 44.2799C118.129 42.1192 117.667 39.9731 117.094 37.8866C113.958 25.7785 108.184 14.9629 100.523 5.92414C99.3846 4.58133 99.3339 2.63147 100.462 1.28027C101.886 -0.425274 104.499 -0.423412 105.941 1.26582C113.744 10.4011 119.76 21.2428 123.368 33.3071C124.327 36.5405 125.116 39.8444 125.719 43.2424Z" fill="#E6427A"/>
<path d="M112.075 45.4242C114.54 59.3101 113.004 73.0155 108.28 85.3017C108.28 85.3017 82.3059 65.8082 44.1579 71.8382L39.2253 44.0468C77.1125 36.5439 94.7938 9.3125 94.7938 9.3125C103.456 19.2194 109.611 31.5383 112.075 45.4242Z" fill="#E6427A"/>
<path d="M47.1035 96.5812L45.1097 96.9355C44.162 97.1038 43.1989 96.7313 42.6118 95.9676L26.4625 74.9849L24.4794 75.3374C22.973 75.605 21.5351 74.5997 21.2672 73.0928L17.3034 50.7603C17.0359 49.2529 18.0405 47.8141 19.5465 47.546L32.7961 45.1914L38.0264 74.659C38.1625 75.4255 38.6363 76.0894 39.3166 76.4671L41.6785 77.7782C42.0182 77.967 42.3108 78.2295 42.5349 78.547L44.621 81.5026C45.189 82.3074 45.2505 83.3653 44.7789 84.2302C44.3139 85.0839 44.367 86.1259 44.9159 86.9279L48.7828 92.5756C49.8428 94.1245 48.951 96.2525 47.1035 96.5812Z" fill="#E6427A"/>
<path d="M135.256 41.3071C136.093 46.0209 134.023 50.5622 130.327 53.1233C130.321 52.8612 130.312 52.5791 130.286 52.3204C130.062 49.1182 129.67 45.8857 129.095 42.6452C128.492 39.2472 127.703 35.9433 126.745 32.7098C126.657 32.4417 126.592 32.19 126.504 31.9219C130.888 33.0068 134.416 36.5732 135.256 41.3071Z" fill="#E6427A"/>
<path d="M162.28 39.4244L143.003 42.85C142.161 42.9997 141.357 42.4378 141.207 41.5953L140.703 38.7549C140.554 37.9124 141.115 37.1076 141.957 36.958L161.234 33.532C162.076 33.3823 162.881 33.9441 163.03 34.7866L163.534 37.627C163.684 38.47 163.122 39.2743 162.28 39.4244Z" fill="#E6427A"/>
<path d="M157.587 69.7719L140.282 60.6063C139.527 60.2058 139.238 59.2682 139.638 58.5119L140.987 55.962C141.388 55.2052 142.325 54.9166 143.081 55.3171L160.385 64.4827C161.141 64.8828 161.429 65.8209 161.029 66.5771L159.68 69.127C159.28 69.8838 158.343 70.1724 157.587 69.7719Z" fill="#E6427A"/>
<path d="M146.411 6.80233L133.319 21.3694C132.747 22.0058 132.799 22.9854 133.435 23.558L135.579 25.4873C136.215 26.0599 137.194 26.0077 137.766 25.3713L150.858 10.8042C151.43 10.1677 151.378 9.18814 150.742 8.61558L148.598 6.68623C147.962 6.11414 146.983 6.16636 146.411 6.80233Z" fill="#E6427A"/>
<path d="M213.293 70.4912L243.232 18.293L250 46.9409L213.293 70.4912Z" fill="#DB9768"/>
<path d="M221.004 73.8513L241.923 63.7188L246.603 77.0251L221.004 73.8513Z" fill="#DB9768"/>
<path d="M34.5207 221.395L9.23136 276L0 248.05L34.5207 221.395Z" fill="#DB9768"/>
<path d="M26.5467 218.719L6.5878 230.633L0.769043 217.785L26.5467 218.719Z" fill="#DB9768"/>
</svg>
