<svg width="36" height="36" viewBox="0 0 36 36" fill="none" xmlns="http://www.w3.org/2000/svg">
<circle cx="18" cy="18" r="18" fill="white"/>
<path d="M23.6529 16.5859C23.4259 16.5859 23.2233 16.6781 23.0685 16.8208C22.986 16.8965 22.9241 16.986 22.8764 17.0808C22.8711 17.0912 22.8624 17.0981 22.8582 17.1086C22.8094 17.2164 22.7832 17.3338 22.7832 17.4555C22.7832 17.5772 22.8093 17.6947 22.858 17.8024C22.8624 17.8129 22.872 17.8197 22.8762 17.8302C22.9232 17.9258 22.9858 18.0145 23.0684 18.0902C23.2231 18.2329 23.4266 18.325 23.6527 18.325C24.1318 18.325 24.5223 17.9346 24.5223 17.4555C24.5224 16.9764 24.132 16.5859 23.6529 16.5859L23.6529 16.5859Z" fill="#E6427A"/>
<path d="M25.8266 10.5002H13.6524C12.4542 10.5002 11.4785 11.4759 11.4785 12.6741V16.6089C11.6221 16.5959 11.7663 16.5872 11.9134 16.5872C14.5508 16.5872 16.6959 18.7324 16.6959 21.3698C16.6959 21.5166 16.6872 21.6611 16.6742 21.8046H25.8264C27.0246 21.8046 28.0003 20.8289 28.0003 19.6307V12.6739C28.0003 11.4757 27.0246 10.5 25.8264 10.5L25.8266 10.5002ZM22.3483 13.109H23.2179C23.4579 13.109 23.6527 13.3038 23.6527 13.5438C23.6527 13.7837 23.4579 13.9785 23.2179 13.9785H22.3483C22.1083 13.9785 21.9135 13.7837 21.9135 13.5437C21.9135 13.3038 22.1083 13.109 22.3483 13.109ZM17.1309 13.109H18.0004C18.2405 13.109 18.4353 13.3038 18.4353 13.5438C18.4353 13.7837 18.2405 13.9785 18.0004 13.9785H17.1309C16.8908 13.9785 16.696 13.7837 16.696 13.5437C16.696 13.3038 16.8908 13.109 17.1309 13.109ZM14.0873 13.5437C14.0873 13.3036 14.2821 13.1088 14.5222 13.1088H15.3917C15.6317 13.1088 15.8265 13.3036 15.8265 13.5437C15.8265 13.7837 15.6317 13.9785 15.3917 13.9785H14.5222C14.2821 13.9785 14.0873 13.7837 14.0873 13.5437ZM18.8699 19.1961H18.0003C17.7603 19.1961 17.5655 19.0013 17.5655 18.7612C17.5655 18.5212 17.7603 18.3264 18.0003 18.3264H18.8699C19.1099 18.3264 19.3047 18.5212 19.3047 18.7612C19.3047 19.0013 19.1099 19.1961 18.8699 19.1961ZM18.8699 16.5873H15.3916C15.1516 16.5873 14.9568 16.3925 14.9568 16.1525C14.9568 15.9126 15.1516 15.7178 15.3916 15.7178H18.8699C19.1099 15.7178 19.3047 15.9126 19.3047 16.1526C19.3047 16.3925 19.1099 16.5873 18.8699 16.5873ZM19.3047 13.5437C19.3047 13.3037 19.4995 13.1089 19.7395 13.1089H20.6091C20.8491 13.1089 21.0439 13.3037 21.0439 13.5437C21.0439 13.7838 20.8491 13.9786 20.6091 13.9786H19.7395C19.4995 13.9786 19.3047 13.7838 19.3047 13.5437ZM23.6527 19.1961C23.3354 19.1961 23.0406 19.104 22.784 18.9552C22.5195 19.1101 22.2214 19.1961 21.9135 19.1961C20.9543 19.1961 20.1743 18.4161 20.1743 17.4569C20.1743 16.4977 20.9543 15.7177 21.9135 15.7177C22.2214 15.7177 22.5196 15.8038 22.7839 15.9586C23.0404 15.81 23.3352 15.7179 23.6527 15.7179C24.6119 15.7179 25.3919 16.4979 25.3919 17.4571C25.3917 18.4161 24.6117 19.1961 23.6527 19.1961L23.6527 19.1961Z" fill="#E6427A"/>
<path d="M21.9926 17.9485C21.9838 17.919 21.9726 17.8912 21.9656 17.8616C21.9343 17.7312 21.9126 17.5964 21.9126 17.4563C21.9126 17.3163 21.9335 17.1815 21.9656 17.0511C21.9726 17.0215 21.9838 16.9937 21.9926 16.9641C22.0247 16.8571 22.0656 16.7554 22.116 16.658C22.123 16.6449 22.1256 16.6302 22.1325 16.6171C22.0611 16.5964 21.9873 16.5859 21.9125 16.5859C21.4334 16.5859 21.043 16.9764 21.043 17.4555C21.043 18.0094 21.603 18.4381 22.1326 18.2954C22.1256 18.2823 22.123 18.2676 22.1161 18.2545C22.0646 18.1573 22.0239 18.0547 21.9926 17.9485L21.9926 17.9485Z" fill="#E6427A"/>
<path d="M11.9131 17.457C9.75564 17.457 8 19.2127 8 21.3702C8 23.5276 9.75564 25.2833 11.9131 25.2833C14.0705 25.2833 15.8262 23.5276 15.8262 21.3702C15.8262 19.2127 14.0705 17.457 11.9131 17.457ZM11.3513 23.4173C11.2662 23.5016 11.1548 23.5442 11.0434 23.5442C10.9321 23.5442 10.8208 23.5016 10.7355 23.4173L8.99633 21.6781C8.82674 21.5085 8.82674 21.2329 8.99633 21.0633C9.16593 20.8937 9.44149 20.8937 9.6111 21.0633L11.0434 22.4946L14.2139 19.3241C14.3835 19.1545 14.6591 19.1545 14.8287 19.3241C14.9983 19.4937 14.9983 19.7692 14.8287 19.9388L11.3513 23.4173Z" fill="#E6427A"/>
</svg>
