<svg width="272" height="213" viewBox="0 0 272 213" fill="none" xmlns="http://www.w3.org/2000/svg">
<path d="M265.272 134.408C265.618 132.027 262.241 130.069 259.709 129.839C258.52 129.723 257.254 129.915 256.103 129.531C253.647 128.687 252.65 125.462 250.233 124.463C248.429 123.695 246.357 124.386 244.593 125.27C242.828 126.153 241.101 127.266 239.144 127.381C237.456 127.496 235.615 126.844 234.118 127.688C233.006 128.303 232.43 129.57 231.394 130.338C230.397 131.067 229.092 131.221 227.865 131.298C226.637 131.374 225.332 131.374 224.22 131.912C223.107 132.411 222.148 133.64 222.378 134.83L265.272 134.408Z" fill="#E8E7E7"/>
<path d="M239.224 175.605L230.668 212.695H234.274L242.83 175.951L239.224 175.605Z" fill="#E0E0E0"/>
<path d="M254.797 175.605L263.353 212.695H266.767L258.48 175.605H254.797Z" fill="#E0E0E0"/>
<path d="M233.465 147.73L238.299 173.263H243.824L238.644 147.73H233.465Z" fill="#E0E0E0"/>
<path d="M148.792 175.605L141.848 212.695H145.377L152.667 175.605H148.792Z" fill="#E0E0E0"/>
<path d="M163.449 175.605L171.391 212.503H174.921L167.209 175.605H163.449Z" fill="#E0E0E0"/>
<path d="M143.035 147.73L147.908 173.263H153.433L148.215 147.73H143.035Z" fill="#E0E0E0"/>
<path d="M132.102 145.427L133.099 150.073H243.979L242.713 145.427H132.102Z" fill="#E8E7E7"/>
<path d="M134.211 154.449L135.4 159.095H245.552L244.554 154.449H134.211Z" fill="#E8E7E7"/>
<path d="M136.398 163.779L137.511 168.425H247.317L246.281 163.779H136.398Z" fill="#E8E7E7"/>
<path d="M263.201 173.264H144.801V177.91H263.201V173.264Z" fill="#E8E7E7"/>
<path d="M215.243 115.786C213.363 115.786 211.675 114.826 210.715 113.175C209.756 111.524 209.756 109.604 210.715 107.953L225.679 81.8443C226.599 80.1933 228.287 79.2334 230.206 79.2334C232.086 79.2334 233.774 80.1933 234.733 81.8443L249.85 107.876C250.809 109.527 250.809 111.447 249.85 113.098C248.929 114.749 247.241 115.709 245.322 115.709L215.243 115.786ZM230.206 80.7692C228.863 80.7692 227.674 81.4603 227.021 82.6122L212.058 108.721C211.406 109.873 211.406 111.255 212.058 112.369C212.711 113.52 213.9 114.173 215.204 114.173L245.284 114.096C246.588 114.096 247.778 113.405 248.43 112.253C249.082 111.102 249.082 109.719 248.43 108.606L233.314 82.5738C232.7 81.4603 231.51 80.7692 230.206 80.7692Z" fill="#E8E7E7"/>
<path d="M227.252 92.0961L227.943 101.849C227.981 102.655 228.633 103.269 229.439 103.308C230.283 103.346 231.012 102.732 231.089 101.887L232.086 92.0961C232.163 91.3666 231.587 90.7139 230.82 90.7139L228.441 90.7523C227.751 90.7907 227.214 91.3666 227.252 92.0961Z" fill="#E8E7E7"/>
<path d="M232.086 108.76C231.702 110.027 230.359 110.679 229.093 110.295C227.827 109.911 227.175 108.568 227.559 107.301C227.942 106.034 229.285 105.381 230.551 105.765C231.817 106.149 232.47 107.493 232.086 108.76Z" fill="#E8E7E7"/>
<path d="M233.082 172.648C234.962 185.933 236.804 199.218 238.684 212.541L240.142 212.58C239.182 199.064 238.223 185.242 233.082 172.648Z" fill="#F97CAA"/>
<path d="M248.62 170.806C244.707 175.106 243.134 180.98 242.136 186.701C240.717 194.803 240.602 204.363 241.024 212.618L243.057 212.657C242.251 198.45 244.17 184.282 248.62 170.806Z" fill="#F97CAA"/>
<path d="M234.118 196.262C233.657 194.304 233.158 192.269 232.046 190.579C230.511 188.314 228.056 186.855 225.562 185.742C223.068 184.628 220.459 183.745 218.195 182.171C220.728 186.318 226.406 187.393 229.322 191.271C230.78 193.19 231.355 195.609 231.931 197.951C233.158 203.058 233.926 207.473 235.153 212.542H236.803C236.228 207.013 235.345 201.676 234.118 196.262Z" fill="#F97CAA"/>
<path d="M244.555 212.579C244.555 212.579 245.974 196.722 247.01 193.843C248.046 190.924 257.868 182.9 257.791 183.284C257.715 183.668 250.425 192.46 249.389 194.265C248.353 196.069 246.55 212.618 246.55 212.618H244.555V212.579Z" fill="#F97CAA"/>
<path d="M198.13 196.032C198.897 196.301 199.511 196.992 199.856 197.76C200.202 198.527 200.278 199.372 200.24 200.217C200.163 201.829 199.358 203.519 198.475 204.863C197.056 203.788 196.595 201.753 196.442 200.678C196.173 199.027 196.71 195.878 198.13 196.032Z" fill="#F97CAA"/>
<path d="M200.203 207.359C199.934 206.475 200.241 205.439 200.893 204.786C201.545 204.133 202.505 203.788 203.425 203.826C203.847 203.826 204.346 203.941 204.615 204.248C204.883 204.556 204.883 205.016 204.692 205.4C204.538 205.784 204.231 206.053 203.886 206.283C202.773 207.09 201.545 207.666 200.203 207.359Z" fill="#F97CAA"/>
<path d="M198.781 212.388C198.781 212.388 198.781 212.273 198.82 212.043C198.858 211.813 198.896 211.505 198.935 211.16C199.05 210.392 199.165 209.317 199.664 208.242C200.162 207.167 200.93 206.36 201.544 205.938C201.851 205.708 202.158 205.593 202.349 205.516C202.464 205.477 202.541 205.439 202.58 205.439C202.618 205.439 202.656 205.401 202.656 205.439C202.656 205.477 202.196 205.593 201.582 206.015C200.968 206.437 200.239 207.244 199.74 208.28C199.242 209.317 199.088 210.392 198.973 211.16C198.935 211.544 198.858 211.851 198.82 212.043C198.82 212.273 198.781 212.388 198.781 212.388Z" fill="#F97CAA"/>
<path d="M197.938 198.45C197.938 198.45 197.938 198.489 197.976 198.604C197.976 198.719 198.014 198.834 198.014 199.026C198.053 199.372 198.129 199.909 198.168 200.524C198.283 201.791 198.437 203.557 198.552 205.553C198.667 207.511 198.744 209.278 198.782 210.583C198.782 211.236 198.821 211.735 198.821 212.119C198.821 212.273 198.821 212.426 198.821 212.541C198.821 212.618 198.821 212.695 198.821 212.695C198.821 212.695 198.821 212.656 198.821 212.541C198.821 212.426 198.821 212.311 198.782 212.119C198.782 211.735 198.744 211.236 198.705 210.583C198.667 209.316 198.59 207.511 198.437 205.553C198.321 203.595 198.168 201.829 198.091 200.524C198.053 199.909 198.014 199.372 197.976 198.988C197.976 198.834 197.938 198.681 197.938 198.565C197.937 198.489 197.938 198.45 197.938 198.45Z" fill="#F97CAA"/>
<path d="M197.938 208.51C197.516 206.591 196.096 204.94 194.255 204.21C193.794 204.018 193.18 203.903 192.835 204.287C192.49 204.632 192.605 205.247 192.835 205.707C193.718 207.589 195.828 208.817 197.9 208.664" fill="#F97CAA"/>
<path d="M194.562 205.669C194.562 205.669 194.678 205.707 194.869 205.784C194.946 205.823 195.061 205.861 195.215 205.938C195.33 206.014 195.483 206.053 195.637 206.168C195.79 206.245 195.944 206.36 196.136 206.475C196.327 206.59 196.481 206.744 196.673 206.898C197.018 207.205 197.402 207.589 197.709 208.049C198.016 208.51 198.246 208.971 198.438 209.432C198.514 209.662 198.591 209.854 198.629 210.084C198.706 210.276 198.706 210.468 198.744 210.66C198.783 210.852 198.783 211.006 198.783 211.159C198.783 211.313 198.783 211.428 198.783 211.543C198.783 211.735 198.783 211.851 198.783 211.851C198.744 211.851 198.783 211.39 198.668 210.699C198.629 210.507 198.591 210.315 198.553 210.123C198.514 209.931 198.438 209.7 198.361 209.47C198.169 209.048 197.939 208.587 197.632 208.126C197.325 207.665 196.98 207.282 196.634 206.974C196.442 206.821 196.289 206.667 196.136 206.552C195.982 206.437 195.79 206.322 195.675 206.206C194.985 205.861 194.562 205.707 194.562 205.669Z" fill="#F97CAA"/>
<path d="M268.349 212.821C268.349 212.881 209.828 213 137.628 213C65.4277 213 6.90625 212.94 6.90625 212.821C6.90625 212.702 65.4277 212.643 137.628 212.643C209.828 212.643 268.349 212.702 268.349 212.821Z" fill="#263238"/>
<path d="M167.642 200.859L96.2404 200.794C87.6863 200.794 80.6875 194.105 80.6875 185.937V14.857C80.6875 6.62454 87.6863 0 96.2404 0L167.642 0.0643174C176.197 0.0643174 183.195 6.75317 183.195 14.9213V186.002C183.195 194.17 176.267 200.859 167.642 200.859Z" fill="#AFC1E7"/>
<path d="M85 16C85 10.4772 89.4772 6 95 6H112.727C114.798 6 116.477 7.67893 116.477 9.75C116.477 11.8211 118.156 13.5 120.227 13.5H149.2C151.271 13.5 152.95 11.8211 152.95 9.75C152.95 7.67893 154.629 6 156.7 6H168.93C174.453 6 178.93 10.4772 178.93 16V184C178.93 189.523 174.453 194 168.93 194H95C89.4771 194 85 189.523 85 184V16Z" fill="white"/>
<path d="M131.904 110C151.219 110 166.878 94.33 166.878 75C166.878 55.67 151.219 40 131.904 40C112.588 40 96.9297 55.67 96.9297 75C96.9297 94.33 112.588 110 131.904 110Z" fill="white"/>
<path d="M98.0938 75.0003C98.0938 93.6875 113.231 108.836 131.905 108.836C150.578 108.836 165.716 93.6875 165.716 75.0003C165.716 56.313 150.578 41.1641 131.905 41.1641C113.231 41.1641 98.0938 56.313 98.0938 75.0003Z" fill="url(#paint0_linear_21996_108144)"/>
<path d="M102.551 75.7369C102.551 91.5532 115.363 104.375 131.168 104.375C146.972 104.375 159.785 91.5532 159.785 75.7369C159.785 59.9204 146.972 47.0986 131.168 47.0986C115.363 47.0986 102.551 59.9204 102.551 75.7369Z" fill="white"/>
<path d="M140.707 61.64C140.707 66.9553 136.401 72.6936 131.09 72.6936C125.778 72.6936 121.473 66.9553 121.473 61.64C121.473 56.3246 125.778 52.5537 131.09 52.5537C136.401 52.5537 140.707 56.3246 140.707 61.64Z" fill="url(#paint1_linear_21996_108144)"/>
<path d="M119.153 93.1573H142.631C145.102 93.1573 147.29 91.5589 148.043 89.2034L149.306 85.2519C150.231 82.3587 148.727 79.2263 145.877 78.1832C136.322 74.6873 126.443 75.1358 116.322 78.5058C113.487 79.4499 111.914 82.4848 112.696 85.3707L113.669 88.9593C114.341 91.4371 116.588 93.1573 119.153 93.1573Z" fill="url(#paint2_linear_21996_108144)"/>
<path d="M110.902 98.1686L107.496 94.401L153.443 51.6016L156.955 54.8286L110.902 98.1686Z" fill="url(#paint3_linear_21996_108144)"/>
<path d="M159.783 61.3022C159.837 61.3022 159.892 61.29 159.943 61.2638C160.119 61.1747 160.19 60.9597 160.101 60.7837C154.695 50.0661 143.89 43.4082 131.902 43.4082C129.99 43.4082 128.074 43.5806 126.207 43.9214C126.013 43.9566 125.885 44.1427 125.92 44.3371C125.955 44.5316 126.141 44.6614 126.335 44.6244C128.16 44.2917 130.033 44.1232 131.902 44.1232C143.619 44.1232 154.18 50.6307 159.463 61.1056C159.526 61.2302 159.652 61.3022 159.783 61.3022Z" fill="white"/>
<path d="M147.204 187.802C147.204 187.867 140.323 187.995 131.78 187.995C123.237 187.995 116.355 187.931 116.355 187.802C116.355 187.738 123.237 187.609 131.78 187.609C140.323 187.609 147.204 187.674 147.204 187.802Z" fill="#BDC6EB"/>
<path d="M98.2323 28.7496C97.5254 28.7496 96.6899 28.7496 95.8544 28.7496C94.8261 28.7496 93.7978 28.6853 93.0909 28.7496C92.8981 28.7496 92.7695 28.621 92.7695 28.428C92.7695 28.2351 92.8981 28.1064 93.0909 28.1064C93.7978 28.1064 94.8261 28.1064 95.8544 28.1064C96.8827 28.1064 97.911 28.1708 98.6179 28.1064C98.8107 28.1064 98.9393 28.2351 98.9393 28.428C98.9393 28.621 98.8107 28.7496 98.6179 28.7496C98.4894 28.7496 98.3609 28.7496 98.2323 28.7496Z" fill="#5C6175"/>
<path d="M95.0823 30.9359C95.018 30.9359 94.8895 30.8716 94.8252 30.8073L92.8972 28.6206C92.7686 28.4919 92.7686 28.299 92.8972 28.1703L94.8252 26.1766C94.9538 26.0479 95.1466 26.0479 95.2751 26.1766C95.4036 26.3052 95.4036 26.4981 95.2751 26.6268L93.5399 28.4276L95.2751 30.4214C95.4036 30.55 95.4036 30.743 95.2751 30.8716C95.2108 30.8716 95.1466 30.9359 95.0823 30.9359Z" fill="#5C6175"/>
<path d="M169.634 26.8843C170.202 26.8843 170.662 26.4236 170.662 25.8552C170.662 25.2869 170.202 24.8262 169.634 24.8262C169.066 24.8262 168.605 25.2869 168.605 25.8552C168.605 26.4236 169.066 26.8843 169.634 26.8843Z" fill="#5C6175"/>
<path d="M170.662 29.0066C170.662 29.5854 170.212 30.0356 169.634 30.0356C169.055 30.0356 168.605 29.5854 168.605 29.0066C168.605 28.4277 169.055 27.9775 169.634 27.9775C170.212 28.0419 170.662 28.4921 170.662 29.0066Z" fill="#5C6175"/>
<path d="M169.634 33.187C170.202 33.187 170.662 32.7263 170.662 32.158C170.662 31.5896 170.202 31.1289 169.634 31.1289C169.066 31.1289 168.605 31.5896 168.605 32.158C168.605 32.7263 169.066 33.187 169.634 33.187Z" fill="#5C6175"/>
<path d="M250.284 17.7667L246.102 17.7891L246.213 38.5509L250.395 38.5285L250.284 17.7667Z" fill="#E0E0E0"/>
<path d="M220.786 17.7986L209.98 17.8564L210.042 29.3078L220.847 29.2499L220.786 17.7986Z" fill="#EBEBEB"/>
<path d="M231.54 17.7488L220.734 17.8066L220.796 29.258L231.601 29.2001L231.54 17.7488Z" fill="#F5F5F5"/>
<path d="M209.958 21.0147C217.128 21.0644 224.348 21.0147 231.518 20.9151C231.668 20.9151 231.668 20.6661 231.518 20.6661C224.348 20.6163 217.128 20.6661 209.958 20.8155C209.858 20.8155 209.858 21.0147 209.958 21.0147Z" fill="#E0E0E0"/>
<path d="M222.83 29.0785L203.211 29.1836L203.261 38.5438L222.88 38.4387L222.83 29.0785Z" fill="#EBEBEB"/>
<path d="M242.4 28.9789L222.781 29.084L222.831 38.4442L242.45 38.3391L242.4 28.9789Z" fill="#F5F5F5"/>
<path d="M203.235 31.7687C216.281 31.918 229.377 31.7687 242.422 31.5695C242.572 31.5695 242.572 31.3206 242.422 31.3206C229.377 31.2708 216.281 31.2708 203.235 31.5695C203.135 31.5695 203.135 31.7687 203.235 31.7687Z" fill="#E0E0E0"/>
<path d="M271.999 38.5391H195.914V41.8749H271.999V38.5391Z" fill="#E0E0E0"/>
<path d="M211.45 40.1318H208.363V51.5334H211.45V40.1318Z" fill="#E0E0E0"/>
<path d="M257.509 40.1318H254.422V51.5334H257.509V40.1318Z" fill="#E0E0E0"/>
<path d="M254.347 10.0001L250.164 10.0225L250.317 38.6011L254.5 38.5787L254.347 10.0001Z" fill="#EBEBEB"/>
<path d="M260.883 15.3217L254.41 15.3564L254.534 38.5081L261.007 38.4734L260.883 15.3217Z" fill="#F5F5F5"/>
<path d="M260.844 19.7705C260.844 19.8203 259.4 19.8701 257.608 19.8701C255.815 19.8701 254.371 19.8203 254.371 19.7705C254.371 19.7207 255.815 19.6709 257.608 19.6709C259.4 19.6709 260.844 19.7207 260.844 19.7705Z" fill="#E0E0E0"/>
<path d="M260.844 18.8242C260.844 18.874 259.4 18.9238 257.608 18.9238C255.815 18.9238 254.371 18.874 254.371 18.8242C254.371 18.7744 255.815 18.7246 257.608 18.7246C259.4 18.7246 260.844 18.7744 260.844 18.8242Z" fill="#E0E0E0"/>
<path d="M260.844 35.0049C260.844 35.0546 259.4 35.1044 257.608 35.1044C255.815 35.1044 254.371 35.0546 254.371 35.0049C254.371 34.9551 255.815 34.9053 257.608 34.9053C259.4 34.8555 260.844 34.9053 260.844 35.0049Z" fill="#E0E0E0"/>
<path d="M260.844 34.0097C260.844 34.0595 259.4 34.1093 257.608 34.1093C255.815 34.1093 254.371 34.0595 254.371 34.0097C254.371 33.9599 255.815 33.9102 257.608 33.9102C259.4 33.9102 260.844 33.9599 260.844 34.0097Z" fill="#E0E0E0"/>
<path d="M257.709 31.8677C257.659 31.8677 257.609 29.5276 257.609 26.6399C257.609 23.7522 257.659 21.4121 257.709 21.4121C257.759 21.4121 257.809 23.7522 257.809 26.6399C257.809 29.5774 257.759 31.8677 257.709 31.8677Z" fill="#E0E0E0"/>
<path d="M267.965 21.0137H260.895V38.4894H267.965V21.0137Z" fill="#EBEBEB"/>
<path d="M252.23 16.0852C252.89 16.0852 253.425 15.5502 253.425 14.8902C253.425 14.2303 252.89 13.6953 252.23 13.6953C251.57 13.6953 251.035 14.2303 251.035 14.8902C251.035 15.5502 251.57 16.0852 252.23 16.0852Z" fill="#E0E0E0"/>
<path d="M252.579 18.1768H251.832V35.1546H252.579V18.1768Z" fill="#E0E0E0"/>
<path d="M26.955 167.109C29.3958 165.865 32.2972 165.681 35.0144 166.142C36.4882 166.372 38.0079 166.832 38.9751 167.938C39.9883 169.043 40.1725 170.977 39.0211 171.898C38.3303 172.45 37.4092 172.542 36.5342 172.542C34.4157 172.496 32.067 172.128 30.363 173.417C29.3958 174.154 28.7511 175.351 27.5997 175.72C26.4484 176.088 25.2049 175.398 24.6062 174.384C24.0075 173.371 24.0075 172.082 24.2838 170.931C24.1917 170.885 24.5141 168.398 26.955 167.109Z" fill="#EBEBEB"/>
<path d="M21.3792 156.286C22.853 158.404 25.8004 157.714 27.136 156.424C28.4716 155.135 29.0703 153.247 29.5769 151.405C30.7743 147.306 31.9717 142.978 31.0966 138.787C30.8203 137.544 30.3598 136.301 29.4847 135.334C28.6097 134.413 27.2281 133.86 26.0307 134.182C24.557 134.551 23.6359 136.024 22.9911 137.36C21.0568 141.366 20.0437 145.833 19.9976 150.3C19.9515 152.372 20.1818 154.582 21.3792 156.286Z" fill="#EBEBEB"/>
<path d="M17.2347 159.374C18.8466 157.44 19.169 154.631 18.4321 152.236C17.6952 149.842 16.0834 147.77 14.1951 146.066C11.9845 144.086 9.4055 142.566 6.5962 141.599C5.4909 141.231 4.33955 140.908 3.18819 141C2.03684 141.092 0.885483 141.691 0.332833 142.75C-0.450087 144.27 0.286779 146.112 1.11575 147.631C2.58949 150.302 4.24744 152.835 6.0896 155.23C7.56334 157.164 9.31339 159.052 11.57 159.927C13.8267 160.801 16.2215 160.709 17.4189 159.098" fill="#EBEBEB"/>
<path d="M21.2422 188.522C21.2882 188.522 21.3343 188.199 21.3804 187.555C21.4264 186.864 21.5185 185.943 21.6567 184.884C21.7948 183.779 21.933 182.443 22.2554 181.016C22.5778 179.588 23.0383 178.022 23.6831 176.411C24.3278 174.845 25.1107 173.417 26.0318 172.266C26.9529 171.115 28.0121 170.286 28.9793 169.826C29.9925 169.319 30.8675 169.135 31.4662 169.043C32.0649 168.997 32.4333 168.951 32.4333 168.905C32.4333 168.859 32.0649 168.859 31.4662 168.905C30.8215 168.951 29.9004 169.089 28.8872 169.595C27.8279 170.056 26.7226 170.885 25.7555 172.082C24.7884 173.233 23.9594 174.707 23.3146 176.319C22.6699 177.93 22.2093 179.496 21.933 180.97C21.6567 182.443 21.5185 183.779 21.4264 184.93C21.3343 186.035 21.2882 186.956 21.2882 187.601C21.2422 188.199 21.2422 188.522 21.2422 188.522Z" fill="#E0E0E0"/>
<path d="M21.4241 186.493C21.4241 186.493 21.4241 186.355 21.4702 186.033C21.4702 185.71 21.4702 185.25 21.4702 184.743C21.4702 183.638 21.4702 182.026 21.5162 180C21.6083 175.994 21.9768 171.711 22.6215 165.633C23.2663 159.923 24.0953 153.292 24.9703 148.963C25.1545 147.996 25.3387 147.121 25.5229 146.338C25.7072 145.555 25.8453 144.911 25.9835 144.358C26.1216 143.852 26.2138 143.437 26.3059 143.115C26.3519 142.838 26.398 142.654 26.398 142.654C26.398 142.654 26.3519 142.792 26.2598 143.069C26.1677 143.391 26.0295 143.806 25.8914 144.312C25.7072 144.865 25.569 145.509 25.3387 146.292C25.1545 147.075 24.9242 147.95 24.694 148.917C23.8189 152.831 22.8979 158.311 22.207 164.39C21.5623 170.468 21.2399 175.994 21.1938 180C21.1478 182.026 21.1938 183.638 21.286 184.743C21.332 185.25 21.332 185.71 21.3781 186.033C21.4241 186.355 21.4241 186.493 21.4241 186.493Z" fill="#E0E0E0"/>
<path d="M21.4769 175.811C21.523 175.811 21.523 175.35 21.4769 174.475C21.4309 173.6 21.2927 172.357 21.0625 170.838C20.7861 169.318 20.4637 167.476 19.865 165.542C19.6348 164.621 19.0361 162.503 17.6544 159.233C15.8123 154.858 13.3254 151.267 11.1148 149.056C10.6082 148.458 10.0555 148.043 9.59497 147.629C9.3647 147.444 9.13443 147.214 8.95021 147.076C8.71994 146.938 8.53573 146.8 8.35151 146.662C7.61464 146.155 7.24621 145.925 7.20016 145.925C7.1541 146.017 8.81205 146.984 10.9305 149.24C13.049 151.497 15.4438 155.043 17.286 159.371C18.2992 161.72 19.0361 163.838 19.5427 165.588C20.1414 167.522 20.5098 169.318 20.7861 170.838C21.0625 172.357 21.2467 173.6 21.3388 174.429C21.3848 175.35 21.4309 175.811 21.4769 175.811Z" fill="#E0E0E0"/>
<path d="M10.4219 193.037L11.5272 207.681H30.3173L31.4226 193.037H10.4219Z" fill="#EBEBEB"/>
<path d="M33.6785 187.236H8.625V192.992H33.6785V187.236Z" fill="#EBEBEB"/>
<path d="M8.625 207.129V208.741H9.77635H33.2179V207.129H8.625Z" fill="#E0E0E0"/>
<path d="M10.9287 211.363L9.77734 208.554H32.3439L31.0083 211.363H10.9287Z" fill="#E0E0E0"/>
<path d="M31.0504 197.827C31.0504 197.827 31.0044 197.873 30.9583 197.965C30.8662 198.057 30.7741 198.195 30.682 198.333C30.4057 198.656 30.0372 199.162 29.5767 199.715L29.5306 199.761L29.4846 199.715C28.7938 198.748 27.8727 197.505 26.7674 195.985H26.9056C26.1226 197.136 25.2015 198.38 24.2344 199.761L24.1423 199.899L24.0502 199.807C23.0831 198.656 22.0238 197.366 20.9185 196.077H21.1027C21.0567 196.123 21.0106 196.215 20.9185 196.307C19.9514 197.551 18.9842 198.702 18.1092 199.853L18.0171 199.991L17.925 199.853C16.9579 198.518 16.0828 197.228 15.2539 196.077H15.392C14.1025 197.551 12.9972 198.84 12.1222 199.807L12.0761 199.853L12.0301 199.761C11.6156 199.024 11.2471 198.472 11.0169 198.057C10.9248 197.873 10.8327 197.735 10.7405 197.597C10.6945 197.505 10.6484 197.459 10.6484 197.413C10.6484 197.413 10.6945 197.459 10.7405 197.551C10.8327 197.689 10.9248 197.827 11.0169 198.011C11.2932 198.426 11.6616 198.978 12.0761 199.715H11.984C12.813 198.748 13.9183 197.459 15.2078 195.939L15.2999 195.847L15.392 195.939C16.221 197.09 17.096 198.333 18.0632 199.669H17.8789C18.754 198.564 19.7211 197.366 20.6882 196.123C20.7343 196.031 20.8264 195.985 20.8725 195.893L20.9646 195.801L21.0567 195.893C22.162 197.228 23.2212 198.472 24.1884 199.623H24.0041C24.9713 198.287 25.8924 196.998 26.6753 195.893L26.7674 195.801L26.8595 195.893C27.9187 197.413 28.8398 198.702 29.4846 199.669H29.3925C29.853 199.07 30.2675 198.656 30.5438 198.287C30.682 198.149 30.7741 198.011 30.8662 197.919C31.0044 197.873 31.0504 197.827 31.0504 197.827Z" fill="#F5F5F5"/>
<path d="M31.6475 192.942C31.6475 192.988 26.95 193.08 21.1011 193.08C15.2983 193.08 10.5547 193.034 10.5547 192.942C10.5547 192.896 15.2522 192.804 21.1011 192.804C26.95 192.804 31.6475 192.85 31.6475 192.942Z" fill="#F5F5F5"/>
<path d="M48.9095 53.9271C48.3568 53.789 45.8238 53.1443 40.8039 51.947H40.85C39.0539 53.0983 36.6591 53.9732 33.8498 54.0192C32.4681 54.0192 30.9944 53.8351 29.5207 53.3746C28.0469 52.9141 26.6193 52.1773 25.2837 51.1181C22.6586 49.092 20.6322 45.8685 20.1717 42.0925C19.9414 40.2505 20.0796 38.2704 20.6783 36.4284C21.277 34.5864 22.2902 32.7905 23.6257 31.3169C24.3166 30.5341 25.1455 29.8894 25.9745 29.2907C26.389 29.0144 26.8495 28.7382 27.3101 28.5079L28.0009 28.1856L28.4154 28.0474L28.7838 27.9093C30.672 27.1725 32.6524 26.8962 34.5866 27.0343C36.5209 27.1725 38.3631 27.679 39.975 28.554C41.5869 29.3828 42.9685 30.5341 44.0738 31.8695C45.1791 33.1589 45.962 34.6325 46.4686 36.106C46.9752 37.5796 47.2055 39.0532 47.2055 40.4807C47.2055 43.2897 46.3304 45.7304 45.2712 47.4802V47.3881C47.5279 51.4405 48.6332 53.4667 48.9095 53.9271C48.6332 53.4667 47.4818 51.4405 45.133 47.4342V47.3881V47.3421C46.1923 45.5922 47.0213 43.1977 47.0213 40.4347C47.0213 39.0532 46.7449 37.5796 46.2844 36.1521C45.7778 34.7246 44.9949 33.251 43.9356 32.0077C42.8764 30.7183 41.4948 29.6131 39.9289 28.7842C38.3631 27.9553 36.5209 27.4488 34.6327 27.3106C32.7445 27.1725 30.7641 27.4488 28.922 28.1856L28.5535 28.3237L28.2312 28.5079L27.5404 28.8303C27.0798 29.0605 26.6653 29.3368 26.2508 29.6131C25.4219 30.2117 24.6389 30.8564 23.9481 31.5932C22.6126 33.0668 21.5994 34.7706 21.0467 36.6126C20.4941 38.4546 20.3098 40.3426 20.5401 42.1846C20.9546 45.8685 22.981 49.0459 25.514 51.026C26.8035 52.0391 28.2312 52.7759 29.6588 53.2364C31.0865 53.6969 32.5603 53.8811 33.8958 53.8811C36.6591 53.8351 39.0078 52.9601 40.8039 51.8549H40.85H40.8961C45.8238 53.0983 48.3568 53.789 48.9095 53.9271Z" fill="#9C9C9C"/>
<path d="M32.5586 34.4942L33.0191 41.2635C33.0652 41.8161 33.4797 42.2766 34.0323 42.2766C34.631 42.3226 35.1376 41.8621 35.1837 41.3095L35.9205 34.5403C35.9666 34.0337 35.5521 33.5732 35.0455 33.5732H33.3876C32.927 33.6193 32.5586 34.0337 32.5586 34.4942Z" fill="#E6427A"/>
<path d="M35.8289 46.0985C35.5525 46.9734 34.6314 47.4339 33.7564 47.1576C32.8814 46.8813 32.4208 45.9603 32.6972 45.0854C32.9735 44.2105 33.8946 43.75 34.7696 44.0263C35.6446 44.3026 36.1052 45.2235 35.8289 46.0985Z" fill="#E6427A"/>
<path d="M70.8147 78.7003C70.0384 74.506 69.4173 72.6419 68.641 69.8457C67.3989 65.03 64.4489 60.525 59.791 59.127L58.8594 66.2728L59.9462 72.0205C60.412 77.1469 64.1384 83.982 66.6226 91.9046L73.1437 95.4775C73.7647 90.3511 71.1252 81.0305 70.8147 78.7003Z" fill="#FABAAF"/>
<path d="M94.0299 101.495C92.8779 101.228 90.4328 101.668 88.7517 101.969C84.7747 98.2646 75.2883 92.8661 68.2706 88.9183C68.0903 88.7928 66.852 89.8043 66.754 90.1376L71.017 96.3163C75.386 98.6882 84.555 103.197 87.6622 104.69C91.9764 106.756 91.0909 105.337 94.3941 106.164C94.2844 105.553 93.6183 105.357 93.4106 105.078C93.203 104.8 91.3691 105.129 91.8707 104.408C92.3997 103.839 97.0352 105.059 97.3566 104.212C98.011 103.463 95.1545 101.609 94.0299 101.495Z" fill="#FABAAF"/>
<path d="M69.5935 76.2568C69.5935 76.2568 71.4567 79.8297 72.5435 84.3347C84.6541 119.443 65.2461 79.2084 65.2461 79.2084L69.5935 76.2568Z" fill="#FABAAF"/>
<path d="M65.6789 211.731H57.7605C57.1394 211.11 56.0526 209.867 54.9657 208.779L54.6552 211.731H53.4131L53.2578 206.449V206.139C53.2578 206.139 53.2578 206.139 53.2578 205.983C53.4131 204.43 55.121 202.255 55.2762 201.944C55.2762 201.944 55.2762 201.944 55.4315 201.944C55.742 202.1 56.3631 202.566 57.1394 204.585C57.9157 206.294 59.0026 208.003 59.9342 208.469C60.5552 208.779 61.4868 208.624 62.1079 208.624C62.1079 208.624 62.1079 208.624 62.2631 208.624C62.4184 208.624 62.5737 208.624 62.5737 208.624C62.5737 208.624 65.8342 210.022 65.8342 210.488C65.8342 210.644 65.6789 211.265 65.6789 211.731Z" fill="#E6427A"/>
<path d="M62.4194 208.469H62.1089C62.1089 208.469 62.1089 208.469 61.9536 208.469C61.4878 208.469 60.401 208.625 59.7799 208.314C58.8483 208.003 57.7615 206.139 56.9852 204.43C56.0536 202.566 55.5878 201.945 55.2773 201.789H55.122C55.2773 201.479 55.2773 201.323 55.4325 201.013C55.7431 200.391 54.8115 194.644 54.0352 188.119H61.022C60.0905 195.731 60.0905 201.168 60.401 202.566C61.1773 205.518 62.4194 208.469 62.4194 208.469Z" fill="#FABAAF"/>
<path d="M88.1921 163.108H34.7812C34.7812 163.108 44.0971 124.738 45.3392 119.146C49.6866 99.2617 55.2761 97.0869 55.2761 97.0869H55.5866H69.0946C71.5788 101.592 75.771 110.447 79.8078 123.029C84.3105 136.544 88.1921 163.108 88.1921 163.108Z" fill="#F97CAA"/>
<path d="M38.043 173.672H81.5169C81.5169 173.672 76.859 137.01 74.8406 123.185C72.9774 111.068 70.1827 101.592 67.5432 97.0869H53.7246C53.7246 97.0869 47.5141 106.252 44.5641 119.146C43.322 124.738 38.043 173.672 38.043 173.672Z" fill="#F97CAA"/>
<path d="M76.7032 188.274H61.1768H54.1899H45.3398C45.3398 188.274 49.0662 123.029 49.2214 119.146C49.532 107.495 55.2767 97.0869 55.2767 97.0869H69.0953C71.5795 101.592 73.2874 111.689 73.7532 123.495C74.5295 137.476 76.7032 188.274 76.7032 188.274Z" fill="#F97CAA"/>
<path d="M71.4246 88.3889C70.3377 89.4763 69.2509 93.9813 69.2509 97.0881H55.7429C55.7429 96.9328 55.8982 96.6221 55.8982 96.4668C56.2087 92.5832 51.5508 80.311 51.5508 80.311C51.5508 80.311 56.985 77.2041 60.4008 76.5827C61.4877 76.4274 70.493 76.5827 70.493 76.5827C70.493 76.5827 72.0456 78.1362 72.6667 79.2236C74.8404 82.4858 72.6667 86.9908 71.4246 88.3889Z" fill="#F97CAA"/>
<path d="M78.4116 69.2801C78.1011 74.4065 73.4431 76.7366 70.4931 76.5813C67.5431 76.2706 66.301 73.3191 65.3694 71.4549C64.4378 69.5908 64.2825 67.5713 63.972 65.8625C63.8167 65.0858 63.6615 64.4644 63.6615 63.8431C63.6615 62.7557 63.972 61.6683 64.7483 60.8915C66.4562 59.0274 67.5431 56.0759 67.5431 53.2797C67.5431 52.503 67.3878 51.5709 67.2326 50.7942C66.6115 47.8426 63.1957 46.7552 62.1088 46.2892H61.9536C61.7983 46.2892 61.7983 46.2892 61.7983 46.2892V46.4445C60.4009 46.7552 59.6246 48.1533 59.0036 50.3281C58.8483 50.9495 58.693 51.5709 58.5378 52.3476C58.2272 54.6778 57.9167 57.6293 57.9167 60.8915C57.9167 62.7557 57.6062 64.3091 57.2957 65.5519C56.2088 63.9984 47.9798 56.2312 53.1035 47.5319C54.3456 45.5125 55.8983 44.4251 57.4509 44.1144C59.3141 43.6483 61.022 43.959 61.1773 43.959C61.3325 43.6483 63.5062 39.7647 68.3194 40.6968C73.4431 41.6289 76.5484 45.8232 76.5484 50.3281C76.7037 57.0079 70.9589 59.0274 72.5115 60.8915C74.3747 62.911 78.5668 65.3965 78.4116 69.2801Z" fill="#10215F"/>
<path d="M52.3248 69.7471C49.9958 69.9024 48.1327 70.3684 45.6484 73.4753L51.2379 80.3105C51.2379 80.3105 56.9827 77.514 60.3985 76.8926C61.4854 76.7372 70.1802 76.5822 70.1802 76.5822C67.2302 76.2715 65.988 73.32 65.0565 71.4559C64.1249 69.5917 63.9696 67.5723 63.6591 65.8635C63.5038 65.0867 63.9696 64.4654 63.9696 63.844C63.9696 62.6012 64.2801 61.6692 65.0565 60.7371C66.7644 58.873 67.8512 55.9214 67.8512 53.1252C67.8512 52.3485 67.6959 51.4165 67.5407 50.6397C66.9196 47.6882 62.8828 46.6008 61.7959 46.1348H61.6406H61.4854C58.5354 46.9115 57.759 52.8146 57.6038 60.7371C57.6038 62.6012 57.2933 64.1547 56.9827 65.3974C56.3617 68.5043 55.5853 69.281 52.3248 69.7471Z" fill="#FABAAF"/>
<path d="M47.9796 88.6986C46.1164 85.9024 45.6506 84.5043 44.719 82.6402C43.0111 79.378 43.1664 75.6497 46.2717 72.8535L50.9296 76.4264L51.5026 79.8748C52.8402 83.2214 55.1217 86.8339 57.2954 92.4263L55.4323 99.4174C52.4822 97.0872 48.6006 89.4753 47.9796 88.6986Z" fill="#FABAAF"/>
<path d="M70.8455 64.1628C70.2517 65.1858 68.838 66.899 67.4736 67.8281L67.3007 67.9635C67.2412 73.59 63.4235 83.1375 62.8718 91.5209L60.3484 91.5209C60.0213 91.6375 59.3384 91.8672 59.0301 91.8296L58.9879 84.4692C60.2053 79.6099 63.2754 69.8123 64.305 66.495C65.639 61.9629 66.2218 63.5989 67.8492 60.511C68.2552 61.03 68.1425 61.9552 67.7592 62.5344C67.5863 62.6698 66.8571 63.5199 67.4736 63.595C68.263 63.5348 70.5029 59.2697 71.3901 59.6909C72.0066 59.7661 71.4394 63.1397 70.8455 64.1628Z" fill="#FABAAF"/>
<path d="M63.5062 86.9882C62.7299 107.183 57.2811 104.319 53.4141 97.0856L57.2956 92.4257C57.2956 87.6569 64.2826 66.7933 63.5062 86.9882Z" fill="#FABAAF"/>
<path d="M64.2099 61.9672C64.2099 61.9672 61.5192 62.1639 58.8594 60.459C58.8594 60.459 60.1893 63.4754 64.2099 63.0819V61.9672Z" fill="#E3A297"/>
<rect x="107" y="127" width="50.8096" height="4.50211" rx="2.25106" fill="#E6E2E2"/>
<rect x="118.254" y="134.502" width="28.299" height="4.50211" rx="2.25106" fill="#E6E2E2"/>
<rect x="96.1797" y="148" width="70.7475" height="3.2158" rx="1.6079" fill="#F2F2F2"/>
<rect x="96.1797" y="155.216" width="70.7475" height="3.2158" rx="1.6079" fill="#F2F2F2"/>
<rect x="111.293" y="162.432" width="40.519" height="3.2158" rx="1.6079" fill="#F2F2F2"/>
<defs>
<linearGradient id="paint0_linear_21996_108144" x1="156.386" y1="52" x2="106.889" y2="98.4634" gradientUnits="userSpaceOnUse">
<stop stop-color="#F8D3BA" stop-opacity="0.83"/>
<stop offset="1" stop-color="#E93779" stop-opacity="0.5"/>
</linearGradient>
<linearGradient id="paint1_linear_21996_108144" x1="115.918" y1="36.6721" x2="160.362" y2="110.535" gradientUnits="userSpaceOnUse">
<stop stop-color="#53D8FF" stop-opacity="0.33"/>
<stop offset="0.1435" stop-color="#4FC2FE" stop-opacity="0.47"/>
<stop offset="1" stop-color="#3840F7"/>
<stop offset="1" stop-color="#3840F7" stop-opacity="0.83"/>
</linearGradient>
<linearGradient id="paint2_linear_21996_108144" x1="105.838" y1="42.736" x2="150.282" y2="116.599" gradientUnits="userSpaceOnUse">
<stop stop-color="#53D8FF" stop-opacity="0.56"/>
<stop offset="0.1435" stop-color="#4FC2FE" stop-opacity="0.51"/>
<stop offset="1" stop-color="#3840F7" stop-opacity="0.53"/>
</linearGradient>
<linearGradient id="paint3_linear_21996_108144" x1="152.887" y1="55" x2="107.89" y2="95.9668" gradientUnits="userSpaceOnUse">
<stop stop-color="#FCE3C5"/>
<stop offset="1" stop-color="#F296B8"/>
</linearGradient>
</defs>
</svg>
