<svg width="25" height="24" viewBox="0 0 25 24" fill="none" xmlns="http://www.w3.org/2000/svg">
<path d="M23.1033 11.6114C23.1033 11.4938 23.0382 11.3763 23.0056 11.2587C22.9554 11.0513 22.8901 10.8477 22.8102 10.6495C22.7559 10.5213 22.6799 10.393 22.6148 10.2541C22.5497 10.1151 22.452 9.93343 22.3542 9.7838C22.2565 9.63417 22.1263 9.55935 22.1263 9.47385C22.1263 9.38835 21.9092 9.20666 21.7897 9.0784C21.6703 8.95015 21.5618 8.86465 21.4423 8.75777L21.0407 8.40507L20.6499 8.14857C20.4964 8.05613 20.3369 7.97401 20.1722 7.90275L19.7488 7.71037C19.5715 7.64571 19.3902 7.59217 19.206 7.55005C19.0601 7.5078 18.9114 7.47566 18.7609 7.45386H18.5655C17.7079 4.82182 15.2337 3.027 12.4262 3.0003C9.61867 2.97361 7.10971 4.72105 6.20062 7.3363H6.00521C5.85475 7.35809 5.70602 7.39023 5.56012 7.43249C5.37593 7.4746 5.19464 7.52815 5.01732 7.5928L4.59394 7.78518C4.42928 7.85644 4.2697 7.93857 4.11628 8.031L3.72547 8.40507L3.3238 8.7364C3.20438 8.84327 3.08497 8.93946 2.97641 9.05703C2.86785 9.17459 2.74843 9.32422 2.63987 9.45248C2.53131 9.58073 2.44447 9.6983 2.35762 9.83724C2.27077 9.97618 2.18392 10.1472 2.09708 10.3075C2.01023 10.4678 1.95595 10.5747 1.90167 10.7029C1.82182 10.9012 1.75651 11.1047 1.70626 11.3122C1.70626 11.4297 1.63027 11.5473 1.60856 11.6648C1.54099 11.9993 1.50465 12.3392 1.5 12.6802C1.50509 13.0065 1.53777 13.3318 1.5977 13.6528C1.5977 13.7597 1.65198 13.8558 1.67369 13.9627C1.72735 14.1727 1.79259 14.3796 1.8691 14.5826L1.99937 14.8926C2.09494 15.0987 2.20371 15.2986 2.32505 15.4911L2.47703 15.7262C2.49265 15.7562 2.51081 15.7848 2.53131 15.8117L2.58559 15.8865C3.61069 17.2321 5.21947 18.0241 6.92797 18.0241C6.93039 17.4581 7.16073 16.9161 7.56847 16.5171C7.97377 16.1157 8.52425 15.8889 9.09915 15.8865C9.48104 15.883 9.85657 15.9828 10.1847 16.1751V12.6802C10.1847 11.4996 11.1568 10.5426 12.3559 10.5426C13.555 10.5426 14.5271 11.4996 14.5271 12.6802V16.282C14.857 16.0936 15.2314 15.9941 15.6127 15.9934C16.2008 15.9988 16.7629 16.2332 17.176 16.6454C17.5415 17.0173 17.7575 17.5072 17.7839 18.0241C19.4924 18.0241 21.1012 17.2321 22.1263 15.8865L22.1806 15.8331C22.2011 15.8061 22.2192 15.7775 22.2348 15.7476L22.3868 15.5124C22.5082 15.3199 22.6169 15.12 22.7125 14.9139L22.8428 14.604C22.9193 14.401 22.9845 14.1941 23.0382 13.9841C23.0382 13.8772 23.0925 13.781 23.1142 13.6741C23.1753 13.3462 23.208 13.0136 23.2119 12.6802C23.2106 12.3213 23.1743 11.9634 23.1033 11.6114Z" fill="#E6427A"/>
<path d="M14.8641 17.2297L13.426 18.5249V12.7272C13.426 12.1595 12.9345 11.6992 12.3283 11.6992C11.722 11.6992 11.2305 12.1595 11.2305 12.7272V18.4735L9.81434 17.1371C9.53588 16.8764 9.13001 16.7745 8.74963 16.87C8.36924 16.9654 8.07213 17.2436 7.9702 17.5998C7.86828 17.956 7.97703 18.3361 8.25549 18.5968L11.5488 21.6807C11.756 21.8731 12.0365 21.9804 12.3283 21.9788C12.6109 21.9778 12.8822 21.8747 13.0857 21.691L16.3791 18.7099C16.6966 18.4646 16.8408 18.0735 16.7527 17.6969C16.6646 17.3204 16.3588 17.0217 15.9608 16.9232C15.5628 16.8247 15.1394 16.943 14.8641 17.2297Z" fill="#E6427A"/>
</svg>
