<svg width="25" height="24" viewBox="0 0 25 24" fill="none" xmlns="http://www.w3.org/2000/svg">
<path d="M8.55078 22.7357H9.81387L11.0772 23.9988H13.6034L14.8667 22.7357H16.1298V21.4727H8.55078V22.7357Z" fill="#E6427A"/>
<path d="M12.3421 1.74355e-06C9.64568 -0.00168999 7.09628 1.22779 5.41873 3.33865C3.74118 5.4495 3.11905 8.21084 3.72954 10.837C4.33981 13.4634 6.11615 15.6673 8.55268 16.8216V20.2102H16.1317V16.8216C18.5682 15.667 20.3445 13.4631 20.9548 10.837C21.5653 8.21073 20.9432 5.44939 19.2656 3.33865C17.5881 1.2279 15.0386 -0.00167646 12.3422 1.74355e-06H12.3421ZM13.3796 12.8734L13.3844 13.8946H11.485L11.4899 12.903C10.5802 12.7402 9.75989 12.2541 9.18069 11.5338C9.65543 11.0656 10.1302 10.5972 10.6049 10.1288H10.6052C11.0752 10.738 11.8162 11.0755 12.5845 11.0305C12.8052 11.0263 13.0199 10.9565 13.2007 10.83C13.3825 10.6976 13.4671 10.4688 13.4149 10.25C13.307 9.90759 12.8634 9.83823 12.5056 9.81116C11.8207 9.79763 11.1526 9.59716 10.5736 9.23132C10.202 8.94943 9.91888 8.56729 9.75712 8.12998C9.59514 7.69267 9.56173 7.21813 9.66027 6.76241C9.88654 5.84124 10.5804 5.10706 11.4871 4.82896L11.485 3.78962C12.1175 3.7894 12.7502 3.78919 13.3827 3.78919C13.3817 4.12035 13.3804 4.45149 13.3796 4.78247C14.1844 4.95524 14.9116 5.38348 15.4532 6.00328C14.9869 6.46343 14.5208 6.92337 14.0546 7.38352C13.6547 6.89376 13.0503 6.61696 12.4184 6.63385C12.2112 6.64062 12.0116 6.71337 11.8486 6.8413C11.6853 6.97537 11.6206 7.19551 11.6859 7.3964C11.809 7.60597 12.0268 7.74194 12.269 7.76097C12.8196 7.81976 13.3657 7.91577 13.9032 8.04857C14.2077 8.15747 14.4854 8.33024 14.7174 8.55546C15.2818 9.09491 15.5658 9.86424 15.4875 10.6411C15.407 11.1842 15.1617 11.6894 14.7847 12.0886C14.4076 12.4879 13.9172 12.7617 13.3797 12.8734L13.3796 12.8734Z" fill="#E6427A"/>
</svg>
