<svg width="18" height="18" viewBox="0 0 18 18" fill="none" xmlns="http://www.w3.org/2000/svg">
<path fill-rule="evenodd" clip-rule="evenodd" d="M9.86816 1.52696C9.48418 0.855598 8.51605 0.855597 8.13207 1.52696L0.133431 15.5118C-0.247864 16.1785 0.233482 17.0083 1.00148 17.0083H16.9988C17.7668 17.0083 18.2481 16.1785 17.8668 15.5118L9.86816 1.52696ZM8.17986 11.1533C8.17986 11.6246 8.55795 12.0063 9.02485 12.0063C9.49136 12.0063 9.86983 11.6246 9.86983 11.1533V5.76847C9.86983 5.29716 9.49175 4.91551 9.02485 4.91551C8.55795 4.91551 8.17986 5.29716 8.17986 5.76847V11.1533ZM8.17986 13.9969C8.17986 14.4682 8.55795 14.8499 9.02485 14.8499C9.49136 14.8499 9.86983 14.4682 9.86983 13.9969V13.7307C9.86983 13.2594 9.49175 12.8777 9.02485 12.8777C8.55795 12.8777 8.17986 13.2594 8.17986 13.7307V13.9969Z" fill="white"/>
</svg>
