<svg width="228" height="210" viewBox="0 0 228 210" fill="none" xmlns="http://www.w3.org/2000/svg">
<path d="M-0.000563622 183.41H15.9434L15.9434 140.774H-0.000563622L-0.000563622 183.41Z" fill="#E6E6E6"/>
<path d="M3.02659 183.381H0.0371094V172.133H6.25055L3.02659 183.381Z" fill="#F0F0F0"/>
<path d="M90.9487 183.41H106.893V140.774H90.9487V183.41Z" fill="#E6E6E6"/>
<path d="M0.0267487 180.332H93.5801V140.758H0.0267487V180.332Z" fill="#F0F0F0"/>
<path d="M90.5423 183.381H93.5904V172.133H87.377L90.5423 183.381Z" fill="#F0F0F0"/>
<path d="M90.777 175.548H62.4648V145.102H90.777V175.548ZM63.051 174.959H90.1909V145.69H63.051V174.959Z" fill="#E6E6E6"/>
<path d="M60.9997 175.548H32.6875V145.102H60.9997V175.548ZM33.2151 174.959H60.4135V145.69H33.2737V174.959H33.2151Z" fill="#E6E6E6"/>
<path d="M31.1638 175.548H2.85156V145.102H31.1638V175.548ZM3.43774 174.959H30.5776V145.69H3.43774V174.959Z" fill="#E6E6E6"/>
<path d="M126.904 94.6367L220.809 94.6367V14.3111L126.904 14.3111L126.904 94.6367Z" fill="#E6E6E6"/>
<path d="M124.811 94.6367L219.889 94.6367V14.3111L124.811 14.3111L124.811 94.6367Z" fill="#F5F5F5"/>
<path d="M216.09 90.7634V18.1523L128.574 18.1523V90.7634L216.09 90.7634Z" fill="#FAFAFA"/>
<path d="M205.372 90.8067L170.905 18.1367H159.24L193.707 90.8067H205.372Z" fill="white"/>
<path d="M190.367 90.8067L155.9 18.1367H147.869L182.336 90.8067H190.367Z" fill="white"/>
<path d="M161.123 90.7478V18.1367H156.61V90.7478H161.123Z" fill="#E6E6E6"/>
<path d="M191.205 90.7946V18.1836H186.692V90.7946H191.205Z" fill="#E6E6E6"/>
<path d="M160.262 93.1924L160.262 15.2812L154.517 15.2812V93.1924H160.262Z" fill="#F5F5F5"/>
<path d="M190.344 93.1807L190.344 15.2695L184.599 15.2695V93.1807H190.344Z" fill="#F5F5F5"/>
<path d="M128.98 90.7673V18.1562H128.57V90.7673H128.98Z" fill="#E6E6E6"/>
<path d="M123.192 9.36328H224.951C225.244 9.36328 225.42 9.59884 225.42 9.8344C225.42 10.1288 225.186 10.3055 224.951 10.3055H123.192C122.899 10.3055 122.723 10.07 122.723 9.8344C122.723 9.59884 122.957 9.36328 123.192 9.36328Z" fill="#E6E6E6"/>
<path d="M220.848 12.6035C221.2 12.6035 221.493 12.309 221.493 11.9557V10.5423C221.493 10.189 221.2 9.89453 220.848 9.89453C220.497 9.89453 220.204 10.189 220.204 10.5423V11.9557C220.145 12.309 220.497 12.6035 220.848 12.6035Z" fill="#E6E6E6"/>
<path d="M130.578 12.6035C130.93 12.6035 131.223 12.309 131.223 11.9557V10.5423C131.223 10.189 130.93 9.89453 130.578 9.89453C130.227 9.89453 129.934 10.189 129.934 10.5423V11.9557C129.934 12.309 130.227 12.6035 130.578 12.6035Z" fill="#E6E6E6"/>
<path opacity="0.6" d="M123.391 49.7187L218.41 49.7188V9.8504L123.391 9.8504V49.7187Z" fill="#E0E0E0"/>
<path d="M34.1529 140.748H20.9053C19.4985 140.748 18.3262 139.57 18.3262 138.156V115.072C18.3262 113.658 19.4985 112.48 20.9053 112.48H34.2115C35.6183 112.48 36.7906 113.658 36.7906 115.072V138.156C36.732 139.57 35.6183 140.748 34.1529 140.748Z" fill="#FAFAFA"/>
<path d="M35.8528 112.891H19.2054C18.7365 112.891 18.3262 112.479 18.3262 112.008V111.301C18.3262 110.83 18.7365 110.418 19.2054 110.418H35.9114C36.3803 110.418 36.7906 110.83 36.7906 111.301V112.008C36.732 112.479 36.3803 112.891 35.8528 112.891Z" fill="#E6E6E6"/>
<path d="M84.6218 140.744H74.95C73.8949 140.744 73.0742 139.919 73.0742 138.859V122.134C73.0742 121.074 73.8949 120.25 74.95 120.25H84.6218C85.677 120.25 86.4976 121.074 86.4976 122.134V138.859C86.4976 139.919 85.677 140.744 84.6218 140.744Z" fill="#F0F0F0"/>
<path d="M85.8528 120.486H73.719C73.3673 120.486 73.0742 120.191 73.0742 119.838V119.308C73.0742 118.955 73.3673 118.66 73.719 118.66H85.8528C86.2045 118.66 86.4976 118.955 86.4976 119.308V119.838C86.4976 120.25 86.2045 120.486 85.8528 120.486Z" fill="#E6E6E6"/>
<path d="M54.0244 140.747H35.7944C33.86 140.747 32.2773 139.157 32.2773 137.213V127.85C32.2773 125.906 33.86 124.316 35.7944 124.316H54.083C56.0174 124.316 57.6 125.906 57.6 127.85V137.213C57.5414 139.157 55.9588 140.747 54.0244 140.747Z" fill="#F0F0F0"/>
<path d="M56.3691 124.728H33.4497C32.8049 124.728 32.2773 124.198 32.2773 123.55V122.607C32.2773 121.96 32.8049 121.43 33.4497 121.43H56.3691C57.0139 121.43 57.5414 121.96 57.5414 122.607V123.55C57.5414 124.198 57.0139 124.728 56.3691 124.728Z" fill="#F5F5F5"/>
<path d="M133.397 183.41H136.328V134.767H133.397V183.41Z" fill="#E6E6E6"/>
<path d="M218.68 125.258H202.678V134.739H218.68V125.258Z" fill="#E6E6E6"/>
<path d="M123.105 134.75H202.648V125.269L123.105 125.269V134.75Z" fill="#F5F5F5"/>
<path d="M218.68 150.582H202.678V160.063H218.68V150.582Z" fill="#E6E6E6"/>
<path d="M123.105 160.012H202.648V150.53H123.105V160.012Z" fill="#F5F5F5"/>
<path d="M212.919 183.41H215.85V134.767H212.919V183.41Z" fill="#E6E6E6"/>
<path d="M199.745 183.41H202.676V134.767H199.745V183.41Z" fill="#F5F5F5"/>
<path d="M123.139 183.41H126.07V134.767H123.139V183.41Z" fill="#F5F5F5"/>
<path d="M8.65282 60.7305L46.2266 60.7305L46.2266 18.3887L8.65282 18.3887L8.65282 60.7305Z" fill="#F0F0F0"/>
<path d="M5.94299 60.7305L45.627 60.7305L45.627 18.3887L5.94299 18.3887L5.94299 60.7305Z" fill="#F5F5F5"/>
<path d="M9.3418 21.6722L9.3418 57.3594H42.3434V21.6722H9.3418Z" fill="white"/>
<path d="M20.3171 29.207C17.7379 29.207 15.2174 30.7382 14.1623 33.2704C12.7555 36.6271 14.3381 40.5728 17.6793 41.9861L42.24 52.3507V37.9816L22.8963 29.737C22.0756 29.3837 21.1964 29.207 20.3171 29.207Z" fill="#F0F0F0"/>
<path d="M58.5727 81.8906H96.1465V39.5489L58.5727 39.5489L58.5727 81.8906Z" fill="#F0F0F0"/>
<path d="M55.9215 81.8906H95.6055V39.5489L55.9215 39.5489L55.9215 81.8906Z" fill="#F5F5F5"/>
<path d="M59.2324 42.8402V78.5273H92.234V42.8402H59.2324Z" fill="white"/>
<path d="M79.4652 56.6484L59.2422 48.1094V62.8907L74.1896 69.1919C77.648 70.6642 81.634 69.0152 83.0995 65.5407C84.5649 62.1251 82.9236 58.1206 79.4652 56.6484Z" fill="#F0F0F0"/>
<path d="M114.341 210C177.113 210 228 207.021 228 203.346C228 199.671 177.113 196.691 114.341 196.691C51.5685 196.691 0.681641 199.671 0.681641 203.346C0.681641 207.021 51.5685 210 114.341 210Z" fill="#F5F5F5"/>
<path d="M78.9958 197.621H70.6286C70.0361 196.984 68.777 195.633 67.7128 194.45L67.4423 197.621H66.0964L65.9015 192.144L65.8887 191.832C65.8919 191.795 65.8935 191.759 65.8967 191.723C66.0448 190.118 67.8497 187.777 68.0831 187.48C68.1008 187.459 68.1089 187.448 68.1089 187.448C68.1089 187.448 68.1218 187.448 68.1459 187.454C68.1733 187.461 68.2168 187.476 68.2747 187.509C68.5549 187.663 69.1763 188.217 70.0715 190.196C70.8507 191.915 71.9874 193.809 72.9325 194.214C73.5797 194.494 74.5908 194.451 75.1575 194.397C75.1865 194.394 75.2155 194.391 75.2429 194.388L75.2477 194.387C75.3894 194.372 75.4924 194.358 75.5439 194.349C75.5584 194.348 75.5681 194.345 75.5745 194.345H75.5794C75.5794 194.345 79.057 195.797 79.0763 196.306C79.0908 196.632 79.0377 197.234 78.9958 197.621Z" fill="#E6427A"/>
<path d="M75.5638 194.342H75.5575L75.5273 194.346L75.2318 194.384L75.2255 194.385C75.2001 194.388 75.1699 194.391 75.1413 194.394C74.5742 194.448 73.5639 194.491 72.9158 194.211C71.9723 193.806 70.8349 191.912 70.0566 190.193C69.1607 188.214 68.538 187.66 68.2584 187.506C68.1996 187.473 68.1568 187.457 68.1282 187.45C68.1043 187.445 68.0932 187.445 68.0932 187.445C68.0932 187.445 68.0837 187.456 68.0678 187.477C68.1806 187.196 68.295 186.917 68.4061 186.654C68.6746 186.014 67.8248 179.971 66.9082 173.153L74.2025 173.124C73.2176 181.155 73.2335 186.843 73.5369 188.206C74.193 191.133 75.5638 194.342 75.5638 194.342Z" fill="#FABAAF"/>
<path d="M116.908 44.2518C116.014 45.4247 111.909 47.7677 111.909 47.7677C111.909 47.7677 104.703 75.8182 99.6598 75.5012C95.499 75.2401 84.9285 63.7748 84.4623 63.2675C83.9989 61.2619 83.3172 59.57 83.3172 59.57C83.3172 59.57 80.7009 58.3939 78.4136 60.0685C76.5285 61.4467 74.7422 56.6688 74.7422 56.6688C74.7422 56.6688 80.2835 56.9297 76.0124 57.4343C71.741 57.936 75.5033 56.7147 75.5033 56.7147C75.5033 56.7147 73.7481 58.0703 73.2237 58.6568C72.6932 59.2433 71.698 59.57 71.698 59.57C71.698 59.57 77.1638 55.3079 77.796 55.3931C78.1808 55.4429 79.5178 54.971 80.9164 54.6279C81.8256 54.405 82.7548 54.2379 83.4716 54.3053C85.2924 54.4724 87.0845 56.9003 86.9767 57.2345C86.869 57.5691 84.0076 56.4809 82.271 57.2345C80.5316 57.988 79.0397 58.6568 77.7637 58.6568C77.7198 58.6568 77.6615 58.6484 77.5889 58.6307C75.4911 58.1029 74.3489 60.19 74.7831 55.9033C75.2146 51.6631 70.3428 55.6355 74.7831 53.7118C76.7644 54.5212 68.0295 54.1404 70.6458 52.7096C74.0663 50.8358 73.2621 43.3319 73.5622 41.6577C73.8596 39.9835 76.0244 38.8953 77.7638 38.1418C79.0111 37.6023 80.0129 36.6551 80.4763 35.7461C80.6742 36.8399 81.1464 39.6545 81.0354 40.9889C80.9656 41.8188 80.7177 43.399 80.4032 44.7949C80.0855 46.2056 79.704 47.4311 79.3747 47.5159C78.7253 47.683 76.2631 47.5159 76.2631 47.5159C76.2631 47.5159 76.1174 48.7679 76.0184 50.0111C75.925 51.1547 75.8727 52.2955 76.0124 52.4538C76.1932 52.659 78.7979 52.3598 81.3416 52.5506C82.9149 52.6707 84.4679 52.9788 85.4002 53.7118C86.8163 54.8233 99.3301 67.5202 99.3301 67.5202C99.3301 67.5202 108.805 47.4693 109.501 46.0087C110.466 44.0003 114.169 40.7366 114.169 40.7366C114.169 40.7366 114.615 41.156 114.05 42.159C113.711 42.7631 112.657 43.5813 112.96 43.7484C113.266 43.9184 117.951 39.397 118.35 39.397C118.749 39.397 117.806 43.0789 116.908 44.2518Z" fill="#FABAAF"/>
<path d="M84.9905 68.5929C83.9264 69.7203 82.789 74.4042 82.6375 77.7812C82.6272 77.7626 82.617 77.7389 82.6051 77.7203L68.4052 77.6695V77.6678C68.4648 77.4765 68.5023 77.2514 68.5244 76.9975C68.8581 72.9433 64.0039 60.1493 64.0039 60.1493C64.0039 60.1493 69.6737 56.8196 73.336 56.1882C74.4819 55.9919 83.9604 56.1882 83.9604 56.1882C83.9604 56.1882 85.5422 57.8116 86.2453 58.8984C88.5149 62.3973 86.3713 67.1371 84.9905 68.5929Z" fill="#F97CAA"/>
<path d="M90.5001 173.058L74.2279 173.122L66.9335 173.151L57.6836 173.188C57.6836 173.188 61.5727 104.877 61.7038 100.785C62.0952 88.5842 68.1162 77.6658 68.1162 77.6658L82.616 77.7176C85.2653 82.4377 86.9503 92.9986 87.5534 105.358C88.2657 119.978 90.5001 173.058 90.5001 173.058Z" fill="#F97CAA"/>
<path d="M51.6953 157.805H97.2531C97.2531 157.805 92.4245 119.463 90.2073 105.001C88.25 92.233 85.2581 82.4348 82.6071 77.7146L68.1092 77.6632C68.1092 77.6632 61.5488 87.292 58.4692 100.703C57.1058 106.633 51.6953 157.805 51.6953 157.805Z" fill="#F97CAA"/>
<path d="M102.551 146.789H46.6074C46.6074 146.789 56.3489 106.657 57.6643 100.714C62.2825 79.8638 68.1056 77.6753 68.1056 77.6753L68.4055 77.6771L82.6055 77.7276C82.6178 77.7468 82.6283 77.7695 82.6388 77.7887C85.2925 82.5266 89.5599 91.753 93.9097 105.015C98.4647 118.89 102.551 146.789 102.551 146.789Z" fill="#F97CAA"/>
<path d="M92.2644 48.5255C91.9112 53.8468 87.1197 56.3435 83.9604 56.11C83.9468 56.11 83.9332 56.1081 83.9215 56.1062C80.7893 55.8496 79.5182 52.7239 78.509 50.7385C77.5018 48.7551 77.3699 46.6076 77.0264 44.8904C76.8731 44.1283 76.778 43.4106 76.7819 42.7411C76.7896 41.5506 77.1079 40.5068 77.956 39.6154C79.8035 37.6763 80.8669 34.5661 80.8844 31.5813C80.8864 31.5543 80.8863 31.5273 80.8863 31.5002C80.8863 30.6281 80.7971 29.7695 80.6127 28.9534C79.9257 25.9281 76.3957 24.6469 75.2313 24.3054C75.1595 24.2823 75.0954 24.2649 75.043 24.2514C74.9247 24.2186 74.8587 24.2032 74.8587 24.2032L74.847 24.1646L74.816 24.2996C73.4148 24.6392 72.4756 26.1191 71.8584 28.4228L71.8565 28.4325C71.6838 29.075 71.5382 29.7792 71.414 30.5432C71.0104 33.0187 70.8376 36.0903 70.793 39.5266C70.7658 41.5506 70.5097 43.1443 70.1235 44.4061C69.0581 42.824 60.3271 34.6915 65.7842 25.5055C67.0495 23.3754 68.6505 22.2872 70.302 21.8917C72.3048 21.4074 74.1057 21.7779 74.1911 21.7972H74.195L74.2124 21.8531C74.4201 21.4537 76.6674 17.4174 81.717 18.411C87.0285 19.4529 90.2656 23.7806 90.3238 28.5328C90.4111 35.6003 84.4048 37.6551 86.1455 39.6154C88.1677 41.8902 92.5361 44.4544 92.2644 48.5255Z" fill="#10215F"/>
<path d="M74.4711 79.3314C74.5736 80.0845 66.8353 80.4997 65.0071 80.3884C64.3237 80.3449 63.2624 79.9391 59.7977 79.3087C53.9921 78.2517 45.4072 76.0641 44.5965 73.012C44.1978 71.5115 55.2014 56.5436 58.0682 52.9593C60.6615 49.7203 62.5846 49.105 65.0071 48.9559C68.3579 48.5765 69.1895 47.763 70.1273 44.4089C70.4823 43.1386 70.769 41.5531 70.7956 39.5316C70.9057 31.2247 71.7581 25.0451 74.8204 24.3033C74.8355 24.2995 74.8488 24.2957 74.8621 24.2938C74.9248 24.2806 74.9855 24.2674 75.0482 24.2542C75.0994 24.2674 75.1621 24.2863 75.2342 24.307C76.398 24.6506 79.9292 25.9303 80.6164 28.9578C80.8006 29.7732 80.8898 30.632 80.8898 31.5041C80.8898 31.5305 80.8898 31.5569 80.8898 31.5834C80.8518 34.5429 79.7887 37.6101 77.9605 39.5316C77.0891 40.4452 76.7777 41.5172 76.7853 42.7441C76.7815 43.4142 76.8764 44.1314 77.0302 44.8921C77.3738 46.6097 77.5067 48.7577 78.5129 50.7414C79.521 52.7271 80.793 55.8528 83.9255 56.1095L83.9635 56.1907C83.9635 56.1907 74.4843 55.9944 73.3395 56.1907C69.6774 56.8192 64.0066 60.1506 64.0066 60.1506C63.6744 60.2884 54.313 70.2563 53.4548 70.8376C52.9138 71.2019 56.4487 72.6043 61.1817 74.6221C64.5192 76.0452 66.6189 77.7477 66.6189 77.7477C66.6189 77.7477 69.7666 76.636 71.8815 76.636C74.471 76.636 74.3723 78.5801 74.4711 79.3314Z" fill="#FABAAF"/>
<path d="M69.463 22.2151C69.0089 22.1011 66.9273 21.5693 62.8019 20.5815H62.8398C61.3637 21.5313 59.3956 22.2531 57.087 22.2911C55.9515 22.2911 54.7404 22.1391 53.5293 21.7592C52.3182 21.3793 51.1449 20.7715 50.0473 19.8977C47.89 18.2261 46.2248 15.5667 45.8463 12.4514C45.657 10.9318 45.7706 9.29815 46.2626 7.7785C46.7546 6.25886 47.5873 4.77721 48.6848 3.56149C49.2525 2.91564 49.9338 2.38377 50.6151 1.88988C50.9557 1.66194 51.3342 1.43399 51.7126 1.24404L52.2803 0.978097L52.621 0.864124L52.9237 0.750151C54.4755 0.142294 56.1029 -0.0856535 57.6925 0.0283198C59.2821 0.142293 60.796 0.560196 62.1207 1.28203C63.4453 1.96587 64.5807 2.91564 65.4891 4.01738C66.3974 5.08114 67.0408 6.29685 67.4571 7.51257C67.8735 8.72828 68.0627 9.944 68.0627 11.1217C68.0627 13.4392 67.3436 15.4527 66.4731 16.8964V16.8204C68.3276 20.1636 69.236 21.8352 69.463 22.2151C69.236 21.8352 68.2898 20.1636 66.3596 16.8584V16.8204V16.7824C67.2301 15.3387 67.9113 13.3632 67.9113 11.0837C67.9113 9.944 67.6842 8.72828 67.3057 7.55056C66.8894 6.37283 66.246 5.15712 65.3755 4.13136C64.505 3.06761 63.3696 2.15582 62.0828 1.47198C60.796 0.788142 59.2821 0.37024 57.7304 0.256267C56.1786 0.142293 54.5512 0.37024 53.0373 0.978097L52.7345 1.09207L52.4696 1.24404L51.9019 1.50997C51.5234 1.69993 51.1828 1.92787 50.8421 2.15582C50.1609 2.64971 49.5175 3.18158 48.9498 3.78944C47.8522 5.00515 47.0196 6.41082 46.5654 7.93047C46.1112 9.45011 45.9598 11.0077 46.1491 12.5274C46.4897 15.5667 48.155 18.1881 50.2366 19.8217C51.2963 20.6575 52.4696 21.2653 53.6428 21.6453C54.8161 22.0252 56.0272 22.1771 57.1248 22.1771C59.3956 22.1391 61.3259 21.4173 62.8019 20.5055H62.8398H62.8776C66.9273 21.5313 69.0089 22.1011 69.463 22.2151Z" fill="#9C9C9C"/>
<path d="M56.0273 6.1817L56.4058 11.7664C56.4437 12.2223 56.7843 12.6022 57.2385 12.6022C57.7305 12.6402 58.1468 12.2603 58.1846 11.8044L58.7902 6.21969C58.828 5.80179 58.4874 5.42188 58.0711 5.42188H56.7086C56.3301 5.45987 56.0273 5.80179 56.0273 6.1817Z" fill="#E6427A"/>
<path d="M58.7136 15.756C58.4865 16.4779 57.7295 16.8578 57.0104 16.6298C56.2913 16.4019 55.9129 15.6421 56.1399 14.9202C56.367 14.1984 57.124 13.8185 57.8431 14.0464C58.5622 14.2744 58.9407 15.0342 58.7136 15.756Z" fill="#E6427A"/>
<path d="M141.539 71.0804C142.887 61.4225 136.146 53.5312 126.533 53.5312H144.001H196.933C206.546 53.5312 213.287 61.3636 211.939 71.0804H141.539Z" fill="#263238"/>
<path opacity="0.7" d="M141.539 71.0804C142.887 61.4225 136.146 53.5312 126.533 53.5312H144.001H196.933C206.546 53.5312 213.287 61.3636 211.939 71.0804H141.539Z" fill="#A6BFF3"/>
<path d="M126.475 53.5312H179.407H196.875C187.261 53.5312 178.352 61.3636 177.003 71.0804L161.059 185.798C159.711 195.456 150.801 203.347 141.188 203.347H105.666C96.0527 203.347 89.3118 195.514 90.66 185.798L106.604 71.0804C107.952 61.3636 116.862 53.5312 126.475 53.5312Z" fill="#A6BFF3"/>
<path d="M126.182 185.797C124.834 195.455 131.575 203.346 141.189 203.346H123.721H70.789C61.1758 203.346 54.4348 195.514 55.783 185.797H126.182Z" fill="#263238"/>
<path opacity="0.7" d="M126.182 185.797C124.834 195.455 131.575 203.346 141.189 203.346H123.721H70.789C61.1758 203.346 54.4348 195.514 55.783 185.797H126.182Z" fill="#A6BFF3"/>
<path opacity="0.7" d="M137.493 89.2179H164.75C165.571 89.2179 166.274 88.5701 166.392 87.7457C166.509 86.9212 165.923 86.2734 165.161 86.2734H137.904C137.083 86.2734 136.38 86.9212 136.262 87.7457C136.145 88.5701 136.673 89.2179 137.493 89.2179Z" fill="white"/>
<path opacity="0.7" d="M136.732 94.6359H156.779C157.6 94.6359 158.303 93.9881 158.421 93.1637C158.538 92.3392 157.952 91.6914 157.19 91.6914H137.143C136.322 91.6914 135.619 92.3392 135.501 93.1637C135.384 93.9881 135.97 94.6359 136.732 94.6359Z" fill="white"/>
<path opacity="0.4" d="M125.464 95.4918C129.229 91.9644 129.792 86.4249 126.722 83.1188C123.653 79.8127 118.113 79.9921 114.349 83.5194C110.585 87.0468 110.021 92.5864 113.091 95.8924C116.16 99.1985 121.7 99.0191 125.464 95.4918Z" fill="white"/>
<path d="M112.113 89.512C111.937 90.8665 112.113 92.1032 112.523 93.2221C113.52 95.6366 115.864 97.2855 118.795 97.2855C121.726 97.2855 124.54 95.6366 126.181 93.2221C126.943 92.1032 127.471 90.8665 127.646 89.512C128.233 85.2131 125.243 81.6797 120.964 81.6797C116.685 81.6797 112.699 85.2131 112.113 89.512Z" fill="white"/>
<path d="M114.225 92.5158C114.987 94.4003 116.745 95.637 119.031 95.637C121.317 95.637 123.428 94.3414 124.717 92.5158C123.369 91.5147 121.61 90.9258 119.676 90.9258C117.742 90.9258 115.866 91.5147 114.225 92.5158Z" fill="#D3DFF9"/>
<path d="M117.506 87.568C117.331 89.0403 118.327 90.218 119.792 90.218C121.258 90.218 122.606 89.0403 122.841 87.568C123.016 86.0958 122.02 84.918 120.555 84.918C119.089 84.918 117.682 86.0958 117.506 87.568Z" fill="#D3DFF9"/>
<path opacity="0.7" d="M134.213 112.831H143.416C144.236 112.831 144.94 112.183 145.057 111.359C145.174 110.535 144.588 109.887 143.826 109.887H134.623C133.802 109.887 133.099 110.535 132.982 111.359C132.865 112.183 133.451 112.831 134.213 112.831Z" fill="white"/>
<path opacity="0.7" d="M148.986 112.831H162.116C162.936 112.831 163.64 112.183 163.757 111.359C163.874 110.535 163.288 109.887 162.526 109.887H149.396C148.575 109.887 147.872 110.535 147.755 111.359C147.637 112.183 148.165 112.831 148.986 112.831Z" fill="white"/>
<path opacity="0.7" d="M133.451 118.249H155.96C156.781 118.249 157.484 117.601 157.601 116.777C157.719 115.952 157.132 115.305 156.37 115.305H133.861C133.041 115.305 132.337 115.952 132.22 116.777C132.103 117.542 132.689 118.249 133.451 118.249Z" fill="white"/>
<path opacity="0.4" d="M122.195 119.105C125.959 115.578 126.522 110.038 123.453 106.732C120.384 103.426 114.844 103.605 111.08 107.133C107.315 110.66 106.752 116.2 109.821 119.506C112.891 122.812 118.43 122.632 122.195 119.105Z" fill="white"/>
<path d="M108.832 113.125C108.656 114.48 108.832 115.716 109.242 116.835C110.238 119.25 112.583 120.899 115.514 120.899C118.445 120.899 121.258 119.25 122.9 116.835C123.662 115.716 124.189 114.48 124.365 113.125C124.951 108.826 121.962 105.293 117.683 105.293C113.404 105.293 109.418 108.826 108.832 113.125Z" fill="white"/>
<path d="M110.941 116.129C111.703 118.014 113.462 119.25 115.748 119.25C118.034 119.25 120.144 117.955 121.434 116.129C120.086 115.128 118.327 114.539 116.393 114.539C114.458 114.48 112.583 115.069 110.941 116.129Z" fill="#D3DFF9"/>
<path d="M114.223 111.181C114.047 112.654 115.044 113.831 116.509 113.831C117.975 113.831 119.323 112.654 119.557 111.181C119.792 109.709 118.737 108.531 117.271 108.531C115.806 108.531 114.458 109.709 114.223 111.181Z" fill="#D3DFF9"/>
<path opacity="0.7" d="M130.93 136.448H146.932C147.753 136.448 148.456 135.801 148.573 134.976C148.691 134.152 148.104 133.504 147.342 133.504H131.34C130.519 133.504 129.816 134.152 129.699 134.976C129.581 135.742 130.167 136.448 130.93 136.448Z" fill="white"/>
<path opacity="0.7" d="M130.168 141.808H155.139C155.959 141.808 156.663 141.16 156.78 140.336C156.897 139.511 156.311 138.863 155.549 138.863H130.578C129.758 138.863 129.054 139.511 128.937 140.336C128.82 141.16 129.406 141.808 130.168 141.808Z" fill="white"/>
<path opacity="0.5" d="M102.852 164.833H141.071C142.185 164.833 143.24 163.891 143.357 162.772C143.533 161.653 142.712 160.711 141.599 160.711H103.38C102.266 160.711 101.211 161.653 101.094 162.772C100.977 163.891 101.739 164.833 102.852 164.833Z" fill="white"/>
<path opacity="0.5" d="M101.798 172.368H129.875C130.989 172.368 132.044 171.426 132.162 170.307C132.337 169.188 131.517 168.246 130.403 168.246H102.325C101.212 168.246 100.156 169.188 100.039 170.307C99.922 171.485 100.684 172.368 101.798 172.368Z" fill="white"/>
<path opacity="0.5" d="M116.159 72.1396H161.763C162.35 72.1396 162.877 71.6684 162.936 71.0795C162.994 70.4907 162.584 70.0195 162.056 70.0195H116.452C115.866 70.0195 115.338 70.4907 115.28 71.0795C115.163 71.6684 115.573 72.1396 116.159 72.1396Z" fill="white"/>
<path opacity="0.4" d="M118.927 142.726C122.691 139.199 123.255 133.659 120.185 130.353C117.116 127.047 111.576 127.226 107.812 130.754C104.048 134.281 103.484 139.821 106.554 143.127C109.623 146.433 115.163 146.254 118.927 142.726Z" fill="white"/>
<path d="M105.548 136.742C105.373 138.097 105.548 139.334 105.959 140.453C106.955 142.867 109.3 144.516 112.231 144.516C115.162 144.516 117.975 142.867 119.617 140.453C120.379 139.334 120.906 138.097 121.082 136.742C121.668 132.444 118.679 128.91 114.4 128.91C110.121 128.91 106.193 132.385 105.548 136.742Z" fill="white"/>
<path opacity="0.4" d="M107.658 139.688C108.42 141.572 110.179 142.809 112.465 142.809C114.751 142.809 116.861 141.513 118.151 139.688C116.803 138.687 115.044 138.098 113.11 138.098C111.234 138.098 109.358 138.687 107.658 139.688Z" fill="#D3DFF9"/>
<path opacity="0.4" d="M110.942 134.798C110.766 136.271 111.763 137.449 113.228 137.449C114.693 137.449 116.042 136.271 116.276 134.798C116.452 133.326 115.456 132.148 113.99 132.148C112.525 132.148 111.176 133.326 110.942 134.798Z" fill="#D3DFF9"/>
<path d="M130.041 86.0516C131.465 84.6234 131.465 82.3079 130.041 80.8797C128.618 79.4516 126.31 79.4516 124.886 80.8797C123.462 82.3079 123.462 84.6234 124.886 86.0516C126.31 87.4797 128.618 87.4797 130.041 86.0516Z" fill="#F999BA"/>
<path opacity="0.75" d="M127.961 83.4685L129.404 84.916L128.905 85.4136L127.465 83.9699L126.022 85.4136L125.525 84.916L126.965 83.4685L125.525 82.0248L126.022 81.5234L127.465 82.9709L128.905 81.5234L129.404 82.0248L127.961 83.4685Z" fill="white"/>
<path d="M127.125 110.919C128.549 109.491 128.549 107.175 127.125 105.747C125.702 104.319 123.394 104.319 121.97 105.747C120.546 107.175 120.546 109.491 121.97 110.919C123.394 112.347 125.702 112.347 127.125 110.919Z" fill="#F999BA"/>
<path opacity="0.75" d="M125.047 108.336L126.49 109.783L125.99 110.281L124.551 108.837L123.107 110.281L122.611 109.783L124.051 108.336L122.611 106.892L123.107 106.391L124.551 107.838L125.99 106.391L126.49 106.892L125.047 108.336Z" fill="white"/>
<path d="M124.209 132.86C125.633 131.432 125.633 129.116 124.209 127.688C122.786 126.26 120.478 126.26 119.054 127.688C117.63 129.116 117.63 131.432 119.054 132.86C120.478 134.288 122.786 134.288 124.209 132.86Z" fill="#F999BA"/>
<path opacity="0.75" d="M122.129 130.273L123.572 131.721L123.072 132.218L121.633 130.775L120.19 132.218L119.693 131.721L121.133 130.273L119.693 128.829L120.19 128.328L121.633 129.776L123.072 128.328L123.572 128.829L122.129 130.273Z" fill="white"/>
</svg>
