<svg width="25" height="24" viewBox="0 0 25 24" fill="none" xmlns="http://www.w3.org/2000/svg">
<path d="M21.0861 21.1077L19.5215 14.6986C19.1943 13.3598 17.969 12.2298 16.6126 11.9039C15.6182 13.1762 14.0739 13.9963 12.3345 13.9963C10.5951 13.9963 9.05042 13.176 8.05598 11.9039C6.69992 12.2298 5.4741 13.3598 5.14748 14.6986L3.58237 21.1077C3.19416 22.6988 4.21594 24 5.85339 24H18.8154C20.4527 24 21.4752 22.6988 21.0861 21.1077H21.0861ZM12.9993 9.90138C13.4556 9.90138 13.8818 10.0433 14.1769 10.2881C15.0571 10.1731 15.8364 9.63429 16.2525 8.84704V5.33901C16.2482 5.09905 16.2198 4.86505 16.1738 4.63662C15.3466 3.39742 13.9363 2.57989 12.3341 2.57989C10.7669 2.57989 9.38431 3.36337 8.55059 4.55776C8.49349 4.81186 8.46093 5.07486 8.45647 5.34477V9.50553C8.45647 9.55408 8.44586 9.59965 8.42875 9.64206C9.15309 10.794 10.3698 11.6034 11.7855 11.7708C11.5575 11.5742 11.4159 11.3223 11.4159 11.0401C11.4165 10.4014 12.1122 9.90135 12.9993 9.90135L12.9993 9.90138ZM8.08451 9.50536V5.33903C8.12152 3.0092 10.0164 1.12971 12.3546 1.12971C14.6934 1.12971 16.5872 3.0092 16.6246 5.33903V8.93616C16.1469 9.9116 15.1813 10.595 14.0438 10.6752C13.8377 10.4401 13.4542 10.2736 12.9996 10.2736C12.331 10.2736 11.7888 10.6166 11.7888 11.04C11.7888 11.4638 12.3306 11.8068 12.9996 11.8068C13.5148 11.8068 13.9486 11.6009 14.1225 11.3124C15.3893 11.211 16.4724 10.4933 17.0788 9.44814C17.9477 9.23515 18.4953 8.43156 18.4953 7.5986C18.4953 6.51192 17.7543 6.6103 17.7543 5.3391C17.7163 2.38521 15.3164 0 12.3547 0C9.39095 0 6.99226 2.38507 6.95511 5.3391C6.95511 6.6103 6.2142 6.51173 6.2142 7.5986C6.21402 8.56961 6.95511 9.50581 8.08455 9.50581L8.08451 9.50536Z" fill="#E6427A"/>
</svg>
