<svg width="14" height="16" viewBox="0 0 14 16" fill="none" xmlns="http://www.w3.org/2000/svg">
<path d="M3.29437 14.9999H10.5914C12.0211 14.9999 13.1908 13.8301 13.1908 12.4005L13.1909 4.99208C13.1909 3.56235 12.0211 2.39269 10.5915 2.39269H10.1088V1.37145C10.1088 1.1672 9.94173 1.00013 9.73749 1.00013C9.53325 1.00013 9.36617 1.16721 9.36617 1.37145V2.39269L4.52005 2.39256V1.37132C4.52005 1.16707 4.35298 1 4.14874 1C3.9445 1 3.77742 1.16708 3.77742 1.37132V2.39256H3.2947C1.86497 2.39256 0.695313 3.56235 0.695313 4.99195V12.3818C0.695183 13.8302 1.86483 15 3.2946 15L3.29437 14.9999ZM3.29437 3.13526H3.77709V4.52782C3.77709 4.73207 3.94417 4.89914 4.14841 4.89914C4.35265 4.89914 4.51972 4.73206 4.51972 4.52782V3.13526H9.38441V4.52782C9.38441 4.73207 9.55149 4.89914 9.75573 4.89914C9.95998 4.89914 10.127 4.73206 10.127 4.52782V3.13526H10.6098C11.631 3.13526 12.4665 3.97076 12.4665 4.99201V6.49595H1.43775V4.99201C1.43775 3.97076 2.27326 3.13526 3.2945 3.13526H3.29437ZM1.43762 7.23868H12.4481V12.3819C12.4481 13.4031 11.6126 14.2386 10.5914 14.2386H3.29437C2.27312 14.2386 1.43762 13.4031 1.43762 12.3819V7.23868Z" fill="#E6427A" stroke="#E6427A" stroke-width="0.4"/>
</svg>
