<svg width="36" height="36" viewBox="0 0 36 36" fill="none" xmlns="http://www.w3.org/2000/svg">
<circle cx="18" cy="18" r="18" fill="#E6427A"/>
<path d="M18.1358 18.05C20.8858 18.05 23.1358 15.8 23.1358 13.05C23.1358 10.3 20.8858 8 18.1358 8C15.3857 8 13.1357 10.25 13.1357 13C13.1357 15.75 15.3857 18.05 18.1358 18.05ZM18.1358 9C20.3358 9 22.1358 10.7999 22.1358 13C22.1358 15.2001 20.3358 17 18.1358 17C15.9357 17 14.1357 15.2001 14.1357 13C14.1357 10.7999 15.9357 9 18.1358 9Z" fill="white" stroke="white" stroke-width="0.3"/>
<path d="M23.3356 18.9504C23.7857 18.9504 24.0357 18.4005 23.6857 18.1004C23.6357 18.0505 23.6357 18.0505 23.5856 18.0004C22.9856 17.4504 21.9357 17.4003 21.2857 17.8504C19.4357 19.1004 16.8857 19.1004 14.9857 17.8504C14.2357 17.3504 13.2856 17.4504 12.6357 18.0505C10.6856 19.8504 9.68557 21.6505 9.08572 24.2005C8.78577 25.5004 9.28577 26.8005 10.3856 27.6004C10.7355 27.8504 11.1855 28.0004 11.6855 28.0004H20.0355C20.3354 28.0004 20.5355 27.8004 20.5355 27.5004C20.5355 27.2005 20.3354 27.0004 20.0355 27.0004H11.6855C11.4355 27.0004 11.1855 26.9004 10.9854 26.8003C10.2354 26.2504 9.88536 25.3503 10.0854 24.4503C10.6354 22.0503 11.5854 20.4503 13.3854 18.8003C13.5353 18.6503 13.7853 18.5503 13.9854 18.5503C14.1354 18.5503 14.2854 18.6002 14.4355 18.6503C14.8354 18.8504 15.1855 19.1503 15.5854 19.3003C17.7354 20.1503 20.0355 19.8502 21.8355 18.6503C22.1354 18.4503 22.6855 18.5003 22.9355 18.7003C22.9854 18.7502 23.0855 18.8502 23.1356 18.9003L23.3356 18.9504Z" fill="white" stroke="white" stroke-width="0.3"/>
<path fill-rule="evenodd" clip-rule="evenodd" d="M23.5 20C21.567 20 20 21.567 20 23.5C20 25.433 21.567 27 23.5 27C25.433 27 27 25.433 27 23.5C27 21.567 25.433 20 23.5 20Z" stroke="white"/>
<path d="M23.157 24.5932C23.0534 24.6881 22.8859 24.6881 22.7822 24.5932L21.8278 23.7192C21.7241 23.6243 21.7241 23.4709 21.8278 23.376C21.9314 23.2811 22.0989 23.2811 22.2026 23.376L22.9683 24.0771L24.7974 22.4023C24.9011 22.3073 25.0686 22.3073 25.1722 22.4023C25.2759 22.4972 25.2759 22.6506 25.1722 22.7455L23.157 24.5932Z" fill="white" stroke="white" stroke-width="0.4"/>
</svg>
