<svg width="10" height="10" viewBox="0 0 10 10" fill="none" xmlns="http://www.w3.org/2000/svg">
<path fill-rule="evenodd" clip-rule="evenodd" d="M5.29037 0.132681C5.21748 0.0483237 5.11162 0 4.99998 0C4.88835 0 4.78249 0.0483218 4.70959 0.132681L3.9359 1.02915L2.81774 0.639796C2.71263 0.602936 2.59643 0.6141 2.49979 0.669689C2.40307 0.725728 2.33557 0.820425 2.31489 0.930179L2.09314 2.09322L0.930179 2.31491C0.820423 2.33604 0.725347 2.40354 0.669689 2.49981C0.6141 2.59646 0.602936 2.71266 0.639796 2.81776L1.02915 3.93592L0.132681 4.70961C0.0483237 4.78251 0 4.88836 0 5C0 5.11164 0.0483218 5.21749 0.132681 5.29039L1.02915 6.06408L0.639796 7.18224C0.602936 7.28735 0.6141 7.40355 0.669689 7.50019C0.725352 7.59646 0.820425 7.66396 0.930179 7.68509L2.09314 7.90678L2.31489 9.06982C2.33557 9.17958 2.40307 9.27427 2.49979 9.33031C2.59644 9.3859 2.71264 9.39706 2.81774 9.3602L3.9359 8.97085L4.70959 9.86732C4.78249 9.95168 4.88835 10 4.99998 10C5.11161 10 5.21747 9.95168 5.29037 9.86732L6.06406 8.97085L7.18176 9.3602C7.28724 9.39706 7.40351 9.3859 7.49979 9.33031C7.59643 9.27427 7.66393 9.17957 7.68506 9.06982L7.90675 7.90678L9.06979 7.68509C9.1791 7.66396 9.27424 7.59646 9.33021 7.50019C9.38587 7.40354 9.39696 7.28734 9.36018 7.18224L8.97082 6.06408L9.86685 5.29039C9.95128 5.2175 9.99998 5.11164 9.99998 5C9.99998 4.88836 9.95128 4.78251 9.86685 4.70961L8.97082 3.93592L9.36018 2.81776C9.39696 2.71265 9.38587 2.59645 9.33021 2.49981C9.27424 2.40354 9.1791 2.33604 9.06979 2.31491L7.90675 2.09322L7.68506 0.930179C7.66393 0.820423 7.59643 0.72573 7.49979 0.669689C7.40352 0.6141 7.28724 0.602936 7.18176 0.639796L6.06406 1.02915L5.29037 0.132681ZM2.94246 5.41116L4.03987 6.50857C4.18986 6.65855 4.43266 6.65855 4.58266 6.50857L7.05754 4.03369C7.20715 3.88408 7.20715 3.64091 7.05754 3.49129C6.908 3.3413 6.66481 3.3413 6.51521 3.49129L4.31114 5.69497L3.48495 4.86877C3.33533 4.71879 3.09216 4.71879 2.94254 4.86877C2.79255 5.01839 2.79255 5.2612 2.94254 5.41118L2.94246 5.41116Z" fill="#E6427A"/>
</svg>
