<svg width="14" height="14" viewBox="0 0 14 14" fill="none" xmlns="http://www.w3.org/2000/svg">
<path d="M3.68113 0.313005L5.2154 1.84911C5.31544 1.94927 5.39885 2.0662 5.44887 2.1998C5.61569 2.60055 5.54891 3.06806 5.2154 3.40196L3.69778 4.9214C3.7478 5.92326 4.43159 7.25889 5.59894 8.41102C6.76629 9.56316 8.08382 10.2644 9.0844 10.3145L10.602 8.79502C10.9189 8.47775 11.4025 8.39427 11.8028 8.56127C11.9362 8.61135 12.0529 8.69486 12.153 8.79502L13.6873 10.3311C14.1042 10.7485 14.1042 11.4498 13.6873 11.8672L12.153 13.4033C10.6688 14.8893 6.86647 13.5035 3.68119 10.3144C0.495908 7.12534 -0.888271 3.35187 0.59597 1.84917L2.13024 0.313064C2.56381 -0.104355 3.24759 -0.104355 3.68113 0.313064V0.313005Z" fill="#262425"/>
</svg>
