<svg width="16" height="16" viewBox="0 0 16 16" fill="none" xmlns="http://www.w3.org/2000/svg">
<path d="M8 0C3.58905 0 0 3.58867 0 8C0 12.411 3.58867 16 8 16C12.4113 16 16 12.4113 16 8C16 3.58867 12.4113 0 8 0ZM8 14.4105C4.46535 14.4105 1.58959 11.5351 1.58959 8.00009C1.58959 4.46507 4.46497 1.58969 8 1.58969C11.535 1.58969 14.4104 4.46573 14.4104 8.00009C14.4104 11.5347 11.535 14.4105 8 14.4105Z" fill="white"/>
<path d="M8.00847 6.01942C7.5694 6.01942 7.21387 6.37496 7.21387 6.81402V11.8304C7.21387 12.2695 7.5694 12.625 8.00847 12.625C8.44753 12.625 8.80306 12.2695 8.80306 11.8304V6.81402C8.80306 6.37496 8.44716 6.01942 8.00847 6.01942Z" fill="white"/>
<path d="M8.00847 3.37375C7.5694 3.37375 7.21387 3.72929 7.21387 4.16835V4.41634C7.21387 4.8554 7.5694 5.21094 8.00847 5.21094C8.44753 5.21094 8.80306 4.8554 8.80306 4.41634V4.16835C8.80306 3.72929 8.44716 3.37375 8.00847 3.37375Z" fill="white"/>
</svg>
