<svg width="311" height="226" viewBox="0 0 311 226" fill="none" xmlns="http://www.w3.org/2000/svg">
<rect width="311" height="226" rx="20" fill="url(#paint0_linear_8342_237152)"/>
<path fill-rule="evenodd" clip-rule="evenodd" d="M221.744 57.2022C215.133 57.2022 209.774 51.8395 209.774 45.2247C209.774 38.6098 215.133 33.2472 221.744 33.2472C228.355 33.2472 233.714 38.6098 233.714 45.2247C233.714 51.8395 228.355 57.2022 221.744 57.2022ZM237.323 41.186C236.944 39.7193 236.363 38.3339 235.612 37.0599L237.353 34.4399L232.522 29.6059L229.904 31.348C228.63 30.5971 227.246 30.0158 225.78 29.6369L225.16 26.5547H218.328L217.708 29.6369C216.242 30.0158 214.857 30.5971 213.584 31.348L210.966 29.6059L206.134 34.4399L207.876 37.0599C207.125 38.3339 206.544 39.7193 206.165 41.186L203.085 41.8066V48.6428L206.165 49.2629C206.544 50.7301 207.125 52.1154 207.876 53.389L206.134 56.009L210.966 60.843L213.584 59.1009C214.857 59.8518 216.242 60.4331 217.708 60.8125L218.328 63.8942H225.16L225.78 60.8125C227.246 60.4331 228.63 59.8518 229.904 59.1009L232.522 60.843L237.353 56.009L235.612 53.389C236.363 52.1154 236.944 50.7301 237.323 49.2629L240.403 48.6428V41.8066L237.323 41.186Z" fill="#6F94DC"/>
<path fill-rule="evenodd" clip-rule="evenodd" d="M234.842 77.5968C231.811 77.5968 229.354 75.1385 229.354 72.1058C229.354 69.0735 231.811 66.6147 234.842 66.6147C237.873 66.6147 240.33 69.0735 240.33 72.1058C240.33 75.1385 237.873 77.5968 234.842 77.5968ZM241.984 70.2546C241.81 69.5818 241.544 68.9469 241.2 68.3628L241.998 67.1618L239.783 64.9456L238.583 65.7441C237.999 65.3999 237.365 65.1337 236.692 64.96L236.408 63.5469H233.276L232.991 64.96C232.319 65.1337 231.685 65.3999 231.101 65.7441L229.9 64.9456L228.793 66.0537L227.686 67.1618L228.484 68.3628C228.14 68.9469 227.874 69.5818 227.699 70.2546L226.288 70.5388V73.6727L227.699 73.9574C227.874 74.6297 228.14 75.2647 228.484 75.8487L227.686 77.0502L228.793 78.1578L229.9 79.2664L231.101 78.4674C231.685 78.8117 232.319 79.0783 232.991 79.2521L233.276 80.6647H236.408L236.692 79.2521C237.365 79.0783 237.999 78.8117 238.583 78.4674L239.783 79.2664L240.891 78.1578L241.998 77.0502L241.2 75.8487C241.544 75.2647 241.81 74.6297 241.984 73.9574L243.396 73.6727V70.5388L241.984 70.2546Z" fill="#6F94DC"/>
<path fill-rule="evenodd" clip-rule="evenodd" d="M142.719 179.152H159.524V128.078H142.719V179.152Z" fill="#6F94DC"/>
<path fill-rule="evenodd" clip-rule="evenodd" d="M85.9449 152.684H216.299C220.375 152.684 223.679 149.378 223.679 145.299V57.6391C223.679 53.5602 220.375 50.2539 216.299 50.2539H85.9449C81.8688 50.2539 78.5645 53.5602 78.5645 57.6391V145.299C78.5645 149.378 81.8688 152.684 85.9449 152.684Z" fill="url(#paint1_linear_8342_237152)"/>
<path fill-rule="evenodd" clip-rule="evenodd" d="M84.248 136.632H217.997V39.3516H84.248V136.632Z" fill="white"/>
<path fill-rule="evenodd" clip-rule="evenodd" d="M84.248 51.1012H217.997V39.3516H84.248V51.1012Z" fill="#F483AC"/>
<path fill-rule="evenodd" clip-rule="evenodd" d="M146.441 143.977C146.441 146.563 148.537 148.661 151.122 148.661C153.708 148.661 155.803 146.563 155.803 143.977C155.803 141.39 153.708 139.293 151.122 139.293C148.537 139.293 146.441 141.39 146.441 143.977Z" fill="#6F94DC"/>
<path fill-rule="evenodd" clip-rule="evenodd" d="M129.392 62.9389H169.339C170.237 62.9389 170.964 62.2111 170.964 61.3137V61.0822C170.964 60.1848 170.237 59.457 169.339 59.457H129.392C128.495 59.457 127.768 60.1848 127.768 61.0822V61.3137C127.768 62.2111 128.495 62.9389 129.392 62.9389Z" fill="#DFE1E8"/>
<path fill-rule="evenodd" clip-rule="evenodd" d="M129.392 69.2202H169.339C170.237 69.2202 170.964 68.4924 170.964 67.5945V67.3635C170.964 66.4661 170.237 65.7383 169.339 65.7383H129.392C128.495 65.7383 127.768 66.4661 127.768 67.3635V67.5945C127.768 68.4924 128.495 69.2202 129.392 69.2202Z" fill="#DFE1E8"/>
<path fill-rule="evenodd" clip-rule="evenodd" d="M129.392 75.4975H169.339C170.237 75.4975 170.964 74.7697 170.964 73.8723V73.6413C170.964 72.7434 170.237 72.0156 169.339 72.0156H129.392C128.495 72.0156 127.768 72.7434 127.768 73.6413V73.8723C127.768 74.7697 128.495 75.4975 129.392 75.4975Z" fill="#DFE1E8"/>
<path fill-rule="evenodd" clip-rule="evenodd" d="M97.1046 84.5357C93.6872 84.5357 90.9069 87.5834 90.9069 91.3295V122.571C90.9069 126.317 93.6872 129.364 97.1046 129.364H143.965C147.383 129.364 150.163 126.317 150.163 122.571V91.3295C150.163 87.5834 147.383 84.5357 143.965 84.5357H97.1046ZM143.965 130.338H97.1046C93.1977 130.338 90.0186 126.854 90.0186 122.571V91.3295C90.0186 87.0464 93.1977 83.5625 97.1046 83.5625H143.965C147.873 83.5625 151.051 87.0464 151.051 91.3295V122.571C151.051 126.854 147.873 130.338 143.965 130.338Z" fill="#DFE1E8"/>
<path fill-rule="evenodd" clip-rule="evenodd" d="M99.3893 95.5998H141.594C143.443 95.5998 144.942 94.0998 144.942 92.2496V91.6119C144.942 89.7617 143.443 88.2617 141.594 88.2617H99.3893C97.5401 88.2617 96.041 89.7617 96.041 91.6119V92.2496C96.041 94.0998 97.5401 95.5998 99.3893 95.5998Z" fill="#DFE1E8"/>
<path fill-rule="evenodd" clip-rule="evenodd" d="M113.319 181.082H188.925V177.227H113.319V181.082Z" fill="#6F94DC"/>
<path fill-rule="evenodd" clip-rule="evenodd" d="M76.2969 152.514L59.3382 152.643L59.3262 151.089L76.2854 150.961L76.2969 152.514Z" fill="#323657"/>
<path fill-rule="evenodd" clip-rule="evenodd" d="M81.2617 136.286L76.3021 152.513L74.8164 152.059L79.7764 135.832L81.2617 136.286Z" fill="#323657"/>
<path fill-rule="evenodd" clip-rule="evenodd" d="M105.447 195.332H106.77V154.539H105.447V195.332Z" fill="#706865"/>
<path fill-rule="evenodd" clip-rule="evenodd" d="M55.7988 154.538H113.961V152.219H55.7988V154.538Z" fill="#B59074"/>
<path fill-rule="evenodd" clip-rule="evenodd" d="M63.2402 195.333H64.5638V154.539H63.2402V195.333Z" fill="#706865"/>
<path fill-rule="evenodd" clip-rule="evenodd" d="M36.6562 188.642H38.2472V168.551H36.6562V188.642Z" fill="#918783"/>
<path fill-rule="evenodd" clip-rule="evenodd" d="M57.4193 186.27C57.4193 186.27 57.4354 187.158 57.7232 188.192C57.9342 188.95 58.3586 191.887 58.9004 192.298C59.4416 192.709 61.1887 193.797 60.9319 194.915C60.6756 196.033 60.4586 196.813 58.5725 196.151C56.6864 195.489 55.4251 195.11 55.0626 193.453C54.7005 191.797 53.6683 190.289 53.6683 190.289L52.305 193.682L51.5859 193.392C51.5859 193.392 52.6731 189.728 52.5793 189.401C52.486 189.074 53.0781 186.163 55.3595 185.441C57.6405 184.72 57.4193 186.27 57.4193 186.27Z" fill="#1D3B54"/>
<path fill-rule="evenodd" clip-rule="evenodd" d="M70.0194 187.34C70.0194 187.34 70.3653 188.158 71.0178 189.01C71.4963 189.634 72.9848 192.2 73.6406 192.379C74.2964 192.558 76.3228 192.916 76.5016 194.049C76.6808 195.182 76.7699 195.988 74.773 196.077C72.776 196.167 71.4649 196.286 70.5112 194.884C69.5575 193.482 68.0377 192.469 68.0377 192.469V196.125H67.2627C67.2627 196.125 66.9053 192.32 66.6965 192.052C66.4878 191.783 65.9511 188.861 67.7994 187.34C69.6471 185.819 70.0194 187.34 70.0194 187.34Z" fill="#1D3B54"/>
<path fill-rule="evenodd" clip-rule="evenodd" d="M49.7148 137.649C49.7148 137.649 50.1587 136.074 50.2021 135.868C50.245 135.664 50.6653 135.256 51.1881 134.83C51.7113 134.403 52.6082 134.062 52.7195 134.096C52.8303 134.131 52.9587 134.114 53.1421 134.35C53.3254 134.586 53.3503 134.886 53.3503 134.886C53.3503 134.886 53.7129 135.07 53.7157 135.443C53.7157 135.443 54.0491 135.632 53.9835 136.055C53.9835 136.055 54.3036 136.249 54.2301 136.552C54.2301 136.552 53.8099 136.962 53.6976 137.158C53.5859 137.355 52.6535 138.146 51.6425 138.767C51.6425 138.767 50.3517 139.721 49.7148 137.649Z" fill="#EEA886"/>
<path fill-rule="evenodd" clip-rule="evenodd" d="M51.6465 136.402C51.6465 136.402 51.8377 137.064 51.7975 137.278C51.7569 137.49 53.3104 137.521 53.3104 137.521C53.3104 137.521 52.4579 136.191 51.6465 136.402Z" fill="#CF8C6C"/>
<path fill-rule="evenodd" clip-rule="evenodd" d="M34.1568 140.355C34.7844 139.339 35.6208 138.881 38.2786 140.721C40.9364 142.559 40.3125 142.199 40.9484 142.782C41.5848 143.365 44.3733 144.824 44.3733 144.824C44.3733 144.824 46.0022 143.203 46.7831 142.052C47.6638 140.755 49.8372 137.445 49.8372 137.445L51.4536 138.832C51.4536 138.832 47.0722 148.292 46.0267 148.963C44.9811 149.634 41.83 148.511 40.1896 147.82C38.5492 147.128 36.8127 146.233 36.0637 146.047C35.3146 145.861 32.521 143.006 34.1568 140.355Z" fill="#EEA886"/>
<path fill-rule="evenodd" clip-rule="evenodd" d="M52.2649 135.598L51.7842 135.492L53.0376 129.801L53.5188 129.907L52.2649 135.598Z" fill="#EB4747"/>
<path fill-rule="evenodd" clip-rule="evenodd" d="M52.5783 134.2C52.5783 134.2 51.2792 135.313 51.4325 135.545C51.5854 135.776 51.7821 135.768 51.7821 135.768L51.4551 136.469C51.4551 136.469 51.5004 137.055 52.1252 136.834C52.1252 136.834 52.1109 137.387 52.6887 137.102C52.6887 137.102 52.8415 137.47 53.1329 137.385C53.4239 137.301 54.2302 136.55 54.2302 136.55C54.2302 136.55 54.3291 136.316 53.9836 136.053C53.9836 136.053 54.0705 135.651 53.7158 135.44C53.7158 135.44 53.7352 135.107 53.3505 134.883C53.3505 134.883 53.3352 134.139 52.7196 134.094C52.7196 134.094 52.6328 134.153 52.5783 134.2Z" fill="#DB9C7C"/>
<path fill-rule="evenodd" clip-rule="evenodd" d="M50.2207 135.885C50.2207 135.885 51.0908 135.097 51.7549 134.876C51.905 134.826 52.0597 134.804 52.1627 134.925C52.2657 135.047 52.2223 135.349 51.8625 135.709C51.5027 136.07 51.203 136.7 51.203 136.7C51.203 136.7 50.725 136.962 50.2207 135.885Z" fill="#EEA886"/>
<path fill-rule="evenodd" clip-rule="evenodd" d="M46.547 145.875C46.547 145.875 47.0702 143.977 46.4537 142.508C46.4537 142.508 46.6883 144.029 46.0223 145.11C45.5402 145.894 46.547 145.875 46.547 145.875Z" fill="#4E6DB5"/>
<path fill-rule="evenodd" clip-rule="evenodd" d="M56.0419 146.167C56.0419 146.167 57.4445 135.765 59.8908 131.23H56.2936C56.2936 131.23 52.2646 138.334 53.0202 145.508L56.0419 146.167Z" fill="#EDDAD3"/>
<path fill-rule="evenodd" clip-rule="evenodd" d="M56.9023 138.378C56.9023 138.378 57.3129 137.613 57.4117 137.363C57.5106 137.114 57.9137 137.547 57.8528 137.868C57.7923 138.188 56.9023 138.378 56.9023 138.378Z" fill="#EEA886"/>
<path fill-rule="evenodd" clip-rule="evenodd" d="M60.0932 140.122C60.0932 140.122 59.9842 140.497 59.8572 140.637C59.8572 140.637 59.6059 140.875 59.4374 141.056C59.3843 141.113 59.339 141.164 59.3136 141.2C59.206 141.35 59.0153 141.713 58.6555 142.003C58.2967 142.292 56.9246 143.185 56.9246 143.185L55.9566 142.151L55.1816 141.344C55.1816 141.344 55.8365 138.881 56.1404 138.573C56.17 138.543 56.2004 138.514 56.2314 138.49C56.514 138.254 56.823 138.196 56.9851 138.09C57.0447 138.051 57.6658 137.704 57.8635 137.781C58.1387 137.887 58.2865 138.073 58.329 138.27C58.329 138.27 58.8587 138.502 59.0351 138.849C59.0351 138.849 59.5307 139.048 59.6276 139.542C59.6276 139.542 60.1075 139.799 60.0932 140.122Z" fill="#EEA886"/>
<path fill-rule="evenodd" clip-rule="evenodd" d="M66.4606 166.978C66.4606 166.978 64.0835 172.329 62.3868 176.148C62.1023 176.79 61.8358 177.389 61.6035 177.912C61.3315 178.525 61.1057 179.032 60.95 179.383C59.8703 181.813 57.2139 187.115 57.2139 187.115C57.2139 187.115 55.2155 187.191 55.0996 185.493C55.0996 185.493 57.0171 181.813 57.0171 179.228C57.0171 176.643 57.3639 169.027 59.8324 167.381C62.8426 165.373 64.7971 164.993 66.4606 166.978Z" fill="#EEA886"/>
<path fill-rule="evenodd" clip-rule="evenodd" d="M44.4823 156.811C44.4823 156.811 44.9838 157.312 45.4078 157.428C45.8322 157.544 52.9286 158.085 56.2067 159.165C59.4852 160.245 63.8435 160.94 64.653 161.866C65.4631 162.792 66.813 167.886 66.7742 168.851C66.7359 169.816 69.6555 186.074 70.019 187.343C70.2121 188.015 67.3787 187.758 67.3787 187.758C67.3787 187.758 63.353 178.151 62.4935 176.376C60.9136 173.115 60.8347 169.121 60.2564 168.503C59.6778 167.886 53.2371 166.497 49.5347 166.497C45.8322 166.497 37.5401 166.806 36.6529 166.304C35.7658 165.802 30.2123 162.136 32.5265 157.235C34.8403 152.335 44.4823 156.811 44.4823 156.811Z" fill="#EEA886"/>
<path fill-rule="evenodd" clip-rule="evenodd" d="M60.4971 160.319L54.6231 171.628C54.6231 171.628 52.8538 167.432 49.767 166.709C46.6797 165.987 34.3604 166.374 34.3604 166.374C34.3604 166.374 28.7072 159.219 33.5485 155.465C38.3894 151.712 44.0426 156.056 44.0426 156.056C44.0426 156.056 45.2106 157.323 45.7759 157.351C49.8834 157.555 54.2633 158.321 60.4971 160.319Z" fill="#364F8A"/>
<path fill-rule="evenodd" clip-rule="evenodd" d="M73.6404 192.382C73.6404 192.382 71.8522 192.83 71.1668 192.382C70.4815 191.936 68.1506 187.994 67.3789 187.758C67.3789 187.758 68.1271 186.24 70.0192 187.343C70.0192 187.343 73.1337 191.727 73.6404 192.382Z" fill="#EEA886"/>
<path fill-rule="evenodd" clip-rule="evenodd" d="M58.9002 192.299C58.9002 192.299 57.0742 192.047 56.605 191.376C56.1357 190.705 55.443 186.178 54.8145 185.671C54.8145 185.671 56.0748 184.541 57.4192 186.271C57.4192 186.271 58.6744 191.501 58.9002 192.299Z" fill="#EEA886"/>
<path fill-rule="evenodd" clip-rule="evenodd" d="M40.2442 121.289C41.6551 121.221 44.7844 121.931 45.2666 125.672C45.2666 125.672 45.1534 126.68 44.9091 127.473C44.6644 128.265 45.3742 130.602 45.189 130.717C45.0038 130.832 44.2386 130.98 44.2386 130.98C44.2386 130.98 43.4156 133.532 42.5196 133.51C41.6242 133.488 38.2343 132.788 36.6373 129.612C35.0408 126.437 34.5476 121.565 40.2442 121.289Z" fill="#EEA886"/>
<path fill-rule="evenodd" clip-rule="evenodd" d="M41.309 132.349C41.309 132.349 41.1987 132.707 41.0735 133.238C41.0098 133.509 40.9419 133.825 40.8828 134.162C40.7202 135.093 40.6251 136.182 40.8661 136.906C40.8661 136.906 38.8863 137.593 37.3216 134.793C37.3216 134.793 37.9936 131.776 37.1207 129.947C36.2479 128.118 41.309 132.349 41.309 132.349Z" fill="#EEA886"/>
<path fill-rule="evenodd" clip-rule="evenodd" d="M45.2662 125.673C45.2662 125.673 43.1017 127.617 40.8124 127.463C38.4871 127.306 36.9778 130.214 36.9778 130.214C36.9778 130.214 33.5169 125.868 36.3068 122.354C39.0967 118.84 45.7608 121.312 45.2662 125.673Z" fill="#1D3B54"/>
<path fill-rule="evenodd" clip-rule="evenodd" d="M39.7585 127.448C39.746 127.007 39.2565 126.347 38.5356 126.948C37.8142 127.55 38.7841 129.643 39.3747 129.438C39.9659 129.233 39.7714 127.903 39.7585 127.448Z" fill="#EEA886"/>
<path fill-rule="evenodd" clip-rule="evenodd" d="M41.0739 133.237C41.0102 133.508 40.9423 133.824 40.8832 134.161C39.0442 132.992 38.1191 131.574 38.1191 131.574C39.1698 132.525 41.0739 133.237 41.0739 133.237Z" fill="#A77860"/>
<path fill-rule="evenodd" clip-rule="evenodd" d="M46.4419 143.935C46.0249 145.868 44.9285 145.969 44.995 147.397C45.0615 148.824 45.4873 148.947 44.7493 151.198C44.6131 151.614 44.5022 152.068 44.4126 152.531C44.402 152.586 44.3914 152.641 44.3817 152.696C44.3337 152.956 44.293 153.218 44.2575 153.476C44.1914 153.953 44.1443 154.42 44.1115 154.846C44.0247 155.957 44.8421 156.815 44.8421 156.815C44.8421 156.815 37.6233 161.142 32.667 160.535C32.667 160.535 33.9504 155.139 34.657 153.285C35.3636 151.431 35.1502 142.866 34.6302 141.028C33.8631 138.316 35.3959 134.249 37.4912 133.719L40.7402 135.224C40.7402 135.224 44.0127 139.135 44.747 139.725C45.4804 140.316 46.8649 141.975 46.4419 143.935Z" fill="#364F8A"/>
<path fill-rule="evenodd" clip-rule="evenodd" d="M35.7026 136.02C36.6202 135.256 37.948 133.947 39.8844 136.535C41.8213 139.124 43.2299 140.792 43.6488 141.547C44.0672 142.302 47.7078 147.561 47.7078 147.561C47.7078 147.561 49.6414 145.764 50.7475 144.921C51.994 143.971 55.3791 140.683 55.3791 140.683L57.4573 142.762C57.4573 142.762 49.847 151.569 48.6425 151.873C47.4381 152.178 44.0644 149.141 42.7284 147.964C41.3923 146.787 37.6436 142.5 36.9925 142.086C36.3413 141.672 33.3098 138.014 35.7026 136.02Z" fill="#EEA886"/>
<path fill-rule="evenodd" clip-rule="evenodd" d="M62.3877 176.147C62.1032 176.79 61.8367 177.389 61.6044 177.912C60.7302 175.099 60.8022 170.398 60.8022 170.398C61.3273 173.676 62.372 176.11 62.3877 176.147Z" fill="#A77860"/>
<path fill-rule="evenodd" clip-rule="evenodd" d="M24.7461 169.13H49.7665V166.375H24.7461V169.13Z" fill="#C7D8F4"/>
<path fill-rule="evenodd" clip-rule="evenodd" d="M37.7666 157.586C37.7666 157.586 37.1362 160.138 40.1057 160.718C43.0757 161.298 46.7283 162.039 46.7283 166.623H36.4277L37.7666 157.586Z" fill="#C7D8F4"/>
<path fill-rule="evenodd" clip-rule="evenodd" d="M53.0371 129.799L53.4625 129.016L53.5183 129.906L53.0371 129.799Z" fill="#EEA886"/>
<path fill-rule="evenodd" clip-rule="evenodd" d="M24.747 169.129L16 132.346C16 132.346 31.8134 129.874 33.6972 136.979C35.5815 144.085 38.6808 165.19 42.4488 166.495C46.2164 167.8 24.747 169.129 24.747 169.129Z" fill="#C7D8F4"/>
<path fill-rule="evenodd" clip-rule="evenodd" d="M45.0867 149.973C45.0867 149.973 44.9255 150.648 44.7533 151.207L40.9062 146.215L45.0867 149.973Z" fill="#4E6DB5"/>
<path fill-rule="evenodd" clip-rule="evenodd" d="M35.4414 127.092C35.4414 127.092 36.9622 131.112 36.5484 132.21C36.5484 132.21 38.9227 131.196 38.489 128.562C38.0558 125.928 35.4414 127.092 35.4414 127.092Z" fill="#1D3B54"/>
<path fill-rule="evenodd" clip-rule="evenodd" d="M40.9287 135.449V134.653L37.5527 133.008L36.3848 134.358L40.9287 135.449Z" fill="#364F8A"/>
<path fill-rule="evenodd" clip-rule="evenodd" d="M52.8941 193.828C52.8941 194.551 52.3085 195.137 51.5862 195.137C50.8639 195.137 50.2783 194.551 50.2783 193.828C50.2783 193.105 50.8639 192.52 51.5862 192.52C52.3085 192.52 52.8941 193.105 52.8941 193.828Z" fill="#BFB2AC"/>
<path fill-rule="evenodd" clip-rule="evenodd" d="M23.4395 192.529L23.771 193.462L37.7667 189.122L37.0961 187.234L23.4395 192.529Z" fill="#918783"/>
<path fill-rule="evenodd" clip-rule="evenodd" d="M51.587 192.53L51.2559 193.463L37.2598 189.124L37.8749 187.117L51.587 192.53Z" fill="#918783"/>
<path fill-rule="evenodd" clip-rule="evenodd" d="M41.7261 193.363V194.447L37.2598 189.124L37.8749 187.117L41.7261 193.363Z" fill="#918783"/>
<path fill-rule="evenodd" clip-rule="evenodd" d="M41.8355 193.828C41.8355 194.551 41.2499 195.137 40.5276 195.137C39.8053 195.137 39.2197 194.551 39.2197 193.828C39.2197 193.105 39.8053 192.52 40.5276 192.52C41.2499 192.52 41.8355 193.105 41.8355 193.828Z" fill="#BFB2AC"/>
<path fill-rule="evenodd" clip-rule="evenodd" d="M24.7476 193.828C24.7476 194.551 24.1625 195.137 23.4397 195.137C22.7174 195.137 22.1318 194.551 22.1318 193.828C22.1318 193.105 22.7174 192.52 23.4397 192.52C24.1625 192.52 24.7476 193.105 24.7476 193.828Z" fill="#BFB2AC"/>
<path fill-rule="evenodd" clip-rule="evenodd" d="M206.974 62.3567C206.974 65.8289 205.727 69.0076 203.657 71.472C203.172 72.0482 202.643 72.5851 202.074 73.0773C201.912 73.2173 201.746 73.355 201.577 73.4872C201.386 73.6383 201.192 73.7834 200.994 73.9248C199.13 75.2463 196.932 76.1285 194.554 76.4196C194.135 76.4714 193.709 76.5042 193.279 76.518C193.125 76.5231 192.97 76.5254 192.814 76.5254C192.356 76.5254 191.903 76.5037 191.457 76.4612C190.957 76.4136 190.465 76.3406 189.983 76.2417C187.838 75.8064 185.868 74.8859 184.195 73.5985C183.69 73.2108 183.212 72.7903 182.765 72.3388C182.678 72.2515 182.592 72.1623 182.508 72.0722C182.19 71.7367 181.891 71.3855 181.609 71.02C179.756 68.6245 178.653 65.6195 178.653 62.3567C178.653 54.5316 184.994 48.1875 192.814 48.1875C200.635 48.1875 206.974 54.5316 206.974 62.3567Z" fill="#EEF0F7"/>
<path fill-rule="evenodd" clip-rule="evenodd" d="M202.038 70.175L200.993 73.9249C199.129 75.2465 196.932 76.1286 194.553 76.4198C194.134 76.4715 193.709 76.5043 193.279 76.5182C193.125 76.5233 192.97 76.5256 192.814 76.5256C192.356 76.5256 191.903 76.5039 191.456 76.4614C190.957 76.4138 190.465 76.3407 189.982 76.2419C187.837 75.8066 185.868 74.8861 184.194 73.5987C183.994 72.3589 183.779 70.9869 183.59 69.7037C184.631 69.316 187.943 68.1889 190.034 67.4815C190.063 67.4713 190.092 67.4621 190.121 67.4524C190.167 67.4362 190.212 67.4209 190.256 67.4066C190.381 67.3646 190.499 67.3244 190.611 67.2865C190.726 67.2477 190.835 67.2112 190.937 67.176C191.365 67.0319 191.667 66.9302 191.774 66.8946C191.775 66.8937 191.775 66.8937 191.776 66.8937C191.804 66.884 191.819 66.8789 191.819 66.8789L191.843 66.8803L194.654 67.091L195.125 67.1261L195.273 67.1372C195.273 67.1372 195.294 67.1423 195.336 67.1534C195.506 67.1964 195.999 67.3258 196.651 67.5249C196.652 67.5249 196.653 67.5254 196.654 67.5254C198.318 68.0355 201.02 69.0036 202.038 70.175Z" fill="white"/>
<path fill-rule="evenodd" clip-rule="evenodd" d="M193.551 55.3193C193.551 55.3193 196.922 55.8886 196.351 61.1694C195.778 66.4507 192.803 65.9849 192.603 65.9775C192.405 65.9701 189.611 66.0413 189.463 59.584C189.463 59.584 189.42 54.8096 193.551 55.3193Z" fill="#EEA987"/>
<path fill-rule="evenodd" clip-rule="evenodd" d="M195.028 64.4469C195.028 64.4469 194.912 66.6202 195.117 67.0933C195.323 67.5665 192.41 69.0633 190.601 67.3586C190.601 67.3586 190.966 64.9825 190.853 64.1438C190.739 63.3046 195.028 64.4469 195.028 64.4469Z" fill="#EEA987"/>
<path fill-rule="evenodd" clip-rule="evenodd" d="M196.419 59.6787C196.419 59.6787 196.794 59.2873 196.925 59.6893C197.056 60.0908 196.327 61.8708 196.372 61.9512C196.372 61.9512 196.304 62.1056 196.216 62.0192C196.128 61.9328 196.419 59.6787 196.419 59.6787Z" fill="#EEA987"/>
<path fill-rule="evenodd" clip-rule="evenodd" d="M189.501 59.5351C189.501 59.5351 189.144 59.129 188.996 59.525C188.848 59.9205 189.387 61.6982 189.455 61.8077C189.455 61.8077 189.571 61.9902 189.662 61.9075C189.753 61.8248 189.501 59.5351 189.501 59.5351Z" fill="#EEA987"/>
<path fill-rule="evenodd" clip-rule="evenodd" d="M196.635 59.2287C196.518 59.9514 196.409 60.4884 196.409 60.4884L195.918 61.1293C195.918 61.1293 195.947 59.7116 195.872 59.4889C195.844 59.4048 195.811 59.255 195.776 59.0933C195.719 58.8262 195.662 58.5245 195.622 58.4242C195.559 58.2634 192.733 57.4376 190.215 58.5975C190.215 58.5975 190.237 58.8156 190.235 59.0586C190.234 59.3419 190.204 59.6589 190.074 59.7065C189.832 59.7948 189.933 61.3654 189.933 61.3654L189.54 60.9126C189.54 60.9126 189.427 60.0919 189.315 59.1488C189.315 59.1488 189.315 59.1464 189.314 59.1418C189.289 58.9219 189.263 58.6959 189.239 58.4713C189.182 57.5226 189.276 55.8 190.511 54.7884C191.344 54.4317 192.674 54.1281 194.891 54.8074C194.891 54.8074 195.4 54.8411 195.543 54.9788C196.924 56.4991 196.635 59.2287 196.635 59.2287Z" fill="#E8734D"/>
<path fill-rule="evenodd" clip-rule="evenodd" d="M191.084 65.2734C191.084 65.2734 191.622 66.0207 192.872 65.9925C194.122 65.9643 194.665 65.3122 194.665 65.3122C194.665 65.3122 194.073 66.5504 192.867 66.537C191.659 66.5241 191.084 65.2734 191.084 65.2734Z" fill="#C78D71"/>
<path fill-rule="evenodd" clip-rule="evenodd" d="M190.257 67.4053C190.257 67.4053 191.16 68.9792 192.874 69.1276C193.963 69.2214 194.904 67.8429 195.345 67.1655C195.345 67.1655 192.91 66.1226 190.257 67.4053Z" fill="#EEA987"/>
<path fill-rule="evenodd" clip-rule="evenodd" d="M195.033 66.6641C195.033 66.6641 194.344 67.5675 192.875 68.5342L193.788 69.9422L195.345 67.1617L195.033 66.6641Z" fill="#F1F1F1"/>
<path fill-rule="evenodd" clip-rule="evenodd" d="M190.67 66.8789C190.67 66.8789 191.547 67.9787 192.875 68.5383L191.873 69.9888L190.121 67.4519L190.67 66.8789Z" fill="#F1F1F1"/>
<path fill-rule="evenodd" clip-rule="evenodd" d="M192.874 68.5352L193.657 69.7262C193.657 69.7262 192.836 70.1908 192.071 69.6967L192.874 68.5352Z" fill="#E6427A"/>
<path fill-rule="evenodd" clip-rule="evenodd" d="M202.943 69.9519C202.943 69.9519 202.935 69.9787 202.92 70.03C202.834 70.3359 202.504 71.5119 202.074 73.0756C201.912 73.2156 201.746 73.3534 201.577 73.4855C201.386 73.6366 201.192 73.7817 200.994 73.9231C199.13 75.2447 196.933 76.1268 194.554 76.418C194.763 71.5133 195.345 67.1641 195.345 67.1641C195.804 67.2847 196.239 67.4048 196.651 67.5231C196.652 67.5231 196.654 67.5236 196.655 67.5236C200.248 68.5554 202.069 69.4611 202.691 69.8049C202.696 69.8068 202.701 69.81 202.705 69.8123C202.867 69.9029 202.943 69.9519 202.943 69.9519Z" fill="#323657"/>
<path fill-rule="evenodd" clip-rule="evenodd" d="M189.983 76.2406C187.838 75.8053 185.869 74.8849 184.195 73.5975C183.69 73.2098 183.212 72.7893 182.766 72.3378C182.678 72.2505 182.592 72.1613 182.508 72.0712C182.26 71.0181 182.095 70.3305 182.084 70.2861L182.084 70.2838C182.084 70.2838 183.836 69.1318 190.034 67.4766C190.034 67.4766 190.034 67.4784 190.034 67.4803C190.034 67.6221 190.038 71.6008 189.983 76.2406Z" fill="#323657"/>
<path fill-rule="evenodd" clip-rule="evenodd" d="M193.324 69.8578C193.266 71.1494 193.26 73.6558 193.28 76.5152C193.126 76.5203 192.97 76.5226 192.815 76.5226C192.357 76.5226 191.904 76.5009 191.457 76.4584C191.73 72.9317 192.189 70.7266 192.398 69.8541C192.466 69.5681 192.508 69.4258 192.508 69.4258L193.339 69.563C193.333 69.6531 193.328 69.7511 193.324 69.8578Z" fill="#E6427A"/>
<path fill-rule="evenodd" clip-rule="evenodd" d="M203.656 71.4715C203.171 72.0477 202.642 72.5846 202.073 73.0768C201.911 73.2168 201.745 73.3545 201.576 73.4867L202.69 69.8061L202.691 69.8047C202.695 69.8075 202.7 69.8098 202.703 69.8135C202.772 69.8578 202.843 69.9313 202.919 70.0311C203.138 70.3172 203.388 70.8194 203.656 71.4715Z" fill="#323657"/>
<path fill-rule="evenodd" clip-rule="evenodd" d="M182.766 72.3392C182.679 72.2518 182.593 72.1626 182.508 72.0725C182.19 71.7371 181.891 71.3859 181.609 71.0203C181.769 70.6377 181.929 70.3808 182.084 70.2852L182.085 70.2875L182.766 72.3392Z" fill="#323657"/>
<path fill-rule="evenodd" clip-rule="evenodd" d="M107.316 47.4437H91.4296C90.5484 47.4437 89.834 46.7293 89.834 45.8476V44.6C89.834 43.7183 90.5484 43.0039 91.4296 43.0039H107.316C108.197 43.0039 108.911 43.7183 108.911 44.6V45.8476C108.911 46.7293 108.197 47.4437 107.316 47.4437Z" fill="white"/>
<path fill-rule="evenodd" clip-rule="evenodd" d="M93.7909 67.748C93.819 65.5521 94.8743 63.6095 96.4935 62.3729C97.6734 61.4704 99.1508 60.9427 100.749 60.963C103.688 61.0005 106.171 62.8793 107.119 65.4888L107.121 65.4925C107.345 66.1135 107.484 66.7753 107.521 67.4647C107.529 67.6167 107.531 67.7702 107.53 67.925C107.51 69.479 106.976 70.905 106.093 72.0445C104.817 73.69 102.814 74.7385 100.573 74.7094C99.832 74.6997 99.1217 74.5736 98.4572 74.3485C95.7125 73.4202 93.7521 70.8047 93.7909 67.748ZM97.7224 76.5222C98.6077 76.8226 99.5563 76.9903 100.543 77.0033C103.532 77.0416 106.205 75.6442 107.906 73.4507C109.085 71.9295 109.797 70.0266 109.822 67.9541C109.825 67.7484 109.821 67.5428 109.81 67.3404C109.761 66.4195 109.576 65.535 109.275 64.7051C108.011 61.2251 104.698 58.7196 100.779 58.6687C98.6673 58.6415 96.7142 59.3309 95.1491 60.5125C92.9628 62.1617 91.5362 64.7684 91.4988 67.7189C91.4466 71.7941 94.0606 75.2829 97.7224 76.5222Z" fill="#E6427A"/>
<path fill-rule="evenodd" clip-rule="evenodd" d="M106.093 72.0469L107.906 73.4521C106.205 75.6461 103.532 77.0435 100.543 77.0051C99.557 76.9927 98.6089 76.8245 97.7227 76.5241L98.4583 74.3509C99.1229 74.5755 99.8337 74.7016 100.573 74.7108C102.814 74.74 104.818 73.6919 106.093 72.0469Z" fill="#FABCD2"/>
<path fill-rule="evenodd" clip-rule="evenodd" d="M107.52 67.4681L109.81 67.3438C109.821 67.5466 109.826 67.7518 109.822 67.9579C109.796 70.0304 109.084 71.9333 107.905 73.454L106.093 72.0488C106.976 70.9088 107.51 69.4823 107.53 67.9288C107.532 67.774 107.529 67.6201 107.52 67.4681Z" fill="#FABCD2"/>
<path fill-rule="evenodd" clip-rule="evenodd" d="M107.521 67.4667C107.484 66.7772 107.346 66.1155 107.121 65.4944L107.119 65.4907L109.275 64.707C109.577 65.537 109.762 66.4214 109.811 67.3424L107.521 67.4667Z" fill="#FABCD2"/>
<path fill-rule="evenodd" clip-rule="evenodd" d="M95.1494 60.5125C96.7145 59.3309 98.6676 58.6415 100.78 58.6687C104.699 58.7196 108.011 61.2251 109.275 64.7051L107.121 65.4925L107.119 65.4888C106.171 62.8793 103.688 61.0005 100.75 60.963C99.1511 60.9427 97.6738 61.4704 96.4938 62.3729L95.1494 60.5125Z" fill="#F483AC"/>
<path fill-rule="evenodd" clip-rule="evenodd" d="M162.334 94.7835H156.399C155.219 94.7835 154.263 93.8265 154.263 92.6463V86.7075C154.263 85.5273 155.219 84.5703 156.399 84.5703H162.334C163.514 84.5703 164.47 85.5273 164.47 86.7075V92.6463C164.47 93.8265 163.514 94.7835 162.334 94.7835Z" fill="#F483AC"/>
<path fill-rule="evenodd" clip-rule="evenodd" d="M159.044 91.9247L156.463 89.6738C156.252 89.489 156.23 89.1678 156.414 88.9562C156.599 88.7445 156.92 88.7228 157.131 88.9072L158.956 90.4986L161.558 87.5948C161.746 87.3855 162.067 87.3684 162.276 87.5556C162.485 87.7432 162.502 88.0648 162.315 88.2741L159.044 91.9247Z" fill="#F3F3F3"/>
<path fill-rule="evenodd" clip-rule="evenodd" d="M162.334 107.873H156.399C155.219 107.873 154.263 106.916 154.263 105.736V99.7973C154.263 98.6172 155.219 97.6602 156.399 97.6602H162.334C163.514 97.6602 164.47 98.6172 164.47 99.7973V105.736C164.47 106.916 163.514 107.873 162.334 107.873Z" fill="#F483AC"/>
<path fill-rule="evenodd" clip-rule="evenodd" d="M159.044 105.015L156.463 102.764C156.252 102.579 156.23 102.258 156.414 102.046C156.599 101.835 156.92 101.812 157.131 101.997L158.956 103.589L161.558 100.685C161.746 100.476 162.067 100.458 162.276 100.646C162.485 100.833 162.502 101.154 162.315 101.364L159.044 105.015Z" fill="#F3F3F3"/>
<path fill-rule="evenodd" clip-rule="evenodd" d="M162.334 120.963H156.399C155.219 120.963 154.263 120.006 154.263 118.826V112.887C154.263 111.707 155.219 110.75 156.399 110.75H162.334C163.514 110.75 164.47 111.707 164.47 112.887V118.826C164.47 120.006 163.514 120.963 162.334 120.963Z" fill="#F483AC"/>
<path fill-rule="evenodd" clip-rule="evenodd" d="M123.225 181.434C123.225 181.434 123.533 183.505 123.739 184.387C123.946 185.27 125.853 187.802 125.82 188.233C125.786 188.664 124.979 189.171 124.573 188.824C124.167 188.478 121.471 185.706 120.895 184.519C120.318 183.332 118.412 181.784 118.217 181.257C118.022 180.729 120.466 179.187 121.095 178.941C121.724 178.695 123.225 181.434 123.225 181.434Z" fill="#1D2033"/>
<path fill-rule="evenodd" clip-rule="evenodd" d="M118.447 144.603C118.447 144.603 118.699 145.924 118.884 146.168C119.07 146.412 119.572 147.639 119.622 147.812C119.673 147.984 119.981 149.224 120.033 149.381C120.086 149.538 119.733 149.782 119.492 149.451C119.342 149.245 119.079 148.443 118.973 148.184C118.865 147.925 118.537 147.106 118.448 147.255C118.36 147.405 118.381 148.503 118.366 148.786C118.352 149.068 118.531 149.937 118.615 150.297C118.699 150.657 119.178 152.165 118.986 152.246C118.794 152.327 118.632 152.305 118.384 151.9C118.384 151.9 117.992 152.12 117.764 151.623C117.764 151.623 117.413 151.751 117.196 151.103C117.196 151.103 116.946 150.966 116.849 150.734C116.753 150.503 116.184 148.519 116.189 147.709C116.194 146.9 116.384 146.336 116.349 145.766C116.315 145.194 116.022 143.973 116.022 143.973L118.447 144.603Z" fill="#EEA886"/>
<path fill-rule="evenodd" clip-rule="evenodd" d="M121.828 178.617L121.094 178.942L123.224 181.435L123.929 180.653L121.828 178.617Z" fill="#50558A"/>
<path fill-rule="evenodd" clip-rule="evenodd" d="M129.273 183.84C129.273 183.84 128.799 184.984 128.399 185.436C128 185.89 126.469 186.7 126.461 188.046C126.452 189.506 129.041 189.101 130.054 189.048C131.066 188.994 131.143 188.214 131.569 187.388C131.996 186.562 132.425 186.702 132.505 186.034C132.585 185.368 132.178 183.876 132.178 183.876L129.273 183.84Z" fill="#1D2033"/>
<path fill-rule="evenodd" clip-rule="evenodd" d="M129.228 183.417L129.154 184.109C129.154 184.109 130.747 184.681 132.252 184.168L132.168 183.223L129.228 183.417Z" fill="#50558A"/>
<path fill-rule="evenodd" clip-rule="evenodd" d="M130.111 164.529C130.067 162.114 128.992 148.574 129.106 148.574C129.635 148.574 132.612 161.468 132.723 163.282C132.746 163.654 132.281 164.485 131.531 165.579C131.193 166.072 130.797 166.617 130.362 167.198L130.361 167.199C130.214 165.871 130.118 164.895 130.111 164.529ZM138.061 165.829C138.061 164.03 136.748 148.328 136.808 147.729C136.847 147.337 136.43 143.578 136.134 141.01C136.132 140.988 136.129 140.966 136.126 140.945C136.126 140.939 136.125 140.934 136.125 140.929C136.041 140.208 135.969 139.586 135.92 139.168C135.897 138.975 135.88 138.826 135.869 138.731C135.859 138.652 135.854 138.611 135.854 138.611C135.854 138.611 127.385 136.94 122.994 138.518C122.81 138.585 122.635 138.656 122.466 138.734C122.466 138.734 122.456 138.808 122.436 138.949C122.393 139.274 122.301 139.951 122.179 140.872C122.158 141.027 122.136 141.189 122.114 141.357C121.489 146.091 121.89 151.236 122.984 156.503C124.057 161.67 124.648 165.534 124.758 166.285C124.904 167.269 125.335 169.978 125.811 172.949C123.481 175.825 121.493 178.271 121.642 178.514C122.01 179.115 125.28 182.504 125.46 181.904C125.46 181.904 126.051 181.235 126.976 180.168C127.27 181.986 127.471 183.225 127.471 183.225C127.471 183.225 131.056 184.082 132.375 183.302C132.375 183.302 131.857 179.361 131.316 175.075C134.607 171.133 138.061 166.772 138.061 165.829Z" fill="#292C47"/>
<path fill-rule="evenodd" clip-rule="evenodd" d="M139.475 116.152L137.198 124.327C137.12 124.592 137.026 124.918 136.927 125.298L136.923 125.313C136.922 125.316 136.921 125.319 136.921 125.322C136.541 126.78 136.07 129.001 135.93 131.469C135.835 133.152 136.147 139.916 136.147 139.916C136.147 139.916 132.7 141.202 127.544 140.876C127.544 140.876 121.997 140.747 122.449 137.344C123.646 128.337 122.476 124.624 122.319 123.72C122.319 123.72 121.566 119.345 121.027 115.68C122.588 115.098 129.256 112.855 129.256 112.855L132.71 113.114C132.71 113.114 137.959 114.407 139.475 116.152Z" fill="white"/>
<path fill-rule="evenodd" clip-rule="evenodd" d="M130.987 101.296C130.987 101.296 134.359 101.865 133.787 107.146C133.215 112.428 130.239 111.961 130.04 111.954C129.841 111.947 127.047 112.018 126.899 105.561C126.899 105.561 126.856 100.787 130.987 101.296Z" fill="#EEA987"/>
<path fill-rule="evenodd" clip-rule="evenodd" d="M132.465 110.424C132.465 110.424 132.349 112.597 132.554 113.071C132.759 113.543 129.847 115.04 128.037 113.335C128.037 113.335 128.403 110.959 128.29 110.12C128.176 109.281 132.465 110.424 132.465 110.424Z" fill="#EEA987"/>
<path fill-rule="evenodd" clip-rule="evenodd" d="M133.856 105.655C133.856 105.655 134.23 105.264 134.362 105.665C134.493 106.067 133.764 107.847 133.81 107.928C133.81 107.928 133.74 108.083 133.652 107.996C133.564 107.91 133.856 105.655 133.856 105.655Z" fill="#EEA987"/>
<path fill-rule="evenodd" clip-rule="evenodd" d="M126.939 105.512C126.939 105.512 126.582 105.106 126.434 105.502C126.286 105.897 126.825 107.675 126.892 107.784C126.892 107.784 127.009 107.967 127.1 107.884C127.191 107.801 126.939 105.512 126.939 105.512Z" fill="#EEA987"/>
<path fill-rule="evenodd" clip-rule="evenodd" d="M134.072 105.205C133.956 105.928 133.846 106.465 133.846 106.465L133.355 107.106C133.355 107.106 133.385 105.689 133.309 105.466C133.281 105.381 133.247 105.232 133.213 105.07C133.157 104.803 133.1 104.501 133.06 104.401C132.997 104.241 130.17 103.414 127.653 104.574C127.653 104.574 127.675 104.792 127.673 105.036C127.672 105.319 127.641 105.636 127.511 105.683C127.27 105.771 127.371 107.343 127.371 107.343L126.978 106.889C126.978 106.889 126.865 106.069 126.753 105.125C126.753 105.125 126.752 105.124 126.752 105.119C126.727 104.899 126.701 104.673 126.676 104.448C126.62 103.499 126.714 101.777 127.948 100.765C128.782 100.408 130.112 100.105 132.329 100.784C132.329 100.784 132.837 100.818 132.98 100.956C134.361 102.476 134.072 105.205 134.072 105.205Z" fill="#E8734D"/>
<path fill-rule="evenodd" clip-rule="evenodd" d="M128.521 111.25C128.521 111.25 129.06 111.998 130.31 111.969C131.56 111.941 132.102 111.289 132.102 111.289C132.102 111.289 131.51 112.527 130.304 112.514C129.096 112.501 128.521 111.25 128.521 111.25Z" fill="#C78D71"/>
<path fill-rule="evenodd" clip-rule="evenodd" d="M127.693 113.382C127.693 113.382 128.597 114.956 130.311 115.104C131.399 115.198 132.34 113.819 132.781 113.142C132.781 113.142 130.347 112.099 127.693 113.382Z" fill="#EEA987"/>
<path fill-rule="evenodd" clip-rule="evenodd" d="M132.469 112.641C132.469 112.641 131.78 113.544 130.312 114.511L131.225 115.919L132.781 113.138L132.469 112.641Z" fill="#F1F1F1"/>
<path fill-rule="evenodd" clip-rule="evenodd" d="M128.106 112.855C128.106 112.855 128.983 113.956 130.312 114.515L129.31 115.965L127.558 113.428L128.106 112.855Z" fill="#F1F1F1"/>
<path fill-rule="evenodd" clip-rule="evenodd" d="M130.312 114.516L131.094 115.706C131.094 115.706 130.273 116.171 129.509 115.676L130.312 114.516Z" fill="#E6427A"/>
<path fill-rule="evenodd" clip-rule="evenodd" d="M122.26 141.487C122.26 141.487 126.49 143.048 136.056 141.577L135.929 139.844C135.929 139.844 130.384 141.481 122.429 140.079L122.26 141.487Z" fill="#1D2033"/>
<path fill-rule="evenodd" clip-rule="evenodd" d="M132.781 113.141C132.781 113.141 131.792 120.534 131.928 126.911C132.063 133.288 136.877 144.869 136.877 144.869C136.877 144.869 138.981 142.833 139.897 141.68C139.897 141.68 136.621 132.222 136.681 130.516C136.741 128.81 140.378 115.928 140.378 115.928C140.378 115.928 138.357 114.61 132.781 113.141Z" fill="#323657"/>
<path fill-rule="evenodd" clip-rule="evenodd" d="M127.471 113.453C127.471 113.453 127.479 120.534 127.343 126.911C127.208 133.289 126.368 145.16 126.368 145.16C126.368 145.16 121.656 144.414 120.741 143.261C120.741 143.261 122.649 132.222 122.589 130.516C122.529 128.81 119.521 116.26 119.521 116.26C119.521 116.26 121.272 115.108 127.471 113.453Z" fill="#323657"/>
<path fill-rule="evenodd" clip-rule="evenodd" d="M128.029 142.313H130.628V140.379H128.029V142.313Z" fill="#3A4066"/>
<path fill-rule="evenodd" clip-rule="evenodd" d="M129.944 115.402C129.944 115.402 128.783 119.367 128.682 127.241C128.581 135.114 128.824 137.372 128.824 137.372L129.731 139.166L130.938 137.294C130.938 137.294 130.551 119.176 130.775 115.54L129.944 115.402Z" fill="#E6427A"/>
<path fill-rule="evenodd" clip-rule="evenodd" d="M135.344 140.49C135.344 140.49 136.691 141.679 138.58 142.313C138.58 142.313 144.84 132.106 144.919 131.37C144.993 130.688 141.813 116.808 140.379 115.93L137.773 123.563C137.946 123.513 140.739 129.362 140.749 130.115C140.765 131.123 135.344 140.49 135.344 140.49Z" fill="#323657"/>
<path fill-rule="evenodd" clip-rule="evenodd" d="M119.184 145.981C119.184 145.981 117.777 146.243 115.742 146.128C115.742 146.128 116.535 133.026 116.456 132.289C116.383 131.608 118.086 117.136 119.521 116.258L122.079 123.971C121.907 123.921 120.364 131.862 120.354 132.614C120.338 133.622 119.184 145.981 119.184 145.981Z" fill="#323657"/>
<path fill-rule="evenodd" clip-rule="evenodd" d="M131.531 165.578L131.124 173.544L130.362 167.197V167.197C130.797 166.616 131.193 166.071 131.531 165.578Z" fill="#1D2033"/>
<path fill-rule="evenodd" clip-rule="evenodd" d="M116.478 76.4614H118.825V68.7578H116.478V76.4614Z" fill="#FABCD2"/>
<path fill-rule="evenodd" clip-rule="evenodd" d="M112.629 76.4608H114.977V70.918H112.629V76.4608Z" fill="#FABCD2"/>
<path fill-rule="evenodd" clip-rule="evenodd" d="M120.326 76.4612H122.674V65.1875H120.326V76.4612Z" fill="#FABCD2"/>
<path fill-rule="evenodd" clip-rule="evenodd" d="M223.785 143.47C223.787 143.469 223.789 143.468 223.791 143.469C223.764 143.481 223.76 143.482 223.785 143.47Z" fill="#323657"/>
<path d="M211.271 91.582H170.53V130.345H211.271V91.582Z" fill="#FFF5F9"/>
<path d="M211.271 85.4823V91.5799H170.53V85.4823C170.53 84.271 171.566 83.2891 172.843 83.2891H208.959C210.236 83.2891 211.271 84.271 211.271 85.4823Z" fill="url(#paint2_linear_8342_237152)"/>
<path d="M203.041 87.0753C203.041 88.0792 203.899 88.893 204.957 88.893C206.016 88.893 206.874 88.0792 206.874 87.0753C206.874 86.0715 206.016 85.2578 204.957 85.2578C203.899 85.2578 203.041 86.0716 203.041 87.0753Z" fill="#2B4183"/>
<path d="M204.957 87.7579C205.563 87.7579 206.055 87.2915 206.055 86.7162V82.0104C206.055 81.4352 205.563 80.9688 204.957 80.9688C204.35 80.9688 203.858 81.4352 203.858 82.0104V86.7162C203.858 87.2915 204.35 87.7579 204.957 87.7579Z" fill="#6F94DC"/>
<path d="M189.515 87.0753C189.515 88.0792 190.373 88.893 191.431 88.893C192.489 88.893 193.348 88.0792 193.348 87.0753C193.348 86.0715 192.489 85.2578 191.431 85.2578C190.373 85.2578 189.515 86.0716 189.515 87.0753Z" fill="#2B4183"/>
<path d="M191.43 87.7579C192.037 87.7579 192.529 87.2915 192.529 86.7162V82.0104C192.529 81.4352 192.037 80.9688 191.43 80.9688C190.824 80.9688 190.332 81.4352 190.332 82.0104V86.7162C190.332 87.2915 190.824 87.7579 191.43 87.7579Z" fill="#6F94DC"/>
<path d="M175.988 87.0753C175.988 88.0792 176.846 88.893 177.905 88.893C178.963 88.893 179.821 88.0792 179.821 87.0753C179.821 86.0715 178.963 85.2578 177.905 85.2578C176.846 85.2578 175.988 86.0716 175.988 87.0753Z" fill="#2B4183"/>
<path d="M177.905 87.7579C178.512 87.7579 179.003 87.2915 179.003 86.7162V82.0104C179.003 81.4352 178.512 80.9688 177.905 80.9688C177.298 80.9688 176.807 81.4352 176.807 82.0104V86.7162C176.807 87.2915 177.298 87.7579 177.905 87.7579Z" fill="#6F94DC"/>
<path d="M205.252 97.8086H197.506V105.155H205.252V97.8086Z" stroke="#F2CDDB" stroke-width="0.6" stroke-miterlimit="10"/>
<path d="M194.945 97.8086H187.198V105.155H194.945V97.8086Z" stroke="#F2CDDB" stroke-width="0.6" stroke-miterlimit="10"/>
<path d="M184.639 97.8086H176.893V105.155H184.639V97.8086Z" stroke="#F2CDDB" stroke-width="0.6" stroke-miterlimit="10"/>
<path d="M205.252 107.137H197.506V114.483H205.252V107.137Z" stroke="#F2CDDB" stroke-width="0.6" stroke-miterlimit="10"/>
<path d="M194.945 107.137H187.198V114.483H194.945V107.137Z" stroke="#F2CDDB" stroke-width="0.6" stroke-miterlimit="10"/>
<path d="M184.639 107.137H176.893V114.483H184.639V107.137Z" fill="#F483AC"/>
<path d="M179.69 109.762L181.838 111.861" stroke="white" stroke-width="0.5" stroke-miterlimit="10"/>
<path d="M181.838 109.762L179.69 111.861" stroke="white" stroke-width="0.5" stroke-miterlimit="10"/>
<path d="M205.252 116.461H197.506V123.808H205.252V116.461Z" stroke="#F2CDDB" stroke-width="0.6" stroke-miterlimit="10"/>
<path d="M194.945 116.461H187.198V123.808H194.945V116.461Z" stroke="#F2CDDB" stroke-width="0.6" stroke-miterlimit="10"/>
<path d="M184.639 116.461H176.893V123.808H184.639V116.461Z" stroke="#F2CDDB" stroke-width="0.6" stroke-miterlimit="10"/>
<path d="M239.607 193.765H242.511C242.511 193.765 243.849 190.649 244.073 190.609C244.297 190.567 244.297 193.765 244.297 193.765H244.799C244.799 193.765 245.302 190.076 245.134 189.46C245.03 189.078 244.408 188.356 243.966 187.711C243.966 187.711 242.919 188.18 242.779 189.467C242.68 190.387 242.438 192.421 241.164 192.535C240.779 192.658 239.998 192.721 239.831 192.905C239.663 193.089 239.607 193.765 239.607 193.765Z" fill="#201F39"/>
<path d="M226.435 193.767H229.339C229.339 193.767 229.339 193.767 229.341 193.765C229.381 193.671 230.683 190.649 230.901 190.609C230.907 190.609 230.911 190.609 230.914 190.611C231.125 190.706 231.125 193.767 231.125 193.767H231.626C231.626 193.767 231.626 193.767 231.626 193.765C231.64 193.667 232.128 190.069 231.962 189.46C231.858 189.078 231.238 188.356 230.794 187.711C230.794 187.711 229.747 188.18 229.607 189.469C229.507 190.379 229.27 192.39 228.02 192.532C228.01 192.534 228.001 192.536 227.992 192.536C227.607 192.658 226.826 192.721 226.659 192.905C226.491 193.089 226.435 193.767 226.435 193.767Z" fill="#201F39"/>
<path d="M226.008 156.793C226.288 160.237 228.857 187.735 228.688 189.272C228.524 190.797 228.399 192.383 228.022 192.528C229.272 192.387 229.509 190.376 229.609 189.466C229.749 188.177 230.796 187.708 230.796 187.708C231.24 188.353 231.86 189.075 231.964 189.456C232.13 190.065 231.642 193.664 231.628 193.762H231.648C231.648 193.762 232.149 190.073 231.982 189.456C231.816 188.842 230.307 187.348 230.363 186.71C230.419 186.074 232.876 169.834 232.876 167.005C232.876 164.175 231.201 158.515 231.201 158.515L235.631 147.667L236.069 146.592C235.466 141.021 230.114 132.679 229.592 131.875C229.536 132.193 229.444 132.702 229.329 133.359C228.392 138.713 225.781 153.962 226.008 156.793Z" fill="#EBB973"/>
<path d="M240.326 167.352C241.185 173.908 241.988 181.807 241.84 189.27C241.81 190.818 241.549 192.408 241.164 192.53C242.439 192.415 242.681 190.381 242.78 189.462C242.92 188.175 243.967 187.706 243.967 187.706C243.697 187.313 243.496 186.949 243.517 186.708C243.559 186.221 245.004 176.62 245.682 170.859C245.739 170.374 245.791 169.917 245.837 169.493C243.272 168.273 241.417 166.923 240.066 165.406C240.152 166.04 240.24 166.689 240.326 167.352Z" fill="#EBB973"/>
<path d="M235.631 147.67L236.069 146.595C235.466 141.023 230.114 132.682 229.592 131.879C229.592 131.879 235.457 143.17 235.631 147.67Z" fill="#EBB973"/>
<path d="M245.837 169.498C245.792 169.921 245.74 170.378 245.683 170.863C245.594 170.821 245.505 170.779 245.418 170.737C243.26 169.709 241.604 168.59 240.327 167.357C240.24 166.693 240.153 166.044 240.066 165.41C241.417 166.927 243.273 168.277 245.837 169.498Z" fill="#EBB973"/>
<path d="M295 193.899C267.288 193.203 264.003 191.97 261.924 181.018C261.18 177.105 254.358 173.146 247.089 170.062C246.653 169.878 246.237 169.69 245.837 169.499C243.273 168.277 241.417 166.927 240.065 165.411C236.17 161.041 236.465 155.288 236.115 147.213C236.106 147.011 236.09 146.805 236.067 146.595C235.464 141.023 230.112 132.682 229.59 131.879C229.563 131.837 229.549 131.816 229.549 131.816C229.549 131.816 231.258 124.054 231.314 122.855C231.372 121.656 231.209 115.751 231.209 115.751C231.209 115.751 229.117 114.873 228.89 113.345C228.771 112.535 228.914 111.53 229.124 110.623C229.429 109.311 229.877 108.208 229.877 108.208C229.877 108.208 231.595 107.439 233.099 108.533C234.337 109.433 235.484 110.653 235.484 110.653C235.484 110.653 238.227 107.769 241.032 108.097C243.838 108.425 244.608 110.721 244.608 110.721C244.608 110.721 240.953 122.148 241.138 122.476C241.23 122.639 242.623 123.652 244.422 125.585C245.108 126.321 245.853 127.191 246.608 128.198C247.856 129.864 249.13 131.906 250.206 134.339C253.635 142.103 263.109 165.505 264.98 168.619C269.315 175.829 275.54 180.781 282.315 183.368C292.019 187.075 295 193.899 295 193.899Z" fill="#E6427A"/>
<path d="M207.808 98.2041C208.396 98.9702 211.093 100.501 211.093 100.501C211.093 100.501 215.827 118.822 219.14 118.615C221.874 118.445 228.818 110.956 229.124 110.625C229.429 109.315 229.877 108.209 229.877 108.209C229.877 108.209 231.595 107.441 233.098 108.535C234.337 109.435 235.483 110.655 235.483 110.655C235.483 110.655 238.226 107.771 241.032 108.1C243.839 108.428 244.608 110.724 244.608 110.724C244.608 110.724 245.242 110.778 245.586 111.161C245.935 111.544 252.933 119.362 252.933 119.362C252.933 119.362 246.888 126.031 246.473 126.087C246.22 126.119 245.341 125.811 244.423 125.587C243.825 125.441 243.215 125.332 242.744 125.376C241.548 125.486 240.37 127.071 240.441 127.29C240.512 127.508 242.392 126.797 243.533 127.29C244.675 127.782 245.655 128.219 246.494 128.219C246.523 128.219 246.561 128.213 246.609 128.202C247.987 127.857 257.295 122.655 257.01 119.855C256.727 117.085 247.759 105.527 244.842 104.27C243.54 104.799 239.92 104.663 238.201 103.728C235.954 102.505 236.483 97.6033 236.285 96.5097C236.09 95.4162 234.668 94.7054 233.525 94.2132C232.706 93.8609 232.047 93.2422 231.743 92.6484C231.613 93.3629 231.303 95.2013 231.376 96.0729C231.422 96.6149 231.584 97.6471 231.791 98.5588C232 99.4802 232.25 100.281 232.467 100.336C232.893 100.445 234.511 100.336 234.511 100.336C234.511 100.336 234.607 101.154 234.672 101.966C234.733 102.713 234.767 103.458 234.676 103.561C234.557 103.695 232.846 103.5 231.175 103.625C230.141 103.703 229.121 103.904 228.508 104.383C227.578 105.109 219.357 113.402 219.357 113.402C219.357 113.402 213.132 100.306 212.674 99.3517C212.041 98.0398 209.608 95.9081 209.608 95.9081C209.608 95.9081 209.315 96.182 209.686 96.8371C209.909 97.2317 210.601 97.7662 210.402 97.8753C210.201 97.9863 207.123 95.0331 206.861 95.0331C206.599 95.0331 207.219 97.438 207.808 98.2041Z" fill="#EBB973"/>
<path d="M231.177 103.624C232.848 103.5 234.559 103.695 234.678 103.561C234.77 103.458 234.735 102.713 234.674 101.966C234.609 101.154 234.513 100.336 234.513 100.336C234.513 100.336 232.896 100.445 232.469 100.336C232.253 100.281 232.002 99.4798 231.793 98.5586C231.294 99.3037 230.187 101.081 230.118 102.305C230.074 103.092 230.35 103.465 231.177 103.624Z" fill="#201F39"/>
<path d="M245.203 104.054C245.121 104.136 244.999 104.208 244.843 104.271C243.542 104.799 239.921 104.662 238.203 103.728C235.957 102.505 236.485 97.6033 236.288 96.51C236.091 95.4167 234.669 94.7057 233.527 94.2138C232.707 93.8607 232.05 93.2423 231.744 92.648C231.623 92.4137 231.557 92.1833 231.557 91.974C231.554 89.6601 235.634 88.0907 238.506 88.5826C241.378 89.0746 241.784 93.2845 241.526 94.5963C241.27 95.9087 240.906 97.8219 243.608 99.4076C246.309 100.993 245.977 103.289 245.203 104.054Z" fill="#201F39"/>
<path d="M236.116 99.8711C236.163 100.95 234.868 101.842 234.675 101.969C234.609 101.156 234.512 100.339 234.512 100.339C235.191 100.203 236.116 99.8711 236.116 99.8711Z" fill="#EBB973"/>
<defs>
<linearGradient id="paint0_linear_8342_237152" x1="24.7184" y1="65.7597" x2="396.51" y2="117.965" gradientUnits="userSpaceOnUse">
<stop stop-color="#F3DCE5"/>
<stop offset="0.743986" stop-color="#DFF6F8" stop-opacity="0.56"/>
<stop offset="0.973958" stop-color="#EAABEB" stop-opacity="0"/>
</linearGradient>
<linearGradient id="paint1_linear_8342_237152" x1="78.5645" y1="101.469" x2="223.679" y2="101.469" gradientUnits="userSpaceOnUse">
<stop stop-color="#BDCCED"/>
<stop offset="0.1841" stop-color="#D5E9FD"/>
<stop offset="0.3992" stop-color="#D7E2F9"/>
<stop offset="0.635417" stop-color="#D5E0F7"/>
<stop offset="0.8695" stop-color="#B4C9F2"/>
<stop offset="1" stop-color="#C1CEE6"/>
</linearGradient>
<linearGradient id="paint2_linear_8342_237152" x1="170.53" y1="87.4345" x2="211.271" y2="87.4345" gradientUnits="userSpaceOnUse">
<stop stop-color="#BDCCED"/>
<stop offset="0.1841" stop-color="#D5E9FD"/>
<stop offset="0.3992" stop-color="#D7E2F9"/>
<stop offset="0.635417" stop-color="#D5E0F7"/>
<stop offset="0.8695" stop-color="#B4C9F2"/>
<stop offset="1" stop-color="#C1CEE6"/>
</linearGradient>
</defs>
</svg>
