<svg width="14" height="14" viewBox="0 0 14 14" fill="none" xmlns="http://www.w3.org/2000/svg">
<path d="M12.605 3.75065C11.2395 3.75065 10.6792 5.5013 11.7998 6.30654L9.874 7.49692L7.59828 4.66093C8.92884 3.99562 8.43866 2 7.00309 2C5.53255 2 5.04243 3.99587 6.4079 4.66093L4.13218 7.49692L2.20641 6.30654C3.32645 5.5013 2.76618 3.75065 1.40067 3.75065C-0.279892 3.75065 -0.525109 6.16661 1.08561 6.51655L2.13606 12.5039H11.8347L12.8851 6.51655C14.5305 6.16657 14.2855 3.75065 12.605 3.75065H12.605ZM7.70307 3.40042C7.70307 4.3107 6.30268 4.3107 6.30268 3.40042C6.30268 2.49014 7.70307 2.49014 7.70307 3.40042ZM1.40073 4.45087C2.31101 4.45087 2.31101 5.85127 1.40073 5.85127C0.490457 5.85151 0.490457 4.45087 1.40073 4.45087ZM2.73129 11.8036L2.55617 10.7531H11.4495L11.2744 11.8036H2.73129ZM11.5546 10.053H2.45118L1.89092 6.90191L4.27168 8.40734L7.00269 5.01108L9.73371 8.40734L12.1145 6.90191L11.5546 10.053ZM11.9045 5.15101C11.9045 4.24073 13.3049 4.24073 13.3049 5.15101C13.3052 6.06147 11.9045 6.06147 11.9045 5.15101Z" fill="#E6427A"/>
</svg>
