<svg width="38" height="38" viewBox="0 0 38 38" fill="none" xmlns="http://www.w3.org/2000/svg">
<circle cx="19" cy="19" r="19" fill="#D7D7D7"/>
<path fill-rule="evenodd" clip-rule="evenodd" d="M6.9082 20.6582C6.90803 21.4417 7.07458 22.3649 7.38215 23.2773C7.68963 24.1896 8.11928 25.035 8.59973 25.6764C8.59986 24.8929 8.43336 23.9697 8.12579 23.0574C7.81822 22.145 7.38866 21.2996 6.9082 20.6582Z" fill="#9C9FA0"/>
<path fill-rule="evenodd" clip-rule="evenodd" d="M25.7173 18.2622C25.9383 16.6603 26.0179 15.0613 25.9483 13.6332C26.2531 13.5461 26.4926 13.2843 26.5358 12.9484C26.5937 12.4984 26.2776 12.0865 25.8298 12.0284C25.3821 11.9702 24.9722 12.2879 24.9143 12.7379C24.8709 13.0754 25.0379 13.3916 25.3132 13.553C24.8577 14.9183 24.5004 16.4849 24.2792 18.0881C23.9786 20.2673 23.9421 22.409 24.1744 24.1464C24.8706 22.5213 25.4166 20.4413 25.7173 18.2622Z" fill="#9C9FA0"/>
<path fill-rule="evenodd" clip-rule="evenodd" d="M12.0841 23.1689C12.1619 22.0916 12.0523 20.7893 11.7717 19.4769C11.4911 18.1645 11.0568 16.9231 10.542 15.957C10.4641 17.0342 10.5737 18.3366 10.8544 19.649C11.135 20.9613 11.5693 22.2028 12.0841 23.1689Z" fill="#9C9FA0"/>
<path fill-rule="evenodd" clip-rule="evenodd" d="M16.9807 22.7057C17.2341 21.4903 17.3059 19.9894 17.1825 18.4544C17.0592 16.9194 16.7483 15.4456 16.3036 14.2793C16.0503 15.4948 15.9785 16.9956 16.1019 18.5306C16.2252 20.0656 16.536 21.5395 16.9807 22.7057Z" fill="#9C9FA0"/>
<path fill-rule="evenodd" clip-rule="evenodd" d="M9.70102 20.623C9.4001 19.5059 9.00674 18.4255 8.56205 17.4938C8.74933 17.3564 8.84548 17.1145 8.78527 16.8746C8.70608 16.5593 8.3875 16.3681 8.07368 16.4477C7.75986 16.5273 7.56965 16.8474 7.64879 17.1628C7.70935 17.404 7.91032 17.5714 8.1418 17.6017C8.22256 18.6173 8.42291 19.7399 8.723 20.854C9.1279 22.3573 9.69341 23.7733 10.324 24.867C10.3252 23.624 10.1059 22.1262 9.70102 20.623Z" fill="#9C9FA0"/>
<path fill-rule="evenodd" clip-rule="evenodd" d="M27.8596 19.649C28.1402 18.3366 28.2498 17.0342 28.172 15.957C27.6572 16.9231 27.2228 18.1645 26.9423 19.4769C26.6616 20.7893 26.552 22.0916 26.6299 23.1689C27.1447 22.2028 27.579 20.9613 27.8596 19.649Z" fill="#9C9FA0"/>
<path fill-rule="evenodd" clip-rule="evenodd" d="M22.6122 18.5306C22.7356 16.9956 22.6638 15.4947 22.4104 14.2793C21.9657 15.4456 21.6549 16.9194 21.5316 18.4544C21.4082 19.9895 21.48 21.4903 21.7333 22.7057C22.1781 21.5395 22.4889 20.0656 22.6122 18.5306Z" fill="#9C9FA0"/>
<path fill-rule="evenodd" clip-rule="evenodd" d="M30.5873 23.0574C30.2799 23.9697 30.1133 24.8928 30.1133 25.6764C30.5938 25.035 31.0232 24.1896 31.331 23.2773C31.6384 22.3649 31.805 21.4417 31.805 20.6582C31.3245 21.2996 30.8947 22.145 30.5873 23.0574Z" fill="#9C9FA0"/>
<path fill-rule="evenodd" clip-rule="evenodd" d="M19.3592 24.5664C13.5437 24.5664 8.98828 25.642 8.98828 27.015C8.98828 27.5613 9.7067 28.0736 11.0658 28.4968C11.0992 28.507 11.1353 28.4907 11.147 28.4595C11.1587 28.4285 11.1417 28.3944 11.1088 28.3829C10.0478 28.0103 9.46358 27.6018 9.46358 27.2327C9.46358 26.1964 13.9952 25.3208 19.3592 25.3208C24.7231 25.3208 29.2547 26.1964 29.2547 27.2327C29.2547 27.6018 28.6705 28.0103 27.6094 28.3829C27.5765 28.3944 27.5596 28.4285 27.5712 28.4595C27.5806 28.4843 27.6055 28.4998 27.6321 28.4998L27.6524 28.4968C29.0116 28.0736 29.73 27.5613 29.73 27.015C29.73 25.642 25.1746 24.5664 19.3592 24.5664Z" fill="#9C9FA0"/>
<path fill-rule="evenodd" clip-rule="evenodd" d="M19.0252 11.5921C19.0129 11.5897 19.0007 11.5888 18.9883 11.5862C18.6856 13.1906 18.5257 15.0103 18.5257 16.8527C18.5257 19.4612 18.8352 22.1167 19.3569 24.0099C19.8786 22.1167 20.1882 19.4612 20.1882 16.8527C20.1882 15.0103 20.0283 13.1906 19.7256 11.5862C19.7132 11.5888 19.701 11.5897 19.6886 11.5921C20.1161 11.4511 20.4268 11.0517 20.4268 10.575C20.4268 9.98132 19.9478 9.5 19.3569 9.5C18.7661 9.5 18.2871 9.98132 18.2871 10.575C18.2871 11.0517 18.5978 11.4511 19.0252 11.5921Z" fill="#9C9FA0"/>
<path fill-rule="evenodd" clip-rule="evenodd" d="M12.7658 13.633C12.6961 15.0612 12.7758 16.6602 12.9968 18.2622C13.2975 20.4413 13.8434 22.5213 14.5397 24.1464C14.7719 22.409 14.7355 20.2673 14.4348 18.0881C14.2136 16.485 13.8563 14.9185 13.4009 13.5532C13.6764 13.3919 13.8437 13.0756 13.8003 12.7379C13.7424 12.2879 13.3325 11.9702 12.8847 12.0284C12.4369 12.0865 12.1209 12.4984 12.1787 12.9484C12.2219 13.2841 12.4612 13.5457 12.7658 13.633Z" fill="#9C9FA0"/>
<path fill-rule="evenodd" clip-rule="evenodd" d="M31.0646 17.1628C31.1437 16.8474 30.9535 16.5273 30.6396 16.4477C30.3256 16.3681 30.0073 16.5593 29.9281 16.8746C29.8678 17.1143 29.9636 17.3561 30.1507 17.4936C29.706 18.4253 29.3125 19.5058 29.0117 20.623C28.6068 22.1262 28.3875 23.624 28.3887 24.867C29.0193 23.7733 29.5849 22.3573 29.9898 20.854C30.2897 19.74 30.49 18.6173 30.5709 17.6017C30.8026 17.5716 31.0038 17.4042 31.0646 17.1628Z" fill="#9C9FA0"/>
</svg>
