<svg width="25" height="24" viewBox="0 0 25 24" fill="none" xmlns="http://www.w3.org/2000/svg">
<path d="M17.7417 18.7109C17.517 18.9035 17.2282 19.0319 16.9394 19.0319C16.8752 19.0319 16.7789 19.0319 16.7147 18.9999L15.8804 18.8394C15.8484 18.8394 15.7841 18.8394 15.7521 18.8714L15.4633 19.1924C15.3991 19.2567 15.3671 19.2887 15.3028 19.3529L15.1423 19.5455C14.9176 19.8022 14.5968 19.9305 14.2438 19.9305C14.019 19.9305 13.8265 19.8662 13.6662 19.77L12.9602 19.385C12.9602 19.385 12.9282 19.385 12.9282 19.3529C12.8962 19.3529 12.864 19.3209 12.832 19.3209C12.7999 19.3209 12.7677 19.3209 12.7357 19.3529C12.7357 19.3529 12.7037 19.3529 12.7037 19.385L11.9977 19.77C11.8372 19.8662 11.6126 19.9305 11.4201 19.9305C11.0671 19.9305 10.7461 19.8022 10.5216 19.5455L10.3611 19.3529C10.2968 19.3209 10.2648 19.2567 10.2006 19.1924L9.91181 18.8714C9.8798 18.8394 9.81555 18.8394 9.78354 18.8394L8.94922 18.9999C8.88497 18.9999 8.78872 19.0319 8.72447 19.0319C8.4357 19.0319 8.14694 18.9037 7.92219 18.7109L6.60638 22.6903C6.54214 22.9471 6.67063 23.0754 6.89515 22.9791L9.36625 22.1126C9.591 22.0163 9.94378 22.1126 10.1043 22.3051L11.4201 23.8776C11.5806 24.0701 11.7731 24.0381 11.8374 23.7814L12.7997 19.5454L13.8267 23.7816C13.891 24.0384 14.0835 24.0704 14.244 23.8779L15.5598 22.3053C15.7203 22.1128 16.0411 22.0165 16.2978 22.1128L18.7689 22.9793C18.9937 23.0756 19.154 22.9473 19.0577 22.6906L17.7417 18.7109Z" fill="#E6427A"/>
<path d="M22.2781 10.0446C22.1498 9.81988 22.1498 9.4671 22.2781 9.24235L22.6953 8.5043C22.8236 8.27955 22.7596 7.95878 22.5671 7.79829L21.957 7.1885C21.7645 7.028 21.6683 6.67498 21.7003 6.41825L21.8608 5.58393C21.925 5.32717 21.7645 5.0384 21.5398 4.94216L20.7695 4.58914C20.5448 4.49288 20.3203 4.20411 20.2883 3.94737L20.192 3.11288C20.16 2.85612 19.9352 2.6316 19.6785 2.59937L18.8442 2.50311C18.5874 2.4711 18.2986 2.24635 18.2024 2.02183L17.8494 1.25158C17.7531 1.05907 17.5284 0.898564 17.3039 0.898564H17.2076L16.3411 1.05907H16.2128C15.9881 1.05907 15.7315 0.96281 15.571 0.802307L14.9935 0.192514C14.8972 0.0642457 14.7047 0 14.5442 0C14.448 0 14.3517 0.0320107 14.2555 0.0642459L13.5174 0.481502C13.4212 0.545748 13.2607 0.57776 13.1002 0.57776C12.9397 0.57776 12.8114 0.545749 12.6829 0.481502L11.9449 0.0642459C11.8486 0.0322353 11.7523 0 11.6561 0C11.4956 0 11.3351 0.0642457 11.2068 0.192514L10.6293 0.802307C10.4688 0.96281 10.212 1.05907 9.98752 1.05907H9.85925L9.02494 0.898564H8.92868C8.70393 0.898564 8.47941 1.02683 8.38315 1.25158L8.03014 2.02183C7.93388 2.24658 7.64511 2.4711 7.38837 2.50311L6.55405 2.59937C6.29729 2.63138 6.07277 2.85613 6.04053 3.11288L5.94428 3.9472C5.91227 4.20396 5.68752 4.49272 5.463 4.58897L4.72404 4.94221C4.49929 5.03847 4.33901 5.32724 4.40303 5.58398L4.56353 6.4183C4.62778 6.67506 4.49929 7.02809 4.30677 7.18855L3.69698 7.76608C3.50447 7.92658 3.47223 8.24736 3.56871 8.47209L3.98597 9.21013C4.11424 9.43488 4.11424 9.78766 3.98597 10.0124L3.56871 10.7505C3.44044 10.9752 3.50447 11.296 3.69698 11.4565L4.30677 12.034C4.49929 12.1945 4.59555 12.5475 4.56353 12.8043L4.40303 13.6386C4.33879 13.8953 4.49929 14.1841 4.72404 14.2803L5.49429 14.6334C5.71904 14.7296 5.94356 15.0184 5.97557 15.2751L6.07182 16.1741C6.10383 16.4309 6.32858 16.6554 6.58534 16.6877L7.41966 16.7839C7.67642 16.8159 7.96518 17.0407 8.06143 17.2652L8.41444 18.0354C8.44645 18.0997 8.47869 18.1317 8.54271 18.196C8.67098 18.2922 8.83148 18.3885 8.95997 18.3885H9.05622L9.89054 18.228H10.0188C10.2436 18.228 10.5001 18.3242 10.6606 18.4847L11.2381 19.0945C11.3344 19.2228 11.5269 19.287 11.6874 19.287C11.7836 19.287 11.8799 19.255 11.9761 19.2228L12.7142 18.8055C12.7462 18.8055 12.7462 18.8055 12.7784 18.7735C12.8747 18.7415 13.0032 18.7093 13.1315 18.7093C13.2597 18.7093 13.3882 18.7413 13.4845 18.7735C13.5165 18.7735 13.5165 18.7735 13.5487 18.8055L14.2868 19.2228C14.383 19.2548 14.4793 19.287 14.5755 19.287C14.736 19.287 14.8965 19.2228 15.0248 19.0945L15.6023 18.4847C15.7628 18.3242 16.0196 18.228 16.2441 18.228H16.3724L17.2067 18.3885H17.3029C17.4635 18.3885 17.624 18.3242 17.7202 18.196C17.7522 18.1639 17.8165 18.0997 17.8485 18.0354L18.2015 17.2652C18.2977 17.0404 18.5865 16.8159 18.8433 16.7839L19.6776 16.6877C19.9343 16.6557 20.1589 16.4309 20.1911 16.1741L20.2873 15.3398C20.3194 15.0831 20.5441 14.7943 20.7686 14.6981L21.5389 14.345C21.7636 14.2488 21.9239 13.96 21.8599 13.7033L21.6994 12.869C21.6351 12.6122 21.7636 12.2592 21.9561 12.0987L22.5659 11.5212C22.7584 11.3607 22.7907 11.0399 22.6942 10.8152L22.2781 10.0446ZM17.0151 16.1099C16.0846 16.6874 14.9933 17.0404 13.8702 17.1689C13.6134 17.2009 13.3889 17.2009 13.1322 17.2009C12.8754 17.2009 12.6509 17.2009 12.3941 17.1689C11.2388 17.0727 10.1797 16.6876 9.24921 16.1099C7.03462 14.7941 5.55836 12.3872 5.55836 9.62744C5.55836 5.45551 8.95998 2.05388 13.1319 2.05388C17.3039 2.05388 20.7055 5.45551 20.7055 9.62744C20.7055 12.3873 19.2292 14.7942 17.0151 16.1099Z" fill="#E6427A"/>
<path d="M13.3053 3C9.55063 3 6.50195 6.04862 6.50195 9.80337C6.50195 12.2102 7.75352 14.3283 9.64685 15.5156C10.4491 16.0292 11.3797 16.3822 12.3747 16.5104C12.6635 16.5424 12.9845 16.5747 13.3053 16.5747C13.6263 16.5747 13.9151 16.5427 14.2358 16.5104C15.2306 16.3821 16.1291 16.0291 16.9637 15.5156C18.857 14.2961 20.1086 12.2102 20.1086 9.80337C20.1086 6.04891 17.06 3 13.3052 3H13.3053Z" fill="#E6427A"/>
<path fill-rule="evenodd" clip-rule="evenodd" d="M11.6759 7.78947C11.9054 8.77584 11.9831 9.90297 11.8366 10.6849C11.8437 10.6824 11.8517 10.6797 11.8517 10.6797C12.3556 10.6257 12.8994 10.5779 13.4266 10.6168C13.9571 10.656 14.4489 10.7342 14.9217 10.8144C14.9472 10.5946 14.954 10.3689 14.9837 10.1498C15.0693 9.51803 15.1974 8.89143 15.3906 8.35347C15.4289 8.35353 15.4468 8.37432 15.488 8.37144C15.4146 9.29386 15.2351 10.1086 14.9571 10.8234C15.3862 10.9207 15.8123 11.0211 16.1604 11.2006C16.1379 10.8598 16.2076 10.55 16.3019 10.2845C16.3694 10.0945 16.4349 9.91398 16.5496 9.79951C16.5784 10.3895 16.4066 10.8511 16.1692 11.2006C16.2755 11.2959 16.469 11.3743 16.3904 11.5868C16.3037 11.821 15.8479 11.925 15.6295 12C15.757 11.9372 15.883 11.8939 16.0277 11.8114C16.1163 11.7608 16.3224 11.6567 16.3196 11.515C16.3159 11.3268 15.8561 11.2017 15.6915 11.1557C15.4073 11.0763 15.1403 11.0372 14.8687 10.9941C14.5816 10.9484 14.2938 10.9071 14.0016 10.8773C13.7099 10.8476 13.4143 10.8054 13.0992 10.8054C12.4202 10.8054 11.8814 10.863 11.2855 10.9492C10.8976 11.0052 10.4367 11.0763 10.1 11.2366C9.99009 11.2889 9.85625 11.3726 9.84341 11.4701C9.83225 11.5547 9.87542 11.6109 9.91419 11.6587C10.0282 11.7992 10.2143 11.8977 10.3742 11.982C10.3721 11.9933 10.3567 11.9911 10.3565 11.982C10.3125 11.9757 10.2591 11.9369 10.2238 11.9192C10.1097 11.8617 9.5831 11.637 9.81687 11.3174C9.84053 11.285 9.88168 11.2594 9.92303 11.2276C10.1991 11.0153 10.6644 10.9062 11.0643 10.8144C10.9232 10.4651 10.8175 10.0809 10.7281 9.68275C10.6392 9.28612 10.5641 8.86626 10.56 8.43431C10.5873 8.4321 10.6101 8.4252 10.6308 8.41634C10.6672 8.44657 10.6703 8.50092 10.6839 8.54209C10.9001 9.19457 11.0612 9.98444 11.0909 10.8054C11.3073 10.7737 11.582 10.7232 11.8252 10.6887L11.8274 10.688L11.8336 10.7005C11.5764 10.1924 11.4918 9.22439 11.5799 7.79652C11.6158 7.80174 11.6513 7.80593 11.6759 7.78947ZM9.52491 9.88933C9.73905 10.1917 9.91097 10.7397 9.8611 11.2545C9.62107 10.9295 9.47147 10.4265 9.50721 9.88034C9.51908 9.87773 9.52098 9.88377 9.52491 9.88933ZM14.4086 7.84152C14.4478 7.83725 14.4526 7.85388 14.4794 7.84152C14.5133 8.88335 14.4 9.84957 14.1963 10.6797C14.117 9.86241 14.1917 8.92119 14.329 8.18282C14.3504 8.06747 14.3535 7.94917 14.3909 7.85949C14.3951 7.84943 14.3918 7.82348 14.4086 7.84152ZM9.93188 9.46719C9.93332 9.47764 10.0117 9.64075 10.038 9.70969C10.135 9.96302 10.206 10.298 10.1796 10.6348C10.1114 10.5749 10.0697 10.4871 10.0292 10.4013C9.91473 10.1587 9.81089 9.85782 9.79917 9.49414C9.85194 9.49381 9.88439 9.48436 9.93188 9.46719ZM16.1161 9.38636C16.1639 9.40819 16.2361 9.42757 16.2754 9.43126C16.2238 9.89082 16.0798 10.2567 15.8772 10.5629C15.8488 10.4962 15.8567 10.423 15.8596 10.3564C15.8754 9.99014 16.0001 9.65899 16.1161 9.38636ZM13.055 6.69188H13.0992C13.128 6.71758 13.1221 6.76573 13.1257 6.79966C13.2546 7.98337 13.2004 9.41926 13.0815 10.545C12.9152 9.39246 12.9215 7.89507 13.0373 6.70984C13.0308 6.69516 13.0549 6.67077 13.055 6.69188ZM10.2415 9.04506C10.4652 9.40003 10.6023 9.92448 10.5423 10.5091C10.3168 10.1574 10.1792 9.63004 10.2415 9.04506ZM15.8065 8.93728C15.8738 9.35142 15.7602 9.83613 15.6384 10.1498C15.5991 10.2509 15.5671 10.36 15.4968 10.4282C15.4428 9.83501 15.582 9.30523 15.7976 8.9283C15.8052 8.92664 15.806 8.9318 15.8065 8.93728ZM12.5507 7.14994C12.7602 8.07197 12.8382 9.19911 12.7365 10.2845C12.5198 9.3768 12.4452 8.22028 12.5418 7.14096C12.5494 7.13931 12.5502 7.14446 12.5507 7.14994ZM11.1617 8.82052C11.3737 9.16722 11.4765 9.77706 11.3828 10.2576C11.1837 9.99769 11.0599 9.27275 11.1617 8.82052ZM13.5239 7.22179C13.6265 8.16588 13.6065 9.30952 13.4177 10.1498C13.4127 10.1722 13.419 10.2116 13.3912 10.2216C13.2772 9.24771 13.3189 8.06093 13.515 7.21281C13.5226 7.21116 13.5234 7.21631 13.5239 7.22179ZM14.8598 8.72172C14.974 9.22944 14.8573 9.83632 14.6652 10.1767C14.5498 9.69623 14.6671 9.06864 14.8598 8.72172ZM12.1083 7.40142C12.3052 8.1422 12.3744 9.22152 12.2499 10.0959C12.0524 9.33273 11.9867 8.2883 12.1083 7.40142ZM13.9308 7.33855C14.0615 8.21073 13.9756 9.27109 13.7981 10.024C13.6535 9.15077 13.746 8.10494 13.922 7.32957C13.9295 7.32792 13.9303 7.33307 13.9308 7.33855ZM9.9596 9.22421C9.95778 9.31038 9.88632 9.3868 9.79761 9.3882C9.58311 9.3916 9.57296 9.07096 9.78193 9.05492C9.87692 9.04762 9.96181 9.12028 9.9596 9.22421ZM16.4374 9.14075C16.4356 9.22693 16.3641 9.30335 16.2754 9.30475C16.0609 9.30814 16.0508 8.98751 16.2598 8.97147C16.3547 8.96417 16.4396 9.03682 16.4374 9.14075ZM10.6995 8.156C10.6976 8.24217 10.6262 8.31859 10.5375 8.31999C10.323 8.32339 10.3128 8.00275 10.5218 7.98671C10.6168 7.97941 10.7017 8.05206 10.6995 8.156ZM15.6647 8.10592C15.6629 8.1921 15.5914 8.26852 15.5027 8.26992C15.2882 8.27331 15.2781 7.95268 15.487 7.93664C15.582 7.92934 15.6669 8.00199 15.6647 8.10592ZM14.6289 7.55513C14.6271 7.6413 14.5556 7.71772 14.4669 7.71913C14.2524 7.72252 14.2423 7.40189 14.4512 7.38584C14.5462 7.37854 14.6311 7.4512 14.6289 7.55513ZM11.7517 7.52175C11.7499 7.60792 11.6784 7.68434 11.5897 7.68574C11.3752 7.68913 11.3651 7.3685 11.574 7.35246C11.669 7.34516 11.7539 7.41781 11.7517 7.52175ZM13.3626 6.28928C13.3594 6.43609 13.238 6.56629 13.0873 6.56868C12.7229 6.57446 12.7057 6.0282 13.0607 6.00086C13.2221 5.98843 13.3663 6.11221 13.3626 6.28928Z" fill="white"/>
</svg>
