<svg width="14" height="14" viewBox="0 0 14 14" fill="none" xmlns="http://www.w3.org/2000/svg">
<circle cx="7" cy="7" r="7" fill="white"/>
<path fill-rule="evenodd" clip-rule="evenodd" d="M10.7101 5.70404L6.77208 9.70504C6.57608 9.90103 6.31915 10.0001 6.06213 10.0001C5.8091 10.0001 5.5551 9.90407 5.36008 9.71206L3.29815 7.71108C2.9041 7.32308 2.9001 6.69008 3.28907 6.29809C3.67707 5.90306 4.31007 5.90101 4.70207 6.289L6.05607 7.58803L9.29007 4.29403C9.68207 3.90398 10.314 3.90095 10.705 4.28895C11.097 4.67998 11.0991 5.312 10.71 5.704L10.7101 5.70404ZM7 0C3.134 0 0 3.134 0 7C0 10.866 3.134 14 7 14C10.866 14 14 10.866 14 7C14 3.134 10.866 0 7 0Z" fill="#E6427A"/>
</svg>
