<svg width="36" height="36" viewBox="0 0 36 36" fill="none" xmlns="http://www.w3.org/2000/svg">
<circle cx="18" cy="18" r="18" fill="#E6427A"/>
<path d="M26.3948 13.3919C25.4825 13.3919 24.7181 14.1317 24.7181 15.0686C24.7181 15.2905 24.7675 15.5123 24.8415 15.7344L21.3646 17.6823L18.8987 14.1069C19.3918 13.811 19.7124 13.2932 19.7124 12.6767C19.7124 11.7644 18.9726 11 18.0358 11C17.1234 11 16.3591 11.7398 16.3591 12.6767C16.3591 13.2932 16.6797 13.8111 17.1728 14.1069L14.7069 17.6823L11.2301 15.7344C11.304 15.5371 11.3534 15.3152 11.3534 15.0686C11.3534 14.1562 10.6136 13.3919 9.67669 13.3919C8.76437 13.3919 8 14.1317 8 15.0686C8 15.9809 8.7398 16.7453 9.67669 16.7453H9.84938L12.0686 23.9949C12.1179 24.1921 12.3152 24.3155 12.5123 24.3155H23.4854C23.6826 24.3155 23.8799 24.1921 23.9291 23.9949L26.1483 16.7453H26.321C27.2333 16.7453 27.9977 16.0055 27.9977 15.0686C28.0469 14.1562 27.3071 13.3919 26.3948 13.3919H26.3948ZM26.4934 15.8085H26.3948C26.0496 15.8085 25.7784 15.5867 25.6798 15.2661C25.6552 15.2167 25.6552 15.1427 25.6552 15.0688C25.6552 14.6742 25.9758 14.329 26.395 14.329C26.7896 14.329 27.1348 14.6496 27.1348 15.0688C27.1345 15.4386 26.8386 15.7592 26.4934 15.8086L26.4934 15.8085ZM18.0602 11.9371C18.4547 11.9371 18.8 12.2577 18.8 12.6769C18.8 12.9727 18.6273 13.244 18.3562 13.3427C18.2576 13.3921 18.1589 13.4167 18.0604 13.4167C17.9618 13.4167 17.8385 13.3921 17.7645 13.3427C17.4931 13.2194 17.3204 12.9727 17.3204 12.6769C17.3204 12.2577 17.6656 11.9371 18.0602 11.9371H18.0602ZM9.62696 15.8085C9.25716 15.7592 8.98589 15.4387 8.98589 15.0687C8.98589 14.6742 9.3065 14.3289 9.72569 14.3289C10.1203 14.3289 10.4655 14.6496 10.4655 15.0687C10.4655 15.1427 10.4655 15.1921 10.4409 15.266C10.3669 15.5866 10.0711 15.8085 9.72588 15.8085H9.62698L9.62696 15.8085ZM23.2138 23.3787H12.9065L10.8353 16.5236L14.6574 18.6689C14.8547 18.7922 15.1259 18.7182 15.2738 18.521L18.0601 14.5018L20.8466 18.5457C20.9945 18.743 21.2412 18.7924 21.463 18.6937L25.2852 16.5484L23.2138 23.3787Z" fill="white" stroke="white" stroke-width="0.3"/>
</svg>
