<svg width="25" height="24" viewBox="0 0 25 24" fill="none" xmlns="http://www.w3.org/2000/svg">
<path d="M14.9376 6.14934C14.937 7.27336 13.9144 8.29586 12.7911 8.29586C11.667 8.29586 10.6445 7.27393 10.6445 6.14934C10.644 5.02493 11.6668 4 12.7911 4C13.9155 4 14.9376 5.02379 14.9376 6.14934Z" fill="#E6427A"/>
<path d="M10.4256 9.14844C9.35622 9.14844 8.49219 10.0113 8.49219 11.0818C8.49219 11.2024 8.5013 11.3222 8.52046 11.4384L10.1088 19.4887C10.3085 20.3421 11.0786 20.9554 11.9833 20.9554H13.5994C14.5045 20.9554 15.3028 20.2997 15.474 19.4887L17.0582 11.4384C17.0796 11.3222 17.0904 11.2024 17.0904 11.0822C17.0904 10.0128 16.219 9.14881 15.1489 9.14881H13.5823C13.5831 9.15699 13.5831 9.16555 13.5823 9.17392L13.0989 11.524C13.4512 11.6607 13.7243 12.0167 13.7239 12.3989C13.7237 12.8874 13.2792 13.3324 12.7905 13.3324C12.302 13.3324 11.8575 12.8876 11.8571 12.3989C11.8569 12.0169 12.13 11.6609 12.4821 11.524L11.9987 9.17392C11.9979 9.16574 11.9979 9.15718 11.9987 9.14881L10.4256 9.14844ZM12.2589 9.14844L12.7338 11.4735C12.7533 11.4722 12.7726 11.4653 12.7922 11.4653C12.8117 11.4653 12.831 11.4722 12.8506 11.4735L13.3254 9.14844H12.2589Z" fill="#E6427A"/>
<path d="M22.9886 11.2903C22.9878 12.3353 22.0373 13.2854 20.9923 13.2854C19.9474 13.2854 18.9967 12.3353 18.9961 11.2903C18.9955 10.2448 19.9468 9.29297 20.9923 9.29297C22.0379 9.29297 22.9892 10.2448 22.9886 11.2903Z" fill="#E6427A"/>
<path d="M19.2844 14.0824C18.2893 14.0824 17.4844 14.8876 17.4844 15.8824C17.4844 15.9944 17.4948 16.1052 17.5147 16.2131L18.1925 19.5988C18.3573 20.3922 19.0924 20.9572 19.9341 20.9572H22.0508C22.8923 20.9572 23.6137 20.3922 23.7924 19.5988L24.4706 16.2128C24.4903 16.1051 24.5009 15.994 24.5009 15.882C24.5009 14.8869 23.6957 14.082 22.7009 14.082H21.7594L21.301 16.2819C21.6533 16.4187 21.9264 16.7747 21.926 17.1569C21.9258 17.6454 21.4813 18.0903 20.9926 18.0903C20.5041 18.0903 20.0596 17.6456 20.0592 17.1569C20.059 16.7749 20.3321 16.4188 20.6842 16.2819L20.2259 14.082L19.2844 14.0824ZM20.4927 14.0824L20.9343 16.2317C20.9538 16.2304 20.9732 16.2235 20.9927 16.2235C21.0122 16.2235 21.0316 16.2304 21.0511 16.2317L21.4927 14.0824H20.4927Z" fill="#E6427A"/>
<path d="M2.14453 9.68484C2.14509 10.7298 3.0958 11.6799 4.14078 11.6799C5.18575 11.6799 6.13645 10.7298 6.13702 9.68484C6.13776 8.63929 5.18633 7.6875 4.14078 7.6875C3.09523 7.6875 2.14396 8.63929 2.14453 9.68484Z" fill="#E6427A"/>
<path d="M2.30001 12.4727C1.30489 12.4727 0.5 13.2779 0.5 14.2727C0.5 14.3846 0.510416 14.4955 0.530319 14.6034L1.34168 19.5976C1.48119 20.3418 2.24157 20.956 3.08327 20.956H5.20003C6.04154 20.956 6.77386 20.3909 6.94162 19.5976L7.75279 14.6034C7.7725 14.4957 7.78311 14.3846 7.78311 14.2727C7.78311 13.2775 6.97789 12.4727 5.9831 12.4727H4.90855L4.45023 14.6726C4.80252 14.8093 5.07559 15.1653 5.07521 15.5475C5.07503 16.036 4.63047 16.481 4.1418 16.481C3.65334 16.481 3.20877 16.0362 3.20839 15.5475C3.20821 15.1655 3.48127 14.8095 3.83338 14.6726L3.37506 12.4727H2.30001ZM3.64132 12.4727L4.0829 14.622C4.10243 14.6207 4.12177 14.6138 4.14131 14.6138C4.16084 14.6138 4.18018 14.6207 4.19971 14.622L4.6413 12.4727H3.64132Z" fill="#E6427A"/>
</svg>
