<svg width="25" height="24" viewBox="0 0 25 24" fill="none" xmlns="http://www.w3.org/2000/svg">
<path d="M12.4432 13.7887C14.8939 13.7887 16.8376 11.8451 16.8376 9.39436C16.8376 6.94366 14.8939 5 12.4432 5C9.99249 5 8.04883 6.94366 8.04883 9.39436C8.04883 11.8451 9.99249 13.7887 12.4432 13.7887Z" fill="#E6427A"/>
<path d="M15.7394 15.0566H9.14789C6.61268 15.0566 4.5 17.1693 4.5 19.7045V20.8876C4.5 21.9862 5.42958 22.9158 6.52817 22.9158H18.3591C19.4577 22.9158 20.3873 21.9862 20.3873 20.8876V19.7045C20.3028 17.1693 18.2746 15.0566 15.7394 15.0566Z" fill="#E6427A"/>
<path d="M1.28071 8.50707C1.27164 5.92976 2.38226 3.45458 4.36899 1.62424C4.44968 1.55865 4.49726 1.46552 4.49987 1.36682C4.50266 1.26811 4.46066 1.17275 4.38363 1.1035C4.3066 1.03424 4.20152 0.997149 4.09364 1.00129C3.98559 1.00543 3.88434 1.05016 3.81376 1.12499C1.69042 3.09272 0.5 5.74506 0.5 8.50788C0.5 11.2707 1.69047 13.9231 3.81376 15.8908C3.88608 15.9599 3.98577 15.9995 4.0905 16.0009C4.19507 16.0022 4.29597 15.9651 4.37038 15.8979C4.4448 15.8308 4.48645 15.7391 4.48628 15.6434C4.48593 15.5479 4.44375 15.4563 4.36899 15.3895C2.3823 13.5594 1.27165 11.084 1.28071 8.50663V8.50707Z" fill="#E6427A"/>
<path d="M4.91264 14.8903C5.04595 15.0367 5.26338 15.038 5.39808 14.8932C5.53292 14.7481 5.53415 14.512 5.40068 14.3654C3.98191 12.803 3.18649 10.6963 3.18649 8.50098C3.18649 6.30569 3.98191 4.19899 5.40068 2.63653C5.53414 2.48998 5.53292 2.25384 5.39808 2.10879C5.26338 1.96391 5.04595 1.96524 4.91264 2.11162C3.36685 3.81391 2.5 6.10922 2.5 8.50087C2.5 10.8925 3.36685 13.1878 4.91264 14.8901V14.8903Z" fill="#E6427A"/>
<path d="M23.7193 8.50707C23.7284 5.92976 22.6177 3.45458 20.631 1.62424C20.5503 1.55865 20.5027 1.46552 20.5001 1.36682C20.4973 1.26811 20.5393 1.17275 20.6164 1.1035C20.6934 1.03424 20.7985 0.997149 20.9064 1.00129C21.0144 1.00543 21.1157 1.05016 21.1862 1.12499C23.3096 3.09272 24.5 5.74506 24.5 8.50788C24.5 11.2707 23.3095 13.9231 21.1862 15.8908C21.1139 15.9599 21.0142 15.9995 20.9095 16.0009C20.8049 16.0022 20.704 15.9651 20.6296 15.8979C20.5552 15.8308 20.5136 15.7391 20.5137 15.6434C20.5141 15.5479 20.5562 15.4563 20.631 15.3895C22.6177 13.5594 23.7284 11.084 23.7193 8.50663V8.50707Z" fill="#E6427A"/>
<path d="M20.0874 14.8903C19.9541 15.0367 19.7366 15.038 19.6019 14.8932C19.4671 14.7481 19.4659 14.512 19.5993 14.3654C21.0181 12.803 21.8135 10.6963 21.8135 8.50098C21.8135 6.30569 21.0181 4.19899 19.5993 2.63653C19.4659 2.48998 19.4671 2.25384 19.6019 2.10879C19.7366 1.96391 19.9541 1.96524 20.0874 2.11162C21.6332 3.81391 22.5 6.10922 22.5 8.50087C22.5 10.8925 21.6332 13.1878 20.0874 14.8901V14.8903Z" fill="#E6427A"/>
<path d="M18.9732 13.8893C18.9223 13.9593 18.8523 13.9995 18.7786 14.0009C18.705 14.0022 18.634 13.9648 18.5817 13.8968C18.5293 13.8287 18.4999 13.7358 18.5 13.639C18.5001 13.5423 18.5298 13.4496 18.5824 13.3817C19.4591 12.211 19.9506 10.6336 19.9506 8.99049C19.9506 7.3474 19.4591 5.76987 18.5824 4.59933C18.4871 4.45515 18.4935 4.23856 18.597 4.10473C18.7005 3.97087 18.8653 3.96587 18.9732 4.0936C19.9516 5.39943 20.5 7.15924 20.5 8.99258C20.5 10.8259 19.9516 12.5856 18.9732 13.8916L18.9732 13.8893Z" fill="#E6427A"/>
<path d="M6.02676 13.8893C6.07766 13.9593 6.14768 13.9995 6.22138 14.0009C6.29496 14.0022 6.36596 13.9648 6.41833 13.8968C6.47069 13.8287 6.50012 13.7358 6.5 13.639C6.49988 13.5423 6.4702 13.4496 6.41759 13.3817C5.54089 12.211 5.04939 10.6336 5.04939 8.99049C5.04939 7.3474 5.54089 5.76987 6.41759 4.59933C6.51288 4.45515 6.5065 4.23856 6.403 4.10473C6.2995 3.97087 6.13468 3.96587 6.02677 4.0936C5.04842 5.39943 4.5 7.15924 4.5 8.99258C4.5 10.8259 5.04842 12.5856 6.02677 13.8916L6.02676 13.8893Z" fill="#E6427A"/>
</svg>
