<svg width="14" height="14" viewBox="0 0 14 14" fill="none" xmlns="http://www.w3.org/2000/svg">
<path d="M8.17414 0C8.83271 0 9.3248 0.117198 9.65066 0.310087C9.99032 0.502976 10.1775 0.771691 10.2676 1.14377C10.4825 1.88794 9.89328 3.63803 9.22094 4.82327H12.4927C13.186 4.82327 13.5949 5.27116 13.7543 5.86368C13.8306 6.62166 13.8167 7.13834 13.2206 7.69652C13.4355 8.00661 13.5603 8.41315 13.5256 8.73015C13.38 9.20558 13.1999 9.37785 12.8116 9.56384C13.2275 10.4389 13.0265 11.0246 12.4581 11.4931C12.6383 12.189 12.4304 12.8092 12.0907 13.2157C11.855 13.5533 11.2658 13.7462 10.8777 13.8979C9.38029 14.1597 8.21572 13.8773 6.87108 13.5121C5.97683 13.2709 5.00633 13.0022 3.828 12.8367V5.98786H4.31327C5.30438 4.8647 6.30259 3.74849 7.16218 2.79083C7.30779 2.15004 7.48109 1.50912 7.68211 0.957993C7.81379 0.613451 7.93852 0.261992 8.17419 0.000197905L8.17414 0ZM1.84547 5.98769H3.43281V12.7883C2.89912 12.7471 2.34454 12.7057 1.85246 12.6989C1.17997 12.7332 0.881952 12.313 0.875 11.7756V6.94527C0.88196 6.29063 1.27007 5.96685 1.84551 5.98748L1.84547 5.98769ZM1.86621 11.2312C1.54048 11.2312 1.27698 11.493 1.27698 11.8169C1.27698 12.1407 1.54035 12.4026 1.86621 12.4026C2.19194 12.4026 2.45545 12.1408 2.45545 11.8169C2.45545 11.4931 2.19207 11.2312 1.86621 11.2312Z" fill="white"/>
</svg>
