<svg width="343" height="304" viewBox="0 0 343 304" fill="none" xmlns="http://www.w3.org/2000/svg">
<path d="M335.568 280.258H308.57V280.462H335.568V280.258Z" fill="#EBEBEB"/>
<path d="M238.831 282.471H231.746V282.674H238.831V282.471Z" fill="#EBEBEB"/>
<path d="M307.753 272.682H292.109V272.885H307.753V272.682Z" fill="#EBEBEB"/>
<path d="M46.8234 274.053H11.6172V274.257H46.8234V274.053Z" fill="#EBEBEB"/>
<path d="M59.244 274.053H54.082V274.257H59.244V274.053Z" fill="#EBEBEB"/>
<path d="M152.374 277.498H76.0195V277.702H152.374V277.498Z" fill="#EBEBEB"/>
<path d="M162.046 230.744H4.65254C2.08745 230.744 0 228.654 0 226.087V4.65653C0 2.08924 2.08745 0 4.65254 0H162.046C164.61 0 166.697 2.08924 166.697 4.65653V226.087C166.697 228.654 164.61 230.744 162.046 230.744ZM4.65254 0.203947C2.19912 0.203947 0.203773 2.201 0.203773 4.65653V226.087C0.203773 228.543 2.19912 230.54 4.65254 230.54H162.046C164.498 230.54 166.494 228.543 166.494 226.087V4.65653C166.494 2.201 164.498 0.203947 162.046 0.203947H4.65254Z" fill="#EBEBEB"/>
<path d="M338.346 230.744H180.953C178.387 230.744 176.301 228.654 176.301 226.087V4.65653C176.301 2.08924 178.387 0 180.953 0H338.346C340.911 0 342.998 2.08924 342.998 4.65653V226.087C342.998 228.654 340.911 230.744 338.346 230.744ZM180.953 0.203947C178.5 0.203947 176.505 2.201 176.505 4.65653V226.087C176.505 228.543 178.5 230.54 180.953 230.54H338.346C340.799 230.54 342.794 228.543 342.794 226.087V4.65653C342.794 2.201 340.799 0.203947 338.346 0.203947H180.953Z" fill="#EBEBEB"/>
<path d="M317.288 23.5586H204.984V97.1649H317.288V23.5586Z" fill="#E6E6E6"/>
<path d="M315.685 23.5586H201.555V97.1649H315.685V23.5586Z" fill="#F0F0F0"/>
<path d="M317.288 97.1641H204.984V111.61H317.288V97.1641Z" fill="#E6E6E6"/>
<path d="M309.977 97.1641H195.848V111.61H309.977V97.1641Z" fill="#F0F0F0"/>
<path d="M310.886 28.3594H206.352V92.363H310.886V28.3594Z" fill="#FAFAFA"/>
<path d="M287.315 92.3649L273.963 28.3613H253.129L266.481 92.3649H287.315Z" fill="white"/>
<path d="M308.667 87.5843C308.856 87.5843 309.009 87.4309 309.009 87.2417V31.4833C309.009 31.294 308.856 31.1406 308.667 31.1406C308.478 31.1406 308.324 31.294 308.324 31.4833V87.2417C308.325 87.4309 308.478 87.5843 308.667 87.5843Z" fill="#F0F0F0"/>
<path d="M262.005 92.3649L248.654 28.3613H240.531L253.883 92.3649H262.005Z" fill="white"/>
<path d="M206.96 28.3594H206.352V92.363H206.96V28.3594Z" fill="#E6E6E6"/>
<g opacity="0.6">
<g opacity="0.6">
<path opacity="0.6" d="M200.422 35.5994H312.726L313.168 30.2266H200.864L200.422 35.5994Z" fill="#EBEBEB"/>
</g>
</g>
<g opacity="0.6">
<g opacity="0.6">
<path opacity="0.6" d="M200.422 44.4127H312.726L313.168 39.0391H200.864L200.422 44.4127Z" fill="#EBEBEB"/>
</g>
</g>
<g opacity="0.6">
<g opacity="0.6">
<path opacity="0.6" d="M200.422 53.2244H312.726L313.168 47.8516H200.864L200.422 53.2244Z" fill="#EBEBEB"/>
</g>
</g>
<g opacity="0.6">
<g opacity="0.6">
<path opacity="0.6" d="M200.422 62.0368H312.726L313.168 56.6641H200.864L200.422 62.0368Z" fill="#EBEBEB"/>
</g>
</g>
<g opacity="0.6">
<g opacity="0.6">
<path opacity="0.6" d="M200.422 70.8474H312.726L313.168 65.4746H200.864L200.422 70.8474Z" fill="#EBEBEB"/>
</g>
</g>
<g opacity="0.6">
<g opacity="0.6">
<path opacity="0.6" d="M200.422 79.6599H312.726L313.168 74.2871H200.864L200.422 79.6599Z" fill="#EBEBEB"/>
</g>
</g>
<path d="M301.16 213.596H277.613V218.242H301.16V213.596Z" fill="#E6E6E6"/>
<path d="M237.546 160.205H233.199V267.127H237.546V160.205Z" fill="#E6E6E6"/>
<path d="M277.612 213.596H218.141V218.242H277.612V213.596Z" fill="#F5F5F5"/>
<path d="M301.16 239.021H277.613V243.667H301.16V239.021Z" fill="#E6E6E6"/>
<path d="M277.612 239.021H218.141V243.667H277.612V239.021Z" fill="#F5F5F5"/>
<path d="M301.16 162.746H277.613V167.392H301.16V162.746Z" fill="#E6E6E6"/>
<path d="M277.612 162.746H218.141V167.392H277.612V162.746Z" fill="#F5F5F5"/>
<path d="M301.16 188.172H277.613V192.818H301.16V188.172Z" fill="#E6E6E6"/>
<path d="M277.612 188.172H218.141V192.818H277.612V188.172Z" fill="#F5F5F5"/>
<path d="M297.018 160.205H292.672V267.127H297.018V160.205Z" fill="#E6E6E6"/>
<path d="M277.613 160.205H273.266V267.127H277.613V160.205Z" fill="#F5F5F5"/>
<path d="M222.488 160.205H218.141V267.127H222.488V160.205Z" fill="#F5F5F5"/>
<path d="M66.6306 180.742H22.1445V267.129H66.6306V180.742Z" fill="#E6E6E6"/>
<path d="M34.0237 267.126H22.1445V255.201H46.4791L34.0237 267.126Z" fill="#FAFAFA"/>
<path d="M187.924 180.742H143.438V267.129H187.924V180.742Z" fill="#E6E6E6"/>
<path d="M153.805 180.742H22.1445V263.024H153.805V180.742Z" fill="#FAFAFA"/>
<path d="M141.924 267.126H153.803V255.201H129.469L141.924 267.126Z" fill="#FAFAFA"/>
<path d="M144.589 211.402H31.3594V231.994H144.589V211.402Z" fill="#F0F0F0"/>
<path d="M144.589 236.395H31.3594V256.986H144.589V236.395Z" fill="#F0F0F0"/>
<path d="M52.8783 213.603H123.064C125.125 213.603 126.795 211.931 126.795 209.87V209.617H49.1484V209.87C49.1484 211.931 50.8186 213.603 52.8783 213.603Z" fill="#FAFAFA"/>
<path d="M144.589 186.41H31.3594V207.002H144.589V186.41Z" fill="#F0F0F0"/>
<path d="M52.8783 188.61H123.064C125.125 188.61 126.795 186.939 126.795 184.878V184.625H49.1484V184.878C49.1484 186.939 50.8186 188.61 52.8783 188.61Z" fill="#FAFAFA"/>
<path d="M52.8783 238.597H123.064C125.125 238.597 126.795 236.925 126.795 234.864V234.611H49.1484V234.864C49.1484 236.925 50.8186 238.597 52.8783 238.597Z" fill="#FAFAFA"/>
<path d="M141.535 23.5586H29.2305V97.1649H141.535V23.5586Z" fill="#E6E6E6"/>
<path d="M139.934 23.5586H25.8047V97.1649H139.934V23.5586Z" fill="#F0F0F0"/>
<path d="M141.535 97.1641H29.2305V111.61H141.535V97.1641Z" fill="#E6E6E6"/>
<path d="M134.224 97.1641H20.0938V111.61H134.224V97.1641Z" fill="#F0F0F0"/>
<path d="M135.136 28.3594H30.6016V92.363H135.136V28.3594Z" fill="#FAFAFA"/>
<path d="M111.565 92.3649L98.2134 28.3613H77.3789L90.7309 92.3649H111.565Z" fill="white"/>
<path d="M132.913 87.5843C133.102 87.5843 133.255 87.4309 133.255 87.2417V31.4833C133.255 31.294 133.102 31.1406 132.913 31.1406C132.724 31.1406 132.57 31.294 132.57 31.4833V87.2417C132.57 87.4309 132.724 87.5843 132.913 87.5843Z" fill="#F0F0F0"/>
<path d="M86.2556 92.3649L72.9028 28.3613H64.7812L78.1324 92.3649H86.2556Z" fill="white"/>
<path d="M31.2104 28.3594H30.6016V92.363H31.2104V28.3594Z" fill="#E6E6E6"/>
<g opacity="0.6">
<g opacity="0.6">
<path opacity="0.6" d="M24.668 35.5994H136.972L137.414 30.2266H25.1097L24.668 35.5994Z" fill="#EBEBEB"/>
</g>
</g>
<g opacity="0.6">
<g opacity="0.6">
<path opacity="0.6" d="M24.668 38.6306H136.972L137.414 33.2578H25.1097L24.668 38.6306Z" fill="#EBEBEB"/>
</g>
</g>
<g opacity="0.6">
<g opacity="0.6">
<path opacity="0.6" d="M24.668 41.6619H136.972L137.414 36.2891H25.1097L24.668 41.6619Z" fill="#EBEBEB"/>
</g>
</g>
<g opacity="0.6">
<g opacity="0.6">
<path opacity="0.6" d="M24.668 44.6931H136.972L137.414 39.3203H25.1097L24.668 44.6931Z" fill="#EBEBEB"/>
</g>
</g>
<g opacity="0.6">
<g opacity="0.6">
<path opacity="0.6" d="M24.668 47.7244H136.972L137.414 42.3516H25.1097L24.668 47.7244Z" fill="#EBEBEB"/>
</g>
</g>
<g opacity="0.6">
<g opacity="0.6">
<path opacity="0.6" d="M24.668 50.7548H136.972L137.414 45.3828H25.1097L24.668 50.7548Z" fill="#EBEBEB"/>
</g>
</g>
<path d="M50.9995 134.789H47.1172V178.101H50.9995V134.789Z" fill="#F5F5F5"/>
<path d="M48.7135 134.76H47.6172V178.072H48.7135V134.76Z" fill="#FAFAFA"/>
<path d="M49.6014 134.76H49.1719V178.072H49.6014V134.76Z" fill="#FAFAFA"/>
<path d="M34.6875 180.742H63.4309C63.4309 178.74 61.8096 177.117 59.8094 177.117H38.3089C36.3087 177.116 34.6875 178.74 34.6875 180.742Z" fill="#F0F0F0"/>
<path d="M42.0815 161.678C42.6961 161.678 43.1982 161.174 43.1982 160.56V132.163C43.1982 131.548 42.6961 131.045 42.0815 131.045C41.4669 131.045 40.9648 131.548 40.9648 132.163V160.56C40.9648 161.174 41.4669 161.678 42.0815 161.678Z" fill="#F0F0F0"/>
<path d="M31.6797 145.085H66.4368L62.4388 120.775H35.6777L31.6797 145.085Z" fill="#E0E0E0"/>
<path d="M330.579 294.765C330.579 299.866 259.823 304.001 172.541 304.001C85.2595 304.001 14.5039 299.866 14.5039 294.765C14.5039 289.663 85.2595 285.527 172.541 285.527C259.823 285.527 330.579 289.663 330.579 294.765Z" fill="#F5F5F5"/>
<path d="M54.8048 135.291L53.7227 120.246L52.9097 120.305L53.9918 135.349L54.8048 135.291Z" fill="#F179A5"/>
<path d="M55.7748 148.725L55.3672 143.066L54.5542 143.125L54.9618 148.784L55.7748 148.725Z" fill="#F179A5"/>
<path d="M244.122 212.275H69.5638C65.6163 212.275 62.153 209.042 61.8685 205.091L53.2921 85.8792C53.0077 81.9283 56.0056 78.6953 59.953 78.6953H234.511C238.46 78.6953 241.922 81.9283 242.207 85.8792L250.783 205.091C251.067 209.042 248.07 212.275 244.122 212.275Z" fill="#F179A5"/>
<path d="M244.79 212.275H70.2317C66.2843 212.275 62.8209 209.042 62.5365 205.091L53.9601 85.8792C53.6756 81.9283 56.6735 78.6953 60.621 78.6953H235.179C239.128 78.6953 242.59 81.9283 242.874 85.8792L251.451 205.091C251.736 209.042 248.738 212.275 244.79 212.275Z" fill="#F5D8E3"/>
<path d="M235.44 82.2871H60.8814C60.6841 82.2871 60.4893 82.2953 60.2969 82.3108C55.8343 82.6787 56.7464 89.4718 61.2498 89.4718H236.106C240.609 89.4718 240.543 82.6787 236.028 82.3108C235.833 82.2953 235.637 82.2871 235.44 82.2871Z" fill="#F179A5"/>
<path d="M65.4284 85.8795C65.4937 86.7891 64.8098 87.5266 63.901 87.5266C62.9921 87.5266 62.2023 86.7891 62.1371 85.8795C62.0719 84.9699 62.7558 84.2324 63.6646 84.2324C64.5734 84.2324 65.3632 84.9691 65.4284 85.8795Z" fill="#FAFAFA"/>
<path d="M71.0261 85.8795C71.0913 86.7891 70.4075 87.5266 69.4986 87.5266C68.5898 87.5266 67.8 86.7891 67.7348 85.8795C67.6696 84.9699 68.3526 84.2324 69.2623 84.2324C70.1711 84.2324 70.9609 84.9691 71.0261 85.8795Z" fill="#FAFAFA"/>
<path d="M76.6238 85.8795C76.689 86.7891 76.0051 87.5266 75.0963 87.5266C74.1875 87.5266 73.3976 86.7891 73.3324 85.8795C73.2672 84.9699 73.9503 84.2324 74.8599 84.2324C75.7687 84.2324 76.5586 84.9691 76.6238 85.8795Z" fill="#FAFAFA"/>
<path d="M240.161 200.377H73.1468C71.7098 200.377 70.4602 199.211 70.3567 197.773L63.3037 99.7376C63.2002 98.2986 64.2818 97.1328 65.7188 97.1328H232.733C234.17 97.1328 235.419 98.2986 235.523 99.7376L242.576 197.773C242.68 199.211 241.598 200.377 240.161 200.377Z" fill="white"/>
<path d="M167.082 125.246L158.844 120.283L161.869 126.858L167.082 125.246Z" fill="#EBEBEB"/>
<path d="M142.606 136.044C142.51 136.044 142.414 136.009 142.337 135.939C142.177 135.789 142.168 135.54 142.317 135.38L144.047 133.513C144.196 133.353 144.446 133.344 144.605 133.492C144.765 133.64 144.775 133.891 144.627 134.051L142.895 135.917C142.818 136.001 142.712 136.044 142.606 136.044Z" fill="#E6427A"/>
<path d="M169.8 163.031L167.081 125.245L158.843 120.281H136.18L139.256 163.031H169.8Z" fill="white"/>
<path d="M169.8 163.426H139.256C139.049 163.426 138.877 163.267 138.862 163.061L135.786 120.311C135.779 120.202 135.816 120.093 135.891 120.013C135.966 119.932 136.071 119.887 136.181 119.887H158.843C158.915 119.887 158.985 119.907 159.047 119.944L167.285 124.906C167.395 124.973 167.466 125.089 167.475 125.217L170.194 163.004C170.202 163.113 170.164 163.221 170.089 163.301C170.013 163.381 169.91 163.426 169.8 163.426ZM139.624 162.636H169.375L166.702 125.477L158.733 120.677H136.604L139.624 162.636Z" fill="#F179A5"/>
<path d="M161.869 127.252C161.718 127.252 161.576 127.165 161.51 127.022L158.486 120.447C158.413 120.29 158.451 120.103 158.581 119.987C158.71 119.872 158.9 119.854 159.048 119.943L167.286 124.906C167.419 124.986 167.493 125.138 167.474 125.293C167.456 125.447 167.347 125.576 167.199 125.622L161.986 127.234C161.947 127.246 161.908 127.252 161.869 127.252ZM159.74 121.282L162.083 126.376L166.123 125.128L159.74 121.282Z" fill="#F179A5"/>
<path d="M148.963 139.543C149.032 140.497 148.315 141.27 147.362 141.27C146.409 141.27 145.581 140.497 145.512 139.543C145.444 138.59 146.16 137.816 147.114 137.816C148.067 137.816 148.895 138.589 148.963 139.543Z" fill="#F179A5"/>
<path d="M160.163 139.543C160.231 140.497 159.515 141.27 158.561 141.27C157.608 141.27 156.78 140.497 156.712 139.543C156.643 138.59 157.36 137.816 158.313 137.816C159.266 137.816 160.094 138.589 160.163 139.543Z" fill="#F179A5"/>
<path d="M163.32 150.742C163.115 150.742 162.942 150.583 162.926 150.375C162.727 147.598 158.376 145.339 153.227 145.339C149.816 145.339 146.753 146.355 145.234 147.989C144.558 148.715 144.246 149.499 144.305 150.318C144.32 150.537 144.157 150.725 143.94 150.741C143.721 150.755 143.533 150.593 143.517 150.375C143.442 149.343 143.836 148.332 144.656 147.451C146.32 145.661 149.604 144.549 153.227 144.549C158.875 144.549 163.481 147.083 163.715 150.318C163.73 150.537 163.566 150.725 163.349 150.741C163.339 150.742 163.33 150.742 163.32 150.742Z" fill="#F179A5"/>
<path d="M162.508 136.044C162.411 136.044 162.314 136.009 162.238 135.938L160.238 134.072C160.079 133.922 160.071 133.673 160.22 133.513C160.368 133.353 160.617 133.344 160.777 133.493L162.777 135.36C162.936 135.509 162.945 135.759 162.796 135.918C162.719 136.002 162.614 136.044 162.508 136.044Z" fill="#F179A5"/>
<path d="M222.853 286.326C224.383 286.019 225.925 285.143 226.994 284.302C227.662 283.777 228.207 283.287 228.298 282.905C228.569 281.776 228.536 278.468 228.491 276.195C228.042 254.106 223.016 232.276 225.13 210.121C225.606 205.141 226.314 200.06 228.624 195.623C228.869 195.153 229.144 194.675 229.575 194.366C230.246 193.884 231.155 193.902 231.963 194.071C234.874 194.68 237.245 196.954 238.544 199.631C239.842 202.308 240.19 205.351 240.183 208.328C240.173 212.508 239.495 216.687 238.183 220.656C237.512 222.687 236.669 224.693 236.461 226.822C236.226 229.216 237.073 231.085 237.432 233.345C237.961 236.682 237.653 240.447 237.623 243.823C237.519 256.111 234.969 267.887 232.703 279.875C232.627 280.578 232.549 281.598 232.529 282.967C232.516 283.63 232.519 284.381 232.547 285.21C232.567 285.984 224.188 288.169 222.868 287.551C221.554 286.932 222.853 286.326 222.853 286.326Z" fill="#F5A784"/>
<path d="M232.547 285.214C232.566 285.988 224.188 288.173 222.868 287.555C221.555 286.936 222.854 286.331 222.854 286.331C224.383 286.024 225.926 285.148 226.995 284.307C227.248 284.337 229.792 284.341 232.527 282.971C232.517 283.634 232.52 284.385 232.547 285.214Z" fill="#F179A5"/>
<path d="M246.546 286.382C247.996 285.806 249.357 284.668 250.259 283.648C250.823 283.013 251.27 282.433 251.291 282.042C251.356 280.882 250.732 277.634 250.279 275.406C245.883 253.754 237.031 233.18 235.145 211.003C234.721 206.018 234.508 200.892 235.986 196.113C236.144 195.606 236.33 195.087 236.697 194.706C237.27 194.111 238.168 193.967 238.994 193.988C241.966 194.064 244.706 195.876 246.464 198.277C248.221 200.678 249.107 203.609 249.633 206.538C250.37 210.653 250.451 214.886 249.872 219.027C249.575 221.145 249.105 223.269 249.282 225.402C249.48 227.799 250.648 229.485 251.405 231.645C252.523 234.832 252.894 238.593 253.47 241.919C255.567 254.026 255.166 266.068 255.083 278.269C255.134 278.974 255.241 279.992 255.465 281.342C255.571 281.997 255.708 282.735 255.884 283.545C256.042 284.303 248.191 287.956 246.782 287.584C245.378 287.211 246.546 286.382 246.546 286.382Z" fill="#F5A784"/>
<path d="M255.884 283.555C256.042 284.313 248.191 287.965 246.782 287.593C245.38 287.221 246.549 286.391 246.549 286.391C247.999 285.815 249.36 284.678 250.262 283.657C250.515 283.641 253.02 283.191 255.466 281.352C255.571 282.006 255.709 282.744 255.884 283.555Z" fill="#F179A5"/>
<path d="M224.156 163.483C224.786 165.572 223.538 176.064 223.538 176.064C223.538 176.064 235.089 180.08 242.681 175.258C242.681 175.258 244.556 160.959 246.746 155.292L246.479 145.451C246.479 145.451 241.833 144.549 240.398 142.841C240.356 142.792 240.314 142.746 240.279 142.697C239.512 141.631 239.546 138.433 239.703 135.995C239.81 134.307 239.978 132.98 239.978 132.98C239.978 132.98 231.889 135.859 231.763 137.306C231.763 137.306 232.373 143.008 230.584 143.204C230.281 143.237 229.965 143.144 229.656 143.117C228.061 143.01 226.503 143.01 226.503 143.01C226.503 143.01 223.265 151.01 220.792 154.192C218.316 157.379 223.534 161.39 224.156 163.483Z" fill="#F5A784"/>
<path d="M221.821 235.528C225.744 233.866 231.252 232.641 235.502 233.428C238.562 234.008 241.447 235.9 244.528 235.463C246.856 235.134 248.833 233.549 250.997 232.783C253.5 231.909 256.045 231.514 258.624 232.28C259.663 232.585 261.182 232.804 261.444 231.754C261.542 231.382 261.4 231 261.247 230.65C258.602 224.175 254.799 218.138 253.095 211.357C252.866 210.449 252.669 209.541 252.517 208.623C251.324 201.788 251.807 194.723 250.385 187.909C249.609 184.179 247.828 181.74 246.233 178.514C244.593 175.189 244.747 170.716 244.474 167.106C244.364 165.499 244.474 164.022 244.801 162.447C245.183 160.555 246.811 157.854 246.767 156.016C246.724 154.508 246.538 147.377 246.527 146.972C246.505 146.392 246.473 146.371 245.991 146.097C245.019 145.55 244.287 144.643 243.303 144.085C242.462 143.604 241.5 143.353 240.539 143.353C239.742 144.315 238.561 144.916 237.337 145.135C236.256 145.321 233.37 145.222 231.098 143.287C230.793 143.025 230.333 143.036 229.951 142.947C229.557 142.849 229.163 142.762 228.77 142.675C228.387 142.576 227.983 142.489 227.612 142.61C226.607 142.938 226.508 144.359 225.951 145.103C225.252 146.032 224.913 147.279 224.443 148.339C223.449 150.636 222.345 152.923 220.794 154.913C219.8 156.193 219.854 157.341 220.313 158.391C221.002 159.977 222.608 161.343 222.98 162.59C223.427 164.11 223.635 165.696 223.701 167.304C223.843 170.913 223.231 174.654 222.903 178.12C222.422 183.14 221.877 188.15 221.275 193.147C220.718 197.751 220.816 202.487 220.052 207.059C219.298 214.923 219.975 223.53 217.647 231.131C216.456 235.003 218.172 237.069 221.821 235.528Z" fill="#F179A5"/>
<path d="M193.112 149.772C193.112 149.772 191.185 148.111 189.251 146.464C188.084 145.47 185.259 143.615 184.866 142.56C184.866 142.56 184.842 142.345 184.875 142.02C184.879 141.974 184.885 141.924 184.898 141.875C184.947 141.587 185.046 141.235 185.264 140.879C185.28 140.853 185.297 140.823 185.316 140.794C185.474 140.544 185.691 140.288 185.986 140.068C186.011 140.048 186.037 140.032 186.062 140.013C186.289 139.844 186.556 139.686 186.878 139.549C186.878 139.549 189.46 141.803 190.545 142.204C190.545 142.204 189.356 140.454 189.657 139.863L190.043 139.626C190.043 139.626 191.537 141.362 192.273 142.075C194.064 143.808 194.278 146.323 194.278 146.323C194.278 146.323 194.873 150.117 193.112 149.772Z" fill="#F5A784"/>
<path d="M185.995 140.066C186.021 140.048 186.046 140.03 186.071 140.012C187.144 141.112 188.369 142.007 189.592 142.965C189.615 142.984 189.592 143.025 189.564 143.014C188.148 142.333 187.002 141.255 185.995 140.066Z" fill="#E0855C"/>
<path d="M185.276 140.876C185.292 140.849 185.309 140.82 185.328 140.791C186.403 141.894 187.625 142.786 188.846 143.747C188.869 143.767 188.847 143.808 188.82 143.793C187.413 143.119 186.275 142.054 185.276 140.876Z" fill="#E0855C"/>
<path d="M184.899 142.016C184.903 141.97 184.909 141.921 184.921 141.871C185.949 142.898 187.108 143.745 188.262 144.653C188.288 144.669 188.265 144.712 188.237 144.699C186.908 144.106 185.847 143.1 184.899 142.016Z" fill="#E0855C"/>
<path d="M227.023 131.336C227.028 131.576 227.034 131.805 227.055 132.025C227.296 135.612 228.771 137.077 231.787 137.503C231.82 137.515 231.864 137.525 231.896 137.525C232.464 137.602 233.186 137.613 233.984 137.493C235.961 137.186 238.343 136.071 239.666 133.107C239.972 132.418 240.224 131.631 240.398 130.723C241.01 127.539 241.174 124.85 240.552 123.144C239.262 119.567 232.542 115.477 228.968 119.808C228.804 120.015 228.64 120.376 228.477 120.846C228.051 122.126 227.668 124.192 227.427 125.91C227.328 126.577 227.252 127.189 227.198 127.692C227.121 128.458 227.067 129.179 227.035 129.836C227.012 130.373 227.012 130.865 227.023 131.336Z" fill="#F5A784"/>
<path d="M256.656 160.494C256.806 158.059 255.535 155.801 254.605 153.546C253.676 151.292 253.122 148.532 254.541 146.55C255.072 145.807 255.845 145.238 256.244 144.417C256.839 143.194 256.451 141.697 255.723 140.547C254.996 139.398 253.965 138.477 253.128 137.405C251.594 135.441 250.735 132.96 250.728 130.467C250.721 128.435 251.186 126.14 249.892 124.573C249.093 123.606 247.802 123.192 246.882 122.338C245.597 121.147 245.182 119.424 243.994 118.147C242.844 116.912 241.349 116.008 239.741 115.514C237.278 114.757 234.586 114.924 232.132 115.713C230.031 116.388 228.783 117.514 228.365 119.681C228.026 121.443 229.711 121.484 229.929 122.979C230.012 123.551 229.922 124.12 230.025 124.681C230.141 125.321 230.458 125.911 230.77 126.473C230.873 126.659 230.982 126.852 231.153 126.978C231.595 127.305 232.214 127.069 232.762 127.11C233.686 127.181 234.352 128.076 234.576 128.976C234.809 129.913 234.691 130.931 234.264 131.794C233.818 132.693 232.957 133.064 232.922 134.192C232.905 134.714 233.061 135.226 233.241 135.719C233.769 137.167 234.51 138.522 235.135 139.928C235.761 141.336 236.148 142.741 236.338 144.267C236.65 146.79 236.356 149.337 236.236 151.863C236.115 154.389 236.151 157.004 237.164 159.368C238.011 161.342 239.472 162.983 240.954 164.537C241.927 165.559 242.979 166.597 244.325 167.016C246.474 167.686 249.677 167.436 251.791 166.704C254.328 165.827 256.488 163.188 256.656 160.494Z" fill="#011948"/>
<path d="M227.827 124.703C227.827 124.703 227.461 126.627 226.022 128.127C224.837 129.363 228.43 130.351 228.43 130.351C228.43 130.351 228.397 125.382 227.827 124.703Z" fill="#F5A784"/>
<path d="M232.349 129.503C232.57 129.19 232.84 128.766 233.236 128.681C233.323 128.662 233.4 128.695 233.449 128.768C233.465 128.791 233.48 128.815 233.496 128.838C233.528 128.886 233.51 128.973 233.455 128.996C233.111 129.142 232.904 129.417 232.737 129.725C232.948 129.862 233.118 130.008 233.223 130.241C233.326 130.464 233.061 130.708 232.869 130.515C232.746 130.392 232.647 130.294 232.505 130.204C232.382 130.473 232.258 130.739 232.077 130.946C231.973 131.064 231.805 130.96 231.793 130.829C231.75 130.369 232.095 129.865 232.349 129.503Z" fill="#E0855C"/>
<path d="M220.329 158.391C221.018 159.978 222.624 161.344 222.996 162.59C223.444 164.11 223.652 165.697 223.717 167.304C229.268 159.496 227.104 154.99 227.104 154.99C225.761 155.427 222.864 156.97 220.329 158.391Z" fill="#E76E9B"/>
<path d="M229.822 150.577C229.822 150.577 232.143 141.571 225.269 143.219C218.605 144.819 215.181 160.048 208.719 160.386C207.796 160.434 192.682 144.552 192.682 144.552L190.156 146.744C190.156 146.744 202.127 165.924 207.148 167.343C211.814 168.662 222.004 163.994 229.822 150.577Z" fill="#F5A784"/>
<path d="M229.412 142.835C229.412 142.835 226.455 141.752 223.093 143.291C219.731 144.831 219.682 145.518 216.66 145.37C216.66 145.37 225.369 156.541 231.022 156.102C231.023 156.102 233.119 148.096 229.412 142.835Z" fill="#F179A5"/>
<path d="M228.794 178.441C234.162 178.886 238.777 179.491 243.673 176.709C243.971 176.539 244.352 176.887 244.158 177.194C241.415 181.509 232.61 181.053 228.559 179.309C228.136 179.127 228.349 178.404 228.794 178.441Z" fill="#E36A98"/>
<path d="M221.896 231.329C227.308 228.934 233.428 228.743 239.148 230.049C241.346 230.551 243.439 231.131 245.7 230.555C247.163 230.18 248.502 229.438 249.913 228.916C252.54 227.947 255.262 227.716 258.004 228.27C258.478 228.366 258.379 229.176 257.888 229.126C254.351 228.769 251.501 229.447 248.236 230.781C246.084 231.658 244.183 232.112 241.86 231.759C238.592 231.263 235.525 230.314 232.175 230.336C228.746 230.357 225.48 231.113 222.209 232.071C221.779 232.196 221.467 231.518 221.896 231.329Z" fill="#E36A98"/>
<path d="M104.032 175.034L104.076 183.565L102.026 183.576L98.9803 178.283L99.0081 183.592L96.9515 183.603L96.9068 175.071L98.9634 175.061L102.009 180.353L101.981 175.045L104.032 175.034ZM112.573 179.085L112.574 179.431C112.578 180.083 112.489 180.67 112.308 181.19C112.131 181.707 111.878 182.149 111.548 182.518C111.217 182.883 110.826 183.165 110.374 183.362C109.922 183.556 109.423 183.654 108.876 183.657C108.325 183.66 107.821 183.567 107.363 183.378C106.908 183.185 106.512 182.908 106.175 182.546C105.841 182.181 105.581 181.741 105.394 181.226C105.212 180.708 105.119 180.122 105.116 179.47L105.114 179.124C105.11 178.472 105.197 177.886 105.374 177.365C105.555 176.845 105.808 176.402 106.135 176.037C106.465 175.668 106.856 175.387 107.308 175.193C107.764 174.995 108.267 174.895 108.818 174.892C109.365 174.889 109.866 174.984 110.32 175.177C110.778 175.366 111.174 175.643 111.508 176.009C111.842 176.37 112.102 176.81 112.288 177.329C112.474 177.847 112.569 178.433 112.573 179.085ZM110.488 179.442L110.487 179.084C110.484 178.663 110.445 178.292 110.369 177.972C110.297 177.648 110.191 177.377 110.049 177.159C109.907 176.941 109.732 176.778 109.525 176.669C109.321 176.557 109.088 176.502 108.827 176.503C108.553 176.505 108.315 176.563 108.113 176.677C107.91 176.787 107.741 176.952 107.605 177.172C107.47 177.391 107.368 177.663 107.299 177.988C107.234 178.308 107.203 178.68 107.205 179.102L107.207 179.459C107.209 179.877 107.245 180.248 107.313 180.572C107.385 180.892 107.49 181.163 107.628 181.385C107.769 181.606 107.942 181.774 108.146 181.886C108.353 181.998 108.594 182.053 108.867 182.052C109.129 182.051 109.361 181.993 109.564 181.878C109.766 181.764 109.935 181.595 110.071 181.372C110.21 181.148 110.314 180.876 110.383 180.556C110.456 180.231 110.491 179.86 110.488 179.442ZM116.606 174.968L119.963 174.951C120.619 174.947 121.19 175.042 121.676 175.235C122.161 175.428 122.536 175.715 122.799 176.096C123.067 176.477 123.202 176.949 123.205 177.512C123.208 178 123.134 178.409 122.983 178.738C122.832 179.067 122.621 179.339 122.349 179.556C122.08 179.768 121.767 179.943 121.408 180.082L120.736 180.466L117.918 180.481L117.898 178.893L119.984 178.882C120.245 178.881 120.462 178.833 120.633 178.738C120.805 178.644 120.933 178.51 121.018 178.338C121.107 178.162 121.151 177.952 121.149 177.71C121.148 177.464 121.102 177.253 121.011 177.078C120.921 176.903 120.787 176.769 120.611 176.676C120.438 176.583 120.225 176.537 119.971 176.539L118.671 176.545L118.707 183.489L116.65 183.499L116.606 174.968ZM121.32 183.475L119.414 179.712L121.593 179.688L123.523 183.376L123.523 183.463L121.32 183.475ZM130.341 181.846L130.349 183.428L125.803 183.452L125.794 181.87L130.341 181.846ZM126.49 174.917L126.535 183.448L124.478 183.458L124.434 174.927L126.49 174.917ZM129.737 178.286L129.745 179.816L125.784 179.836L125.776 178.307L129.737 178.286ZM130.322 174.897L130.331 176.484L125.766 176.508L125.758 174.92L130.322 174.897ZM136.03 180.509L138.08 180.499C138.056 181.092 137.899 181.617 137.608 182.071C137.318 182.526 136.913 182.882 136.395 183.138C135.881 183.391 135.272 183.519 134.569 183.523C133.998 183.526 133.488 183.433 133.038 183.244C132.592 183.055 132.211 182.781 131.897 182.424C131.586 182.066 131.348 181.631 131.181 181.121C131.018 180.61 130.935 180.034 130.932 179.393L130.929 178.93C130.926 178.29 131.007 177.713 131.172 177.201C131.342 176.684 131.581 176.245 131.892 175.884C132.207 175.519 132.584 175.24 133.024 175.046C133.465 174.853 133.954 174.754 134.494 174.752C135.236 174.748 135.863 174.877 136.376 175.14C136.89 175.403 137.288 175.766 137.572 176.23C137.855 176.689 138.024 177.214 138.078 177.803L136.027 177.814C136.018 177.494 135.962 177.226 135.859 177.012C135.756 176.794 135.595 176.631 135.376 176.522C135.157 176.414 134.865 176.361 134.502 176.363C134.248 176.364 134.028 176.412 133.841 176.507C133.654 176.602 133.498 176.751 133.374 176.955C133.25 177.159 133.158 177.423 133.097 177.747C133.04 178.068 133.013 178.455 133.015 178.908L133.018 179.382C133.02 179.836 133.05 180.222 133.106 180.542C133.162 180.862 133.252 181.123 133.374 181.326C133.496 181.528 133.653 181.678 133.845 181.775C134.041 181.867 134.279 181.913 134.56 181.912C134.873 181.91 135.136 181.86 135.351 181.761C135.565 181.658 135.73 181.505 135.846 181.301C135.962 181.094 136.023 180.83 136.03 180.509ZM146.264 178.909L146.265 179.254C146.269 179.907 146.18 180.493 145.999 181.014C145.822 181.53 145.569 181.973 145.239 182.342C144.908 182.707 144.517 182.988 144.065 183.186C143.613 183.38 143.114 183.478 142.567 183.481C142.016 183.484 141.512 183.391 141.054 183.202C140.599 183.009 140.203 182.732 139.866 182.37C139.532 182.005 139.271 181.565 139.085 181.05C138.903 180.531 138.81 179.946 138.806 179.294L138.805 178.948C138.801 178.296 138.888 177.709 139.065 177.189C139.246 176.668 139.499 176.225 139.826 175.86C140.156 175.492 140.547 175.21 140.999 175.016C141.455 174.819 141.958 174.718 142.509 174.716C143.056 174.713 143.556 174.808 144.011 175.001C144.469 175.19 144.865 175.467 145.199 175.832C145.533 176.194 145.793 176.634 145.979 177.152C146.165 177.671 146.26 178.256 146.264 178.909ZM144.179 179.265L144.178 178.908C144.175 178.486 144.136 178.115 144.06 177.795C143.988 177.471 143.882 177.201 143.74 176.983C143.598 176.765 143.423 176.601 143.216 176.493C143.012 176.381 142.779 176.325 142.518 176.327C142.244 176.328 142.006 176.386 141.804 176.5C141.601 176.611 141.432 176.776 141.296 176.995C141.161 177.215 141.059 177.487 140.99 177.811C140.925 178.132 140.894 178.503 140.896 178.925L140.898 179.283C140.9 179.701 140.936 180.071 141.004 180.395C141.076 180.715 141.181 180.986 141.318 181.208C141.46 181.43 141.633 181.597 141.837 181.709C142.044 181.822 142.285 181.877 142.558 181.876C142.82 181.874 143.052 181.816 143.255 181.702C143.457 181.588 143.626 181.419 143.762 181.195C143.901 180.972 144.005 180.7 144.074 180.379C144.146 180.055 144.182 179.683 144.179 179.265ZM147.308 174.808L150.666 174.79C151.322 174.787 151.893 174.881 152.378 175.074C152.864 175.267 153.238 175.554 153.502 175.935C153.77 176.317 153.905 176.789 153.908 177.351C153.91 177.839 153.836 178.248 153.686 178.577C153.535 178.906 153.324 179.178 153.051 179.395C152.783 179.607 152.469 179.783 152.111 179.921L151.439 180.306L148.621 180.32L148.601 178.732L150.686 178.722C150.948 178.72 151.165 178.672 151.336 178.578C151.507 178.483 151.636 178.349 151.721 178.177C151.81 178.001 151.853 177.792 151.852 177.549C151.851 177.303 151.805 177.093 151.714 176.917C151.623 176.742 151.49 176.608 151.314 176.515C151.141 176.422 150.928 176.377 150.674 176.378L149.373 176.385L149.41 183.328L147.353 183.339L147.308 174.808ZM152.023 183.314L150.117 179.551L152.296 179.528L154.226 183.215L154.226 183.303L152.023 183.314ZM157.953 183.283L156.06 183.293L156.063 181.711L157.944 181.701C158.335 181.699 158.665 181.604 158.933 181.415C159.206 181.226 159.411 180.945 159.55 180.574C159.692 180.198 159.762 179.737 159.759 179.19L159.757 178.821C159.755 178.41 159.712 178.051 159.629 177.743C159.549 177.431 159.43 177.172 159.273 176.966C159.116 176.756 158.92 176.598 158.685 176.494C158.454 176.39 158.188 176.339 157.887 176.34L155.989 176.35L155.98 174.762L157.879 174.752C158.457 174.749 158.987 174.846 159.468 175.043C159.953 175.236 160.373 175.515 160.726 175.88C161.084 176.241 161.359 176.672 161.553 177.171C161.751 177.666 161.852 178.216 161.855 178.821L161.857 179.179C161.86 179.78 161.765 180.332 161.573 180.833C161.384 181.334 161.115 181.767 160.765 182.132C160.415 182.497 160.001 182.78 159.521 182.982C159.046 183.18 158.523 183.28 157.953 183.283ZM157.193 174.756L157.238 183.287L155.181 183.298L155.136 174.767L157.193 174.756ZM167.333 180.966C167.332 180.834 167.312 180.715 167.273 180.609C167.233 180.5 167.16 180.399 167.054 180.306C166.948 180.213 166.796 180.12 166.596 180.027C166.4 179.93 166.142 179.83 165.821 179.726C165.445 179.603 165.083 179.465 164.735 179.31C164.386 179.152 164.075 178.968 163.8 178.758C163.526 178.545 163.307 178.296 163.146 178.012C162.984 177.724 162.902 177.388 162.9 177.005C162.898 176.638 162.979 176.308 163.141 176.014C163.304 175.716 163.531 175.463 163.823 175.254C164.119 175.042 164.465 174.88 164.863 174.768C165.261 174.653 165.696 174.594 166.169 174.592C166.794 174.588 167.345 174.695 167.823 174.911C168.305 175.123 168.681 175.428 168.953 175.825C169.228 176.218 169.367 176.684 169.37 177.223L167.325 177.234C167.324 177.019 167.278 176.83 167.188 176.666C167.101 176.503 166.969 176.375 166.793 176.282C166.617 176.189 166.396 176.143 166.13 176.145C165.872 176.146 165.656 176.186 165.48 176.265C165.305 176.344 165.173 176.45 165.084 176.584C164.994 176.713 164.95 176.856 164.951 177.012C164.952 177.141 164.988 177.258 165.058 177.363C165.133 177.464 165.237 177.559 165.37 177.649C165.508 177.738 165.672 177.823 165.864 177.904C166.06 177.985 166.279 178.064 166.522 178.141C166.975 178.283 167.379 178.443 167.731 178.621C168.087 178.795 168.387 178.994 168.631 179.219C168.878 179.441 169.065 179.694 169.191 179.978C169.322 180.263 169.388 180.585 169.39 180.944C169.392 181.327 169.319 181.667 169.172 181.965C169.026 182.262 168.814 182.515 168.538 182.724C168.261 182.928 167.93 183.084 167.544 183.192C167.158 183.299 166.727 183.354 166.25 183.357C165.812 183.359 165.381 183.307 164.954 183.2C164.532 183.089 164.148 182.919 163.803 182.69C163.458 182.457 163.181 182.16 162.972 181.798C162.767 181.432 162.663 180.997 162.661 180.493L164.723 180.482C164.724 180.732 164.759 180.943 164.826 181.114C164.893 181.286 164.992 181.424 165.121 181.529C165.251 181.63 165.409 181.703 165.597 181.749C165.785 181.791 166 181.811 166.242 181.81C166.504 181.809 166.714 181.771 166.874 181.695C167.034 181.616 167.151 181.514 167.224 181.389C167.298 181.26 167.334 181.119 167.333 180.966ZM175.462 174.66L175.507 183.191L173.45 183.202L173.406 174.671L175.462 174.66ZM178.797 178.194L178.806 179.776L174.903 179.796L174.895 178.214L178.797 178.194ZM179.113 174.641L179.121 176.229L174.885 176.251L174.876 174.663L179.113 174.641ZM187.208 178.694L187.21 179.04C187.214 179.692 187.125 180.279 186.944 180.799C186.767 181.316 186.513 181.759 186.183 182.128C185.853 182.493 185.462 182.774 185.01 182.972C184.558 183.165 184.058 183.264 183.511 183.267C182.961 183.269 182.456 183.176 181.998 182.987C181.544 182.794 181.148 182.517 180.81 182.156C180.476 181.79 180.216 181.35 180.03 180.836C179.848 180.317 179.755 179.731 179.751 179.079L179.749 178.733C179.746 178.081 179.833 177.495 180.01 176.974C180.191 176.454 180.444 176.011 180.77 175.646C181.1 175.277 181.492 174.996 181.944 174.802C182.4 174.604 182.903 174.504 183.454 174.501C184.001 174.498 184.501 174.593 184.955 174.786C185.413 174.975 185.809 175.252 186.143 175.618C186.477 175.979 186.737 176.419 186.924 176.938C187.11 177.457 187.205 178.042 187.208 178.694ZM185.124 179.051L185.122 178.694C185.12 178.272 185.081 177.901 185.005 177.581C184.933 177.257 184.826 176.986 184.684 176.768C184.543 176.55 184.368 176.387 184.16 176.279C183.957 176.166 183.724 176.111 183.462 176.112C183.189 176.114 182.951 176.172 182.748 176.286C182.546 176.397 182.377 176.561 182.241 176.781C182.106 177 182.003 177.272 181.935 177.597C181.87 177.918 181.839 178.289 181.841 178.711L181.843 179.068C181.845 179.486 181.88 179.857 181.948 180.181C182.02 180.501 182.125 180.772 182.263 180.994C182.405 181.216 182.578 181.383 182.781 181.495C182.989 181.607 183.23 181.663 183.503 181.661C183.765 181.66 183.997 181.602 184.199 181.488C184.402 181.373 184.571 181.204 184.707 180.981C184.846 180.758 184.95 180.486 185.019 180.165C185.091 179.84 185.126 179.469 185.124 179.051ZM192.882 174.569L194.939 174.558L194.968 180.13C194.971 180.794 194.836 181.358 194.561 181.82C194.286 182.278 193.899 182.626 193.4 182.863C192.901 183.1 192.314 183.22 191.638 183.224C190.97 183.228 190.382 183.113 189.873 182.882C189.368 182.65 188.971 182.306 188.684 181.851C188.4 181.391 188.257 180.83 188.253 180.166L188.224 174.593L190.286 174.583L190.316 180.155C190.317 180.506 190.37 180.793 190.472 181.015C190.575 181.233 190.724 181.393 190.92 181.493C191.116 181.594 191.353 181.643 191.63 181.642C191.911 181.641 192.147 181.589 192.338 181.486C192.529 181.383 192.673 181.222 192.769 181.003C192.866 180.78 192.913 180.493 192.911 180.141L192.882 174.569ZM203.358 174.514L203.403 183.045L201.352 183.056L198.307 177.763L198.335 183.072L196.278 183.083L196.234 174.551L198.29 174.541L201.336 179.833L201.308 174.525L203.358 174.514ZM207.475 183.024L205.583 183.034L205.586 181.452L207.467 181.442C207.858 181.44 208.187 181.344 208.456 181.155C208.728 180.967 208.934 180.686 209.073 180.314C209.215 179.939 209.285 179.477 209.282 178.93L209.28 178.561C209.278 178.151 209.235 177.792 209.151 177.484C209.072 177.172 208.953 176.913 208.796 176.706C208.638 176.496 208.442 176.339 208.207 176.235C207.976 176.131 207.71 176.079 207.41 176.081L205.511 176.091L205.503 174.503L207.401 174.493C207.98 174.49 208.509 174.587 208.991 174.783C209.476 174.976 209.896 175.255 210.249 175.621C210.607 175.982 210.882 176.412 211.076 176.911C211.274 177.406 211.375 177.957 211.378 178.562L211.38 178.919C211.383 179.521 211.288 180.072 211.095 180.573C210.907 181.074 210.637 181.507 210.288 181.872C209.938 182.238 209.524 182.521 209.044 182.723C208.569 182.921 208.046 183.021 207.475 183.024ZM206.716 174.497L206.761 183.028L204.704 183.038L204.659 174.507L206.716 174.497Z" fill="#F179A5"/>
</svg>
