<svg width="68" height="68" viewBox="0 0 68 68" fill="none" xmlns="http://www.w3.org/2000/svg">
<g filter="url(#filter0_d_6606_193226)">
<circle cx="34" cy="30" r="30" fill="white"/>
</g>
<path fill-rule="evenodd" clip-rule="evenodd" d="M34 60C17.4802 60 4 46.5198 4 30C4 13.4802 17.4802 0 34 0C50.5198 0 64 13.4802 64 30C64 46.5198 50.5198 60 34 60ZM48.8678 19.0308C47.8768 18.0398 46.3567 18.0398 45.3656 19.0308L29.5727 35.4846L22.5684 28.1498C21.5774 27.1588 20.0573 27.1588 19.0662 28.1498C18.0752 29.1408 18.0752 30.7927 19.0662 31.7843L27.8547 40.9033C28.8457 41.8943 30.3659 41.8943 31.3569 40.9033L48.868 22.6654C49.859 21.674 49.859 20.022 48.868 19.0305L48.8678 19.0308Z" fill="#E6427A"/>
<defs>
<filter id="filter0_d_6606_193226" x="0" y="0" width="68" height="68" filterUnits="userSpaceOnUse" color-interpolation-filters="sRGB">
<feFlood flood-opacity="0" result="BackgroundImageFix"/>
<feColorMatrix in="SourceAlpha" type="matrix" values="0 0 0 0 0 0 0 0 0 0 0 0 0 0 0 0 0 0 127 0" result="hardAlpha"/>
<feOffset dy="4"/>
<feGaussianBlur stdDeviation="2"/>
<feComposite in2="hardAlpha" operator="out"/>
<feColorMatrix type="matrix" values="0 0 0 0 0 0 0 0 0 0 0 0 0 0 0 0 0 0 0.25 0"/>
<feBlend mode="normal" in2="BackgroundImageFix" result="effect1_dropShadow_6606_193226"/>
<feBlend mode="normal" in="SourceGraphic" in2="effect1_dropShadow_6606_193226" result="shape"/>
</filter>
</defs>
</svg>
