<svg width="98" height="36" viewBox="0 0 98 36" fill="none" xmlns="http://www.w3.org/2000/svg">
<rect x="0.5" y="0.5" width="97" height="35" rx="11.5" fill="white" stroke="#E6427A" stroke-dasharray="4 4"/>
<path d="M49.8711 13.4688H50.9961V19.2402C50.9961 19.8809 50.8535 20.4141 50.5684 20.8398C50.2832 21.2656 49.9043 21.5859 49.4316 21.8008C48.9629 22.0117 48.4531 22.1172 47.9023 22.1172C47.3242 22.1172 46.8008 22.0117 46.332 21.8008C45.8672 21.5859 45.498 21.2656 45.2246 20.8398C44.9551 20.4141 44.8203 19.8809 44.8203 19.2402V13.4688H45.9395V19.2402C45.9395 19.6855 46.0215 20.0527 46.1855 20.3418C46.3496 20.6309 46.5781 20.8457 46.8711 20.9863C47.168 21.127 47.5117 21.1973 47.9023 21.1973C48.2969 21.1973 48.6406 21.127 48.9336 20.9863C49.2305 20.8457 49.4609 20.6309 49.625 20.3418C49.7891 20.0527 49.8711 19.6855 49.8711 19.2402V13.4688ZM53.6914 16.8789V24.4375H52.6016V15.6602H53.5977L53.6914 16.8789ZM57.9629 18.7773V18.9004C57.9629 19.3613 57.9082 19.7891 57.7988 20.1836C57.6895 20.5742 57.5293 20.9141 57.3184 21.2031C57.1113 21.4922 56.8555 21.7168 56.5508 21.877C56.2461 22.0371 55.8965 22.1172 55.502 22.1172C55.0996 22.1172 54.7441 22.0508 54.4355 21.918C54.127 21.7852 53.8652 21.5918 53.6504 21.3379C53.4355 21.084 53.2637 20.7793 53.1348 20.4238C53.0098 20.0684 52.9238 19.668 52.877 19.2227V18.5664C52.9238 18.0977 53.0117 17.6777 53.1406 17.3066C53.2695 16.9355 53.4395 16.6191 53.6504 16.3574C53.8652 16.0918 54.125 15.8906 54.4297 15.7539C54.7344 15.6133 55.0859 15.543 55.4844 15.543C55.8828 15.543 56.2363 15.6211 56.5449 15.7773C56.8535 15.9297 57.1133 16.1484 57.3242 16.4336C57.5352 16.7188 57.6934 17.0605 57.7988 17.459C57.9082 17.8535 57.9629 18.293 57.9629 18.7773ZM56.873 18.9004V18.7773C56.873 18.4609 56.8398 18.1641 56.7734 17.8867C56.707 17.6055 56.6035 17.3594 56.4629 17.1484C56.3262 16.9336 56.1504 16.7656 55.9355 16.6445C55.7207 16.5195 55.4648 16.457 55.168 16.457C54.8945 16.457 54.6562 16.5039 54.4531 16.5977C54.2539 16.6914 54.084 16.8184 53.9434 16.9785C53.8027 17.1348 53.6875 17.3145 53.5977 17.5176C53.5117 17.7168 53.4473 17.9238 53.4043 18.1387V19.6562C53.4824 19.9297 53.5918 20.1875 53.7324 20.4297C53.873 20.668 54.0605 20.8613 54.2949 21.0098C54.5293 21.1543 54.8242 21.2266 55.1797 21.2266C55.4727 21.2266 55.7246 21.166 55.9355 21.0449C56.1504 20.9199 56.3262 20.75 56.4629 20.5352C56.6035 20.3203 56.707 20.0742 56.7734 19.7969C56.8398 19.5156 56.873 19.2168 56.873 18.9004ZM60.5234 13V22H59.4336V13H60.5234ZM61.9766 18.9004V18.7656C61.9766 18.3086 62.043 17.8848 62.1758 17.4941C62.3086 17.0996 62.5 16.7578 62.75 16.4688C63 16.1758 63.3027 15.9492 63.6582 15.7891C64.0137 15.625 64.4121 15.543 64.8535 15.543C65.2988 15.543 65.6992 15.625 66.0547 15.7891C66.4141 15.9492 66.7188 16.1758 66.9688 16.4688C67.2227 16.7578 67.416 17.0996 67.5488 17.4941C67.6816 17.8848 67.748 18.3086 67.748 18.7656V18.9004C67.748 19.3574 67.6816 19.7812 67.5488 20.1719C67.416 20.5625 67.2227 20.9043 66.9688 21.1973C66.7188 21.4863 66.416 21.7129 66.0605 21.877C65.709 22.0371 65.3105 22.1172 64.8652 22.1172C64.4199 22.1172 64.0195 22.0371 63.6641 21.877C63.3086 21.7129 63.0039 21.4863 62.75 21.1973C62.5 20.9043 62.3086 20.5625 62.1758 20.1719C62.043 19.7812 61.9766 19.3574 61.9766 18.9004ZM63.0605 18.7656V18.9004C63.0605 19.2168 63.0977 19.5156 63.1719 19.7969C63.2461 20.0742 63.3574 20.3203 63.5059 20.5352C63.6582 20.75 63.8477 20.9199 64.0742 21.0449C64.3008 21.166 64.5645 21.2266 64.8652 21.2266C65.1621 21.2266 65.4219 21.166 65.6445 21.0449C65.8711 20.9199 66.0586 20.75 66.207 20.5352C66.3555 20.3203 66.4668 20.0742 66.541 19.7969C66.6191 19.5156 66.6582 19.2168 66.6582 18.9004V18.7656C66.6582 18.4531 66.6191 18.1582 66.541 17.8809C66.4668 17.5996 66.3535 17.3516 66.2012 17.1367C66.0527 16.918 65.8652 16.7461 65.6387 16.6211C65.416 16.4961 65.1543 16.4336 64.8535 16.4336C64.5566 16.4336 64.2949 16.4961 64.0684 16.6211C63.8457 16.7461 63.6582 16.918 63.5059 17.1367C63.3574 17.3516 63.2461 17.5996 63.1719 17.8809C63.0977 18.1582 63.0605 18.4531 63.0605 18.7656ZM72.8457 20.916V17.6523C72.8457 17.4023 72.7949 17.1855 72.6934 17.002C72.5957 16.8145 72.4473 16.6699 72.248 16.5684C72.0488 16.4668 71.8027 16.416 71.5098 16.416C71.2363 16.416 70.9961 16.4629 70.7891 16.5566C70.5859 16.6504 70.4258 16.7734 70.3086 16.9258C70.1953 17.0781 70.1387 17.2422 70.1387 17.418H69.0547C69.0547 17.1914 69.1133 16.9668 69.2305 16.7441C69.3477 16.5215 69.5156 16.3203 69.7344 16.1406C69.957 15.957 70.2227 15.8125 70.5312 15.707C70.8438 15.5977 71.1914 15.543 71.5742 15.543C72.0352 15.543 72.4414 15.6211 72.793 15.7773C73.1484 15.9336 73.4258 16.1699 73.625 16.4863C73.8281 16.7988 73.9297 17.1914 73.9297 17.6641V20.6172C73.9297 20.8281 73.9473 21.0527 73.9824 21.291C74.0215 21.5293 74.0781 21.7344 74.1523 21.9062V22H73.0215C72.9668 21.875 72.9238 21.709 72.8926 21.502C72.8613 21.291 72.8457 21.0957 72.8457 20.916ZM73.0332 18.1562L73.0449 18.918H71.9492C71.6406 18.918 71.3652 18.9434 71.123 18.9941C70.8809 19.041 70.6777 19.1133 70.5137 19.2109C70.3496 19.3086 70.2246 19.4316 70.1387 19.5801C70.0527 19.7246 70.0098 19.8945 70.0098 20.0898C70.0098 20.2891 70.0547 20.4707 70.1445 20.6348C70.2344 20.7988 70.3691 20.9297 70.5488 21.0273C70.7324 21.1211 70.957 21.168 71.2227 21.168C71.5547 21.168 71.8477 21.0977 72.1016 20.957C72.3555 20.8164 72.5566 20.6445 72.7051 20.4414C72.8574 20.2383 72.9395 20.041 72.9512 19.8496L73.4141 20.3711C73.3867 20.5352 73.3125 20.7168 73.1914 20.916C73.0703 21.1152 72.9082 21.3066 72.7051 21.4902C72.5059 21.6699 72.2676 21.8203 71.9902 21.9414C71.7168 22.0586 71.4082 22.1172 71.0645 22.1172C70.6348 22.1172 70.2578 22.0332 69.9336 21.8652C69.6133 21.6973 69.3633 21.4727 69.1836 21.1914C69.0078 20.9062 68.9199 20.5879 68.9199 20.2363C68.9199 19.8965 68.9863 19.5977 69.1191 19.3398C69.252 19.0781 69.4434 18.8613 69.6934 18.6895C69.9434 18.5137 70.2441 18.3809 70.5957 18.291C70.9473 18.2012 71.3398 18.1562 71.7734 18.1562H73.0332ZM79.6309 20.7695V13H80.7207V22H79.7246L79.6309 20.7695ZM75.3652 18.9004V18.7773C75.3652 18.293 75.4238 17.8535 75.541 17.459C75.6621 17.0605 75.832 16.7188 76.0508 16.4336C76.2734 16.1484 76.5371 15.9297 76.8418 15.7773C77.1504 15.6211 77.4941 15.543 77.873 15.543C78.2715 15.543 78.6191 15.6133 78.916 15.7539C79.2168 15.8906 79.4707 16.0918 79.6777 16.3574C79.8887 16.6191 80.0547 16.9355 80.1758 17.3066C80.2969 17.6777 80.3809 18.0977 80.4277 18.5664V19.1055C80.3848 19.5703 80.3008 19.9883 80.1758 20.3594C80.0547 20.7305 79.8887 21.0469 79.6777 21.3086C79.4707 21.5703 79.2168 21.7715 78.916 21.9121C78.6152 22.0488 78.2637 22.1172 77.8613 22.1172C77.4902 22.1172 77.1504 22.0371 76.8418 21.877C76.5371 21.7168 76.2734 21.4922 76.0508 21.2031C75.832 20.9141 75.6621 20.5742 75.541 20.1836C75.4238 19.7891 75.3652 19.3613 75.3652 18.9004ZM76.4551 18.7773V18.9004C76.4551 19.2168 76.4863 19.5137 76.5488 19.791C76.6152 20.0684 76.7168 20.3125 76.8535 20.5234C76.9902 20.7344 77.1641 20.9004 77.375 21.0215C77.5859 21.1387 77.8379 21.1973 78.1309 21.1973C78.4902 21.1973 78.7852 21.1211 79.0156 20.9688C79.25 20.8164 79.4375 20.6152 79.5781 20.3652C79.7188 20.1152 79.8281 19.8438 79.9062 19.5508V18.1387C79.8594 17.9238 79.791 17.7168 79.7012 17.5176C79.6152 17.3145 79.502 17.1348 79.3613 16.9785C79.2246 16.8184 79.0547 16.6914 78.8516 16.5977C78.6523 16.5039 78.416 16.457 78.1426 16.457C77.8457 16.457 77.5898 16.5195 77.375 16.6445C77.1641 16.7656 76.9902 16.9336 76.8535 17.1484C76.7168 17.3594 76.6152 17.6055 76.5488 17.8867C76.4863 18.1641 76.4551 18.4609 76.4551 18.7773Z" fill="#262425"/>
<circle cx="26" cy="18" r="10" fill="#FFECF3"/>
<path d="M21 21.2353V22.4118C21 22.7366 21.2798 23 21.625 23C21.9702 23 22.25 22.7366 22.25 22.4118V21.2353C22.25 20.9104 21.9702 20.6471 21.625 20.6471C21.2798 20.6471 21 20.9104 21 21.2353Z" fill="#E6427A"/>
<path d="M29.75 21.2353V22.4118C29.75 22.7366 30.0298 23 30.375 23C30.7202 23 31 22.7366 31 22.4118V21.2353C31 20.9104 30.7202 20.6471 30.375 20.6471C30.0298 20.6471 29.75 20.9104 29.75 21.2353Z" fill="#E6427A"/>
<path d="M30.375 21.8232H21.625C21.2798 21.8232 21 22.0866 21 22.4115C21 22.7364 21.2798 22.9997 21.625 22.9997H30.375C30.7202 22.9997 31 22.7364 31 22.4115C31 22.0866 30.7202 21.8232 30.375 21.8232Z" fill="#E6427A"/>
<path d="M26.0009 13.0002C25.8713 12.9993 25.7446 13.0363 25.6384 13.1061L23.1384 14.7649C23.0036 14.8549 22.9122 14.9914 22.8841 15.1446C22.856 15.2978 22.8935 15.4553 22.9884 15.5826C23.0358 15.6462 23.096 15.7004 23.1658 15.7419C23.2355 15.7835 23.3133 15.8117 23.3946 15.8248C23.476 15.8379 23.5593 15.8357 23.6397 15.8184C23.7202 15.8011 23.7962 15.7689 23.8634 15.7238L26.0009 14.3179L28.1259 15.8238C28.2585 15.9174 28.4252 15.9576 28.5893 15.9355C28.7534 15.9134 28.9014 15.8309 29.0009 15.7061C29.1003 15.5813 29.143 15.4244 29.1196 15.27C29.0961 15.1155 29.0085 14.9762 28.8759 14.8826L26.3759 13.1179C26.2677 13.0415 26.1361 13.0002 26.0009 13.0002Z" fill="#E6427A"/>
<path d="M26 14.1762C25.8342 14.1762 25.6753 14.2382 25.5581 14.3485C25.4408 14.4588 25.375 14.6084 25.375 14.7645V19.4704C25.375 19.6264 25.4408 19.776 25.5581 19.8863C25.6753 19.9966 25.8342 20.0586 26 20.0586C26.1658 20.0586 26.3247 19.9966 26.4419 19.8863C26.5591 19.776 26.625 19.6264 26.625 19.4704V14.7645C26.625 14.6084 26.5591 14.4588 26.4419 14.3485C26.3247 14.2382 26.1658 14.1762 26 14.1762Z" fill="#E6427A"/>
</svg>
