<svg width="15" height="9" viewBox="0 0 15 9" fill="none" xmlns="http://www.w3.org/2000/svg">
<path d="M7.08972 2.47955e-05C6.90444 -0.0011158 6.72077 0.0366964 6.54925 0.111293C6.37773 0.185888 6.22172 0.2958 6.09017 0.434728L0.458946 6.43062C0.193851 6.71288 0.0449219 7.09571 0.0449219 7.49489C0.0449219 7.89407 0.193851 8.2769 0.458946 8.55916C0.724041 8.84143 1.08359 9 1.45849 9C1.83339 9 2.19294 8.84143 2.45803 8.55916L7.08972 3.61255L11.7214 8.54417C11.9907 8.78975 12.3371 8.91807 12.6915 8.9035C13.0458 8.88892 13.3819 8.73253 13.6326 8.46557C13.8833 8.19861 14.0302 7.84075 14.0439 7.4635C14.0576 7.08624 13.937 6.71738 13.7064 6.43062L8.07518 0.434728C7.81296 0.157801 7.45904 0.00168037 7.08972 2.47955e-05Z" fill="#E6427A"/>
</svg>
