<svg width="36" height="36" viewBox="0 0 36 36" fill="none" xmlns="http://www.w3.org/2000/svg">
<circle cx="18" cy="18" r="17.5" fill="#F7F7F7" stroke="#D7D7D7"/>
<path d="M25.7434 15.3439H16.9341C16.2415 15.3439 15.6787 15.9072 15.6787 16.5993V25.5598C15.6787 26.2524 16.2416 26.816 16.9341 26.816H25.7434C26.4356 26.816 26.9996 26.2524 26.9996 25.5598V16.5993C26.9996 15.907 26.4357 15.3438 25.7434 15.3438V15.3439Z" fill="black"/>
<path d="M14.6596 23.3608H13.7101C13.4288 23.3608 13.1915 23.1925 13.1915 22.9925V13.7331C13.1915 13.5339 13.4288 13.3648 13.7101 13.3648H22.0606C22.5696 13.3648 22.9827 13.6798 22.9827 14.0668V14.4485C22.9827 14.6398 23.1383 14.795 23.3296 14.795C23.5208 14.795 23.6768 14.6397 23.6768 14.4485V14.0668C23.6768 13.2973 22.9512 12.6719 22.0606 12.6719H13.7101C13.0418 12.6719 12.498 13.1477 12.498 13.7331V22.9925C12.498 23.5783 13.0418 24.0548 13.7101 24.0548H14.6596C14.8508 24.0548 15.006 23.8992 15.006 23.7079C15.006 23.5168 14.8508 23.3608 14.6596 23.3608Z" fill="black"/>
<path d="M11.1614 20.6885H10.212C9.93078 20.6885 9.69347 20.5202 9.69347 20.3202L9.69333 11.0615C9.69333 10.8619 9.93064 10.6932 10.2119 10.6932H18.5628C19.0713 10.6932 19.4845 11.0074 19.4845 11.3944V11.7761C19.4845 11.9673 19.6401 12.1229 19.8313 12.1229C20.0226 12.1229 20.1786 11.9673 20.1786 11.7761L20.1787 11.3945C20.1787 10.6254 19.4539 10 18.5629 10H10.212C9.54347 10 9 10.4762 9 11.0612V20.3203C9 20.9061 9.54333 21.3826 10.212 21.3826H11.1615C11.3528 21.3826 11.508 21.227 11.508 21.0357C11.508 20.8441 11.3526 20.6885 11.1614 20.6885V20.6885Z" fill="black"/>
</svg>
