<svg width="240" height="186" viewBox="0 0 240 186" fill="none" xmlns="http://www.w3.org/2000/svg">
<path d="M97.3959 181.901C146.276 181.901 185.901 142.048 185.901 92.8878C185.901 43.7274 146.276 3.875 97.3959 3.875C48.5158 3.875 8.89062 43.7274 8.89062 92.8878C8.89062 142.048 48.5158 181.901 97.3959 181.901Z" fill="url(#paint0_linear_15956_296203)"/>
<path d="M110.594 119.687C111.649 118.475 112.715 117.285 112.715 115.719C112.665 98.6438 111.852 81.7477 111.903 64.7231C111.903 57.2465 118.241 50.298 125.273 48.8835C133.498 47.0565 140.543 51.2074 143.607 58.2799C144.561 60.4522 144.963 62.7255 144.963 65.1504C144.913 77.0221 145.013 88.8433 144.913 100.715C144.863 108.899 148.077 115.163 155.26 119.205C155.612 119.407 155.963 119.76 156.265 120.013C141.397 120.013 125.512 119.738 110.594 119.687Z" fill="#E1EBFF"/>
<path d="M99.5566 115.415C101.917 112.788 102.184 112.686 104.344 115.414C105.248 116.576 105.986 117.688 106.79 119.052C103.826 118.901 101.767 116.93 99.5566 115.415Z" fill="#99B6F1"/>
<path d="M76.8517 48.4809C90.665 48.4809 105.339 48.3672 119.102 48.3672C119.353 48.9229 118.091 49.2387 117.789 49.4913C112.465 53.5327 110.544 58.6606 110.594 65.3795C110.695 81.6969 110.594 98.1362 110.594 114.454C110.594 115.363 110.594 117.066 110.594 118.379C108.284 117.015 106.816 114.761 105.359 113.145C102.697 110.215 102.116 110.012 99.0519 112.689C97.2436 114.306 95.3378 115.923 93.5797 117.59C92.5249 118.651 91.3123 118.347 90.3077 117.135C88.8008 115.316 87.1489 113.7 85.7424 111.78C83.7332 109.052 81.2394 108.613 77.874 109.219C72.2985 110.28 67.1396 111.028 61.5139 111.836C60.1577 112.038 59.4 112.132 59.5507 113.799C59.7014 115.466 60.1754 115.316 61.4813 115.316C66.1025 115.266 70.6734 115.316 75.2946 115.064C77.5549 114.963 78.9614 115.569 80.1167 117.59C82.2766 121.277 84.7378 124.814 87.0986 128.35C88.6558 130.674 90.2631 130.977 92.5737 129.31C94.7838 127.744 94.8885 126.231 99.0534 124.561C100.058 123.803 100.811 123.753 101.615 124.713C101.716 124.864 101.866 124.965 101.967 125.066C106.668 126.231 108.999 129.36 109.752 132.594C110.908 137.443 110.594 142.589 110.104 147.901C110.104 149.568 108.949 149.214 107.994 149.214C101.063 149.214 94.1308 149.214 87.1489 149.214C73.0845 149.214 59.0201 149.163 45.0059 149.264C43.3483 149.264 42.6953 148.911 42.6953 147.042C42.7958 131.987 42.7958 93.6829 42.7958 78.6285C55.6547 77.7697 65.9518 95.4627 73.1849 84.6519C78.6098 76.569 80.7697 67.6273 79.1121 57.8773C79.1121 54.5936 77.7056 51.613 76.8517 48.4809Z" fill="#FDFDFD"/>
<path d="M20.8952 96.3214C20.4432 96.3719 20.0915 96.2203 19.8906 95.7656C20.3427 95.7656 20.6943 95.8667 20.8952 96.3214Z" fill="#CB8384"/>
<path d="M19.9407 95.7672C19.7397 95.6156 19.5388 95.4641 19.3379 95.3125C19.5388 95.4641 19.7397 95.6156 19.9407 95.7672Z" fill="#CB8384"/>
<path d="M64.0425 43.8875C63.6909 43.837 63.6406 43.5844 63.6406 43.2812C63.7411 43.4833 63.8918 43.6854 64.0425 43.8875Z" fill="#CC3434"/>
<path d="M111.309 24.5892C111.309 23.9325 111.309 23.2757 111.309 22.6695C112.557 22.1974 112.507 21.0452 112.557 19.5801C112.607 18.1151 112.913 17.6172 114.52 17.6172C135.667 17.6677 156.918 17.8198 178.065 17.7693C179.622 17.7693 180.074 18.2744 180.074 19.79C180.024 47.5244 180.074 75.2588 180.024 102.993C180.024 111.026 172.74 118.25 164.804 118.553C156.215 118.906 148.781 112.693 147.977 104.307C147.877 103.145 147.877 101.983 147.826 100.821C153.251 100.821 158.676 100.821 164.101 100.77C165.206 100.77 166.763 101.023 166.663 99.2549C166.612 97.7394 165.156 97.9415 164.101 97.9415C158.676 97.9415 153.251 97.9415 147.826 97.9415C147.676 95.0114 147.625 92.1319 147.877 89.2018C153.301 89.2018 158.776 89.2018 164.201 89.2018C165.306 89.2018 166.663 89.3029 166.663 87.7873C166.663 86.2213 165.256 86.3728 164.201 86.3728C158.776 86.3728 153.301 86.4233 147.877 86.4233C147.625 83.4933 147.625 80.5127 147.877 77.5827C153.301 77.5827 158.726 77.5827 164.201 77.5827C165.256 77.5827 166.663 77.7342 166.562 76.1176C166.512 74.6526 165.156 74.9557 164.201 74.9557C158.776 74.9052 153.352 74.9557 147.877 74.9557C147.575 71.9752 147.575 68.9946 147.877 66.014C153.402 66.014 158.877 66.014 164.402 66.014C165.407 66.014 166.612 66.014 166.562 64.5995C166.512 63.2355 165.357 63.4376 164.452 63.4376C158.877 63.4376 153.251 63.4881 147.676 63.4881C146.586 60.148 146.269 57.3249 144.863 54.4959C151.443 54.4959 158.073 54.4454 164.653 54.4454C165.608 54.4454 166.612 54.3444 166.562 53.0814C166.512 51.9195 165.558 51.869 164.704 51.869C157.42 51.9195 150.187 51.9195 142.904 51.97C138.082 47.2213 132.189 46.4073 125.574 45.8573C120.853 46.1099 116.081 45.8573 111.359 45.8068C111.359 43.7861 111.359 41.7654 111.359 39.7446C111.248 37.2468 111.309 36.5925 111.359 34.8444C111.359 33.6825 111.359 32.5205 111.359 31.3586C111.359 26.5887 111.309 28.0863 111.309 24.5892ZM143.155 31.2071C150.087 31.2071 157.018 31.2071 163.95 31.2071C164.955 31.2071 166.462 31.6112 166.462 29.9441C166.512 28.277 165.005 28.6812 164 28.6812C150.137 28.6812 136.273 28.6812 122.36 28.6812C121.355 28.6812 119.848 28.277 119.848 29.9441C119.798 31.6112 121.305 31.2071 122.31 31.2071C129.291 31.2071 136.223 31.2071 143.155 31.2071ZM143.155 42.7757C150.087 42.7757 157.018 42.7757 164 42.7757C165.005 42.7757 166.512 43.1293 166.512 41.5128C166.562 39.8457 165.055 40.1993 164.051 40.1993C150.187 40.1993 136.273 40.1993 122.41 40.1993C121.405 40.1993 119.898 39.7951 119.898 41.4117C119.848 43.0788 121.305 42.7252 122.36 42.7252C129.241 42.8262 136.173 42.7757 143.155 42.7757ZM173.544 86.3728C172.389 86.4739 170.832 86.1202 170.781 87.7873C170.731 89.4544 172.288 89.2523 173.393 89.2523C174.498 89.2523 176.005 89.5049 176.005 87.7368C175.955 86.1202 174.549 86.4739 173.544 86.3728ZM173.594 74.8547C172.489 75.0568 170.832 74.4 170.781 76.3197C170.731 77.5827 171.987 77.7342 173.042 77.6332C174.197 77.5322 175.855 78.1384 176.005 76.3197C176.106 74.6526 174.649 75.0062 173.594 74.8547ZM173.494 100.77C174.549 100.669 176.056 101.023 176.005 99.2549C175.955 97.6889 174.549 97.9415 173.494 97.9415C172.339 97.9415 170.832 97.6889 170.781 99.356C170.731 100.973 172.288 100.72 173.494 100.77ZM173.393 54.3949C174.348 54.2433 175.955 54.8495 175.955 53.0309C175.955 51.3638 174.448 51.8185 173.444 51.8185C172.389 51.8185 170.731 51.3133 170.731 53.1319C170.781 54.6475 172.238 54.3949 173.393 54.3949ZM173.544 31.2071C174.348 31.005 175.905 31.6112 175.955 29.9946C176.005 28.1255 174.398 28.6812 173.343 28.6307C172.339 28.5801 170.832 28.277 170.781 29.7926C170.731 31.6112 172.339 31.106 173.544 31.2071ZM173.444 42.8262C174.298 42.6242 175.955 43.2809 175.955 41.4622C175.955 39.8457 174.448 40.1993 173.444 40.2498C172.389 40.2498 170.731 39.7951 170.731 41.5633C170.731 43.0788 172.238 42.7252 173.444 42.8262ZM173.544 66.014C174.348 65.812 175.955 66.4182 175.955 64.5995C175.955 62.9324 174.448 63.3871 173.444 63.3871C172.389 63.3871 170.731 62.8819 170.731 64.65C170.781 66.1656 172.238 66.014 173.544 66.014Z" fill="#FDFDFD"/>
<path d="M42.9978 151.996C42.7969 152.198 42.596 152.147 42.4453 151.945C42.6462 151.945 42.8472 151.996 42.9978 151.996Z" fill="#CA8585"/>
<path d="M165.658 54.6931H143.155C142.502 54.6931 142 54.1881 142 53.5315V52.6225C142 51.966 142.502 51.4609 143.155 51.4609H165.658C166.311 51.4609 166.814 51.966 166.814 52.6225V53.5315C166.814 54.1881 166.311 54.6931 165.658 54.6931Z" fill="#99B6F1"/>
<path d="M165.358 66.3181H147.124C146.471 66.3181 145.969 65.8131 145.969 65.1565V64.2475C145.969 63.591 146.471 63.0859 147.124 63.0859H165.358C166.011 63.0859 166.513 63.591 166.513 64.2475V65.1565C166.513 65.7626 165.96 66.3181 165.358 66.3181Z" fill="#99B6F1"/>
<path d="M165.358 77.8337H147.124C146.471 77.8337 145.969 77.3287 145.969 76.6722V75.7631C145.969 75.1066 146.471 74.6016 147.124 74.6016H165.358C166.011 74.6016 166.513 75.1066 166.513 75.7631V76.6722C166.513 77.3287 165.96 77.8337 165.358 77.8337Z" fill="#99B6F1"/>
<path d="M165.358 89.5056H147.124C146.471 89.5056 145.969 89.0005 145.969 88.344V87.435C145.969 86.7785 146.471 86.2734 147.124 86.2734H165.358C166.011 86.2734 166.513 86.7785 166.513 87.435V88.344C166.513 89.0005 165.96 89.5056 165.358 89.5056Z" fill="#99B6F1"/>
<path d="M165.358 100.974H147.124C146.471 100.974 145.969 100.469 145.969 99.8128V98.9037C145.969 98.2472 146.471 97.7422 147.124 97.7422H165.358C166.011 97.7422 166.513 98.2472 166.513 98.9037V99.8128C166.513 100.469 165.96 100.974 165.358 100.974Z" fill="#99B6F1"/>
<path d="M75.6964 45.7542C75.847 46.714 76.2991 47.6738 76.9019 48.4316H76.9027C90.8664 48.4821 104.83 48.5327 118.894 48.7852C115.077 50.806 112.565 54.7969 111.41 58.9899C110.255 63.1829 110.255 67.578 110.255 71.9225C110.255 87.2295 110.305 102.587 110.305 117.894L104.478 112.034C103.725 111.276 102.821 110.468 101.766 110.569C100.962 110.619 100.359 111.175 99.7565 111.68C97.6475 113.498 95.5385 115.367 93.4295 117.236L93.4276 117.237C93.0759 117.591 92.6741 117.894 92.1718 117.945C91.7197 117.995 91.2677 117.692 90.9161 117.439C87.6511 115.014 86.0437 110.316 82.1258 109.205C80.5184 108.75 78.8106 108.952 77.2033 109.205C72.1803 109.912 67.107 110.67 62.0338 111.428C60.3762 111.63 58.1661 112.741 58.8191 114.307C59.2209 115.318 60.5771 115.419 61.6822 115.419C65.9517 115.318 70.2715 115.267 74.5411 115.166C75.8973 115.115 77.3037 115.115 78.459 115.823C79.3631 116.378 79.9659 117.288 80.5687 118.197L86.747 127.745C87.2995 128.604 87.9525 129.564 88.9068 130.018C90.464 130.726 92.2723 129.968 93.5782 128.856C94.8842 127.745 95.9391 126.381 97.446 125.573C100.309 124.057 103.976 125.27 106.286 127.543C111.36 132.544 110.857 140.779 110.003 147.902L110 147.929C109.951 148.326 109.896 148.766 109.602 149.013C109.3 149.316 108.798 149.316 108.396 149.316H44.8551C44.3026 149.316 43.6998 149.266 43.298 148.912C42.8459 148.508 42.7957 147.801 42.7957 147.194C42.7957 132.14 42.8459 93.7852 42.8459 78.7308H39.9828C39.7819 94.1388 39.7819 132.797 40.0331 148.154C40.0833 149.013 40.0833 149.872 40.5354 150.579C41.339 151.842 43.1473 151.994 44.6542 151.994C66.0522 151.994 87.5004 151.943 108.898 151.943C110.054 151.943 111.46 151.842 112.163 150.882C112.666 150.226 112.716 149.316 112.716 148.508C112.766 144.163 112.816 139.768 112.867 135.424C112.867 134.211 112.867 132.291 112.557 130.813C112.175 127.937 109.3 122.025 100.862 121.38C98.8149 121.652 97.8478 122.036 96.592 122.996C95.0349 124.209 93.528 125.371 91.9709 126.583L91.9257 126.615C91.4355 126.96 90.898 127.339 90.3133 127.29C89.6101 127.24 89.158 126.583 88.7562 125.977C86.6465 122.744 84.5871 119.46 82.4774 116.227C80.9203 113.853 78.1576 111.125 75.7466 112.59C77.9065 110.619 81.4728 111.63 83.6327 113.549C85.7926 115.52 87.2493 118.197 89.5096 120.016C90.1626 120.521 90.916 121.026 91.77 121.026C92.875 121.077 93.8294 120.319 94.6833 119.561C96.7427 117.793 98.7519 116.025 100.811 114.257C101.113 113.954 101.464 113.701 101.866 113.65C102.318 113.6 102.77 113.903 103.122 114.257C104.428 115.52 105.232 117.288 106.437 118.652C107.643 120.016 109.803 120.925 111.309 119.864C112.666 118.904 112.766 116.985 112.766 115.318C112.716 100.872 112.615 86.4256 112.515 71.9796L112.515 71.973C112.515 66.9718 112.515 61.7179 114.775 57.2218C117.89 50.9575 125.525 47.3202 132.356 48.8358C137.278 49.8966 141.598 53.5845 143.457 58.3332C144.761 61.7646 144.813 65.549 144.863 69.233L144.863 69.2451C144.913 75.6609 144.913 82.1272 144.913 88.543C144.913 92.1298 144.913 95.666 144.863 99.2528C144.813 102.941 145.064 106.527 146.571 109.912C148.781 114.913 153.201 119.106 158.325 120.875L158.325 120.875C158.677 120.976 159.028 121.077 159.38 121.127C162.745 121.733 166.161 121.43 169.375 120.369C172.992 119.157 176.307 116.884 178.668 113.802C181.38 110.215 182.636 105.618 182.686 101.122C182.787 95.1608 182.636 89.1997 182.636 83.2386C182.686 72.6298 182.636 62.0715 182.636 51.4627V19.3837C182.636 18.0197 182.536 16.4032 181.38 15.5949C180.677 15.1402 179.773 15.0897 178.919 15.0897C157.019 14.9381 135.068 14.9381 113.168 15.0392C112.364 15.0392 111.46 15.0897 110.908 15.6959C110.556 16.1 110.456 16.6557 110.405 17.2114C110.255 18.6259 110.305 20.091 110.506 21.5055C110.556 21.8591 110.656 22.2633 110.908 22.4653C111.611 23.021 112.565 22.0107 112.615 21.1013C112.666 20.192 112.414 19.1816 112.917 18.4744C113.419 17.7671 114.424 17.7166 115.278 17.7166H177.914C178.567 17.7166 179.321 17.7671 179.723 18.2723C180.024 18.6259 180.024 19.1816 180.024 19.6363V44.2891C179.974 55.0495 179.974 65.7593 179.974 76.5197V92.6349V100.667C179.974 103.092 179.974 105.467 179.12 107.79C176.91 113.701 171.083 118.248 164.754 118.5C160.183 118.702 155.612 116.934 152.347 113.65C150.388 111.68 149.082 109.306 148.429 106.578C147.776 103.749 147.776 100.819 147.776 97.9396V97.9393C147.776 89.0987 147.827 80.2075 147.827 71.3668C147.827 64.4964 147.576 56.9187 142.954 51.8163C137.831 46.1583 129.242 45.7542 121.607 45.7542H75.6964Z" fill="#577ABE"/>
<path d="M165.357 31.6618H121.054C120.401 31.6618 119.898 31.1568 119.898 30.5003V29.5912C119.898 28.9347 120.401 28.4297 121.054 28.4297H165.357C166.01 28.4297 166.512 28.9347 166.512 29.5912V30.5003C166.512 31.1568 165.959 31.6618 165.357 31.6618Z" fill="#99B6F1"/>
<path d="M165.357 43.1228H121.054C120.401 43.1228 119.898 42.6177 119.898 41.9612V41.0522C119.898 40.3956 120.401 39.8906 121.054 39.8906H165.357C166.01 39.8906 166.512 40.3956 166.512 41.0522V41.9612C166.512 42.6177 165.959 43.1228 165.357 43.1228Z" fill="#99B6F1"/>
<path d="M174.801 100.974H171.888C171.235 100.974 170.732 100.469 170.732 99.8128V98.9037C170.732 98.2472 171.235 97.7422 171.888 97.7422H174.801C175.454 97.7422 175.956 98.2472 175.956 98.9037V99.8128C175.956 100.469 175.454 100.974 174.801 100.974Z" fill="#99B6F1"/>
<path d="M174.801 89.5056H171.888C171.235 89.5056 170.732 89.0005 170.732 88.344V87.435C170.732 86.7785 171.235 86.2734 171.888 86.2734H174.801C175.454 86.2734 175.956 86.7785 175.956 87.435V88.344C175.956 89.0005 175.454 89.5056 174.801 89.5056Z" fill="#99B6F1"/>
<path d="M174.801 77.8806H171.888C171.235 77.8806 170.732 77.3755 170.732 76.719V75.81C170.732 75.1535 171.235 74.6484 171.888 74.6484H174.801C175.454 74.6484 175.956 75.1535 175.956 75.81V76.719C175.956 77.3755 175.454 77.8806 174.801 77.8806Z" fill="#99B6F1"/>
<path d="M174.801 66.3181H171.888C171.235 66.3181 170.732 65.8131 170.732 65.1565V64.2475C170.732 63.591 171.235 63.0859 171.888 63.0859H174.801C175.454 63.0859 175.956 63.591 175.956 64.2475V65.1565C175.956 65.8131 175.454 66.3181 174.801 66.3181Z" fill="#99B6F1"/>
<path d="M174.801 54.6931H171.888C171.235 54.6931 170.732 54.1881 170.732 53.5315V52.6225C170.732 51.966 171.235 51.4609 171.888 51.4609H174.801C175.454 51.4609 175.956 51.966 175.956 52.6225V53.5315C175.956 54.1881 175.454 54.6931 174.801 54.6931Z" fill="#99B6F1"/>
<path d="M174.801 43.1228H171.888C171.235 43.1228 170.732 42.6177 170.732 41.9612V41.0522C170.732 40.3956 171.235 39.8906 171.888 39.8906H174.801C175.454 39.8906 175.956 40.3956 175.956 41.0522V41.9612C175.956 42.6177 175.454 43.1228 174.801 43.1228Z" fill="#99B6F1"/>
<path d="M174.801 31.6618H171.888C171.235 31.6618 170.732 31.1568 170.732 30.5003V29.5912C170.732 28.9347 171.235 28.4297 171.888 28.4297H174.801C175.454 28.4297 175.956 28.9347 175.956 29.5912V30.5003C175.956 31.1568 175.454 31.6618 174.801 31.6618Z" fill="#99B6F1"/>
<path d="M174.305 182.307H177.858C177.858 182.307 179.505 178.498 179.763 178.465C180.022 178.401 180.022 182.307 180.022 182.307H180.635C180.635 182.307 181.249 177.787 181.055 177.045C180.926 176.593 180.151 175.689 179.634 174.914C179.634 174.914 178.342 175.495 178.181 177.045C178.051 178.175 177.761 180.661 176.21 180.79C175.726 180.951 174.789 181.016 174.563 181.242C174.369 181.5 174.305 182.307 174.305 182.307Z" fill="#10215F"/>
<path d="M158.154 182.307H161.707C161.772 182.178 163.354 178.498 163.613 178.465C163.613 178.465 163.613 178.465 163.645 178.465C163.903 178.594 163.903 182.307 163.903 182.307H164.517C164.549 182.178 165.131 177.787 164.937 177.045C164.808 176.593 164.065 175.689 163.516 174.914C163.516 174.914 162.224 175.495 162.062 177.077C161.933 178.175 161.643 180.661 160.125 180.822H160.092C159.608 180.984 158.671 181.048 158.445 181.274C158.219 181.5 158.154 182.307 158.154 182.307Z" fill="#10215F"/>
<path d="M157.607 137.178C157.962 141.375 161.095 174.983 160.901 176.856C160.707 178.728 160.546 180.665 160.094 180.827C161.612 180.665 161.902 178.212 162.032 177.082C162.193 175.5 163.485 174.919 163.485 174.919C164.034 175.694 164.777 176.597 164.906 177.049C165.1 177.792 164.518 182.183 164.486 182.312H164.518C164.518 182.312 165.132 177.792 164.938 177.049C164.745 176.307 162.871 174.467 162.968 173.692C163.033 172.917 166.037 153.095 166.037 149.64C166.037 146.186 163.969 139.277 163.969 139.277L169.396 126.04L169.945 124.717C169.202 117.905 162.645 107.735 161.999 106.734C161.935 107.122 161.805 107.735 161.676 108.542C160.546 115.096 157.348 133.724 157.607 137.178Z" fill="#FABAAF"/>
<path d="M175.176 150.054C176.241 158.061 177.21 167.714 177.017 176.818C176.984 178.723 176.661 180.66 176.177 180.789C177.727 180.66 178.05 178.174 178.147 177.044C178.309 175.462 179.601 174.913 179.601 174.913C179.278 174.429 179.019 173.977 179.051 173.686C179.116 173.105 180.86 161.354 181.7 154.316C181.765 153.735 181.829 153.153 181.894 152.637C178.761 151.152 176.468 149.505 174.82 147.633C174.95 148.472 175.079 149.247 175.176 150.054Z" fill="#FABAAF"/>
<path d="M134.415 77.6108C135.384 78.321 137.419 79.5155 137.419 79.5155C137.419 79.5155 149.66 99.5318 153.504 98.079C156.669 96.8845 162.128 85.4881 162.386 85.0039C162.386 84.3582 162.451 83.3574 163.032 82.4857C164.195 80.7101 166.133 81.0006 166.488 79.8384C166.876 78.4179 164.356 75.1249 162.257 75.9643C161.062 76.4163 159.931 77.0297 159.382 77.8368C158.543 79.0313 151.857 91.8481 151.857 91.8481C151.857 91.8481 139.745 78.5793 138.873 77.6108C137.645 76.2871 133.996 74.6406 133.996 74.6406C133.996 74.6406 133.737 75.0603 134.415 75.706C134.835 76.0934 134.189 76.3876 133.996 76.5813C133.802 76.775 134.997 76.6422 134.674 76.7391C134.383 76.8037 133.447 76.9005 134.415 77.6108Z" fill="#FABAAF"/>
<path d="M183.995 78.0284C183.736 77.641 182.703 76.2205 180.894 75.6071C180.313 75.4134 180.442 75.3811 178.794 75.1874C176.275 74.8968 175.662 74.2834 174.951 71.7653C174.693 70.7967 174.466 69.6345 174.434 68.1172C174.337 61.8863 173.724 57.2374 171.398 56.6885H171.366C171.333 56.6885 171.269 56.6562 171.237 56.6562C171.204 56.6562 171.14 56.6885 171.107 56.6885C170.235 56.9468 167.587 57.9153 167.07 60.1752C166.941 60.7886 166.876 61.4343 166.876 62.08C166.876 62.1123 166.876 62.1123 166.876 62.1446C166.909 64.3722 167.716 66.6644 169.073 68.1172C169.719 68.7951 169.945 69.6022 169.945 70.5385C169.945 71.055 169.88 71.5716 169.751 72.1527C169.492 73.4441 169.396 75.0583 168.653 76.5433C167.91 78.0284 166.941 80.3852 164.583 80.5789L164.551 80.6434C164.551 80.6434 170.752 84.679 171.592 84.8404C174.305 85.2601 184.221 78.3513 183.995 78.0284Z" fill="#FABAAF"/>
<path d="M177.115 74.8306C177.309 74.8951 177.632 74.992 178.019 75.0565C178.342 75.1211 178.407 75.0888 179.021 75.1857C179.57 75.2503 179.86 75.2825 180.216 75.3794C180.539 75.4762 180.829 75.5731 180.991 75.6377C181.314 75.7668 181.734 75.9605 182.218 76.2511C182.218 76.2511 182.8 76.6385 183.284 77.155C185.254 79.2535 186.772 82.9662 186.772 82.9662C187.58 84.7095 189.001 87.0986 191.811 89.5199C191.811 89.5199 200.499 73.0226 201.113 71.8281C201.727 73.6683 202.76 73.4746 202.76 73.4746C202.76 73.4746 195.17 96.9776 191.423 96.3642C188.323 95.8476 181.346 85.3229 181.023 84.8387C180.668 84.4513 179.99 82.9016 179.311 82.4819C178.149 81.7717 177.18 81.6425 176.534 81.5457C174.951 80.9968 174.434 79.2858 172.852 78.737C174.628 76.7676 175.339 76.8322 177.115 74.8306Z" fill="#FABAAF"/>
<path d="M201.983 71.4398C202.185 71.32 202.379 71.169 202.582 71.0492C202.838 70.8818 203.134 70.7375 203.391 70.5701C203.975 70.2502 204.606 69.9845 205.215 69.7582C205.698 69.5647 206.213 69.3631 206.704 69.2008C206.861 69.1599 207.009 69.0877 207.165 69.0467C207.165 69.0467 207.288 69.5152 206.534 70.0798C206.061 70.4376 205.061 70.6997 205.189 70.9331C205.317 71.1666 210.239 69.309 210.507 69.439C210.775 69.569 208.696 72.0831 207.645 72.6589C206.594 73.2348 202.386 75.5973 202.386 75.5973C200.718 77.0025 200.702 75.2132 200.536 75.0898C200.457 75.0437 200.456 74.9106 200.461 74.6757C200.456 74.2764 200.54 74.0875 200.674 73.4516C200.734 73.1691 200.793 72.8865 200.892 72.6269C200.945 72.4462 201.077 72.112 201.161 71.9231C201.245 71.7342 201.305 71.7843 201.516 71.6957C201.656 71.5923 201.843 71.5432 201.983 71.4398Z" fill="#FABAAF"/>
<path d="M240 181.791C206.99 180.952 195.105 178.207 192.65 165.229C191.778 160.58 191.584 157.158 182.928 153.51C182.411 153.284 181.927 153.058 181.442 152.832C178.374 151.379 176.178 149.765 174.563 147.989C169.912 142.792 159.641 135.108 159.221 125.52C158.51 118.901 161.482 109.733 161.74 108.377C161.708 108.215 162.031 106.762 162.031 106.762C162.031 106.762 164.066 98.9173 164.13 97.4968C164.195 96.0763 164.001 89.0706 164.001 89.0706C164.001 89.0706 161.514 88.0375 161.223 86.2296C161.094 85.2611 161.256 84.0666 161.514 83.0012C161.869 81.4516 162.418 80.1279 162.418 80.1279C162.418 80.1279 164.453 79.224 166.262 80.5153C167.748 81.5807 169.104 83.0335 169.104 83.0335C169.104 83.0335 172.366 79.6114 175.725 79.9988C179.084 80.3862 179.989 83.0981 179.989 83.0981C179.989 83.0981 175.628 96.6574 175.855 97.0449C175.951 97.2386 177.631 98.4331 179.763 100.725C180.57 101.597 181.475 102.63 182.379 103.825C183.865 105.794 185.383 108.215 186.675 111.121C190.744 120.322 202.049 148.119 204.277 151.799C209.445 160.354 216.874 166.23 224.916 169.297C236.447 173.688 240 181.791 240 181.791Z" fill="#F97CAA"/>
<path d="M158.284 74.8338C158.542 78.8371 162.159 80.7095 164.517 80.5158H164.55C166.907 80.3221 167.844 77.9654 168.619 76.4803C169.362 74.9952 169.459 73.381 169.717 72.0897C169.847 71.5085 169.911 70.992 169.911 70.4754C169.911 69.5715 169.653 68.7967 169.039 68.1187C167.65 66.6659 166.843 64.3414 166.843 62.0815C166.843 62.0493 166.843 62.0493 166.843 62.017C166.843 61.3713 166.907 60.7256 167.037 60.1122C167.553 57.8523 170.202 56.8838 171.074 56.6255C171.139 56.5932 171.171 56.5932 171.203 56.5932C171.3 56.5609 171.332 56.5609 171.332 56.5609V56.5286L171.365 56.6255C172.43 56.8838 173.109 57.9814 173.593 59.7248C173.722 60.2091 173.819 60.7256 173.916 61.3067C174.207 63.1792 174.336 65.4714 174.368 68.0541C174.401 69.5715 174.594 70.766 174.885 71.7022C175.693 70.5077 182.249 64.406 178.147 57.5295C177.211 55.9153 175.983 55.1081 174.756 54.8176C173.238 54.4625 171.914 54.7207 171.849 54.753V54.7853C171.688 54.4947 170.008 51.46 166.229 52.2026C162.256 52.9774 159.802 56.2381 159.769 59.7894C159.705 65.084 164.227 66.6336 162.902 68.1187C161.352 69.862 158.09 71.7991 158.284 74.8338Z" fill="#10215F"/>
<path d="M132.006 71.2407C133.804 73.5317 138.247 79.03 138.247 79.03L142.408 77.9727C142.726 77.9022 142.937 77.6554 142.972 77.3382C143.008 77.1268 142.937 76.9153 142.831 76.7743L136.978 69.3727C136.52 68.8087 135.779 68.5973 135.074 68.844L132.394 69.8309C131.83 70.0776 131.618 70.7825 132.006 71.2407Z" fill="#263238"/>
<path d="M142.549 77.0561C142.549 77.0561 142.407 76.9151 142.161 76.6684C141.914 76.4217 141.561 76.034 141.138 75.5406C140.292 74.5889 139.128 73.2143 137.965 71.6635C137.682 71.2758 137.4 70.8881 137.118 70.5004C136.836 70.1127 136.589 69.7602 136.237 69.584C135.884 69.3725 135.496 69.4783 135.144 69.584C134.791 69.6898 134.474 69.8307 134.156 69.9365C133.557 70.1127 133.098 70.2889 132.711 70.4299C132.358 70.5357 132.182 70.6061 132.182 70.5709C132.182 70.5709 132.358 70.4652 132.711 70.3594C133.063 70.2184 133.557 70.0422 134.121 69.8307C134.438 69.725 134.756 69.584 135.108 69.4783C135.285 69.4078 135.496 69.3373 135.708 69.3373C135.919 69.302 136.166 69.3725 136.343 69.4783C136.73 69.6897 137.012 70.0775 137.295 70.4652C137.577 70.8529 137.859 71.2053 138.141 71.6283C139.304 73.1791 140.433 74.5537 141.279 75.5406C141.667 75.9988 142.02 76.3865 142.266 76.7037C142.407 76.8799 142.549 77.0561 142.549 77.0561Z" fill="#455A64"/>
<path d="M134.369 70.4645C134.546 70.394 134.757 70.4645 134.828 70.6408C134.898 70.8171 134.828 71.0287 134.651 71.0992C134.475 71.1698 134.264 71.0992 134.193 70.9229C134.123 70.7819 134.193 70.5703 134.369 70.4645Z" fill="white"/>
<path fill-rule="evenodd" clip-rule="evenodd" d="M134.351 77.6158C134.351 77.6158 133.188 75.5496 133.285 75.0653C133.382 74.5811 134.609 72.2566 135.223 72.0306C136.353 71.6109 137.407 71.2199 136.955 72.4144C136.664 73.1892 135.536 74.5088 135.73 74.8639C135.924 75.2191 136.579 76.9055 136.579 76.9055L134.351 77.6158Z" fill="#FABAAF"/>
<path d="M204.174 181.852H2.61719V182.126H204.174V181.852Z" fill="#1B1A2E"/>
<path d="M58.6415 89.125C72.4729 89.125 83.6854 77.8482 83.6854 63.9375C83.6854 50.0268 72.4729 38.75 58.6415 38.75C44.8102 38.75 33.5977 50.0268 33.5977 63.9375C33.5977 77.8482 44.8102 89.125 58.6415 89.125Z" fill="#F97CAA"/>
<path d="M72.6401 52.5C72.6717 53.6449 72.229 54.5035 71.4385 55.2986C68.6242 58.0972 65.8732 60.9276 63.0589 63.6944C62.3 64.4577 62.2051 64.8711 63.0273 65.698C65.8732 68.4648 68.6242 71.2952 71.4068 74.0938C72.893 75.5885 73.0195 77.0832 71.8179 78.2281C70.7112 79.2776 69.1618 79.1186 67.802 77.7193C65.0194 74.9207 62.2051 72.1221 59.4541 69.2917C58.6636 68.4966 58.2525 68.5284 57.4936 69.3235C54.8374 72.0903 52.0548 74.7935 49.3986 77.5603C48.3867 78.6098 47.3432 79.1504 45.9203 78.8324C43.8649 77.1469 43.8017 75.9066 45.6989 73.9984C48.45 71.2316 51.1694 68.4012 53.952 65.698C54.7742 64.9029 54.6793 64.4577 53.9204 63.7262C51.0745 60.9594 48.2919 58.129 45.5092 55.2986C44.0863 53.8357 43.9282 52.4682 45.0349 51.2915C46.1416 50.1148 47.6911 50.242 49.1456 51.7049C51.9283 54.5035 54.7426 57.3022 57.4936 60.1644C58.2841 60.9912 58.6952 60.9276 59.4541 60.1326C62.2051 57.2704 64.9878 54.4717 67.802 51.6731C69.5728 49.8922 70.9325 50.0194 72.482 52.0866C72.482 52.2774 72.482 52.4364 72.7349 52.4682L72.6401 52.5Z" fill="#FCFBFA"/>
<defs>
<linearGradient id="paint0_linear_15956_296203" x1="214.801" y1="-14.3247" x2="166.321" y2="205.959" gradientUnits="userSpaceOnUse">
<stop stop-color="#DB3B72" stop-opacity="0.06"/>
<stop offset="0.994987" stop-color="#D39C6E" stop-opacity="0.06"/>
</linearGradient>
</defs>
</svg>
