<svg width="14" height="14" viewBox="0 0 14 14" fill="none" xmlns="http://www.w3.org/2000/svg">
<path d="M5.1108 14C4.6269 14 4.17421 13.8136 3.83587 13.4752L0.524447 10.1641C0.185845 9.82533 -0.000393671 9.37225 6.24805e-07 8.88812C0.000129001 8.40399 0.186752 7.9514 0.525071 7.6132L7.61582 0.522771C7.93632 0.200992 8.36706 0.0151475 8.82812 0L12.201 0.00179692C13.1914 0.0019253 13.9982 0.80823 13.9989 1.79896L13.9988 5.15771C13.9834 5.63339 13.798 6.06373 13.4763 6.38463L6.38589 13.4747C6.04807 13.8131 5.59513 13.9998 5.1106 13.9998L5.1108 14ZM8.84281 0.920221C8.63231 0.927152 8.42259 1.01725 8.26704 1.17307L1.17563 8.26448C1.01095 8.42916 0.920209 8.65109 0.92008 8.88944C0.919952 9.12779 1.01044 9.34959 1.17511 9.5144L4.48654 12.8255C4.65122 12.9902 4.87302 13.0807 5.11111 13.0807C5.34945 13.0807 5.57112 12.9899 5.73567 12.8252L12.8268 5.73449C12.9826 5.57906 13.0722 5.36921 13.0796 5.14331L13.0795 1.80001C13.079 1.31637 12.6848 0.922472 12.2011 0.92234L8.84281 0.920221ZM10.6969 4.98837C9.7672 4.98824 9.01094 4.23188 9.01084 3.30246C9.01084 2.37281 9.7671 1.61645 10.6968 1.61619H10.6973C11.6265 1.61619 12.3828 2.37245 12.3829 3.3021C12.3829 4.23214 11.6267 4.98837 10.6969 4.98837H10.6969ZM10.6972 2.53634C10.2746 2.53647 9.93086 2.88007 9.93086 3.30233C9.93099 3.72462 10.2746 4.06821 10.6971 4.06831C11.1194 4.06831 11.463 3.72472 11.463 3.30233C11.4627 2.88004 11.1194 2.53634 10.6972 2.53634Z" fill="#E6427A"/>
</svg>
