<svg width="343" height="282" viewBox="0 0 343 282" fill="none" xmlns="http://www.w3.org/2000/svg">
<rect width="343" height="282" rx="16" fill="url(#paint0_linear_7852_228330)"/>
<path d="M110.01 161.179C111.764 161.383 113.368 161.76 114.839 162.26L114.837 162.257C114.859 162.265 114.88 162.272 114.901 162.279C114.959 162.299 115.016 162.32 115.074 162.34C123.837 165.517 127.861 164.921 131.306 163.846C140.611 160.943 146.127 148.442 161.196 150.862C167.588 151.888 172.73 153.283 176.738 156.123C176.737 156.12 176.732 156.11 176.732 156.11C176.76 156.134 176.788 156.154 176.816 156.178C177.391 156.588 177.951 157.004 178.481 157.434C186.319 162.633 194.126 155.856 196.368 154.321C196.533 154.2 196.704 153.236 196.871 153.116C196.961 153.048 197.011 153.008 197.011 153.008L197.012 153.016C206.832 145.984 222.452 138.859 237.51 140.608C263.383 143.613 273.796 173.43 273.796 173.43H189.478H182.597H128.994H117.166H80.457C83.4773 166.379 95.5569 159.5 110.01 161.179Z" fill="#E3CDC9"/>
<path d="M42.7949 40.5418H66.2896C66.8359 40.5418 67.2793 40.1005 67.2793 39.5563V33.0554C67.2793 32.5117 66.8359 32.0703 66.2896 32.0703H42.7949C42.2481 32.0703 41.8047 32.5117 41.8047 33.0554V39.5563C41.8047 40.1005 42.2481 40.5418 42.7949 40.5418Z" fill="#EFC3A5"/>
<path d="M46.793 35.3594H63.4799" stroke="white" stroke-width="0.624" stroke-miterlimit="10"/>
<path d="M46.793 37.2539H51.7047" stroke="white" stroke-width="0.624" stroke-miterlimit="10"/>
<path d="M64.2498 39.418V43.2493L59.3438 39.418H64.2498Z" fill="#EFC3A5"/>
<path d="M197.29 56H80.2109V172.901H197.29V56Z" fill="white"/>
<path d="M197.29 37.6105V55.9994H80.2109V37.6105C80.2109 33.9574 83.1867 30.9961 86.8566 30.9961H190.645C194.315 30.9961 197.29 33.9574 197.29 37.6105Z" fill="url(#paint1_linear_7852_228330)"/>
<path d="M173.641 42.4148C173.641 45.4423 176.106 47.8966 179.148 47.8966C182.189 47.8966 184.655 45.4423 184.655 42.4148C184.655 39.3873 182.19 36.9336 179.148 36.9336C176.106 36.9336 173.641 39.3878 173.641 42.4148Z" fill="#2B4183"/>
<path d="M179.145 44.4745C180.888 44.4745 182.301 43.068 182.301 41.333V27.1415C182.301 25.4066 180.888 24 179.145 24C177.401 24 175.988 25.4066 175.988 27.1415V41.333C175.988 43.068 177.401 44.4745 179.145 44.4745Z" fill="#6F94DC"/>
<path d="M134.766 42.4148C134.766 45.4423 137.231 47.8966 140.273 47.8966C143.314 47.8966 145.78 45.4423 145.78 42.4148C145.78 39.3873 143.314 36.9336 140.273 36.9336C137.231 36.9336 134.766 39.3878 134.766 42.4148Z" fill="#2B4183"/>
<path d="M140.274 44.4745C142.017 44.4745 143.43 43.068 143.43 41.333V27.1415C143.43 25.4066 142.017 24 140.274 24C138.53 24 137.117 25.4066 137.117 27.1415V41.333C137.117 43.068 138.53 44.4745 140.274 44.4745Z" fill="#6F94DC"/>
<path d="M95.8984 42.4148C95.8984 45.4423 98.3643 47.8966 101.406 47.8966C104.447 47.8966 106.913 45.4423 106.913 42.4148C106.913 39.3873 104.447 36.9336 101.406 36.9336C98.3638 36.9336 95.8984 39.3878 95.8984 42.4148Z" fill="#2B4183"/>
<path d="M101.402 44.4745C103.146 44.4745 104.559 43.068 104.559 41.333V27.1415C104.559 25.4066 103.146 24 101.402 24C99.6593 24 98.2461 25.4066 98.2461 27.1415V41.333C98.2461 43.068 99.6593 44.4745 101.402 44.4745Z" fill="#6F94DC"/>
<path d="M179.991 74.7891H157.73V96.9456H179.991V74.7891Z" stroke="#FFE3D1" stroke-width="2.213" stroke-miterlimit="10"/>
<path d="M150.37 74.7891H128.109V96.9456H150.37V74.7891Z" stroke="#FFE3D1" stroke-width="2.213" stroke-miterlimit="10"/>
<path d="M120.757 74.7891H98.4961V96.9456H120.757V74.7891Z" stroke="#FFE3D1" stroke-width="2.213" stroke-miterlimit="10"/>
<path d="M179.991 102.914H157.73V125.07H179.991V102.914Z" stroke="#FFE3D1" stroke-width="2.213" stroke-miterlimit="10"/>
<path d="M150.37 102.914H128.109V125.07H150.37V102.914Z" stroke="#FFE3D1" stroke-width="2.213" stroke-miterlimit="10"/>
<path d="M120.757 102.914H98.4961V125.07H120.757V102.914Z" fill="#EFC3A5"/>
<path d="M106.535 110.824L112.707 117.157" stroke="white" stroke-width="2.017" stroke-miterlimit="10"/>
<path d="M112.707 110.824L106.535 117.157" stroke="white" stroke-width="2.017" stroke-miterlimit="10"/>
<path d="M179.991 131.039H157.73V153.195H179.991V131.039Z" stroke="#F0E0DF" stroke-width="2.213" stroke-miterlimit="10"/>
<path d="M150.37 131.039H128.109V153.195H150.37V131.039Z" stroke="#FFE3D1" stroke-width="2.213" stroke-miterlimit="10"/>
<path d="M120.757 131.039H98.4961V153.195H120.757V131.039Z" stroke="#FFE3D1" stroke-width="2.213" stroke-miterlimit="10"/>
<path d="M195.283 95.8711H184.449V102.971H195.283V95.8711Z" fill="#FFA80A"/>
<path d="M196.951 97.7146H182.781C181.168 97.7146 179.859 96.4124 179.859 94.8068C179.859 93.2007 181.168 91.8984 182.781 91.8984H196.951C198.565 91.8984 199.873 93.2007 199.873 94.8068C199.873 96.4124 198.566 97.7146 196.951 97.7146Z" fill="#FFCB2D"/>
<path d="M163.596 106.644L157.489 112.723L161.796 117.01L167.904 110.931L163.596 106.644Z" fill="#FFA80A"/>
<path d="M165.526 106.394L156.994 114.887C156.133 115.742 154.74 115.742 153.879 114.887C153.02 114.03 153.02 112.643 153.879 111.787L162.412 103.295C163.272 102.438 164.666 102.438 165.526 103.295C166.387 104.15 166.387 105.539 165.526 106.394Z" fill="#FFCB2D"/>
<path d="M226.353 136.358C226.353 156.486 209.96 172.803 189.737 172.803C169.514 172.803 153.121 156.486 153.121 136.358C153.121 116.23 169.514 99.9141 189.737 99.9141C209.96 99.9141 226.353 116.23 226.353 136.358Z" fill="#ED79A3"/>
<path d="M224.382 136.359C224.382 155.403 208.871 170.842 189.736 170.842C170.601 170.842 155.09 155.403 155.09 136.359C155.09 117.314 170.601 101.875 189.736 101.875C208.871 101.874 224.382 117.314 224.382 136.359Z" fill="#F483AC"/>
<path d="M220.472 136.356C220.472 153.25 206.712 166.945 189.738 166.945C172.764 166.945 159.004 153.25 159.004 136.356C159.004 119.461 172.764 105.766 189.738 105.766C206.711 105.766 220.472 119.461 220.472 136.356Z" fill="#F6F6F6"/>
<g opacity="0.71">
<g opacity="0.71">
<g opacity="0.71">
<path opacity="0.71" d="M156.109 112.153L202.694 184L223.739 165.986L177.65 101.68L156.109 112.153Z" fill="white"/>
<path opacity="0.71" d="M180.938 94.849L227.521 166.695L230.229 157.688L184.139 93.3828L180.938 94.849Z" fill="white"/>
</g>
</g>
</g>
<path d="M189.895 112.662C189.468 112.662 189.121 112.317 189.121 111.892V110.086C189.121 109.661 189.468 109.316 189.895 109.316C190.322 109.316 190.669 109.661 190.669 110.086V111.892C190.668 112.317 190.322 112.662 189.895 112.662Z" fill="#E3BCA0"/>
<path d="M189.895 163.772C189.468 163.772 189.121 163.427 189.121 163.002V161.196C189.121 160.77 189.468 160.426 189.895 160.426C190.322 160.426 190.669 160.77 190.669 161.196V163.002C190.668 163.428 190.322 163.772 189.895 163.772Z" fill="#E3BCA0"/>
<path d="M172.377 119.88C172.179 119.88 171.982 119.805 171.83 119.654L170.547 118.377C170.245 118.077 170.245 117.589 170.547 117.288C170.849 116.987 171.338 116.987 171.64 117.288L172.924 118.566C173.226 118.866 173.226 119.354 172.924 119.654C172.773 119.805 172.575 119.88 172.377 119.88Z" fill="#E3BCA0"/>
<path d="M208.686 156.02C208.488 156.02 208.29 155.946 208.139 155.795L206.855 154.517C206.553 154.217 206.553 153.729 206.855 153.429C207.158 153.128 207.646 153.128 207.949 153.429L209.233 154.707C209.535 155.007 209.535 155.495 209.233 155.795C209.081 155.945 208.883 156.02 208.686 156.02Z" fill="#E3BCA0"/>
<path d="M171.093 156.02C170.895 156.02 170.698 155.946 170.547 155.795C170.245 155.495 170.245 155.007 170.547 154.707L171.83 153.429C172.133 153.128 172.622 153.128 172.924 153.429C173.226 153.729 173.226 154.217 172.924 154.517L171.64 155.795C171.488 155.945 171.291 156.02 171.093 156.02Z" fill="#E3BCA0"/>
<path d="M207.402 119.88C207.204 119.88 207.007 119.805 206.855 119.654C206.553 119.354 206.553 118.866 206.855 118.566L208.139 117.288C208.441 116.987 208.93 116.987 209.233 117.288C209.535 117.589 209.535 118.077 209.233 118.377L207.949 119.654C207.797 119.805 207.599 119.88 207.402 119.88Z" fill="#E3BCA0"/>
<path d="M165.12 137.313H163.305C162.878 137.313 162.531 136.968 162.531 136.542C162.531 136.117 162.878 135.773 163.305 135.773H165.12C165.547 135.773 165.893 136.117 165.893 136.542C165.893 136.968 165.547 137.313 165.12 137.313Z" fill="#E3BCA0"/>
<path d="M216.475 137.313H214.66C214.233 137.313 213.887 136.968 213.887 136.542C213.887 136.117 214.233 135.773 214.66 135.773H216.475C216.902 135.773 217.248 136.117 217.248 136.542C217.248 136.968 216.902 137.313 216.475 137.313Z" fill="#E3BCA0"/>
<path d="M191.738 136.248H188.043V120.307C188.043 119.292 188.87 118.469 189.89 118.469C190.91 118.469 191.737 119.292 191.737 120.307L191.738 136.248Z" fill="#E3BCA0"/>
<path d="M194.127 136.252C194.127 138.581 192.229 140.47 189.889 140.47C187.549 140.47 185.652 138.581 185.652 136.252C185.652 133.923 187.549 132.035 189.889 132.035C192.229 132.035 194.127 133.923 194.127 136.252Z" fill="#DB9768"/>
<path d="M324 173.723L19 174.152" stroke="#281F27" stroke-width="0.757" stroke-miterlimit="10"/>
<path fill-rule="evenodd" clip-rule="evenodd" d="M60.2295 163.731C60.2295 163.731 60.6337 166.433 60.9045 167.585C61.1754 168.738 63.6787 172.042 63.6344 172.605C63.5902 173.167 62.531 173.829 61.9983 173.376C61.4657 172.924 57.928 169.307 57.1724 167.757C56.4162 166.208 53.9147 164.187 53.659 163.499C53.4033 162.811 56.6095 160.798 57.4348 160.477C58.2607 160.156 60.2295 163.731 60.2295 163.731Z" fill="#1D2033"/>
<path fill-rule="evenodd" clip-rule="evenodd" d="M53.962 115.655C53.962 115.655 54.2928 117.378 54.5364 117.697C54.78 118.015 55.4381 119.617 55.5042 119.843C55.5708 120.068 55.9756 121.686 56.0441 121.89C56.1125 122.095 55.6502 122.414 55.3339 121.982C55.1369 121.714 54.7921 120.667 54.6522 120.328C54.5116 119.991 54.0807 118.921 53.9644 119.116C53.848 119.311 53.8759 120.745 53.8565 121.114C53.8378 121.483 54.0729 122.617 54.1832 123.086C54.2934 123.556 54.9212 125.524 54.6691 125.63C54.4177 125.736 54.205 125.708 53.8802 125.179C53.8802 125.179 53.3657 125.466 53.0657 124.817C53.0657 124.817 52.6052 124.984 52.3204 124.139C52.3204 124.139 51.9932 123.96 51.8659 123.658C51.7393 123.355 50.9933 120.766 51 119.709C51.0067 118.653 51.2557 117.917 51.2103 117.172C51.1648 116.426 50.7812 114.832 50.7812 114.832L53.962 115.655Z" fill="#EEA886"/>
<path fill-rule="evenodd" clip-rule="evenodd" d="M58.4012 160.051L57.4377 160.474L60.2325 163.728L61.1584 162.708L58.4012 160.051Z" fill="#50558A"/>
<path fill-rule="evenodd" clip-rule="evenodd" d="M68.1664 166.871C68.1664 166.871 67.5446 168.364 67.0199 168.955C66.4957 169.547 64.4875 170.604 64.4766 172.361C64.4651 174.267 67.8622 173.738 69.1904 173.668C70.5187 173.598 70.6193 172.58 71.1786 171.502C71.7385 170.423 72.3021 170.606 72.4069 169.735C72.5117 168.866 71.9785 166.918 71.9785 166.918L68.1664 166.871Z" fill="#1D2033"/>
<path fill-rule="evenodd" clip-rule="evenodd" d="M68.1087 166.32L68.0117 167.224C68.0117 167.224 70.1011 167.972 72.0765 167.302L71.9663 166.066L68.1087 166.32Z" fill="#50558A"/>
<path fill-rule="evenodd" clip-rule="evenodd" d="M69.2682 141.667C69.2094 138.514 67.7999 120.842 67.949 120.842C68.6428 120.842 72.5495 137.671 72.6943 140.039C72.7246 140.524 72.115 141.609 71.1303 143.037C70.6874 143.68 70.168 144.392 69.5972 145.15L69.596 145.151C69.4021 143.419 69.2767 142.145 69.2682 141.667ZM79.6987 143.364C79.6987 141.015 77.9759 120.522 78.0541 119.739C78.1062 119.228 77.5584 114.322 77.1706 110.97C77.1676 110.941 77.1639 110.912 77.1603 110.884C77.1603 110.877 77.1585 110.871 77.1585 110.864C77.0488 109.922 76.9537 109.111 76.8894 108.566C76.8597 108.314 76.8367 108.119 76.8222 107.995C76.8094 107.892 76.8034 107.838 76.8034 107.838C76.8034 107.838 65.6905 105.657 59.929 107.717C59.6884 107.804 59.4576 107.897 59.237 107.998C59.237 107.998 59.2231 108.096 59.1976 108.28C59.14 108.704 59.0195 109.588 58.8595 110.789C58.8322 110.992 58.8037 111.203 58.774 111.423C57.9542 117.602 58.4808 124.317 59.9163 131.192C61.3246 137.935 62.0996 142.978 62.2444 143.958C62.4359 145.243 63.0007 148.779 63.626 152.656C60.5677 156.41 57.9602 159.603 58.1548 159.92C58.6377 160.705 62.9285 165.127 63.1649 164.344C63.1649 164.344 63.9399 163.471 65.1537 162.079C65.5397 164.451 65.8039 166.069 65.8039 166.069C65.8039 166.069 70.5074 167.187 72.2386 166.169C72.2386 166.169 71.5581 161.025 70.8485 155.432C75.1667 150.286 79.6987 144.594 79.6987 143.364Z" fill="#292C47"/>
<path fill-rule="evenodd" clip-rule="evenodd" d="M81.553 78.5214L78.565 89.1919C78.4626 89.5374 78.3402 89.9632 78.2099 90.459L78.205 90.4777C78.2032 90.4819 78.202 90.4862 78.2014 90.4904C77.7027 92.3926 77.0858 95.2918 76.9022 98.5131C76.7774 100.709 77.1864 109.538 77.1864 109.538C77.1864 109.538 72.6641 111.217 65.8979 110.791C65.8979 110.791 58.6202 110.622 59.2134 106.181C60.7841 94.4257 59.248 89.5791 59.0425 88.3987C59.0425 88.3987 58.0548 82.689 57.3477 77.905C59.3952 77.1463 68.1442 74.2188 68.1442 74.2188L72.6762 74.5565C72.6762 74.5565 79.5636 76.244 81.553 78.5214Z" fill="white"/>
<path fill-rule="evenodd" clip-rule="evenodd" d="M70.4181 59.1356C70.4181 59.1356 74.8423 59.8786 74.0915 66.7711C73.3413 73.6648 69.4371 73.0562 69.1753 73.0466C68.9141 73.0369 65.248 73.1298 65.0547 64.7018C65.0547 64.7018 64.9984 58.4709 70.4181 59.1356Z" fill="#EEA987"/>
<path fill-rule="evenodd" clip-rule="evenodd" d="M72.3569 71.0477C72.3569 71.0477 72.2042 73.8848 72.4732 74.5024C72.7429 75.1194 68.9217 77.0729 66.5469 74.848C66.5469 74.848 67.0274 71.7467 66.8783 70.6515C66.7287 69.5568 72.3569 71.0477 72.3569 71.0477Z" fill="#EEA987"/>
<path fill-rule="evenodd" clip-rule="evenodd" d="M74.1841 64.8205C74.1841 64.8205 74.6752 64.3103 74.8473 64.8338C75.0195 65.3585 74.0628 67.6818 74.1229 67.7867C74.1229 67.7867 74.0319 67.9888 73.9161 67.876C73.8009 67.7632 74.1841 64.8205 74.1841 64.8205Z" fill="#EEA987"/>
<path fill-rule="evenodd" clip-rule="evenodd" d="M65.1036 64.638C65.1036 64.638 64.6338 64.1079 64.4398 64.6248C64.2457 65.141 64.9539 67.4612 65.0418 67.6042C65.0418 67.6042 65.1946 67.8424 65.314 67.7345C65.434 67.6265 65.1036 64.638 65.1036 64.638Z" fill="#EEA987"/>
<path fill-rule="evenodd" clip-rule="evenodd" d="M74.4625 64.237C74.3098 65.1803 74.1656 65.8811 74.1656 65.8811L73.5221 66.7182C73.5221 66.7182 73.5602 64.8679 73.4615 64.5772C73.4245 64.4668 73.3803 64.2714 73.3354 64.0603C73.2615 63.7117 73.1864 63.3179 73.1342 63.187C73.0512 62.9777 69.3427 61.8993 66.0396 63.4131C66.0396 63.4131 66.0681 63.6978 66.0656 64.0157C66.0644 64.3848 66.0238 64.7985 65.8536 64.8606C65.5372 64.9758 65.6693 67.0264 65.6693 67.0264L65.1543 66.4348C65.1543 66.4348 65.0052 65.3636 64.8586 64.1327C64.8586 64.1327 64.8579 64.1303 64.8579 64.1242C64.8246 63.8371 64.7907 63.5416 64.758 63.2491C64.6847 62.0103 64.8076 59.7624 66.4274 58.4416C67.5206 57.9754 69.2658 57.5798 72.175 58.4663C72.175 58.4663 72.8422 58.511 73.0294 58.6901C74.8413 60.675 74.4625 64.237 74.4625 64.237Z" fill="#E8734D"/>
<path fill-rule="evenodd" clip-rule="evenodd" d="M67.1797 72.125C67.1797 72.125 67.8856 73.1019 69.526 73.0645C71.1663 73.0277 71.8778 72.1763 71.8778 72.1763C71.8778 72.1763 71.1015 73.7933 69.5181 73.7765C67.9341 73.759 67.1797 72.125 67.1797 72.125Z" fill="#C78D71"/>
<path fill-rule="evenodd" clip-rule="evenodd" d="M66.0938 74.9057C66.0938 74.9057 67.2796 76.96 69.529 77.153C70.9554 77.276 72.191 75.4763 72.7697 74.5921C72.7697 74.5921 69.575 73.2308 66.0938 74.9057Z" fill="#EEA987"/>
<path fill-rule="evenodd" clip-rule="evenodd" d="M72.3617 73.9453C72.3617 73.9453 71.4576 75.125 69.5312 76.3868L70.7292 78.2239L72.772 74.5949L72.3617 73.9453Z" fill="#F1F1F1"/>
<path fill-rule="evenodd" clip-rule="evenodd" d="M66.6418 74.2188C66.6418 74.2188 67.7925 75.6548 69.5359 76.3852L68.2209 78.2772L65.9219 74.9666L66.6418 74.2188Z" fill="#F1F1F1"/>
<path fill-rule="evenodd" clip-rule="evenodd" d="M69.526 76.3867L70.5521 77.9416C70.5521 77.9416 69.4745 78.5483 68.4727 77.9024L69.526 76.3867Z" fill="#E93779"/>
<path fill-rule="evenodd" clip-rule="evenodd" d="M58.9648 111.593C58.9648 111.593 64.5155 113.631 77.0675 111.711L76.9009 109.449C76.9009 109.449 69.625 111.586 59.1866 109.756L58.9648 111.593Z" fill="#1D2033"/>
<path fill-rule="evenodd" clip-rule="evenodd" d="M72.7693 74.5938C72.7693 74.5938 71.472 84.2437 71.6495 92.5668C71.8271 100.89 78.1437 116.005 78.1437 116.005C78.1437 116.005 80.9044 113.348 82.1061 111.843C82.1061 111.843 77.8079 99.4991 77.8867 97.2723C77.9655 95.0456 82.7375 78.2324 82.7375 78.2324C82.7375 78.2324 80.0858 76.5111 72.7693 74.5938Z" fill="#323657"/>
<path fill-rule="evenodd" clip-rule="evenodd" d="M65.8067 75.0039C65.8067 75.0039 65.817 84.2461 65.6389 92.5692C65.4613 100.893 64.3597 116.388 64.3597 116.388C64.3597 116.388 58.1776 115.414 56.976 113.909C56.976 113.909 59.4804 99.5015 59.4016 97.2748C59.3229 95.0481 55.375 78.6679 55.375 78.6679C55.375 78.6679 57.6728 77.1637 65.8067 75.0039Z" fill="#323657"/>
<path fill-rule="evenodd" clip-rule="evenodd" d="M66.5391 112.669H69.9488V110.145H66.5391V112.669Z" fill="#3A4066"/>
<path fill-rule="evenodd" clip-rule="evenodd" d="M69.0483 77.5508C69.0483 77.5508 67.5243 82.725 67.3916 93.0022C67.2589 103.279 67.5788 106.226 67.5788 106.226L68.7678 108.567L70.3524 106.124C70.3524 106.124 69.8446 82.4759 70.1384 77.7305L69.0483 77.5508Z" fill="#E93779"/>
<path fill-rule="evenodd" clip-rule="evenodd" d="M76.1289 110.287C76.1289 110.287 77.8971 111.838 80.3749 112.666C80.3749 112.666 88.5894 99.3434 88.693 98.3826C88.7894 97.493 84.6179 79.377 82.7352 78.2305L79.3169 88.194C79.5435 88.1277 83.2078 95.7626 83.2218 96.7445C83.2418 98.0605 76.1289 110.287 76.1289 110.287Z" fill="#323657"/>
<path fill-rule="evenodd" clip-rule="evenodd" d="M54.9303 117.459C54.9303 117.459 53.0846 117.801 50.4141 117.65C50.4141 117.65 51.4545 100.55 51.3509 99.5876C51.2545 98.6986 53.49 79.8106 55.3721 78.6641L58.7291 88.7314C58.5025 88.6656 56.4786 99.0303 56.4646 100.012C56.4447 101.328 54.9303 117.459 54.9303 117.459Z" fill="#323657"/>
<path fill-rule="evenodd" clip-rule="evenodd" d="M71.1276 143.035L70.5941 153.432L69.5938 145.148V145.148C70.1648 144.39 70.6844 143.678 71.1276 143.035Z" fill="#1D2033"/>
<path d="M256.365 173.879H259.746C259.746 173.879 261.304 170.27 261.565 170.224C261.826 170.175 261.826 173.879 261.826 173.879H262.41C262.41 173.879 262.996 169.607 262.8 168.893C262.679 168.451 261.955 167.615 261.44 166.867C261.44 166.867 260.221 167.411 260.058 168.901C259.943 169.966 259.662 172.322 258.177 172.455C257.729 172.597 256.82 172.67 256.626 172.883C256.43 173.096 256.365 173.879 256.365 173.879Z" fill="#201F39"/>
<path d="M241.025 173.882H244.406C244.406 173.882 244.406 173.882 244.408 173.879C244.455 173.771 245.971 170.27 246.225 170.224C246.231 170.224 246.236 170.224 246.24 170.226C246.485 170.337 246.485 173.882 246.485 173.882H247.07C247.07 173.882 247.07 173.882 247.07 173.879C247.085 173.766 247.654 169.598 247.46 168.893C247.339 168.451 246.617 167.615 246.1 166.867C246.1 166.867 244.881 167.411 244.718 168.904C244.602 169.957 244.326 172.287 242.871 172.451C242.859 172.453 242.848 172.455 242.837 172.455C242.389 172.598 241.48 172.67 241.286 172.883C241.09 173.096 241.025 173.882 241.025 173.882Z" fill="#201F39"/>
<path d="M240.527 131.06C240.853 135.049 243.844 166.898 243.648 168.679C243.456 170.445 243.311 172.282 242.872 172.45C244.328 172.286 244.604 169.957 244.72 168.903C244.883 167.41 246.102 166.867 246.102 166.867C246.619 167.614 247.341 168.45 247.462 168.892C247.655 169.597 247.087 173.766 247.071 173.879H247.094C247.094 173.879 247.678 169.606 247.484 168.892C247.29 168.18 245.533 166.45 245.598 165.711C245.663 164.974 248.524 146.165 248.524 142.888C248.524 139.61 246.574 133.054 246.574 133.054L251.732 120.49L252.242 119.245C251.54 112.792 245.308 103.131 244.7 102.199C244.635 102.567 244.528 103.157 244.394 103.918C243.303 110.119 240.262 127.782 240.527 131.06Z" fill="#EBB973"/>
<path d="M257.201 143.296C258.201 150.89 259.135 160.038 258.964 168.683C258.928 170.475 258.625 172.317 258.177 172.459C259.661 172.326 259.942 169.97 260.058 168.905C260.221 167.415 261.44 166.871 261.44 166.871C261.125 166.416 260.891 165.995 260.916 165.715C260.965 165.152 262.647 154.031 263.437 147.358C263.504 146.797 263.564 146.267 263.617 145.777C260.631 144.364 258.471 142.8 256.897 141.043C256.998 141.777 257.1 142.529 257.201 143.296Z" fill="#EBB973"/>
<path d="M251.731 120.493L252.242 119.248C251.54 112.794 245.308 103.134 244.7 102.203C244.7 102.203 251.53 115.281 251.731 120.493Z" fill="#EBB973"/>
<path d="M263.617 145.778C263.565 146.267 263.505 146.797 263.438 147.358C263.334 147.31 263.231 147.262 263.129 147.213C260.617 146.022 258.688 144.726 257.202 143.298C257.101 142.529 256.999 141.777 256.897 141.043C258.471 142.8 260.632 144.363 263.617 145.778Z" fill="#EBB973"/>
<path d="M320.867 174.035C288.6 173.23 284.775 171.801 282.354 159.116C281.488 154.584 273.545 149.998 265.081 146.427C264.574 146.213 264.089 145.995 263.623 145.774C260.638 144.359 258.476 142.796 256.902 141.039C252.367 135.978 252.711 129.315 252.303 119.961C252.293 119.728 252.274 119.489 252.247 119.247C251.545 112.793 245.314 103.132 244.705 102.201C244.674 102.153 244.658 102.128 244.658 102.128C244.658 102.128 246.648 93.1387 246.713 91.7493C246.78 90.3603 246.591 83.5211 246.591 83.5211C246.591 83.5211 244.155 82.5043 243.891 80.7347C243.752 79.7967 243.918 78.6322 244.163 77.5819C244.518 76.0625 245.039 74.7847 245.039 74.7847C245.039 74.7847 247.041 73.894 248.791 75.1606C250.233 76.2038 251.568 77.6166 251.568 77.6166C251.568 77.6166 254.762 74.276 258.028 74.6565C261.296 75.0363 262.192 77.6959 262.192 77.6959C262.192 77.6959 257.937 90.93 258.152 91.3099C258.259 91.4992 259.881 92.6731 261.975 94.9109C262.774 95.7636 263.642 96.7716 264.521 97.9382C265.974 99.8679 267.458 102.232 268.71 105.051C272.702 114.043 283.734 141.149 285.913 144.755C290.96 153.106 298.209 158.842 306.097 161.838C317.396 166.132 320.867 174.035 320.867 174.035Z" fill="#E93779"/>
<path d="M219.347 63.1965C220.032 64.0838 223.172 65.8564 223.172 65.8564C223.172 65.8564 228.684 87.0772 232.542 86.8374C235.725 86.6399 243.811 77.9661 244.167 77.5823C244.522 76.065 245.043 74.7851 245.043 74.7851C245.043 74.7851 247.045 73.8953 248.795 75.1622C250.237 76.2048 251.572 77.6179 251.572 77.6179C251.572 77.6179 254.766 74.277 258.033 74.6587C261.3 75.0382 262.196 77.6978 262.196 77.6978C262.196 77.6978 262.934 77.7601 263.335 78.2038C263.741 78.6474 271.889 87.7029 271.889 87.7029C271.889 87.7029 264.851 95.427 264.367 95.4914C264.073 95.5291 263.05 95.1721 261.98 94.9126C261.285 94.7439 260.574 94.6175 260.026 94.6685C258.633 94.7949 257.262 96.6316 257.344 96.8845C257.427 97.1376 259.616 96.3144 260.944 96.8845C262.275 97.4545 263.416 97.9605 264.392 97.9605C264.426 97.9605 264.47 97.9541 264.526 97.9407C266.13 97.5414 276.969 91.5163 276.637 88.2733C276.307 85.0655 265.865 71.6779 262.469 70.2226C260.953 70.8349 256.738 70.6775 254.737 69.595C252.12 68.1774 252.735 62.5006 252.506 61.234C252.278 59.9674 250.622 59.1442 249.292 58.5741C248.337 58.166 247.571 57.4494 247.217 56.7617C247.065 57.5892 246.704 59.7185 246.789 60.728C246.842 61.3558 247.032 62.5513 247.273 63.6073C247.516 64.6746 247.807 65.6017 248.059 65.6658C248.556 65.7922 250.44 65.6658 250.44 65.6658C250.44 65.6658 250.551 66.613 250.627 67.5536C250.698 68.4187 250.738 69.2817 250.631 69.4015C250.493 69.5568 248.501 69.3304 246.555 69.4747C245.351 69.5656 244.163 69.7986 243.45 70.3532C242.367 71.1941 232.794 80.7996 232.794 80.7996C232.794 80.7996 225.546 65.6306 225.013 64.5257C224.276 63.0062 221.443 60.5372 221.443 60.5372C221.443 60.5372 221.102 60.8544 221.534 61.6132C221.793 62.0703 222.6 62.6893 222.368 62.8157C222.134 62.9442 218.55 59.5237 218.244 59.5237C217.939 59.5237 218.661 62.3091 219.347 63.1965Z" fill="#EBB973"/>
<path d="M246.557 69.4768C248.503 69.3324 250.495 69.5588 250.633 69.4035C250.741 69.2838 250.7 68.4208 250.629 67.5556C250.553 66.6151 250.442 65.6679 250.442 65.6679C250.442 65.6679 248.559 65.7943 248.062 65.6679C247.81 65.6038 247.518 64.6763 247.275 63.6094C246.693 64.4724 245.405 66.5309 245.324 67.9485C245.273 68.8602 245.594 69.2926 246.557 69.4768Z" fill="#201F39"/>
<path d="M262.89 69.9701C262.794 70.0643 262.652 70.1479 262.471 70.2205C260.955 70.8322 256.74 70.6742 254.74 69.5924C252.124 68.176 252.739 62.4982 252.51 61.2319C252.28 59.9656 250.624 59.1421 249.295 58.5723C248.34 58.1633 247.575 57.447 247.219 56.7587C247.078 56.4874 247.001 56.2205 247 55.978C246.997 53.2981 251.748 51.4803 255.092 52.05C258.436 52.6198 258.908 57.4959 258.609 59.0154C258.31 60.5354 257.886 62.7513 261.032 64.588C264.178 66.4241 263.791 69.0836 262.89 69.9701Z" fill="#201F39"/>
<path d="M252.303 65.125C252.358 66.3749 250.85 67.4081 250.624 67.5552C250.548 66.6131 250.435 65.6665 250.435 65.6665C251.226 65.5091 252.303 65.125 252.303 65.125Z" fill="#EBB973"/>
<rect x="56" y="218" width="230" height="40" rx="20" fill="#E6427A"/>
<path d="M116.947 234.719C116.896 234.822 116.835 234.894 116.765 234.936C116.7 234.978 116.62 234.999 116.527 234.999C116.434 234.999 116.329 234.964 116.212 234.894C116.095 234.819 115.958 234.738 115.799 234.649C115.64 234.56 115.454 234.481 115.239 234.411C115.029 234.336 114.779 234.299 114.49 234.299C114.229 234.299 114 234.332 113.804 234.397C113.613 234.458 113.449 234.544 113.314 234.656C113.183 234.768 113.085 234.903 113.02 235.062C112.955 235.216 112.922 235.386 112.922 235.573C112.922 235.811 112.987 236.009 113.118 236.168C113.253 236.327 113.431 236.462 113.65 236.574C113.869 236.686 114.119 236.786 114.399 236.875C114.679 236.964 114.964 237.059 115.253 237.162C115.547 237.26 115.834 237.377 116.114 237.512C116.394 237.643 116.644 237.811 116.863 238.016C117.082 238.217 117.257 238.464 117.388 238.758C117.523 239.052 117.591 239.409 117.591 239.829C117.591 240.286 117.512 240.716 117.353 241.117C117.199 241.514 116.97 241.861 116.667 242.16C116.368 242.454 116.002 242.687 115.568 242.86C115.134 243.028 114.637 243.112 114.077 243.112C113.755 243.112 113.438 243.079 113.125 243.014C112.812 242.953 112.511 242.865 112.222 242.748C111.937 242.631 111.669 242.491 111.417 242.328C111.17 242.165 110.948 241.983 110.752 241.782L111.298 240.879C111.349 240.814 111.41 240.76 111.48 240.718C111.555 240.671 111.636 240.648 111.725 240.648C111.842 240.648 111.968 240.697 112.103 240.795C112.238 240.888 112.397 240.993 112.579 241.11C112.766 241.227 112.983 241.334 113.23 241.432C113.482 241.525 113.783 241.572 114.133 241.572C114.67 241.572 115.085 241.446 115.379 241.194C115.673 240.937 115.82 240.571 115.82 240.095C115.82 239.829 115.752 239.612 115.617 239.444C115.486 239.276 115.311 239.136 115.092 239.024C114.873 238.907 114.623 238.809 114.343 238.73C114.063 238.651 113.778 238.564 113.489 238.471C113.2 238.378 112.915 238.266 112.635 238.135C112.355 238.004 112.105 237.834 111.886 237.624C111.667 237.414 111.489 237.153 111.354 236.84C111.223 236.523 111.158 236.133 111.158 235.671C111.158 235.302 111.23 234.943 111.375 234.593C111.524 234.243 111.739 233.933 112.019 233.662C112.304 233.391 112.651 233.174 113.062 233.011C113.473 232.848 113.942 232.766 114.469 232.766C115.066 232.766 115.617 232.859 116.121 233.046C116.625 233.233 117.054 233.494 117.409 233.83L116.947 234.719ZM125.986 240.613C126.089 240.613 126.177 240.653 126.252 240.732L126.994 241.537C126.583 242.046 126.077 242.435 125.475 242.706C124.878 242.977 124.159 243.112 123.319 243.112C122.568 243.112 121.891 242.984 121.289 242.727C120.692 242.47 120.181 242.113 119.756 241.656C119.331 241.199 119.005 240.653 118.776 240.018C118.552 239.383 118.44 238.69 118.44 237.939C118.44 237.178 118.566 236.483 118.818 235.853C119.07 235.218 119.425 234.672 119.882 234.215C120.339 233.758 120.885 233.403 121.52 233.151C122.159 232.894 122.864 232.766 123.634 232.766C124.385 232.766 125.041 232.887 125.601 233.13C126.166 233.368 126.649 233.685 127.05 234.082L126.42 234.957C126.383 235.013 126.334 235.062 126.273 235.104C126.217 235.146 126.138 235.167 126.035 235.167C125.928 235.167 125.818 235.125 125.706 235.041C125.594 234.957 125.452 234.866 125.279 234.768C125.106 234.67 124.887 234.579 124.621 234.495C124.36 234.411 124.026 234.369 123.62 234.369C123.144 234.369 122.705 234.453 122.304 234.621C121.907 234.784 121.564 235.02 121.275 235.328C120.99 235.636 120.766 236.012 120.603 236.455C120.444 236.894 120.365 237.388 120.365 237.939C120.365 238.508 120.444 239.015 120.603 239.458C120.766 239.901 120.986 240.275 121.261 240.578C121.536 240.881 121.861 241.115 122.234 241.278C122.607 241.437 123.009 241.516 123.438 241.516C123.695 241.516 123.926 241.502 124.131 241.474C124.341 241.446 124.532 241.402 124.705 241.341C124.882 241.28 125.048 241.203 125.202 241.11C125.361 241.012 125.517 240.893 125.671 240.753C125.718 240.711 125.767 240.678 125.818 240.655C125.869 240.627 125.925 240.613 125.986 240.613ZM136.96 243H135.063V238.576H130.317V243H128.42V232.878H130.317V237.232H135.063V232.878H136.96V243ZM145.386 232.878V234.376H140.899V237.183H144.434V238.632H140.899V241.495H145.386V243H139.002V232.878H145.386ZM156.002 237.939C156.002 238.681 155.879 239.362 155.631 239.983C155.384 240.604 155.036 241.138 154.588 241.586C154.14 242.034 153.601 242.382 152.971 242.629C152.341 242.876 151.644 243 150.878 243H147.014V232.878H150.878C151.644 232.878 152.341 233.004 152.971 233.256C153.601 233.503 154.14 233.851 154.588 234.299C155.036 234.742 155.384 235.274 155.631 235.895C155.879 236.516 156.002 237.197 156.002 237.939ZM154.077 237.939C154.077 237.384 154.003 236.887 153.853 236.448C153.704 236.005 153.492 235.631 153.216 235.328C152.941 235.02 152.605 234.784 152.208 234.621C151.816 234.458 151.373 234.376 150.878 234.376H148.911V241.502H150.878C151.373 241.502 151.816 241.42 152.208 241.257C152.605 241.094 152.941 240.86 153.216 240.557C153.492 240.249 153.704 239.876 153.853 239.437C154.003 238.994 154.077 238.494 154.077 237.939ZM161.547 241.481C161.911 241.481 162.236 241.42 162.52 241.299C162.81 241.178 163.052 241.007 163.248 240.788C163.449 240.569 163.601 240.303 163.703 239.99C163.811 239.677 163.864 239.327 163.864 238.94V232.878H165.747V238.94C165.747 239.542 165.649 240.1 165.453 240.613C165.262 241.122 164.984 241.563 164.62 241.936C164.256 242.305 163.815 242.594 163.297 242.804C162.779 243.009 162.196 243.112 161.547 243.112C160.899 243.112 160.315 243.009 159.797 242.804C159.279 242.594 158.838 242.305 158.474 241.936C158.115 241.563 157.837 241.122 157.641 240.613C157.45 240.1 157.354 239.542 157.354 238.94V232.878H159.237V238.933C159.237 239.32 159.289 239.67 159.391 239.983C159.499 240.296 159.65 240.564 159.846 240.788C160.042 241.007 160.283 241.178 160.567 241.299C160.857 241.42 161.183 241.481 161.547 241.481ZM169.542 241.446H173.595V243H167.659V232.878H169.542V241.446ZM181.275 232.878V234.376H176.788V237.183H180.323V238.632H176.788V241.495H181.275V243H174.891V232.878H181.275ZM194.507 243H193.051C192.888 243 192.752 242.96 192.645 242.881C192.542 242.797 192.468 242.694 192.421 242.573L191.665 240.508H187.472L186.716 242.573C186.679 242.68 186.604 242.778 186.492 242.867C186.385 242.956 186.252 243 186.093 243H184.63L188.606 232.878H190.531L194.507 243ZM187.955 239.178H191.182L189.95 235.811C189.894 235.662 189.831 235.487 189.761 235.286C189.696 235.081 189.63 234.859 189.565 234.621C189.5 234.859 189.434 235.081 189.369 235.286C189.308 235.491 189.248 235.671 189.187 235.825L187.955 239.178ZM205.214 240.613C205.317 240.613 205.406 240.653 205.48 240.732L206.222 241.537C205.812 242.046 205.305 242.435 204.703 242.706C204.106 242.977 203.387 243.112 202.547 243.112C201.796 243.112 201.119 242.984 200.517 242.727C199.92 242.47 199.409 242.113 198.984 241.656C198.56 241.199 198.233 240.653 198.004 240.018C197.78 239.383 197.668 238.69 197.668 237.939C197.668 237.178 197.794 236.483 198.046 235.853C198.298 235.218 198.653 234.672 199.11 234.215C199.568 233.758 200.114 233.403 200.748 233.151C201.388 232.894 202.092 232.766 202.862 232.766C203.614 232.766 204.269 232.887 204.829 233.13C205.394 233.368 205.877 233.685 206.278 234.082L205.648 234.957C205.611 235.013 205.562 235.062 205.501 235.104C205.445 235.146 205.366 235.167 205.263 235.167C205.156 235.167 205.046 235.125 204.934 235.041C204.822 234.957 204.68 234.866 204.507 234.768C204.335 234.67 204.115 234.579 203.849 234.495C203.588 234.411 203.254 234.369 202.848 234.369C202.372 234.369 201.934 234.453 201.532 234.621C201.136 234.784 200.793 235.02 200.503 235.328C200.219 235.636 199.995 236.012 199.831 236.455C199.673 236.894 199.593 237.388 199.593 237.939C199.593 238.508 199.673 239.015 199.831 239.458C199.995 239.901 200.214 240.275 200.489 240.578C200.765 240.881 201.089 241.115 201.462 241.278C201.836 241.437 202.237 241.516 202.666 241.516C202.923 241.516 203.154 241.502 203.359 241.474C203.569 241.446 203.761 241.402 203.933 241.341C204.111 241.28 204.276 241.203 204.43 241.11C204.589 241.012 204.745 240.893 204.899 240.753C204.946 240.711 204.995 240.678 205.046 240.655C205.098 240.627 205.154 240.613 205.214 240.613ZM216.546 243H215.09C214.927 243 214.791 242.96 214.684 242.881C214.581 242.797 214.507 242.694 214.46 242.573L213.704 240.508H209.511L208.755 242.573C208.718 242.68 208.643 242.778 208.531 242.867C208.424 242.956 208.291 243 208.132 243H206.669L210.645 232.878H212.57L216.546 243ZM209.994 239.178H213.221L211.989 235.811C211.933 235.662 211.87 235.487 211.8 235.286C211.735 235.081 211.669 234.859 211.604 234.621C211.539 234.859 211.473 235.081 211.408 235.286C211.347 235.491 211.287 235.671 211.226 235.825L209.994 239.178ZM219.471 241.446H223.524V243H217.588V232.878H219.471V241.446ZM226.704 241.446H230.757V243H224.821V232.878H226.704V241.446Z" fill="white"/>
<defs>
<linearGradient id="paint0_linear_7852_228330" x1="343" y1="2.53284e-06" x2="303.406" y2="319.589" gradientUnits="userSpaceOnUse">
<stop stop-color="#E6427A" stop-opacity="0.16"/>
<stop offset="0.468066" stop-color="#D39C6E" stop-opacity="0.1"/>
</linearGradient>
<linearGradient id="paint1_linear_7852_228330" x1="80.211" y1="43.4977" x2="197.29" y2="43.4977" gradientUnits="userSpaceOnUse">
<stop stop-color="#BDCCED"/>
<stop offset="0.1841" stop-color="#D5E9FD"/>
<stop offset="0.3992" stop-color="#D7E2F9"/>
<stop offset="0.635417" stop-color="#D5E0F7"/>
<stop offset="0.8695" stop-color="#B4C9F2"/>
<stop offset="1" stop-color="#C1CEE6"/>
</linearGradient>
</defs>
</svg>
