<svg width="9" height="10" viewBox="0 0 9 10" fill="none" xmlns="http://www.w3.org/2000/svg">
<path fill-rule="evenodd" clip-rule="evenodd" d="M8.18251 5.22778V9.31823C8.18251 9.69484 7.87587 10 7.49926 10H0.681771C0.305157 10 0 9.69484 0 9.31823V5.22778C0 4.85117 0.305157 4.54601 0.681771 4.54601H0.909553V3.18256C0.909553 1.43502 2.34448 0 4.09054 0C5.83807 0 7.2731 1.43493 7.2731 3.18256V4.54601H7.49939C7.87601 4.54601 8.18265 4.85117 8.18265 5.22778H8.18251ZM1.69406 4.56386H6.48872V3.22273C6.48872 1.88012 5.41107 0.784443 4.09072 0.784443C2.77192 0.784443 1.69429 1.88003 1.69429 3.22273L1.69406 4.56386Z" fill="#E6427A"/>
</svg>
