<svg width="25" height="24" viewBox="0 0 25 24" fill="none" xmlns="http://www.w3.org/2000/svg">
<path d="M22.1342 12.3054C22.1342 10.6153 20.7821 9.34766 19.1765 9.34766C17.4864 9.34766 16.2188 10.6998 16.2188 12.3054C16.2188 13.9955 17.5709 15.2631 19.1765 15.2631C20.7821 15.3477 22.1342 13.9955 22.1342 12.3054Z" fill="#E6427A"/>
<path d="M8.44319 12.3903C10.8939 12.3903 12.8376 10.4466 12.8376 7.99593C12.8376 5.54522 10.8939 3.60156 8.44319 3.60156C5.99249 3.60156 4.04883 5.54522 4.04883 7.99593C4.04883 10.4466 5.99249 12.3903 8.44319 12.3903Z" fill="#E6427A"/>
<path d="M21.3738 16.1914H17.402C17.6555 16.8675 17.8245 17.5435 17.8245 18.3041V19.4872C17.8245 20.2477 17.571 20.9238 17.1484 21.5153H23.1484C23.909 21.5153 24.5005 20.9238 24.5005 20.1632V19.3182C24.5005 17.628 23.0639 16.1914 21.3738 16.1914Z" fill="#E6427A"/>
<path d="M11.7394 13.6562H5.14789C2.61268 13.6562 0.5 15.7689 0.5 18.3041V19.4872C0.5 20.5858 1.42958 21.5154 2.52817 21.5154H14.3591C15.4577 21.5154 16.3873 20.5858 16.3873 19.4872V18.3041C16.3028 15.7689 14.2746 13.6562 11.7394 13.6562Z" fill="#E6427A"/>
</svg>
