<svg width="15" height="9" viewBox="0 0 15 9" fill="none" xmlns="http://www.w3.org/2000/svg">
<path d="M7.08972 8.99998C6.90444 9.00112 6.72077 8.9633 6.54925 8.88871C6.37773 8.81411 6.22172 8.7042 6.09017 8.56527L0.458946 2.56938C0.193851 2.28712 0.0449219 1.90429 0.0449219 1.50511C0.0449219 1.10593 0.193851 0.723097 0.458946 0.440835C0.724041 0.158573 1.08359 0 1.45849 0C1.83339 0 2.19294 0.158573 2.45803 0.440835L7.08972 5.38745L11.7214 0.455825C11.9907 0.210254 12.3371 0.0819317 12.6915 0.0965035C13.0458 0.111075 13.3819 0.267467 13.6326 0.534427C13.8833 0.801386 14.0302 1.15925 14.0439 1.5365C14.0576 1.91376 13.937 2.28262 13.7064 2.56938L8.07518 8.56527C7.81296 8.8422 7.45904 8.99832 7.08972 8.99998Z" fill="black"/>
</svg>
