<svg width="343" height="269" viewBox="0 0 343 269" fill="none" xmlns="http://www.w3.org/2000/svg">
<rect width="343" height="269" rx="16" fill="url(#paint0_linear_8566_192339)"/>
<path d="M106.018 48.7133H102.872C102.434 46.3257 101.501 44.0721 100.122 42.0746L102.347 39.8508C102.627 39.5701 102.627 39.1162 102.347 38.8366L98.8993 35.3881C98.6193 35.1086 98.1653 35.1086 97.8853 35.3881L95.6605 37.6131C93.6632 36.2343 91.4094 35.301 89.0224 34.8641V31.7175C89.0224 31.3209 88.7014 30.9999 88.3053 30.9999H83.4296C83.0337 30.9999 82.7125 31.3209 82.7125 31.7175V34.8641C80.3256 35.301 78.0717 36.2343 76.0744 37.6131L73.8497 35.3881C73.5696 35.1086 73.1156 35.1086 72.8356 35.3881L69.388 38.8366C69.108 39.1162 69.108 39.5701 69.388 39.8508L71.6126 42.0746C70.2343 44.0721 69.3007 46.3257 68.863 48.7133H65.7169C65.3209 48.7133 64.9998 49.0344 64.9998 49.4298V54.306C64.9998 54.7014 65.3209 55.0224 65.7169 55.0224H68.863C69.3007 57.41 70.2343 59.6637 71.6126 61.6611L69.388 63.8861C69.108 64.1656 69.108 64.6195 69.388 64.9002L72.8356 68.3476C73.1156 68.6272 73.5696 68.6272 73.8497 68.3476L76.0744 66.1227C78.0717 67.5014 80.3256 68.4348 82.7125 68.8728V72.0183C82.7125 72.4148 83.0337 72.7358 83.4296 72.7358H88.3053C88.7014 72.7358 89.0224 72.4148 89.0224 72.0183V68.8728C91.4094 68.4348 93.6632 67.5014 95.6605 66.1227L97.8853 68.3476C98.1653 68.6272 98.6193 68.6272 98.8993 68.3476L102.347 64.9002C102.627 64.6195 102.627 64.1656 102.347 63.8861L100.122 61.6611C101.501 59.6637 102.434 57.41 102.872 55.0224H106.018C106.414 55.0224 106.735 54.7014 106.735 54.306V49.4298C106.735 49.0344 106.414 48.7133 106.018 48.7133ZM85.8674 63.4162C79.4998 63.4162 74.3194 58.236 74.3194 51.8684C74.3194 45.5008 79.4998 40.3196 85.8674 40.3196C92.2351 40.3196 97.4155 45.5008 97.4155 51.8684C97.4155 58.236 92.2351 63.4162 85.8674 63.4162Z" fill="white"/>
<path d="M91.6322 51.8684C91.6322 55.0522 89.0511 57.6333 85.8669 57.6333C82.6828 57.6333 80.1016 55.0522 80.1016 51.8684C80.1016 48.6836 82.6828 46.1025 85.8669 46.1025C89.0511 46.1025 91.6322 48.6836 91.6322 51.8684Z" fill="white"/>
<path d="M147.064 176.402L91.9019 217.657L31.1556 136.435L86.3167 95.1793L147.064 176.402Z" fill="white"/>
<path d="M64.7525 125.822L66.487 122.136L92.7113 133.934L90.9764 137.619L64.7525 125.822Z" fill="#F2F2F2"/>
<path d="M74.5701 143.566L70.8073 141.874L82.8955 116.189L86.6587 117.882L74.5701 143.566Z" fill="#F2F2F2"/>
<path d="M89.9351 185.037C89.9083 184.954 96.4981 182.77 104.653 180.159C112.811 177.547 119.443 175.498 119.47 175.582C119.496 175.665 112.907 177.849 104.749 180.46C96.5955 183.072 89.9615 185.121 89.9351 185.037Z" fill="#F2F2F2"/>
<path d="M68.2386 184.305C68.2118 184.222 79.1604 180.642 92.6898 176.31C106.224 171.977 117.213 168.533 117.24 168.617C117.267 168.7 106.32 172.278 92.7867 176.611C79.2567 180.943 68.2652 184.388 68.2386 184.305Z" fill="#F2F2F2"/>
<path d="M65.9237 177.074C65.897 176.992 76.8467 173.412 90.3755 169.08C103.91 164.747 114.899 161.304 114.926 161.387C114.952 161.47 104.006 165.049 90.4717 169.382C76.9428 173.713 65.9503 177.158 65.9237 177.074Z" fill="#F2F2F2"/>
<path d="M63.6078 169.844C63.5811 169.761 74.5297 166.181 88.0597 161.85C101.593 157.517 112.583 154.073 112.61 154.156C112.637 154.239 101.69 157.818 88.1558 162.151C74.6264 166.483 63.6344 169.928 63.6078 169.844Z" fill="#F2F2F2"/>
<path d="M61.2936 162.614C61.267 162.53 72.2154 158.951 85.7448 154.619C99.279 150.287 110.268 146.842 110.295 146.925C110.322 147.009 99.3759 150.588 85.8416 154.921C72.3123 159.252 61.3202 162.697 61.2936 162.614Z" fill="#F2F2F2"/>
<path d="M86.458 94.9243L95.3446 107.04L74.1176 104.291L86.458 94.9243Z" fill="#F2F2F2"/>
<path d="M189.189 246.257L110.868 246.212C101.448 246.207 93.8151 238.842 93.8167 229.76L93.8554 40.4467C93.857 31.3598 101.501 23.9954 110.926 24.0004L189.248 24.0452C198.668 24.0502 206.3 31.4154 206.299 40.4973L206.26 229.811C206.258 238.899 198.615 246.262 189.189 246.257Z" fill="#EEE9E6"/>
<path d="M189.943 27.1701L174.454 27.1606C172.376 27.1598 170.692 28.8765 170.692 30.9942L170.691 33.7349C170.691 35.8534 169.007 36.5286 166.93 36.5272L136.738 36.5103C134.662 36.5088 132.978 35.8321 132.978 33.7136L132.979 30.973C132.979 28.8545 131.296 27.1356 129.219 27.1348L123.771 27.1312L110.215 27.1238C103.482 27.1202 98.0213 32.4428 98.0205 39.0113L97.9817 229.718C97.9801 236.283 103.433 241.606 110.162 241.61L189.89 241.656C196.623 241.66 202.083 236.337 202.085 229.769L202.123 39.0612C202.124 32.4972 196.672 27.1738 189.943 27.1701Z" fill="white"/>
<rect x="116.728" y="50.0354" width="67.692" height="56.2365" rx="8" fill="url(#paint1_linear_8566_192339)"/>
<path d="M132.893 135.806H193.792V132.307H132.893V135.806Z" fill="#F8EDE3"/>
<path d="M132.893 144.624H193.792V141.125H132.893V144.624Z" fill="#F8EDE3"/>
<path d="M168.873 153.443H132.893V149.945H168.873V153.443Z" fill="#F8EDE3"/>
<path d="M127.449 149.443C127.449 151.652 125.658 153.443 123.449 153.443H110.312C108.103 153.443 106.312 151.652 106.312 149.443V136.307C106.312 134.098 108.103 132.307 110.312 132.307H123.449C125.658 132.307 127.449 134.098 127.449 136.307V149.443Z" fill="#F8EDE3"/>
<path d="M111.706 138.873L113.065 137.531L122.698 146.957L121.339 148.298L111.706 138.873Z" fill="#9C9FA0"/>
<path d="M113.159 148.266L111.777 146.914L121.243 137.565L122.625 138.918L113.159 148.266Z" fill="#9C9FA0"/>
<path d="M190.744 206.324H109.362C107.677 206.324 106.313 204.976 106.313 203.313V174.892C106.313 173.229 107.677 171.881 109.362 171.881H190.744C192.429 171.881 193.792 173.229 193.792 174.892V203.313C193.792 204.976 192.429 206.324 190.744 206.324Z" fill="#F8ECE3"/>
<path d="M188.102 182.452H112.057C111.373 182.452 110.819 181.903 110.819 181.227V178.949C110.819 178.272 111.373 177.724 112.057 177.724H188.102C188.786 177.724 189.342 178.272 189.342 178.949V181.227C189.342 181.903 188.786 182.452 188.102 182.452Z" fill="white"/>
<path d="M188.074 191.466H112.031C111.346 191.466 110.791 190.918 110.791 190.243V187.965C110.791 187.287 111.346 186.74 112.031 186.74H188.074C188.76 186.74 189.314 187.287 189.314 187.965V190.243C189.314 190.918 188.76 191.466 188.074 191.466Z" fill="white"/>
<path d="M153.612 200.481H111.689C111.178 200.481 110.764 200.072 110.764 199.567V196.669C110.764 196.164 111.178 195.755 111.689 195.755H153.612C154.122 195.755 154.536 196.164 154.536 196.669V199.567C154.536 200.072 154.122 200.481 153.612 200.481Z" fill="white"/>
<path d="M322.928 246.854H23V245.812H322.928V246.854Z" fill="#373660"/>
<path d="M236.912 241.427L239.152 242.513C239.152 242.513 248.883 224.949 250.082 209.495C250.296 206.736 250.225 204.063 249.761 201.594C249.761 201.594 249.857 200.888 250.023 199.637C250.1 199.053 250.194 198.353 250.303 197.547C250.62 195.188 251.055 191.962 251.553 188.286C252.698 179.828 254.18 169.016 255.334 161.069L254.729 160.815L248.198 158.074L246.848 152.493L241.983 150.828C241.983 150.828 240.898 153.593 239.926 166.66C239.747 168.374 239.583 170.263 239.462 172.314C239.082 178.568 239.054 186.329 239.924 195.201C240.147 197.471 240.429 199.816 240.778 202.225C241.034 203.992 241.073 206.398 240.964 209.161C240.475 221.793 236.912 241.427 236.912 241.427Z" fill="#F5AF9A"/>
<path d="M240.079 152.677L240.334 149.952C244.615 151.367 256.052 146.002 256.052 146.002C256.052 146.002 260.199 150.535 259.655 161.398C259.388 166.701 258.902 189.232 258.397 195.9C258.212 198.316 258.051 200.035 257.987 200.723C257.985 200.726 257.985 200.728 257.985 200.73C257.965 200.938 258.025 201.137 258.11 201.319C258.856 202.894 259.472 204.534 259.98 206.213C264.957 222.699 259.213 243.003 259.213 243.003L257.724 242.255C257.724 242.255 254.457 219.66 251.802 209.679C251.352 207.985 250.919 206.655 250.521 205.86C249.369 203.544 248.298 199.757 247.324 195.255C245.488 186.743 244.007 175.671 243.023 167.124C242.887 167.133 240.079 152.677 240.079 152.677Z" fill="#F5AF9A"/>
<path d="M212.543 137.319L212.854 139.982C212.854 139.982 212.992 139.982 213.234 139.959C213.994 139.893 215.846 139.762 217.936 139.476C221.083 139.079 224.819 138.375 226.306 137.209C228.569 135.449 232.287 130.057 234.708 124.666C234.778 124.534 234.829 124.401 234.881 124.27C236.142 121.409 237.025 118.57 237.093 116.304C237.146 114.917 237.025 113.73 236.799 112.695C236.506 111.331 236.021 110.253 235.52 109.438C235.451 109.306 235.382 109.174 235.277 109.064C234.447 107.81 233.635 107.282 233.635 107.282C233.22 107.062 232.772 107.326 232.305 107.964V107.986C231.923 108.492 231.509 109.262 231.111 110.23C231.093 110.253 231.077 110.274 231.077 110.297C230.99 110.494 230.903 110.714 230.8 110.957C230.766 111.001 230.749 111.067 230.731 111.111C230.541 111.617 230.351 112.145 230.161 112.695C228.034 118.593 225.769 127.527 223.884 130.19C223.072 131.332 219.356 133.577 216.398 135.251C214.272 136.438 212.543 137.319 212.543 137.319Z" fill="#F5AF9A"/>
<path d="M231.405 111.586C232.692 112.362 238.372 114.576 240.252 114.709C247.303 115.21 254.361 108.553 254.651 103.232C253.634 102.755 246.783 101.44 246.27 101.475C245.77 101.511 245.25 101.577 244.818 101.646C243.956 101.062 242.406 98.2235 241.51 93.475L241.206 93.6579L236.118 96.76C236.118 96.76 236.658 98.9075 237.059 100.962C237.37 102.57 237.593 104.124 237.407 104.558C237.006 104.77 234.942 106.216 234.942 106.216C234.942 106.216 236.765 104.905 236.763 104.91C236.712 105.079 231.988 107.047 231.405 111.586Z" fill="#F5AF9A"/>
<path d="M235.623 99.2175C235.623 99.2175 242.944 96.796 241.817 90.3027C240.694 83.8093 240.88 79.1237 236.16 80.3954C231.439 81.6672 230.964 84.4652 230.97 86.7629C230.977 89.061 233.691 99.6801 235.623 99.2175Z" fill="#F5AF9A"/>
<path d="M233.912 246.056H240.865C241.36 245.271 242.407 243.314 243.292 241.857L243.515 246.056H244.633L244.796 239.01L244.807 238.622C244.803 238.579 244.803 238.533 244.799 238.49C244.678 236.508 243.174 233.616 242.982 233.251C242.97 233.224 242.963 233.212 242.963 233.212C242.963 233.212 242.951 233.212 242.933 233.219C242.906 233.228 242.909 233.212 242.86 233.251C242.629 233.441 242.071 234.163 241.326 236.605C240.684 238.727 239.735 241.065 238.953 241.566C238.413 241.91 237.574 241.857 237.101 241.789C237.079 241.785 237.056 241.783 237.029 241.778H237.026C236.893 241.757 236.799 241.737 236.765 241.728L236.75 241.725C236.75 241.725 233.862 243.519 233.844 244.145C233.832 244.55 233.878 245.578 233.912 246.056Z" fill="black"/>
<path d="M251.553 245.66H258.785C259.3 244.847 260.389 242.823 261.308 241.315L261.54 245.66H262.703L262.872 238.37L262.884 237.97C262.88 237.925 262.88 237.877 262.876 237.833C262.751 235.783 261.186 232.791 260.986 232.413C260.974 232.385 260.966 232.372 260.966 232.372C260.966 232.372 260.954 232.372 260.935 232.38C260.907 232.389 260.872 232.409 260.821 232.45C260.581 232.647 260.039 233.356 259.264 235.883C258.596 238.078 257.61 240.496 256.796 241.014C256.234 241.371 255.362 241.315 254.87 241.245C254.847 241.242 254.823 241.239 254.796 241.234H254.792C254.654 241.212 254.556 241.192 254.52 241.182L254.505 241.179C254.505 241.179 251.502 243.035 251.482 243.683C251.471 244.102 251.518 245.165 251.553 245.66Z" fill="black"/>
<path d="M312.294 249.241C301.309 249.261 279.144 250.465 275.202 243.871C272.181 238.826 272.912 231.98 266.639 231.311C255.443 230.12 253.415 221.983 254.769 213.005C256.311 202.763 256.311 194.735 248.634 192.796C238.802 190.315 237.066 174.929 237.066 174.929C236.963 174.202 235.346 159.462 235.215 158.545C234.672 154.82 234.381 151.294 234.307 148.001C234.13 140.564 235.032 134.31 236.466 129.589C236.129 126.204 235.323 121.524 234.072 120.393C233.558 119.929 232.953 119.13 232.45 118.143C231.439 116.142 230.868 113.372 232.381 111.065C232.456 110.956 232.53 110.849 232.61 110.742C233.415 109.678 235.215 108.097 235.266 108.048L235.272 108.047L238.608 110.323C238.608 110.323 240.35 109.304 243.247 108.931C244.218 108.806 245.32 108.752 246.531 108.835C250.839 109.132 256.786 113.488 256.786 113.488C256.786 113.488 252.215 126.161 253.375 129.425H253.381C253.381 129.425 254.695 130.565 256.311 132.683C257.151 133.779 258.076 135.139 258.945 136.737C260.67 139.92 262.178 144.057 262.361 148.969C262.515 153.043 263.618 161.78 264.229 167.035C270.644 222.085 314.116 240.823 323.896 248.723C324.81 249.464 319.623 249.229 312.294 249.241Z" fill="#F97CAA"/>
<path d="M220.014 109.124C220.36 115.224 225.047 118.085 228.137 117.818C228.151 117.818 228.164 117.815 228.175 117.813C231.239 117.519 233.375 114.365 234.362 112.09C235.348 109.816 236.094 107.728 236.43 105.76C236.58 104.887 236.864 103.361 236.86 102.594C237.513 101.695 237.259 100.188 236.43 99.1668C234.622 96.9443 231.163 93.1245 231.146 89.7034C231.144 89.6724 231.144 89.6415 231.144 89.6105C231.144 88.6109 231.232 87.6268 231.412 86.6914C232.084 83.2238 235.537 81.7554 236.676 81.364C236.746 81.3375 236.809 81.3176 236.86 81.3021C236.976 81.2645 237.041 81.2468 237.041 81.2468L237.052 81.2026L237.082 81.3574C238.453 81.7466 239.372 83.4428 239.975 86.0833L239.977 86.0943C240.146 86.8307 240.289 87.6379 240.41 88.5136C240.805 91.3509 240.971 91.6217 241.015 95.5603C241.242 97.9718 241.12 101.903 241.498 103.349C242.54 101.535 251.255 93.2682 245.917 82.7395C244.68 80.2981 243.113 79.0508 241.498 78.5975C239.539 78.0424 237.777 78.467 237.694 78.4891H237.69L237.673 78.5533C237.47 78.0955 235.271 73.4691 230.332 74.608C225.136 75.8022 221.97 80.7625 221.913 86.2093C221.827 94.3098 227.703 96.665 226 98.9119C224.022 101.519 219.749 104.458 220.014 109.124Z" fill="#10215F"/>
<path d="M126.258 83.9346C121.967 91.1065 120.624 99.5695 122.478 107.764C124.331 115.961 129.158 122.906 136.07 127.323C142.981 131.74 151.15 133.101 159.071 131.152C166.992 129.205 173.719 124.182 178.01 117.01C182.3 109.838 183.643 101.375 181.789 93.1806C179.937 84.9859 175.11 78.0389 168.198 73.6219C161.286 69.2049 153.117 67.8439 145.196 69.7926C137.275 71.7395 130.548 76.7627 126.258 83.9346ZM180.873 118.841C176.107 126.807 168.638 132.386 159.84 134.55C151.042 136.712 141.969 135.203 134.291 130.296C126.614 125.39 121.253 117.674 119.196 108.572C117.136 99.4705 118.628 90.0704 123.394 82.1039C128.16 74.139 135.629 68.5592 144.427 66.3967C153.225 64.2325 162.299 65.744 169.976 70.6504C177.654 75.5567 183.015 83.2708 185.072 92.3726C187.131 101.476 185.639 110.874 180.873 118.841Z" fill="#6F94DC"/>
<path d="M256.494 162.894L252.793 169.082C251.766 170.799 249.593 171.333 247.938 170.276L180.16 126.958C178.506 125.9 177.998 123.652 179.025 121.935L182.726 115.747C183.753 114.031 185.926 113.497 187.581 114.554L255.36 157.873C257.013 158.93 257.521 161.178 256.494 162.894Z" fill="#4F5285"/>
<path d="M256.491 162.905L252.79 169.093C251.763 170.81 249.59 171.344 247.935 170.287L180.156 126.969C178.503 125.911 177.995 123.663 179.022 121.946L182.723 115.758C183.75 114.043 185.923 113.508 187.578 114.566L255.357 157.884C257.01 158.941 257.518 161.189 256.491 162.905Z" fill="#6F94DC"/>
<path d="M231.286 143.124L231.888 145.965C231.888 145.965 232.644 145.788 233.848 145.499C234.209 145.41 234.417 145.344 234.417 145.344C235.38 145.099 236.532 144.767 237.789 144.412H237.808C239.959 143.745 242.366 142.947 244.397 142.058C245.824 141.414 247.064 140.727 247.908 140.038C247.994 139.972 248.061 139.906 248.147 139.817C250.162 137.931 252.554 132.381 254.411 126.431C254.671 125.61 254.911 124.789 255.152 123.99C256.012 121.015 256.7 118.086 257.114 115.556C257.372 114.046 257.544 112.669 257.58 111.538C257.595 111.138 257.613 110.761 257.595 110.405C257.561 103.968 255.083 103.08 255.083 103.08C255.032 103.058 254.98 103.036 254.911 103.014C254.48 102.925 254.033 103.302 253.569 104.035C252.984 104.945 252.365 106.432 251.729 108.23C250.747 111.093 249.715 114.801 248.751 118.486C248.216 120.504 247.7 122.525 247.186 124.389C246.892 125.521 246.6 126.587 246.324 127.564C245.791 129.429 245.31 130.937 244.88 131.892C244.603 132.515 243.812 133.38 242.762 134.356C240.939 136.066 238.272 138.131 235.949 139.817C234.985 140.528 234.073 141.171 233.317 141.703C232.094 142.569 231.286 143.124 231.286 143.124Z" fill="#F5AF9A"/>
<path d="M222.01 147.393C223.213 147.937 224.957 149.944 227.557 148.569C229.419 147.602 231.975 146.041 232.94 145.71L232.294 143.338C232.294 143.338 232.374 143.29 231.721 142.763C231.046 142.971 227.539 144.052 225.899 143.681C224.056 143.252 221.105 146.016 221.105 146.016C221.105 146.016 220.806 146.869 222.01 147.393Z" fill="#FFB27D"/>
<path d="M244.06 57.2134V36.9881H264.285V57.2134H244.06Z" fill="#E8E8E8"/>
<path d="M266.547 46.0249V34.5059H278.066V46.0249H266.547Z" fill="#E8E8E8"/>
<path d="M277.01 44.9702H267.601V35.5615H277.01V44.9702Z" fill="#F7F7F7"/>
<path d="M266.547 60.2056V48.6881H278.066V60.2056H266.547Z" fill="#E8E8E8"/>
<path d="M277.01 59.1519H267.601V49.7416H277.01V59.1519Z" fill="#F7F7F7"/>
<path d="M262.434 55.3613H245.913V38.8408H262.434V55.3613Z" fill="#F7F7F7"/>
<path d="M256.635 49.2234H251.712V44.3004H256.635V49.2234Z" fill="#D1D1D1"/>
<path d="M274.767 42.7278H269.844V37.8048H274.767V42.7278Z" fill="#D1D1D1"/>
<path d="M274.767 56.9082H269.844V51.9853H274.767V56.9082Z" fill="#D1D1D1"/>
<path d="M58.9961 243.881C58.98 243.883 58.9296 243.655 58.8472 243.242C58.7582 242.785 58.6428 242.196 58.5047 241.488C58.2419 240.013 57.8248 237.917 58.1402 235.599C58.4433 233.292 59.3619 231.319 60.3246 230.141C60.7987 229.545 61.2521 229.123 61.5879 228.864C61.7504 228.727 61.8937 228.643 61.9843 228.579C62.0774 228.518 62.1286 228.489 62.1331 228.495C62.1694 228.536 61.3546 229.038 60.4542 230.24C59.5421 231.422 58.6675 233.361 58.369 235.629C58.0585 237.9 58.4429 239.978 58.6653 241.46C58.7844 242.204 58.8806 242.808 58.9359 243.227C58.9912 243.645 59.0113 243.878 58.9961 243.881Z" fill="#9C9C9C"/>
<path d="M49.0234 218.211C49.0308 218.208 49.0766 218.294 49.1576 218.463C49.2463 218.655 49.3601 218.9 49.5006 219.204C49.7949 219.851 50.2088 220.79 50.7101 221.955C51.7134 224.285 53.0547 227.524 54.4546 231.133C55.854 234.744 57.047 238.041 57.8767 240.438C58.2919 241.637 58.6196 242.61 58.8374 243.285C58.9385 243.604 59.0203 243.862 59.0837 244.064C59.1377 244.243 59.1624 244.338 59.1548 244.341C59.1476 244.343 59.108 244.253 59.0398 244.079C58.9657 243.881 58.8705 243.628 58.7527 243.314C58.4997 242.621 58.1503 241.664 57.7229 240.493C56.8543 238.11 55.6379 234.825 54.2395 231.217C52.8405 227.61 51.5242 224.364 50.5598 222.019C50.0858 220.865 49.6988 219.923 49.4183 219.24C49.2938 218.929 49.1933 218.677 49.1148 218.482C49.0479 218.308 49.0164 218.214 49.0234 218.211Z" fill="#9C9C9C"/>
<path d="M47.9475 213.528C49.5925 213.586 51.1362 214.479 52.2213 215.717C53.3062 216.955 53.9713 218.512 54.3966 220.101C55.2198 223.178 54.7139 226.809 53.8365 229.87C50.5063 228.68 48.4525 225.128 47.524 223.26C46.0562 220.309 45.1956 214.083 47.9475 213.528Z" fill="#F97CAA"/>
<path d="M58.6307 233.6C57.5798 232.091 57.5552 229.993 58.386 228.352C59.2166 226.712 60.8122 225.529 62.5698 224.989C63.3824 224.74 64.3255 224.634 65.0324 225.106C65.6931 225.548 65.9787 226.414 65.8934 227.205C65.8085 227.995 65.4077 228.718 64.9357 229.357C63.3164 231.55 61.347 233.375 58.6307 233.6Z" fill="#F97CAA"/>
<path d="M55.0427 237.078C53.0786 233.736 49.4118 231.457 45.5459 231.177C44.5613 231.105 43.3773 231.271 42.9383 232.155C42.4984 233.041 43.0865 234.089 43.7573 234.815C46.5479 237.839 51.2682 238.893 55.0792 237.343" fill="#F97CAA"/>
<path d="M47.044 233.813C47.0451 233.797 47.264 233.806 47.6604 233.836C47.8586 233.85 48.1017 233.867 48.3797 233.92C48.6567 233.971 48.9796 234.001 49.323 234.097C49.6686 234.182 50.0504 234.267 50.4453 234.409C50.8479 234.528 51.2614 234.7 51.6959 234.884C52.5541 235.274 53.4647 235.784 54.3314 236.447C55.1918 237.118 55.9189 237.868 56.5097 238.603C56.7942 238.98 57.0653 239.336 57.277 239.7C57.5109 240.049 57.6846 240.399 57.8479 240.716C58.0227 241.027 58.1257 241.335 58.2397 241.593C58.3552 241.851 58.4269 242.084 58.4845 242.274C58.6025 242.654 58.66 242.865 58.6448 242.87C58.5956 242.887 58.359 242.036 57.7029 240.791C57.5324 240.483 57.3532 240.142 57.1159 239.803C56.9007 239.45 56.6275 239.103 56.3438 238.736C55.7533 238.02 55.0356 237.289 54.1904 236.63C53.339 235.979 52.4482 235.472 51.6084 235.078C51.1832 234.892 50.7786 234.715 50.3841 234.59C49.9978 234.442 49.6234 234.349 49.2844 234.255C47.919 233.91 47.0389 233.863 47.044 233.813Z" fill="#9C9C9C"/>
<defs>
<linearGradient id="paint0_linear_8566_192339" x1="399" y1="-27.5" x2="340.825" y2="311.49" gradientUnits="userSpaceOnUse">
<stop stop-color="#DB3B72" stop-opacity="0.06"/>
<stop offset="0.994987" stop-color="#D39C6E" stop-opacity="0.06"/>
</linearGradient>
<linearGradient id="paint1_linear_8566_192339" x1="184.42" y1="50.0354" x2="176.444" y2="113.748" gradientUnits="userSpaceOnUse">
<stop stop-color="#E6427A" stop-opacity="0.16"/>
<stop offset="1" stop-color="#D39C6E" stop-opacity="0.1"/>
</linearGradient>
</defs>
</svg>
