<svg width="343" height="269" viewBox="0 0 343 269" fill="none" xmlns="http://www.w3.org/2000/svg">
<rect width="343" height="269" rx="16" fill="url(#paint0_linear_3064_136264)"/>
<path d="M308.41 162.409C308.755 160.028 305.376 158.07 302.842 157.84C301.652 157.724 300.385 157.916 299.233 157.532C296.776 156.688 295.778 153.463 293.359 152.464C291.554 151.696 289.481 152.387 287.715 153.271C285.948 154.154 284.221 155.267 282.262 155.382C280.573 155.497 278.73 154.845 277.233 155.689C276.119 156.304 275.543 157.571 274.507 158.339C273.508 159.068 272.203 159.222 270.974 159.299C269.746 159.375 268.44 159.375 267.327 159.913C266.213 160.412 265.253 161.641 265.484 162.831L308.41 162.409Z" fill="#E8E7E7"/>
<path d="M282.336 203.609L273.773 240.699H277.383L285.945 203.955L282.336 203.609Z" fill="#E0E0E0"/>
<path d="M297.926 203.609L306.488 240.699H309.905L301.612 203.609H297.926Z" fill="#E0E0E0"/>
<path d="M276.578 175.734L281.416 201.267H286.945L281.761 175.734H276.578Z" fill="#E0E0E0"/>
<path d="M191.84 203.609L184.891 240.699H188.423L195.718 203.609H191.84Z" fill="#E0E0E0"/>
<path d="M206.504 203.609L214.452 240.507H217.984L210.267 203.609H206.504Z" fill="#E0E0E0"/>
<path d="M186.078 175.734L190.954 201.267H196.483L191.261 175.734H186.078Z" fill="#E0E0E0"/>
<path d="M175.137 173.43L176.135 178.076H287.097L285.83 173.43H175.137Z" fill="#E8E7E7"/>
<path d="M177.25 182.453L178.44 187.099H288.673L287.675 182.453H177.25Z" fill="#E8E7E7"/>
<path d="M179.438 191.781L180.551 196.427H290.438L289.402 191.781H179.438Z" fill="#E8E7E7"/>
<path d="M306.332 201.266H187.844V205.911H306.332V201.266Z" fill="#E8E7E7"/>
<path d="M258.34 143.787C256.459 143.787 254.77 142.827 253.81 141.176C252.85 139.525 252.85 137.605 253.81 135.954L268.784 109.845C269.705 108.194 271.395 107.234 273.315 107.234C275.196 107.234 276.885 108.194 277.845 109.845L292.973 135.877C293.933 137.528 293.933 139.448 292.973 141.099C292.051 142.75 290.362 143.71 288.442 143.71L258.34 143.787ZM273.315 108.77C271.971 108.77 270.78 109.461 270.128 110.613L255.154 136.722C254.501 137.874 254.501 139.256 255.154 140.37C255.806 141.521 256.997 142.174 258.302 142.174L288.404 142.097C289.709 142.097 290.9 141.406 291.552 140.254C292.205 139.102 292.205 137.72 291.552 136.607L276.425 110.575C275.81 109.461 274.62 108.77 273.315 108.77Z" fill="#E8E7E7"/>
<path d="M270.357 120.093L271.049 129.846C271.087 130.652 271.74 131.266 272.546 131.305C273.391 131.343 274.12 130.729 274.197 129.884L275.195 120.093C275.272 119.364 274.696 118.711 273.928 118.711L271.548 118.749C270.857 118.788 270.319 119.364 270.357 120.093Z" fill="#E8E7E7"/>
<path d="M275.195 136.761C274.811 138.028 273.467 138.68 272.2 138.296C270.933 137.912 270.28 136.569 270.664 135.302C271.048 134.035 272.392 133.382 273.659 133.766C274.926 134.15 275.579 135.494 275.195 136.761Z" fill="#E8E7E7"/>
<path d="M276.195 200.648C278.077 213.933 279.92 227.218 281.801 240.541L283.26 240.58C282.3 227.064 281.34 213.242 276.195 200.648Z" fill="#F97CAA"/>
<path d="M291.743 198.805C287.827 203.105 286.253 208.979 285.254 214.7C283.834 222.802 283.719 232.362 284.141 240.617L286.176 240.656C285.37 226.449 287.289 212.281 291.743 198.805Z" fill="#F97CAA"/>
<path d="M277.231 224.263C276.77 222.305 276.271 220.27 275.158 218.58C273.622 216.315 271.164 214.856 268.669 213.743C266.173 212.629 263.562 211.746 261.297 210.172C263.831 214.319 269.513 215.394 272.432 219.272C273.891 221.191 274.466 223.61 275.042 225.952C276.271 231.059 277.039 235.474 278.268 240.543H279.919C279.343 235.014 278.46 229.677 277.231 224.263Z" fill="#F97CAA"/>
<path d="M287.676 240.582C287.676 240.582 289.096 224.725 290.133 221.845C291.17 218.927 300.999 210.903 300.922 211.287C300.845 211.671 293.55 220.463 292.514 222.268C291.477 224.072 289.672 240.621 289.672 240.621H287.676V240.582Z" fill="#F97CAA"/>
<path d="M241.217 224.029C241.985 224.298 242.599 224.989 242.945 225.757C243.291 226.525 243.367 227.369 243.329 228.214C243.252 229.827 242.446 231.516 241.563 232.86C240.142 231.785 239.681 229.75 239.528 228.675C239.259 227.024 239.797 223.875 241.217 224.029Z" fill="#F97CAA"/>
<path d="M243.289 235.356C243.02 234.472 243.327 233.436 243.98 232.783C244.632 232.13 245.592 231.785 246.514 231.823C246.936 231.823 247.435 231.938 247.704 232.246C247.973 232.553 247.973 233.013 247.781 233.397C247.627 233.781 247.32 234.05 246.975 234.28C245.861 235.087 244.632 235.663 243.289 235.356Z" fill="#F97CAA"/>
<path d="M241.867 240.388C241.867 240.388 241.867 240.273 241.906 240.043C241.944 239.813 241.982 239.505 242.021 239.16C242.136 238.392 242.251 237.317 242.75 236.242C243.249 235.167 244.017 234.36 244.632 233.938C244.939 233.708 245.246 233.593 245.438 233.516C245.553 233.477 245.63 233.439 245.668 233.439C245.707 233.439 245.745 233.401 245.745 233.439C245.745 233.477 245.284 233.593 244.67 234.015C244.056 234.437 243.326 235.244 242.827 236.28C242.328 237.317 242.174 238.392 242.059 239.16C242.021 239.544 241.944 239.851 241.906 240.043C241.906 240.273 241.867 240.388 241.867 240.388Z" fill="#F97CAA"/>
<path d="M241.023 226.445C241.023 226.445 241.023 226.484 241.062 226.599C241.062 226.714 241.1 226.829 241.1 227.021C241.139 227.367 241.215 227.904 241.254 228.519C241.369 229.786 241.523 231.552 241.638 233.548C241.753 235.507 241.83 237.273 241.868 238.578C241.868 239.231 241.907 239.73 241.907 240.114C241.907 240.268 241.907 240.421 241.907 240.536C241.907 240.613 241.907 240.69 241.907 240.69C241.907 240.69 241.907 240.652 241.907 240.536C241.907 240.421 241.907 240.306 241.868 240.114C241.868 239.73 241.83 239.231 241.791 238.578C241.753 237.311 241.676 235.507 241.523 233.548C241.407 231.59 241.254 229.824 241.177 228.519C241.139 227.904 241.1 227.367 241.062 226.983C241.062 226.829 241.023 226.676 241.023 226.561C241.023 226.484 241.023 226.445 241.023 226.445Z" fill="#F97CAA"/>
<path d="M241.024 236.509C240.602 234.59 239.181 232.939 237.338 232.209C236.877 232.017 236.263 231.902 235.917 232.286C235.572 232.631 235.687 233.246 235.917 233.706C236.8 235.588 238.912 236.817 240.985 236.663" fill="#F97CAA"/>
<path d="M237.645 233.664C237.645 233.664 237.76 233.702 237.952 233.779C238.028 233.818 238.144 233.856 238.297 233.933C238.412 234.01 238.566 234.048 238.72 234.163C238.873 234.24 239.027 234.355 239.219 234.47C239.411 234.586 239.564 234.739 239.756 234.893C240.102 235.2 240.486 235.584 240.793 236.045C241.1 236.505 241.33 236.966 241.522 237.427C241.599 237.657 241.676 237.849 241.714 238.08C241.791 238.272 241.791 238.463 241.83 238.655C241.868 238.847 241.868 239.001 241.868 239.155C241.868 239.308 241.868 239.423 241.868 239.539C241.868 239.731 241.868 239.846 241.868 239.846C241.83 239.846 241.868 239.385 241.753 238.694C241.714 238.502 241.676 238.31 241.638 238.118C241.599 237.926 241.522 237.696 241.446 237.465C241.254 237.043 241.023 236.582 240.716 236.121C240.409 235.661 240.063 235.277 239.718 234.97C239.526 234.816 239.372 234.662 239.219 234.547C239.065 234.432 238.873 234.317 238.758 234.202C238.067 233.856 237.645 233.702 237.645 233.664Z" fill="#F97CAA"/>
<path d="M311.489 240.819C311.489 240.879 252.924 240.998 180.67 240.998C108.416 240.998 49.8516 240.938 49.8516 240.819C49.8516 240.7 108.416 240.641 180.67 240.641C252.924 240.641 311.489 240.7 311.489 240.819Z" fill="#263238"/>
<path d="M210.703 228.859L139.248 228.794C130.688 228.794 123.684 222.105 123.684 213.937V42.857C123.684 34.6245 130.688 28 139.248 28L210.703 28.0643C219.263 28.0643 226.267 34.7532 226.267 42.9213V214.002C226.267 222.17 219.334 228.859 210.703 228.859Z" fill="#4E5675"/>
<path d="M138.986 221.412H138.986L211.351 221.476L138.986 221.412ZM138.986 221.412C133.132 221.412 128.43 216.914 128.43 211.493V44.5286C128.43 39.0449 133.13 34.6094 138.986 34.6094H151.262H156.215C157.89 34.6094 159.161 35.8772 159.161 37.4538V39.8335C159.161 41.9939 160.984 43.6779 163.107 43.6779H190.531C192.733 43.6779 194.477 41.9872 194.477 39.8335V37.4538C194.477 35.8839 195.814 34.6094 197.423 34.6094H211.494C217.351 34.6094 222.043 39.0429 221.907 44.5806L221.907 44.5806M138.986 221.412L221.907 44.5806M221.907 44.5806V44.5929M221.907 44.5806V44.5929M221.907 44.5929V211.557C221.907 217.04 217.207 221.476 211.351 221.476L221.907 44.5929Z" fill="white" stroke="white"/>
<circle cx="146.839" cy="148.273" r="7.71791" fill="#E8E7E7"/>
<mask id="mask0_3064_136264" style="mask-type:alpha" maskUnits="userSpaceOnUse" x="141" y="63" width="68" height="61">
<rect x="141.871" y="63.5391" width="65.8885" height="59.0863" rx="15.5" fill="#C4C4C4" stroke="#F7F7F7"/>
</mask>
<g mask="url(#mask0_3064_136264)">
<rect x="142.371" y="64.0391" width="64.8885" height="58.0863" rx="15" fill="white" stroke="#F0DACA" stroke-width="2"/>
<path d="M142.177 121.771L162.981 95.3473L183.785 121.771H142.177Z" fill="#F0DACA" stroke="#F0DACA"/>
<path d="M177.756 121.768L192.566 102.295L207.377 121.768H177.756Z" fill="#F0DACA" stroke="#F0DACA"/>
<path d="M199.527 78.7571C199.527 83.0267 195.656 86.5768 190.765 86.5768C185.875 86.5768 182.004 83.0267 182.004 78.7571C182.004 74.4876 185.875 70.9375 190.765 70.9375C195.656 70.9375 199.527 74.4876 199.527 78.7571Z" fill="#F0DACA" stroke="#F0DACA"/>
</g>
<path d="M190.251 215.802C190.251 215.867 183.364 215.995 174.815 215.995C166.266 215.995 159.379 215.931 159.379 215.802C159.379 215.738 166.266 215.609 174.815 215.609C183.364 215.609 190.251 215.674 190.251 215.802Z" fill="#4E5675"/>
<path d="M141.24 56.7447C140.533 56.7447 139.697 56.7447 138.861 56.7447C137.832 56.7447 136.802 56.6804 136.095 56.7447C135.902 56.7447 135.773 56.6161 135.773 56.4231C135.773 56.2302 135.902 56.1016 136.095 56.1016C136.802 56.1016 137.832 56.1016 138.861 56.1016C139.89 56.1016 140.919 56.1659 141.626 56.1016C141.819 56.1016 141.948 56.2302 141.948 56.4231C141.948 56.6161 141.819 56.7447 141.626 56.7447C141.498 56.7447 141.369 56.7447 141.24 56.7447Z" fill="#5C6175"/>
<path d="M138.088 58.934C138.024 58.934 137.895 58.8697 137.831 58.8053L135.901 56.6186C135.773 56.49 135.773 56.297 135.901 56.1684L137.831 54.1746C137.959 54.046 138.152 54.046 138.281 54.1746C138.409 54.3032 138.409 54.4962 138.281 54.6248L136.544 56.4257L138.281 58.4194C138.409 58.5481 138.409 58.741 138.281 58.8697C138.217 58.8697 138.152 58.934 138.088 58.934Z" fill="#5C6175"/>
<path d="M212.697 54.8862C213.265 54.8862 213.726 54.4255 213.726 53.8572C213.726 53.2888 213.265 52.8281 212.697 52.8281C212.129 52.8281 211.668 53.2888 211.668 53.8572C211.668 54.4255 212.129 54.8862 212.697 54.8862Z" fill="#5C6175"/>
<path d="M213.726 57.0056C213.726 57.5845 213.276 58.0347 212.697 58.0347C212.118 58.0347 211.668 57.5845 211.668 57.0056C211.668 56.4268 212.118 55.9766 212.697 55.9766C213.276 56.0409 213.726 56.4911 213.726 57.0056Z" fill="#5C6175"/>
<path d="M212.697 61.1909C213.265 61.1909 213.726 60.7302 213.726 60.1619C213.726 59.5935 213.265 59.1328 212.697 59.1328C212.129 59.1328 211.668 59.5935 211.668 60.1619C211.668 60.7302 212.129 61.1909 212.697 61.1909Z" fill="#5C6175"/>
<path d="M272.975 58.0709C273.898 52.3552 270.013 46.9735 264.297 46.0506C258.581 45.1277 253.199 49.013 252.277 54.7288C251.354 60.4446 255.239 65.8263 260.955 66.7492C266.671 67.6721 272.052 63.7867 272.975 58.0709Z" fill="#E9C5AD"/>
<path d="M261.129 79.8449C261.064 79.8449 261 77.9154 261 75.5357C261 73.156 261.064 71.2266 261.129 71.2266C261.193 71.2266 261.257 73.156 261.257 75.5357C261.193 77.9154 261.193 79.8449 261.129 79.8449Z" fill="#E9C5AD"/>
<path d="M255.081 68.7829C255.145 68.7829 254.116 70.6481 252.894 72.8348C251.608 75.0216 250.579 76.7581 250.515 76.7581C250.45 76.7581 251.479 74.8929 252.701 72.7062C253.923 70.5194 255.017 68.7186 255.081 68.7829Z" fill="#E9C5AD"/>
<path d="M248.844 64.9175C248.908 64.9819 247.815 65.8823 246.4 66.9756C244.985 68.069 243.827 68.9694 243.827 68.9051C243.763 68.8408 244.856 67.9404 246.271 66.847C247.686 65.6893 248.844 64.8532 248.844 64.9175Z" fill="#E9C5AD"/>
<path d="M271.548 75.594C271.548 75.594 271.42 75.2081 271.291 74.5006C271.163 73.8575 270.905 72.9571 270.648 71.928C270.391 70.9633 270.134 70.0628 269.876 69.4197C269.683 68.7765 269.555 68.3906 269.555 68.3906C269.555 68.3906 269.748 68.7765 270.005 69.4197C270.262 70.0628 270.519 70.9633 270.841 71.928C271.098 72.9571 271.291 73.8575 271.42 74.5006C271.548 75.1438 271.613 75.594 271.548 75.594Z" fill="#E9C5AD"/>
<path d="M282.157 68.0733C282.093 68.1377 280.742 66.98 279.07 65.5007C277.398 64.0214 276.047 62.7994 276.112 62.7994C276.176 62.7351 277.527 63.8928 279.199 65.3721C280.935 66.787 282.222 68.009 282.157 68.0733Z" fill="#E9C5AD"/>
<path d="M286.276 57.6559C286.276 57.6559 285.762 57.5916 284.99 57.4629C284.218 57.3343 283.125 57.1413 281.967 57.0127C280.745 56.8841 279.716 56.8198 278.88 56.7554C278.108 56.6911 277.594 56.6911 277.594 56.6268C277.594 56.6268 278.108 56.5625 278.88 56.5625C279.652 56.5625 280.745 56.6268 281.967 56.7554C283.189 56.8841 284.218 57.077 284.99 57.27C285.826 57.5272 286.276 57.6559 286.276 57.6559Z" fill="#E9C5AD"/>
<path d="M286.273 47.4898C286.273 47.5541 284.022 48.133 281.192 48.8404C278.362 49.5479 276.111 50.0624 276.047 49.9981C276.047 49.9338 278.298 49.355 281.128 48.6475C283.958 47.94 286.273 47.4255 286.273 47.4898Z" fill="#E9C5AD"/>
<path d="M274.439 35.5938C274.503 35.6581 273.41 37.3303 271.995 39.4527C270.58 41.5751 269.422 43.2473 269.358 43.183C269.294 43.1187 270.387 41.4465 271.802 39.3241C273.217 37.266 274.375 35.5938 274.439 35.5938Z" fill="#E9C5AD"/>
<path d="M262.67 33.1484C262.67 33.1484 262.67 33.7273 262.67 34.5634C262.67 35.4638 262.67 36.6858 262.67 38.0364C262.67 39.3871 262.67 40.6091 262.734 41.5095C262.734 42.4099 262.734 42.9245 262.734 42.9245C262.734 42.9245 262.67 42.4099 262.605 41.5095C262.541 40.6091 262.477 39.3871 262.477 38.0364C262.477 36.6858 262.541 35.4638 262.541 34.5634C262.605 33.663 262.67 33.1484 262.67 33.1484Z" fill="#E9C5AD"/>
<path d="M253.796 44.2101C253.731 44.2101 252.638 42.5379 251.352 40.4155C250.065 38.293 249.036 36.4922 249.101 36.4922C249.165 36.4922 250.258 38.1644 251.545 40.2868C252.831 42.4092 253.86 44.1458 253.796 44.2101Z" fill="#E9C5AD"/>
<path d="M248.457 48.7162C248.457 48.7162 248.007 48.6519 247.364 48.5232C246.656 48.3946 245.756 48.1373 244.727 47.8801C243.698 47.5585 242.797 47.2369 242.154 47.044C241.511 46.7867 241.125 46.5938 241.125 46.5938C241.125 46.5938 241.575 46.7224 242.218 46.9153C242.862 47.1083 243.762 47.4299 244.791 47.6871C245.82 48.0087 246.72 48.266 247.428 48.3946C248.071 48.5875 248.457 48.7162 248.457 48.7162Z" fill="#E9C5AD"/>
<path d="M246.142 56.7515C246.142 56.8158 244.663 57.0087 242.798 57.2017C240.932 57.3946 239.453 57.459 239.453 57.3946C239.453 57.3303 240.932 57.1374 242.798 56.9444C244.598 56.8158 246.142 56.6872 246.142 56.7515Z" fill="#E9C5AD"/>
<path d="M88.7617 240.128H93.424C93.424 240.128 95.5856 235.127 95.9246 235.084C96.2637 234.999 96.2637 240.128 96.2637 240.128H97.069C97.069 240.128 97.8743 234.194 97.62 233.219C97.4505 232.626 96.4333 231.439 95.7551 230.422C95.7551 230.422 94.0597 231.185 93.8478 233.219C93.6783 234.703 93.2968 237.966 91.2624 238.136C90.6266 238.348 89.3975 238.432 89.1008 238.729C88.8465 239.068 88.7617 240.128 88.7617 240.128Z" fill="#10215F"/>
<path d="M67.5703 240.128H72.2326C72.3173 239.958 74.3942 235.127 74.7332 235.084C74.7332 235.084 74.7332 235.084 74.7756 235.084C75.1147 235.254 75.1147 240.128 75.1147 240.128H75.92C75.9624 239.958 76.7253 234.194 76.471 233.219C76.3015 232.626 75.3266 231.439 74.6061 230.422C74.6061 230.422 72.9107 231.185 72.6988 233.262C72.5293 234.703 72.1478 237.966 70.1557 238.178H70.1134C69.4776 238.39 68.2485 238.475 67.9518 238.772C67.6551 239.068 67.5703 240.128 67.5703 240.128Z" fill="#10215F"/>
<path d="M66.8514 180.875C67.3177 186.384 71.4289 230.506 71.1746 232.965C70.9203 235.423 70.7084 237.966 70.115 238.178C72.1071 237.966 72.4885 234.745 72.6581 233.261C72.87 231.185 74.5654 230.422 74.5654 230.422C75.2859 231.439 76.2607 232.626 76.4303 233.219C76.6846 234.194 75.9217 239.958 75.8793 240.128H75.9217C75.9217 240.128 76.727 234.194 76.4727 233.219C76.2183 232.244 73.7601 229.828 73.8872 228.811C73.972 227.794 77.9137 201.77 77.9137 197.235C77.9137 192.7 75.2011 183.63 75.2011 183.63L82.3217 166.252L83.0422 164.514C82.0674 155.571 73.4634 142.22 72.6157 140.906C72.5309 141.415 72.3614 142.22 72.1919 143.28C70.7084 151.884 66.5124 176.339 66.8514 180.875Z" fill="#FABAAF"/>
<path d="M89.9076 197.78C91.3063 208.292 92.5778 220.965 92.3235 232.917C92.2811 235.418 91.8573 237.961 91.2215 238.13C93.256 237.961 93.6798 234.697 93.807 233.214C94.0189 231.137 95.7143 230.416 95.7143 230.416C95.2904 229.78 94.9514 229.187 94.9937 228.806C95.0785 228.043 97.3673 212.615 98.4692 203.375C98.554 202.612 98.6388 201.849 98.7235 201.171C94.6123 199.221 91.603 197.06 89.4414 194.602C89.6109 195.704 89.7805 196.721 89.9076 197.78Z" fill="#FABAAF"/>
<path d="M36.4191 102.673C37.6906 103.605 40.3608 105.173 40.3608 105.173C40.3608 105.173 56.4244 131.452 61.4681 129.544C65.6218 127.976 72.7847 113.015 73.1238 112.379C73.1238 111.531 73.2086 110.217 73.9715 109.073C75.4973 106.742 78.0404 107.123 78.5066 105.597C79.0152 103.732 75.7092 99.4092 72.9543 100.511C71.386 101.105 69.9026 101.91 69.1821 102.969C68.0801 104.538 59.3065 121.364 59.3065 121.364C59.3065 121.364 43.4125 103.944 42.2681 102.673C40.6575 100.935 35.8681 98.7734 35.8681 98.7734C35.8681 98.7734 35.529 99.3244 36.4191 100.172C36.9701 100.681 36.1224 101.067 35.8681 101.321C35.6138 101.576 37.182 101.401 36.7582 101.528C36.3767 101.613 35.1476 101.74 36.4191 102.673Z" fill="#FABAAF"/>
<path d="M101.48 103.222C101.141 102.714 99.7848 100.849 97.4112 100.044C96.6483 99.7893 96.8179 99.7469 94.6563 99.4926C91.3503 99.1111 90.545 98.3058 89.6126 94.9999C89.2735 93.7283 88.9768 92.2025 88.9344 90.2104C88.8073 82.0303 88.002 75.927 84.9503 75.2064H84.9079C84.8655 75.2064 84.7808 75.1641 84.7384 75.1641C84.696 75.1641 84.6112 75.2064 84.5688 75.2064C83.4245 75.5455 79.949 76.817 79.2708 79.7839C79.1013 80.5892 79.0165 81.4369 79.0165 82.2846C79.0165 82.327 79.0165 82.327 79.0165 82.3694C79.0589 85.2939 80.1185 88.3032 81.8986 90.2104C82.7463 91.1005 83.043 92.1601 83.043 93.3893C83.043 94.0674 82.9582 94.7456 82.7887 95.5085C82.4496 97.2038 82.3225 99.323 81.3476 101.273C80.3728 103.222 79.1013 106.316 76.0072 106.571L75.9648 106.656C75.9648 106.656 84.1026 111.954 85.2046 112.165C88.7649 112.716 101.777 103.646 101.48 103.222Z" fill="#FABAAF"/>
<path d="M92.4502 99.0277C92.7045 99.1124 93.1283 99.2396 93.6369 99.3244C94.0608 99.4091 94.1456 99.3667 94.9509 99.4939C95.6714 99.5787 96.0528 99.621 96.5191 99.7482C96.9429 99.8754 97.3244 100.002 97.5363 100.087C97.9601 100.257 98.5111 100.511 99.1469 100.893C99.1469 100.893 99.9098 101.401 100.546 102.079C103.131 104.834 105.123 109.708 105.123 109.708C106.183 111.997 108.048 115.134 111.735 118.312C111.735 118.312 123.136 96.6542 123.942 95.0859C124.747 97.5018 126.103 97.2475 126.103 97.2475C126.103 97.2475 116.143 128.103 111.226 127.298C107.157 126.62 98.0025 112.803 97.5787 112.167C97.1124 111.658 96.2224 109.624 95.3323 109.073C93.8065 108.14 92.535 107.971 91.6873 107.844C89.6104 107.123 88.9323 104.877 86.8555 104.156C89.1866 101.571 90.1191 101.655 92.4502 99.0277Z" fill="#FABAAF"/>
<path d="M125.084 94.5788C125.349 94.4216 125.604 94.2233 125.869 94.0661C126.206 93.8463 126.595 93.6568 126.931 93.437C127.698 93.017 128.526 92.6682 129.325 92.3712C129.959 92.1172 130.635 91.8524 131.28 91.6394C131.485 91.5856 131.679 91.4909 131.884 91.4371C131.884 91.4371 132.045 92.0521 131.057 92.7933C130.435 93.2631 129.123 93.6072 129.291 93.9136C129.459 94.2201 135.918 91.7814 136.269 91.9521C136.621 92.1228 133.893 95.4233 132.514 96.1794C131.135 96.9354 125.613 100.037 125.613 100.037C123.424 101.882 123.403 99.5327 123.186 99.3707C123.082 99.3103 123.08 99.1355 123.087 98.827C123.081 98.3028 123.191 98.0548 123.366 97.2201C123.444 96.8491 123.522 96.4781 123.652 96.1373C123.721 95.9001 123.895 95.4613 124.005 95.2133C124.115 94.9653 124.195 95.0311 124.471 94.9149C124.654 94.7791 124.9 94.7146 125.084 94.5788Z" fill="#FABAAF"/>
<path d="M174.975 239.45C131.658 238.348 116.061 234.745 112.839 217.707C111.695 211.603 111.441 207.111 100.082 202.321C99.4036 202.025 98.7679 201.728 98.1321 201.431C94.1056 199.524 91.2235 197.405 89.1043 195.074C83.0009 188.25 69.5228 178.162 68.9718 165.574C68.0393 156.885 71.9387 144.848 72.2777 143.068C72.2354 142.856 72.6592 140.949 72.6592 140.949C72.6592 140.949 75.3294 130.65 75.4142 128.785C75.4989 126.92 75.2446 117.722 75.2446 117.722C75.2446 117.722 71.981 116.366 71.5996 113.993C71.4301 112.721 71.642 111.153 71.9811 109.754C72.4473 107.72 73.1678 105.982 73.1678 105.982C73.1678 105.982 75.838 104.795 78.2115 106.491C80.1612 107.889 81.9413 109.797 81.9413 109.797C81.9413 109.797 86.2221 105.304 90.6301 105.812C95.038 106.321 96.2248 109.881 96.2248 109.881C96.2248 109.881 90.5029 127.683 90.7996 128.191C90.9268 128.446 93.1308 130.014 95.9281 133.023C96.9877 134.167 98.1745 135.524 99.3612 137.092C101.311 139.677 103.303 142.856 104.998 146.671C110.339 158.75 125.173 195.243 128.098 200.075C134.879 211.307 144.628 219.021 155.181 223.047C170.312 228.811 174.975 239.45 174.975 239.45Z" fill="#F97CAA"/>
<path d="M67.7413 99.0285C68.0804 104.284 72.8274 106.742 75.9215 106.488H75.9638C79.0579 106.234 80.287 103.14 81.3043 101.19C82.2791 99.2404 82.4062 97.1212 82.7453 95.4258C82.9149 94.6629 82.9996 93.9848 82.9996 93.3066C82.9996 92.1199 82.6605 91.1026 81.8552 90.2126C80.0327 88.3053 78.9731 85.2536 78.9731 82.2867C78.9731 82.2443 78.9731 82.2443 78.9731 82.202C78.9731 81.3543 79.0579 80.5066 79.2274 79.7013C79.9056 76.7344 83.3811 75.4629 84.5254 75.1238C84.6102 75.0814 84.6526 75.0814 84.695 75.0814C84.8221 75.039 84.8645 75.039 84.8645 75.039V74.9967L84.9069 75.1238C86.3056 75.4629 87.1957 76.9039 87.8314 79.1927C88.001 79.8284 88.1281 80.5066 88.2553 81.2695C88.6367 83.7278 88.8063 86.7371 88.8486 90.1278C88.891 92.1199 89.1453 93.6881 89.5268 94.9172C90.5864 93.349 99.1904 85.3384 93.8076 76.3106C92.5784 74.1914 90.9678 73.1317 89.3573 72.7503C87.3652 72.2841 85.6274 72.6231 85.5427 72.6655V72.7079C85.3308 72.3265 83.1268 68.3423 78.1678 69.3172C72.9546 70.3344 69.7334 74.6152 69.691 79.2775C69.6062 86.2285 75.54 88.2629 73.8023 90.2126C71.7678 92.5013 67.487 95.0444 67.7413 99.0285Z" fill="#10215F"/>
<path d="M33.2593 94.3114C35.6191 97.3191 41.4494 104.538 41.4494 104.538L46.9096 103.149C47.326 103.057 47.6037 102.733 47.6499 102.317C47.6962 102.039 47.6037 101.761 47.4648 101.576L39.7836 91.859C39.1821 91.1186 38.2104 90.841 37.2849 91.1649L33.7682 92.4605C33.0279 92.7844 32.7503 93.7099 33.2593 94.3114Z" fill="#263238"/>
<path d="M47.0962 101.943C47.0962 101.943 46.9112 101.757 46.5872 101.434C46.2633 101.11 45.8006 100.601 45.2454 99.9528C44.1348 98.7035 42.6078 96.8989 41.0808 94.8629C40.7107 94.3539 40.3405 93.8449 39.9703 93.3359C39.6001 92.8269 39.2762 92.3642 38.8135 92.1328C38.3508 91.8552 37.8418 91.994 37.3791 92.1328C36.9163 92.2716 36.4999 92.4567 36.0834 92.5955C35.2968 92.8269 34.6953 93.0583 34.1863 93.2434C33.7235 93.3822 33.4922 93.4747 33.4922 93.4284C33.4922 93.4284 33.7235 93.2896 34.1863 93.1508C34.649 92.9657 35.2968 92.7344 36.0372 92.4567C36.4536 92.3179 36.8701 92.1328 37.3328 91.994C37.5642 91.9015 37.8418 91.8089 38.1194 91.8089C38.3971 91.7626 38.721 91.8552 38.9523 91.994C39.4613 92.2716 39.8315 92.7806 40.2017 93.2896C40.5718 93.7986 40.942 94.2613 41.3122 94.8166C42.8392 96.8526 44.3199 98.6572 45.4304 99.9528C45.9394 100.554 46.4022 101.063 46.7261 101.48C46.9112 101.711 47.0962 101.943 47.0962 101.943Z" fill="#455A64"/>
<path d="M36.3606 93.2933C36.5919 93.2007 36.8696 93.2933 36.9621 93.5246C37.0547 93.756 36.9621 94.0336 36.7308 94.1262C36.4994 94.2187 36.2218 94.1262 36.1292 93.8948C36.0367 93.7097 36.1292 93.4321 36.3606 93.2933Z" fill="white"/>
<path fill-rule="evenodd" clip-rule="evenodd" d="M36.3359 102.68C36.3359 102.68 34.8101 99.9673 34.9372 99.3316C35.0644 98.6958 36.675 95.6441 37.4803 95.3475C38.9637 94.7965 40.3468 94.2831 39.7534 95.8513C39.3719 96.8685 37.8912 98.6009 38.1455 99.0672C38.3998 99.5334 39.2604 101.747 39.2604 101.747L36.3359 102.68Z" fill="#FABAAF"/>
<rect x="157.773" y="141.195" width="50.8096" height="4.50211" rx="2.25106" fill="#E8E7E7"/>
<rect x="157.773" y="149.555" width="28.299" height="4.50211" rx="2.25106" fill="#E8E7E7"/>
<rect x="139.121" y="166.281" width="70.7475" height="3.2158" rx="1.6079" fill="#F2F2F2"/>
<rect x="139.121" y="173.352" width="70.7475" height="3.2158" rx="1.6079" fill="#F2F2F2"/>
<rect x="139.121" y="181.07" width="40.519" height="3.2158" rx="1.6079" fill="#F2F2F2"/>
<defs>
<linearGradient id="paint0_linear_3064_136264" x1="399" y1="-27.5" x2="340.825" y2="311.49" gradientUnits="userSpaceOnUse">
<stop stop-color="#DB3B72" stop-opacity="0.06"/>
<stop offset="0.994987" stop-color="#D39C6E" stop-opacity="0.06"/>
</linearGradient>
</defs>
</svg>
