<svg width="25" height="24" viewBox="0 0 25 24" fill="none" xmlns="http://www.w3.org/2000/svg">
<path d="M15.9018 1.29565C13.875 2.09429 11.7057 3.18117 9.2693 4.32667C8.03862 5.86366 7.73082 9.24496 7.42302 11.7042L10.8078 7.40088L13.8847 10.4748C12.3462 12.3191 10.8078 13.5487 11.4231 14.4708C12.0384 15.0856 12.9616 14.7782 13.8847 13.8561C16.6483 11.4027 18.5002 10.4748 18.5002 7.4011L22.8078 5.23591V0.0103118C20.6904 -0.0903485 17.7891 0.561251 15.9017 1.29637L15.9018 1.29565ZM10.8655 8.33253L7.90401 12.0883C7.69925 12.3483 7.27065 12.3901 7.01927 12.1748L2.5 17.8518L7.5578 22.4627H11.1923L18.1924 14.4709L16.3174 12.5978C15.7158 13.1157 15.0476 13.651 14.3175 14.2981C14.3106 14.305 14.305 14.3108 14.2982 14.3172C13.7946 14.8162 13.2757 15.1792 12.7019 15.3354C12.1205 15.4938 11.4431 15.365 10.9905 14.9128C10.9617 14.8836 10.936 14.8512 10.9137 14.8166C10.6591 14.4352 10.622 13.9459 10.7407 13.5486C10.8594 13.1513 11.0843 12.7989 11.356 12.4439C11.8016 11.8618 12.4274 11.1997 13.0387 10.5035L10.8655 8.33253ZM2.5 22.7569V23.9865L20.3463 24V22.7704L2.5 22.7569Z" fill="#E6427A"/>
</svg>
