<svg width="68" height="68" viewBox="0 0 68 68" fill="none" xmlns="http://www.w3.org/2000/svg">
<g filter="url(#filter0_d_5249_104862)">
<circle cx="34" cy="30" r="30" fill="#E6427A"/>
</g>
<path d="M20 39.0588V42.3529C20 43.2626 20.7835 44 21.75 44C22.7165 44 23.5 43.2626 23.5 42.3529V39.0588C23.5 38.1492 22.7165 37.4117 21.75 37.4117C20.7835 37.4117 20 38.1492 20 39.0588Z" fill="white"/>
<path d="M44.5 39.0588V42.3529C44.5 43.2626 45.2835 44 46.25 44C47.2165 44 48 43.2626 48 42.3529V39.0588C48 38.1492 47.2165 37.4117 46.25 37.4117C45.2835 37.4117 44.5 38.1492 44.5 39.0588Z" fill="white"/>
<path d="M46.2499 40.7051H21.75C20.7835 40.7051 20 41.4425 20 42.3521C20 43.2618 20.7835 43.9992 21.75 43.9992H46.2499C47.2164 43.9992 47.9999 43.2618 47.9999 42.3521C47.9999 41.4425 47.2164 40.7051 46.2499 40.7051Z" fill="white"/>
<path d="M34.0025 15.999C33.6396 15.9965 33.285 16.1001 32.9875 16.2955L25.9875 20.9402C25.6102 21.1921 25.3542 21.5744 25.2755 22.0034C25.1968 22.4324 25.3018 22.8733 25.5675 23.2297C25.7001 23.4078 25.8689 23.5594 26.0641 23.6758C26.2594 23.7922 26.4772 23.8711 26.7049 23.9078C26.9327 23.9446 27.166 23.9385 27.3913 23.89C27.6166 23.8414 27.8294 23.7513 28.0175 23.625L34.0025 19.6885L39.9524 23.905C40.3237 24.1671 40.7905 24.2796 41.2499 24.2178C41.7094 24.156 42.124 23.925 42.4024 23.5755C42.6809 23.2261 42.8005 22.7868 42.7348 22.3544C42.6692 21.9219 42.4237 21.5317 42.0524 21.2697L35.0525 16.3285C34.7495 16.1146 34.3811 15.999 34.0025 15.999Z" fill="white"/>
<path d="M34 19.293C33.5359 19.293 33.0907 19.4666 32.7626 19.7754C32.4344 20.0843 32.25 20.5033 32.25 20.9401V34.1166C32.25 34.5534 32.4344 34.9724 32.7626 35.2813C33.0907 35.5901 33.5359 35.7637 34 35.7637C34.4641 35.7637 34.9092 35.5901 35.2374 35.2813C35.5656 34.9724 35.75 34.5534 35.75 34.1166V20.9401C35.75 20.5033 35.5656 20.0843 35.2374 19.7754C34.9092 19.4666 34.4641 19.293 34 19.293Z" fill="white"/>
<defs>
<filter id="filter0_d_5249_104862" x="0" y="0" width="68" height="68" filterUnits="userSpaceOnUse" color-interpolation-filters="sRGB">
<feFlood flood-opacity="0" result="BackgroundImageFix"/>
<feColorMatrix in="SourceAlpha" type="matrix" values="0 0 0 0 0 0 0 0 0 0 0 0 0 0 0 0 0 0 127 0" result="hardAlpha"/>
<feOffset dy="4"/>
<feGaussianBlur stdDeviation="2"/>
<feComposite in2="hardAlpha" operator="out"/>
<feColorMatrix type="matrix" values="0 0 0 0 0 0 0 0 0 0 0 0 0 0 0 0 0 0 0.25 0"/>
<feBlend mode="normal" in2="BackgroundImageFix" result="effect1_dropShadow_5249_104862"/>
<feBlend mode="normal" in="SourceGraphic" in2="effect1_dropShadow_5249_104862" result="shape"/>
</filter>
</defs>
</svg>
