<svg width="16" height="16" viewBox="0 0 16 16" fill="none" xmlns="http://www.w3.org/2000/svg">
<path d="M8 0C5.87824 0 3.84346 0.842851 2.34318 2.34318C0.842851 3.8434 0 5.8783 0 8C0 10.1217 0.842851 12.1565 2.34318 13.6568C3.8434 15.1571 5.8783 16 8 16C10.1217 16 12.1565 15.1571 13.6568 13.6568C15.1571 12.1566 16 10.1217 16 8C16 5.8783 15.1571 3.84346 13.6568 2.34318C12.1566 0.842851 10.1217 0 8 0ZM13.3334 7.99994C13.3326 8.95294 13.0747 9.88799 12.5867 10.7066L5.29336 3.41323C6.3775 2.77472 7.65237 2.54004 8.89277 2.75072C10.1332 2.96132 11.2591 3.60363 12.0719 4.56422C12.8846 5.52482 13.3312 6.74178 13.3334 7.99991L13.3334 7.99994ZM2.66661 7.99994C2.66739 7.04695 2.92531 6.1119 3.41326 5.29328L10.7066 12.5867C9.6225 13.2252 8.34763 13.4598 7.10723 13.2492C5.86684 13.0386 4.74085 12.3963 3.92811 11.4357C3.11538 10.4751 2.66875 9.25811 2.66664 7.99997L2.66661 7.99994Z" fill="#E6427A"/>
</svg>
