<svg width="343" height="304" viewBox="0 0 343 304" fill="none" xmlns="http://www.w3.org/2000/svg">
<path d="M335.568 280.258H308.57V280.462H335.568V280.258Z" fill="#EBEBEB"/>
<path d="M238.831 282.473H231.746V282.676H238.831V282.473Z" fill="#EBEBEB"/>
<path d="M307.753 272.684H292.109V272.887H307.753V272.684Z" fill="#EBEBEB"/>
<path d="M46.8234 274.055H11.6172V274.258H46.8234V274.055Z" fill="#EBEBEB"/>
<path d="M59.244 274.055H54.082V274.258H59.244V274.055Z" fill="#EBEBEB"/>
<path d="M152.374 277.496H76.0195V277.7H152.374V277.496Z" fill="#EBEBEB"/>
<path d="M162.046 230.744H4.65254C2.08745 230.744 0 228.654 0 226.087V4.65653C0 2.08924 2.08745 0 4.65254 0H162.046C164.61 0 166.697 2.08924 166.697 4.65653V226.087C166.697 228.654 164.61 230.744 162.046 230.744ZM4.65254 0.203947C2.19912 0.203947 0.203773 2.201 0.203773 4.65653V226.087C0.203773 228.543 2.19912 230.54 4.65254 230.54H162.046C164.498 230.54 166.494 228.543 166.494 226.087V4.65653C166.494 2.201 164.498 0.203947 162.046 0.203947H4.65254Z" fill="#EBEBEB"/>
<path d="M338.346 230.744H180.953C178.387 230.744 176.301 228.654 176.301 226.087V4.65653C176.301 2.08924 178.387 0 180.953 0H338.346C340.911 0 342.998 2.08924 342.998 4.65653V226.087C342.998 228.654 340.911 230.744 338.346 230.744ZM180.953 0.203947C178.5 0.203947 176.505 2.201 176.505 4.65653V226.087C176.505 228.543 178.5 230.54 180.953 230.54H338.346C340.799 230.54 342.794 228.543 342.794 226.087V4.65653C342.794 2.201 340.799 0.203947 338.346 0.203947H180.953Z" fill="#EBEBEB"/>
<path d="M317.288 23.5586H204.984V97.1649H317.288V23.5586Z" fill="#E6E6E6"/>
<path d="M315.685 23.5586H201.555V97.1649H315.685V23.5586Z" fill="#F0F0F0"/>
<path d="M317.288 97.1641H204.984V111.61H317.288V97.1641Z" fill="#E6E6E6"/>
<path d="M309.977 97.1641H195.848V111.61H309.977V97.1641Z" fill="#F0F0F0"/>
<path d="M310.886 28.3594H206.352V92.363H310.886V28.3594Z" fill="#FAFAFA"/>
<path d="M287.315 92.363L273.963 28.3594H253.129L266.481 92.363H287.315Z" fill="white"/>
<path d="M308.667 87.5843C308.856 87.5843 309.009 87.4309 309.009 87.2417V31.4833C309.009 31.294 308.856 31.1406 308.667 31.1406C308.478 31.1406 308.324 31.294 308.324 31.4833V87.2417C308.325 87.4309 308.478 87.5843 308.667 87.5843Z" fill="#F0F0F0"/>
<path d="M262.005 92.363L248.654 28.3594H240.531L253.883 92.363H262.005Z" fill="white"/>
<path d="M206.96 28.3594H206.352V92.363H206.96V28.3594Z" fill="#E6E6E6"/>
<g opacity="0.6">
<g opacity="0.6">
<path opacity="0.6" d="M200.422 35.5994H312.726L313.168 30.2266H200.864L200.422 35.5994Z" fill="#EBEBEB"/>
</g>
</g>
<g opacity="0.6">
<g opacity="0.6">
<path opacity="0.6" d="M200.422 44.4127H312.726L313.168 39.0391H200.864L200.422 44.4127Z" fill="#EBEBEB"/>
</g>
</g>
<g opacity="0.6">
<g opacity="0.6">
<path opacity="0.6" d="M200.422 53.2244H312.726L313.168 47.8516H200.864L200.422 53.2244Z" fill="#EBEBEB"/>
</g>
</g>
<g opacity="0.6">
<g opacity="0.6">
<path opacity="0.6" d="M200.422 62.0368H312.726L313.168 56.6641H200.864L200.422 62.0368Z" fill="#EBEBEB"/>
</g>
</g>
<g opacity="0.6">
<g opacity="0.6">
<path opacity="0.6" d="M200.422 70.8494H312.726L313.168 65.4766H200.864L200.422 70.8494Z" fill="#EBEBEB"/>
</g>
</g>
<g opacity="0.6">
<g opacity="0.6">
<path opacity="0.6" d="M200.422 79.6619H312.726L313.168 74.2891H200.864L200.422 79.6619Z" fill="#EBEBEB"/>
</g>
</g>
<path d="M301.16 213.598H277.613V218.244H301.16V213.598Z" fill="#E6E6E6"/>
<path d="M237.546 160.203H233.199V267.125H237.546V160.203Z" fill="#E6E6E6"/>
<path d="M277.612 213.598H218.141V218.244H277.612V213.598Z" fill="#F5F5F5"/>
<path d="M301.16 239.023H277.613V243.669H301.16V239.023Z" fill="#E6E6E6"/>
<path d="M277.612 239.023H218.141V243.669H277.612V239.023Z" fill="#F5F5F5"/>
<path d="M301.16 162.746H277.613V167.392H301.16V162.746Z" fill="#E6E6E6"/>
<path d="M277.612 162.746H218.141V167.392H277.612V162.746Z" fill="#F5F5F5"/>
<path d="M301.16 188.172H277.613V192.818H301.16V188.172Z" fill="#E6E6E6"/>
<path d="M277.612 188.172H218.141V192.818H277.612V188.172Z" fill="#F5F5F5"/>
<path d="M297.018 160.203H292.672V267.125H297.018V160.203Z" fill="#E6E6E6"/>
<path d="M277.613 160.203H273.266V267.125H277.613V160.203Z" fill="#F5F5F5"/>
<path d="M222.488 160.203H218.141V267.125H222.488V160.203Z" fill="#F5F5F5"/>
<path d="M66.6306 180.742H22.1445V267.129H66.6306V180.742Z" fill="#E6E6E6"/>
<path d="M34.0237 267.128H22.1445V255.203H46.4791L34.0237 267.128Z" fill="#FAFAFA"/>
<path d="M187.924 180.742H143.438V267.129H187.924V180.742Z" fill="#E6E6E6"/>
<path d="M153.805 180.742H22.1445V263.024H153.805V180.742Z" fill="#FAFAFA"/>
<path d="M141.924 267.128H153.803V255.203H129.469L141.924 267.128Z" fill="#FAFAFA"/>
<path d="M144.589 211.402H31.3594V231.994H144.589V211.402Z" fill="#F0F0F0"/>
<path d="M144.589 236.395H31.3594V256.986H144.589V236.395Z" fill="#F0F0F0"/>
<path d="M52.8783 213.603H123.064C125.125 213.603 126.795 211.931 126.795 209.87V209.617H49.1484V209.87C49.1484 211.931 50.8186 213.603 52.8783 213.603Z" fill="#FAFAFA"/>
<path d="M144.589 186.41H31.3594V207.002H144.589V186.41Z" fill="#F0F0F0"/>
<path d="M52.8783 188.61H123.064C125.125 188.61 126.795 186.939 126.795 184.878V184.625H49.1484V184.878C49.1484 186.939 50.8186 188.61 52.8783 188.61Z" fill="#FAFAFA"/>
<path d="M52.8783 238.595H123.064C125.125 238.595 126.795 236.923 126.795 234.862V234.609H49.1484V234.862C49.1484 236.923 50.8186 238.595 52.8783 238.595Z" fill="#FAFAFA"/>
<path d="M141.535 23.5586H29.2305V97.1649H141.535V23.5586Z" fill="#E6E6E6"/>
<path d="M139.934 23.5586H25.8047V97.1649H139.934V23.5586Z" fill="#F0F0F0"/>
<path d="M141.535 97.1641H29.2305V111.61H141.535V97.1641Z" fill="#E6E6E6"/>
<path d="M134.224 97.1641H20.0938V111.61H134.224V97.1641Z" fill="#F0F0F0"/>
<path d="M135.136 28.3594H30.6016V92.363H135.136V28.3594Z" fill="#FAFAFA"/>
<path d="M111.565 92.363L98.2134 28.3594H77.3789L90.7309 92.363H111.565Z" fill="white"/>
<path d="M132.913 87.5843C133.102 87.5843 133.255 87.4309 133.255 87.2417V31.4833C133.255 31.294 133.102 31.1406 132.913 31.1406C132.724 31.1406 132.57 31.294 132.57 31.4833V87.2417C132.57 87.4309 132.724 87.5843 132.913 87.5843Z" fill="#F0F0F0"/>
<path d="M86.2556 92.363L72.9028 28.3594H64.7812L78.1324 92.363H86.2556Z" fill="white"/>
<path d="M31.2104 28.3594H30.6016V92.363H31.2104V28.3594Z" fill="#E6E6E6"/>
<g opacity="0.6">
<g opacity="0.6">
<path opacity="0.6" d="M24.668 35.5994H136.972L137.414 30.2266H25.1097L24.668 35.5994Z" fill="#EBEBEB"/>
</g>
</g>
<g opacity="0.6">
<g opacity="0.6">
<path opacity="0.6" d="M24.668 38.6306H136.972L137.414 33.2578H25.1097L24.668 38.6306Z" fill="#EBEBEB"/>
</g>
</g>
<g opacity="0.6">
<g opacity="0.6">
<path opacity="0.6" d="M24.668 41.6619H136.972L137.414 36.2891H25.1097L24.668 41.6619Z" fill="#EBEBEB"/>
</g>
</g>
<g opacity="0.6">
<g opacity="0.6">
<path opacity="0.6" d="M24.668 44.6931H136.972L137.414 39.3203H25.1097L24.668 44.6931Z" fill="#EBEBEB"/>
</g>
</g>
<g opacity="0.6">
<g opacity="0.6">
<path opacity="0.6" d="M24.668 47.7244H136.972L137.414 42.3516H25.1097L24.668 47.7244Z" fill="#EBEBEB"/>
</g>
</g>
<g opacity="0.6">
<g opacity="0.6">
<path opacity="0.6" d="M24.668 50.7548H136.972L137.414 45.3828H25.1097L24.668 50.7548Z" fill="#EBEBEB"/>
</g>
</g>
<path d="M50.9995 134.789H47.1172V178.101H50.9995V134.789Z" fill="#F5F5F5"/>
<path d="M48.7135 134.758H47.6172V178.07H48.7135V134.758Z" fill="#FAFAFA"/>
<path d="M49.6014 134.758H49.1719V178.07H49.6014V134.758Z" fill="#FAFAFA"/>
<path d="M34.6875 180.742H63.4309C63.4309 178.74 61.8096 177.117 59.8094 177.117H38.3089C36.3087 177.116 34.6875 178.74 34.6875 180.742Z" fill="#F0F0F0"/>
<path d="M42.0815 161.68C42.6961 161.68 43.1982 161.176 43.1982 160.562V132.165C43.1982 131.55 42.6961 131.047 42.0815 131.047C41.4669 131.047 40.9648 131.55 40.9648 132.165V160.562C40.9648 161.176 41.4669 161.68 42.0815 161.68Z" fill="#F0F0F0"/>
<path d="M31.6797 145.083H66.4368L62.4388 120.773H35.6777L31.6797 145.083Z" fill="#E0E0E0"/>
<path d="M330.579 294.765C330.579 299.866 259.823 304.001 172.541 304.001C85.2595 304.001 14.5039 299.866 14.5039 294.765C14.5039 289.663 85.2595 285.527 172.541 285.527C259.823 285.527 330.579 289.663 330.579 294.765Z" fill="#F5F5F5"/>
<path d="M54.8048 135.291L53.7227 120.246L52.9097 120.305L53.9918 135.349L54.8048 135.291Z" fill="#F179A5"/>
<path d="M55.7748 148.725L55.3672 143.066L54.5542 143.125L54.9618 148.784L55.7748 148.725Z" fill="#F179A5"/>
<path d="M244.122 212.275H69.5638C65.6163 212.275 62.153 209.042 61.8685 205.091L53.2921 85.8792C53.0077 81.9283 56.0056 78.6953 59.953 78.6953H234.511C238.46 78.6953 241.922 81.9283 242.207 85.8792L250.783 205.091C251.067 209.042 248.07 212.275 244.122 212.275Z" fill="#F179A5"/>
<path d="M244.79 212.275H70.2317C66.2843 212.275 62.8209 209.042 62.5365 205.091L53.9601 85.8792C53.6756 81.9283 56.6735 78.6953 60.621 78.6953H235.179C239.128 78.6953 242.59 81.9283 242.874 85.8792L251.451 205.091C251.736 209.042 248.738 212.275 244.79 212.275Z" fill="#F5D8E3"/>
<path d="M235.44 82.2891H60.8814C60.6841 82.2891 60.4893 82.2972 60.2969 82.3127C55.8343 82.6806 56.7464 89.4737 61.2498 89.4737H236.106C240.609 89.4737 240.543 82.6806 236.028 82.3127C235.833 82.2972 235.637 82.2891 235.44 82.2891Z" fill="#F179A5"/>
<path d="M65.4284 85.8815C65.4937 86.7911 64.8098 87.5285 63.901 87.5285C62.9921 87.5285 62.2023 86.7911 62.1371 85.8815C62.0719 84.9719 62.7558 84.2344 63.6646 84.2344C64.5734 84.2344 65.3632 84.971 65.4284 85.8815Z" fill="#FAFAFA"/>
<path d="M71.0261 85.8815C71.0913 86.7911 70.4075 87.5285 69.4986 87.5285C68.5898 87.5285 67.8 86.7911 67.7348 85.8815C67.6696 84.9719 68.3526 84.2344 69.2623 84.2344C70.1711 84.2344 70.9609 84.971 71.0261 85.8815Z" fill="#FAFAFA"/>
<path d="M76.6238 85.8815C76.689 86.7911 76.0051 87.5285 75.0963 87.5285C74.1875 87.5285 73.3976 86.7911 73.3324 85.8815C73.2672 84.9719 73.9503 84.2344 74.8599 84.2344C75.7687 84.2344 76.5586 84.971 76.6238 85.8815Z" fill="#FAFAFA"/>
<path d="M240.161 200.377H73.1468C71.7098 200.377 70.4602 199.211 70.3567 197.773L63.3037 99.7376C63.2002 98.2986 64.2818 97.1328 65.7188 97.1328H232.733C234.17 97.1328 235.419 98.2986 235.523 99.7376L242.576 197.773C242.68 199.211 241.598 200.377 240.161 200.377Z" fill="white"/>
<path d="M167.082 125.244L158.844 120.281L161.869 126.856L167.082 125.244Z" fill="#EBEBEB"/>
<path d="M142.606 136.044C142.51 136.044 142.414 136.009 142.337 135.939C142.177 135.789 142.168 135.54 142.317 135.38L144.047 133.513C144.196 133.353 144.446 133.344 144.605 133.492C144.765 133.64 144.775 133.891 144.627 134.051L142.895 135.917C142.818 136.001 142.712 136.044 142.606 136.044Z" fill="#E6427A"/>
<path d="M169.804 159.031L167.085 121.245L158.847 116.281H136.184L139.26 159.031H169.804Z" fill="white"/>
<path d="M169.804 159.426H139.26C139.053 159.426 138.881 159.267 138.866 159.061L135.79 116.311C135.783 116.202 135.82 116.093 135.895 116.013C135.97 115.932 136.074 115.887 136.184 115.887H158.847C158.919 115.887 158.989 115.907 159.051 115.944L167.289 120.906C167.399 120.973 167.47 121.089 167.479 121.217L170.198 159.004C170.206 159.113 170.168 159.221 170.093 159.301C170.017 159.381 169.914 159.426 169.804 159.426ZM139.627 158.636H169.379L166.706 121.477L158.737 116.677H136.608L139.627 158.636Z" fill="#F179A5"/>
<path d="M161.873 123.252C161.722 123.252 161.579 123.165 161.513 123.022L158.489 116.447C158.417 116.29 158.455 116.103 158.585 115.987C158.714 115.872 158.904 115.854 159.052 115.943L167.29 120.906C167.423 120.986 167.497 121.138 167.478 121.293C167.46 121.447 167.351 121.576 167.203 121.622L161.989 123.234C161.951 123.246 161.912 123.252 161.873 123.252ZM159.744 117.282L162.087 122.376L166.127 121.128L159.744 117.282Z" fill="#F179A5"/>
<path d="M148.967 135.543C149.036 136.497 148.319 137.27 147.366 137.27C146.413 137.27 145.585 136.497 145.516 135.543C145.448 134.59 146.164 133.816 147.118 133.816C148.071 133.816 148.899 134.589 148.967 135.543Z" fill="#F179A5"/>
<path d="M160.167 135.543C160.235 136.497 159.519 137.27 158.565 137.27C157.612 137.27 156.784 136.497 156.715 135.543C156.647 134.59 157.363 133.816 158.317 133.816C159.27 133.816 160.098 134.589 160.167 135.543Z" fill="#F179A5"/>
<path d="M163.324 146.744C163.119 146.744 162.946 146.585 162.93 146.377C162.731 143.6 158.38 141.341 153.231 141.341C149.82 141.341 146.757 142.357 145.238 143.991C144.562 144.717 144.25 145.501 144.309 146.32C144.324 146.539 144.161 146.727 143.944 146.743C143.725 146.756 143.537 146.595 143.521 146.377C143.446 145.345 143.84 144.334 144.66 143.453C146.324 141.663 149.608 140.551 153.231 140.551C158.879 140.551 163.485 143.085 163.719 146.32C163.734 146.539 163.57 146.727 163.353 146.743C163.343 146.744 163.334 146.744 163.324 146.744Z" fill="#F179A5"/>
<path d="M162.512 132.044C162.415 132.044 162.318 132.009 162.242 131.938L160.242 130.072C160.083 129.922 160.074 129.673 160.224 129.513C160.372 129.353 160.621 129.344 160.781 129.493L162.781 131.36C162.94 131.509 162.949 131.759 162.8 131.918C162.723 132.002 162.618 132.044 162.512 132.044Z" fill="#F179A5"/>
<path d="M222.853 286.328C224.383 286.021 225.925 285.145 226.994 284.304C227.662 283.779 228.207 283.289 228.298 282.907C228.569 281.778 228.536 278.47 228.491 276.197C228.042 254.108 223.016 232.278 225.13 210.123C225.606 205.143 226.314 200.062 228.624 195.625C228.869 195.154 229.144 194.677 229.575 194.368C230.246 193.886 231.155 193.904 231.963 194.073C234.874 194.682 237.245 196.956 238.544 199.633C239.842 202.31 240.19 205.353 240.183 208.33C240.173 212.51 239.495 216.689 238.183 220.658C237.512 222.689 236.669 224.695 236.461 226.824C236.226 229.218 237.073 231.087 237.432 233.347C237.961 236.684 237.653 240.449 237.623 243.825C237.519 256.113 234.969 267.889 232.703 279.877C232.627 280.58 232.549 281.6 232.529 282.969C232.516 283.632 232.519 284.383 232.547 285.212C232.567 285.986 224.188 288.171 222.868 287.553C221.554 286.934 222.853 286.328 222.853 286.328Z" fill="#F5A784"/>
<path d="M232.547 285.216C232.566 285.99 224.188 288.175 222.868 287.557C221.555 286.938 222.854 286.333 222.854 286.333C224.383 286.026 225.926 285.15 226.995 284.309C227.248 284.339 229.792 284.343 232.527 282.973C232.517 283.636 232.52 284.387 232.547 285.216Z" fill="#F179A5"/>
<path d="M246.546 286.384C247.996 285.808 249.357 284.67 250.259 283.649C250.823 283.015 251.27 282.435 251.291 282.044C251.356 280.884 250.732 277.636 250.279 275.408C245.883 253.756 237.031 233.182 235.145 211.005C234.721 206.02 234.508 200.894 235.986 196.115C236.144 195.608 236.33 195.089 236.697 194.707C237.27 194.113 238.168 193.969 238.994 193.99C241.966 194.066 244.706 195.878 246.464 198.279C248.221 200.68 249.107 203.611 249.633 206.54C250.37 210.655 250.451 214.888 249.872 219.029C249.575 221.147 249.105 223.271 249.282 225.404C249.48 227.801 250.648 229.487 251.405 231.646C252.523 234.834 252.894 238.595 253.47 241.921C255.567 254.028 255.166 266.07 255.083 278.271C255.134 278.976 255.241 279.994 255.465 281.344C255.571 281.999 255.708 282.737 255.884 283.547C256.042 284.305 248.191 287.958 246.782 287.586C245.378 287.213 246.546 286.384 246.546 286.384Z" fill="#F5A784"/>
<path d="M255.884 283.559C256.042 284.317 248.191 287.969 246.782 287.597C245.38 287.224 246.549 286.395 246.549 286.395C247.999 285.819 249.36 284.682 250.262 283.661C250.515 283.645 253.02 283.195 255.466 281.355C255.571 282.01 255.709 282.748 255.884 283.559Z" fill="#F179A5"/>
<path d="M224.156 163.483C224.786 165.572 223.538 176.064 223.538 176.064C223.538 176.064 235.089 180.08 242.681 175.258C242.681 175.258 244.556 160.959 246.746 155.292L246.479 145.451C246.479 145.451 241.833 144.549 240.398 142.841C240.356 142.792 240.314 142.746 240.279 142.697C239.512 141.631 239.546 138.433 239.703 135.995C239.81 134.307 239.978 132.98 239.978 132.98C239.978 132.98 231.889 135.859 231.763 137.306C231.763 137.306 232.373 143.008 230.584 143.204C230.281 143.237 229.965 143.144 229.656 143.117C228.061 143.01 226.503 143.01 226.503 143.01C226.503 143.01 223.265 151.01 220.792 154.192C218.316 157.379 223.534 161.39 224.156 163.483Z" fill="#F5A784"/>
<path d="M221.821 235.532C225.744 233.87 231.252 232.644 235.502 233.432C238.562 234.012 241.447 235.904 244.528 235.467C246.856 235.138 248.833 233.552 250.997 232.787C253.5 231.913 256.045 231.518 258.624 232.283C259.663 232.589 261.182 232.808 261.444 231.758C261.542 231.386 261.4 231.004 261.247 230.653C258.602 224.179 254.799 218.142 253.095 211.361C252.866 210.453 252.669 209.545 252.517 208.627C251.324 201.791 251.807 194.727 250.385 187.913C249.609 184.183 247.828 181.744 246.233 178.518C244.593 175.193 244.747 170.719 244.474 167.11C244.364 165.503 244.474 164.026 244.801 162.451C245.183 160.559 246.811 157.858 246.767 156.02C246.724 154.512 246.538 147.381 246.527 146.976C246.505 146.396 246.473 146.375 245.991 146.101C245.019 145.554 244.287 144.647 243.303 144.089C242.462 143.608 241.5 143.357 240.539 143.357C239.742 144.318 238.561 144.92 237.337 145.139C236.256 145.325 233.37 145.226 231.098 143.291C230.793 143.029 230.333 143.04 229.951 142.951C229.557 142.853 229.163 142.766 228.77 142.679C228.387 142.579 227.983 142.493 227.612 142.614C226.607 142.942 226.508 144.363 225.951 145.107C225.252 146.036 224.913 147.283 224.443 148.343C223.449 150.64 222.345 152.927 220.794 154.917C219.8 156.196 219.854 157.345 220.313 158.395C221.002 159.981 222.608 161.347 222.98 162.594C223.427 164.114 223.635 165.7 223.701 167.308C223.843 170.917 223.231 174.658 222.903 178.124C222.422 183.144 221.877 188.154 221.275 193.151C220.718 197.755 220.816 202.491 220.052 207.063C219.298 214.927 219.975 223.534 217.647 231.135C216.456 235.007 218.172 237.073 221.821 235.532Z" fill="#F179A5"/>
<path d="M193.112 149.774C193.112 149.774 191.185 148.113 189.251 146.466C188.084 145.472 185.259 143.617 184.866 142.562C184.866 142.562 184.842 142.347 184.875 142.022C184.879 141.976 184.885 141.926 184.898 141.877C184.947 141.589 185.046 141.237 185.264 140.881C185.28 140.855 185.297 140.825 185.316 140.796C185.474 140.546 185.691 140.29 185.986 140.069C186.011 140.05 186.037 140.033 186.062 140.015C186.289 139.846 186.556 139.688 186.878 139.551C186.878 139.551 189.46 141.805 190.545 142.205C190.545 142.205 189.356 140.456 189.657 139.865L190.043 139.628C190.043 139.628 191.537 141.364 192.273 142.077C194.064 143.81 194.278 146.325 194.278 146.325C194.278 146.325 194.873 150.119 193.112 149.774Z" fill="#F5A784"/>
<path d="M185.995 140.066C186.021 140.048 186.046 140.03 186.071 140.012C187.144 141.112 188.369 142.007 189.592 142.965C189.615 142.984 189.592 143.025 189.564 143.014C188.148 142.333 187.002 141.255 185.995 140.066Z" fill="#E0855C"/>
<path d="M185.276 140.878C185.292 140.851 185.309 140.822 185.328 140.793C186.403 141.896 187.625 142.788 188.846 143.749C188.869 143.769 188.847 143.81 188.82 143.795C187.413 143.121 186.275 142.056 185.276 140.878Z" fill="#E0855C"/>
<path d="M184.899 142.016C184.903 141.97 184.909 141.921 184.921 141.871C185.949 142.898 187.108 143.745 188.262 144.653C188.288 144.669 188.265 144.712 188.237 144.699C186.908 144.106 185.847 143.1 184.899 142.016Z" fill="#E0855C"/>
<path d="M227.023 131.336C227.028 131.576 227.034 131.805 227.055 132.025C227.296 135.612 228.771 137.077 231.787 137.503C231.82 137.515 231.864 137.525 231.896 137.525C232.464 137.602 233.186 137.613 233.984 137.493C235.961 137.186 238.343 136.071 239.666 133.107C239.972 132.418 240.224 131.631 240.398 130.723C241.01 127.539 241.174 124.85 240.552 123.144C239.262 119.567 232.542 115.477 228.968 119.808C228.804 120.015 228.64 120.376 228.477 120.846C228.051 122.126 227.668 124.192 227.427 125.91C227.328 126.577 227.252 127.189 227.198 127.692C227.121 128.458 227.067 129.179 227.035 129.836C227.012 130.373 227.012 130.865 227.023 131.336Z" fill="#F5A784"/>
<path d="M256.656 160.496C256.806 158.061 255.535 155.803 254.605 153.548C253.676 151.294 253.122 148.534 254.541 146.552C255.072 145.809 255.845 145.24 256.244 144.419C256.839 143.196 256.451 141.699 255.723 140.549C254.996 139.4 253.965 138.479 253.128 137.407C251.594 135.443 250.735 132.962 250.728 130.469C250.721 128.437 251.186 126.142 249.892 124.575C249.093 123.608 247.802 123.194 246.882 122.34C245.597 121.149 245.182 119.426 243.994 118.149C242.844 116.914 241.349 116.01 239.741 115.516C237.278 114.758 234.586 114.926 232.132 115.715C230.031 116.39 228.783 117.516 228.365 119.682C228.026 121.445 229.711 121.486 229.929 122.981C230.012 123.553 229.922 124.122 230.025 124.683C230.141 125.323 230.458 125.913 230.77 126.475C230.873 126.661 230.982 126.853 231.153 126.98C231.595 127.307 232.214 127.07 232.762 127.112C233.686 127.183 234.352 128.078 234.576 128.978C234.809 129.915 234.691 130.933 234.264 131.796C233.818 132.695 232.957 133.066 232.922 134.194C232.905 134.716 233.061 135.228 233.241 135.721C233.769 137.169 234.51 138.524 235.135 139.93C235.761 141.338 236.148 142.743 236.338 144.269C236.65 146.792 236.356 149.339 236.236 151.865C236.115 154.391 236.151 157.006 237.164 159.37C238.011 161.344 239.472 162.985 240.954 164.539C241.927 165.561 242.979 166.599 244.325 167.018C246.474 167.688 249.677 167.438 251.791 166.706C254.328 165.829 256.488 163.19 256.656 160.496Z" fill="#011948"/>
<path d="M227.827 124.707C227.827 124.707 227.461 126.631 226.022 128.131C224.837 129.367 228.43 130.355 228.43 130.355C228.43 130.355 228.397 125.386 227.827 124.707Z" fill="#F5A784"/>
<path d="M232.349 129.503C232.57 129.19 232.84 128.766 233.236 128.681C233.323 128.662 233.4 128.695 233.449 128.768C233.465 128.791 233.48 128.815 233.496 128.838C233.528 128.886 233.51 128.973 233.455 128.996C233.111 129.142 232.904 129.417 232.737 129.725C232.948 129.862 233.118 130.008 233.223 130.241C233.326 130.464 233.061 130.708 232.869 130.515C232.746 130.392 232.647 130.294 232.505 130.204C232.382 130.473 232.258 130.739 232.077 130.946C231.973 131.064 231.805 130.96 231.793 130.829C231.75 130.369 232.095 129.865 232.349 129.503Z" fill="#E0855C"/>
<path d="M220.329 158.393C221.018 159.979 222.624 161.346 222.996 162.592C223.444 164.112 223.652 165.699 223.717 167.306C229.268 159.498 227.104 154.992 227.104 154.992C225.761 155.429 222.864 156.972 220.329 158.393Z" fill="#E76E9B"/>
<path d="M229.822 150.579C229.822 150.579 232.143 141.573 225.269 143.221C218.605 144.821 215.181 160.05 208.719 160.388C207.796 160.436 192.682 144.554 192.682 144.554L190.156 146.746C190.156 146.746 202.127 165.926 207.148 167.345C211.814 168.664 222.004 163.996 229.822 150.579Z" fill="#F5A784"/>
<path d="M229.412 142.835C229.412 142.835 226.455 141.752 223.093 143.291C219.731 144.831 219.682 145.518 216.66 145.37C216.66 145.37 225.369 156.541 231.022 156.102C231.023 156.102 233.119 148.096 229.412 142.835Z" fill="#F179A5"/>
<path d="M228.794 178.445C234.162 178.89 238.777 179.495 243.673 176.712C243.971 176.543 244.352 176.891 244.158 177.198C241.415 181.513 232.61 181.056 228.559 179.313C228.136 179.131 228.349 178.408 228.794 178.445Z" fill="#E36A98"/>
<path d="M221.896 231.331C227.308 228.935 233.428 228.745 239.148 230.051C241.346 230.553 243.439 231.133 245.7 230.557C247.163 230.182 248.502 229.44 249.913 228.918C252.54 227.949 255.262 227.718 258.004 228.272C258.478 228.368 258.379 229.178 257.888 229.128C254.351 228.771 251.501 229.449 248.236 230.782C246.084 231.66 244.183 232.114 241.86 231.761C238.592 231.265 235.525 230.316 232.175 230.338C228.746 230.359 225.48 231.115 222.209 232.073C221.779 232.198 221.467 231.52 221.896 231.331Z" fill="#E36A98"/>
<path d="M109.079 175.009L109.123 183.54L107.073 183.55L104.027 178.258L104.055 183.566L101.998 183.577L101.954 175.046L104.01 175.035L107.056 180.328L107.028 175.019L109.079 175.009ZM117.619 179.06L117.621 179.405C117.625 180.058 117.536 180.644 117.355 181.164C117.178 181.681 116.925 182.124 116.594 182.493C116.264 182.858 115.873 183.139 115.421 183.337C114.969 183.531 114.47 183.629 113.923 183.632C113.372 183.635 112.867 183.542 112.409 183.353C111.955 183.16 111.559 182.882 111.221 182.521C110.888 182.155 110.627 181.715 110.441 181.201C110.259 180.682 110.166 180.097 110.162 179.444L110.161 179.099C110.157 178.446 110.244 177.86 110.421 177.339C110.602 176.819 110.855 176.376 111.182 176.011C111.512 175.642 111.903 175.361 112.355 175.167C112.811 174.969 113.314 174.869 113.865 174.866C114.412 174.863 114.912 174.958 115.367 175.151C115.825 175.34 116.221 175.618 116.555 175.983C116.888 176.345 117.149 176.785 117.335 177.303C117.521 177.822 117.616 178.407 117.619 179.06ZM115.535 179.416L115.533 179.059C115.531 178.637 115.492 178.266 115.416 177.946C115.344 177.622 115.237 177.351 115.096 177.133C114.954 176.915 114.779 176.752 114.572 176.644C114.368 176.532 114.135 176.476 113.873 176.478C113.6 176.479 113.362 176.537 113.16 176.651C112.957 176.762 112.788 176.927 112.652 177.146C112.517 177.366 112.415 177.638 112.346 177.962C112.281 178.283 112.25 178.654 112.252 179.076L112.254 179.433C112.256 179.851 112.291 180.222 112.36 180.546C112.432 180.866 112.537 181.137 112.674 181.359C112.816 181.581 112.989 181.748 113.193 181.86C113.4 181.972 113.641 182.028 113.914 182.026C114.176 182.025 114.408 181.967 114.611 181.853C114.813 181.738 114.982 181.57 115.118 181.346C115.257 181.123 115.361 180.851 115.43 180.53C115.502 180.205 115.538 179.834 115.535 179.416ZM123.838 174.931L123.883 183.462L121.832 183.473L121.787 174.942L123.838 174.931ZM126.305 174.918L127.981 174.91L129.916 180.835L131.789 174.89L133.465 174.881L130.609 183.427L129.25 183.434L126.305 174.918ZM125.285 174.924L127.02 174.915L127.376 181.452L127.387 183.444L125.33 183.455L125.285 174.924ZM132.75 174.885L134.49 174.875L134.535 183.407L132.473 183.417L132.462 181.425L132.75 174.885ZM139.539 176.642L137.494 183.391L135.285 183.403L138.375 174.855L139.775 174.848L139.539 176.642ZM141.297 183.371L139.175 176.644L138.897 174.852L140.314 174.845L143.511 183.36L141.297 183.371ZM141.198 180.19L141.206 181.778L136.829 181.801L136.821 180.213L141.198 180.19ZM150.964 178.762L150.982 182.266C150.839 182.427 150.617 182.6 150.317 182.785C150.021 182.966 149.647 183.122 149.195 183.254C148.742 183.385 148.209 183.452 147.596 183.455C147.03 183.458 146.515 183.371 146.054 183.194C145.592 183.013 145.194 182.747 144.86 182.397C144.53 182.044 144.274 181.611 144.091 181.101C143.913 180.586 143.822 179.997 143.819 179.333L143.816 178.858C143.813 178.194 143.899 177.604 144.076 177.087C144.253 176.57 144.503 176.136 144.825 175.782C145.152 175.425 145.535 175.154 145.975 174.968C146.42 174.782 146.908 174.687 147.439 174.685C148.224 174.681 148.863 174.802 149.357 175.05C149.85 175.293 150.225 175.633 150.481 176.069C150.737 176.501 150.894 177.003 150.952 177.573L148.977 177.583C148.937 177.302 148.861 177.064 148.751 176.869C148.644 176.671 148.491 176.521 148.292 176.42C148.092 176.316 147.834 176.265 147.517 176.266C147.271 176.268 147.047 176.321 146.844 176.428C146.646 176.535 146.477 176.696 146.337 176.911C146.198 177.123 146.09 177.389 146.013 177.71C145.941 178.03 145.905 178.406 145.908 178.835L145.91 179.322C145.913 179.747 145.95 180.12 146.022 180.44C146.098 180.76 146.208 181.027 146.354 181.241C146.503 181.451 146.692 181.611 146.919 181.719C147.15 181.823 147.422 181.874 147.734 181.873C147.953 181.871 148.14 181.853 148.296 181.817C148.452 181.777 148.581 181.73 148.682 181.674C148.788 181.615 148.867 181.56 148.922 181.509L148.915 180.185L147.485 180.192L147.478 178.78L150.964 178.762ZM158.052 181.701L158.06 183.283L153.513 183.307L153.505 181.725L158.052 181.701ZM154.201 174.772L154.246 183.303L152.189 183.314L152.144 174.783L154.201 174.772ZM157.447 178.142L157.455 179.671L153.494 179.692L153.486 178.163L157.447 178.142ZM158.033 174.752L158.041 176.34L153.477 176.364L153.469 174.776L158.033 174.752ZM163.286 180.988C163.286 180.856 163.266 180.737 163.226 180.631C163.186 180.522 163.114 180.421 163.008 180.328C162.902 180.235 162.749 180.142 162.549 180.049C162.353 179.952 162.095 179.852 161.774 179.748C161.398 179.625 161.036 179.487 160.688 179.332C160.339 179.174 160.028 178.99 159.753 178.78C159.479 178.567 159.261 178.318 159.099 178.034C158.937 177.746 158.856 177.41 158.854 177.027C158.852 176.66 158.932 176.33 159.094 176.036C159.257 175.738 159.484 175.485 159.776 175.276C160.072 175.064 160.419 174.902 160.816 174.79C161.214 174.675 161.65 174.616 162.122 174.614C162.747 174.61 163.299 174.717 163.776 174.933C164.258 175.145 164.634 175.45 164.906 175.847C165.182 176.24 165.321 176.706 165.324 177.245L163.279 177.256C163.277 177.041 163.232 176.852 163.141 176.688C163.054 176.525 162.923 176.397 162.746 176.304C162.57 176.211 162.349 176.165 162.083 176.167C161.826 176.168 161.609 176.208 161.434 176.287C161.258 176.366 161.126 176.472 161.037 176.606C160.948 176.735 160.904 176.878 160.904 177.034C160.905 177.163 160.941 177.28 161.012 177.385C161.086 177.486 161.19 177.581 161.324 177.671C161.461 177.76 161.625 177.845 161.817 177.926C162.013 178.007 162.232 178.086 162.475 178.163C162.929 178.305 163.332 178.465 163.684 178.643C164.041 178.817 164.341 179.016 164.584 179.241C164.831 179.463 165.018 179.716 165.145 180C165.275 180.285 165.341 180.607 165.343 180.966C165.345 181.349 165.273 181.689 165.126 181.987C164.979 182.284 164.767 182.537 164.491 182.746C164.215 182.95 163.883 183.106 163.497 183.214C163.111 183.321 162.68 183.376 162.203 183.379C161.766 183.381 161.334 183.329 160.907 183.222C160.485 183.111 160.101 182.941 159.756 182.712C159.411 182.479 159.134 182.182 158.925 181.82C158.72 181.454 158.617 181.019 158.614 180.515L160.676 180.504C160.678 180.754 160.712 180.965 160.779 181.136C160.847 181.308 160.945 181.446 161.075 181.551C161.204 181.652 161.363 181.725 161.55 181.771C161.738 181.813 161.953 181.833 162.195 181.832C162.457 181.831 162.668 181.792 162.827 181.717C162.987 181.638 163.104 181.536 163.177 181.411C163.251 181.282 163.287 181.141 163.286 180.988ZM171.416 174.682L171.46 183.213L169.404 183.224L169.359 174.693L171.416 174.682ZM174.751 178.215L174.759 179.798L170.857 179.818L170.848 178.236L174.751 178.215ZM175.066 174.663L175.074 176.251L170.838 176.273L170.83 174.685L175.066 174.663ZM183.162 178.716L183.163 179.062C183.167 179.714 183.078 180.301 182.897 180.821C182.72 181.338 182.467 181.781 182.137 182.15C181.806 182.515 181.415 182.796 180.963 182.994C180.511 183.187 180.012 183.286 179.465 183.289C178.914 183.291 178.41 183.198 177.952 183.009C177.497 182.816 177.101 182.539 176.764 182.178C176.43 181.812 176.169 181.372 175.983 180.858C175.801 180.339 175.708 179.753 175.704 179.101L175.703 178.755C175.699 178.103 175.786 177.517 175.963 176.996C176.144 176.476 176.397 176.033 176.724 175.668C177.054 175.299 177.445 175.018 177.897 174.824C178.353 174.626 178.856 174.526 179.407 174.523C179.954 174.52 180.454 174.615 180.909 174.808C181.367 174.997 181.763 175.274 182.097 175.64C182.431 176.001 182.691 176.441 182.877 176.96C183.063 177.479 183.158 178.064 183.162 178.716ZM181.077 179.073L181.076 178.716C181.073 178.294 181.034 177.923 180.958 177.603C180.886 177.279 180.78 177.008 180.638 176.79C180.496 176.572 180.321 176.409 180.114 176.301C179.91 176.188 179.677 176.133 179.416 176.134C179.142 176.136 178.904 176.194 178.702 176.308C178.499 176.419 178.33 176.583 178.194 176.803C178.059 177.022 177.957 177.294 177.888 177.619C177.823 177.94 177.792 178.311 177.794 178.733L177.796 179.09C177.798 179.508 177.834 179.879 177.902 180.203C177.974 180.523 178.079 180.794 178.216 181.016C178.358 181.238 178.531 181.405 178.735 181.517C178.942 181.629 179.183 181.685 179.456 181.683C179.718 181.682 179.95 181.624 180.153 181.51C180.355 181.395 180.524 181.226 180.66 181.003C180.799 180.78 180.903 180.508 180.972 180.187C181.044 179.862 181.08 179.491 181.077 179.073ZM188.835 174.591L190.892 174.58L190.921 180.152C190.925 180.816 190.789 181.38 190.514 181.842C190.239 182.3 189.852 182.648 189.353 182.885C188.855 183.122 188.267 183.242 187.592 183.246C186.924 183.249 186.335 183.135 185.826 182.904C185.321 182.672 184.925 182.328 184.637 181.873C184.353 181.413 184.21 180.852 184.206 180.187L184.177 174.615L186.24 174.605L186.269 180.177C186.271 180.528 186.323 180.815 186.426 181.037C186.528 181.255 186.678 181.415 186.874 181.515C187.069 181.616 187.306 181.665 187.583 181.664C187.865 181.663 188.101 181.61 188.291 181.508C188.482 181.405 188.626 181.244 188.723 181.025C188.819 180.802 188.866 180.515 188.864 180.163L188.835 174.591ZM199.312 174.536L199.356 183.067L197.306 183.078L194.26 177.785L194.288 183.094L192.232 183.105L192.187 174.573L194.243 174.563L197.289 179.855L197.261 174.547L199.312 174.536ZM203.429 183.046L201.536 183.056L201.539 181.474L203.42 181.464C203.811 181.462 204.141 181.366 204.409 181.177C204.682 180.989 204.887 180.708 205.026 180.336C205.168 179.961 205.238 179.499 205.235 178.952L205.233 178.583C205.231 178.173 205.188 177.814 205.105 177.506C205.025 177.194 204.906 176.935 204.749 176.728C204.592 176.518 204.396 176.361 204.161 176.257C203.93 176.153 203.664 176.101 203.363 176.103L201.465 176.113L201.456 174.525L203.355 174.515C203.933 174.512 204.463 174.609 204.944 174.805C205.429 174.998 205.849 175.277 206.202 175.643C206.56 176.004 206.835 176.434 207.029 176.933C207.227 177.428 207.328 177.979 207.331 178.584L207.333 178.941C207.336 179.543 207.241 180.094 207.049 180.595C206.86 181.096 206.591 181.529 206.241 181.894C205.891 182.26 205.477 182.543 204.997 182.745C204.522 182.942 203.999 183.043 203.429 183.046ZM202.669 174.518L202.714 183.05L200.657 183.06L200.613 174.529L202.669 174.518Z" fill="#F179A5"/>
</svg>
