<svg width="36" height="36" viewBox="0 0 36 36" fill="none" xmlns="http://www.w3.org/2000/svg">
<circle cx="18" cy="18" r="18" fill="#E6427A"/>
<path fill-rule="evenodd" clip-rule="evenodd" d="M12.3078 18.4365L14.8819 20.439L10.666 24.6549C10.3785 24.2712 10.1695 23.8248 10.0692 23.3369L10.0686 23.3362C10.0508 23.2485 10.0389 23.1595 10.0277 23.0691C10.0251 23.0461 10.0198 23.023 10.0171 22.9993C10.0059 22.8858 10 22.7711 10 22.6544V20.7436L12.3078 18.4365ZM20.9256 16.136L26 20.0262V22.6544C26 24.5079 24.5079 26 22.6544 26H13.3456C13.2434 26 13.1432 25.9941 13.0436 25.9848C13.012 25.9822 12.9803 25.9782 12.9487 25.9743C12.8814 25.9664 12.8141 25.9565 12.7482 25.9446C12.7106 25.938 12.673 25.9321 12.6355 25.9235C12.6348 25.9235 12.6335 25.9235 12.6328 25.9235C12.5544 25.9064 12.4772 25.8859 12.4007 25.8635C12.3387 25.8451 12.2774 25.824 12.2174 25.8022C12.2009 25.7963 12.1845 25.791 12.168 25.7844C11.959 25.7053 11.7598 25.6064 11.5732 25.4883L20.9256 16.136ZM15.7028 13.0627C16.2415 13.0627 16.6668 13.4887 16.6668 14.0274C16.6668 14.5661 16.2415 14.9913 15.7028 14.9913C15.1641 14.9913 14.7382 14.5661 14.7382 14.0274C14.7382 13.4887 15.1641 13.0627 15.7028 13.0627ZM15.7028 11.8317C14.4975 11.8317 13.5078 12.8227 13.5078 14.0274C13.5078 15.232 14.4975 16.2217 15.7028 16.2217C16.9074 16.2217 17.8971 15.232 17.8971 14.0274C17.8971 12.8227 16.9074 11.8317 15.7028 11.8317ZM13.3456 10H22.6544C24.5079 10 26 11.4921 26 13.3449V18.4754L21.2467 14.8311C21.1313 14.7428 20.9889 14.6979 20.8438 14.7045C20.6908 14.7118 20.5451 14.7757 20.437 14.8839L15.7588 19.562L12.6341 17.131C12.5194 17.042 12.377 16.9965 12.2319 17.0017C12.0776 17.0083 11.9306 17.0723 11.8211 17.1817L10 19.0035V13.3449C10 11.4921 11.4921 10 13.3456 10Z" fill="white"/>
</svg>
