<svg width="25" height="24" viewBox="0 0 25 24" fill="none" xmlns="http://www.w3.org/2000/svg">
<path d="M12.8871 10.5C15.8678 10.5 18.3065 8.175 18.3065 5.25C18.3065 2.3625 15.8678 0 12.8871 0C9.90648 0 7.46777 2.3625 7.46777 5.25C7.46777 8.175 9.94519 10.5 12.8871 10.5ZM12.8871 5.625C11.9194 5.625 11.1065 4.8375 11.1065 3.9C11.1065 3.075 11.6871 2.4 12.5 2.2125V1.6125C12.5 1.425 12.6549 1.2375 12.8871 1.2375C13.0807 1.2375 13.2742 1.425 13.2742 1.6125V2.2125C14.0484 2.4 14.6678 3.075 14.6678 3.9C14.6678 4.0875 14.5129 4.275 14.2807 4.275C14.0871 4.275 13.8936 4.0875 13.8936 3.9C13.8936 3.375 13.4678 2.9625 12.9258 2.925H12.8871C12.3452 2.925 11.9194 3.375 11.9194 3.9C11.9194 4.425 12.3839 4.875 12.9258 4.875C13.8936 4.875 14.7065 5.6625 14.7065 6.6C14.7065 7.425 14.0871 8.1375 13.2355 8.2875V8.8875C13.2355 9.1125 13.042 9.2625 12.8484 9.2625C12.6549 9.2625 12.4613 9.1125 12.4613 8.8875V8.25C11.6871 8.0625 11.1452 7.3875 11.1452 6.6C11.1452 6.4125 11.3 6.225 11.5323 6.225C11.7258 6.225 11.9194 6.4125 11.9194 6.6C11.9194 7.125 12.3839 7.575 12.9258 7.575C13.4678 7.575 13.9323 7.125 13.9323 6.6C13.9323 6.075 13.4291 5.625 12.8871 5.625Z" fill="#E6427A"/>
<path d="M21.9347 9.4125L18.2577 8.25C18.2173 8.2875 18.096 8.55 17.8536 8.8875C17.9344 8.925 17.894 8.8875 20.5608 9.75L12.5199 12.3L4.47894 9.75C7.22661 8.85 7.14579 8.925 7.1862 8.8875C6.98416 8.625 6.78213 8.2875 6.74172 8.25L3.06471 9.4125C2.94349 9.45 2.86267 9.525 2.82227 9.6375L12.5199 12.75L22.1771 9.675C22.1367 9.5625 22.0559 9.45 21.9347 9.4125Z" fill="#E6427A"/>
<path d="M11.3387 13.5317L2.28744 10.5L0.5 12.6813L9.05688 15.75L11.3387 13.5317Z" fill="#E6427A"/>
<path d="M9.65248 17.268L2.82227 15V21.012L12.4649 24V15.072L10.0944 17.196C9.9739 17.268 9.81319 17.304 9.65248 17.268ZM15.639 17.196L13.2685 15.072V24L22.9513 21.012V15L16.0809 17.268C15.9202 17.304 15.7595 17.268 15.639 17.196Z" fill="#E6427A"/>
<path d="M22.7187 10.5L13.6611 13.5317L15.9729 15.75L22.7187 13.3099L24.4999 12.6813L22.7187 10.5Z" fill="#E6427A"/>
</svg>
