<svg width="14" height="14" viewBox="0 0 14 14" fill="none" xmlns="http://www.w3.org/2000/svg">
<path d="M7.0507 2.90747e-06C4.31175 2.90747e-06 2.09961 2.3094 2.09961 5.12183C2.09961 6.13613 2.40509 6.94318 2.87858 7.70941L6.61325 13.7541L6.61313 13.7542C6.70614 13.9068 6.87191 14 7.05068 14C7.22944 14 7.39521 13.9068 7.48823 13.7542L11.2229 7.70953C11.6963 6.94318 12.0017 6.13613 12.0017 5.12182C12.0017 2.30939 9.78963 0 7.05065 0L7.0507 2.90747e-06ZM7.0507 1.02443C9.2148 1.02443 10.9774 2.84258 10.9774 5.12189C10.9774 5.94266 10.7624 6.49987 10.3479 7.17059L7.05077 12.5058L3.75359 7.17059C3.33915 6.49987 3.12397 5.94266 3.12397 5.12189C3.12397 2.84261 4.88661 1.02443 7.0507 1.02443ZM7.0507 2.39028C5.64248 2.39028 4.48979 3.54296 4.48979 4.95119C4.48979 6.35942 5.64248 7.5121 7.0507 7.5121C8.45893 7.5121 9.61162 6.35942 9.61162 4.95119C9.61162 3.54296 8.45893 2.39028 7.0507 2.39028ZM7.0507 3.4147C7.90541 3.4147 8.58719 4.09661 8.58719 4.95119C8.58719 5.80577 7.90529 6.48768 7.0507 6.48768C6.196 6.48768 5.51422 5.80577 5.51422 4.95119C5.51422 4.09649 6.19612 3.4147 7.0507 3.4147Z" fill="#E6427A"/>
</svg>
