<svg width="25" height="24" viewBox="0 0 25 24" fill="none" xmlns="http://www.w3.org/2000/svg">
<path d="M22.9256 6.33514C22.0569 6.33514 21.3509 7.04113 21.3509 7.90987C21.3509 8.26286 21.4595 8.58859 21.6495 8.83298L19.5861 10.3263C18.0929 11.4123 15.9753 10.8693 15.1608 9.21308L13.2604 5.38493C13.7761 5.11341 14.1291 4.59765 14.1291 3.97317C14.1291 3.10443 13.4231 2.39844 12.5544 2.39844C11.6856 2.39844 10.9796 3.10443 10.9796 3.97317C10.9796 4.59765 11.3326 5.11345 11.8484 5.38493L9.94793 9.21308C9.13338 10.8693 7.01581 11.385 5.52262 10.3263L3.40487 8.80589C3.56782 8.56147 3.67639 8.23577 3.67639 7.90987C3.67639 7.04113 2.9704 6.33514 2.10166 6.33514C1.23309 6.33514 0.5 7.04096 0.5 7.90987C0.5 8.77862 1.20599 9.48461 2.07473 9.48461C2.29188 9.48461 2.48192 9.43023 2.67199 9.37603L6.28284 18.6883H18.7987L22.4095 9.40309C22.5725 9.45746 22.7352 9.48456 22.9253 9.48456C23.794 9.48456 24.5 8.77857 24.5 7.90983C24.5003 7.04091 23.7944 6.33509 22.9256 6.33509L22.9256 6.33514Z" fill="#E6427A"/>
<path d="M6.2832 20.8052C6.2832 21.2123 6.60892 21.5382 7.01629 21.5382H18.039C18.4462 21.5382 18.7721 21.2125 18.7721 20.8052V19.7734H6.28329L6.2832 20.8052Z" fill="#E6427A"/>
</svg>
