<svg width="14" height="14" viewBox="0 0 14 14" fill="none" xmlns="http://www.w3.org/2000/svg">
<path fill-rule="evenodd" clip-rule="evenodd" d="M7 14C3.14042 14 0 10.8599 0 7C0 3.14042 3.14009 0 7 0C10.8599 0 14 3.14009 14 7C14 10.8599 10.8599 14 7 14ZM7.00777 8.73056C6.6236 8.73056 6.3125 8.41947 6.3125 8.03529V3.64596C6.3125 3.26178 6.6236 2.95068 7.00777 2.95068C7.39195 2.95068 7.70305 3.26178 7.70305 3.64596V8.03529C7.70305 8.41947 7.39163 8.73056 7.00777 8.73056ZM6.3125 10.3534C6.3125 10.7376 6.6236 11.0487 7.00777 11.0487C7.39163 11.0487 7.70305 10.7376 7.70305 10.3534V10.1364C7.70305 9.75226 7.39195 9.44116 7.00777 9.44116C6.6236 9.44116 6.3125 9.75226 6.3125 10.1364V10.3534Z" fill="#9C9FA0"/>
</svg>
