<svg width="173" height="153" viewBox="0 0 173 153" fill="none" xmlns="http://www.w3.org/2000/svg">
<path fill-rule="evenodd" clip-rule="evenodd" d="M53.2752 45.6314C58.8996 70.7839 60.8047 99.5257 57.213 119.466C57.3877 119.402 57.585 119.332 57.585 119.332C69.9335 117.954 83.2599 116.736 96.1782 117.729C109.18 118.729 121.231 120.722 132.82 122.768C133.445 117.162 133.61 111.407 134.338 105.82C136.437 89.7097 139.574 73.7314 144.311 60.0136C145.249 60.0149 145.687 60.5451 146.696 60.4716C144.897 83.9935 140.499 104.77 133.687 122.997C144.202 125.479 154.645 128.037 163.174 132.616C162.624 123.925 164.332 116.026 166.643 109.255C168.297 104.41 169.902 99.8065 172.714 96.8875C173.42 111.933 169.208 123.704 163.391 132.616C165.995 135.045 170.739 137.045 168.811 142.465C166.688 148.436 155.517 151.089 150.165 153C153.29 151.399 156.377 150.294 159.922 148.19C162.095 146.901 167.145 144.247 167.077 140.632C166.987 135.833 155.717 132.644 151.683 131.471C144.72 129.446 138.176 128.45 131.519 127.349C124.484 126.185 117.43 125.13 110.271 124.371C103.123 123.613 95.8777 122.539 88.156 122.539C71.5154 122.539 58.3107 124.007 43.7088 126.203C34.2021 127.634 22.9082 129.445 14.6555 133.532C11.9624 134.866 8.68267 137 8.36785 139.487C8.09445 141.646 9.15229 143.078 10.1024 144.297C12.8956 147.881 17.457 150.392 21.3768 152.542C21.3232 152.83 20.9458 152.773 20.9432 152.542C19.8645 152.38 18.556 151.392 17.6909 150.939C14.894 149.473 1.9887 143.743 7.71741 135.594C8.29739 134.769 9.3058 134.114 10.3192 133.303C17.0841 127.891 28.4873 125.108 38.2884 122.768C34.8296 113.861 32.2384 104.063 30.0494 93.9101C27.8689 83.7961 26.029 73.0896 25.9299 62.0748C26.5992 62.0185 27.1556 61.8426 27.6644 61.6168C28.556 62.3875 28.631 63.7733 28.9653 64.8232C34.2628 81.4616 38.2119 101.603 38.9389 122.539C44.243 121.729 50.9736 120.441 56.9346 119.562L56.9879 119.543L57.1404 119.864C50.8374 106.906 48.7651 82.2219 50.9236 45.8112C51.802 45.9443 52.6736 46.0512 53.2752 45.6314ZM0.56249 99.1778C5.81051 106.889 10.0235 120.862 8.80149 133.99C2.91906 125.702 -0.747076 112.877 0.128859 98.9488C0.419826 98.8821 0.466224 99.0363 0.56249 99.1778ZM120.245 46.9588C121.205 46.8498 121.323 47.274 121.979 46.9588C122.81 73.5255 120.034 98.1641 115.041 119.332C113.098 98.4914 114.93 74.4904 118.293 55.662C118.819 52.7205 118.894 49.7037 119.811 47.4169C119.914 47.1606 119.834 46.4987 120.245 46.9588ZM10.536 88.4134C10.5714 88.6797 12.4915 92.8391 13.1378 94.5972C15.513 101.057 17.2538 109.598 16.6069 118.187C14.9365 116.659 13.9136 114.422 12.921 112.233C10.1158 106.046 7.57106 98.3744 7.28378 89.1004C8.57686 89.0922 9.37222 88.8511 10.536 88.4134ZM162.09 86.3521C163.262 86.9089 165.029 87.4031 165.993 87.4972C164.728 99.2158 161.201 108.545 156.236 116.355C155.539 114.654 155.732 112.786 155.803 111.087C156.191 101.749 159.247 93.3043 162.09 86.3521ZM87.0719 17.6429H88.156C88.8622 18.2984 88.7161 19.5262 88.8065 20.3913C91.9648 50.5759 90.6355 87.191 87.7224 115.897C83.6458 86.5078 83.8021 48.3243 86.6383 18.101C86.4803 17.7265 87.0691 17.1047 87.0719 17.6429ZM18.1246 77.6489C23.6054 86.7007 26.9646 100.074 25.4963 114.981C19.9697 106.015 16.5971 92.5659 18.1246 77.6489ZM154.502 74.9006C156.151 85.4612 153.367 97.8213 150.382 105.82C149.42 108.399 148.636 111.181 146.913 112.92C145.588 97.7929 149.001 84.2833 154.285 74.6715C154.469 74.6294 154.489 74.7608 154.502 74.9006ZM74.7134 29.3235C79.8483 52.8353 81.7587 81.5773 79.2666 109.255C73.9574 86.1084 72.1277 56.617 74.4966 29.0944C74.6811 29.0523 74.7011 29.1837 74.7134 29.3235ZM40.6734 71.9232C45.8711 80.7642 48.3901 96.3149 46.0938 108.568C41.2145 101.941 38.1795 83.4551 40.6734 71.9232ZM98.5632 31.1557C101.077 55.23 100.589 84.3927 95.9614 105.82C95.8378 106.392 95.993 107.397 95.3109 107.652C92.5188 82.8165 93.5404 52.5538 98.3464 30.9267C98.5309 30.8845 98.5508 31.016 98.5632 31.1557ZM131.302 69.4038C134.101 82.3507 131.241 97.8261 126.532 106.507C123.705 94.2539 126.581 78.2504 131.302 69.4038ZM63.8727 35.7363C68.6981 54.6261 70.3936 82.1487 67.3417 104.446C62.5037 84.9845 60.8914 58.3517 63.8727 35.7363ZM108.537 34.1331C111.739 56.3736 109.634 83.4127 105.284 102.613C101.739 80.3446 104.008 53.6761 108.32 33.9041C108.504 33.8619 108.524 33.9934 108.537 34.1331ZM11.2154 82.2173C11.1706 84.4147 9.41945 86.3635 7.24543 86.3992C1.98891 86.4857 1.74021 78.3096 6.86124 77.9005C9.18906 77.7144 11.2695 79.567 11.2154 82.2173ZM169.964 80.0892C169.919 82.2866 168.168 84.2354 165.994 84.2711C160.738 84.3576 160.489 76.1815 165.61 75.7724C167.938 75.5863 170.018 77.4389 169.964 80.0892ZM29.3466 54.9779C29.3018 57.1753 27.5507 59.1241 25.3766 59.1598C20.1201 59.2463 19.8714 51.0702 24.9925 50.6611C27.3203 50.475 29.4007 52.3276 29.3466 54.9779ZM151.027 53.7011C150.982 55.8985 149.231 57.8472 147.057 57.883C141.801 57.9695 141.552 49.7934 146.673 49.3842C149.001 49.1982 151.081 51.0508 151.027 53.7011ZM125.644 39.6558C125.599 41.8532 123.848 43.8019 121.674 43.8377C116.417 43.9242 116.168 35.7481 121.289 35.3389C123.617 35.1529 125.698 37.0055 125.644 39.6558ZM55.1332 38.8045C55.0884 41.0019 53.3373 42.9507 51.1632 42.9865C45.9067 43.0729 45.658 34.8968 50.7791 34.4877C53.1069 34.3017 55.1873 36.1543 55.1332 38.8045ZM94.6098 7.37653C94.5337 11.1203 91.5585 14.4404 87.865 14.5013C78.9344 14.6487 78.5119 0.718977 87.2123 0.0218961C91.1671 -0.295043 94.7016 2.86124 94.6098 7.37653Z" fill="#9C9FA0"/>
</svg>
