<svg width="84" height="84" viewBox="0 0 84 84" fill="none" xmlns="http://www.w3.org/2000/svg">
<circle cx="42" cy="42" r="42" fill="#D7D7D7"/>
<path d="M42 0C18.8337 0 0 18.8337 0 42C0 65.1663 18.8337 84 42 84C65.1663 84 84 65.1663 84 42C84 18.8337 65.1663 0 42 0ZM42 24.0505C49.2508 24.0505 55.1749 29.9747 55.1749 37.2254C55.1749 44.4761 49.2507 50.4003 42 50.4003C34.7493 50.4003 28.8251 44.4761 28.8251 37.2254C28.8251 29.9747 34.7493 24.0505 42 24.0505ZM19.0105 67.4653V65.52C19.0105 59.9493 23.5198 55.3519 29.1786 55.3519H54.8207C60.3914 55.3519 64.9888 59.8612 64.9888 65.52V67.4653C58.8876 72.9472 50.8412 76.3074 41.9994 76.3074C33.1585 76.3074 25.1125 72.9472 19.0115 67.4653H19.0105Z" fill="#F7F7F7"/>
</svg>
