<svg width="16" height="16" viewBox="0 0 16 16" fill="none" xmlns="http://www.w3.org/2000/svg">
<path fill-rule="evenodd" clip-rule="evenodd" d="M8 1.89517C4.62839 1.89517 1.89517 4.62839 1.89517 8C1.89517 11.3716 4.62839 14.1048 8 14.1048C11.3716 14.1048 14.1048 11.3716 14.1048 8C14.1048 4.62839 11.3716 1.89517 8 1.89517ZM0.5 8C0.5 3.85785 3.85785 0.5 8 0.5C12.1421 0.5 15.5 3.85785 15.5 8C15.5 12.1421 12.1421 15.5 8 15.5C3.85785 15.5 0.5 12.1421 0.5 8Z" fill="#E6427A" stroke="#E6427A" stroke-width="0.7"/>
<path d="M5.39528 7.34863C4.8743 7.34863 4.74414 7.78273 4.74414 7.99977C4.74414 8.52074 5.17824 8.6509 5.39528 8.6509H10.6047C10.8218 8.6509 11.2559 8.52063 11.2559 7.99977C11.2559 7.47879 10.8218 7.34863 10.6047 7.34863H5.39528Z" fill="#E6427A" stroke="#E6427A" stroke-width="0.7"/>
</svg>
