<svg width="220" height="209" viewBox="0 0 220 209" fill="none" xmlns="http://www.w3.org/2000/svg">
<path d="M117.951 168.047H66.0273V208.027H117.951V168.047Z" fill="#EBEBEB"/>
<path d="M104.895 207.729C104.846 207.729 104.746 198.817 104.746 187.814C104.746 176.811 104.796 167.898 104.895 167.898C104.995 167.898 105.045 176.811 105.045 187.814C105.045 198.817 104.995 207.729 104.895 207.729Z" fill="#E0E0E0"/>
<path d="M113.516 198.914H109.529V203.395H113.516V198.914Z" fill="#FAFAFA"/>
<path d="M87.7531 168.148H81.873V176.662H87.7531V168.148Z" fill="#E0E0E0"/>
<path d="M87.7531 199.367H81.873V207.881H87.7531V199.367Z" fill="#E0E0E0"/>
<path d="M212.082 157.992H146.654V208.428H212.082V157.992Z" fill="#EBEBEB"/>
<path d="M195.687 208.077C195.638 208.077 195.538 196.825 195.538 182.984C195.538 169.093 195.588 157.891 195.687 157.891C195.737 157.891 195.837 169.143 195.837 182.984C195.837 196.825 195.787 208.077 195.687 208.077Z" fill="#E0E0E0"/>
<path d="M206.55 196.977H201.518V202.652H206.55V196.977Z" fill="#FAFAFA"/>
<path d="M174.061 158.141H166.636V168.895H174.061V158.141Z" fill="#E0E0E0"/>
<path d="M174.061 197.523H166.636V208.278H174.061V197.523Z" fill="#E0E0E0"/>
<path d="M29.1622 160.17C31.8033 158.825 34.9426 158.626 37.8826 159.124C39.4772 159.373 41.1216 159.871 42.168 161.066C43.2643 162.261 43.4636 164.352 42.2179 165.348C41.4704 165.945 40.4738 166.045 39.527 166.045C37.2348 165.995 34.6935 165.597 32.8497 166.991C31.8033 167.787 31.1056 169.082 29.8599 169.48C28.6141 169.879 27.2687 169.132 26.6209 168.036C25.9731 166.941 25.9731 165.547 26.2721 164.302C26.1724 164.252 26.5212 161.564 29.1622 160.17Z" fill="#EBEBEB"/>
<path d="M23.1326 148.467C24.7272 150.758 27.9163 150.011 29.3614 148.617C30.8065 147.223 31.4543 145.181 32.0025 143.19C33.2981 138.759 34.5937 134.078 33.6469 129.548C33.3479 128.203 32.8496 126.859 31.9028 125.813C30.956 124.818 29.4611 124.22 28.1655 124.569C26.5709 124.967 25.5743 126.56 24.8767 128.004C22.7838 132.336 21.6875 137.165 21.6377 141.995C21.5879 144.235 21.837 146.625 23.1326 148.467Z" fill="#EBEBEB"/>
<path d="M18.648 151.805C20.392 149.714 20.7409 146.676 19.9436 144.087C19.1463 141.498 17.4022 139.258 15.3591 137.416C12.9673 135.275 10.1768 133.632 7.13709 132.586C5.94116 132.188 4.69539 131.839 3.44963 131.939C2.20386 132.039 0.958094 132.686 0.360126 133.831C-0.486995 135.474 0.310296 137.466 1.20725 139.109C2.80183 141.996 4.59573 144.735 6.58896 147.324C8.18354 149.415 10.0771 151.456 12.5188 152.402C14.9605 153.348 17.5517 153.249 18.8473 151.506" fill="#EBEBEB"/>
<path d="M22.9834 183.318C23.0332 183.318 23.0831 182.969 23.1329 182.272C23.1827 181.525 23.2824 180.529 23.4319 179.384C23.5814 178.189 23.7309 176.745 24.0797 175.202C24.4285 173.659 24.9268 171.966 25.6244 170.223C26.3221 168.53 27.1692 166.987 28.1658 165.742C29.1624 164.497 30.3085 163.601 31.3549 163.103C32.4512 162.556 33.398 162.357 34.0458 162.257C34.6936 162.207 35.0922 162.157 35.0922 162.108C35.0922 162.058 34.6936 162.058 34.0458 162.108C33.3482 162.157 32.3516 162.307 31.2553 162.854C30.1092 163.352 28.9132 164.249 27.8668 165.543C26.8204 166.788 25.9234 168.381 25.2258 170.124C24.5281 171.866 24.0298 173.559 23.7309 175.152C23.4319 176.745 23.2824 178.189 23.1827 179.434C23.0831 180.629 23.0332 181.625 23.0332 182.322C22.9834 182.969 22.9834 183.318 22.9834 183.318Z" fill="#E0E0E0"/>
<path d="M23.1828 181.125C23.1828 181.125 23.1828 180.976 23.2326 180.627C23.2326 180.279 23.2326 179.781 23.2326 179.233C23.2326 178.038 23.2326 176.296 23.2824 174.105C23.3821 169.773 23.7807 165.143 24.4784 158.571C25.176 152.397 26.0729 145.228 27.0197 140.548C27.219 139.502 27.4184 138.556 27.6177 137.71C27.817 136.863 27.9665 136.166 28.116 135.569C28.2655 135.021 28.3651 134.573 28.4648 134.224C28.5146 133.926 28.5645 133.727 28.5645 133.727C28.5645 133.727 28.5146 133.876 28.415 134.175C28.3153 134.523 28.1658 134.971 28.0163 135.519C27.817 136.116 27.6675 136.813 27.4184 137.66C27.219 138.506 26.9699 139.452 26.7207 140.498C25.774 144.73 24.7773 150.655 24.0299 157.227C23.3323 163.799 22.9834 169.773 22.9336 174.105C22.8838 176.296 22.9336 178.038 23.0333 179.233C23.0831 179.781 23.0831 180.279 23.1329 180.627C23.1828 180.976 23.1828 181.125 23.1828 181.125Z" fill="#E0E0E0"/>
<path d="M23.2327 169.578C23.2825 169.578 23.2825 169.08 23.2327 168.135C23.1829 167.189 23.0334 165.844 22.7842 164.201C22.4852 162.558 22.1364 160.567 21.4886 158.476C21.2395 157.48 20.5917 155.19 19.0967 151.655C17.1035 146.925 14.4127 143.041 12.0208 140.651C11.4727 140.004 10.8747 139.556 10.3764 139.108C10.1272 138.909 9.87808 138.66 9.67876 138.51C9.4296 138.361 9.23028 138.212 9.03096 138.062C8.23367 137.515 7.83502 137.266 7.78519 137.266C7.73536 137.365 9.52927 138.411 11.8215 140.85C14.1137 143.29 16.7049 147.124 18.6981 151.804C19.7944 154.343 20.5917 156.633 21.1398 158.525C21.7876 160.616 22.1862 162.558 22.4852 164.201C22.7842 165.844 22.9835 167.189 23.0832 168.085C23.133 169.08 23.1829 169.578 23.2327 169.578Z" fill="#E0E0E0"/>
<path d="M11.2725 188.195L12.4684 204.028H32.7993L33.9952 188.195H11.2725Z" fill="#EBEBEB"/>
<path d="M36.437 181.922H9.3291V188.145H36.437V181.922Z" fill="#EBEBEB"/>
<path d="M9.3291 203.438V205.18H10.5749H35.9387V203.438H9.3291Z" fill="#E0E0E0"/>
<path d="M11.821 208.014L10.5752 204.977H34.9922L33.5471 208.014H11.821Z" fill="#E0E0E0"/>
<path d="M33.5974 193.378C33.5974 193.378 33.5476 193.428 33.4978 193.528C33.3981 193.627 33.2984 193.777 33.1988 193.926C32.8998 194.274 32.5012 194.822 32.0029 195.42L31.953 195.469L31.9032 195.42C31.1557 194.374 30.1591 193.03 28.9632 191.387H29.1127C28.2656 192.631 27.2689 193.976 26.2225 195.469L26.1228 195.619L26.0232 195.519C24.9767 194.274 23.8306 192.88 22.6347 191.486H22.834C22.7842 191.536 22.7344 191.636 22.6347 191.735C21.5883 193.079 20.5418 194.324 19.595 195.569L19.4954 195.718L19.3957 195.569C18.3493 194.125 17.4025 192.731 16.5055 191.486H16.655C15.2598 193.079 14.0638 194.474 13.117 195.519L13.0672 195.569L13.0174 195.469C12.5689 194.673 12.1703 194.075 11.9211 193.627C11.8214 193.428 11.7218 193.279 11.6221 193.129C11.5723 193.03 11.5225 192.98 11.5225 192.93C11.5225 192.93 11.5723 192.98 11.6221 193.079C11.7218 193.229 11.8214 193.378 11.9211 193.577C12.2201 194.025 12.6187 194.623 13.0672 195.42H12.9675C13.8645 194.374 15.0604 192.98 16.4557 191.337L16.5554 191.237L16.655 191.337C17.552 192.582 18.4988 193.926 19.5452 195.37H19.3459C20.2927 194.175 21.3391 192.88 22.3855 191.536C22.4354 191.436 22.535 191.387 22.5849 191.287L22.6845 191.188L22.7842 191.287C23.9801 192.731 25.1262 194.075 26.1727 195.32H25.9733C27.0198 193.876 28.0164 192.482 28.8635 191.287L28.9632 191.188L29.0628 191.287C30.2089 192.93 31.2056 194.324 31.9032 195.37H31.8035C32.3018 194.722 32.7503 194.274 33.0493 193.876C33.1988 193.727 33.2985 193.577 33.3981 193.478C33.5476 193.428 33.5974 193.378 33.5974 193.378Z" fill="#F5F5F5"/>
<path d="M34.2453 188.102C34.2453 188.152 29.1626 188.252 22.8341 188.252C16.5554 188.252 11.4229 188.202 11.4229 188.102C11.4229 188.053 16.5056 187.953 22.8341 187.953C29.1626 187.953 34.2453 188.003 34.2453 188.102Z" fill="#F5F5F5"/>
<path d="M171.366 7.76664L167.181 7.78906L167.292 28.5509L171.478 28.5284L171.366 7.76664Z" fill="#E0E0E0"/>
<path d="M141.842 7.79366L131.028 7.85156L131.09 19.3029L141.903 19.245L141.842 7.79366Z" fill="#EBEBEB"/>
<path d="M152.605 7.74679L141.792 7.80469L141.853 19.256L152.667 19.1981L152.605 7.74679Z" fill="#F5F5F5"/>
<path d="M131.007 11.0156C138.183 11.0654 145.408 11.0156 152.584 10.9161C152.734 10.9161 152.734 10.6671 152.584 10.6671C145.408 10.6173 138.183 10.6671 131.007 10.8165C130.908 10.8165 130.908 11.0156 131.007 11.0156Z" fill="#E0E0E0"/>
<path d="M143.89 19.0745L124.257 19.1797L124.307 28.5399L143.94 28.4347L143.89 19.0745Z" fill="#EBEBEB"/>
<path d="M163.474 18.973L143.841 19.0781L143.891 28.4384L163.524 28.3332L163.474 18.973Z" fill="#F5F5F5"/>
<path d="M124.28 21.7697C137.335 21.919 150.441 21.7697 163.497 21.5705C163.646 21.5705 163.646 21.3216 163.497 21.3216C150.441 21.2718 137.335 21.2718 124.28 21.5705C124.18 21.5705 124.18 21.7697 124.28 21.7697Z" fill="#E0E0E0"/>
<path d="M193.096 28.5391H116.955V31.8749H193.096V28.5391Z" fill="#E0E0E0"/>
<path d="M132.503 30.1328H129.413V41.5344H132.503V30.1328Z" fill="#E0E0E0"/>
<path d="M178.595 30.1328H175.506V41.5344H178.595V30.1328Z" fill="#E0E0E0"/>
<path d="M175.432 0.00101102L171.246 0.0234375L171.399 28.602L175.585 28.5796L175.432 0.00101102Z" fill="#EBEBEB"/>
<path d="M181.974 5.31684L175.496 5.35156L175.62 28.5032L182.098 28.4685L181.974 5.31684Z" fill="#F5F5F5"/>
<path d="M181.934 9.77145C181.934 9.82124 180.489 9.87103 178.695 9.87103C176.901 9.87103 175.456 9.82124 175.456 9.77145C175.456 9.72166 176.901 9.67188 178.695 9.67188C180.489 9.67187 181.934 9.72166 181.934 9.77145Z" fill="#E0E0E0"/>
<path d="M181.934 8.82614C181.934 8.87593 180.489 8.92572 178.695 8.92572C176.901 8.92572 175.456 8.87593 175.456 8.82614C175.456 8.77635 176.901 8.72656 178.695 8.72656C180.489 8.72656 181.934 8.77635 181.934 8.82614Z" fill="#E0E0E0"/>
<path d="M181.934 25.0019C181.934 25.0517 180.489 25.1015 178.695 25.1015C176.901 25.1015 175.456 25.0517 175.456 25.0019C175.456 24.9521 176.901 24.9023 178.695 24.9023C180.489 24.8526 181.934 24.9023 181.934 25.0019Z" fill="#E0E0E0"/>
<path d="M181.934 24.0058C181.934 24.0556 180.489 24.1054 178.695 24.1054C176.901 24.1054 175.456 24.0556 175.456 24.0058C175.456 23.956 176.901 23.9062 178.695 23.9062C180.489 23.9062 181.934 23.956 181.934 24.0058Z" fill="#E0E0E0"/>
<path d="M178.795 21.8697C178.745 21.8697 178.695 19.5296 178.695 16.6419C178.695 13.7541 178.745 11.4141 178.795 11.4141C178.845 11.4141 178.894 13.7541 178.894 16.6419C178.894 19.5794 178.845 21.8697 178.795 21.8697Z" fill="#E0E0E0"/>
<path d="M189.06 11.0156H181.984V28.4914H189.06V11.0156Z" fill="#EBEBEB"/>
<path d="M173.314 6.08516C173.975 6.08516 174.51 5.55018 174.51 4.89024C174.51 4.2303 173.975 3.69531 173.314 3.69531C172.654 3.69531 172.118 4.2303 172.118 4.89024C172.118 5.55018 172.654 6.08516 173.314 6.08516Z" fill="#E0E0E0"/>
<path d="M173.662 8.17969H172.915V25.1576H173.662V8.17969Z" fill="#E0E0E0"/>
<path d="M214.324 208.181C214.324 208.23 166.437 208.33 107.388 208.33C48.2886 208.33 0.401367 208.28 0.401367 208.181C0.401367 208.131 48.2886 208.031 107.388 208.031C166.437 208.031 214.324 208.081 214.324 208.181Z" fill="#263238"/>
<path d="M198.927 195.129C198.927 195.129 198.977 195.079 199.026 194.93C199.076 194.78 199.176 194.581 199.325 194.332C199.574 193.785 199.873 192.988 200.172 191.942C200.721 189.802 200.92 186.516 200.123 182.632C199.724 180.69 199.126 178.599 198.379 176.408C197.631 174.168 196.784 171.828 196.086 169.289C195.389 166.75 194.841 164.011 194.94 161.123C195.04 158.236 195.887 155.348 196.834 152.46C197.781 149.572 198.727 146.784 199.026 143.946C199.375 141.108 198.727 138.37 197.482 136.08C196.236 133.789 194.641 131.798 193.495 129.806C192.299 127.765 191.552 125.674 191.103 123.732C190.206 119.799 190.505 116.513 190.954 114.372C191.402 112.181 191.95 111.086 191.95 111.086C191.95 111.086 191.95 111.186 191.901 111.285C191.851 111.434 191.801 111.634 191.701 111.932C191.552 112.48 191.303 113.326 191.103 114.422C190.705 116.612 190.455 119.849 191.352 123.732C191.801 125.674 192.548 127.715 193.744 129.707C194.94 131.698 196.485 133.69 197.781 135.98C199.076 138.27 199.724 141.158 199.375 143.996C199.076 146.884 198.08 149.722 197.183 152.56C196.236 155.448 195.389 158.285 195.289 161.123C195.189 163.961 195.688 166.7 196.385 169.239C197.083 171.778 197.93 174.118 198.628 176.359C199.375 178.599 199.973 180.69 200.322 182.632C201.119 186.565 200.87 189.851 200.322 191.992C200.023 193.088 199.674 193.884 199.425 194.382C199.275 194.631 199.176 194.83 199.126 194.98C198.977 195.079 198.977 195.129 198.927 195.129Z" fill="#263238"/>
<path d="M195.089 131.745C195.089 131.745 192.697 124.127 196.983 119.647C197.132 119.497 197.382 119.547 197.431 119.796C197.68 121.041 197.979 124.874 195.089 131.745Z" fill="#FA96BB"/>
<path d="M196.533 122.188C196.583 122.188 196.483 122.735 196.384 123.582C196.234 124.528 196.035 125.673 195.836 126.967C195.637 128.212 195.438 129.357 195.288 130.303C195.139 131.149 195.089 131.697 195.04 131.697C194.99 131.697 194.99 131.149 195.089 130.303C195.189 129.457 195.338 128.212 195.537 126.917C195.737 125.623 195.986 124.428 196.185 123.582C196.334 122.735 196.483 122.188 196.533 122.188Z" fill="#263238"/>
<path d="M197.93 149.724C197.93 149.724 199.375 141.858 205.255 139.916C205.454 139.866 205.653 140.015 205.604 140.264C205.205 141.459 203.66 144.994 197.93 149.724Z" fill="#FA96BB"/>
<path d="M203.661 141.953C203.711 142.003 203.362 142.401 202.863 143.098C202.266 143.895 201.568 144.791 200.82 145.837C200.073 146.832 199.375 147.778 198.777 148.575C198.279 149.272 197.93 149.72 197.88 149.67C197.831 149.67 198.13 149.172 198.578 148.426C199.076 147.679 199.774 146.683 200.571 145.637C201.369 144.592 202.116 143.646 202.714 142.949C203.212 142.351 203.611 141.953 203.661 141.953Z" fill="#263238"/>
<path d="M196.335 169.437C196.335 169.437 195.439 161.52 200.521 157.936C200.721 157.786 200.92 157.936 200.92 158.135C200.87 159.429 200.422 163.213 196.335 169.437Z" fill="#FA96BB"/>
<path d="M199.525 160.328C199.575 160.328 199.375 160.876 199.076 161.672C198.728 162.569 198.329 163.664 197.881 164.859C197.432 166.054 197.033 167.149 196.734 168.045C196.435 168.842 196.286 169.39 196.236 169.34C196.186 169.34 196.286 168.792 196.535 167.946C196.784 167.099 197.183 165.954 197.631 164.71C198.08 163.465 198.528 162.32 198.877 161.523C199.276 160.776 199.525 160.328 199.525 160.328Z" fill="#263238"/>
<path d="M200.72 189.202C200.72 189.202 200.122 181.236 205.305 177.851C205.504 177.751 205.703 177.851 205.703 178.1C205.653 179.394 205.056 183.178 200.72 189.202Z" fill="#FA96BB"/>
<path d="M204.308 180.242C204.358 180.242 204.159 180.79 203.81 181.586C203.461 182.483 203.013 183.578 202.514 184.723C202.016 185.918 201.617 186.964 201.219 187.86C200.92 188.656 200.721 189.154 200.671 189.154C200.621 189.154 200.77 188.607 201.02 187.76C201.269 186.914 201.717 185.819 202.215 184.574C202.714 183.329 203.212 182.234 203.611 181.437C204.009 180.69 204.258 180.242 204.308 180.242Z" fill="#263238"/>
<path d="M191.701 125.076C191.701 125.076 184.625 121.392 184.476 115.218C184.476 115.019 184.725 114.87 184.874 114.969C185.921 115.666 188.861 118.205 191.701 125.076Z" fill="#FA96BB"/>
<path d="M185.92 117.312C185.97 117.312 186.269 117.711 186.817 118.408C187.415 119.204 188.063 120.15 188.811 121.146C189.558 122.192 190.256 123.088 190.804 123.885C191.302 124.582 191.651 125.03 191.601 125.03C191.551 125.08 191.203 124.681 190.605 123.984C190.056 123.337 189.309 122.341 188.512 121.296C187.714 120.2 187.067 119.204 186.568 118.458C186.17 117.81 185.871 117.312 185.92 117.312Z" fill="#263238"/>
<path d="M199.276 141.409C199.276 141.409 192 138.173 191.452 131.999C191.452 131.8 191.651 131.651 191.851 131.75C192.947 132.398 196.037 134.738 199.276 141.409Z" fill="#FA96BB"/>
<path d="M193.097 134.043C193.147 133.993 193.496 134.441 194.044 135.088C194.642 135.835 195.389 136.731 196.187 137.727C196.984 138.723 197.731 139.619 198.329 140.366C198.878 141.013 199.226 141.461 199.226 141.461C199.177 141.511 198.778 141.113 198.18 140.515C197.582 139.868 196.785 138.972 195.938 137.926C195.09 136.881 194.343 135.935 193.845 135.238C193.346 134.541 193.047 134.043 193.097 134.043Z" fill="#263238"/>
<path d="M195.09 159.681C195.09 159.681 190.057 153.457 192.448 147.731C192.548 147.532 192.797 147.482 192.897 147.681C193.595 148.777 195.239 152.262 195.09 159.681Z" fill="#FA96BB"/>
<path d="M192.946 150.273C192.996 150.273 193.096 150.771 193.295 151.618C193.495 152.564 193.744 153.709 194.043 154.954C194.292 156.198 194.541 157.343 194.79 158.289C194.989 159.136 195.089 159.683 195.039 159.683C194.989 159.683 194.79 159.186 194.541 158.339C194.292 157.493 193.993 156.348 193.744 155.003C193.445 153.709 193.245 152.514 193.096 151.668C192.946 150.821 192.897 150.273 192.946 150.273Z" fill="#263238"/>
<path d="M200.072 181.137C200.072 181.137 192.847 177.751 192.448 171.578C192.448 171.378 192.648 171.229 192.847 171.329C193.893 172.026 196.933 174.415 200.072 181.137Z" fill="#FA96BB"/>
<path d="M193.943 173.672C193.993 173.672 194.342 174.07 194.89 174.717C195.488 175.464 196.236 176.41 196.983 177.406C197.78 178.402 198.478 179.298 199.126 180.045C199.674 180.742 200.023 181.14 199.973 181.19C199.923 181.24 199.524 180.841 198.976 180.194C198.378 179.547 197.581 178.651 196.784 177.605C195.937 176.56 195.239 175.614 194.741 174.867C194.242 174.17 193.943 173.672 193.943 173.672Z" fill="#263238"/>
<path d="M214.474 149.773C214.474 149.773 214.474 149.823 214.474 149.973C214.474 150.122 214.474 150.271 214.474 150.47C214.474 150.968 214.424 151.616 214.374 152.412C214.275 154.105 214.175 156.495 213.976 159.333C213.477 162.221 211.982 165.407 209.989 168.544C208.544 170.834 206.999 172.925 205.704 174.867C204.408 176.809 203.262 178.601 202.515 180.194C201.717 181.787 201.269 183.132 201.02 184.078C200.87 184.576 200.82 184.924 200.721 185.173C200.671 185.422 200.621 185.571 200.621 185.571C200.621 185.571 200.621 185.422 200.671 185.173C200.721 184.924 200.771 184.526 200.92 184.028C201.169 183.082 201.568 181.688 202.365 180.095C203.113 178.501 204.209 176.659 205.554 174.717C206.85 172.776 208.395 170.685 209.79 168.394C211.733 165.307 213.228 162.171 213.776 159.283C213.976 156.445 214.125 154.055 214.275 152.362C214.325 151.566 214.374 150.919 214.424 150.421C214.424 150.222 214.474 150.072 214.474 149.923C214.474 149.823 214.474 149.773 214.474 149.773Z" fill="#263238"/>
<path d="M210.138 167.941C210.138 167.941 213.228 160.573 209.341 155.743C209.191 155.594 208.942 155.644 208.892 155.843C208.544 157.038 207.946 160.822 210.138 167.941Z" fill="#FA96BB"/>
<path d="M209.59 158.281C209.639 158.281 209.739 158.829 209.838 159.675C209.938 160.522 210.087 161.717 210.187 163.061C210.287 164.405 210.336 165.6 210.336 166.447C210.336 167.343 210.287 167.841 210.237 167.841C210.187 167.841 210.187 167.293 210.087 166.447C210.038 165.451 209.938 164.306 209.838 163.061C209.739 161.816 209.689 160.621 209.59 159.675C209.59 158.829 209.54 158.281 209.59 158.281Z" fill="#263238"/>
<g opacity="0.3">
<path d="M210.138 167.941C210.138 167.941 213.228 160.573 209.341 155.743C209.191 155.594 208.942 155.644 208.892 155.843C208.544 157.038 207.946 160.822 210.138 167.941Z" fill="black"/>
</g>
<path d="M200.671 185.667C200.671 185.667 203.112 178.049 198.877 173.568C198.727 173.419 198.478 173.469 198.428 173.718C198.179 174.962 197.88 178.796 200.671 185.667Z" fill="#FA96BB"/>
<path d="M199.325 176.156C199.375 176.156 199.524 176.654 199.674 177.55C199.873 178.397 200.072 179.592 200.271 180.886C200.47 182.181 200.62 183.425 200.67 184.272C200.719 185.168 200.719 185.666 200.719 185.666C200.67 185.666 200.62 185.118 200.47 184.272C200.321 183.326 200.172 182.181 199.973 180.886C199.773 179.641 199.624 178.496 199.475 177.501C199.325 176.654 199.276 176.156 199.325 176.156Z" fill="#263238"/>
<g opacity="0.3">
<path d="M200.671 185.667C200.671 185.667 203.112 178.049 198.877 173.568C198.727 173.419 198.478 173.469 198.428 173.718C198.179 174.962 197.88 178.796 200.671 185.667Z" fill="black"/>
</g>
<path d="M214.075 158.934C214.075 158.934 220.603 154.353 219.955 148.229C219.955 148.03 219.656 147.93 219.507 148.08C218.56 148.876 215.969 151.764 214.075 158.934Z" fill="#FA96BB"/>
<g opacity="0.3">
<path d="M214.075 158.934C214.075 158.934 220.603 154.353 219.955 148.229C219.955 148.03 219.656 147.93 219.507 148.08C218.56 148.876 215.969 151.764 214.075 158.934Z" fill="black"/>
</g>
<path d="M218.76 150.469C218.81 150.469 218.61 150.967 218.212 151.763C217.863 152.56 217.315 153.605 216.667 154.8C216.019 155.995 215.421 156.991 214.973 157.738C214.524 158.485 214.175 158.883 214.126 158.883C214.076 158.883 214.375 158.385 214.773 157.638C215.222 156.792 215.82 155.746 216.418 154.651C217.016 153.556 217.564 152.51 218.062 151.664C218.461 150.917 218.71 150.469 218.76 150.469Z" fill="#263238"/>
<path d="M203.312 178.15C203.312 178.15 211.185 176.905 213.327 171.13C213.377 170.931 213.228 170.731 213.028 170.781C211.783 171.13 208.195 172.574 203.312 178.15Z" fill="#FA96BB"/>
<g opacity="0.3">
<path d="M203.312 178.15C203.312 178.15 211.185 176.905 213.327 171.13C213.377 170.931 213.228 170.731 213.028 170.781C211.783 171.13 208.195 172.574 203.312 178.15Z" fill="black"/>
</g>
<path d="M211.235 172.669C211.284 172.719 210.836 173.068 210.188 173.615C209.49 174.163 208.544 174.91 207.447 175.657C206.351 176.453 205.355 177.101 204.607 177.549C203.86 177.997 203.361 178.246 203.361 178.196C203.361 178.146 203.76 177.847 204.507 177.35C205.305 176.802 206.252 176.105 207.298 175.408C208.344 174.661 209.291 174.014 210.088 173.416C210.736 172.918 211.235 172.62 211.235 172.669Z" fill="#263238"/>
<path d="M195.787 192.688L193.445 208.172H207.797L205.953 192.688H195.787Z" fill="#9CBDEB"/>
<path d="M206.551 197.47C206.551 197.569 203.96 197.619 200.771 197.619C197.581 197.619 194.99 197.569 194.99 197.47C194.99 197.37 197.581 197.32 200.771 197.32C203.96 197.32 206.551 197.37 206.551 197.47Z" fill="#5E718D"/>
<path d="M206.8 198.712C206.8 198.811 204.109 198.861 200.82 198.861C197.532 198.861 194.841 198.811 194.841 198.712C194.841 198.612 197.532 198.562 200.82 198.562C204.159 198.562 206.8 198.612 206.8 198.712Z" fill="#5E718D"/>
<path d="M150.989 42.4831C150.989 42.4831 150.84 42.4831 150.591 42.4831C150.341 42.4831 149.943 42.4333 149.445 42.4831C148.448 42.5329 146.953 42.732 145.209 43.4788C143.465 44.2257 141.422 45.5202 139.827 47.6611C139.03 48.7564 138.332 50.0509 137.934 51.4948C137.535 52.9884 137.386 54.5817 137.585 56.2745C137.784 57.9673 138.332 59.7099 139.229 61.3031C139.678 62.0997 140.226 62.8466 140.924 63.5436C141.571 64.2406 142.369 64.8879 143.216 65.336C144.063 65.7841 145.059 66.0828 146.106 66.0828C147.103 66.033 148.149 65.6845 148.896 64.9377C149.644 64.1909 149.993 63.1453 149.993 62.05C149.993 60.9546 149.644 59.909 148.996 59.0129C147.7 57.2205 145.608 55.9758 143.365 55.3285C141.123 54.6813 138.631 54.6813 136.289 55.2289C135.093 55.5277 133.947 55.9758 132.901 56.5732C131.804 57.1707 130.858 57.9673 129.961 58.8635C129.761 59.1124 129.512 59.3116 129.363 59.5605L128.815 60.3074C128.466 60.855 128.167 61.4027 127.918 61.9504C127.37 63.0955 127.021 64.3402 126.821 65.6347C126.473 68.1739 126.772 70.8127 127.818 73.103C128.815 75.3933 130.509 77.3848 132.652 78.5797C133.698 79.1772 134.894 79.5257 136.04 79.6253C137.236 79.6751 138.382 79.3764 139.379 78.8287C140.375 78.2312 141.222 77.3848 141.671 76.3393C142.119 75.2937 142.119 74.0988 141.721 73.103C141.372 72.0574 140.674 71.1613 139.827 70.4642C139.03 69.7672 138.083 69.2195 137.087 68.871C135.093 68.2237 132.951 68.2735 131.007 68.7714C129.064 69.2693 127.37 70.2651 126.024 71.5596C124.679 72.8541 123.732 74.3975 123.184 75.9907C122.038 79.1772 122.337 82.4632 123.333 84.9527C124.33 87.4421 125.974 89.2345 127.419 90.4294C128.914 91.6243 130.26 92.2716 131.207 92.6201C131.655 92.8193 132.054 92.9188 132.303 93.0184C132.552 93.118 132.652 93.118 132.652 93.118C132.652 93.118 132.502 93.0682 132.253 93.0184C132.004 92.9686 131.655 92.8193 131.157 92.6699C130.21 92.3214 128.864 91.6741 127.32 90.529C125.825 89.3341 124.18 87.5417 123.134 85.0522C122.137 82.5628 121.789 79.227 122.984 75.9907C123.533 74.3975 124.529 72.8043 125.875 71.5098C127.22 70.2153 128.964 69.2195 130.908 68.6718C132.851 68.1241 135.043 68.0744 137.087 68.7714C138.083 69.1199 139.08 69.6676 139.927 70.4144C140.774 71.1612 141.472 72.0574 141.87 73.1528C142.269 74.2481 142.269 75.4929 141.82 76.5882C141.372 77.6835 140.475 78.5797 139.429 79.1772C138.382 79.7747 137.136 80.0734 135.94 80.0236C134.695 79.9738 133.499 79.5755 132.402 78.9781C130.21 77.7831 128.516 75.7418 127.469 73.4017C126.423 71.0617 126.124 68.3731 126.423 65.7841C126.622 64.4896 126.971 63.2449 127.519 62.05C127.768 61.4525 128.117 60.9048 128.466 60.3571L129.064 59.5605C129.263 59.3116 129.512 59.0626 129.712 58.8137C130.609 57.8677 131.605 57.0711 132.701 56.4736C133.798 55.8762 134.994 55.4281 136.19 55.0796C138.581 54.4821 141.123 54.5319 143.415 55.1791C145.707 55.8762 147.8 57.0711 149.146 58.9631C149.793 59.909 150.192 61.0044 150.192 62.1495C150.192 63.2449 149.793 64.39 148.996 65.1866C148.199 65.9832 147.103 66.3318 146.056 66.3816C145.01 66.4313 143.963 66.1326 143.066 65.6347C142.169 65.1368 141.372 64.4896 140.724 63.7926C140.027 63.0955 139.478 62.2989 139.03 61.5023C138.083 59.8593 137.585 58.1167 137.336 56.4239C137.136 54.731 137.286 53.0382 137.685 51.5446C138.083 50.0509 138.781 48.7564 139.628 47.6611C141.272 45.4704 143.315 44.1759 145.109 43.4788C146.903 42.732 148.398 42.5826 149.395 42.5329C149.893 42.4831 150.292 42.5329 150.541 42.5329C150.89 42.4333 150.989 42.4831 150.989 42.4831Z" fill="#9C9C9C"/>
<path d="M167.633 92.2734H97.7705V146.095H167.633V92.2734Z" fill="#9CBDEB"/>
<path d="M97.7705 92.2734L110.677 104.322H179.393L167.633 92.2734H97.7705Z" fill="#9CBDEB"/>
<path d="M97.7705 92.2744C99.0163 92.2744 127.868 92.2246 167.633 92.125H167.683L167.733 92.1748C171.47 96.0085 175.357 99.9916 179.343 104.074C179.393 104.124 179.443 104.174 179.443 104.174L179.642 104.373H179.343C151.189 104.373 126.174 104.323 110.677 104.323H110.627C102.554 96.8051 98.219 92.6727 97.7705 92.2744C98.219 92.6727 102.604 96.7055 110.726 104.224H110.677C126.224 104.224 151.189 104.174 179.343 104.174L179.244 104.373C179.194 104.323 179.144 104.273 179.144 104.273C175.157 100.191 171.271 96.2077 167.533 92.3739L167.633 92.4237C127.918 92.3242 99.0661 92.2744 97.7705 92.2744Z" fill="#263238"/>
<path d="M118.749 117.117C118.001 117.117 117.354 117.764 117.304 118.511C117.304 119.258 117.952 119.955 118.699 119.955C119.446 120.005 120.144 119.358 120.194 118.611C120.244 117.864 119.596 117.167 118.848 117.117" fill="#263238"/>
<path d="M135.243 117.117C134.495 117.117 133.848 117.764 133.798 118.511C133.798 119.258 134.446 119.955 135.193 119.955C135.941 120.005 136.638 119.358 136.688 118.611C136.738 117.864 136.09 117.167 135.343 117.117" fill="#263238"/>
<path d="M135.393 130.012C135.343 130.062 135.193 128.668 133.997 126.925C133.399 126.079 132.552 125.133 131.356 124.386C130.21 123.639 128.715 123.091 127.121 123.041C125.526 122.992 124.031 123.49 122.835 124.137C121.639 124.834 120.693 125.68 120.045 126.527C118.749 128.219 118.55 129.564 118.5 129.564C118.5 129.564 118.5 129.464 118.55 129.315C118.6 129.165 118.6 128.916 118.749 128.668C118.948 128.12 119.297 127.323 119.945 126.427C120.593 125.581 121.49 124.635 122.736 123.938C123.981 123.241 125.526 122.743 127.171 122.792C128.815 122.842 130.36 123.39 131.506 124.187C132.702 124.983 133.599 125.929 134.147 126.825C134.745 127.722 135.044 128.518 135.193 129.116C135.293 129.414 135.293 129.614 135.343 129.763C135.393 129.912 135.393 130.012 135.393 130.012Z" fill="#263238"/>
<path opacity="0.5" d="M97.9199 92.8672L110.278 108.551H167.633V104.319H110.677L97.9199 92.8672Z" fill="black"/>
<path d="M153.88 145.994C153.83 145.994 153.73 136.634 153.73 125.083C153.73 113.532 153.78 104.172 153.88 104.172C153.93 104.172 154.029 113.532 154.029 125.083C153.979 136.634 153.93 145.994 153.88 145.994Z" fill="#263238"/>
<path d="M164.842 133.797H158.663V140.767H164.842V133.797Z" fill="#F5F5F5"/>
<path d="M97.7702 92.2734L83.4189 104.322H97.7702V92.2734Z" fill="#9CBDEB"/>
<g opacity="0.4">
<path d="M97.7702 92.2734L83.4189 104.322H97.7702V92.2734Z" fill="black"/>
</g>
<path d="M169.725 146.141H89.3984V208.028H169.725V146.141Z" fill="#9CBDEB"/>
<path opacity="0.19" d="M169.725 146.141H89.3984V208.028H169.725V146.141Z" fill="black"/>
<path d="M149.594 207.576C149.544 207.576 149.444 193.784 149.444 176.757C149.444 159.729 149.494 145.938 149.594 145.938C149.693 145.938 149.743 159.729 149.743 176.757C149.693 193.784 149.643 207.576 149.594 207.576Z" fill="#263238"/>
<path d="M162.899 193.938H156.72V200.908H162.899V193.938Z" fill="#F5F5F5"/>
<path d="M122.984 146.289H113.865V159.483H122.984V146.289Z" fill="#263238"/>
<path d="M122.984 194.633H113.865V207.827H122.984V194.633Z" fill="#263238"/>
<path d="M169.028 146.139C169.028 146.139 168.978 146.139 168.828 146.139C168.679 146.139 168.48 146.139 168.231 146.139C167.682 146.139 166.885 146.139 165.888 146.139C163.845 146.139 160.955 146.139 157.367 146.188C150.142 146.188 140.226 146.188 129.213 146.238C118.201 146.238 108.284 146.188 101.059 146.188C97.471 146.188 94.531 146.139 92.5378 146.139C91.5412 146.139 90.7439 146.139 90.1957 146.139C89.9466 146.139 89.7472 146.139 89.5978 146.139C89.4483 146.139 89.3984 146.139 89.3984 146.139C89.3984 146.139 89.4483 146.139 89.5978 146.139C89.7472 146.139 89.9466 146.139 90.1957 146.139C90.7439 146.139 91.5412 146.139 92.5378 146.139C94.5808 146.139 97.471 146.139 101.059 146.089C108.284 146.089 118.201 146.089 129.213 146.039C140.176 146.039 150.142 146.089 157.367 146.089C160.955 146.089 163.895 146.139 165.888 146.139C166.885 146.139 167.682 146.139 168.231 146.139C168.48 146.139 168.679 146.139 168.828 146.139C168.928 146.139 169.028 146.139 169.028 146.139Z" fill="#263238"/>
<path d="M52.9182 37.8011C52.3202 37.6517 49.5795 36.9547 44.148 35.6602H44.1978C42.2544 36.9049 39.6632 37.8509 36.6236 37.9007C35.1287 37.9007 33.5341 37.7015 31.9395 37.2036C30.3449 36.7058 28.8002 35.9091 27.3551 34.764C24.5147 32.5733 22.3222 29.0881 21.8239 25.0055C21.5747 23.0139 21.7242 20.873 22.372 18.8815C23.0198 16.8899 24.1161 14.9482 25.5612 13.3549C26.3086 12.5085 27.2056 11.8115 28.1025 11.1643C28.551 10.8655 29.0493 10.5668 29.5476 10.3178L30.2951 9.96933L30.7436 9.81996L31.1422 9.6706C33.1853 8.87398 35.328 8.57525 37.4209 8.72461C39.5138 8.87398 41.507 9.42165 43.251 10.3676C44.9951 11.2638 46.49 12.5085 47.686 13.9524C48.8819 15.3465 49.729 16.9397 50.2772 18.533C50.8253 20.1262 51.0745 21.7194 51.0745 23.2629C51.0745 26.3 50.1277 28.9387 48.9816 30.8307V30.7311C51.4233 35.1125 52.6192 37.3032 52.9182 37.8011C52.6192 37.3032 51.3734 35.1125 48.8321 30.7809V30.7311V30.6813C49.9782 28.7894 50.8751 26.2004 50.8751 23.2131C50.8751 21.7194 50.5762 20.1262 50.0778 18.5827C49.5297 17.0393 48.6826 15.4461 47.5365 14.1018C46.3904 12.7077 44.8955 11.5128 43.2012 10.6166C41.507 9.72038 39.5138 9.17271 37.4707 9.02335C35.4276 8.87398 33.2849 9.17271 31.2917 9.96933L30.8931 10.1187L30.5442 10.3178L29.7968 10.6664C29.2985 10.9153 28.85 11.214 28.4015 11.5128C27.5046 12.16 26.6574 12.8571 25.91 13.6537C24.4649 15.2469 23.3686 17.0891 22.7707 19.0806C22.1727 21.0722 21.9734 23.1135 22.2225 25.105C22.671 29.0881 24.8635 32.5235 27.6042 34.6644C28.9995 35.7598 30.5442 36.5564 32.089 37.0543C33.6337 37.5522 35.2283 37.7513 36.6734 37.7513C39.6632 37.7015 42.2046 36.7555 44.148 35.5606H44.1978H44.2477C49.5795 36.9049 52.3202 37.6517 52.9182 37.8011Z" fill="#9C9C9C"/>
<path d="M35.2285 16.7926L35.7268 24.1116C35.7767 24.709 36.2251 25.2069 36.8231 25.2069C37.4709 25.2567 38.019 24.7588 38.0689 24.1613L38.8662 16.8424C38.916 16.2948 38.4675 15.7969 37.9194 15.7969H36.1255C35.6272 15.8467 35.2285 16.2948 35.2285 16.7926Z" fill="#E6427A"/>
<path d="M38.766 29.3348C38.4671 30.2807 37.4704 30.7786 36.5237 30.4799C35.5769 30.1812 35.0786 29.1854 35.3776 28.2394C35.6765 27.2934 36.6732 26.7956 37.6199 27.0943C38.5667 27.393 39.065 28.3888 38.766 29.3348Z" fill="#E6427A"/>
<path d="M76.6183 64.5768C75.7783 60.0419 75.1063 58.0264 74.2664 55.0032C72.9224 49.7965 69.7305 44.9257 64.6906 43.4141L63.6826 51.1401L64.8586 57.3546C65.3626 62.8972 69.3945 70.2873 72.0824 78.8532L79.1382 82.7162C79.8102 77.1736 76.9543 67.0961 76.6183 64.5768Z" fill="#FABAAF"/>
<path d="M101.737 89.2227C100.491 88.9345 97.8453 89.4093 96.0264 89.7358C91.7232 85.7301 81.459 79.8933 73.8657 75.6249C73.6707 75.4892 72.3309 76.5829 72.2249 76.9432L76.8374 83.6236C81.5646 86.1881 91.4855 91.0626 94.8475 92.6776C99.5154 94.9114 98.5573 93.3769 102.131 94.2713C102.013 93.61 101.292 93.3981 101.067 93.0971C100.843 92.7962 98.8584 93.1523 99.4011 92.3723C99.9735 91.7576 104.989 93.0758 105.337 92.1602C106.045 91.3506 102.954 89.3456 101.737 89.2227Z" fill="#FABAAF"/>
<path d="M75.2996 61.9375C75.2996 61.9375 77.3155 65.8005 78.4915 70.6713C91.5952 108.63 70.5957 65.1287 70.5957 65.1287L75.2996 61.9375Z" fill="#FABAAF"/>
<path d="M71.0617 208.417H62.494C61.822 207.745 60.646 206.402 59.47 205.226L59.134 208.417H57.7901L57.6221 202.707V202.371C57.6221 202.371 57.6221 202.371 57.6221 202.203C57.7901 200.523 59.638 198.172 59.806 197.836C59.806 197.836 59.806 197.836 59.974 197.836C60.31 198.004 60.982 198.508 61.822 200.691C62.6619 202.539 63.8379 204.386 64.8459 204.89C65.5179 205.226 66.5259 205.058 67.1978 205.058C67.1978 205.058 67.1978 205.058 67.3658 205.058C67.5338 205.058 67.7018 205.058 67.7018 205.058C67.7018 205.058 71.2297 206.57 71.2297 207.074C71.2297 207.242 71.0617 207.913 71.0617 208.417Z" fill="#E6427A"/>
<path d="M67.5337 204.885H67.1977C67.1977 204.885 67.1977 204.885 67.0297 204.885C66.5257 204.885 65.3497 205.053 64.6778 204.717C63.6698 204.381 62.4938 202.366 61.6538 200.518C60.6459 198.503 60.1419 197.831 59.8059 197.663H59.6379C59.8059 197.327 59.8059 197.159 59.9739 196.823C60.3099 196.151 59.3019 189.937 58.4619 182.883H66.0217C65.0138 191.113 65.0138 196.991 65.3497 198.503C66.1897 201.694 67.5337 204.885 67.5337 204.885Z" fill="#FABAAF"/>
<path d="M95.4215 155.843H37.6309C37.6309 155.843 47.7106 114.357 49.0546 108.311C53.7585 86.8123 59.8063 84.4609 59.8063 84.4609H60.1423H74.758C77.4459 89.3317 81.9818 98.9053 86.3497 112.51C91.2216 127.122 95.4215 155.843 95.4215 155.843Z" fill="#F97CAA"/>
<path d="M41.1592 167.264H88.1981C88.1981 167.264 83.1582 127.626 80.9742 112.678C78.9583 99.5771 75.9343 89.3317 73.0784 84.4609H58.1268C58.1268 84.4609 51.4069 94.3705 48.215 108.311C46.871 114.357 41.1592 167.264 41.1592 167.264Z" fill="#F97CAA"/>
<path d="M82.9899 183.052H66.1903H58.6305H49.0547C49.0547 183.052 53.0866 112.51 53.2546 108.311C53.5906 95.7141 59.8064 84.4609 59.8064 84.4609H74.7581C77.446 89.3317 79.294 100.249 79.798 113.014C80.6379 128.13 82.9899 183.052 82.9899 183.052Z" fill="#F97CAA"/>
<path d="M77.2779 75.0582C76.1019 76.2339 74.926 81.1047 74.926 84.4638H60.3103C60.3103 84.2959 60.4783 83.96 60.4783 83.792C60.8143 79.5931 55.7744 66.3244 55.7744 66.3244C55.7744 66.3244 61.6543 62.9652 65.3502 62.2934C66.5262 62.1254 76.2699 62.2934 76.2699 62.2934C76.2699 62.2934 77.9499 63.973 78.6219 65.1487C80.9738 68.6758 78.6219 73.5466 77.2779 75.0582Z" fill="#F97CAA"/>
<path d="M84.8373 54.396C84.5014 59.9386 79.4615 62.4579 76.2696 62.29C73.0776 61.9541 71.7337 58.7629 70.7257 56.7474C69.7177 54.7319 69.5497 52.5484 69.2137 50.7009C69.0457 49.8611 68.8777 49.1893 68.8777 48.5174C68.8777 47.3417 69.2137 46.166 70.0537 45.3262C71.9017 43.3107 73.0776 40.1195 73.0776 37.0963C73.0776 36.2565 72.9096 35.2488 72.7416 34.409C72.0697 31.2178 68.3737 30.0421 67.1978 29.5382H67.0298C66.8618 29.5382 66.8618 29.5382 66.8618 29.5382V29.7061C65.3498 30.0421 64.5098 31.5537 63.8379 33.9051C63.6699 34.5769 63.5019 35.2488 63.3339 36.0885C62.9979 38.6079 62.6619 41.7991 62.6619 45.3262C62.6619 47.3417 62.3259 49.0213 61.9899 50.365C60.8139 48.6854 51.9101 40.2875 57.454 30.8818C58.798 28.6984 60.4779 27.5227 62.1579 27.1868C64.1738 26.6829 66.0218 27.0188 66.1898 27.0188C66.3578 26.6829 68.7097 22.484 73.9176 23.4917C79.4615 24.4994 82.8214 29.0343 82.8214 33.9051C82.9894 41.1273 76.7735 43.3107 78.4535 45.3262C80.4695 47.5097 85.0053 50.197 84.8373 54.396Z" fill="#10215F"/>
<path d="M56.6145 54.8968C54.0945 55.0647 52.0786 55.5686 49.3906 58.9278L55.4385 66.3179C55.4385 66.3179 61.6543 63.2943 65.3502 62.6225C66.5262 62.4546 75.934 62.2869 75.934 62.2869C72.7421 61.951 71.3981 58.7598 70.3901 56.7443C69.3821 54.7288 69.2142 52.5454 68.8782 50.6978C68.7102 49.858 69.2141 49.1862 69.2141 48.5144C69.2141 47.1707 69.5501 46.163 70.3901 45.1552C72.2381 43.1397 73.414 39.9485 73.414 36.9253C73.414 36.0855 73.2461 35.0778 73.0781 34.238C72.4061 31.0468 68.0382 29.8711 66.8622 29.3672H66.6942H66.5262C63.3343 30.207 62.4943 36.5894 62.3263 45.1552C62.3263 47.1707 61.9903 48.8503 61.6543 50.194C60.9823 53.5531 60.1424 54.3929 56.6145 54.8968Z" fill="#FABAAF"/>
<path d="M51.9102 75.3895C49.8943 72.3663 49.3903 70.8547 48.3823 68.8392C46.5344 65.312 46.7024 61.2811 50.0623 58.2578L55.1022 62.1208L55.7221 65.8492C57.1694 69.4675 59.638 73.3734 61.99 79.4198L59.974 86.9786C56.7821 84.4592 52.5822 76.2293 51.9102 75.3895Z" fill="#FABAAF"/>
<path d="M76.6518 48.8599C76.0093 49.966 74.4797 51.8183 73.0034 52.8228L72.8163 52.9692C72.7519 59.0526 68.6211 69.3754 68.0242 78.4394L65.2938 78.4395C64.94 78.5655 64.201 78.8139 63.8675 78.7732L63.8219 70.8152C65.1391 65.5614 68.4609 54.9681 69.575 51.3815C71.0183 46.4814 71.6489 48.2502 73.4097 44.9116C73.8491 45.4727 73.7271 46.4731 73.3123 47.0993C73.1253 47.2457 72.3363 48.1648 73.0034 48.2461C73.8575 48.181 76.2811 43.5695 77.241 44.0249C77.9081 44.1062 77.2943 47.7538 76.6518 48.8599Z" fill="#FABAAF"/>
<path d="M68.7098 73.546C67.8698 95.3807 61.9742 92.2842 57.79 84.4632L61.9899 79.425C61.9899 74.2689 69.5498 51.7112 68.7098 73.546Z" fill="#FABAAF"/>
<path d="M69.4719 46.4978C69.4719 46.4978 66.5605 46.7105 63.6826 44.8672C63.6826 44.8672 65.1216 48.1285 69.4719 47.7031V46.4978Z" fill="#E3A297"/>
</svg>
