<svg width="14" height="16" viewBox="0 0 14 16" fill="none" xmlns="http://www.w3.org/2000/svg">
<path d="M7.09376 8.03502C9.01876 8.03502 10.5938 6.46001 10.5938 4.53501C10.5938 2.61 9.01876 1 7.09376 1C5.16875 1 3.59375 2.575 3.59375 4.50001C3.59375 6.42501 5.16875 8.03502 7.09376 8.03502ZM7.09376 1.7C8.63381 1.7 9.89377 2.95995 9.89377 4.50001C9.89377 6.04006 8.63381 7.30002 7.09376 7.30002C5.5537 7.30002 4.29375 6.04006 4.29375 4.50001C4.29375 2.95995 5.5537 1.7 7.09376 1.7Z" fill="#E6427A" stroke="#E6427A" stroke-width="0.2"/>
<path d="M10.7342 8.66599C11.0492 8.66599 11.2242 8.28104 10.9792 8.07096C10.9442 8.036 10.9442 8.036 10.9092 8.00094C10.4891 7.61599 9.75419 7.58092 9.29922 7.89596C8.00419 8.77096 6.21921 8.77096 4.88921 7.89596C4.3642 7.54596 3.69915 7.61599 3.24418 8.036C1.87912 9.29596 1.17912 10.556 0.75922 12.341C0.549259 13.251 0.899261 14.161 1.66917 14.721C1.9141 14.896 2.22905 15.001 2.57905 15.001H8.42407C8.63403 15.001 8.77407 14.8609 8.77407 14.651C8.77407 14.441 8.63403 14.301 8.42407 14.301H2.57905C2.40405 14.301 2.22905 14.2309 2.089 14.1609C1.564 13.776 1.31897 13.1459 1.45902 12.5159C1.84397 10.8359 2.50902 9.71589 3.76898 8.56089C3.87396 8.45591 4.04895 8.38589 4.189 8.38589C4.29398 8.38589 4.39896 8.42085 4.50405 8.45591C4.78403 8.59595 5.02906 8.80591 5.30903 8.91088C6.81401 9.50591 8.42404 9.29584 9.68404 8.45591C9.894 8.31587 10.2791 8.35093 10.4541 8.49087C10.489 8.52583 10.559 8.59585 10.5941 8.63091L10.7342 8.66599Z" fill="#E6427A" stroke="#E6427A" stroke-width="0.2"/>
<path fill-rule="evenodd" clip-rule="evenodd" d="M10.8504 9.39844C9.49729 9.39844 8.40039 10.4953 8.40039 11.8484C8.40039 13.2015 9.49729 14.2984 10.8504 14.2984C12.2035 14.2984 13.3004 13.2015 13.3004 11.8484C13.3004 10.4953 12.2035 9.39844 10.8504 9.39844Z" stroke="#E6427A" stroke-width="0.7"/>
<path d="M10.6099 12.6147C10.5374 12.6812 10.4201 12.6812 10.3475 12.6147L9.67943 12.003C9.60686 11.9365 9.60686 11.8292 9.67943 11.7627C9.75201 11.6963 9.86926 11.6963 9.94183 11.7627L10.4778 12.2535L11.7582 11.0811C11.8307 11.0146 11.948 11.0146 12.0206 11.0811C12.0931 11.1476 12.0931 11.2549 12.0206 11.3214L10.6099 12.6147Z" fill="#E6427A" stroke="#E6427A" stroke-width="0.4"/>
</svg>
