<svg width="25" height="24" viewBox="0 0 25 24" fill="none" xmlns="http://www.w3.org/2000/svg">
<path d="M20.1922 4.61538C20.1922 4.78764 20.0569 4.92301 19.8846 4.92301H15.2692V9.53839C15.2692 9.71064 15.1339 9.84601 14.9616 9.84601H10.3462V14.4616C10.3462 14.6339 10.2108 14.7692 10.0386 14.7692H5.42321L5.42301 19.3846C5.42301 19.5569 5.28764 19.6922 5.11538 19.6922H0.5V24H24.5V0H20.1922L20.1922 4.61538ZM20.3276 9.10776V10.2647C20.826 10.3632 21.2814 10.5355 21.706 10.7817L22.1431 11.0401C22.2723 11.1138 22.3277 11.2739 22.2723 11.4155L21.4908 13.4831C21.4601 13.5692 21.3923 13.6309 21.3061 13.6615C21.22 13.6923 21.1277 13.6861 21.0478 13.637L20.4323 13.2863C20.2477 13.1817 19.8107 12.9295 19.1155 12.9295C18.8509 12.9295 18.5371 12.9787 18.5371 13.2249C18.5371 13.3358 18.5371 13.4957 19.7126 13.982C20.888 14.4621 22.4511 15.3359 22.4511 17.3912C22.4511 18.782 21.5896 19.9758 20.2295 20.4742L20.2293 21.8463C20.2293 22.0185 20.094 22.1539 19.9217 22.1539H17.8293C17.6571 22.1539 17.5217 22.0185 17.5217 21.8463V20.6463C16.8325 20.5171 16.2049 20.2709 15.7555 19.9509L15.3863 19.6863C15.2754 19.6064 15.2262 19.4586 15.2754 19.3294L16.0262 17.2309C16.0569 17.1448 16.1309 17.0708 16.217 17.0401C16.3094 17.0094 16.4078 17.0215 16.4816 17.077L17.1216 17.5078C17.5462 17.7909 18.1124 17.957 18.6354 17.957C19.0108 17.957 19.3924 17.8154 19.3924 17.4954C19.3924 17.3601 19.3924 17.0831 18.377 16.6708C17.0355 16.1415 15.491 15.2924 15.491 13.397C15.491 12.0369 16.2972 10.9233 17.614 10.437L17.6138 9.10784C17.6138 8.93558 17.7492 8.80021 17.9215 8.80021H20.0015C20.1923 8.80001 20.3277 8.94156 20.3277 9.10784L20.3276 9.10776Z" fill="#E6427A"/>
<path d="M1.24609 8.65854L2.55074 9.96319L7.203 5.31093C7.32601 5.18792 7.5168 5.18792 7.64002 5.31093L8.99394 6.66485L10.477 0.726562L4.53822 2.21562L5.89214 3.57571C6.01514 3.69871 6.01514 3.88951 5.89214 4.01273L1.24609 8.65854Z" fill="#E6427A"/>
</svg>
