<svg width="14" height="14" viewBox="0 0 14 14" fill="none" xmlns="http://www.w3.org/2000/svg">
<path fill-rule="evenodd" clip-rule="evenodd" d="M12.8555 7.3189V13.0455C12.8555 13.5728 12.4262 14 11.899 14H2.3545C1.82724 14 1.40002 13.5728 1.40002 13.0455V7.3189C1.40002 6.79164 1.82724 6.36442 2.3545 6.36442H2.6734V4.45558C2.6734 2.00903 4.6823 0 7.12678 0C9.57333 0 11.5824 2.0089 11.5824 4.45558V6.36442H11.8992C12.4264 6.36442 12.8557 6.79164 12.8557 7.3189H12.8555ZM3.77171 6.3894H10.4842V4.51183C10.4842 2.63217 8.97552 1.09822 7.12703 1.09822C5.28071 1.09822 3.77203 2.63204 3.77203 4.51183L3.77171 6.3894Z" fill="#707070"/>
</svg>
