<svg width="343" height="304" viewBox="0 0 343 304" fill="none" xmlns="http://www.w3.org/2000/svg">
<path d="M335.568 280.258H308.57V280.462H335.568V280.258Z" fill="#EBEBEB"/>
<path d="M238.831 282.473H231.746V282.676H238.831V282.473Z" fill="#EBEBEB"/>
<path d="M307.753 272.684H292.109V272.887H307.753V272.684Z" fill="#EBEBEB"/>
<path d="M46.8234 274.055H11.6172V274.258H46.8234V274.055Z" fill="#EBEBEB"/>
<path d="M59.244 274.055H54.082V274.258H59.244V274.055Z" fill="#EBEBEB"/>
<path d="M152.374 277.496H76.0195V277.7H152.374V277.496Z" fill="#EBEBEB"/>
<path d="M162.046 230.744H4.65254C2.08745 230.744 0 228.654 0 226.087V4.65653C0 2.08924 2.08745 0 4.65254 0H162.046C164.61 0 166.697 2.08924 166.697 4.65653V226.087C166.697 228.654 164.61 230.744 162.046 230.744ZM4.65254 0.203947C2.19912 0.203947 0.203773 2.201 0.203773 4.65653V226.087C0.203773 228.543 2.19912 230.54 4.65254 230.54H162.046C164.498 230.54 166.494 228.543 166.494 226.087V4.65653C166.494 2.201 164.498 0.203947 162.046 0.203947H4.65254Z" fill="#EBEBEB"/>
<path d="M338.346 230.744H180.953C178.387 230.744 176.301 228.654 176.301 226.087V4.65653C176.301 2.08924 178.387 0 180.953 0H338.346C340.911 0 342.998 2.08924 342.998 4.65653V226.087C342.998 228.654 340.911 230.744 338.346 230.744ZM180.953 0.203947C178.5 0.203947 176.505 2.201 176.505 4.65653V226.087C176.505 228.543 178.5 230.54 180.953 230.54H338.346C340.799 230.54 342.794 228.543 342.794 226.087V4.65653C342.794 2.201 340.799 0.203947 338.346 0.203947H180.953Z" fill="#EBEBEB"/>
<path d="M317.288 23.5586H204.984V97.1649H317.288V23.5586Z" fill="#E6E6E6"/>
<path d="M315.685 23.5586H201.555V97.1649H315.685V23.5586Z" fill="#F0F0F0"/>
<path d="M317.288 97.1641H204.984V111.61H317.288V97.1641Z" fill="#E6E6E6"/>
<path d="M309.977 97.1641H195.848V111.61H309.977V97.1641Z" fill="#F0F0F0"/>
<path d="M310.886 28.3594H206.352V92.363H310.886V28.3594Z" fill="#FAFAFA"/>
<path d="M287.315 92.363L273.963 28.3594H253.129L266.481 92.363H287.315Z" fill="white"/>
<path d="M308.667 87.5843C308.856 87.5843 309.009 87.4309 309.009 87.2417V31.4833C309.009 31.294 308.856 31.1406 308.667 31.1406C308.478 31.1406 308.324 31.294 308.324 31.4833V87.2417C308.325 87.4309 308.478 87.5843 308.667 87.5843Z" fill="#F0F0F0"/>
<path d="M262.005 92.363L248.654 28.3594H240.531L253.883 92.363H262.005Z" fill="white"/>
<path d="M206.96 28.3594H206.352V92.363H206.96V28.3594Z" fill="#E6E6E6"/>
<g opacity="0.6">
<g opacity="0.6">
<path opacity="0.6" d="M200.422 35.5994H312.726L313.168 30.2266H200.864L200.422 35.5994Z" fill="#EBEBEB"/>
</g>
</g>
<g opacity="0.6">
<g opacity="0.6">
<path opacity="0.6" d="M200.422 44.4127H312.726L313.168 39.0391H200.864L200.422 44.4127Z" fill="#EBEBEB"/>
</g>
</g>
<g opacity="0.6">
<g opacity="0.6">
<path opacity="0.6" d="M200.422 53.2244H312.726L313.168 47.8516H200.864L200.422 53.2244Z" fill="#EBEBEB"/>
</g>
</g>
<g opacity="0.6">
<g opacity="0.6">
<path opacity="0.6" d="M200.422 62.0368H312.726L313.168 56.6641H200.864L200.422 62.0368Z" fill="#EBEBEB"/>
</g>
</g>
<g opacity="0.6">
<g opacity="0.6">
<path opacity="0.6" d="M200.422 70.8494H312.726L313.168 65.4766H200.864L200.422 70.8494Z" fill="#EBEBEB"/>
</g>
</g>
<g opacity="0.6">
<g opacity="0.6">
<path opacity="0.6" d="M200.422 79.6619H312.726L313.168 74.2891H200.864L200.422 79.6619Z" fill="#EBEBEB"/>
</g>
</g>
<path d="M301.16 213.598H277.613V218.244H301.16V213.598Z" fill="#E6E6E6"/>
<path d="M237.546 160.203H233.199V267.125H237.546V160.203Z" fill="#E6E6E6"/>
<path d="M277.612 213.598H218.141V218.244H277.612V213.598Z" fill="#F5F5F5"/>
<path d="M301.16 239.023H277.613V243.669H301.16V239.023Z" fill="#E6E6E6"/>
<path d="M277.612 239.023H218.141V243.669H277.612V239.023Z" fill="#F5F5F5"/>
<path d="M301.16 162.746H277.613V167.392H301.16V162.746Z" fill="#E6E6E6"/>
<path d="M277.612 162.746H218.141V167.392H277.612V162.746Z" fill="#F5F5F5"/>
<path d="M301.16 188.172H277.613V192.818H301.16V188.172Z" fill="#E6E6E6"/>
<path d="M277.612 188.172H218.141V192.818H277.612V188.172Z" fill="#F5F5F5"/>
<path d="M297.018 160.203H292.672V267.125H297.018V160.203Z" fill="#E6E6E6"/>
<path d="M277.613 160.203H273.266V267.125H277.613V160.203Z" fill="#F5F5F5"/>
<path d="M222.488 160.203H218.141V267.125H222.488V160.203Z" fill="#F5F5F5"/>
<path d="M66.6306 180.742H22.1445V267.129H66.6306V180.742Z" fill="#E6E6E6"/>
<path d="M34.0237 267.128H22.1445V255.203H46.4791L34.0237 267.128Z" fill="#FAFAFA"/>
<path d="M187.924 180.742H143.438V267.129H187.924V180.742Z" fill="#E6E6E6"/>
<path d="M153.805 180.742H22.1445V263.024H153.805V180.742Z" fill="#FAFAFA"/>
<path d="M141.924 267.128H153.803V255.203H129.469L141.924 267.128Z" fill="#FAFAFA"/>
<path d="M144.589 211.402H31.3594V231.994H144.589V211.402Z" fill="#F0F0F0"/>
<path d="M144.589 236.395H31.3594V256.986H144.589V236.395Z" fill="#F0F0F0"/>
<path d="M52.8783 213.603H123.064C125.125 213.603 126.795 211.931 126.795 209.87V209.617H49.1484V209.87C49.1484 211.931 50.8186 213.603 52.8783 213.603Z" fill="#FAFAFA"/>
<path d="M144.589 186.41H31.3594V207.002H144.589V186.41Z" fill="#F0F0F0"/>
<path d="M52.8783 188.61H123.064C125.125 188.61 126.795 186.939 126.795 184.878V184.625H49.1484V184.878C49.1484 186.939 50.8186 188.61 52.8783 188.61Z" fill="#FAFAFA"/>
<path d="M52.8783 238.595H123.064C125.125 238.595 126.795 236.923 126.795 234.862V234.609H49.1484V234.862C49.1484 236.923 50.8186 238.595 52.8783 238.595Z" fill="#FAFAFA"/>
<path d="M141.535 23.5586H29.2305V97.1649H141.535V23.5586Z" fill="#E6E6E6"/>
<path d="M139.934 23.5586H25.8047V97.1649H139.934V23.5586Z" fill="#F0F0F0"/>
<path d="M141.535 97.1641H29.2305V111.61H141.535V97.1641Z" fill="#E6E6E6"/>
<path d="M134.224 97.1641H20.0938V111.61H134.224V97.1641Z" fill="#F0F0F0"/>
<path d="M135.136 28.3594H30.6016V92.363H135.136V28.3594Z" fill="#FAFAFA"/>
<path d="M111.565 92.363L98.2134 28.3594H77.3789L90.7309 92.363H111.565Z" fill="white"/>
<path d="M132.913 87.5843C133.102 87.5843 133.255 87.4309 133.255 87.2417V31.4833C133.255 31.294 133.102 31.1406 132.913 31.1406C132.724 31.1406 132.57 31.294 132.57 31.4833V87.2417C132.57 87.4309 132.724 87.5843 132.913 87.5843Z" fill="#F0F0F0"/>
<path d="M86.2556 92.363L72.9028 28.3594H64.7812L78.1324 92.363H86.2556Z" fill="white"/>
<path d="M31.2104 28.3594H30.6016V92.363H31.2104V28.3594Z" fill="#E6E6E6"/>
<g opacity="0.6">
<g opacity="0.6">
<path opacity="0.6" d="M24.668 35.5994H136.972L137.414 30.2266H25.1097L24.668 35.5994Z" fill="#EBEBEB"/>
</g>
</g>
<g opacity="0.6">
<g opacity="0.6">
<path opacity="0.6" d="M24.668 38.6306H136.972L137.414 33.2578H25.1097L24.668 38.6306Z" fill="#EBEBEB"/>
</g>
</g>
<g opacity="0.6">
<g opacity="0.6">
<path opacity="0.6" d="M24.668 41.6619H136.972L137.414 36.2891H25.1097L24.668 41.6619Z" fill="#EBEBEB"/>
</g>
</g>
<g opacity="0.6">
<g opacity="0.6">
<path opacity="0.6" d="M24.668 44.6931H136.972L137.414 39.3203H25.1097L24.668 44.6931Z" fill="#EBEBEB"/>
</g>
</g>
<g opacity="0.6">
<g opacity="0.6">
<path opacity="0.6" d="M24.668 47.7244H136.972L137.414 42.3516H25.1097L24.668 47.7244Z" fill="#EBEBEB"/>
</g>
</g>
<g opacity="0.6">
<g opacity="0.6">
<path opacity="0.6" d="M24.668 50.7548H136.972L137.414 45.3828H25.1097L24.668 50.7548Z" fill="#EBEBEB"/>
</g>
</g>
<path d="M50.9995 134.789H47.1172V178.101H50.9995V134.789Z" fill="#F5F5F5"/>
<path d="M48.7135 134.758H47.6172V178.07H48.7135V134.758Z" fill="#FAFAFA"/>
<path d="M49.6014 134.758H49.1719V178.07H49.6014V134.758Z" fill="#FAFAFA"/>
<path d="M34.6875 180.742H63.4309C63.4309 178.74 61.8096 177.117 59.8094 177.117H38.3089C36.3087 177.116 34.6875 178.74 34.6875 180.742Z" fill="#F0F0F0"/>
<path d="M42.0815 161.68C42.6961 161.68 43.1982 161.176 43.1982 160.562V132.165C43.1982 131.55 42.6961 131.047 42.0815 131.047C41.4669 131.047 40.9648 131.55 40.9648 132.165V160.562C40.9648 161.176 41.4669 161.68 42.0815 161.68Z" fill="#F0F0F0"/>
<path d="M31.6797 145.083H66.4368L62.4388 120.773H35.6777L31.6797 145.083Z" fill="#E0E0E0"/>
<path d="M330.579 294.765C330.579 299.866 259.823 304.001 172.541 304.001C85.2595 304.001 14.5039 299.866 14.5039 294.765C14.5039 289.663 85.2595 285.527 172.541 285.527C259.823 285.527 330.579 289.663 330.579 294.765Z" fill="#F5F5F5"/>
<path d="M54.8048 135.291L53.7227 120.246L52.9097 120.305L53.9918 135.349L54.8048 135.291Z" fill="#F179A5"/>
<path d="M55.7748 148.725L55.3672 143.066L54.5542 143.125L54.9618 148.784L55.7748 148.725Z" fill="#F179A5"/>
<path d="M244.122 212.275H69.5638C65.6163 212.275 62.153 209.042 61.8685 205.091L53.2921 85.8792C53.0077 81.9283 56.0056 78.6953 59.953 78.6953H234.511C238.46 78.6953 241.922 81.9283 242.207 85.8792L250.783 205.091C251.067 209.042 248.07 212.275 244.122 212.275Z" fill="#F179A5"/>
<path d="M244.79 212.275H70.2317C66.2843 212.275 62.8209 209.042 62.5365 205.091L53.9601 85.8792C53.6756 81.9283 56.6735 78.6953 60.621 78.6953H235.179C239.128 78.6953 242.59 81.9283 242.874 85.8792L251.451 205.091C251.736 209.042 248.738 212.275 244.79 212.275Z" fill="#F5D8E3"/>
<path d="M235.44 82.2891H60.8814C60.6841 82.2891 60.4893 82.2972 60.2969 82.3127C55.8343 82.6806 56.7464 89.4737 61.2498 89.4737H236.106C240.609 89.4737 240.543 82.6806 236.028 82.3127C235.833 82.2972 235.637 82.2891 235.44 82.2891Z" fill="#F179A5"/>
<path d="M65.4284 85.8815C65.4937 86.7911 64.8098 87.5285 63.901 87.5285C62.9921 87.5285 62.2023 86.7911 62.1371 85.8815C62.0719 84.9719 62.7558 84.2344 63.6646 84.2344C64.5734 84.2344 65.3632 84.971 65.4284 85.8815Z" fill="#FAFAFA"/>
<path d="M71.0261 85.8815C71.0913 86.7911 70.4075 87.5285 69.4986 87.5285C68.5898 87.5285 67.8 86.7911 67.7348 85.8815C67.6696 84.9719 68.3526 84.2344 69.2623 84.2344C70.1711 84.2344 70.9609 84.971 71.0261 85.8815Z" fill="#FAFAFA"/>
<path d="M76.6238 85.8815C76.689 86.7911 76.0051 87.5285 75.0963 87.5285C74.1875 87.5285 73.3976 86.7911 73.3324 85.8815C73.2672 84.9719 73.9503 84.2344 74.8599 84.2344C75.7687 84.2344 76.5586 84.971 76.6238 85.8815Z" fill="#FAFAFA"/>
<path d="M240.161 200.377H73.1468C71.7098 200.377 70.4602 199.211 70.3567 197.773L63.3037 99.7376C63.2002 98.2986 64.2818 97.1328 65.7188 97.1328H232.733C234.17 97.1328 235.419 98.2986 235.523 99.7376L242.576 197.773C242.68 199.211 241.598 200.377 240.161 200.377Z" fill="white"/>
<path d="M167.082 125.244L158.844 120.281L161.869 126.856L167.082 125.244Z" fill="#EBEBEB"/>
<path d="M142.606 136.044C142.51 136.044 142.414 136.009 142.337 135.939C142.177 135.789 142.168 135.54 142.317 135.38L144.047 133.513C144.196 133.353 144.446 133.344 144.605 133.492C144.765 133.64 144.775 133.891 144.627 134.051L142.895 135.917C142.818 136.001 142.712 136.044 142.606 136.044Z" fill="#E6427A"/>
<path d="M169.8 159.031L167.081 121.245L158.843 116.281H136.18L139.256 159.031H169.8Z" fill="white"/>
<path d="M169.8 159.426H139.256C139.049 159.426 138.877 159.267 138.862 159.061L135.786 116.311C135.779 116.202 135.816 116.093 135.891 116.013C135.966 115.932 136.071 115.887 136.181 115.887H158.843C158.915 115.887 158.985 115.907 159.047 115.944L167.285 120.906C167.395 120.973 167.466 121.089 167.475 121.217L170.194 159.004C170.202 159.113 170.164 159.221 170.089 159.301C170.013 159.381 169.91 159.426 169.8 159.426ZM139.624 158.636H169.375L166.702 121.477L158.733 116.677H136.604L139.624 158.636Z" fill="#F179A5"/>
<path d="M161.869 123.252C161.718 123.252 161.576 123.165 161.51 123.022L158.486 116.447C158.413 116.29 158.451 116.103 158.581 115.987C158.71 115.872 158.9 115.854 159.048 115.943L167.286 120.906C167.419 120.986 167.493 121.138 167.474 121.293C167.456 121.447 167.347 121.576 167.199 121.622L161.986 123.234C161.947 123.246 161.908 123.252 161.869 123.252ZM159.74 117.282L162.083 122.376L166.123 121.128L159.74 117.282Z" fill="#F179A5"/>
<path d="M148.963 135.543C149.032 136.497 148.315 137.27 147.362 137.27C146.409 137.27 145.581 136.497 145.512 135.543C145.444 134.59 146.16 133.816 147.114 133.816C148.067 133.816 148.895 134.589 148.963 135.543Z" fill="#F179A5"/>
<path d="M160.163 135.543C160.231 136.497 159.515 137.27 158.561 137.27C157.608 137.27 156.78 136.497 156.712 135.543C156.643 134.59 157.36 133.816 158.313 133.816C159.266 133.816 160.094 134.589 160.163 135.543Z" fill="#F179A5"/>
<path d="M163.32 146.744C163.115 146.744 162.942 146.585 162.926 146.377C162.727 143.6 158.376 141.341 153.227 141.341C149.816 141.341 146.753 142.357 145.234 143.991C144.558 144.717 144.246 145.501 144.305 146.32C144.32 146.539 144.157 146.727 143.94 146.743C143.721 146.756 143.533 146.595 143.517 146.377C143.442 145.345 143.836 144.334 144.656 143.453C146.32 141.663 149.604 140.551 153.227 140.551C158.875 140.551 163.481 143.085 163.715 146.32C163.73 146.539 163.566 146.727 163.349 146.743C163.339 146.744 163.33 146.744 163.32 146.744Z" fill="#F179A5"/>
<path d="M162.508 132.044C162.411 132.044 162.314 132.009 162.238 131.938L160.238 130.072C160.079 129.922 160.071 129.673 160.22 129.513C160.368 129.353 160.617 129.344 160.777 129.493L162.777 131.36C162.936 131.509 162.945 131.759 162.796 131.918C162.719 132.002 162.614 132.044 162.508 132.044Z" fill="#F179A5"/>
<path d="M222.853 286.328C224.383 286.021 225.925 285.145 226.994 284.304C227.662 283.779 228.207 283.289 228.298 282.907C228.569 281.778 228.536 278.47 228.491 276.197C228.042 254.108 223.016 232.278 225.13 210.123C225.606 205.143 226.314 200.062 228.624 195.625C228.869 195.154 229.144 194.677 229.575 194.368C230.246 193.886 231.155 193.904 231.963 194.073C234.874 194.682 237.245 196.956 238.544 199.633C239.842 202.31 240.19 205.353 240.183 208.33C240.173 212.51 239.495 216.689 238.183 220.658C237.512 222.689 236.669 224.695 236.461 226.824C236.226 229.218 237.073 231.087 237.432 233.347C237.961 236.684 237.653 240.449 237.623 243.825C237.519 256.113 234.969 267.889 232.703 279.877C232.627 280.58 232.549 281.6 232.529 282.969C232.516 283.632 232.519 284.383 232.547 285.212C232.567 285.986 224.188 288.171 222.868 287.553C221.554 286.934 222.853 286.328 222.853 286.328Z" fill="#F5A784"/>
<path d="M232.547 285.216C232.566 285.99 224.188 288.175 222.868 287.557C221.555 286.938 222.854 286.333 222.854 286.333C224.383 286.026 225.926 285.15 226.995 284.309C227.248 284.339 229.792 284.343 232.527 282.973C232.517 283.636 232.52 284.387 232.547 285.216Z" fill="#F179A5"/>
<path d="M246.546 286.384C247.996 285.808 249.357 284.67 250.259 283.649C250.823 283.015 251.27 282.435 251.291 282.044C251.356 280.884 250.732 277.636 250.279 275.408C245.883 253.756 237.031 233.182 235.145 211.005C234.721 206.02 234.508 200.894 235.986 196.115C236.144 195.608 236.33 195.089 236.697 194.707C237.27 194.113 238.168 193.969 238.994 193.99C241.966 194.066 244.706 195.878 246.464 198.279C248.221 200.68 249.107 203.611 249.633 206.54C250.37 210.655 250.451 214.888 249.872 219.029C249.575 221.147 249.105 223.271 249.282 225.404C249.48 227.801 250.648 229.487 251.405 231.646C252.523 234.834 252.894 238.595 253.47 241.921C255.567 254.028 255.166 266.07 255.083 278.271C255.134 278.976 255.241 279.994 255.465 281.344C255.571 281.999 255.708 282.737 255.884 283.547C256.042 284.305 248.191 287.958 246.782 287.586C245.378 287.213 246.546 286.384 246.546 286.384Z" fill="#F5A784"/>
<path d="M255.884 283.559C256.042 284.317 248.191 287.969 246.782 287.597C245.38 287.224 246.549 286.395 246.549 286.395C247.999 285.819 249.36 284.682 250.262 283.661C250.515 283.645 253.02 283.195 255.466 281.355C255.571 282.01 255.709 282.748 255.884 283.559Z" fill="#F179A5"/>
<path d="M224.156 163.483C224.786 165.572 223.538 176.064 223.538 176.064C223.538 176.064 235.089 180.08 242.681 175.258C242.681 175.258 244.556 160.959 246.746 155.292L246.479 145.451C246.479 145.451 241.833 144.549 240.398 142.841C240.356 142.792 240.314 142.746 240.279 142.697C239.512 141.631 239.546 138.433 239.703 135.995C239.81 134.307 239.978 132.98 239.978 132.98C239.978 132.98 231.889 135.859 231.763 137.306C231.763 137.306 232.373 143.008 230.584 143.204C230.281 143.237 229.965 143.144 229.656 143.117C228.061 143.01 226.503 143.01 226.503 143.01C226.503 143.01 223.265 151.01 220.792 154.192C218.316 157.379 223.534 161.39 224.156 163.483Z" fill="#F5A784"/>
<path d="M221.821 235.532C225.744 233.87 231.252 232.644 235.502 233.432C238.562 234.012 241.447 235.904 244.528 235.467C246.856 235.138 248.833 233.552 250.997 232.787C253.5 231.913 256.045 231.518 258.624 232.283C259.663 232.589 261.182 232.808 261.444 231.758C261.542 231.386 261.4 231.004 261.247 230.653C258.602 224.179 254.799 218.142 253.095 211.361C252.866 210.453 252.669 209.545 252.517 208.627C251.324 201.791 251.807 194.727 250.385 187.913C249.609 184.183 247.828 181.744 246.233 178.518C244.593 175.193 244.747 170.719 244.474 167.11C244.364 165.503 244.474 164.026 244.801 162.451C245.183 160.559 246.811 157.858 246.767 156.02C246.724 154.512 246.538 147.381 246.527 146.976C246.505 146.396 246.473 146.375 245.991 146.101C245.019 145.554 244.287 144.647 243.303 144.089C242.462 143.608 241.5 143.357 240.539 143.357C239.742 144.318 238.561 144.92 237.337 145.139C236.256 145.325 233.37 145.226 231.098 143.291C230.793 143.029 230.333 143.04 229.951 142.951C229.557 142.853 229.163 142.766 228.77 142.679C228.387 142.579 227.983 142.493 227.612 142.614C226.607 142.942 226.508 144.363 225.951 145.107C225.252 146.036 224.913 147.283 224.443 148.343C223.449 150.64 222.345 152.927 220.794 154.917C219.8 156.196 219.854 157.345 220.313 158.395C221.002 159.981 222.608 161.347 222.98 162.594C223.427 164.114 223.635 165.7 223.701 167.308C223.843 170.917 223.231 174.658 222.903 178.124C222.422 183.144 221.877 188.154 221.275 193.151C220.718 197.755 220.816 202.491 220.052 207.063C219.298 214.927 219.975 223.534 217.647 231.135C216.456 235.007 218.172 237.073 221.821 235.532Z" fill="#F179A5"/>
<path d="M193.112 149.774C193.112 149.774 191.185 148.113 189.251 146.466C188.084 145.472 185.259 143.617 184.866 142.562C184.866 142.562 184.842 142.347 184.875 142.022C184.879 141.976 184.885 141.926 184.898 141.877C184.947 141.589 185.046 141.237 185.264 140.881C185.28 140.855 185.297 140.825 185.316 140.796C185.474 140.546 185.691 140.29 185.986 140.069C186.011 140.05 186.037 140.033 186.062 140.015C186.289 139.846 186.556 139.688 186.878 139.551C186.878 139.551 189.46 141.805 190.545 142.205C190.545 142.205 189.356 140.456 189.657 139.865L190.043 139.628C190.043 139.628 191.537 141.364 192.273 142.077C194.064 143.81 194.278 146.325 194.278 146.325C194.278 146.325 194.873 150.119 193.112 149.774Z" fill="#F5A784"/>
<path d="M185.995 140.066C186.021 140.048 186.046 140.03 186.071 140.012C187.144 141.112 188.369 142.007 189.592 142.965C189.615 142.984 189.592 143.025 189.564 143.014C188.148 142.333 187.002 141.255 185.995 140.066Z" fill="#E0855C"/>
<path d="M185.276 140.878C185.292 140.851 185.309 140.822 185.328 140.793C186.403 141.896 187.625 142.788 188.846 143.749C188.869 143.769 188.847 143.81 188.82 143.795C187.413 143.121 186.275 142.056 185.276 140.878Z" fill="#E0855C"/>
<path d="M184.899 142.016C184.903 141.97 184.909 141.921 184.921 141.871C185.949 142.898 187.108 143.745 188.262 144.653C188.288 144.669 188.265 144.712 188.237 144.699C186.908 144.106 185.847 143.1 184.899 142.016Z" fill="#E0855C"/>
<path d="M227.023 131.336C227.028 131.576 227.034 131.805 227.055 132.025C227.296 135.612 228.771 137.077 231.787 137.503C231.82 137.515 231.864 137.525 231.896 137.525C232.464 137.602 233.186 137.613 233.984 137.493C235.961 137.186 238.343 136.071 239.666 133.107C239.972 132.418 240.224 131.631 240.398 130.723C241.01 127.539 241.174 124.85 240.552 123.144C239.262 119.567 232.542 115.477 228.968 119.808C228.804 120.015 228.64 120.376 228.477 120.846C228.051 122.126 227.668 124.192 227.427 125.91C227.328 126.577 227.252 127.189 227.198 127.692C227.121 128.458 227.067 129.179 227.035 129.836C227.012 130.373 227.012 130.865 227.023 131.336Z" fill="#F5A784"/>
<path d="M256.656 160.496C256.806 158.061 255.535 155.803 254.605 153.548C253.676 151.294 253.122 148.534 254.541 146.552C255.072 145.809 255.845 145.24 256.244 144.419C256.839 143.196 256.451 141.699 255.723 140.549C254.996 139.4 253.965 138.479 253.128 137.407C251.594 135.443 250.735 132.962 250.728 130.469C250.721 128.437 251.186 126.142 249.892 124.575C249.093 123.608 247.802 123.194 246.882 122.34C245.597 121.149 245.182 119.426 243.994 118.149C242.844 116.914 241.349 116.01 239.741 115.516C237.278 114.758 234.586 114.926 232.132 115.715C230.031 116.39 228.783 117.516 228.365 119.682C228.026 121.445 229.711 121.486 229.929 122.981C230.012 123.553 229.922 124.122 230.025 124.683C230.141 125.323 230.458 125.913 230.77 126.475C230.873 126.661 230.982 126.853 231.153 126.98C231.595 127.307 232.214 127.07 232.762 127.112C233.686 127.183 234.352 128.078 234.576 128.978C234.809 129.915 234.691 130.933 234.264 131.796C233.818 132.695 232.957 133.066 232.922 134.194C232.905 134.716 233.061 135.228 233.241 135.721C233.769 137.169 234.51 138.524 235.135 139.93C235.761 141.338 236.148 142.743 236.338 144.269C236.65 146.792 236.356 149.339 236.236 151.865C236.115 154.391 236.151 157.006 237.164 159.37C238.011 161.344 239.472 162.985 240.954 164.539C241.927 165.561 242.979 166.599 244.325 167.018C246.474 167.688 249.677 167.438 251.791 166.706C254.328 165.829 256.488 163.19 256.656 160.496Z" fill="#011948"/>
<path d="M227.827 124.707C227.827 124.707 227.461 126.631 226.022 128.131C224.837 129.367 228.43 130.355 228.43 130.355C228.43 130.355 228.397 125.386 227.827 124.707Z" fill="#F5A784"/>
<path d="M232.349 129.503C232.57 129.19 232.84 128.766 233.236 128.681C233.323 128.662 233.4 128.695 233.449 128.768C233.465 128.791 233.48 128.815 233.496 128.838C233.528 128.886 233.51 128.973 233.455 128.996C233.111 129.142 232.904 129.417 232.737 129.725C232.948 129.862 233.118 130.008 233.223 130.241C233.326 130.464 233.061 130.708 232.869 130.515C232.746 130.392 232.647 130.294 232.505 130.204C232.382 130.473 232.258 130.739 232.077 130.946C231.973 131.064 231.805 130.96 231.793 130.829C231.75 130.369 232.095 129.865 232.349 129.503Z" fill="#E0855C"/>
<path d="M220.329 158.393C221.018 159.979 222.624 161.346 222.996 162.592C223.444 164.112 223.652 165.699 223.717 167.306C229.268 159.498 227.104 154.992 227.104 154.992C225.761 155.429 222.864 156.972 220.329 158.393Z" fill="#E76E9B"/>
<path d="M229.822 150.579C229.822 150.579 232.143 141.573 225.269 143.221C218.605 144.821 215.181 160.05 208.719 160.388C207.796 160.436 192.682 144.554 192.682 144.554L190.156 146.746C190.156 146.746 202.127 165.926 207.148 167.345C211.814 168.664 222.004 163.996 229.822 150.579Z" fill="#F5A784"/>
<path d="M229.412 142.835C229.412 142.835 226.455 141.752 223.093 143.291C219.731 144.831 219.682 145.518 216.66 145.37C216.66 145.37 225.369 156.541 231.022 156.102C231.023 156.102 233.119 148.096 229.412 142.835Z" fill="#F179A5"/>
<path d="M228.794 178.445C234.162 178.89 238.777 179.495 243.673 176.712C243.971 176.543 244.352 176.891 244.158 177.198C241.415 181.513 232.61 181.056 228.559 179.313C228.136 179.131 228.349 178.408 228.794 178.445Z" fill="#E36A98"/>
<path d="M221.896 231.331C227.308 228.935 233.428 228.745 239.148 230.051C241.346 230.553 243.439 231.133 245.7 230.557C247.163 230.182 248.502 229.44 249.913 228.918C252.54 227.949 255.262 227.718 258.004 228.272C258.478 228.368 258.379 229.178 257.888 229.128C254.351 228.771 251.501 229.449 248.236 230.782C246.084 231.66 244.183 232.114 241.86 231.761C238.592 231.265 235.525 230.316 232.175 230.338C228.746 230.359 225.48 231.115 222.209 232.073C221.779 232.198 221.467 231.52 221.896 231.331Z" fill="#E36A98"/>
<path d="M99.8696 175.053L99.9143 183.584L97.8635 183.594L94.8182 178.302L94.846 183.61L92.7894 183.621L92.7447 175.09L94.8013 175.079L97.8467 180.372L97.8189 175.063L99.8696 175.053ZM108.41 179.104L108.412 179.449C108.416 180.102 108.327 180.688 108.146 181.209C107.969 181.725 107.716 182.168 107.385 182.537C107.055 182.902 106.664 183.183 106.212 183.381C105.76 183.575 105.261 183.673 104.714 183.676C104.163 183.679 103.658 183.586 103.2 183.397C102.746 183.204 102.35 182.926 102.012 182.565C101.679 182.199 101.418 181.759 101.232 181.245C101.05 180.726 100.957 180.141 100.953 179.488L100.952 179.143C100.948 178.49 101.035 177.904 101.212 177.383C101.393 176.863 101.646 176.42 101.973 176.055C102.303 175.686 102.694 175.405 103.146 175.211C103.602 175.014 104.105 174.913 104.656 174.91C105.203 174.907 105.703 175.003 106.158 175.195C106.616 175.384 107.012 175.662 107.346 176.027C107.679 176.389 107.94 176.829 108.126 177.347C108.312 177.866 108.407 178.451 108.41 179.104ZM106.326 179.46L106.325 179.103C106.322 178.681 106.283 178.31 106.207 177.99C106.135 177.666 106.028 177.395 105.887 177.177C105.745 176.959 105.57 176.796 105.363 176.688C105.159 176.576 104.926 176.52 104.664 176.522C104.391 176.523 104.153 176.581 103.951 176.695C103.748 176.806 103.579 176.971 103.443 177.19C103.308 177.41 103.206 177.682 103.137 178.006C103.072 178.327 103.041 178.698 103.043 179.12L103.045 179.477C103.047 179.895 103.083 180.266 103.151 180.59C103.223 180.91 103.328 181.181 103.465 181.403C103.607 181.625 103.78 181.792 103.984 181.904C104.191 182.016 104.432 182.072 104.705 182.07C104.967 182.069 105.199 182.011 105.402 181.897C105.604 181.782 105.773 181.614 105.909 181.39C106.048 181.167 106.152 180.895 106.221 180.574C106.293 180.249 106.329 179.878 106.326 179.46ZM115.877 180.606L113.756 180.617L113.748 179.029L115.869 179.018C116.158 179.016 116.392 178.966 116.571 178.868C116.751 178.769 116.881 178.633 116.962 178.461C117.047 178.285 117.089 178.087 117.088 177.869C117.086 177.634 117.042 177.418 116.955 177.219C116.872 177.02 116.741 176.861 116.56 176.741C116.38 176.617 116.145 176.555 115.856 176.557L114.509 176.564L114.545 183.507L112.488 183.518L112.444 174.987L115.848 174.969C116.531 174.965 117.12 175.087 117.614 175.335C118.111 175.582 118.494 175.924 118.761 176.36C119.029 176.792 119.165 177.288 119.168 177.846C119.171 178.397 119.04 178.878 118.777 179.29C118.513 179.701 118.134 180.023 117.639 180.256C117.148 180.486 116.561 180.602 115.877 180.606ZM122.842 176.725L120.797 183.474L118.588 183.486L121.678 174.938L123.078 174.931L122.842 176.725ZM124.599 183.454L122.478 176.727L122.199 174.936L123.617 174.928L126.814 183.443L124.599 183.454ZM124.501 180.273L124.509 181.861L120.132 181.884L120.124 180.296L124.501 180.273ZM134.267 178.845L134.285 182.349C134.142 182.51 133.92 182.683 133.62 182.868C133.324 183.049 132.95 183.206 132.497 183.337C132.045 183.468 131.512 183.535 130.899 183.539C130.332 183.542 129.818 183.454 129.356 183.277C128.895 183.096 128.497 182.831 128.163 182.481C127.833 182.127 127.577 181.695 127.394 181.184C127.216 180.669 127.125 180.08 127.121 179.416L127.119 178.941C127.115 178.277 127.202 177.687 127.379 177.17C127.556 176.654 127.806 176.219 128.128 175.866C128.454 175.508 128.838 175.237 129.278 175.051C129.723 174.865 130.21 174.771 130.742 174.768C131.527 174.764 132.166 174.885 132.66 175.133C133.153 175.376 133.528 175.716 133.784 176.152C134.04 176.585 134.197 177.086 134.255 177.656L132.28 177.666C132.24 177.385 132.164 177.147 132.054 176.952C131.947 176.754 131.794 176.604 131.594 176.504C131.395 176.399 131.137 176.348 130.82 176.35C130.574 176.351 130.35 176.405 130.147 176.511C129.949 176.618 129.779 176.779 129.64 176.994C129.5 177.206 129.392 177.472 129.316 177.793C129.243 178.114 129.208 178.489 129.211 178.919L129.213 179.405C129.215 179.831 129.252 180.204 129.324 180.523C129.4 180.843 129.511 181.11 129.657 181.324C129.806 181.535 129.995 181.694 130.222 181.802C130.453 181.906 130.725 181.958 131.037 181.956C131.256 181.955 131.443 181.936 131.599 181.9C131.755 181.86 131.884 181.813 131.985 181.758C132.09 181.698 132.17 181.643 132.225 181.592L132.218 180.268L130.788 180.276L130.781 178.863L134.267 178.845ZM141.355 181.785L141.363 183.367L136.816 183.391L136.808 181.808L141.355 181.785ZM137.504 174.856L137.549 183.387L135.492 183.397L135.447 174.866L137.504 174.856ZM140.75 178.225L140.758 179.755L136.797 179.775L136.789 178.246L140.75 178.225ZM141.336 174.835L141.344 176.423L136.78 176.447L136.771 174.859L141.336 174.835ZM145.787 176.605L143.742 183.354L141.533 183.366L144.623 174.818L146.023 174.811L145.787 176.605ZM147.544 183.334L145.423 176.607L145.144 174.816L146.562 174.808L149.759 183.323L147.544 183.334ZM147.446 180.153L147.454 181.741L143.077 181.764L143.069 180.176L147.446 180.153ZM157.466 174.751L157.511 183.282L155.46 183.293L152.415 178L152.443 183.309L150.386 183.319L150.342 174.788L152.398 174.778L155.444 180.07L155.416 174.762L157.466 174.751ZM162.722 174.723L162.767 183.255L160.71 183.265L160.666 174.734L162.722 174.723ZM165.289 174.71L165.297 176.298L158.166 176.335L158.158 174.747L165.289 174.71ZM170.495 180.947C170.495 180.814 170.474 180.695 170.435 180.589C170.395 180.48 170.322 180.379 170.216 180.286C170.11 180.193 169.958 180.1 169.758 180.007C169.562 179.91 169.304 179.81 168.983 179.706C168.607 179.583 168.245 179.445 167.897 179.29C167.548 179.132 167.237 178.948 166.962 178.738C166.688 178.525 166.469 178.276 166.308 177.992C166.146 177.704 166.064 177.368 166.062 176.985C166.06 176.618 166.141 176.288 166.303 175.994C166.466 175.696 166.693 175.443 166.985 175.234C167.281 175.022 167.627 174.86 168.025 174.748C168.423 174.633 168.858 174.574 169.331 174.572C169.956 174.568 170.507 174.675 170.985 174.891C171.467 175.103 171.843 175.408 172.115 175.805C172.39 176.198 172.529 176.664 172.532 177.203L170.487 177.214C170.486 176.999 170.44 176.81 170.35 176.646C170.263 176.483 170.131 176.355 169.955 176.262C169.779 176.169 169.558 176.123 169.292 176.125C169.034 176.126 168.818 176.166 168.642 176.245C168.467 176.324 168.335 176.43 168.246 176.564C168.156 176.693 168.112 176.836 168.113 176.992C168.114 177.121 168.15 177.238 168.22 177.343C168.295 177.444 168.399 177.54 168.532 177.629C168.67 177.718 168.834 177.803 169.026 177.884C169.222 177.965 169.441 178.044 169.684 178.121C170.137 178.263 170.541 178.423 170.893 178.601C171.249 178.775 171.549 178.974 171.793 179.199C172.04 179.421 172.227 179.674 172.353 179.958C172.484 180.243 172.55 180.565 172.552 180.924C172.554 181.307 172.481 181.647 172.334 181.945C172.188 182.242 171.976 182.495 171.7 182.704C171.423 182.909 171.092 183.065 170.706 183.172C170.32 183.28 169.889 183.335 169.412 183.337C168.975 183.339 168.543 183.287 168.116 183.18C167.694 183.069 167.31 182.899 166.965 182.67C166.62 182.438 166.343 182.14 166.134 181.778C165.929 181.412 165.825 180.977 165.823 180.473L167.885 180.462C167.887 180.712 167.921 180.923 167.988 181.094C168.055 181.266 168.154 181.404 168.283 181.509C168.413 181.61 168.571 181.683 168.759 181.729C168.947 181.771 169.162 181.791 169.404 181.79C169.666 181.789 169.876 181.751 170.036 181.676C170.196 181.597 170.313 181.494 170.386 181.369C170.46 181.24 170.496 181.099 170.495 180.947ZM178.624 174.64L178.669 183.171L176.612 183.182L176.568 174.651L178.624 174.64ZM181.959 178.174L181.968 179.756L178.065 179.776L178.057 178.194L181.959 178.174ZM182.275 174.621L182.283 176.209L178.047 176.231L178.038 174.643L182.275 174.621ZM190.37 178.674L190.372 179.02C190.376 179.673 190.287 180.259 190.106 180.779C189.929 181.296 189.675 181.739 189.345 182.108C189.015 182.473 188.624 182.754 188.172 182.952C187.72 183.145 187.22 183.244 186.673 183.247C186.123 183.25 185.618 183.156 185.16 182.967C184.706 182.775 184.31 182.497 183.972 182.136C183.638 181.77 183.378 181.33 183.192 180.816C183.01 180.297 182.917 179.712 182.913 179.059L182.911 178.714C182.908 178.061 182.995 177.475 183.172 176.954C183.353 176.434 183.606 175.991 183.932 175.626C184.262 175.257 184.654 174.976 185.106 174.782C185.562 174.584 186.065 174.484 186.616 174.481C187.163 174.478 187.663 174.573 188.117 174.766C188.575 174.955 188.971 175.233 189.305 175.598C189.639 175.96 189.899 176.4 190.086 176.918C190.272 177.437 190.367 178.022 190.37 178.674ZM188.286 179.031L188.284 178.674C188.282 178.252 188.243 177.881 188.167 177.561C188.095 177.237 187.988 176.966 187.846 176.748C187.705 176.53 187.53 176.367 187.322 176.259C187.119 176.147 186.886 176.091 186.624 176.093C186.351 176.094 186.113 176.152 185.91 176.266C185.708 176.377 185.539 176.542 185.403 176.761C185.268 176.98 185.166 177.253 185.097 177.577C185.032 177.898 185.001 178.269 185.003 178.691L185.005 179.048C185.007 179.466 185.042 179.837 185.11 180.161C185.182 180.481 185.287 180.752 185.425 180.974C185.567 181.196 185.74 181.363 185.943 181.475C186.151 181.587 186.392 181.643 186.665 181.641C186.927 181.64 187.159 181.582 187.361 181.468C187.564 181.353 187.733 181.184 187.869 180.961C188.008 180.738 188.112 180.466 188.181 180.145C188.253 179.82 188.288 179.449 188.286 179.031ZM196.044 174.549L198.101 174.538L198.13 180.11C198.133 180.774 197.998 181.338 197.723 181.8C197.448 182.259 197.061 182.606 196.562 182.843C196.063 183.08 195.476 183.201 194.8 183.204C194.132 183.208 193.544 183.093 193.035 182.862C192.53 182.63 192.133 182.286 191.846 181.831C191.562 181.371 191.419 180.81 191.415 180.146L191.386 174.573L193.448 174.563L193.478 180.135C193.479 180.486 193.532 180.773 193.634 180.995C193.737 181.214 193.886 181.373 194.082 181.473C194.278 181.574 194.515 181.624 194.792 181.622C195.073 181.621 195.309 181.569 195.5 181.466C195.691 181.363 195.835 181.203 195.931 180.983C196.028 180.76 196.075 180.473 196.073 180.121L196.044 174.549ZM206.52 174.494L206.565 183.025L204.514 183.036L201.469 177.743L201.497 183.052L199.44 183.063L199.396 174.531L201.452 174.521L204.498 179.813L204.47 174.505L206.52 174.494ZM210.637 183.004L208.745 183.014L208.748 181.432L210.629 181.422C211.02 181.42 211.349 181.324 211.618 181.136C211.89 180.947 212.096 180.666 212.235 180.294C212.377 179.919 212.447 179.457 212.444 178.91L212.442 178.541C212.44 178.131 212.397 177.772 212.313 177.464C212.234 177.152 212.115 176.893 211.958 176.686C211.8 176.476 211.604 176.319 211.369 176.215C211.138 176.111 210.873 176.059 210.572 176.061L208.673 176.071L208.665 174.483L210.563 174.473C211.142 174.47 211.671 174.567 212.153 174.764C212.638 174.956 213.058 175.235 213.411 175.601C213.769 175.962 214.044 176.392 214.238 176.891C214.436 177.386 214.537 177.937 214.54 178.542L214.542 178.899C214.545 179.501 214.45 180.052 214.257 180.553C214.069 181.054 213.799 181.487 213.45 181.853C213.1 182.218 212.686 182.501 212.206 182.703C211.731 182.901 211.208 183.001 210.637 183.004ZM209.878 174.477L209.923 183.008L207.866 183.018L207.821 174.487L209.878 174.477Z" fill="#F179A5"/>
</svg>
