<svg width="18" height="18" viewBox="0 0 18 18" fill="none" xmlns="http://www.w3.org/2000/svg">
<path fill-rule="evenodd" clip-rule="evenodd" d="M16.5283 9.41001V16.7728C16.5283 17.4507 15.9764 18 15.2985 18H3.02699C2.34909 18 1.7998 17.4507 1.7998 16.7728V9.41001C1.7998 8.7321 2.34909 8.18282 3.02699 8.18282H3.437V5.72861C3.437 2.58304 6.01988 0 9.16277 0C12.3083 0 14.8914 2.58288 14.8914 5.72861V8.18282H15.2987C15.9766 8.18282 16.5286 8.7321 16.5286 9.41001H16.5283ZM4.84912 8.21494H13.4795V5.80092C13.4795 3.38422 11.5397 1.412 9.16309 1.412C6.78925 1.412 4.84952 3.38405 4.84952 5.80092L4.84912 8.21494Z" fill="#262425"/>
</svg>
