<svg width="25" height="24" viewBox="0 0 25 24" fill="none" xmlns="http://www.w3.org/2000/svg">
<path d="M20.5 0H4.5C2.29086 0 0.5 1.70231 0.5 3.80222V19.0111C0.5 21.111 2.29086 22.8133 4.5 22.8133H20.5C22.7091 22.8133 24.5 21.111 24.5 19.0111V3.80222C24.5 1.70231 22.7091 0 20.5 0ZM12.5 3.80222C13.2364 3.80222 13.8333 4.36966 13.8333 5.06963C13.8333 5.7696 13.2364 6.33704 12.5 6.33704C11.7636 6.33704 11.1667 5.7696 11.1667 5.06963C11.1667 4.36966 11.7636 3.80222 12.5 3.80222ZM7.16667 3.80222C7.90305 3.80222 8.5 4.36966 8.5 5.06963C8.5 5.7696 7.90305 6.33704 7.16667 6.33704C6.43029 6.33704 5.83333 5.7696 5.83333 5.06963C5.83333 4.36966 6.43029 3.80222 7.16667 3.80222ZM21.8333 19.0111C21.8333 19.7111 21.2364 20.2785 20.5 20.2785H4.5C3.76362 20.2785 3.16667 19.7111 3.16667 19.0111V10.1393H21.8333V19.0111Z" fill="#E6427A"/>
</svg>
