<svg width="25" height="24" viewBox="0 0 25 24" fill="none" xmlns="http://www.w3.org/2000/svg">
<path d="M24.7497 8.86047V6.41915C24.7485 5.98984 24.5776 5.57883 24.2743 5.27554C23.9709 4.97189 23.5596 4.80099 23.1307 4.7998H13.8691V20.6358H23.1307C23.5594 20.6358 23.9707 20.4658 24.274 20.163C24.5776 19.8603 24.7485 19.4496 24.7497 19.0209V16.5792C23.7039 16.6138 22.6889 16.2227 21.937 15.4953C21.1851 14.7677 20.7603 13.7663 20.7603 12.7199C20.7603 11.6736 21.1851 10.6721 21.937 9.9448C22.6889 9.21716 23.7039 8.82601 24.7497 8.8606V8.86047Z" fill="#E6427A"/>
<path d="M0.75 6.41924V8.86057C2.0982 8.90522 3.32553 9.65063 3.98729 10.8262C4.64899 12.002 4.64899 13.4378 3.98729 14.6137C3.32559 15.7895 2.09828 16.5346 0.75 16.5793V19.0209C0.75 19.4484 0.919418 19.8585 1.22129 20.1613C1.52347 20.464 1.93296 20.6346 2.36051 20.6358H11.6304V4.7998H2.36051C1.93269 4.80217 1.52292 4.97366 1.22129 5.27701C0.919418 5.58066 0.75 5.99105 0.75 6.41918V6.41924Z" fill="#E6427A"/>
</svg>
