<svg width="16" height="16" viewBox="0 0 16 16" fill="none" xmlns="http://www.w3.org/2000/svg">
<circle cx="8" cy="8" r="8" fill="#707070"/>
<path d="M8.66671 4H7.33336C7.0681 4 6.8138 4.10536 6.62621 4.29285C6.43871 4.48043 6.33335 4.73474 6.33335 4.99999V5.33332H4.33333C4.21421 5.33332 4.10417 5.39686 4.04464 5.49999C3.98512 5.60311 3.98512 5.73019 4.04464 5.83332C4.10417 5.93644 4.21421 5.99998 4.33333 5.99998H4.70164L5.20336 10.5177C5.24867 10.9253 5.44279 11.3019 5.74845 11.5754C6.05411 11.8489 6.44987 12.0001 6.85999 12H9.14001C9.55021 12.0001 9.94596 11.8488 10.2516 11.5752C10.5574 11.3017 10.7514 10.925 10.7966 10.5173L11.3 6.00006H11.6667C11.7858 6.00006 11.8958 5.93652 11.9554 5.83339C12.0149 5.73027 12.0149 5.60318 11.9554 5.50006C11.8958 5.39694 11.7858 5.3334 11.6667 5.3334H9.66665V5.00007C9.66665 4.73481 9.56129 4.48051 9.37379 4.29293C9.18621 4.10543 8.9319 4.00008 8.66664 4.00008L8.66671 4ZM7.00003 4.99999C7.00003 4.9116 7.03515 4.82678 7.09765 4.76428C7.16015 4.70178 7.24497 4.66666 7.33336 4.66666H8.66671C8.75511 4.66666 8.83993 4.70178 8.90243 4.76428C8.96493 4.82678 9.00005 4.9116 9.00005 4.99999V5.33332H7.00003V4.99999ZM7.33336 9.33328C7.33336 9.4524 7.26982 9.56244 7.1667 9.62197C7.06357 9.68149 6.93648 9.68149 6.83336 9.62197C6.73023 9.56244 6.66669 9.4524 6.66669 9.33328V7.3333C6.66669 7.21418 6.73023 7.10414 6.83336 7.04462C6.93649 6.9851 7.06357 6.9851 7.1667 7.04462C7.26982 7.10414 7.33336 7.21418 7.33336 7.3333V9.33328ZM9.33339 9.33328C9.33339 9.4524 9.26984 9.56244 9.16672 9.62197C9.06359 9.68149 8.93651 9.68149 8.83338 9.62197C8.73026 9.56244 8.66671 9.4524 8.66671 9.33328V7.3333C8.66671 7.21418 8.73025 7.10414 8.83338 7.04462C8.93651 6.9851 9.06359 6.9851 9.16672 7.04462C9.26984 7.10414 9.33339 7.21418 9.33339 7.3333V9.33328Z" fill="white"/>
</svg>
