<svg width="36" height="36" viewBox="0 0 36 36" fill="none" xmlns="http://www.w3.org/2000/svg">
<circle cx="18" cy="18" r="18" fill="#E6427A"/>
<path d="M15.4616 11C15.2002 11.0035 14.943 11.186 14.8414 11.3811L14.1057 12.8408H11.0769C9.93813 12.8408 9 13.7765 9 14.9118V23.6563C9 24.7918 9.93833 25.7273 11.0769 25.7273H24.9231C26.0619 25.7273 27 24.7916 27 23.6563V14.9118C27 13.7763 26.0617 12.8408 24.9231 12.8408H21.8943L21.1586 11.3811C21.0443 11.1531 20.7943 10.9995 20.5387 11H15.4616ZM15.8943 12.3808H20.1059L20.8416 13.8405C20.9562 14.0685 21.206 14.2221 21.4618 14.2216H24.9234C25.3189 14.2216 25.6157 14.5176 25.6157 14.912V23.6565C25.6157 24.0509 25.3189 24.3469 24.9234 24.3469H11.0771C10.6816 24.3469 10.3848 24.0509 10.3848 23.6565V14.912C10.3848 14.5176 10.6816 14.2216 11.0771 14.2216H14.5387C14.7945 14.2221 15.0443 14.0685 15.1589 13.8405L15.8946 12.3808H15.8943ZM18.0002 15.1422C15.7142 15.1422 13.8463 17.0048 13.8463 19.2843C13.8463 21.5638 15.7143 23.4264 18.0002 23.4264C20.2862 23.4264 22.1541 21.5638 22.1541 19.2843C22.1541 17.0048 20.2862 15.1422 18.0002 15.1422ZM18.0002 16.523C19.5378 16.523 20.7694 17.7511 20.7694 19.2843C20.7694 20.8176 19.5378 22.0457 18.0002 22.0457C16.4626 22.0457 15.231 20.8176 15.231 19.2843C15.231 17.7511 16.4628 16.523 18.0002 16.523Z" fill="white"/>
</svg>
