<svg width="25" height="24" viewBox="0 0 25 24" fill="none" xmlns="http://www.w3.org/2000/svg">
<path d="M20.25 0H4.25C2.04086 0 0.25 1.70231 0.25 3.80222V19.0111C0.25 21.111 2.04086 22.8133 4.25 22.8133H20.25C22.4591 22.8133 24.25 21.111 24.25 19.0111V3.80222C24.25 1.70231 22.4591 0 20.25 0ZM12.25 3.80222C12.9864 3.80222 13.5833 4.36966 13.5833 5.06963C13.5833 5.7696 12.9864 6.33704 12.25 6.33704C11.5136 6.33704 10.9167 5.7696 10.9167 5.06963C10.9167 4.36966 11.5136 3.80222 12.25 3.80222ZM6.91667 3.80222C7.65305 3.80222 8.25 4.36966 8.25 5.06963C8.25 5.7696 7.65305 6.33704 6.91667 6.33704C6.18029 6.33704 5.58333 5.7696 5.58333 5.06963C5.58333 4.36966 6.18029 3.80222 6.91667 3.80222ZM21.5833 19.0111C21.5833 19.7111 20.9864 20.2785 20.25 20.2785H4.25C3.51362 20.2785 2.91667 19.7111 2.91667 19.0111V10.1393H21.5833V19.0111Z" fill="#E6427A"/>
</svg>
