<svg width="25" height="24" viewBox="0 0 25 24" fill="none" xmlns="http://www.w3.org/2000/svg">
<path fill-rule="evenodd" clip-rule="evenodd" d="M12.5 19.9293C11.3766 19.9293 10.4647 20.8414 10.4647 21.9647C10.4647 23.0881 11.3768 24 12.5 24C13.6233 24 14.5354 23.0879 14.5354 21.9647C14.5354 20.8414 13.6233 19.9293 12.5 19.9293ZM4.0148 20.4852C4.80921 21.2797 6.09901 21.2797 6.89323 20.4852C7.68764 19.691 7.68764 18.401 6.89323 17.6068C6.09901 16.8126 4.80902 16.8126 4.0148 17.6068C3.22059 18.4012 3.22059 19.691 4.0148 20.4852ZM18.1068 17.6068C17.3126 18.401 17.3126 19.691 18.1068 20.4852C18.9012 21.2797 20.191 21.2797 20.9852 20.4852C21.7796 19.691 21.7796 18.401 20.9852 17.6068C20.191 16.8126 18.901 16.8126 18.1068 17.6068L18.1066 17.607L18.1068 17.6068ZM0.5 12C0.5 13.1234 1.41207 14.0355 2.53545 14.0355C3.65884 14.0355 4.57091 13.1234 4.57091 12C4.57091 10.8766 3.65884 9.96474 2.53545 9.96474C1.41207 9.96474 0.5 10.8768 0.5 12ZM20.4296 12C20.4296 13.1234 21.3416 14.0355 22.465 14.0355C23.5884 14.0355 24.5003 13.1234 24.5003 12C24.5003 10.8766 23.5882 9.96474 22.465 9.96474C21.3416 9.96474 20.4296 10.8768 20.4296 12ZM18.1071 6.39318C18.9015 7.18759 20.1913 7.18759 20.9855 6.39318C21.7799 5.59897 21.7799 4.30897 20.9855 3.51475C20.1913 2.72054 18.9013 2.72054 18.1071 3.51475C17.3129 4.30916 17.3129 5.59897 18.1071 6.39318ZM4.01514 3.51475C3.22092 4.30916 3.22092 5.59897 4.01514 6.39318C4.80955 7.18759 6.09935 7.18759 6.89357 6.39318C7.68797 5.59897 7.68797 4.30897 6.89357 3.51475C6.09935 2.72054 4.80935 2.72054 4.01514 3.51475ZM12.5003 0C11.3769 0 10.465 0.912066 10.465 2.03545C10.465 3.15884 11.3771 4.07091 12.5003 4.07091C13.6237 4.07091 14.5357 3.15884 14.5357 2.03545C14.5357 0.912066 13.6237 0 12.5003 0Z" fill="#E6427A"/>
<path fill-rule="evenodd" clip-rule="evenodd" d="M7.35732 18.9013C7.29333 18.8748 7.2203 18.8816 7.16233 18.919C7.10418 18.9567 7.06823 19.0207 7.06635 19.0897C7.05505 19.4876 6.8979 19.8821 6.59451 20.1853C6.57494 20.2048 6.55518 20.2237 6.53485 20.2421C6.4814 20.2905 6.45637 20.3629 6.4686 20.4341C6.48102 20.5052 6.52864 20.5651 6.59545 20.5927L10.596 22.2499C10.6626 22.2776 10.7388 22.2689 10.7979 22.2273C10.8568 22.1858 10.8903 22.1169 10.8867 22.0448C10.8852 22.0175 10.8847 21.99 10.8847 21.9625C10.8847 21.5334 11.0524 21.1435 11.3258 20.8542C11.3734 20.8037 11.3932 20.7334 11.3787 20.6656C11.3642 20.5978 11.3176 20.5416 11.2534 20.5152L7.35732 18.9013ZM17.9316 19.0877C17.9297 19.0184 17.894 18.9544 17.8358 18.9168C17.7776 18.8791 17.7046 18.8724 17.6406 18.8989L13.7429 20.5135C13.6789 20.5401 13.632 20.5963 13.6175 20.6643C13.603 20.732 13.623 20.8026 13.6706 20.8529C13.945 21.1421 14.1133 21.533 14.1133 21.9629C14.1133 21.9896 14.1127 22.0164 14.1114 22.0429C14.1078 22.115 14.1415 22.1837 14.2004 22.2253C14.2595 22.2669 14.3355 22.2753 14.4022 22.2477L18.4006 20.5915C18.4672 20.5638 18.515 20.5041 18.5275 20.433C18.5399 20.3618 18.5149 20.2894 18.4614 20.241C18.4418 20.2233 18.4224 20.2049 18.4034 20.1859C18.0995 19.8819 17.9421 19.4865 17.9316 19.0881L17.9316 19.0877ZM10.4751 21.7442L7.03807 20.3206C7.25921 20.0466 7.39886 19.7283 7.45683 19.3986V19.3984L10.8312 20.796C10.6388 21.0702 10.5125 21.3941 10.4751 21.7442L10.4751 21.7442ZM17.9581 20.3187L14.5224 21.742C14.4847 21.3919 14.3579 21.0684 14.1653 20.7943L17.5405 19.3963C17.598 19.7262 17.7373 20.0447 17.9581 20.3189L17.9581 20.3187ZM3.98128 13.2438C3.95474 13.1799 3.89846 13.133 3.8309 13.1185C3.76315 13.104 3.69257 13.1238 3.64231 13.1712C3.35304 13.4445 2.96306 13.612 2.53434 13.612C2.50649 13.612 2.47901 13.6114 2.45153 13.6099C2.37945 13.6063 2.31038 13.6398 2.26897 13.6987C2.22738 13.7578 2.2189 13.8339 2.24638 13.9007L3.90371 17.9016C3.93138 17.9682 3.99123 18.0162 4.06237 18.0284C4.13352 18.0409 4.20598 18.0156 4.25434 17.9622C4.27279 17.9419 4.2918 17.9219 4.31137 17.9023C4.61457 17.5991 5.00889 17.4418 5.40652 17.4305C5.47578 17.4284 5.53959 17.3927 5.57723 17.3345C5.61487 17.2764 5.62146 17.2035 5.59492 17.1395L3.98128 13.2438ZM21.3515 13.1676C21.3012 13.1198 21.2306 13.0999 21.1627 13.1142C21.095 13.1287 21.0385 13.1755 21.0118 13.2395L19.3964 17.1393C19.3699 17.2035 19.3766 17.2765 19.4145 17.3347C19.4523 17.3928 19.5163 17.4286 19.5857 17.4303C19.9851 17.4405 20.3817 17.5976 20.6864 17.9023C20.7046 17.9206 20.7225 17.9392 20.7396 17.958C20.7882 18.0113 20.8605 18.0361 20.9316 18.0239C21.0026 18.0115 21.0624 17.9637 21.0899 17.8971L22.745 13.901C22.7727 13.8344 22.7642 13.7584 22.7228 13.6993C22.6814 13.6404 22.6125 13.6067 22.5406 13.6101C22.515 13.6112 22.4892 13.6119 22.4635 13.6119C22.0327 13.6119 21.641 13.4429 21.3515 13.1676L21.3515 13.1676ZM4.17545 17.4589L2.75165 14.0215C3.10171 13.9842 3.42561 13.8579 3.70004 13.6658V13.6656L5.09768 17.0397C4.76775 17.0979 4.4495 17.2376 4.17564 17.4589L4.17545 17.4589ZM22.2395 14.021L20.817 17.4551C20.5426 17.2348 20.2239 17.0961 19.8939 17.0388L21.2924 13.6626C21.5662 13.8557 21.8896 13.9827 22.2395 14.0209V14.021ZM21.0884 6.1C21.0607 6.03338 21.0012 5.98557 20.9303 5.97315C20.8593 5.96073 20.7869 5.98558 20.7383 6.03865C20.7214 6.0571 20.704 6.07535 20.6862 6.09323C20.3811 6.39831 19.984 6.55547 19.584 6.56525C19.5146 6.56695 19.4506 6.60271 19.4126 6.66086C19.3747 6.71902 19.368 6.79205 19.3945 6.85622L21.0103 10.7572C21.0368 10.8214 21.0933 10.8682 21.1612 10.8825C21.2291 10.8968 21.2997 10.8769 21.35 10.8289C21.6396 10.553 22.0318 10.3832 22.4632 10.3832C22.4884 10.3832 22.5136 10.3838 22.5387 10.3849C22.6106 10.3883 22.6793 10.3546 22.7208 10.2957C22.7622 10.2366 22.7705 10.1608 22.743 10.0941L21.0885 6.09965L21.0884 6.1ZM4.2549 6.0347C4.20653 5.98124 4.13388 5.95621 4.06292 5.96845C3.99178 5.98087 3.93193 6.02867 3.90445 6.0953L2.24785 10.0947C2.22018 10.1613 2.22884 10.2375 2.27024 10.2965C2.31184 10.3556 2.38072 10.3891 2.45281 10.3855C2.47953 10.3842 2.50663 10.3834 2.53392 10.3834C2.96341 10.3834 3.35396 10.5515 3.64319 10.8253C3.69345 10.8729 3.76402 10.8929 3.83178 10.8784C3.89953 10.8639 3.95581 10.817 3.98253 10.7531L5.59659 6.85603C5.62313 6.79204 5.61654 6.71902 5.57871 6.66086C5.54107 6.60271 5.47708 6.56695 5.40801 6.56488C5.00976 6.55396 4.6149 6.39681 4.31112 6.09304C4.29174 6.07384 4.27329 6.05427 4.25522 6.03432L4.2549 6.0347ZM20.8152 6.5417L22.2373 9.97498C21.8874 10.0136 21.5641 10.141 21.2906 10.3343C21.2904 10.3343 19.8917 6.95707 19.8917 6.95707C20.2218 6.90023 20.5406 6.7619 20.8154 6.5417L20.8152 6.5417ZM4.17636 6.53794C4.45058 6.75908 4.76884 6.89836 5.09879 6.95614L3.70096 10.3309C3.42674 10.1385 3.10323 10.0119 2.75295 9.97441L4.17636 6.53794ZM14.4013 1.75299C14.3349 1.72551 14.2587 1.73398 14.1998 1.7752C14.1407 1.81661 14.1072 1.8853 14.1104 1.95738C14.1115 1.9826 14.1121 2.00782 14.1121 2.03323C14.1121 2.46441 13.9427 2.85645 13.6668 3.14611C13.6189 3.19636 13.599 3.26694 13.6133 3.33489C13.6276 3.40283 13.6745 3.4591 13.7386 3.48583L17.6392 5.10157C17.7034 5.12811 17.7764 5.12134 17.8346 5.08351C17.8927 5.04568 17.9285 4.98169 17.9302 4.91224C17.94 4.5123 18.0973 4.11537 18.4022 3.81048C18.4203 3.79242 18.4386 3.7751 18.4572 3.75798C18.5104 3.70942 18.5353 3.63696 18.5227 3.566C18.5103 3.49505 18.4625 3.43539 18.3958 3.40772L14.401 1.75299L14.4013 1.75299ZM10.8854 1.95512C10.8888 1.88304 10.8551 1.81434 10.7962 1.77275C10.7373 1.73116 10.6613 1.72287 10.5944 1.75035L6.5975 3.406C6.53087 3.43366 6.48307 3.49332 6.47065 3.56428C6.45823 3.63524 6.48326 3.7077 6.53652 3.75625C6.55572 3.77357 6.57454 3.79164 6.59317 3.81027C6.8975 4.1146 7.05484 4.51058 7.06501 4.90976C7.06689 4.97902 7.10265 5.04301 7.16081 5.08084C7.21896 5.11867 7.29199 5.12544 7.35598 5.09891L11.2551 3.48388C11.3191 3.45734 11.3661 3.40088 11.3804 3.33313C11.3949 3.26538 11.375 3.19461 11.3272 3.14454C11.0522 2.85489 10.8834 2.4636 10.8834 2.0332C10.8834 2.00704 10.8839 1.98088 10.8852 1.95509L10.8854 1.95512ZM14.5208 2.25833L17.9543 3.68063C17.7341 3.95522 17.5956 4.27403 17.5387 4.60397C17.5387 4.60416 14.1617 3.20523 14.1617 3.20523C14.355 2.93157 14.4824 2.60822 14.5208 2.25818L14.5208 2.25833ZM10.4746 2.25588C10.5126 2.60594 10.6396 2.92945 10.8325 3.20331C10.8325 3.2035 7.4567 4.60167 7.4567 4.60167C7.39949 4.27155 7.2604 3.9531 7.03982 3.67871L10.4746 2.25607L10.4746 2.25588Z" fill="#E6427A"/>
<path d="M12.4093 11.385C13.7976 11.385 14.8986 10.2839 14.8986 8.89561C14.8986 7.50731 13.7976 6.40625 12.4093 6.40625C11.021 6.40625 9.91992 7.50731 9.91992 8.89561C9.91992 10.2839 11.021 11.385 12.4093 11.385Z" fill="#E6427A"/>
<path d="M14.2772 12.1016H10.5431C9.10696 12.1016 7.91016 13.2984 7.91016 14.7345V15.4048C7.91016 16.0271 8.43675 16.5537 9.05909 16.5537H15.7612C16.3836 16.5537 16.9102 16.0271 16.9102 15.4048V14.7345C16.8623 13.2984 15.7133 12.1016 14.2772 12.1016Z" fill="#E6427A"/>
</svg>
