<svg width="69" height="69" viewBox="0 0 69 69" fill="none" xmlns="http://www.w3.org/2000/svg">
<rect x="1.24663" y="9.31984" width="58" height="58" rx="15" transform="rotate(-8 1.24663 9.31984)" fill="white" stroke="#D7D7D7" stroke-width="2"/>
<circle cx="45.1161" cy="18.4714" r="7.66816" transform="rotate(-8 45.1161 18.4714)" fill="#D7D7D7" stroke="#D7D7D7"/>
<path d="M44.8291 60.7554L22.2564 36.6624L10.325 59.5456L15.3379 62.8804L20.5676 64.1651L44.8291 60.7554Z" fill="#D7D7D7"/>
<path d="M40.939 61.8083L51.4546 39.629L63.3714 52.5967L62.1643 54.786L55.294 59.7908L40.939 61.8083Z" fill="#D7D7D7"/>
<rect x="10" y="10" width="58" height="58" rx="15" fill="white" stroke="#D7D7D7" stroke-width="2"/>
<circle cx="52.1682" cy="25.1682" r="7.66816" fill="#D7D7D7" stroke="#D7D7D7"/>
<path d="M46 67L27 40L12 61L16.5 65L21.5 67H46Z" fill="#D7D7D7"/>
<path d="M42 67.5L55.5 47L65.4961 61.5L63.9961 63.5L56.4961 67.5H42Z" fill="#D7D7D7"/>
</svg>
