<svg width="10" height="10" viewBox="0 0 10 10" fill="none" xmlns="http://www.w3.org/2000/svg">
<path d="M9.11433 2.0027C8.63929 2.01197 8.24477 2.49401 8.26892 3.04094C8.27697 3.34685 8.4058 3.6064 8.59903 3.78253C7.60064 5.32135 6.58615 5.44185 5.41063 2.89262C5.82931 2.6516 6.0628 2.03978 5.75684 1.42797C5.61192 1.13133 5.31401 0.983008 5.0161 1.00155C5.00805 1.00155 5.00805 1.00155 5 1.00155C5 1.00155 4.99195 1.00155 4.9839 1.00155C4.68599 0.992278 4.39614 1.13133 4.24316 1.42797C3.9372 2.03978 4.17069 2.6516 4.58937 2.89262C3.41385 5.44185 2.39936 5.32135 1.40097 3.78253C1.5942 3.6064 1.72303 3.33758 1.73108 3.04094C1.74718 2.49401 1.36071 2.01197 0.885668 2.0027C0.394525 1.99343 0 2.43839 0 3.00386C0 3.55078 0.386473 4.00501 0.869565 4.00501C0.901771 4.00501 0.942029 4.00501 0.974235 3.99574L1.30435 7.72226C1.3285 8.0189 1.54589 8.24138 1.80354 8.24138H5H8.19646C8.45411 8.24138 8.6715 8.0189 8.69565 7.72226L9.02577 3.99574C9.05797 4.00501 9.09018 4.00501 9.13043 4.00501C9.60548 4.00501 10 3.56005 10 3.00386C10 2.43839 9.59742 1.99343 9.11433 2.0027Z" fill="#E6427A"/>
</svg>
