<svg width="12" height="10" viewBox="0 0 12 10" fill="none" xmlns="http://www.w3.org/2000/svg">
<path d="M2.72411 8.97593H9.27589C10.2242 8.97593 11 8.20004 11 7.25182V2.32567C11 1.37737 10.2241 0.601562 9.27589 0.601562H2.72411C1.7758 0.601562 1 1.37745 1 2.32567V7.25182C1 8.20013 1.77589 8.97593 2.72411 8.97593ZM9.75619 8.38482L6.87439 5.35523L8.35222 3.96357L10.5074 6.04489V7.25178C10.5074 7.75673 10.1995 8.20009 9.75617 8.38479L9.75619 8.38482ZM2.72411 1.09411H9.27589C9.95326 1.09411 10.5074 1.64828 10.5074 2.32565V5.36755L8.52465 3.45864C8.42612 3.37239 8.27837 3.37239 8.17982 3.45864L6.5295 4.99806L5.06403 3.45864C4.97778 3.37239 4.85468 3.36011 4.75615 3.4217L1.49257 5.55224V2.32561C1.49257 1.64824 2.04674 1.09407 2.72411 1.09407V1.09411ZM1.49257 6.14342L4.85467 3.95128L9.17737 8.48334H2.72411C2.04674 8.48334 1.49257 7.92917 1.49257 7.2518V6.14342Z" fill="#9C9FA0" stroke="#9C9FA0" stroke-width="0.3"/>
</svg>
