<svg width="36" height="36" viewBox="0 0 36 36" fill="none" xmlns="http://www.w3.org/2000/svg">
<circle cx="18" cy="18" r="18" fill="white"/>
<path d="M11.9131 17.4141C9.75563 17.4141 8 19.1584 8 21.302C8 23.4455 9.75563 25.1899 11.9131 25.1899C14.0705 25.1899 15.8261 23.4455 15.8261 21.302C15.8261 19.1584 14.0705 17.4141 11.9131 17.4141ZM13.96 23.3359C13.8749 23.4196 13.7635 23.462 13.6521 23.462C13.5408 23.462 13.4295 23.4196 13.3442 23.3359L11.605 21.6079C11.5244 21.5266 11.4782 21.417 11.4782 21.302V18.71C11.4782 18.4715 11.673 18.278 11.9131 18.278C12.1531 18.278 12.3479 18.4715 12.3479 18.71V21.1232L13.9602 22.7251C14.1296 22.8934 14.1296 23.1665 13.96 23.3359L13.96 23.3359Z" fill="#E6427A"/>
<path d="M23.6529 16.5469C23.4259 16.5469 23.2233 16.6384 23.0685 16.7802C22.986 16.8554 22.9241 16.9443 22.8764 17.0385C22.8711 17.0489 22.8624 17.0557 22.8582 17.0661C22.8094 17.1733 22.7832 17.2899 22.7832 17.4108C22.7832 17.5317 22.8093 17.6484 22.858 17.7555C22.8624 17.7659 22.872 17.7727 22.8762 17.7831C22.9232 17.8781 22.9858 17.9662 23.0684 18.0414C23.2231 18.1832 23.4266 18.2747 23.6527 18.2747C24.1318 18.2747 24.5223 17.8868 24.5223 17.4108C24.5224 16.9348 24.132 16.5469 23.6529 16.5469L23.6529 16.5469Z" fill="#E6427A"/>
<path d="M25.8265 10.5002H13.6524C12.4542 10.5002 11.4785 11.4696 11.4785 12.6601V16.5695C11.6221 16.5566 11.7663 16.5479 11.9134 16.5479C14.5508 16.5479 16.6959 18.6793 16.6959 21.2997C16.6959 21.4456 16.6871 21.5891 16.6742 21.7317H25.8263C27.0245 21.7317 28.0002 20.7623 28.0002 19.5718V12.6599C28.0002 11.4694 27.0245 10.5 25.8263 10.5L25.8265 10.5002ZM22.3483 13.0922H23.2178C23.4579 13.0922 23.6526 13.2857 23.6526 13.5242C23.6526 13.7626 23.4579 13.9561 23.2178 13.9561H22.3483C22.1082 13.9561 21.9134 13.7626 21.9134 13.524C21.9134 13.2857 22.1082 13.0922 22.3483 13.0922ZM17.1309 13.0922H18.0004C18.2404 13.0922 18.4352 13.2857 18.4352 13.5242C18.4352 13.7626 18.2404 13.9561 18.0004 13.9561H17.1309C16.8908 13.9561 16.696 13.7626 16.696 13.524C16.696 13.2857 16.8908 13.0922 17.1309 13.0922ZM14.0873 13.524C14.0873 13.2855 14.2821 13.092 14.5221 13.092H15.3917C15.6317 13.092 15.8265 13.2855 15.8265 13.524C15.8265 13.7626 15.6317 13.9561 15.3917 13.9561H14.5221C14.2821 13.9561 14.0873 13.7626 14.0873 13.524ZM18.8698 19.14H18.0003C17.7602 19.14 17.5655 18.9465 17.5655 18.708C17.5655 18.4695 17.7602 18.2759 18.0003 18.2759H18.8698C19.1099 18.2759 19.3047 18.4695 19.3047 18.708C19.3047 18.9465 19.1099 19.14 18.8698 19.14ZM18.8698 16.5481H15.3916C15.1515 16.5481 14.9567 16.3546 14.9567 16.116C14.9567 15.8777 15.1515 15.6842 15.3916 15.6842H18.8698C19.1099 15.6842 19.3047 15.8777 19.3047 16.1162C19.3047 16.3546 19.1099 16.5481 18.8698 16.5481ZM19.3047 13.5241C19.3047 13.2856 19.4994 13.0921 19.7395 13.0921H20.609C20.8491 13.0921 21.0438 13.2856 21.0438 13.5241C21.0438 13.7626 20.8491 13.9562 20.609 13.9562H19.7395C19.4994 13.9562 19.3047 13.7626 19.3047 13.5241ZM23.6526 19.1401C23.3353 19.1401 23.0405 19.0485 22.784 18.9007C22.5195 19.0546 22.2213 19.1401 21.9134 19.1401C20.9543 19.1401 20.1743 18.3651 20.1743 17.4121C20.1743 16.4591 20.9543 15.6841 21.9134 15.6841C22.2213 15.6841 22.5195 15.7696 22.7838 15.9235C23.0403 15.7758 23.3351 15.6842 23.6526 15.6842C24.6118 15.6842 25.3918 16.4592 25.3918 17.4122C25.3916 18.3651 24.6116 19.1401 23.6526 19.1401L23.6526 19.1401Z" fill="#E6427A"/>
<path d="M21.9926 17.9007C21.9838 17.8713 21.9726 17.8437 21.9656 17.8143C21.9343 17.6847 21.9126 17.5508 21.9126 17.4117C21.9126 17.2725 21.9334 17.1386 21.9656 17.009C21.9726 16.9796 21.9838 16.952 21.9926 16.9226C22.0247 16.8163 22.0656 16.7152 22.116 16.6185C22.123 16.6055 22.1256 16.5908 22.1325 16.5778C22.0611 16.5573 21.9873 16.5469 21.9125 16.5469C21.4334 16.5469 21.043 16.9348 21.043 17.4108C21.043 17.9611 21.603 18.3871 22.1326 18.2454C22.1256 18.2323 22.123 18.2177 22.1161 18.2047C22.0646 18.1081 22.0238 18.0061 21.9925 17.9007L21.9926 17.9007Z" fill="#E6427A"/>
</svg>
