<svg width="25" height="24" viewBox="0 0 25 24" fill="none" xmlns="http://www.w3.org/2000/svg">
<path d="M9.33634 11.7486C10.081 12.3851 10.8948 12.8426 11.7025 12.9707L9.49912 15.1753C9.38996 15.2838 9.38996 15.463 9.49912 15.5722L11.9622 18.036C12.072 18.1458 12.2506 18.1458 12.36 18.036L14.824 15.5722L14.8608 15.532C14.9702 15.4231 14.9702 15.2441 14.8608 15.1347L12.6797 12.9532C13.4321 12.8058 14.1464 12.3607 14.862 11.7486C15.6359 11.087 16.3407 10.1672 16.9589 9.01536C17.4181 8.16074 17.8045 7.2171 18.1059 6.2382C17.742 6.08192 17.421 5.92879 17.1385 5.77924C16.8512 6.74387 16.4751 7.67506 16.0245 8.51455C15.477 9.53556 14.8361 10.375 14.1721 10.943C13.4876 11.5284 12.841 11.8706 12.1496 11.8706C11.4582 11.8706 10.7102 11.5286 10.0256 10.943C9.36193 10.3753 8.72098 9.53556 8.17308 8.51455C7.72042 7.67021 7.34199 6.73272 7.05466 5.76265C6.7728 5.91305 6.45221 6.06722 6.08814 6.22456C6.38998 7.20815 6.77804 8.15722 7.23914 9.01561C7.85731 10.1677 8.56262 11.0871 9.33625 11.7486L9.33634 11.7486ZM12.0992 10.7192C13.0167 10.7192 14.1475 9.6738 15.0506 7.99106C15.5089 7.13687 15.8871 6.15834 16.1639 5.14869C16.1593 5.14364 16.1555 5.13691 16.1498 5.13249C15.5731 4.64345 15.5731 3.88285 15.5731 3.88285V1.98094C15.5731 0.839844 14.3722 0.839844 14.3722 0.839844H9.86773C9.86773 0.839844 8.72664 0.859826 8.72664 1.98094V3.88285C8.72664 3.88285 8.72664 4.64366 8.04804 5.13249C8.04258 5.1367 8.03879 5.14364 8.03416 5.14869C8.31076 6.15834 8.68938 7.13687 9.14774 7.99106C10.0511 9.67359 11.1817 10.7192 12.0993 10.7192H12.0992ZM21.2819 7.34973L19.1289 6.67033C18.811 7.68105 18.4089 8.65452 17.9341 9.53961C17.0277 11.2295 15.9358 12.4701 14.7383 13.2074L16.5778 15.047C16.7595 15.2283 16.7595 15.5249 16.5778 15.7062L12.4923 19.7909C12.3105 19.973 12.0139 19.973 11.8315 19.7909L7.74627 15.7052C7.56495 15.5236 7.56495 15.2268 7.74627 15.0459L9.54113 13.2509C8.3121 12.5206 7.19179 11.2661 6.26458 9.53854C5.78963 8.65382 5.38681 7.68035 5.06964 6.66968L2.91697 7.34908C2.91697 7.34908 0.856419 7.98072 1.70496 10.7427C2.48807 13.295 5.70505 21.5323 5.70505 21.5323C5.70505 21.5323 6.15939 22.9258 7.61391 22.9258H16.5844C18.0388 22.9258 18.4935 21.5323 18.4935 21.5323C18.4935 21.5323 21.7105 13.2946 22.4938 10.7433C23.3419 7.98147 21.2816 7.34978 21.2816 7.34978L21.2819 7.34973Z" fill="#E6427A"/>
</svg>
