<svg width="14" height="14" viewBox="0 0 14 14" fill="none" xmlns="http://www.w3.org/2000/svg">
<path d="M6.62941 13.4535C6.28152 13.8014 5.8344 13.9836 5.33748 13.9836C4.8572 13.9836 4.39331 13.8014 4.04554 13.4535L3.61493 13.0229C3.44925 12.8572 3.4162 12.5757 3.56524 12.3769C3.97933 11.8138 3.91313 11.0519 3.43272 10.5549C2.93579 10.058 2.17394 10.0083 1.6107 10.4224C1.41198 10.5714 1.14693 10.5384 0.964737 10.3727L0.534122 9.94211C-0.178041 9.22995 -0.178041 8.07043 0.534122 7.35827L5.5031 2.38929C5.51962 2.33961 5.55278 2.30645 5.58594 2.27329C5.6191 2.24013 5.66878 2.20709 5.70194 2.19045L7.35827 0.534121C8.07043 -0.17804 9.22995 -0.17804 9.94211 0.534121L10.3727 0.964737C10.5384 1.13042 10.5714 1.41197 10.4224 1.6107C10.0083 2.17383 10.0745 2.9358 10.5549 3.43272C11.0519 3.92965 11.8137 3.97931 12.3769 3.56524C12.5757 3.4162 12.8407 3.44925 13.0229 3.61493L13.4534 4.04563C13.8013 4.3934 14 4.84064 14 5.33756C14 5.81784 13.8178 6.28173 13.4699 6.6295L6.62941 13.4535ZM0.981335 8.65018C0.981335 8.86554 1.06418 9.0808 1.22974 9.22995L1.37878 9.379C2.28979 8.93176 3.38299 9.09744 4.12831 9.84277C4.87363 10.5881 5.03932 11.6813 4.59208 12.5923L4.74113 12.7413C4.89017 12.8904 5.10552 12.9897 5.3209 12.9897C5.53628 12.9897 5.75152 12.9069 5.90067 12.7413L10.6378 8.03738L5.95036 3.34997L1.22983 8.0705C1.08079 8.21955 0.98143 8.43478 0.98143 8.65016L0.981335 8.65018ZM12.7578 4.74125L12.6088 4.59221C11.6978 5.03944 10.6046 4.87377 9.85925 4.12843C9.11393 3.38312 8.94824 2.28991 9.39547 1.3789L9.24643 1.22986C9.09739 1.08082 8.88204 0.981457 8.66666 0.981457C8.45128 0.981457 8.23604 1.0643 8.08688 1.22986L6.67895 2.6378L11.3501 7.3252L12.758 5.91726C12.9071 5.76822 13.0064 5.55287 13.0064 5.33749C13.0064 5.10573 12.9071 4.90699 12.7579 4.74133L12.7578 4.74125Z" fill="#E6427A"/>
<path d="M8.16932 8.93176C8.36804 9.13048 8.36804 9.44519 8.16932 9.62742C8.06995 9.72678 7.93744 9.77646 7.82143 9.77646C7.70542 9.77646 7.57303 9.72678 7.47354 9.62742L4.35965 6.51352C4.16092 6.3148 4.16092 6.00009 4.35965 5.81787C4.55837 5.61914 4.87308 5.61914 5.0553 5.81787L8.16932 8.93176Z" fill="#E6427A"/>
</svg>
