<svg width="15" height="14" viewBox="0 0 15 14" fill="none" xmlns="http://www.w3.org/2000/svg">
<path fill-rule="evenodd" clip-rule="evenodd" d="M7.5 0C3.63375 0 0.5 3.13375 0.5 7C0.5 10.8663 3.63375 14 7.5 14C11.3663 14 14.5 10.8663 14.5 7C14.5 3.13375 11.3663 0 7.5 0ZM7.88888 4.66675H7.11115C6.8965 4.66675 6.72227 4.49253 6.72227 4.27777V3.50005C6.72227 3.2854 6.8965 3.11118 7.11115 3.11118H7.88888C8.10352 3.11118 8.27775 3.2854 8.27775 3.50005V4.27777C8.27775 4.49252 8.10353 4.66675 7.88888 4.66675ZM7.88888 10.889H7.11115C6.8965 10.889 6.72227 10.7148 6.72227 10.5001V6.61137C6.72227 6.39673 6.8965 6.2225 7.11115 6.2225H7.88888C8.10352 6.2225 8.27775 6.39672 8.27775 6.61137V10.5001C8.27775 10.7148 8.10353 10.889 7.88888 10.889Z" fill="#707070"/>
</svg>
