<svg width="20" height="20" viewBox="0 0 20 20" fill="none" xmlns="http://www.w3.org/2000/svg">
<path d="M4.78644 4.92065V1.7445V1.29292C4.78644 0.961757 4.64221 0.615523 4.40756 0.381124C4.18368 0.15748 3.81556 -0.0102515 3.49478 0.00265002C3.16111 0.0177029 2.81453 0.127375 2.58201 0.381124C2.34951 0.630575 2.20312 0.942367 2.20312 1.29076V4.46692V4.91849C2.20312 5.24966 2.34736 5.59589 2.58201 5.83029C2.80589 6.05393 3.174 6.22167 3.49478 6.20876C3.82846 6.19371 4.17504 6.08404 4.40756 5.83029C4.64005 5.58084 4.78644 5.26905 4.78644 4.92065Z" fill="black"/>
<path d="M4.78054 18.7094V17.7116V15.3268V12.4323V9.93997C4.78054 9.5357 4.78485 9.13143 4.78054 8.72712V8.70992C4.78054 8.37875 4.63631 8.03252 4.40166 7.79812C4.17778 7.57447 3.80966 7.40674 3.48888 7.41964C3.15521 7.4347 2.80863 7.54437 2.57611 7.79812C2.34361 8.04971 2.19723 8.36152 2.19723 8.70992V9.70771V12.0925V14.987V17.4793C2.19723 17.8836 2.19292 18.2879 2.19723 18.6922V18.7094C2.19723 19.0405 2.34146 19.3868 2.57611 19.6212C2.79999 19.8448 3.16811 20.0125 3.48888 19.9996C3.82256 19.9846 4.16914 19.8749 4.40166 19.6212C4.63416 19.3696 4.78054 19.0578 4.78054 18.7094Z" fill="black"/>
<path d="M1.29236 6.21141H2.78206H5.16084H5.71194C6.04346 6.21141 6.39006 6.06733 6.62471 5.83293C6.8486 5.60929 7.01651 5.24157 7.00359 4.92113C6.98853 4.58782 6.87874 4.24161 6.62471 4.00933C6.37285 3.77709 6.0607 3.63086 5.71194 3.63086H4.22224H1.84346H1.29236C0.960835 3.63086 0.614229 3.77494 0.379578 4.00933C0.155694 4.23298 -0.0122178 4.6007 0.000697646 4.92113C0.0157667 5.25445 0.125557 5.60066 0.379578 5.83293C0.631446 6.06517 0.941424 6.21141 1.29236 6.21141Z" fill="black"/>
<path d="M7.76892 14.0317H9.25862H11.6374H12.1885C12.52 14.0317 12.8666 13.8876 13.1013 13.6532C13.3252 13.4296 13.4931 13.0619 13.4802 12.7414C13.4651 12.4081 13.3553 12.0619 13.1013 11.8296C12.8494 11.5974 12.5373 11.4512 12.1885 11.4512H10.6988H8.32002H7.76892C7.4374 11.4512 7.09079 11.5953 6.85614 11.8296C6.63226 12.0533 6.46434 12.421 6.47726 12.7414C6.49233 13.0748 6.60212 13.421 6.85614 13.6532C7.10801 13.8855 7.42015 14.0317 7.76892 14.0317Z" fill="black"/>
<path d="M11.2805 12.7419V11.6022V8.86689V5.55739V2.69734C11.2805 2.23499 11.2848 1.77264 11.2805 1.30817V1.28882C11.2805 0.957653 11.1363 0.611419 10.9017 0.37702C10.6799 0.155527 10.3118 -0.0122046 9.98888 0.000696999C9.65521 0.0157499 9.30863 0.125423 9.07611 0.379171C8.84361 0.630769 8.69723 0.942577 8.69723 1.29097V2.43068V5.166V8.47549V11.3355C8.69723 11.7979 8.69292 12.2602 8.69723 12.7247V12.7441C8.69723 13.0752 8.84146 13.4215 9.07611 13.6559C9.29999 13.8795 9.66811 14.0472 9.98888 14.0343C10.3226 14.0193 10.6691 13.9096 10.9017 13.6559C11.1342 13.4021 11.2805 13.0903 11.2805 12.7419V12.7419Z" fill="black"/>
<path d="M11.2786 18.7086V16.8012V16.5302C11.2786 16.1991 11.1344 15.8528 10.8997 15.6184C10.6759 15.3948 10.3077 15.2271 9.98697 15.24C9.6533 15.255 9.30672 15.3647 9.07419 15.6184C8.8417 15.87 8.69531 16.1818 8.69531 16.5302V18.4377V18.7086C8.69531 19.0398 8.83955 19.386 9.07419 19.6204C9.29808 19.8441 9.66619 20.0118 9.98697 19.9989C10.3206 19.9838 10.6672 19.8742 10.8997 19.6204C11.1322 19.3688 11.2786 19.057 11.2786 18.7086Z" fill="black"/>
<path d="M17.7786 8.52912V6.08407V2.1875V1.29292C17.7786 0.961757 17.6344 0.615523 17.3997 0.381124C17.1759 0.15748 16.8078 -0.0102515 16.487 0.00265002C16.1533 0.0177029 15.8067 0.127375 15.5742 0.381124C15.3417 0.632722 15.1953 0.94453 15.1953 1.29292V3.73797V7.63454V8.52912C15.1953 8.86028 15.3395 9.20652 15.5742 9.44092C15.7981 9.66456 16.1662 9.83229 16.487 9.81939C16.8206 9.80434 17.1672 9.69466 17.3997 9.44092C17.6322 9.18932 17.7786 8.87751 17.7786 8.52912Z" fill="black"/>
<path d="M17.7786 18.7091V16.5501V13.1095V12.3203C17.7786 11.9891 17.6344 11.6429 17.3997 11.4085C17.1759 11.1848 16.8078 11.0171 16.487 11.03C16.1533 11.045 15.8067 11.1547 15.5742 11.4085C15.3417 11.6601 15.1953 11.9719 15.1953 12.3203V14.4793V17.92V18.7091C15.1953 19.0403 15.3395 19.3866 15.5742 19.6209C15.7981 19.8446 16.1662 20.0123 16.487 19.9994C16.8206 19.9844 17.1672 19.8747 17.3997 19.6209C17.6322 19.3694 17.7786 19.0575 17.7786 18.7091Z" fill="black"/>
<path d="M14.2845 9.8198H15.7742H18.153H18.7041C19.0356 9.8198 19.3823 9.67572 19.6169 9.44133C19.8408 9.21769 20.0087 8.84997 19.9958 8.52953C19.9807 8.19621 19.8709 7.85001 19.6169 7.61773C19.365 7.38549 19.0529 7.23926 18.7041 7.23926H17.2144H14.8356H14.2845C13.953 7.23926 13.6064 7.38334 13.3718 7.61773C13.1479 7.84138 12.98 8.2091 12.9929 8.52953C13.008 8.86285 13.1177 9.20905 13.3718 9.44133C13.6236 9.67357 13.9336 9.8198 14.2845 9.8198Z" fill="black"/>
</svg>
