<svg width="16" height="15" viewBox="0 0 16 15" fill="none" xmlns="http://www.w3.org/2000/svg">
<path d="M15 3.57211C15 3.55587 15 3.53952 14.9838 3.50705V3.49081C14.9675 3.45822 14.9675 3.44198 14.9512 3.42574L13.5512 1.47227C13.3396 1.16282 12.9977 1 12.6559 1H3.34422C2.98608 1 2.66049 1.16284 2.44884 1.45582L1.04883 3.40929C1.03259 3.42552 1.01624 3.45812 1.01624 3.47435V3.49059C1.01624 3.50683 1 3.52318 1 3.55566V3.5719V3.58814V13.1603C1 13.7137 1.45582 14.1696 2.00928 14.1696H13.9745C14.5279 14.1696 14.9837 13.7137 14.9837 13.1603V3.60471V3.58847C15 3.58835 15 3.57212 15 3.57212L15 3.57211ZM12.6559 1.65111C12.8024 1.65111 12.9326 1.71618 13.014 1.83019L14.0396 3.27904H10.0347L9.56264 1.65112L12.6559 1.65111ZM6.53492 3.65354L7.10475 1.65111H8.89552L9.46523 3.65354V6.32332L8.00016 5.52561L6.5351 6.32332L6.53492 3.65354ZM2.98607 1.83018C3.06749 1.71618 3.19773 1.65111 3.34421 1.65111H6.42097L5.94893 3.27902H1.96054L2.98607 1.83018ZM14.3489 13.1768C14.3489 13.3721 14.1861 13.5349 13.9908 13.5349H2.00932C1.814 13.5349 1.65118 13.3722 1.65118 13.1768V3.9302H5.88376V6.55114C5.88376 6.73022 5.98142 6.89306 6.1279 6.99071C6.20932 7.03954 6.29074 7.05577 6.38839 7.05577C6.46981 7.05577 6.55123 7.03954 6.63253 6.99071L7.99995 6.24181L9.36737 6.99071C9.53021 7.07213 9.70929 7.07213 9.872 6.97447C10.0348 6.87681 10.1161 6.71398 10.1161 6.5349L10.1163 3.93018H14.3488L14.3489 13.1768Z" fill="#E6427A" stroke="#E6427A" stroke-width="0.2"/>
<path d="M9.13962 3.60448C9.13962 3.4254 8.99313 3.27892 8.81407 3.27892L7.18615 3.27881C7.00707 3.27881 6.8606 3.42529 6.8606 3.60436C6.8606 3.78343 7.00708 3.92992 7.18615 3.92992H8.81407C8.99314 3.93003 9.13962 3.78354 9.13962 3.60448V3.60448Z" fill="#E6427A"/>
</svg>
