<svg width="140" height="140" viewBox="0 0 140 140" fill="none" xmlns="http://www.w3.org/2000/svg">
<path d="M50.1837 25.1054C51.1577 25.1302 53.6178 26.9362 53.6419 31.4486C53.6692 35.8329 53.1611 43.7412 53.1611 43.7412L59.4998 67.999C59.3119 69.8669 57.5743 66.1899 56.9998 67C56.9998 67 46.8723 46.8363 46.5291 45.0075C46.1859 43.1786 45.5682 34.652 45.9233 32.7385C46.3335 30.8519 45.981 25.0238 50.1837 25.1054Z" fill="#FCB9A3"/>
<path d="M129.34 114.295C130.068 114.598 130.584 115.264 130.857 116.02C131.13 116.777 131.16 117.563 131.069 118.35C130.887 119.863 130.038 121.376 129.128 122.586C127.853 121.467 127.55 119.53 127.489 118.562C127.307 116.958 128.005 114.053 129.34 114.295Z" fill="#FA96BB"/>
<path d="M130.584 125.04C130.372 124.192 130.736 123.254 131.403 122.68C132.07 122.105 132.981 121.863 133.86 121.923C134.255 121.953 134.71 122.074 134.922 122.407C135.134 122.71 135.104 123.164 134.952 123.497C134.77 123.829 134.467 124.071 134.164 124.283C133.011 124.949 131.828 125.433 130.584 125.04Z" fill="#FA96BB"/>
<path d="M128.947 129.663C128.947 129.663 128.947 129.542 128.978 129.36C129.008 129.149 129.069 128.846 129.129 128.513C129.281 127.817 129.463 126.819 130.009 125.85C130.555 124.882 131.314 124.156 131.92 123.823C132.224 123.641 132.497 123.52 132.709 123.49C132.8 123.46 132.891 123.46 132.921 123.43C132.982 123.43 133.012 123.43 133.012 123.43C133.012 123.46 132.557 123.52 131.951 123.914C131.344 124.277 130.616 124.973 130.07 125.941C129.524 126.879 129.342 127.878 129.19 128.574C129.099 128.937 129.038 129.209 129.008 129.391C128.978 129.572 128.947 129.663 128.947 129.663Z" fill="#263238"/>
<path d="M128.977 116.531C128.977 116.531 128.977 116.592 129.008 116.652C129.008 116.743 129.008 116.894 129.038 117.046C129.068 117.378 129.068 117.863 129.098 118.468C129.129 119.678 129.159 121.342 129.159 123.188C129.159 125.034 129.098 126.698 129.068 127.908C129.038 128.514 129.008 128.998 129.008 129.331C129.008 129.482 128.977 129.633 128.977 129.724C128.977 129.815 128.978 129.845 128.947 129.845C128.947 129.845 128.947 129.784 128.947 129.724C128.947 129.633 128.947 129.482 128.947 129.331C128.947 128.967 128.977 128.483 128.977 127.908C129.008 126.698 129.038 125.034 129.038 123.188C129.038 121.342 129.038 119.678 129.008 118.468C129.008 117.863 128.977 117.378 128.977 117.046C128.977 116.894 128.977 116.743 128.977 116.652C128.977 116.592 128.977 116.531 128.977 116.531Z" fill="#263238"/>
<path d="M128.37 125.978C128.067 124.163 126.853 122.499 125.185 121.712C124.76 121.5 124.214 121.379 123.85 121.682C123.486 121.984 123.577 122.559 123.759 123.013C124.487 124.829 126.398 126.13 128.34 126.1" fill="#FA96BB"/>
<path d="M125.396 123.133C125.396 123.133 125.487 123.163 125.669 123.254C125.76 123.284 125.851 123.345 125.973 123.405C126.094 123.466 126.215 123.556 126.367 123.647C126.519 123.738 126.67 123.859 126.822 123.98C126.974 124.101 127.125 124.252 127.307 124.404C127.611 124.737 127.944 125.1 128.217 125.553C128.49 126.007 128.673 126.461 128.824 126.885C128.885 127.097 128.946 127.308 128.976 127.52C129.006 127.702 129.037 127.914 129.067 128.065C129.097 128.246 129.097 128.398 129.097 128.519C129.097 128.64 129.097 128.761 129.097 128.852C129.097 129.033 129.067 129.154 129.067 129.154C129.037 129.154 129.097 128.731 129.006 128.065C128.976 127.914 128.976 127.702 128.915 127.52C128.885 127.339 128.824 127.127 128.764 126.915C128.612 126.491 128.43 126.038 128.187 125.614C127.914 125.19 127.611 124.797 127.307 124.464C127.156 124.313 127.004 124.162 126.852 124.041C126.701 123.92 126.549 123.798 126.428 123.708C125.76 123.314 125.366 123.133 125.396 123.133Z" fill="#263238"/>
<path d="M47.8 24L43 24.5238L49.4 35L51 34.4762L47.8 24Z" fill="#FFBEA9"/>
<path d="M47.2328 23.8516C47.5968 23.8516 51.7226 24.8501 52.8754 26.8774C54.0282 28.9047 54.5439 36.3785 54.5439 36.3785C54.5439 36.3785 54.8776 41.6132 54.1495 44.1549C53.4214 46.6966 51.0552 59.042 50.2058 61.5534C49.0833 64.7608 47.5058 70.0863 47.5058 70.0863L33.9453 60.4641C44.0929 47.8466 55.5275 42.7196 47.2328 23.8516Z" fill="#F97CAA"/>
<path d="M51.5409 12.205C50.9645 13.4758 51.1465 14.9585 51.4802 16.2899C51.814 17.6515 52.3297 18.9828 52.2993 20.3747C52.2993 22.4323 51.7533 25.2161 47.5972 23.8847C45.0792 23.0677 47.3848 30.5718 46.0197 32.8412C45.7466 33.295 45.4736 33.7489 45.0489 34.0515C44.0174 34.7777 42.6219 34.3541 41.4388 33.9002C41.0748 33.7489 40.6501 33.5674 40.559 33.174C40.5287 32.9622 40.5894 32.7806 40.6197 32.5688C42.6826 25.7304 44.7455 18.8618 46.8387 12.0234" fill="#10215F"/>
<path d="M44.4701 28.2147C46.8667 27.6398 47.5948 26.4597 47.6251 24.3719C47.6554 21.7092 47.6554 21.7092 47.6554 21.7092C47.6554 21.7092 50.2947 21.5579 50.9015 17.6545C51.2048 15.718 51.4779 12.5409 51.2958 9.93867C51.1441 7.60879 48.7172 3.4634 46.351 3.70546L39.9196 6.85233C39.1915 6.9431 38.6758 7.54827 38.6758 8.24421L39.1612 23.4339" fill="#FFBEA9"/>
<path d="M47.6564 21.7669C47.6564 21.7669 45.0172 21.9484 42.4082 20.375C42.4082 20.375 43.7127 23.1588 47.6564 22.7957V21.7669Z" fill="#E4977C"/>
<path d="M30.3038 24.9734C31.1532 23.5815 33.9138 20.2834 34.9149 18.014C35.6127 16.3801 36.1284 10.6915 37.6149 7.75644C39.1014 4.82138 40.8609 3.64131 42.5901 3.15717C44.3193 2.7033 45.5934 3.30847 46.3822 4.00441C47.1709 4.70035 47.4136 6.72765 47.4136 6.72765C47.4136 6.72765 43.2575 7.6354 41.862 9.99555C40.2542 12.7188 39.8598 14.0804 39.8598 14.0804L39.3441 15.5631C39.3441 15.5631 39.8295 18.4376 40.0115 19.8598C40.1935 21.2819 39.8901 22.583 38.7374 23.1882L36.3711 24.8524C36.3711 24.8524 37.6452 38.5896 37.4935 38.6804C37.1295 38.9527 34.1869 38.3476 31.5172 37.7424C31.0015 37.6214 30.7285 32.7801 30.7285 32.7801L29.9397 37.3188L27.9375 36.8649C27.9678 36.8347 28.5442 27.7874 30.3038 24.9734Z" fill="#10215F"/>
<path d="M47.3227 6.7274C47.3227 6.7274 49.9013 6.48533 50.781 9.14806C51.1754 10.3584 51.4788 13.8381 51.4788 13.8381C51.4788 13.8381 51.8125 11.0543 51.6911 9.4809C51.5698 7.90747 50.781 5.91042 49.5676 4.79087C48.3844 3.70157 47.3833 3.21743 45.2598 3.33847C45.2598 3.33847 46.1092 3.73183 46.6552 4.51854C46.8979 4.94216 46.989 5.24474 47.3227 6.7274Z" fill="#10215F"/>
<path d="M39.89 14.2904C39.8596 13.4129 38.8888 12.838 38.1608 13.2919C37.7361 13.5339 37.4327 14.0181 37.463 14.9258C37.554 17.3767 40.0113 16.7716 40.0113 16.7111C40.0113 16.6505 39.9506 15.2889 39.89 14.2904Z" fill="#FFBEA9"/>
<path d="M39.2232 15.7735C39.2232 15.7735 39.1928 15.8037 39.1018 15.834C39.0412 15.8642 38.9198 15.8945 38.7681 15.8642C38.4951 15.7735 38.2827 15.3801 38.2524 14.9262C38.2221 14.7144 38.2827 14.5026 38.3434 14.3211C38.4041 14.1395 38.5254 14.0185 38.6468 13.9882C38.7681 13.958 38.8591 14.0185 38.8895 14.1093C38.9198 14.1698 38.9198 14.2303 38.9198 14.2303C38.9198 14.2303 38.9805 14.2 38.9502 14.079C38.9502 14.0185 38.9198 13.9882 38.8591 13.9277C38.7985 13.8672 38.7075 13.8672 38.6164 13.8672C38.4344 13.8974 38.2524 14.079 38.1917 14.2605C38.1007 14.4724 38.0401 14.7144 38.0704 14.9565C38.1007 15.4406 38.3738 15.8945 38.7378 15.9853C38.9198 16.0155 39.0412 15.955 39.1322 15.8945C39.2232 15.834 39.2232 15.8037 39.2232 15.7735Z" fill="#E4977C"/>
<path d="M38.6166 6.33594C37.0997 8.45402 36.0683 10.9049 35.5829 13.4769C35.2795 15.0806 35.1885 16.8356 34.2177 18.1367C33.702 18.8326 32.9739 19.347 32.5796 20.1337C32.1549 20.981 32.2155 22.0097 31.7301 22.7965C31.2144 23.6739 30.1526 24.0976 29.4549 24.854C28.1504 26.2762 28.4538 28.485 27.9077 30.3308C27.574 31.5108 26.8763 32.5699 25.9358 33.3566C25.6021 33.6289 25.2078 33.9618 25.3291 34.3854C25.3898 34.6275 25.6325 34.7787 25.8752 34.8998C26.6336 35.2931 27.301 36.7153 28.1201 36.8968C28.3021 32.4791 30.4257 27.1839 32.7616 23.4319C34.0964 21.2835 35.5526 19.1352 36.0683 16.6843C36.402 15.0503 36.3413 13.3861 36.5233 11.7219C36.7053 10.0577 37.2211 8.36324 38.4649 7.27394" fill="#10215F"/>
<path d="M37.8579 17.3464C37.8276 17.3767 37.6152 17.2859 37.3118 16.9531C37.0388 16.6202 36.6748 16.0453 36.6141 15.2283C36.5838 14.835 36.6141 14.3509 36.7658 13.897C36.9175 13.4431 37.1905 12.9892 37.5242 12.5959C37.8579 12.2025 38.2523 11.8092 38.6466 11.4461C39.041 11.083 39.4961 10.7199 39.9511 10.387C40.8916 9.69108 41.8623 9.14643 42.7724 8.72281C43.6825 8.29919 44.532 8.02687 45.169 7.69403C45.8364 7.39144 46.2915 7.0586 46.5948 6.78628C46.8982 6.51395 47.0196 6.3324 47.0802 6.36266C47.1106 6.39292 47.0802 6.63499 46.8375 6.99809C46.5949 7.36119 46.1095 7.81506 45.4421 8.20842C44.7746 8.60178 43.9556 8.93462 43.1061 9.38849C42.2567 9.84237 41.3466 10.387 40.4365 11.0527C39.9815 11.3855 39.5567 11.7184 39.1624 12.0512C38.768 12.3841 38.404 12.7169 38.0702 13.08C37.7669 13.4128 37.5242 13.7759 37.3725 14.139C37.2208 14.5021 37.1601 14.8652 37.1601 15.1981C37.1601 15.894 37.3725 16.4084 37.5545 16.7715C37.7669 17.1346 37.9186 17.3162 37.8579 17.3464Z" fill="#10215F"/>
<path d="M37.5244 16.3808C37.5244 16.3808 37.4031 16.5019 37.2514 16.7137C37.0694 16.9557 36.857 17.3188 36.7964 17.803C36.7357 18.2871 36.8267 18.9225 37.1907 19.4672C37.5548 20.0118 38.2525 20.4657 39.0413 20.3447C39.4053 20.3144 39.7694 20.1329 40.012 19.8908C40.2547 19.6487 40.4064 19.3159 40.4671 18.983C40.6188 18.3174 40.5278 17.7122 40.3154 17.2583C40.1031 16.8044 39.739 16.5624 39.466 16.4413C39.193 16.3506 39.0413 16.3506 39.0413 16.3203C39.0413 16.3203 39.0716 16.3203 39.1626 16.3203C39.2536 16.3203 39.3446 16.3506 39.4963 16.3808C39.7694 16.4716 40.1637 16.7137 40.4064 17.1978C40.6491 17.6819 40.7401 18.3174 40.5884 19.0133C40.5278 19.3461 40.3761 19.7092 40.1031 19.9816C39.83 20.2539 39.4356 20.4354 39.0413 20.496C38.6166 20.5565 38.2222 20.4354 37.8885 20.2539C37.5548 20.0723 37.2817 19.8 37.0694 19.5277C36.675 18.9528 36.584 18.2568 36.675 17.7425C36.766 17.2281 37.0087 16.8347 37.1907 16.6229C37.2817 16.5019 37.3728 16.4413 37.4334 16.3808C37.4941 16.3808 37.5244 16.3808 37.5244 16.3808Z" fill="#E0E0E0"/>
<path d="M47 27L45.5 27.5L46.5 29.5L47 27Z" fill="#FFBEA9"/>
<path d="M30.669 128.738C29.5184 125.567 29.8873 123.229 30.5009 120.497L25.9668 120.133V125.579L27.2182 128.06L30.669 128.738Z" fill="#FFBEA9"/>
<path d="M34.1377 100.287C35.5985 99.3187 40.1632 75.929 40.5284 75.6869L29.2763 70.6641C29.2763 70.6641 28.8426 72.3283 28.7513 73.9925C28.66 75.6567 29.1165 80.8914 29.2534 83.1305C29.3904 85.3696 28.0209 96.5047 26.9939 100.015C25.9668 103.525 25.9668 117.564 25.9668 118.321V121.347C28.0009 122.001 30.0009 122.001 30.0009 122.001L30.5009 120.501L34.1377 100.287Z" fill="#FFBEA9"/>
<path d="M32.034 129.66L27.9383 129.741C27.9383 129.741 25.9724 125.918 25.6447 125.918C25.317 125.837 25.399 129.822 25.399 129.822H24.7436C24.7436 129.822 24.0064 125.267 24.1702 124.454C24.2522 123.966 25.1532 122.99 25.8085 122.258C25.8085 122.258 27.283 122.827 27.5287 124.373C27.6926 125.511 28.1021 128.033 29.8223 128.196C30.3957 128.358 31.4606 128.358 31.7064 128.602C31.9521 128.765 32.034 129.66 32.034 129.66Z" fill="#E93779"/>
<path d="M5.94367 74.6562L11.4346 75.3636L9.12902 79.9515C6 78.999 5.5 77.999 3 78.999L3.15271 76.7075L5.94367 74.6562Z" fill="#FFBEA9"/>
<path d="M38.3127 71.0331C38.3127 71.0331 36.2498 82.0016 34.46 83.7905C32.6701 85.5793 30.2432 85.6264 29.6668 85.697C29.0904 85.7677 8.99971 79.9961 8.99971 79.9961C8.99971 79.9961 8.21876 75.9289 8.21875 74.9874C8.21875 74.9874 9.43222 75.1051 10.6457 75.2228L21.7186 76.3761L25.723 66.9375L38.3127 71.0331Z" fill="#FFBEA9"/>
<path d="M2.14562 80.3422L2.07281 76.7737C2.14562 76.6993 5.78602 75.0637 5.78602 74.7663C5.78602 74.7663 5.78602 74.7663 5.78602 74.692C5.71321 74.3946 2 74.5433 2 74.5433V73.9485C2.07281 73.8742 6.44129 73.2051 7.16937 73.4281C7.60622 73.5025 8.47991 74.3203 9.2808 74.7663C9.2808 74.7663 8.77114 76.1045 7.24218 76.2532C6.15006 76.4019 3.74739 76.7737 3.60178 78.2606V78.3349C3.45616 78.8553 3.38335 79.7475 3.16493 80.0448C2.8737 80.2679 2.14562 80.3422 2.14562 80.3422Z" fill="#E93779"/>
<path d="M44.8047 72.2088C44.8654 72.1785 48.7788 72.2088 48.7788 72.2088C48.7788 72.2088 51.7214 57.9571 52.0551 53.5999C52.3889 49.2427 44.926 55.6272 44.926 55.6272L44.8047 72.2088Z" fill="#F97CAA"/>
<path d="M39.5245 22.5547C39.5245 22.5547 43.3166 22.5547 45.5615 27.5171C45.5615 27.5171 52.2963 39.227 52.4479 44.2499C52.4479 44.2499 52.3569 51.6632 51.1131 56.0506C49.8693 60.4381 46.2593 72.027 46.2593 72.027C46.2593 72.027 34.974 71.0588 32.6988 69.4248C30.4235 67.7909 25.418 68.0329 25.418 68.0329C25.418 68.0329 28.482 58.7436 32.2437 53.1156C36.0055 47.4875 34.519 37.472 34.519 37.472C34.519 37.472 33.4572 22.6152 39.5245 22.5547Z" fill="#F97CAA"/>
<path d="M15.6504 90.4838L30.667 56.1406L50.9926 61.7384L41.1332 65.2181L48.999 71.001L50.9926 97.7458L15.6504 90.4838Z" fill="#F97CAA"/>
<path d="M47.9993 24.5034C48.0296 24.0798 51.7817 30.7868 52.8738 37.6554C53.2682 40.1366 52.3278 43.1927 52.3278 43.1927L44.5312 25.7336C48.1288 32.9321 52.8421 38.4171 47.9993 24.5034Z" fill="#F97CAA"/>
<path d="M56.9962 66.0833C57.4416 66.5927 57.9186 66.9775 58.1817 67.5958C58.2487 67.7672 58.3312 67.9646 58.3306 68.1412C58.335 68.3852 58.2562 68.6084 58.1775 68.8316C57.9729 69.3767 57.7788 69.8801 57.5742 70.4252C57.506 70.6068 57.4117 70.804 57.2194 70.7779C57.0948 70.7466 57.0172 70.6167 56.9552 70.5127C56.8212 70.1699 56.7393 69.7959 56.7249 69.4168L56.1336 67.4792L55.1895 66.8447L56.9962 66.0833Z" fill="#FFBEA9"/>
<path d="M53.7462 66.0619C53.8454 65.9321 56.9355 65.4267 57.8181 65.7808C58.5451 66.0516 58.7045 66.5555 58.7045 66.5555C58.7045 66.5555 54.7201 67.1015 54.1154 67.5682C53.8866 68.001 53.3866 69.0008 53.3866 69.0008C52.8866 69.001 52.3866 67.5004 52.3866 67.5004L53.7462 66.0619Z" fill="#FFBEA9"/>
<path d="M39.4703 25.7454C40.5248 25.6337 43.4459 27.326 44.1391 32.4333C44.8168 37.395 45.4378 46.4248 45.4378 46.4248L53.5 66.502C53.639 66.6638 53.5 67.501 53 68.501C53 68.501 39.1106 50.8331 38.4699 48.811C37.8293 46.7889 35.9022 37.2204 36.0024 35.0021C36.166 32.8066 34.924 26.2562 39.4703 25.7454Z" fill="#FFBEA9"/>
<path d="M129.464 56.4764L114.326 45.4624C113.112 44.5849 111.595 44.2521 110.139 44.5546L69.9735 52.8757C67.0915 53.4808 65.2713 56.2949 65.9083 59.1391L72.097 87.4306C72.7038 90.2749 75.5251 92.0602 78.3767 91.455L118.3 82.7104C119.786 82.3775 121.06 81.4395 121.788 80.0779L130.98 63.224C132.255 60.9244 131.587 58.0498 129.464 56.4764ZM122.911 63.7384C122.608 65.5236 120.909 66.7037 119.119 66.4011C117.329 66.0985 116.146 64.4041 116.449 62.6188C116.753 60.8336 118.451 59.6535 120.241 59.9561C122.031 60.2587 123.214 61.9532 122.911 63.7384Z" fill="#9CBDEB"/>
<g opacity="0.4">
<path d="M129.464 56.4764L114.326 45.4624C113.112 44.5849 111.595 44.2521 110.139 44.5546L69.9735 52.8757C67.0915 53.4808 65.2713 56.2949 65.9083 59.1391L72.097 87.4306C72.7038 90.2749 75.5251 92.0602 78.3767 91.455L118.3 82.7104C119.786 82.3775 121.06 81.4395 121.788 80.0779L130.98 63.224C132.255 60.9244 131.587 58.0498 129.464 56.4764ZM122.941 63.7081C122.638 65.4934 120.909 66.7037 119.119 66.4011C117.329 66.0985 116.176 64.3738 116.48 62.5886C116.783 60.8033 118.542 59.6838 120.332 59.9864C122.153 60.289 123.245 61.8926 122.941 63.7081Z" fill="black"/>
</g>
<path d="M128.13 55.5623L112.992 44.5483C111.778 43.6708 110.261 43.338 108.805 43.6406L68.6395 51.9616C65.7575 52.5668 63.9373 55.3808 64.5744 58.2251L70.763 86.5166C71.3698 89.3609 74.1911 91.1461 77.0427 90.5409L116.966 81.7963C118.452 81.4635 119.726 80.5254 120.454 79.1638L129.647 62.3099C130.921 60.0103 130.253 57.1055 128.13 55.5623ZM121.547 62.8243C121.243 64.5793 119.575 65.7594 117.815 65.4568C116.056 65.1542 114.873 63.49 115.176 61.735C115.479 59.9801 117.148 58.8 118.907 59.1026C120.697 59.4051 121.85 61.0694 121.547 62.8243Z" fill="#9CBDEB"/>
<path d="M85.1561 22.801L88.1988 24.4528L85.1561 26.1047L83.5 29.1394L81.8439 26.1047L78.8398 24.4528L81.8439 22.801L83.5 19.8047L85.1561 22.801Z" fill="#EBEBEB"/>
<path d="M75.9517 18.6544L76.9531 19.1922L75.9517 19.7684L75.374 20.8056L74.7963 19.7684L73.7949 19.1922L74.7963 18.6544L75.374 17.6172L75.9517 18.6544Z" fill="#EBEBEB"/>
<path d="M65.899 45.4669L66.9003 46.0431L65.899 46.5809L65.3213 47.6181L64.7435 46.5809L63.7422 46.0431L64.7435 45.4669L65.3213 44.4297L65.899 45.4669Z" fill="#EBEBEB"/>
<path d="M124.786 20.8823L126.635 21.8811L124.786 22.8799L123.747 24.7622L122.745 22.8799L120.896 21.8811L122.745 20.8823L123.747 19L124.786 20.8823Z" fill="#EBEBEB"/>
<path d="M138.306 48.0444L140.001 49.3121L137.998 50.042L136.727 51.6938L135.995 49.7347L134.301 48.4286L136.304 47.6987L137.613 46.0469L138.306 48.0444Z" fill="#EBEBEB"/>
<path d="M109.959 31.7208L111.269 32.4507L109.959 33.1421L109.227 34.4482L108.534 33.1421L107.225 32.4507L108.534 31.7208L109.227 30.4531L109.959 31.7208Z" fill="#EBEBEB"/>
<path d="M102.296 36.9423C102.257 36.9423 100.64 32.5631 98.6754 27.1466C96.7112 21.7302 95.1321 17.3125 95.1706 17.3125C95.2091 17.3125 96.8267 21.6918 98.7909 27.1082C100.755 32.5247 102.334 36.9423 102.296 36.9423Z" fill="#263238"/>
<path d="M116.085 8.09375C116.085 8.09375 116.085 8.13216 116.085 8.17058C116.085 8.20899 116.085 8.28582 116.046 8.40106C116.008 8.59314 115.969 8.86204 115.931 9.24619C115.815 9.97606 115.661 11.0133 115.43 12.3194C115.007 14.8931 114.467 18.4657 113.89 22.4224C113.35 26.3791 112.888 29.9901 112.58 32.5638C112.426 33.8699 112.311 34.9071 112.195 35.637C112.157 35.9827 112.118 36.29 112.08 36.4821C112.08 36.5589 112.041 36.6358 112.041 36.7126C112.041 36.751 112.041 36.7894 112.041 36.7894C112.041 36.7894 112.041 36.751 112.041 36.7126C112.041 36.6742 112.041 36.5974 112.041 36.4821C112.041 36.29 112.08 35.9827 112.118 35.637C112.195 34.9071 112.311 33.8699 112.465 32.5638C112.773 29.9516 113.196 26.3791 113.736 22.4224C114.275 18.4657 114.853 14.8931 115.276 12.3194C115.507 11.0133 115.661 9.97606 115.815 9.24619C115.892 8.90046 115.931 8.63155 115.969 8.40106C115.969 8.32424 116.008 8.24741 116.008 8.17058C116.085 8.13216 116.085 8.09375 116.085 8.09375Z" fill="#263238"/>
<path d="M133.648 22.9613C133.687 22.9997 130.914 26.3033 127.486 30.3369C124.058 34.4088 121.246 37.6741 121.246 37.6356C121.208 37.5972 123.981 34.2936 127.409 30.26C130.798 26.1881 133.61 22.9229 133.648 22.9613Z" fill="#263238"/>
<path d="M94.4399 39.5143C94.4013 39.5527 92.7838 38.1698 90.781 36.4796C88.7783 34.7893 87.1992 33.368 87.1992 33.368C87.2377 33.3296 88.8553 34.7125 90.8581 36.4027C92.8608 38.093 94.4784 39.5143 94.4399 39.5143Z" fill="#263238"/>
<path d="M136.498 43.8156C136.498 43.8539 134.341 43.7388 131.683 43.5468C129.026 43.3549 126.869 43.1629 126.869 43.1245C126.869 43.0862 129.026 43.2013 131.683 43.3933C134.341 43.6236 136.498 43.7772 136.498 43.8156Z" fill="#263238"/>
<path d="M80.2368 56.6464L82.0329 58.9655L82.6854 56.1047L83.8372 55.85L82.7738 59.7778L83.2257 61.8102L82.1616 62.0456L81.7097 60.0132L79.0773 56.9029L80.2368 56.6464ZM89.3623 57.3923L89.4259 57.6783C89.5191 58.0977 89.5471 58.4876 89.5099 58.8479C89.472 59.2057 89.3761 59.5243 89.2222 59.8037C89.0682 60.0831 88.8627 60.3166 88.6056 60.5042C88.3485 60.6917 88.0458 60.824 87.6974 60.9011C87.3542 60.977 87.025 60.9845 86.71 60.9235C86.3975 60.8619 86.111 60.7372 85.8505 60.5495C85.59 60.3617 85.3656 60.114 85.1771 59.8063C84.9881 59.4961 84.8469 59.1312 84.7537 58.7118L84.6901 58.4258C84.5962 58.0038 84.5695 57.6136 84.6099 57.2553C84.6503 56.897 84.7474 56.5781 84.9014 56.2987C85.0548 56.0167 85.26 55.7819 85.5171 55.5944C85.7767 55.4063 86.0782 55.2743 86.4215 55.1983C86.7698 55.1213 87.1002 55.1135 87.4127 55.1751C87.7252 55.2367 88.0107 55.3629 88.2692 55.5537C88.5297 55.7415 88.7529 55.9895 88.9388 56.2978C89.1273 56.6055 89.2685 56.9703 89.3623 57.3923ZM88.3656 57.9128L88.3003 57.6192C88.233 57.3167 88.146 57.0572 88.0392 56.8408C87.9318 56.6219 87.8059 56.4457 87.6615 56.3122C87.5172 56.1788 87.3561 56.0904 87.1784 56.0471C87.0001 56.0011 86.8106 56.0004 86.6097 56.0448C86.4063 56.0898 86.2348 56.1704 86.0952 56.2867C85.9576 56.3998 85.8517 56.5472 85.7774 56.729C85.7031 56.9108 85.6624 57.1238 85.6554 57.3681C85.6503 57.6093 85.6814 57.8811 85.7487 58.1836L85.814 58.4772C85.8807 58.7772 85.9677 59.0367 86.0751 59.2556C86.185 59.474 86.3124 59.6512 86.4574 59.7871C86.6043 59.92 86.7656 60.0097 86.9413 60.0562C87.1171 60.1026 87.3067 60.1034 87.5101 60.0584C87.7135 60.0134 87.885 59.9328 88.0245 59.8166C88.1641 59.7003 88.2698 59.5516 88.3415 59.3704C88.4152 59.186 88.4543 58.972 88.4589 58.7283C88.4634 58.4846 88.4323 58.2128 88.3656 57.9128ZM92.7545 53.8775L93.8034 53.6455L94.6232 57.3328C94.7176 57.7573 94.7055 58.1347 94.5868 58.465C94.4676 58.7928 94.2668 59.0652 93.9843 59.2824C93.7012 59.497 93.3588 59.6488 92.957 59.7377C92.5502 59.8277 92.1718 59.8354 91.8217 59.7608C91.4711 59.6836 91.1736 59.5214 90.9292 59.2741C90.6842 59.0242 90.5145 58.687 90.4201 58.2625L89.6003 54.5752L90.6491 54.3432L91.469 58.0305C91.5266 58.2898 91.6171 58.4925 91.7403 58.6386C91.8629 58.7822 92.0118 58.8759 92.1869 58.9198C92.3621 58.9638 92.5578 58.9618 92.7739 58.914C92.9926 58.8657 93.1707 58.7849 93.3083 58.6718C93.4484 58.5581 93.5423 58.4107 93.5901 58.2294C93.6372 58.0456 93.632 57.8241 93.5743 57.5648L92.7545 53.8775ZM94.7988 53.4253L96.8165 52.979C97.2386 52.8856 97.615 52.869 97.9459 52.9292C98.2767 52.9894 98.5512 53.126 98.7693 53.3391C98.9874 53.5523 99.1369 53.8406 99.2177 54.2041C99.2816 54.4914 99.2861 54.7517 99.2314 54.9852C99.1766 55.2187 99.0722 55.4272 98.9182 55.6106C98.7668 55.7934 98.5755 55.9531 98.3444 56.0896L98.0537 56.3299L96.2726 56.7239L96.081 55.8981L97.4121 55.6037C97.6282 55.5559 97.799 55.4781 97.9244 55.3703C98.0498 55.2626 98.1332 55.1335 98.1744 54.983C98.2182 54.8319 98.2209 54.67 98.1824 54.4971C98.1412 54.3116 98.07 54.1593 97.9688 54.0403C97.8671 53.9188 97.7356 53.8372 97.5743 53.7955C97.4129 53.7539 97.2217 53.7575 97.0004 53.8064L96.0317 54.0207L97.0821 58.7452L96.0333 58.9772L94.7988 53.4253ZM99.1684 58.2837L97.3303 56.0819L98.4393 55.8325L100.282 57.9814L100.294 58.0348L99.1684 58.2837ZM81.6108 70.4928L82.6596 70.2608C82.7142 70.6381 82.6844 70.9901 82.5703 71.3168C82.4556 71.6408 82.2574 71.9194 81.9758 72.1524C81.6941 72.3854 81.327 72.5519 80.8744 72.6521C80.526 72.7291 80.1984 72.7376 79.8916 72.6774C79.5867 72.6141 79.3097 72.4901 79.0605 72.3051C78.8133 72.1171 78.6017 71.8732 78.4256 71.5734C78.249 71.2711 78.1158 70.9178 78.0259 70.5137L77.9318 70.0904C77.8419 69.6862 77.8142 69.3096 77.8487 68.9606C77.8831 68.6116 77.9741 68.3008 78.1215 68.0281C78.271 67.7523 78.4717 67.5212 78.7237 67.3348C78.9782 67.1478 79.2797 67.0158 79.628 66.9387C80.0806 66.8386 80.482 66.8379 80.832 66.9365C81.1815 67.0325 81.4749 67.2063 81.7123 67.4579C81.9496 67.7094 82.1279 68.0194 82.2472 68.3877L81.1983 68.6197C81.1259 68.3904 81.031 68.2033 80.9135 68.0586C80.7985 67.9134 80.6515 67.8165 80.4727 67.7681C80.2958 67.7165 80.0765 67.7197 79.8146 67.7776C79.6111 67.8226 79.4404 67.9004 79.3022 68.011C79.1666 68.121 79.0649 68.2635 78.9971 68.4385C78.9287 68.611 78.8943 68.816 78.8937 69.0535C78.8926 69.2884 78.9249 69.5534 78.9904 69.8482L79.0862 70.2791C79.149 70.5613 79.2281 70.8092 79.3236 71.0227C79.4191 71.2363 79.5324 71.41 79.6635 71.5437C79.7946 71.6774 79.9455 71.768 80.1161 71.8156C80.2868 71.8632 80.4776 71.8637 80.6887 71.817C80.9455 71.7602 81.145 71.6734 81.2871 71.5566C81.4317 71.4393 81.5285 71.2925 81.5773 71.1163C81.6287 70.9396 81.6399 70.7318 81.6108 70.4928ZM85.0394 66.7099L84.5036 71.7692L83.3937 72.0148L84.2341 66.0039L84.9436 65.847L85.0394 66.7099ZM87.4099 71.1264L84.7724 66.769L84.4897 65.9474L85.2029 65.7896L88.5236 70.88L87.4099 71.1264ZM86.8788 69.0795L87.0628 69.9069L84.084 70.5659L83.9 69.7384L86.8788 69.0795ZM87.8613 65.2016L89.8789 64.7553C90.301 64.6619 90.6775 64.6453 91.0083 64.7055C91.3392 64.7656 91.6137 64.9023 91.8318 65.1154C92.0499 65.3286 92.1994 65.6169 92.2802 65.9804C92.3441 66.2677 92.3486 66.528 92.2938 66.7615C92.239 66.995 92.1347 67.2035 91.9807 67.3869C91.8293 67.5697 91.638 67.7294 91.4069 67.8659L91.1162 68.1062L89.3351 68.5002L89.1434 67.6744L90.4745 67.38C90.6907 67.3322 90.8615 67.2544 90.9869 67.1466C91.1123 67.0389 91.1957 66.9097 91.2369 66.7593C91.2807 66.6082 91.2834 66.4463 91.2449 66.2734C91.2037 66.0878 91.1325 65.9356 91.0313 65.8166C90.9296 65.6951 90.7981 65.6135 90.6367 65.5718C90.4754 65.5301 90.2841 65.5338 90.0629 65.5827L89.0942 65.797L90.1446 70.5215L89.0958 70.7535L87.8613 65.2016ZM92.2309 70.06L90.3928 67.8581L91.5018 67.6088L93.3442 69.7577L93.3561 69.8111L92.2309 70.06ZM94.9669 63.6298L96.2013 69.1817L95.1563 69.4129L93.9218 63.861L94.9669 63.6298ZM96.6909 63.2485L96.8748 64.0759L92.4009 65.0655L92.217 64.2381L96.6909 63.2485ZM100.261 62.4588L101.495 68.0107L100.446 68.2427L99.2119 62.6908L100.261 62.4588ZM105.214 65.6759C105.19 65.5692 105.152 65.4775 105.101 65.4009C105.051 65.3212 104.977 65.2563 104.877 65.2063C104.78 65.1531 104.649 65.11 104.484 65.0771C104.322 65.0411 104.115 65.0121 103.865 64.9901C103.587 64.9662 103.326 64.9281 103.079 64.8759C102.833 64.8237 102.609 64.7491 102.409 64.652C102.211 64.5544 102.046 64.4283 101.913 64.2737C101.779 64.1166 101.686 63.9211 101.634 63.6872C101.584 63.4584 101.585 63.2393 101.64 63.0298C101.698 62.8198 101.802 62.6274 101.952 62.4527C102.102 62.2755 102.291 62.1231 102.519 61.9954C102.749 61.8671 103.013 61.77 103.31 61.7042C103.722 61.6131 104.095 61.6094 104.428 61.693C104.764 61.776 105.043 61.9277 105.266 62.1479C105.488 62.368 105.635 62.6383 105.706 62.9586L104.661 63.1898C104.623 63.0169 104.552 62.8725 104.449 62.7567C104.348 62.6402 104.216 62.5602 104.051 62.5165C103.889 62.4723 103.698 62.4747 103.477 62.5236C103.263 62.5709 103.092 62.642 102.964 62.7371C102.838 62.8316 102.752 62.9413 102.705 63.0664C102.66 63.1909 102.653 63.3205 102.683 63.4552C102.706 63.5569 102.75 63.6431 102.817 63.7137C102.883 63.7819 102.972 63.8408 103.084 63.8906C103.196 63.9379 103.33 63.9763 103.486 64.0058C103.644 64.0322 103.825 64.0535 104.028 64.0698C104.354 64.0939 104.643 64.1365 104.897 64.1977C105.153 64.2584 105.374 64.343 105.558 64.4516C105.745 64.5597 105.896 64.6942 106.012 64.8553C106.13 65.0158 106.215 65.2092 106.265 65.4354C106.318 65.6744 106.318 65.8983 106.266 66.1073C106.214 66.3162 106.115 66.5062 105.969 66.6772C105.823 66.8481 105.634 66.9952 105.403 67.1184C105.174 67.2411 104.908 67.3358 104.605 67.4028C104.336 67.4624 104.061 67.4859 103.781 67.4732C103.502 67.4574 103.24 67.4007 102.995 67.303C102.748 67.2028 102.537 67.0549 102.36 66.8593C102.182 66.6612 102.06 66.4109 101.993 66.1084L103.045 65.8756C103.084 66.051 103.146 66.1948 103.229 66.3069C103.315 66.416 103.419 66.4984 103.54 66.5542C103.664 66.6068 103.801 66.6352 103.951 66.6393C104.102 66.6434 104.26 66.6271 104.425 66.5906C104.638 66.5433 104.807 66.4753 104.932 66.3865C105.058 66.2945 105.144 66.1876 105.188 66.0656C105.236 65.9431 105.244 65.8132 105.214 65.6759ZM85.7854 80.8633L85.9685 81.6869L83.0164 82.3399L82.8333 81.5163L85.7854 80.8633ZM82.1023 76.7171L83.3368 82.2691L82.2879 82.5011L81.0535 76.9492L82.1023 76.7171ZM84.8584 78.5119L85.0373 79.3165L82.4704 79.8843L82.2915 79.0797L84.8584 78.5119ZM84.7226 76.1376L84.9066 76.965L81.9659 77.6155L81.782 76.788L84.7226 76.1376ZM85.9202 75.8726L86.828 75.6718L89.2752 79.5153L89.8601 75.0011L90.7717 74.7995L89.9427 80.8078L89.2142 80.969L85.9202 75.8726ZM85.4625 75.9739L86.3512 75.7773L87.3652 79.5817L87.7458 81.2938L86.697 81.5258L85.4625 75.9739ZM90.3369 74.8957L91.2294 74.6983L92.4638 80.2502L91.415 80.4822L91.0343 78.7701L90.3369 74.8957ZM95.2174 77.5167L93.7872 77.8331L93.604 77.0095L95.0343 76.6931C95.2682 76.6414 95.4492 76.5613 95.5772 76.453C95.7071 76.3416 95.7914 76.2109 95.8301 76.061C95.8683 75.9085 95.8678 75.7446 95.8288 75.5692C95.791 75.3989 95.7213 75.2476 95.6199 75.1153C95.5184 74.9831 95.3838 74.8875 95.216 74.8286C95.0507 74.7691 94.8511 74.7653 94.6172 74.817L93.5302 75.0575L94.5806 79.7819L93.5318 80.014L92.2973 74.462L94.4332 73.9896C94.8654 73.894 95.2514 73.8899 95.591 73.9775C95.9326 74.062 96.2137 74.2225 96.4344 74.4591C96.657 74.6925 96.8068 74.9821 96.8836 75.3279C96.9633 75.6863 96.9506 76.0132 96.8456 76.3085C96.743 76.6032 96.5535 76.8545 96.2769 77.0623C96.0028 77.2697 95.6497 77.4211 95.2174 77.5167ZM99.6928 72.8262L100.927 78.3781L99.8822 78.6093L98.6477 73.0573L99.6928 72.8262ZM101.417 72.4448L101.601 73.2723L97.1268 74.2619L96.9428 73.4345L101.417 72.4448ZM102.824 72.1335L104.62 74.4527L105.273 71.5919L106.425 71.3371L105.361 75.265L105.813 77.2974L104.749 77.5327L104.297 75.5003L101.665 72.39L102.824 72.1335Z" fill="white"/>
<path d="M100.615 129.879C102.558 129.879 104.134 128.308 104.134 126.369C104.134 124.431 102.558 122.859 100.615 122.859C98.6712 122.859 97.0957 124.431 97.0957 126.369C97.0957 128.308 98.6712 129.879 100.615 129.879Z" fill="#263238"/>
<path d="M100.614 128.273C101.67 128.273 102.526 127.42 102.526 126.367C102.526 125.314 101.67 124.461 100.614 124.461C99.5588 124.461 98.7031 125.314 98.7031 126.367C98.7031 127.42 99.5588 128.273 100.614 128.273Z" fill="#E0E0E0"/>
<path d="M106.683 120.68V123.01L101.222 127.397C101.222 127.397 100.797 127.7 100.373 127.76C99.9784 127.79 99.584 127.579 99.584 126.973C99.584 125.824 101.01 122.525 101.01 122.525H102.163V120.68H106.683Z" fill="#455A64"/>
<path d="M100.312 126.67C100.312 126.67 100.251 126.519 100.403 126.398C100.464 126.338 100.615 126.277 100.737 126.338C100.858 126.368 100.979 126.519 100.979 126.7C100.979 126.882 100.858 127.003 100.737 127.063C100.585 127.124 100.464 127.063 100.403 127.003C100.251 126.791 100.282 126.67 100.312 126.67C100.342 126.67 100.342 126.791 100.464 126.882C100.524 126.912 100.615 126.942 100.706 126.912C100.797 126.882 100.858 126.791 100.858 126.7C100.858 126.61 100.797 126.519 100.706 126.489C100.615 126.459 100.524 126.459 100.464 126.519C100.342 126.549 100.342 126.67 100.312 126.67Z" fill="#263238"/>
<path d="M101.039 122.498C101.039 122.468 101.342 122.468 101.858 122.438C102.374 122.438 103.072 122.437 103.86 122.468C104.619 122.498 105.286 122.498 105.863 122.528C106.378 122.558 106.682 122.558 106.682 122.589C106.682 122.619 106.378 122.619 105.863 122.649C105.347 122.649 104.649 122.649 103.86 122.619C103.102 122.589 102.435 122.589 101.858 122.558C101.342 122.528 101.039 122.528 101.039 122.498Z" fill="#263238"/>
<path d="M57.9917 129.911C59.9352 129.911 61.5108 128.339 61.5108 126.401C61.5108 124.462 59.9352 122.891 57.9917 122.891C56.0482 122.891 54.4727 124.462 54.4727 126.401C54.4727 128.339 56.0482 129.911 57.9917 129.911Z" fill="#263238"/>
<path d="M57.9913 128.305C59.0468 128.305 59.9025 127.451 59.9025 126.398C59.9025 125.346 59.0468 124.492 57.9913 124.492C56.9358 124.492 56.0801 125.346 56.0801 126.398C56.0801 127.451 56.9358 128.305 57.9913 128.305Z" fill="#E0E0E0"/>
<path d="M64.089 120.047V123.042L58.6284 127.43C58.6284 127.43 58.2037 127.732 57.779 127.793C57.3846 127.823 56.9902 127.611 56.9902 127.006C56.9902 125.856 58.4161 122.558 58.4161 122.558H59.5689V120.047H64.089Z" fill="#455A64"/>
<path d="M57.6878 126.701C57.6878 126.701 57.6271 126.55 57.7788 126.429C57.8394 126.369 57.9911 126.308 58.1125 126.369C58.2338 126.399 58.3552 126.55 58.3552 126.732C58.3552 126.913 58.2338 127.034 58.1125 127.095C57.9608 127.155 57.8394 127.095 57.7788 127.034C57.6271 126.853 57.6878 126.701 57.6878 126.701C57.7181 126.701 57.7181 126.822 57.8394 126.913C57.9001 126.943 57.9911 126.974 58.0821 126.943C58.1732 126.913 58.2338 126.822 58.2338 126.732C58.2338 126.641 58.1732 126.55 58.0821 126.52C57.9911 126.49 57.9001 126.49 57.8394 126.55C57.7181 126.58 57.7181 126.701 57.6878 126.701Z" fill="#263238"/>
<path d="M58.416 122.529C58.416 122.499 58.7194 122.499 59.2351 122.469C59.7508 122.469 60.4486 122.469 61.2373 122.499C61.9957 122.529 62.6631 122.529 63.2395 122.559C63.7553 122.59 64.0586 122.59 64.0586 122.62C64.0586 122.65 63.7553 122.65 63.2395 122.68C62.7238 122.68 62.0261 122.68 61.2373 122.65C60.4789 122.62 59.8115 122.62 59.2351 122.59C58.7497 122.59 58.416 122.559 58.416 122.529Z" fill="#263238"/>
<path d="M74.7362 104.306C73.7048 104.306 72.7643 103.641 72.4003 102.642L62.1465 72.6562L116.54 81.4312L115.296 99.7374C115.205 100.857 114.295 101.765 113.173 101.856L74.8879 104.306C74.8272 104.306 74.7665 104.306 74.7362 104.306ZM63.0566 73.4127L72.9767 102.461C73.2497 103.247 74.0081 103.762 74.8575 103.701L113.142 101.25C113.962 101.19 114.629 100.524 114.69 99.7072L115.903 81.9455L63.0566 73.4127Z" fill="#455A64"/>
<path d="M64.6053 79.7372L62.3301 77.9822L60.0852 71.4767L58.1133 70.3269L58.4166 69.8125L60.6009 71.0531L62.8458 77.6191L64.9694 79.2531L64.6053 79.7372Z" fill="#455A64"/>
<path d="M64.5394 78.3227L64.457 78.9219L115.91 85.9617L115.992 85.3626L64.5394 78.3227Z" fill="#455A64"/>
<path d="M67.5241 87.1619L67.4883 87.7656L115.788 90.6309L115.823 90.0272L67.5241 87.1619Z" fill="#455A64"/>
<path d="M115.256 94.7346L70.5234 95.9141L70.5394 96.5187L115.272 95.3392L115.256 94.7346Z" fill="#455A64"/>
<path d="M114.982 99.316L72.4707 101.375L72.4999 101.979L115.011 99.9201L114.982 99.316Z" fill="#455A64"/>
<path d="M111.232 101.314L110.625 101.253C111.201 94.5059 111.565 87.6372 111.747 80.8594L112.354 80.8896C112.172 87.6675 111.808 94.5361 111.232 101.314Z" fill="#455A64"/>
<path d="M107.743 101.676H107.137C107.137 101.525 107.228 87.3335 107.41 80.5859L108.016 80.6162C107.834 87.3335 107.743 101.525 107.743 101.676Z" fill="#455A64"/>
<path d="M103.601 79.4684L102.994 79.4844L103.579 101.748L104.186 101.732L103.601 79.4684Z" fill="#455A64"/>
<path d="M98.6266 78.7833L98.0215 78.8281L99.7524 102.185L100.357 102.14L98.6266 78.7833Z" fill="#455A64"/>
<path d="M92.4744 77.6617L91.873 77.7422L95.2144 102.543L95.8158 102.462L92.4744 77.6617Z" fill="#455A64"/>
<path d="M85.8503 76.4358L85.2539 76.5469L90.2057 102.959L90.8021 102.848L85.8503 76.4358Z" fill="#455A64"/>
<path d="M77.9788 75.4217L77.3906 75.5703L84.4386 103.288L85.0268 103.14L77.9788 75.4217Z" fill="#455A64"/>
<path d="M68.1239 73.7974L67.5469 73.9844L77.7208 105.175L78.2978 104.988L68.1239 73.7974Z" fill="#455A64"/>
<path d="M108.533 121.229L58.9322 120.412C58.7199 120.412 58.5379 120.321 58.3862 120.17C58.2345 120.018 58.1738 119.837 58.1738 119.625C58.2042 118.747 58.3255 114.269 58.6592 113.271C58.7806 112.908 58.9929 112.333 67.2142 108.308C68.0332 107.915 75.223 104.405 76.2241 104.344C77.2556 104.284 86.3869 103.891 86.7813 103.891C87.206 103.891 87.5397 104.193 87.5701 104.617C87.6004 105.04 87.2667 105.373 86.842 105.404C86.751 105.404 77.4679 105.797 76.3152 105.857C75.0107 106.13 61.4502 112.635 60.0244 113.876C59.8727 114.511 59.721 116.75 59.6603 118.899L108.502 119.685C108.927 119.685 109.261 120.049 109.261 120.442C109.291 120.896 108.957 121.229 108.533 121.229Z" fill="#455A64"/>
<path d="M86.6592 119.957L80.3491 119.806C79.166 119.745 78.2559 119.382 77.7098 118.747C77.1638 118.142 76.9211 117.325 76.9818 116.266C77.0424 115.358 77.3458 114.42 77.8919 113.573L83.9895 104.586L84.5053 104.919L78.4076 113.905C77.9222 114.662 77.6188 115.509 77.5885 116.326C77.5278 117.204 77.7402 117.869 78.1649 118.353C78.6199 118.868 79.3784 119.14 80.3795 119.201L86.6592 119.352V119.957Z" fill="#455A64"/>
<path d="M84.9304 104.884C79.8338 95.7461 66.516 71.9026 65.8486 71.1461C65.4542 70.783 62.2082 69.6332 60.2363 69.028L60.4183 68.4531C60.9341 68.6347 65.6059 70.1476 66.243 70.7225C66.8801 71.2671 82.3214 99.0443 85.4158 104.582L84.9304 104.884Z" fill="#455A64"/>
<path d="M61.6621 68.9076L58.3251 70.9349C58.3251 70.9349 54.4723 69.1799 54.1386 68.7865C53.8049 68.3629 53.7139 66.85 55.0487 66.5474C56.3835 66.2448 61.6621 68.9076 61.6621 68.9076Z" fill="#455A64"/>
<path d="M55.2298 67.9052C55.2298 67.9052 55.1994 67.8448 55.2298 67.754C55.2601 67.6633 55.2905 67.4819 55.4421 67.3609C55.5938 67.24 55.8365 67.1493 56.1095 67.24C56.3522 67.3307 56.5949 67.5726 56.5949 67.9052C56.5949 68.2076 56.3826 68.4798 56.1095 68.5705C55.8669 68.6612 55.5938 68.5705 55.4421 68.4495C55.2905 68.3286 55.2298 68.1774 55.2298 68.0564C55.1994 67.9657 55.1994 67.9052 55.2298 67.9052C55.2298 67.9052 55.2601 67.9657 55.2905 68.0564C55.3208 68.1471 55.3815 68.2681 55.5332 68.3588C55.6545 68.4495 55.8669 68.51 56.0792 68.4193C56.2612 68.3588 56.4433 68.1471 56.4433 67.9052C56.4433 67.6633 56.2916 67.4517 56.0792 67.3912C55.8669 67.3005 55.6848 67.3609 55.5332 67.4517C55.4118 67.5424 55.3208 67.6633 55.2905 67.754C55.2298 67.8448 55.2298 67.9052 55.2298 67.9052Z" fill="#263238"/>
<path d="M58.9316 120.255C58.9316 120.224 70.0045 120.345 83.6864 120.557C97.3682 120.769 108.441 120.98 108.441 121.041C108.441 121.071 97.3682 120.95 83.6864 120.738C70.0045 120.527 58.9316 120.315 58.9316 120.255Z" fill="#263238"/>
<path d="M137.259 129.911C137.259 129.941 107.889 130.002 71.6295 130.002C35.3701 130.002 6 129.972 6 129.911C6 129.881 35.3701 129.82 71.6295 129.82C107.856 129.82 137.259 129.851 137.259 129.911Z" fill="#263238"/>
</svg>
