<svg width="15" height="16" viewBox="0 0 15 16" fill="none" xmlns="http://www.w3.org/2000/svg">
<path d="M8.17414 1C9 1 9.3248 1.1172 9.65066 1.31009C9.99032 1.50298 10.1775 1.77169 10.2676 2.14377C10.4825 2.88794 9.89328 4.63803 9.22094 5.82327H12.4927C13.186 5.82327 13.5949 6.27116 13.7543 6.86368C13.8306 7.62166 13.8167 8.13834 13.2206 8.69652C13.4355 9.0066 13.5603 9.41315 13.5256 9.73015C13.38 10.2056 13.1999 10.3778 12.8116 10.5638C13.2275 11.4389 13.0265 12.0246 12.4581 12.4931C12.6383 13.189 12.4304 13.8092 12.0907 14.2157C11.855 14.5533 11.2658 14.7462 10.8777 14.8979C9.38029 15.1597 8.21572 14.8773 6.87108 14.5121C5.97683 14.2709 5.00633 14.0022 3.828 13.8367V6.98786H4.31327C5.30438 5.8647 6.30259 4.74849 7.16218 3.79083C7.5 3.5 7.48109 2.50912 7.68211 1.95799C7.81379 1.61345 8 1 8.17414 1ZM1.84547 6.98769H3.43281V13.7883C2.89912 13.7471 2.34454 13.7057 1.85246 13.6989C1.17997 13.7332 0.881952 13.313 0.875 12.7756V7.94527C0.88196 7.29063 1.27004 6.96707 1.84547 6.98769ZM1.86621 12.2312C1.54048 12.2312 1.27698 12.493 1.27698 12.8169C1.27698 13.1407 1.54035 13.4026 1.86621 13.4026C2.19194 13.4026 2.45545 13.1408 2.45545 12.8169C2.45545 12.4931 2.19207 12.2312 1.86621 12.2312Z" stroke="white"/>
</svg>
