<svg width="343" height="128" viewBox="0 0 343 128" fill="none" xmlns="http://www.w3.org/2000/svg">
<rect width="343" height="128" rx="16" fill="url(#paint0_linear_16629_197491)"/>
<path fill-rule="evenodd" clip-rule="evenodd" d="M300.583 35.4822C296.818 35.4822 293.766 32.5982 293.766 29.0407C293.766 25.4832 296.818 22.5992 300.583 22.5992C304.348 22.5992 307.4 25.4832 307.4 29.0407C307.4 32.5982 304.348 35.4822 300.583 35.4822ZM309.455 26.8687C309.239 26.0799 308.908 25.3349 308.481 24.6497L309.472 23.2406L306.721 20.6409L305.23 21.5778C304.505 21.174 303.717 20.8614 302.882 20.6576L302.528 19H298.637L298.285 20.6576C297.45 20.8614 296.661 21.174 295.936 21.5778L294.445 20.6409L291.694 23.2406L292.685 24.6497C292.258 25.3349 291.927 26.0799 291.711 26.8687L289.957 27.2024V30.879L291.711 31.2125C291.927 32.0015 292.258 32.7465 292.685 33.4314L291.694 34.8405L294.445 37.4402L295.936 36.5033C296.661 36.9072 297.45 37.2198 298.285 37.4238L298.637 39.0811H302.528L302.882 37.4238C303.717 37.2198 304.505 36.9072 305.23 36.5033L306.721 37.4402L309.472 34.8405L308.481 33.4314C308.908 32.7465 309.239 32.0015 309.455 31.2125L311.209 30.879V27.2024L309.455 26.8687Z" fill="#6F94DC"/>
<path fill-rule="evenodd" clip-rule="evenodd" d="M308.039 46.4506C306.313 46.4506 304.914 45.1285 304.914 43.4975C304.914 41.8668 306.313 40.5444 308.039 40.5444C309.765 40.5444 311.165 41.8668 311.165 43.4975C311.165 45.1285 309.765 46.4506 308.039 46.4506ZM312.106 42.502C312.008 42.1401 311.856 41.7987 311.66 41.4845L312.115 40.8387L310.853 39.6468L310.17 40.0762C309.837 39.8911 309.476 39.7479 309.093 39.6545L308.931 38.8945H307.147L306.985 39.6545C306.603 39.7479 306.241 39.8911 305.909 40.0762L305.225 39.6468L304.595 40.2427L303.964 40.8387L304.419 41.4845C304.223 41.7987 304.071 42.1401 303.972 42.502L303.168 42.6548V44.3402L303.972 44.4933C304.071 44.8549 304.223 45.1963 304.419 45.5105L303.964 46.1566L304.595 46.7523L305.225 47.3485L305.909 46.9188C306.241 47.1039 306.603 47.2473 306.985 47.3408L307.147 48.1005H308.931L309.093 47.3408C309.476 47.2473 309.837 47.1039 310.17 46.9188L310.853 47.3485L311.484 46.7523L312.115 46.1566L311.66 45.5105C311.856 45.1963 312.008 44.8549 312.106 44.4933L312.911 44.3402V42.6548L312.106 42.502Z" fill="#6F94DC"/>
<path fill-rule="evenodd" clip-rule="evenodd" d="M219.967 36.6225C218.241 36.6225 216.842 35.3004 216.842 33.6694C216.842 32.0386 218.241 30.7163 219.967 30.7163C221.693 30.7163 223.092 32.0386 223.092 33.6694C223.092 35.3004 221.693 36.6225 219.967 36.6225ZM224.034 32.6738C223.935 32.312 223.784 31.9705 223.588 31.6564L224.042 31.0105L222.781 29.8187L222.097 30.2481C221.765 30.0629 221.404 29.9198 221.021 29.8264L220.859 29.0664H219.075L218.913 29.8264C218.53 29.9198 218.169 30.0629 217.837 30.2481L217.153 29.8187L216.522 30.4146L215.892 31.0105L216.346 31.6564C216.15 31.9705 215.999 32.312 215.899 32.6738L215.096 32.8267V34.5121L215.899 34.6652C215.999 35.0268 216.15 35.3682 216.346 35.6823L215.892 36.3285L216.522 36.9242L217.153 37.5203L217.837 37.0907C218.169 37.2758 218.53 37.4192 218.913 37.5126L219.075 38.2723H220.859L221.021 37.5126C221.404 37.4192 221.765 37.2758 222.097 37.0907L222.781 37.5203L223.412 36.9242L224.042 36.3285L223.588 35.6823C223.784 35.3682 223.935 35.0268 224.034 34.6652L224.838 34.5121V32.8267L224.034 32.6738Z" fill="#6F94DC"/>
<path fill-rule="evenodd" clip-rule="evenodd" d="M255.576 101.065H265.147V73.5977H255.576V101.065Z" fill="#6F94DC"/>
<path fill-rule="evenodd" clip-rule="evenodd" d="M223.246 86.8292H297.481C299.802 86.8292 301.684 85.0509 301.684 82.8575V35.7139C301.684 33.5203 299.802 31.7422 297.481 31.7422H223.246C220.925 31.7422 219.043 33.5203 219.043 35.7139V82.8575C219.043 85.0509 220.925 86.8292 223.246 86.8292Z" fill="url(#paint1_linear_16629_197491)"/>
<path fill-rule="evenodd" clip-rule="evenodd" d="M222.199 78.2861H298.367V25.9688H222.199V78.2861Z" fill="white"/>
<path fill-rule="evenodd" clip-rule="evenodd" d="M222.281 32.2018H298.449V25.8828H222.281V32.2018Z" fill="#F483AC"/>
<path fill-rule="evenodd" clip-rule="evenodd" d="M257.697 82.1478C257.697 83.5388 258.891 84.6668 260.363 84.6668C261.835 84.6668 263.029 83.5388 263.029 82.1478C263.029 80.7567 261.835 79.6289 260.363 79.6289C258.891 79.6289 257.697 80.7567 257.697 82.1478Z" fill="#6F94DC"/>
<path fill-rule="evenodd" clip-rule="evenodd" d="M238.836 102.105H281.892V100.031H238.836V102.105Z" fill="#6F94DC"/>
<path fill-rule="evenodd" clip-rule="evenodd" d="M289.359 42.4562L288.765 44.4729C287.703 45.1837 286.452 45.6581 285.097 45.8147C284.858 45.8425 284.616 45.8601 284.371 45.8676C284.283 45.8703 284.195 45.8716 284.106 45.8716C283.846 45.8716 283.588 45.8599 283.333 45.837C283.049 45.8114 282.769 45.7722 282.494 45.719C281.272 45.4849 280.151 44.9898 279.198 44.2975C279.084 43.6307 278.961 42.8929 278.854 42.2028C279.446 41.9943 281.333 41.3881 282.523 41.0077C282.54 41.0022 282.557 40.9972 282.573 40.992C282.599 40.9833 282.625 40.9751 282.65 40.9674C282.721 40.9448 282.788 40.9232 282.852 40.9028C282.917 40.8819 282.98 40.8623 283.037 40.8434C283.281 40.7659 283.453 40.7112 283.514 40.692C283.515 40.6915 283.515 40.6915 283.516 40.6915C283.532 40.6863 283.54 40.6836 283.54 40.6836L283.554 40.6843L285.155 40.7977L285.423 40.8165L285.507 40.8225C285.507 40.8225 285.519 40.8252 285.543 40.8312C285.64 40.8543 285.92 40.9239 286.292 41.031C286.292 41.031 286.293 41.0313 286.293 41.0313C287.241 41.3056 288.78 41.8263 289.359 42.4562Z" fill="white"/>
<path fill-rule="evenodd" clip-rule="evenodd" d="M235.416 30.2354H226.37C225.868 30.2354 225.461 29.8512 225.461 29.377V28.706C225.461 28.2319 225.868 27.8477 226.37 27.8477H235.416C235.918 27.8477 236.325 28.2319 236.325 28.706V29.377C236.325 29.8512 235.918 30.2354 235.416 30.2354Z" fill="white"/>
<path fill-rule="evenodd" clip-rule="evenodd" d="M301.745 81.8757C301.747 81.8751 301.748 81.8748 301.75 81.8751C301.731 81.8834 301.729 81.8837 301.745 81.8757Z" fill="#323657"/>
<rect x="227.91" y="39.3828" width="18.0734" height="33.8259" rx="2.75" stroke="#EBECF1" stroke-width="0.5"/>
<path d="M227.66 42.1328C227.66 40.476 229.003 39.1328 230.66 39.1328H243.234C244.89 39.1328 246.234 40.476 246.234 42.1328V43.5203H227.66V42.1328Z" fill="#FDDDE9"/>
<path d="M236.05 42.2355C235.981 42.2355 235.942 42.221 235.935 42.1921L235.602 40.8645C235.597 40.8452 235.594 40.8328 235.594 40.8273C235.594 40.7971 235.636 40.7819 235.72 40.7819H235.804C235.876 40.7819 235.916 40.8019 235.924 40.8418L236.096 41.6925C236.104 41.7227 236.116 41.8046 236.133 41.9382H236.142C236.152 41.8569 236.165 41.775 236.179 41.6925L236.354 40.8418C236.361 40.8019 236.402 40.7819 236.474 40.7819H236.555C236.638 40.7819 236.68 40.7971 236.68 40.8273C236.68 40.837 236.678 40.8494 236.673 40.8645L236.341 42.1921C236.334 42.221 236.295 42.2355 236.225 42.2355H236.05Z" fill="#F483AC"/>
<path d="M237.596 42.2479C237.392 42.2479 237.243 42.1887 237.15 42.0703C237.058 41.9505 237.012 41.762 237.012 41.5046C237.012 41.2568 237.06 41.0724 237.156 40.9512C237.254 40.8301 237.404 40.7695 237.607 40.7695C237.675 40.7695 237.738 40.7771 237.797 40.7922C237.842 40.8046 237.864 40.8342 237.864 40.881C237.864 40.9333 237.854 40.9801 237.834 41.0214C237.815 41.0627 237.791 41.0786 237.762 41.0689C237.715 41.0552 237.669 41.0483 237.622 41.0483C237.534 41.0483 237.469 41.0861 237.425 41.1618C237.383 41.2375 237.362 41.3525 237.362 41.5066C237.362 41.6608 237.383 41.7764 237.425 41.8535C237.469 41.9292 237.538 41.9671 237.633 41.9671C237.66 41.9671 237.684 41.9657 237.703 41.9629C237.722 41.9588 237.746 41.9526 237.777 41.9444C237.781 41.943 237.788 41.9423 237.797 41.9423C237.826 41.9423 237.848 41.9595 237.862 41.9939C237.877 42.0283 237.884 42.0737 237.884 42.1302C237.884 42.1508 237.88 42.1687 237.871 42.1839C237.862 42.1976 237.845 42.2086 237.821 42.2169C237.796 42.2252 237.763 42.232 237.722 42.2375C237.682 42.2444 237.639 42.2479 237.596 42.2479Z" fill="#F483AC"/>
<path d="M231.758 45.5862C231.758 45.4437 231.881 45.3281 232.032 45.3281H244.05C244.201 45.3281 244.323 45.4437 244.323 45.5862C244.323 45.7288 244.201 45.8443 244.05 45.8443H232.032C231.881 45.8443 231.758 45.7288 231.758 45.5862Z" fill="#EBECF1"/>
<path d="M231.758 46.8767C231.758 46.7341 231.881 46.6186 232.032 46.6186H244.05C244.201 46.6186 244.323 46.7341 244.323 46.8767C244.323 47.0192 244.201 47.1348 244.05 47.1348H232.032C231.881 47.1348 231.758 47.0192 231.758 46.8767Z" fill="#EBECF1"/>
<path d="M231.758 48.1671C231.758 48.0246 231.881 47.909 232.032 47.909H238.587C238.738 47.909 238.86 48.0246 238.86 48.1671C238.86 48.3096 238.738 48.4252 238.587 48.4252H232.032C231.881 48.4252 231.758 48.3096 231.758 48.1671Z" fill="#EBECF1"/>
<path fill-rule="evenodd" clip-rule="evenodd" d="M230.072 47.6771H229.103C228.91 47.6771 228.754 47.5296 228.754 47.3476V46.4319C228.754 46.2499 228.91 46.1024 229.103 46.1024H230.072C230.264 46.1024 230.42 46.2499 230.42 46.4319V47.3476C230.42 47.5296 230.264 47.6771 230.072 47.6771Z" fill="#E7E8EE"/>
<path fill-rule="evenodd" clip-rule="evenodd" d="M229.534 47.2364L229.113 46.8894C229.078 46.8609 229.075 46.8114 229.105 46.7787C229.135 46.7461 229.188 46.7428 229.222 46.7712L229.52 47.0166L229.945 46.5688C229.975 46.5366 230.028 46.5339 230.062 46.5628C230.096 46.5917 230.099 46.6413 230.068 46.6736L229.534 47.2364Z" fill="white"/>
<path d="M231.758 51.2642C231.758 51.1216 231.881 51.0061 232.032 51.0061H244.05C244.201 51.0061 244.323 51.1216 244.323 51.2642C244.323 51.4067 244.201 51.5223 244.05 51.5223H232.032C231.881 51.5223 231.758 51.4067 231.758 51.2642Z" fill="#EBECF1"/>
<path d="M231.758 52.5546C231.758 52.4121 231.881 52.2965 232.032 52.2965H244.05C244.201 52.2965 244.323 52.4121 244.323 52.5546C244.323 52.6972 244.201 52.8127 244.05 52.8127H232.032C231.881 52.8127 231.758 52.6972 231.758 52.5546Z" fill="#EBECF1"/>
<path d="M231.758 53.8451C231.758 53.7025 231.881 53.587 232.032 53.587H238.587C238.738 53.587 238.86 53.7025 238.86 53.8451C238.86 53.9876 238.738 54.1032 238.587 54.1032H232.032C231.881 54.1032 231.758 53.9876 231.758 53.8451Z" fill="#EBECF1"/>
<path fill-rule="evenodd" clip-rule="evenodd" d="M230.072 53.3551H229.103C228.91 53.3551 228.754 53.2076 228.754 53.0256V52.1099C228.754 51.9279 228.91 51.7804 229.103 51.7804H230.072C230.264 51.7804 230.42 51.9279 230.42 52.1099V53.0256C230.42 53.2076 230.264 53.3551 230.072 53.3551Z" fill="#E7E8EE"/>
<path fill-rule="evenodd" clip-rule="evenodd" d="M229.534 52.9144L229.113 52.5674C229.078 52.5389 229.075 52.4893 229.105 52.4567C229.135 52.4241 229.188 52.4207 229.222 52.4492L229.52 52.6945L229.945 52.2468C229.975 52.2145 230.028 52.2119 230.062 52.2408C230.096 52.2697 230.099 52.3193 230.068 52.3515L229.534 52.9144Z" fill="white"/>
<path d="M231.758 56.9421C231.758 56.7996 231.881 56.6841 232.032 56.6841H244.05C244.201 56.6841 244.323 56.7996 244.323 56.9421C244.323 57.0847 244.201 57.2002 244.05 57.2002H232.032C231.881 57.2002 231.758 57.0847 231.758 56.9421Z" fill="#EBECF1"/>
<path d="M231.758 58.2326C231.758 58.0901 231.881 57.9745 232.032 57.9745H244.05C244.201 57.9745 244.323 58.0901 244.323 58.2326C244.323 58.3751 244.201 58.4907 244.05 58.4907H232.032C231.881 58.4907 231.758 58.3751 231.758 58.2326Z" fill="#EBECF1"/>
<path d="M231.758 59.523C231.758 59.3805 231.881 59.265 232.032 59.265H238.587C238.738 59.265 238.86 59.3805 238.86 59.523C238.86 59.6656 238.738 59.7811 238.587 59.7811H232.032C231.881 59.7811 231.758 59.6656 231.758 59.523Z" fill="#EBECF1"/>
<path fill-rule="evenodd" clip-rule="evenodd" d="M230.072 59.0331H229.103C228.91 59.0331 228.754 58.8855 228.754 58.7035V57.7879C228.754 57.6059 228.91 57.4583 229.103 57.4583H230.072C230.264 57.4583 230.42 57.6059 230.42 57.7879V58.7035C230.42 58.8855 230.264 59.0331 230.072 59.0331Z" fill="#E7E8EE"/>
<path fill-rule="evenodd" clip-rule="evenodd" d="M229.534 58.5924L229.113 58.2453C229.078 58.2168 229.075 58.1673 229.105 58.1347C229.135 58.102 229.188 58.0987 229.222 58.1271L229.52 58.3725L229.945 57.9248C229.975 57.8925 230.028 57.8899 230.062 57.9187C230.096 57.9476 230.099 57.9972 230.068 58.0295L229.534 58.5924Z" fill="white"/>
<path d="M231.758 62.6201C231.758 62.4776 231.881 62.362 232.032 62.362H244.05C244.201 62.362 244.323 62.4776 244.323 62.6201C244.323 62.7627 244.201 62.8782 244.05 62.8782H232.032C231.881 62.8782 231.758 62.7627 231.758 62.6201Z" fill="#EBECF1"/>
<path d="M231.758 63.9106C231.758 63.768 231.881 63.6525 232.032 63.6525H244.05C244.201 63.6525 244.323 63.768 244.323 63.9106C244.323 64.0531 244.201 64.1686 244.05 64.1686H232.032C231.881 64.1686 231.758 64.0531 231.758 63.9106Z" fill="#EBECF1"/>
<path d="M231.758 65.201C231.758 65.0585 231.881 64.9429 232.032 64.9429H238.587C238.738 64.9429 238.86 65.0585 238.86 65.201C238.86 65.3435 238.738 65.4591 238.587 65.4591H232.032C231.881 65.4591 231.758 65.3435 231.758 65.201Z" fill="#EBECF1"/>
<path fill-rule="evenodd" clip-rule="evenodd" d="M230.072 64.711H229.103C228.91 64.711 228.754 64.5635 228.754 64.3815V63.4658C228.754 63.2838 228.91 63.1363 229.103 63.1363H230.072C230.264 63.1363 230.42 63.2838 230.42 63.4658V64.3815C230.42 64.5635 230.264 64.711 230.072 64.711Z" fill="#E7E8EE"/>
<path fill-rule="evenodd" clip-rule="evenodd" d="M229.534 64.2703L229.113 63.9233C229.078 63.8948 229.075 63.8453 229.105 63.8126C229.135 63.78 229.188 63.7767 229.222 63.8051L229.52 64.0505L229.945 63.6027C229.975 63.5705 230.028 63.5678 230.062 63.5967C230.096 63.6256 230.099 63.6752 230.068 63.7075L229.534 64.2703Z" fill="white"/>
<path d="M231.758 68.2981C231.758 68.1555 231.881 68.04 232.032 68.04H244.05C244.201 68.04 244.323 68.1555 244.323 68.2981C244.323 68.4406 244.201 68.5562 244.05 68.5562H232.032C231.881 68.5562 231.758 68.4406 231.758 68.2981Z" fill="#EBECF1"/>
<path d="M231.758 69.5885C231.758 69.446 231.881 69.3304 232.032 69.3304H244.05C244.201 69.3304 244.323 69.446 244.323 69.5885C244.323 69.7311 244.201 69.8466 244.05 69.8466H232.032C231.881 69.8466 231.758 69.7311 231.758 69.5885Z" fill="#EBECF1"/>
<path d="M231.758 70.879C231.758 70.7364 231.881 70.6209 232.032 70.6209H238.587C238.738 70.6209 238.86 70.7364 238.86 70.879C238.86 71.0215 238.738 71.1371 238.587 71.1371H232.032C231.881 71.1371 231.758 71.0215 231.758 70.879Z" fill="#EBECF1"/>
<path fill-rule="evenodd" clip-rule="evenodd" d="M230.072 70.389H229.103C228.91 70.389 228.754 70.2414 228.754 70.0595V69.1438C228.754 68.9618 228.91 68.8143 229.103 68.8143H230.072C230.264 68.8143 230.42 68.9618 230.42 69.1438V70.0595C230.42 70.2414 230.264 70.389 230.072 70.389Z" fill="#E7E8EE"/>
<path fill-rule="evenodd" clip-rule="evenodd" d="M229.534 69.9483L229.113 69.6013C229.078 69.5728 229.075 69.5232 229.105 69.4906C229.135 69.458 229.188 69.4546 229.222 69.4831L229.52 69.7284L229.945 69.2807C229.975 69.2484 230.028 69.2458 230.062 69.2747C230.096 69.3036 230.099 69.3532 230.068 69.3854L229.534 69.9483Z" fill="white"/>
<rect x="251.177" y="35.5578" width="17.9734" height="33.7259" rx="2.7" stroke="#EBECF1" stroke-width="0.6"/>
<path d="M250.877 38.2578C250.877 36.601 252.22 35.2578 253.877 35.2578H266.45C268.107 35.2578 269.45 36.601 269.45 38.2578V39.6453H250.877V38.2578Z" fill="#FDDDE9"/>
<path d="M259.267 38.358C259.197 38.358 259.159 38.3435 259.151 38.3146L258.819 36.987C258.813 36.9677 258.811 36.9553 258.811 36.9498C258.811 36.9195 258.853 36.9044 258.937 36.9044H259.02C259.093 36.9044 259.133 36.9244 259.14 36.9643L259.313 37.8149C259.32 37.8452 259.333 37.9271 259.35 38.0606H259.359C259.369 37.9794 259.382 37.8975 259.396 37.8149L259.571 36.9643C259.578 36.9244 259.618 36.9044 259.691 36.9044H259.772C259.855 36.9044 259.897 36.9195 259.897 36.9498C259.897 36.9595 259.894 36.9719 259.89 36.987L259.558 38.3146C259.551 38.3435 259.512 38.358 259.442 38.358H259.267Z" fill="#F483AC"/>
<path d="M260.421 38.36C260.336 38.36 260.294 38.3373 260.294 38.2919V36.9705C260.294 36.9251 260.336 36.9023 260.421 36.9023H260.512C260.595 36.9023 260.637 36.9251 260.637 36.9705V38.2919C260.637 38.3373 260.595 38.36 260.512 38.36H260.421Z" fill="#F483AC"/>
<path d="M261.277 38.358C261.189 38.358 261.145 38.3359 261.145 38.2919V36.9911C261.145 36.9622 261.152 36.9416 261.165 36.9292C261.18 36.9154 261.202 36.9085 261.233 36.9085H261.611C261.726 36.9085 261.827 36.9402 261.915 37.0035C262.003 37.0655 262.048 37.1845 262.048 37.3607C262.048 37.4818 262.022 37.5761 261.971 37.6436C261.92 37.7096 261.864 37.7544 261.801 37.7778C261.738 37.8012 261.682 37.8129 261.633 37.8129H261.482V38.2919C261.482 38.3359 261.438 38.358 261.351 38.358H261.277ZM261.596 37.5465C261.629 37.5465 261.658 37.5328 261.683 37.5052C261.708 37.4777 261.72 37.4295 261.72 37.3607C261.72 37.2933 261.708 37.2465 261.683 37.2203C261.658 37.1928 261.629 37.179 261.596 37.179H261.48V37.5465H261.596Z" fill="#F483AC"/>
<path d="M254.973 41.7112C254.973 41.5687 255.096 41.4531 255.246 41.4531H267.265C267.415 41.4531 267.538 41.5687 267.538 41.7112C267.538 41.8538 267.415 41.9693 267.265 41.9693H255.246C255.096 41.9693 254.973 41.8538 254.973 41.7112Z" fill="#EBECF1"/>
<path d="M254.973 43.0017C254.973 42.8591 255.096 42.7436 255.246 42.7436H267.265C267.415 42.7436 267.538 42.8591 267.538 43.0017C267.538 43.1442 267.415 43.2598 267.265 43.2598H255.246C255.096 43.2598 254.973 43.1442 254.973 43.0017Z" fill="#EBECF1"/>
<path d="M254.973 44.2921C254.973 44.1496 255.096 44.034 255.246 44.034H261.802C261.953 44.034 262.075 44.1496 262.075 44.2921C262.075 44.4346 261.953 44.5502 261.802 44.5502H255.246C255.096 44.5502 254.973 44.4346 254.973 44.2921Z" fill="#EBECF1"/>
<path fill-rule="evenodd" clip-rule="evenodd" d="M253.287 43.8021H252.317C252.125 43.8021 251.969 43.6546 251.969 43.4726V42.5569C251.969 42.3749 252.125 42.2274 252.317 42.2274H253.287C253.479 42.2274 253.635 42.3749 253.635 42.5569V43.4726C253.635 43.6546 253.479 43.8021 253.287 43.8021Z" fill="#E7E8EE"/>
<path fill-rule="evenodd" clip-rule="evenodd" d="M252.749 43.3614L252.328 43.0144C252.293 42.9859 252.29 42.9364 252.32 42.9037C252.35 42.8711 252.402 42.8678 252.437 42.8962L252.735 43.1416L253.16 42.6938C253.19 42.6616 253.243 42.6589 253.277 42.6878C253.311 42.7167 253.314 42.7663 253.283 42.7986L252.749 43.3614Z" fill="white"/>
<path d="M254.973 47.3892C254.973 47.2466 255.096 47.1311 255.246 47.1311H267.265C267.415 47.1311 267.538 47.2466 267.538 47.3892C267.538 47.5317 267.415 47.6473 267.265 47.6473H255.246C255.096 47.6473 254.973 47.5317 254.973 47.3892Z" fill="#EBECF1"/>
<path d="M254.973 48.6796C254.973 48.5371 255.096 48.4215 255.246 48.4215H267.265C267.415 48.4215 267.538 48.5371 267.538 48.6796C267.538 48.8222 267.415 48.9377 267.265 48.9377H255.246C255.096 48.9377 254.973 48.8222 254.973 48.6796Z" fill="#EBECF1"/>
<path d="M254.973 49.9701C254.973 49.8275 255.096 49.712 255.246 49.712H261.802C261.953 49.712 262.075 49.8275 262.075 49.9701C262.075 50.1126 261.953 50.2282 261.802 50.2282H255.246C255.096 50.2282 254.973 50.1126 254.973 49.9701Z" fill="#EBECF1"/>
<path fill-rule="evenodd" clip-rule="evenodd" d="M253.287 49.4801H252.317C252.125 49.4801 251.969 49.3326 251.969 49.1506V48.2349C251.969 48.0529 252.125 47.9054 252.317 47.9054H253.287C253.479 47.9054 253.635 48.0529 253.635 48.2349V49.1506C253.635 49.3326 253.479 49.4801 253.287 49.4801Z" fill="#E7E8EE"/>
<path fill-rule="evenodd" clip-rule="evenodd" d="M252.749 49.0394L252.328 48.6924C252.293 48.6639 252.29 48.6143 252.32 48.5817C252.35 48.5491 252.402 48.5457 252.437 48.5742L252.735 48.8195L253.16 48.3718C253.19 48.3395 253.243 48.3369 253.277 48.3658C253.311 48.3947 253.314 48.4443 253.283 48.4765L252.749 49.0394Z" fill="white"/>
<path d="M254.973 53.0671C254.973 52.9246 255.096 52.8091 255.246 52.8091H267.265C267.415 52.8091 267.538 52.9246 267.538 53.0671C267.538 53.2097 267.415 53.3252 267.265 53.3252H255.246C255.096 53.3252 254.973 53.2097 254.973 53.0671Z" fill="#EBECF1"/>
<path d="M254.973 54.3576C254.973 54.2151 255.096 54.0995 255.246 54.0995H267.265C267.415 54.0995 267.538 54.2151 267.538 54.3576C267.538 54.5001 267.415 54.6157 267.265 54.6157H255.246C255.096 54.6157 254.973 54.5001 254.973 54.3576Z" fill="#EBECF1"/>
<path d="M254.973 55.648C254.973 55.5055 255.096 55.39 255.246 55.39H261.802C261.953 55.39 262.075 55.5055 262.075 55.648C262.075 55.7906 261.953 55.9061 261.802 55.9061H255.246C255.096 55.9061 254.973 55.7906 254.973 55.648Z" fill="#EBECF1"/>
<path fill-rule="evenodd" clip-rule="evenodd" d="M253.287 55.1581H252.317C252.125 55.1581 251.969 55.0105 251.969 54.8285V53.9129C251.969 53.7309 252.125 53.5833 252.317 53.5833H253.287C253.479 53.5833 253.635 53.7309 253.635 53.9129V54.8285C253.635 55.0105 253.479 55.1581 253.287 55.1581Z" fill="#E7E8EE"/>
<path fill-rule="evenodd" clip-rule="evenodd" d="M252.749 54.7174L252.328 54.3703C252.293 54.3418 252.29 54.2923 252.32 54.2597C252.35 54.227 252.402 54.2237 252.437 54.2521L252.735 54.4975L253.16 54.0498C253.19 54.0175 253.243 54.0149 253.277 54.0437C253.311 54.0726 253.314 54.1222 253.283 54.1545L252.749 54.7174Z" fill="white"/>
<path d="M254.973 58.7451C254.973 58.6026 255.096 58.487 255.246 58.487H267.265C267.415 58.487 267.538 58.6026 267.538 58.7451C267.538 58.8877 267.415 59.0032 267.265 59.0032H255.246C255.096 59.0032 254.973 58.8877 254.973 58.7451Z" fill="#EBECF1"/>
<path d="M254.973 60.0356C254.973 59.893 255.096 59.7775 255.246 59.7775H267.265C267.415 59.7775 267.538 59.893 267.538 60.0356C267.538 60.1781 267.415 60.2936 267.265 60.2936H255.246C255.096 60.2936 254.973 60.1781 254.973 60.0356Z" fill="#EBECF1"/>
<path d="M254.973 61.326C254.973 61.1835 255.096 61.0679 255.246 61.0679H261.802C261.953 61.0679 262.075 61.1835 262.075 61.326C262.075 61.4685 261.953 61.5841 261.802 61.5841H255.246C255.096 61.5841 254.973 61.4685 254.973 61.326Z" fill="#EBECF1"/>
<path fill-rule="evenodd" clip-rule="evenodd" d="M253.287 60.836H252.317C252.125 60.836 251.969 60.6885 251.969 60.5065V59.5908C251.969 59.4088 252.125 59.2613 252.317 59.2613H253.287C253.479 59.2613 253.635 59.4088 253.635 59.5908V60.5065C253.635 60.6885 253.479 60.836 253.287 60.836Z" fill="#E7E8EE"/>
<path fill-rule="evenodd" clip-rule="evenodd" d="M252.749 60.3953L252.328 60.0483C252.293 60.0198 252.29 59.9703 252.32 59.9376C252.35 59.905 252.402 59.9017 252.437 59.9301L252.735 60.1755L253.16 59.7277C253.19 59.6955 253.243 59.6928 253.277 59.7217C253.311 59.7506 253.314 59.8002 253.283 59.8325L252.749 60.3953Z" fill="white"/>
<path d="M254.973 64.4231C254.973 64.2805 255.096 64.165 255.246 64.165H267.265C267.415 64.165 267.538 64.2805 267.538 64.4231C267.538 64.5656 267.415 64.6812 267.265 64.6812H255.246C255.096 64.6812 254.973 64.5656 254.973 64.4231Z" fill="#EBECF1"/>
<path d="M254.973 65.7135C254.973 65.571 255.096 65.4554 255.246 65.4554H267.265C267.415 65.4554 267.538 65.571 267.538 65.7135C267.538 65.8561 267.415 65.9716 267.265 65.9716H255.246C255.096 65.9716 254.973 65.8561 254.973 65.7135Z" fill="#EBECF1"/>
<path d="M254.973 67.004C254.973 66.8614 255.096 66.7459 255.246 66.7459H261.802C261.953 66.7459 262.075 66.8614 262.075 67.004C262.075 67.1465 261.953 67.2621 261.802 67.2621H255.246C255.096 67.2621 254.973 67.1465 254.973 67.004Z" fill="#EBECF1"/>
<path fill-rule="evenodd" clip-rule="evenodd" d="M253.287 66.514H252.317C252.125 66.514 251.969 66.3664 251.969 66.1845V65.2688C251.969 65.0868 252.125 64.9393 252.317 64.9393H253.287C253.479 64.9393 253.635 65.0868 253.635 65.2688V66.1845C253.635 66.3664 253.479 66.514 253.287 66.514Z" fill="#E7E8EE"/>
<path fill-rule="evenodd" clip-rule="evenodd" d="M252.749 66.0733L252.328 65.7263C252.293 65.6978 252.29 65.6482 252.32 65.6156C252.35 65.583 252.402 65.5796 252.437 65.6081L252.735 65.8534L253.16 65.4057C253.19 65.3734 253.243 65.3708 253.277 65.3997C253.311 65.4286 253.314 65.4782 253.283 65.5104L252.749 66.0733Z" fill="white"/>
<rect x="274.344" y="39.3828" width="18.0734" height="33.8259" rx="2.75" stroke="#EBECF1" stroke-width="0.5"/>
<path d="M274.094 42.1328C274.094 40.476 275.437 39.1328 277.094 39.1328H289.667C291.324 39.1328 292.667 40.476 292.667 42.1328V43.5203H274.094V42.1328Z" fill="#FDDDE9"/>
<path d="M278.168 42.233C278.081 42.233 278.037 42.2109 278.037 42.1669V40.8661C278.037 40.8372 278.044 40.8166 278.057 40.8042C278.071 40.7904 278.094 40.7835 278.125 40.7835H278.503C278.618 40.7835 278.719 40.8152 278.806 40.8785C278.895 40.9405 278.94 41.0595 278.94 41.2357C278.94 41.3568 278.914 41.4511 278.863 41.5186C278.812 41.5846 278.755 41.6294 278.693 41.6528C278.63 41.6762 278.574 41.6879 278.524 41.6879H278.374V42.1669C278.374 42.2109 278.33 42.233 278.243 42.233H278.168ZM278.487 41.4215C278.521 41.4215 278.55 41.4078 278.575 41.3802C278.599 41.3527 278.612 41.3045 278.612 41.2357C278.612 41.1683 278.599 41.1215 278.575 41.0953C278.55 41.0678 278.521 41.054 278.487 41.054H278.371V41.4215H278.487Z" fill="#F483AC"/>
<path d="M279.45 42.2288C279.422 42.2288 279.402 42.2226 279.388 42.2103C279.375 42.1965 279.369 42.1752 279.369 42.1462V40.8455C279.369 40.8014 279.411 40.7794 279.495 40.7794H279.583C279.667 40.7794 279.71 40.8014 279.71 40.8455V41.9584H280.035C280.059 41.9584 280.075 41.9666 280.085 41.9831C280.096 41.9997 280.101 42.0258 280.101 42.0616V42.1256C280.101 42.1614 280.096 42.1875 280.085 42.2041C280.075 42.2206 280.059 42.2288 280.035 42.2288H279.45Z" fill="#F483AC"/>
<path d="M280.519 42.233C280.449 42.233 280.414 42.2178 280.414 42.1875C280.414 42.1765 280.416 42.1641 280.42 42.1504L280.757 40.8372C280.767 40.7987 280.811 40.7794 280.89 40.7794H281.032C281.112 40.7794 281.157 40.7987 281.168 40.8372L281.504 42.1504C281.507 42.1697 281.508 42.182 281.508 42.1875C281.508 42.2178 281.477 42.233 281.414 42.233H281.299C281.229 42.233 281.19 42.2185 281.183 42.1896L281.126 41.9377H280.794L280.735 42.1896C280.729 42.2185 280.695 42.233 280.632 42.233H280.519ZM281.089 41.6858L280.991 41.2481C280.98 41.1985 280.972 41.1462 280.964 41.0912H280.953C280.946 41.1462 280.937 41.1985 280.927 41.2481L280.831 41.6858H281.089Z" fill="#F483AC"/>
<path d="M282.178 42.233C282.094 42.233 282.051 42.2109 282.051 42.1669V41.054H281.809C281.787 41.054 281.771 41.0458 281.761 41.0292C281.751 41.0127 281.746 40.9866 281.746 40.9508V40.8868C281.746 40.851 281.751 40.8248 281.761 40.8083C281.771 40.7918 281.787 40.7835 281.809 40.7835H282.639C282.663 40.7835 282.679 40.7918 282.69 40.8083C282.7 40.8248 282.705 40.851 282.705 40.8868V40.9508C282.705 40.9866 282.7 41.0127 282.69 41.0292C282.679 41.0458 282.663 41.054 282.639 41.054H282.395V42.1669C282.395 42.2109 282.352 42.233 282.268 42.233H282.178Z" fill="#F483AC"/>
<path d="M283.234 42.235C283.149 42.235 283.107 42.2123 283.107 42.1669V40.8455C283.107 40.8001 283.149 40.7773 283.234 40.7773H283.326C283.409 40.7773 283.45 40.8001 283.45 40.8455V42.1669C283.45 42.2123 283.409 42.235 283.326 42.235H283.234Z" fill="#F483AC"/>
<path d="M284.079 42.233C283.994 42.233 283.952 42.2109 283.952 42.1669V40.8455C283.952 40.8014 283.994 40.7794 284.079 40.7794H284.136C284.165 40.7794 284.188 40.7835 284.206 40.7918C284.223 40.7987 284.238 40.8138 284.249 40.8372L284.643 41.5103C284.663 41.5461 284.688 41.5998 284.717 41.6714L284.726 41.6672C284.714 41.5957 284.708 41.5413 284.708 41.5041V40.8455C284.708 40.8014 284.75 40.7794 284.835 40.7794H284.887C284.972 40.7794 285.014 40.8014 285.014 40.8455V42.1669C285.014 42.2109 284.972 42.233 284.887 42.233H284.846C284.817 42.233 284.793 42.2295 284.774 42.2226C284.755 42.2144 284.739 42.1986 284.728 42.1752L284.31 41.4732C284.297 41.4525 284.278 41.4085 284.251 41.341L284.241 41.3472C284.252 41.4105 284.258 41.4573 284.258 41.4876V42.1669C284.258 42.2109 284.216 42.233 284.131 42.233H284.079Z" fill="#F483AC"/>
<path d="M286.039 42.2454C285.874 42.2454 285.745 42.2068 285.652 42.1297C285.559 42.0526 285.512 41.9446 285.512 41.8056V40.8455C285.512 40.8014 285.554 40.7794 285.639 40.7794H285.726C285.811 40.7794 285.853 40.8014 285.853 40.8455V41.7849C285.853 41.8414 285.87 41.8875 285.903 41.9233C285.937 41.9577 285.982 41.9749 286.039 41.9749C286.094 41.9749 286.138 41.957 286.172 41.9212C286.207 41.8854 286.224 41.84 286.224 41.7849V40.8455C286.224 40.8014 286.267 40.7794 286.351 40.7794H286.436C286.521 40.7794 286.563 40.8014 286.563 40.8455V41.8056C286.563 41.9446 286.516 42.0526 286.423 42.1297C286.331 42.2068 286.203 42.2454 286.039 42.2454Z" fill="#F483AC"/>
<path d="M287.68 41.7684C287.658 41.7684 287.64 41.765 287.627 41.7581C287.614 41.7498 287.602 41.7367 287.592 41.7189L287.43 41.4339C287.422 41.4188 287.413 41.4016 287.404 41.3823C287.396 41.3617 287.389 41.3465 287.385 41.3369L287.376 41.3389C287.385 41.3885 287.389 41.4264 287.389 41.4525V42.1669C287.389 42.1903 287.379 42.2075 287.358 42.2185C287.339 42.2282 287.307 42.233 287.262 42.233H287.188C287.143 42.233 287.11 42.2282 287.09 42.2185C287.071 42.2075 287.061 42.1903 287.061 42.1669V40.8455C287.061 40.8221 287.071 40.8056 287.09 40.7959C287.11 40.7849 287.143 40.7794 287.188 40.7794H287.256C287.291 40.7794 287.318 40.7842 287.339 40.7939C287.359 40.8021 287.375 40.8166 287.387 40.8372L287.658 41.3224C287.672 41.3472 287.686 41.3802 287.699 41.4215C287.709 41.3844 287.723 41.3513 287.739 41.3224L288.01 40.8372C288.021 40.8166 288.037 40.8021 288.058 40.7939C288.078 40.7842 288.106 40.7794 288.141 40.7794H288.208C288.254 40.7794 288.286 40.7849 288.305 40.7959C288.325 40.8056 288.335 40.8221 288.335 40.8455V42.1669C288.335 42.1903 288.325 42.2075 288.305 42.2185C288.286 42.2282 288.254 42.233 288.208 42.233H288.134C288.089 42.233 288.056 42.2282 288.036 42.2185C288.017 42.2075 288.007 42.1903 288.007 42.1669V41.4525C288.007 41.4195 288.012 41.3816 288.023 41.3389L288.014 41.3369C288.004 41.363 287.988 41.3954 287.966 41.4339L287.804 41.7189C287.794 41.7367 287.782 41.7498 287.769 41.7581C287.756 41.765 287.739 41.7684 287.717 41.7684H287.68Z" fill="#F483AC"/>
<path d="M278.192 45.5862C278.192 45.4437 278.314 45.3281 278.465 45.3281H290.483C290.634 45.3281 290.756 45.4437 290.756 45.5862C290.756 45.7288 290.634 45.8443 290.483 45.8443H278.465C278.314 45.8443 278.192 45.7288 278.192 45.5862Z" fill="#EBECF1"/>
<path d="M278.192 46.8767C278.192 46.7341 278.314 46.6186 278.465 46.6186H290.483C290.634 46.6186 290.756 46.7341 290.756 46.8767C290.756 47.0192 290.634 47.1348 290.483 47.1348H278.465C278.314 47.1348 278.192 47.0192 278.192 46.8767Z" fill="#EBECF1"/>
<path d="M278.192 48.1671C278.192 48.0246 278.314 47.909 278.465 47.909H285.02C285.171 47.909 285.294 48.0246 285.294 48.1671C285.294 48.3096 285.171 48.4252 285.02 48.4252H278.465C278.314 48.4252 278.192 48.3096 278.192 48.1671Z" fill="#EBECF1"/>
<path fill-rule="evenodd" clip-rule="evenodd" d="M276.505 47.6771H275.536C275.344 47.6771 275.188 47.5296 275.188 47.3476V46.4319C275.188 46.2499 275.344 46.1024 275.536 46.1024H276.505C276.698 46.1024 276.854 46.2499 276.854 46.4319V47.3476C276.854 47.5296 276.698 47.6771 276.505 47.6771Z" fill="#E7E8EE"/>
<path fill-rule="evenodd" clip-rule="evenodd" d="M275.968 47.2364L275.547 46.8894C275.512 46.8609 275.508 46.8114 275.539 46.7787C275.569 46.7461 275.621 46.7428 275.656 46.7712L275.954 47.0166L276.378 46.5688C276.409 46.5366 276.462 46.5339 276.496 46.5628C276.53 46.5917 276.533 46.6413 276.502 46.6736L275.968 47.2364Z" fill="white"/>
<path d="M278.192 51.2642C278.192 51.1216 278.314 51.0061 278.465 51.0061H290.483C290.634 51.0061 290.756 51.1216 290.756 51.2642C290.756 51.4067 290.634 51.5223 290.483 51.5223H278.465C278.314 51.5223 278.192 51.4067 278.192 51.2642Z" fill="#EBECF1"/>
<path d="M278.192 52.5546C278.192 52.4121 278.314 52.2965 278.465 52.2965H290.483C290.634 52.2965 290.756 52.4121 290.756 52.5546C290.756 52.6972 290.634 52.8127 290.483 52.8127H278.465C278.314 52.8127 278.192 52.6972 278.192 52.5546Z" fill="#EBECF1"/>
<path d="M278.192 53.8451C278.192 53.7025 278.314 53.587 278.465 53.587H285.02C285.171 53.587 285.294 53.7025 285.294 53.8451C285.294 53.9876 285.171 54.1032 285.02 54.1032H278.465C278.314 54.1032 278.192 53.9876 278.192 53.8451Z" fill="#EBECF1"/>
<path fill-rule="evenodd" clip-rule="evenodd" d="M276.505 53.3551H275.536C275.344 53.3551 275.188 53.2076 275.188 53.0256V52.1099C275.188 51.9279 275.344 51.7804 275.536 51.7804H276.505C276.698 51.7804 276.854 51.9279 276.854 52.1099V53.0256C276.854 53.2076 276.698 53.3551 276.505 53.3551Z" fill="#E7E8EE"/>
<path fill-rule="evenodd" clip-rule="evenodd" d="M275.968 52.9144L275.547 52.5674C275.512 52.5389 275.508 52.4893 275.539 52.4567C275.569 52.4241 275.621 52.4207 275.656 52.4492L275.954 52.6945L276.378 52.2468C276.409 52.2145 276.462 52.2119 276.496 52.2408C276.53 52.2697 276.533 52.3193 276.502 52.3515L275.968 52.9144Z" fill="white"/>
<path d="M278.192 56.9421C278.192 56.7996 278.314 56.6841 278.465 56.6841H290.483C290.634 56.6841 290.756 56.7996 290.756 56.9421C290.756 57.0847 290.634 57.2002 290.483 57.2002H278.465C278.314 57.2002 278.192 57.0847 278.192 56.9421Z" fill="#EBECF1"/>
<path d="M278.192 58.2326C278.192 58.0901 278.314 57.9745 278.465 57.9745H290.483C290.634 57.9745 290.756 58.0901 290.756 58.2326C290.756 58.3751 290.634 58.4907 290.483 58.4907H278.465C278.314 58.4907 278.192 58.3751 278.192 58.2326Z" fill="#EBECF1"/>
<path d="M278.192 59.523C278.192 59.3805 278.314 59.265 278.465 59.265H285.02C285.171 59.265 285.294 59.3805 285.294 59.523C285.294 59.6656 285.171 59.7811 285.02 59.7811H278.465C278.314 59.7811 278.192 59.6656 278.192 59.523Z" fill="#EBECF1"/>
<path fill-rule="evenodd" clip-rule="evenodd" d="M276.505 59.0331H275.536C275.344 59.0331 275.188 58.8855 275.188 58.7035V57.7879C275.188 57.6059 275.344 57.4583 275.536 57.4583H276.505C276.698 57.4583 276.854 57.6059 276.854 57.7879V58.7035C276.854 58.8855 276.698 59.0331 276.505 59.0331Z" fill="#E7E8EE"/>
<path fill-rule="evenodd" clip-rule="evenodd" d="M275.968 58.5924L275.547 58.2453C275.512 58.2168 275.508 58.1673 275.539 58.1347C275.569 58.102 275.621 58.0987 275.656 58.1271L275.954 58.3725L276.378 57.9248C276.409 57.8925 276.462 57.8899 276.496 57.9187C276.53 57.9476 276.533 57.9972 276.502 58.0295L275.968 58.5924Z" fill="white"/>
<path d="M278.192 62.6201C278.192 62.4776 278.314 62.362 278.465 62.362H290.483C290.634 62.362 290.756 62.4776 290.756 62.6201C290.756 62.7627 290.634 62.8782 290.483 62.8782H278.465C278.314 62.8782 278.192 62.7627 278.192 62.6201Z" fill="#EBECF1"/>
<path d="M278.192 63.9106C278.192 63.768 278.314 63.6525 278.465 63.6525H290.483C290.634 63.6525 290.756 63.768 290.756 63.9106C290.756 64.0531 290.634 64.1686 290.483 64.1686H278.465C278.314 64.1686 278.192 64.0531 278.192 63.9106Z" fill="#EBECF1"/>
<path d="M278.192 65.201C278.192 65.0585 278.314 64.9429 278.465 64.9429H285.02C285.171 64.9429 285.294 65.0585 285.294 65.201C285.294 65.3435 285.171 65.4591 285.02 65.4591H278.465C278.314 65.4591 278.192 65.3435 278.192 65.201Z" fill="#EBECF1"/>
<path fill-rule="evenodd" clip-rule="evenodd" d="M276.505 64.711H275.536C275.344 64.711 275.188 64.5635 275.188 64.3815V63.4658C275.188 63.2838 275.344 63.1363 275.536 63.1363H276.505C276.698 63.1363 276.854 63.2838 276.854 63.4658V64.3815C276.854 64.5635 276.698 64.711 276.505 64.711Z" fill="#E7E8EE"/>
<path fill-rule="evenodd" clip-rule="evenodd" d="M275.968 64.2703L275.547 63.9233C275.512 63.8948 275.508 63.8453 275.539 63.8126C275.569 63.78 275.621 63.7767 275.656 63.8051L275.954 64.0505L276.378 63.6027C276.409 63.5705 276.462 63.5678 276.496 63.5967C276.53 63.6256 276.533 63.6752 276.502 63.7075L275.968 64.2703Z" fill="white"/>
<path d="M278.192 68.2981C278.192 68.1555 278.314 68.04 278.465 68.04H290.483C290.634 68.04 290.756 68.1555 290.756 68.2981C290.756 68.4406 290.634 68.5562 290.483 68.5562H278.465C278.314 68.5562 278.192 68.4406 278.192 68.2981Z" fill="#EBECF1"/>
<path d="M278.192 69.5885C278.192 69.446 278.314 69.3304 278.465 69.3304H290.483C290.634 69.3304 290.756 69.446 290.756 69.5885C290.756 69.7311 290.634 69.8466 290.483 69.8466H278.465C278.314 69.8466 278.192 69.7311 278.192 69.5885Z" fill="#EBECF1"/>
<path d="M278.192 70.879C278.192 70.7364 278.314 70.6209 278.465 70.6209H285.02C285.171 70.6209 285.294 70.7364 285.294 70.879C285.294 71.0215 285.171 71.1371 285.02 71.1371H278.465C278.314 71.1371 278.192 71.0215 278.192 70.879Z" fill="#EBECF1"/>
<path fill-rule="evenodd" clip-rule="evenodd" d="M276.505 70.389H275.536C275.344 70.389 275.188 70.2414 275.188 70.0595V69.1438C275.188 68.9618 275.344 68.8143 275.536 68.8143H276.505C276.698 68.8143 276.854 68.9618 276.854 69.1438V70.0595C276.854 70.2414 276.698 70.389 276.505 70.389Z" fill="#E7E8EE"/>
<path fill-rule="evenodd" clip-rule="evenodd" d="M275.968 69.9483L275.547 69.6013C275.512 69.5728 275.508 69.5232 275.539 69.4906C275.569 69.458 275.621 69.4546 275.656 69.4831L275.954 69.7284L276.378 69.2807C276.409 69.2484 276.462 69.2458 276.496 69.2747C276.53 69.3036 276.533 69.3532 276.502 69.3854L275.968 69.9483Z" fill="white"/>
<path d="M299.454 108.928H301.108C301.108 108.928 301.87 107.252 301.998 107.23C302.125 107.208 302.125 108.928 302.125 108.928H302.411C302.411 108.928 302.697 106.944 302.601 106.612C302.543 106.407 302.188 106.019 301.937 105.672C301.937 105.672 301.34 105.924 301.261 106.616C301.204 107.111 301.067 108.205 300.341 108.266C300.122 108.332 299.677 108.366 299.582 108.465C299.486 108.564 299.454 108.928 299.454 108.928Z" fill="#201F39"/>
<path d="M291.952 108.929H293.606C293.606 108.929 293.606 108.929 293.607 108.928C293.63 108.877 294.371 107.252 294.495 107.23C294.499 107.23 294.501 107.23 294.503 107.231C294.623 107.283 294.623 108.929 294.623 108.929H294.909C294.909 108.929 294.909 108.929 294.909 108.928C294.916 108.875 295.194 106.94 295.099 106.612C295.04 106.407 294.687 106.019 294.434 105.672C294.434 105.672 293.838 105.924 293.759 106.617C293.702 107.107 293.567 108.188 292.855 108.264C292.849 108.266 292.844 108.267 292.839 108.267C292.619 108.333 292.175 108.366 292.08 108.465C291.984 108.564 291.952 108.929 291.952 108.929Z" fill="#201F39"/>
<path d="M291.712 89.0454C291.871 90.8974 293.334 105.686 293.238 106.513C293.144 107.333 293.073 108.186 292.859 108.264C293.571 108.188 293.706 107.106 293.762 106.617C293.842 105.924 294.438 105.671 294.438 105.671C294.691 106.018 295.044 106.407 295.103 106.612C295.198 106.939 294.92 108.875 294.912 108.927H294.923C294.923 108.927 295.209 106.943 295.114 106.612C295.019 106.281 294.16 105.478 294.192 105.135C294.223 104.793 295.623 96.059 295.623 94.5375C295.623 93.0152 294.669 89.9714 294.669 89.9714L297.192 84.1372L297.441 83.5593C297.098 80.563 294.05 76.0771 293.752 75.6445C293.721 75.8154 293.668 76.0894 293.603 76.4427C293.069 79.3219 291.582 87.5231 291.712 89.0454Z" fill="#EBB973"/>
<path d="M299.864 94.7259C300.353 98.2518 300.81 102.5 300.726 106.514C300.708 107.346 300.56 108.201 300.341 108.267C301.067 108.205 301.204 107.111 301.261 106.617C301.341 105.925 301.937 105.672 301.937 105.672C301.783 105.461 301.669 105.265 301.681 105.136C301.705 104.874 302.528 99.7105 302.914 96.612C302.946 96.3514 302.976 96.1054 303.002 95.8778C301.541 95.2216 300.485 94.4954 299.715 93.6797C299.765 94.0204 299.815 94.3697 299.864 94.7259Z" fill="#EBB973"/>
<path d="M297.192 84.1368L297.441 83.559C297.098 80.5623 294.05 76.0766 293.753 75.6445C293.753 75.6445 297.093 81.7168 297.192 84.1368Z" fill="#EBB973"/>
<path d="M303.002 95.8783C302.977 96.1054 302.947 96.3516 302.914 96.612C302.863 96.5896 302.813 96.5672 302.763 96.5446C301.535 95.9916 300.591 95.3898 299.864 94.7265C299.815 94.3697 299.765 94.0204 299.715 93.6797C300.485 94.4954 301.542 95.2214 303.002 95.8783Z" fill="#EBB973"/>
<path d="M331 109.003C315.218 108.629 313.347 107.966 312.163 102.076C311.74 99.9716 307.855 97.8422 303.715 96.1837C303.467 96.0845 303.23 95.9833 303.002 95.8808C301.542 95.2238 300.485 94.4978 299.715 93.6821C297.497 91.3324 297.665 88.2383 297.466 83.8952C297.461 83.7869 297.452 83.6761 297.439 83.5634C297.095 80.5667 294.047 76.0809 293.75 75.6487C293.735 75.6264 293.727 75.615 293.727 75.615C293.727 75.615 294.7 71.4408 294.732 70.7957C294.765 70.1507 294.672 66.9751 294.672 66.9751C294.672 66.9751 293.481 66.503 293.351 65.6814C293.283 65.2458 293.365 64.7051 293.485 64.2174C293.658 63.5119 293.913 62.9186 293.913 62.9186C293.913 62.9186 294.892 62.505 295.748 63.0932C296.453 63.5776 297.107 64.2335 297.107 64.2335C297.107 64.2335 298.668 62.6824 300.266 62.8591C301.864 63.0354 302.302 64.2703 302.302 64.2703C302.302 64.2703 300.221 70.4153 300.326 70.5917C300.379 70.6796 301.172 71.2246 302.196 72.2637C302.587 72.6596 303.012 73.1277 303.441 73.6694C304.152 74.5654 304.878 75.6633 305.49 76.9721C307.443 81.1473 312.838 93.7331 313.904 95.4074C316.373 99.2851 319.918 101.948 323.776 103.34C329.302 105.333 331 109.003 331 109.003Z" fill="#E93779"/>
<path d="M281.346 57.5347C281.68 57.9467 283.216 58.7697 283.216 58.7697C283.216 58.7697 285.912 68.6231 287.799 68.5118C289.356 68.4201 293.31 64.3926 293.485 64.2144C293.658 63.5099 293.913 62.9156 293.913 62.9156C293.913 62.9156 294.892 62.5024 295.748 63.0907C296.453 63.5748 297.106 64.2309 297.106 64.2309C297.106 64.2309 298.668 62.6797 300.266 62.8569C301.864 63.0331 302.303 64.268 302.303 64.268C302.303 64.268 302.663 64.2969 302.86 64.503C303.058 64.709 307.043 68.9136 307.043 68.9136C307.043 68.9136 303.601 72.5001 303.364 72.53C303.22 72.5475 302.72 72.3818 302.197 72.2613C301.857 72.1829 301.509 72.1242 301.241 72.1479C300.56 72.2066 299.889 73.0595 299.93 73.1769C299.97 73.2944 301.04 72.9122 301.69 73.1769C302.341 73.4416 302.899 73.6765 303.377 73.6765C303.393 73.6765 303.415 73.6735 303.442 73.6673C304.227 73.4819 309.528 70.6843 309.365 69.1785C309.204 67.689 304.097 61.4728 302.436 60.7971C301.695 61.0814 299.633 61.0083 298.654 60.5057C297.374 59.8475 297.675 57.2116 297.563 56.6235C297.452 56.0354 296.642 55.6531 295.991 55.3884C295.524 55.1989 295.15 54.8662 294.976 54.5469C294.902 54.9311 294.725 55.9198 294.767 56.3885C294.793 56.68 294.886 57.2351 295.004 57.7255C295.122 58.221 295.265 58.6515 295.388 58.6813C295.631 58.74 296.553 58.6813 296.553 58.6813C296.553 58.6813 296.607 59.1211 296.644 59.5578C296.679 59.9595 296.699 60.3602 296.646 60.4158C296.579 60.4879 295.604 60.3828 294.652 60.4498C294.064 60.492 293.483 60.6002 293.134 60.8578C292.604 61.2482 287.922 65.7082 287.922 65.7082C287.922 65.7082 284.377 58.6649 284.117 58.1519C283.756 57.4464 282.37 56.2999 282.37 56.2999C282.37 56.2999 282.204 56.4472 282.415 56.7996C282.542 57.0118 282.936 57.2992 282.823 57.3579C282.708 57.4176 280.955 55.8293 280.806 55.8293C280.657 55.8293 281.01 57.1227 281.346 57.5347Z" fill="#EBB973"/>
<path d="M294.654 60.4509C295.605 60.3839 296.58 60.489 296.648 60.4169C296.7 60.3613 296.68 59.9606 296.645 59.5589C296.608 59.1222 296.554 58.6824 296.554 58.6824C296.554 58.6824 295.633 58.7411 295.39 58.6824C295.266 58.6526 295.124 58.222 295.005 57.7266C294.72 58.1273 294.09 59.0831 294.051 59.7413C294.026 60.1646 294.183 60.3654 294.654 60.4509Z" fill="#201F39"/>
<path d="M302.641 60.6818C302.595 60.7256 302.525 60.7644 302.437 60.7981C301.695 61.0822 299.634 61.0088 298.655 60.5065C297.376 59.8488 297.676 57.2125 297.564 56.6245C297.452 56.0365 296.642 55.6541 295.992 55.3896C295.525 55.1997 295.151 54.8671 294.977 54.5475C294.908 54.4215 294.87 54.2976 294.87 54.185C294.868 52.9406 297.192 52.0966 298.828 52.3611C300.463 52.6257 300.694 54.8898 300.548 55.5953C300.401 56.3011 300.194 57.33 301.733 58.1828C303.271 59.0353 303.082 60.2703 302.641 60.6818Z" fill="#201F39"/>
<path d="M297.466 58.4297C297.493 59.01 296.755 59.4898 296.645 59.5581C296.608 59.1207 296.553 58.6811 296.553 58.6811C296.939 58.608 297.466 58.4297 297.466 58.4297Z" fill="#EBB973"/>
<path fill-rule="evenodd" clip-rule="evenodd" d="M216.113 101.467C216.113 101.467 216.324 102.803 216.465 103.372C216.606 103.942 217.909 105.576 217.886 105.854C217.863 106.132 217.312 106.459 217.034 106.235C216.757 106.012 214.914 104.223 214.521 103.457C214.127 102.691 212.824 101.692 212.691 101.352C212.558 101.012 214.228 100.016 214.658 99.8578C215.088 99.6988 216.113 101.467 216.113 101.467Z" fill="#1D2033"/>
<path fill-rule="evenodd" clip-rule="evenodd" d="M212.848 77.7C212.848 77.7 213.02 78.552 213.147 78.7094C213.274 78.8669 213.617 79.6589 213.651 79.7704C213.686 79.8817 213.897 80.6817 213.932 80.7828C213.968 80.8842 213.727 81.042 213.562 80.8281C213.46 80.6954 213.28 80.1778 213.207 80.0105C213.134 79.8435 212.91 79.3148 212.849 79.4111C212.789 79.5077 212.803 80.2165 212.793 80.399C212.783 80.5812 212.906 81.1421 212.963 81.3741C213.021 81.6064 213.348 82.5795 213.216 82.632C213.085 82.6844 212.974 82.6701 212.805 82.4089C212.805 82.4089 212.537 82.5506 212.381 82.23C212.381 82.23 212.141 82.3123 211.993 81.8945C211.993 81.8945 211.823 81.8062 211.756 81.6565C211.69 81.5068 211.302 80.2267 211.305 79.7042C211.309 79.1824 211.439 78.8183 211.415 78.45C211.391 78.0811 211.191 77.293 211.191 77.293L212.848 77.7Z" fill="#EEA886"/>
<path fill-rule="evenodd" clip-rule="evenodd" d="M215.16 99.6484L214.658 99.8578L216.114 101.467L216.596 100.962L215.16 99.6484Z" fill="#50558A"/>
<path fill-rule="evenodd" clip-rule="evenodd" d="M220.248 103.02C220.248 103.02 219.924 103.758 219.651 104.05C219.378 104.343 218.332 104.865 218.326 105.734C218.32 106.676 220.089 106.415 220.781 106.38C221.473 106.345 221.525 105.842 221.817 105.309C222.108 104.776 222.402 104.866 222.456 104.436C222.511 104.006 222.233 103.043 222.233 103.043L220.248 103.02Z" fill="#1D2033"/>
<path fill-rule="evenodd" clip-rule="evenodd" d="M220.217 102.746L220.166 103.193C220.166 103.193 221.254 103.563 222.283 103.232L222.226 102.621L220.217 102.746Z" fill="#50558A"/>
<path fill-rule="evenodd" clip-rule="evenodd" d="M220.821 90.5594C220.79 89.0005 220.056 80.2629 220.134 80.2629C220.495 80.2629 222.529 88.5836 222.605 89.7546C222.621 89.9944 222.303 90.5308 221.79 91.237C221.56 91.5548 221.289 91.9067 220.992 92.2816L220.991 92.2819C220.89 91.4254 220.825 90.7956 220.821 90.5594ZM226.253 91.3983C226.253 90.2371 225.356 80.1045 225.396 79.7175C225.423 79.4649 225.138 77.039 224.936 75.3819C224.935 75.3676 224.933 75.3533 224.931 75.3396C224.931 75.336 224.93 75.3327 224.93 75.3294C224.873 74.8639 224.823 74.4626 224.79 74.1933C224.774 74.0686 224.762 73.972 224.755 73.9109C224.748 73.8602 224.745 73.8334 224.745 73.8334C224.745 73.8334 218.957 72.7551 215.957 73.7737C215.831 73.8167 215.711 73.8626 215.596 73.9127C215.596 73.9127 215.589 73.961 215.576 74.0516C215.546 74.2613 215.483 74.6984 215.4 75.2924C215.385 75.3926 215.371 75.497 215.355 75.6059C214.928 78.6609 215.202 81.9811 215.95 85.38C216.684 88.7142 217.087 91.2077 217.163 91.692C217.262 92.3275 217.556 94.0755 217.882 95.9927C216.289 97.849 214.931 99.4274 215.033 99.5842C215.284 99.9722 217.519 102.159 217.642 101.772C217.642 101.772 218.046 101.34 218.678 100.651C218.879 101.824 219.016 102.624 219.016 102.624C219.016 102.624 221.466 103.177 222.368 102.674C222.368 102.674 222.013 100.131 221.644 97.365C223.893 94.821 226.253 92.0066 226.253 91.3983Z" fill="#292C47"/>
<path fill-rule="evenodd" clip-rule="evenodd" d="M227.218 59.3383L225.661 64.6141C225.608 64.7849 225.544 64.9955 225.476 65.2406L225.474 65.2498C225.473 65.2519 225.472 65.254 225.472 65.2561C225.212 66.1966 224.891 67.6301 224.795 69.2228C224.73 70.3085 224.943 74.6736 224.943 74.6736C224.943 74.6736 222.588 75.5038 219.064 75.2935C219.064 75.2935 215.274 75.2098 215.583 73.0138C216.401 67.2019 215.601 64.8055 215.494 64.2219C215.494 64.2219 214.98 61.3989 214.611 59.0335C215.678 58.6584 220.234 57.2109 220.234 57.2109L222.594 57.3779C222.594 57.3779 226.181 58.2123 227.218 59.3383Z" fill="white"/>
<path fill-rule="evenodd" clip-rule="evenodd" d="M221.418 49.7511C221.418 49.7511 223.722 50.1185 223.331 53.5263C222.941 56.9348 220.907 56.6339 220.771 56.6291C220.635 56.6243 218.726 56.6703 218.625 52.5032C218.625 52.5032 218.596 49.4225 221.418 49.7511Z" fill="#EEA987"/>
<path fill-rule="evenodd" clip-rule="evenodd" d="M222.428 55.6444C222.428 55.6444 222.349 57.0471 222.489 57.3525C222.629 57.6576 220.639 58.6234 219.402 57.5234C219.402 57.5234 219.653 55.99 219.575 55.4485C219.497 54.9073 222.428 55.6444 222.428 55.6444Z" fill="#EEA987"/>
<path fill-rule="evenodd" clip-rule="evenodd" d="M223.38 52.5633C223.38 52.5633 223.636 52.3111 223.726 52.5699C223.816 52.8293 223.316 53.978 223.348 54.0299C223.348 54.0299 223.3 54.1298 223.24 54.074C223.18 54.0183 223.38 52.5633 223.38 52.5633Z" fill="#EEA987"/>
<path fill-rule="evenodd" clip-rule="evenodd" d="M218.653 52.47C218.653 52.47 218.408 52.2079 218.307 52.4635C218.205 52.7187 218.575 53.8659 218.621 53.9366C218.621 53.9366 218.701 54.0544 218.763 54.001C218.826 53.9476 218.653 52.47 218.653 52.47Z" fill="#EEA987"/>
<path fill-rule="evenodd" clip-rule="evenodd" d="M223.525 52.2748C223.446 52.7412 223.371 53.0877 223.371 53.0877L223.035 53.5016C223.035 53.5016 223.055 52.5867 223.004 52.443C222.985 52.3884 222.962 52.2918 222.938 52.1874C222.9 52.0151 222.861 51.8204 222.833 51.7556C222.79 51.6522 220.859 51.119 219.139 51.8675C219.139 51.8675 219.153 52.0082 219.152 52.1654C219.152 52.3479 219.13 52.5524 219.042 52.5832C218.877 52.6401 218.946 53.654 218.946 53.654L218.678 53.3615C218.678 53.3615 218.6 52.8319 218.523 52.2232C218.523 52.2232 218.523 52.222 218.523 52.2191C218.506 52.0771 218.488 51.931 218.471 51.7864C218.433 51.1739 218.497 50.0625 219.341 49.4094C219.91 49.1789 220.819 48.9833 222.334 49.4216C222.334 49.4216 222.681 49.4437 222.779 49.5323C223.723 50.5136 223.525 52.2748 223.525 52.2748Z" fill="#E8734D"/>
<path fill-rule="evenodd" clip-rule="evenodd" d="M219.732 56.1719C219.732 56.1719 220.1 56.6547 220.954 56.6362C221.809 56.618 222.179 56.1972 222.179 56.1972C222.179 56.1972 221.775 56.9964 220.95 56.9881C220.125 56.9794 219.732 56.1719 219.732 56.1719Z" fill="#C78D71"/>
<path fill-rule="evenodd" clip-rule="evenodd" d="M219.168 57.5498C219.168 57.5498 219.786 58.5654 220.957 58.6609C221.7 58.7217 222.343 57.8319 222.645 57.3947C222.645 57.3947 220.981 56.7217 219.168 57.5498Z" fill="#EEA987"/>
<path fill-rule="evenodd" clip-rule="evenodd" d="M222.429 57.0742C222.429 57.0742 221.958 57.6575 220.955 58.2813L221.579 59.1897L222.643 57.3954L222.429 57.0742Z" fill="#F1F1F1"/>
<path fill-rule="evenodd" clip-rule="evenodd" d="M219.449 57.2109C219.449 57.2109 220.048 57.921 220.956 58.2821L220.272 59.2175L219.074 57.5807L219.449 57.2109Z" fill="#F1F1F1"/>
<path fill-rule="evenodd" clip-rule="evenodd" d="M220.955 58.2812L221.49 59.05C221.49 59.05 220.928 59.35 220.406 59.0306L220.955 58.2812Z" fill="#E93779"/>
<path fill-rule="evenodd" clip-rule="evenodd" d="M215.453 75.689C215.453 75.689 218.344 76.6966 224.881 75.7472L224.794 74.6289C224.794 74.6289 221.005 75.6854 215.569 74.7807L215.453 75.689Z" fill="#1D2033"/>
<path fill-rule="evenodd" clip-rule="evenodd" d="M222.645 57.3945C222.645 57.3945 221.969 62.1657 222.061 66.2809C222.154 70.3964 225.444 77.8696 225.444 77.8696C225.444 77.8696 226.881 76.5557 227.507 75.8117C227.507 75.8117 225.269 69.7084 225.31 68.6075C225.351 67.5065 227.836 59.1936 227.836 59.1936C227.836 59.1936 226.455 58.3425 222.645 57.3945Z" fill="#323657"/>
<path fill-rule="evenodd" clip-rule="evenodd" d="M219.015 57.5977C219.015 57.5977 219.02 62.1673 218.927 66.2825C218.835 70.3979 218.261 78.059 218.261 78.059C218.261 78.059 215.042 77.5774 214.416 76.8334C214.416 76.8334 215.72 69.71 215.679 68.609C215.638 67.5081 213.582 59.4092 213.582 59.4092C213.582 59.4092 214.779 58.6655 219.015 57.5977Z" fill="#323657"/>
<path fill-rule="evenodd" clip-rule="evenodd" d="M219.395 76.2206H221.17V74.9727H219.395V76.2206Z" fill="#3A4066"/>
<path fill-rule="evenodd" clip-rule="evenodd" d="M220.706 58.8555C220.706 58.8555 219.912 61.4137 219.843 66.4951C219.774 71.5761 219.94 73.0331 219.94 73.0331L220.56 74.1908L221.385 72.9827C221.385 72.9827 221.12 61.2906 221.274 58.9443L220.706 58.8555Z" fill="#E93779"/>
<path fill-rule="evenodd" clip-rule="evenodd" d="M224.393 75.045C224.393 75.045 225.313 75.812 226.604 76.2214C226.604 76.2214 230.882 69.6341 230.936 69.1591C230.986 68.7193 228.814 59.7622 227.833 59.1953L226.053 64.1216C226.171 64.0888 228.079 67.8637 228.087 68.3492C228.097 68.9999 224.393 75.045 224.393 75.045Z" fill="#323657"/>
<path fill-rule="evenodd" clip-rule="evenodd" d="M213.352 78.5913C213.352 78.5913 212.391 78.7604 211 78.6862C211 78.6862 211.542 70.231 211.488 69.7553C211.438 69.3158 212.602 59.977 213.582 59.4102L215.331 64.3877C215.212 64.3552 214.158 69.4798 214.151 69.9653C214.141 70.616 213.352 78.5913 213.352 78.5913Z" fill="#323657"/>
<path fill-rule="evenodd" clip-rule="evenodd" d="M221.789 91.2344L221.511 96.3748L220.99 92.2793V92.279C221.288 91.9041 221.558 91.5523 221.789 91.2344Z" fill="#1D2033"/>
<path d="M21.6543 27.4688H23.1191V33.1699C23.1191 33.8184 22.9785 34.3613 22.6973 34.7988C22.416 35.2363 22.0332 35.5664 21.5488 35.7891C21.0684 36.0078 20.5312 36.1172 19.9375 36.1172C19.3242 36.1172 18.7773 36.0078 18.2969 35.7891C17.8164 35.5664 17.4375 35.2363 17.1602 34.7988C16.8867 34.3613 16.75 33.8184 16.75 33.1699V27.4688H18.2148V33.1699C18.2148 33.5801 18.2852 33.918 18.4258 34.1836C18.5664 34.4453 18.7656 34.6387 19.0234 34.7637C19.2812 34.8887 19.5859 34.9512 19.9375 34.9512C20.2891 34.9512 20.5918 34.8887 20.8457 34.7637C21.1035 34.6387 21.3027 34.4453 21.4434 34.1836C21.584 33.918 21.6543 33.5801 21.6543 33.1699V27.4688ZM25.9961 30.8789V38.4375H24.584V29.6602H25.8848L25.9961 30.8789ZM30.127 32.7715V32.8945C30.127 33.3555 30.0723 33.7832 29.9629 34.1777C29.8574 34.5684 29.6992 34.9102 29.4883 35.2031C29.2812 35.4922 29.0254 35.7168 28.7207 35.877C28.416 36.0371 28.0645 36.1172 27.666 36.1172C27.2715 36.1172 26.9258 36.0449 26.6289 35.9004C26.3359 35.752 26.0879 35.543 25.8848 35.2734C25.6816 35.0039 25.5176 34.6875 25.3926 34.3242C25.2715 33.957 25.1855 33.5547 25.1348 33.1172V32.6426C25.1855 32.1777 25.2715 31.7559 25.3926 31.377C25.5176 30.998 25.6816 30.6719 25.8848 30.3984C26.0879 30.125 26.3359 29.9141 26.6289 29.7656C26.9219 29.6172 27.2637 29.543 27.6543 29.543C28.0527 29.543 28.4062 29.6211 28.7148 29.7773C29.0234 29.9297 29.2832 30.1484 29.4941 30.4336C29.7051 30.7148 29.8633 31.0547 29.9688 31.4531C30.0742 31.8477 30.127 32.2871 30.127 32.7715ZM28.7148 32.8945V32.7715C28.7148 32.4785 28.6875 32.207 28.6328 31.957C28.5781 31.7031 28.4922 31.4805 28.375 31.2891C28.2578 31.0977 28.1074 30.9492 27.9238 30.8438C27.7441 30.7344 27.5273 30.6797 27.2734 30.6797C27.0234 30.6797 26.8086 30.7227 26.6289 30.8086C26.4492 30.8906 26.2988 31.0059 26.1777 31.1543C26.0566 31.3027 25.9629 31.4766 25.8965 31.6758C25.8301 31.8711 25.7832 32.084 25.7559 32.3145V33.4512C25.8027 33.7324 25.8828 33.9902 25.9961 34.2246C26.1094 34.459 26.2695 34.6465 26.4766 34.7871C26.6875 34.9238 26.957 34.9922 27.2852 34.9922C27.5391 34.9922 27.7559 34.9375 27.9355 34.8281C28.1152 34.7188 28.2617 34.5684 28.375 34.377C28.4922 34.1816 28.5781 33.957 28.6328 33.7031C28.6875 33.4492 28.7148 33.1797 28.7148 32.8945ZM35.3887 29.6602H36.6719V35.8242C36.6719 36.3945 36.5508 36.8789 36.3086 37.2773C36.0664 37.6758 35.7285 37.9785 35.2949 38.1855C34.8613 38.3965 34.3594 38.502 33.7891 38.502C33.5469 38.502 33.2773 38.4668 32.9805 38.3965C32.6875 38.3262 32.4023 38.2129 32.125 38.0566C31.8516 37.9043 31.623 37.7031 31.4395 37.4531L32.1016 36.6211C32.3281 36.8906 32.5781 37.0879 32.8516 37.2129C33.125 37.3379 33.4121 37.4004 33.7129 37.4004C34.0371 37.4004 34.3125 37.3398 34.5391 37.2188C34.7695 37.1016 34.9473 36.9277 35.0723 36.6973C35.1973 36.4668 35.2598 36.1855 35.2598 35.8535V31.0957L35.3887 29.6602ZM31.082 32.9004V32.7773C31.082 32.2969 31.1406 31.8594 31.2578 31.4648C31.375 31.0664 31.543 30.7246 31.7617 30.4395C31.9805 30.1504 32.2461 29.9297 32.5586 29.7773C32.8711 29.6211 33.2246 29.543 33.6191 29.543C34.0293 29.543 34.3789 29.6172 34.668 29.7656C34.9609 29.9141 35.2051 30.127 35.4004 30.4043C35.5957 30.6777 35.748 31.0059 35.8574 31.3887C35.9707 31.7676 36.0547 32.1895 36.1094 32.6543V33.0469C36.0586 33.5 35.9727 33.9141 35.8516 34.2891C35.7305 34.6641 35.5703 34.9883 35.3711 35.2617C35.1719 35.5352 34.9258 35.7461 34.6328 35.8945C34.3438 36.043 34.002 36.1172 33.6074 36.1172C33.2207 36.1172 32.8711 36.0371 32.5586 35.877C32.25 35.7168 31.9844 35.4922 31.7617 35.2031C31.543 34.9141 31.375 34.5742 31.2578 34.1836C31.1406 33.7891 31.082 33.3613 31.082 32.9004ZM32.4941 32.7773V32.9004C32.4941 33.1895 32.5215 33.459 32.5762 33.709C32.6348 33.959 32.7227 34.1797 32.8398 34.3711C32.9609 34.5586 33.1133 34.707 33.2969 34.8164C33.4844 34.9219 33.7051 34.9746 33.959 34.9746C34.291 34.9746 34.5625 34.9043 34.7734 34.7637C34.9883 34.623 35.1523 34.4336 35.2656 34.1953C35.3828 33.9531 35.4648 33.6836 35.5117 33.3867V32.3262C35.4883 32.0957 35.4395 31.8809 35.3652 31.6816C35.2949 31.4824 35.1992 31.3086 35.0781 31.1602C34.957 31.0078 34.8047 30.8906 34.6211 30.8086C34.4375 30.7227 34.2207 30.6797 33.9707 30.6797C33.7168 30.6797 33.4961 30.7344 33.3086 30.8438C33.1211 30.9531 32.9668 31.1035 32.8457 31.2949C32.7285 31.4863 32.6406 31.709 32.582 31.9629C32.5234 32.2168 32.4941 32.4883 32.4941 32.7773ZM39.5547 30.8672V36H38.1426V29.6602H39.4902L39.5547 30.8672ZM41.4941 29.6191L41.4824 30.9316C41.3965 30.916 41.3027 30.9043 41.2012 30.8965C41.1035 30.8887 41.0059 30.8848 40.9082 30.8848C40.666 30.8848 40.4531 30.9199 40.2695 30.9902C40.0859 31.0566 39.9316 31.1543 39.8066 31.2832C39.6855 31.4082 39.5918 31.5605 39.5254 31.7402C39.459 31.9199 39.4199 32.1211 39.4082 32.3438L39.0859 32.3672C39.0859 31.9688 39.125 31.5996 39.2031 31.2598C39.2812 30.9199 39.3984 30.6211 39.5547 30.3633C39.7148 30.1055 39.9141 29.9043 40.1523 29.7598C40.3945 29.6152 40.6738 29.543 40.9902 29.543C41.0762 29.543 41.168 29.5508 41.2656 29.5664C41.3672 29.582 41.4434 29.5996 41.4941 29.6191ZM45.7422 34.7285V31.7051C45.7422 31.4785 45.7012 31.2832 45.6191 31.1191C45.5371 30.9551 45.4121 30.8281 45.2441 30.7383C45.0801 30.6484 44.873 30.6035 44.623 30.6035C44.3926 30.6035 44.1934 30.6426 44.0254 30.7207C43.8574 30.7988 43.7266 30.9043 43.6328 31.0371C43.5391 31.1699 43.4922 31.3203 43.4922 31.4883H42.0859C42.0859 31.2383 42.1465 30.9961 42.2676 30.7617C42.3887 30.5273 42.5645 30.3184 42.7949 30.1348C43.0254 29.9512 43.3008 29.8066 43.6211 29.7012C43.9414 29.5957 44.3008 29.543 44.6992 29.543C45.1758 29.543 45.5977 29.623 45.9648 29.7832C46.3359 29.9434 46.627 30.1855 46.8379 30.5098C47.0527 30.8301 47.1602 31.2324 47.1602 31.7168V34.5352C47.1602 34.8242 47.1797 35.084 47.2188 35.3145C47.2617 35.541 47.3223 35.7383 47.4004 35.9062V36H45.9531C45.8867 35.8477 45.834 35.6543 45.7949 35.4199C45.7598 35.1816 45.7422 34.9512 45.7422 34.7285ZM45.9473 32.1445L45.959 33.0176H44.9453C44.6836 33.0176 44.4531 33.043 44.2539 33.0938C44.0547 33.1406 43.8887 33.2109 43.7559 33.3047C43.623 33.3984 43.5234 33.5117 43.457 33.6445C43.3906 33.7773 43.3574 33.9277 43.3574 34.0957C43.3574 34.2637 43.3965 34.418 43.4746 34.5586C43.5527 34.6953 43.666 34.8027 43.8145 34.8809C43.9668 34.959 44.1504 34.998 44.3652 34.998C44.6543 34.998 44.9062 34.9395 45.1211 34.8223C45.3398 34.7012 45.5117 34.5547 45.6367 34.3828C45.7617 34.207 45.8281 34.041 45.8359 33.8848L46.293 34.5117C46.2461 34.6719 46.166 34.8438 46.0527 35.0273C45.9395 35.2109 45.791 35.3867 45.6074 35.5547C45.4277 35.7188 45.2109 35.8535 44.957 35.959C44.707 36.0645 44.418 36.1172 44.0898 36.1172C43.6758 36.1172 43.3066 36.0352 42.9824 35.8711C42.6582 35.7031 42.4043 35.4785 42.2207 35.1973C42.0371 34.9121 41.9453 34.5898 41.9453 34.2305C41.9453 33.8945 42.0078 33.5977 42.1328 33.3398C42.2617 33.0781 42.4492 32.8594 42.6953 32.6836C42.9453 32.5078 43.25 32.375 43.6094 32.2852C43.9688 32.1914 44.3789 32.1445 44.8398 32.1445H45.9473ZM52.5039 34.6875V27H53.9219V36H52.6387L52.5039 34.6875ZM48.3789 32.9004V32.7773C48.3789 32.2969 48.4355 31.8594 48.5488 31.4648C48.6621 31.0664 48.8262 30.7246 49.041 30.4395C49.2559 30.1504 49.5176 29.9297 49.8262 29.7773C50.1348 29.6211 50.4824 29.543 50.8691 29.543C51.252 29.543 51.5879 29.6172 51.877 29.7656C52.166 29.9141 52.4121 30.127 52.6152 30.4043C52.8184 30.6777 52.9805 31.0059 53.1016 31.3887C53.2227 31.7676 53.3086 32.1895 53.3594 32.6543V33.0469C53.3086 33.5 53.2227 33.9141 53.1016 34.2891C52.9805 34.6641 52.8184 34.9883 52.6152 35.2617C52.4121 35.5352 52.1641 35.7461 51.8711 35.8945C51.582 36.043 51.2441 36.1172 50.8574 36.1172C50.4746 36.1172 50.1289 36.0371 49.8203 35.877C49.5156 35.7168 49.2559 35.4922 49.041 35.2031C48.8262 34.9141 48.6621 34.5742 48.5488 34.1836C48.4355 33.7891 48.3789 33.3613 48.3789 32.9004ZM49.791 32.7773V32.9004C49.791 33.1895 49.8164 33.459 49.8672 33.709C49.9219 33.959 50.0059 34.1797 50.1191 34.3711C50.2324 34.5586 50.3789 34.707 50.5586 34.8164C50.7422 34.9219 50.9609 34.9746 51.2148 34.9746C51.5352 34.9746 51.7988 34.9043 52.0059 34.7637C52.2129 34.623 52.375 34.4336 52.4922 34.1953C52.6133 33.9531 52.6953 33.6836 52.7383 33.3867V32.3262C52.7148 32.0957 52.666 31.8809 52.5918 31.6816C52.5215 31.4824 52.4258 31.3086 52.3047 31.1602C52.1836 31.0078 52.0332 30.8906 51.8535 30.8086C51.6777 30.7227 51.4688 30.6797 51.2266 30.6797C50.9688 30.6797 50.75 30.7344 50.5703 30.8438C50.3906 30.9531 50.2422 31.1035 50.125 31.2949C50.0117 31.4863 49.9277 31.709 49.873 31.9629C49.8184 32.2168 49.791 32.4883 49.791 32.7773ZM58.1934 36.1172C57.7246 36.1172 57.3008 36.041 56.9219 35.8887C56.5469 35.7324 56.2266 35.5156 55.9609 35.2383C55.6992 34.9609 55.498 34.6348 55.3574 34.2598C55.2168 33.8848 55.1465 33.4805 55.1465 33.0469V32.8125C55.1465 32.3164 55.2188 31.8672 55.3633 31.4648C55.5078 31.0625 55.709 30.7188 55.9668 30.4336C56.2246 30.1445 56.5293 29.9238 56.8809 29.7715C57.2324 29.6191 57.6133 29.543 58.0234 29.543C58.4766 29.543 58.873 29.6191 59.2129 29.7715C59.5527 29.9238 59.834 30.1387 60.0566 30.416C60.2832 30.6895 60.4512 31.0156 60.5605 31.3945C60.6738 31.7734 60.7305 32.1914 60.7305 32.6484V33.252H55.832V32.2383H59.3359V32.127C59.3281 31.873 59.2773 31.6348 59.1836 31.4121C59.0938 31.1895 58.9551 31.0098 58.7676 30.873C58.5801 30.7363 58.3301 30.668 58.0176 30.668C57.7832 30.668 57.5742 30.7188 57.3906 30.8203C57.2109 30.918 57.0605 31.0605 56.9395 31.248C56.8184 31.4355 56.7246 31.6621 56.6582 31.9277C56.5957 32.1895 56.5645 32.4844 56.5645 32.8125V33.0469C56.5645 33.3242 56.6016 33.582 56.6758 33.8203C56.7539 34.0547 56.8672 34.2598 57.0156 34.4355C57.1641 34.6113 57.3438 34.75 57.5547 34.8516C57.7656 34.9492 58.0059 34.998 58.2754 34.998C58.6152 34.998 58.918 34.9297 59.1836 34.793C59.4492 34.6562 59.6797 34.4629 59.875 34.2129L60.6191 34.9336C60.4824 35.1328 60.3047 35.3242 60.0859 35.5078C59.8672 35.6875 59.5996 35.834 59.2832 35.9473C58.9707 36.0605 58.6074 36.1172 58.1934 36.1172ZM65.7754 27.4688L67.7559 31.541L69.7363 27.4688H71.3652L68.4941 32.8594V36H67.0117V32.8594L64.1406 27.4688H65.7754ZM71.5 32.9004V32.7656C71.5 32.3086 71.5664 31.8848 71.6992 31.4941C71.832 31.0996 72.0234 30.7578 72.2734 30.4688C72.5273 30.1758 72.8359 29.9492 73.1992 29.7891C73.5664 29.625 73.9805 29.543 74.4414 29.543C74.9062 29.543 75.3203 29.625 75.6836 29.7891C76.0508 29.9492 76.3613 30.1758 76.6152 30.4688C76.8691 30.7578 77.0625 31.0996 77.1953 31.4941C77.3281 31.8848 77.3945 32.3086 77.3945 32.7656V32.9004C77.3945 33.3574 77.3281 33.7812 77.1953 34.1719C77.0625 34.5625 76.8691 34.9043 76.6152 35.1973C76.3613 35.4863 76.0527 35.7129 75.6895 35.877C75.3262 36.0371 74.9141 36.1172 74.4531 36.1172C73.9883 36.1172 73.5723 36.0371 73.2051 35.877C72.8418 35.7129 72.5332 35.4863 72.2793 35.1973C72.0254 34.9043 71.832 34.5625 71.6992 34.1719C71.5664 33.7812 71.5 33.3574 71.5 32.9004ZM72.9121 32.7656V32.9004C72.9121 33.1855 72.9414 33.4551 73 33.709C73.0586 33.9629 73.1504 34.1855 73.2754 34.377C73.4004 34.5684 73.5605 34.7188 73.7559 34.8281C73.9512 34.9375 74.1836 34.9922 74.4531 34.9922C74.7148 34.9922 74.9414 34.9375 75.1328 34.8281C75.3281 34.7188 75.4883 34.5684 75.6133 34.377C75.7383 34.1855 75.8301 33.9629 75.8887 33.709C75.9512 33.4551 75.9824 33.1855 75.9824 32.9004V32.7656C75.9824 32.4844 75.9512 32.2188 75.8887 31.9688C75.8301 31.7148 75.7363 31.4902 75.6074 31.2949C75.4824 31.0996 75.3223 30.9473 75.127 30.8379C74.9355 30.7246 74.707 30.668 74.4414 30.668C74.1758 30.668 73.9453 30.7246 73.75 30.8379C73.5586 30.9473 73.4004 31.0996 73.2754 31.2949C73.1504 31.4902 73.0586 31.7148 73 31.9688C72.9414 32.2188 72.9121 32.4844 72.9121 32.7656ZM82.3926 34.5059V29.6602H83.8105V36H82.4746L82.3926 34.5059ZM82.5918 33.1875L83.0664 33.1758C83.0664 33.6016 83.0195 33.9941 82.9258 34.3535C82.832 34.709 82.6875 35.0195 82.4922 35.2852C82.2969 35.5469 82.0469 35.752 81.7422 35.9004C81.4375 36.0449 81.0723 36.1172 80.6465 36.1172C80.3379 36.1172 80.0547 36.0723 79.7969 35.9824C79.5391 35.8926 79.3164 35.7539 79.1289 35.5664C78.9453 35.3789 78.8027 35.1348 78.7012 34.834C78.5996 34.5332 78.5488 34.1738 78.5488 33.7559V29.6602H79.9609V33.7676C79.9609 33.998 79.9883 34.1914 80.043 34.3477C80.0977 34.5 80.1719 34.623 80.2656 34.7168C80.3594 34.8105 80.4688 34.877 80.5938 34.916C80.7188 34.9551 80.8516 34.9746 80.9922 34.9746C81.3945 34.9746 81.7109 34.8965 81.9414 34.7402C82.1758 34.5801 82.3418 34.3652 82.4395 34.0957C82.541 33.8262 82.5918 33.5234 82.5918 33.1875ZM86.6758 30.8672V36H85.2637V29.6602H86.6113L86.6758 30.8672ZM88.6152 29.6191L88.6035 30.9316C88.5176 30.916 88.4238 30.9043 88.3223 30.8965C88.2246 30.8887 88.127 30.8848 88.0293 30.8848C87.7871 30.8848 87.5742 30.9199 87.3906 30.9902C87.207 31.0566 87.0527 31.1543 86.9277 31.2832C86.8066 31.4082 86.7129 31.5605 86.6465 31.7402C86.5801 31.9199 86.541 32.1211 86.5293 32.3438L86.207 32.3672C86.207 31.9688 86.2461 31.5996 86.3242 31.2598C86.4023 30.9199 86.5195 30.6211 86.6758 30.3633C86.8359 30.1055 87.0352 29.9043 87.2734 29.7598C87.5156 29.6152 87.7949 29.543 88.1113 29.543C88.1973 29.543 88.2891 29.5508 88.3867 29.5664C88.4883 29.582 88.5645 29.5996 88.6152 29.6191ZM95.8691 32.8184H93.6484V31.6523H95.8691C96.2559 31.6523 96.5684 31.5898 96.8066 31.4648C97.0449 31.3398 97.2188 31.168 97.3281 30.9492C97.4414 30.7266 97.498 30.4727 97.498 30.1875C97.498 29.918 97.4414 29.666 97.3281 29.4316C97.2188 29.1934 97.0449 29.002 96.8066 28.8574C96.5684 28.7129 96.2559 28.6406 95.8691 28.6406H94.0996V36H92.6289V27.4688H95.8691C96.5293 27.4688 97.0898 27.5859 97.5508 27.8203C98.0156 28.0508 98.3691 28.3711 98.6113 28.7812C98.8535 29.1875 98.9746 29.6523 98.9746 30.1758C98.9746 30.7266 98.8535 31.1992 98.6113 31.5938C98.3691 31.9883 98.0156 32.291 97.5508 32.502C97.0898 32.7129 96.5293 32.8184 95.8691 32.8184ZM101.664 27V36H100.246V27H101.664ZM106.785 34.7285V31.7051C106.785 31.4785 106.744 31.2832 106.662 31.1191C106.58 30.9551 106.455 30.8281 106.287 30.7383C106.123 30.6484 105.916 30.6035 105.666 30.6035C105.436 30.6035 105.236 30.6426 105.068 30.7207C104.9 30.7988 104.77 30.9043 104.676 31.0371C104.582 31.1699 104.535 31.3203 104.535 31.4883H103.129C103.129 31.2383 103.189 30.9961 103.311 30.7617C103.432 30.5273 103.607 30.3184 103.838 30.1348C104.068 29.9512 104.344 29.8066 104.664 29.7012C104.984 29.5957 105.344 29.543 105.742 29.543C106.219 29.543 106.641 29.623 107.008 29.7832C107.379 29.9434 107.67 30.1855 107.881 30.5098C108.096 30.8301 108.203 31.2324 108.203 31.7168V34.5352C108.203 34.8242 108.223 35.084 108.262 35.3145C108.305 35.541 108.365 35.7383 108.443 35.9062V36H106.996C106.93 35.8477 106.877 35.6543 106.838 35.4199C106.803 35.1816 106.785 34.9512 106.785 34.7285ZM106.99 32.1445L107.002 33.0176H105.988C105.727 33.0176 105.496 33.043 105.297 33.0938C105.098 33.1406 104.932 33.2109 104.799 33.3047C104.666 33.3984 104.566 33.5117 104.5 33.6445C104.434 33.7773 104.4 33.9277 104.4 34.0957C104.4 34.2637 104.439 34.418 104.518 34.5586C104.596 34.6953 104.709 34.8027 104.857 34.8809C105.01 34.959 105.193 34.998 105.408 34.998C105.697 34.998 105.949 34.9395 106.164 34.8223C106.383 34.7012 106.555 34.5547 106.68 34.3828C106.805 34.207 106.871 34.041 106.879 33.8848L107.336 34.5117C107.289 34.6719 107.209 34.8438 107.096 35.0273C106.982 35.2109 106.834 35.3867 106.65 35.5547C106.471 35.7188 106.254 35.8535 106 35.959C105.75 36.0645 105.461 36.1172 105.133 36.1172C104.719 36.1172 104.35 36.0352 104.025 35.8711C103.701 35.7031 103.447 35.4785 103.264 35.1973C103.08 34.9121 102.988 34.5898 102.988 34.2305C102.988 33.8945 103.051 33.5977 103.176 33.3398C103.305 33.0781 103.492 32.8594 103.738 32.6836C103.988 32.5078 104.293 32.375 104.652 32.2852C105.012 32.1914 105.422 32.1445 105.883 32.1445H106.99ZM111.08 31.0137V36H109.668V29.6602H110.998L111.08 31.0137ZM110.828 32.5957L110.371 32.5898C110.375 32.1406 110.438 31.7285 110.559 31.3535C110.684 30.9785 110.855 30.6562 111.074 30.3867C111.297 30.1172 111.562 29.9102 111.871 29.7656C112.18 29.6172 112.523 29.543 112.902 29.543C113.207 29.543 113.482 29.5859 113.729 29.6719C113.979 29.7539 114.191 29.8887 114.367 30.0762C114.547 30.2637 114.684 30.5078 114.777 30.8086C114.871 31.1055 114.918 31.4707 114.918 31.9043V36H113.5V31.8984C113.5 31.5938 113.455 31.3535 113.365 31.1777C113.279 30.998 113.152 30.8711 112.984 30.7969C112.82 30.7188 112.615 30.6797 112.369 30.6797C112.127 30.6797 111.91 30.7305 111.719 30.832C111.527 30.9336 111.365 31.0723 111.232 31.248C111.104 31.4238 111.004 31.627 110.934 31.8574C110.863 32.0879 110.828 32.334 110.828 32.5957ZM122.717 27.4688V36H121.258V27.4688H122.717ZM125.395 27.4688V28.6406H118.604V27.4688H125.395ZM125.289 32.9004V32.7656C125.289 32.3086 125.355 31.8848 125.488 31.4941C125.621 31.0996 125.812 30.7578 126.062 30.4688C126.316 30.1758 126.625 29.9492 126.988 29.7891C127.355 29.625 127.77 29.543 128.23 29.543C128.695 29.543 129.109 29.625 129.473 29.7891C129.84 29.9492 130.15 30.1758 130.404 30.4688C130.658 30.7578 130.852 31.0996 130.984 31.4941C131.117 31.8848 131.184 32.3086 131.184 32.7656V32.9004C131.184 33.3574 131.117 33.7812 130.984 34.1719C130.852 34.5625 130.658 34.9043 130.404 35.1973C130.15 35.4863 129.842 35.7129 129.479 35.877C129.115 36.0371 128.703 36.1172 128.242 36.1172C127.777 36.1172 127.361 36.0371 126.994 35.877C126.631 35.7129 126.322 35.4863 126.068 35.1973C125.814 34.9043 125.621 34.5625 125.488 34.1719C125.355 33.7812 125.289 33.3574 125.289 32.9004ZM126.701 32.7656V32.9004C126.701 33.1855 126.73 33.4551 126.789 33.709C126.848 33.9629 126.939 34.1855 127.064 34.377C127.189 34.5684 127.35 34.7188 127.545 34.8281C127.74 34.9375 127.973 34.9922 128.242 34.9922C128.504 34.9922 128.73 34.9375 128.922 34.8281C129.117 34.7188 129.277 34.5684 129.402 34.377C129.527 34.1855 129.619 33.9629 129.678 33.709C129.74 33.4551 129.771 33.1855 129.771 32.9004V32.7656C129.771 32.4844 129.74 32.2188 129.678 31.9688C129.619 31.7148 129.525 31.4902 129.396 31.2949C129.271 31.0996 129.111 30.9473 128.916 30.8379C128.725 30.7246 128.496 30.668 128.23 30.668C127.965 30.668 127.734 30.7246 127.539 30.8379C127.348 30.9473 127.189 31.0996 127.064 31.2949C126.939 31.4902 126.848 31.7148 126.789 31.9688C126.73 32.2188 126.701 32.4844 126.701 32.7656ZM142.047 31.6406V34.8984C141.926 35.0586 141.736 35.2344 141.479 35.4258C141.225 35.6133 140.887 35.7754 140.465 35.9121C140.043 36.0488 139.518 36.1172 138.889 36.1172C138.354 36.1172 137.863 36.0273 137.418 35.8477C136.973 35.6641 136.588 35.3965 136.264 35.0449C135.943 34.6934 135.695 34.2656 135.52 33.7617C135.344 33.2539 135.256 32.6758 135.256 32.0273V31.4355C135.256 30.791 135.336 30.2168 135.496 29.7129C135.66 29.2051 135.895 28.7754 136.199 28.4238C136.504 28.0723 136.871 27.8066 137.301 27.627C137.734 27.4434 138.225 27.3516 138.771 27.3516C139.471 27.3516 140.049 27.4688 140.506 27.7031C140.967 27.9336 141.322 28.2539 141.572 28.6641C141.822 29.0742 141.98 29.543 142.047 30.0703H140.605C140.559 29.7734 140.467 29.5078 140.33 29.2734C140.197 29.0391 140.006 28.8555 139.756 28.7227C139.51 28.5859 139.189 28.5176 138.795 28.5176C138.455 28.5176 138.156 28.582 137.898 28.7109C137.641 28.8398 137.426 29.0293 137.254 29.2793C137.086 29.5293 136.959 29.834 136.873 30.1934C136.787 30.5527 136.744 30.9629 136.744 31.4238V32.0273C136.744 32.4961 136.793 32.9121 136.891 33.2754C136.992 33.6387 137.137 33.9453 137.324 34.1953C137.516 34.4453 137.748 34.6348 138.021 34.7637C138.295 34.8887 138.604 34.9512 138.947 34.9512C139.283 34.9512 139.559 34.9238 139.773 34.8691C139.988 34.8105 140.158 34.7422 140.283 34.6641C140.412 34.582 140.512 34.5039 140.582 34.4297V32.7363H138.807V31.6406H142.047ZM146.33 36.1172C145.861 36.1172 145.438 36.041 145.059 35.8887C144.684 35.7324 144.363 35.5156 144.098 35.2383C143.836 34.9609 143.635 34.6348 143.494 34.2598C143.354 33.8848 143.283 33.4805 143.283 33.0469V32.8125C143.283 32.3164 143.355 31.8672 143.5 31.4648C143.645 31.0625 143.846 30.7188 144.104 30.4336C144.361 30.1445 144.666 29.9238 145.018 29.7715C145.369 29.6191 145.75 29.543 146.16 29.543C146.613 29.543 147.01 29.6191 147.35 29.7715C147.689 29.9238 147.971 30.1387 148.193 30.416C148.42 30.6895 148.588 31.0156 148.697 31.3945C148.811 31.7734 148.867 32.1914 148.867 32.6484V33.252H143.969V32.2383H147.473V32.127C147.465 31.873 147.414 31.6348 147.32 31.4121C147.23 31.1895 147.092 31.0098 146.904 30.873C146.717 30.7363 146.467 30.668 146.154 30.668C145.92 30.668 145.711 30.7188 145.527 30.8203C145.348 30.918 145.197 31.0605 145.076 31.248C144.955 31.4355 144.861 31.6621 144.795 31.9277C144.732 32.1895 144.701 32.4844 144.701 32.8125V33.0469C144.701 33.3242 144.738 33.582 144.812 33.8203C144.891 34.0547 145.004 34.2598 145.152 34.4355C145.301 34.6113 145.48 34.75 145.691 34.8516C145.902 34.9492 146.143 34.998 146.412 34.998C146.752 34.998 147.055 34.9297 147.32 34.793C147.586 34.6562 147.816 34.4629 148.012 34.2129L148.756 34.9336C148.619 35.1328 148.441 35.3242 148.223 35.5078C148.004 35.6875 147.736 35.834 147.42 35.9473C147.107 36.0605 146.744 36.1172 146.33 36.1172ZM152.875 29.6602V30.6914H149.301V29.6602H152.875ZM150.332 28.1074H151.744V34.248C151.744 34.4434 151.771 34.5938 151.826 34.6992C151.885 34.8008 151.965 34.8691 152.066 34.9043C152.168 34.9395 152.287 34.957 152.424 34.957C152.521 34.957 152.615 34.9512 152.705 34.9395C152.795 34.9277 152.867 34.916 152.922 34.9043L152.928 35.9824C152.811 36.0176 152.674 36.0488 152.518 36.0762C152.365 36.1035 152.189 36.1172 151.99 36.1172C151.666 36.1172 151.379 36.0605 151.129 35.9473C150.879 35.8301 150.684 35.6406 150.543 35.3789C150.402 35.1172 150.332 34.7695 150.332 34.3359V28.1074ZM17.4648 43.4688H18.7773L21.2441 50.0488L23.7051 43.4688H25.0176L21.7598 52H20.7168L17.4648 43.4688ZM16.8672 43.4688H18.1152L18.332 49.1641V52H16.8672V43.4688ZM24.3672 43.4688H25.6211V52H24.1504V49.1641L24.3672 43.4688ZM26.957 48.9004V48.7656C26.957 48.3086 27.0234 47.8848 27.1562 47.4941C27.2891 47.0996 27.4805 46.7578 27.7305 46.4688C27.9844 46.1758 28.293 45.9492 28.6562 45.7891C29.0234 45.625 29.4375 45.543 29.8984 45.543C30.3633 45.543 30.7773 45.625 31.1406 45.7891C31.5078 45.9492 31.8184 46.1758 32.0723 46.4688C32.3262 46.7578 32.5195 47.0996 32.6523 47.4941C32.7852 47.8848 32.8516 48.3086 32.8516 48.7656V48.9004C32.8516 49.3574 32.7852 49.7812 32.6523 50.1719C32.5195 50.5625 32.3262 50.9043 32.0723 51.1973C31.8184 51.4863 31.5098 51.7129 31.1465 51.877C30.7832 52.0371 30.3711 52.1172 29.9102 52.1172C29.4453 52.1172 29.0293 52.0371 28.6621 51.877C28.2988 51.7129 27.9902 51.4863 27.7363 51.1973C27.4824 50.9043 27.2891 50.5625 27.1562 50.1719C27.0234 49.7812 26.957 49.3574 26.957 48.9004ZM28.3691 48.7656V48.9004C28.3691 49.1855 28.3984 49.4551 28.457 49.709C28.5156 49.9629 28.6074 50.1855 28.7324 50.377C28.8574 50.5684 29.0176 50.7188 29.2129 50.8281C29.4082 50.9375 29.6406 50.9922 29.9102 50.9922C30.1719 50.9922 30.3984 50.9375 30.5898 50.8281C30.7852 50.7188 30.9453 50.5684 31.0703 50.377C31.1953 50.1855 31.2871 49.9629 31.3457 49.709C31.4082 49.4551 31.4395 49.1855 31.4395 48.9004V48.7656C31.4395 48.4844 31.4082 48.2188 31.3457 47.9688C31.2871 47.7148 31.1934 47.4902 31.0645 47.2949C30.9395 47.0996 30.7793 46.9473 30.584 46.8379C30.3926 46.7246 30.1641 46.668 29.8984 46.668C29.6328 46.668 29.4023 46.7246 29.207 46.8379C29.0156 46.9473 28.8574 47.0996 28.7324 47.2949C28.6074 47.4902 28.5156 47.7148 28.457 47.9688C28.3984 48.2188 28.3691 48.4844 28.3691 48.7656ZM35.4531 46.8672V52H34.041V45.6602H35.3887L35.4531 46.8672ZM37.3926 45.6191L37.3809 46.9316C37.2949 46.916 37.2012 46.9043 37.0996 46.8965C37.002 46.8887 36.9043 46.8848 36.8066 46.8848C36.5645 46.8848 36.3516 46.9199 36.168 46.9902C35.9844 47.0566 35.8301 47.1543 35.7051 47.2832C35.584 47.4082 35.4902 47.5605 35.4238 47.7402C35.3574 47.9199 35.3184 48.1211 35.3066 48.3438L34.9844 48.3672C34.9844 47.9688 35.0234 47.5996 35.1016 47.2598C35.1797 46.9199 35.2969 46.6211 35.4531 46.3633C35.6133 46.1055 35.8125 45.9043 36.0508 45.7598C36.293 45.6152 36.5723 45.543 36.8887 45.543C36.9746 45.543 37.0664 45.5508 37.1641 45.5664C37.2656 45.582 37.3418 45.5996 37.3926 45.6191ZM40.9551 52.1172C40.4863 52.1172 40.0625 52.041 39.6836 51.8887C39.3086 51.7324 38.9883 51.5156 38.7227 51.2383C38.4609 50.9609 38.2598 50.6348 38.1191 50.2598C37.9785 49.8848 37.9082 49.4805 37.9082 49.0469V48.8125C37.9082 48.3164 37.9805 47.8672 38.125 47.4648C38.2695 47.0625 38.4707 46.7188 38.7285 46.4336C38.9863 46.1445 39.291 45.9238 39.6426 45.7715C39.9941 45.6191 40.375 45.543 40.7852 45.543C41.2383 45.543 41.6348 45.6191 41.9746 45.7715C42.3145 45.9238 42.5957 46.1387 42.8184 46.416C43.0449 46.6895 43.2129 47.0156 43.3223 47.3945C43.4355 47.7734 43.4922 48.1914 43.4922 48.6484V49.252H38.5938V48.2383H42.0977V48.127C42.0898 47.873 42.0391 47.6348 41.9453 47.4121C41.8555 47.1895 41.7168 47.0098 41.5293 46.873C41.3418 46.7363 41.0918 46.668 40.7793 46.668C40.5449 46.668 40.3359 46.7188 40.1523 46.8203C39.9727 46.918 39.8223 47.0605 39.7012 47.248C39.5801 47.4355 39.4863 47.6621 39.4199 47.9277C39.3574 48.1895 39.3262 48.4844 39.3262 48.8125V49.0469C39.3262 49.3242 39.3633 49.582 39.4375 49.8203C39.5156 50.0547 39.6289 50.2598 39.7773 50.4355C39.9258 50.6113 40.1055 50.75 40.3164 50.8516C40.5273 50.9492 40.7676 50.998 41.0371 50.998C41.377 50.998 41.6797 50.9297 41.9453 50.793C42.2109 50.6562 42.4414 50.4629 42.6367 50.2129L43.3809 50.9336C43.2441 51.1328 43.0664 51.3242 42.8477 51.5078C42.6289 51.6875 42.3613 51.834 42.0449 51.9473C41.7324 52.0605 41.3691 52.1172 40.9551 52.1172ZM52.7617 49.2227H54.2266C54.1797 49.7812 54.0234 50.2793 53.7578 50.7168C53.4922 51.1504 53.1191 51.4922 52.6387 51.7422C52.1582 51.9922 51.5742 52.1172 50.8867 52.1172C50.3594 52.1172 49.8848 52.0234 49.4629 51.8359C49.041 51.6445 48.6797 51.375 48.3789 51.0273C48.0781 50.6758 47.8477 50.252 47.6875 49.7559C47.5312 49.2598 47.4531 48.7051 47.4531 48.0918V47.3828C47.4531 46.7695 47.5332 46.2148 47.6934 45.7188C47.8574 45.2227 48.0918 44.7988 48.3965 44.4473C48.7012 44.0918 49.0664 43.8203 49.4922 43.6328C49.9219 43.4453 50.4043 43.3516 50.9395 43.3516C51.6191 43.3516 52.1934 43.4766 52.6621 43.7266C53.1309 43.9766 53.4941 44.3223 53.752 44.7637C54.0137 45.2051 54.1738 45.7109 54.2324 46.2812H52.7676C52.7285 45.9141 52.6426 45.5996 52.5098 45.3379C52.3809 45.0762 52.1895 44.877 51.9355 44.7402C51.6816 44.5996 51.3496 44.5293 50.9395 44.5293C50.6035 44.5293 50.3105 44.5918 50.0605 44.7168C49.8105 44.8418 49.6016 45.0254 49.4336 45.2676C49.2656 45.5098 49.1387 45.8086 49.0527 46.1641C48.9707 46.5156 48.9297 46.918 48.9297 47.3711V48.0918C48.9297 48.5215 48.9668 48.9121 49.041 49.2637C49.1191 49.6113 49.2363 49.9102 49.3926 50.1602C49.5527 50.4102 49.7559 50.6035 50.002 50.7402C50.248 50.877 50.543 50.9453 50.8867 50.9453C51.3047 50.9453 51.6426 50.8789 51.9004 50.7461C52.1621 50.6133 52.3594 50.4199 52.4922 50.166C52.6289 49.9082 52.7188 49.5938 52.7617 49.2227ZM56.8398 46.8672V52H55.4277V45.6602H56.7754L56.8398 46.8672ZM58.7793 45.6191L58.7676 46.9316C58.6816 46.916 58.5879 46.9043 58.4863 46.8965C58.3887 46.8887 58.291 46.8848 58.1934 46.8848C57.9512 46.8848 57.7383 46.9199 57.5547 46.9902C57.3711 47.0566 57.2168 47.1543 57.0918 47.2832C56.9707 47.4082 56.877 47.5605 56.8105 47.7402C56.7441 47.9199 56.7051 48.1211 56.6934 48.3438L56.3711 48.3672C56.3711 47.9688 56.4102 47.5996 56.4883 47.2598C56.5664 46.9199 56.6836 46.6211 56.8398 46.3633C57 46.1055 57.1992 45.9043 57.4375 45.7598C57.6797 45.6152 57.959 45.543 58.2754 45.543C58.3613 45.543 58.4531 45.5508 58.5508 45.5664C58.6523 45.582 58.7285 45.5996 58.7793 45.6191ZM62.3418 52.1172C61.873 52.1172 61.4492 52.041 61.0703 51.8887C60.6953 51.7324 60.375 51.5156 60.1094 51.2383C59.8477 50.9609 59.6465 50.6348 59.5059 50.2598C59.3652 49.8848 59.2949 49.4805 59.2949 49.0469V48.8125C59.2949 48.3164 59.3672 47.8672 59.5117 47.4648C59.6562 47.0625 59.8574 46.7188 60.1152 46.4336C60.373 46.1445 60.6777 45.9238 61.0293 45.7715C61.3809 45.6191 61.7617 45.543 62.1719 45.543C62.625 45.543 63.0215 45.6191 63.3613 45.7715C63.7012 45.9238 63.9824 46.1387 64.2051 46.416C64.4316 46.6895 64.5996 47.0156 64.709 47.3945C64.8223 47.7734 64.8789 48.1914 64.8789 48.6484V49.252H59.9805V48.2383H63.4844V48.127C63.4766 47.873 63.4258 47.6348 63.332 47.4121C63.2422 47.1895 63.1035 47.0098 62.916 46.873C62.7285 46.7363 62.4785 46.668 62.166 46.668C61.9316 46.668 61.7227 46.7188 61.5391 46.8203C61.3594 46.918 61.209 47.0605 61.0879 47.248C60.9668 47.4355 60.873 47.6621 60.8066 47.9277C60.7441 48.1895 60.7129 48.4844 60.7129 48.8125V49.0469C60.7129 49.3242 60.75 49.582 60.8242 49.8203C60.9023 50.0547 61.0156 50.2598 61.1641 50.4355C61.3125 50.6113 61.4922 50.75 61.7031 50.8516C61.9141 50.9492 62.1543 50.998 62.4238 50.998C62.7637 50.998 63.0664 50.9297 63.332 50.793C63.5977 50.6562 63.8281 50.4629 64.0234 50.2129L64.7676 50.9336C64.6309 51.1328 64.4531 51.3242 64.2344 51.5078C64.0156 51.6875 63.748 51.834 63.4316 51.9473C63.1191 52.0605 62.7559 52.1172 62.3418 52.1172ZM69.8477 50.6875V43H71.2656V52H69.9824L69.8477 50.6875ZM65.7227 48.9004V48.7773C65.7227 48.2969 65.7793 47.8594 65.8926 47.4648C66.0059 47.0664 66.1699 46.7246 66.3848 46.4395C66.5996 46.1504 66.8613 45.9297 67.1699 45.7773C67.4785 45.6211 67.8262 45.543 68.2129 45.543C68.5957 45.543 68.9316 45.6172 69.2207 45.7656C69.5098 45.9141 69.7559 46.127 69.959 46.4043C70.1621 46.6777 70.3242 47.0059 70.4453 47.3887C70.5664 47.7676 70.6523 48.1895 70.7031 48.6543V49.0469C70.6523 49.5 70.5664 49.9141 70.4453 50.2891C70.3242 50.6641 70.1621 50.9883 69.959 51.2617C69.7559 51.5352 69.5078 51.7461 69.2148 51.8945C68.9258 52.043 68.5879 52.1172 68.2012 52.1172C67.8184 52.1172 67.4727 52.0371 67.1641 51.877C66.8594 51.7168 66.5996 51.4922 66.3848 51.2031C66.1699 50.9141 66.0059 50.5742 65.8926 50.1836C65.7793 49.7891 65.7227 49.3613 65.7227 48.9004ZM67.1348 48.7773V48.9004C67.1348 49.1895 67.1602 49.459 67.2109 49.709C67.2656 49.959 67.3496 50.1797 67.4629 50.3711C67.5762 50.5586 67.7227 50.707 67.9023 50.8164C68.0859 50.9219 68.3047 50.9746 68.5586 50.9746C68.8789 50.9746 69.1426 50.9043 69.3496 50.7637C69.5566 50.623 69.7188 50.4336 69.8359 50.1953C69.957 49.9531 70.0391 49.6836 70.082 49.3867V48.3262C70.0586 48.0957 70.0098 47.8809 69.9355 47.6816C69.8652 47.4824 69.7695 47.3086 69.6484 47.1602C69.5273 47.0078 69.377 46.8906 69.1973 46.8086C69.0215 46.7227 68.8125 46.6797 68.5703 46.6797C68.3125 46.6797 68.0938 46.7344 67.9141 46.8438C67.7344 46.9531 67.5859 47.1035 67.4688 47.2949C67.3555 47.4863 67.2715 47.709 67.2168 47.9629C67.1621 48.2168 67.1348 48.4883 67.1348 48.7773ZM74.2539 45.6602V52H72.8359V45.6602H74.2539ZM72.7422 43.9961C72.7422 43.7812 72.8125 43.6035 72.9531 43.4629C73.0977 43.3184 73.2969 43.2461 73.5508 43.2461C73.8008 43.2461 73.998 43.3184 74.1426 43.4629C74.2871 43.6035 74.3594 43.7812 74.3594 43.9961C74.3594 44.207 74.2871 44.3828 74.1426 44.5234C73.998 44.6641 73.8008 44.7344 73.5508 44.7344C73.2969 44.7344 73.0977 44.6641 72.9531 44.5234C72.8125 44.3828 72.7422 44.207 72.7422 43.9961ZM78.707 45.6602V46.6914H75.1328V45.6602H78.707ZM76.1641 44.1074H77.5762V50.248C77.5762 50.4434 77.6035 50.5938 77.6582 50.6992C77.7168 50.8008 77.7969 50.8691 77.8984 50.9043C78 50.9395 78.1191 50.957 78.2559 50.957C78.3535 50.957 78.4473 50.9512 78.5371 50.9395C78.627 50.9277 78.6992 50.916 78.7539 50.9043L78.7598 51.9824C78.6426 52.0176 78.5059 52.0488 78.3496 52.0762C78.1973 52.1035 78.0215 52.1172 77.8223 52.1172C77.498 52.1172 77.2109 52.0605 76.9609 51.9473C76.7109 51.8301 76.5156 51.6406 76.375 51.3789C76.2344 51.1172 76.1641 50.7695 76.1641 50.3359V44.1074ZM83.3535 50.2832C83.3535 50.1426 83.3184 50.0156 83.248 49.9023C83.1777 49.7852 83.043 49.6797 82.8438 49.5859C82.6484 49.4922 82.3594 49.4062 81.9766 49.3281C81.6406 49.2539 81.332 49.166 81.0508 49.0645C80.7734 48.959 80.5352 48.832 80.3359 48.6836C80.1367 48.5352 79.9824 48.3594 79.873 48.1562C79.7637 47.9531 79.709 47.7188 79.709 47.4531C79.709 47.1953 79.7656 46.9512 79.8789 46.7207C79.9922 46.4902 80.1543 46.2871 80.3652 46.1113C80.5762 45.9355 80.832 45.7969 81.1328 45.6953C81.4375 45.5938 81.7773 45.543 82.1523 45.543C82.6836 45.543 83.1387 45.6328 83.5176 45.8125C83.9004 45.9883 84.1934 46.2285 84.3965 46.5332C84.5996 46.834 84.7012 47.1738 84.7012 47.5527H83.2891C83.2891 47.3848 83.2461 47.2285 83.1602 47.084C83.0781 46.9355 82.9531 46.8164 82.7852 46.7266C82.6172 46.6328 82.4062 46.5859 82.1523 46.5859C81.9102 46.5859 81.709 46.625 81.5488 46.7031C81.3926 46.7773 81.2754 46.875 81.1973 46.9961C81.123 47.1172 81.0859 47.25 81.0859 47.3945C81.0859 47.5 81.1055 47.5957 81.1445 47.6816C81.1875 47.7637 81.2578 47.8398 81.3555 47.9102C81.4531 47.9766 81.5859 48.0391 81.7539 48.0977C81.9258 48.1562 82.1406 48.2129 82.3984 48.2676C82.8828 48.3691 83.2988 48.5 83.6465 48.6602C83.998 48.8164 84.2676 49.0195 84.4551 49.2695C84.6426 49.5156 84.7363 49.8281 84.7363 50.207C84.7363 50.4883 84.6758 50.7461 84.5547 50.9805C84.4375 51.2109 84.2656 51.4121 84.0391 51.584C83.8125 51.752 83.541 51.8828 83.2246 51.9766C82.9121 52.0703 82.5605 52.1172 82.1699 52.1172C81.5957 52.1172 81.1094 52.0156 80.7109 51.8125C80.3125 51.6055 80.0098 51.3418 79.8027 51.0215C79.5996 50.6973 79.498 50.3613 79.498 50.0137H80.8633C80.8789 50.2754 80.9512 50.4844 81.0801 50.6406C81.2129 50.793 81.377 50.9043 81.5723 50.9746C81.7715 51.041 81.9766 51.0742 82.1875 51.0742C82.4414 51.0742 82.6543 51.041 82.8262 50.9746C82.998 50.9043 83.1289 50.8105 83.2188 50.6934C83.3086 50.5723 83.3535 50.4355 83.3535 50.2832Z" fill="black"/>
<path d="M44.368 91.698C44.68 91.698 44.958 91.646 45.202 91.542C45.45 91.438 45.658 91.292 45.826 91.104C45.998 90.916 46.128 90.688 46.216 90.42C46.308 90.152 46.354 89.852 46.354 89.52V84.324H47.968V89.52C47.968 90.036 47.884 90.514 47.716 90.954C47.552 91.39 47.314 91.768 47.002 92.088C46.69 92.404 46.312 92.652 45.868 92.832C45.424 93.008 44.924 93.096 44.368 93.096C43.812 93.096 43.312 93.008 42.868 92.832C42.424 92.652 42.046 92.404 41.734 92.088C41.426 91.768 41.188 91.39 41.02 90.954C40.856 90.514 40.774 90.036 40.774 89.52V84.324H42.388V89.514C42.388 89.846 42.432 90.146 42.52 90.414C42.612 90.682 42.742 90.912 42.91 91.104C43.078 91.292 43.284 91.438 43.528 91.542C43.776 91.646 44.056 91.698 44.368 91.698ZM51.2745 89.946V93H49.6605V84.324H52.4865C53.0665 84.324 53.5685 84.392 53.9925 84.528C54.4165 84.664 54.7665 84.854 55.0425 85.098C55.3185 85.342 55.5225 85.634 55.6545 85.974C55.7865 86.314 55.8525 86.686 55.8525 87.09C55.8525 87.51 55.7825 87.896 55.6425 88.248C55.5025 88.596 55.2925 88.896 55.0125 89.148C54.7325 89.4 54.3825 89.596 53.9625 89.736C53.5425 89.876 53.0505 89.946 52.4865 89.946H51.2745ZM51.2745 88.686H52.4865C52.7825 88.686 53.0405 88.65 53.2605 88.578C53.4805 88.502 53.6625 88.396 53.8065 88.26C53.9505 88.12 54.0585 87.952 54.1305 87.756C54.2025 87.556 54.2385 87.334 54.2385 87.09C54.2385 86.858 54.2025 86.648 54.1305 86.46C54.0585 86.272 53.9505 86.112 53.8065 85.98C53.6625 85.848 53.4805 85.748 53.2605 85.68C53.0405 85.608 52.7825 85.572 52.4865 85.572H51.2745V88.686ZM61.0905 91.812C61.4545 91.812 61.7705 91.78 62.0385 91.716C62.3105 91.648 62.5685 91.556 62.8125 91.44V89.862H61.7265C61.6225 89.862 61.5405 89.834 61.4805 89.778C61.4205 89.718 61.3905 89.646 61.3905 89.562V88.65H64.2765V92.16C64.0565 92.32 63.8265 92.46 63.5865 92.58C63.3505 92.696 63.0965 92.792 62.8245 92.868C62.5565 92.944 62.2685 93 61.9605 93.036C61.6525 93.076 61.3205 93.096 60.9645 93.096C60.3325 93.096 59.7505 92.986 59.2185 92.766C58.6865 92.546 58.2265 92.24 57.8385 91.848C57.4505 91.456 57.1465 90.988 56.9265 90.444C56.7105 89.9 56.6025 89.306 56.6025 88.662C56.6025 88.01 56.7085 87.412 56.9205 86.868C57.1325 86.324 57.4325 85.856 57.8205 85.464C58.2125 85.072 58.6865 84.768 59.2425 84.552C59.7985 84.336 60.4225 84.228 61.1145 84.228C61.8225 84.228 62.4345 84.334 62.9505 84.546C63.4705 84.754 63.9105 85.026 64.2705 85.362L63.8025 86.094C63.7105 86.242 63.5885 86.316 63.4365 86.316C63.3405 86.316 63.2425 86.284 63.1425 86.22C63.0145 86.144 62.8825 86.068 62.7465 85.992C62.6145 85.916 62.4665 85.85 62.3025 85.794C62.1425 85.738 61.9605 85.692 61.7565 85.656C61.5565 85.62 61.3245 85.602 61.0605 85.602C60.6325 85.602 60.2445 85.674 59.8965 85.818C59.5525 85.962 59.2585 86.168 59.0145 86.436C58.7705 86.704 58.5825 87.026 58.4505 87.402C58.3185 87.778 58.2525 88.198 58.2525 88.662C58.2525 89.162 58.3225 89.608 58.4625 90C58.6025 90.388 58.7985 90.716 59.0505 90.984C59.3025 91.252 59.6025 91.458 59.9505 91.602C60.2985 91.742 60.6785 91.812 61.0905 91.812ZM67.4463 89.61V93H65.8323V84.324H68.4783C69.0703 84.324 69.5763 84.386 69.9963 84.51C70.4203 84.63 70.7663 84.8 71.0343 85.02C71.3063 85.24 71.5043 85.504 71.6283 85.812C71.7563 86.116 71.8203 86.452 71.8203 86.82C71.8203 87.112 71.7763 87.388 71.6883 87.648C71.6043 87.908 71.4803 88.144 71.3163 88.356C71.1563 88.568 70.9563 88.754 70.7163 88.914C70.4803 89.074 70.2103 89.202 69.9063 89.298C70.1103 89.414 70.2863 89.58 70.4343 89.796L72.6063 93H71.1543C71.0143 93 70.8943 92.972 70.7943 92.916C70.6983 92.86 70.6163 92.78 70.5483 92.676L68.7243 89.898C68.6563 89.794 68.5803 89.72 68.4963 89.676C68.4163 89.632 68.2963 89.61 68.1363 89.61H67.4463ZM67.4463 88.452H68.4543C68.7583 88.452 69.0223 88.414 69.2463 88.338C69.4743 88.262 69.6603 88.158 69.8043 88.026C69.9523 87.89 70.0623 87.73 70.1343 87.546C70.2063 87.362 70.2423 87.16 70.2423 86.94C70.2423 86.5 70.0963 86.162 69.8043 85.926C69.5163 85.69 69.0743 85.572 68.4783 85.572H67.4463V88.452ZM81.2676 93H80.0196C79.8796 93 79.7636 92.966 79.6716 92.898C79.5836 92.826 79.5196 92.738 79.4796 92.634L78.8316 90.864H75.2376L74.5896 92.634C74.5576 92.726 74.4936 92.81 74.3976 92.886C74.3056 92.962 74.1916 93 74.0556 93H72.8016L76.2096 84.324H77.8596L81.2676 93ZM75.6516 89.724H78.4176L77.3616 86.838C77.3136 86.71 77.2596 86.56 77.1996 86.388C77.1436 86.212 77.0876 86.022 77.0316 85.818C76.9756 86.022 76.9196 86.212 76.8636 86.388C76.8116 86.564 76.7596 86.718 76.7076 86.85L75.6516 89.724ZM89.8652 88.662C89.8652 89.298 89.7592 89.882 89.5472 90.414C89.3352 90.946 89.0372 91.404 88.6532 91.788C88.2692 92.172 87.8072 92.47 87.2672 92.682C86.7272 92.894 86.1292 93 85.4732 93H82.1612V84.324H85.4732C86.1292 84.324 86.7272 84.432 87.2672 84.648C87.8072 84.86 88.2692 85.158 88.6532 85.542C89.0372 85.922 89.3352 86.378 89.5472 86.91C89.7592 87.442 89.8652 88.026 89.8652 88.662ZM88.2152 88.662C88.2152 88.186 88.1512 87.76 88.0232 87.384C87.8952 87.004 87.7132 86.684 87.4772 86.424C87.2412 86.16 86.9532 85.958 86.6132 85.818C86.2772 85.678 85.8972 85.608 85.4732 85.608H83.7872V91.716H85.4732C85.8972 91.716 86.2772 91.646 86.6132 91.506C86.9532 91.366 87.2412 91.166 87.4772 90.906C87.7132 90.642 87.8952 90.322 88.0232 89.946C88.1512 89.566 88.2152 89.138 88.2152 88.662ZM96.598 84.324V85.608H92.752V88.014H95.782V89.256H92.752V91.71H96.598V93H91.126V84.324H96.598Z" fill="#E6427A"/>
<rect x="16.5" y="72.5" width="105" height="31" rx="15.5" stroke="#E6427A"/>
<defs>
<linearGradient id="paint0_linear_16629_197491" x1="332.499" y1="4.23548" x2="-10.4459" y2="190.795" gradientUnits="userSpaceOnUse">
<stop stop-color="#E6427A" stop-opacity="0.23"/>
<stop offset="0.403396" stop-color="#D4966F" stop-opacity="0.08"/>
<stop offset="1" stop-color="#D39C6E" stop-opacity="0.1"/>
</linearGradient>
<linearGradient id="paint1_linear_16629_197491" x1="219.043" y1="59.2857" x2="301.684" y2="59.2857" gradientUnits="userSpaceOnUse">
<stop stop-color="#BDCCED"/>
<stop offset="0.1841" stop-color="#D5E9FD"/>
<stop offset="0.3992" stop-color="#D7E2F9"/>
<stop offset="0.635417" stop-color="#D5E0F7"/>
<stop offset="0.8695" stop-color="#B4C9F2"/>
<stop offset="1" stop-color="#C1CEE6"/>
</linearGradient>
</defs>
</svg>
