<svg width="24" height="24" viewBox="0 0 24 24" fill="none" xmlns="http://www.w3.org/2000/svg">
<path d="M13.2637 0.632812V4.42229H17.1163L13.2637 0.632812Z" fill="#E6427A"/>
<path d="M15.2211 19.2L9.28421 20.7158L10.8 14.7789L17.6842 7.83158V5.68421H12.6316C12.2526 5.68421 12 5.43158 12 5.05263V0H1.26316C0.568421 0 0 0.568421 0 1.26316V22.7368C0 23.4316 0.568421 24 1.26316 24H16.4211C17.1158 24 17.6842 23.4316 17.6842 22.7368V16.8L15.2211 19.2ZM3.15826 4.42105H10.1056C10.4846 4.42105 10.7372 4.67368 10.7372 5.05263C10.7372 5.43158 10.4846 5.68421 10.1056 5.68421H3.15826C2.77931 5.68421 2.52668 5.43158 2.52668 5.05263C2.52668 4.67368 2.77931 4.42105 3.15826 4.42105ZM3.15826 7.57895H13.8951C14.274 7.57895 14.5267 7.83158 14.5267 8.21053C14.5267 8.58947 14.274 8.8421 13.8951 8.8421H3.15826C2.77931 8.8421 2.52668 8.58947 2.52668 8.21053C2.52668 7.83158 2.77931 7.57895 3.15826 7.57895ZM3.15826 10.7368H12.0004C12.3793 10.7368 12.6319 10.9895 12.6319 11.3684C12.6319 11.7474 12.3793 12 12.0004 12H3.15826C2.77931 12 2.52668 11.7474 2.52668 11.3684C2.52668 10.9895 2.77931 10.7368 3.15826 10.7368ZM3.15826 13.8947H10.1056C10.4846 13.8947 10.7372 14.1474 10.7372 14.5263C10.7372 14.9053 10.4846 15.1579 10.1056 15.1579H3.15826C2.77931 15.1579 2.52668 14.9053 2.52668 14.5263C2.52668 14.1474 2.77931 13.8947 3.15826 13.8947ZM8.21089 18.9474H3.15826C2.77931 18.9474 2.52668 18.6947 2.52668 18.3158C2.52668 17.9368 2.77931 17.6842 3.15826 17.6842H8.21089C8.58984 17.6842 8.84247 17.9368 8.84247 18.3158C8.84247 18.6947 8.58984 18.9474 8.21089 18.9474Z" fill="#E6427A"/>
<path d="M23.0527 6.94733C22.2948 6.18943 21.0948 6.18943 20.4001 6.94733L11.9369 15.4105L11.0527 18.9473L14.6527 18.0631L23.1159 9.59996C23.8106 8.84206 23.8106 7.64206 23.0527 6.94733Z" fill="#E6427A"/>
</svg>
