<svg width="375" height="182" viewBox="0 0 375 182" fill="none" xmlns="http://www.w3.org/2000/svg">
<rect width="375" height="182" fill="#707070"/>
<path fill-rule="evenodd" clip-rule="evenodd" d="M40.8682 83.527C40.4842 82.8556 39.5161 82.8556 39.1321 83.527L31.1334 97.5118C30.7521 98.1785 31.2335 99.0083 32.0015 99.0083H47.9988C48.7668 99.0083 49.2481 98.1785 48.8668 97.5118L40.8682 83.527ZM39.1799 93.1533C39.1799 93.6246 39.5579 94.0063 40.0248 94.0063C40.4914 94.0063 40.8698 93.6246 40.8698 93.1533V87.7685C40.8698 87.2972 40.4917 86.9155 40.0248 86.9155C39.5579 86.9155 39.1799 87.2972 39.1799 87.7685V93.1533ZM39.1799 95.9969C39.1799 96.4682 39.5579 96.8499 40.0248 96.8499C40.4914 96.8499 40.8698 96.4682 40.8698 95.9969V95.7307C40.8698 95.2594 40.4917 94.8777 40.0248 94.8777C39.5579 94.8777 39.1799 95.2594 39.1799 95.7307V95.9969Z" fill="white"/>
<path d="M66.1064 86.0469V96H64.4043V86.0469H66.1064ZM69.2305 86.0469V87.4141H61.3076V86.0469H69.2305ZM72.0059 85.5V96H70.3652V85.5H72.0059ZM71.7188 92.0283L71.1855 92.0215C71.1901 91.5111 71.2607 91.0394 71.3975 90.6064C71.5387 90.1735 71.7347 89.7975 71.9854 89.4785C72.2406 89.1549 72.5459 88.9066 72.9014 88.7334C73.2568 88.5557 73.651 88.4668 74.084 88.4668C74.4486 88.4668 74.7767 88.5169 75.0684 88.6172C75.3646 88.7174 75.6198 88.8792 75.834 89.1025C76.0482 89.3213 76.21 89.6084 76.3193 89.9639C76.4333 90.3148 76.4902 90.7432 76.4902 91.249V96H74.8359V91.2354C74.8359 90.8799 74.7835 90.5973 74.6787 90.3877C74.5785 90.1781 74.4303 90.0277 74.2344 89.9365C74.0384 89.8408 73.7992 89.793 73.5166 89.793C73.2204 89.793 72.9583 89.8522 72.7305 89.9707C72.5072 90.0892 72.3203 90.251 72.1699 90.4561C72.0195 90.6611 71.9056 90.8981 71.8281 91.167C71.7552 91.4359 71.7188 91.723 71.7188 92.0283ZM79.9219 88.6035V96H78.2676V88.6035H79.9219ZM78.1582 86.6621C78.1582 86.4115 78.2402 86.2041 78.4043 86.04C78.5729 85.8714 78.8053 85.7871 79.1016 85.7871C79.3932 85.7871 79.6234 85.8714 79.792 86.04C79.9606 86.2041 80.0449 86.4115 80.0449 86.6621C80.0449 86.9082 79.9606 87.1133 79.792 87.2773C79.6234 87.4414 79.3932 87.5234 79.1016 87.5234C78.8053 87.5234 78.5729 87.4414 78.4043 87.2773C78.2402 87.1133 78.1582 86.9082 78.1582 86.6621ZM85.876 93.9971C85.876 93.833 85.835 93.6849 85.7529 93.5527C85.6709 93.416 85.5137 93.293 85.2812 93.1836C85.0534 93.0742 84.7161 92.974 84.2695 92.8828C83.8776 92.7962 83.5176 92.6937 83.1895 92.5752C82.8659 92.4521 82.5879 92.304 82.3555 92.1309C82.123 91.9577 81.943 91.7526 81.8154 91.5156C81.6878 91.2786 81.624 91.0052 81.624 90.6953C81.624 90.3945 81.6901 90.1097 81.8223 89.8408C81.9544 89.5719 82.1436 89.335 82.3896 89.1299C82.6357 88.9248 82.9342 88.763 83.2852 88.6445C83.6406 88.526 84.0371 88.4668 84.4746 88.4668C85.0944 88.4668 85.6253 88.5716 86.0674 88.7812C86.514 88.9863 86.8558 89.2666 87.0928 89.6221C87.3298 89.973 87.4482 90.3695 87.4482 90.8115H85.8008C85.8008 90.6156 85.7507 90.4333 85.6504 90.2646C85.5547 90.0915 85.4089 89.9525 85.2129 89.8477C85.0169 89.7383 84.7708 89.6836 84.4746 89.6836C84.1921 89.6836 83.9574 89.7292 83.7705 89.8203C83.5882 89.9069 83.4515 90.0208 83.3604 90.1621C83.2738 90.3034 83.2305 90.4583 83.2305 90.627C83.2305 90.75 83.2533 90.8617 83.2988 90.9619C83.349 91.0576 83.431 91.1465 83.5449 91.2285C83.6589 91.306 83.8138 91.3789 84.0098 91.4473C84.2103 91.5156 84.4609 91.5817 84.7617 91.6455C85.3268 91.764 85.8122 91.9167 86.2178 92.1035C86.6279 92.2858 86.9424 92.5228 87.1611 92.8145C87.3799 93.1016 87.4893 93.4661 87.4893 93.9082C87.4893 94.2363 87.4186 94.5371 87.2773 94.8105C87.1406 95.0794 86.9401 95.3141 86.6758 95.5146C86.4115 95.7106 86.0947 95.8633 85.7256 95.9727C85.361 96.082 84.9508 96.1367 84.4951 96.1367C83.8252 96.1367 83.2578 96.0182 82.793 95.7812C82.3281 95.5397 81.9749 95.2321 81.7334 94.8584C81.4964 94.4801 81.3779 94.0882 81.3779 93.6826H82.9707C82.9889 93.988 83.0732 94.2318 83.2236 94.4141C83.3786 94.5918 83.57 94.7217 83.7979 94.8037C84.0303 94.8812 84.2695 94.9199 84.5156 94.9199C84.8118 94.9199 85.0602 94.8812 85.2607 94.8037C85.4613 94.7217 85.6139 94.6123 85.7188 94.4756C85.8236 94.3343 85.876 94.1748 85.876 93.9971ZM98.167 86.0469H99.876V92.6982C99.876 93.4548 99.7119 94.0882 99.3838 94.5986C99.0557 95.109 98.609 95.4941 98.0439 95.7539C97.4834 96.0091 96.8568 96.1367 96.1641 96.1367C95.4486 96.1367 94.8105 96.0091 94.25 95.7539C93.6895 95.4941 93.2474 95.109 92.9238 94.5986C92.6048 94.0882 92.4453 93.4548 92.4453 92.6982V86.0469H94.1543V92.6982C94.1543 93.1768 94.2363 93.571 94.4004 93.8809C94.5645 94.1862 94.7969 94.4118 95.0977 94.5576C95.3984 94.7035 95.7539 94.7764 96.1641 94.7764C96.5742 94.7764 96.9274 94.7035 97.2236 94.5576C97.5244 94.4118 97.7568 94.1862 97.9209 93.8809C98.085 93.571 98.167 93.1768 98.167 92.6982V86.0469ZM101.742 86.0469H105.263C106.019 86.0469 106.664 86.1608 107.197 86.3887C107.73 86.6165 108.138 86.9538 108.421 87.4004C108.708 87.8424 108.852 88.3893 108.852 89.041C108.852 89.5378 108.76 89.9753 108.578 90.3535C108.396 90.7318 108.138 91.0508 107.806 91.3105C107.473 91.5658 107.076 91.764 106.616 91.9053L106.097 92.1582H102.932L102.918 90.7979H105.29C105.7 90.7979 106.042 90.7249 106.315 90.5791C106.589 90.4333 106.794 90.235 106.931 89.9844C107.072 89.7292 107.143 89.4421 107.143 89.123C107.143 88.7767 107.074 88.4759 106.938 88.2207C106.805 87.9609 106.6 87.7627 106.322 87.626C106.044 87.4847 105.691 87.4141 105.263 87.4141H103.458V96H101.742V86.0469ZM107.423 96L105.085 91.5293L106.883 91.5225L109.255 95.9111V96H107.423ZM116.795 94.6396V96H111.798V94.6396H116.795ZM112.276 86.0469V96H110.561V86.0469H112.276ZM123.439 86.0469V96H121.724V86.0469H123.439ZM129.558 93.9971C129.558 93.833 129.517 93.6849 129.435 93.5527C129.353 93.416 129.195 93.293 128.963 93.1836C128.735 93.0742 128.398 92.974 127.951 92.8828C127.559 92.7962 127.199 92.6937 126.871 92.5752C126.548 92.4521 126.27 92.304 126.037 92.1309C125.805 91.9577 125.625 91.7526 125.497 91.5156C125.369 91.2786 125.306 91.0052 125.306 90.6953C125.306 90.3945 125.372 90.1097 125.504 89.8408C125.636 89.5719 125.825 89.335 126.071 89.1299C126.317 88.9248 126.616 88.763 126.967 88.6445C127.322 88.526 127.719 88.4668 128.156 88.4668C128.776 88.4668 129.307 88.5716 129.749 88.7812C130.196 88.9863 130.537 89.2666 130.774 89.6221C131.011 89.973 131.13 90.3695 131.13 90.8115H129.482C129.482 90.6156 129.432 90.4333 129.332 90.2646C129.236 90.0915 129.09 89.9525 128.895 89.8477C128.699 89.7383 128.452 89.6836 128.156 89.6836C127.874 89.6836 127.639 89.7292 127.452 89.8203C127.27 89.9069 127.133 90.0208 127.042 90.1621C126.955 90.3034 126.912 90.4583 126.912 90.627C126.912 90.75 126.935 90.8617 126.98 90.9619C127.031 91.0576 127.113 91.1465 127.227 91.2285C127.34 91.306 127.495 91.3789 127.691 91.4473C127.892 91.5156 128.143 91.5817 128.443 91.6455C129.008 91.764 129.494 91.9167 129.899 92.1035C130.31 92.2858 130.624 92.5228 130.843 92.8145C131.062 93.1016 131.171 93.4661 131.171 93.9082C131.171 94.2363 131.1 94.5371 130.959 94.8105C130.822 95.0794 130.622 95.3141 130.357 95.5146C130.093 95.7106 129.776 95.8633 129.407 95.9727C129.043 96.082 128.632 96.1367 128.177 96.1367C127.507 96.1367 126.939 96.0182 126.475 95.7812C126.01 95.5397 125.657 95.2321 125.415 94.8584C125.178 94.4801 125.06 94.0882 125.06 93.6826H126.652C126.671 93.988 126.755 94.2318 126.905 94.4141C127.06 94.5918 127.252 94.7217 127.479 94.8037C127.712 94.8812 127.951 94.9199 128.197 94.9199C128.493 94.9199 128.742 94.8812 128.942 94.8037C129.143 94.7217 129.296 94.6123 129.4 94.4756C129.505 94.3343 129.558 94.1748 129.558 93.9971ZM144.159 86.0469V96H142.443L137.979 88.8701V96H136.264V86.0469H137.979L142.457 93.1904V86.0469H144.159ZM145.725 92.3838V92.2266C145.725 91.6934 145.802 91.1989 145.957 90.7432C146.112 90.2829 146.335 89.8841 146.627 89.5469C146.923 89.2051 147.283 88.9408 147.707 88.7539C148.135 88.5625 148.618 88.4668 149.156 88.4668C149.699 88.4668 150.182 88.5625 150.605 88.7539C151.034 88.9408 151.396 89.2051 151.692 89.5469C151.989 89.8841 152.214 90.2829 152.369 90.7432C152.524 91.1989 152.602 91.6934 152.602 92.2266V92.3838C152.602 92.917 152.524 93.4115 152.369 93.8672C152.214 94.3229 151.989 94.7217 151.692 95.0635C151.396 95.4007 151.036 95.665 150.612 95.8564C150.188 96.0433 149.708 96.1367 149.17 96.1367C148.628 96.1367 148.142 96.0433 147.714 95.8564C147.29 95.665 146.93 95.4007 146.634 95.0635C146.338 94.7217 146.112 94.3229 145.957 93.8672C145.802 93.4115 145.725 92.917 145.725 92.3838ZM147.372 92.2266V92.3838C147.372 92.7165 147.406 93.0309 147.475 93.3271C147.543 93.6234 147.65 93.8831 147.796 94.1064C147.942 94.3298 148.129 94.5052 148.356 94.6328C148.584 94.7604 148.855 94.8242 149.17 94.8242C149.475 94.8242 149.74 94.7604 149.963 94.6328C150.191 94.5052 150.378 94.3298 150.523 94.1064C150.669 93.8831 150.776 93.6234 150.845 93.3271C150.918 93.0309 150.954 92.7165 150.954 92.3838V92.2266C150.954 91.8984 150.918 91.5885 150.845 91.2969C150.776 91.0007 150.667 90.7386 150.517 90.5107C150.371 90.2829 150.184 90.1051 149.956 89.9775C149.733 89.8454 149.466 89.7793 149.156 89.7793C148.846 89.7793 148.577 89.8454 148.35 89.9775C148.126 90.1051 147.942 90.2829 147.796 90.5107C147.65 90.7386 147.543 91.0007 147.475 91.2969C147.406 91.5885 147.372 91.8984 147.372 92.2266ZM157.373 88.6035V89.8066H153.203V88.6035H157.373ZM154.406 86.792H156.054V93.9561C156.054 94.1839 156.086 94.3594 156.149 94.4824C156.218 94.6009 156.311 94.6807 156.43 94.7217C156.548 94.7627 156.687 94.7832 156.847 94.7832C156.961 94.7832 157.07 94.7764 157.175 94.7627C157.28 94.749 157.364 94.7354 157.428 94.7217L157.435 95.9795C157.298 96.0205 157.138 96.057 156.956 96.0889C156.778 96.1208 156.573 96.1367 156.341 96.1367C155.963 96.1367 155.628 96.0706 155.336 95.9385C155.044 95.8018 154.816 95.5807 154.652 95.2754C154.488 94.9701 154.406 94.5645 154.406 94.0586V86.792ZM167.531 93.4365C167.531 93.2314 167.499 93.0492 167.436 92.8896C167.376 92.7301 167.269 92.5843 167.114 92.4521C166.959 92.32 166.741 92.1924 166.458 92.0693C166.18 91.9417 165.825 91.8118 165.392 91.6797C164.918 91.5339 164.48 91.3721 164.079 91.1943C163.683 91.012 163.336 90.8024 163.04 90.5654C162.744 90.3239 162.514 90.0482 162.35 89.7383C162.186 89.4238 162.104 89.0615 162.104 88.6514C162.104 88.2458 162.188 87.8766 162.356 87.5439C162.53 87.2113 162.773 86.9242 163.088 86.6826C163.407 86.4365 163.783 86.2474 164.216 86.1152C164.649 85.9785 165.127 85.9102 165.651 85.9102C166.39 85.9102 167.025 86.0469 167.559 86.3203C168.096 86.5938 168.509 86.9606 168.796 87.4209C169.088 87.8812 169.233 88.3893 169.233 88.9453H167.531C167.531 88.6172 167.461 88.3278 167.319 88.0771C167.183 87.8219 166.973 87.6214 166.69 87.4756C166.412 87.3298 166.059 87.2568 165.631 87.2568C165.225 87.2568 164.888 87.3184 164.619 87.4414C164.35 87.5645 164.15 87.7308 164.018 87.9404C163.885 88.1501 163.819 88.387 163.819 88.6514C163.819 88.8382 163.863 89.0091 163.949 89.1641C164.036 89.3145 164.168 89.4557 164.346 89.5879C164.523 89.7155 164.747 89.8363 165.016 89.9502C165.285 90.0641 165.601 90.1735 165.966 90.2783C166.517 90.4424 166.998 90.6247 167.408 90.8252C167.818 91.0212 168.16 91.2445 168.434 91.4951C168.707 91.7458 168.912 92.0306 169.049 92.3496C169.186 92.6641 169.254 93.0218 169.254 93.4229C169.254 93.8421 169.17 94.2204 169.001 94.5576C168.832 94.8903 168.591 95.1751 168.276 95.4121C167.966 95.6445 167.593 95.8245 167.155 95.9521C166.722 96.0752 166.239 96.1367 165.706 96.1367C165.228 96.1367 164.756 96.0729 164.291 95.9453C163.831 95.8177 163.411 95.624 163.033 95.3643C162.655 95.0999 162.354 94.7718 162.131 94.3799C161.908 93.9834 161.796 93.5208 161.796 92.9922H163.512C163.512 93.3158 163.566 93.5915 163.676 93.8193C163.79 94.0472 163.947 94.234 164.147 94.3799C164.348 94.5212 164.58 94.626 164.845 94.6943C165.114 94.7627 165.401 94.7969 165.706 94.7969C166.107 94.7969 166.442 94.7399 166.711 94.626C166.984 94.512 167.189 94.3525 167.326 94.1475C167.463 93.9424 167.531 93.7054 167.531 93.4365ZM175.058 94.2568V88.6035H176.712V96H175.153L175.058 94.2568ZM175.29 92.7188L175.844 92.7051C175.844 93.2018 175.789 93.6598 175.68 94.0791C175.57 94.4938 175.402 94.8561 175.174 95.166C174.946 95.4714 174.654 95.7106 174.299 95.8838C173.943 96.0524 173.517 96.1367 173.021 96.1367C172.66 96.1367 172.33 96.0843 172.029 95.9795C171.729 95.8747 171.469 95.7129 171.25 95.4941C171.036 95.2754 170.869 94.9906 170.751 94.6396C170.632 94.2887 170.573 93.8695 170.573 93.3818V88.6035H172.221V93.3955C172.221 93.6644 172.253 93.89 172.316 94.0723C172.38 94.25 172.467 94.3936 172.576 94.5029C172.686 94.6123 172.813 94.6898 172.959 94.7354C173.105 94.7809 173.26 94.8037 173.424 94.8037C173.893 94.8037 174.262 94.7126 174.531 94.5303C174.805 94.3434 174.998 94.0928 175.112 93.7783C175.231 93.4639 175.29 93.1107 175.29 92.7188ZM180.055 90.0254V98.8438H178.407V88.6035H179.925L180.055 90.0254ZM184.874 92.2334V92.377C184.874 92.9147 184.81 93.4137 184.683 93.874C184.56 94.3298 184.375 94.7285 184.129 95.0703C183.887 95.4076 183.589 95.6696 183.233 95.8564C182.878 96.0433 182.468 96.1367 182.003 96.1367C181.543 96.1367 181.139 96.0524 180.793 95.8838C180.451 95.7106 180.162 95.4668 179.925 95.1523C179.688 94.8379 179.496 94.4688 179.351 94.0449C179.209 93.6165 179.109 93.1471 179.05 92.6367V92.083C179.109 91.5407 179.209 91.0485 179.351 90.6064C179.496 90.1644 179.688 89.7839 179.925 89.4648C180.162 89.1458 180.451 88.8997 180.793 88.7266C181.135 88.5534 181.534 88.4668 181.989 88.4668C182.454 88.4668 182.867 88.5579 183.227 88.7402C183.587 88.918 183.89 89.1732 184.136 89.5059C184.382 89.834 184.566 90.2305 184.689 90.6953C184.812 91.1556 184.874 91.6683 184.874 92.2334ZM183.227 92.377V92.2334C183.227 91.8916 183.195 91.5749 183.131 91.2832C183.067 90.987 182.967 90.7272 182.83 90.5039C182.693 90.2806 182.518 90.1074 182.304 89.9844C182.094 89.8568 181.841 89.793 181.545 89.793C181.253 89.793 181.003 89.8431 180.793 89.9434C180.583 90.0391 180.408 90.1735 180.267 90.3467C180.125 90.5199 180.016 90.7227 179.938 90.9551C179.861 91.1829 179.806 91.4313 179.774 91.7002V93.0264C179.829 93.3545 179.923 93.6553 180.055 93.9287C180.187 94.2021 180.374 94.4209 180.615 94.585C180.861 94.7445 181.176 94.8242 181.559 94.8242C181.855 94.8242 182.108 94.7604 182.317 94.6328C182.527 94.5052 182.698 94.3298 182.83 94.1064C182.967 93.8786 183.067 93.6165 183.131 93.3203C183.195 93.0241 183.227 92.7096 183.227 92.377ZM187.93 90.0254V98.8438H186.282V88.6035H187.8L187.93 90.0254ZM192.749 92.2334V92.377C192.749 92.9147 192.685 93.4137 192.558 93.874C192.435 94.3298 192.25 94.7285 192.004 95.0703C191.762 95.4076 191.464 95.6696 191.108 95.8564C190.753 96.0433 190.343 96.1367 189.878 96.1367C189.418 96.1367 189.014 96.0524 188.668 95.8838C188.326 95.7106 188.037 95.4668 187.8 95.1523C187.563 94.8379 187.371 94.4688 187.226 94.0449C187.084 93.6165 186.984 93.1471 186.925 92.6367V92.083C186.984 91.5407 187.084 91.0485 187.226 90.6064C187.371 90.1644 187.563 89.7839 187.8 89.4648C188.037 89.1458 188.326 88.8997 188.668 88.7266C189.01 88.5534 189.409 88.4668 189.864 88.4668C190.329 88.4668 190.742 88.5579 191.102 88.7402C191.462 88.918 191.765 89.1732 192.011 89.5059C192.257 89.834 192.441 90.2305 192.564 90.6953C192.688 91.1556 192.749 91.6683 192.749 92.2334ZM191.102 92.377V92.2334C191.102 91.8916 191.07 91.5749 191.006 91.2832C190.942 90.987 190.842 90.7272 190.705 90.5039C190.568 90.2806 190.393 90.1074 190.179 89.9844C189.969 89.8568 189.716 89.793 189.42 89.793C189.128 89.793 188.878 89.8431 188.668 89.9434C188.458 90.0391 188.283 90.1735 188.142 90.3467C188 90.5199 187.891 90.7227 187.813 90.9551C187.736 91.1829 187.681 91.4313 187.649 91.7002V93.0264C187.704 93.3545 187.798 93.6553 187.93 93.9287C188.062 94.2021 188.249 94.4209 188.49 94.585C188.736 94.7445 189.051 94.8242 189.434 94.8242C189.73 94.8242 189.983 94.7604 190.192 94.6328C190.402 94.5052 190.573 94.3298 190.705 94.1064C190.842 93.8786 190.942 93.6165 191.006 93.3203C191.07 93.0241 191.102 92.7096 191.102 92.377ZM193.836 92.3838V92.2266C193.836 91.6934 193.913 91.1989 194.068 90.7432C194.223 90.2829 194.447 89.8841 194.738 89.5469C195.035 89.2051 195.395 88.9408 195.818 88.7539C196.247 88.5625 196.73 88.4668 197.268 88.4668C197.81 88.4668 198.293 88.5625 198.717 88.7539C199.145 88.9408 199.507 89.2051 199.804 89.5469C200.1 89.8841 200.326 90.2829 200.48 90.7432C200.635 91.1989 200.713 91.6934 200.713 92.2266V92.3838C200.713 92.917 200.635 93.4115 200.48 93.8672C200.326 94.3229 200.1 94.7217 199.804 95.0635C199.507 95.4007 199.147 95.665 198.724 95.8564C198.3 96.0433 197.819 96.1367 197.281 96.1367C196.739 96.1367 196.254 96.0433 195.825 95.8564C195.401 95.665 195.041 95.4007 194.745 95.0635C194.449 94.7217 194.223 94.3229 194.068 93.8672C193.913 93.4115 193.836 92.917 193.836 92.3838ZM195.483 92.2266V92.3838C195.483 92.7165 195.518 93.0309 195.586 93.3271C195.654 93.6234 195.761 93.8831 195.907 94.1064C196.053 94.3298 196.24 94.5052 196.468 94.6328C196.696 94.7604 196.967 94.8242 197.281 94.8242C197.587 94.8242 197.851 94.7604 198.074 94.6328C198.302 94.5052 198.489 94.3298 198.635 94.1064C198.781 93.8831 198.888 93.6234 198.956 93.3271C199.029 93.0309 199.065 92.7165 199.065 92.3838V92.2266C199.065 91.8984 199.029 91.5885 198.956 91.2969C198.888 91.0007 198.778 90.7386 198.628 90.5107C198.482 90.2829 198.295 90.1051 198.067 89.9775C197.844 89.8454 197.577 89.7793 197.268 89.7793C196.958 89.7793 196.689 89.8454 196.461 89.9775C196.238 90.1051 196.053 90.2829 195.907 90.5107C195.761 90.7386 195.654 91.0007 195.586 91.2969C195.518 91.5885 195.483 91.8984 195.483 92.2266ZM203.748 90.0117V96H202.101V88.6035H203.673L203.748 90.0117ZM206.011 88.5557L205.997 90.0869C205.897 90.0687 205.787 90.055 205.669 90.0459C205.555 90.0368 205.441 90.0322 205.327 90.0322C205.045 90.0322 204.796 90.0732 204.582 90.1553C204.368 90.2327 204.188 90.3467 204.042 90.4971C203.901 90.6429 203.791 90.8206 203.714 91.0303C203.636 91.2399 203.591 91.4746 203.577 91.7344L203.201 91.7617C203.201 91.2969 203.247 90.8662 203.338 90.4697C203.429 90.0732 203.566 89.7246 203.748 89.4238C203.935 89.123 204.167 88.8883 204.445 88.7197C204.728 88.5511 205.054 88.4668 205.423 88.4668C205.523 88.4668 205.63 88.4759 205.744 88.4941C205.863 88.5124 205.951 88.5329 206.011 88.5557ZM210.775 88.6035V89.8066H206.605V88.6035H210.775ZM207.809 86.792H209.456V93.9561C209.456 94.1839 209.488 94.3594 209.552 94.4824C209.62 94.6009 209.714 94.6807 209.832 94.7217C209.951 94.7627 210.09 94.7832 210.249 94.7832C210.363 94.7832 210.472 94.7764 210.577 94.7627C210.682 94.749 210.766 94.7354 210.83 94.7217L210.837 95.9795C210.7 96.0205 210.541 96.057 210.358 96.0889C210.181 96.1208 209.976 96.1367 209.743 96.1367C209.365 96.1367 209.03 96.0706 208.738 95.9385C208.447 95.8018 208.219 95.5807 208.055 95.2754C207.891 94.9701 207.809 94.5645 207.809 94.0586V86.792ZM215.308 96.1367C214.761 96.1367 214.266 96.0479 213.824 95.8701C213.387 95.6878 213.013 95.4349 212.703 95.1113C212.398 94.7878 212.163 94.4072 211.999 93.9697C211.835 93.5322 211.753 93.0605 211.753 92.5547V92.2812C211.753 91.7025 211.837 91.1784 212.006 90.709C212.174 90.2396 212.409 89.8385 212.71 89.5059C213.011 89.1686 213.366 88.9111 213.776 88.7334C214.187 88.5557 214.631 88.4668 215.109 88.4668C215.638 88.4668 216.101 88.5557 216.497 88.7334C216.894 88.9111 217.222 89.1618 217.481 89.4854C217.746 89.8044 217.942 90.1849 218.069 90.627C218.201 91.069 218.268 91.5566 218.268 92.0898V92.7939H212.553V91.6113H216.641V91.4814C216.632 91.1852 216.572 90.9072 216.463 90.6475C216.358 90.3877 216.196 90.1781 215.978 90.0186C215.759 89.859 215.467 89.7793 215.103 89.7793C214.829 89.7793 214.585 89.8385 214.371 89.957C214.161 90.071 213.986 90.2373 213.845 90.4561C213.703 90.6748 213.594 90.9391 213.517 91.249C213.444 91.5544 213.407 91.8984 213.407 92.2812V92.5547C213.407 92.8783 213.451 93.179 213.537 93.457C213.628 93.7305 213.76 93.9697 213.934 94.1748C214.107 94.3799 214.316 94.5417 214.562 94.6602C214.809 94.7741 215.089 94.8311 215.403 94.8311C215.8 94.8311 216.153 94.7513 216.463 94.5918C216.773 94.4323 217.042 94.2067 217.27 93.915L218.138 94.7559C217.978 94.9883 217.771 95.2116 217.516 95.4258C217.26 95.6354 216.948 95.8063 216.579 95.9385C216.215 96.0706 215.791 96.1367 215.308 96.1367ZM224.064 94.4688V85.5H225.719V96H224.222L224.064 94.4688ZM219.252 92.3838V92.2402C219.252 91.6797 219.318 91.1693 219.45 90.709C219.582 90.2441 219.774 89.8454 220.024 89.5127C220.275 89.1755 220.58 88.918 220.94 88.7402C221.3 88.5579 221.706 88.4668 222.157 88.4668C222.604 88.4668 222.996 88.5534 223.333 88.7266C223.67 88.8997 223.957 89.1481 224.194 89.4717C224.431 89.7907 224.62 90.1735 224.762 90.6201C224.903 91.0622 225.003 91.5544 225.062 92.0967V92.5547C225.003 93.0833 224.903 93.5664 224.762 94.0039C224.62 94.4414 224.431 94.8197 224.194 95.1387C223.957 95.4577 223.668 95.7038 223.326 95.877C222.989 96.0501 222.595 96.1367 222.144 96.1367C221.697 96.1367 221.294 96.0433 220.934 95.8564C220.578 95.6696 220.275 95.4076 220.024 95.0703C219.774 94.7331 219.582 94.3366 219.45 93.8809C219.318 93.4206 219.252 92.9215 219.252 92.3838ZM220.899 92.2402V92.3838C220.899 92.721 220.929 93.0355 220.988 93.3271C221.052 93.6188 221.15 93.8763 221.282 94.0996C221.414 94.3184 221.585 94.4915 221.795 94.6191C222.009 94.7422 222.264 94.8037 222.561 94.8037C222.934 94.8037 223.242 94.7217 223.483 94.5576C223.725 94.3936 223.914 94.1725 224.051 93.8945C224.192 93.612 224.288 93.2975 224.338 92.9512V91.7139C224.311 91.445 224.254 91.1943 224.167 90.9619C224.085 90.7295 223.973 90.5267 223.832 90.3535C223.691 90.1758 223.515 90.0391 223.306 89.9434C223.101 89.8431 222.857 89.793 222.574 89.793C222.273 89.793 222.018 89.8568 221.809 89.9844C221.599 90.112 221.426 90.2874 221.289 90.5107C221.157 90.734 221.059 90.9938 220.995 91.29C220.931 91.5863 220.899 91.903 220.899 92.2402ZM234.824 91.502H232.288L232.274 90.251H234.489C234.863 90.251 235.18 90.1963 235.439 90.0869C235.704 89.973 235.904 89.8112 236.041 89.6016C236.178 89.3874 236.246 89.1299 236.246 88.8291C236.246 88.4964 236.182 88.2253 236.055 88.0156C235.927 87.806 235.731 87.6533 235.467 87.5576C235.207 87.4619 234.874 87.4141 234.469 87.4141H232.808V96H231.092V86.0469H234.469C235.016 86.0469 235.503 86.0993 235.932 86.2041C236.365 86.3089 236.731 86.473 237.032 86.6963C237.338 86.915 237.568 87.193 237.723 87.5303C237.882 87.8675 237.962 88.2686 237.962 88.7334C237.962 89.1436 237.864 89.5195 237.668 89.8613C237.472 90.1986 237.183 90.4743 236.8 90.6885C236.417 90.9027 235.941 91.0303 235.371 91.0713L234.824 91.502ZM234.749 96H231.748L232.521 94.6396H234.749C235.136 94.6396 235.46 94.5758 235.72 94.4482C235.979 94.3161 236.173 94.1361 236.301 93.9082C236.433 93.6758 236.499 93.4046 236.499 93.0947C236.499 92.7712 236.442 92.4909 236.328 92.2539C236.214 92.0124 236.034 91.8278 235.788 91.7002C235.542 91.568 235.221 91.502 234.824 91.502H232.896L232.91 90.251H235.419L235.809 90.7227C236.355 90.7409 236.804 90.8617 237.155 91.085C237.511 91.3083 237.775 91.5977 237.948 91.9531C238.121 92.3086 238.208 92.6914 238.208 93.1016C238.208 93.735 238.069 94.266 237.791 94.6943C237.518 95.1227 237.123 95.4486 236.608 95.6719C236.093 95.8906 235.474 96 234.749 96ZM241.92 95.1934L243.93 88.6035H245.693L242.727 97.1279C242.658 97.3102 242.569 97.5085 242.46 97.7227C242.351 97.9368 242.207 98.1396 242.029 98.3311C241.856 98.527 241.64 98.6842 241.38 98.8027C241.12 98.9258 240.806 98.9873 240.437 98.9873C240.291 98.9873 240.149 98.9736 240.013 98.9463C239.881 98.9235 239.755 98.8984 239.637 98.8711L239.63 97.6133C239.675 97.6178 239.73 97.6224 239.794 97.627C239.862 97.6315 239.917 97.6338 239.958 97.6338C240.231 97.6338 240.459 97.5996 240.642 97.5312C240.824 97.4674 240.972 97.3626 241.086 97.2168C241.204 97.071 241.305 96.875 241.387 96.6289L241.92 95.1934ZM240.785 88.6035L242.542 94.1406L242.836 95.877L241.694 96.1709L239.008 88.6035H240.785ZM254.067 92.2881H251.477V90.9277H254.067C254.519 90.9277 254.883 90.8548 255.161 90.709C255.439 90.5632 255.642 90.3626 255.77 90.1074C255.902 89.8477 255.968 89.5514 255.968 89.2188C255.968 88.9043 255.902 88.6104 255.77 88.3369C255.642 88.0589 255.439 87.8356 255.161 87.667C254.883 87.4984 254.519 87.4141 254.067 87.4141H252.003V96H250.287V86.0469H254.067C254.838 86.0469 255.492 86.1836 256.029 86.457C256.572 86.7259 256.984 87.0996 257.267 87.5781C257.549 88.0521 257.69 88.5944 257.69 89.2051C257.69 89.8477 257.549 90.3991 257.267 90.8594C256.984 91.3197 256.572 91.6729 256.029 91.9189C255.492 92.165 254.838 92.2881 254.067 92.2881ZM263.152 94.5166V90.9893C263.152 90.7249 263.104 90.4971 263.009 90.3057C262.913 90.1143 262.767 89.9661 262.571 89.8613C262.38 89.7565 262.138 89.7041 261.847 89.7041C261.578 89.7041 261.345 89.7497 261.149 89.8408C260.953 89.932 260.801 90.055 260.691 90.21C260.582 90.3649 260.527 90.5404 260.527 90.7363H258.887C258.887 90.4447 258.957 90.1621 259.099 89.8887C259.24 89.6152 259.445 89.3714 259.714 89.1572C259.983 88.943 260.304 88.7744 260.678 88.6514C261.051 88.5283 261.471 88.4668 261.936 88.4668C262.492 88.4668 262.984 88.5602 263.412 88.7471C263.845 88.9339 264.185 89.2165 264.431 89.5947C264.681 89.9684 264.807 90.4378 264.807 91.0029V94.291C264.807 94.6283 264.829 94.9313 264.875 95.2002C264.925 95.4645 264.996 95.6947 265.087 95.8906V96H263.398C263.321 95.8223 263.259 95.5967 263.214 95.3232C263.173 95.0452 263.152 94.7764 263.152 94.5166ZM263.392 91.502L263.405 92.5205H262.223C261.917 92.5205 261.648 92.5501 261.416 92.6094C261.184 92.6641 260.99 92.7461 260.835 92.8555C260.68 92.9648 260.564 93.097 260.486 93.252C260.409 93.4069 260.37 93.5824 260.37 93.7783C260.37 93.9743 260.416 94.1543 260.507 94.3184C260.598 94.4779 260.73 94.6032 260.903 94.6943C261.081 94.7855 261.295 94.8311 261.546 94.8311C261.883 94.8311 262.177 94.7627 262.428 94.626C262.683 94.4847 262.883 94.3138 263.029 94.1133C263.175 93.9082 263.253 93.7145 263.262 93.5322L263.795 94.2637C263.74 94.4505 263.647 94.651 263.515 94.8652C263.382 95.0794 263.209 95.2845 262.995 95.4805C262.785 95.6719 262.533 95.8291 262.236 95.9521C261.945 96.0752 261.607 96.1367 261.225 96.1367C260.742 96.1367 260.311 96.041 259.933 95.8496C259.554 95.6536 259.258 95.3916 259.044 95.0635C258.83 94.7308 258.723 94.3548 258.723 93.9355C258.723 93.5436 258.796 93.1973 258.941 92.8965C259.092 92.5911 259.311 92.3359 259.598 92.1309C259.889 91.9258 260.245 91.7708 260.664 91.666C261.083 91.5566 261.562 91.502 262.1 91.502H263.392ZM271.267 88.6035H272.764V95.7949C272.764 96.4603 272.622 97.0254 272.34 97.4902C272.057 97.9551 271.663 98.3083 271.157 98.5498C270.651 98.7959 270.066 98.9189 269.4 98.9189C269.118 98.9189 268.803 98.8779 268.457 98.7959C268.115 98.7139 267.783 98.5817 267.459 98.3994C267.14 98.2217 266.873 97.987 266.659 97.6953L267.432 96.7246C267.696 97.0391 267.988 97.2692 268.307 97.415C268.626 97.5609 268.961 97.6338 269.312 97.6338C269.69 97.6338 270.011 97.5632 270.275 97.4219C270.544 97.2852 270.752 97.0824 270.897 96.8135C271.043 96.5446 271.116 96.2165 271.116 95.8291V90.2783L271.267 88.6035ZM266.242 92.3838V92.2402C266.242 91.6797 266.311 91.1693 266.447 90.709C266.584 90.2441 266.78 89.8454 267.035 89.5127C267.29 89.1755 267.6 88.918 267.965 88.7402C268.329 88.5579 268.742 88.4668 269.202 88.4668C269.681 88.4668 270.089 88.5534 270.426 88.7266C270.768 88.8997 271.052 89.1481 271.28 89.4717C271.508 89.7907 271.686 90.1735 271.813 90.6201C271.946 91.0622 272.044 91.5544 272.107 92.0967V92.5547C272.048 93.0833 271.948 93.5664 271.807 94.0039C271.665 94.4414 271.479 94.8197 271.246 95.1387C271.014 95.4577 270.727 95.7038 270.385 95.877C270.048 96.0501 269.649 96.1367 269.188 96.1367C268.737 96.1367 268.329 96.0433 267.965 95.8564C267.605 95.6696 267.295 95.4076 267.035 95.0703C266.78 94.7331 266.584 94.3366 266.447 93.8809C266.311 93.4206 266.242 92.9215 266.242 92.3838ZM267.89 92.2402V92.3838C267.89 92.721 267.922 93.0355 267.985 93.3271C268.054 93.6188 268.156 93.8763 268.293 94.0996C268.434 94.3184 268.612 94.4915 268.826 94.6191C269.045 94.7422 269.302 94.8037 269.599 94.8037C269.986 94.8037 270.303 94.7217 270.549 94.5576C270.799 94.3936 270.991 94.1725 271.123 93.8945C271.26 93.612 271.355 93.2975 271.41 92.9512V91.7139C271.383 91.445 271.326 91.1943 271.239 90.9619C271.157 90.7295 271.046 90.5267 270.904 90.3535C270.763 90.1758 270.585 90.0391 270.371 89.9434C270.157 89.8431 269.904 89.793 269.612 89.793C269.316 89.793 269.059 89.8568 268.84 89.9844C268.621 90.112 268.441 90.2874 268.3 90.5107C268.163 90.734 268.061 90.9938 267.992 91.29C267.924 91.5863 267.89 91.903 267.89 92.2402ZM277.733 96.1367C277.187 96.1367 276.692 96.0479 276.25 95.8701C275.812 95.6878 275.439 95.4349 275.129 95.1113C274.824 94.7878 274.589 94.4072 274.425 93.9697C274.261 93.5322 274.179 93.0605 274.179 92.5547V92.2812C274.179 91.7025 274.263 91.1784 274.432 90.709C274.6 90.2396 274.835 89.8385 275.136 89.5059C275.437 89.1686 275.792 88.9111 276.202 88.7334C276.612 88.5557 277.057 88.4668 277.535 88.4668C278.064 88.4668 278.526 88.5557 278.923 88.7334C279.319 88.9111 279.647 89.1618 279.907 89.4854C280.172 89.8044 280.368 90.1849 280.495 90.627C280.627 91.069 280.693 91.5566 280.693 92.0898V92.7939H274.979V91.6113H279.066V91.4814C279.057 91.1852 278.998 90.9072 278.889 90.6475C278.784 90.3877 278.622 90.1781 278.403 90.0186C278.185 89.859 277.893 89.7793 277.528 89.7793C277.255 89.7793 277.011 89.8385 276.797 89.957C276.587 90.071 276.412 90.2373 276.271 90.4561C276.129 90.6748 276.02 90.9391 275.942 91.249C275.869 91.5544 275.833 91.8984 275.833 92.2812V92.5547C275.833 92.8783 275.876 93.179 275.963 93.457C276.054 93.7305 276.186 93.9697 276.359 94.1748C276.533 94.3799 276.742 94.5417 276.988 94.6602C277.234 94.7741 277.515 94.8311 277.829 94.8311C278.226 94.8311 278.579 94.7513 278.889 94.5918C279.199 94.4323 279.467 94.2067 279.695 93.915L280.563 94.7559C280.404 94.9883 280.197 95.2116 279.941 95.4258C279.686 95.6354 279.374 95.8063 279.005 95.9385C278.64 96.0706 278.216 96.1367 277.733 96.1367ZM286.148 94.5166V90.9893C286.148 90.7249 286.101 90.4971 286.005 90.3057C285.909 90.1143 285.763 89.9661 285.567 89.8613C285.376 89.7565 285.134 89.7041 284.843 89.7041C284.574 89.7041 284.341 89.7497 284.146 89.8408C283.95 89.932 283.797 90.055 283.688 90.21C283.578 90.3649 283.523 90.5404 283.523 90.7363H281.883C281.883 90.4447 281.953 90.1621 282.095 89.8887C282.236 89.6152 282.441 89.3714 282.71 89.1572C282.979 88.943 283.3 88.7744 283.674 88.6514C284.048 88.5283 284.467 88.4668 284.932 88.4668C285.488 88.4668 285.98 88.5602 286.408 88.7471C286.841 88.9339 287.181 89.2165 287.427 89.5947C287.677 89.9684 287.803 90.4378 287.803 91.0029V94.291C287.803 94.6283 287.826 94.9313 287.871 95.2002C287.921 95.4645 287.992 95.6947 288.083 95.8906V96H286.395C286.317 95.8223 286.256 95.5967 286.21 95.3232C286.169 95.0452 286.148 94.7764 286.148 94.5166ZM286.388 91.502L286.401 92.5205H285.219C284.913 92.5205 284.645 92.5501 284.412 92.6094C284.18 92.6641 283.986 92.7461 283.831 92.8555C283.676 92.9648 283.56 93.097 283.482 93.252C283.405 93.4069 283.366 93.5824 283.366 93.7783C283.366 93.9743 283.412 94.1543 283.503 94.3184C283.594 94.4779 283.726 94.6032 283.899 94.6943C284.077 94.7855 284.291 94.8311 284.542 94.8311C284.879 94.8311 285.173 94.7627 285.424 94.626C285.679 94.4847 285.88 94.3138 286.025 94.1133C286.171 93.9082 286.249 93.7145 286.258 93.5322L286.791 94.2637C286.736 94.4505 286.643 94.651 286.511 94.8652C286.379 95.0794 286.205 95.2845 285.991 95.4805C285.782 95.6719 285.529 95.8291 285.232 95.9521C284.941 96.0752 284.604 96.1367 284.221 96.1367C283.738 96.1367 283.307 96.041 282.929 95.8496C282.55 95.6536 282.254 95.3916 282.04 95.0635C281.826 94.7308 281.719 94.3548 281.719 93.9355C281.719 93.5436 281.792 93.1973 281.938 92.8965C282.088 92.5911 282.307 92.3359 282.594 92.1309C282.885 91.9258 283.241 91.7708 283.66 91.666C284.079 91.5566 284.558 91.502 285.096 91.502H286.388ZM291.159 90.1826V96H289.512V88.6035H291.063L291.159 90.1826ZM290.865 92.0283L290.332 92.0215C290.337 91.4974 290.41 91.0166 290.551 90.5791C290.697 90.1416 290.897 89.7656 291.152 89.4512C291.412 89.1367 291.722 88.8952 292.082 88.7266C292.442 88.5534 292.843 88.4668 293.285 88.4668C293.641 88.4668 293.962 88.5169 294.249 88.6172C294.541 88.7129 294.789 88.8701 294.994 89.0889C295.204 89.3076 295.363 89.5924 295.473 89.9434C295.582 90.2897 295.637 90.7158 295.637 91.2217V96H293.982V91.2148C293.982 90.8594 293.93 90.5791 293.825 90.374C293.725 90.1644 293.577 90.0163 293.381 89.9297C293.189 89.8385 292.95 89.793 292.663 89.793C292.381 89.793 292.128 89.8522 291.904 89.9707C291.681 90.0892 291.492 90.251 291.337 90.4561C291.187 90.6611 291.07 90.8981 290.988 91.167C290.906 91.4359 290.865 91.723 290.865 92.0283ZM300.709 88.6035V89.8066H296.539V88.6035H300.709ZM297.742 86.792H299.39V93.9561C299.39 94.1839 299.422 94.3594 299.485 94.4824C299.554 94.6009 299.647 94.6807 299.766 94.7217C299.884 94.7627 300.023 94.7832 300.183 94.7832C300.297 94.7832 300.406 94.7764 300.511 94.7627C300.616 94.749 300.7 94.7354 300.764 94.7217L300.771 95.9795C300.634 96.0205 300.474 96.057 300.292 96.0889C300.114 96.1208 299.909 96.1367 299.677 96.1367C299.299 96.1367 298.964 96.0706 298.672 95.9385C298.38 95.8018 298.152 95.5807 297.988 95.2754C297.824 94.9701 297.742 94.5645 297.742 94.0586V86.792ZM309.411 92.2881H306.82V90.9277H309.411C309.862 90.9277 310.227 90.8548 310.505 90.709C310.783 90.5632 310.986 90.3626 311.113 90.1074C311.245 89.8477 311.312 89.5514 311.312 89.2188C311.312 88.9043 311.245 88.6104 311.113 88.3369C310.986 88.0589 310.783 87.8356 310.505 87.667C310.227 87.4984 309.862 87.4141 309.411 87.4141H307.347V96H305.631V86.0469H309.411C310.181 86.0469 310.835 86.1836 311.373 86.457C311.915 86.7259 312.328 87.0996 312.61 87.5781C312.893 88.0521 313.034 88.5944 313.034 89.2051C313.034 89.8477 312.893 90.3991 312.61 90.8594C312.328 91.3197 311.915 91.6729 311.373 91.9189C310.835 92.165 310.181 92.2881 309.411 92.2881ZM316.172 85.5V96H314.518V85.5H316.172ZM322.146 94.5166V90.9893C322.146 90.7249 322.099 90.4971 322.003 90.3057C321.907 90.1143 321.761 89.9661 321.565 89.8613C321.374 89.7565 321.132 89.7041 320.841 89.7041C320.572 89.7041 320.34 89.7497 320.144 89.8408C319.948 89.932 319.795 90.055 319.686 90.21C319.576 90.3649 319.521 90.5404 319.521 90.7363H317.881C317.881 90.4447 317.951 90.1621 318.093 89.8887C318.234 89.6152 318.439 89.3714 318.708 89.1572C318.977 88.943 319.298 88.7744 319.672 88.6514C320.046 88.5283 320.465 88.4668 320.93 88.4668C321.486 88.4668 321.978 88.5602 322.406 88.7471C322.839 88.9339 323.179 89.2165 323.425 89.5947C323.675 89.9684 323.801 90.4378 323.801 91.0029V94.291C323.801 94.6283 323.824 94.9313 323.869 95.2002C323.919 95.4645 323.99 95.6947 324.081 95.8906V96H322.393C322.315 95.8223 322.254 95.5967 322.208 95.3232C322.167 95.0452 322.146 94.7764 322.146 94.5166ZM322.386 91.502L322.399 92.5205H321.217C320.911 92.5205 320.643 92.5501 320.41 92.6094C320.178 92.6641 319.984 92.7461 319.829 92.8555C319.674 92.9648 319.558 93.097 319.48 93.252C319.403 93.4069 319.364 93.5824 319.364 93.7783C319.364 93.9743 319.41 94.1543 319.501 94.3184C319.592 94.4779 319.724 94.6032 319.897 94.6943C320.075 94.7855 320.289 94.8311 320.54 94.8311C320.877 94.8311 321.171 94.7627 321.422 94.626C321.677 94.4847 321.878 94.3138 322.023 94.1133C322.169 93.9082 322.247 93.7145 322.256 93.5322L322.789 94.2637C322.734 94.4505 322.641 94.651 322.509 94.8652C322.377 95.0794 322.203 95.2845 321.989 95.4805C321.78 95.6719 321.527 95.8291 321.23 95.9521C320.939 96.0752 320.602 96.1367 320.219 96.1367C319.736 96.1367 319.305 96.041 318.927 95.8496C318.549 95.6536 318.252 95.3916 318.038 95.0635C317.824 94.7308 317.717 94.3548 317.717 93.9355C317.717 93.5436 317.79 93.1973 317.936 92.8965C318.086 92.5911 318.305 92.3359 318.592 92.1309C318.883 91.9258 319.239 91.7708 319.658 91.666C320.077 91.5566 320.556 91.502 321.094 91.502H322.386ZM327.157 90.1826V96H325.51V88.6035H327.062L327.157 90.1826ZM326.863 92.0283L326.33 92.0215C326.335 91.4974 326.408 91.0166 326.549 90.5791C326.695 90.1416 326.895 89.7656 327.15 89.4512C327.41 89.1367 327.72 88.8952 328.08 88.7266C328.44 88.5534 328.841 88.4668 329.283 88.4668C329.639 88.4668 329.96 88.5169 330.247 88.6172C330.539 88.7129 330.787 88.8701 330.992 89.0889C331.202 89.3076 331.361 89.5924 331.471 89.9434C331.58 90.2897 331.635 90.7158 331.635 91.2217V96H329.98V91.2148C329.98 90.8594 329.928 90.5791 329.823 90.374C329.723 90.1644 329.575 90.0163 329.379 89.9297C329.188 89.8385 328.948 89.793 328.661 89.793C328.379 89.793 328.126 89.8522 327.902 89.9707C327.679 90.0892 327.49 90.251 327.335 90.4561C327.185 90.6611 327.068 90.8981 326.986 91.167C326.904 91.4359 326.863 91.723 326.863 92.0283ZM336.577 96.1367C336.03 96.1367 335.536 96.0479 335.094 95.8701C334.656 95.6878 334.283 95.4349 333.973 95.1113C333.667 94.7878 333.433 94.4072 333.269 93.9697C333.104 93.5322 333.022 93.0605 333.022 92.5547V92.2812C333.022 91.7025 333.107 91.1784 333.275 90.709C333.444 90.2396 333.679 89.8385 333.979 89.5059C334.28 89.1686 334.636 88.9111 335.046 88.7334C335.456 88.5557 335.9 88.4668 336.379 88.4668C336.908 88.4668 337.37 88.5557 337.767 88.7334C338.163 88.9111 338.491 89.1618 338.751 89.4854C339.015 89.8044 339.211 90.1849 339.339 90.627C339.471 91.069 339.537 91.5566 339.537 92.0898V92.7939H333.822V91.6113H337.91V91.4814C337.901 91.1852 337.842 90.9072 337.732 90.6475C337.628 90.3877 337.466 90.1781 337.247 90.0186C337.028 89.859 336.737 89.7793 336.372 89.7793C336.099 89.7793 335.855 89.8385 335.641 89.957C335.431 90.071 335.256 90.2373 335.114 90.4561C334.973 90.6748 334.864 90.9391 334.786 91.249C334.713 91.5544 334.677 91.8984 334.677 92.2812V92.5547C334.677 92.8783 334.72 93.179 334.807 93.457C334.898 93.7305 335.03 93.9697 335.203 94.1748C335.376 94.3799 335.586 94.5417 335.832 94.6602C336.078 94.7741 336.358 94.8311 336.673 94.8311C337.069 94.8311 337.423 94.7513 337.732 94.5918C338.042 94.4323 338.311 94.2067 338.539 93.915L339.407 94.7559C339.248 94.9883 339.04 95.2116 338.785 95.4258C338.53 95.6354 338.218 95.8063 337.849 95.9385C337.484 96.0706 337.06 96.1367 336.577 96.1367ZM344.213 88.6035V89.8066H340.043V88.6035H344.213ZM341.246 86.792H342.894V93.9561C342.894 94.1839 342.925 94.3594 342.989 94.4824C343.058 94.6009 343.151 94.6807 343.27 94.7217C343.388 94.7627 343.527 94.7832 343.687 94.7832C343.8 94.7832 343.91 94.7764 344.015 94.7627C344.119 94.749 344.204 94.7354 344.268 94.7217L344.274 95.9795C344.138 96.0205 343.978 96.057 343.796 96.0889C343.618 96.1208 343.413 96.1367 343.181 96.1367C342.802 96.1367 342.467 96.0706 342.176 95.9385C341.884 95.8018 341.656 95.5807 341.492 95.2754C341.328 94.9701 341.246 94.5645 341.246 94.0586V86.792Z" fill="white"/>
</svg>
