<svg width="12" height="12" viewBox="0 0 12 12" fill="none" xmlns="http://www.w3.org/2000/svg">
<path d="M6 1C3.24298 1 1 3.24298 1 6C1 8.75702 3.24298 11 6 11C8.75702 11 11 8.75702 11 6C11 3.24298 8.75702 1 6 1ZM6 10.4382C3.55277 10.4382 1.5618 8.44723 1.5618 6C1.5618 3.55277 3.55277 1.5618 6 1.5618C8.44723 1.5618 10.4382 3.55277 10.4382 6C10.4382 8.44723 8.44723 10.4382 6 10.4382ZM6 2.2173C5.84482 2.2173 5.7191 2.34301 5.7191 2.49819V5.7193H3.24719C3.09201 5.7193 2.96629 5.84502 2.96629 6.0002C2.96629 6.15539 3.09201 6.2811 3.24719 6.2811H6C6.15518 6.2811 6.2809 6.15539 6.2809 6.0002V2.49819C6.2809 2.34317 6.15518 2.2173 6 2.2173Z" fill="#E6427A" stroke="#E6427A" stroke-width="0.3"/>
</svg>
