<svg width="60" height="68" viewBox="0 0 60 68" fill="none" xmlns="http://www.w3.org/2000/svg">
<path d="M4.28568 0H40.6992L60 19.0656V63.75C60 66.0981 58.0801 68 55.7143 68H4.28568C1.9199 68 0 66.0981 0 63.75V4.24996C0 1.90192 1.92012 0 4.28568 0Z" fill="#EEC347"/>
<path d="M59.938 19.125H45C42.6343 19.125 40.7144 17.2211 40.7144 14.8751V0.0425262L59.938 19.125Z" fill="#D09233"/>
<path d="M16.4443 42.176V40.5211L22.3714 31.469H17.0031V29.176H25.7641V30.811L19.817 39.8831H25.804V42.176H16.4443Z" fill="white"/>
<path d="M28.0793 42.176V29.176H30.8134V42.176H28.0793Z" fill="white"/>
<path d="M33.965 42.176V29.176H38.3155C39.2734 29.176 40.1382 29.3023 40.9098 29.5549C41.6815 29.8074 42.2935 30.2394 42.7459 30.8509C43.2115 31.449 43.4443 32.2665 43.4443 33.3033C43.4443 34.3003 43.2182 35.1177 42.7658 35.7558C42.3135 36.3938 41.7015 36.8723 40.9298 37.1914C40.1715 37.4971 39.3266 37.65 38.3953 37.65H36.699V42.176H33.965ZM36.699 35.4567H38.2157C39.0805 35.4567 39.7191 35.2773 40.1315 34.9184C40.544 34.5462 40.7502 34.0078 40.7502 33.3033C40.7502 32.5722 40.524 32.0671 40.0717 31.788C39.6326 31.4956 38.9874 31.3493 38.1359 31.3493H36.699V35.4567Z" fill="white"/>
</svg>
