<svg width="16" height="16" viewBox="0 0 16 16" fill="none" xmlns="http://www.w3.org/2000/svg">
<circle cx="8" cy="8" r="8" fill="#707070"/>
<path d="M11.3722 10.5044C11.6178 10.7504 11.6178 11.1329 11.3722 11.3788C11.2493 11.5018 11.0992 11.5564 10.9354 11.5564C10.7716 11.5564 10.6215 11.5018 10.4986 11.3788L8.00087 8.87866L5.50311 11.3788C5.38027 11.5018 5.23013 11.5564 5.06634 11.5564C4.90255 11.5564 4.75241 11.5018 4.62957 11.3788C4.38389 11.1329 4.38389 10.7504 4.62957 10.5044L7.12733 8.00428L4.62957 5.50412C4.38389 5.25821 4.38389 4.87567 4.62957 4.62975C4.87525 4.38383 5.25743 4.38383 5.50311 4.62975L8.00087 7.12991L10.4986 4.62975C10.7443 4.38383 11.1265 4.38383 11.3722 4.62975C11.6178 4.87567 11.6178 5.25821 11.3722 5.50412L8.8744 8.00428L11.3722 10.5044Z" fill="white"/>
</svg>
