<svg width="343" height="92" viewBox="0 0 343 92" fill="none" xmlns="http://www.w3.org/2000/svg">
<rect width="343" height="92" rx="20" fill="#FFECF3"/>
<path d="M62.8877 62.373L59.9141 71H58.1162L61.8623 61.0469H63.0107L62.8877 62.373ZM65.376 71L62.3955 62.373L62.2656 61.0469H63.4209L67.1807 71H65.376ZM65.2324 67.3086V68.6689H59.8184V67.3086H65.2324ZM72.6426 69.4688V60.5H74.2969V71H72.7998L72.6426 69.4688ZM67.8301 67.3838V67.2402C67.8301 66.6797 67.8962 66.1693 68.0283 65.709C68.1605 65.2441 68.3519 64.8454 68.6025 64.5127C68.8532 64.1755 69.1585 63.918 69.5186 63.7402C69.8786 63.5579 70.2842 63.4668 70.7354 63.4668C71.182 63.4668 71.5739 63.5534 71.9111 63.7266C72.2484 63.8997 72.5355 64.1481 72.7725 64.4717C73.0094 64.7907 73.1986 65.1735 73.3398 65.6201C73.4811 66.0622 73.5814 66.5544 73.6406 67.0967V67.5547C73.5814 68.0833 73.4811 68.5664 73.3398 69.0039C73.1986 69.4414 73.0094 69.8197 72.7725 70.1387C72.5355 70.4577 72.2461 70.7038 71.9043 70.877C71.5671 71.0501 71.1729 71.1367 70.7217 71.1367C70.2751 71.1367 69.8717 71.0433 69.5117 70.8564C69.1562 70.6696 68.8532 70.4076 68.6025 70.0703C68.3519 69.7331 68.1605 69.3366 68.0283 68.8809C67.8962 68.4206 67.8301 67.9215 67.8301 67.3838ZM69.4775 67.2402V67.3838C69.4775 67.721 69.5072 68.0355 69.5664 68.3271C69.6302 68.6188 69.7282 68.8763 69.8604 69.0996C69.9925 69.3184 70.1634 69.4915 70.373 69.6191C70.5872 69.7422 70.8424 69.8037 71.1387 69.8037C71.5124 69.8037 71.82 69.7217 72.0615 69.5576C72.3031 69.3936 72.4922 69.1725 72.6289 68.8945C72.7702 68.612 72.8659 68.2975 72.916 67.9512V66.7139C72.8887 66.445 72.8317 66.1943 72.7451 65.9619C72.6631 65.7295 72.5514 65.5267 72.4102 65.3535C72.2689 65.1758 72.0934 65.0391 71.8838 64.9434C71.6787 64.8431 71.4349 64.793 71.1523 64.793C70.8516 64.793 70.5964 64.8568 70.3867 64.9844C70.1771 65.112 70.0039 65.2874 69.8672 65.5107C69.735 65.734 69.637 65.9938 69.5732 66.29C69.5094 66.5863 69.4775 66.903 69.4775 67.2402ZM80.5312 69.4688V60.5H82.1855V71H80.6885L80.5312 69.4688ZM75.7188 67.3838V67.2402C75.7188 66.6797 75.7848 66.1693 75.917 65.709C76.0492 65.2441 76.2406 64.8454 76.4912 64.5127C76.7419 64.1755 77.0472 63.918 77.4072 63.7402C77.7673 63.5579 78.1729 63.4668 78.624 63.4668C79.0706 63.4668 79.4626 63.5534 79.7998 63.7266C80.137 63.8997 80.4242 64.1481 80.6611 64.4717C80.8981 64.7907 81.0872 65.1735 81.2285 65.6201C81.3698 66.0622 81.4701 66.5544 81.5293 67.0967V67.5547C81.4701 68.0833 81.3698 68.5664 81.2285 69.0039C81.0872 69.4414 80.8981 69.8197 80.6611 70.1387C80.4242 70.4577 80.1348 70.7038 79.793 70.877C79.4557 71.0501 79.0615 71.1367 78.6104 71.1367C78.1637 71.1367 77.7604 71.0433 77.4004 70.8564C77.0449 70.6696 76.7419 70.4076 76.4912 70.0703C76.2406 69.7331 76.0492 69.3366 75.917 68.8809C75.7848 68.4206 75.7188 67.9215 75.7188 67.3838ZM77.3662 67.2402V67.3838C77.3662 67.721 77.3958 68.0355 77.4551 68.3271C77.5189 68.6188 77.6169 68.8763 77.749 69.0996C77.8812 69.3184 78.0521 69.4915 78.2617 69.6191C78.4759 69.7422 78.7311 69.8037 79.0273 69.8037C79.401 69.8037 79.7087 69.7217 79.9502 69.5576C80.1917 69.3936 80.3809 69.1725 80.5176 68.8945C80.6589 68.612 80.7546 68.2975 80.8047 67.9512V66.7139C80.7773 66.445 80.7204 66.1943 80.6338 65.9619C80.5518 65.7295 80.4401 65.5267 80.2988 65.3535C80.1576 65.1758 79.9821 65.0391 79.7725 64.9434C79.5674 64.8431 79.3236 64.793 79.041 64.793C78.7402 64.793 78.485 64.8568 78.2754 64.9844C78.0658 65.112 77.8926 65.2874 77.7559 65.5107C77.6237 65.734 77.5257 65.9938 77.4619 66.29C77.3981 66.5863 77.3662 66.903 77.3662 67.2402ZM90.4502 71H88.3242L88.3379 69.6396H90.4502C91.0654 69.6396 91.5804 69.5052 91.9951 69.2363C92.4144 68.9674 92.7288 68.5824 92.9385 68.0811C93.1527 67.5798 93.2598 66.9827 93.2598 66.29V65.75C93.2598 65.2122 93.1982 64.736 93.0752 64.3213C92.9567 63.9066 92.779 63.5579 92.542 63.2754C92.3096 62.9928 92.0225 62.7786 91.6807 62.6328C91.3434 62.487 90.9538 62.4141 90.5117 62.4141H88.2832V61.0469H90.5117C91.1725 61.0469 91.7764 61.1585 92.3232 61.3818C92.8701 61.6006 93.3418 61.9173 93.7383 62.332C94.1393 62.7467 94.4469 63.2435 94.6611 63.8223C94.8753 64.401 94.9824 65.0482 94.9824 65.7637V66.29C94.9824 67.0055 94.8753 67.6527 94.6611 68.2314C94.4469 68.8102 94.1393 69.307 93.7383 69.7217C93.3372 70.1318 92.8587 70.4486 92.3027 70.6719C91.7513 70.8906 91.1338 71 90.4502 71ZM89.2744 61.0469V71H87.5586V61.0469H89.2744ZM99.8018 71.1367C99.2549 71.1367 98.7604 71.0479 98.3184 70.8701C97.8809 70.6878 97.5072 70.4349 97.1973 70.1113C96.8919 69.7878 96.6572 69.4072 96.4932 68.9697C96.3291 68.5322 96.2471 68.0605 96.2471 67.5547V67.2812C96.2471 66.7025 96.3314 66.1784 96.5 65.709C96.6686 65.2396 96.9033 64.8385 97.2041 64.5059C97.5049 64.1686 97.8604 63.9111 98.2705 63.7334C98.6807 63.5557 99.125 63.4668 99.6035 63.4668C100.132 63.4668 100.595 63.5557 100.991 63.7334C101.388 63.9111 101.716 64.1618 101.976 64.4854C102.24 64.8044 102.436 65.1849 102.563 65.627C102.696 66.069 102.762 66.5566 102.762 67.0898V67.7939H97.0469V66.6113H101.135V66.4814C101.126 66.1852 101.066 65.9072 100.957 65.6475C100.852 65.3877 100.69 65.1781 100.472 65.0186C100.253 64.859 99.9613 64.7793 99.5967 64.7793C99.3232 64.7793 99.0794 64.8385 98.8652 64.957C98.6556 65.071 98.4801 65.2373 98.3389 65.4561C98.1976 65.6748 98.0882 65.9391 98.0107 66.249C97.9378 66.5544 97.9014 66.8984 97.9014 67.2812V67.5547C97.9014 67.8783 97.9447 68.179 98.0312 68.457C98.1224 68.7305 98.2546 68.9697 98.4277 69.1748C98.6009 69.3799 98.8105 69.5417 99.0566 69.6602C99.3027 69.7741 99.583 69.8311 99.8975 69.8311C100.294 69.8311 100.647 69.7513 100.957 69.5918C101.267 69.4323 101.536 69.2067 101.764 68.915L102.632 69.7559C102.472 69.9883 102.265 70.2116 102.01 70.4258C101.755 70.6354 101.442 70.8063 101.073 70.9385C100.709 71.0706 100.285 71.1367 99.8018 71.1367ZM107.438 63.6035V64.8066H103.268V63.6035H107.438ZM104.471 61.792H106.118V68.9561C106.118 69.1839 106.15 69.3594 106.214 69.4824C106.282 69.6009 106.376 69.6807 106.494 69.7217C106.613 69.7627 106.752 69.7832 106.911 69.7832C107.025 69.7832 107.134 69.7764 107.239 69.7627C107.344 69.749 107.428 69.7354 107.492 69.7217L107.499 70.9795C107.362 71.0205 107.203 71.057 107.021 71.0889C106.843 71.1208 106.638 71.1367 106.405 71.1367C106.027 71.1367 105.692 71.0706 105.4 70.9385C105.109 70.8018 104.881 70.5807 104.717 70.2754C104.553 69.9701 104.471 69.5645 104.471 69.0586V61.792ZM112.879 69.5166V65.9893C112.879 65.7249 112.831 65.4971 112.735 65.3057C112.64 65.1143 112.494 64.9661 112.298 64.8613C112.106 64.7565 111.865 64.7041 111.573 64.7041C111.304 64.7041 111.072 64.7497 110.876 64.8408C110.68 64.932 110.527 65.055 110.418 65.21C110.309 65.3649 110.254 65.5404 110.254 65.7363H108.613C108.613 65.4447 108.684 65.1621 108.825 64.8887C108.966 64.6152 109.172 64.3714 109.44 64.1572C109.709 63.943 110.031 63.7744 110.404 63.6514C110.778 63.5283 111.197 63.4668 111.662 63.4668C112.218 63.4668 112.71 63.5602 113.139 63.7471C113.572 63.9339 113.911 64.2165 114.157 64.5947C114.408 64.9684 114.533 65.4378 114.533 66.0029V69.291C114.533 69.6283 114.556 69.9313 114.602 70.2002C114.652 70.4645 114.722 70.6947 114.813 70.8906V71H113.125C113.048 70.8223 112.986 70.5967 112.94 70.3232C112.899 70.0452 112.879 69.7764 112.879 69.5166ZM113.118 66.502L113.132 67.5205H111.949C111.644 67.5205 111.375 67.5501 111.143 67.6094C110.91 67.6641 110.716 67.7461 110.562 67.8555C110.407 67.9648 110.29 68.097 110.213 68.252C110.135 68.4069 110.097 68.5824 110.097 68.7783C110.097 68.9743 110.142 69.1543 110.233 69.3184C110.325 69.4779 110.457 69.6032 110.63 69.6943C110.808 69.7855 111.022 69.8311 111.272 69.8311C111.61 69.8311 111.904 69.7627 112.154 69.626C112.41 69.4847 112.61 69.3138 112.756 69.1133C112.902 68.9082 112.979 68.7145 112.988 68.5322L113.521 69.2637C113.467 69.4505 113.373 69.651 113.241 69.8652C113.109 70.0794 112.936 70.2845 112.722 70.4805C112.512 70.6719 112.259 70.8291 111.963 70.9521C111.671 71.0752 111.334 71.1367 110.951 71.1367C110.468 71.1367 110.037 71.041 109.659 70.8496C109.281 70.6536 108.985 70.3916 108.771 70.0635C108.556 69.7308 108.449 69.3548 108.449 68.9355C108.449 68.5436 108.522 68.1973 108.668 67.8965C108.818 67.5911 109.037 67.3359 109.324 67.1309C109.616 66.9258 109.971 66.7708 110.391 66.666C110.81 66.5566 111.288 66.502 111.826 66.502H113.118ZM118.02 63.6035V71H116.365V63.6035H118.02ZM116.256 61.6621C116.256 61.4115 116.338 61.2041 116.502 61.04C116.671 60.8714 116.903 60.7871 117.199 60.7871C117.491 60.7871 117.721 60.8714 117.89 61.04C118.058 61.2041 118.143 61.4115 118.143 61.6621C118.143 61.9082 118.058 62.1133 117.89 62.2773C117.721 62.4414 117.491 62.5234 117.199 62.5234C116.903 62.5234 116.671 62.4414 116.502 62.2773C116.338 62.1133 116.256 61.9082 116.256 61.6621ZM121.588 60.5V71H119.934V60.5H121.588ZM127.542 68.9971C127.542 68.833 127.501 68.6849 127.419 68.5527C127.337 68.416 127.18 68.293 126.947 68.1836C126.719 68.0742 126.382 67.974 125.936 67.8828C125.544 67.7962 125.184 67.6937 124.855 67.5752C124.532 67.4521 124.254 67.304 124.021 67.1309C123.789 66.9577 123.609 66.7526 123.481 66.5156C123.354 66.2786 123.29 66.0052 123.29 65.6953C123.29 65.3945 123.356 65.1097 123.488 64.8408C123.62 64.5719 123.81 64.335 124.056 64.1299C124.302 63.9248 124.6 63.763 124.951 63.6445C125.307 63.526 125.703 63.4668 126.141 63.4668C126.76 63.4668 127.291 63.5716 127.733 63.7812C128.18 63.9863 128.522 64.2666 128.759 64.6221C128.996 64.973 129.114 65.3695 129.114 65.8115H127.467C127.467 65.6156 127.417 65.4333 127.316 65.2646C127.221 65.0915 127.075 64.9525 126.879 64.8477C126.683 64.7383 126.437 64.6836 126.141 64.6836C125.858 64.6836 125.623 64.7292 125.437 64.8203C125.254 64.9069 125.118 65.0208 125.026 65.1621C124.94 65.3034 124.896 65.4583 124.896 65.627C124.896 65.75 124.919 65.8617 124.965 65.9619C125.015 66.0576 125.097 66.1465 125.211 66.2285C125.325 66.306 125.48 66.3789 125.676 66.4473C125.876 66.5156 126.127 66.5817 126.428 66.6455C126.993 66.764 127.478 66.9167 127.884 67.1035C128.294 67.2858 128.608 67.5228 128.827 67.8145C129.046 68.1016 129.155 68.4661 129.155 68.9082C129.155 69.2363 129.085 69.5371 128.943 69.8105C128.807 70.0794 128.606 70.3141 128.342 70.5146C128.077 70.7106 127.761 70.8633 127.392 70.9727C127.027 71.082 126.617 71.1367 126.161 71.1367C125.491 71.1367 124.924 71.0182 124.459 70.7812C123.994 70.5397 123.641 70.2321 123.399 69.8584C123.162 69.4801 123.044 69.0882 123.044 68.6826H124.637C124.655 68.988 124.739 69.2318 124.89 69.4141C125.045 69.5918 125.236 69.7217 125.464 69.8037C125.696 69.8812 125.936 69.9199 126.182 69.9199C126.478 69.9199 126.726 69.8812 126.927 69.8037C127.127 69.7217 127.28 69.6123 127.385 69.4756C127.49 69.3343 127.542 69.1748 127.542 68.9971Z" fill="#E6427A"/>
<circle cx="94" cy="32" r="16" fill="#E6427A"/>
<path d="M90.7003 37.335H93.3373V29.748C93.3373 29.454 93.3463 29.145 93.3643 28.821L91.4923 30.387C91.4143 30.453 91.3333 30.498 91.2493 30.522C91.1713 30.546 91.0933 30.558 91.0153 30.558C90.8953 30.558 90.7843 30.534 90.6823 30.486C90.5863 30.432 90.5143 30.372 90.4663 30.306L89.7643 29.343L93.7333 25.968H95.5603V37.335H97.9003V39H90.7003V37.335Z" fill="white"/>
<line x1="110" y1="31" x2="233" y2="31" stroke="#E6427A" stroke-width="2"/>
<circle cx="249" cy="32" r="16" fill="#E6427A"/>
<path d="M248.697 25.842C249.297 25.842 249.846 25.932 250.344 26.112C250.842 26.286 251.268 26.535 251.622 26.859C251.976 27.183 252.252 27.573 252.45 28.029C252.648 28.485 252.747 28.992 252.747 29.55C252.747 30.03 252.675 30.474 252.531 30.882C252.393 31.29 252.204 31.68 251.964 32.052C251.73 32.424 251.454 32.784 251.136 33.132C250.818 33.48 250.485 33.834 250.137 34.194L247.203 37.191C247.491 37.107 247.773 37.044 248.049 37.002C248.325 36.954 248.589 36.93 248.841 36.93H252.18C252.42 36.93 252.609 36.999 252.747 37.137C252.891 37.269 252.963 37.446 252.963 37.668V39H244.035V38.262C244.035 38.112 244.065 37.956 244.125 37.794C244.191 37.632 244.293 37.482 244.431 37.344L248.382 33.384C248.712 33.048 249.006 32.727 249.264 32.421C249.528 32.115 249.747 31.812 249.921 31.512C250.101 31.212 250.236 30.909 250.326 30.603C250.422 30.291 250.47 29.964 250.47 29.622C250.47 29.31 250.425 29.037 250.335 28.803C250.245 28.563 250.116 28.362 249.948 28.2C249.78 28.038 249.579 27.918 249.345 27.84C249.117 27.756 248.859 27.714 248.571 27.714C248.037 27.714 247.596 27.849 247.248 28.119C246.906 28.389 246.666 28.752 246.528 29.208C246.462 29.436 246.363 29.601 246.231 29.703C246.099 29.799 245.931 29.847 245.727 29.847C245.637 29.847 245.538 29.838 245.43 29.82L244.26 29.613C244.35 28.989 244.524 28.443 244.782 27.975C245.04 27.501 245.361 27.108 245.745 26.796C246.135 26.478 246.579 26.241 247.077 26.085C247.581 25.923 248.121 25.842 248.697 25.842Z" fill="white"/>
<path d="M213.888 62.373L210.914 71H209.116L212.862 61.0469H214.011L213.888 62.373ZM216.376 71L213.396 62.373L213.266 61.0469H214.421L218.181 71H216.376ZM216.232 67.3086V68.6689H210.818V67.3086H216.232ZM223.643 69.4688V60.5H225.297V71H223.8L223.643 69.4688ZM218.83 67.3838V67.2402C218.83 66.6797 218.896 66.1693 219.028 65.709C219.16 65.2441 219.352 64.8454 219.603 64.5127C219.853 64.1755 220.159 63.918 220.519 63.7402C220.879 63.5579 221.284 63.4668 221.735 63.4668C222.182 63.4668 222.574 63.5534 222.911 63.7266C223.248 63.8997 223.535 64.1481 223.772 64.4717C224.009 64.7907 224.199 65.1735 224.34 65.6201C224.481 66.0622 224.581 66.5544 224.641 67.0967V67.5547C224.581 68.0833 224.481 68.5664 224.34 69.0039C224.199 69.4414 224.009 69.8197 223.772 70.1387C223.535 70.4577 223.246 70.7038 222.904 70.877C222.567 71.0501 222.173 71.1367 221.722 71.1367C221.275 71.1367 220.872 71.0433 220.512 70.8564C220.156 70.6696 219.853 70.4076 219.603 70.0703C219.352 69.7331 219.16 69.3366 219.028 68.8809C218.896 68.4206 218.83 67.9215 218.83 67.3838ZM220.478 67.2402V67.3838C220.478 67.721 220.507 68.0355 220.566 68.3271C220.63 68.6188 220.728 68.8763 220.86 69.0996C220.993 69.3184 221.163 69.4915 221.373 69.6191C221.587 69.7422 221.842 69.8037 222.139 69.8037C222.512 69.8037 222.82 69.7217 223.062 69.5576C223.303 69.3936 223.492 69.1725 223.629 68.8945C223.77 68.612 223.866 68.2975 223.916 67.9512V66.7139C223.889 66.445 223.832 66.1943 223.745 65.9619C223.663 65.7295 223.551 65.5267 223.41 65.3535C223.269 65.1758 223.093 65.0391 222.884 64.9434C222.679 64.8431 222.435 64.793 222.152 64.793C221.852 64.793 221.596 64.8568 221.387 64.9844C221.177 65.112 221.004 65.2874 220.867 65.5107C220.735 65.734 220.637 65.9938 220.573 66.29C220.509 66.5863 220.478 66.903 220.478 67.2402ZM231.531 69.4688V60.5H233.186V71H231.688L231.531 69.4688ZM226.719 67.3838V67.2402C226.719 66.6797 226.785 66.1693 226.917 65.709C227.049 65.2441 227.241 64.8454 227.491 64.5127C227.742 64.1755 228.047 63.918 228.407 63.7402C228.767 63.5579 229.173 63.4668 229.624 63.4668C230.071 63.4668 230.463 63.5534 230.8 63.7266C231.137 63.8997 231.424 64.1481 231.661 64.4717C231.898 64.7907 232.087 65.1735 232.229 65.6201C232.37 66.0622 232.47 66.5544 232.529 67.0967V67.5547C232.47 68.0833 232.37 68.5664 232.229 69.0039C232.087 69.4414 231.898 69.8197 231.661 70.1387C231.424 70.4577 231.135 70.7038 230.793 70.877C230.456 71.0501 230.062 71.1367 229.61 71.1367C229.164 71.1367 228.76 71.0433 228.4 70.8564C228.045 70.6696 227.742 70.4076 227.491 70.0703C227.241 69.7331 227.049 69.3366 226.917 68.8809C226.785 68.4206 226.719 67.9215 226.719 67.3838ZM228.366 67.2402V67.3838C228.366 67.721 228.396 68.0355 228.455 68.3271C228.519 68.6188 228.617 68.8763 228.749 69.0996C228.881 69.3184 229.052 69.4915 229.262 69.6191C229.476 69.7422 229.731 69.8037 230.027 69.8037C230.401 69.8037 230.709 69.7217 230.95 69.5576C231.192 69.3936 231.381 69.1725 231.518 68.8945C231.659 68.612 231.755 68.2975 231.805 67.9512V66.7139C231.777 66.445 231.72 66.1943 231.634 65.9619C231.552 65.7295 231.44 65.5267 231.299 65.3535C231.158 65.1758 230.982 65.0391 230.772 64.9434C230.567 64.8431 230.324 64.793 230.041 64.793C229.74 64.793 229.485 64.8568 229.275 64.9844C229.066 65.112 228.893 65.2874 228.756 65.5107C228.624 65.734 228.526 65.9938 228.462 66.29C228.398 66.5863 228.366 66.903 228.366 67.2402ZM242.339 67.2881H239.748V65.9277H242.339C242.79 65.9277 243.155 65.8548 243.433 65.709C243.711 65.5632 243.913 65.3626 244.041 65.1074C244.173 64.8477 244.239 64.5514 244.239 64.2188C244.239 63.9043 244.173 63.6104 244.041 63.3369C243.913 63.0589 243.711 62.8356 243.433 62.667C243.155 62.4984 242.79 62.4141 242.339 62.4141H240.274V71H238.559V61.0469H242.339C243.109 61.0469 243.763 61.1836 244.301 61.457C244.843 61.7259 245.256 62.0996 245.538 62.5781C245.821 63.0521 245.962 63.5944 245.962 64.2051C245.962 64.8477 245.821 65.3991 245.538 65.8594C245.256 66.3197 244.843 66.6729 244.301 66.9189C243.763 67.165 243.109 67.2881 242.339 67.2881ZM251.424 69.5166V65.9893C251.424 65.7249 251.376 65.4971 251.28 65.3057C251.185 65.1143 251.039 64.9661 250.843 64.8613C250.651 64.7565 250.41 64.7041 250.118 64.7041C249.849 64.7041 249.617 64.7497 249.421 64.8408C249.225 64.932 249.072 65.055 248.963 65.21C248.854 65.3649 248.799 65.5404 248.799 65.7363H247.158C247.158 65.4447 247.229 65.1621 247.37 64.8887C247.511 64.6152 247.716 64.3714 247.985 64.1572C248.254 63.943 248.576 63.7744 248.949 63.6514C249.323 63.5283 249.742 63.4668 250.207 63.4668C250.763 63.4668 251.255 63.5602 251.684 63.7471C252.117 63.9339 252.456 64.2165 252.702 64.5947C252.953 64.9684 253.078 65.4378 253.078 66.0029V69.291C253.078 69.6283 253.101 69.9313 253.146 70.2002C253.197 70.4645 253.267 70.6947 253.358 70.8906V71H251.67C251.592 70.8223 251.531 70.5967 251.485 70.3232C251.444 70.0452 251.424 69.7764 251.424 69.5166ZM251.663 66.502L251.677 67.5205H250.494C250.189 67.5205 249.92 67.5501 249.688 67.6094C249.455 67.6641 249.261 67.7461 249.106 67.8555C248.951 67.9648 248.835 68.097 248.758 68.252C248.68 68.4069 248.642 68.5824 248.642 68.7783C248.642 68.9743 248.687 69.1543 248.778 69.3184C248.869 69.4779 249.002 69.6032 249.175 69.6943C249.353 69.7855 249.567 69.8311 249.817 69.8311C250.155 69.8311 250.449 69.7627 250.699 69.626C250.954 69.4847 251.155 69.3138 251.301 69.1133C251.447 68.9082 251.524 68.7145 251.533 68.5322L252.066 69.2637C252.012 69.4505 251.918 69.651 251.786 69.8652C251.654 70.0794 251.481 70.2845 251.267 70.4805C251.057 70.6719 250.804 70.8291 250.508 70.9521C250.216 71.0752 249.879 71.1367 249.496 71.1367C249.013 71.1367 248.582 71.041 248.204 70.8496C247.826 70.6536 247.53 70.3916 247.315 70.0635C247.101 69.7308 246.994 69.3548 246.994 68.9355C246.994 68.5436 247.067 68.1973 247.213 67.8965C247.363 67.5911 247.582 67.3359 247.869 67.1309C248.161 66.9258 248.516 66.7708 248.936 66.666C249.355 66.5566 249.833 66.502 250.371 66.502H251.663ZM259.538 63.6035H261.035V70.7949C261.035 71.4603 260.894 72.0254 260.611 72.4902C260.329 72.9551 259.935 73.3083 259.429 73.5498C258.923 73.7959 258.337 73.9189 257.672 73.9189C257.389 73.9189 257.075 73.8779 256.729 73.7959C256.387 73.7139 256.054 73.5817 255.73 73.3994C255.411 73.2217 255.145 72.987 254.931 72.6953L255.703 71.7246C255.967 72.0391 256.259 72.2692 256.578 72.415C256.897 72.5609 257.232 72.6338 257.583 72.6338C257.961 72.6338 258.283 72.5632 258.547 72.4219C258.816 72.2852 259.023 72.0824 259.169 71.8135C259.315 71.5446 259.388 71.2165 259.388 70.8291V65.2783L259.538 63.6035ZM254.514 67.3838V67.2402C254.514 66.6797 254.582 66.1693 254.719 65.709C254.855 65.2441 255.051 64.8454 255.307 64.5127C255.562 64.1755 255.872 63.918 256.236 63.7402C256.601 63.5579 257.013 63.4668 257.474 63.4668C257.952 63.4668 258.36 63.5534 258.697 63.7266C259.039 63.8997 259.324 64.1481 259.552 64.4717C259.78 64.7907 259.957 65.1735 260.085 65.6201C260.217 66.0622 260.315 66.5544 260.379 67.0967V67.5547C260.32 68.0833 260.219 68.5664 260.078 69.0039C259.937 69.4414 259.75 69.8197 259.518 70.1387C259.285 70.4577 258.998 70.7038 258.656 70.877C258.319 71.0501 257.92 71.1367 257.46 71.1367C257.009 71.1367 256.601 71.0433 256.236 70.8564C255.876 70.6696 255.566 70.4076 255.307 70.0703C255.051 69.7331 254.855 69.3366 254.719 68.8809C254.582 68.4206 254.514 67.9215 254.514 67.3838ZM256.161 67.2402V67.3838C256.161 67.721 256.193 68.0355 256.257 68.3271C256.325 68.6188 256.428 68.8763 256.564 69.0996C256.706 69.3184 256.883 69.4915 257.098 69.6191C257.316 69.7422 257.574 69.8037 257.87 69.8037C258.257 69.8037 258.574 69.7217 258.82 69.5576C259.071 69.3936 259.262 69.1725 259.395 68.8945C259.531 68.612 259.627 68.2975 259.682 67.9512V66.7139C259.654 66.445 259.597 66.1943 259.511 65.9619C259.429 65.7295 259.317 65.5267 259.176 65.3535C259.035 65.1758 258.857 65.0391 258.643 64.9434C258.428 64.8431 258.175 64.793 257.884 64.793C257.588 64.793 257.33 64.8568 257.111 64.9844C256.893 65.112 256.713 65.2874 256.571 65.5107C256.435 65.734 256.332 65.9938 256.264 66.29C256.195 66.5863 256.161 66.903 256.161 67.2402ZM266.005 71.1367C265.458 71.1367 264.964 71.0479 264.521 70.8701C264.084 70.6878 263.71 70.4349 263.4 70.1113C263.095 69.7878 262.86 69.4072 262.696 68.9697C262.532 68.5322 262.45 68.0605 262.45 67.5547V67.2812C262.45 66.7025 262.535 66.1784 262.703 65.709C262.872 65.2396 263.106 64.8385 263.407 64.5059C263.708 64.1686 264.063 63.9111 264.474 63.7334C264.884 63.5557 265.328 63.4668 265.807 63.4668C266.335 63.4668 266.798 63.5557 267.194 63.7334C267.591 63.9111 267.919 64.1618 268.179 64.4854C268.443 64.8044 268.639 65.1849 268.767 65.627C268.899 66.069 268.965 66.5566 268.965 67.0898V67.7939H263.25V66.6113H267.338V66.4814C267.329 66.1852 267.27 65.9072 267.16 65.6475C267.055 65.3877 266.894 65.1781 266.675 65.0186C266.456 64.859 266.164 64.7793 265.8 64.7793C265.526 64.7793 265.283 64.8385 265.068 64.957C264.859 65.071 264.683 65.2373 264.542 65.4561C264.401 65.6748 264.291 65.9391 264.214 66.249C264.141 66.5544 264.104 66.8984 264.104 67.2812V67.5547C264.104 67.8783 264.148 68.179 264.234 68.457C264.326 68.7305 264.458 68.9697 264.631 69.1748C264.804 69.3799 265.014 69.5417 265.26 69.6602C265.506 69.7741 265.786 69.8311 266.101 69.8311C266.497 69.8311 266.85 69.7513 267.16 69.5918C267.47 69.4323 267.739 69.2067 267.967 68.915L268.835 69.7559C268.675 69.9883 268.468 70.2116 268.213 70.4258C267.958 70.6354 267.646 70.8063 267.276 70.9385C266.912 71.0706 266.488 71.1367 266.005 71.1367ZM274.42 69.5166V65.9893C274.42 65.7249 274.372 65.4971 274.276 65.3057C274.181 65.1143 274.035 64.9661 273.839 64.8613C273.647 64.7565 273.406 64.7041 273.114 64.7041C272.845 64.7041 272.613 64.7497 272.417 64.8408C272.221 64.932 272.068 65.055 271.959 65.21C271.85 65.3649 271.795 65.5404 271.795 65.7363H270.154C270.154 65.4447 270.225 65.1621 270.366 64.8887C270.507 64.6152 270.713 64.3714 270.981 64.1572C271.25 63.943 271.572 63.7744 271.945 63.6514C272.319 63.5283 272.738 63.4668 273.203 63.4668C273.759 63.4668 274.251 63.5602 274.68 63.7471C275.113 63.9339 275.452 64.2165 275.698 64.5947C275.949 64.9684 276.074 65.4378 276.074 66.0029V69.291C276.074 69.6283 276.097 69.9313 276.143 70.2002C276.193 70.4645 276.263 70.6947 276.354 70.8906V71H274.666C274.589 70.8223 274.527 70.5967 274.481 70.3232C274.44 70.0452 274.42 69.7764 274.42 69.5166ZM274.659 66.502L274.673 67.5205H273.49C273.185 67.5205 272.916 67.5501 272.684 67.6094C272.451 67.6641 272.257 67.7461 272.103 67.8555C271.948 67.9648 271.831 68.097 271.754 68.252C271.676 68.4069 271.638 68.5824 271.638 68.7783C271.638 68.9743 271.683 69.1543 271.774 69.3184C271.866 69.4779 271.998 69.6032 272.171 69.6943C272.349 69.7855 272.563 69.8311 272.813 69.8311C273.151 69.8311 273.445 69.7627 273.695 69.626C273.951 69.4847 274.151 69.3138 274.297 69.1133C274.443 68.9082 274.52 68.7145 274.529 68.5322L275.062 69.2637C275.008 69.4505 274.914 69.651 274.782 69.8652C274.65 70.0794 274.477 70.2845 274.263 70.4805C274.053 70.6719 273.8 70.8291 273.504 70.9521C273.212 71.0752 272.875 71.1367 272.492 71.1367C272.009 71.1367 271.578 71.041 271.2 70.8496C270.822 70.6536 270.526 70.3916 270.312 70.0635C270.097 69.7308 269.99 69.3548 269.99 68.9355C269.99 68.5436 270.063 68.1973 270.209 67.8965C270.359 67.5911 270.578 67.3359 270.865 67.1309C271.157 66.9258 271.512 66.7708 271.932 66.666C272.351 66.5566 272.829 66.502 273.367 66.502H274.659ZM279.431 65.1826V71H277.783V63.6035H279.335L279.431 65.1826ZM279.137 67.0283L278.604 67.0215C278.608 66.4974 278.681 66.0166 278.822 65.5791C278.968 65.1416 279.169 64.7656 279.424 64.4512C279.684 64.1367 279.993 63.8952 280.354 63.7266C280.714 63.5534 281.115 63.4668 281.557 63.4668C281.912 63.4668 282.233 63.5169 282.521 63.6172C282.812 63.7129 283.061 63.8701 283.266 64.0889C283.475 64.3076 283.635 64.5924 283.744 64.9434C283.854 65.2897 283.908 65.7158 283.908 66.2217V71H282.254V66.2148C282.254 65.8594 282.201 65.5791 282.097 65.374C281.996 65.1644 281.848 65.0163 281.652 64.9297C281.461 64.8385 281.222 64.793 280.935 64.793C280.652 64.793 280.399 64.8522 280.176 64.9707C279.952 65.0892 279.763 65.251 279.608 65.4561C279.458 65.6611 279.342 65.8981 279.26 66.167C279.178 66.4359 279.137 66.723 279.137 67.0283ZM288.98 63.6035V64.8066H284.811V63.6035H288.98ZM286.014 61.792H287.661V68.9561C287.661 69.1839 287.693 69.3594 287.757 69.4824C287.825 69.6009 287.919 69.6807 288.037 69.7217C288.156 69.7627 288.295 69.7832 288.454 69.7832C288.568 69.7832 288.677 69.7764 288.782 69.7627C288.887 69.749 288.971 69.7354 289.035 69.7217L289.042 70.9795C288.905 71.0205 288.746 71.057 288.563 71.0889C288.386 71.1208 288.181 71.1367 287.948 71.1367C287.57 71.1367 287.235 71.0706 286.943 70.9385C286.652 70.8018 286.424 70.5807 286.26 70.2754C286.096 69.9701 286.014 69.5645 286.014 69.0586V61.792Z" fill="#E6427A"/>
</svg>
