<svg width="343" height="92" viewBox="0 0 343 92" fill="none" xmlns="http://www.w3.org/2000/svg">
<rect width="343" height="92" rx="20" fill="#FFECF3"/>
<path d="M57.8877 62.373L54.9141 71H53.1162L56.8623 61.0469H58.0107L57.8877 62.373ZM60.376 71L57.3955 62.373L57.2656 61.0469H58.4209L62.1807 71H60.376ZM60.2324 67.3086V68.6689H54.8184V67.3086H60.2324ZM67.6426 69.4688V60.5H69.2969V71H67.7998L67.6426 69.4688ZM62.8301 67.3838V67.2402C62.8301 66.6797 62.8962 66.1693 63.0283 65.709C63.1605 65.2441 63.3519 64.8454 63.6025 64.5127C63.8532 64.1755 64.1585 63.918 64.5186 63.7402C64.8786 63.5579 65.2842 63.4668 65.7354 63.4668C66.182 63.4668 66.5739 63.5534 66.9111 63.7266C67.2484 63.8997 67.5355 64.1481 67.7725 64.4717C68.0094 64.7907 68.1986 65.1735 68.3398 65.6201C68.4811 66.0622 68.5814 66.5544 68.6406 67.0967V67.5547C68.5814 68.0833 68.4811 68.5664 68.3398 69.0039C68.1986 69.4414 68.0094 69.8197 67.7725 70.1387C67.5355 70.4577 67.2461 70.7038 66.9043 70.877C66.5671 71.0501 66.1729 71.1367 65.7217 71.1367C65.2751 71.1367 64.8717 71.0433 64.5117 70.8564C64.1562 70.6696 63.8532 70.4076 63.6025 70.0703C63.3519 69.7331 63.1605 69.3366 63.0283 68.8809C62.8962 68.4206 62.8301 67.9215 62.8301 67.3838ZM64.4775 67.2402V67.3838C64.4775 67.721 64.5072 68.0355 64.5664 68.3271C64.6302 68.6188 64.7282 68.8763 64.8604 69.0996C64.9925 69.3184 65.1634 69.4915 65.373 69.6191C65.5872 69.7422 65.8424 69.8037 66.1387 69.8037C66.5124 69.8037 66.82 69.7217 67.0615 69.5576C67.3031 69.3936 67.4922 69.1725 67.6289 68.8945C67.7702 68.612 67.8659 68.2975 67.916 67.9512V66.7139C67.8887 66.445 67.8317 66.1943 67.7451 65.9619C67.6631 65.7295 67.5514 65.5267 67.4102 65.3535C67.2689 65.1758 67.0934 65.0391 66.8838 64.9434C66.6787 64.8431 66.4349 64.793 66.1523 64.793C65.8516 64.793 65.5964 64.8568 65.3867 64.9844C65.1771 65.112 65.0039 65.2874 64.8672 65.5107C64.735 65.734 64.637 65.9938 64.5732 66.29C64.5094 66.5863 64.4775 66.903 64.4775 67.2402ZM75.5312 69.4688V60.5H77.1855V71H75.6885L75.5312 69.4688ZM70.7188 67.3838V67.2402C70.7188 66.6797 70.7848 66.1693 70.917 65.709C71.0492 65.2441 71.2406 64.8454 71.4912 64.5127C71.7419 64.1755 72.0472 63.918 72.4072 63.7402C72.7673 63.5579 73.1729 63.4668 73.624 63.4668C74.0706 63.4668 74.4626 63.5534 74.7998 63.7266C75.137 63.8997 75.4242 64.1481 75.6611 64.4717C75.8981 64.7907 76.0872 65.1735 76.2285 65.6201C76.3698 66.0622 76.4701 66.5544 76.5293 67.0967V67.5547C76.4701 68.0833 76.3698 68.5664 76.2285 69.0039C76.0872 69.4414 75.8981 69.8197 75.6611 70.1387C75.4242 70.4577 75.1348 70.7038 74.793 70.877C74.4557 71.0501 74.0615 71.1367 73.6104 71.1367C73.1637 71.1367 72.7604 71.0433 72.4004 70.8564C72.0449 70.6696 71.7419 70.4076 71.4912 70.0703C71.2406 69.7331 71.0492 69.3366 70.917 68.8809C70.7848 68.4206 70.7188 67.9215 70.7188 67.3838ZM72.3662 67.2402V67.3838C72.3662 67.721 72.3958 68.0355 72.4551 68.3271C72.5189 68.6188 72.6169 68.8763 72.749 69.0996C72.8812 69.3184 73.0521 69.4915 73.2617 69.6191C73.4759 69.7422 73.7311 69.8037 74.0273 69.8037C74.401 69.8037 74.7087 69.7217 74.9502 69.5576C75.1917 69.3936 75.3809 69.1725 75.5176 68.8945C75.6589 68.612 75.7546 68.2975 75.8047 67.9512V66.7139C75.7773 66.445 75.7204 66.1943 75.6338 65.9619C75.5518 65.7295 75.4401 65.5267 75.2988 65.3535C75.1576 65.1758 74.9821 65.0391 74.7725 64.9434C74.5674 64.8431 74.3236 64.793 74.041 64.793C73.7402 64.793 73.485 64.8568 73.2754 64.9844C73.0658 65.112 72.8926 65.2874 72.7559 65.5107C72.6237 65.734 72.5257 65.9938 72.4619 66.29C72.3981 66.5863 72.3662 66.903 72.3662 67.2402ZM86.3389 67.2881H83.748V65.9277H86.3389C86.79 65.9277 87.1546 65.8548 87.4326 65.709C87.7106 65.5632 87.9134 65.3626 88.041 65.1074C88.1732 64.8477 88.2393 64.5514 88.2393 64.2188C88.2393 63.9043 88.1732 63.6104 88.041 63.3369C87.9134 63.0589 87.7106 62.8356 87.4326 62.667C87.1546 62.4984 86.79 62.4141 86.3389 62.4141H84.2744V71H82.5586V61.0469H86.3389C87.109 61.0469 87.763 61.1836 88.3008 61.457C88.8431 61.7259 89.2555 62.0996 89.5381 62.5781C89.8206 63.0521 89.9619 63.5944 89.9619 64.2051C89.9619 64.8477 89.8206 65.3991 89.5381 65.8594C89.2555 66.3197 88.8431 66.6729 88.3008 66.9189C87.763 67.165 87.109 67.2881 86.3389 67.2881ZM95.4238 69.5166V65.9893C95.4238 65.7249 95.376 65.4971 95.2803 65.3057C95.1846 65.1143 95.0387 64.9661 94.8428 64.8613C94.6514 64.7565 94.4098 64.7041 94.1182 64.7041C93.8493 64.7041 93.6169 64.7497 93.4209 64.8408C93.2249 64.932 93.0723 65.055 92.9629 65.21C92.8535 65.3649 92.7988 65.5404 92.7988 65.7363H91.1582C91.1582 65.4447 91.2288 65.1621 91.3701 64.8887C91.5114 64.6152 91.7165 64.3714 91.9854 64.1572C92.2542 63.943 92.5755 63.7744 92.9492 63.6514C93.3229 63.5283 93.7422 63.4668 94.207 63.4668C94.763 63.4668 95.2552 63.5602 95.6836 63.7471C96.1165 63.9339 96.4561 64.2165 96.7021 64.5947C96.9528 64.9684 97.0781 65.4378 97.0781 66.0029V69.291C97.0781 69.6283 97.1009 69.9313 97.1465 70.2002C97.1966 70.4645 97.2673 70.6947 97.3584 70.8906V71H95.6699C95.5924 70.8223 95.5309 70.5967 95.4854 70.3232C95.4443 70.0452 95.4238 69.7764 95.4238 69.5166ZM95.6631 66.502L95.6768 67.5205H94.4941C94.1888 67.5205 93.9199 67.5501 93.6875 67.6094C93.4551 67.6641 93.2614 67.7461 93.1064 67.8555C92.9515 67.9648 92.8353 68.097 92.7578 68.252C92.6803 68.4069 92.6416 68.5824 92.6416 68.7783C92.6416 68.9743 92.6872 69.1543 92.7783 69.3184C92.8695 69.4779 93.0016 69.6032 93.1748 69.6943C93.3525 69.7855 93.5667 69.8311 93.8174 69.8311C94.1546 69.8311 94.4486 69.7627 94.6992 69.626C94.9544 69.4847 95.1549 69.3138 95.3008 69.1133C95.4466 68.9082 95.5241 68.7145 95.5332 68.5322L96.0664 69.2637C96.0117 69.4505 95.9183 69.651 95.7861 69.8652C95.654 70.0794 95.4808 70.2845 95.2666 70.4805C95.057 70.6719 94.804 70.8291 94.5078 70.9521C94.2161 71.0752 93.8789 71.1367 93.4961 71.1367C93.013 71.1367 92.5824 71.041 92.2041 70.8496C91.8258 70.6536 91.5296 70.3916 91.3154 70.0635C91.1012 69.7308 90.9941 69.3548 90.9941 68.9355C90.9941 68.5436 91.0671 68.1973 91.2129 67.8965C91.3633 67.5911 91.582 67.3359 91.8691 67.1309C92.1608 66.9258 92.5163 66.7708 92.9355 66.666C93.3548 66.5566 93.8333 66.502 94.3711 66.502H95.6631ZM103.538 63.6035H105.035V70.7949C105.035 71.4603 104.894 72.0254 104.611 72.4902C104.329 72.9551 103.935 73.3083 103.429 73.5498C102.923 73.7959 102.337 73.9189 101.672 73.9189C101.389 73.9189 101.075 73.8779 100.729 73.7959C100.387 73.7139 100.054 73.5817 99.7305 73.3994C99.4115 73.2217 99.1449 72.987 98.9307 72.6953L99.7031 71.7246C99.9674 72.0391 100.259 72.2692 100.578 72.415C100.897 72.5609 101.232 72.6338 101.583 72.6338C101.961 72.6338 102.283 72.5632 102.547 72.4219C102.816 72.2852 103.023 72.0824 103.169 71.8135C103.315 71.5446 103.388 71.2165 103.388 70.8291V65.2783L103.538 63.6035ZM98.5137 67.3838V67.2402C98.5137 66.6797 98.582 66.1693 98.7188 65.709C98.8555 65.2441 99.0514 64.8454 99.3066 64.5127C99.5618 64.1755 99.8717 63.918 100.236 63.7402C100.601 63.5579 101.013 63.4668 101.474 63.4668C101.952 63.4668 102.36 63.5534 102.697 63.7266C103.039 63.8997 103.324 64.1481 103.552 64.4717C103.78 64.7907 103.957 65.1735 104.085 65.6201C104.217 66.0622 104.315 66.5544 104.379 67.0967V67.5547C104.32 68.0833 104.219 68.5664 104.078 69.0039C103.937 69.4414 103.75 69.8197 103.518 70.1387C103.285 70.4577 102.998 70.7038 102.656 70.877C102.319 71.0501 101.92 71.1367 101.46 71.1367C101.009 71.1367 100.601 71.0433 100.236 70.8564C99.8763 70.6696 99.5664 70.4076 99.3066 70.0703C99.0514 69.7331 98.8555 69.3366 98.7188 68.8809C98.582 68.4206 98.5137 67.9215 98.5137 67.3838ZM100.161 67.2402V67.3838C100.161 67.721 100.193 68.0355 100.257 68.3271C100.325 68.6188 100.428 68.8763 100.564 69.0996C100.706 69.3184 100.883 69.4915 101.098 69.6191C101.316 69.7422 101.574 69.8037 101.87 69.8037C102.257 69.8037 102.574 69.7217 102.82 69.5576C103.071 69.3936 103.262 69.1725 103.395 68.8945C103.531 68.612 103.627 68.2975 103.682 67.9512V66.7139C103.654 66.445 103.597 66.1943 103.511 65.9619C103.429 65.7295 103.317 65.5267 103.176 65.3535C103.035 65.1758 102.857 65.0391 102.643 64.9434C102.428 64.8431 102.175 64.793 101.884 64.793C101.588 64.793 101.33 64.8568 101.111 64.9844C100.893 65.112 100.713 65.2874 100.571 65.5107C100.435 65.734 100.332 65.9938 100.264 66.29C100.195 66.5863 100.161 66.903 100.161 67.2402ZM110.005 71.1367C109.458 71.1367 108.964 71.0479 108.521 70.8701C108.084 70.6878 107.71 70.4349 107.4 70.1113C107.095 69.7878 106.86 69.4072 106.696 68.9697C106.532 68.5322 106.45 68.0605 106.45 67.5547V67.2812C106.45 66.7025 106.535 66.1784 106.703 65.709C106.872 65.2396 107.106 64.8385 107.407 64.5059C107.708 64.1686 108.063 63.9111 108.474 63.7334C108.884 63.5557 109.328 63.4668 109.807 63.4668C110.335 63.4668 110.798 63.5557 111.194 63.7334C111.591 63.9111 111.919 64.1618 112.179 64.4854C112.443 64.8044 112.639 65.1849 112.767 65.627C112.899 66.069 112.965 66.5566 112.965 67.0898V67.7939H107.25V66.6113H111.338V66.4814C111.329 66.1852 111.27 65.9072 111.16 65.6475C111.055 65.3877 110.894 65.1781 110.675 65.0186C110.456 64.859 110.164 64.7793 109.8 64.7793C109.526 64.7793 109.283 64.8385 109.068 64.957C108.859 65.071 108.683 65.2373 108.542 65.4561C108.401 65.6748 108.291 65.9391 108.214 66.249C108.141 66.5544 108.104 66.8984 108.104 67.2812V67.5547C108.104 67.8783 108.148 68.179 108.234 68.457C108.326 68.7305 108.458 68.9697 108.631 69.1748C108.804 69.3799 109.014 69.5417 109.26 69.6602C109.506 69.7741 109.786 69.8311 110.101 69.8311C110.497 69.8311 110.85 69.7513 111.16 69.5918C111.47 69.4323 111.739 69.2067 111.967 68.915L112.835 69.7559C112.675 69.9883 112.468 70.2116 112.213 70.4258C111.958 70.6354 111.646 70.8063 111.276 70.9385C110.912 71.0706 110.488 71.1367 110.005 71.1367ZM118.42 69.5166V65.9893C118.42 65.7249 118.372 65.4971 118.276 65.3057C118.181 65.1143 118.035 64.9661 117.839 64.8613C117.647 64.7565 117.406 64.7041 117.114 64.7041C116.845 64.7041 116.613 64.7497 116.417 64.8408C116.221 64.932 116.068 65.055 115.959 65.21C115.85 65.3649 115.795 65.5404 115.795 65.7363H114.154C114.154 65.4447 114.225 65.1621 114.366 64.8887C114.507 64.6152 114.713 64.3714 114.981 64.1572C115.25 63.943 115.572 63.7744 115.945 63.6514C116.319 63.5283 116.738 63.4668 117.203 63.4668C117.759 63.4668 118.251 63.5602 118.68 63.7471C119.113 63.9339 119.452 64.2165 119.698 64.5947C119.949 64.9684 120.074 65.4378 120.074 66.0029V69.291C120.074 69.6283 120.097 69.9313 120.143 70.2002C120.193 70.4645 120.263 70.6947 120.354 70.8906V71H118.666C118.589 70.8223 118.527 70.5967 118.481 70.3232C118.44 70.0452 118.42 69.7764 118.42 69.5166ZM118.659 66.502L118.673 67.5205H117.49C117.185 67.5205 116.916 67.5501 116.684 67.6094C116.451 67.6641 116.257 67.7461 116.103 67.8555C115.948 67.9648 115.831 68.097 115.754 68.252C115.676 68.4069 115.638 68.5824 115.638 68.7783C115.638 68.9743 115.683 69.1543 115.774 69.3184C115.866 69.4779 115.998 69.6032 116.171 69.6943C116.349 69.7855 116.563 69.8311 116.813 69.8311C117.151 69.8311 117.445 69.7627 117.695 69.626C117.951 69.4847 118.151 69.3138 118.297 69.1133C118.443 68.9082 118.52 68.7145 118.529 68.5322L119.062 69.2637C119.008 69.4505 118.914 69.651 118.782 69.8652C118.65 70.0794 118.477 70.2845 118.263 70.4805C118.053 70.6719 117.8 70.8291 117.504 70.9521C117.212 71.0752 116.875 71.1367 116.492 71.1367C116.009 71.1367 115.578 71.041 115.2 70.8496C114.822 70.6536 114.526 70.3916 114.312 70.0635C114.097 69.7308 113.99 69.3548 113.99 68.9355C113.99 68.5436 114.063 68.1973 114.209 67.8965C114.359 67.5911 114.578 67.3359 114.865 67.1309C115.157 66.9258 115.512 66.7708 115.932 66.666C116.351 66.5566 116.829 66.502 117.367 66.502H118.659ZM123.431 65.1826V71H121.783V63.6035H123.335L123.431 65.1826ZM123.137 67.0283L122.604 67.0215C122.608 66.4974 122.681 66.0166 122.822 65.5791C122.968 65.1416 123.169 64.7656 123.424 64.4512C123.684 64.1367 123.993 63.8952 124.354 63.7266C124.714 63.5534 125.115 63.4668 125.557 63.4668C125.912 63.4668 126.233 63.5169 126.521 63.6172C126.812 63.7129 127.061 63.8701 127.266 64.0889C127.475 64.3076 127.635 64.5924 127.744 64.9434C127.854 65.2897 127.908 65.7158 127.908 66.2217V71H126.254V66.2148C126.254 65.8594 126.201 65.5791 126.097 65.374C125.996 65.1644 125.848 65.0163 125.652 64.9297C125.461 64.8385 125.222 64.793 124.935 64.793C124.652 64.793 124.399 64.8522 124.176 64.9707C123.952 65.0892 123.763 65.251 123.608 65.4561C123.458 65.6611 123.342 65.8981 123.26 66.167C123.178 66.4359 123.137 66.723 123.137 67.0283ZM132.98 63.6035V64.8066H128.811V63.6035H132.98ZM130.014 61.792H131.661V68.9561C131.661 69.1839 131.693 69.3594 131.757 69.4824C131.825 69.6009 131.919 69.6807 132.037 69.7217C132.156 69.7627 132.295 69.7832 132.454 69.7832C132.568 69.7832 132.677 69.7764 132.782 69.7627C132.887 69.749 132.971 69.7354 133.035 69.7217L133.042 70.9795C132.905 71.0205 132.746 71.057 132.563 71.0889C132.386 71.1208 132.181 71.1367 131.948 71.1367C131.57 71.1367 131.235 71.0706 130.943 70.9385C130.652 70.8018 130.424 70.5807 130.26 70.2754C130.096 69.9701 130.014 69.5645 130.014 69.0586V61.792Z" fill="#E6427A"/>
<circle cx="94" cy="32" r="16" fill="#E6427A"/>
<path d="M90.7003 37.335H93.3373V29.748C93.3373 29.454 93.3463 29.145 93.3643 28.821L91.4923 30.387C91.4143 30.453 91.3333 30.498 91.2493 30.522C91.1713 30.546 91.0933 30.558 91.0153 30.558C90.8953 30.558 90.7843 30.534 90.6823 30.486C90.5863 30.432 90.5143 30.372 90.4663 30.306L89.7643 29.343L93.7333 25.968H95.5603V37.335H97.9003V39H90.7003V37.335Z" fill="white"/>
<line x1="110" y1="31" x2="233" y2="31" stroke="#E6427A" stroke-width="2"/>
<circle cx="249" cy="32" r="16" fill="#E6427A"/>
<path d="M248.697 25.842C249.297 25.842 249.846 25.932 250.344 26.112C250.842 26.286 251.268 26.535 251.622 26.859C251.976 27.183 252.252 27.573 252.45 28.029C252.648 28.485 252.747 28.992 252.747 29.55C252.747 30.03 252.675 30.474 252.531 30.882C252.393 31.29 252.204 31.68 251.964 32.052C251.73 32.424 251.454 32.784 251.136 33.132C250.818 33.48 250.485 33.834 250.137 34.194L247.203 37.191C247.491 37.107 247.773 37.044 248.049 37.002C248.325 36.954 248.589 36.93 248.841 36.93H252.18C252.42 36.93 252.609 36.999 252.747 37.137C252.891 37.269 252.963 37.446 252.963 37.668V39H244.035V38.262C244.035 38.112 244.065 37.956 244.125 37.794C244.191 37.632 244.293 37.482 244.431 37.344L248.382 33.384C248.712 33.048 249.006 32.727 249.264 32.421C249.528 32.115 249.747 31.812 249.921 31.512C250.101 31.212 250.236 30.909 250.326 30.603C250.422 30.291 250.47 29.964 250.47 29.622C250.47 29.31 250.425 29.037 250.335 28.803C250.245 28.563 250.116 28.362 249.948 28.2C249.78 28.038 249.579 27.918 249.345 27.84C249.117 27.756 248.859 27.714 248.571 27.714C248.037 27.714 247.596 27.849 247.248 28.119C246.906 28.389 246.666 28.752 246.528 29.208C246.462 29.436 246.363 29.601 246.231 29.703C246.099 29.799 245.931 29.847 245.727 29.847C245.637 29.847 245.538 29.838 245.43 29.82L244.26 29.613C244.35 28.989 244.524 28.443 244.782 27.975C245.04 27.501 245.361 27.108 245.745 26.796C246.135 26.478 246.579 26.241 247.077 26.085C247.581 25.923 248.121 25.842 248.697 25.842Z" fill="white"/>
<path d="M220.728 61.0469V71H219.012V61.0469H220.728ZM224.788 65.4014V66.7617H220.29V65.4014H224.788ZM225.355 61.0469V62.4141H220.29V61.0469H225.355ZM230.858 69.2568V63.6035H232.513V71H230.954L230.858 69.2568ZM231.091 67.7188L231.645 67.7051C231.645 68.2018 231.59 68.6598 231.48 69.0791C231.371 69.4938 231.202 69.8561 230.975 70.166C230.747 70.4714 230.455 70.7106 230.1 70.8838C229.744 71.0524 229.318 71.1367 228.821 71.1367C228.461 71.1367 228.131 71.0843 227.83 70.9795C227.529 70.8747 227.27 70.7129 227.051 70.4941C226.837 70.2754 226.67 69.9906 226.552 69.6396C226.433 69.2887 226.374 68.8695 226.374 68.3818V63.6035H228.021V68.3955C228.021 68.6644 228.053 68.89 228.117 69.0723C228.181 69.25 228.268 69.3936 228.377 69.5029C228.486 69.6123 228.614 69.6898 228.76 69.7354C228.906 69.7809 229.061 69.8037 229.225 69.8037C229.694 69.8037 230.063 69.7126 230.332 69.5303C230.605 69.3434 230.799 69.0928 230.913 68.7783C231.032 68.4639 231.091 68.1107 231.091 67.7188ZM235.835 65.1826V71H234.188V63.6035H235.739L235.835 65.1826ZM235.541 67.0283L235.008 67.0215C235.012 66.4974 235.085 66.0166 235.227 65.5791C235.372 65.1416 235.573 64.7656 235.828 64.4512C236.088 64.1367 236.398 63.8952 236.758 63.7266C237.118 63.5534 237.519 63.4668 237.961 63.4668C238.316 63.4668 238.638 63.5169 238.925 63.6172C239.216 63.7129 239.465 63.8701 239.67 64.0889C239.88 64.3076 240.039 64.5924 240.148 64.9434C240.258 65.2897 240.312 65.7158 240.312 66.2217V71H238.658V66.2148C238.658 65.8594 238.606 65.5791 238.501 65.374C238.401 65.1644 238.253 65.0163 238.057 64.9297C237.865 64.8385 237.626 64.793 237.339 64.793C237.056 64.793 236.803 64.8522 236.58 64.9707C236.357 65.0892 236.168 65.251 236.013 65.4561C235.862 65.6611 235.746 65.8981 235.664 66.167C235.582 66.4359 235.541 66.723 235.541 67.0283ZM247.36 61.0469V71H245.645V61.0469H247.36ZM251.421 65.4014V66.7617H246.923V65.4014H251.421ZM251.988 61.0469V62.4141H246.923V61.0469H251.988ZM257.129 69.5166V65.9893C257.129 65.7249 257.081 65.4971 256.985 65.3057C256.89 65.1143 256.744 64.9661 256.548 64.8613C256.356 64.7565 256.115 64.7041 255.823 64.7041C255.554 64.7041 255.322 64.7497 255.126 64.8408C254.93 64.932 254.777 65.055 254.668 65.21C254.559 65.3649 254.504 65.5404 254.504 65.7363H252.863C252.863 65.4447 252.934 65.1621 253.075 64.8887C253.216 64.6152 253.422 64.3714 253.69 64.1572C253.959 63.943 254.281 63.7744 254.654 63.6514C255.028 63.5283 255.447 63.4668 255.912 63.4668C256.468 63.4668 256.96 63.5602 257.389 63.7471C257.822 63.9339 258.161 64.2165 258.407 64.5947C258.658 64.9684 258.783 65.4378 258.783 66.0029V69.291C258.783 69.6283 258.806 69.9313 258.852 70.2002C258.902 70.4645 258.972 70.6947 259.063 70.8906V71H257.375C257.298 70.8223 257.236 70.5967 257.19 70.3232C257.149 70.0452 257.129 69.7764 257.129 69.5166ZM257.368 66.502L257.382 67.5205H256.199C255.894 67.5205 255.625 67.5501 255.393 67.6094C255.16 67.6641 254.966 67.7461 254.812 67.8555C254.657 67.9648 254.54 68.097 254.463 68.252C254.385 68.4069 254.347 68.5824 254.347 68.7783C254.347 68.9743 254.392 69.1543 254.483 69.3184C254.575 69.4779 254.707 69.6032 254.88 69.6943C255.058 69.7855 255.272 69.8311 255.522 69.8311C255.86 69.8311 256.154 69.7627 256.404 69.626C256.66 69.4847 256.86 69.3138 257.006 69.1133C257.152 68.9082 257.229 68.7145 257.238 68.5322L257.771 69.2637C257.717 69.4505 257.623 69.651 257.491 69.8652C257.359 70.0794 257.186 70.2845 256.972 70.4805C256.762 70.6719 256.509 70.8291 256.213 70.9521C255.921 71.0752 255.584 71.1367 255.201 71.1367C254.718 71.1367 254.287 71.041 253.909 70.8496C253.531 70.6536 253.235 70.3916 253.021 70.0635C252.806 69.7308 252.699 69.3548 252.699 68.9355C252.699 68.5436 252.772 68.1973 252.918 67.8965C253.068 67.5911 253.287 67.3359 253.574 67.1309C253.866 66.9258 254.221 66.7708 254.641 66.666C255.06 66.5566 255.538 66.502 256.076 66.502H257.368ZM263.527 69.8242C263.796 69.8242 264.038 69.7718 264.252 69.667C264.471 69.5576 264.646 69.4072 264.778 69.2158C264.915 69.0244 264.99 68.8034 265.004 68.5527H266.556C266.547 69.0312 266.405 69.4665 266.132 69.8584C265.858 70.2503 265.496 70.5625 265.045 70.7949C264.594 71.0228 264.095 71.1367 263.548 71.1367C262.983 71.1367 262.491 71.041 262.071 70.8496C261.652 70.6536 261.303 70.3848 261.025 70.043C260.747 69.7012 260.538 69.307 260.396 68.8604C260.26 68.4137 260.191 67.9352 260.191 67.4248V67.1855C260.191 66.6751 260.26 66.1966 260.396 65.75C260.538 65.2988 260.747 64.9023 261.025 64.5605C261.303 64.2188 261.652 63.9521 262.071 63.7607C262.491 63.5648 262.98 63.4668 263.541 63.4668C264.133 63.4668 264.653 63.5853 265.1 63.8223C265.546 64.0547 265.897 64.3805 266.152 64.7998C266.412 65.2145 266.547 65.6976 266.556 66.249H265.004C264.99 65.9756 264.922 65.7295 264.799 65.5107C264.68 65.2874 264.512 65.1097 264.293 64.9775C264.079 64.8454 263.821 64.7793 263.521 64.7793C263.188 64.7793 262.912 64.8477 262.693 64.9844C262.475 65.1165 262.304 65.2988 262.181 65.5312C262.058 65.7591 261.969 66.0166 261.914 66.3037C261.864 66.5863 261.839 66.8802 261.839 67.1855V67.4248C261.839 67.7301 261.864 68.0264 261.914 68.3135C261.964 68.6006 262.051 68.8581 262.174 69.0859C262.301 69.3092 262.475 69.4893 262.693 69.626C262.912 69.7581 263.19 69.8242 263.527 69.8242ZM271.211 63.6035V64.8066H267.041V63.6035H271.211ZM268.244 61.792H269.892V68.9561C269.892 69.1839 269.924 69.3594 269.987 69.4824C270.056 69.6009 270.149 69.6807 270.268 69.7217C270.386 69.7627 270.525 69.7832 270.685 69.7832C270.799 69.7832 270.908 69.7764 271.013 69.7627C271.118 69.749 271.202 69.7354 271.266 69.7217L271.272 70.9795C271.136 71.0205 270.976 71.057 270.794 71.0889C270.616 71.1208 270.411 71.1367 270.179 71.1367C269.8 71.1367 269.465 71.0706 269.174 70.9385C268.882 70.8018 268.654 70.5807 268.49 70.2754C268.326 69.9701 268.244 69.5645 268.244 69.0586V61.792ZM276.632 68.9971C276.632 68.833 276.591 68.6849 276.509 68.5527C276.427 68.416 276.27 68.293 276.037 68.1836C275.809 68.0742 275.472 67.974 275.025 67.8828C274.633 67.7962 274.273 67.6937 273.945 67.5752C273.622 67.4521 273.344 67.304 273.111 67.1309C272.879 66.9577 272.699 66.7526 272.571 66.5156C272.444 66.2786 272.38 66.0052 272.38 65.6953C272.38 65.3945 272.446 65.1097 272.578 64.8408C272.71 64.5719 272.899 64.335 273.146 64.1299C273.392 63.9248 273.69 63.763 274.041 63.6445C274.396 63.526 274.793 63.4668 275.23 63.4668C275.85 63.4668 276.381 63.5716 276.823 63.7812C277.27 63.9863 277.612 64.2666 277.849 64.6221C278.086 64.973 278.204 65.3695 278.204 65.8115H276.557C276.557 65.6156 276.507 65.4333 276.406 65.2646C276.311 65.0915 276.165 64.9525 275.969 64.8477C275.773 64.7383 275.527 64.6836 275.23 64.6836C274.948 64.6836 274.713 64.7292 274.526 64.8203C274.344 64.9069 274.207 65.0208 274.116 65.1621C274.03 65.3034 273.986 65.4583 273.986 65.627C273.986 65.75 274.009 65.8617 274.055 65.9619C274.105 66.0576 274.187 66.1465 274.301 66.2285C274.415 66.306 274.57 66.3789 274.766 66.4473C274.966 66.5156 275.217 66.5817 275.518 66.6455C276.083 66.764 276.568 66.9167 276.974 67.1035C277.384 67.2858 277.698 67.5228 277.917 67.8145C278.136 68.1016 278.245 68.4661 278.245 68.9082C278.245 69.2363 278.174 69.5371 278.033 69.8105C277.896 70.0794 277.696 70.3141 277.432 70.5146C277.167 70.7106 276.851 70.8633 276.481 70.9727C276.117 71.082 275.707 71.1367 275.251 71.1367C274.581 71.1367 274.014 71.0182 273.549 70.7812C273.084 70.5397 272.731 70.2321 272.489 69.8584C272.252 69.4801 272.134 69.0882 272.134 68.6826H273.727C273.745 68.988 273.829 69.2318 273.979 69.4141C274.134 69.5918 274.326 69.7217 274.554 69.8037C274.786 69.8812 275.025 69.9199 275.271 69.9199C275.568 69.9199 275.816 69.8812 276.017 69.8037C276.217 69.7217 276.37 69.6123 276.475 69.4756C276.579 69.3343 276.632 69.1748 276.632 68.9971Z" fill="#E6427A"/>
</svg>
