<svg width="202" height="252" viewBox="0 0 202 252" fill="none" xmlns="http://www.w3.org/2000/svg">
<ellipse cx="107" cy="104.836" rx="95" ry="94.8511" fill="url(#paint0_linear_10542_315286)"/>
<path d="M189.42 105.12C186.874 102.578 183.362 101 179.498 101H146.225C138.624 101 132.268 106.959 132.008 114.544C131.884 118.186 133.171 121.54 135.362 124.105C136.583 125.534 138.086 126.718 139.781 127.569C142.549 128.957 143.149 132.65 140.877 134.753C140.854 134.775 140.83 134.797 140.807 134.818C140.21 135.358 139.535 135.806 138.804 136.146C138.646 136.219 138.737 136.448 138.889 136.454C140.359 136.51 141.844 136.577 143.316 136.494C144.638 136.419 145.924 136.154 147.111 135.555C149.32 134.44 150.96 132.444 151.97 130.221C152.143 129.838 152.3 129.449 152.441 129.054H179.309C187.015 129.054 193.427 122.938 193.545 115.245C193.607 111.302 192.015 107.711 189.42 105.12Z" fill="#E93779"/>
<path d="M150.133 111.104C149.012 111.104 148.066 111.481 147.295 112.233C146.524 112.985 146.139 113.912 146.139 115.015C146.139 116.256 146.537 117.222 147.334 117.914C148.131 118.604 149.065 118.95 150.133 118.95C151.167 118.95 152.078 118.6 152.866 117.9C153.655 117.201 154.049 116.239 154.049 115.015C154.049 113.912 153.672 112.986 152.919 112.233C152.166 111.481 151.237 111.104 150.133 111.104Z" fill="white"/>
<path d="M162.839 111.104C161.718 111.104 160.772 111.481 160.001 112.233C159.23 112.985 158.845 113.912 158.845 115.015C158.845 116.256 159.243 117.222 160.04 117.914C160.837 118.604 161.77 118.95 162.839 118.95C163.873 118.95 164.784 118.6 165.572 117.9C166.36 117.201 166.755 116.239 166.755 115.015C166.755 113.912 166.378 112.986 165.625 112.233C164.871 111.481 163.943 111.104 162.839 111.104Z" fill="white"/>
<path d="M175.494 111.104C174.373 111.104 173.427 111.481 172.656 112.233C171.884 112.985 171.5 113.912 171.5 115.015C171.5 116.256 171.898 117.222 172.695 117.914C173.492 118.604 174.425 118.95 175.494 118.95C176.527 118.95 177.438 118.6 178.227 117.9C179.015 117.201 179.41 116.239 179.41 115.015C179.41 113.912 179.032 112.986 178.28 112.233C177.526 111.481 176.598 111.104 175.494 111.104Z" fill="white"/>
<path d="M0 34.4567C0 29.2364 1.67848 23.9466 5.03628 18.5886C8.39325 13.2303 13.2929 8.79319 19.7326 5.27578C26.1726 1.7592 33.6858 0 42.2723 0C50.2525 0 57.2988 1.47091 63.4085 4.41035C69.5183 7.35063 74.2371 11.3487 77.568 16.4043C80.8974 21.4611 82.563 26.9559 82.563 32.8909C82.563 37.5626 81.6137 41.6573 79.7146 45.1734C77.8157 48.6911 75.5579 51.7268 72.9447 54.2826C70.3295 56.8378 65.6376 61.1383 58.8675 67.1831C56.9954 68.8868 55.4953 70.3849 54.3676 71.676C53.2389 72.9677 52.3991 74.1491 51.8496 75.2205C51.2985 76.2924 50.8719 77.3638 50.5699 78.4355C50.2668 79.5069 49.8126 81.3899 49.2077 84.082C48.1615 89.7979 44.8862 92.655 39.3826 92.655C36.52 92.655 34.1116 91.7211 32.1584 89.8522C30.204 87.9844 29.2274 85.2092 29.2274 81.5264C29.2274 76.9102 29.9418 72.9122 31.3741 69.5327C32.8048 66.1527 34.7036 63.1852 37.0709 60.6295C39.4368 58.0743 42.6296 55.0384 46.6479 51.521C50.17 48.4436 52.7164 46.1215 54.2851 44.5555C55.8538 42.989 57.1748 41.2447 58.2481 39.3208C59.3214 37.3977 59.8583 35.3099 59.8583 33.0559C59.8583 28.6599 58.2197 24.95 54.9455 21.9271C51.6702 18.9058 47.4453 17.3936 42.2723 17.3936C36.2168 17.3936 31.7583 18.9184 28.897 21.9683C26.0344 25.0187 23.6131 29.5108 21.6315 35.4461C19.7596 41.6573 16.2094 44.7614 10.9812 44.7614C7.89784 44.7614 5.2972 43.6767 3.17896 41.5052C1.05933 39.3348 0 36.9854 0 34.4567ZM40.2908 124.804C36.9327 124.804 34.0015 123.718 31.4978 121.548C28.9927 119.377 27.7414 116.342 27.7414 112.439C27.7414 108.977 28.9511 106.064 31.3739 103.701C33.7954 101.339 36.7676 100.157 40.2908 100.157C43.7581 100.157 46.675 101.339 49.0423 103.701C51.4084 106.064 52.5926 108.977 52.5926 112.439C52.5926 116.287 51.3542 119.309 48.8774 121.506C46.4004 123.704 43.5377 124.804 40.2908 124.804Z" fill="#E93779"/>
<path d="M92.9704 79.9339C92.2776 77.7842 91.0124 75.9203 89.6602 74.1264C90.234 74.1707 90.8102 74.1963 91.3884 74.1898C92.8715 73.6943 94.6019 73.4922 96.2584 73.2359C96.9354 73.1312 97.6008 73.0166 98.2299 72.8703C98.3202 72.8496 98.4095 72.828 98.4979 72.8054C98.5359 72.7963 98.573 72.7864 98.6099 72.7765C98.7146 72.7495 98.8174 72.7206 98.9195 72.6908C98.9565 72.681 98.9935 72.6701 99.0296 72.6583C99.1533 72.6213 99.2751 72.5825 99.3943 72.541C99.5298 72.494 99.6616 72.4454 99.7915 72.393C100.828 71.9752 101.675 71.3677 102.185 70.4147C102.222 70.3461 102.256 70.2604 102.288 70.1594C102.295 70.1368 102.302 70.1135 102.309 70.09C102.318 70.0584 102.327 70.025 102.336 69.9916C102.344 69.9609 102.351 69.9294 102.36 69.8968C102.388 69.7759 102.415 69.6423 102.438 69.498C102.442 69.4781 102.445 69.4574 102.448 69.4366C102.453 69.4158 102.455 69.3951 102.458 69.3734C102.462 69.3526 102.465 69.3309 102.468 69.3093C102.473 69.2832 102.476 69.2569 102.48 69.2308C102.485 69.1911 102.491 69.1505 102.496 69.1099C102.499 69.091 102.501 69.0721 102.503 69.053C102.514 68.9664 102.525 68.8771 102.534 68.785C102.536 68.7715 102.538 68.7579 102.539 68.7444C102.55 68.6353 102.561 68.5224 102.57 68.4079C102.572 68.3961 102.573 68.3835 102.574 68.3718C102.576 68.3483 102.577 68.3248 102.579 68.3022C102.582 68.2707 102.584 68.2382 102.586 68.2066C102.596 68.0811 102.605 67.953 102.613 67.8231C102.634 67.453 102.649 67.0677 102.657 66.6814C102.658 66.6426 102.658 66.6028 102.659 66.5641C102.659 66.547 102.659 66.5298 102.659 66.5127C102.661 66.3908 102.662 66.2681 102.662 66.1471C102.662 66.0596 102.662 65.9729 102.661 65.8864C102.657 65.4955 102.025 64.8099 101.88 64.4113C101.737 64.0175 101.504 63.8427 101.392 63.4592C101.112 62.5014 100.422 61.851 99.7587 61.1706C99.0706 60.4647 98.552 59.7366 98.205 58.7977C97.9981 58.2382 97.7453 57.2286 98.0905 56.6676C98.6516 55.7557 99.8326 56.4996 100.62 56.582C100.654 56.1776 100.643 55.7679 100.688 55.365C100.902 53.4682 102.328 52.0884 104.173 51.4653C107.321 50.4102 111.459 51.6221 113.746 53.8862C115.076 55.2033 115.147 56.6882 114.63 58.3901C114.165 59.9208 115.237 63.0784 114.634 64.5384C114.099 65.8345 113.381 68.1632 112.708 69.4109C111.415 71.8075 109.252 71.1504 109.146 73.893C109.144 73.94 109.143 73.9868 109.143 74.0329C109.143 74.0878 109.144 74.142 109.147 74.1962C109.149 74.2504 109.152 74.3037 109.157 74.3568C109.16 74.3938 109.163 74.43 109.168 74.4661C109.169 74.4787 109.17 74.4914 109.171 74.5031C109.173 74.524 109.176 74.5447 109.18 74.5654C109.184 74.6024 109.189 74.6385 109.195 74.6746C109.202 74.7197 109.21 74.763 109.218 74.8072C109.242 74.9255 109.27 75.042 109.302 75.1574C109.314 75.1998 109.327 75.2422 109.34 75.2847C109.383 75.4192 109.43 75.5527 109.485 75.6845C109.495 75.7071 109.504 75.7296 109.514 75.7522C109.53 75.7901 109.546 75.8271 109.562 75.8632C109.571 75.883 109.58 75.9038 109.59 75.9237C109.604 75.9526 109.617 75.9805 109.631 76.0095C109.644 76.0375 109.659 76.0663 109.673 76.0943C109.876 76.495 110.127 76.8839 110.411 77.2666C110.427 77.2883 110.444 77.3108 110.46 77.3325C110.481 77.3595 110.501 77.3867 110.522 77.4137C110.562 77.467 110.605 77.5211 110.646 77.5743C110.668 77.6014 110.689 77.6285 110.711 77.6546C110.774 77.7349 110.84 77.8152 110.906 77.8956C110.995 78.0022 111.085 78.1086 111.177 78.2151C111.199 78.2414 111.222 78.2675 111.246 78.2945C111.292 78.3478 111.339 78.4011 111.386 78.4543C111.433 78.5067 111.48 78.5598 111.527 78.6131C111.571 78.6628 111.615 78.7114 111.659 78.7611C111.686 78.7909 111.714 78.8216 111.741 78.8522C111.812 78.9308 111.882 79.0083 111.954 79.0869C112.052 79.1942 112.15 79.3035 112.249 79.4127C112.346 79.5201 112.443 79.6275 112.54 79.7357C112.554 79.7511 112.568 79.7674 112.582 79.7835C112.616 79.8214 112.651 79.8593 112.684 79.8973C112.733 79.9524 112.781 80.0074 112.829 80.0623C112.911 80.1563 112.993 80.2501 113.073 80.3448C113.114 80.3917 113.154 80.4386 113.193 80.4865C113.234 80.5335 113.273 80.5814 113.311 80.6292C113.391 80.7248 113.468 80.8214 113.544 80.9179C113.605 80.9938 113.663 81.0705 113.722 81.1472C113.745 81.1752 113.765 81.204 113.787 81.233C113.829 81.2907 113.872 81.3475 113.913 81.4063C113.938 81.4397 113.962 81.4731 113.986 81.5073C114.056 81.6075 114.125 81.7077 114.191 81.8096C114.224 81.8602 114.258 81.9116 114.289 81.9621C114.321 82.0126 114.353 82.0632 114.385 82.1164C114.415 82.1669 114.445 82.2175 114.474 82.2681C114.48 82.2779 114.486 82.2879 114.491 82.2979C114.516 82.3421 114.541 82.3854 114.564 82.4297C114.593 82.4829 114.622 82.5352 114.649 82.5885C114.704 82.695 114.757 82.8033 114.807 82.9116C114.832 82.9657 114.856 83.0207 114.879 83.0758C114.903 83.1309 114.924 83.186 114.947 83.2419C114.969 83.2969 114.989 83.3529 115.01 83.4098C112.255 83.8367 108.382 86.0703 107.559 86.5585C106.647 86.017 102 83.3394 99.2657 83.3394C98.131 83.3394 97.0938 83.6761 96.2146 84.1462C95.4799 84.5379 94.8561 85.0225 94.3795 85.4801C94.2429 85.6106 94.1218 85.7454 94.0124 85.8832C93.8277 83.8651 93.5866 81.846 92.9704 79.9339Z" fill="#EBB973"/>
<path d="M138.493 94.3163C140.994 94.0785 143.781 94.4519 145.365 94.6893C149.8 95.3542 155.494 96.4077 160.749 97.4539C162.895 97.881 165.498 97.3095 167.082 98.2691C169.618 99.8043 171.828 103.332 171.599 106.327C171.506 107.552 170.586 110.853 169.071 110.102C167.478 109.314 167.603 107.248 167.215 105.769C166.953 104.771 165.553 102.894 164.358 103.727C164.733 104.216 166.642 108.144 165.022 107.188C164.102 106.646 163.921 105.457 163.194 104.749C161.361 102.964 161.687 101.339 159.103 101.102C156.013 100.819 150.002 101.72 146.902 101.709C144.558 101.7 142.605 102.089 140.282 102.344C137.149 102.687 133.631 102.938 133.273 98.9392C132.986 95.7287 135.541 94.5969 138.493 94.3163Z" fill="#EBB973"/>
<path d="M109.154 83.2294C111.483 82.2726 113.837 81.3228 116.307 80.9109C118.892 80.4797 118.271 76.5793 120.846 77.0362C121.161 77.5034 124.72 82.2342 125.064 82.678C125.067 82.6851 125.071 82.6909 125.076 82.6961C129.465 88.36 135.945 92.1648 138.67 94.4394C138.714 94.4754 138.803 94.4981 138.927 94.5103C140.38 97.0185 143.659 98.1452 140.979 102.073C140.783 102.205 140.581 102.328 140.374 102.439C139.283 102.881 138.258 103.086 136.923 102.965C136.466 102.924 136.013 102.858 135.563 102.774C129.207 100.444 117.327 90.6141 111.742 85.8051C111.43 85.5356 111.137 85.2825 110.865 85.0475L110.865 85.0467C109.998 84.2934 109.353 83.724 109 83.4105C109.054 83.3537 109.103 83.2899 109.154 83.2294Z" fill="#EBB973"/>
<path d="M141.449 232.408C141.449 232.408 135.491 236.483 130.161 236.814C124.831 237.145 122.95 232.408 118.874 232.408C114.798 232.408 112.603 236.483 107.696 236.797C102.789 237.11 100.688 233.035 96.4194 232.722C92.1499 232.408 89.4011 235.23 84.3844 235.23C79.3677 235.23 74.0371 231.155 74.0371 231.155C74.0371 231.155 89.1628 226.064 94.7579 208.585C99.7754 192.911 87.8328 140.875 91.088 121.285C92.4476 113.105 97.5322 107.974 98.1225 107.316H117.498C118.088 107.974 123.803 113.004 124.243 121.285C124.372 123.717 124.352 127.379 124.255 131.415C124.244 131.88 124.232 132.35 124.218 132.823C123.93 143.278 123.195 155.525 123.195 155.525C122.854 161.745 120.327 204.502 120.52 208.585C121.147 221.83 141.449 232.408 141.449 232.408Z" fill="#E93779"/>
<path d="M122.647 89.6289C122.584 90.0913 122.498 90.5416 122.413 90.9709C122.113 92.4775 117.463 107.317 117.463 107.317H98.2189C98.2189 107.317 97.4456 104.993 96.4928 102.091C95.3446 98.6008 93.9377 94.2738 93.303 92.1492C93.1332 91.5766 93.0179 91.1647 92.9792 90.9708C92.8952 90.5415 92.8083 90.0912 92.746 89.6287C92.6119 88.6391 92.5835 87.6001 92.9027 86.6297C92.9952 86.3439 93.119 86.0641 93.2785 85.7936C93.2785 85.7936 93.2785 85.7936 93.2785 85.7925C93.4457 85.5067 93.6544 85.2311 93.9102 84.9695C94.4087 84.4575 95.0612 83.9153 95.8299 83.477C96.7495 82.9509 97.8346 82.5742 99.0215 82.5742C101.882 82.5742 106.743 85.5703 107.696 86.1762C108.558 85.6299 112.609 83.1306 115.491 82.653C115.8 82.6025 116.095 82.5742 116.371 82.5742C117.558 82.5742 118.644 82.9509 119.563 83.477C120.331 83.9153 120.983 84.4575 121.482 84.9695C121.737 85.2311 121.946 85.5067 122.114 85.7925V85.7936C122.816 86.9842 122.822 88.3485 122.647 89.6289Z" fill="#E93779"/>
<path d="M115.297 84.5514C114.651 80.5456 109.102 79.0664 108.363 74.7921C108.052 72.9923 108.275 71.5236 108.624 69.796C108.57 70.0652 106.105 69.4734 105.847 69.3705C105.023 69.0417 104.481 68.6799 104.003 67.9634C103.88 67.7804 102.798 65.9252 102.865 65.9376C103.372 66.0321 103.826 66.6855 104.245 67.0059C104.974 67.5648 105.992 68.3005 106.858 68.6338C107.233 68.7784 110.226 69.113 110.402 68.8325C109.679 69.9864 109.435 70.678 109.281 72.0129C109.264 72.1571 109.249 72.3041 109.235 72.4541C109.221 72.6041 109.208 72.7575 109.197 72.9138C109.174 73.2273 109.156 73.5528 109.144 73.8919C109.007 77.827 114.676 80.2086 115.297 84.5514Z" fill="#EBB973"/>
<path d="M122.157 104.604C111.142 108.041 112.951 94.7572 115.022 87.3118C115.051 87.2108 115.078 87.1106 115.107 87.0122C115.495 85.6513 115.395 84.4727 115.009 83.4087C114.989 83.3527 114.968 83.2968 114.945 83.2409C114.924 83.185 114.901 83.1298 114.878 83.0747C114.854 83.0198 114.831 82.9647 114.805 82.9105C114.756 82.8022 114.703 82.6939 114.647 82.5874C114.62 82.5342 114.591 82.4818 114.562 82.4285C114.539 82.3843 114.515 82.341 114.489 82.2968C114.484 82.287 114.479 82.277 114.472 82.267C114.443 82.2165 114.414 82.166 114.382 82.1136C114.351 82.0622 114.32 82.0117 114.287 81.961C114.256 81.9096 114.223 81.8591 114.189 81.8086C114.123 81.7066 114.054 81.6064 113.984 81.5063C113.961 81.472 113.936 81.4386 113.912 81.4052C113.87 81.3466 113.828 81.2896 113.785 81.2319C113.764 81.203 113.743 81.1742 113.72 81.1461C113.663 81.0695 113.603 80.9927 113.543 80.9169C113.467 80.8203 113.389 80.7237 113.31 80.6281C113.271 80.5803 113.232 80.5324 113.191 80.4855C113.153 80.4377 113.112 80.3907 113.071 80.3438C112.991 80.249 112.91 80.1552 112.828 80.0613C112.78 80.0062 112.731 79.9512 112.682 79.8961C112.649 79.8582 112.615 79.8202 112.58 79.7823C112.567 79.7661 112.552 79.7498 112.538 79.7346C112.441 79.6263 112.345 79.5188 112.247 79.4115C112.149 79.3023 112.05 79.1931 111.952 79.0857C111.881 79.0071 111.81 78.9296 111.74 78.851C111.713 78.8203 111.685 78.7896 111.658 78.7599C111.613 78.7103 111.569 78.6616 111.525 78.6119C111.478 78.5586 111.431 78.5054 111.384 78.4531C111.337 78.3999 111.29 78.3466 111.244 78.2933C111.222 78.2671 111.198 78.2401 111.176 78.214C111.084 78.1074 110.993 78.001 110.905 77.8945C110.839 77.8142 110.773 77.7339 110.709 77.6534C110.687 77.6273 110.667 77.6003 110.645 77.5731C110.603 77.5199 110.561 77.4657 110.52 77.4125C110.5 77.3854 110.48 77.3583 110.459 77.3313C110.443 77.3097 110.425 77.2871 110.409 77.2654C110.126 76.8827 109.875 76.4938 109.672 76.0931C109.657 76.0651 109.643 76.0363 109.629 76.0083C109.616 75.9794 109.602 75.9514 109.589 75.9225C109.579 75.9027 109.57 75.882 109.561 75.862C109.545 75.8259 109.528 75.7889 109.512 75.751C109.502 75.7285 109.493 75.7059 109.483 75.6833C109.429 75.5516 109.381 75.418 109.339 75.2835C109.325 75.2411 109.312 75.1986 109.301 75.1562C109.268 75.0408 109.24 74.9243 109.217 74.8061C109.209 74.7618 109.201 74.7184 109.193 74.6734C109.188 74.6373 109.183 74.6012 109.178 74.5642C109.174 74.5435 109.172 74.5228 109.17 74.502C109.168 74.4902 109.167 74.4776 109.166 74.465C109.162 74.4289 109.158 74.3929 109.155 74.3557C109.151 74.3026 109.147 74.2493 109.145 74.1951C109.143 74.141 109.142 74.0869 109.142 74.0318C109.142 73.9857 109.143 73.9388 109.144 73.8919C109.216 72.0346 109.283 69.9452 110.649 68.6375C113.966 65.4639 114.264 62.0414 113.039 57.6851C111.943 53.7884 109.226 51.4395 105.099 51.3752C105.098 51.3752 104.464 51.3654 104.17 51.4646C102.327 52.0873 100.9 53.4671 100.686 55.3641C100.668 55.5263 100.659 55.6922 100.659 55.8615C100.659 56.5158 100.577 57.2009 100.613 57.8462C100.321 57.376 99.2114 56.9105 98.7001 57.3152C98.1342 57.7633 98.4177 58.8821 98.6482 59.4077C99.1733 60.6054 100.528 60.9773 101.117 62.0453C101.372 62.5089 101.379 63.1558 101.571 63.665C101.863 64.4359 102.22 65.1875 102.66 65.8852C102.661 65.9718 102.661 66.0585 102.661 66.146C102.661 66.267 102.66 66.3897 102.658 66.5116C102.658 66.5287 102.657 66.5458 102.657 66.563C102.656 66.6019 102.656 66.6416 102.655 66.6803C102.647 67.0666 102.633 67.452 102.611 67.822C102.603 67.952 102.595 68.0801 102.585 68.2056C102.583 68.2371 102.58 68.2697 102.578 68.3013C102.576 68.3239 102.574 68.3473 102.572 68.3707C102.571 68.3825 102.571 68.3951 102.569 68.4068C102.559 68.5213 102.548 68.6342 102.537 68.7434C102.536 68.7569 102.534 68.7704 102.532 68.7839C102.523 68.875 102.513 68.9643 102.502 69.052C102.5 69.071 102.497 69.0899 102.495 69.1088C102.489 69.1493 102.484 69.19 102.478 69.2298C102.475 69.256 102.471 69.2821 102.467 69.3083C102.464 69.33 102.46 69.3516 102.457 69.3724C102.454 69.394 102.451 69.4148 102.447 69.4356C102.444 69.4563 102.44 69.4771 102.437 69.497C102.413 69.6413 102.386 69.7749 102.358 69.8959C102.35 69.9284 102.343 69.96 102.335 69.9906C102.326 70.0241 102.317 70.0574 102.308 70.089C102.301 70.1125 102.293 70.136 102.287 70.1584C102.254 70.2595 102.22 70.3453 102.183 70.4138C101.673 71.3668 100.827 71.9743 99.7902 72.392C99.6603 72.4444 99.5284 72.4931 99.393 72.54C99.2737 72.5815 99.152 72.6203 99.0283 72.6574C98.9922 72.6692 98.9552 72.6799 98.9182 72.6899C98.8161 72.7197 98.7132 72.7485 98.6085 72.7757C98.5715 72.7855 98.5345 72.7955 98.4966 72.8046C98.4082 72.8271 98.3188 72.8488 98.2286 72.8695C97.5994 73.0157 96.9341 73.1302 96.2572 73.2349C96.6941 72.4235 97.9705 69.5474 96.3582 66.0088C93.1727 59.0219 93.2629 53.5727 96.249 49.6406C98.8171 46.2591 103.345 46.6073 104.564 46.7717C105.952 44.3685 108.755 42.262 114.405 43.8856C124.118 46.6751 117.342 55.3488 118.316 61.4125C118.954 65.3825 124.578 68.0402 123.888 73.6365C123.841 74.0172 123.783 74.3909 123.716 74.7582C123.015 78.5963 121.365 81.7379 122.129 84.6646C122.344 85.4913 122.752 86.3018 123.428 87.1049C128.16 92.7275 128.986 102.472 122.157 104.604Z" fill="#1C265E"/>
<path d="M101.029 68.7214H99.6373C99.4143 68.7214 99.2446 68.4497 99.2808 68.151L100.016 61.9934C100.028 61.8959 100.056 61.8156 100.094 61.7533C99.8187 61.6541 99.6219 61.3879 99.6219 61.0747C99.6219 60.6767 99.9405 60.3545 100.333 60.3545C100.727 60.3545 101.045 60.6766 101.045 61.0747C101.045 61.3635 100.878 61.6125 100.635 61.7272C100.684 61.7949 100.719 61.887 100.731 62.0025L101.388 68.1592C101.419 68.456 101.25 68.7214 101.029 68.7214Z" fill="white"/>
<path d="M86.5694 74.2425C86.8619 75.473 88.1486 80.5868 90.7227 87.1304C90.408 87.0058 90.0688 86.871 89.7083 86.7269C87.6363 80.3503 86.7483 75.4347 86.549 74.2392C86.5236 74.0882 86.5091 73.9967 86.5049 73.9688C86.5118 73.9967 86.5329 74.09 86.5694 74.2425Z" fill="#EBB973"/>
<path d="M124.254 131.416C124.243 131.88 124.231 132.35 124.217 132.823C124.127 133.089 124.07 133.234 124.07 133.234C124.07 133.234 108.4 118.545 102.491 111.309C101.435 110.016 100.444 108.68 99.5154 107.317C98.4247 105.717 97.4179 104.079 96.4917 102.431C95.3442 99.1682 93.9371 95.1234 93.3027 93.1367C95.4756 97.786 98.227 102.736 101.638 107.317C101.67 107.359 101.701 107.401 101.732 107.443C106.932 114.392 122.127 129.332 124.254 131.416Z" fill="#BEC8F2"/>
<path d="M124.502 131.659C124.502 131.659 107.329 114.923 101.732 107.444C90.8097 92.8489 86.6106 74.4375 86.5046 73.9677C86.5038 73.9618 86.5029 73.9583 86.5029 73.9583C91.7292 72.0199 95.874 73.5326 95.874 73.5326C95.874 73.5326 101.733 88.517 107.695 97.5914C110.37 101.662 124.359 118.884 124.359 118.884C124.566 119.97 124.693 121.15 124.766 122.339C125.046 126.93 124.502 131.659 124.502 131.659Z" fill="white"/>
<path d="M68 102.205C68 106.563 87.0363 118.412 88.6972 118.48C90.3572 118.549 91.1542 115.6 92.7472 115.6C93.547 115.6 97.2494 115.731 97.3939 115.393C97.7734 114.503 94.6734 112.452 92.8142 112.315C90.955 112.178 88.8955 114.165 88.6302 113.959C88.3649 113.753 76.1481 102.297 76.6749 101.245L89.7754 86.5574C89.7739 84.1887 87.9126 81.0863 87.1789 77.0713C82.8164 82.3767 68 97.1736 68 102.205Z" fill="#EBB973"/>
<path d="M113.756 47.4156C114.088 47.1421 114.356 46.7577 114.502 46.2974C114.864 45.1585 114.352 43.9754 113.361 43.6613C113.314 43.6468 113.267 43.6342 113.219 43.6234C113.392 42.5638 113.207 41.6172 112.735 41.073C113.044 40.9648 113.266 40.6705 113.266 40.3239C113.266 39.8844 112.909 39.5279 112.47 39.5279C112.03 39.5279 111.674 39.8844 111.674 40.3239C111.674 40.4168 111.691 40.5062 111.72 40.5891C111.348 40.5847 110.964 40.7336 110.605 41.0052C111.06 39.3321 111.034 37.7654 110.962 36.8836C110.941 36.6291 110.782 36.4089 110.547 36.3096C110.312 36.2094 110.043 36.2491 109.845 36.4106C109.492 36.7022 109.016 37.1281 108.518 37.6786C108.204 35.4549 107.368 33.613 106.826 32.6031C106.82 32.5923 106.814 32.5814 106.807 32.5714C107.134 32.3648 107.351 32.0003 107.351 31.5859C107.351 30.9434 106.829 30.4209 106.186 30.4209C105.543 30.4209 105.02 30.9434 105.02 31.5859C105.02 32.0002 105.237 32.3639 105.564 32.5705C105.557 32.5813 105.551 32.5922 105.545 32.6029C105.003 33.6129 104.167 35.4557 103.854 37.6793C103.355 37.1288 102.879 36.7019 102.525 36.4104C102.328 36.2489 102.059 36.2091 101.824 36.3094C101.589 36.4087 101.43 36.6289 101.409 36.8834C101.386 37.1604 101.368 37.5043 101.368 37.8986C101.368 38.7577 101.454 39.8515 101.765 40.9968C101.359 40.6927 100.922 40.5464 100.505 40.5998C100.538 40.514 100.555 40.4211 100.555 40.3236C100.555 39.8841 100.198 39.5276 99.7586 39.5276C99.319 39.5276 98.9634 39.8841 98.9634 40.3236C98.9634 40.7153 99.245 41.0392 99.6178 41.106C99.1665 41.6556 98.9923 42.5851 99.1628 43.623C99.1149 43.633 99.0672 43.6465 99.0202 43.6609C98.2448 43.9064 97.7628 44.6844 97.7628 45.5561C97.7628 45.7989 97.8007 46.0489 97.8791 46.2971C98.0245 46.7546 98.289 47.1372 98.6185 47.4099C98.056 48.0569 97.7393 48.787 97.7393 49.5596V49.5659C97.7393 49.7174 97.9378 49.7707 98.0164 49.6417C98.9687 48.0777 102.265 47.2185 106.185 47.2185C110.106 47.2185 113.403 48.0777 114.355 49.6426C114.432 49.7699 114.631 49.7148 114.631 49.566V49.5597C114.631 48.79 114.316 48.0617 113.756 47.4156ZM105.561 31.5862C105.561 31.2424 105.841 30.9625 106.186 30.9625C106.53 30.9625 106.81 31.2423 106.81 31.5862C106.81 31.93 106.53 32.2098 106.186 32.2098C105.841 32.2098 105.561 31.93 105.561 31.5862ZM106.022 32.8595C106.069 32.7711 106.153 32.7611 106.186 32.7611C106.219 32.7611 106.302 32.771 106.349 32.8595C106.912 33.9073 107.802 35.8818 108.039 38.2382C107.489 38.9213 106.949 39.7472 106.546 40.6992C106.416 41.0051 106.296 41.3111 106.186 41.6143C106.076 41.3111 105.956 41.0051 105.826 40.6992C105.422 39.7472 104.882 38.9222 104.333 38.239C104.57 35.8828 105.459 33.9074 106.022 32.8595ZM98.9971 47.022C98.7308 46.8126 98.5132 46.5049 98.3959 46.133C98.1242 45.2792 98.478 44.4012 99.1848 44.1773C99.2155 44.1674 99.2462 44.1592 99.2778 44.152C99.2986 44.2323 99.323 44.3126 99.3482 44.3939C99.5585 45.0562 99.8826 45.651 100.279 46.105C99.7897 46.3785 99.3591 46.6863 98.9971 47.022ZM100.776 45.8479C100.389 45.4409 100.069 44.8751 99.8646 44.2298C99.8583 44.21 99.852 44.1901 99.8465 44.1702C99.9721 44.2037 100.097 44.2587 100.216 44.3327C100.56 44.5484 100.823 44.8985 100.957 45.3208C101 45.4562 101.027 45.5924 101.04 45.7269C100.95 45.7658 100.863 45.8064 100.776 45.8479ZM102.87 45.1125C102.41 45.2253 101.971 45.3607 101.558 45.5158C101.539 45.3958 101.511 45.2757 101.473 45.1566C101.301 44.6124 100.956 44.1566 100.502 43.8733C100.25 43.7163 99.9809 43.6215 99.7091 43.5917C99.5051 42.4141 99.7913 41.3726 100.439 41.1668C100.515 41.1424 100.595 41.1308 100.676 41.1308C101.209 41.1308 101.82 41.6353 102.266 42.4096C102.267 42.4106 102.267 42.4115 102.267 42.4123C102.403 42.6452 102.521 42.9023 102.618 43.1767C102.619 43.1776 102.619 43.1785 102.62 43.1793C102.638 43.2317 102.656 43.284 102.674 43.3382C102.873 43.9654 102.933 44.5908 102.87 45.1125ZM104.206 44.8596C103.852 44.3453 103.482 43.7153 103.122 42.9762C102.992 42.71 102.863 42.4303 102.736 42.1352C102.736 42.1343 102.736 42.1343 102.736 42.1343C102.721 42.0982 102.705 42.0621 102.69 42.026C101.845 40.0307 101.863 37.9748 101.949 36.928C101.955 36.8504 102.011 36.8179 102.035 36.8079C102.059 36.7981 102.121 36.78 102.182 36.8296C102.595 37.1689 103.184 37.7032 103.773 38.4097C103.745 38.7401 103.73 39.0767 103.73 39.4187C103.73 41.3591 103.965 43.3625 104.419 44.8326C104.348 44.8407 104.276 44.8498 104.206 44.8596ZM105.903 42.4537C105.649 43.2659 105.477 44.0367 105.401 44.7117C105.399 44.7235 105.398 44.7361 105.397 44.7478C105.253 44.755 105.109 44.7641 104.967 44.7767C104.944 44.7062 104.921 44.6333 104.9 44.5593C104.494 43.1902 104.272 41.3644 104.272 39.4187C104.272 39.2987 104.273 39.1795 104.278 39.0604C104.669 39.6037 105.036 40.2228 105.327 40.9105C105.547 41.4312 105.74 41.9502 105.903 42.4528V42.4537H105.903ZM106.185 44.7261C106.105 44.7261 106.024 44.727 105.944 44.7288C105.991 44.3318 106.072 43.8994 106.186 43.4446C106.299 43.8994 106.38 44.3318 106.427 44.7288C106.347 44.7271 106.265 44.7261 106.185 44.7261ZM107.405 44.7767C107.262 44.7641 107.118 44.755 106.974 44.7478C106.973 44.736 106.972 44.7234 106.97 44.7117C106.894 44.0359 106.722 43.2651 106.469 42.4519C106.631 41.9492 106.824 41.4312 107.044 40.9105C107.336 40.2219 107.703 39.6028 108.094 39.0595C108.099 39.1786 108.101 39.2987 108.101 39.4187C108.101 41.3644 107.877 43.1901 107.472 44.5593C107.45 44.6332 107.427 44.7062 107.405 44.7767ZM109.287 42.8986C108.915 43.6719 108.531 44.3281 108.166 44.8605C108.095 44.8498 108.024 44.8407 107.953 44.8326C108.406 43.3625 108.642 41.3589 108.642 39.4187C108.642 39.0758 108.627 38.7392 108.599 38.4088C109.188 37.7022 109.777 37.1689 110.19 36.8294C110.221 36.8041 110.253 36.796 110.279 36.796C110.304 36.796 110.324 36.8032 110.336 36.8078C110.36 36.8176 110.416 36.8503 110.422 36.9278C110.444 37.1941 110.461 37.5253 110.461 37.9035C110.461 39.0153 110.311 40.5378 109.681 42.026C109.654 42.0891 109.627 42.1524 109.6 42.2146C109.599 42.2164 109.598 42.2172 109.598 42.219C109.497 42.4519 109.393 42.6766 109.289 42.8915C109.289 42.8941 109.288 42.8959 109.287 42.8986ZM110.822 45.5194C110.409 45.3632 109.97 45.2279 109.51 45.1151C109.444 44.5763 109.511 43.9555 109.707 43.3381C109.734 43.256 109.761 43.1757 109.791 43.0963C109.792 43.0945 109.793 43.0926 109.794 43.0909C109.875 42.8735 109.971 42.6676 110.076 42.4772C110.076 42.4763 110.076 42.4763 110.076 42.4763C110.527 41.6641 111.157 41.1308 111.705 41.1308C111.786 41.1308 111.865 41.1426 111.943 41.1668C112.589 41.3726 112.876 42.4141 112.672 43.5917C112.401 43.6215 112.132 43.7163 111.879 43.8733C111.425 44.1567 111.08 44.6124 110.908 45.1566C110.87 45.2766 110.841 45.3976 110.822 45.5194ZM111.601 45.8506C111.515 45.8101 111.429 45.7703 111.34 45.7315C111.353 45.5944 111.381 45.4572 111.424 45.3209C111.558 44.8986 111.822 44.5484 112.166 44.3328C112.286 44.2588 112.409 44.2038 112.535 44.1704C112.529 44.1902 112.523 44.2101 112.517 44.2299C112.312 44.876 111.99 45.4438 111.602 45.8508H111.601V45.8506ZM113.379 47.0266C113.018 46.6908 112.587 46.3831 112.099 46.1097C112.496 45.6548 112.822 45.0592 113.033 44.3941C113.058 44.3129 113.083 44.2326 113.104 44.1523C113.136 44.1595 113.166 44.1676 113.197 44.1776C113.742 44.3499 114.077 44.913 114.077 45.5529C114.077 45.7425 114.048 45.9383 113.986 46.1333C113.867 46.5076 113.648 46.8171 113.379 47.0266Z" fill="#DB9768"/>
<defs>
<linearGradient id="paint0_linear_10542_315286" x1="202" y1="9.98438" x2="169.885" y2="223.441" gradientUnits="userSpaceOnUse">
<stop stop-color="#E6427A" stop-opacity="0.16"/>
<stop offset="1" stop-color="#D39C6E" stop-opacity="0.1"/>
</linearGradient>
</defs>
</svg>
