<svg width="20" height="20" viewBox="0 0 20 20" fill="none" xmlns="http://www.w3.org/2000/svg">
<path fill-rule="evenodd" clip-rule="evenodd" d="M1.08681 6.54754L15.6883 3.23617L15.486 2.34369C15.4298 2.08959 15.1735 1.93006 14.9218 1.98621L1.23762 5.0683C0.983527 5.12446 0.823996 5.37855 0.880147 5.63265C0.949778 5.9361 1.01727 6.24409 1.08702 6.54767L1.08681 6.54754ZM0.965428 4.25908L14.8227 1.14085C15.4836 0.992527 16.1423 1.40842 16.2907 2.06934L17.743 8.48772H16.8752L16.2164 5.58088L1.61487 8.89225L2.51867 12.8783L2.59963 13.2312C2.63111 13.3728 2.77276 13.465 2.91668 13.4313L3.02459 13.4066V14.2564L3.00885 14.261C2.46036 14.3847 1.91403 14.0363 1.78813 13.4899L0.0322631 5.72967C-0.0419001 5.39915 0.011991 5.08903 0.19192 4.80118C0.371722 4.51347 0.634746 4.33353 0.96527 4.25936L0.965428 4.25908ZM4.56239 8.71925C3.88574 8.71925 3.33486 9.27225 3.33486 9.94903V17.9343C3.33486 18.6109 3.88561 19.1618 4.56239 19.1618H18.7704C19.447 19.1618 20 18.6088 20 17.9343V9.94903C20 9.27238 19.447 8.71925 18.7704 8.71925H4.56239ZM18.4715 12.2936V10.6682C18.4715 10.5626 18.3883 10.4794 18.2827 10.4794H14.6474C14.544 10.4794 14.4585 10.5647 14.4585 10.6682V12.2936C14.4585 12.397 14.5439 12.4825 14.6474 12.4825H18.2827C18.3838 12.4825 18.4715 12.3993 18.4715 12.2936ZM15.7917 17.2215C15.6861 17.2215 15.6006 17.136 15.6006 17.0327V16.655C15.6006 16.5517 15.6861 16.4662 15.7917 16.4662H18.2804C18.3838 16.4662 18.4693 16.5517 18.4693 16.655V17.0327C18.4693 17.136 18.3839 17.2215 18.2804 17.2215H15.7917ZM12.3186 17.2215C12.2152 17.2215 12.1297 17.136 12.1297 17.0327V16.6572C12.1297 16.5516 12.2151 16.4683 12.3186 16.4683H14.8095C14.9128 16.4683 14.9983 16.5537 14.9983 16.6572V17.0327C14.9983 17.136 14.9129 17.2215 14.8095 17.2215H12.3186ZM8.84731 17.2215C8.74393 17.2215 8.65844 17.136 8.65844 17.0327V16.6572C8.65844 16.5516 8.7438 16.4683 8.84731 16.4683H11.3382C11.4416 16.4683 11.5271 16.5537 11.5271 16.6572V17.0327C11.5271 17.136 11.4416 17.2215 11.3382 17.2215H8.84731ZM5.37638 17.2215C5.27301 17.2215 5.18751 17.136 5.18751 17.0327V16.6572C5.18751 16.5516 5.27301 16.4683 5.37638 16.4683H7.8673C7.97068 16.4683 8.05618 16.5537 8.05618 16.6572V17.0327C8.05618 17.136 7.97081 17.2215 7.8673 17.2215H5.37638Z" fill="#707070"/>
</svg>
