<svg width="14" height="14" viewBox="0 0 14 14" fill="none" xmlns="http://www.w3.org/2000/svg">
<path d="M4.49323 12.6016C4.34618 12.602 4.22385 12.4883 4.21362 12.3416C3.96759 8.7655 3.85575 8.65366 0.279608 8.4076C0.125201 8.4076 0 8.2824 0 8.12799C0 7.97359 0.125201 7.84838 0.279608 7.84838C3.85572 7.60235 3.96756 7.49052 4.21362 3.91437C4.21362 3.75997 4.33882 3.63477 4.49323 3.63477C4.64763 3.63477 4.77284 3.75997 4.77284 3.91437C5.01887 7.49049 5.1307 7.60233 8.70685 7.84838C8.86125 7.84838 8.98645 7.97359 8.98645 8.12799C8.98645 8.2824 8.86125 8.4076 8.70685 8.4076C5.13074 8.65363 5.01889 8.76547 4.77284 12.3416C4.7626 12.4883 4.64027 12.602 4.49323 12.6016ZM2.65906 8.12789C3.75516 8.38515 4.23612 8.86612 4.49323 9.96206C4.75049 8.86596 5.23146 8.385 6.32739 8.12789C5.2313 7.87062 4.75034 7.38966 4.49323 6.29372C4.23596 7.38969 3.755 7.87065 2.65906 8.12789Z" fill="#E6427A"/>
<path d="M10.0858 6.73018C9.93878 6.73056 9.81645 6.61684 9.80622 6.47017C9.62722 3.88378 9.57691 3.83348 6.99055 3.6545C6.83614 3.6545 6.71094 3.5293 6.71094 3.37489C6.71094 3.22048 6.83614 3.09528 6.99055 3.09528C9.57694 2.91628 9.62724 2.86598 9.80622 0.279608C9.80622 0.125201 9.93142 0 10.0858 0C10.2402 0 10.3654 0.125201 10.3654 0.279608C10.5444 2.866 10.5947 2.9163 13.1811 3.09528C13.3355 3.09528 13.4607 3.22048 13.4607 3.37489C13.4607 3.5293 13.3355 3.6545 13.1811 3.6545C10.5947 3.8335 10.5444 3.8838 10.3654 6.47017C10.3552 6.61684 10.2329 6.73055 10.0858 6.73018ZM9.03731 3.37488C9.29008 3.43954 9.52076 3.57098 9.70524 3.75547C9.88973 3.93996 10.0212 4.17063 10.0858 4.4234C10.1505 4.17062 10.2819 3.93994 10.4664 3.75547C10.6509 3.57098 10.8816 3.43953 11.1343 3.37488C10.8816 3.31022 10.6509 3.17878 10.4664 2.99429C10.2819 2.8098 10.1505 2.57913 10.0858 2.32636C10.0212 2.57914 9.88973 2.80982 9.70524 2.99429C9.52075 3.17878 9.29008 3.31022 9.03731 3.37488Z" fill="#E6427A"/>
<path d="M11.0645 14.0001C10.9175 14.0005 10.7952 13.8868 10.7849 13.7401C10.6479 11.7633 10.6479 11.7632 8.66828 11.6234C8.51387 11.6234 8.38867 11.4982 8.38867 11.3438C8.38867 11.1894 8.51387 11.0642 8.66828 11.0642C10.6479 10.9244 10.6479 10.9244 10.7849 8.94758C10.7849 8.79317 10.9101 8.66797 11.0645 8.66797C11.2189 8.66797 11.3441 8.79317 11.3441 8.94758C11.4812 10.9272 11.4812 10.9272 13.4608 11.0642C13.6152 11.0642 13.7404 11.1894 13.7404 11.3438C13.7404 11.4982 13.6152 11.6234 13.4608 11.6234C11.4812 11.7632 11.4812 11.7633 11.3441 13.7401C11.3339 13.8868 11.2116 14.0005 11.0645 14.0001ZM10.4298 11.3438C10.7208 11.4575 10.9508 11.6876 11.0645 11.9786C11.1783 11.6876 11.4083 11.4575 11.6993 11.3438C11.4083 11.2301 11.1782 11.0001 11.0645 10.7091C10.9508 11.0001 10.7208 11.2301 10.4298 11.3438Z" fill="#E6427A"/>
</svg>
