<svg width="14" height="16" viewBox="0 0 14 16" fill="none" xmlns="http://www.w3.org/2000/svg">
<path d="M3.29632 14.9999H10.5934C12.0231 14.9999 13.1927 13.8301 13.1927 12.4005L13.1929 4.99208C13.1929 3.56235 12.0231 2.39269 10.5935 2.39269H10.1108V1.37145C10.1108 1.1672 9.94368 1.00013 9.73944 1.00013C9.5352 1.00013 9.36813 1.16721 9.36813 1.37145V2.39269L4.52201 2.39256V1.37132C4.52201 1.16707 4.35493 1 4.15069 1C3.94645 1 3.77937 1.16708 3.77937 1.37132V2.39256H3.29665C1.86692 2.39256 0.697266 3.56235 0.697266 4.99195V12.3818C0.697136 13.8302 1.86679 15 3.29655 15L3.29632 14.9999ZM3.29632 3.13526H3.77904V4.52782C3.77904 4.73207 3.94612 4.89914 4.15036 4.89914C4.3546 4.89914 4.52168 4.73206 4.52168 4.52782V3.13526H9.38636V4.52782C9.38636 4.73207 9.55344 4.89914 9.75768 4.89914C9.96193 4.89914 10.129 4.73206 10.129 4.52782V3.13526H10.6117C11.633 3.13526 12.4685 3.97076 12.4685 4.99201V6.49595H1.4397V4.99201C1.4397 3.97076 2.27521 3.13526 3.29645 3.13526H3.29632ZM1.43957 7.23868H12.4501V12.3819C12.4501 13.4031 11.6146 14.2386 10.5934 14.2386H3.29632C2.27508 14.2386 1.43957 13.4031 1.43957 12.3819V7.23868Z" fill="#E6427A" stroke="#E6427A" stroke-width="0.4"/>
</svg>
