<svg width="16" height="15" viewBox="0 0 16 15" fill="none" xmlns="http://www.w3.org/2000/svg">
<path d="M7.99997 1.00006C6.14348 1.00006 4.3631 1.72026 3.05024 3.00225C1.73752 4.28432 1 6.0232 1 7.836C1 9.64879 1.73749 11.3876 3.05024 12.6697C4.36307 13.9517 6.14368 14.6719 7.99997 14.6719C9.85626 14.6719 11.6368 13.9517 12.9497 12.6697C14.2624 11.3877 14.9999 9.64879 14.9999 7.836C14.9978 6.02356 14.2597 4.28602 12.9474 3.00448C11.6351 1.72294 9.85592 1.00206 7.99991 1L7.99997 1.00006ZM7.99997 14.1838C6.27608 14.1838 4.62281 13.515 3.40367 12.3246C2.18469 11.1342 1.49986 9.51958 1.49986 7.83597C1.49986 6.15236 2.18469 4.53795 3.40367 3.34737C4.62264 2.15696 6.27596 1.48817 7.99997 1.48817C9.72398 1.48817 11.3771 2.15696 12.5963 3.34737C13.8153 4.53778 14.5001 6.15236 14.5001 7.83597C14.4982 9.51891 13.8127 11.1323 12.5942 12.3223C11.3756 13.5123 9.72329 14.1818 8.00014 14.1836L7.99997 14.1838Z" fill="#E6427A" stroke="#E6427A" stroke-width="0.1"/>
<path d="M7.99997 1.97656C6.40868 1.97656 4.88253 2.59389 3.75738 3.69276C2.63215 4.79163 2 6.28198 2 7.83593C2 9.38988 2.63215 10.8803 3.75738 11.9791C4.88261 13.078 6.40873 13.6953 7.99997 13.6953C9.5912 13.6953 11.1174 13.078 12.2426 11.9791C13.3678 10.8802 13.9999 9.38988 13.9999 7.83593C13.998 6.28246 13.3653 4.79322 12.2406 3.69471C11.1157 2.59629 9.59066 1.9784 7.99997 1.97656ZM7.99997 13.2071C6.54125 13.2071 5.14224 12.6412 4.11081 11.6339C3.07932 10.6266 2.49986 9.26052 2.49986 7.8359C2.49986 6.41128 3.07932 5.04514 4.11081 4.03788C5.1423 3.03056 6.54116 2.46468 7.99997 2.46468C9.45877 2.46468 10.8577 3.03056 11.8891 4.03788C12.9206 5.0452 13.5001 6.41128 13.5001 7.8359C13.4984 9.25988 12.9184 10.6251 11.8874 11.632C10.8562 12.6388 9.4582 13.2053 8.0002 13.2069L7.99997 13.2071Z" fill="#E6427A" stroke="#E6427A" stroke-width="0.1"/>
<path d="M11.5121 6.82795L9.23952 6.50783L8.22121 4.49833L8.22132 4.49822C8.17902 4.41473 8.09174 4.36198 7.99632 4.36231C7.90078 4.36209 7.81339 4.41506 7.77132 4.49876L6.75737 6.51022L4.48705 6.83545C4.39363 6.84962 4.31651 6.91392 4.28749 7.00166C4.25847 7.0894 4.28258 7.18575 4.34977 7.25049L5.99555 8.813L5.61006 11.0235C5.59399 11.1151 5.6326 11.2077 5.70973 11.2622C5.78673 11.3168 5.88885 11.3239 5.97301 11.2806L8.00427 10.2351L10.0363 11.2788C10.1208 11.3227 10.2235 11.3157 10.3008 11.2606C10.378 11.2057 10.4166 11.1125 10.3998 11.0205L10.0093 8.81102L11.6518 7.24416C11.7199 7.1792 11.7442 7.08219 11.7148 6.9938C11.6853 6.90551 11.607 6.8411 11.5128 6.82791L11.5121 6.82795ZM9.56507 8.55135C9.50625 8.60748 9.47958 8.68824 9.49353 8.76737L9.81999 10.616L8.11998 9.74492C8.0471 9.70775 7.96016 9.70775 7.88728 9.74492L6.18727 10.6197L6.50982 8.77033C6.52366 8.69109 6.49676 8.61033 6.43772 8.55431L5.06071 7.24618L6.96072 6.97468H6.96083C7.04231 6.96301 7.11273 6.91299 7.149 6.84083L7.99701 5.15767L8.84981 6.83941C8.8863 6.91145 8.95684 6.96126 9.03832 6.97271L10.9396 7.24126L9.56507 8.55135Z" fill="#E6427A" stroke="#E6427A" stroke-width="0.1"/>
</svg>
