<svg width="14" height="14" viewBox="0 0 14 14" fill="none" xmlns="http://www.w3.org/2000/svg">
<path d="M6.06667 0H0.466667C0.342917 0 0.224165 0.049168 0.136667 0.136667C0.049168 0.224165 0 0.342917 0 0.466667V6.06667C0 6.19042 0.049168 6.30917 0.136667 6.39667C0.224165 6.48417 0.342917 6.53333 0.466667 6.53333H6.06667C6.19042 6.53333 6.30917 6.48417 6.39667 6.39667C6.48417 6.30917 6.53333 6.19042 6.53333 6.06667V0.466667C6.53333 0.342917 6.48417 0.224165 6.39667 0.136667C6.30917 0.049168 6.19042 0 6.06667 0ZM5.6 5.6H0.933333V0.933333H5.6V5.6ZM10.7333 6.53333C11.5997 6.53333 12.4306 6.18917 13.0432 5.57656C13.6558 4.96395 14 4.13301 14 3.26667C14 2.40032 13.6558 1.56939 13.0432 0.956773C12.4306 0.34416 11.5997 0 10.7333 0C9.86699 0 9.03605 0.34416 8.42344 0.956773C7.81083 1.56939 7.46667 2.40032 7.46667 3.26667C7.46667 4.13301 7.81083 4.96395 8.42344 5.57656C9.03605 6.18917 9.86699 6.53333 10.7333 6.53333ZM10.7333 0.933333C11.3522 0.933333 11.9456 1.17917 12.3832 1.61677C12.8208 2.05438 13.0667 2.64781 13.0667 3.26667C13.0667 3.88552 12.8208 4.47896 12.3832 4.91656C11.9456 5.35416 11.3522 5.6 10.7333 5.6C10.1145 5.6 9.52104 5.35417 9.08344 4.91656C8.64584 4.47895 8.4 3.88552 8.4 3.26667C8.4 2.64781 8.64583 2.05437 9.08344 1.61677C9.52104 1.17917 10.1145 0.933333 10.7333 0.933333ZM6.06667 7.46667H0.466667C0.342917 7.46667 0.224165 7.51583 0.136667 7.60333C0.049168 7.69083 0 7.80958 0 7.93333V13.5333C0 13.6571 0.049168 13.7758 0.136667 13.8633C0.224165 13.9508 0.342917 14 0.466667 14H6.06667C6.19042 14 6.30917 13.9508 6.39667 13.8633C6.48417 13.7758 6.53333 13.6571 6.53333 13.5333V7.93333C6.53333 7.80958 6.48417 7.69083 6.39667 7.60333C6.30917 7.51583 6.19042 7.46667 6.06667 7.46667ZM5.6 13.0667H0.933333V8.4H5.6V13.0667ZM13.5333 7.46667H7.93333C7.80958 7.46667 7.69083 7.51583 7.60333 7.60333C7.51583 7.69083 7.46667 7.80958 7.46667 7.93333V13.5333C7.46667 13.6571 7.51583 13.7758 7.60333 13.8633C7.69083 13.9508 7.80958 14 7.93333 14H13.5333C13.6571 14 13.7758 13.9508 13.8633 13.8633C13.9508 13.7758 14 13.6571 14 13.5333V7.93333C14 7.80958 13.9508 7.69083 13.8633 7.60333C13.7758 7.51583 13.6571 7.46667 13.5333 7.46667ZM13.0667 13.0667H8.4V8.4H13.0667V13.0667Z" fill="#E6427A"/>
</svg>
