<svg width="16" height="14" viewBox="0 0 16 14" fill="none" xmlns="http://www.w3.org/2000/svg">
<path d="M10.4944 6.80553C10.2497 7.09682 9.95596 7.34327 9.62653 7.53343C9.41548 7.66752 9.34768 7.94418 9.47289 8.16072C9.59797 8.37724 9.8715 8.45652 10.0931 8.34061C10.5163 8.09674 10.8936 7.78099 11.2082 7.40754C11.3744 7.21029 11.3494 6.91585 11.1522 6.74963C10.9551 6.58341 10.6606 6.60842 10.4944 6.80554L10.4944 6.80553Z" fill="#E6427A" stroke="#F7F7F7" stroke-width="0.1"/>
<path d="M8.53898 1.48605C8.91488 1.54975 9.27657 1.6792 9.60737 1.86867C9.83154 1.99757 10.1178 1.9202 10.2467 1.69602C10.3755 1.47185 10.2982 1.18575 10.0741 1.05683C9.64881 0.814886 9.18459 0.649091 8.70221 0.566926C8.44454 0.524416 8.20124 0.698834 8.15872 0.956508C8.11621 1.21418 8.29063 1.45761 8.5483 1.50013L8.53898 1.48605Z" fill="#E6427A" stroke="#F7F7F7" stroke-width="0.1"/>
<path d="M11.0491 3.56732C11.0872 3.68993 11.1742 3.79136 11.2894 3.84795C11.4046 3.9044 11.538 3.91096 11.6583 3.86599C11.7786 3.82102 11.875 3.72834 11.9247 3.6101C11.9746 3.49173 11.9734 3.35818 11.9216 3.24061C11.7509 2.78254 11.5014 2.35783 11.1844 1.98564C11.017 1.78976 10.7224 1.76679 10.5267 1.93424C10.3308 2.10169 10.3078 2.39626 10.4753 2.59215C10.7219 2.88139 10.9161 3.21136 11.0491 3.56731L11.0491 3.56732Z" fill="#E6427A" stroke="#F7F7F7" stroke-width="0.1"/>
<path d="M6.34169 1.9059C6.67071 1.71426 7.03074 1.58167 7.40542 1.51401C7.66309 1.46767 7.83451 1.22121 7.78804 0.963425C7.7417 0.705758 7.49524 0.534476 7.23759 0.580807C6.75601 0.667881 6.29333 0.838474 5.8704 1.08478C5.75776 1.1437 5.67411 1.24608 5.63857 1.36815C5.60316 1.49035 5.61916 1.62158 5.68272 1.73176C5.74642 1.8418 5.85222 1.92109 5.97579 1.95143C6.09922 1.98164 6.22976 1.96018 6.33706 1.89197L6.34169 1.9059Z" fill="#E6427A" stroke="#F7F7F7" stroke-width="0.1"/>
<path d="M4.31684 3.88476C4.55906 3.97225 4.82641 3.8469 4.91403 3.60481C5.04334 3.24627 5.23444 2.91299 5.47858 2.62034C5.64357 2.42187 5.61637 2.12729 5.41803 1.96243C5.21955 1.79745 4.92497 1.82465 4.76011 2.02313C4.44531 2.40476 4.2005 2.83917 4.03687 3.30612C3.96128 3.54274 4.08444 3.79712 4.31682 3.88474L4.31684 3.88476Z" fill="#E6427A" stroke="#F7F7F7" stroke-width="0.1"/>
<path d="M6.36535 7.53734C6.03415 7.34761 5.7389 7.10129 5.49283 6.80944C5.32661 6.61233 5.03203 6.58732 4.83491 6.75354C4.6378 6.91975 4.61265 7.21433 4.77887 7.41145C5.0949 7.78532 5.47394 8.1012 5.89866 8.34451C6.00596 8.41272 6.13651 8.43418 6.26007 8.40397C6.3835 8.37376 6.48931 8.29434 6.553 8.18431C6.61657 8.07427 6.63256 7.94291 6.59716 7.82083C6.56162 7.69863 6.47796 7.59624 6.36532 7.53733L6.36535 7.53734Z" fill="#E6427A" stroke="#F7F7F7" stroke-width="0.1"/>
<path d="M12.1321 5.39582C12.1698 5.16754 12.1885 4.93667 12.1881 4.70526V4.67259C12.1881 4.41492 11.9792 4.20605 11.7216 4.20605C11.4639 4.20605 11.2549 4.41492 11.2549 4.67259V4.70526C11.2522 4.86164 11.2381 5.0176 11.2129 5.17193H10.7884C9.75426 5.17425 8.75751 5.55794 7.98888 6.24962C7.22025 5.55794 6.2235 5.17427 5.1894 5.17193H4.76483C4.73968 5.0176 4.7256 4.86164 4.72287 4.70526C4.72287 4.44759 4.51386 4.23872 4.25619 4.23872C3.99853 4.23872 3.78966 4.44759 3.78966 4.70526C3.79185 4.93053 3.81208 5.15524 3.85035 5.37724C2.65729 5.78183 1.70893 6.70083 1.267 7.88049C0.824928 9.06029 0.935931 10.3761 1.56936 11.4652C2.20281 12.5541 3.29171 13.3013 4.53562 13.5003C5.77967 13.6995 7.0472 13.3296 7.98891 12.4926C8.92771 13.339 10.1979 13.7175 11.4468 13.523C12.6959 13.3286 13.7908 12.5818 14.4278 11.4899C15.0648 10.3982 15.1761 9.07744 14.7307 7.89435C14.2855 6.71125 13.331 5.79187 12.1321 5.39109L12.1321 5.39582ZM7.98883 11.0462C7.68482 10.5402 7.52352 9.96141 7.5223 9.37117C7.52394 9.20701 7.53802 9.04325 7.56426 8.88127C7.84804 8.91271 8.13427 8.91271 8.41803 8.88127C8.44277 9.04338 8.45521 9.20714 8.45535 9.37117C8.45412 9.96141 8.29282 10.5402 7.98882 11.0462H7.98883ZM7.98883 7.69614C8.04173 7.78322 8.08834 7.87193 8.1288 7.96215L7.98883 7.97144H7.84886C7.88932 7.87179 7.93593 7.78007 7.98883 7.69615V7.69614ZM2.87979 11.6808C2.08534 10.8843 1.75657 9.73514 2.00975 8.63915C2.26291 7.54315 3.06228 6.6545 4.12563 6.2872C4.23867 6.4146 4.41227 6.47037 4.57837 6.43251C4.74459 6.39451 4.87677 6.26902 4.92339 6.10513H5.18939C5.99382 6.10581 6.76969 6.40312 7.36829 6.94031C6.86512 7.65016 6.59487 8.49875 6.59487 9.36893C6.59487 10.239 6.86511 11.0876 7.36829 11.7974C6.74646 12.3548 5.93479 12.653 5.09988 12.6304C4.26511 12.6079 3.47062 12.2664 2.87986 11.6761L2.87979 11.6808ZM13.0979 11.6808C12.5071 12.2711 11.7126 12.6125 10.8779 12.6351C10.0429 12.6577 9.23124 12.3595 8.60944 11.8021C9.11261 11.0923 9.38286 10.2437 9.38286 9.37362C9.38286 8.50344 9.11262 7.65485 8.60944 6.94501C9.20733 6.40618 9.98335 6.10709 10.7883 6.10517H11.059C11.1014 6.24255 11.2046 6.35272 11.3389 6.40384C11.5201 6.46782 11.7219 6.4141 11.8474 6.26852C12.9134 6.63402 13.7155 7.52321 13.9697 8.62088C14.224 9.71866 13.8944 10.8699 13.0979 11.6668L13.0979 11.6808Z" fill="#E6427A" stroke="#F7F7F7" stroke-width="0.1"/>
</svg>
