<svg width="16" height="16" viewBox="0 0 16 16" fill="none" xmlns="http://www.w3.org/2000/svg">
<path fill-rule="evenodd" clip-rule="evenodd" d="M8.1936 4.51727L12.0248 8.3046C12.9055 9.18863 11.5842 10.5147 10.7033 9.63083L9.05787 7.97936C8.78216 7.70267 8.56108 7.79556 8.56108 8.18378V15.0623C8.56108 15.5804 8.14261 16 7.62669 16C7.11043 16 6.6923 15.5804 6.6923 15.0623V8.18378C6.6923 7.79687 6.46973 7.70398 6.19534 7.97936L4.54973 9.63083C3.6688 10.5147 2.34751 9.18867 3.22827 8.3046L7.02787 4.51957C7.34872 4.19987 7.87121 4.1984 8.19368 4.51728L8.1936 4.51727ZM2.93766 1.87531C2.41976 1.87531 2 1.45555 2 0.937655C2 0.419764 2.41976 0 2.93766 0H12.315C12.8329 0 13.2527 0.419764 13.2527 0.937655C13.2527 1.45555 12.8329 1.87531 12.315 1.87531H2.93766Z" fill="#E6427A"/>
</svg>
