<svg width="16" height="14" viewBox="0 0 16 14" fill="none" xmlns="http://www.w3.org/2000/svg">
<path d="M14.9084 7.24868C14.7826 7.11597 11.7816 4 8 4C4.21843 4 1.21738 7.11578 1.09159 7.24868C0.96947 7.37728 0.96947 7.57897 1.09159 7.70757C1.21741 7.84028 4.21843 10.9563 8 10.9563C11.7816 10.9563 14.7826 7.84047 14.9084 7.70757C15.0305 7.57897 15.0305 7.37728 14.9084 7.24868ZM8 10.2895C5.08211 10.2895 2.57396 8.18657 1.81185 7.47815C2.57398 6.76968 5.08211 4.66684 8 4.66684C10.9179 4.66684 13.426 6.76973 14.1881 7.47815C13.4261 8.18662 10.9179 10.2895 8 10.2895Z" fill="#E6427A" stroke="#E6427A" stroke-width="0.1"/>
<path d="M5.43896 7.47794C5.43896 8.89004 6.58781 10.0388 7.9998 10.0388C9.41191 10.0388 10.5607 8.88993 10.5607 7.47794C10.5607 6.06583 9.41191 4.91699 7.9998 4.91699C6.5877 4.91699 5.43896 6.06583 5.43896 7.47794ZM9.89396 7.47794C9.89396 8.52243 9.04425 9.37214 7.99975 9.37214C6.95525 9.37214 6.10554 8.52243 6.10554 7.47794C6.10554 6.43344 6.95525 5.58373 7.99975 5.58373C9.04425 5.58373 9.89396 6.43344 9.89396 7.47794Z" fill="#E6427A" stroke="#E6427A" stroke-width="0.1"/>
<path d="M7.6665 6.24147C7.6665 6.42557 7.81576 6.57483 7.99987 6.57483C8.49813 6.57483 8.90345 6.98015 8.90345 7.47841C8.90345 7.66252 9.05271 7.81178 9.23682 7.81178C9.42093 7.81178 9.57008 7.66252 9.57008 7.47841C9.57008 6.61257 8.86561 5.9082 7.99987 5.9082C7.81576 5.9082 7.6665 6.05736 7.6665 6.24147Z" fill="#E6427A" stroke="#E6427A" stroke-width="0.1"/>
</svg>
