<svg width="16" height="11" viewBox="0 0 16 11" fill="none" xmlns="http://www.w3.org/2000/svg">
<path d="M10.3915 2.13574C9.12466 2.13574 8.18555 2.63808 8.18555 3.31511C8.18555 3.99223 9.12466 4.49449 10.3915 4.49449C11.6364 4.49449 12.5974 3.99215 12.5974 3.31511C12.5974 2.63808 11.6364 2.13574 10.3915 2.13574ZM10.3915 4.07967C9.38677 4.07967 8.62232 3.68652 8.62232 3.33707C8.62232 2.98752 9.38677 2.57263 10.3915 2.57263C11.3962 2.57263 12.1606 2.96578 12.1606 3.31522C12.1605 3.66466 11.3961 4.07967 10.3915 4.07967Z" fill="#E6427A" stroke="#E6427A" stroke-width="0.2"/>
<path d="M14.7598 5.84862C14.8909 5.84862 14.9782 5.76129 14.9782 5.63024L14.9783 3.33697C14.9783 2.02656 12.9689 1 10.3917 1C7.81451 1 5.80515 2.02656 5.80515 3.33697V4.29794C3.09681 3.66454 1.21857 4.36342 1.13105 4.40713C1.06558 4.42899 1 4.51633 1 4.60366V9.21226C1 9.36517 1.15291 9.47436 1.30582 9.40878C1.32768 9.40878 3.75198 8.51327 7.05005 9.7146C8.31686 10.1732 9.71464 10.3699 11.1561 10.2607C12.816 10.1296 13.9734 9.671 14.585 8.9284C14.8471 8.60081 15 8.18581 15 7.72718L14.9999 6.72237C14.9999 6.59132 14.9126 6.50398 14.7815 6.50398C14.6505 6.50398 14.5631 6.59132 14.5631 6.72237V7.70522C14.5631 8.05466 14.4539 8.38233 14.2573 8.62259C13.7331 9.25599 12.6411 9.671 11.1339 9.78019C9.77975 9.88938 8.42555 9.71471 7.20266 9.27785C5.84851 8.77551 4.62543 8.62259 3.64272 8.62259V4.47281C4.03587 4.47281 4.47264 4.49467 4.93138 4.56015V6.83164C4.93138 6.96269 5.01872 7.05002 5.14977 7.05002C5.28082 7.05002 5.36816 6.96269 5.36816 6.83164V4.64748C5.76131 4.71296 6.17623 4.82225 6.59123 4.9533V6.26371C6.59123 6.39476 6.67857 6.4821 6.80962 6.4821C6.94067 6.4821 7.02801 6.39476 7.02801 6.26371V5.10611C7.44301 5.23716 7.83608 5.36822 8.25109 5.45556V6.70049C8.25109 6.83154 8.33842 6.91888 8.46947 6.91888C8.60053 6.91888 8.68786 6.83154 8.68786 6.70049V5.54289C9.10286 5.60837 9.51779 5.67394 9.91094 5.6958V7.96729C9.91094 8.09834 9.99827 8.18568 10.1293 8.18568C10.2604 8.18568 10.3477 8.09834 10.3477 7.96729L10.3479 5.67403C10.7411 5.67403 11.1124 5.65217 11.571 5.60855V6.76615C11.571 6.8972 11.6583 6.98454 11.7894 6.98454C11.9204 6.98454 12.0078 6.8972 12.0078 6.76615V5.54307C12.4664 5.45574 12.8814 5.3683 13.2309 5.21548V6.26389C13.2309 6.39494 13.3182 6.48228 13.4492 6.48228C13.5803 6.48228 13.6676 6.39494 13.6676 6.26389V5.01896C14.0389 4.82243 14.3229 4.60395 14.5631 4.34184L14.5632 5.6303C14.5414 5.76135 14.6287 5.84869 14.7598 5.84869L14.7598 5.84862ZM3.18411 8.64423C2.37592 8.68784 1.7644 8.81889 1.43681 8.90633V4.75655C1.69891 4.66922 2.31044 4.51631 3.18411 4.49445V8.64423ZM6.24174 4.38518V4.31971L6.30721 4.38518C6.28546 4.40704 6.2636 4.40704 6.24174 4.38518ZM10.3698 5.23696C8.12013 5.23696 6.24174 4.36333 6.24174 3.33677C6.24174 2.31021 8.14193 1.43658 10.3915 1.43658C12.6412 1.43658 14.5413 2.31021 14.5413 3.33677C14.5414 4.71277 11.7894 5.23696 10.3698 5.23696Z" fill="#E6427A" stroke="#E6427A" stroke-width="0.2"/>
</svg>
