<svg width="14" height="14" viewBox="0 0 14 14" fill="none" xmlns="http://www.w3.org/2000/svg">
<path d="M5.25281 1.84628C5.16783 1.79791 5.0694 1.77876 4.97254 1.79173C4.8756 1.80479 4.78574 1.84927 4.71664 1.91829L1.14219 5.49273C1.05343 5.57541 1.00217 5.6906 1.00007 5.81178C0.997879 5.93295 1.04505 6.04984 1.13082 6.13562C1.2166 6.22129 1.33348 6.26857 1.45467 6.26637C1.57584 6.26428 1.69104 6.21302 1.77361 6.12425L5.10985 2.79159L8.98225 5.00479C9.06722 5.05306 9.16566 5.07221 9.26251 5.05914C9.35936 5.04608 9.44921 5.0017 9.51841 4.93278L12.9259 1.52582V2.82983C12.9259 2.98941 13.0111 3.1369 13.1493 3.21669C13.2875 3.29658 13.4579 3.29658 13.5961 3.21669C13.7343 3.1369 13.8195 2.9894 13.8195 2.82983V0.446801C13.8191 0.328318 13.7716 0.214722 13.6877 0.131049C13.6038 0.0472746 13.4901 0.000199148 13.3715 0H10.9886C10.8289 0 10.6814 0.0851714 10.6016 0.223403C10.5218 0.361634 10.5218 0.53198 10.6016 0.670209C10.6814 0.80844 10.8289 0.893611 10.9886 0.893611H12.2927L9.12673 4.05955L5.25281 1.84628Z" fill="#E6427A"/>
<path d="M5.37842 5.8081V13.5529C5.37842 13.7125 5.46359 13.86 5.60182 13.9398C5.74005 14.0196 5.9104 14.0196 6.04863 13.9398C6.18686 13.86 6.27203 13.7125 6.27203 13.5529V5.8081C6.27203 5.64853 6.18686 5.50103 6.04863 5.42124C5.9104 5.34136 5.74005 5.34136 5.60182 5.42124C5.46359 5.50103 5.37842 5.64853 5.37842 5.8081Z" fill="#E6427A"/>
<path d="M8.55615 7.59521V13.5528C8.55615 13.7124 8.64132 13.8599 8.77956 13.9396C8.91779 14.0195 9.08813 14.0195 9.22636 13.9396C9.36459 13.8599 9.44976 13.7124 9.44976 13.5528V7.59521C9.44976 7.43564 9.36459 7.28814 9.22636 7.20835C9.08813 7.12847 8.91778 7.12847 8.77956 7.20835C8.64132 7.28814 8.55615 7.43564 8.55615 7.59521Z" fill="#E6427A"/>
<path d="M11.7334 5.8081V13.5529C11.7334 13.7125 11.8186 13.86 11.9568 13.9398C12.095 14.0196 12.2654 14.0196 12.4036 13.9398C12.5418 13.86 12.627 13.7125 12.627 13.5529V5.8081C12.627 5.64853 12.5418 5.50103 12.4036 5.42124C12.2654 5.34136 12.095 5.34136 11.9568 5.42124C11.8186 5.50103 11.7334 5.64853 11.7334 5.8081Z" fill="#E6427A"/>
<path d="M2.20117 7.59521V13.5528C2.20117 13.7124 2.28634 13.8599 2.42457 13.9396C2.56281 14.0195 2.73315 14.0195 2.87138 13.9396C3.00961 13.8599 3.09478 13.7124 3.09478 13.5528V7.59521C3.09478 7.43564 3.00961 7.28814 2.87138 7.20835C2.73315 7.12847 2.5628 7.12847 2.42457 7.20835C2.28634 7.28814 2.20117 7.43564 2.20117 7.59521Z" fill="#E6427A"/>
</svg>
