<svg width="16" height="14" viewBox="0 0 16 14" fill="none" xmlns="http://www.w3.org/2000/svg">
<path fill-rule="evenodd" clip-rule="evenodd" d="M4.10625 8.48789C3.92892 9.83802 4.46353 11.1838 5.51924 12.044C6.57484 12.9042 8.00077 13.1563 9.28727 12.71C10.5738 12.2638 11.5374 11.1829 11.8336 9.85379H14.4878C14.6236 9.85368 14.7538 9.79972 14.8499 9.70368C14.9459 9.60764 15 9.47742 15 9.3416V3.19522C15 3.05928 14.946 2.92906 14.85 2.83302C14.754 2.73699 14.6236 2.68302 14.4878 2.68302H8.34142C8.2056 2.68302 8.07526 2.73699 7.97922 2.83302C7.88319 2.92906 7.82922 3.05928 7.82922 3.19522V5.07674V5.07663C7.6918 5.08257 7.55483 5.09572 7.41879 5.11596L5.52571 2.23129V2.23117C5.43104 2.08689 5.27006 2 5.09754 2C4.9249 2 4.76394 2.08689 4.66925 2.23117L1.08387 7.69472C1.01607 7.79819 0.987944 7.92281 1.00475 8.04536C1.02156 8.16803 1.08226 8.2803 1.17556 8.36172C1.26874 8.44312 1.38832 8.48794 1.51215 8.48794L4.10625 8.48789ZM8.00013 6.0976C8.76992 6.0976 9.50813 6.40342 10.0525 6.94776C10.5968 7.49209 10.9026 8.2303 10.9026 9.00009C10.9026 9.76988 10.5968 10.5081 10.0525 11.0524C9.50813 11.5968 8.76992 11.9026 8.00013 11.9026C7.23034 11.9026 6.49213 11.5968 5.94779 11.0524C5.40346 10.5081 5.09775 9.76988 5.09775 9.00009C5.09809 8.23042 5.40392 7.4923 5.94826 6.94811C6.49248 6.40389 7.23048 6.09795 8.00013 6.0976ZM8.85383 5.16639V5.1665C9.69691 5.35492 10.4543 5.8158 11.0092 6.47788C11.5639 7.13996 11.8852 7.96633 11.9232 8.82942H13.9758V3.70744H8.85383V5.16639ZM6.3915 5.417L5.09775 3.44571L2.4613 7.46339H4.38582H4.38571C4.7743 6.55402 5.49012 5.82369 6.3915 5.417H6.3915Z" fill="#E6427A" stroke="#F7F7F7" stroke-width="0.2"/>
</svg>
