<svg width="24" height="24" viewBox="0 0 24 24" fill="none" xmlns="http://www.w3.org/2000/svg">
<path d="M2.17037e-05 20.2283C2.17037e-05 20.7157 0.193634 21.1833 0.538324 21.528C0.883019 21.8727 1.35061 22.0665 1.83804 22.0665H22.1495C22.6369 22.0665 23.1045 21.8727 23.4492 21.528C23.7941 21.1833 23.9877 20.7157 23.9877 20.2283V12.4375H0L2.17037e-05 20.2283Z" fill="white"/>
<path d="M22.1496 5.48027H17.1192C17.0358 4.53084 16.5999 3.64694 15.8975 3.00288C15.1948 2.3586 14.2766 2.00088 13.3235 2H10.6766C9.7235 2.00085 8.80525 2.35859 8.1026 3.00288C7.40017 3.64694 6.96421 4.53084 6.88089 5.48027H1.85046C1.36302 5.48027 0.895449 5.67388 0.550743 6.01857C0.205834 6.36326 0.0122223 6.83085 0.0122223 7.31829V11.0588H24V7.33071C24.0034 6.83877 23.8093 6.36628 23.4617 6.01862C23.114 5.67094 22.6413 5.4769 22.1496 5.48032L22.1496 5.48027ZM8.48938 5.48027C8.65478 4.25495 9.4085 3.6023 10.6768 3.6023H13.3236C14.6041 3.6023 15.3456 4.24253 15.511 5.48027H8.48938Z" fill="white"/>
</svg>
