<svg width="24" height="24" viewBox="0 0 24 24" fill="none" xmlns="http://www.w3.org/2000/svg">
<path d="M4.0459 11.8186L6.08403 16.7405L15.6582 17.0491L10.5997 4.83203L4.0459 11.8186Z" fill="#707070"/>
<path d="M12.8419 3.90391C12.6611 3.46715 12.16 3.25939 11.7232 3.44037C11.2861 3.62136 11.0789 4.12227 11.2597 4.55883L16.3182 16.7759C16.499 17.213 17.0001 17.4202 17.4367 17.2394C17.8734 17.0584 18.0812 16.5573 17.9002 16.1208L12.8419 3.90391Z" fill="#707070"/>
<path d="M15.4376 7.87687L15.1738 7.98625L16.6656 11.5897L16.9294 11.4806C17.5393 11.228 18.0886 10.9234 17.3699 9.18752C16.6511 7.45129 16.0472 7.62467 15.4376 7.87691V7.87687Z" fill="#707070"/>
<path d="M17.6938 6.14306C17.7928 6.10196 17.8795 6.02886 17.9366 5.92841L19.7465 2.74653C19.883 2.50713 19.7993 2.20224 19.5593 2.06553C19.3194 1.92881 19.0145 2.01307 18.8783 2.25266L17.0685 5.43473C16.9319 5.67412 17.0156 5.97901 17.2556 6.11554C17.3947 6.19515 17.5562 6.19998 17.6938 6.14307L17.6938 6.14306Z" fill="#707070"/>
<path d="M23.6017 12.0595L20.0724 11.0883C19.8062 11.0152 19.5316 11.1718 19.4585 11.4376C19.3852 11.7038 19.5415 11.9783 19.8076 12.0518L23.337 13.023C23.4484 13.0533 23.5613 13.0438 23.6603 13.0029C23.7976 12.9458 23.9086 12.8284 23.9512 12.674C24.0239 12.408 23.8675 12.1331 23.6017 12.0595L23.6017 12.0595Z" fill="#707070"/>
<path d="M23.3091 6.18661L19.4531 7.78331C19.1981 7.88897 19.0772 8.18044 19.1826 8.43526C19.2883 8.68991 19.5805 8.81118 19.8352 8.70572L23.6912 7.1092C23.9462 7.00355 24.0671 6.7117 23.9616 6.45688C23.856 6.20167 23.5643 6.08114 23.3091 6.1866V6.18661Z" fill="#707070"/>
<path d="M3.38693 12.0938L0.990757 13.0863C0.918029 13.1163 0.828182 13.1964 0.789863 13.2654L0.0333445 14.6343C-0.00478761 14.7031 -0.0111119 14.8177 0.0190217 14.8912L1.06568 17.4189C1.09581 17.4914 1.18138 17.5684 1.25746 17.5904L2.76006 18.0234C2.83577 18.0454 2.95612 18.0383 3.02885 18.0082L5.42483 17.016L3.38693 12.0938Z" fill="#707070"/>
<path d="M5.63843 17.5312L3.59473 18.3771L5.45076 22.8597C5.4809 22.9325 5.56404 22.9674 5.63715 22.9371L7.4169 22.2003C7.48962 22.1702 7.52441 22.0865 7.49428 22.0136L5.63843 17.5312Z" fill="#707070"/>
</svg>
