<svg width="24" height="24" viewBox="0 0 24 24" fill="none" xmlns="http://www.w3.org/2000/svg">
<path d="M10.0516 8.56866L13.8148 4.80551C14.002 4.61828 14.002 4.31593 13.8148 4.1287C13.6275 3.94148 13.3252 3.94147 13.138 4.1287L9.3748 7.89186C9.18757 8.07909 9.18757 8.38144 9.3748 8.56866C9.47083 8.66469 9.59076 8.70788 9.71552 8.70788C9.84047 8.70788 9.95559 8.66469 10.0516 8.56866H10.0516Z" fill="#707070"/>
<path d="M13.1379 1.41342L6.25468 8.29667C6.06745 8.4839 6.06745 8.78624 6.25468 8.97347C6.35071 9.0695 6.47064 9.11269 6.5954 9.11269C6.72015 9.11269 6.84029 9.06468 6.93611 8.97347L13.4784 2.4312L17.0591 6.01194L18.3744 7.4664C18.5616 7.65845 18.8639 7.66327 19.0512 7.47604L21.336 5.22484L21.8304 5.71925C21.9551 5.844 22.1423 5.89202 22.3103 5.83918C22.4782 5.78634 22.6078 5.64712 22.6416 5.47435L23.4096 1.57198C23.4383 1.41367 23.3903 1.25516 23.28 1.14006C23.1649 1.02494 23.0064 0.976928 22.8481 1.01048L18.9457 1.77369C18.773 1.80724 18.6289 1.93681 18.5809 2.10496C18.5281 2.27291 18.5761 2.46014 18.7008 2.58489L19.3009 3.18497L17.4097 4.99943L13.8194 1.40908C13.6321 1.2361 13.3153 1.2361 13.1377 1.4137L13.1379 1.41342Z" fill="#707070"/>
<path d="M0.479832 22.4042H9.14869C9.41749 22.4042 9.62862 22.1882 9.62862 21.9242V20.1003C9.62862 18.4634 8.2943 17.1291 6.65742 17.1291L2.97604 17.1289C1.33432 17.1289 0 18.4632 0 20.1001V21.924C0 22.1882 0.21596 22.4042 0.479935 22.4042H0.479832Z" fill="#707070"/>
<path d="M7.67001 13.8051C7.67001 15.3825 6.39133 16.6612 4.81411 16.6612C3.23668 16.6612 1.95801 15.3825 1.95801 13.8051C1.95801 12.2279 3.23668 10.9492 4.81411 10.9492C6.39133 10.9492 7.67001 12.2279 7.67001 13.8051Z" fill="#707070"/>
<path d="M15.3023 12.275C15.3023 14.0989 13.8237 15.5775 11.9998 15.5775C10.1758 15.5775 8.69727 14.0989 8.69727 12.275C8.69727 10.4512 10.1758 8.97266 11.9998 8.97266C13.8237 8.97266 15.3023 10.4512 15.3023 12.275Z" fill="#707070"/>
<path d="M14.1892 16.3125H9.81147C9.33635 16.3125 8.87068 16.4134 8.44336 16.6006C9.7154 17.2533 10.5889 18.5734 10.5889 20.0998V21.9237C10.5889 22.0916 10.5554 22.2502 10.5025 22.4036H17.1554C17.4194 22.4036 17.6353 22.1877 17.6353 21.9237V19.7589C17.6357 17.858 16.09 16.3125 14.1892 16.3125L14.1892 16.3125Z" fill="#707070"/>
<path d="M22.0411 13.8051C22.0411 15.3825 20.7624 16.6612 19.185 16.6612C17.6078 16.6612 16.3291 15.3825 16.3291 13.8051C16.3291 12.2279 17.6078 10.9492 19.185 10.9492C20.7624 10.9492 22.0411 12.2279 22.0411 13.8051Z" fill="#707070"/>
<path d="M21.0287 17.1289H17.7119C18.264 17.8634 18.5951 18.7706 18.5951 19.7594V21.9242C18.5951 22.0922 18.5567 22.2507 18.5038 22.4042H23.52C23.7839 22.4042 23.9999 22.1882 23.9999 21.9242V20.1003C23.9999 18.4634 22.6656 17.1289 21.0287 17.1289H21.0287Z" fill="#707070"/>
</svg>
