<svg width="24" height="24" viewBox="0 0 24 24" fill="none" xmlns="http://www.w3.org/2000/svg">
<path fill-rule="evenodd" clip-rule="evenodd" d="M11.9477 19.6942C16.2265 19.6942 19.6952 16.2255 19.6952 11.9467C19.6952 7.66789 16.2265 4.19922 11.9477 4.19922C7.66887 4.19922 4.2002 7.66789 4.2002 11.9467C4.2002 16.2255 7.66887 19.6942 11.9477 19.6942ZM15.4324 10.3929C15.407 9.81859 15.8213 9.31245 16.32 9.30272C16.8273 9.29298 17.25 9.76019 17.25 10.3539C17.25 10.9379 16.8357 11.4051 16.337 11.4051C16.2947 11.4051 16.2609 11.4051 16.2271 11.3954L15.8804 15.3083C15.8551 15.6197 15.6268 15.8533 15.3563 15.8533H12H8.64372C8.37319 15.8533 8.14493 15.6197 8.11957 15.3083L7.77295 11.3954C7.73913 11.4051 7.69686 11.4051 7.66304 11.4051C7.1558 11.4051 6.75 10.9282 6.75 10.3539C6.75 9.76019 7.16425 9.29298 7.67995 9.30272C8.17874 9.31245 8.58454 9.81859 8.56763 10.3929C8.55918 10.7043 8.42391 10.9866 8.22101 11.1715C9.26932 12.7873 10.3345 12.9138 11.5688 10.2371C11.1292 9.98406 10.8841 9.34165 11.2053 8.69924C11.3659 8.38777 11.6703 8.24177 11.9831 8.2515H12H12.0169C12.3297 8.23204 12.6425 8.38777 12.7947 8.69924C13.1159 9.34165 12.8708 9.98406 12.4312 10.2371C13.6655 12.9138 14.7307 12.7873 15.779 11.1715C15.5761 10.9866 15.4408 10.7141 15.4324 10.3929Z" fill="#707070"/>
<path d="M12.0285 0C5.41225 0 0.0568227 5.35406 0.0568227 11.9717C0.0568227 14.9706 1.15113 17.7989 3.15145 20.0041L0 23.9434H12.0283C18.6446 23.9434 24 18.5893 24 11.9717C24 5.35552 18.6459 9.13783e-05 12.0283 9.13783e-05L12.0285 0ZM12.0285 21.1264C6.98025 21.1264 2.87374 17.0196 2.87374 11.9717C2.87374 6.9237 6.98071 2.81691 12.0285 2.81691C17.0767 2.81691 21.1832 6.9237 21.1832 11.9717C21.1832 17.0196 17.0764 21.1264 12.0285 21.1264Z" fill="#707070"/>
</svg>
