<svg width="61" height="60" viewBox="0 0 61 60" fill="none" xmlns="http://www.w3.org/2000/svg">
<circle cx="30.0449" cy="30" r="30" fill="#FFECF3"/>
<path d="M24.4788 30.0003H24.3614C19.3827 30.0361 15.3024 34.6254 15.0456 40.4101L15.0458 40.4098C15.036 40.6288 15.1074 40.8428 15.2433 41.0015C15.3792 41.1603 15.5675 41.25 15.7645 41.25H33.0847C33.28 41.2476 33.4662 41.1566 33.6001 40.998C33.7339 40.8395 33.8039 40.6272 33.794 40.4098C33.5378 34.625 29.4572 30.0363 24.4781 30L24.4788 30.0003ZM30.0449 30.1056C31.489 30.8982 32.7388 31.9661 33.7135 33.2398C34.6881 34.5138 35.3661 35.9652 35.703 37.5H44.2836C44.492 37.5 44.6913 37.4202 44.835 37.2789C44.9788 37.1376 45.0544 36.9473 45.044 36.7524C44.7905 31.9392 40.7371 28.125 35.8041 28.125C33.6949 28.1281 31.6548 28.8295 30.0449 30.1054V30.1056ZM25.3574 20.625C24.1143 20.625 22.9219 21.1187 22.0428 21.9979C21.1639 22.8771 20.6699 24.0691 20.6699 25.3124C20.6699 26.5555 21.1639 27.7479 22.043 28.6271C22.9219 29.5063 24.1142 30 25.3574 30C26.6005 30 27.7929 29.506 28.6718 28.6271C29.551 27.7479 30.0449 26.5556 30.0449 25.3124C30.0441 24.0694 29.5502 22.8773 28.6713 21.9984C27.7925 21.1195 26.6004 20.6255 25.3575 20.625H25.3574ZM35.6699 20.625C34.6754 20.625 33.7217 21.02 33.0184 21.7232C32.3152 22.4265 31.9199 23.3804 31.9199 24.375C31.9199 25.3696 32.3151 26.3235 33.0184 27.0265C33.7217 27.7298 34.6754 28.125 35.6699 28.125C36.6645 28.125 37.6184 27.7298 38.3217 27.0265C39.0249 26.3235 39.4199 25.3696 39.4199 24.375C39.4194 23.3807 39.0242 22.4271 38.3209 21.7241C37.6179 21.0208 36.6645 20.6255 35.67 20.625H35.6699Z" fill="#E6427A"/>
</svg>
