<svg width="61" height="60" viewBox="0 0 61 60" fill="none" xmlns="http://www.w3.org/2000/svg">
<circle cx="30.0449" cy="30" r="30" fill="#FFECF3"/>
<path d="M18.7324 42.5H41.3574C41.7324 42.5 42.0449 42.1916 42.0449 41.8214V40.1558H18.0449V41.8214C18.0449 42.2532 18.3574 42.5 18.7324 42.5ZM43.1699 22.7597C42.1074 22.7597 41.2949 23.5617 41.2949 24.6104C41.2949 25.1039 41.4824 25.5974 41.8574 25.9058L36.2324 31.5812L30.9199 22.2045C31.4824 21.8961 31.8574 21.2792 31.8574 20.6006C31.8574 19.5519 31.0449 18.75 29.9824 18.75C28.9199 18.75 28.1074 19.5519 28.1074 20.6006C28.1074 21.2792 28.4824 21.8961 29.0449 22.2045L23.7324 31.5812L18.1074 25.9058C18.6074 25.5974 18.7949 25.1039 18.7949 24.6104C18.7949 23.5617 17.9824 22.7597 16.9199 22.7597C15.8574 22.7597 15.0449 23.5617 15.0449 24.6104C15.0449 25.6591 15.8574 26.461 16.9199 26.461C16.9824 26.461 17.0449 26.461 17.0449 26.461L18.0449 39.0455H42.0449L43.0449 26.461C43.1074 26.461 43.1699 26.461 43.1699 26.461C44.2324 26.461 45.0449 25.6591 45.0449 24.6104C45.0449 23.6234 44.2324 22.7597 43.1699 22.7597Z" fill="#E6427A"/>
</svg>
