<svg width="161" height="78" viewBox="0 0 161 78" fill="none" xmlns="http://www.w3.org/2000/svg">
<path d="M21.3742 61.2571L18.8694 62.9159L18.9764 65.7045L16.4402 64.084L13.5112 65.0371L14.4484 62.3756L12.5322 60.1761L15.6468 60.1519L17.3916 57.8398L18.3799 60.486L21.3742 61.2571Z" fill="#F2D2DE"/>
<path d="M18.1304 61.832L25.7597 65.5316L17.4141 63.4077L18.1304 61.832Z" fill="#F2D2DE"/>
<path d="M40.2971 20.4225L37.646 20.59L36.2973 22.6404L35.3002 20.4348L32.7051 19.9195L34.7401 18.3887L34.4848 16.0195L36.7397 17.2791L39.1772 16.3304L38.5361 18.6398L40.2971 20.4225Z" fill="#F2D2DE"/>
<path d="M37.6688 19.5059L41.2694 25.2963L36.3477 20.3464L37.6688 19.5059Z" fill="#F2D2DE"/>
<path d="M2.66375 38.7589L8.45202 42.4584L2.25185 39.3396C2.06676 39.2464 2.00098 39.0367 2.10506 38.871C2.20914 38.7052 2.44283 38.6463 2.62841 38.7395C2.64068 38.7453 2.65295 38.7523 2.66375 38.7589Z" fill="#F2D2DE"/>
<path d="M10.6022 43.2741L12.9882 45.0384L10.1903 43.8549C9.99735 43.7731 9.91438 43.5665 10.0062 43.3937C10.0975 43.2209 10.3282 43.1466 10.5212 43.2288C10.5502 43.2403 10.5781 43.2565 10.6022 43.2741Z" fill="#F2D2DE"/>
<path d="M42.519 61.4246L44.9055 63.1893L42.1076 62.0053C41.9141 61.9236 41.8316 61.7169 41.923 61.5442C42.0143 61.3709 42.245 61.2971 42.438 61.3793C42.4669 61.3912 42.4954 61.4074 42.519 61.4246Z" fill="#F2D2DE"/>
<path d="M14.9768 45.7609L41.0166 60.9772L14.5649 46.3412C14.3847 46.2414 14.3287 46.0295 14.4402 45.8682C14.5521 45.7064 14.7882 45.6567 14.9684 45.7565C14.9709 45.7579 14.9743 45.7601 14.9768 45.7609Z" fill="#F2D2DE"/>
<path d="M33.5023 76.5514L36.5535 77.0148L33.4689 77.2386C33.2558 77.254 33.0697 77.112 33.0521 76.9212C33.0349 76.7304 33.1934 76.5633 33.4065 76.5479C33.4384 76.5457 33.4713 76.547 33.5023 76.5514Z" fill="#F2D2DE"/>
<path d="M38.3914 76.743L41.4422 77.2069L38.3575 77.4302C38.1445 77.4456 37.9584 77.3036 37.9407 77.1128C37.9235 76.922 38.0821 76.7553 38.2952 76.7395C38.3281 76.7369 38.361 76.7386 38.3914 76.743Z" fill="#F2D2DE"/>
<path d="M0.905728 75.2775L31.9503 76.8352L0.871852 75.9647C0.659763 75.9585 0.493332 75.7998 0.500205 75.6103C0.507079 75.4209 0.68382 75.2714 0.895909 75.2775C0.898854 75.2771 0.903273 75.2775 0.905728 75.2775Z" fill="#F2D2DE"/>
<path d="M38.2831 0.703943L41.1812 6.51989L37.6002 1.0174C37.4932 0.852979 37.5555 0.642393 37.7387 0.546992C37.9223 0.451152 38.1574 0.506547 38.2645 0.67097C38.2713 0.681522 38.2777 0.692953 38.2831 0.703943Z" fill="#F2D2DE"/>
<path d="M42.5734 8.19878L43.6329 10.8027L41.89 8.51224C41.7703 8.35441 41.8159 8.13855 41.9922 8.03084C42.1689 7.92313 42.4095 7.96401 42.5297 8.12228C42.5479 8.14602 42.5631 8.17284 42.5734 8.19878Z" fill="#F2D2DE"/>
<path d="M59.8223 38.3272L60.8818 40.9312L59.1394 38.6411C59.0191 38.4829 59.0648 38.2675 59.2415 38.1597C59.4178 38.052 59.6588 38.0929 59.7791 38.2512C59.7968 38.2745 59.8115 38.3013 59.8223 38.3272Z" fill="#F2D2DE"/>
<path d="M62.0557 42.2261L63.1147 44.8296L61.3728 42.5396C61.2525 42.3818 61.2982 42.1659 61.4749 42.0582C61.6517 41.9505 61.8922 41.9914 62.0125 42.1496C62.0302 42.1734 62.0449 42.2002 62.0557 42.2261Z" fill="#F2D2DE"/>
<path d="M44.938 12.3275L58.7807 37.2597L44.2546 12.6409C44.1554 12.4734 44.2271 12.2655 44.4146 12.1767C44.6022 12.0879 44.8344 12.1521 44.9336 12.32C44.935 12.3218 44.937 12.3253 44.938 12.3275Z" fill="#F2D2DE"/>
<path d="M23.9142 33.5959L25.8927 35.7268L23.3889 34.0975C23.2161 33.985 23.1778 33.7682 23.3035 33.6135C23.4292 33.4587 23.6712 33.4244 23.844 33.537C23.87 33.5541 23.8941 33.5748 23.9142 33.5959Z" fill="#F2D2DE"/>
<path d="M27.3695 36.7216L44.9184 51.9207L27.1071 36.9686C27.0304 36.9043 27.0265 36.7962 27.0983 36.7277C27.1704 36.659 27.2909 36.6555 27.3673 36.7199C27.3678 36.7201 27.369 36.7212 27.3695 36.7216Z" fill="#F2D2DE"/>
<path d="M42.6204 26.2761L43.9636 28.7728L41.9753 26.6489C41.8378 26.5025 41.8594 26.2836 42.0234 26.1609C42.1869 26.0383 42.4309 26.0572 42.5678 26.204C42.5889 26.226 42.6066 26.2515 42.6204 26.2761Z" fill="#F2D2DE"/>
<path d="M45.4282 30.1686L54.6757 43.1092L44.791 30.5519C44.6688 30.3967 44.71 30.1822 44.8833 30.0727C45.0566 29.9632 45.2962 30.0002 45.4184 30.1554C45.4219 30.1593 45.4258 30.1646 45.4282 30.1686Z" fill="#F2D2DE"/>
<path d="M73.5136 17.9477L80.2778 49.7145L72.7604 18.0836C72.7163 17.898 72.8488 17.7151 73.0565 17.6756C73.2637 17.636 73.4674 17.7547 73.5116 17.9402C73.5121 17.9429 73.5131 17.9464 73.5136 17.9477Z" fill="#F2D2DE"/>
<path d="M55.3675 12.274L55.9002 14.1225L54.9088 12.4562C54.8405 12.3412 54.8824 12.1949 55.0022 12.1292C55.1219 12.0635 55.275 12.1039 55.3437 12.2186C55.3541 12.2363 55.3624 12.2554 55.3675 12.274Z" fill="#F2D2DE"/>
<path d="M56.6559 15.242L66.6928 40.031L56.1943 15.4179C56.1425 15.2962 56.2032 15.1574 56.3302 15.1075C56.4573 15.058 56.6022 15.1161 56.6543 15.2378C56.6546 15.239 56.6552 15.2411 56.6559 15.242Z" fill="#F2D2DE"/>
<path d="M19.2038 36.5426C19.9723 36.5426 20.5952 35.9848 20.5952 35.2967C20.5952 34.6086 19.9723 34.0508 19.2038 34.0508C18.4354 34.0508 17.8125 34.6086 17.8125 35.2967C17.8125 35.9848 18.4354 36.5426 19.2038 36.5426Z" fill="#F2D2DE"/>
<path d="M66.8801 19.2605C67.6483 19.2605 68.271 18.7029 68.271 18.015C68.271 17.3272 67.6483 16.7695 66.8801 16.7695C66.112 16.7695 65.4893 17.3272 65.4893 18.015C65.4893 18.7029 66.112 19.2605 66.8801 19.2605Z" fill="#F2D2DE"/>
<path d="M18.0011 30.1058C18.5065 30.1058 18.9162 29.7389 18.9162 29.2863C18.9162 28.8337 18.5065 28.4668 18.0011 28.4668C17.4957 28.4668 17.0859 28.8337 17.0859 29.2863C17.0859 29.7389 17.4957 30.1058 18.0011 30.1058Z" fill="#F2D2DE"/>
<path d="M63.1143 14.5726C63.6198 14.5726 64.0295 14.2057 64.0295 13.7531C64.0295 13.3005 63.6198 12.9336 63.1143 12.9336C62.6089 12.9336 62.1992 13.3005 62.1992 13.7531C62.1992 14.2057 62.6089 14.5726 63.1143 14.5726Z" fill="#F2D2DE"/>
<path d="M12.0211 56.0619C12.5262 56.0619 12.9357 55.6952 12.9357 55.2429C12.9357 54.7905 12.5262 54.4238 12.0211 54.4238C11.5159 54.4238 11.1064 54.7905 11.1064 55.2429C11.1064 55.6952 11.5159 56.0619 12.0211 56.0619Z" fill="#F2D2DE"/>
<path d="M39.1383 34.6654C39.6434 34.6654 40.0529 34.2987 40.0529 33.8464C40.0529 33.394 39.6434 33.0273 39.1383 33.0273C38.6331 33.0273 38.2236 33.394 38.2236 33.8464C38.2236 34.2987 38.6331 34.6654 39.1383 34.6654Z" fill="#F2D2DE"/>
<path d="M42.378 38.4013L51.8768 48.1964L41.8119 38.866C41.6646 38.7293 41.6686 38.5117 41.8217 38.3798C41.9744 38.2479 42.2174 38.2514 42.3642 38.3882C42.3687 38.3921 42.3736 38.3974 42.378 38.4013Z" fill="#F2D2DE"/>
<path d="M139.626 61.2571L142.131 62.9159L142.024 65.7045L144.56 64.084L147.489 65.0371L146.552 62.3756L148.468 60.1761L145.353 60.1519L143.608 57.8398L142.62 60.486L139.626 61.2571Z" fill="#F2D2DE"/>
<path d="M142.87 61.832L135.24 65.5316L143.586 63.4077L142.87 61.832Z" fill="#F2D2DE"/>
<path d="M120.703 20.4225L123.354 20.59L124.703 22.6404L125.7 20.4348L128.295 19.9195L126.26 18.3887L126.515 16.0195L124.26 17.2791L121.823 16.3304L122.464 18.6398L120.703 20.4225Z" fill="#F2D2DE"/>
<path d="M123.331 19.5059L119.731 25.2963L124.652 20.3464L123.331 19.5059Z" fill="#F2D2DE"/>
<path d="M158.336 38.7589L152.548 42.4584L158.748 39.3396C158.933 39.2464 158.999 39.0367 158.895 38.871C158.791 38.7052 158.557 38.6463 158.372 38.7395C158.359 38.7453 158.347 38.7523 158.336 38.7589Z" fill="#F2D2DE"/>
<path d="M150.398 43.2741L148.012 45.0384L150.81 43.8549C151.003 43.7731 151.086 43.5665 150.994 43.3937C150.902 43.2209 150.672 43.1466 150.479 43.2288C150.45 43.2403 150.422 43.2565 150.398 43.2741Z" fill="#F2D2DE"/>
<path d="M118.481 61.4246L116.095 63.1893L118.892 62.0053C119.086 61.9236 119.168 61.7169 119.077 61.5442C118.986 61.3709 118.755 61.2971 118.562 61.3793C118.533 61.3912 118.505 61.4074 118.481 61.4246Z" fill="#F2D2DE"/>
<path d="M146.023 45.7609L119.983 60.9772L146.435 46.3412C146.615 46.2414 146.671 46.0295 146.56 45.8682C146.448 45.7064 146.212 45.6567 146.032 45.7565C146.029 45.7579 146.026 45.7601 146.023 45.7609Z" fill="#F2D2DE"/>
<path d="M127.498 76.5514L124.447 77.0148L127.531 77.2386C127.744 77.254 127.93 77.112 127.948 76.9212C127.965 76.7304 127.807 76.5633 127.593 76.5479C127.562 76.5457 127.529 76.547 127.498 76.5514Z" fill="#F2D2DE"/>
<path d="M122.609 76.743L119.558 77.2069L122.642 77.4302C122.856 77.4456 123.042 77.3036 123.059 77.1128C123.076 76.922 122.918 76.7553 122.705 76.7395C122.672 76.7369 122.639 76.7386 122.609 76.743Z" fill="#F2D2DE"/>
<path d="M160.094 75.2775L129.05 76.8352L160.128 75.9647C160.34 75.9585 160.507 75.7998 160.5 75.6103C160.493 75.4209 160.316 75.2714 160.104 75.2775C160.101 75.2771 160.097 75.2775 160.094 75.2775Z" fill="#F2D2DE"/>
<path d="M122.717 0.703943L119.819 6.51989L123.4 1.0174C123.507 0.852979 123.444 0.642393 123.261 0.546992C123.078 0.451152 122.843 0.506547 122.736 0.67097C122.729 0.681522 122.722 0.692953 122.717 0.703943Z" fill="#F2D2DE"/>
<path d="M118.427 8.19878L117.367 10.8027L119.11 8.51224C119.23 8.35441 119.184 8.13855 119.008 8.03084C118.831 7.92313 118.591 7.96401 118.47 8.12228C118.452 8.14602 118.437 8.17284 118.427 8.19878Z" fill="#F2D2DE"/>
<path d="M101.178 38.3272L100.118 40.9312L101.861 38.6411C101.981 38.4829 101.935 38.2675 101.758 38.1597C101.582 38.052 101.341 38.0929 101.221 38.2512C101.203 38.2745 101.188 38.3013 101.178 38.3272Z" fill="#F2D2DE"/>
<path d="M98.9443 42.2261L97.8853 44.8296L99.6272 42.5396C99.7475 42.3818 99.7018 42.1659 99.5251 42.0582C99.3483 41.9505 99.1078 41.9914 98.9875 42.1496C98.9698 42.1734 98.9551 42.2002 98.9443 42.2261Z" fill="#F2D2DE"/>
<path d="M116.062 12.3275L102.219 37.2597L116.745 12.6409C116.845 12.4734 116.773 12.2655 116.585 12.1767C116.398 12.0879 116.166 12.1521 116.066 12.32C116.065 12.3218 116.063 12.3253 116.062 12.3275Z" fill="#F2D2DE"/>
<path d="M137.086 33.5959L135.107 35.7268L137.611 34.0975C137.784 33.985 137.822 33.7682 137.697 33.6135C137.571 33.4587 137.329 33.4244 137.156 33.537C137.13 33.5541 137.106 33.5748 137.086 33.5959Z" fill="#F2D2DE"/>
<path d="M133.63 36.7216L116.082 51.9207L133.893 36.9686C133.97 36.9043 133.974 36.7962 133.902 36.7277C133.83 36.659 133.709 36.6555 133.633 36.7199C133.632 36.7201 133.631 36.7212 133.63 36.7216Z" fill="#F2D2DE"/>
<path d="M118.38 26.2761L117.036 28.7728L119.025 26.6489C119.162 26.5025 119.141 26.2836 118.977 26.1609C118.813 26.0383 118.569 26.0572 118.432 26.204C118.411 26.226 118.393 26.2515 118.38 26.2761Z" fill="#F2D2DE"/>
<path d="M115.572 30.1686L106.324 43.1092L116.209 30.5519C116.331 30.3967 116.29 30.1822 116.117 30.0727C115.943 29.9632 115.704 30.0002 115.582 30.1554C115.578 30.1593 115.574 30.1646 115.572 30.1686Z" fill="#F2D2DE"/>
<path d="M105.633 12.274L105.1 14.1225L106.091 12.4562C106.16 12.3412 106.118 12.1949 105.998 12.1292C105.878 12.0635 105.725 12.1039 105.656 12.2186C105.646 12.2363 105.638 12.2554 105.633 12.274Z" fill="#F2D2DE"/>
<path d="M104.344 15.242L94.3072 40.031L104.806 15.4179C104.858 15.2962 104.797 15.1574 104.67 15.1075C104.543 15.058 104.398 15.1161 104.346 15.2378C104.345 15.239 104.345 15.2411 104.344 15.242Z" fill="#F2D2DE"/>
<path d="M141.796 36.5426C141.028 36.5426 140.405 35.9848 140.405 35.2967C140.405 34.6086 141.028 34.0508 141.796 34.0508C142.565 34.0508 143.188 34.6086 143.188 35.2967C143.188 35.9848 142.565 36.5426 141.796 36.5426Z" fill="#F2D2DE"/>
<path d="M94.1199 19.2605C93.3517 19.2605 92.729 18.7029 92.729 18.015C92.729 17.3272 93.3517 16.7695 94.1199 16.7695C94.888 16.7695 95.5107 17.3272 95.5107 18.015C95.5107 18.7029 94.888 19.2605 94.1199 19.2605Z" fill="#F2D2DE"/>
<path d="M142.999 30.1058C142.494 30.1058 142.084 29.7389 142.084 29.2863C142.084 28.8337 142.494 28.4668 142.999 28.4668C143.504 28.4668 143.914 28.8337 143.914 29.2863C143.914 29.7389 143.504 30.1058 142.999 30.1058Z" fill="#F2D2DE"/>
<path d="M97.8857 14.5726C97.3802 14.5726 96.9705 14.2057 96.9705 13.7531C96.9705 13.3005 97.3802 12.9336 97.8857 12.9336C98.3911 12.9336 98.8008 13.3005 98.8008 13.7531C98.8008 14.2057 98.3911 14.5726 97.8857 14.5726Z" fill="#F2D2DE"/>
<path d="M148.979 56.0619C148.474 56.0619 148.064 55.6952 148.064 55.2429C148.064 54.7905 148.474 54.4238 148.979 54.4238C149.484 54.4238 149.894 54.7905 149.894 55.2429C149.894 55.6952 149.484 56.0619 148.979 56.0619Z" fill="#F2D2DE"/>
<path d="M121.862 34.6654C121.357 34.6654 120.947 34.2987 120.947 33.8464C120.947 33.394 121.357 33.0273 121.862 33.0273C122.367 33.0273 122.776 33.394 122.776 33.8464C122.776 34.2987 122.367 34.6654 121.862 34.6654Z" fill="#F2D2DE"/>
<path d="M118.622 38.4013L109.123 48.1964L119.188 38.866C119.335 38.7293 119.331 38.5117 119.178 38.3798C119.026 38.2479 118.783 38.2514 118.636 38.3882C118.631 38.3921 118.626 38.3974 118.622 38.4013Z" fill="#F2D2DE"/>
</svg>
