<svg width="60" height="60" viewBox="0 0 60 60" fill="none" xmlns="http://www.w3.org/2000/svg">
<circle cx="30" cy="30" r="30" fill="#FFECF3"/>
<path d="M30.0023 15C26.9574 15 24.4697 17.5614 24.4697 20.6964C24.4697 22.6001 25.3902 24.2864 26.7923 25.3219C24.5197 26.5266 22.958 28.9615 22.958 31.7694V35.2978C22.9584 35.5468 23.0551 35.7852 23.2267 35.9608C23.398 36.1364 23.6303 36.2345 23.8722 36.2335H36.1257C36.3676 36.2345 36.5997 36.1364 36.7712 35.9608C36.9428 35.7852 37.0393 35.5468 37.0399 35.2978V31.7694C37.0399 28.9616 35.4832 26.5268 33.2127 25.3219C34.6147 24.2864 35.5353 22.6001 35.5353 20.6964C35.5353 17.5613 33.0475 15 30.0027 15H30.0023ZM20.8946 36.9697C20.6304 36.9774 20.3824 37.103 20.2153 37.3139L19.0858 38.7165L17.4391 39.3995C17.1904 39.5048 16.9997 39.718 16.918 39.9819C16.8363 40.2458 16.8722 40.5331 17.0157 40.7673L17.9672 42.3127L18.0881 44.1256H18.0883C18.1064 44.4029 18.2432 44.6576 18.4617 44.8209C18.6799 44.9843 18.9576 45.0395 19.2194 44.9715L20.9338 44.5155L22.6569 44.9588C22.9189 45.0255 23.1959 44.9692 23.4136 44.8052C23.6313 44.6411 23.7671 44.3862 23.7845 44.1091L23.8947 42.2854L24.8355 40.7399C24.977 40.5036 25.0095 40.215 24.9244 39.9518C24.8392 39.6885 24.6453 39.4776 24.3945 39.3757L22.7478 38.7056L21.6112 37.3066C21.4752 37.1373 21.2858 37.0227 21.076 36.9825C21.0161 36.972 20.9553 36.9676 20.8945 36.9697L20.8946 36.9697ZM29.9716 36.9697C29.7074 36.9774 29.4594 37.103 29.2923 37.3139L28.1628 38.7165L26.5161 39.3995C26.2674 39.5048 26.0767 39.718 25.995 39.9819C25.9133 40.2458 25.9492 40.5331 26.0927 40.7673L27.0441 42.3127L27.1651 44.1256H27.1653C27.1834 44.4029 27.3202 44.6576 27.5387 44.8209C27.7569 44.9843 28.0346 45.0395 28.2963 44.9715L30.0108 44.5155L31.7339 44.9588C31.9959 45.0255 32.2729 44.9692 32.4906 44.8052C32.7083 44.6411 32.8441 44.3862 32.8615 44.1091L32.9717 42.2854L33.9125 40.7399C34.054 40.5036 34.0865 40.215 34.0014 39.9518C33.9162 39.6885 33.7223 39.4776 33.4715 39.3757L31.8248 38.7056L30.6882 37.3066C30.5522 37.1373 30.3628 37.0227 30.153 36.9825C30.0931 36.972 30.0323 36.9676 29.9715 36.9697L29.9716 36.9697ZM39.0486 36.9697C38.7844 36.9774 38.5364 37.103 38.3693 37.3139L37.2398 38.7165L35.5931 39.3995C35.3444 39.5048 35.1537 39.718 35.072 39.9819C34.9903 40.2458 35.0262 40.5331 35.1697 40.7673L36.1211 42.3127L36.2421 44.1256H36.2423C36.2604 44.4029 36.3972 44.6576 36.6157 44.8209C36.8339 44.9843 37.1116 45.0395 37.3733 44.9715L39.0877 44.5155L40.8109 44.9588C41.0729 45.0255 41.3499 44.9692 41.5676 44.8052C41.7853 44.6411 41.9211 44.3862 41.9385 44.1091L42.0487 42.2854L42.9895 40.7399C43.131 40.5036 43.1635 40.215 43.0784 39.9518C42.9932 39.6885 42.7993 39.4776 42.5485 39.3757L40.9017 38.7056L39.7652 37.3066C39.6292 37.1373 39.4398 37.0227 39.23 36.9825C39.1701 36.972 39.1093 36.9676 39.0485 36.9697L39.0486 36.9697Z" fill="#E6427A"/>
</svg>
