<svg width="60" height="60" viewBox="0 0 60 60" fill="none" xmlns="http://www.w3.org/2000/svg">
<circle cx="30" cy="30" r="30" fill="#FFECF3"/>
<path d="M29.583 14.5747C25.6048 14.5747 21.7894 16.1551 18.9767 18.9684C16.1634 21.7813 14.583 25.5966 14.583 29.5747C14.583 33.5529 16.1634 37.3683 18.9767 40.1811C21.7895 42.9944 25.6049 44.5747 29.583 44.5747C33.5611 44.5747 37.3766 42.9944 40.1894 40.1811C43.0027 37.3682 44.583 33.5529 44.583 29.5747C44.5862 25.5957 43.0067 21.7783 40.1929 18.9643C37.3792 16.1503 33.5618 14.571 29.5825 14.5742L29.583 14.5747ZM20.2964 24.3036L22.4117 24.0051L23.3557 22.0926C23.427 21.9245 23.5918 21.8157 23.7743 21.8157C23.9568 21.8157 24.1217 21.9245 24.1925 22.0926L25.125 24.0051L27.2403 24.304C27.414 24.3344 27.5564 24.4581 27.6116 24.6258C27.6665 24.793 27.6249 24.9771 27.5032 25.1048L25.9973 26.5867L26.3679 28.702V28.7024C26.3999 28.8757 26.3287 29.0518 26.185 29.1542C26.0417 29.2567 25.8521 29.2667 25.6984 29.1802L23.8099 28.2002L21.9214 29.1923C21.7681 29.2787 21.5784 29.2687 21.4347 29.1662C21.2915 29.0638 21.2202 28.8877 21.2523 28.7144L21.6108 26.5991L20.0213 25.1048C19.8896 24.9791 19.8432 24.7883 19.9024 24.6162C19.9612 24.4445 20.1149 24.3224 20.2962 24.304L20.2964 24.3036ZM38.284 34.5821C37.7222 37.9413 33.2521 40.2239 29.5828 40.2239C25.9135 40.2239 21.4435 37.9413 20.8816 34.5826C20.8299 34.2492 20.9532 33.9126 21.2081 33.6917C21.463 33.4704 21.814 33.3964 22.1365 33.4949C24.5617 34.1576 27.0692 34.4677 29.5828 34.4153C32.0963 34.4677 34.6039 34.1576 37.0291 33.4949C37.3524 33.3892 37.7074 33.4604 37.9647 33.6833C38.2216 33.9062 38.3429 34.2476 38.284 34.5825V34.5821ZM39.1208 25.1041L37.5909 26.5865L37.9495 28.7018V28.7022C37.9811 28.8755 37.9098 29.0515 37.7666 29.154C37.6233 29.2564 37.4336 29.2665 37.2799 29.18L35.3914 28.2L33.5029 29.192C33.3496 29.2785 33.16 29.2684 33.0163 29.166C32.873 29.0636 32.8018 28.8875 32.8338 28.7142L33.1924 26.5989L31.6624 25.105V25.1046C31.536 24.9733 31.4976 24.78 31.5644 24.6104C31.6312 24.4407 31.7909 24.3254 31.973 24.3158L34.0883 24.0049L35.0323 22.0924H35.0327C35.1112 21.9331 35.2733 21.8323 35.4513 21.8323C35.629 21.8323 35.7911 21.9331 35.8695 22.0924L36.802 24.0049L38.9173 24.3158C39.0906 24.3438 39.2318 24.4695 39.2802 24.6384C39.3291 24.8068 39.2758 24.9885 39.1442 25.1046L39.1208 25.1041Z" fill="#E6427A"/>
</svg>
