<svg width="20" height="20" viewBox="0 0 20 20" fill="none" xmlns="http://www.w3.org/2000/svg">
<path fill-rule="evenodd" clip-rule="evenodd" d="M15.3001 8.14862L9.6744 13.8643C9.3944 14.1443 9.02736 14.2858 8.66018 14.2858C8.29872 14.2858 7.93586 14.1487 7.65725 13.8744L4.71165 11.0158C4.14872 10.4615 4.143 9.55726 4.69867 8.99726C5.25296 8.43294 6.15724 8.43001 6.71724 8.98429L8.65153 10.84L13.2715 6.13433C13.8315 5.57711 14.7343 5.57279 15.2929 6.12707C15.8529 6.68568 15.8558 7.58857 15.3 8.14857L15.3001 8.14862ZM10 0C4.47714 0 0 4.47714 0 10C0 15.5229 4.47714 20 10 20C15.5229 20 20 15.5229 20 10C20 4.47714 15.5229 0 10 0Z" fill="#E6427A"/>
</svg>
