<svg width="61" height="60" viewBox="0 0 61 60" fill="none" xmlns="http://www.w3.org/2000/svg">
<circle cx="30.5" cy="30" r="30" fill="#F7F7F7"/>
<path d="M24.9339 30.0003H24.8165C19.8378 30.0361 15.7574 34.6254 15.5007 40.4101L15.5009 40.4098C15.491 40.6288 15.5625 40.8428 15.6984 41.0015C15.8343 41.1603 16.0226 41.25 16.2196 41.25H33.5398C33.7351 41.2476 33.9212 41.1566 34.0552 40.998C34.189 40.8395 34.2589 40.6272 34.2491 40.4098C33.9929 34.625 29.9123 30.0363 24.9332 30L24.9339 30.0003ZM30.5 30.1056C31.9441 30.8982 33.1939 31.9661 34.1685 33.2398C35.1432 34.5138 35.8211 35.9652 36.1581 37.5H44.7387C44.9471 37.5 45.1463 37.4202 45.2901 37.2789C45.4339 37.1376 45.5095 36.9473 45.499 36.7524C45.2456 31.9392 41.1922 28.125 36.2592 28.125C34.15 28.1281 32.1099 28.8295 30.5 30.1054V30.1056ZM25.8125 20.625C24.5694 20.625 23.377 21.1187 22.4978 21.9979C21.619 22.8771 21.125 24.0691 21.125 25.3124C21.125 26.5555 21.619 27.7479 22.4981 28.6271C23.377 29.5063 24.5693 30 25.8125 30C27.0556 30 28.248 29.506 29.1269 28.6271C30.006 27.7479 30.5 26.5556 30.5 25.3124C30.4992 24.0694 30.0052 22.8773 29.1264 21.9984C28.2476 21.1195 27.0555 20.6255 25.8126 20.625H25.8125ZM36.125 20.625C35.1304 20.625 34.1768 21.02 33.4735 21.7232C32.7702 22.4265 32.375 23.3804 32.375 24.375C32.375 25.3696 32.7702 26.3235 33.4735 27.0265C34.1768 27.7298 35.1304 28.125 36.125 28.125C37.1196 28.125 38.0735 27.7298 38.7768 27.0265C39.48 26.3235 39.875 25.3696 39.875 24.375C39.8745 23.3807 39.4792 22.4271 38.776 21.7241C38.073 21.0208 37.1196 20.6255 36.1251 20.625H36.125Z" fill="#9C9FA0"/>
</svg>
