<svg width="61" height="61" viewBox="0 0 61 61" fill="none" xmlns="http://www.w3.org/2000/svg">
<circle cx="30.5" cy="30.75" r="30" fill="white"/>
<path d="M30.5 15.7505C26.5218 15.7505 22.7064 17.3309 19.8937 20.1442C17.0803 22.9571 15.5 26.7724 15.5 30.7505C15.5 34.7286 17.0803 38.5441 19.8937 41.3569C22.7065 44.1702 26.5219 45.7505 30.5 45.7505C34.4781 45.7505 38.2936 44.1702 41.1063 41.3569C43.9196 38.544 45.5 34.7286 45.5 30.7505C45.5032 26.7715 43.9236 22.9541 41.1099 20.1401C38.2962 17.3261 34.4788 15.7468 30.4995 15.75L30.5 15.7505ZM21.2134 25.4794L23.3287 25.1809L24.2727 23.2684C24.344 23.1003 24.5088 22.9915 24.6913 22.9915C24.8738 22.9915 25.0387 23.1003 25.1095 23.2684L26.0419 25.1809L28.1573 25.4798C28.3309 25.5102 28.4734 25.6339 28.5286 25.8016C28.5835 25.9688 28.5418 26.1529 28.4202 26.2806L26.9143 27.7625L27.2849 29.8778V29.8782C27.3169 30.0515 27.2457 30.2276 27.102 30.33C26.9587 30.4325 26.769 30.4425 26.6154 30.356L24.7269 29.376L22.8384 30.368C22.6851 30.4545 22.4954 30.4445 22.3517 30.342C22.2085 30.2396 22.1372 30.0635 22.1693 29.8902L22.5278 27.7749L20.9383 26.2806C20.8066 26.1549 20.7602 25.964 20.8194 25.792C20.8782 25.6203 21.0319 25.4982 21.2132 25.4798L21.2134 25.4794ZM39.201 35.7579C38.6392 39.1171 34.1691 41.3997 30.4998 41.3997C26.8304 41.3997 22.3605 39.1171 21.7986 35.7583C21.7469 35.425 21.8702 35.0884 22.1251 34.8675C22.38 34.6462 22.731 34.5722 23.0535 34.6706C25.4787 35.3333 27.9862 35.6435 30.4998 35.5911C33.0133 35.6435 35.5209 35.3333 37.9461 34.6706C38.2694 34.565 38.6244 34.6362 38.8817 34.8591C39.1386 35.082 39.2599 35.4234 39.201 35.7583V35.7579ZM40.0378 26.2799L38.5079 27.7622L38.8664 29.8776V29.878C38.8981 30.0512 38.8268 30.2273 38.6836 30.3298C38.5403 30.4322 38.3506 30.4422 38.1969 30.3558L36.3084 29.3757L34.4199 30.3678C34.2666 30.4542 34.0769 30.4442 33.9333 30.3418C33.79 30.2393 33.7188 30.0632 33.7508 29.89L34.1094 27.7746L32.5794 26.2808V26.2804C32.453 26.1491 32.4146 25.9558 32.4814 25.7861C32.5482 25.6165 32.7079 25.5012 32.89 25.4916L35.0053 25.1807L35.9493 23.2682H35.9497C36.0282 23.1089 36.1902 23.008 36.3683 23.008C36.546 23.008 36.7081 23.1089 36.7865 23.2682L37.7189 25.1807L39.8343 25.4916C40.0075 25.5196 40.1488 25.6453 40.1972 25.8141C40.2461 25.9826 40.1928 26.1643 40.0612 26.2804L40.0378 26.2799Z" fill="#9C9FA0"/>
</svg>
