<svg width="61" height="61" viewBox="0 0 61 61" fill="none" xmlns="http://www.w3.org/2000/svg">
<circle cx="30.5" cy="30.5" r="30" fill="white"/>
<path d="M30.5023 15.5C27.4574 15.5 24.9697 18.0614 24.9697 21.1964C24.9697 23.1001 25.8902 24.7864 27.2923 25.8219C25.0197 27.0266 23.458 29.4615 23.458 32.2694V35.7978C23.4584 36.0468 23.5551 36.2852 23.7267 36.4608C23.898 36.6364 24.1303 36.7345 24.3722 36.7335H36.6257C36.8676 36.7345 37.0997 36.6364 37.2712 36.4608C37.4428 36.2852 37.5393 36.0468 37.5399 35.7978V32.2694C37.5399 29.4616 35.9832 27.0268 33.7127 25.8219C35.1147 24.7864 36.0353 23.1001 36.0353 21.1964C36.0353 18.0613 33.5475 15.5 30.5027 15.5H30.5023ZM21.3946 37.4697C21.1304 37.4774 20.8824 37.603 20.7153 37.8139L19.5858 39.2165L17.9391 39.8995C17.6904 40.0048 17.4997 40.218 17.418 40.4819C17.3363 40.7458 17.3722 41.0331 17.5157 41.2673L18.4672 42.8127L18.5881 44.6256H18.5883C18.6064 44.9029 18.7432 45.1576 18.9617 45.3209C19.1799 45.4843 19.4576 45.5395 19.7194 45.4715L21.4338 45.0155L23.1569 45.4588C23.4189 45.5255 23.6959 45.4692 23.9136 45.3052C24.1313 45.1411 24.2671 44.8862 24.2845 44.6091L24.3947 42.7854L25.3355 41.2399C25.477 41.0036 25.5095 40.715 25.4244 40.4518C25.3392 40.1885 25.1453 39.9776 24.8945 39.8757L23.2478 39.2056L22.1112 37.8066C21.9752 37.6373 21.7858 37.5227 21.576 37.4825C21.5161 37.472 21.4553 37.4676 21.3945 37.4697L21.3946 37.4697ZM30.4716 37.4697C30.2074 37.4774 29.9594 37.603 29.7923 37.8139L28.6628 39.2165L27.0161 39.8995C26.7674 40.0048 26.5767 40.218 26.495 40.4819C26.4133 40.7458 26.4492 41.0331 26.5927 41.2673L27.5441 42.8127L27.6651 44.6256H27.6653C27.6834 44.9029 27.8202 45.1576 28.0387 45.3209C28.2569 45.4843 28.5346 45.5395 28.7963 45.4715L30.5108 45.0155L32.2339 45.4588C32.4959 45.5255 32.7729 45.4692 32.9906 45.3052C33.2083 45.1411 33.3441 44.8862 33.3615 44.6091L33.4717 42.7854L34.4125 41.2399C34.554 41.0036 34.5865 40.715 34.5014 40.4518C34.4162 40.1885 34.2223 39.9776 33.9715 39.8757L32.3248 39.2056L31.1882 37.8066C31.0522 37.6373 30.8628 37.5227 30.653 37.4825C30.5931 37.472 30.5323 37.4676 30.4715 37.4697L30.4716 37.4697ZM39.5486 37.4697C39.2844 37.4774 39.0364 37.603 38.8693 37.8139L37.7398 39.2165L36.0931 39.8995C35.8444 40.0048 35.6537 40.218 35.572 40.4819C35.4903 40.7458 35.5262 41.0331 35.6697 41.2673L36.6211 42.8127L36.7421 44.6256H36.7423C36.7604 44.9029 36.8972 45.1576 37.1157 45.3209C37.3339 45.4843 37.6116 45.5395 37.8733 45.4715L39.5877 45.0155L41.3109 45.4588C41.5729 45.5255 41.8499 45.4692 42.0676 45.3052C42.2853 45.1411 42.4211 44.8862 42.4385 44.6091L42.5487 42.7854L43.4895 41.2399C43.631 41.0036 43.6635 40.715 43.5784 40.4518C43.4932 40.1885 43.2993 39.9776 43.0485 39.8757L41.4017 39.2056L40.2652 37.8066C40.1292 37.6373 39.9398 37.5227 39.73 37.4825C39.6701 37.472 39.6093 37.4676 39.5485 37.4697L39.5486 37.4697Z" fill="#9C9FA0"/>
</svg>
