<svg width="61" height="61" viewBox="0 0 61 61" fill="none" xmlns="http://www.w3.org/2000/svg">
<circle cx="30.25" cy="30.75" r="30" fill="white"/>
<path d="M18.9375 43.25H41.5625C41.9375 43.25 42.25 42.9416 42.25 42.5714V40.9058H18.25V42.5714C18.25 43.0032 18.5625 43.25 18.9375 43.25ZM43.375 23.5097C42.3125 23.5097 41.5 24.3117 41.5 25.3604C41.5 25.8539 41.6875 26.3474 42.0625 26.6558L36.4375 32.3312L31.125 22.9545C31.6875 22.6461 32.0625 22.0292 32.0625 21.3506C32.0625 20.3019 31.25 19.5 30.1875 19.5C29.125 19.5 28.3125 20.3019 28.3125 21.3506C28.3125 22.0292 28.6875 22.6461 29.25 22.9545L23.9375 32.3312L18.3125 26.6558C18.8125 26.3474 19 25.8539 19 25.3604C19 24.3117 18.1875 23.5097 17.125 23.5097C16.0625 23.5097 15.25 24.3117 15.25 25.3604C15.25 26.4091 16.0625 27.211 17.125 27.211C17.1875 27.211 17.25 27.211 17.25 27.211L18.25 39.7955H42.25L43.25 27.211C43.3125 27.211 43.375 27.211 43.375 27.211C44.4375 27.211 45.25 26.4091 45.25 25.3604C45.25 24.3734 44.4375 23.5097 43.375 23.5097Z" fill="#9C9FA0"/>
</svg>
