<svg width="61" height="61" viewBox="0 0 61 61" fill="none" xmlns="http://www.w3.org/2000/svg">
<circle cx="30.75" cy="30.25" r="30" fill="white"/>
<path d="M25.1839 30.2503H25.0665C20.0878 30.2861 16.0074 34.8754 15.7507 40.6601L15.7509 40.6598C15.741 40.8788 15.8125 41.0928 15.9484 41.2515C16.0843 41.4103 16.2726 41.5 16.4696 41.5H33.7898C33.9851 41.4976 34.1712 41.4066 34.3052 41.248C34.439 41.0895 34.5089 40.8772 34.4991 40.6598C34.2429 34.875 30.1623 30.2863 25.1832 30.25L25.1839 30.2503ZM30.75 30.3556C32.1941 31.1482 33.4439 32.2161 34.4185 33.4898C35.3932 34.7638 36.0711 36.2152 36.4081 37.75H44.9887C45.1971 37.75 45.3963 37.6702 45.5401 37.5289C45.6839 37.3876 45.7595 37.1973 45.749 37.0024C45.4956 32.1892 41.4422 28.375 36.5092 28.375C34.4 28.3781 32.3599 29.0795 30.75 30.3554V30.3556ZM26.0625 20.875C24.8194 20.875 23.627 21.3687 22.7478 22.2479C21.869 23.1271 21.375 24.3191 21.375 25.5624C21.375 26.8055 21.869 27.9979 22.7481 28.8771C23.627 29.7563 24.8193 30.25 26.0625 30.25C27.3056 30.25 28.498 29.756 29.3769 28.8771C30.256 27.9979 30.75 26.8056 30.75 25.5624C30.7492 24.3194 30.2552 23.1273 29.3764 22.2484C28.4976 21.3695 27.3055 20.8755 26.0626 20.875H26.0625ZM36.375 20.875C35.3804 20.875 34.4268 21.27 33.7235 21.9732C33.0202 22.6765 32.625 23.6304 32.625 24.625C32.625 25.6196 33.0202 26.5735 33.7235 27.2765C34.4268 27.9798 35.3804 28.375 36.375 28.375C37.3696 28.375 38.3235 27.9798 39.0268 27.2765C39.73 26.5735 40.125 25.6196 40.125 24.625C40.1245 23.6307 39.7292 22.6771 39.026 21.9741C38.323 21.2708 37.3696 20.8755 36.3751 20.875H36.375Z" fill="#9C9FA0"/>
</svg>
