<svg width="16" height="16" viewBox="0 0 16 16" fill="none" xmlns="http://www.w3.org/2000/svg">
<path d="M9.33342 0H6.66673C6.13621 0 5.62759 0.21071 5.25243 0.585709C4.87742 0.960856 4.66671 1.46947 4.66671 1.99998V2.66664H0.666665C0.428418 2.66664 0.208336 2.79372 0.0892867 2.99997C-0.0297622 3.20622 -0.0297622 3.46039 0.0892867 3.66663C0.208336 3.87288 0.428426 3.99996 0.666665 3.99996H1.40328L2.40672 13.0353C2.49735 13.8506 2.88558 14.6037 3.4969 15.1508C4.10823 15.6978 4.89974 16.0002 5.71998 16H10.28C11.1004 16.0001 11.8919 15.6976 12.5032 15.1504C13.1147 14.6034 13.5028 13.85 13.5933 13.0347L14.6 4.00011H15.3333C15.5716 4.00011 15.7917 3.87303 15.9107 3.66678C16.0298 3.46053 16.0298 3.20637 15.9107 3.00012C15.7917 2.79388 15.5716 2.66679 15.3333 2.66679H11.3333V2.00013C11.3333 1.46962 11.1226 0.961019 10.7476 0.585861C10.3724 0.210863 9.86379 0.000152296 9.33327 0.000152296L9.33342 0ZM6.00006 1.99998C6.00006 1.8232 6.0703 1.65355 6.1953 1.52856C6.3203 1.40356 6.48994 1.33332 6.66673 1.33332H9.33342C9.51021 1.33332 9.67986 1.40356 9.80486 1.52856C9.92986 1.65355 10.0001 1.8232 10.0001 1.99998V2.66664H6.00006V1.99998ZM6.66673 10.6666C6.66673 10.9048 6.53965 11.1249 6.33339 11.2439C6.12714 11.363 5.87297 11.363 5.66672 11.2439C5.46047 11.1249 5.33338 10.9048 5.33338 10.6666V6.6666C5.33338 6.42836 5.46046 6.20828 5.66672 6.08924C5.87297 5.97019 6.12714 5.97019 6.33339 6.08924C6.53964 6.20828 6.66673 6.42837 6.66673 6.6666V10.6666ZM10.6668 10.6666C10.6668 10.9048 10.5397 11.1249 10.3334 11.2439C10.1272 11.363 9.87301 11.363 9.66676 11.2439C9.46051 11.1249 9.33342 10.9048 9.33342 10.6666V6.6666C9.33342 6.42836 9.46051 6.20828 9.66676 6.08924C9.87302 5.97019 10.1272 5.97019 10.3334 6.08924C10.5397 6.20828 10.6668 6.42837 10.6668 6.6666V10.6666Z" fill="#E6427A"/>
</svg>
