<svg width="14" height="14" viewBox="0 0 14 14" fill="none" xmlns="http://www.w3.org/2000/svg">
<path d="M7 14C3.14042 14 0 10.8599 0 7C0 3.14042 3.14009 0 7 0C10.8599 0 14 3.14009 14 7C14 10.8599 10.8599 14 7 14ZM7 1.39081C3.90718 1.39081 1.39089 3.90677 1.39089 6.99992C1.39089 10.0931 3.90685 12.609 7 12.609C10.0931 12.609 12.6091 10.0925 12.6091 6.99992C12.6091 3.9071 10.0931 1.39081 7 1.39081Z" fill="black"/>
<path d="M7.00777 8.7291C6.6236 8.7291 6.3125 8.418 6.3125 8.03382V3.64449C6.3125 3.26031 6.6236 2.94922 7.00777 2.94922C7.39195 2.94922 7.70305 3.26031 7.70305 3.64449V8.03382C7.70305 8.418 7.39163 8.7291 7.00777 8.7291Z" fill="black"/>
<path d="M7.00777 11.0489C6.6236 11.0489 6.3125 10.7378 6.3125 10.3537V10.1367C6.3125 9.7525 6.6236 9.44141 7.00777 9.44141C7.39195 9.44141 7.70305 9.7525 7.70305 10.1367V10.3537C7.70305 10.7378 7.39163 11.0489 7.00777 11.0489Z" fill="black"/>
</svg>
