<svg width="36" height="36" viewBox="0 0 36 36" fill="none" xmlns="http://www.w3.org/2000/svg">
<circle cx="18" cy="18" r="18" fill="#E6427A"/>
<path d="M18.1348 18.05C20.8848 18.05 23.1348 15.8 23.1348 13.05C23.1348 10.3 20.8848 8 18.1348 8C15.3848 8 13.1348 10.25 13.1348 13C13.1348 15.75 15.3848 18.05 18.1348 18.05ZM18.1348 9C20.3349 9 22.1348 10.7999 22.1348 13C22.1348 15.2001 20.3349 17 18.1348 17C15.9347 17 14.1348 15.2001 14.1348 13C14.1348 10.7999 15.9347 9 18.1348 9Z" fill="white" stroke="white" stroke-width="0.3"/>
<path d="M23.3356 18.9514C23.7857 18.9514 24.0357 18.4015 23.6857 18.1014C23.6357 18.0514 23.6357 18.0514 23.5856 18.0013C22.9856 17.4514 21.9357 17.4013 21.2857 17.8514C19.4357 19.1014 16.8857 19.1014 14.9857 17.8514C14.2357 17.3514 13.2856 17.4514 12.6357 18.0514C10.6856 19.8514 9.68557 21.6514 9.08572 24.2014C8.78577 25.5014 9.28577 26.8015 10.3856 27.6014C10.7355 27.8514 11.1855 28.0014 11.6855 28.0014H20.0355C20.3354 28.0014 20.5355 27.8013 20.5355 27.5014C20.5355 27.2014 20.3354 27.0014 20.0355 27.0014H11.6855C11.4355 27.0014 11.1855 26.9014 10.9854 26.8013C10.2354 26.2514 9.88536 25.3513 10.0854 24.4513C10.6354 22.0513 11.5854 20.4513 13.3854 18.8013C13.5353 18.6513 13.7853 18.5513 13.9854 18.5513C14.1354 18.5513 14.2854 18.6012 14.4355 18.6513C14.8354 18.8514 15.1855 19.1513 15.5854 19.3013C17.7354 20.1513 20.0355 19.8512 21.8355 18.6513C22.1354 18.4512 22.6855 18.5013 22.9355 18.7012C22.9854 18.7512 23.0855 18.8512 23.1356 18.9013L23.3356 18.9514Z" fill="white" stroke="white" stroke-width="0.3"/>
<path d="M26.486 23.8984H20.8359C20.536 23.8984 20.3359 23.6984 20.3359 23.3984C20.3359 23.0985 20.536 22.8984 20.8359 22.8984H26.486C26.7859 22.8984 26.986 23.0985 26.986 23.3984C26.986 23.6985 26.7859 23.8984 26.486 23.8984Z" fill="white" stroke="white" stroke-width="0.3"/>
<path d="M23.6855 26.7508C23.3856 26.7508 23.1855 26.5507 23.1855 26.2508V20.5508C23.1855 20.2508 23.3856 20.0508 23.6855 20.0508C23.9855 20.0508 24.1856 20.2508 24.1856 20.5508V26.2008C24.1856 26.5009 23.9355 26.7509 23.6855 26.7509V26.7508Z" fill="white" stroke="white" stroke-width="0.3"/>
</svg>
