<svg width="16" height="16" viewBox="0 0 16 16" fill="none" xmlns="http://www.w3.org/2000/svg">
<path d="M4.0087 0C1.7995 0 0 1.79962 0 4.0088V11.9912C0 14.2004 1.7995 16 4.0087 16H11.9912C14.2004 16 16 14.2004 16 11.9912V4.0088C16 1.79962 14.2004 0 11.9912 0H4.0087ZM8.15744 3.38111C7.97999 3.38368 7.81081 3.45659 7.68708 3.58382C7.56335 3.71106 7.4952 3.88221 7.49759 4.05966V7.2866H4.27115C4.18187 7.28443 4.09306 7.30013 4.00995 7.3328C3.92683 7.36546 3.85109 7.41442 3.78718 7.4768C3.72327 7.53917 3.67248 7.6137 3.6378 7.69599C3.60313 7.77829 3.58526 7.86669 3.58526 7.95599C3.58526 8.04529 3.60313 8.1337 3.6378 8.21599C3.67248 8.29829 3.72327 8.37282 3.78718 8.43519C3.85109 8.49757 3.92683 8.54653 4.00995 8.57919C4.09306 8.61186 4.18187 8.62756 4.27115 8.62539H7.49759V11.8518C7.49757 11.9398 7.51487 12.0269 7.54852 12.1082C7.58217 12.1894 7.63149 12.2633 7.69369 12.3255C7.75588 12.3877 7.82972 12.437 7.91098 12.4707C7.99225 12.5044 8.07935 12.5217 8.16732 12.5217C8.25528 12.5217 8.34239 12.5044 8.42365 12.4707C8.50492 12.437 8.57876 12.3877 8.64095 12.3255C8.70314 12.2633 8.75247 12.1894 8.78612 12.1082C8.81976 12.0269 8.83707 11.9398 8.83704 11.8518V8.62539H12.0634C12.1526 8.62756 12.2414 8.61186 12.3246 8.57919C12.4077 8.54653 12.4834 8.49757 12.5473 8.43519C12.6112 8.37282 12.662 8.29829 12.6967 8.21599C12.7314 8.1337 12.7492 8.04529 12.7492 7.95599C12.7492 7.86669 12.7314 7.77829 12.6967 7.69599C12.662 7.6137 12.6112 7.53917 12.5473 7.4768C12.4834 7.41442 12.4077 7.36546 12.3246 7.3328C12.2414 7.30013 12.1526 7.28443 12.0634 7.2866H8.83704V4.05966C8.83825 3.97013 8.82149 3.88127 8.78775 3.79833C8.75401 3.71539 8.70398 3.64006 8.64062 3.57679C8.57726 3.51353 8.50185 3.46361 8.41886 3.43C8.33586 3.39639 8.24697 3.37977 8.15744 3.38111Z" fill="#E6427A"/>
<path d="M4.11024 8.55469H7.44358V11.888C7.44358 12.1944 7.69274 12.4436 7.99913 12.4436C8.30552 12.4436 8.55469 12.1944 8.55469 11.888V8.55469H11.888C12.1944 8.55469 12.4436 8.30552 12.4436 7.99913C12.4436 7.69274 12.1944 7.44358 11.888 7.44358H8.55469V4.11024C8.55469 3.80385 8.30552 3.55469 7.99913 3.55469C7.69274 3.55469 7.44358 3.80385 7.44358 4.11024V7.44358H4.11024C3.80385 7.44358 3.55469 7.69274 3.55469 7.99913C3.55469 8.30552 3.80385 8.55469 4.11024 8.55469Z" fill="white"/>
</svg>
