<svg width="20" height="22" viewBox="0 0 20 22" fill="none" xmlns="http://www.w3.org/2000/svg">
<path d="M10.1348 11.05C12.8848 11.05 15.1348 8.80002 15.1348 6.05001C15.1348 3.30001 12.8848 1 10.1348 1C7.38477 1 5.13477 3.25001 5.13477 6.00001C5.13477 8.75002 7.38477 11.05 10.1348 11.05ZM10.1348 2C12.3349 2 14.1348 3.79994 14.1348 6.00001C14.1348 8.20009 12.3349 10 10.1348 10C7.9347 10 6.13477 8.20009 6.13477 6.00001C6.13477 3.79994 7.9347 2 10.1348 2Z" fill="black" stroke="black" stroke-width="0.3"/>
<path d="M15.3356 11.9514C15.7857 11.9514 16.0357 11.4015 15.6857 11.1014C15.6357 11.0514 15.6357 11.0514 15.5856 11.0013C14.9856 10.4514 13.9357 10.4013 13.2857 10.8514C11.4357 12.1014 8.8857 12.1014 6.9857 10.8514C6.23569 10.3514 5.28562 10.4514 4.63565 11.0514C2.68558 12.8514 1.68557 14.6514 1.08572 17.2014C0.785772 18.5014 1.28577 19.8015 2.38565 20.6014C2.73554 20.8514 3.18547 21.0014 3.68547 21.0014H12.0355C12.3354 21.0014 12.5355 20.8013 12.5355 20.5014C12.5355 20.2014 12.3354 20.0014 12.0355 20.0014H3.68547C3.43547 20.0014 3.18547 19.9014 2.9854 19.8013C2.2354 19.2514 1.88536 18.3513 2.08543 17.4513C2.63536 15.0513 3.58544 13.4513 5.38537 11.8013C5.53534 11.6513 5.78534 11.5513 5.98541 11.5513C6.13538 11.5513 6.28535 11.6012 6.43548 11.6513C6.83544 11.8514 7.18548 12.1513 7.58545 12.3013C9.73542 13.1513 12.0355 12.8512 13.8355 11.6513C14.1354 11.4512 14.6855 11.5013 14.9355 11.7012C14.9854 11.7512 15.0855 11.8512 15.1356 11.9013L15.3356 11.9514Z" fill="black" stroke="black" stroke-width="0.3"/>
<path d="M18.486 16.8984H12.8359C12.536 16.8984 12.3359 16.6984 12.3359 16.3984C12.3359 16.0985 12.536 15.8984 12.8359 15.8984H18.486C18.7859 15.8984 18.986 16.0985 18.986 16.3984C18.986 16.6985 18.7859 16.8984 18.486 16.8984Z" fill="black" stroke="black" stroke-width="0.3"/>
<path d="M15.6855 19.7508C15.3856 19.7508 15.1855 19.5507 15.1855 19.2508V13.5508C15.1855 13.2508 15.3856 13.0508 15.6855 13.0508C15.9855 13.0508 16.1856 13.2508 16.1856 13.5508V19.2008C16.1856 19.5009 15.9355 19.7509 15.6855 19.7509V19.7508Z" fill="black" stroke="black" stroke-width="0.3"/>
</svg>
