<svg width="18" height="18" viewBox="0 0 18 18" fill="none" xmlns="http://www.w3.org/2000/svg">
<path d="M9 17C13.4052 17 17 13.4052 17 9C17 4.59481 13.4051 1 9 1C4.59492 1 1 4.59492 1 9C1 13.4051 4.59492 17 9 17ZM9 2.03896C12.8442 2.03896 15.961 5.15584 15.961 9C15.961 12.8442 12.8442 15.961 9 15.961C5.15584 15.961 2.03896 12.8442 2.03896 9C2.03896 5.15584 5.15584 2.03896 9 2.03896Z" fill="#707070" stroke="#707070" stroke-width="0.2"/>
<path d="M5.46772 9.62454H8.37674V12.5336C8.37674 12.8245 8.60532 13.053 8.89622 13.053C9.18712 13.053 9.4157 12.8245 9.4157 12.5336V9.62454H12.5326C12.8235 9.62454 13.0521 9.39596 13.0521 9.10506C13.0521 8.81416 12.8235 8.58558 12.5326 8.58558H9.4157V5.4687C9.4157 5.1778 9.18712 4.94922 8.89622 4.94922C8.60532 4.94922 8.37674 5.1778 8.37674 5.4687V8.58558H5.46772C5.17682 8.58558 4.94824 8.81416 4.94824 9.10506C4.94824 9.39596 5.17682 9.62454 5.46772 9.62454Z" fill="#707070" stroke="#707070" stroke-width="0.2"/>
</svg>
