<svg width="15" height="16" viewBox="0 0 15 16" fill="none" xmlns="http://www.w3.org/2000/svg">
<path fill-rule="evenodd" clip-rule="evenodd" d="M1.45614 0H10.6514C9.89716 0 9.28006 0.617107 9.28006 1.37136C9.28006 5.89643 9.28032 10.4208 9.28032 14.9459H6.42417L6.01769 13.8121C6.57811 13.3771 6.92576 12.7039 6.92576 11.9907C6.92576 10.728 5.90033 9.70504 4.63987 9.70504C3.37915 9.70504 2.35426 10.7299 2.35426 11.9907C2.35426 12.7209 2.6892 13.3674 3.26183 13.8134L2.85562 14.9459H0V1.45603C0 0.655174 0.655174 0.00026877 1.45603 0.00026877L1.45614 0ZM14.7669 9.94554V3.61555H12.382V9.94554C12.382 11.5042 14.7669 11.5185 14.7669 9.94554ZM4.63995 9.9735C5.7529 9.9735 6.65718 10.8775 6.65718 11.9905C6.65718 12.7011 6.29048 13.34 5.69646 13.7083L6.40465 15.6842L5.52336 16L4.80663 14.0009C4.69573 14.0102 4.58417 14.0099 4.47327 14.0009L3.75654 16L2.87525 15.6842L3.58344 13.709C2.98693 13.3414 2.62299 12.6945 2.62299 11.9905C2.62299 10.8766 3.52609 9.97353 4.63995 9.97353L4.63995 9.9735ZM4.63995 10.8333C4.00067 10.8333 3.48278 11.3513 3.48278 11.9905C3.48278 12.6297 4.00053 13.1478 4.63995 13.1478C5.28041 13.1478 5.79725 12.631 5.79725 11.9905C5.79725 11.35 5.28041 10.8333 4.63995 10.8333ZM9.54871 1.55031V11.3299H13.3951C12.6899 11.3299 12.1131 10.7132 12.1131 9.96006V1.55065C12.1131 -0.24453 9.54885 -0.253568 9.54885 1.55065L9.54871 1.55031ZM2.46847 2.50105H6.81177V3.36084H2.46847V2.50105ZM1.49017 7.81132H7.79026V8.67138H1.49017V7.81132ZM1.49017 6.22392H7.79026V7.08398H1.49017V6.22392ZM1.49017 4.63625H7.79026V5.4963H1.49017V4.63625Z" fill="#E6427A"/>
</svg>
