<svg width="17" height="16" viewBox="0 0 17 16" fill="none" xmlns="http://www.w3.org/2000/svg">
<path d="M6.05142 7.69561C7.91846 7.69561 9.39922 6.21485 9.39922 4.3478C9.39922 2.48076 7.91846 1 6.05142 1C4.18437 1 2.70361 2.48076 2.70361 4.3478C2.70361 6.21485 4.18437 7.69561 6.05142 7.69561Z" fill="#E6427A"/>
<path d="M8.56265 8.66211H3.54095C1.60952 8.66211 0 10.2716 0 12.2031V13.1044C0 13.9413 0.708189 14.6495 1.54514 14.6495H10.5585C11.3954 14.6495 12.1036 13.9413 12.1036 13.1044V12.2031C12.0392 10.2716 10.4941 8.66211 8.56265 8.66211Z" fill="#E6427A"/>
<path d="M10.9334 9.68555C13.1764 9.68555 14.5548 11.4163 14.9486 11.9933C15.0171 12.0991 15.0171 12.2529 14.9486 12.3587C14.5462 12.9357 13.1764 14.6665 10.9334 14.6665C8.69032 14.6665 7.31198 12.9357 6.91813 12.3587C6.84109 12.2529 6.84109 12.0991 6.91813 11.9933C7.32051 11.4164 8.69032 9.68555 10.9334 9.68555Z" fill="#E6427A" stroke="white" stroke-width="0.6"/>
<path d="M10.9331 10.9844C10.839 10.9844 10.7533 10.994 10.6678 11.0228C10.7962 11.1382 10.8732 11.3016 10.8732 11.5036C10.8732 11.8402 10.6335 12.1094 10.3339 12.1094C10.1627 12.1094 10.0085 12.0229 9.9058 11.8786C9.88012 11.9748 9.87158 12.0806 9.87158 12.1767C9.87158 12.8402 10.351 13.369 10.9332 13.369C11.5153 13.369 11.9948 12.8306 11.9948 12.1767C11.9948 11.5229 11.5153 10.9844 10.9331 10.9844Z" fill="#E6427A" stroke="white" stroke-width="0.6"/>
</svg>
