<svg width="16" height="16" viewBox="0 0 16 16" fill="none" xmlns="http://www.w3.org/2000/svg">
<path fill-rule="evenodd" clip-rule="evenodd" d="M7.9648 13.1308C10.8174 13.1308 13.1298 10.8183 13.1298 7.96578C13.1298 5.11323 10.8174 2.80078 7.9648 2.80078C5.11225 2.80078 2.7998 5.11323 2.7998 7.96578C2.7998 10.8183 5.11225 13.1308 7.9648 13.1308ZM10.288 6.92983C10.2711 6.54698 10.5473 6.20955 10.8798 6.20306C11.218 6.19657 11.4998 6.50805 11.4998 6.90387C11.4998 7.29321 11.2236 7.60468 10.8911 7.60468C10.8629 7.60468 10.8403 7.60468 10.8178 7.59819L10.5867 10.2068C10.5698 10.4144 10.4176 10.5701 10.2373 10.5701H7.99976H5.76224C5.58188 10.5701 5.42971 10.4144 5.4128 10.2068L5.18172 7.59819C5.15918 7.60468 5.131 7.60468 5.10845 7.60468C4.77029 7.60468 4.49976 7.28672 4.49976 6.90387C4.49976 6.50805 4.77592 6.19657 5.11972 6.20306C5.45225 6.20955 5.72278 6.54698 5.71151 6.92983C5.70588 7.13748 5.6157 7.32565 5.48043 7.44895C6.17931 8.52611 6.88945 8.61047 7.71232 6.826C7.41924 6.65729 7.25579 6.22902 7.46996 5.80075C7.57705 5.5931 7.77995 5.49577 7.98848 5.50226H7.99976H8.01103C8.21956 5.48928 8.4281 5.5931 8.52955 5.80075C8.74372 6.22902 8.58027 6.65729 8.2872 6.826C9.11006 8.61047 9.82021 8.52611 10.5191 7.44895C10.3838 7.32565 10.2936 7.14396 10.288 6.92983Z" fill="#E6427A"/>
<path d="M8.01899 0C3.60817 0 0.0378818 3.56937 0.0378818 7.9811C0.0378818 9.9804 0.767421 11.8659 2.10097 13.3361L0 15.9623H8.0189C12.4297 15.9623 16 12.3929 16 7.98117C16 3.57035 12.4306 6.09189e-05 8.0189 6.09189e-05L8.01899 0ZM8.01899 14.0843C4.6535 14.0843 1.91582 11.3464 1.91582 7.9811C1.91582 4.6158 4.65381 1.87794 8.01899 1.87794C11.3845 1.87794 14.1221 4.6158 14.1221 7.9811C14.1221 11.3464 11.3843 14.0843 8.01899 14.0843Z" fill="#E6427A"/>
</svg>
