<svg width="16" height="16" viewBox="0 0 16 16" fill="none" xmlns="http://www.w3.org/2000/svg">
<path d="M13.9906 5.57458C13.9233 5.38931 13.7548 5.27148 13.5527 5.27148H11.5653V7.00622H12.0369C12.2895 7.00622 12.5084 7.20829 12.5084 7.4778C12.5084 7.73038 12.3064 7.94938 12.0369 7.94938H4.05371C3.80113 7.94938 3.58213 7.7304 3.58213 7.4778C3.58213 7.2252 3.7842 7.00622 4.05371 7.00622H4.52529V5.27148H2.53786C2.35259 5.27148 2.16734 5.40624 2.1 5.57458L0.634766 9.61669H15.4558L13.9906 5.57458Z" fill="#E6427A"/>
<path d="M0.5 10.543V15.5282C0.5 15.7808 0.702069 15.9998 0.971579 15.9998H15.1189C15.3715 15.9998 15.5905 15.7808 15.5905 15.5282V10.543H0.5Z" fill="#E6427A"/>
<path d="M10.0997 0H5.99018C5.68708 0 5.45117 0.235783 5.45117 0.539008V7.00638H10.6217V0.539008C10.6385 0.23579 10.3859 0 10.0996 0H10.0997ZM9.44281 3.13263L8.04492 4.53053C7.96068 4.61476 7.84285 4.66528 7.7081 4.66528C7.57336 4.66528 7.47232 4.61476 7.37129 4.53053L6.63021 3.78944C6.44494 3.60417 6.44494 3.31786 6.63021 3.1326C6.81548 2.94733 7.10179 2.94733 7.28705 3.1326L7.69129 3.53684L8.76919 2.45895C8.95446 2.27368 9.24077 2.27368 9.42603 2.45895C9.6281 2.66102 9.6281 2.94731 9.44283 3.13257L9.44281 3.13263Z" fill="#E6427A"/>
</svg>
