<svg width="16" height="16" viewBox="0 0 16 16" fill="none" xmlns="http://www.w3.org/2000/svg">
<path d="M2.69727 7.54644L4.05603 10.8277L10.4389 11.0334L7.06651 2.88867L2.69727 7.54644Z" fill="#E6427A"/>
<path d="M8.56077 2.27058C8.44023 1.9794 8.10616 1.84089 7.81499 1.96155C7.52357 2.08221 7.38543 2.41615 7.50596 2.7072L10.8783 10.852C10.9989 11.1434 11.3329 11.2815 11.624 11.161C11.9152 11.0403 12.0537 10.7063 11.933 10.4152L8.56077 2.27058Z" fill="#E6427A"/>
<path d="M10.2916 4.91596L10.1157 4.98888L11.1103 7.39117L11.2861 7.3185C11.6927 7.15009 12.0589 6.94697 11.5798 5.78974C11.1006 4.63224 10.6979 4.74783 10.2916 4.91599V4.91596Z" fill="#E6427A"/>
<path d="M11.7961 3.76207C11.862 3.73466 11.9198 3.68593 11.9579 3.61896L13.1645 1.49769C13.2555 1.33809 13.1997 1.13483 13.0397 1.04369C12.8798 0.952542 12.6765 1.00872 12.5857 1.16844L11.3791 3.28984C11.2881 3.44944 11.3439 3.6527 11.5039 3.74371C11.5966 3.79679 11.7043 3.80001 11.796 3.76207L11.7961 3.76207Z" fill="#E6427A"/>
<path d="M15.7347 7.70631L13.3817 7.05885C13.2043 7.01012 13.0213 7.11453 12.9725 7.29174C12.9236 7.46919 13.0278 7.65221 13.2053 7.7012L15.5582 8.34866C15.6325 8.36887 15.7077 8.36255 15.7737 8.33527C15.8652 8.2972 15.9393 8.21895 15.9677 8.11602C16.0161 7.93869 15.9119 7.75542 15.7346 7.70631L15.7347 7.70631Z" fill="#E6427A"/>
<path d="M15.5396 3.79107L12.9689 4.85555C12.7989 4.92599 12.7183 5.1203 12.7886 5.29018C12.859 5.45995 13.0538 5.5408 13.2236 5.47049L15.7943 4.40614C15.9643 4.3357 16.0449 4.14113 15.9746 3.97125C15.9042 3.80111 15.7097 3.72076 15.5396 3.79107V3.79107Z" fill="#E6427A"/>
<path d="M2.25797 7.72852L0.66051 8.39023C0.612024 8.4102 0.552126 8.46364 0.52658 8.50965L0.0222299 9.42222C-0.00319177 9.46811 -0.007408 9.5445 0.0126812 9.59348L0.71046 11.2786C0.730549 11.327 0.787593 11.3783 0.838311 11.393L1.84006 11.6817C1.89053 11.6963 1.97076 11.6916 2.01925 11.6715L3.61658 11.01L2.25797 7.72852Z" fill="#E6427A"/>
<path d="M3.75945 11.3535L2.39697 11.9174L3.63434 14.9059C3.65443 14.9544 3.70986 14.9777 3.7586 14.9575L4.94511 14.4662C4.99359 14.4462 5.01678 14.3904 4.99669 14.3417L3.75945 11.3535Z" fill="#E6427A"/>
</svg>
