<svg width="16" height="16" viewBox="0 0 16 16" fill="none" xmlns="http://www.w3.org/2000/svg">
<path d="M6.70107 6.04578L9.20984 3.53701C9.33466 3.41218 9.33466 3.21062 9.20984 3.0858C9.08502 2.96098 8.88345 2.96098 8.75864 3.0858L6.24987 5.59457C6.12504 5.71939 6.12504 5.92096 6.24987 6.04578C6.31388 6.10979 6.39384 6.13859 6.47701 6.13859C6.56031 6.13859 6.63706 6.10979 6.70108 6.04578H6.70107Z" fill="#E6427A"/>
<path d="M8.75813 1.27561L4.1693 5.86444C4.04448 5.98927 4.04448 6.19083 4.1693 6.31565C4.23332 6.37967 4.31327 6.40846 4.39644 6.40846C4.47961 6.40846 4.5597 6.37645 4.62359 6.31565L8.9851 1.95413L11.3723 4.34129L12.2491 5.31093C12.3739 5.43897 12.5755 5.44218 12.7003 5.31736L14.2235 3.81656L14.5531 4.14616C14.6363 4.22933 14.7611 4.26134 14.873 4.22612C14.985 4.1909 15.0714 4.09808 15.0939 3.9829L15.6059 1.38132C15.6251 1.27578 15.5931 1.17011 15.5195 1.09337C15.4428 1.01663 15.3371 0.984619 15.2316 1.00699L12.63 1.51579C12.5148 1.53816 12.4188 1.62454 12.3868 1.73664C12.3516 1.8486 12.3836 1.97343 12.4667 2.0566L12.8668 2.45664L11.606 3.66629L9.21242 1.27272C9.0876 1.1574 8.87639 1.1574 8.75799 1.2758L8.75813 1.27561Z" fill="#E6427A"/>
<path d="M0.319888 15.2688H6.09913C6.27832 15.2688 6.41908 15.1248 6.41908 14.9488V13.7329C6.41908 12.6416 5.52953 11.7521 4.43828 11.7521L1.98402 11.752C0.889549 11.752 0 12.6415 0 13.7328V14.9487C0 15.1248 0.143974 15.2688 0.319956 15.2688H0.319888Z" fill="#E6427A"/>
<path d="M5.11318 9.5387C5.11318 10.5903 4.26073 11.4428 3.20925 11.4428C2.15763 11.4428 1.30518 10.5903 1.30518 9.5387C1.30518 8.48722 2.15763 7.63477 3.20925 7.63477C4.26073 7.63477 5.11318 8.48722 5.11318 9.5387Z" fill="#E6427A"/>
<path d="M10.2012 8.51794C10.2012 9.73389 9.21547 10.7196 7.99952 10.7196C6.78357 10.7196 5.79785 9.73389 5.79785 8.51794C5.79785 7.30213 6.78357 6.31641 7.99952 6.31641C9.21547 6.31641 10.2012 7.30213 10.2012 8.51794Z" fill="#E6427A"/>
<path d="M9.45895 11.209H6.54049C6.22375 11.209 5.9133 11.2762 5.62842 11.4011C6.47645 11.8362 7.05879 12.7162 7.05879 13.7338V14.9498C7.05879 15.0617 7.03643 15.1674 7.0012 15.2697H11.4364C11.6124 15.2697 11.7564 15.1258 11.7564 14.9498V13.5066C11.7567 12.2393 10.7262 11.209 9.45896 11.209L9.45895 11.209Z" fill="#E6427A"/>
<path d="M14.6942 9.5387C14.6942 10.5903 13.8418 11.4428 12.7902 11.4428C11.7387 11.4428 10.8862 10.5903 10.8862 9.5387C10.8862 8.48722 11.7387 7.63477 12.7902 7.63477C13.8418 7.63477 14.6942 8.48722 14.6942 9.5387Z" fill="#E6427A"/>
<path d="M14.0193 11.752H11.8081C12.1761 12.2416 12.3969 12.8464 12.3969 13.5056V14.9488C12.3969 15.0608 12.3713 15.1665 12.3361 15.2688H15.6801C15.8561 15.2688 16.0001 15.1248 16.0001 14.9488V13.7329C16.0001 12.6416 15.1105 11.752 14.0193 11.752H14.0193Z" fill="#E6427A"/>
</svg>
