<svg width="16" height="16" viewBox="0 0 16 16" fill="none" xmlns="http://www.w3.org/2000/svg">
<path d="M0.666992 10.6667L1.90509 12C2.5888 11.2637 3.69755 11.2637 4.38125 12C5.06509 12.7365 5.06496 13.9304 4.38125 14.6667L5.61935 16L12.5527 8.53331L7.60041 3.20005L0.666992 10.6667ZM8.09564 2.66666L13.048 7.99992L15.5241 5.33329L14.286 3.99996C13.6022 4.73639 12.4936 4.73639 11.8099 3.99996C11.1262 3.26366 11.1262 2.06963 11.8099 1.33333L10.5718 0L8.09564 2.66666Z" fill="#E93779"/>
<path fill-rule="evenodd" clip-rule="evenodd" d="M9.55679 9.91821C8.59574 10.0419 8.67724 9.96262 9.51235 8.95004C9.56118 9.00764 9.64371 9.03427 9.75188 9.01193C10.0673 8.9464 10.3197 8.55053 10.1419 8.36218C9.98063 8.19126 9.58643 8.37573 9.4853 8.67185C9.47229 8.7099 9.46504 8.7464 9.46305 8.78065C8.06843 9.22895 8.20611 8.95534 9.0592 7.4939C9.11187 7.50832 9.17408 7.50963 9.24474 7.49506C9.65983 7.40895 9.97992 6.88707 9.75672 6.65056C9.5335 6.41403 8.99242 6.70216 8.88184 7.11051C8.86312 7.18003 8.86068 7.24214 8.87196 7.29549C7.35991 8.05859 7.07819 8.17954 7.6094 6.81642C7.64373 6.81645 7.68066 6.8114 7.71951 6.80073C8.02147 6.71748 8.22942 6.33559 8.06823 6.16477C7.8904 5.97634 7.47947 6.20427 7.39534 6.51482C7.36646 6.62161 7.3881 6.70529 7.44296 6.75721C6.38079 7.52918 6.29687 7.60548 6.47755 6.65528C6.49413 6.6527 6.51078 6.64911 6.5282 6.64434C6.83038 6.56089 7.03811 6.1792 6.87692 6.00839C6.69909 5.81995 6.28816 6.04788 6.20421 6.35827C6.17414 6.46886 6.19861 6.55516 6.25796 6.60645L5.05093 8.07816L8.04953 11.2556L9.59292 10.1403C9.6407 10.2026 9.72542 10.232 9.83787 10.2087C10.1531 10.1434 10.4055 9.74746 10.2278 9.55912C10.0665 9.38819 9.67226 9.57266 9.57112 9.86879C9.56529 9.88583 9.56048 9.90241 9.55716 9.91861L9.55679 9.91821ZM8.34959 10.8667C8.47675 10.6906 8.64067 10.542 8.82698 10.4181C8.63726 10.4489 8.46701 10.4377 8.33053 10.3701C8.26802 10.504 8.18078 10.6232 8.07125 10.7288C8.18539 10.7426 8.27882 10.7874 8.34959 10.8666L8.34959 10.8667ZM8.06684 10.2764C8.20852 9.97103 8.42827 9.68763 8.69929 9.42907C8.37778 9.5582 8.07141 9.61905 7.79769 9.58517C7.75066 9.80196 7.65277 10.0094 7.50892 10.2077C7.71738 10.1754 7.90425 10.1966 8.06681 10.2764L8.06684 10.2764ZM5.45739 7.80192C5.64099 7.68568 5.79924 7.53105 5.93427 7.35287C5.89234 7.54023 5.89332 7.71045 5.95277 7.85048C5.81519 7.90481 5.69081 7.98465 5.57864 8.08752C5.57165 7.97294 5.53239 7.87716 5.4574 7.80193L5.45739 7.80192ZM6.03075 8.11885C6.34451 7.99582 6.64096 7.7937 6.91562 7.539C6.76755 7.85155 6.68829 8.15342 6.70568 8.42839C6.48612 8.46236 6.27288 8.54756 6.06608 8.67911C6.11071 8.47329 6.10065 8.2858 6.0306 8.11905L6.03075 8.11885ZM6.95509 8.66101C7.34377 8.60191 7.74277 8.4279 8.13715 8.17399C7.8598 8.55192 7.66207 8.93917 7.57983 9.32301C7.32699 9.29273 7.06232 9.33506 6.78744 9.4435C6.91206 9.1762 6.97035 8.91475 6.95509 8.66101ZM8.02917 11.3786L4.92652 8.09082L4.32054 8.66079L7.4232 11.9485L8.02917 11.3786Z" fill="white"/>
</svg>
