<svg width="16" height="16" viewBox="0 0 16 16" fill="none" xmlns="http://www.w3.org/2000/svg">
<path d="M13.854 11.084H12.8549V3.14518C12.8539 2.5762 12.6273 2.03082 12.2248 1.62868C11.8222 1.22654 11.2767 1.00041 10.7077 1H2.03516C1.99465 1.00013 1.95428 1.00466 1.91484 1.01332C1.20729 1.08981 0.583694 1.51221 0.250149 2.14089C-0.083395 2.76957 -0.0833712 3.52268 0.250149 4.15136C0.58367 4.78018 1.20729 5.20241 1.91484 5.27893C1.95428 5.28772 1.99465 5.29212 2.03516 5.29238H2.15748L2.15735 13.2466V13.2619V13.2617C2.16587 13.8253 2.3956 14.3628 2.79694 14.7584C3.1983 15.154 3.739 15.376 4.30267 15.3764H13.8539C14.6207 15.3764 15.3291 14.9673 15.7125 14.3033C16.0958 13.6394 16.0958 12.8212 15.7125 12.1572C15.3291 11.4931 14.6206 11.0841 13.8539 11.0841L13.854 11.084ZM2.1479 4.14602C1.79064 4.14602 1.46061 3.95548 1.2819 3.64608C1.10322 3.33668 1.10322 2.95545 1.2819 2.64606C1.46059 2.33666 1.79064 2.14598 2.1479 2.14598H8.81094C8.47915 2.77146 8.47915 3.52072 8.81094 4.14606L2.1479 4.14602ZM11.3171 11.9781H3.48508V10.8318H11.3171V11.9781ZM11.3171 9.6858H3.48508V8.53958H11.3171V9.6858ZM11.3171 7.39352H3.48508V6.2473H11.3171V7.39352ZM13.8596 14.2322L13.8598 14.2321C13.5949 14.2316 13.341 14.1262 13.1538 13.939C12.9666 13.7517 12.8612 13.4979 12.8607 13.233V12.2302H13.8598C14.217 12.2302 14.5471 12.4207 14.7258 12.7301C14.9045 13.0395 14.9045 13.4208 14.7258 13.7302C14.5471 14.0396 14.217 14.2302 13.8598 14.2302L13.8596 14.2322Z" fill="#E6427A"/>
</svg>
