<svg width="16" height="16" viewBox="0 0 16 16" fill="none" xmlns="http://www.w3.org/2000/svg">
<path d="M11.4941 12.4727C11.3443 12.601 11.1518 12.6867 10.9593 12.6867C10.9165 12.6867 10.8523 12.6867 10.8095 12.6653L10.2532 12.5583C10.2319 12.5583 10.1891 12.5583 10.1677 12.5797L9.97522 12.7937C9.93239 12.8365 9.91105 12.8578 9.86822 12.9007L9.76122 13.029C9.61139 13.2002 9.39754 13.2857 9.16218 13.2857C9.01235 13.2857 8.88401 13.2429 8.77716 13.1787L8.30649 12.922C8.30649 12.922 8.28515 12.922 8.28515 12.9007C8.26381 12.9007 8.24232 12.8793 8.22097 12.8793C8.19963 12.8793 8.17814 12.8793 8.1568 12.9007C8.1568 12.9007 8.13546 12.9007 8.13546 12.922L7.66479 13.1787C7.55779 13.2429 7.4081 13.2857 7.27977 13.2857C7.04442 13.2857 6.83041 13.2002 6.68073 13.029L6.57373 12.9007C6.5309 12.8793 6.50956 12.8365 6.46673 12.7937L6.27421 12.5797C6.25287 12.5583 6.21004 12.5583 6.1887 12.5583L5.63249 12.6653C5.58966 12.6653 5.52549 12.6867 5.48266 12.6867C5.29014 12.6867 5.09764 12.6011 4.9478 12.4727L4.0706 15.1256C4.02777 15.2968 4.11343 15.3823 4.26311 15.3181L5.91051 14.7404C6.06034 14.6762 6.29553 14.7404 6.40254 14.8688L7.27974 15.9171C7.38674 16.0455 7.51508 16.0241 7.55791 15.8529L8.19947 13.029L8.88416 15.8531C8.92699 16.0243 9.05534 16.0456 9.16233 15.9173L10.0395 14.8689C10.1465 14.7406 10.3604 14.6764 10.5316 14.7406L12.179 15.3182C12.3288 15.3824 12.4356 15.2969 12.3715 15.1257L11.4941 12.4727Z" fill="#E6427A"/>
<path d="M14.5184 6.69642C14.4329 6.54659 14.4329 6.3114 14.5184 6.16156L14.7966 5.66953C14.8821 5.5197 14.8394 5.30585 14.7111 5.19886L14.3044 4.79233C14.176 4.68533 14.1119 4.44999 14.1332 4.27883L14.2402 3.72262C14.283 3.55145 14.176 3.35894 14.0262 3.29477L13.5127 3.05943C13.3629 2.99526 13.2132 2.80274 13.1918 2.63158L13.1277 2.07525C13.1063 1.90408 12.9565 1.7544 12.7853 1.73291L12.2291 1.66874C12.0579 1.6474 11.8654 1.49757 11.8013 1.34789L11.5659 0.834388C11.5018 0.706045 11.3519 0.599043 11.2022 0.599043H11.1381L10.5604 0.706045H10.4749C10.325 0.706045 10.154 0.641873 10.047 0.534872L9.66201 0.128343C9.59784 0.0428305 9.4695 0 9.3625 0C9.29833 0 9.23416 0.0213404 9.16998 0.0428306L8.67796 0.321002C8.61378 0.363832 8.50678 0.385173 8.39978 0.385173C8.29278 0.385173 8.20727 0.363833 8.12161 0.321002L7.62958 0.0428306C7.56541 0.0214902 7.50124 0 7.43707 0C7.33007 0 7.22306 0.0428305 7.13756 0.128343L6.75254 0.534872C6.64553 0.641873 6.47437 0.706045 6.32469 0.706045H6.23918L5.68297 0.599043H5.61879C5.46896 0.599043 5.31928 0.684555 5.25511 0.834388L5.01977 1.34789C4.9556 1.49772 4.76308 1.6474 4.59192 1.66874L4.03571 1.73291C3.86453 1.75425 3.71485 1.90408 3.69336 2.07525L3.62919 2.63147C3.60785 2.80264 3.45802 2.99515 3.30834 3.05931L2.8157 3.29481C2.66587 3.35898 2.55901 3.55149 2.6017 3.72265L2.7087 4.27887C2.75153 4.45004 2.66587 4.6854 2.53752 4.79237L2.131 5.17739C2.00265 5.28439 1.98116 5.49824 2.04548 5.64806L2.32365 6.14009C2.40917 6.28992 2.40917 6.52511 2.32365 6.67495L2.04548 7.16698C1.95997 7.31681 2.00265 7.53066 2.131 7.63765L2.53752 8.02267C2.66587 8.12967 2.73004 8.36501 2.7087 8.53617L2.6017 9.09238C2.55887 9.26356 2.66587 9.45607 2.8157 9.52023L3.3292 9.75557C3.47903 9.81975 3.62871 10.0123 3.65005 10.1834L3.71422 10.7828C3.73556 10.9539 3.8854 11.1036 4.05657 11.1251L4.61278 11.1893C4.78395 11.2106 4.97646 11.3605 5.04063 11.5101L5.27597 12.0236C5.29731 12.0665 5.3188 12.0878 5.36148 12.1306C5.44699 12.1948 5.554 12.259 5.63965 12.259H5.70382L6.26004 12.152H6.34555C6.49538 12.152 6.6664 12.2161 6.7734 12.3231L7.15842 12.7297C7.22259 12.8152 7.35093 12.858 7.45793 12.858C7.5221 12.858 7.58627 12.8367 7.65044 12.8152L8.14247 12.537C8.16381 12.537 8.16381 12.537 8.1853 12.5157C8.24947 12.4943 8.33513 12.4728 8.42065 12.4728C8.50616 12.4728 8.59182 12.4942 8.65599 12.5157C8.67733 12.5157 8.67733 12.5157 8.69882 12.537L9.19085 12.8152C9.25502 12.8365 9.31919 12.858 9.38337 12.858C9.49037 12.858 9.59737 12.8152 9.68288 12.7297L10.0679 12.3231C10.1749 12.2161 10.3461 12.152 10.4957 12.152H10.5813L11.1375 12.259H11.2016C11.3086 12.259 11.4156 12.2161 11.4798 12.1306C11.5012 12.1093 11.544 12.0665 11.5653 12.0236L11.8007 11.5101C11.8648 11.3603 12.0574 11.2106 12.2285 11.1893L12.7847 11.1251C12.9559 11.1038 13.1056 10.9539 13.1271 10.7828L13.1912 10.2266C13.2126 10.0554 13.3624 9.86287 13.5121 9.79871L14.0256 9.56336C14.1754 9.49919 14.2823 9.30668 14.2396 9.13552L14.1326 8.5793C14.0898 8.40813 14.1754 8.17277 14.3038 8.0658L14.7103 7.68078C14.8386 7.57378 14.8601 7.35993 14.7958 7.21011L14.5184 6.69642ZM11.0097 10.7399C10.3894 11.125 9.66186 11.3603 8.91314 11.4459C8.74197 11.4673 8.59229 11.4673 8.42111 11.4673C8.24994 11.4673 8.10026 11.4673 7.92908 11.4459C7.15889 11.3818 6.45284 11.1251 5.83248 10.7399C4.35609 9.86273 3.37191 8.25816 3.37191 6.4183C3.37191 3.637 5.63966 1.36925 8.42096 1.36925C11.2022 1.36925 13.47 3.637 13.47 6.4183C13.47 8.2582 12.4858 9.86277 11.0097 10.7399Z" fill="#E6427A"/>
<path d="M8.53705 2C6.03392 2 4.00146 4.03242 4.00146 6.53558C4.00146 8.14015 4.83584 9.55221 6.09806 10.3438C6.63292 10.6861 7.25328 10.9214 7.91665 11.0069C8.10917 11.0283 8.32318 11.0498 8.53701 11.0498C8.75101 11.0498 8.94354 11.0284 9.15737 11.0069C9.82055 10.9214 10.4196 10.6861 10.976 10.3438C12.2382 9.53074 13.0726 8.14015 13.0726 6.53558C13.0726 4.03261 11.0401 2 8.53697 2H8.53705Z" fill="#E6427A"/>
<path fill-rule="evenodd" clip-rule="evenodd" d="M7.45026 5.19298C7.60326 5.85056 7.65509 6.60198 7.55738 7.12329C7.56213 7.12162 7.5675 7.1198 7.5675 7.1198C7.90343 7.08378 8.26595 7.05192 8.61738 7.07789C8.97107 7.10403 9.29892 7.15614 9.61417 7.20962C9.63117 7.06305 9.63566 6.9126 9.65546 6.76653C9.71256 6.34535 9.79791 5.92762 9.92677 5.56898C9.9523 5.56902 9.9642 5.58288 9.99165 5.58096C9.94271 6.19591 9.82305 6.73907 9.63776 7.21561C9.92381 7.2805 10.2079 7.34737 10.4399 7.46709C10.4249 7.23986 10.4714 7.03337 10.5343 6.85634C10.5793 6.72967 10.6229 6.60932 10.6994 6.53301C10.7186 6.92636 10.6041 7.23409 10.4458 7.46709C10.5167 7.53059 10.6457 7.58287 10.5933 7.72456C10.5355 7.88067 10.2316 7.95003 10.086 8C10.171 7.95813 10.255 7.92924 10.3514 7.87426C10.4106 7.84055 10.5479 7.77116 10.5461 7.67666C10.5436 7.55118 10.237 7.46783 10.1273 7.43715C9.93788 7.3842 9.75987 7.35816 9.57878 7.32937C9.38741 7.29896 9.19552 7.27138 9.00076 7.25153C8.80631 7.23171 8.6092 7.20363 8.39914 7.20363C7.94646 7.20363 7.58724 7.242 7.19002 7.29944C6.9314 7.33683 6.62416 7.38419 6.39966 7.49104C6.3264 7.52591 6.23718 7.58171 6.22861 7.64672C6.22118 7.70316 6.24995 7.7406 6.2758 7.77247C6.35178 7.86616 6.47587 7.93181 6.5825 7.98802C6.58105 7.99556 6.57078 7.99407 6.57071 7.98802C6.54136 7.9838 6.50577 7.95796 6.48223 7.94611C6.40615 7.9078 6.05508 7.75798 6.21092 7.54493C6.2267 7.52336 6.25413 7.50625 6.2817 7.48506C6.46573 7.34355 6.77593 7.2708 7.04256 7.20962C6.94847 6.97676 6.87798 6.72061 6.81843 6.45517C6.75911 6.19075 6.70906 5.91084 6.70637 5.62287C6.72457 5.6214 6.73971 5.6168 6.75355 5.6109C6.7778 5.63104 6.77985 5.66728 6.78894 5.69472C6.93305 6.12971 7.04048 6.65629 7.06026 7.20363C7.20455 7.18245 7.38765 7.1488 7.54981 7.12579L7.55126 7.1253L7.55541 7.13369C7.38394 6.79493 7.32757 6.14959 7.38628 5.19768C7.41018 5.20116 7.43389 5.20395 7.45026 5.19298ZM6.01628 6.59288C6.15904 6.79447 6.27365 7.15979 6.24041 7.50302C6.08039 7.28633 5.98065 6.95102 6.00448 6.5869C6.0124 6.58515 6.01366 6.58918 6.01628 6.59288ZM9.27207 5.22768C9.29819 5.22483 9.30141 5.23592 9.31926 5.22768C9.34187 5.92223 9.26635 6.56638 9.13052 7.1198C9.07767 6.57494 9.12748 5.94746 9.21899 5.45522C9.23329 5.37831 9.23534 5.29944 9.26028 5.23966C9.26307 5.23296 9.2609 5.21565 9.27207 5.22768ZM6.28759 6.31146C6.28856 6.31842 6.34079 6.42717 6.35837 6.47313C6.42299 6.64201 6.47034 6.8653 6.45274 7.08987C6.4073 7.04991 6.37948 6.99142 6.35247 6.93418C6.27616 6.77245 6.20694 6.57188 6.19912 6.32942C6.2343 6.32921 6.25594 6.3229 6.28759 6.31146ZM10.4104 6.25757C10.4423 6.27213 10.4904 6.28505 10.5166 6.28751C10.4822 6.59388 10.3862 6.83777 10.2512 7.04196C10.2322 6.99748 10.2375 6.94866 10.2394 6.90425C10.25 6.6601 10.3331 6.43933 10.4104 6.25757ZM8.36965 4.46125H8.39914C8.41835 4.47839 8.41438 4.51049 8.41684 4.5331C8.50276 5.32225 8.4666 6.2795 8.38735 7.02999C8.27645 6.26164 8.2807 5.26338 8.35786 4.47323C8.35356 4.46344 8.36958 4.44718 8.36965 4.46125ZM6.49403 6.03004C6.64313 6.26668 6.73451 6.61632 6.69457 7.00604C6.54422 6.77162 6.45248 6.42002 6.49403 6.03004ZM10.204 5.95818C10.2489 6.23428 10.1731 6.55742 10.0919 6.76653C10.0657 6.83396 10.0444 6.90669 9.99755 6.95215C9.96151 6.55668 10.0543 6.20348 10.1981 5.9522C10.2031 5.95109 10.2037 5.95453 10.204 5.95818ZM8.03346 4.76663C8.17314 5.38131 8.22511 6.13274 8.15732 6.85634C8.01289 6.2512 7.96311 5.48018 8.02756 4.76064C8.03258 4.75954 8.03312 4.76297 8.03346 4.76663ZM7.10744 5.88034C7.24884 6.11148 7.31737 6.51804 7.2549 6.83838C7.12216 6.66512 7.0396 6.18183 7.10744 5.88034ZM8.68226 4.81453C8.75065 5.44392 8.73736 6.20635 8.61148 6.76653C8.60812 6.7815 8.61234 6.80775 8.59378 6.81443C8.51783 6.16514 8.54562 5.37396 8.67636 4.80854C8.68138 4.80744 8.68192 4.81088 8.68226 4.81453ZM9.57288 5.81448C9.649 6.15296 9.57122 6.55754 9.44312 6.78449C9.3662 6.46415 9.44444 6.04576 9.57288 5.81448ZM7.73855 4.93428C7.86982 5.42813 7.91594 6.14768 7.83292 6.7306C7.70131 6.22182 7.65745 5.52554 7.73855 4.93428ZM8.95357 4.89237C9.04068 5.47382 8.98341 6.18072 8.8651 6.6827C8.76865 6.10051 8.83037 5.4033 8.94768 4.88638C8.95269 4.88528 8.95324 4.88872 8.95357 4.89237ZM6.30608 6.14947C6.30486 6.20692 6.25722 6.25787 6.19808 6.2588C6.05508 6.26106 6.04832 6.04731 6.18763 6.03661C6.25095 6.03175 6.30755 6.08018 6.30608 6.14947ZM10.6246 6.09384C10.6234 6.15128 10.5758 6.20223 10.5166 6.20317C10.3736 6.20543 10.3669 5.99167 10.5062 5.98098C10.5695 5.97611 10.6261 6.02455 10.6246 6.09384ZM6.79931 5.43733C6.79809 5.49478 6.75046 5.54573 6.69131 5.54666C6.54832 5.54892 6.54155 5.33517 6.68086 5.32447C6.74419 5.31961 6.80078 5.36804 6.79931 5.43733ZM10.1095 5.40395C10.1083 5.4614 10.0606 5.51235 10.0015 5.51328C9.85848 5.51554 9.85171 5.30179 9.99102 5.29109C10.0543 5.28623 10.1109 5.33466 10.1095 5.40395ZM9.41894 5.03675C9.41772 5.0942 9.37008 5.14515 9.31094 5.14608C9.16795 5.14834 9.16118 4.93459 9.30049 4.92389C9.36382 4.91903 9.42041 4.96746 9.41894 5.03675ZM7.5008 5.0145C7.49958 5.07195 7.45195 5.12289 7.3928 5.12383C7.24981 5.12609 7.24304 4.91234 7.38235 4.90164C7.44568 4.89678 7.50227 4.94521 7.5008 5.0145ZM8.57471 4.19285C8.57264 4.29073 8.4917 4.37753 8.39123 4.37912C8.14828 4.38297 8.13679 4.0188 8.37347 4.00057C8.48106 3.99229 8.57721 4.0748 8.57471 4.19285Z" fill="white"/>
</svg>
