<svg width="16" height="16" viewBox="0 0 16 16" fill="none" xmlns="http://www.w3.org/2000/svg">
<path d="M8.03087 1.00002C7.79308 0.998669 7.65698 1.08535 7.47799 1.21341C7.29888 1.34146 7.08675 1.51396 6.76304 1.58558C6.43945 1.6572 6.17355 1.59085 5.9566 1.5502C5.73977 1.5098 5.57965 1.48874 5.36478 1.59011C5.14992 1.69148 5.06548 1.82835 4.95997 2.0208C4.85457 2.21338 4.73845 2.45995 4.47809 2.66402C4.21775 2.86798 3.94913 2.92283 3.73612 2.97987C3.52312 3.03692 3.36978 3.087 3.22048 3.27088C3.0712 3.45477 3.05481 3.61429 3.04384 3.83318C3.03299 4.05208 3.03607 4.32448 2.89074 4.62037C2.7454 4.91627 2.5272 5.08118 2.3602 5.22441C2.19317 5.36765 2.0768 5.47894 2.0227 5.70898C1.96859 5.93902 2.02332 6.08984 2.10936 6.29174C2.19515 6.49362 2.31719 6.73738 2.31546 7.06671C2.31349 7.39604 2.18923 7.63881 2.10134 7.83984C2.01345 8.04086 1.95699 8.1912 2.00864 8.42172C2.06029 8.65225 2.1758 8.76462 2.34135 8.90957C2.5069 9.05453 2.72335 9.22176 2.8656 9.51913C3.00798 9.8165 3.00194 10.0887 3.01057 10.3077C3.0192 10.5267 3.03399 10.6865 3.1813 10.8718C3.32861 11.0573 3.48158 11.1088 3.69397 11.1681C3.89379 11.2238 4.14294 11.2779 4.38674 11.4562C4.6747 11.3103 4.9714 11.182 5.27514 11.072C3.99635 10.2061 3.1565 8.74734 3.1565 7.09572C3.1565 4.44149 5.32701 2.28578 7.99923 2.28578C10.6717 2.28578 12.8416 4.44146 12.8416 7.09572C12.8416 8.74737 12.0021 10.2061 10.7234 11.072C11.0287 11.1826 11.3269 11.3118 11.6163 11.4586C11.8456 11.3097 12.0753 11.2615 12.2622 11.2114C12.4752 11.1543 12.6285 11.1043 12.7778 10.9204C12.9271 10.7365 12.9435 10.577 12.9544 10.3581C12.9653 10.1392 12.9622 9.86682 13.1075 9.57092C13.2529 9.27502 13.4711 9.11011 13.6381 8.96688C13.8051 8.82365 13.9214 8.71248 13.9755 8.48257C14.0296 8.25253 13.9748 8.10158 13.8889 7.89968C13.8031 7.6978 13.6813 7.45392 13.6831 7.12462C13.685 6.79528 13.809 6.55251 13.8969 6.35149C13.9848 6.15047 14.0414 6.00013 13.9896 5.76961C13.938 5.53908 13.8225 5.42671 13.6569 5.28175C13.4914 5.1368 13.2749 4.96981 13.1325 4.67232C12.9902 4.37495 12.9966 4.10254 12.988 3.88353C12.9793 3.66451 12.9643 3.50474 12.817 3.31939C12.6697 3.13391 12.5168 3.08237 12.3043 3.02312C12.0919 2.96386 11.8237 2.90644 11.5656 2.6998C11.3074 2.49314 11.1941 2.24548 11.0907 2.05191C10.9873 1.85835 10.904 1.72064 10.6902 1.61705C10.4765 1.51348 10.3162 1.53307 10.0989 1.57127C9.88159 1.60947 9.61508 1.67325 9.29226 1.59832C8.96943 1.5234 8.75888 1.34882 8.58112 1.21903C8.40337 1.08914 8.26826 1.00124 8.03036 1.00001L8.03087 1.00002ZM7.99963 2.64408C5.52215 2.64408 3.51759 4.63509 3.51759 7.09579C3.51759 8.72738 4.40021 10.1509 5.71623 10.9263C6.45018 10.7077 7.21875 10.5932 7.99953 10.5932C8.78019 10.5932 9.54879 10.7077 10.2828 10.9263C11.5989 10.1509 12.4815 8.72716 12.4815 7.09579C12.4815 4.63512 10.4771 2.64408 7.99963 2.64408ZM7.99556 4.5412C8.06336 4.54169 8.12499 4.58013 8.15532 4.64036L8.8947 6.11609L10.5385 6.34834C10.6864 6.36927 10.7461 6.54961 10.6395 6.65355L9.45411 7.80728L9.73948 9.43079C9.76512 9.57697 9.61103 9.68886 9.47852 9.62043L8.00655 8.85808L6.5394 9.62936C6.40726 9.6989 6.25231 9.58774 6.27708 9.44131L6.55272 7.81621L5.36046 6.66918C5.25285 6.56585 5.3114 6.38491 5.45945 6.36324L7.10189 6.12145L7.8319 4.6413C7.86247 4.57935 7.9262 4.54042 7.99572 4.54103L7.99556 4.5412ZM7.99507 5.12493L7.38378 6.36362C7.35777 6.41651 7.3071 6.45336 7.24843 6.46206L5.87396 6.66467L6.87195 7.62424C6.9146 7.66526 6.93408 7.72451 6.92422 7.78266L6.69358 9.14306L7.92159 8.49737C7.97398 8.46982 8.03672 8.46958 8.08936 8.49688L9.32131 9.13483L9.08216 7.77625C9.07193 7.7181 9.09116 7.6586 9.13357 7.61734L10.1254 6.65175L8.75009 6.45734C8.69129 6.44901 8.6405 6.41253 8.614 6.35976L7.99507 5.12493ZM7.99975 10.9506C6.05493 10.9526 4.1924 11.6982 2.78875 13.0191L3.87425 14.0899C4.9913 13.0511 6.46043 12.4576 7.99969 12.4576C9.53894 12.4576 11.0085 13.0511 12.1254 14.0899L13.2107 13.0191C11.8072 11.6982 9.94457 10.9524 7.9994 10.9506H7.99975ZM13.1325 11.0444C12.9462 11.3347 12.7168 11.4586 12.3569 11.5574C12.2284 11.5918 12.1107 11.6203 11.9982 11.6651C12.578 12.0002 13.1173 12.4088 13.6004 12.8861C13.6712 12.9561 13.6712 13.07 13.6004 13.14L13.2116 13.5235C13.6197 13.9001 13.9749 14.332 14.2937 14.7931L14.4567 13.6571C14.4717 13.5529 14.5735 13.484 14.6767 13.5081L16 13.8185C15.2483 12.6965 14.2749 11.7469 13.1325 11.0444ZM2.86354 11.0464C1.72269 11.7486 0.750835 12.6973 0 13.818L1.32344 13.5076C1.42661 13.4835 1.52843 13.5525 1.54347 13.6565L1.70644 14.7925C2.0251 14.3314 2.38059 13.8997 2.78862 13.5231L2.39971 13.1394C2.32895 13.0694 2.32895 12.9555 2.39971 12.8855C2.88812 12.403 3.43405 11.9905 4.02133 11.6534C3.88918 11.5894 3.75088 11.5551 3.59739 11.5124C3.32558 11.4372 3.04253 11.3196 2.86354 11.0464Z" fill="#E6427A"/>
</svg>
