<svg width="16" height="16" viewBox="0 0 16 16" fill="none" xmlns="http://www.w3.org/2000/svg">
<path fill-rule="evenodd" clip-rule="evenodd" d="M2.30776 8.4365L4.88189 10.439L0.665952 14.6549C0.378472 14.2712 0.169455 13.8248 0.0692325 13.3369L0.0685732 13.3362C0.0507705 13.2485 0.038902 13.1595 0.0276929 13.0691C0.0250555 13.0461 0.0197806 13.023 0.0171432 12.9993C0.00593409 12.8858 0 12.7711 0 12.6544V10.7436L2.30776 8.4365ZM10.9256 6.13599L16 10.0262V12.6544C16 14.5079 14.5079 16 12.6544 16H3.34559C3.24339 16 3.14316 15.9941 3.0436 15.9848C3.01195 15.9822 2.9803 15.9782 2.94865 15.9743C2.8814 15.9664 2.81414 15.9565 2.74821 15.9446C2.71062 15.938 2.67304 15.9321 2.63546 15.9235C2.6348 15.9235 2.63348 15.9235 2.63282 15.9235C2.55436 15.9064 2.47721 15.8859 2.40073 15.8635C2.33875 15.8451 2.27743 15.824 2.21742 15.8022C2.20094 15.7963 2.18446 15.791 2.16797 15.7844C1.95896 15.7053 1.75983 15.6064 1.57323 15.4883L10.9256 6.13599ZM5.70279 3.06272C6.24149 3.06272 6.66678 3.48867 6.66678 4.02736C6.66678 4.56606 6.24149 4.99135 5.70279 4.99135C5.1641 4.99135 4.73815 4.56606 4.73815 4.02736C4.73815 3.48867 5.1641 3.06272 5.70279 3.06272ZM5.70279 1.8317C4.49749 1.8317 3.50779 2.82272 3.50779 4.02736C3.50779 5.23201 4.49749 6.22171 5.70279 6.22171C6.90744 6.22171 7.89714 5.23201 7.89714 4.02736C7.89714 2.82272 6.90744 1.8317 5.70279 1.8317ZM3.34559 0H12.6544C14.5079 0 16 1.49213 16 3.34493V8.4754L11.2467 4.83112C11.1313 4.74277 10.9889 4.69793 10.8438 4.70452C10.6908 4.71178 10.5451 4.77574 10.437 4.88387L5.75884 9.56202L2.63414 7.13097C2.51941 7.04195 2.37699 6.99646 2.23193 7.00173C2.07764 7.00832 1.9306 7.07228 1.82115 7.18174L0 9.00354V3.34493C0 1.49213 1.49213 0 3.34559 0Z" fill="#E6427A"/>
</svg>
