<svg width="16" height="16" viewBox="0 0 16 16" fill="none" xmlns="http://www.w3.org/2000/svg">
<path d="M15.4074 3.55555V4.74074H0V3.55555C0 3.24126 0.124868 2.93979 0.34709 2.71745C0.569445 2.49523 0.870908 2.37036 1.18519 2.37036H2.96296V0.592584C2.96296 0.380812 3.07593 0.185185 3.25926 0.0793651C3.4426 -0.026455 3.66852 -0.026455 3.85185 0.0793651C4.03519 0.185185 4.14815 0.380819 4.14815 0.592584V2.37036H11.2593V0.592584C11.2593 0.380812 11.3722 0.185185 11.5556 0.0793651C11.7389 -0.026455 11.9648 -0.026455 12.1482 0.0793651C12.3315 0.185185 12.4445 0.380819 12.4445 0.592584V2.37036H14.2222C14.5365 2.37036 14.838 2.49523 15.0603 2.71745C15.2825 2.93981 15.4074 3.24127 15.4074 3.55555ZM0 5.92592H15.4074V14.8148C15.4074 15.1291 15.2825 15.4306 15.0603 15.6529C14.838 15.8751 14.5365 16 14.2222 16H1.18519C0.870902 16 0.569431 15.8751 0.34709 15.6529C0.124868 15.4306 0 15.1291 0 14.8148V5.92592ZM4.35539 10.1628L5.54057 11.3006C5.65446 11.4061 5.70605 11.5629 5.67682 11.7155L5.4042 13.3274L5.40433 13.3272C5.37483 13.5046 5.44825 13.6835 5.59388 13.789C5.73952 13.8944 5.93237 13.9085 6.09163 13.825L7.53156 13.0666H7.53169C7.67137 12.9958 7.83645 12.9958 7.97614 13.0666L9.41607 13.825C9.57281 13.8927 9.7539 13.8709 9.89001 13.7679C10.0261 13.6648 10.0964 13.4966 10.0739 13.3272L9.80125 11.7153V11.7155C9.77215 11.5629 9.8236 11.4061 9.93762 11.3006L11.1228 10.1628C11.2493 10.0355 11.2944 9.84837 11.2395 9.67747C11.1846 9.50671 11.0389 9.38065 10.862 9.35089L9.24427 9.1198C9.09599 9.10301 8.96424 9.01742 8.88871 8.88872L8.16568 7.42495C8.08526 7.26476 7.92137 7.16357 7.74199 7.16357C7.56276 7.16357 7.39873 7.26476 7.31831 7.42495L6.58948 8.88872C6.52097 9.0288 6.38803 9.12629 6.23393 9.14943L4.62201 9.38052C4.45587 9.41517 4.32029 9.53502 4.26554 9.6956C4.21078 9.85631 4.2449 10.034 4.35535 10.1628L4.35539 10.1628Z" fill="#E6427A"/>
</svg>
