<svg width="16" height="16" viewBox="0 0 16 16" fill="none" xmlns="http://www.w3.org/2000/svg">
<path d="M15.3237 8.38512C15.2928 8.40343 15.2618 8.40959 15.2256 8.40959C15.1895 8.40959 15.1585 8.40343 15.1275 8.38512L11.1688 8.39127C11.1483 8.40343 11.1224 8.40959 11.0966 8.40959C11.0708 8.40959 11.045 8.40343 11.0243 8.39127H10.1314C10.1108 8.40343 10.0902 8.40959 10.0644 8.40959C10.0386 8.40959 10.018 8.40343 9.9973 8.39127L5.97656 8.39743C5.96114 8.40343 5.9509 8.40959 5.93534 8.40959C5.91992 8.40959 5.90955 8.40343 5.894 8.39728H4.93918C4.92894 8.40343 4.91339 8.40959 4.90315 8.40959C4.89278 8.40959 4.88254 8.40343 4.86699 8.40343L0.784538 8.40959H0.77417H0.763801H0V14.5386H16L15.9999 8.38477L15.3237 8.38512Z" fill="#E6427A"/>
<path fill-rule="evenodd" clip-rule="evenodd" d="M6.88318 10.4683C7.06416 11.2776 7.12546 12.2024 7.00989 12.8441C7.01551 12.842 7.02186 12.8398 7.02186 12.8398C7.41919 12.7954 7.848 12.7562 8.26367 12.7882C8.68202 12.8203 9.06981 12.8845 9.44269 12.9503C9.46281 12.7699 9.46811 12.5847 9.49153 12.405C9.55907 11.8866 9.66002 11.3725 9.81245 10.9311C9.84263 10.9311 9.85672 10.9482 9.88919 10.9458C9.8313 11.7027 9.68976 12.3712 9.4706 12.9577C9.80894 13.0375 10.145 13.1198 10.4194 13.2672C10.4017 12.9875 10.4566 12.7334 10.531 12.5155C10.5842 12.3596 10.6359 12.2115 10.7264 12.1175C10.7491 12.6017 10.6135 12.9804 10.4264 13.2672C10.5102 13.3453 10.6628 13.4097 10.6008 13.5841C10.5325 13.7762 10.173 13.8616 10.0008 13.9231C10.1013 13.8715 10.2007 13.836 10.3148 13.7683C10.3847 13.7268 10.5472 13.6414 10.545 13.5251C10.5421 13.3707 10.1794 13.2681 10.0496 13.2303C9.82558 13.1652 9.61503 13.1331 9.40083 13.0977C9.17447 13.0603 8.9475 13.0263 8.71714 13.0019C8.48714 12.9775 8.254 12.9429 8.00554 12.9429C7.47009 12.9429 7.04521 12.9902 6.57536 13.0608C6.26946 13.1069 5.90606 13.1652 5.64052 13.2967C5.55386 13.3396 5.44833 13.4083 5.4382 13.4883C5.4294 13.5577 5.46344 13.6038 5.49401 13.643C5.58389 13.7584 5.73066 13.8392 5.85679 13.9083C5.85506 13.9176 5.84292 13.9158 5.84283 13.9083C5.80812 13.9031 5.76602 13.8713 5.73819 13.8568C5.64819 13.8096 5.23294 13.6252 5.41727 13.363C5.43593 13.3364 5.46838 13.3154 5.50099 13.2893C5.71866 13.1151 6.08558 13.0256 6.40095 12.9503C6.28965 12.6637 6.20628 12.3484 6.13584 12.0217C6.06568 11.6963 6.00648 11.3518 6.00329 10.9974C6.02483 10.9956 6.04273 10.9899 6.0591 10.9826C6.08779 11.0074 6.0902 11.052 6.10096 11.0858C6.27142 11.6212 6.39849 12.2693 6.42188 12.9429C6.59255 12.9169 6.80912 12.8754 7.00093 12.8471L7.00264 12.8465L7.00755 12.8569C6.80474 12.4399 6.73806 11.6457 6.80751 10.4741C6.83578 10.4783 6.86382 10.4818 6.88318 10.4683ZM5.18704 12.1912C5.35591 12.4394 5.49147 12.889 5.45215 13.3114C5.26287 13.0447 5.14491 12.632 5.17309 12.1839C5.18245 12.1817 5.18395 12.1867 5.18704 12.1912ZM9.03806 10.511C9.06895 10.5075 9.07275 10.5211 9.09387 10.511C9.12061 11.3658 9.03128 12.1586 8.87062 12.8398C8.80811 12.1692 8.86703 11.3969 8.97527 10.791C8.99218 10.6964 8.99461 10.5993 9.0241 10.5257C9.02741 10.5175 9.02484 10.4962 9.03806 10.511ZM5.50796 11.8449C5.5091 11.8534 5.57088 11.9873 5.59168 12.0439C5.66811 12.2517 5.72412 12.5265 5.7033 12.8029C5.64956 12.7537 5.61664 12.6817 5.5847 12.6113C5.49444 12.4122 5.41256 12.1654 5.40332 11.867C5.44492 11.8667 5.47051 11.859 5.50796 11.8449ZM10.3845 11.7785C10.4222 11.7965 10.4791 11.8124 10.5101 11.8154C10.4694 12.1925 10.3559 12.4926 10.1962 12.744C10.1737 12.6892 10.1799 12.6291 10.1822 12.5745C10.1947 12.274 10.293 12.0023 10.3845 11.7785ZM7.97066 9.56769H8.00554C8.02826 9.58879 8.02356 9.62829 8.02647 9.65613C8.12809 10.6274 8.08532 11.8055 7.99159 12.7292C7.86041 11.7836 7.86544 10.5549 7.9567 9.58243C7.95162 9.57038 7.97057 9.55038 7.97066 9.56769ZM5.75214 11.4985C5.9285 11.7898 6.03658 12.2201 5.98934 12.6997C5.81151 12.4112 5.70299 11.9785 5.75214 11.4985ZM10.1403 11.4101C10.1934 11.7499 10.1038 12.1476 10.0078 12.405C9.97682 12.4879 9.95159 12.5775 9.89616 12.6334C9.85354 12.1467 9.96333 11.712 10.1334 11.4027C10.1393 11.4013 10.1399 11.4056 10.1403 11.4101ZM7.573 9.94354C7.73822 10.7001 7.79969 11.6249 7.7195 12.5155C7.54867 11.7707 7.4898 10.8218 7.56602 9.93617C7.57196 9.93481 7.5726 9.93904 7.573 9.94354ZM6.47769 11.3143C6.64494 11.5987 6.72599 12.0991 6.6521 12.4934C6.4951 12.2802 6.39745 11.6853 6.47769 11.3143ZM8.34041 10.0025C8.4213 10.7771 8.40559 11.7155 8.25669 12.405C8.25272 12.4234 8.25771 12.4557 8.23576 12.4639C8.14592 11.6648 8.17879 10.691 8.33343 9.99513C8.33937 9.99377 8.34001 9.998 8.34041 10.0025ZM9.39386 11.2332C9.4839 11.6498 9.39189 12.1477 9.24037 12.4271C9.14939 12.0328 9.24193 11.5179 9.39386 11.2332ZM7.22417 10.1499C7.37944 10.7577 7.434 11.6433 7.3358 12.3607C7.18012 11.7345 7.12825 10.8776 7.22417 10.1499ZM8.66133 10.0983C8.76436 10.8139 8.69662 11.684 8.55668 12.3018C8.44259 11.5852 8.5156 10.7271 8.65435 10.0909C8.66029 10.0896 8.66093 10.0938 8.66133 10.0983ZM5.52982 11.6455C5.52838 11.7162 5.47203 11.7789 5.40208 11.7801C5.23294 11.7828 5.22494 11.5198 5.38972 11.5066C5.46462 11.5006 5.53156 11.5602 5.52982 11.6455ZM10.6379 11.577C10.6364 11.6477 10.5801 11.7104 10.5101 11.7116C10.341 11.7144 10.333 11.4513 10.4978 11.4381C10.5727 11.4321 10.6396 11.4918 10.6379 11.577ZM6.11323 10.769C6.11179 10.8397 6.05544 10.9024 5.98549 10.9036C5.81635 10.9064 5.80835 10.6433 5.97313 10.6301C6.04803 10.6241 6.11497 10.6837 6.11323 10.769ZM10.0285 10.7279C10.0271 10.7986 9.97075 10.8613 9.9008 10.8625C9.73166 10.8653 9.72366 10.6022 9.88844 10.589C9.96334 10.583 10.0303 10.6427 10.0285 10.7279ZM9.21177 10.276C9.21033 10.3467 9.15398 10.4094 9.08403 10.4106C8.91489 10.4133 8.90689 10.1503 9.07167 10.1371C9.14657 10.1311 9.21351 10.1907 9.21177 10.276ZM6.94297 10.2486C6.94152 10.3193 6.88518 10.382 6.81522 10.3832C6.64608 10.386 6.63808 10.1229 6.80286 10.1097C6.87776 10.1037 6.9447 10.1633 6.94297 10.2486ZM8.2132 9.23735C8.21075 9.35782 8.11502 9.46465 7.99617 9.46661C7.70882 9.47135 7.69522 9.02313 7.97517 9.0007C8.10243 8.99051 8.21616 9.09207 8.2132 9.23735Z" fill="white"/>
<path d="M4.79534 2.58802C4.79534 3.46507 4.08437 4.1762 3.20732 4.1762C2.33015 4.1762 1.61914 3.46507 1.61914 2.58802C1.61914 1.71097 2.33011 1 3.20732 1C4.08437 1 4.79534 1.71097 4.79534 2.58802Z" fill="#E6427A"/>
<path d="M5.43109 7.03391C5.43109 5.80786 4.43378 4.81055 3.20773 4.81055C1.98169 4.81055 0.984375 5.80786 0.984375 7.03391V7.98671L5.43109 7.98033V7.03391Z" fill="#E6427A"/>
<path d="M9.71819 2.58802C9.71819 3.46507 9.00723 4.1762 8.13017 4.1762C7.253 4.1762 6.54199 3.46507 6.54199 2.58802C6.54199 1.71097 7.25296 1 8.13017 1C9.00723 1 9.71819 1.71097 9.71819 2.58802Z" fill="#E6427A"/>
<path d="M10.3539 7.03391C10.3539 5.80786 9.35663 4.81055 8.13058 4.81055C6.90454 4.81055 5.90723 5.80786 5.90723 7.03391V7.98671L10.3539 7.98033V7.03391Z" fill="#E6427A"/>
<path d="M14.641 2.58802C14.641 3.46507 13.9301 4.1762 13.053 4.1762C12.1759 4.1762 11.4648 3.46507 11.4648 2.58802C11.4648 1.71097 12.1758 1 13.053 1C13.9301 1 14.641 1.71097 14.641 2.58802Z" fill="#E6427A"/>
<path d="M15.2768 7.03391C15.2768 5.80786 14.2795 4.81055 13.0534 4.81055C11.8274 4.81055 10.8301 5.80786 10.8301 7.03391V7.98671L15.2768 7.98033V7.03391Z" fill="#E6427A"/>
</svg>
