<svg width="24" height="24" viewBox="0 0 24 24" fill="none" xmlns="http://www.w3.org/2000/svg">
<path d="M13.4504 8.70312V9.88992H10.5143C10.209 9.19213 9.51386 8.70312 8.70322 8.70312C7.61091 8.70312 6.72522 9.58882 6.72522 10.6811C6.72522 11.7734 7.61091 12.6591 8.70322 12.6591C9.51386 12.6591 10.2088 12.1701 10.5143 11.4723H16.6152V9.88992H15.824V8.70312H15.0328V9.88992H14.2416V8.70312H13.4504ZM8.70322 11.0767H7.91202V10.2855H8.70322V11.0767Z" fill="white"/>
<path d="M20.7009 12.8368C20.7465 12.6489 20.7919 12.461 20.826 12.2687L22.5159 11.487C22.5357 11.2207 22.5491 10.9526 22.5491 10.6812C22.5491 10.4097 22.5357 10.1416 22.5159 9.87533L20.826 9.09367C20.7338 8.56985 20.5988 8.06037 20.4212 7.57131L21.4953 6.04859C21.2615 5.56361 20.9909 5.09952 20.6895 4.65853L18.8333 4.8286C18.4951 4.42664 18.1228 4.05399 17.7209 3.71581L17.8909 1.85966C17.4498 1.55783 16.9862 1.28764 16.5009 1.05381L14.9778 2.12794C14.4888 1.94992 13.9796 1.81534 13.4554 1.72316L12.6738 0.0332023C12.4075 0.0134223 12.1394 0 11.8679 0C11.5965 0 11.3284 0.0134223 11.0621 0.0332023L10.2804 1.72316C9.75661 1.81535 9.24712 1.95027 8.75807 2.12794L7.23553 1.05435C6.75055 1.28818 6.28645 1.55873 5.84546 1.8602L6.01553 3.71635C5.61358 4.05456 5.24093 4.42685 4.90311 4.82878L3.04695 4.65871C2.74513 5.09987 2.47494 5.56348 2.24111 6.04878L3.31524 7.5715C3.13722 8.0605 3.00264 8.56967 2.91046 9.09385L1.2205 9.87551C1.20019 10.1417 1.18677 10.4097 1.18677 10.6812C1.18677 10.9526 1.20019 11.2207 1.21997 11.487L2.90993 12.2687C2.94401 12.461 2.9894 12.6489 3.03496 12.8368L5.38754 13.621C4.98011 12.724 4.74716 11.7307 4.74716 10.6812C4.74716 6.74851 7.93529 3.56039 11.868 3.56039C15.8006 3.56039 18.9887 6.74851 18.9887 10.6812C18.9887 11.7308 18.7558 12.724 18.3482 13.6208L20.7009 12.8368Z" fill="white"/>
<path d="M23.736 16.6151L21.3624 13.4503L11.868 16.6151L14.2416 19.7799L23.736 16.6151Z" fill="white"/>
<path d="M11.868 16.6151L2.3736 13.4503L0 16.6151L9.49439 19.7799L11.868 16.6151Z" fill="white"/>
<path d="M11.4724 18.4615L9.7851 20.711L2.3736 18.2404V20.9669L11.4724 23.9999V18.4615Z" fill="white"/>
<path d="M21.3624 18.2405L13.9509 20.7111L12.2636 18.4616V24L21.3624 20.967V18.2405Z" fill="white"/>
</svg>
