<svg width="24" height="24" viewBox="0 0 24 24" fill="none" xmlns="http://www.w3.org/2000/svg">
<path fill-rule="evenodd" clip-rule="evenodd" d="M3.46163 12.6547L7.32284 15.6585L0.998928 21.9824C0.567708 21.4067 0.254183 20.7372 0.103849 20.0053L0.10286 20.0043C0.0761558 19.8727 0.0583531 19.7392 0.0415394 19.6037C0.0375833 19.5691 0.0296709 19.5345 0.0257148 19.4989C0.00890113 19.3288 0 19.1567 0 18.9816V16.1154L3.46163 12.6547ZM16.3884 9.20399L24 15.0393V18.9816C24 21.7618 21.7618 24 18.9816 24H5.01838C4.86508 24 4.71475 23.9911 4.5654 23.9773C4.51793 23.9733 4.47045 23.9674 4.42298 23.9614C4.3221 23.9496 4.22121 23.9347 4.12231 23.9169C4.06594 23.907 4.00956 23.8981 3.95319 23.8853C3.9522 23.8853 3.95022 23.8853 3.94923 23.8853C3.83153 23.8596 3.71582 23.8289 3.60109 23.7953C3.50812 23.7676 3.41614 23.7359 3.32614 23.7033C3.30141 23.6944 3.27668 23.6865 3.25196 23.6766C2.93843 23.5579 2.63974 23.4095 2.35984 23.2325L16.3884 9.20399ZM8.55419 4.59408C9.36224 4.59408 10.0002 5.233 10.0002 6.04105C10.0002 6.84909 9.36224 7.48702 8.55419 7.48702C7.74615 7.48702 7.10723 6.84909 7.10723 6.04105C7.10723 5.233 7.74615 4.59408 8.55419 4.59408ZM8.55419 2.74755C6.74623 2.74755 5.26168 4.23407 5.26168 6.04105C5.26168 7.84802 6.74623 9.33257 8.55419 9.33257C10.3612 9.33257 11.8457 7.84802 11.8457 6.04105C11.8457 4.23407 10.3612 2.74755 8.55419 2.74755ZM5.01838 0H18.9816C21.7618 0 24 2.23819 24 5.01739V12.7131L16.87 7.24668C16.6969 7.11415 16.4833 7.0469 16.2657 7.05679C16.0363 7.06767 15.8177 7.1636 15.6555 7.32581L8.63826 14.343L3.95121 10.6964C3.77911 10.5629 3.56548 10.4947 3.34789 10.5026C3.11646 10.5125 2.8959 10.6084 2.73172 10.7726L0 13.5053V5.01739C0 2.23819 2.23819 0 5.01838 0Z" fill="white"/>
</svg>
