<svg width="24" height="24" viewBox="0 0 24 24" fill="none" xmlns="http://www.w3.org/2000/svg">
<path d="M23.9867 7.81991L22.2849 0.21814C22.2647 0.1224 22.2039 0.064956 22.1431 0.0458079C22.1026 0.00751187 22.0216 -0.0116362 21.9 0.00751187C21.8595 0.00751187 21.8392 0.0266599 21.7987 0.0458079L14.7891 4.00945C14.6473 4.08604 14.5865 4.27752 14.6878 4.41156C14.7283 4.469 14.7688 4.5073 14.8296 4.52645L16.7542 5.31152L16.3693 6.24977C16.2477 6.57529 13.3102 13.6409 1.60046 13.6409C1.15476 13.6409 0.668548 13.6218 0.20259 13.6026H0.141813C0.101295 13.6026 0.0810361 13.6218 0.040518 13.6409C0.020259 13.6601 0 13.6984 0 13.7367C0 13.7941 0.0405181 13.8515 0.101295 13.8707L0.141813 13.8898C2.67419 14.6941 5.30787 15.1153 7.98206 15.1536C17.6456 15.1536 21.1099 8.35605 21.1504 8.27946L21.6164 7.34121L23.5815 8.14543C23.6625 8.18372 23.7638 8.16457 23.8044 8.14543C23.8651 8.12628 23.9259 8.08798 23.9664 7.99224C24.007 7.9348 24.007 7.87735 23.9867 7.81991ZM1.37761 24H6.42211V17.0876C4.72035 16.9727 3.03885 16.7237 1.37761 16.3216V24ZM17.5646 14.6558V24H22.6091V9.92619H22.5888C21.8595 11.0176 20.259 13.0282 17.5646 14.6558ZM9.46097 24H14.5055V16.0919C13.0468 16.6089 11.3856 16.9727 9.46097 17.1067V24Z" fill="white"/>
</svg>
