<svg width="220" height="160" viewBox="0 0 220 160" fill="none" xmlns="http://www.w3.org/2000/svg">
<path d="M45.6087 95.5625H9.50857V139.045H45.6087C49.1072 139.045 51.9465 136.309 51.9465 132.938V101.67C51.9465 98.3473 49.0565 95.5625 45.6087 95.5625Z" fill="#F0F0F0"/>
<path d="M9.76433 95.5625H9.15591C5.65744 95.5625 2.8181 98.2985 2.8181 101.67V132.938C2.8181 136.309 5.65744 139.045 9.15591 139.045H9.76433C13.2628 139.045 16.1021 136.309 16.1021 132.938V101.67C16.1528 98.3473 13.2628 95.5625 9.76433 95.5625Z" fill="#F5F5F5"/>
<path d="M14.3341 139.046H61.4367V111.589H14.3341V139.046Z" fill="#F0F0F0"/>
<path d="M10.4728 140.413H95.3487C96.0585 140.413 96.667 139.875 96.667 139.143V139.045H45.6096L9.15455 139.191C9.15455 139.875 9.71227 140.413 10.4728 140.413Z" fill="#E0E0E0"/>
<path d="M47.6394 77.5342H91.497C96.3644 77.5342 100.015 81.345 99.5587 86.0841L96.6686 117.841H35.1159L38.0059 86.0841C38.4622 81.345 42.7719 77.5342 47.6394 77.5342Z" fill="#E0E0E0"/>
<path d="M40.7419 77.5342H85.4108C90.0754 77.5342 93.5232 81.1496 93.1176 85.6444L90.1768 117.792H28.624L31.5648 85.6444C31.9704 81.1984 36.0773 77.5342 40.7419 77.5342Z" fill="#F5F5F5"/>
<path d="M18.0772 109.097H55.3942C57.6251 109.097 59.3997 110.807 59.3997 112.956V116.425C59.3997 118.575 57.6251 120.285 55.3942 120.285H18.0772C14.883 120.285 12.2972 117.793 12.2972 114.715C12.2972 111.637 14.883 109.097 18.0772 109.097Z" fill="#E0E0E0"/>
<path d="M97.7335 95.5625H61.6334V139.045H97.7335C101.232 139.045 104.071 136.309 104.071 132.938V101.67C104.122 98.3473 101.232 95.5625 97.7335 95.5625Z" fill="#F0F0F0"/>
<path d="M61.9368 95.5625H61.3284C57.8299 95.5625 54.9906 98.2985 54.9906 101.67V132.938C54.9906 136.309 57.8299 139.045 61.3284 139.045H61.9368C65.4353 139.045 68.2746 136.309 68.2746 132.938V101.67C68.2746 98.3473 65.4353 95.5625 61.9368 95.5625Z" fill="#F5F5F5"/>
<path d="M161.313 71.6729H126.582V140.414H161.313V71.6729Z" fill="#F0F0F0"/>
<path d="M131.745 135.078V77.0361H130.932V135.078H131.745Z" fill="#E6E6E6"/>
<path d="M156.141 77.0469H130.942V78.024H156.141V77.0469Z" fill="#E6E6E6"/>
<path d="M196.802 71.6729H162.07V140.414H196.802V71.6729Z" fill="#F0F0F0"/>
<path d="M196.781 140.443H201.395V71.7023H196.781V140.443Z" fill="#E0E0E0"/>
<path d="M167.253 135.061V77.0195H166.441V135.061H167.253Z" fill="#E6E6E6"/>
<path d="M162.064 140.403V72.4434H161.252V140.403H162.064Z" fill="#E6E6E6"/>
<path d="M191.628 77.0488H166.429V78.026H191.628V77.0488Z" fill="#E6E6E6"/>
<path d="M159.743 86.8682H158.019V102.063H159.743V86.8682Z" fill="#E0E0E0"/>
<path d="M165.315 86.8682H163.591V102.063H165.315V86.8682Z" fill="#E0E0E0"/>
<path d="M187.168 0H10.2166V60.8263H187.168V0Z" fill="#E0E0E0"/>
<path d="M185.543 0H8.59168V60.8263H185.543V0Z" fill="#F0F0F0"/>
<path d="M180.226 55.6534V5.08691L13.8708 5.08691V55.6534L180.226 55.6534Z" fill="#FAFAFA"/>
<path d="M40.8918 55.6954L51.945 5.08008H76.2822L65.229 55.6954H40.8918Z" fill="white"/>
<path d="M75.5202 55.6954L86.5226 5.08008H98.6912L87.6888 55.6954H75.5202Z" fill="white"/>
<path d="M149.799 55.6954L160.801 5.08008H172.97L161.967 55.6954H149.799Z" fill="white"/>
<path d="M110 160.001C170.751 160.001 220 157.833 220 155.158C220 152.484 170.751 150.315 110 150.315C49.2487 150.315 0 152.484 0 155.158C0 157.833 49.2487 160.001 110 160.001Z" fill="#F5F5F5"/>
<path d="M74.0086 152.568C73.0406 152.568 72.0726 150.749 71.8966 150.272C71.6766 149.752 71.8966 147.066 71.8966 147.066C71.8966 147.846 71.9406 148.626 72.1606 148.886C72.5566 149.406 74.8886 149.059 74.8886 148.106C74.8886 147.586 73.5686 144.9 73.5246 144.813C73.5686 144.857 75.0206 147.283 75.1966 148.409C75.5046 150.749 74.4486 152.568 74.0086 152.568Z" fill="#F97CAA"/>
<path d="M74.8431 148.062C74.8431 149.015 72.5111 149.362 72.1151 148.842C71.9391 148.582 71.8511 147.802 71.8511 147.022C71.8511 146.199 71.8951 145.463 71.8951 145.463C70.7951 142.083 59.6191 109.201 58.9591 107.771C58.7831 107.382 58.0351 105.085 57.0671 101.879C57.0671 84.8968 57.2431 69.9502 58.1671 69.8203C60.0591 69.5603 63.9311 95.9442 64.5911 100.71C64.7671 102.529 64.8991 103.742 64.9871 103.916C65.3391 104.652 68.5951 111.237 69.5191 115.353C70.4431 119.469 73.1271 140.307 73.4791 144.726C73.5231 144.856 74.8431 147.542 74.8431 148.062Z" fill="#F5AF9A"/>
<path d="M64.2836 40.9037C64.2836 40.9037 61.9516 41.5969 57.6836 42.55C53.4596 43.4598 51.2156 46.2324 51.1276 46.2758C51.1276 46.2324 50.3796 44.1529 48.2676 42.8966C46.1996 41.6835 38.6756 39.7773 38.1916 39.6906C38.7196 38.4776 39.9076 36.7447 42.2836 36.528C45.4076 36.2681 48.0476 36.0082 48.7516 34.9251C48.9716 34.5785 49.1036 33.842 49.1916 33.0189C49.3236 31.8491 49.3676 30.5061 49.3676 29.683C49.3676 29.2497 49.3676 28.9465 49.3676 28.9465H49.4116C48.7956 27.9934 48.3996 26.9103 48.1356 25.9572C47.9156 25.134 47.8276 24.3975 47.8276 24.0943V21.0183C47.8276 19.0688 49.3236 17.4658 51.2156 17.4658H52.9316C54.4276 17.4658 55.7036 18.5056 56.1436 19.9352C56.2316 20.2818 56.3196 20.6717 56.3196 21.0183V24.0943C56.3196 24.3109 56.3196 24.5708 56.2756 24.8741C56.2756 24.9607 56.2316 25.0907 56.2316 25.2207C56.1436 25.7839 56.0116 26.3904 55.8356 26.9969C55.7476 27.2569 55.7036 27.4735 55.6156 27.6901C55.3956 28.2966 55.1316 28.8598 54.7796 29.3364C54.7796 29.5097 54.7796 29.8129 54.7356 30.1595C54.7356 30.9393 54.7796 32.1091 54.9996 33.1922C55.2196 34.2752 55.6156 35.2717 56.3196 35.7049C58.2556 36.918 61.2036 36.2248 62.5236 37.0046C64.5036 38.2176 64.2836 40.9037 64.2836 40.9037Z" fill="#F5AF9A"/>
<path d="M65.4261 30.2026C65.9101 31.1557 65.2501 32.5421 64.2381 32.7154C63.8421 32.802 63.3141 32.7587 63.1381 33.1486C63.0061 33.3652 63.0941 33.6251 63.0501 33.8851C62.9621 34.6649 62.1701 35.1415 61.4221 35.3581C59.7061 35.8779 57.6821 35.8346 56.1861 34.7949C55.6581 34.405 55.1741 33.8418 54.8661 33.1919C54.6461 32.1088 54.6021 30.9391 54.6021 30.1593C54.6021 29.8127 54.6021 29.5094 54.6461 29.3361C54.9541 28.8596 55.2621 28.2531 55.4821 27.6899C55.5701 27.4732 55.6581 27.2133 55.7021 26.9967C55.8781 26.3902 56.0101 25.7403 56.0981 25.2204C56.0981 25.0905 56.1421 25.0038 56.1421 24.8738C56.1861 24.5706 56.1861 24.3106 56.1861 24.094V21.0181C56.1861 20.6282 56.1421 20.2816 56.0101 19.935C55.6141 18.6353 54.5581 17.6822 53.2381 17.5089C53.2381 17.6389 53.2381 17.8122 53.3261 17.8988C53.4141 18.0288 53.7221 18.0288 53.8981 18.0288C54.2501 18.0721 54.6461 18.1587 54.9541 18.4187C55.2181 18.6353 55.3501 18.9386 55.3941 19.2418C55.3941 19.4151 55.3501 19.5884 55.3061 19.7184C55.2181 19.8484 55.0421 19.9783 55.0421 20.1516C55.0421 20.4549 55.5701 20.6282 55.7461 20.8881C55.8781 21.1481 55.9221 21.4946 55.8341 21.7979C55.7461 22.1012 55.1741 22.4477 55.3941 22.751C55.5701 23.0109 55.7901 23.0976 55.9221 23.4009C56.0981 23.8774 55.3501 24.0507 55.1741 23.6175C55.1301 23.4875 54.9101 23.4009 54.8221 23.2709C54.7341 23.1842 54.6461 23.0543 54.6021 22.881C54.5141 22.5344 54.6021 22.2311 54.8221 21.9279C54.9541 21.7546 55.1741 21.6246 55.1301 21.408C55.1301 21.1914 54.9101 21.1047 54.7341 20.9748C54.4701 20.8015 54.3381 20.5415 54.2941 20.1949C54.2941 20.0216 54.2941 19.8917 54.3821 19.7184C54.4261 19.5451 54.6461 19.3718 54.6901 19.2418C54.7781 18.722 53.8541 18.722 53.5901 18.6786C52.8861 18.592 52.6221 18.0721 52.5781 17.4223H51.2141C49.3661 17.4223 47.8261 19.0252 47.8261 20.9748V24.0507C47.8261 24.3973 47.9141 25.0905 48.1341 25.9136C48.3981 26.8667 48.7941 27.9931 49.4101 28.9029H49.3661C49.3661 28.9029 49.3661 29.2062 49.3661 29.6394C49.3661 30.4625 49.3221 31.8056 49.1901 32.9753C48.9261 33.4952 48.5741 33.8418 48.3541 33.9717C47.7821 34.3183 46.9461 34.275 46.4621 33.7551C46.2861 33.5818 46.1541 33.3219 45.9341 33.2352C45.6701 33.1053 45.4061 33.2352 45.1421 33.2786C44.6581 33.4085 43.7781 33.2786 43.3821 32.932C42.9861 32.5421 42.8101 31.8056 43.4261 31.1124C43.7341 30.7658 44.4381 30.116 44.1301 29.7694C43.9101 29.5094 43.5141 29.5094 43.2941 29.2928C43.0301 29.0329 43.0301 28.5996 43.1621 28.2531C43.2941 28.0798 43.3821 27.9065 43.4701 27.6899C43.5581 27.5599 43.6461 27.4299 43.7341 27.2566C43.7781 27.17 43.8221 27.04 43.8221 26.91C43.8221 26.6934 43.6461 26.5201 43.4261 26.3902C43.2501 26.3035 43.0301 26.2602 42.8101 26.1735C42.1941 25.8703 41.9741 25.0038 42.1501 24.3106C42.3261 23.6175 42.8101 23.0543 43.3381 22.5777C43.8221 22.1445 44.3501 21.6679 44.3941 21.0181C44.4381 20.3682 43.9541 19.8484 43.7341 19.2418C43.5141 18.592 43.6461 17.8122 43.9981 17.2056C43.9981 17.1623 44.0421 17.1623 44.0421 17.119C43.7781 17.3789 43.5581 17.7688 43.4701 18.2021C43.2941 18.9819 43.6901 19.5451 44.0421 20.1516C44.3061 20.6282 44.3501 21.1047 43.9981 21.538C43.6021 22.0145 43.0301 22.3178 42.6341 22.8377C42.2821 23.3142 42.0181 23.8774 41.9741 24.4839C41.9301 25.0038 41.9741 25.567 42.3261 25.9569C42.6341 26.3468 43.2941 26.4335 43.4701 26.9534C43.5581 27.2133 43.5581 27.4299 43.4701 27.6465C43.3381 27.8198 43.2501 27.9931 43.1621 28.2097C43.1181 28.2964 43.0301 28.383 42.9861 28.4264C42.6781 28.8596 42.5461 29.5094 43.1181 29.7694C43.4261 29.8993 43.1621 30.3326 42.8541 30.2026C42.2821 29.9427 42.1061 29.3795 42.2381 28.7729C42.2821 28.513 42.4141 28.2531 42.5901 28.0364C42.7221 27.8632 42.8981 27.6465 42.9421 27.4299C43.0301 27.0833 42.8541 26.9534 42.5901 26.8234C41.5781 26.2169 41.2261 25.1771 41.4901 24.0507C41.6221 23.4875 41.8861 22.9243 42.2381 22.4477C42.4581 22.1445 42.7661 21.8845 43.0301 21.6679C43.3381 21.4513 43.7341 21.1914 43.6901 20.7581C43.6461 20.3682 43.2941 20.065 43.1181 19.7184C42.9861 19.4151 42.8981 19.1119 42.8541 18.8086C42.8101 18.1587 42.9861 17.5522 43.3821 17.0323C43.8661 16.3825 44.5261 16.0359 45.2301 15.8626C45.2741 15.8193 45.3181 15.8193 45.4061 15.776C46.2861 15.2561 47.3861 14.9962 48.2221 15.516L48.3541 15.5594C47.7821 14.7362 47.9581 13.5665 48.4421 12.7C49.1901 11.3137 50.5541 10.3172 52.0501 10.144C53.5461 9.92733 55.1301 10.5339 56.1421 11.7036C56.3181 11.8769 56.4941 12.0935 56.7141 12.2235C57.1981 12.5267 57.8141 12.3534 58.3861 12.2235C58.9581 12.0935 59.6181 12.0068 60.0141 12.4401C60.5421 13.0033 60.2341 13.9997 60.6741 14.6062C60.9821 14.9962 61.4661 15.1261 61.9501 15.2994C62.3901 15.4727 62.9181 15.8193 62.9181 16.2958C62.9181 16.8591 62.3461 17.2923 62.1701 17.8122C61.9941 18.462 62.4781 19.1119 63.0061 19.5884C63.4901 20.065 64.0621 20.5415 64.1061 21.2347C64.1061 21.7546 63.8421 22.2745 64.0621 22.751C64.3261 23.2709 65.1621 23.4009 65.2061 23.9641C65.2061 24.1374 65.1181 24.354 65.1181 24.5273C65.0741 25.1338 65.6901 25.6103 65.7341 26.2602C65.8221 27.17 64.6781 27.8632 64.8101 28.8163C64.8541 29.4661 65.2501 29.8127 65.4261 30.2026Z" fill="#25243B"/>
<path d="M54.6498 29.2935C54.6498 29.4668 54.6498 29.7701 54.6058 30.1166C53.9898 31.0264 53.1978 31.9362 52.2298 31.9362C50.9538 31.9362 50.0298 30.8098 49.3258 29.7267C49.3258 29.2935 49.3258 28.9902 49.3258 28.9902H49.3698C50.0738 30.0733 51.0418 30.8965 52.2738 30.8965C53.2418 30.8531 54.0778 30.2466 54.6498 29.2935Z" fill="#ED9D85"/>
<path d="M63.0069 37.7842C65.9549 42.2031 75.371 54.8969 75.239 57.6262C75.107 60.3556 75.0988 66.8683 73.8228 66.9117C72.5468 66.955 77.7914 65.2974 76.5594 65.2974C75.9434 65.2974 75.3267 67.0269 75.2387 66.7236C74.9307 65.9005 74.6042 69.732 76.0122 69.602C77.4202 69.4721 68.1302 64.4379 68.3502 64.2213C68.5702 64.048 69.1669 56.5865 69.2989 56.3698C69.7389 55.4601 60.8509 43.1563 60.3229 43.1129L63.0069 37.7842Z" fill="#F5AF9A"/>
<path d="M48.4443 35.7921C48.2681 35.7921 48.1359 35.6621 48.1359 35.4888C48.1359 35.3155 48.2681 35.1855 48.4443 35.1855C48.6206 35.1855 48.7528 35.3155 48.7528 35.4888C48.7087 35.6621 48.5765 35.7921 48.4443 35.7921Z" fill="#E93779"/>
<path d="M48.7963 36.3543C48.62 36.3543 48.4438 36.181 48.4438 36.0077C48.4438 35.7911 48.576 35.6611 48.7963 35.6611C48.9725 35.6611 49.1488 35.8344 49.1488 36.0077C49.1488 36.181 48.9725 36.3543 48.7963 36.3543Z" fill="#E93779"/>
<path d="M49.1934 37.0044C48.9734 37.0044 48.7974 36.8311 48.7974 36.6145C48.7974 36.3979 48.9734 36.2246 49.1934 36.2246C49.4134 36.2246 49.5894 36.3979 49.5894 36.6145C49.5894 36.7878 49.4134 37.0044 49.1934 37.0044Z" fill="#E93779"/>
<path d="M49.6327 37.6982C49.3687 37.6982 49.1927 37.4816 49.1927 37.2217C49.1927 36.9617 49.4127 36.7451 49.6327 36.7451C49.8967 36.7451 50.0727 36.9617 50.0727 37.2217C50.0727 37.4816 49.8967 37.6982 49.6327 37.6982Z" fill="#E93779"/>
<path d="M50.2034 38.4773C49.9394 38.4773 49.6754 38.2173 49.6754 37.9574C49.6754 37.6541 49.8954 37.4375 50.2034 37.4375C50.4674 37.4375 50.7314 37.6974 50.7314 37.9574C50.7314 38.2173 50.5114 38.4773 50.2034 38.4773Z" fill="#E93779"/>
<path d="M51.04 39.214C50.732 39.214 50.468 38.9541 50.468 38.6075C50.468 38.2609 50.732 38.001 51.04 38.001C51.348 38.001 51.612 38.2609 51.612 38.6075C51.612 38.9541 51.348 39.214 51.04 39.214Z" fill="#E93779"/>
<path d="M55.838 35.7921C55.6618 35.7921 55.5296 35.6621 55.5296 35.4888C55.5296 35.3155 55.6618 35.1855 55.838 35.1855C56.0143 35.1855 56.1464 35.3155 56.1464 35.4888C56.1464 35.6621 56.0143 35.7921 55.838 35.7921Z" fill="#E93779"/>
<path d="M55.4828 36.3543C55.3065 36.3543 55.1303 36.181 55.1303 36.0077C55.1303 35.7911 55.2625 35.6611 55.4828 35.6611C55.7031 35.6611 55.8353 35.8344 55.8353 36.0077C55.7912 36.181 55.659 36.3543 55.4828 36.3543Z" fill="#E93779"/>
<path d="M55.0436 37.0044C54.8236 37.0044 54.6476 36.8311 54.6476 36.6145C54.6476 36.3979 54.8236 36.2246 55.0436 36.2246C55.2636 36.2246 55.4396 36.3979 55.4396 36.6145C55.4396 36.7878 55.2636 37.0044 55.0436 37.0044Z" fill="#E93779"/>
<path d="M54.6049 37.6982C54.3409 37.6982 54.1649 37.4816 54.1649 37.2217C54.1649 36.9617 54.3849 36.7451 54.6049 36.7451C54.8689 36.7451 55.0449 36.9617 55.0449 37.2217C55.0889 37.4816 54.8689 37.6982 54.6049 37.6982Z" fill="#E93779"/>
<path d="M54.0314 38.4773C53.7674 38.4773 53.5034 38.2173 53.5034 37.9574C53.5034 37.6541 53.7234 37.4375 54.0314 37.4375C54.2954 37.4375 54.5594 37.6974 54.5594 37.9574C54.5594 38.2173 54.3394 38.4773 54.0314 38.4773Z" fill="#E93779"/>
<path d="M53.241 39.214C52.933 39.214 52.669 38.9541 52.669 38.6075C52.669 38.2609 52.933 38.001 53.241 38.001C53.549 38.001 53.813 38.2609 53.813 38.6075C53.813 38.9541 53.549 39.214 53.241 39.214Z" fill="#E93779"/>
<path d="M52.1414 39.9066C51.7454 39.9066 51.4374 39.56 51.4374 39.1701C51.4374 38.7802 51.7454 38.4336 52.1414 38.4336C52.5374 38.4336 52.8454 38.7802 52.8454 39.1701C52.8454 39.56 52.5374 39.9066 52.1414 39.9066Z" fill="#E93779"/>
<path d="M66.4582 44.7491C66.2552 45.7598 59.5506 47.1566 59.5506 47.1566C59.5506 47.1566 59.9059 48.9634 59.6908 50.7061C59.3999 53.0713 57.095 54.2771 57.2 57.0897C57.261 58.7232 62.2309 68.3837 63.258 80.5468C64.2868 92.708 65.0096 103.662 65.0096 103.662C65.0096 103.662 64.9725 103.404 64.9046 102.935V102.932C64.2177 98.2377 60.3682 72.4916 58.4931 72.7656C57.5844 72.8995 57.398 87.548 57.4117 104.105C57.4286 125.148 57.7671 149.274 57.3561 150.586C56.6215 152.928 50.6296 152.619 48.9406 152.015C47.2519 151.41 45.4837 150.794 43.2079 151.777C40.932 152.758 38.3647 152.403 37.505 152.403C34.1018 152.403 31.6839 150.304 31.6839 150.304C31.6839 150.304 47.6123 146.809 46.8777 139.632C46.1452 132.456 35.2761 85.9246 40.5676 69.2905C43.1058 61.3148 45.5613 58.8026 45.4886 57.0204C45.4144 55.24 42.4969 51.8772 42.524 50.3526C42.5425 49.2641 42.524 47.5408 42.524 47.5408L36.5047 43.4843C37.0446 40.6665 38.6049 39.4697 38.6049 39.4697C38.6049 39.4697 38.6132 39.4713 38.6269 39.4745C39.0942 39.5901 46.5818 41.4533 48.6464 42.6242C50.7751 43.8315 51.5097 45.9094 51.5097 45.9094C51.5962 45.8087 54.4033 42.6095 58.5965 41.7176C62.8557 40.8107 65.6142 41.084 65.6142 41.084C65.6142 41.084 67.0776 41.6589 66.4582 44.7491Z" fill="#F97CAA"/>
<path d="M36.344 43.416C33.396 47.3584 27.016 56.3263 27.192 58.7524C27.324 61.1785 40.436 68.1536 41.712 68.1969C42.988 68.2402 43.604 65.8575 44.836 65.8575C45.452 65.8575 48.312 65.9441 48.4 65.6842C48.708 64.9477 46.288 63.3014 44.88 63.2147C43.472 63.0848 41.888 64.6877 41.668 64.5578C41.448 64.3845 33.264 57.8427 33.132 57.626C32.692 56.8029 41.668 47.1418 42.196 47.0985L36.344 43.416Z" fill="#F5AF9A"/>
<path d="M151.474 139.598H103.859C100.099 139.598 97.2067 136.572 97.4237 132.87L103.244 35.4389C103.461 31.7367 106.715 28.7109 110.475 28.7109H158.09C161.85 28.7109 164.742 31.7367 164.525 35.4389L158.704 132.87C158.451 136.572 155.197 139.598 151.474 139.598Z" fill="#DFE9FF"/>
<path opacity="0.8" d="M151.474 139.598H103.859C100.099 139.598 97.2067 136.572 97.4237 132.87L103.244 35.4389C103.461 31.7367 106.715 28.7109 110.475 28.7109H158.09C161.85 28.7109 164.742 31.7367 164.525 35.4389L158.704 132.87C158.451 136.572 155.197 139.598 151.474 139.598Z" fill="#DFE9FF"/>
<path d="M150.675 137.106H104.398C101.759 137.106 99.7345 134.97 99.8791 132.371L105.664 35.3673C105.808 32.7687 108.086 30.6328 110.725 30.6328H157.002C159.641 30.6328 161.666 32.7687 161.521 35.3673L155.737 132.371C155.592 134.97 153.314 137.106 150.675 137.106Z" fill="white"/>
<path opacity="0.1" d="M139.757 37.8586H127.175C126.597 37.8586 126.127 37.3958 126.163 36.8263C126.199 36.2567 126.705 35.7939 127.284 35.7939H139.865C140.444 35.7939 140.914 36.2567 140.877 36.8263C140.841 37.3958 140.335 37.8586 139.757 37.8586Z" fill="#407BFF"/>
<path d="M151.905 35.5807H157.003C157.292 35.5807 157.545 35.3671 157.545 35.0824C157.545 34.7976 157.328 34.584 157.075 34.584H151.977C151.688 34.584 151.435 34.7976 151.435 35.0824C151.399 35.3671 151.616 35.5807 151.905 35.5807Z" fill="#DEE2E7"/>
<path d="M151.796 37.3258H156.893C157.183 37.3258 157.436 37.1123 157.436 36.8275C157.436 36.5427 157.219 36.3291 156.966 36.3291H151.868C151.579 36.3291 151.326 36.5427 151.326 36.8275C151.289 37.1123 151.506 37.3258 151.796 37.3258Z" fill="#DEE2E7"/>
<path d="M110.582 37.3258H115.68C115.969 37.3258 116.222 37.1123 116.222 36.8275C116.222 36.5427 116.005 36.3291 115.752 36.3291H110.654C110.365 36.3291 110.112 36.5427 110.112 36.8275C110.076 37.1123 110.293 37.3258 110.582 37.3258Z" fill="#DEE2E7"/>
<path d="M151.689 39.069H156.786C157.076 39.069 157.329 38.8554 157.329 38.5706C157.329 38.2859 157.112 38.0723 156.859 38.0723H151.725C151.436 38.0723 151.183 38.2859 151.183 38.5706C151.183 38.8554 151.4 39.069 151.689 39.069Z" fill="#DEE2E7"/>
<path d="M114.378 119.699L115.607 120.98H114.811C114.522 120.98 114.341 120.766 114.341 120.482L114.378 119.699ZM114.052 118.809L114.016 119.663L113.98 120.446C113.98 120.695 114.052 120.909 114.197 121.051C114.341 121.194 114.558 121.3 114.811 121.3H115.607H116.474L115.896 120.695L114.667 119.414L114.052 118.809Z" fill="white"/>
<path opacity="0.05" d="M149.337 133.51H106.17C104.543 133.51 103.278 132.193 103.386 130.591L105.808 90.1524C105.917 88.5505 107.327 87.2334 108.954 87.2334H152.085C153.712 87.2334 154.977 88.5505 154.869 90.1524L152.447 130.591C152.374 132.193 150.964 133.51 149.337 133.51Z" fill="#003BFF"/>
<path d="M145 102.932H114.197C111.739 102.932 109.859 100.938 110.004 98.5533C110.148 96.1327 112.281 94.1748 114.74 94.1748H145.543C148.001 94.1748 149.881 96.1683 149.737 98.5533C149.556 100.974 147.459 102.932 145 102.932Z" fill="white"/>
<path opacity="0.15" d="M143.95 98.0909H120.884C120.486 98.0909 120.161 97.7705 120.197 97.3789C120.233 96.9874 120.559 96.667 120.956 96.667H144.022C144.42 96.667 144.746 96.9874 144.709 97.3789C144.709 97.7705 144.348 98.0909 143.95 98.0909Z" fill="#003BFF"/>
<path opacity="0.15" d="M139.577 100.44H120.741C120.343 100.44 120.018 100.119 120.054 99.7276C120.09 99.336 120.416 99.0156 120.813 99.0156H139.649C140.047 99.0156 140.373 99.336 140.336 99.7276C140.336 100.119 139.975 100.44 139.577 100.44Z" fill="#003BFF"/>
<path d="M144.275 114.751H113.472C111.013 114.751 109.133 112.758 109.278 110.373C109.423 107.952 111.556 105.994 114.014 105.994H144.817C147.276 105.994 149.156 107.988 149.011 110.373C148.866 112.793 146.733 114.751 144.275 114.751Z" fill="white"/>
<path opacity="0.15" d="M143.189 110.835H136.826C136.428 110.835 136.067 111.155 136.067 111.547C136.03 111.938 136.356 112.259 136.753 112.259H143.117C143.514 112.259 143.876 111.938 143.876 111.547C143.912 111.155 143.587 110.835 143.189 110.835Z" fill="#003BFF"/>
<path opacity="0.2" d="M133.101 110.835H120.121C119.724 110.835 119.362 111.155 119.362 111.547C119.326 111.938 119.651 112.259 120.049 112.259H133.028C133.426 112.259 133.788 111.938 133.788 111.547C133.824 111.155 133.498 110.835 133.101 110.835Z" fill="#407BFF"/>
<path opacity="0.15" d="M139.105 108.449H120.268C119.871 108.449 119.509 108.77 119.509 109.161C119.473 109.553 119.798 109.873 120.196 109.873H139.032C139.43 109.873 139.792 109.553 139.792 109.161C139.792 108.77 139.502 108.449 139.105 108.449Z" fill="#003BFF"/>
<path d="M143.588 126.569H112.785C110.326 126.569 108.446 124.575 108.591 122.19C108.735 119.769 110.869 117.812 113.327 117.812H144.13C146.589 117.812 148.469 119.805 148.324 122.19C148.143 124.575 146.046 126.569 143.588 126.569Z" fill="white"/>
<path opacity="0.15" d="M142.504 122.617H119.438C119.041 122.617 118.679 122.938 118.679 123.329C118.643 123.721 118.968 124.041 119.366 124.041H142.432C142.83 124.041 143.191 123.721 143.191 123.329C143.191 122.938 142.902 122.617 142.504 122.617Z" fill="#003BFF"/>
<path opacity="0.15" d="M138.382 120.269H119.546C119.148 120.269 118.786 120.589 118.786 120.981C118.75 121.372 119.076 121.692 119.473 121.692H138.309C138.707 121.692 139.069 121.372 139.069 120.981C139.105 120.589 138.779 120.269 138.382 120.269Z" fill="#003BFF"/>
<path opacity="0.05" d="M153.218 81.4892H110.05C108.423 81.4892 107.158 80.1721 107.266 78.5702L109.688 48.8927C109.797 47.2908 111.207 45.9736 112.834 45.9736H155.965C157.592 45.9736 158.858 47.2908 158.749 48.8927L156.327 78.5702C156.254 80.1721 154.844 81.4892 153.218 81.4892Z" fill="#003BFF"/>
<path d="M148.879 61.6721H118.076C115.618 61.6721 113.738 59.6786 113.883 57.2936C114.027 54.8729 116.16 52.915 118.619 52.915H149.422C151.88 52.915 153.76 54.9085 153.616 57.2936C153.435 59.7142 151.338 61.6721 148.879 61.6721Z" fill="white"/>
<path opacity="0.12" d="M147.829 56.8311H124.763C124.365 56.8311 124.04 56.5108 124.076 56.1192C124.112 55.7276 124.438 55.4072 124.835 55.4072H147.901C148.299 55.4072 148.625 55.7276 148.588 56.1192C148.588 56.5108 148.227 56.8311 147.829 56.8311Z" fill="#003BFF"/>
<path opacity="0.12" d="M143.456 59.1798H124.62C124.222 59.1798 123.897 58.8594 123.933 58.4678C123.969 58.0762 124.295 57.7559 124.692 57.7559H143.528C143.926 57.7559 144.251 58.0762 144.215 58.4678C144.215 58.8594 143.854 59.1798 143.456 59.1798Z" fill="#003BFF"/>
<path d="M148.156 73.4914H117.353C114.894 73.4914 113.014 71.4979 113.159 69.1129C113.304 66.6922 115.437 64.7344 117.895 64.7344H148.698C151.157 64.7344 153.037 66.7278 152.892 69.1129C152.747 71.5335 150.614 73.4914 148.156 73.4914Z" fill="white"/>
<path opacity="0.12" d="M147.07 69.5752H140.707C140.309 69.5752 139.948 69.8956 139.948 70.2872C139.911 70.6787 140.237 70.9991 140.635 70.9991H146.998C147.395 70.9991 147.757 70.6787 147.757 70.2872C147.793 69.8956 147.468 69.5752 147.07 69.5752Z" fill="#003BFF"/>
<path opacity="0.2" d="M136.982 69.5752H124.003C123.605 69.5752 123.243 69.8956 123.243 70.2872C123.207 70.6787 123.533 70.9991 123.93 70.9991H136.909C137.307 70.9991 137.669 70.6787 137.669 70.2872C137.705 69.8956 137.379 69.5752 136.982 69.5752Z" fill="#407BFF"/>
<path opacity="0.12" d="M142.986 67.1895H124.15C123.752 67.1895 123.39 67.5098 123.39 67.9014C123.354 68.293 123.68 68.6134 124.077 68.6134H142.913C143.311 68.6134 143.673 68.293 143.673 67.9014C143.673 67.5098 143.383 67.1895 142.986 67.1895Z" fill="#003BFF"/>
<path d="M126.48 142.136H68.5318C63.9558 142.136 60.4358 138.454 60.6998 133.948L67.7838 15.3727C68.0478 10.867 72.0078 7.18457 76.5838 7.18457H134.532C139.108 7.18457 142.628 10.867 142.364 15.3727L135.28 133.948C134.972 138.454 131.012 142.136 126.48 142.136Z" fill="#BAC6EE"/>
<path opacity="0.8" d="M126.48 142.136H68.5318C63.9558 142.136 60.4358 138.454 60.6998 133.948L67.7838 15.3727C68.0478 10.867 72.0078 7.18457 76.5838 7.18457H134.532C139.108 7.18457 142.628 10.867 142.364 15.3727L135.28 133.948C134.972 138.454 131.012 142.136 126.48 142.136Z" fill="#BAC6EE"/>
<path d="M125.514 139.104H69.1939C65.9819 139.104 63.5179 136.505 63.6939 133.342L70.7339 15.2864C70.9099 12.1238 73.6819 9.52441 76.8939 9.52441H133.214C136.426 9.52441 138.89 12.1238 138.714 15.2864L131.674 133.342C131.498 136.505 128.726 139.104 125.514 139.104Z" fill="white"/>
<path opacity="0.1" d="M123.886 134.728H71.3498C69.3698 134.728 67.8298 133.125 67.9618 131.176L70.9098 81.9607C71.0418 80.0112 72.7578 78.4082 74.7378 78.4082H127.23C129.21 78.4082 130.75 80.0112 130.618 81.9607L127.67 131.176C127.582 133.125 125.866 134.728 123.886 134.728Z" fill="#407BFF"/>
<path opacity="0.1" d="M112.226 18.3184H96.9136C96.2096 18.3184 95.6376 17.7552 95.6816 17.062C95.7256 16.3689 96.3416 15.8057 97.0456 15.8057H112.358C113.062 15.8057 113.634 16.3689 113.59 17.062C113.546 17.7552 112.93 18.3184 112.226 18.3184Z" fill="#407BFF"/>
<path opacity="0.2" d="M118.299 65.8325C127.731 56.8141 128.377 42.4067 119.742 33.6525C111.108 24.8983 96.4627 25.1124 87.0313 34.1308C77.6 43.1491 76.9539 57.5566 85.5883 66.3108C94.2227 75.065 108.868 74.8508 118.299 65.8325Z" fill="#407BFF"/>
<path d="M86.4856 65.0655C82.6136 60.9931 80.6336 55.621 80.9856 49.9023L81.4256 49.9457C81.0736 55.5344 83.0096 60.8198 86.7936 64.7622L86.4856 65.0655Z" fill="#89A3F3"/>
<path d="M124.326 50.0758L123.886 50.0325C124.018 48.083 123.842 46.1767 123.446 44.3572L123.886 44.2705C124.282 46.1767 124.458 48.1263 124.326 50.0758Z" fill="#89A3F3"/>
<path d="M122.171 40.6311C121.291 38.6383 120.059 36.862 118.519 35.2591C116.407 33.0496 113.899 31.4033 111.039 30.3635L111.171 29.9736C114.119 31.0567 116.671 32.703 118.827 34.9558C120.367 36.6021 121.643 38.4217 122.567 40.4579L122.171 40.6311Z" fill="#89A3F3"/>
<path d="M116.276 63.7812C124.487 55.9298 125.049 43.3866 117.532 35.7653C110.015 28.1441 97.2654 28.3306 89.0544 36.1821C80.8433 44.0336 80.2807 56.5767 87.7977 64.198C95.3147 71.8193 108.065 71.6327 116.276 63.7812Z" fill="white"/>
<path d="M127.009 15.5461H133.213C133.565 15.5461 133.873 15.2861 133.873 14.9395C133.873 14.5929 133.609 14.333 133.301 14.333H127.097C126.745 14.333 126.437 14.5929 126.437 14.9395C126.393 15.2861 126.657 15.5461 127.009 15.5461Z" fill="#DEE2E7"/>
<path d="M126.878 17.6691H133.082C133.434 17.6691 133.742 17.4092 133.742 17.0626C133.742 16.716 133.478 16.4561 133.17 16.4561H126.966C126.614 16.4561 126.306 16.716 126.306 17.0626C126.262 17.4092 126.526 17.6691 126.878 17.6691Z" fill="#DEE2E7"/>
<path d="M76.719 17.6691H82.923C83.275 17.6691 83.583 17.4092 83.583 17.0626C83.583 16.716 83.319 16.4561 83.011 16.4561H76.807C76.455 16.4561 76.147 16.716 76.147 17.0626C76.103 17.4092 76.367 17.6691 76.719 17.6691Z" fill="#DEE2E7"/>
<path d="M126.746 19.7922H132.95C133.302 19.7922 133.61 19.5322 133.61 19.1856C133.61 18.839 133.346 18.5791 133.038 18.5791H126.79C126.438 18.5791 126.13 18.839 126.13 19.1856C126.13 19.5322 126.394 19.7922 126.746 19.7922Z" fill="#DEE2E7"/>
<path d="M118.607 97.514H81.1187C78.1267 97.514 75.8387 95.0879 76.0147 92.1852C76.1907 89.2392 78.7867 86.8564 81.7787 86.8564H119.267C122.259 86.8564 124.547 89.2825 124.371 92.1852C124.151 95.1312 121.599 97.514 118.607 97.514Z" fill="white"/>
<path d="M117.725 111.898H80.2367C77.2447 111.898 74.9567 109.472 75.1327 106.569C75.3087 103.623 77.9047 101.24 80.8967 101.24H118.385C121.377 101.24 123.665 103.666 123.489 106.569C123.313 109.515 120.717 111.898 117.725 111.898Z" fill="white"/>
<path d="M116.89 126.281H79.4023C76.4103 126.281 74.1223 123.854 74.2983 120.952C74.4743 118.006 77.0703 115.623 80.0623 115.623H117.55C120.542 115.623 122.83 118.049 122.654 120.952C122.434 123.854 119.882 126.281 116.89 126.281Z" fill="white"/>
<path d="M81.3381 117.919L82.8341 119.479H81.8661C81.5141 119.479 81.2941 119.219 81.2941 118.872L81.3381 117.919ZM80.9421 116.836L80.8981 117.876L80.8541 118.829C80.8541 119.132 80.9421 119.392 81.1181 119.565C81.2941 119.739 81.5581 119.869 81.8661 119.869H82.8341H83.8901L83.1861 119.132L81.6901 117.572L80.9421 116.836Z" fill="white"/>
<path opacity="0.2" d="M117.33 91.6216H89.258C88.774 91.6216 88.378 91.2317 88.422 90.7551C88.466 90.2786 88.862 89.8887 89.346 89.8887H117.418C117.902 89.8887 118.298 90.2786 118.254 90.7551C118.254 91.2317 117.814 91.6216 117.33 91.6216Z" fill="#407BFF"/>
<path opacity="0.2" d="M112.007 94.481H89.0832C88.5992 94.481 88.2032 94.0911 88.2472 93.6145C88.2912 93.138 88.6872 92.748 89.1712 92.748H112.095C112.579 92.748 112.975 93.138 112.931 93.6145C112.931 94.0911 112.491 94.481 112.007 94.481Z" fill="#407BFF"/>
<path opacity="0.2" d="M116.407 107.131H108.663C108.179 107.131 107.739 107.521 107.739 107.997C107.695 108.474 108.091 108.864 108.575 108.864H116.319C116.803 108.864 117.243 108.474 117.243 107.997C117.287 107.521 116.891 107.131 116.407 107.131Z" fill="#407BFF"/>
<path opacity="0.2" d="M104.129 107.131H88.3329C87.8489 107.131 87.4089 107.521 87.4089 107.997C87.3649 108.474 87.7609 108.864 88.2449 108.864H104.041C104.525 108.864 104.965 108.474 104.965 107.997C105.009 107.521 104.613 107.131 104.129 107.131Z" fill="#407BFF"/>
<path opacity="0.2" d="M111.434 104.229H88.5097C88.0257 104.229 87.5857 104.618 87.5857 105.095C87.5417 105.572 87.9377 105.961 88.4217 105.961H111.346C111.83 105.961 112.27 105.572 112.27 105.095C112.27 104.618 111.918 104.229 111.434 104.229Z" fill="#407BFF"/>
<path opacity="0.2" d="M115.569 121.472H87.4966C87.0126 121.472 86.5726 121.862 86.5726 122.338C86.5286 122.815 86.9246 123.205 87.4086 123.205H115.481C115.965 123.205 116.405 122.815 116.405 122.338C116.405 121.862 116.053 121.472 115.569 121.472Z" fill="#407BFF"/>
<path opacity="0.2" d="M110.554 118.612H87.6297C87.1457 118.612 86.7057 119.002 86.7057 119.479C86.6617 119.955 87.0577 120.345 87.5417 120.345H110.466C110.95 120.345 111.39 119.955 111.39 119.479C111.434 119.002 111.038 118.612 110.554 118.612Z" fill="#407BFF"/>
<mask id="mask0_893_16036" style="mask-type:alpha" maskUnits="userSpaceOnUse" x="82" y="30" width="40" height="40">
<rect x="82.7369" y="30.8047" width="39.2595" height="39.1015" rx="19.5508" fill="white"/>
</mask>
<g mask="url(#mask0_893_16036)">
<path d="M112.194 60.9541C112.194 60.9541 112.479 70.0873 112.77 70.9823C113.061 71.8774 116.046 85.1895 116.434 86.5203C117.228 89.254 116.646 92.0175 116.154 91.7646C115.86 91.6144 115.253 87.8529 114.995 87.8639C114.737 87.8751 115.05 89.0828 114.962 89.4105C114.873 89.7379 114.285 90.0305 114.285 90.0305C114.285 90.0305 113.65 86.6863 113.789 86.3373C113.928 85.9882 114.052 84.8617 114.052 84.8617C114.052 84.8617 108.879 73.608 108.804 72.1154C108.71 70.2508 107.978 62.6493 107.978 62.6493L112.194 60.9541Z" fill="#F5AF9A"/>
<path d="M90.2262 59.4121C88.9361 62.9436 89.5532 70.0249 89.6708 71.8582C89.7883 73.692 92.0449 78.3327 93.023 78.3746C94.0006 78.416 94.4703 76.6223 95.4087 76.6223C95.8799 76.6223 98.0602 76.7014 98.1452 76.4959C98.3693 75.9541 96.5433 74.7067 95.4481 74.6234C94.3528 74.5401 93.1401 75.7489 92.9838 75.6238C92.8275 75.4986 93.0681 70.6673 92.9838 70.521C92.6318 69.9097 93.205 63.0465 94.4995 62.3265L90.2262 59.4121Z" fill="#F5AF9A"/>
<path d="M112.241 59.0802C112.241 59.0802 110.344 59.6618 106.871 60.4615C103.435 61.2249 101.609 63.5514 101.537 63.5878C101.537 63.5514 100.929 61.8065 99.2105 60.7524C97.528 59.7345 91.4066 58.1351 91.0129 58.0623C91.4424 57.0445 92.409 55.5905 94.342 55.4087C96.8837 55.1906 99.0315 54.9725 99.6043 54.0637C99.7833 53.7729 99.8906 53.1549 99.9622 52.4642C100.07 51.4827 100.105 50.3558 100.105 49.6652C100.105 49.3017 100.105 49.0472 100.105 49.0472H100.141C99.6401 48.2475 99.3179 47.3387 99.1031 46.5389C98.9241 45.8483 98.8525 45.2303 98.8525 44.9758V42.3949C98.8525 40.7591 100.07 39.4141 101.609 39.4141H103.005C104.222 39.4141 105.26 40.2865 105.618 41.4861C105.69 41.7769 105.761 42.1041 105.761 42.3949V44.9758C105.761 45.1576 105.761 45.3757 105.726 45.6302C105.726 45.7029 105.69 45.8119 105.69 45.921C105.618 46.3935 105.511 46.9025 105.368 47.4114C105.296 47.6295 105.26 47.8112 105.189 47.993C105.01 48.5019 104.795 48.9745 104.509 49.3744C104.509 49.5198 104.509 49.7742 104.473 50.065C104.473 50.7194 104.509 51.7008 104.688 52.6096C104.866 53.5184 105.189 54.3545 105.761 54.718C107.337 55.7359 109.735 55.1542 110.809 55.8086C112.42 56.8264 112.241 59.0802 112.241 59.0802Z" fill="#F5AF9A"/>
<path d="M112.664 49.2537C113.034 49.9753 112.53 51.025 111.756 51.1562C111.453 51.2219 111.049 51.189 110.915 51.4843C110.814 51.6483 110.881 51.8451 110.847 52.0419C110.78 52.6324 110.174 52.9932 109.603 53.1572C108.29 53.5508 106.743 53.518 105.599 52.7308C105.195 52.4356 104.825 52.0091 104.589 51.5171C104.421 50.697 104.387 49.8113 104.387 49.2209C104.387 48.9585 104.387 48.7288 104.421 48.5976C104.657 48.2368 104.892 47.7776 105.06 47.3511C105.128 47.1871 105.195 46.9903 105.229 46.8263C105.363 46.3671 105.464 45.875 105.531 45.4814C105.531 45.383 105.565 45.3174 105.565 45.219C105.599 44.9893 105.599 44.7925 105.599 44.6285V42.2995C105.599 42.0043 105.565 41.7419 105.464 41.4794C105.161 40.4954 104.354 39.7737 103.344 39.6425C103.344 39.7409 103.344 39.8721 103.412 39.9377C103.479 40.0361 103.715 40.0361 103.849 40.0361C104.118 40.0689 104.421 40.1345 104.657 40.3314C104.858 40.4954 104.959 40.725 104.993 40.9546C104.993 41.0858 104.959 41.217 104.926 41.3154C104.858 41.4138 104.724 41.5123 104.724 41.6435C104.724 41.8731 105.128 42.0043 105.262 42.2011C105.363 42.3979 105.397 42.6603 105.33 42.89C105.262 43.1196 104.825 43.382 104.993 43.6116C105.128 43.8084 105.296 43.874 105.397 44.1037C105.531 44.4645 104.959 44.5957 104.825 44.2677C104.791 44.1693 104.623 44.1037 104.556 44.0053C104.488 43.9397 104.421 43.8412 104.387 43.71C104.32 43.4476 104.387 43.218 104.556 42.9884C104.657 42.8572 104.825 42.7588 104.791 42.5947C104.791 42.4307 104.623 42.3651 104.488 42.2667C104.287 42.1355 104.186 41.9387 104.152 41.6763C104.152 41.5451 104.152 41.4466 104.219 41.3154C104.253 41.1842 104.421 41.053 104.455 40.9546C104.522 40.561 103.815 40.561 103.614 40.5282C103.075 40.4626 102.873 40.0689 102.84 39.5769H101.797C100.384 39.5769 99.206 40.7906 99.206 42.2667V44.5957C99.206 44.8581 99.2733 45.383 99.4416 46.0062C99.6434 46.7279 99.9462 47.5808 100.417 48.2696H100.384C100.384 48.2696 100.384 48.4992 100.384 48.8273C100.384 49.4505 100.35 50.4674 100.249 51.3531C100.047 51.7467 99.778 52.0091 99.6098 52.1075C99.1724 52.3699 98.5331 52.3371 98.163 51.9435C98.0284 51.8123 97.9275 51.6155 97.7593 51.5499C97.5574 51.4515 97.3555 51.5499 97.1537 51.5827C96.7836 51.6811 96.1106 51.5827 95.8078 51.3203C95.505 51.025 95.3704 50.4674 95.8415 49.9425C96.077 49.6801 96.6153 49.1881 96.3798 48.9257C96.2116 48.7288 95.9088 48.7288 95.7405 48.5648C95.5387 48.368 95.5387 48.04 95.6396 47.7776C95.7405 47.6464 95.8078 47.5151 95.8751 47.3511C95.9424 47.2527 96.0097 47.1543 96.077 47.0231C96.1106 46.9575 96.1443 46.8591 96.1443 46.7607C96.1443 46.5967 96.0097 46.4655 95.8415 46.367C95.7069 46.3014 95.5387 46.2686 95.3704 46.203C94.8994 45.9734 94.7312 45.3174 94.8658 44.7925C95.0003 44.2677 95.3704 43.8412 95.7742 43.4804C96.1443 43.1524 96.548 42.7916 96.5817 42.2995C96.6153 41.8075 96.2452 41.4138 96.077 40.9546C95.9088 40.4626 96.0097 39.8721 96.2789 39.4129C96.2789 39.3801 96.3125 39.3801 96.3125 39.3473C96.1106 39.5441 95.9424 39.8393 95.8751 40.1673C95.7405 40.7578 96.0434 41.1842 96.3125 41.6435C96.5144 42.0043 96.548 42.3651 96.2789 42.6931C95.9761 43.054 95.5387 43.2836 95.2359 43.6772C94.9667 44.0381 94.7648 44.4645 94.7312 44.9237C94.6975 45.3174 94.7312 45.7438 95.0003 46.039C95.2359 46.3342 95.7405 46.3999 95.8751 46.7935C95.9424 46.9903 95.9424 47.1543 95.8751 47.3183C95.7742 47.4495 95.7069 47.5808 95.6396 47.7448C95.606 47.8104 95.5387 47.876 95.505 47.9088C95.2695 48.2368 95.1686 48.7288 95.606 48.9257C95.8415 49.0241 95.6396 49.3521 95.4041 49.2537C94.9667 49.0569 94.8321 48.6304 94.9331 48.1712C94.9667 47.9744 95.0676 47.7776 95.2022 47.6136C95.3032 47.4823 95.4377 47.3183 95.4714 47.1543C95.5387 46.8919 95.4041 46.7935 95.2022 46.6951C94.4284 46.2358 94.1592 45.4486 94.3611 44.5957C94.462 44.1693 94.6639 43.7428 94.9331 43.382C95.1013 43.1524 95.3368 42.9556 95.5387 42.7916C95.7742 42.6275 96.077 42.4307 96.0434 42.1027C96.0097 41.8075 95.7405 41.5779 95.606 41.3154C95.505 41.0858 95.4377 40.8562 95.4041 40.6266C95.3704 40.1345 95.505 39.6753 95.8078 39.2817C96.1779 38.7896 96.6826 38.5272 97.2209 38.396C97.2546 38.3632 97.2882 38.3632 97.3555 38.3304C98.0284 37.9368 98.8696 37.7399 99.5088 38.1336L99.6098 38.1664C99.1724 37.5431 99.307 36.6575 99.6771 36.0014C100.249 34.9517 101.292 34.1972 102.436 34.066C103.58 33.902 104.791 34.3613 105.565 35.2469C105.7 35.3781 105.834 35.5422 106.002 35.6406C106.373 35.8702 106.844 35.739 107.281 35.6406C107.718 35.5422 108.223 35.4766 108.526 35.8046C108.93 36.231 108.694 36.9855 109.031 37.4447C109.266 37.7399 109.636 37.8383 110.006 37.9696C110.343 38.1008 110.746 38.3632 110.746 38.724C110.746 39.1505 110.309 39.4785 110.174 39.8721C110.04 40.3642 110.41 40.8562 110.814 41.217C111.184 41.5779 111.621 41.9387 111.655 42.4635C111.655 42.8572 111.453 43.2508 111.621 43.6116C111.823 44.0053 112.462 44.1037 112.496 44.5301C112.496 44.6613 112.429 44.8253 112.429 44.9565C112.395 45.4158 112.866 45.7766 112.9 46.2686C112.967 46.9575 112.092 47.4823 112.193 48.204C112.227 48.696 112.53 48.9585 112.664 49.2537Z" fill="#25243B"/>
<path d="M104.468 48.9723C104.46 49.1014 104.451 49.3167 104.449 49.5871C103.989 50.2669 103.386 50.9475 102.626 50.947C101.663 50.947 100.933 50.1077 100.397 49.2861C100.394 49.2807 100.391 49.2758 100.387 49.2706C100.385 49.2669 100.382 49.2636 100.38 49.26C100.383 48.9178 100.379 48.6992 100.379 48.6992L100.397 48.6997C100.933 49.5215 101.663 50.1464 102.626 50.1464C103.397 50.147 104.005 49.6618 104.468 48.9723Z" fill="#D68A88"/>
<path d="M99.496 53.8742C99.3591 53.8742 99.2565 53.7733 99.2565 53.6387C99.2565 53.5042 99.3591 53.4033 99.496 53.4033C99.6328 53.4033 99.7354 53.5042 99.7354 53.6387C99.7012 53.7733 99.5986 53.8742 99.496 53.8742Z" fill="#E93779"/>
<path d="M99.7705 54.3115C99.6337 54.3115 99.4969 54.177 99.4969 54.0425C99.4969 53.8743 99.5995 53.7734 99.7705 53.7734C99.9073 53.7734 100.044 53.908 100.044 54.0425C100.044 54.177 99.9073 54.3115 99.7705 54.3115Z" fill="#E93779"/>
<path d="M100.076 54.8153C99.9056 54.8153 99.769 54.6808 99.769 54.5126C99.769 54.3445 99.9056 54.21 100.076 54.21C100.247 54.21 100.384 54.3445 100.384 54.5126C100.384 54.6472 100.247 54.8153 100.076 54.8153Z" fill="#E93779"/>
<path d="M100.417 55.3542C100.212 55.3542 100.075 55.186 100.075 54.9842C100.075 54.7824 100.246 54.6143 100.417 54.6143C100.621 54.6143 100.758 54.7824 100.758 54.9842C100.758 55.186 100.621 55.3542 100.417 55.3542Z" fill="#E93779"/>
<path d="M100.862 55.9595C100.657 55.9595 100.452 55.7577 100.452 55.5559C100.452 55.3205 100.623 55.1523 100.862 55.1523C101.067 55.1523 101.272 55.3541 101.272 55.5559C101.272 55.7577 101.101 55.9595 100.862 55.9595Z" fill="#E93779"/>
<path d="M101.51 56.5306C101.271 56.5306 101.066 56.3288 101.066 56.0597C101.066 55.7907 101.271 55.5889 101.51 55.5889C101.749 55.5889 101.954 55.7907 101.954 56.0597C101.954 56.3288 101.749 56.5306 101.51 56.5306Z" fill="#E93779"/>
<path d="M105.233 53.8742C105.096 53.8742 104.993 53.7733 104.993 53.6387C104.993 53.5042 105.096 53.4033 105.233 53.4033C105.37 53.4033 105.472 53.5042 105.472 53.6387C105.472 53.7733 105.37 53.8742 105.233 53.8742Z" fill="#E93779"/>
<path d="M104.959 54.3115C104.822 54.3115 104.686 54.177 104.686 54.0425C104.686 53.8743 104.788 53.7734 104.959 53.7734C105.13 53.7734 105.233 53.908 105.233 54.0425C105.199 54.177 105.096 54.3115 104.959 54.3115Z" fill="#E93779"/>
<path d="M104.62 54.8153C104.449 54.8153 104.312 54.6808 104.312 54.5126C104.312 54.3445 104.449 54.21 104.62 54.21C104.79 54.21 104.927 54.3445 104.927 54.5126C104.927 54.6472 104.79 54.8153 104.62 54.8153Z" fill="#E93779"/>
<path d="M104.278 55.3542C104.073 55.3542 103.937 55.186 103.937 54.9842C103.937 54.7824 104.107 54.6143 104.278 54.6143C104.483 54.6143 104.62 54.7824 104.62 54.9842C104.654 55.186 104.483 55.3542 104.278 55.3542Z" fill="#E93779"/>
<path d="M103.832 55.9595C103.627 55.9595 103.422 55.7577 103.422 55.5559C103.422 55.3205 103.593 55.1523 103.832 55.1523C104.037 55.1523 104.242 55.3541 104.242 55.5559C104.242 55.7577 104.071 55.9595 103.832 55.9595Z" fill="#E93779"/>
<path d="M103.219 56.5306C102.98 56.5306 102.775 56.3288 102.775 56.0597C102.775 55.7907 102.98 55.5889 103.219 55.5889C103.458 55.5889 103.663 55.7907 103.663 56.0597C103.663 56.3288 103.458 56.5306 103.219 56.5306Z" fill="#E93779"/>
<path d="M102.366 57.0693C102.058 57.0693 101.819 56.8002 101.819 56.4975C101.819 56.1948 102.058 55.9258 102.366 55.9258C102.673 55.9258 102.912 56.1948 102.912 56.4975C102.912 56.8002 102.673 57.0693 102.366 57.0693Z" fill="#E93779"/>
<path d="M112.48 60.5528C112.324 61.333 107.935 62.7393 107.935 62.7393C107.935 62.7393 108.208 64.1341 108.043 65.4792C107.819 67.305 106.047 68.2358 106.128 70.4069C106.175 71.6678 109.996 79.1249 110.786 88.5139C111.577 97.9014 112.132 106.357 112.132 106.357C112.132 106.357 112.104 106.158 112.052 105.796V105.793C111.524 102.17 108.564 82.2959 107.122 82.5074C106.423 82.6108 106.28 93.9183 106.29 106.699C106.303 122.943 106.564 141.566 106.248 142.579C105.683 144.387 101.076 144.148 99.7772 143.681C98.4788 143.215 97.1192 142.739 95.3693 143.498C93.6195 144.255 91.6455 143.981 90.9845 143.981C88.3678 143.981 86.5087 142.361 86.5087 142.361C86.5087 142.361 98.7559 139.663 98.1911 134.123C97.6279 128.583 89.2708 92.6652 93.3393 79.8249C95.2909 73.6683 97.1789 71.7291 97.1229 70.3534C97.0659 68.9791 94.8227 66.3832 94.8435 65.2064C94.8578 64.3662 94.8435 62.6221 94.8435 62.6221L90.2154 59.4908C90.6305 57.3156 91.8302 56.8057 91.8302 56.8057C91.8302 56.8057 91.8366 56.8069 91.8471 56.8093C92.2064 56.8986 97.9635 58.3368 99.551 59.2407C101.188 60.1726 101.753 61.7766 101.753 61.7766C101.819 61.6989 103.977 59.2293 107.201 58.5408C110.476 57.8408 111.831 57.7236 111.831 57.7236C111.831 57.7236 112.956 58.1674 112.48 60.5528Z" fill="#F97CAA"/>
</g>
<path d="M84.3012 109.42C84.5307 109.42 84.7176 109.236 84.7176 109.01V108.2L83.375 109.42L84.3012 109.42Z" fill="#9BAFF3"/>
<path d="M84.7098 107.916C84.6928 107.866 84.6418 107.841 84.5908 107.841H83.5201C83.2312 107.841 83.0017 108.066 83.0017 108.35V109.294C83.0017 109.345 83.0272 109.386 83.0782 109.411C83.0952 109.42 83.1122 109.42 83.1292 109.42C83.1632 109.42 83.1887 109.411 83.2142 109.386L84.6843 108.05C84.7183 108.016 84.7353 107.966 84.7098 107.916V107.916Z" fill="#9BAFF3"/>
<path d="M84.3015 104.474H84.123V104.866C84.123 105.092 83.9361 105.276 83.7066 105.276H83.4432C83.2137 105.276 83.0268 105.092 83.0268 104.866L83.0268 104.474H80.9959V104.866C80.9959 105.092 80.8089 105.276 80.5795 105.276L80.3076 105.276C80.0781 105.276 79.8911 105.092 79.8911 104.866V104.474H79.7127C79.4833 104.474 79.2963 104.657 79.2963 104.883V105.418H84.7264V104.883C84.7179 104.657 84.531 104.474 84.3015 104.474L84.3015 104.474Z" fill="#9BAFF3"/>
<path d="M79.2963 109.01C79.2963 109.236 79.4833 109.42 79.7127 109.42H82.8994C82.8824 109.386 82.8655 109.345 82.8655 109.294L82.8654 108.35C82.8654 107.999 83.1543 107.707 83.5197 107.707H84.599C84.6415 107.707 84.684 107.715 84.7264 107.74V105.668H79.2963L79.2963 109.01Z" fill="#9BAFF3"/>
<path d="M80.308 105.142H80.5714C80.7244 105.142 80.8519 105.017 80.8519 104.866V104.315C80.8519 104.164 80.7244 104.039 80.5714 104.039H80.308C80.1551 104.039 80.0276 104.164 80.0276 104.315V104.866C80.0276 105.017 80.1551 105.142 80.308 105.142Z" fill="#9BAFF3"/>
<path d="M83.4435 105.142H83.7069C83.8598 105.142 83.9873 105.017 83.9873 104.866V104.315C83.9873 104.164 83.8599 104.039 83.7069 104.039H83.4435C83.2906 104.039 83.1631 104.164 83.1631 104.315V104.866C83.1546 105.017 83.282 105.142 83.4435 105.142Z" fill="#9BAFF3"/>
<path d="M80.0964 94.6265H85.0582C85.1312 94.6265 85.2042 94.5546 85.2042 94.4828V94.1235H79.9504V94.4828C79.914 94.5905 79.9869 94.6265 80.0964 94.6265ZM85.4231 90.3875C85.2042 90.3875 85.0218 90.5672 85.0218 90.7827C85.0218 90.8905 85.0582 90.9982 85.1312 91.0701L83.8907 92.2915L82.7233 90.2798C82.8327 90.2079 82.9422 90.0642 82.9422 89.9205C82.9422 89.705 82.7597 89.5254 82.5408 89.5254C82.3219 89.5254 82.1395 89.705 82.1395 89.9205C82.1395 90.0642 82.2125 90.2079 82.3584 90.2798L81.1909 92.2915L79.9504 91.0701C80.0599 90.9982 80.0964 90.8905 80.0964 90.7827C80.0964 90.5672 79.914 90.3875 79.6951 90.3875C79.4762 90.3875 79.2937 90.5672 79.2937 90.7827C79.2937 90.9982 79.4762 91.1778 79.6951 91.1778H79.7315L79.9504 93.908H85.2042L85.4231 91.1778H85.4596C85.6785 91.1778 85.8609 90.9982 85.8609 90.7827C85.8244 90.5672 85.6785 90.3875 85.4231 90.3875Z" fill="#9BAFF3"/>
<mask id="mask1_893_16036" style="mask-type:luminance" maskUnits="userSpaceOnUse" x="78" y="117" width="7" height="8">
<path d="M84.7421 117.729H78.1999V124.17H84.7421V117.729Z" fill="white"/>
</mask>
<g mask="url(#mask1_893_16036)">
<path d="M81.4718 122.282C82.2238 122.282 82.8254 122.874 82.8254 123.615V124.207H80.1559V123.615C80.1559 122.874 80.7575 122.282 81.4718 122.282ZM83.3894 123.022C83.9158 123.022 84.367 123.43 84.367 123.985V124.17H83.2014V123.578C83.2014 123.393 83.1638 123.208 83.1262 123.059C83.2014 123.059 83.3142 123.022 83.3894 123.022ZM79.5543 123.022C79.6671 123.022 79.7423 123.059 79.8551 123.059C79.8175 123.208 79.7799 123.393 79.7799 123.578V124.17H78.6143V123.985C78.6143 123.467 79.0279 123.022 79.5543 123.022ZM83.3894 121.542C83.803 121.542 84.1414 121.875 84.1414 122.282C84.1414 122.689 83.803 123.022 83.3894 123.022C83.2766 123.022 83.1638 122.985 83.051 122.948C82.9382 122.726 82.7878 122.504 82.5998 122.319C82.5998 122.282 82.5998 122.282 82.5998 122.245C82.6374 121.875 82.9758 121.542 83.3894 121.542ZM79.5543 121.542C79.9679 121.542 80.3063 121.875 80.3063 122.282C80.3063 122.319 80.3063 122.319 80.3063 122.356C80.1183 122.541 79.9679 122.726 79.8551 122.985C79.7423 123.022 79.6671 123.059 79.5167 123.059C79.1031 123.059 78.7647 122.726 78.7647 122.319C78.8023 121.875 79.1407 121.542 79.5543 121.542ZM81.4718 120.394C81.9982 120.394 82.4494 120.801 82.4494 121.357C82.4494 121.875 82.0358 122.319 81.4718 122.319C80.9455 122.319 80.4943 121.912 80.4943 121.357C80.5319 120.801 80.9455 120.394 81.4718 120.394ZM83.5774 119.024L83.9534 119.728L84.7806 119.839L84.1414 120.394L84.2918 121.171L83.5774 120.801L82.863 121.171L83.0134 120.394L82.4118 119.839L83.2014 119.728L83.5774 119.024ZM79.4039 119.024L79.7799 119.728L80.5695 119.839L80.0055 120.394L80.1559 121.171L79.4415 120.801L78.7271 121.171L78.8775 120.394L78.2383 119.839L79.0655 119.728L79.4039 119.024ZM81.4718 117.729L81.8478 118.432L82.6374 118.543L82.0358 119.098L82.1862 119.876L81.4718 119.506L80.7575 119.876L80.9079 119.098L80.3063 118.543L81.0959 118.432L81.4718 117.729Z" fill="#9BAFF3"/>
</g>
<path d="M169.594 37.583C169.594 37.583 170.743 37.989 171.004 38.5689C171.217 39.0328 172.426 38.9749 172.651 39.9027C172.77 40.3783 173.173 40.7379 173.67 40.761C174.927 40.819 176.894 41.2598 177.415 43.3244C177.818 44.9018 177.048 45.5977 176.195 45.8877C175.567 46.108 175.211 46.7576 175.401 47.3839C175.59 47.9754 175.472 48.7061 174.453 49.3673C172.165 50.8635 169.309 46.8968 169.309 46.8968L168.041 39.6128L169.594 37.583Z" fill="#1D1757"/>
<path d="M180.214 83.5387L180.368 84.803C180.404 85.0466 180.593 85.2322 180.83 85.2553C181.245 85.3017 181.909 85.3481 182.561 85.2785C182.845 85.2438 183.035 84.9654 182.94 84.6986C182.786 84.2115 182.49 83.4807 182.075 83.0516H180.641C180.392 83.0516 180.19 83.2836 180.214 83.5387Z" fill="#819AED"/>
<path d="M168.989 68.7266L168.752 70.1184C168.752 70.1184 169.558 78.1447 169.712 81.3575C169.736 81.8563 169.606 82.355 169.333 82.7842L167.923 85.0227L171.502 82.9582L171.573 82.529L170.992 81.7403L171.762 72.7397C171.81 72.2062 171.691 71.6842 171.442 71.2087L170.708 69.8516L168.989 68.7266Z" fill="#D68A88"/>
<path d="M167.673 85.3581H168.811C169.024 85.3581 169.226 85.2653 169.356 85.0913C169.711 84.639 170.446 83.7575 170.802 83.7343C171.276 83.6995 171.217 85.3581 171.217 85.3581H171.477L171.809 83.3052C171.892 82.7832 171.631 82.2729 171.157 82.0293C171.157 82.0293 171.051 82.818 170.458 83.166C169.866 83.5139 168.064 84.755 168.064 84.755C168.064 84.755 167.839 84.7202 167.602 84.7666C167.258 84.8362 167.317 85.3581 167.673 85.3581Z" fill="#819AED"/>
<path d="M173.898 69.3869C173.898 69.3869 178.639 78.1903 179.397 80.2085C180.156 82.2151 180.416 83.8969 180.428 84.0593C180.44 84.3028 180.76 84.5464 181.625 84.5464C182.076 84.5464 182.289 84.3724 182.407 84.1984C182.502 84.0477 182.502 83.8737 182.431 83.7229C182.159 83.1778 181.282 81.438 180.962 80.6493C180.582 79.7098 179.753 75.4414 179.291 73.9568C178.84 72.4722 178.319 70.8716 176.34 69.3869C176.34 69.3869 174.977 68.0879 173.898 69.3869Z" fill="#D68A88"/>
<path d="M170.899 54.9603C169.679 49.8801 172.772 47.0152 172.772 47.0152C170.816 45.1826 167.249 44.3359 167.249 44.3359C167.249 44.3359 163.848 46.7717 164.251 48.6738C164.488 49.7873 166.645 55.3663 166.645 55.3663C166.645 55.3663 168.636 56.2826 170.899 54.9603Z" fill="url(#paint0_linear_893_16036)"/>
<path d="M173.613 57.4622C173.115 55.9892 170.899 54.9453 170.899 54.9453C168.635 56.2792 166.644 55.3513 166.644 55.3513C166.644 55.3513 166.194 57.0215 166.502 58.5757C166.81 60.1299 168.742 70.1164 168.742 70.1164C171.788 70.7195 176.481 69.5133 176.481 69.5133C174.549 66.138 174.11 58.9353 173.613 57.4622Z" fill="url(#paint1_linear_893_16036)"/>
<path d="M169.478 40.9833L170.474 45.356C170.569 45.7387 170.213 45.6807 169.81 45.5995C169.158 45.4835 168.317 45.2284 168.033 44.7296C168.009 44.6832 167.985 44.6252 167.985 44.5673L167.559 41.5284C167.523 41.2848 167.653 41.0528 167.89 40.9601L168.72 40.6005C169.028 40.4729 169.396 40.6469 169.478 40.9833Z" fill="#C17D7B"/>
<path d="M172.82 47.0722C172.82 47.0722 177.335 55.0289 167.167 54.5881C167.167 54.5881 166.918 52.9063 167.024 53.2079C167.024 53.2079 167.297 53.3587 167.498 53.3703C168.743 53.4862 173.258 53.7066 170.864 48.0001C170.793 47.8377 170.888 47.6521 171.042 47.5593C171.528 47.2925 172.097 46.8982 172.82 47.0722Z" fill="#C17D7B"/>
<path d="M166.395 38.2095C166.395 38.2095 165.661 39.2302 165.886 41.0628C166.111 42.8954 167.035 43.2318 167.735 42.9302C168.434 42.6286 169.37 42.0371 169.797 40.5061C170.212 38.975 167.379 36.9221 166.395 38.2095Z" fill="#D68A88"/>
<path d="M168.635 40.1702C168.635 40.1702 168.066 37.6417 166.182 38.7668L165.933 39.3351C165.933 39.3351 164.511 38.6044 165.293 37.3749C166.075 36.1339 167.675 35.7859 169.109 36.969C170.543 38.1636 171.254 39.1031 170.911 40.3094C170.567 41.5157 169.725 40.9009 169.725 40.9009C169.725 40.9009 169.737 39.973 169.334 39.7179C168.931 39.4743 168.801 40.147 168.801 40.147L168.635 40.1702Z" fill="#1D1757"/>
<path d="M168.612 40.6006C168.612 40.6006 168.315 39.3015 169.086 39.4175C169.868 39.5335 169.299 40.6585 169.062 41.0529L168.612 40.6006Z" fill="#D68A88"/>
<path d="M167.771 56.8957L165.425 48.8578C165.401 48.765 165.318 48.6954 165.223 48.6838C164.797 48.6374 163.564 48.4982 162.142 48.3823C160.424 48.2431 158.432 48.1271 157.235 48.2199C157.07 48.2315 156.963 48.4054 157.034 48.5562C157.71 49.9017 160.495 55.3531 161.893 57.1509C161.941 57.2089 162.012 57.2437 162.083 57.2437L167.546 57.1973C167.712 57.1973 167.819 57.0465 167.771 56.8957Z" fill="#7D97F4"/>
<path d="M161.893 47.6857L160.187 47.4074C160.092 47.3958 160.021 47.477 160.044 47.5581L160.21 48.0569C160.222 48.1033 160.27 48.1265 160.305 48.1381L161.941 48.3469C162.024 48.3585 162.095 48.2773 162.071 48.1961L161.964 47.7553C161.976 47.7321 161.941 47.6973 161.893 47.6857Z" fill="url(#paint2_linear_893_16036)"/>
<path d="M163.175 49.0998L163.033 48.3807C163.021 48.3111 162.962 48.2531 162.879 48.2415L159.43 47.9052C159.311 47.8936 159.217 47.998 159.252 48.114L159.465 49.0071C159.477 49.0766 159.548 49.1346 159.62 49.1346L162.985 49.297C163.104 49.297 163.187 49.2042 163.175 49.0998Z" fill="url(#paint3_linear_893_16036)"/>
<path d="M167.274 54.6572C167.274 54.6572 167.511 53.6945 167.417 53.3466C167.322 52.9986 167.132 52.5695 166.504 52.6622C165.876 52.755 165.141 53.0218 165.141 53.0218C165.141 53.0218 165.177 53.4626 165.651 53.3234L165.355 53.5437C165.355 53.5437 165.402 53.9033 165.793 53.7061L165.52 53.9961C165.52 53.9961 165.698 54.2861 165.983 54.1005C166.291 53.9265 166.433 54.7732 167.274 54.6572Z" fill="#C17D7B"/>
<path d="M164.686 149.909C164.946 149.909 165.148 149.68 165.148 149.383V86.5221C165.148 86.2254 164.946 85.9961 164.686 85.9961C164.425 85.9961 164.223 86.2254 164.223 86.5221V149.383C164.223 149.68 164.425 149.909 164.686 149.909Z" fill="#CCD5F1"/>
<path d="M177.198 149.909C177.459 149.909 177.661 149.68 177.661 149.383V86.5221C177.661 86.2254 177.459 85.9961 177.198 85.9961C176.938 85.9961 176.736 86.2254 176.736 86.5221V149.383C176.736 149.68 176.95 149.909 177.198 149.909Z" fill="#CCD5F1"/>
<path d="M207.978 150.312C208.037 150.312 208.097 150.299 208.156 150.272C208.393 150.164 208.5 149.854 208.405 149.584L184.773 86.3322C184.678 86.0625 184.406 85.9411 184.169 86.049C183.932 86.1569 183.825 86.4671 183.92 86.7368L207.551 149.989C207.623 150.191 207.788 150.312 207.978 150.312Z" fill="#CCD5F1"/>
<path d="M193.377 150.312C193.437 150.312 193.496 150.299 193.555 150.272C193.792 150.164 193.899 149.854 193.804 149.584L170.172 86.3322C170.078 86.0625 169.805 85.9411 169.568 86.049C169.331 86.1569 169.224 86.4671 169.319 86.7368L192.951 149.989C193.022 150.191 193.2 150.312 193.377 150.312Z" fill="#CCD5F1"/>
<path d="M163.962 87.1027H185.614C185.97 87.1027 186.266 86.7655 186.266 86.3609C186.266 85.9563 185.97 85.6191 185.614 85.6191H163.962C163.606 85.6191 163.31 85.9563 163.31 86.3609C163.31 86.779 163.606 87.1027 163.962 87.1027Z" fill="#CCD5F1"/>
<path d="M173.313 96.7316H187.949C188.21 96.7316 188.411 96.5024 188.411 96.2057C188.411 95.909 188.21 95.6797 187.949 95.6797H173.313C173.052 95.6797 172.851 95.909 172.851 96.2057C172.851 96.4889 173.064 96.7316 173.313 96.7316Z" fill="#CCD5F1"/>
<path d="M177.804 107.644H192.44V108.696H177.804V107.644Z" fill="#CCD5F1"/>
<path d="M182.154 119.605H196.79V120.657H182.154V119.605Z" fill="#CCD5F1"/>
<path d="M186.716 132.619H201.352C201.613 132.619 201.814 132.39 201.814 132.093C201.814 131.797 201.613 131.567 201.352 131.567H186.716C186.455 131.567 186.253 131.797 186.253 132.093C186.253 132.377 186.455 132.619 186.716 132.619Z" fill="#CCD5F1"/>
<path d="M191.128 144.582H205.764C206.025 144.582 206.226 144.353 206.226 144.056C206.226 143.76 206.025 143.53 205.764 143.53H191.128C190.867 143.53 190.665 143.76 190.665 144.056C190.665 144.353 190.867 144.582 191.128 144.582Z" fill="#CCD5F1"/>
<defs>
<linearGradient id="paint0_linear_893_16036" x1="172.772" y1="50.0057" x2="164.218" y2="50.0057" gradientUnits="userSpaceOnUse">
<stop stop-color="#BDCCED"/>
<stop offset="0.1841" stop-color="#D5E9FD"/>
<stop offset="0.3992" stop-color="#D7E2F9"/>
<stop offset="0.635417" stop-color="#D5E0F7"/>
<stop offset="0.8695" stop-color="#B4C9F2"/>
<stop offset="1" stop-color="#C1CEE6"/>
</linearGradient>
<linearGradient id="paint1_linear_893_16036" x1="176.481" y1="62.6153" x2="166.394" y2="62.6153" gradientUnits="userSpaceOnUse">
<stop stop-color="#BDCCED"/>
<stop offset="0.1841" stop-color="#D5E9FD"/>
<stop offset="0.3992" stop-color="#D7E2F9"/>
<stop offset="0.635417" stop-color="#D5E0F7"/>
<stop offset="0.8695" stop-color="#B4C9F2"/>
<stop offset="1" stop-color="#C1CEE6"/>
</linearGradient>
<linearGradient id="paint2_linear_893_16036" x1="162.097" y1="47.8818" x2="160.042" y2="47.8818" gradientUnits="userSpaceOnUse">
<stop stop-color="#DAE3FE"/>
<stop offset="1" stop-color="#E9EFFD"/>
</linearGradient>
<linearGradient id="paint3_linear_893_16036" x1="163.172" y1="48.5983" x2="159.249" y2="48.5983" gradientUnits="userSpaceOnUse">
<stop stop-color="#DAE3FE"/>
<stop offset="1" stop-color="#E9EFFD"/>
</linearGradient>
</defs>
</svg>
