<svg width="18" height="18" viewBox="0 0 18 18" fill="none" xmlns="http://www.w3.org/2000/svg">
<path d="M4.50979 0C2.02444 0 0 2.02457 0 4.50989V13.4901C0 15.9754 2.02444 18 4.50979 18H13.4901C15.9754 18 18 15.9754 18 13.4901V4.50989C18 2.02457 15.9754 0 13.4901 0H4.50979ZM9.17712 3.80375C8.97749 3.80664 8.78716 3.88866 8.64797 4.0318C8.50877 4.17494 8.4321 4.36748 8.43479 4.56712V8.19743H4.80504C4.70461 8.19498 4.60469 8.21265 4.51119 8.2494C4.41768 8.28614 4.33247 8.34123 4.26057 8.4114C4.18867 8.48157 4.13154 8.56541 4.09253 8.65799C4.05352 8.75057 4.03342 8.85003 4.03342 8.95049C4.03342 9.05096 4.05352 9.15041 4.09253 9.24299C4.13154 9.33557 4.18867 9.41942 4.26057 9.48959C4.33247 9.55976 4.41768 9.61485 4.51119 9.65159C4.60469 9.68834 4.70461 9.70601 4.80504 9.70356H8.43479V13.3333C8.43476 13.4322 8.45423 13.5302 8.49208 13.6217C8.52994 13.7131 8.58543 13.7962 8.6554 13.8662C8.72536 13.9362 8.80843 13.9917 8.89986 14.0296C8.99128 14.0674 9.08927 14.0869 9.18823 14.0869C9.28719 14.0869 9.38519 14.0674 9.47661 14.0296C9.56804 13.9917 9.6511 13.9362 9.72107 13.8662C9.79104 13.7962 9.84653 13.7131 9.88438 13.6217C9.92223 13.5302 9.9417 13.4322 9.94168 13.3333V9.70356H13.5713C13.6717 9.70601 13.7716 9.68834 13.8651 9.65159C13.9586 9.61485 14.0438 9.55976 14.1157 9.48959C14.1876 9.41942 14.2448 9.33557 14.2838 9.24299C14.3228 9.15041 14.3429 9.05096 14.3429 8.95049C14.3429 8.85003 14.3228 8.75057 14.2838 8.65799C14.2448 8.56541 14.1876 8.48157 14.1157 8.4114C14.0438 8.34123 13.9586 8.28614 13.8651 8.2494C13.7716 8.21265 13.6717 8.19498 13.5713 8.19743H9.94168V4.56712C9.94303 4.4664 9.92418 4.36643 9.88622 4.27312C9.84827 4.17981 9.79198 4.09507 9.7207 4.02389C9.64941 3.95272 9.56458 3.89656 9.47121 3.85875C9.37785 3.82094 9.27785 3.80224 9.17712 3.80375Z" fill="black"/>
<path d="M4.625 9.625H8.375V13.375C8.375 13.7197 8.65531 14 9 14C9.34469 14 9.625 13.7197 9.625 13.375V9.625H13.375C13.7197 9.625 14 9.34469 14 9C14 8.65531 13.7197 8.375 13.375 8.375H9.625V4.625C9.625 4.28031 9.34469 4 9 4C8.65531 4 8.375 4.28031 8.375 4.625V8.375H4.625C4.28031 8.375 4 8.65531 4 9C4 9.34469 4.28031 9.625 4.625 9.625Z" fill="white"/>
</svg>
