<svg width="10" height="7" viewBox="0 0 10 7" fill="none" xmlns="http://www.w3.org/2000/svg">
<path d="M9.99999 1.69195V0.674725C9.9995 0.495846 9.92829 0.324593 9.8019 0.198221C9.6755 0.0717012 9.50414 0.000495143 9.32539 0H5.46643V6.59833H9.32539C9.50403 6.59833 9.6754 6.5275 9.80177 6.40135C9.92829 6.2752 9.9995 6.10408 9.99999 5.92544V4.9081C9.56427 4.92251 9.14131 4.75952 8.82805 4.45647C8.51477 4.15329 8.33773 3.73603 8.33773 3.30005C8.33773 2.86407 8.51476 2.44679 8.82805 2.14375C9.14133 1.84056 9.56427 1.67759 9.99999 1.692V1.69195Z" fill="#707070"/>
<path d="M0 0.674888V1.69211C0.561751 1.71071 1.07314 2.0213 1.34887 2.51111C1.62458 3.00105 1.62458 3.59929 1.34887 4.08923C1.07316 4.57917 0.561782 4.88963 0 4.90824V5.92558C0 6.10372 0.0705908 6.27458 0.196373 6.40073C0.322278 6.52688 0.4929 6.59796 0.671048 6.59846H4.53348V0.00012207H0.671048C0.492787 0.00110763 0.322051 0.0725613 0.196373 0.198958C0.0705908 0.325478 0 0.496473 0 0.674863V0.674888Z" fill="#707070"/>
</svg>
