<svg width="76" height="74" viewBox="0 0 76 74" fill="none" xmlns="http://www.w3.org/2000/svg">
<mask id="mask0_20098_179376" style="mask-type:alpha" maskUnits="userSpaceOnUse" x="0" y="0" width="76" height="74">
<path d="M8.11 0.5H67.89C72.0929 0.5 75.5 3.90711 75.5 8.11V65.89C75.5 70.0929 72.0929 73.5 67.89 73.5H8.11C3.90711 73.5 0.5 70.0929 0.5 65.89V8.11C0.5 3.90711 3.90711 0.5 8.11 0.5Z" fill="white" stroke="#FAD3E2"/>
</mask>
<g mask="url(#mask0_20098_179376)">
<path opacity="0.24" d="M31.6669 -31L37.6174 42.8428L43.5678 -31H31.6669ZM15.6773 -23.6423L10.3141 -19.8748L37.6174 42.8428L20.9961 -27.4652L15.6773 -23.6423ZM-5.59799 3.59444L37.6174 42.8428L1.80403 -9.99069L-5.59799 3.59444ZM-11.6703 26.4099L-13 34.8868L37.6174 42.8428L-10.3517 17.9331L-11.6703 26.4099ZM-11.6703 59.2758L-10.3517 67.7526L37.6174 42.8428L-13 50.7989L-11.6703 59.2758ZM-1.90806 88.8838L1.80403 95.6764L37.6174 42.8428L-5.59799 82.0912L-1.90806 88.8838ZM15.6773 109.328L20.9961 113.151L37.6174 42.8428L10.3141 105.605L15.6773 109.328ZM43.5678 116.641L37.6174 42.8428L31.6669 116.686L43.5678 116.641ZM59.5575 109.328L64.9206 105.561L37.6174 42.8428L54.2386 113.151L59.5575 109.328ZM77.1428 88.8838L80.8327 82.0912L37.6174 42.8428L73.4307 95.6764L77.1428 88.8838ZM85.5864 67.7526L86.905 59.2758L88.2347 50.7989L37.6174 42.8428L85.5864 67.7526ZM86.905 26.4099L85.5864 17.9331L37.6174 42.8428L88.2347 34.8868L86.905 26.4099ZM73.4307 -9.99069L37.6174 42.8428L80.8327 3.59444L73.4307 -9.99069ZM59.5575 -23.6423L54.2386 -27.4652L37.6174 42.8428L64.9206 -19.9191L59.5575 -23.6423Z" fill="url(#paint0_linear_20098_179376)"/>
</g>
<path d="M13.1669 30.5095H7.56482C7.04426 30.5119 6.52955 30.3979 6.0572 30.1755C5.58485 29.9531 5.16641 29.6277 4.83156 29.2225C4.49672 28.8173 4.25367 28.3422 4.11964 27.8308C3.98561 27.3195 3.96389 26.7844 4.05602 26.2636L5.86026 15.5625C5.99511 14.7149 6.42211 13.9437 7.06493 13.3868C7.70774 12.8298 8.52446 12.5235 9.36906 12.5225H58.8013C59.3183 12.5226 59.8291 12.6373 60.2981 12.8585C60.7671 13.0797 61.1831 13.4021 61.517 13.8033C61.851 14.2046 62.0949 14.675 62.2319 15.1818C62.3689 15.6886 62.3956 16.2197 62.3101 16.738L60.7451 26.0406" stroke="url(#paint1_linear_20098_179376)" stroke-miterlimit="10" stroke-linecap="round"/>
<path d="M68.4502 28.6543H19.008C18.164 28.6536 17.3476 28.9596 16.706 29.5171C16.0644 30.0745 15.6399 30.8467 15.5092 31.6944L13.7049 42.3853C13.618 42.9035 13.6432 43.4349 13.7789 43.9422C13.9145 44.4495 14.1573 44.9207 14.4904 45.323C14.8234 45.7252 15.2387 46.0488 15.7073 46.2712C16.1759 46.4937 16.6866 46.6096 17.2038 46.611H66.646C67.49 46.6117 68.3064 46.3057 68.948 45.7482C69.5896 45.1908 70.014 44.4185 70.1448 43.5709L71.9491 32.88C72.036 32.3617 72.0107 31.8304 71.8751 31.3231C71.7394 30.8157 71.4966 30.3445 71.1636 29.9423C70.8305 29.5401 70.4153 29.2165 69.9467 28.994C69.4781 28.7716 68.9674 28.6557 68.4502 28.6543Z" fill="url(#paint2_linear_20098_179376)"/>
<path d="M11.3036 40.1871L9.05078 39.9439L11.7023 34.8965L11.3036 40.1871Z" fill="url(#paint3_linear_20098_179376)"/>
<path d="M64.5734 19.1674L66.8262 19.4106L64.1746 24.458L64.5734 19.1674Z" fill="url(#paint4_linear_20098_179376)"/>
<path d="M7.3161 38.616L6.6582 36.5995L11.3831 32.4346L7.3161 38.616Z" fill="url(#paint5_linear_20098_179376)"/>
<path d="M68.5608 20.7394L69.2188 22.756L64.4938 26.9209L68.5608 20.7394Z" fill="url(#paint6_linear_20098_179376)"/>
<path d="M68.6798 14.3514C69.3184 14.3514 69.8361 13.825 69.8361 13.1757C69.8361 12.5264 69.3184 12 68.6798 12C68.0411 12 67.5234 12.5264 67.5234 13.1757C67.5234 13.825 68.0411 14.3514 68.6798 14.3514Z" stroke="url(#paint7_linear_20098_179376)" stroke-width="0.5" stroke-miterlimit="10"/>
<path d="M8.15436 47.9998C8.79297 47.9998 9.31067 47.4734 9.31067 46.8241C9.31067 46.1748 8.79297 45.6484 8.15436 45.6484C7.51574 45.6484 6.99805 46.1748 6.99805 46.8241C6.99805 47.4734 7.51574 47.9998 8.15436 47.9998Z" stroke="url(#paint8_linear_20098_179376)" stroke-width="0.5" stroke-miterlimit="10"/>
<path d="M16.104 23.0093C16.1847 23.0093 16.2543 23.0404 16.313 23.1028L16.896 23.7353C16.5733 24.1349 16.1755 24.4411 15.7025 24.6538C15.2332 24.8664 14.6685 24.9728 14.0085 24.9728C13.4182 24.9728 12.8865 24.8719 12.4135 24.6703C11.9442 24.4686 11.5427 24.1881 11.209 23.8288C10.8753 23.4694 10.6187 23.0404 10.439 22.5418C10.263 22.0431 10.175 21.4986 10.175 20.9083C10.175 20.3106 10.274 19.7643 10.472 19.2693C10.67 18.7706 10.9487 18.3416 11.308 17.9823C11.6673 17.6229 12.0963 17.3443 12.595 17.1463C13.0973 16.9446 13.651 16.8438 14.256 16.8438C14.8463 16.8438 15.3615 16.9391 15.8015 17.1298C16.2452 17.3168 16.6247 17.5661 16.94 17.8778L16.445 18.5653C16.4157 18.6093 16.3772 18.6478 16.3295 18.6808C16.2855 18.7138 16.2232 18.7303 16.1425 18.7303C16.0582 18.7303 15.972 18.6973 15.884 18.6313C15.796 18.5653 15.6842 18.4938 15.5485 18.4168C15.4128 18.3398 15.2405 18.2683 15.0315 18.2023C14.8262 18.1363 14.564 18.1033 14.245 18.1033C13.871 18.1033 13.5263 18.1693 13.211 18.3013C12.8993 18.4296 12.6298 18.6148 12.4025 18.8568C12.1788 19.0988 12.0028 19.3939 11.8745 19.7423C11.7498 20.0869 11.6875 20.4756 11.6875 20.9083C11.6875 21.3556 11.7498 21.7534 11.8745 22.1018C12.0028 22.4501 12.1752 22.7434 12.3915 22.9818C12.6078 23.2201 12.8627 23.4034 13.156 23.5318C13.4493 23.6564 13.7647 23.7188 14.102 23.7188C14.3037 23.7188 14.4852 23.7078 14.6465 23.6858C14.8115 23.6638 14.9618 23.6289 15.0975 23.5813C15.2368 23.5336 15.367 23.4731 15.488 23.3998C15.6127 23.3228 15.7355 23.2293 15.8565 23.1193C15.8932 23.0863 15.9317 23.0606 15.972 23.0423C16.0123 23.0203 16.0563 23.0093 16.104 23.0093ZM25.6454 20.9083C25.6454 21.4913 25.5482 22.0321 25.3539 22.5308C25.1595 23.0258 24.8864 23.4548 24.5344 23.8178C24.1824 24.1808 23.7589 24.4649 23.2639 24.6703C22.7689 24.8719 22.2207 24.9728 21.6194 24.9728C21.018 24.9728 20.468 24.8719 19.9694 24.6703C19.4744 24.4649 19.049 24.1808 18.6934 23.8178C18.3414 23.4548 18.0682 23.0258 17.8739 22.5308C17.6795 22.0321 17.5824 21.4913 17.5824 20.9083C17.5824 20.3253 17.6795 19.7863 17.8739 19.2913C18.0682 18.7926 18.3414 18.3618 18.6934 17.9988C19.049 17.6358 19.4744 17.3534 19.9694 17.1518C20.468 16.9464 21.018 16.8438 21.6194 16.8438C22.2207 16.8438 22.7689 16.9464 23.2639 17.1518C23.7589 17.3571 24.1824 17.6413 24.5344 18.0043C24.8864 18.3636 25.1595 18.7926 25.3539 19.2913C25.5482 19.7863 25.6454 20.3253 25.6454 20.9083ZM24.1274 20.9083C24.1274 20.4719 24.0687 20.0814 23.9514 19.7368C23.8377 19.3884 23.6727 19.0933 23.4564 18.8513C23.24 18.6093 22.976 18.4241 22.6644 18.2958C22.3564 18.1674 22.008 18.1033 21.6194 18.1033C21.2307 18.1033 20.8805 18.1674 20.5689 18.2958C20.2572 18.4241 19.9914 18.6093 19.7714 18.8513C19.555 19.0933 19.3882 19.3884 19.2709 19.7368C19.1535 20.0814 19.0949 20.4719 19.0949 20.9083C19.0949 21.3446 19.1535 21.7369 19.2709 22.0853C19.3882 22.4299 19.555 22.7233 19.7714 22.9653C19.9914 23.2036 20.2572 23.3869 20.5689 23.5153C20.8805 23.6436 21.2307 23.7078 21.6194 23.7078C22.008 23.7078 22.3564 23.6436 22.6644 23.5153C22.976 23.3869 23.24 23.2036 23.4564 22.9653C23.6727 22.7233 23.8377 22.4299 23.9514 22.0853C24.0687 21.7369 24.1274 21.3446 24.1274 20.9083ZM30.8077 21.5848C30.8701 21.7021 30.9269 21.8249 30.9782 21.9533C31.0332 22.0779 31.0864 22.2044 31.1377 22.3328C31.1891 22.2008 31.2422 22.0706 31.2972 21.9423C31.3522 21.8139 31.4109 21.6911 31.4732 21.5738L33.8272 17.1683C33.8566 17.1133 33.8859 17.0693 33.9152 17.0363C33.9482 17.0033 33.9831 16.9794 34.0197 16.9648C34.0601 16.9501 34.1041 16.9409 34.1517 16.9373C34.1994 16.9336 34.2562 16.9318 34.3222 16.9318H35.4387V24.8848H34.1352V19.7478C34.1352 19.6524 34.1371 19.5479 34.1407 19.4343C34.1481 19.3206 34.1572 19.2051 34.1682 19.0878L31.7647 23.5978C31.7097 23.7004 31.6382 23.7811 31.5502 23.8398C31.4622 23.8948 31.3596 23.9223 31.2422 23.9223H31.0387C30.9214 23.9223 30.8187 23.8948 30.7307 23.8398C30.6427 23.7811 30.5712 23.7004 30.5162 23.5978L28.0797 19.0713C28.0944 19.1923 28.1036 19.3114 28.1072 19.4288C28.1146 19.5424 28.1182 19.6488 28.1182 19.7478V24.8848H26.8147V16.9318H27.9312C27.9972 16.9318 28.0541 16.9336 28.1017 16.9373C28.1494 16.9409 28.1916 16.9501 28.2282 16.9648C28.2686 16.9794 28.3052 17.0033 28.3382 17.0363C28.3712 17.0693 28.4024 17.1133 28.4317 17.1683L30.8077 21.5848ZM38.7078 24.8848H37.2228V16.9318H38.7078V24.8848ZM41.2758 16.9318C41.3418 16.9318 41.3968 16.9354 41.4408 16.9428C41.4848 16.9464 41.5233 16.9574 41.5563 16.9758C41.5929 16.9904 41.6278 17.0143 41.6608 17.0473C41.6938 17.0766 41.7304 17.1169 41.7708 17.1683L45.9453 22.4868C45.9306 22.3584 45.9196 22.2338 45.9123 22.1128C45.9086 21.9881 45.9068 21.8726 45.9068 21.7663V16.9318H47.2103V24.8848H46.4458C46.3284 24.8848 46.2313 24.8664 46.1543 24.8298C46.0773 24.7931 46.0021 24.7271 45.9288 24.6318L41.7708 19.3353C41.7818 19.4526 41.7891 19.5699 41.7928 19.6873C41.8001 19.8009 41.8038 19.9054 41.8038 20.0008V24.8848H40.5003V16.9318H41.2758ZM52.4667 23.7958C52.8004 23.7958 53.0901 23.7664 53.3357 23.7078C53.5851 23.6454 53.8216 23.5611 54.0452 23.4548V22.0083H53.0497C52.9544 22.0083 52.8792 21.9826 52.8242 21.9313C52.7692 21.8763 52.7417 21.8103 52.7417 21.7333V20.8973H55.3872V24.1148C55.1856 24.2614 54.9747 24.3898 54.7547 24.4998C54.5384 24.6061 54.3056 24.6941 54.0562 24.7638C53.8106 24.8334 53.5466 24.8848 53.2642 24.9178C52.9819 24.9544 52.6776 24.9728 52.3512 24.9728C51.7719 24.9728 51.2384 24.8719 50.7507 24.6703C50.2631 24.4686 49.8414 24.1881 49.4857 23.8288C49.1301 23.4694 48.8514 23.0404 48.6497 22.5418C48.4517 22.0431 48.3527 21.4986 48.3527 20.9083C48.3527 20.3106 48.4499 19.7624 48.6442 19.2638C48.8386 18.7651 49.1136 18.3361 49.4692 17.9768C49.8286 17.6174 50.2631 17.3388 50.7727 17.1408C51.2824 16.9428 51.8544 16.8438 52.4887 16.8438C53.1377 16.8438 53.6987 16.9409 54.1717 17.1353C54.6484 17.3259 55.0517 17.5753 55.3817 17.8833L54.9527 18.5543C54.8684 18.6899 54.7566 18.7578 54.6172 18.7578C54.5292 18.7578 54.4394 18.7284 54.3477 18.6698C54.2304 18.6001 54.1094 18.5304 53.9847 18.4608C53.8637 18.3911 53.7281 18.3306 53.5777 18.2793C53.4311 18.2279 53.2642 18.1858 53.0772 18.1528C52.8939 18.1198 52.6812 18.1033 52.4392 18.1033C52.0469 18.1033 51.6912 18.1693 51.3722 18.3013C51.0569 18.4333 50.7874 18.6221 50.5637 18.8678C50.3401 19.1134 50.1677 19.4086 50.0467 19.7533C49.9257 20.0979 49.8652 20.4829 49.8652 20.9083C49.8652 21.3666 49.9294 21.7754 50.0577 22.1348C50.1861 22.4904 50.3657 22.7911 50.5967 23.0368C50.8277 23.2824 51.1027 23.4713 51.4217 23.6033C51.7407 23.7316 52.0891 23.7958 52.4667 23.7958Z" fill="#F872A1"/>
<path d="M31.6617 35.222C31.6214 35.3027 31.5737 35.3595 31.5187 35.3925C31.4674 35.4255 31.405 35.442 31.3317 35.442C31.2584 35.442 31.1759 35.4145 31.0842 35.3595C30.9925 35.3008 30.8844 35.2367 30.7597 35.167C30.635 35.0973 30.4884 35.035 30.3197 34.98C30.1547 34.9213 29.9585 34.892 29.7312 34.892C29.5259 34.892 29.3462 34.9177 29.1922 34.969C29.0419 35.0167 28.9135 35.0845 28.8072 35.1725C28.7045 35.2605 28.6275 35.3668 28.5762 35.4915C28.5249 35.6125 28.4992 35.7463 28.4992 35.893C28.4992 36.08 28.5505 36.2358 28.6532 36.3605C28.7595 36.4852 28.8989 36.5915 29.0712 36.6795C29.2435 36.7675 29.4397 36.8463 29.6597 36.916C29.8797 36.9857 30.1034 37.0608 30.3307 37.1415C30.5617 37.2185 30.7872 37.3102 31.0072 37.4165C31.2272 37.5192 31.4234 37.6512 31.5957 37.8125C31.768 37.9702 31.9055 38.1645 32.0082 38.3955C32.1145 38.6265 32.1677 38.907 32.1677 39.237C32.1677 39.5963 32.1054 39.9337 31.9807 40.249C31.8597 40.5607 31.68 40.8338 31.4417 41.0685C31.207 41.2995 30.9192 41.4828 30.5782 41.6185C30.2372 41.7505 29.8467 41.8165 29.4067 41.8165C29.1537 41.8165 28.9044 41.7908 28.6587 41.7395C28.413 41.6918 28.1765 41.6222 27.9492 41.5305C27.7255 41.4388 27.5147 41.3288 27.3167 41.2005C27.1224 41.0722 26.9482 40.9292 26.7942 40.7715L27.2232 40.062C27.2635 40.0107 27.3112 39.9685 27.3662 39.9355C27.4249 39.8988 27.489 39.8805 27.5587 39.8805C27.6504 39.8805 27.7494 39.919 27.8557 39.996C27.962 40.0693 28.0867 40.1518 28.2297 40.2435C28.3764 40.3352 28.5469 40.4195 28.7412 40.4965C28.9392 40.5698 29.1757 40.6065 29.4507 40.6065C29.8724 40.6065 30.1987 40.5075 30.4297 40.3095C30.6607 40.1078 30.7762 39.82 30.7762 39.446C30.7762 39.237 30.723 39.0665 30.6167 38.9345C30.514 38.8025 30.3765 38.6925 30.2042 38.6045C30.0319 38.5128 29.8357 38.4358 29.6157 38.3735C29.3957 38.3112 29.172 38.2433 28.9447 38.17C28.7174 38.0967 28.4937 38.0087 28.2737 37.906C28.0537 37.8033 27.8575 37.6695 27.6852 37.5045C27.5129 37.3395 27.3735 37.1342 27.2672 36.8885C27.1645 36.6392 27.1132 36.333 27.1132 35.97C27.1132 35.6803 27.17 35.398 27.2837 35.123C27.401 34.848 27.5697 34.6042 27.7897 34.3915C28.0134 34.1788 28.2865 34.0083 28.6092 33.88C28.9319 33.7517 29.3004 33.6875 29.7147 33.6875C30.184 33.6875 30.6167 33.7608 31.0127 33.9075C31.4087 34.0542 31.746 34.2595 32.0247 34.5235L31.6617 35.222ZM40.9252 37.752C40.9252 38.335 40.828 38.8758 40.6337 39.3745C40.4393 39.8695 40.1662 40.2985 39.8142 40.6615C39.4622 41.0245 39.0387 41.3087 38.5437 41.514C38.0487 41.7157 37.5005 41.8165 36.8992 41.8165C36.2978 41.8165 35.7478 41.7157 35.2492 41.514C34.7542 41.3087 34.3288 41.0245 33.9732 40.6615C33.6212 40.2985 33.348 39.8695 33.1537 39.3745C32.9593 38.8758 32.8622 38.335 32.8622 37.752C32.8622 37.169 32.9593 36.63 33.1537 36.135C33.348 35.6363 33.6212 35.2055 33.9732 34.8425C34.3288 34.4795 34.7542 34.1972 35.2492 33.9955C35.7478 33.7902 36.2978 33.6875 36.8992 33.6875C37.5005 33.6875 38.0487 33.7902 38.5437 33.9955C39.0387 34.2008 39.4622 34.485 39.8142 34.848C40.1662 35.2073 40.4393 35.6363 40.6337 36.135C40.828 36.63 40.9252 37.169 40.9252 37.752ZM39.4072 37.752C39.4072 37.3157 39.3485 36.9252 39.2312 36.5805C39.1175 36.2322 38.9525 35.937 38.7362 35.695C38.5198 35.453 38.2558 35.2678 37.9442 35.1395C37.6362 35.0112 37.2878 34.947 36.8992 34.947C36.5105 34.947 36.1603 35.0112 35.8487 35.1395C35.537 35.2678 35.2712 35.453 35.0512 35.695C34.8348 35.937 34.668 36.2322 34.5507 36.5805C34.4333 36.9252 34.3747 37.3157 34.3747 37.752C34.3747 38.1883 34.4333 38.5807 34.5507 38.929C34.668 39.2737 34.8348 39.567 35.0512 39.809C35.2712 40.0473 35.537 40.2307 35.8487 40.359C36.1603 40.4873 36.5105 40.5515 36.8992 40.5515C37.2878 40.5515 37.6362 40.4873 37.9442 40.359C38.2558 40.2307 38.5198 40.0473 38.7362 39.809C38.9525 39.567 39.1175 39.2737 39.2312 38.929C39.3485 38.5807 39.4072 38.1883 39.4072 37.752ZM49.723 37.752C49.723 38.335 49.6258 38.8758 49.4315 39.3745C49.2372 39.8695 48.964 40.2985 48.612 40.6615C48.26 41.0245 47.8365 41.3087 47.3415 41.514C46.8465 41.7157 46.2983 41.8165 45.697 41.8165C45.0957 41.8165 44.5457 41.7157 44.047 41.514C43.552 41.3087 43.1267 41.0245 42.771 40.6615C42.419 40.2985 42.1458 39.8695 41.9515 39.3745C41.7572 38.8758 41.66 38.335 41.66 37.752C41.66 37.169 41.7572 36.63 41.9515 36.135C42.1458 35.6363 42.419 35.2055 42.771 34.8425C43.1267 34.4795 43.552 34.1972 44.047 33.9955C44.5457 33.7902 45.0957 33.6875 45.697 33.6875C46.2983 33.6875 46.8465 33.7902 47.3415 33.9955C47.8365 34.2008 48.26 34.485 48.612 34.848C48.964 35.2073 49.2372 35.6363 49.4315 36.135C49.6258 36.63 49.723 37.169 49.723 37.752ZM48.205 37.752C48.205 37.3157 48.1463 36.9252 48.029 36.5805C47.9153 36.2322 47.7503 35.937 47.534 35.695C47.3177 35.453 47.0537 35.2678 46.742 35.1395C46.434 35.0112 46.0857 34.947 45.697 34.947C45.3083 34.947 44.9582 35.0112 44.6465 35.1395C44.3348 35.2678 44.069 35.453 43.849 35.695C43.6327 35.937 43.4658 36.2322 43.3485 36.5805C43.2312 36.9252 43.1725 37.3157 43.1725 37.752C43.1725 38.1883 43.2312 38.5807 43.3485 38.929C43.4658 39.2737 43.6327 39.567 43.849 39.809C44.069 40.0473 44.3348 40.2307 44.6465 40.359C44.9582 40.4873 45.3083 40.5515 45.697 40.5515C46.0857 40.5515 46.434 40.4873 46.742 40.359C47.0537 40.2307 47.3177 40.0473 47.534 39.809C47.7503 39.567 47.9153 39.2737 48.029 38.929C48.1463 38.5807 48.205 38.1883 48.205 37.752ZM51.6679 33.7755C51.7339 33.7755 51.7889 33.7792 51.8329 33.7865C51.8769 33.7902 51.9154 33.8012 51.9484 33.8195C51.985 33.8342 52.0199 33.858 52.0529 33.891C52.0859 33.9203 52.1225 33.9607 52.1629 34.012L56.3374 39.3305C56.3227 39.2022 56.3117 39.0775 56.3044 38.9565C56.3007 38.8318 56.2989 38.7163 56.2989 38.61V33.7755H57.6024V41.7285H56.8379C56.7205 41.7285 56.6234 41.7102 56.5464 41.6735C56.4694 41.6368 56.3942 41.5708 56.3209 41.4755L52.1629 36.179C52.1739 36.2963 52.1812 36.4137 52.1849 36.531C52.1922 36.6447 52.1959 36.7492 52.1959 36.8445V41.7285H50.8924V33.7755H51.6679Z" fill="white"/>
<defs>
<linearGradient id="paint0_linear_20098_179376" x1="88.2347" y1="-31" x2="52.5988" y2="131.106" gradientUnits="userSpaceOnUse">
<stop stop-color="#E6427A" stop-opacity="0.16"/>
<stop offset="1" stop-color="#D39C6E" stop-opacity="0.1"/>
</linearGradient>
<linearGradient id="paint1_linear_20098_179376" x1="3.50777" y1="21.5413" x2="62.8584" y2="21.5413" gradientUnits="userSpaceOnUse">
<stop stop-color="#F3B1CA"/>
<stop offset="0.55" stop-color="#FA75A6"/>
<stop offset="1" stop-color="#E93779"/>
</linearGradient>
<linearGradient id="paint2_linear_20098_179376" x1="13.6551" y1="37.6326" x2="71.9989" y2="37.6326" gradientUnits="userSpaceOnUse">
<stop stop-color="#F9DCC8"/>
<stop offset="0.584481" stop-color="#F393B7"/>
<stop offset="1" stop-color="#FC73A6"/>
</linearGradient>
<linearGradient id="paint3_linear_20098_179376" x1="9.05078" y1="37.5418" x2="11.7023" y2="37.5418" gradientUnits="userSpaceOnUse">
<stop stop-color="#E93779"/>
<stop offset="0.45" stop-color="#F97CAA"/>
<stop offset="1" stop-color="#FFD7E6"/>
</linearGradient>
<linearGradient id="paint4_linear_20098_179376" x1="66.8262" y1="21.8127" x2="64.1746" y2="21.8127" gradientUnits="userSpaceOnUse">
<stop stop-color="#E93779"/>
<stop offset="0.45" stop-color="#F97CAA"/>
<stop offset="1" stop-color="#FFD7E6"/>
</linearGradient>
<linearGradient id="paint5_linear_20098_179376" x1="6.6582" y1="35.5253" x2="11.3831" y2="35.5253" gradientUnits="userSpaceOnUse">
<stop stop-color="#E93779"/>
<stop offset="0.45" stop-color="#F97CAA"/>
<stop offset="1" stop-color="#FFD7E6"/>
</linearGradient>
<linearGradient id="paint6_linear_20098_179376" x1="69.2188" y1="23.8302" x2="64.4938" y2="23.8302" gradientUnits="userSpaceOnUse">
<stop stop-color="#E93779"/>
<stop offset="0.45" stop-color="#F97CAA"/>
<stop offset="1" stop-color="#FFD7E6"/>
</linearGradient>
<linearGradient id="paint7_linear_20098_179376" x1="68.6797" y1="14.6048" x2="68.6797" y2="11.7466" gradientUnits="userSpaceOnUse">
<stop stop-color="#D9D8D8"/>
<stop offset="0.03" stop-color="#DBDADA"/>
<stop offset="0.36" stop-color="#EFEFEF"/>
<stop offset="0.68" stop-color="#FBFBFB"/>
<stop offset="1" stop-color="white"/>
</linearGradient>
<linearGradient id="paint8_linear_20098_179376" x1="8.15436" y1="48.2431" x2="8.15436" y2="45.3951" gradientUnits="userSpaceOnUse">
<stop stop-color="#D9D8D8"/>
<stop offset="0.03" stop-color="#DBDADA"/>
<stop offset="0.36" stop-color="#EFEFEF"/>
<stop offset="0.68" stop-color="#FBFBFB"/>
<stop offset="1" stop-color="white"/>
</linearGradient>
</defs>
</svg>
