<svg width="11" height="10" viewBox="0 0 11 10" fill="none" xmlns="http://www.w3.org/2000/svg">
<path d="M5.28976 2.08917L3.82484 0H0.5L3.6465 4.38217L5.28976 2.08917Z" fill="#707070"/>
<path d="M7.36635 4.38217L10.4364 0H7.22623L4.18164 4.16561C4.18164 4.16561 5.64656 3.41394 7.36635 4.38215V4.38217Z" fill="#707070"/>
<path d="M5.49387 4.44531C3.96523 4.44531 2.7168 5.68098 2.7168 7.22238C2.7168 8.76383 3.95247 9.99945 5.49387 9.99945C7.03522 9.99945 8.27094 8.73835 8.27094 7.20964C8.27094 5.68091 7.02255 4.44531 5.49387 4.44531ZM5.49387 9.37525C4.29639 9.37525 3.32828 8.40712 3.32828 7.20967C3.32828 6.01221 4.29641 5.04408 5.49387 5.04408C6.69132 5.04408 7.65945 6.01221 7.65945 7.20967C7.65945 8.40705 6.69132 9.37525 5.49387 9.37525Z" fill="#707070"/>
<path d="M7.27799 7.22298C7.27799 8.22202 6.46812 9.0319 5.46907 9.0319C4.47003 9.0319 3.66016 8.22202 3.66016 7.22298C3.66016 6.22393 4.47003 5.41406 5.46907 5.41406C6.46812 5.41406 7.27799 6.22393 7.27799 7.22298Z" fill="#707070"/>
<path fill-rule="evenodd" clip-rule="evenodd" d="M4.73411 6.55199C4.72622 6.71307 4.73523 6.8934 4.76028 7.07408C4.79435 7.31984 4.85623 7.55443 4.93514 7.73771C4.96146 7.54175 4.95733 7.30022 4.92325 7.05444C4.89818 6.87364 4.8577 6.69696 4.80607 6.54299C4.8373 6.52479 4.85627 6.48912 4.85134 6.45103C4.84479 6.40027 4.79832 6.36445 4.74758 6.37101C4.69683 6.37757 4.66101 6.42403 4.66756 6.47478C4.67245 6.51265 4.69958 6.54216 4.73411 6.55199ZM5.44245 6.32155C5.44141 6.32134 5.44038 6.32144 5.43934 6.32122C5.40503 6.50217 5.3869 6.7074 5.3869 6.91519C5.3869 7.20938 5.42199 7.50887 5.48111 7.72239C5.54025 7.50887 5.57533 7.20938 5.57533 6.91519C5.57533 6.7074 5.55721 6.50217 5.52289 6.32122C5.52184 6.32144 5.52083 6.32134 5.51978 6.32155C5.56766 6.30534 5.60236 6.26055 5.60236 6.20719C5.60236 6.14023 5.54808 6.08594 5.48111 6.08594C5.41415 6.08594 5.35986 6.14023 5.35986 6.20719C5.35986 6.26055 5.39457 6.30534 5.44245 6.32155ZM6.80795 6.95021C6.81691 6.91465 6.79535 6.87855 6.75979 6.86957C6.72422 6.8606 6.68812 6.88215 6.67914 6.91772C6.67233 6.94475 6.68325 6.97193 6.70444 6.98743C6.65401 7.09254 6.60941 7.21444 6.5753 7.34046C6.5294 7.51001 6.50455 7.67893 6.50469 7.81912C6.57616 7.69576 6.64024 7.53606 6.68613 7.36653C6.72016 7.24083 6.74288 7.11414 6.75203 6.99955C6.77827 6.99616 6.80107 6.97744 6.80795 6.95021ZM5.48133 7.78518C4.82224 7.78518 4.30596 7.90647 4.30596 8.06132C4.30596 8.12294 4.38739 8.18073 4.54142 8.22844C4.54521 8.2296 4.54929 8.22776 4.55061 8.22425C4.55193 8.22075 4.55001 8.21691 4.5463 8.2156C4.42605 8.17357 4.35983 8.12751 4.35983 8.08588C4.35983 7.96901 4.87341 7.87024 5.48133 7.87024C6.08925 7.87024 6.60285 7.96901 6.60285 8.08588C6.60285 8.12751 6.53663 8.17357 6.41638 8.2156C6.41265 8.21691 6.41072 8.22075 6.41205 8.22425C6.4131 8.22705 6.41594 8.22879 6.41895 8.22879C6.41971 8.22879 6.42049 8.22867 6.42125 8.22844C6.57529 8.18073 6.65671 8.12294 6.65671 8.06132C6.65671 7.90647 6.14043 7.78518 5.48133 7.78518ZM6.75394 7.61498C6.71909 7.71789 6.70021 7.82201 6.70023 7.91036C6.75468 7.83802 6.80337 7.74268 6.83822 7.63979C6.87308 7.53689 6.89195 7.43278 6.89194 7.34442C6.83749 7.41676 6.7888 7.51208 6.75394 7.61498ZM4.07031 7.34442C4.0703 7.43278 4.08917 7.53689 4.12403 7.63979C4.15888 7.74268 4.20757 7.83802 4.26202 7.91036C4.26204 7.82201 4.24316 7.71789 4.20831 7.61498C4.17345 7.51208 4.12476 7.41676 4.07031 7.34442ZM4.38695 7.34046C4.35284 7.21444 4.30824 7.09254 4.25782 6.98746C4.27904 6.97195 4.28999 6.94477 4.28317 6.91772C4.2742 6.88215 4.23809 6.8606 4.20252 6.86957C4.16696 6.87855 4.14539 6.91465 4.15437 6.95021C4.16122 6.97742 4.18401 6.99614 4.21022 6.99956C4.21937 7.11415 4.24209 7.24081 4.2761 7.36653C4.32201 7.53606 4.38609 7.69576 4.45756 7.81912C4.4577 7.67893 4.43284 7.51001 4.38695 7.34046ZM5.85002 7.10452C5.864 6.93141 5.85587 6.76213 5.82715 6.62505C5.77675 6.75657 5.74152 6.92281 5.72755 7.09593C5.71357 7.26905 5.7217 7.43831 5.75041 7.5754C5.80082 7.44387 5.83603 7.27764 5.85002 7.10452ZM4.65682 7.62748C4.66565 7.50598 4.65323 7.3591 4.62142 7.21109C4.58962 7.06307 4.5404 6.92307 4.48205 6.81411C4.47323 6.9356 4.48565 7.08249 4.51745 7.23049C4.54926 7.37851 4.59849 7.51852 4.65682 7.62748ZM6.44479 7.23049C6.4766 7.08249 6.48902 6.9356 6.4802 6.81411C6.42185 6.92307 6.37263 7.06307 6.34083 7.21109C6.30902 7.3591 6.2966 7.50598 6.30543 7.62748C6.36376 7.51852 6.41299 7.37851 6.44479 7.23049ZM6.20197 7.07408C6.22702 6.8934 6.23603 6.71308 6.22814 6.55202C6.26269 6.5422 6.28985 6.51267 6.29475 6.47478C6.30131 6.42403 6.26548 6.37757 6.21473 6.37101C6.16398 6.36445 6.11752 6.40027 6.11097 6.45103C6.10604 6.48911 6.12498 6.52476 6.15619 6.54297C6.10458 6.69695 6.06407 6.87363 6.039 7.05444C6.00492 7.30022 6.00078 7.54175 6.0271 7.73771C6.10602 7.55443 6.16789 7.31984 6.20197 7.07408ZM5.21184 7.5754C5.24055 7.43831 5.24868 7.26905 5.2347 7.09593C5.22073 6.92281 5.1855 6.75659 5.1351 6.62505C5.10638 6.76214 5.09825 6.93141 5.11223 7.10452C5.12621 7.27764 5.16143 7.44387 5.21184 7.5754Z" fill="white"/>
</svg>
