<svg width="25" height="24" viewBox="0 0 25 24" fill="none" xmlns="http://www.w3.org/2000/svg">
<path d="M17.6477 0C21.7289 0 24.0329 2.3148 24.0449 6.396V17.604C24.0449 21.684 21.7289 24 17.6477 24H6.44092C2.35972 24 0.0449219 21.684 0.0449219 17.604V6.396C0.0449219 2.3148 2.35972 0 6.44092 0H17.6477ZM12.6449 4.956C12.3077 4.752 11.8997 4.752 11.5769 4.956C11.2517 5.1588 11.0729 5.532 11.1077 5.904V18.132C11.1689 18.648 11.5997 19.032 12.1037 19.032C12.6209 19.032 13.0517 18.648 13.0997 18.132V5.904C13.1477 5.532 12.9689 5.1588 12.6449 4.956ZM7.04092 8.892C6.71692 8.688 6.30772 8.688 5.98492 8.892C5.65972 9.096 5.48092 9.4668 5.51692 9.84V18.132C5.56372 18.648 5.99572 19.032 6.51172 19.032C7.02892 19.032 7.45972 18.648 7.50772 18.132V9.84C7.54492 9.4668 7.36372 9.096 7.04092 8.892ZM18.1517 13.248C17.8289 13.044 17.4209 13.044 17.0849 13.248C16.7597 13.452 16.5809 13.8108 16.6289 14.196V18.132C16.6769 18.648 17.1077 19.032 17.6249 19.032C18.1289 19.032 18.5597 18.648 18.6209 18.132V14.196C18.6557 13.8108 18.4769 13.452 18.1517 13.248Z" fill="#E6427A"/>
</svg>
