<svg width="14" height="14" viewBox="0 0 14 14" fill="none" xmlns="http://www.w3.org/2000/svg">
<path d="M13.1249 12.3529H0.874995C0.391748 12.3529 0 12.7216 0 13.1764C0 13.6313 0.391748 14 0.874995 14H13.1249C13.6082 14 13.9999 13.6313 13.9999 13.1764C13.9999 12.7216 13.6082 12.3529 13.1249 12.3529Z" fill="#707070"/>
<path d="M7.00024 9.8823C6.81883 9.88359 6.64149 9.83179 6.49274 9.73406L2.99276 7.41171C2.80412 7.28576 2.67614 7.09465 2.63679 6.88014C2.59743 6.66564 2.64992 6.44519 2.78276 6.267C2.84907 6.17794 2.93347 6.10212 3.03109 6.04392C3.1287 5.98571 3.2376 5.94629 3.35149 5.92791C3.46539 5.90954 3.58202 5.91257 3.69466 5.93685C3.80729 5.96113 3.91371 6.00616 4.00775 6.06936L7.00024 8.03759L9.97522 5.92936C10.1609 5.79831 10.3942 5.74204 10.624 5.77293C10.8537 5.80382 11.061 5.91933 11.2002 6.09406C11.3394 6.26879 11.3992 6.48843 11.3664 6.70465C11.3336 6.92086 11.2109 7.11596 11.0252 7.247L7.52523 9.71759C7.37377 9.8245 7.18956 9.8823 7.00024 9.8823Z" fill="#707070"/>
<path d="M6.99999 8.23529C6.76793 8.23529 6.54537 8.14853 6.38128 7.99409C6.21719 7.83965 6.125 7.63018 6.125 7.41176V0.823529C6.125 0.605116 6.21719 0.395648 6.38128 0.241206C6.54537 0.0867644 6.76793 0 6.99999 0C7.23206 0 7.45462 0.0867644 7.61871 0.241206C7.7828 0.395648 7.87499 0.605116 7.87499 0.823529V7.41176C7.87499 7.63018 7.7828 7.83965 7.61871 7.99409C7.45462 8.14853 7.23206 8.23529 6.99999 8.23529Z" fill="#707070"/>
</svg>
