<svg width="14" height="12" viewBox="0 0 14 12" fill="none" xmlns="http://www.w3.org/2000/svg">
<path d="M10.4573 0C11.396 0 12.299 0.353333 12.9633 0.987333C13.6283 1.62 14 2.47333 14 3.36667V8.63333C14 10.4933 12.411 12 10.4573 12H3.542C1.5883 12 0 10.4933 0 8.63333V3.36667C0 1.50667 1.5813 0 3.542 0H10.4573ZM11.249 3.46667C11.102 3.45933 10.962 3.50667 10.8563 3.6L7.7 6C7.294 6.32067 6.7123 6.32067 6.3 6L3.15 3.6C2.9323 3.44667 2.6313 3.46667 2.45 3.64667C2.261 3.82667 2.24 4.11333 2.4003 4.31333L2.492 4.4L5.677 6.76667C6.069 7.06 6.5443 7.22 7.042 7.22C7.5383 7.22 8.022 7.06 8.4133 6.76667L11.571 4.36L11.627 4.30667C11.7943 4.11333 11.7943 3.83333 11.6193 3.64C11.522 3.54067 11.3883 3.48 11.249 3.46667Z" fill="#707070"/>
</svg>
