<svg width="36" height="36" viewBox="0 0 36 36" fill="none" xmlns="http://www.w3.org/2000/svg">
<circle cx="18" cy="18" r="18" fill="white"/>
<path d="M24.8571 18C23.9524 16.6343 22.8185 15.6128 21.4554 14.9358C21.8185 15.5376 22 16.1887 22 16.8889C22 17.9595 21.6086 18.8753 20.8259 19.6363C20.0432 20.3973 19.1012 20.7778 18 20.7778C16.8988 20.7778 15.9568 20.3973 15.1741 19.6363C14.3914 18.8753 14 17.9595 14 16.8889C14 16.1887 14.1815 15.5376 14.5446 14.9358C13.1815 15.6128 12.0476 16.6343 11.1429 18C11.9345 19.1863 12.9271 20.1311 14.1205 20.8342C15.314 21.5373 16.6071 21.8889 18 21.8889C19.3929 21.8889 20.686 21.5373 21.8795 20.8342C23.0729 20.1311 24.0655 19.1863 24.8571 18ZM18.4286 14.6667C18.4286 14.5509 18.3869 14.4525 18.3036 14.3715C18.2202 14.2905 18.119 14.25 18 14.25C17.256 14.25 16.6176 14.509 16.0848 15.0269C15.5521 15.5448 15.2857 16.1655 15.2857 16.8889C15.2857 17.0046 15.3274 17.103 15.4107 17.184C15.494 17.265 15.5952 17.3056 15.7143 17.3056C15.8333 17.3056 15.9345 17.265 16.0179 17.184C16.1012 17.103 16.1429 17.0046 16.1429 16.8889C16.1429 16.3912 16.3244 15.9659 16.6875 15.6128C17.0506 15.2598 17.4881 15.0833 18 15.0833C18.119 15.0833 18.2202 15.0428 18.3036 14.9618C18.3869 14.8808 18.4286 14.7824 18.4286 14.6667ZM26 18C26 18.1968 25.9405 18.3964 25.8214 18.599C24.9881 19.93 23.8676 20.9962 22.4598 21.7977C21.0521 22.5992 19.5655 23 18 23C16.4345 23 14.9479 22.5978 13.5402 21.7934C12.1324 20.989 11.0119 19.9242 10.1786 18.599C10.0595 18.3964 10 18.1968 10 18C10 17.8032 10.0595 17.6036 10.1786 17.401C11.0119 16.0758 12.1324 15.011 13.5402 14.2066C14.9479 13.4022 16.4345 13 18 13C19.5655 13 21.0521 13.4022 22.4598 14.2066C23.8676 15.011 24.9881 16.0758 25.8214 17.401C25.9405 17.6036 26 17.8032 26 18Z" fill="#707070"/>
</svg>
