<svg width="36" height="36" viewBox="0 0 36 36" fill="none" xmlns="http://www.w3.org/2000/svg">
<circle cx="18" cy="18" r="18" fill="white"/>
<path d="M15.8802 20.1107C15.6784 19.9975 15.4363 19.8469 15.3477 19.7646C15.2841 19.7026 15.2205 19.6374 15.1551 19.5628C14.7065 19.1282 14.3961 18.5508 14.2844 18.2791L14.2827 18.2729C14.272 18.248 14.261 18.2217 14.2516 18.1967C14.2438 18.178 14.2361 18.1579 14.2283 18.1393L14.219 18.1144C14.216 18.1066 14.2128 18.0989 14.2112 18.0927L14.2054 18.0959C14.1899 18.1052 14.1758 18.113 14.1618 18.1192C14.1572 18.1208 14.1494 18.1254 14.1401 18.127C14.0951 18.1471 14.0438 18.1566 13.9942 18.152H13.9864L13.9771 18.1504C13.9616 18.1471 13.9446 18.1442 13.9288 18.1396L13.921 18.1366C13.8915 18.1288 13.862 18.1149 13.8341 18.0947C13.7938 18.0698 13.7643 18.0419 13.7488 18.0264L13.7442 18.0218C13.7287 18.0078 13.7163 17.9846 13.6975 17.9519C13.6773 17.9146 13.6525 17.8712 13.6168 17.8231C13.5967 17.7952 13.5749 17.7687 13.5501 17.7455C13.533 17.7253 13.5128 17.7081 13.4927 17.6926C13.3733 17.5995 13.3188 17.4459 13.2816 17.3092C13.266 17.2472 13.2521 17.1835 13.2366 17.1166C13.2273 17.0716 13.2165 17.0251 13.2055 16.9785C13.1957 16.9366 13.1871 16.8891 13.1797 16.8396V16.8446C13.1814 16.9668 13.1861 17.0892 13.1949 17.2114C13.2042 17.3333 13.2163 17.4551 13.2321 17.5763C13.264 17.8188 13.3085 18.0598 13.3674 18.2972C13.426 18.5347 13.4969 18.7692 13.5801 18.9992C13.6219 19.1143 13.667 19.2279 13.7143 19.3406L13.7884 19.5084L13.8676 19.674L13.9516 19.8371L14.0405 19.9975C14.1021 20.1032 14.166 20.2074 14.2336 20.3095C14.302 20.411 14.373 20.5105 14.4478 20.6072C14.5229 20.7037 14.6016 20.7974 14.6837 20.8883C14.7664 20.9786 14.8523 21.0655 14.942 21.149C14.9866 21.1908 15.0337 21.2297 15.0796 21.2704C15.1264 21.3097 15.1752 21.3468 15.2228 21.3851C15.2717 21.4221 15.322 21.4568 15.3716 21.4925L15.4841 21.5652C15.6732 21.3491 15.7946 21.0976 15.8692 20.8394V20.8392C15.8772 20.8115 15.8844 20.7836 15.8914 20.7557C15.9411 20.5548 15.965 20.353 15.9728 20.1626C15.973 20.1626 15.973 20.1626 15.9732 20.1628V20.1626C15.9453 20.1486 15.9174 20.133 15.8909 20.1175C15.888 20.1153 15.8834 20.1123 15.8802 20.1107L15.8802 20.1107Z" fill="#707070"/>
<path d="M21.973 19.8375C21.9502 19.8242 21.9292 19.8116 21.907 19.7975L21.8568 19.7644L21.8498 19.7598L21.8418 19.7537L21.7798 19.7061L21.7423 19.6711L21.723 19.653L21.7134 19.644L21.7086 19.6395L21.7074 19.6384C21.7095 19.6407 21.7074 19.6384 21.7074 19.6385L21.7053 19.636C21.6933 19.6226 21.6809 19.6094 21.6695 19.5962L21.6388 19.5578L21.638 19.557L21.6372 19.5557C21.6245 19.5367 21.61 19.5192 21.5987 19.4991C21.5876 19.4792 21.5754 19.4598 21.5669 19.4387C21.5567 19.4183 21.5485 19.3969 21.5419 19.3751L21.5365 19.359C21.5357 19.3569 21.5344 19.3523 21.5344 19.3523L21.532 19.3434L21.5238 19.3082C21.5171 19.284 21.5171 19.2631 21.5133 19.2406C21.5104 19.2184 21.5112 19.1949 21.5097 19.172C21.5098 19.1489 21.5121 19.126 21.5129 19.1028L21.522 19.0336L21.5359 18.9707L21.5367 18.9666L21.5369 18.9663L21.5393 18.9585L21.5445 18.9428L21.5547 18.9117L21.5752 18.8493L21.5804 18.8337L21.5857 18.8191L21.5963 18.7908H21.5964L21.6529 18.6264L21.6533 18.6252L21.6534 18.6239L21.6765 18.518L21.6822 18.4914C21.6847 18.4788 21.6843 18.4725 21.6854 18.4628L21.6902 18.4087C21.694 18.3678 21.6963 18.3362 21.694 18.294C21.6916 18.2578 21.6885 18.2248 21.6847 18.184L21.6604 18.0761C21.6549 18.058 21.6533 18.0427 21.6447 18.0223L21.6349 17.997L21.6238 17.9704C21.609 17.9385 21.5971 17.9019 21.5783 17.8712C21.5612 17.84 21.5435 17.8068 21.5228 17.7773L21.4917 17.7305L21.4588 17.6877L21.3924 17.6022C21.3436 17.5486 21.296 17.4919 21.2447 17.4416L21.0933 17.287C21.0481 17.2413 21.0034 17.1956 20.9591 17.1491C20.951 17.1385 20.9436 17.1281 20.937 17.1178V17.1177C20.9259 17.1001 20.9168 17.082 20.9091 17.0645C20.8944 17.0316 20.8853 16.9994 20.882 16.968C20.8796 16.9497 20.8799 16.9315 20.8807 16.9136C20.8811 16.9087 20.8816 16.9041 20.882 16.8993C20.8836 16.8842 20.8857 16.8689 20.8893 16.8538C20.8898 16.8513 20.8901 16.8486 20.8909 16.8461C20.8937 16.8342 20.898 16.822 20.9019 16.81L20.9241 16.7878L20.981 16.7288L21.0938 16.6096L21.0946 16.6088L21.0958 16.6074L21.2027 16.4648C21.242 16.4131 21.2666 16.3652 21.2983 16.3087C21.3121 16.2819 21.3274 16.2586 21.3402 16.2288L21.3594 16.1845L21.364 16.1735C21.3647 16.1726 21.3663 16.1673 21.3676 16.1644L21.406 16.0603L21.4137 16.0393L21.4157 16.0341L21.4177 16.028L21.4184 16.0253L21.4209 16.0145L21.4303 15.971L21.4491 15.8841C21.4553 15.8472 21.4605 15.827 21.4643 15.7903L21.4693 15.7009C21.471 15.6715 21.4725 15.6417 21.472 15.61C21.4725 15.5476 21.4647 15.4907 21.4613 15.4309C21.4535 15.3691 21.4458 15.3132 21.4309 15.2514L21.3913 15.078C21.3794 15.0201 21.3572 14.9633 21.3405 14.9061C21.3232 14.8492 21.3048 14.7913 21.284 14.736L21.2242 14.5686L21.1229 14.287C21.1377 14.2268 21.2118 13.9136 21.2245 13.6597C21.2438 13.2863 21.1082 12.9327 20.9621 12.6023C20.96 12.5966 20.9581 12.5908 20.956 12.5851C20.716 12.0419 20.3345 11.5632 19.8719 11.1706C19.8719 11.171 19.8718 11.1714 19.8718 11.1715C19.8713 11.171 19.8707 11.1706 19.8702 11.1701C18.7194 10.1916 17.0706 9.7444 15.8562 10.1484C15.8493 10.1489 15.8447 10.1493 15.8447 10.1493L15.8448 10.152C15.8443 10.1521 15.8437 10.1524 15.8432 10.1525C15.5897 10.2386 15.3561 10.3617 15.1503 10.5249C15.1495 10.5256 15.1489 10.5256 15.1482 10.5262C15.1005 10.5641 15.0544 10.6046 15.0096 10.6467C14.967 10.6867 14.9263 10.7286 14.8871 10.7726C14.7051 10.9755 14.5554 11.2219 14.4475 11.5139C14.0591 11.7848 13.7266 12.2033 13.4837 12.6302C12.9356 13.5904 12.8359 14.9884 13.2741 15.9864L13.296 15.9723C13.3285 15.9514 13.3693 15.9474 13.4055 15.9612L13.5487 16.0526C13.5487 16.0526 13.975 16.4676 13.9274 16.0716C13.8597 15.5165 13.9176 14.7543 14.1578 14.1022C14.3187 13.6647 14.6495 13.2236 14.9904 12.9793C14.9917 12.9789 14.9928 12.9788 14.994 12.9784C15.0498 12.9658 15.105 12.9542 15.1593 12.9436C15.1725 12.9409 15.1856 12.9386 15.1988 12.9361C16.3408 12.7246 17.1858 12.9678 17.7667 13.3889C18.4147 13.8769 18.6548 14.5469 18.7078 14.7199C18.7118 14.7339 18.716 14.7482 18.7196 14.762C18.7196 14.762 18.6594 15.5873 18.6174 15.8595C18.6096 15.9133 18.5965 15.9673 18.5825 16.0226C18.5734 16.0598 18.5629 16.0969 18.553 16.1353C18.3679 16.8689 18.3533 17.5789 18.4774 18.2666C18.4761 18.2706 18.4746 18.2744 18.4732 18.2784C18.4317 18.4044 18.3936 18.5302 18.3632 18.659C18.3506 18.7214 18.3369 18.7865 18.3268 18.8485C18.3162 18.9161 18.3165 18.9772 18.312 19.0388C18.3099 19.0683 18.3092 19.1036 18.3113 19.1341C18.3133 19.1644 18.3154 19.1945 18.3173 19.2242C18.3207 19.255 18.3193 19.2804 18.3266 19.3145C18.3319 19.344 18.3382 19.372 18.344 19.4006C18.3497 19.4287 18.3559 19.456 18.363 19.4825C18.3669 19.4969 18.3683 19.5062 18.3748 19.5248L18.3895 19.5621C18.4101 19.6125 18.4257 19.6572 18.4485 19.7064C18.4502 19.7096 18.4519 19.7121 18.4535 19.7153C18.4375 19.7314 18.4216 19.7494 18.4056 19.765C18.3187 19.8474 18.0843 19.9917 17.8857 20.1033C17.8779 20.1079 17.8702 20.1126 17.8624 20.1173C17.8421 20.1297 17.8221 20.1406 17.8033 20.1514C17.8111 20.3594 17.8374 20.5815 17.8965 20.7987L17.8963 20.7989C17.9809 21.115 18.1338 21.423 18.3932 21.6714C18.4839 21.7582 18.5887 21.8367 18.7072 21.9062C18.681 21.9629 18.655 22.021 18.6292 22.0816C18.3755 22.6822 18.3534 23.0544 18.4935 23.3263C18.5391 23.4185 18.6029 23.4994 18.6827 23.5734L18.6834 23.5741C18.7597 23.6456 18.8495 23.7107 18.9523 23.7738C19.0298 23.8211 19.115 23.8676 19.2054 23.9149L19.2702 23.9645L19.2713 23.9654L19.2724 23.9661L19.3619 24.0182L19.4511 24.0694V24.0693C19.4836 24.0862 19.5164 24.105 19.5466 24.1235L19.6416 24.1804L19.7026 24.2267L19.7558 24.2758L19.8008 24.3266C19.8136 24.3455 19.8271 24.3643 19.839 24.3833C19.848 24.4038 19.8596 24.4199 19.8673 24.4434L19.8785 24.4782L19.8813 24.4868C19.8814 24.4873 19.8829 24.4918 19.8822 24.489L19.8829 24.4932L19.8857 24.5095L19.8911 24.5424L19.8916 24.5759C19.8934 24.5983 19.8886 24.6205 19.8859 24.6429C19.8831 24.6651 19.8748 24.6864 19.8695 24.7085L19.869 24.7106L19.8687 24.7119L19.8503 24.7619L19.8258 24.8147L19.7687 24.912L19.7117 24.9887L19.7055 24.997L19.6974 25.0063L19.6814 25.025L19.6494 25.062C19.6276 25.0861 19.6071 25.1086 19.5846 25.1318L19.5164 25.1995C19.5164 25.1995 19.6901 25.1483 19.8041 25.0556C19.8068 25.0534 19.8136 25.0463 19.8136 25.0463L19.891 24.972L19.8921 24.9711L19.8935 24.9695L19.9386 24.9173L19.9612 24.8911L19.9723 24.878L19.978 24.8715L19.9823 24.8662L19.9847 24.8628C19.9983 24.844 20.0115 24.8259 20.0249 24.8067L20.0627 24.7448C20.0763 24.7178 20.0923 24.6918 20.1033 24.6636C20.1136 24.6342 20.1264 24.6069 20.1321 24.575L20.1426 24.5286C20.1447 24.5135 20.1453 24.4993 20.1467 24.4845C20.1474 24.4689 20.1504 24.4575 20.1492 24.4382V24.4379C20.5694 24.9142 20.0433 25.9534 20.0185 26C20.7339 25.0606 20.8655 24.8931 20.4243 23.9614L20.4531 23.9449C20.4708 23.9346 20.488 23.9232 20.5053 23.9124L20.5315 23.8961L20.5581 23.8783L20.609 23.8435L20.6344 23.8261C20.643 23.8208 20.6528 23.8125 20.66 23.8069L20.7564 23.7302L20.7573 23.7294L20.7585 23.7282L20.8421 23.6471C20.8564 23.6327 20.8693 23.622 20.8847 23.6045L20.9235 23.5599C20.9498 23.5304 20.9713 23.4984 20.9953 23.4676C21.017 23.4345 21.0403 23.4024 21.06 23.3681C21.0777 23.3327 21.0994 23.2996 21.1141 23.2624C21.1283 23.2254 21.1477 23.189 21.1571 23.1517C21.1674 23.1148 21.1824 23.0775 21.1887 23.0384C21.1954 22.9995 21.2075 22.9614 21.2097 22.922C21.2127 22.8827 21.2202 22.844 21.2196 22.8043C21.2195 22.7649 21.2217 22.7247 21.2192 22.6859L21.2091 22.5683L21.1902 22.4533C21.1815 22.4132 21.1717 22.3774 21.1624 22.3389C21.1525 22.2982 21.1374 22.2646 21.125 22.2271C21.0983 22.1545 21.0746 22.0794 21.0439 22.0082L21.0434 22.0069V22.0073L21.0439 22.0087L21.044 22.011C21.0424 22.003 21.0424 22.0062 21.0423 22.005L21.0418 22.0041L21.04 22.0005L20.9643 21.7985L20.9646 21.7992L20.9266 21.6431L20.9241 21.6226C20.9451 21.5537 21.0114 21.3349 21.0517 21.199C21.067 21.1466 21.0861 21.0954 21.1063 21.0451V21.045C21.182 20.8596 21.2835 20.688 21.3444 20.5031C21.3445 20.5026 21.3447 20.5022 21.3449 20.5017L21.3488 20.5071L21.3904 20.5739C21.4022 20.5972 21.4149 20.6198 21.4257 20.6435C21.435 20.6675 21.447 20.6911 21.4545 20.7152C21.4612 20.7401 21.4713 20.7614 21.4758 20.7891L21.4841 20.8291L21.4861 20.8389C21.486 20.8393 21.4866 20.8444 21.487 20.8471L21.4891 20.8663C21.4928 20.8919 21.4945 20.9175 21.494 20.9433C21.4954 20.9691 21.4924 20.9949 21.4904 21.0205C21.4887 21.0463 21.4821 21.0714 21.4784 21.0971L21.4783 21.0982L21.4779 21.0995L21.4649 21.1543C21.4594 21.1731 21.453 21.1925 21.4472 21.2118L21.446 21.2154V21.2155L21.4453 21.2173L21.4367 21.2381L21.4256 21.2659L21.4031 21.3207L21.3622 21.3978L21.3569 21.4077L21.3519 21.4159L21.34 21.4352L21.3162 21.4732C21.3001 21.4985 21.2842 21.5215 21.2671 21.5458L21.2135 21.6174C21.2135 21.6174 21.3828 21.5473 21.576 21.2653L21.5965 21.2258C21.6104 21.1995 21.6203 21.1725 21.6324 21.146C21.6422 21.1176 21.6539 21.0899 21.6619 21.0614C21.6686 21.032 21.6788 21.0043 21.6825 20.9741C21.6866 20.9446 21.6937 20.9139 21.6941 20.8854C21.6953 20.8571 21.699 20.8268 21.6968 20.7971C21.6952 20.7672 21.6964 20.7376 21.6911 20.7081C21.6861 20.6787 21.6853 20.6492 21.6771 20.6203C21.6698 20.5916 21.6648 20.5614 21.6556 20.5339C21.6461 20.5057 21.6385 20.4798 21.627 20.4499L21.5929 20.3695L21.5518 20.2913C21.536 20.2631 21.52 20.2416 21.504 20.2164C21.4844 20.1873 21.465 20.1575 21.4453 20.1282C21.4661 20.0267 21.4834 19.9234 21.4945 19.8175L21.495 19.8146V19.8142C21.5012 19.7604 21.5053 19.706 21.5082 19.6507C21.5118 19.6543 21.5151 19.6577 21.5185 19.6615C21.5382 19.6787 21.5559 19.6964 21.5771 19.7131L21.6086 19.7377C21.623 19.7489 21.6312 19.753 21.643 19.761L21.7078 19.8036L21.7096 19.8048L21.7112 19.8056L21.7835 19.8434L21.7925 19.8482C21.7925 19.8482 21.8006 19.8522 21.8033 19.8532C21.9143 19.8946 22.042 19.8753 22.042 19.8753L21.973 19.8375ZM20.9266 22.9577L20.9252 23.0125L20.9249 23.026L20.9233 23.0378L20.92 23.064L20.9136 23.1161L20.9021 23.1676C20.898 23.1848 20.8954 23.2024 20.889 23.2189L20.8725 23.269C20.8619 23.3026 20.8451 23.3338 20.8319 23.3664L20.8315 23.3673L20.831 23.3682L20.7958 23.4371C20.7933 23.4416 20.7627 23.4924 20.7544 23.5067L20.7516 23.5111L20.7513 23.5116L20.7511 23.5118L20.7495 23.5139L20.7437 23.5221L20.7318 23.5384L20.7081 23.5709L20.6615 23.6352L20.5822 23.7242L20.5723 23.7356L20.5625 23.7451L20.5408 23.7661L20.4977 23.8083C20.4685 23.8358 20.4398 23.8616 20.4096 23.8879L20.3954 23.8997C20.3911 23.891 20.3872 23.8824 20.3827 23.8735C20.1645 23.4248 19.9908 23.1371 20.0803 22.8649C20.1601 22.6234 20.3098 22.4246 20.4484 22.2307V22.2306C20.4799 22.1863 20.51 22.1423 20.5391 22.0982C20.5515 22.136 20.5663 22.1723 20.5829 22.2066C20.6656 22.3719 20.7695 22.5068 20.8551 22.6364C20.8682 22.6561 20.8804 22.6757 20.8928 22.6953L20.8933 22.697C20.8972 22.7142 20.9028 22.731 20.9055 22.7483C20.9105 22.7831 20.9189 22.8182 20.9214 22.8528C20.923 22.8877 20.9295 22.9203 20.9266 22.9577L20.9266 22.9577Z" fill="#707070"/>
</svg>
