<svg width="36" height="36" viewBox="0 0 36 36" fill="none" xmlns="http://www.w3.org/2000/svg">
<circle cx="18" cy="18" r="18" fill="white"/>
<path d="M20.9998 20.9998H18.9998V14.9998H20.9998C21.1975 14.9997 21.3908 14.9411 21.5552 14.8312C21.7197 14.7213 21.8478 14.5651 21.9235 14.3824C21.9991 14.1997 22.0189 13.9987 21.9804 13.8048C21.9418 13.6108 21.8466 13.4326 21.7068 13.2928L18.7068 10.2928C18.5193 10.1053 18.265 10 17.9998 10C17.7346 10 17.4803 10.1053 17.2928 10.2928L14.2928 13.2928C14.153 13.4326 14.0578 13.6108 14.0192 13.8048C13.9806 13.9987 14.0004 14.1997 14.0761 14.3824C14.1518 14.5651 14.2799 14.7213 14.4443 14.8312C14.6087 14.9411 14.802 14.9997 14.9998 14.9998H16.9998V20.9998H14.9998C14.802 20.9998 14.6087 21.0585 14.4443 21.1684C14.2799 21.2783 14.1518 21.4344 14.0761 21.6171C14.0004 21.7998 13.9806 22.0009 14.0192 22.1948C14.0578 22.3888 14.153 22.5669 14.2928 22.7068L17.2928 25.7068C17.4803 25.8943 17.7346 25.9996 17.9998 25.9996C18.265 25.9996 18.5193 25.8943 18.7068 25.7068L21.7068 22.7068C21.8466 22.5669 21.9418 22.3888 21.9804 22.1948C22.0189 22.0009 21.9991 21.7998 21.9235 21.6171C21.8478 21.4344 21.7197 21.2783 21.5552 21.1684C21.3908 21.0585 21.1975 20.9998 20.9998 20.9998Z" fill="#707070"/>
</svg>
