<svg width="10" height="9" viewBox="0 0 10 9" fill="none" xmlns="http://www.w3.org/2000/svg">
<path d="M4.88463 6.29979C4.88463 4.76944 6.12149 3.53251 7.64144 3.53251C8.33328 3.53251 8.96217 3.7841 9.45483 4.21381L9.4549 1.8658C9.4549 1.56186 9.21383 1.32071 8.90981 1.32071H6.8029V0.995786C6.8029 0.440232 6.3522 0 5.80711 0H3.63731C3.08175 0 2.64152 0.450695 2.64152 0.995786V1.32071H0.545091C0.241146 1.32071 0 1.56178 0 1.8658V7.79871C0 8.10265 0.241071 8.3438 0.545091 8.3438H5.78617C5.23061 7.83015 4.8847 7.10686 4.8847 6.29978L4.88463 6.29979ZM3.24943 0.995824C3.24943 0.786199 3.42762 0.608002 3.63725 0.608002H5.80706C6.01668 0.608002 6.19488 0.78619 6.19488 0.995824V1.32075H3.2494L3.24943 0.995824Z" fill="#707070"/>
<path d="M7.64169 3.92969C6.34188 3.92969 5.2832 4.98837 5.2832 6.28817C5.2832 7.58798 6.34188 8.64666 7.64169 8.64666C8.94149 8.64666 10.0002 7.58798 10.0002 6.28817C10.0107 4.98837 8.95196 3.92969 7.64169 3.92969ZM7.32728 7.0953L6.52013 6.28815L6.81364 5.99465L7.32728 6.5083L8.38596 5.44962L8.67946 5.74312L7.32728 7.0953Z" fill="#707070"/>
</svg>
