<svg width="19" height="24" viewBox="0 0 19 24" fill="none" xmlns="http://www.w3.org/2000/svg">
<path d="M9.5 10.6667C10.5737 10.6667 11.6232 10.3539 12.516 9.76784C13.4087 9.1818 14.1045 8.34885 14.5153 7.37431C14.9262 6.39977 15.0337 5.32742 14.8243 4.29285C14.6148 3.25829 14.0978 2.30798 13.3386 1.5621C12.5794 0.816219 11.6121 0.308269 10.5591 0.102481C9.50602 -0.103307 8.41452 0.00231083 7.42257 0.405978C6.43063 0.809645 5.58281 1.49323 4.98631 2.37029C4.38981 3.24736 4.07143 4.2785 4.07143 5.33333C4.07143 6.74782 4.64337 8.10438 5.66142 9.10457C6.67947 10.1048 8.06025 10.6667 9.5 10.6667ZM17.6429 24C18.0028 24 18.348 23.8595 18.6025 23.6095C18.857 23.3594 19 23.0203 19 22.6667C19 20.1913 17.9991 17.8173 16.2175 16.067C14.4359 14.3167 12.0196 13.3333 9.5 13.3333C6.98044 13.3333 4.56408 14.3167 2.78249 16.067C1.00089 17.8173 3.75443e-08 20.1913 0 22.6667C0 23.0203 0.142985 23.3594 0.397498 23.6095C0.652012 23.8595 0.997206 24 1.35714 24H17.6429Z" fill="#707070"/>
</svg>
