<svg width="8" height="10" viewBox="0 0 8 10" fill="none" xmlns="http://www.w3.org/2000/svg">
<path d="M3.5365 2.07676e-06C1.5801 2.07676e-06 0 1.64957 0 3.65845C0 4.38295 0.2182 4.95942 0.55641 5.50672L3.22403 9.82434L3.22394 9.82443C3.29038 9.93339 3.40879 10 3.53648 10C3.66417 10 3.78257 9.93339 3.84901 9.82443L6.51663 5.50681C6.85475 4.95941 7.07295 4.38295 7.07295 3.65844C7.07295 1.64957 5.49287 0 3.53646 0L3.5365 2.07676e-06ZM3.5365 0.731735C5.08228 0.731735 6.3413 2.03042 6.3413 3.65849C6.3413 4.24476 6.18768 4.64276 5.89166 5.12185L3.53654 8.93273L1.18142 5.12185C0.885387 4.64276 0.731689 4.24476 0.731689 3.65849C0.731689 2.03044 1.99072 0.731735 3.5365 0.731735ZM3.5365 1.70734C2.53062 1.70734 1.70727 2.53069 1.70727 3.53656C1.70727 4.54244 2.53062 5.36579 3.5365 5.36579C4.54237 5.36579 5.36572 4.54244 5.36572 3.53656C5.36572 2.53069 4.54237 1.70734 3.5365 1.70734ZM3.5365 2.43907C4.147 2.43907 4.63399 2.92615 4.63399 3.53656C4.63399 4.14698 4.14691 4.63405 3.5365 4.63405C2.92599 4.63405 2.43901 4.14698 2.43901 3.53656C2.43901 2.92606 2.92608 2.43907 3.5365 2.43907Z" fill="#E6427A"/>
</svg>
