<svg width="24" height="19" viewBox="0 0 24 19" fill="none" xmlns="http://www.w3.org/2000/svg">
<path fill-rule="evenodd" clip-rule="evenodd" d="M4.02686 4.31818H2.57143C1.88914 4.31818 1.23514 4.59109 0.753429 5.07732C0.270857 5.56354 0 6.2225 0 6.90909C0 9.38859 0 13.9296 0 16.4091C0 17.8401 1.15114 19 2.57143 19C6.72257 19 17.2774 19 21.4286 19C22.8489 19 24 17.8401 24 16.4091C24 13.9296 24 9.38859 24 6.90909C24 5.47805 22.8489 4.31818 21.4286 4.31818C18.5529 4.31818 13.0671 4.31818 13.0671 4.31818C12.594 4.31818 12.21 4.70509 12.21 5.18182C12.21 5.65855 12.594 6.04545 13.0671 6.04545C13.0671 6.04545 18.5529 6.04545 21.4286 6.04545C21.9017 6.04545 22.2857 6.43236 22.2857 6.90909C22.2857 9.38859 22.2857 13.9296 22.2857 16.4091C22.2857 16.8867 21.9017 17.2727 21.4286 17.2727C17.2774 17.2727 6.72257 17.2727 2.57143 17.2727C2.09829 17.2727 1.71429 16.8867 1.71429 16.4091C1.71429 13.9296 1.71429 9.38859 1.71429 6.90909C1.71429 6.68023 1.80429 6.46086 1.96543 6.2985C2.12571 6.137 2.34429 6.04545 2.57143 6.04545H4.02686C4.5 6.04545 4.884 5.65855 4.884 5.18182C4.884 4.70509 4.5 4.31818 4.02686 4.31818ZM13.0731 10.4785C12.7543 8.42392 10.998 6.90909 8.934 6.90909C8.69314 6.90909 8.44971 6.90909 8.20886 6.90909C6.14486 6.90909 4.38857 8.42392 4.06971 10.4785C3.90086 11.5693 3.71829 12.7456 3.59314 13.5513C3.516 14.0505 3.65914 14.5583 3.98486 14.9418C4.31057 15.3252 4.78629 15.5455 5.28686 15.5455C6.93686 15.5455 10.206 15.5455 11.856 15.5455C12.3566 15.5455 12.8323 15.3252 13.158 14.9418C13.4837 14.5583 13.6269 14.0505 13.5497 13.5522L13.0731 10.4785ZM15.4286 14.6818H19.7143C20.1874 14.6818 20.5714 14.2949 20.5714 13.8182C20.5714 13.3415 20.1874 12.9545 19.7143 12.9545H15.4286C14.9554 12.9545 14.5714 13.3415 14.5714 13.8182C14.5714 14.2949 14.9554 14.6818 15.4286 14.6818ZM15.4286 11.2273H18.8571C19.3303 11.2273 19.7143 10.8404 19.7143 10.3636C19.7143 9.88691 19.3303 9.5 18.8571 9.5H15.4286C14.9554 9.5 14.5714 9.88691 14.5714 10.3636C14.5714 10.8404 14.9554 11.2273 15.4286 11.2273ZM8.57143 0C6.91543 0 5.57143 1.35505 5.57143 3.02273C5.57143 4.69127 6.91543 6.04545 8.57143 6.04545C10.2274 6.04545 11.5714 4.69127 11.5714 3.02273C11.5714 1.35505 10.2274 0 8.57143 0Z" fill="#707070"/>
</svg>
