<svg width="24" height="24" viewBox="0 0 24 24" fill="none" xmlns="http://www.w3.org/2000/svg">
<path d="M7.71899 9.42845V4.28566C7.71899 1.9188 9.63566 0 11.9999 0C14.3641 0 16.2808 1.9188 16.2808 4.28566V9.42845C16.2808 11.7953 14.3641 13.7141 11.9999 13.7141C9.63566 13.7141 7.71899 11.7953 7.71899 9.42845Z" fill="#707070"/>
<path d="M20.183 11.9503C19.2408 15.0081 16.7441 17.212 13.7122 17.8232V21.4286H14.9964C15.7055 21.4286 16.2806 22.0044 16.2806 22.7143C16.2806 23.4242 15.7055 23.9999 14.9964 23.9999H9.00319C8.2941 23.9999 7.71898 23.4242 7.71898 22.7143C7.71898 22.0044 8.2941 21.4286 9.00319 21.4286H10.2874V17.8232C7.25532 17.2121 4.75895 15.0083 3.81665 11.9503C3.60782 11.2717 3.98825 10.552 4.66549 10.343C5.34793 10.1315 6.06197 10.515 6.27163 11.193C7.03985 13.6868 9.3953 15.4286 11.9999 15.4286C14.6044 15.4286 16.9598 13.6866 17.7281 11.1926C17.9369 10.5146 18.651 10.1311 19.3342 10.3426C20.0115 10.5523 20.3919 11.2719 20.1831 11.9506L20.183 11.9503Z" fill="#707070"/>
<path d="M19.9873 2.99845C20.3638 3.64833 20.5618 4.38955 20.5618 5.14306C20.5618 5.89601 20.3637 6.63697 19.9891 7.28671C19.7506 7.69965 19.2245 7.83558 18.8194 7.6002C18.4095 7.36363 18.2691 6.83929 18.5056 6.42975C18.7308 6.03993 18.8494 5.59512 18.8494 5.14309C18.8494 4.69108 18.7308 4.24647 18.5058 3.85744C18.2683 3.44769 18.4089 2.92317 18.8178 2.68598C19.2273 2.44901 19.7498 2.58932 19.9873 2.99847L19.9873 2.99845Z" fill="#707070"/>
<path d="M23.0267 1.2784C23.6823 2.4118 24 3.67571 24 5.14294C24 6.50236 23.6572 7.86949 23.0351 8.99376C22.8006 9.41726 22.2682 9.56457 21.8528 9.33316C21.4321 9.09978 21.2808 8.56965 21.5134 8.14914C21.9951 7.27941 22.2609 6.21177 22.2609 5.14295C22.2609 3.99042 22.0192 3.0115 21.5217 2.15034C21.2808 1.73381 21.423 1.20127 21.8384 0.960354C22.2525 0.718607 22.7866 0.861503 23.0267 1.27843L23.0267 1.2784Z" fill="#707070"/>
<path d="M4.01095 7.28679C3.63629 6.6371 3.43823 5.89589 3.43823 5.14314C3.43823 4.38978 3.63631 3.64862 4.01274 2.99853C4.24923 2.58917 4.77101 2.44904 5.18249 2.68603C5.59138 2.92339 5.73192 3.44775 5.49444 3.85749C5.26928 4.24652 5.15064 4.69116 5.15064 5.14314C5.15064 5.59515 5.26928 6.03997 5.49424 6.42981C5.73074 6.83956 5.59039 7.36408 5.1805 7.60025C4.77558 7.83562 4.24961 7.6995 4.01095 7.28676V7.28679Z" fill="#707070"/>
<path d="M2.48664 8.14888C2.71896 8.5694 2.56766 9.09953 2.14722 9.3329C1.73175 9.56428 1.19961 9.4168 0.964931 8.9935C0.342827 7.86907 0 6.5021 0 5.14268C0 3.67525 0.317723 2.41134 0.973289 1.27814C1.21238 0.861209 1.74492 0.718706 2.16133 0.960458C2.5768 1.20101 2.71892 1.73392 2.47806 2.15044C1.98058 3.0112 1.73889 3.99016 1.73889 5.14306C1.73929 6.21146 2.00526 7.2791 2.48662 8.14884L2.48664 8.14888Z" fill="#707070"/>
</svg>
