<svg width="11" height="9" viewBox="0 0 11 9" fill="none" xmlns="http://www.w3.org/2000/svg">
<path fill-rule="evenodd" clip-rule="evenodd" d="M7.30544 5.91265H8.82131C9.28919 5.91265 9.68585 5.61472 9.81621 5.16533L10.4564 2.9575C10.5501 2.63441 10.492 2.31592 10.2898 2.04687C10.0876 1.77783 9.79809 1.63342 9.46181 1.63342H4.02989C3.73196 1.63342 3.47063 1.74697 3.27414 1.95986L2.75986 0.18642C2.72729 0.0738815 2.62451 0.000702881 2.51298 0.000702881V0H0.75827C0.61582 0 0.5 0.115506 0.5 0.25827C0.5 0.400721 0.615506 0.516541 0.75827 0.516541H2.32015L3.68921 5.2377C3.69929 5.27261 3.71608 5.30354 3.73756 5.3297C3.9075 5.68638 4.26151 5.91348 4.66997 5.91348H7.30526L7.30544 5.91265ZM8.64293 6.58844C9.11957 6.58844 9.50615 6.9747 9.50615 7.45134C9.50615 7.92797 9.11989 8.31424 8.64293 8.31424C8.1663 8.31424 7.78003 7.92797 7.78003 7.45134C7.78003 6.9747 8.1663 6.58844 8.64293 6.58844ZM4.96161 6.58844C5.43825 6.58844 5.82483 6.9747 5.82483 7.45134C5.82483 7.92797 5.43857 8.31424 4.96161 8.31424C4.48498 8.31424 4.09871 7.92797 4.09871 7.45134C4.09871 6.9747 4.48498 6.58844 4.96161 6.58844Z" fill="#707070"/>
</svg>
