<svg width="18" height="18" viewBox="0 0 18 18" fill="none" xmlns="http://www.w3.org/2000/svg">
<path d="M16.4616 17.9987C17.2163 17.9987 17.8312 17.3838 17.8312 16.6291V13.918L13.415 17.9988L16.4616 17.9987Z" fill="black"/>
<path d="M17.8054 12.9703C17.7495 12.8026 17.5818 12.7188 17.4141 12.7188H13.8925C12.9422 12.7188 12.1875 13.4735 12.1875 14.4237V17.5821C12.1875 17.7498 12.2713 17.8896 12.439 17.9734C12.495 18.0013 12.5507 18.0013 12.6067 18.0013C12.7184 18.0013 12.8024 17.9734 12.8863 17.8896L17.7216 13.4175C17.8335 13.3055 17.8894 13.1379 17.8054 12.9702V12.9703Z" fill="black"/>
<path d="M16.4625 1.45312H15.8755V2.76678C15.8755 3.52148 15.2606 4.13639 14.5059 4.13639H13.6395C12.8848 4.13639 12.2699 3.52148 12.2699 2.76678L12.2701 1.45312H5.58998V2.76678C5.58998 3.52148 4.97507 4.13639 4.22037 4.13639L3.32607 4.13619C2.57136 4.13619 1.95646 3.52129 1.95646 2.76659V1.45313H1.36961C0.614903 1.45313 0 2.06803 0 2.82274V4.61154H17.8601V2.82274C17.8323 2.06803 17.2173 1.45313 16.4626 1.45313L16.4625 1.45312Z" fill="black"/>
<path d="M4.03638e-05 16.6293C4.03638e-05 17.384 0.614943 17.9989 1.36965 17.9989H11.8509C11.795 17.8872 11.7392 17.7474 11.7392 17.5798L11.739 14.4213C11.739 13.2474 12.6893 12.2691 13.8912 12.2691H17.441C17.5807 12.2691 17.7205 12.297 17.8601 12.3809V5.44922H0L4.03638e-05 16.6293Z" fill="black"/>
<path d="M3.32763 3.68947H4.19403C4.69703 3.68947 5.11639 3.27029 5.11639 2.76711V0.922354C5.11639 0.419352 4.69721 0 4.19403 0H3.32763C2.82462 0 2.40527 0.419172 2.40527 0.922354V2.76711C2.40527 3.27011 2.82464 3.68947 3.32763 3.68947Z" fill="black"/>
<path d="M13.6405 3.68947H14.5069C15.0099 3.68947 15.4292 3.27029 15.4292 2.76711V0.922354C15.4292 0.419352 15.0101 0 14.5069 0H13.6405C13.1375 0 12.7181 0.419172 12.7181 0.922354V2.76711C12.6902 3.27011 13.1094 3.68947 13.6405 3.68947Z" fill="black"/>
</svg>
