<svg width="36" height="36" viewBox="0 0 36 36" fill="none" xmlns="http://www.w3.org/2000/svg">
<ellipse cx="17.8269" cy="18" rx="17.8269" ry="18" fill="white"/>
<path d="M22.6248 24.3986C22.0566 24.3986 21.5925 23.8557 21.5854 23.1934V21.8653L24.6965 15.5137C25.3776 14.1222 24.9672 12.5063 23.7807 11.9127H23.7808C23.0433 11.5657 22.1794 11.6344 21.5048 12.0937C21.4044 11.6384 21.1987 11.2137 20.9044 10.854C20.4928 10.316 19.8573 10.0009 19.1839 10.0009C18.5105 10.0009 17.8752 10.316 17.4635 10.854C17.0522 10.316 16.417 10.0009 15.7439 10.0009C15.0707 10.0009 14.4356 10.316 14.0243 10.854C13.6059 10.3243 12.9749 10.011 12.3038 10C10.9794 10 9.90234 11.2667 9.90234 12.8175V12.832H11.2662V12.8175C11.2662 12.1461 11.7321 11.5996 12.3039 11.5996C12.8756 11.5996 13.3434 12.1425 13.3434 12.8175L13.3433 21.7874H14.7053L14.7054 12.8265C14.7054 12.1551 15.1713 11.6087 15.7448 11.6087C16.3184 11.6087 16.7826 12.1516 16.7826 12.8265L16.7824 21.7874H18.1463V12.8265C18.1463 12.1551 18.6122 11.6087 19.184 11.6087C19.7557 11.6087 20.2235 12.1516 20.2235 12.8265L20.2234 21.5431L18.3613 25.3793L19.5782 25.9982L20.4151 24.2683V24.2682C20.5286 24.5878 20.6966 24.8848 20.9115 25.1458C21.3297 25.6761 21.9609 25.9894 22.6321 26C23.9529 26 25.0281 24.7442 25.0335 23.1971L23.6625 23.1969C23.6571 23.8611 23.2001 24.3985 22.6248 24.3985L22.6248 24.3986ZM21.5872 14.0227L21.6141 13.9667C21.9098 13.3641 22.5676 13.0836 23.0801 13.3387C23.5927 13.5938 23.7719 14.2941 23.4762 14.8967L21.5873 18.7601L21.5872 14.0227Z" fill="#707070"/>
</svg>
