<svg width="15" height="11" viewBox="0 0 15 11" fill="none" xmlns="http://www.w3.org/2000/svg">
<path d="M14.5001 3.1695V1.7454C14.4994 1.49497 14.3997 1.25521 14.2227 1.07829C14.0458 0.901163 13.8059 0.801474 13.5556 0.800781H8.15308V10.0384H13.5556C13.8057 10.0384 14.0456 9.93928 14.2226 9.76267C14.3997 9.58605 14.4994 9.34649 14.5001 9.0964V7.67211C13.89 7.69229 13.2979 7.46411 12.8593 7.03985C12.4207 6.61539 12.1729 6.03122 12.1729 5.42085C12.1729 4.81048 12.4207 4.22629 12.8593 3.80203C13.2979 3.37757 13.89 3.1494 14.5001 3.16958V3.1695Z" fill="black"/>
<path d="M0.5 1.74545V3.16956C1.28645 3.19561 2.00239 3.63043 2.38842 4.31617C2.77441 5.00208 2.77441 5.83962 2.38842 6.52554C2.00243 7.21145 1.2865 7.64609 0.5 7.67214V9.09643C0.5 9.34582 0.598827 9.58502 0.774922 9.76163C0.951189 9.93824 1.19006 10.0378 1.43947 10.0384H6.84687V0.800781H1.43947C1.1899 0.802161 0.950871 0.902196 0.774922 1.07915C0.598827 1.25628 0.5 1.49567 0.5 1.74542V1.74545Z" fill="black"/>
</svg>
