<svg width="15" height="15" viewBox="0 0 15 15" fill="none" xmlns="http://www.w3.org/2000/svg">
<path d="M7.05093 6.69561C8.91798 6.69561 10.3987 5.21485 10.3987 3.3478C10.3987 1.48076 8.91798 0 7.05093 0C5.18388 0 3.70312 1.48076 3.70312 3.3478C3.70312 5.21485 5.18388 6.69561 7.05093 6.69561Z" fill="#262425"/>
<path d="M9.56265 7.66016H4.54095C2.60952 7.66016 1 9.26968 1 11.2011V12.1024C1 12.9394 1.70819 13.6476 2.54514 13.6476H11.5585C12.3954 13.6476 13.1036 12.9394 13.1036 12.1024V11.2011C13.0392 9.26968 11.4941 7.66016 9.56265 7.66016Z" fill="#262425"/>
<path fill-rule="evenodd" clip-rule="evenodd" d="M11 8C9.34314 8 8 9.34314 8 11C8 12.6569 9.34314 14 11 14C12.6569 14 14 12.6569 14 11C14 9.34314 12.6569 8 11 8Z" fill="#262425" stroke="#F7F7F7" stroke-width="0.6"/>
<circle cx="11.0002" cy="10.9992" r="1.8" fill="#F7F7F7"/>
<path fill-rule="evenodd" clip-rule="evenodd" d="M11.9542 10.666L10.9416 11.6948C10.8912 11.7452 10.8251 11.7707 10.759 11.7707C10.694 11.7707 10.6286 11.746 10.5785 11.6966L10.0483 11.1821C9.94696 11.0823 9.94594 10.9195 10.046 10.8187C10.1457 10.7171 10.3085 10.7166 10.4093 10.8164L10.7575 11.1504L11.5891 10.3034C11.6899 10.2031 11.8524 10.2023 11.9529 10.3021C12.0537 10.4026 12.0543 10.5652 11.9542 10.666ZM11.0002 9.19922C10.0061 9.19922 9.2002 10.0051 9.2002 10.9992C9.2002 11.9933 10.0061 12.7992 11.0002 12.7992C11.9943 12.7992 12.8002 11.9933 12.8002 10.9992C12.8002 10.0051 11.9943 9.19922 11.0002 9.19922Z" fill="#262425"/>
</svg>
