<svg width="15" height="14" viewBox="0 0 15 14" fill="none" xmlns="http://www.w3.org/2000/svg">
<path d="M7.20567 2.92476L5.15478 0H0.5L4.9051 6.13485L7.20567 2.92476Z" fill="black"/>
<path d="M10.1129 6.13485L14.411 0H9.91672L5.6543 5.83168C5.6543 5.83168 7.70519 4.77938 10.1129 6.13484V6.13485Z" fill="black"/>
<path d="M7.49141 6.22266C5.35132 6.22266 3.60352 7.95254 3.60352 10.1104C3.60352 12.2684 5.33345 13.9982 7.49141 13.9982C9.64931 13.9982 11.3793 12.2327 11.3793 10.0926C11.3793 7.95245 9.63157 6.22266 7.49141 6.22266ZM7.49141 13.1244C5.81495 13.1244 4.4596 11.769 4.4596 10.0926C4.4596 8.41626 5.81498 7.06091 7.49141 7.06091C9.16785 7.06091 10.5232 8.41626 10.5232 10.0926C10.5232 11.7689 9.16785 13.1244 7.49141 13.1244Z" fill="black"/>
<path d="M9.98684 10.1105C9.98684 11.5092 8.85302 12.6429 7.45436 12.6429C6.0557 12.6429 4.92188 11.5092 4.92188 10.1105C4.92188 8.71191 6.0557 7.57812 7.45436 7.57812C8.85302 7.57812 9.98684 8.71191 9.98684 10.1105Z" fill="black"/>
<path fill-rule="evenodd" clip-rule="evenodd" d="M6.42737 9.17199C6.41631 9.39749 6.42893 9.64995 6.464 9.90289C6.5117 10.2469 6.59833 10.5754 6.7088 10.8319C6.74566 10.5576 6.73987 10.2195 6.69216 9.8754C6.65707 9.62229 6.60039 9.37494 6.52811 9.15939C6.57183 9.1339 6.59839 9.08397 6.59149 9.03065C6.58231 8.95959 6.51726 8.90943 6.44622 8.91862C6.37517 8.9278 6.32502 8.99285 6.33419 9.06389C6.34104 9.11691 6.37903 9.15823 6.42737 9.17199ZM7.41904 8.84938C7.41758 8.84909 7.41615 8.84923 7.41469 8.84892C7.36665 9.10223 7.34127 9.38955 7.34127 9.68045C7.34127 10.0923 7.3904 10.5116 7.47317 10.8105C7.55595 10.5116 7.60507 10.0923 7.60507 9.68045C7.60507 9.38955 7.5797 9.10223 7.53166 8.84892C7.53019 8.84923 7.52877 8.84909 7.5273 8.84938C7.59433 8.82668 7.64292 8.76398 7.64292 8.68928C7.64292 8.59554 7.56693 8.51953 7.47317 8.51953C7.37943 8.51953 7.30342 8.59554 7.30342 8.68928C7.30342 8.76398 7.352 8.82668 7.41904 8.84938ZM9.33073 9.72948C9.34328 9.6797 9.3131 9.62915 9.26332 9.61659C9.21352 9.60402 9.16297 9.6342 9.15041 9.684C9.14087 9.72183 9.15616 9.75988 9.18582 9.78159C9.11523 9.92874 9.05278 10.0994 9.00503 10.2758C8.94077 10.5132 8.90599 10.7497 8.90617 10.9459C9.00623 10.7732 9.09595 10.5496 9.1602 10.3123C9.20784 10.1363 9.23965 9.95897 9.25245 9.79855C9.28919 9.79381 9.32111 9.7676 9.33073 9.72948ZM7.47348 10.8984C6.55074 10.8984 5.82796 11.0682 5.82796 11.285C5.82796 11.3713 5.94195 11.4522 6.1576 11.5189C6.1629 11.5206 6.16862 11.518 6.17047 11.5131C6.17232 11.5082 6.16963 11.5028 6.16443 11.501C5.99608 11.4421 5.90337 11.3777 5.90337 11.3194C5.90337 11.1558 6.62239 11.0175 7.47348 11.0175C8.32457 11.0175 9.0436 11.1558 9.0436 11.3194C9.0436 11.3777 8.95089 11.4421 8.78254 11.501C8.77732 11.5028 8.77462 11.5082 8.77648 11.5131C8.77795 11.517 8.78193 11.5194 8.78614 11.5194C8.7872 11.5194 8.78829 11.5193 8.78936 11.5189C9.00502 11.4522 9.11901 11.3713 9.11901 11.285C9.11901 11.0682 8.39621 10.8984 7.47348 10.8984ZM9.25512 10.6601C9.20633 10.8042 9.1799 10.95 9.17994 11.0737C9.25617 10.9724 9.32433 10.8389 9.37312 10.6949C9.42193 10.5508 9.44834 10.405 9.44832 10.2814C9.37209 10.3826 9.30393 10.5161 9.25512 10.6601ZM5.49805 10.2814C5.49803 10.405 5.52444 10.5508 5.57325 10.6949C5.62204 10.8389 5.6902 10.9724 5.76643 11.0737C5.76647 10.95 5.74004 10.8042 5.69125 10.6601C5.64244 10.5161 5.57428 10.3826 5.49805 10.2814ZM5.94134 10.2758C5.89359 10.0994 5.83114 9.92874 5.76056 9.78162C5.79026 9.75992 5.8056 9.72186 5.79605 9.684C5.78348 9.6342 5.73293 9.60402 5.68313 9.61659C5.63335 9.62915 5.60316 9.6797 5.61572 9.72948C5.62532 9.76757 5.65722 9.79378 5.69392 9.79857C5.70672 9.95898 5.73853 10.1363 5.78615 10.3123C5.85042 10.5496 5.94014 10.7732 6.0402 10.9459C6.04038 10.7497 6.00558 10.5132 5.94134 10.2758ZM7.98964 9.94551C8.00921 9.70315 7.99782 9.46617 7.95763 9.27427C7.88706 9.4584 7.83774 9.69112 7.81818 9.93348C7.79861 10.1758 7.80999 10.4128 7.85019 10.6047C7.92075 10.4206 7.97005 10.1879 7.98964 9.94551ZM6.31916 10.6776C6.33152 10.5075 6.31413 10.3019 6.2696 10.0947C6.22508 9.88748 6.15618 9.69148 6.07448 9.53894C6.06212 9.70902 6.07952 9.91466 6.12404 10.1219C6.16857 10.3291 6.23749 10.5251 6.31916 10.6776ZM8.82231 10.1219C8.86685 9.91466 8.88424 9.70902 8.87188 9.53894C8.79019 9.69148 8.72129 9.88748 8.67677 10.0947C8.63224 10.3019 8.61485 10.5075 8.62721 10.6776C8.70888 10.5251 8.7778 10.3291 8.82231 10.1219ZM8.48237 9.90289C8.51744 9.64995 8.53006 9.39751 8.519 9.17203C8.56738 9.15828 8.6054 9.11694 8.61226 9.06389C8.62144 8.99285 8.57128 8.9278 8.50024 8.91862C8.42918 8.90943 8.36414 8.95959 8.35497 9.03065C8.34807 9.08395 8.37459 9.13387 8.41827 9.15936C8.34602 9.37493 8.2893 9.62227 8.25421 9.8754C8.2065 10.2195 8.2007 10.5576 8.23755 10.8319C8.34804 10.5754 8.43466 10.2469 8.48237 9.90289ZM7.09618 10.6047C7.13637 10.4128 7.14776 10.1758 7.12819 9.93348C7.10863 9.69112 7.05931 9.45841 6.98874 9.27427C6.94855 9.46618 6.93716 9.70315 6.95673 9.94551C6.9763 10.1879 7.02562 10.4206 7.09618 10.6047Z" fill="white"/>
</svg>
