<svg width="14" height="14" viewBox="0 0 14 14" fill="none" xmlns="http://www.w3.org/2000/svg">
<path d="M4.80352 2.18996C5.34346 0.836725 6.1235 3.92824e-06 7.00019 3.92824e-06C5.42384 -0.0016702 3.89359 0.531808 2.66016 1.5133C3.34388 1.8267 4.06374 2.05393 4.80349 2.18999L4.80352 2.18996Z" fill="#707070"/>
<path d="M8.51995 2.29076C8.08334 1.26072 7.53 0.664062 6.99996 0.664062C6.46993 0.664062 5.91658 1.26072 5.47998 2.29076C5.98401 2.35549 6.4917 2.38775 6.99996 2.38741C7.50823 2.38775 8.01594 2.35549 8.51995 2.29076Z" fill="#707070"/>
<path d="M7.00003 3.24052e-05C7.87672 3.24052e-05 8.65673 0.836754 9.1967 2.18999C9.93645 2.05394 10.6563 1.8267 11.34 1.5133C10.1065 0.531808 8.57638 -0.00165331 7 3.84924e-06L7.00003 3.24052e-05Z" fill="#707070"/>
<path d="M0.529785 4.33339H4.21981C4.30274 3.82436 4.42194 3.32201 4.5765 2.83004C3.71835 2.67468 2.88732 2.39509 2.10986 2C1.42871 2.66118 0.890874 3.45547 0.529814 4.33339H0.529785Z" fill="#707070"/>
<path d="M4.89355 4.33094H9.10702C9.02298 3.85916 8.90713 3.39365 8.76036 2.9375C8.17698 3.01618 7.58892 3.05525 7.00029 3.05424C6.41165 3.05525 5.82359 3.01618 5.24022 2.9375C5.09345 3.39365 4.9776 3.85916 4.89355 4.33094Z" fill="#707070"/>
<path d="M11.89 2C11.1125 2.39509 10.2815 2.67466 9.42334 2.83004C9.57792 3.32201 9.69711 3.82436 9.78003 4.33339H13.4701C13.109 3.45547 12.5712 2.66118 11.89 2H11.89Z" fill="#707070"/>
<path d="M2.66016 12.4892C3.89365 13.4707 5.42381 14.0041 7.00019 14.0025C6.1235 14.0025 5.34349 13.1657 4.80352 11.8125C4.06377 11.9485 3.3439 12.1758 2.66018 12.4892L2.66016 12.4892Z" fill="#707070"/>
<path d="M5.48004 11.7061C5.91664 12.7361 6.46999 13.3328 7.00002 13.3328C7.53005 13.3328 8.0834 12.7361 8.52 11.7061C7.51074 11.5771 6.4893 11.5771 5.47998 11.7061H5.48004Z" fill="#707070"/>
<path d="M9.19667 11.8125C8.65673 13.1658 7.87669 14.0025 7 14.0025C8.57636 14.0042 10.1066 13.4707 11.34 12.4892C10.6563 12.1758 9.93645 11.9486 9.1967 11.8125L9.19667 11.8125Z" fill="#707070"/>
<path d="M4.5765 11.1674C4.42193 10.6754 4.30273 10.1731 4.21981 9.66406H0.529785C0.890845 10.542 1.42868 11.3363 2.10983 11.9975C2.88729 11.6024 3.71833 11.3228 4.57648 11.1674H4.5765Z" fill="#707070"/>
<path d="M9.10653 9.66406H4.89307C4.97711 10.1358 5.09296 10.6014 5.23973 11.0575C6.40794 10.9019 7.59163 10.9019 8.75975 11.0575C8.90652 10.6014 9.02237 10.1358 9.10642 9.66406H9.10653Z" fill="#707070"/>
<path d="M9.78003 9.66406C9.6971 10.1731 9.57791 10.6754 9.42334 11.1674C10.2815 11.3228 11.1125 11.6024 11.89 11.9975C12.5711 11.3363 13.109 10.542 13.47 9.66406H9.78003Z" fill="#707070"/>
<path d="M9.89387e-08 7.00002C-0.000111502 7.67736 0.0987723 8.35114 0.293317 9.00003H4.11992C3.95998 7.67145 3.95998 6.32858 4.11992 5H0.293317C0.0987837 5.64889 -0.000114188 6.32267 9.89387e-08 7.00002Z" fill="#707070"/>
<path d="M4.7898 5C4.6254 6.32824 4.6254 7.67179 4.7898 9.00003H9.20984C9.29366 8.33663 9.33484 7.66865 9.33317 7.00002C9.33484 6.33138 9.29366 5.66341 9.20984 5H4.7898Z" fill="#707070"/>
<path d="M9.87988 5C9.96002 5.66363 10.0001 6.3315 9.99986 7.00002C10.0001 7.66854 9.96002 8.3364 9.87988 9.00003H13.7065C14.0976 7.69534 14.0976 6.3047 13.7065 5H9.87988Z" fill="#707070"/>
</svg>
