<svg width="14" height="13" viewBox="0 0 14 13" fill="none" xmlns="http://www.w3.org/2000/svg">
<path d="M6.83848 9.21815C6.83848 7.07565 8.57008 5.34394 10.698 5.34394C11.6666 5.34394 12.547 5.69617 13.2368 6.29777L13.2369 3.01056C13.2369 2.58504 12.8994 2.24744 12.4737 2.24744H9.52406V1.79254C9.52406 1.01476 8.89309 0.398438 8.12996 0.398438H5.09223C4.31446 0.398438 3.69813 1.02941 3.69813 1.79254V2.24744H0.763127C0.337604 2.24744 0 2.58494 0 3.01056V11.3166C0 11.7421 0.337499 12.0798 0.763127 12.0798H8.10064C7.32286 11.3607 6.83858 10.348 6.83858 9.21812L6.83848 9.21815ZM4.54921 1.79259C4.54921 1.49912 4.79867 1.24964 5.09215 1.24964H8.12988C8.42336 1.24964 8.67283 1.4991 8.67283 1.79259V2.24749H4.54915L4.54921 1.79259Z" fill="#262425"/>
<path d="M10.6984 5.90234C8.87863 5.90234 7.39648 7.38449 7.39648 9.20422C7.39648 11.024 8.87863 12.5061 10.6984 12.5061C12.5181 12.5061 14.0002 11.024 14.0002 9.20422C14.015 7.38449 12.5327 5.90234 10.6984 5.90234ZM10.2582 10.3342L9.12819 9.2042L9.53909 8.7933L10.2582 9.5124L11.7403 8.03025L12.1512 8.44115L10.2582 10.3342Z" fill="#262425"/>
</svg>
