<svg width="15" height="12" viewBox="0 0 15 12" fill="none" xmlns="http://www.w3.org/2000/svg">
<path d="M10.9573 0C11.896 0 12.799 0.353333 13.4633 0.987333C14.1283 1.62 14.5 2.47333 14.5 3.36667V8.63333C14.5 10.4933 12.911 12 10.9573 12H4.042C2.0883 12 0.5 10.4933 0.5 8.63333V3.36667C0.5 1.50667 2.0813 0 4.042 0H10.9573ZM11.749 3.46667C11.602 3.45933 11.462 3.50667 11.3563 3.6L8.2 6C7.794 6.32067 7.2123 6.32067 6.8 6L3.65 3.6C3.4323 3.44667 3.1313 3.46667 2.95 3.64667C2.761 3.82667 2.74 4.11333 2.9003 4.31333L2.992 4.4L6.177 6.76667C6.569 7.06 7.0443 7.22 7.542 7.22C8.0383 7.22 8.522 7.06 8.9133 6.76667L12.071 4.36L12.127 4.30667C12.2943 4.11333 12.2943 3.83333 12.1193 3.64C12.022 3.54067 11.8883 3.48 11.749 3.46667Z" fill="#262425"/>
</svg>
