<svg width="343" height="313" viewBox="0 0 343 313" fill="none" xmlns="http://www.w3.org/2000/svg">
<rect width="343" height="269" rx="16" transform="matrix(-1 0 0 1 343 0)" fill="url(#paint0_linear_20294_183205)"/>
<path d="M218.32 175.328H138.616C131.677 175.328 126.053 169.703 126.053 162.764V41.5638C126.053 34.6258 131.677 29.001 138.616 29.001H218.32C225.258 29.001 230.883 34.6258 230.883 41.5638V162.764C230.883 169.703 225.258 175.328 218.32 175.328Z" fill="#E9F1FA"/>
<path d="M222.721 111.875H134.295V108.974C134.295 106.233 136.517 104.011 139.258 104.011H217.758C220.498 104.011 222.721 106.233 222.721 108.974V111.875Z" fill="#DCE3EE"/>
<path d="M217.453 160.734H139.563C136.653 160.734 134.295 158.375 134.295 155.466V111.874H222.721V155.466C222.721 158.375 220.362 160.734 217.453 160.734Z" fill="white"/>
<path fill-rule="evenodd" clip-rule="evenodd" d="M175.854 59.282C175.854 67.093 171.634 73.9173 165.348 77.6013C164.085 78.3396 162.738 78.9536 161.325 79.4217C161.198 79.465 161.07 79.5064 160.942 79.546C158.95 80.1645 156.834 80.4967 154.64 80.4967C151.252 80.4967 148.051 79.7036 145.209 78.2919C138.225 74.8194 133.424 67.6116 133.424 59.282C133.424 47.5655 142.923 38.0664 154.64 38.0664C166.356 38.0664 175.854 47.5655 175.854 59.282Z" fill="white"/>
<mask id="mask0_20294_183205" style="mask-type:alpha" maskUnits="userSpaceOnUse" x="134" y="41" width="39" height="40">
<rect x="134.6" y="41.5625" width="38.3051" height="38.9331" rx="19.1526" fill="white"/>
</mask>
<g mask="url(#mask0_20294_183205)">
<path d="M163.621 71.1802C163.469 71.957 159.187 73.3573 159.187 73.3573C159.187 73.3573 159.453 74.746 159.292 76.0854C159.074 77.9034 157.345 78.8301 157.423 80.9918C157.469 82.2474 161.198 89.6723 161.968 99.0208C162.74 108.368 163.282 116.787 163.282 116.787C163.282 116.787 163.254 116.589 163.203 116.228C163.203 116.228 163.203 116.227 163.203 116.226C162.688 112.618 159.8 92.8297 158.393 93.0403C157.712 93.1432 157.572 104.402 157.582 117.127C157.595 133.301 157.849 151.845 157.54 152.853C156.989 154.653 152.494 154.415 151.227 153.951C149.96 153.486 148.634 153.012 146.927 153.768C145.219 154.522 143.293 154.249 142.648 154.249C140.095 154.249 138.281 152.636 138.281 152.636C138.281 152.636 150.231 149.949 149.68 144.433C149.13 138.918 140.976 103.154 144.946 90.3693C146.85 84.2392 148.692 82.3084 148.637 80.9386C148.582 79.5702 146.393 76.9855 146.413 75.8138C146.427 74.9771 146.413 73.2406 146.413 73.2406L141.898 70.1227C142.303 67.957 143.473 67.4492 143.473 67.4492C143.473 67.4492 143.48 67.4504 143.49 67.4529C143.84 67.5417 149.458 68.9738 151.007 69.8737C152.603 70.8016 153.155 72.3987 153.155 72.3987C153.219 72.3214 155.325 69.8624 158.471 69.1769C161.666 68.4799 162.988 68.3632 162.988 68.3632C162.988 68.3632 164.086 68.8051 163.621 71.1802Z" fill="#A6BAD9"/>
<path d="M163.346 71.5781C163.346 71.5781 163.624 80.672 163.908 81.5631C164.192 82.4543 167.105 95.7091 167.482 97.0342C168.258 99.7561 167.69 102.508 167.209 102.256C166.923 102.106 166.33 98.3611 166.079 98.372C165.827 98.3831 166.133 99.5857 166.046 99.9119C165.96 100.238 165.386 100.529 165.386 100.529C165.386 100.529 164.766 97.1994 164.902 96.852C165.038 96.5043 165.158 95.3827 165.158 95.3827C165.158 95.3827 160.112 84.1775 160.038 82.6913C159.946 80.8348 159.232 73.266 159.232 73.266L163.346 71.5781Z" fill="#E0E8F3"/>
<path d="M141.911 70.043C140.652 73.5593 141.255 80.61 141.369 82.4354C141.484 84.2614 143.686 88.882 144.64 88.9237C145.594 88.965 146.052 87.179 146.968 87.179C147.428 87.179 149.555 87.2578 149.638 87.0531C149.856 86.5137 148.075 85.2717 147.006 85.1887C145.938 85.1058 144.754 86.3093 144.602 86.1848C144.449 86.0601 144.684 81.2497 144.602 81.104C144.258 80.4953 144.818 73.6617 146.081 72.9448L141.911 70.043Z" fill="#E0E8F3"/>
<path d="M163.849 60.3194C164.223 61.0391 163.728 62.0636 162.939 62.2008C162.624 62.2554 162.227 62.2274 162.073 62.5131C161.985 62.6755 162.025 62.8748 162.007 63.059C161.948 63.6569 161.319 64.0073 160.753 64.1785C159.407 64.5836 157.867 64.5481 156.695 63.7634C156.504 63.6353 156.325 63.4739 156.165 63.2887C156.165 63.2887 156.163 63.2875 156.163 63.2861L156.162 63.2849C156.161 63.2835 156.16 63.2823 156.158 63.2823C155.956 63.0473 155.781 62.7745 155.639 62.4799C155.431 61.7259 155.665 60.7597 155.792 59.9257C155.792 59.9244 155.793 59.922 155.793 59.9206C155.81 59.8102 155.825 59.7022 155.836 59.5968C155.897 59.0562 155.875 58.5978 155.597 58.3287C154.69 57.4464 155.182 56.5642 155.597 55.5791C156.013 54.5927 155.39 54.3857 154.925 53.6595C154.459 52.9335 154.871 52.9067 154.925 51.9216C154.977 50.9365 153.575 50.7156 153.575 50.7156H153.158C151.767 50.7156 150.64 51.9113 150.64 53.3877V55.6893C150.64 55.9381 150.716 56.4725 150.884 57.1048C151.073 57.8196 151.379 58.6612 151.823 59.3619C151.827 59.3669 151.83 59.3721 151.833 59.3772H151.815C151.815 59.3772 151.819 59.5942 151.817 59.9357C151.814 60.3522 151.803 60.9551 151.766 61.5707C151.605 62.4848 151.253 63.0117 150.952 63.1779C150.493 63.4318 149.497 63.4115 149.132 63.0319C148.998 62.8922 148.897 62.7082 148.721 62.6333C148.528 62.5507 148.309 62.6244 148.106 62.6802C147.733 62.7844 147.05 62.6941 146.759 62.4328C146.446 62.1523 146.302 61.5707 146.79 61.0757C147.039 60.8204 147.574 60.3343 147.329 60.0754C147.154 59.89 146.853 59.8862 146.668 59.7111C146.465 59.5182 146.471 59.1805 146.579 58.9202C146.687 58.6598 146.875 58.4416 147.004 58.1915C147.045 58.1129 147.081 58.0279 147.078 57.9389C147.073 57.7714 146.934 57.6368 146.786 57.5631C146.636 57.4907 146.47 57.4603 146.323 57.3853C145.845 57.1492 145.674 56.5068 145.816 55.9875C145.958 55.4685 146.34 55.0532 146.74 54.6991C147.106 54.3755 147.531 54.0199 147.556 53.5274C147.58 53.0488 147.214 52.6515 147.058 52.1995C146.886 51.6994 146.984 51.1295 147.247 50.6723C147.509 50.2153 147.923 49.8637 148.376 49.6035C149.046 49.2189 149.905 49.0284 150.573 49.4169L150.665 49.4373C150.225 48.8241 150.363 47.947 150.724 47.2816C151.29 46.2407 152.361 45.5031 153.522 45.3558C154.681 45.2086 155.899 45.6555 156.698 46.5224C156.832 46.6671 156.958 46.8258 157.127 46.926C157.505 47.1507 157.981 47.0249 158.408 46.9234C158.834 46.8206 159.346 46.771 159.652 47.0898C160.052 47.5037 159.83 48.2539 160.17 48.7185C160.395 49.0246 160.796 49.1197 161.149 49.2493C161.503 49.3787 161.882 49.6313 161.896 50.0136C161.913 50.449 161.45 50.7472 161.334 51.1676C161.196 51.6703 161.585 52.1551 161.97 52.5005C162.356 52.8447 162.803 53.2265 162.823 53.7484C162.837 54.1319 162.612 54.5405 162.786 54.8808C162.988 55.2718 163.629 55.362 163.668 55.8025C163.68 55.946 163.616 56.0856 163.602 56.2303C163.561 56.6937 164.032 57.0567 164.077 57.5201C164.146 58.2133 163.257 58.7364 163.359 59.4243C163.408 59.766 163.69 60.0161 163.849 60.3194Z" fill="#C5D5E7"/>
<path d="M162.976 68.363C162.976 68.363 161.655 68.4797 158.46 69.1767C155.314 69.8622 153.209 72.3199 153.144 72.3973C153.143 72.3985 153.143 72.3985 153.143 72.3985C153.143 72.3985 152.592 70.8016 150.995 69.8735C149.446 68.9734 143.829 67.5415 143.479 67.4527C143.88 66.5501 144.763 65.2337 146.535 65.0826C148.87 64.8845 150.841 64.7056 151.356 63.8639C151.589 63.4805 151.703 62.5106 151.759 61.57C151.796 60.9542 151.807 60.3513 151.81 59.935C151.813 59.5935 151.809 59.3764 151.809 59.3764H151.827C151.823 59.3714 151.82 59.3662 151.816 59.3611C151.372 58.6605 151.066 57.8188 150.877 57.1041C150.709 56.4718 150.633 55.9374 150.633 55.6885V53.387C150.633 51.9106 151.76 50.7148 153.151 50.7148H153.568C153.568 50.7148 154.97 50.9357 154.918 51.9208C154.864 52.906 154.452 52.9326 154.918 53.6588C155.384 54.385 156.006 54.5919 155.591 55.5783C155.176 56.5634 154.683 57.4456 155.591 58.328C155.869 58.597 155.89 59.0554 155.829 59.5961C155.82 59.614 155.809 59.6317 155.798 59.6481C155.794 59.7154 155.789 59.808 155.786 59.9197L155.785 59.9247C155.658 60.7588 155.424 61.7249 155.633 62.479C155.717 62.7901 155.877 63.0655 156.152 63.2813C156.153 63.2813 156.154 63.2826 156.155 63.2839L156.157 63.2852L156.158 63.2878C156.331 63.7879 156.581 64.2056 156.937 64.4329C158.377 65.3443 160.599 64.8365 161.571 65.4027C163.169 66.3319 162.976 68.363 162.976 68.363Z" fill="#E0E8F3"/>
<path d="M155.8 59.6509C155.792 59.7796 155.783 59.994 155.781 60.2634C155.332 60.9405 154.745 61.6186 154.003 61.618C153.063 61.618 152.351 60.7819 151.828 59.9636C151.825 59.9582 151.822 59.9533 151.818 59.9481C151.816 59.9444 151.814 59.9411 151.812 59.9375C151.814 59.5966 151.811 59.3789 151.811 59.3789L151.828 59.3794C152.351 60.198 153.063 60.8205 154.003 60.8205C154.755 60.8211 155.349 60.3378 155.8 59.6509Z" fill="#C5D5E7"/>
</g>
<path d="M197.89 60.4363L199.042 62.7695L201.617 63.1433L199.753 64.9596L200.193 67.5234L197.89 66.3131L195.587 67.5234L196.027 64.9596L194.164 63.1433L196.739 62.7695L197.89 60.4363Z" fill="#BAC8E3"/>
<path d="M206.642 60.4363L207.793 62.7695L210.368 63.1433L208.505 64.9596L208.945 67.5234L206.642 66.3131L204.339 67.5234L204.779 64.9596L202.916 63.1433L205.49 62.7695L206.642 60.4363Z" fill="#BAC8E3"/>
<path d="M189.005 75.7994C188.568 75.7994 188.212 76.0705 188.212 76.4043V86.517C188.212 86.8503 188.568 87.122 189.005 87.122H219.281C219.718 87.122 220.074 86.8503 220.074 86.517V76.4043C220.074 76.0705 219.718 75.7994 219.281 75.7994H189.005ZM219.281 88.2109H189.005C187.781 88.2109 186.785 87.4508 186.785 86.517V76.4043C186.785 75.47 187.781 74.7104 189.005 74.7104H219.281C220.505 74.7104 221.501 75.47 221.501 76.4043V86.517C221.501 87.4508 220.505 88.2109 219.281 88.2109Z" fill="#D1D8EA"/>
<path d="M217.404 80.8789H190.782C190.57 80.8789 190.398 80.7075 190.398 80.4961V80.3575C190.398 80.1461 190.57 79.9747 190.782 79.9747H217.404C217.616 79.9747 217.787 80.1461 217.787 80.3575V80.4961C217.787 80.7075 217.616 80.8789 217.404 80.8789Z" fill="#BAC8E3"/>
<path d="M217.404 83.5195H190.782C190.57 83.5195 190.398 83.3481 190.398 83.1367V82.9989C190.398 82.7875 190.57 82.6161 190.782 82.6161H217.404C217.616 82.6161 217.787 82.7875 217.787 82.9989V83.1367C217.787 83.3481 217.616 83.5195 217.404 83.5195Z" fill="#BAC8E3"/>
<path d="M210.081 47.0935C210.081 51.4643 206.537 55.0078 202.166 55.0078C197.796 55.0078 194.252 51.4643 194.252 47.0935C194.252 42.7228 197.796 39.1792 202.166 39.1792C206.537 39.1792 210.081 42.7228 210.081 47.0935Z" fill="white"/>
<path d="M206.07 44.5595L203.892 42.566L201.892 44.8247L199.891 42.566L197.713 44.5595L199.903 47.07L197.713 49.5429L199.957 51.5664L201.892 49.3491L203.827 51.5664L206.07 49.5429L203.88 47.07L206.07 44.5595Z" fill="#BAC8E3"/>
<path d="M314.816 239H28.5461C27.7472 239 27.0996 238.507 27.0996 237.9C27.0996 237.293 27.7472 236.801 28.5461 236.801H314.816C315.615 236.801 316.262 237.293 316.262 237.9C316.262 238.507 315.615 239 314.816 239Z" fill="url(#paint1_linear_20294_183205)"/>
<path d="M27.5 182.05V237.129H73.1416V182.05H27.5Z" stroke="#D7D7D7"/>
<path d="M32.0332 186.618V200.094H67.1164V186.618H32.0332Z" stroke="#D7D7D7"/>
<path d="M32.0332 205.805V234.473H67.1164V205.805H32.0332Z" stroke="#D7D7D7"/>
<path d="M49.412 194.664C50.1941 194.664 50.8279 194.03 50.8279 193.248C50.8279 192.466 50.1941 191.832 49.412 191.832C48.6299 191.832 47.9961 192.466 47.9961 193.248C47.9961 194.03 48.6299 194.664 49.412 194.664Z" stroke="#D7D7D7"/>
<path d="M49.0875 205.725V234.643H50.7034V205.725H49.0875Z" stroke="#D7D7D7" stroke-width="0.3"/>
<path d="M43.0818 181.551H37.334V161.851H43.0818V181.551Z" fill="#F2ECEC"/>
<path d="M41.5128 165.908C41.5128 166.679 40.8874 167.305 40.1158 167.305C39.3442 167.305 38.7188 166.679 38.7188 165.908C38.7188 165.137 39.3442 164.511 40.1158 164.511C40.8874 164.511 41.5128 165.137 41.5128 165.908Z" fill="#E1E1E1"/>
<path d="M54.5759 181.551H48.8281V161.851H54.5759V181.551Z" fill="#F2ECEC"/>
<path d="M53.003 165.908C53.003 166.679 52.3776 167.305 51.606 167.305C50.8344 167.305 50.209 166.679 50.209 165.908C50.209 165.137 50.8344 164.511 51.606 164.511C52.3776 164.511 53.003 165.137 53.003 165.908Z" fill="#E1E1E1"/>
<path d="M48.8259 181.551H43.0781V161.851H48.8259V181.551Z" fill="#E4DFDF"/>
<path d="M59.9548 181.551H54.207V161.851H59.9548V181.551Z" fill="#D7D7D7"/>
<path d="M71.4722 230.712H82.5557V203.8H84.962V230.712H96.5116C97.1759 230.712 97.8086 230.961 98.2497 231.396L101.408 234.51C102.018 235.111 101.823 236.052 101.01 236.429C100.424 236.701 99.6991 236.582 99.2662 236.143L95.86 232.688H84.962V235.424C84.962 236.004 84.4236 236.474 83.7592 236.474C83.0949 236.474 82.5557 236.004 82.5557 235.424V232.688H73.1689L69.7807 236.124C69.3389 236.573 68.5976 236.687 68.0071 236.397C67.2169 236.009 67.0381 235.084 67.6391 234.491L71.4722 230.712Z" fill="#E3C1AB"/>
<path d="M91.3548 155.262L93.4512 203.797H62.9107L58.1841 156.329C57.6849 151.314 62.2109 147.003 67.9751 147.003H81.5336C86.8175 147.003 91.1557 150.651 91.3548 155.262Z" fill="#F7E6DC"/>
<path d="M65.4345 205.691H111.651C113.048 205.691 114.182 204.843 114.182 203.798C114.182 202.752 113.048 201.905 111.651 201.905H65.4345C64.0372 201.905 62.9038 202.752 62.9038 203.798C62.9038 204.843 64.0372 205.691 65.4345 205.691Z" fill="#F0D4C2"/>
<path d="M110.528 202.059H112.635L110.641 189.76C110.523 189.031 109.808 188.489 108.965 188.489H92.8212V190.464H108.493L110.528 202.059Z" fill="#E3C1AB"/>
<path d="M79.2045 201.906H81.4668L79.3531 189.725C79.2294 189.013 78.5289 188.486 77.7039 188.486H61.5243V190.462H77.1956L79.2045 201.906Z" fill="#E3C1AB"/>
<path d="M273.373 233.91C273.426 233.91 273.48 233.906 273.534 233.895C274.017 233.797 274.337 233.288 274.249 232.757L264.335 172.859H256.156L245.129 232.332C245.032 232.862 245.342 233.378 245.823 233.487C246.306 233.594 246.774 233.253 246.872 232.723L257.608 174.816H262.851L272.5 233.107C272.578 233.58 272.952 233.91 273.373 233.91Z" fill="#F4DDCE"/>
<path d="M251.879 235.055C251.932 235.055 251.986 235.049 252.04 235.039C252.523 234.942 252.843 234.432 252.755 233.901L242.841 174.003H234.694L221.226 233.24C221.107 233.765 221.396 234.296 221.873 234.427C222.35 234.558 222.832 234.24 222.951 233.715L236.082 175.961H241.357L251.006 234.251C251.084 234.724 251.458 235.055 251.879 235.055Z" fill="#F4DDCE"/>
<path d="M228.758 176.258H275.846V173.334H228.758V176.258Z" fill="#F4DDCE"/>
<path d="M246.645 173.473H266.504V171.821H246.645V173.473Z" fill="#F4DDCE"/>
<path d="M242.175 173.473H247.041V171.821H242.175V173.473Z" fill="#F4DDCE"/>
<path d="M258.125 155.726L261.533 171.82H242.169L239.506 156.601L240.588 155.726H258.125Z" fill="#F4DDCE"/>
<path d="M257.338 156.783L260.164 170.855H244.104L241.896 156.783H257.338Z" fill="white"/>
<path d="M243.51 171.82L240.596 155.726L239.513 156.601L242.176 171.82H243.51Z" fill="#F4DDCE"/>
<path d="M307.482 235.762C307.574 235.762 307.67 235.746 307.763 235.711C308.229 235.54 308.481 234.986 308.325 234.474L298.357 201.535H290.366L280.3 234.471C280.143 234.983 280.394 235.538 280.86 235.711C281.325 235.88 281.829 235.607 281.986 235.096L291.644 203.493H297.075L306.638 235.092C306.762 235.503 307.109 235.762 307.482 235.762Z" fill="#F4DDCE"/>
<path d="M285.254 203.449H300.23L304.929 178.547C305.028 178.017 304.719 177.5 304.239 177.389C303.758 177.278 303.287 177.619 303.187 178.149L298.783 201.492H287.481L292.204 178.564C292.313 178.037 292.012 177.513 291.533 177.393C291.057 177.274 290.578 177.604 290.47 178.131L285.254 203.449Z" fill="#F4DDCE"/>
<path d="M309.688 177.315C307.02 182.045 300.426 177.75 297.832 178.348C295.239 178.946 288.921 181.393 286.856 177.478C284.791 173.563 289.447 165.528 297.239 164.266C308.651 162.417 312.356 172.584 309.688 177.315Z" fill="#E3C2AB"/>
<path d="M267.307 205.535H299.901C300.968 205.535 301.832 204.583 301.832 203.41V203.199C301.832 202.025 300.968 201.073 299.901 201.073H267.307C266.24 201.073 265.376 202.025 265.376 203.199V203.41C265.376 204.583 266.24 205.535 267.307 205.535Z" fill="#E3C2AB"/>
<path d="M297.351 183.03C297.351 183.03 300.389 191.848 295.795 198.536C291.201 205.223 264.377 198.536 264.377 198.536L261.265 187.933L282.217 183.03H297.351Z" fill="#F97CAA"/>
<path d="M264.017 233.362C266.34 233.473 269.749 233.741 271.379 233.689C273.009 233.636 274.39 233.636 274.491 232.873C274.55 232.41 274.07 230.25 273.685 228.612C273.424 227.53 273.205 226.675 273.205 226.675L270.193 227.817C270.193 227.817 269.31 228.717 267.627 229.611C267.49 229.683 267.336 229.767 267.17 229.865C265.291 230.935 261.888 233.258 264.017 233.362Z" fill="#F79B81"/>
<path d="M269.573 199.554C269.573 199.554 272.822 203.263 272.626 210.549C272.43 217.835 273.418 228.383 273.418 228.383H269.573C269.573 228.383 264.049 200.056 263.892 198.683C263.736 197.311 269.573 199.554 269.573 199.554Z" fill="#F5AF9A"/>
<path d="M261.26 187.928C261.26 187.928 259.065 188.118 257.717 192.265C256.369 196.41 265.112 228.848 265.112 228.848L268.126 225.717C268.126 225.717 268.674 213.101 266.595 205.763C264.515 198.424 264.372 198.531 264.372 198.531L261.26 187.928Z" fill="#F5AF9A"/>
<path d="M258.222 233.814C258.59 234.525 260.439 234.903 262.881 233.814C265.318 232.73 269.782 231.804 269.556 230.825C269.39 230.101 268.531 226.728 268.098 225.038C267.95 224.444 267.849 224.059 267.849 224.059C267.849 224.059 266.148 222.428 265.11 225.847C264.636 227.413 263.077 229.07 261.565 230.46C259.763 232.124 258.021 233.428 258.222 233.814Z" fill="#F5AF9A"/>
<path d="M283.936 172.918C283.936 172.918 273.611 174.211 266.596 173.375L266.727 170.642L283.72 166.205L283.936 172.918Z" fill="#F5AF9A"/>
<path d="M287.867 133.405C287.867 133.405 287.626 131.667 286.561 131.218C285.494 130.768 285.388 131.218 285.388 131.218C285.388 131.218 285.083 131.785 285.083 133.865C285.083 135.946 284.911 138.027 285.083 140.561C285.254 143.096 285.762 144.684 286.436 144.874C287.11 145.063 287.867 144.874 287.867 144.874L288.897 147.938L291.166 147.143L287.867 133.405Z" fill="#F5AF9A"/>
<path d="M280.439 147.688C280.439 147.688 278.239 154.325 277.383 161.181C276.527 168.036 274.326 172.886 273.042 173.342C271.759 173.798 269.905 170.007 272.381 162.402C273.653 158.496 277.001 146.539 277.001 146.539L280.439 147.688Z" fill="#F5AF9A"/>
<path d="M279.42 143.827C280.4 142.929 280.835 142.449 281.189 142.24C281.543 142.03 282.195 141.551 282.685 141.67C283.046 141.759 283.172 141.457 283.463 141.316C283.463 141.316 283.828 140.862 284.508 141.101C284.508 141.101 285.633 142.299 285.792 143.257C285.951 144.217 284.801 143.185 284.41 142.488C284.4 142.501 284.389 142.518 284.379 142.532C284.655 142.921 284.942 143.411 285.015 143.85C285.153 144.682 284.246 143.923 283.814 143.284C283.365 143.873 282.894 144.527 282.993 144.786C283.164 145.234 283.611 145.534 284.563 145.204C285.515 144.875 286.304 145.145 285.379 145.699C284.454 146.253 283.447 146.972 282.332 147.181C281.216 147.391 280.194 147.938 280.194 147.938C280.194 147.938 276.879 146.847 276.997 146.539C277.116 146.23 278.44 144.725 279.42 143.827Z" fill="#F5AF9A"/>
<path d="M267.148 170.83C267.148 170.83 262.949 168.954 261.986 168.682C261.023 168.41 260.183 168.9 259.491 169.362C258.8 169.824 258.479 170.34 257.96 170.721C257.442 171.102 257.861 171.482 258.503 171.346C259.146 171.21 259.541 170.667 259.541 170.667L260.578 169.989C260.578 169.989 261.566 170.667 261.937 171.047C262.307 171.428 261.591 171.401 260.48 171.836C259.368 172.27 258.874 171.89 258.553 172.433C258.232 172.978 258.899 173.113 260.43 173.113C261.962 173.113 261.962 173.113 261.962 173.113C261.962 173.113 264.011 173.753 266.605 173.379L267.148 170.83Z" fill="#F5AF9A"/>
<path d="M258.237 233.815C258.604 234.526 262.713 234.829 265.155 233.739C267.592 232.656 268.089 234.983 269.443 234.735C269.277 234.011 268.973 226.957 268.541 225.267C268.292 225.332 267.526 225.314 267.129 225.849C266.239 227.036 266.299 229.692 264.704 230.461C263.661 230.964 262.09 230.488 261.58 230.461C259.778 232.125 258.035 233.43 258.237 233.815Z" fill="#1F2F58"/>
<path d="M263.877 234.616C264.244 235.327 268.353 235.63 270.795 234.54C273.231 233.457 273.503 235.784 274.857 235.536C274.691 234.812 274.162 228.205 273.729 226.515C273.48 226.581 273.166 226.115 272.768 226.649C271.879 227.837 271.939 230.492 270.344 231.262C269.301 231.765 267.73 231.288 267.22 231.262C265.418 232.926 263.675 234.231 263.877 234.616Z" fill="#1F2F58"/>
<path d="M301.525 156.779C300.877 161.549 297.95 175.047 297.357 177.983V184.508H282.093L283.056 173.579L283.505 151.809L288.391 149.846L295.282 147.4C295.282 147.4 302.544 149.275 301.525 156.779Z" fill="#F97CAA"/>
<path d="M296.243 145.451C296.243 145.451 290.205 146.837 289.093 147.653C287.982 148.469 287.982 150.059 287.982 150.059L297.17 147.979L296.243 145.451Z" fill="#F97CAA"/>
<path d="M287.251 154.251C287.251 154.251 288.774 157.546 286.938 161.182C285.102 164.819 279.549 172.393 275.745 173.743C272.682 174.83 271.344 172.406 271.344 172.406C271.547 169.828 274.263 169.611 283.313 152.051C284.158 150.413 286.762 152.458 287.251 154.251Z" fill="#F97CAA"/>
<path d="M291.53 127.267C291.53 127.267 295.353 125.672 298.443 128.739C301.533 131.807 299.962 139.475 302.685 143.585C305.409 147.695 302.468 150.471 302.468 150.471C302.468 150.471 302.266 154.873 297.867 155.21C293.468 155.548 290.587 152.296 289.907 148.677C289.907 148.677 288.441 148.186 288.493 144.321C288.545 140.456 288.574 135.239 287.655 133.77C287.144 132.953 285.169 132.573 285.169 132.573C285.169 132.573 285.717 126.102 291.53 127.267Z" fill="#2B3756"/>
<path d="M113.857 131.992C113.857 131.992 114.023 130.143 111.446 128.695C108.869 127.247 107.621 126.926 103.797 126.202C99.9721 125.478 94.6509 126.121 94.6509 126.121L87.8331 130.143C87.8331 130.143 88.0825 140.678 89.9117 147.594C91.7409 154.511 89.7919 164.266 89.7919 164.266L111.862 166.172L113.857 131.992Z" fill="#506DB5"/>
<path d="M103.187 224.985C103.187 224.985 103.299 231.74 103.187 233.992C103.077 236.244 102.301 236.566 107.733 236.566C113.165 236.566 117.488 237.209 119.262 235.922C121.036 234.636 112.278 231.848 110.504 229.918C108.731 227.987 109.506 226.164 109.506 226.164L103.187 224.985Z" fill="#1D202B"/>
<path d="M92.1069 226.167C92.1069 226.167 91.6632 229.76 92.1069 230.859C92.5499 231.958 95.1001 232.95 96.3193 233.486C97.5386 234.022 98.4259 234.853 97.7607 235.496C97.0956 236.14 85.7248 236.354 84.9805 235.925C84.2355 235.496 86.5635 226.167 86.5635 226.167H92.1069Z" fill="#1D202B"/>
<path d="M87.8415 130.14C87.8415 130.14 81.5226 146.707 80.6911 153.463C79.8597 160.218 90.3359 168.797 90.3359 168.797L93.5918 160.861L88.673 153.463L91.8325 146.385L87.8415 130.14Z" fill="#506DB5"/>
<path d="M103.523 106.841C103.523 106.841 99.9047 106.746 97.4596 108.165C95.0152 109.584 94.477 111.428 94.477 111.428C94.477 111.428 93.7434 112.279 93.597 114.077C93.45 115.874 97.411 121.55 97.411 121.55C97.411 121.55 101.981 121.616 103.705 120.613C105.43 119.611 107.972 112.074 107.972 112.074C107.972 112.074 109.391 111.05 109.733 109.537L108.35 109.3C108.35 109.3 110.222 108.449 109.733 107.077L103.523 106.841Z" fill="#1F3059"/>
<path d="M97.4107 121.552C97.4107 121.552 101.834 121.286 103.705 120.615C103.705 120.615 102.545 119.85 102.253 118.525C101.961 117.201 102.741 114.978 103.767 115.025C104.794 115.072 104.871 116.349 104.871 116.349L105.519 113.979C105.519 113.979 105.756 112.467 106.811 112.076C107.867 111.686 107.971 112.076 107.971 112.076C107.971 112.076 108.274 112.57 108.274 114.38C108.274 116.19 108.444 118 108.274 120.205C108.104 122.409 107.601 123.791 106.934 123.956C106.267 124.12 104.806 124.225 104.806 124.225L104.498 126.621L102.253 125.93C102.253 125.93 98.8288 125.714 97.3614 125.714L97.4107 121.552Z" fill="#F68B61"/>
<path d="M112.213 129.659C112.213 129.659 109.552 133.6 111.465 139.39C112.45 142.376 116.485 145.66 120.163 148.141C123.781 150.582 128.705 150.063 131.698 146.928L140.814 137.38L136.907 133.359L126.763 140.879C126.763 140.879 113.46 129.177 112.213 129.659Z" fill="#506DB5"/>
<path d="M111.871 165.204V168.796C111.871 168.796 111.123 199.464 110.957 204.45C110.79 209.436 111.301 229.461 111.301 229.461H102.987C102.987 229.461 99.9815 212.975 100.855 207.345C101.363 204.076 101.656 202.889 101.656 199.672C101.656 196.455 99.3855 177.546 99.3855 177.546C99.3855 177.546 95.1591 203.163 95.1591 206.702C95.1591 210.24 92.7998 230.855 92.7998 230.855H84.9843C84.9843 230.855 84.6829 207.828 86.1795 203.002C87.6761 198.177 88.5382 168.724 89.9609 163.571L111.871 165.204Z" fill="#516DB5"/>
<path d="M137.3 133.764C137.3 133.764 140.235 130.258 140.809 129.373C141.383 128.489 144.667 125.714 145.499 125.633C146.33 125.553 144.792 127.885 143.794 128.609C143.794 128.609 145.374 129.172 145.166 130.178C145.166 130.178 146.455 130.58 146.247 131.585C146.247 131.585 147.037 132.647 146.621 133.764C146.206 134.882 145.374 135.485 144.958 135.566C144.543 135.646 144.085 135.566 144.085 135.566C144.085 135.566 143.117 136.49 142.021 136.531L140.809 137.375L137.3 133.764Z" fill="#F68B61"/>
<path d="M106.098 126.174C106.098 126.174 103.949 124.758 100.524 124.259C97.0983 123.76 95.8292 124.259 95.8292 124.259L95.3157 126.174C95.3157 126.174 109.252 128.516 106.098 126.174Z" fill="#3C589F"/>
<path d="M179.28 121.195H179.272C178.336 121.198 177.499 121.725 177.033 122.605L166.452 142.605C165.986 143.484 165.989 144.533 166.459 145.41C166.929 146.284 167.765 146.805 168.698 146.805H168.706L189.983 146.735C190.919 146.732 191.756 146.205 192.221 145.325C192.687 144.445 192.684 143.396 192.214 142.519L181.518 122.59C181.049 121.716 180.213 121.195 179.28 121.195ZM168.698 148C167.368 148 166.175 147.257 165.506 146.011C164.835 144.76 164.831 143.265 165.495 142.01L176.077 122.011C176.741 120.756 177.934 120.004 179.268 120H179.28C180.611 120 181.803 120.743 182.472 121.99L193.167 141.919C193.838 143.169 193.842 144.665 193.178 145.919C192.514 147.173 191.321 147.925 189.986 147.93L168.709 148H168.698Z" fill="#E9ECFA"/>
<path d="M177.203 129.847L177.699 137.306C177.74 137.916 178.193 138.397 178.757 138.428C179.351 138.461 179.865 137.983 179.925 137.341L180.63 129.834C180.684 129.265 180.265 128.775 179.738 128.788L178.058 128.829C177.557 128.841 177.168 129.305 177.203 129.847Z" fill="#E9ECFA"/>
<path d="M180.615 142.608C180.33 143.566 179.383 144.091 178.5 143.783C177.616 143.474 177.131 142.448 177.416 141.49C177.701 140.533 178.648 140.007 179.532 140.315C180.415 140.624 180.9 141.651 180.615 142.608Z" fill="#E9ECFA"/>
<path d="M38.6367 298.047V308H36.9346V298.047H38.6367ZM41.7607 298.047V299.414H33.8379V298.047H41.7607ZM44.5361 297.5V308H42.8955V297.5H44.5361ZM44.249 304.028L43.7158 304.021C43.7204 303.511 43.791 303.039 43.9277 302.606C44.069 302.174 44.265 301.798 44.5156 301.479C44.7708 301.155 45.0762 300.907 45.4316 300.733C45.7871 300.556 46.1813 300.467 46.6143 300.467C46.9788 300.467 47.307 300.517 47.5986 300.617C47.8949 300.717 48.1501 300.879 48.3643 301.103C48.5785 301.321 48.7402 301.608 48.8496 301.964C48.9635 302.315 49.0205 302.743 49.0205 303.249V308H47.3662V303.235C47.3662 302.88 47.3138 302.597 47.209 302.388C47.1087 302.178 46.9606 302.028 46.7646 301.937C46.5687 301.841 46.3294 301.793 46.0469 301.793C45.7507 301.793 45.4886 301.852 45.2607 301.971C45.0374 302.089 44.8506 302.251 44.7002 302.456C44.5498 302.661 44.4359 302.898 44.3584 303.167C44.2855 303.436 44.249 303.723 44.249 304.028ZM53.9492 308.137C53.4023 308.137 52.9079 308.048 52.4658 307.87C52.0283 307.688 51.6546 307.435 51.3447 307.111C51.0394 306.788 50.8047 306.407 50.6406 305.97C50.4766 305.532 50.3945 305.061 50.3945 304.555V304.281C50.3945 303.702 50.4788 303.178 50.6475 302.709C50.8161 302.24 51.0508 301.839 51.3516 301.506C51.6523 301.169 52.0078 300.911 52.418 300.733C52.8281 300.556 53.2725 300.467 53.751 300.467C54.2796 300.467 54.7422 300.556 55.1387 300.733C55.5352 300.911 55.8633 301.162 56.123 301.485C56.3874 301.804 56.5833 302.185 56.7109 302.627C56.8431 303.069 56.9092 303.557 56.9092 304.09V304.794H51.1943V303.611H55.2822V303.481C55.2731 303.185 55.2139 302.907 55.1045 302.647C54.9997 302.388 54.8379 302.178 54.6191 302.019C54.4004 301.859 54.1087 301.779 53.7441 301.779C53.4707 301.779 53.2269 301.839 53.0127 301.957C52.8031 302.071 52.6276 302.237 52.4863 302.456C52.3451 302.675 52.2357 302.939 52.1582 303.249C52.0853 303.554 52.0488 303.898 52.0488 304.281V304.555C52.0488 304.878 52.0921 305.179 52.1787 305.457C52.2699 305.73 52.402 305.97 52.5752 306.175C52.7484 306.38 52.958 306.542 53.2041 306.66C53.4502 306.774 53.7305 306.831 54.0449 306.831C54.4414 306.831 54.7946 306.751 55.1045 306.592C55.4144 306.432 55.6833 306.207 55.9111 305.915L56.7793 306.756C56.6198 306.988 56.4124 307.212 56.1572 307.426C55.902 307.635 55.5898 307.806 55.2207 307.938C54.8561 308.071 54.4323 308.137 53.9492 308.137ZM64.7363 308H62.6104L62.624 306.64H64.7363C65.3516 306.64 65.8665 306.505 66.2812 306.236C66.7005 305.967 67.015 305.582 67.2246 305.081C67.4388 304.58 67.5459 303.983 67.5459 303.29V302.75C67.5459 302.212 67.4844 301.736 67.3613 301.321C67.2428 300.907 67.0651 300.558 66.8281 300.275C66.5957 299.993 66.3086 299.779 65.9668 299.633C65.6296 299.487 65.2399 299.414 64.7979 299.414H62.5693V298.047H64.7979C65.4587 298.047 66.0625 298.159 66.6094 298.382C67.1562 298.601 67.6279 298.917 68.0244 299.332C68.4255 299.747 68.7331 300.243 68.9473 300.822C69.1615 301.401 69.2686 302.048 69.2686 302.764V303.29C69.2686 304.006 69.1615 304.653 68.9473 305.231C68.7331 305.81 68.4255 306.307 68.0244 306.722C67.6234 307.132 67.1449 307.449 66.5889 307.672C66.0374 307.891 65.4199 308 64.7363 308ZM63.5605 298.047V308H61.8447V298.047H63.5605ZM72.5908 300.604V308H70.9365V300.604H72.5908ZM70.8271 298.662C70.8271 298.411 70.9092 298.204 71.0732 298.04C71.2419 297.871 71.4743 297.787 71.7705 297.787C72.0622 297.787 72.2923 297.871 72.4609 298.04C72.6296 298.204 72.7139 298.411 72.7139 298.662C72.7139 298.908 72.6296 299.113 72.4609 299.277C72.2923 299.441 72.0622 299.523 71.7705 299.523C71.4743 299.523 71.2419 299.441 71.0732 299.277C70.9092 299.113 70.8271 298.908 70.8271 298.662ZM76.0498 302.012V308H74.4023V300.604H75.9746L76.0498 302.012ZM78.3125 300.556L78.2988 302.087C78.1986 302.069 78.0892 302.055 77.9707 302.046C77.8568 302.037 77.7428 302.032 77.6289 302.032C77.3464 302.032 77.098 302.073 76.8838 302.155C76.6696 302.233 76.4896 302.347 76.3438 302.497C76.2025 302.643 76.0931 302.821 76.0156 303.03C75.9382 303.24 75.8926 303.475 75.8789 303.734L75.5029 303.762C75.5029 303.297 75.5485 302.866 75.6396 302.47C75.7308 302.073 75.8675 301.725 76.0498 301.424C76.2367 301.123 76.4691 300.888 76.7471 300.72C77.0296 300.551 77.3555 300.467 77.7246 300.467C77.8249 300.467 77.932 300.476 78.0459 300.494C78.1644 300.512 78.2533 300.533 78.3125 300.556ZM82.4688 308.137C81.9219 308.137 81.4274 308.048 80.9854 307.87C80.5479 307.688 80.1742 307.435 79.8643 307.111C79.5589 306.788 79.3242 306.407 79.1602 305.97C78.9961 305.532 78.9141 305.061 78.9141 304.555V304.281C78.9141 303.702 78.9984 303.178 79.167 302.709C79.3356 302.24 79.5703 301.839 79.8711 301.506C80.1719 301.169 80.5273 300.911 80.9375 300.733C81.3477 300.556 81.792 300.467 82.2705 300.467C82.7992 300.467 83.2617 300.556 83.6582 300.733C84.0547 300.911 84.3828 301.162 84.6426 301.485C84.9069 301.804 85.1029 302.185 85.2305 302.627C85.3626 303.069 85.4287 303.557 85.4287 304.09V304.794H79.7139V303.611H83.8018V303.481C83.7926 303.185 83.7334 302.907 83.624 302.647C83.5192 302.388 83.3574 302.178 83.1387 302.019C82.9199 301.859 82.6283 301.779 82.2637 301.779C81.9902 301.779 81.7464 301.839 81.5322 301.957C81.3226 302.071 81.1471 302.237 81.0059 302.456C80.8646 302.675 80.7552 302.939 80.6777 303.249C80.6048 303.554 80.5684 303.898 80.5684 304.281V304.555C80.5684 304.878 80.6117 305.179 80.6982 305.457C80.7894 305.73 80.9215 305.97 81.0947 306.175C81.2679 306.38 81.4775 306.542 81.7236 306.66C81.9697 306.774 82.25 306.831 82.5645 306.831C82.9609 306.831 83.3141 306.751 83.624 306.592C83.9339 306.432 84.2028 306.207 84.4307 305.915L85.2988 306.756C85.1393 306.988 84.932 307.212 84.6768 307.426C84.4215 307.635 84.1094 307.806 83.7402 307.938C83.3757 308.071 82.9518 308.137 82.4688 308.137ZM89.7354 306.824C90.0042 306.824 90.2458 306.772 90.46 306.667C90.6787 306.558 90.8542 306.407 90.9863 306.216C91.123 306.024 91.1982 305.803 91.2119 305.553H92.7637C92.7546 306.031 92.6133 306.466 92.3398 306.858C92.0664 307.25 91.7041 307.562 91.2529 307.795C90.8018 308.023 90.3027 308.137 89.7559 308.137C89.1908 308.137 88.6986 308.041 88.2793 307.85C87.86 307.654 87.5114 307.385 87.2334 307.043C86.9554 306.701 86.7458 306.307 86.6045 305.86C86.4678 305.414 86.3994 304.935 86.3994 304.425V304.186C86.3994 303.675 86.4678 303.197 86.6045 302.75C86.7458 302.299 86.9554 301.902 87.2334 301.561C87.5114 301.219 87.86 300.952 88.2793 300.761C88.6986 300.565 89.1885 300.467 89.749 300.467C90.3415 300.467 90.861 300.585 91.3076 300.822C91.7542 301.055 92.1051 301.381 92.3604 301.8C92.6201 302.215 92.7546 302.698 92.7637 303.249H91.2119C91.1982 302.976 91.1299 302.729 91.0068 302.511C90.8883 302.287 90.7197 302.11 90.501 301.978C90.2868 301.845 90.0293 301.779 89.7285 301.779C89.3958 301.779 89.1201 301.848 88.9014 301.984C88.6826 302.117 88.5117 302.299 88.3887 302.531C88.2656 302.759 88.1768 303.017 88.1221 303.304C88.0719 303.586 88.0469 303.88 88.0469 304.186V304.425C88.0469 304.73 88.0719 305.026 88.1221 305.313C88.1722 305.601 88.2588 305.858 88.3818 306.086C88.5094 306.309 88.6826 306.489 88.9014 306.626C89.1201 306.758 89.3981 306.824 89.7354 306.824ZM97.4189 300.604V301.807H93.249V300.604H97.4189ZM94.4521 298.792H96.0996V305.956C96.0996 306.184 96.1315 306.359 96.1953 306.482C96.2637 306.601 96.3571 306.681 96.4756 306.722C96.5941 306.763 96.7331 306.783 96.8926 306.783C97.0065 306.783 97.1159 306.776 97.2207 306.763C97.3255 306.749 97.4098 306.735 97.4736 306.722L97.4805 307.979C97.3438 308.021 97.1842 308.057 97.002 308.089C96.8242 308.121 96.6191 308.137 96.3867 308.137C96.0085 308.137 95.6735 308.071 95.3818 307.938C95.0902 307.802 94.8623 307.581 94.6982 307.275C94.5342 306.97 94.4521 306.564 94.4521 306.059V298.792ZM98.2119 304.384V304.227C98.2119 303.693 98.2894 303.199 98.4443 302.743C98.5993 302.283 98.8226 301.884 99.1143 301.547C99.4105 301.205 99.7705 300.941 100.194 300.754C100.623 300.562 101.106 300.467 101.644 300.467C102.186 300.467 102.669 300.562 103.093 300.754C103.521 300.941 103.883 301.205 104.18 301.547C104.476 301.884 104.701 302.283 104.856 302.743C105.011 303.199 105.089 303.693 105.089 304.227V304.384C105.089 304.917 105.011 305.411 104.856 305.867C104.701 306.323 104.476 306.722 104.18 307.063C103.883 307.401 103.523 307.665 103.1 307.856C102.676 308.043 102.195 308.137 101.657 308.137C101.115 308.137 100.63 308.043 100.201 307.856C99.7773 307.665 99.4173 307.401 99.1211 307.063C98.8249 306.722 98.5993 306.323 98.4443 305.867C98.2894 305.411 98.2119 304.917 98.2119 304.384ZM99.8594 304.227V304.384C99.8594 304.716 99.8936 305.031 99.9619 305.327C100.03 305.623 100.137 305.883 100.283 306.106C100.429 306.33 100.616 306.505 100.844 306.633C101.072 306.76 101.343 306.824 101.657 306.824C101.963 306.824 102.227 306.76 102.45 306.633C102.678 306.505 102.865 306.33 103.011 306.106C103.157 305.883 103.264 305.623 103.332 305.327C103.405 305.031 103.441 304.716 103.441 304.384V304.227C103.441 303.898 103.405 303.589 103.332 303.297C103.264 303.001 103.154 302.739 103.004 302.511C102.858 302.283 102.671 302.105 102.443 301.978C102.22 301.845 101.953 301.779 101.644 301.779C101.334 301.779 101.065 301.845 100.837 301.978C100.614 302.105 100.429 302.283 100.283 302.511C100.137 302.739 100.03 303.001 99.9619 303.297C99.8936 303.589 99.8594 303.898 99.8594 304.227ZM108.124 302.012V308H106.477V300.604H108.049L108.124 302.012ZM110.387 300.556L110.373 302.087C110.273 302.069 110.163 302.055 110.045 302.046C109.931 302.037 109.817 302.032 109.703 302.032C109.421 302.032 109.172 302.073 108.958 302.155C108.744 302.233 108.564 302.347 108.418 302.497C108.277 302.643 108.167 302.821 108.09 303.03C108.012 303.24 107.967 303.475 107.953 303.734L107.577 303.762C107.577 303.297 107.623 302.866 107.714 302.47C107.805 302.073 107.942 301.725 108.124 301.424C108.311 301.123 108.543 300.888 108.821 300.72C109.104 300.551 109.43 300.467 109.799 300.467C109.899 300.467 110.006 300.476 110.12 300.494C110.239 300.512 110.327 300.533 110.387 300.556ZM121.646 302.203V303.563H116.361V302.203H121.646ZM116.785 298.047V308H115.069V298.047H116.785ZM122.965 298.047V308H121.256V298.047H122.965ZM129.015 306.517V302.989C129.015 302.725 128.967 302.497 128.871 302.306C128.775 302.114 128.63 301.966 128.434 301.861C128.242 301.757 128.001 301.704 127.709 301.704C127.44 301.704 127.208 301.75 127.012 301.841C126.816 301.932 126.663 302.055 126.554 302.21C126.444 302.365 126.39 302.54 126.39 302.736H124.749C124.749 302.445 124.82 302.162 124.961 301.889C125.102 301.615 125.307 301.371 125.576 301.157C125.845 300.943 126.166 300.774 126.54 300.651C126.914 300.528 127.333 300.467 127.798 300.467C128.354 300.467 128.846 300.56 129.274 300.747C129.707 300.934 130.047 301.216 130.293 301.595C130.544 301.968 130.669 302.438 130.669 303.003V306.291C130.669 306.628 130.692 306.931 130.737 307.2C130.787 307.465 130.858 307.695 130.949 307.891V308H129.261C129.183 307.822 129.122 307.597 129.076 307.323C129.035 307.045 129.015 306.776 129.015 306.517ZM129.254 303.502L129.268 304.521H128.085C127.78 304.521 127.511 304.55 127.278 304.609C127.046 304.664 126.852 304.746 126.697 304.855C126.542 304.965 126.426 305.097 126.349 305.252C126.271 305.407 126.232 305.582 126.232 305.778C126.232 305.974 126.278 306.154 126.369 306.318C126.46 306.478 126.592 306.603 126.766 306.694C126.943 306.785 127.158 306.831 127.408 306.831C127.745 306.831 128.039 306.763 128.29 306.626C128.545 306.485 128.746 306.314 128.892 306.113C129.037 305.908 129.115 305.715 129.124 305.532L129.657 306.264C129.603 306.451 129.509 306.651 129.377 306.865C129.245 307.079 129.072 307.285 128.857 307.48C128.648 307.672 128.395 307.829 128.099 307.952C127.807 308.075 127.47 308.137 127.087 308.137C126.604 308.137 126.173 308.041 125.795 307.85C125.417 307.654 125.12 307.392 124.906 307.063C124.692 306.731 124.585 306.355 124.585 305.936C124.585 305.544 124.658 305.197 124.804 304.896C124.954 304.591 125.173 304.336 125.46 304.131C125.752 303.926 126.107 303.771 126.526 303.666C126.946 303.557 127.424 303.502 127.962 303.502H129.254ZM136.541 305.997C136.541 305.833 136.5 305.685 136.418 305.553C136.336 305.416 136.179 305.293 135.946 305.184C135.718 305.074 135.381 304.974 134.935 304.883C134.543 304.796 134.183 304.694 133.854 304.575C133.531 304.452 133.253 304.304 133.021 304.131C132.788 303.958 132.608 303.753 132.48 303.516C132.353 303.279 132.289 303.005 132.289 302.695C132.289 302.395 132.355 302.11 132.487 301.841C132.619 301.572 132.809 301.335 133.055 301.13C133.301 300.925 133.599 300.763 133.95 300.645C134.306 300.526 134.702 300.467 135.14 300.467C135.759 300.467 136.29 300.572 136.732 300.781C137.179 300.986 137.521 301.267 137.758 301.622C137.995 301.973 138.113 302.369 138.113 302.812H136.466C136.466 302.616 136.416 302.433 136.315 302.265C136.22 302.091 136.074 301.952 135.878 301.848C135.682 301.738 135.436 301.684 135.14 301.684C134.857 301.684 134.622 301.729 134.436 301.82C134.253 301.907 134.117 302.021 134.025 302.162C133.939 302.303 133.896 302.458 133.896 302.627C133.896 302.75 133.918 302.862 133.964 302.962C134.014 303.058 134.096 303.146 134.21 303.229C134.324 303.306 134.479 303.379 134.675 303.447C134.875 303.516 135.126 303.582 135.427 303.646C135.992 303.764 136.477 303.917 136.883 304.104C137.293 304.286 137.607 304.523 137.826 304.814C138.045 305.102 138.154 305.466 138.154 305.908C138.154 306.236 138.084 306.537 137.942 306.811C137.806 307.079 137.605 307.314 137.341 307.515C137.076 307.711 136.76 307.863 136.391 307.973C136.026 308.082 135.616 308.137 135.16 308.137C134.49 308.137 133.923 308.018 133.458 307.781C132.993 307.54 132.64 307.232 132.398 306.858C132.161 306.48 132.043 306.088 132.043 305.683H133.636C133.654 305.988 133.738 306.232 133.889 306.414C134.044 306.592 134.235 306.722 134.463 306.804C134.695 306.881 134.935 306.92 135.181 306.92C135.477 306.92 135.725 306.881 135.926 306.804C136.126 306.722 136.279 306.612 136.384 306.476C136.489 306.334 136.541 306.175 136.541 305.997ZM151.143 298.047V308H149.427L144.963 300.87V308H143.247V298.047H144.963L149.44 305.19V298.047H151.143ZM152.708 304.384V304.227C152.708 303.693 152.785 303.199 152.94 302.743C153.095 302.283 153.319 301.884 153.61 301.547C153.907 301.205 154.267 300.941 154.69 300.754C155.119 300.562 155.602 300.467 156.14 300.467C156.682 300.467 157.165 300.562 157.589 300.754C158.017 300.941 158.38 301.205 158.676 301.547C158.972 301.884 159.198 302.283 159.353 302.743C159.507 303.199 159.585 303.693 159.585 304.227V304.384C159.585 304.917 159.507 305.411 159.353 305.867C159.198 306.323 158.972 306.722 158.676 307.063C158.38 307.401 158.02 307.665 157.596 307.856C157.172 308.043 156.691 308.137 156.153 308.137C155.611 308.137 155.126 308.043 154.697 307.856C154.273 307.665 153.913 307.401 153.617 307.063C153.321 306.722 153.095 306.323 152.94 305.867C152.785 305.411 152.708 304.917 152.708 304.384ZM154.355 304.227V304.384C154.355 304.716 154.39 305.031 154.458 305.327C154.526 305.623 154.633 305.883 154.779 306.106C154.925 306.33 155.112 306.505 155.34 306.633C155.568 306.76 155.839 306.824 156.153 306.824C156.459 306.824 156.723 306.76 156.946 306.633C157.174 306.505 157.361 306.33 157.507 306.106C157.653 305.883 157.76 305.623 157.828 305.327C157.901 305.031 157.938 304.716 157.938 304.384V304.227C157.938 303.898 157.901 303.589 157.828 303.297C157.76 303.001 157.65 302.739 157.5 302.511C157.354 302.283 157.167 302.105 156.939 301.978C156.716 301.845 156.45 301.779 156.14 301.779C155.83 301.779 155.561 301.845 155.333 301.978C155.11 302.105 154.925 302.283 154.779 302.511C154.633 302.739 154.526 303.001 154.458 303.297C154.39 303.589 154.355 303.898 154.355 304.227ZM164.356 300.604V301.807H160.187V300.604H164.356ZM161.39 298.792H163.037V305.956C163.037 306.184 163.069 306.359 163.133 306.482C163.201 306.601 163.295 306.681 163.413 306.722C163.532 306.763 163.671 306.783 163.83 306.783C163.944 306.783 164.053 306.776 164.158 306.763C164.263 306.749 164.347 306.735 164.411 306.722L164.418 307.979C164.281 308.021 164.122 308.057 163.939 308.089C163.762 308.121 163.557 308.137 163.324 308.137C162.946 308.137 162.611 308.071 162.319 307.938C162.028 307.802 161.8 307.581 161.636 307.275C161.472 306.97 161.39 306.564 161.39 306.059V298.792ZM173.154 299.373L170.181 308H168.383L172.129 298.047H173.277L173.154 299.373ZM175.643 308L172.662 299.373L172.532 298.047H173.688L177.447 308H175.643ZM175.499 304.309V305.669H170.085V304.309H175.499ZM182.547 305.997C182.547 305.833 182.506 305.685 182.424 305.553C182.342 305.416 182.185 305.293 181.952 305.184C181.724 305.074 181.387 304.974 180.94 304.883C180.549 304.796 180.188 304.694 179.86 304.575C179.537 304.452 179.259 304.304 179.026 304.131C178.794 303.958 178.614 303.753 178.486 303.516C178.359 303.279 178.295 303.005 178.295 302.695C178.295 302.395 178.361 302.11 178.493 301.841C178.625 301.572 178.814 301.335 179.061 301.13C179.307 300.925 179.605 300.763 179.956 300.645C180.312 300.526 180.708 300.467 181.146 300.467C181.765 300.467 182.296 300.572 182.738 300.781C183.185 300.986 183.527 301.267 183.764 301.622C184.001 301.973 184.119 302.369 184.119 302.812H182.472C182.472 302.616 182.422 302.433 182.321 302.265C182.226 302.091 182.08 301.952 181.884 301.848C181.688 301.738 181.442 301.684 181.146 301.684C180.863 301.684 180.628 301.729 180.441 301.82C180.259 301.907 180.122 302.021 180.031 302.162C179.945 302.303 179.901 302.458 179.901 302.627C179.901 302.75 179.924 302.862 179.97 302.962C180.02 303.058 180.102 303.146 180.216 303.229C180.33 303.306 180.485 303.379 180.681 303.447C180.881 303.516 181.132 303.582 181.433 303.646C181.998 303.764 182.483 303.917 182.889 304.104C183.299 304.286 183.613 304.523 183.832 304.814C184.051 305.102 184.16 305.466 184.16 305.908C184.16 306.236 184.09 306.537 183.948 306.811C183.812 307.079 183.611 307.314 183.347 307.515C183.082 307.711 182.766 307.863 182.396 307.973C182.032 308.082 181.622 308.137 181.166 308.137C180.496 308.137 179.929 308.018 179.464 307.781C178.999 307.54 178.646 307.232 178.404 306.858C178.167 306.48 178.049 306.088 178.049 305.683H179.642C179.66 305.988 179.744 306.232 179.895 306.414C180.049 306.592 180.241 306.722 180.469 306.804C180.701 306.881 180.94 306.92 181.187 306.92C181.483 306.92 181.731 306.881 181.932 306.804C182.132 306.722 182.285 306.612 182.39 306.476C182.494 306.334 182.547 306.175 182.547 305.997ZM189.752 305.997C189.752 305.833 189.711 305.685 189.629 305.553C189.547 305.416 189.39 305.293 189.157 305.184C188.929 305.074 188.592 304.974 188.146 304.883C187.754 304.796 187.394 304.694 187.065 304.575C186.742 304.452 186.464 304.304 186.231 304.131C185.999 303.958 185.819 303.753 185.691 303.516C185.564 303.279 185.5 303.005 185.5 302.695C185.5 302.395 185.566 302.11 185.698 301.841C185.83 301.572 186.02 301.335 186.266 301.13C186.512 300.925 186.81 300.763 187.161 300.645C187.517 300.526 187.913 300.467 188.351 300.467C188.97 300.467 189.501 300.572 189.943 300.781C190.39 300.986 190.732 301.267 190.969 301.622C191.206 301.973 191.324 302.369 191.324 302.812H189.677C189.677 302.616 189.627 302.433 189.526 302.265C189.431 302.091 189.285 301.952 189.089 301.848C188.893 301.738 188.647 301.684 188.351 301.684C188.068 301.684 187.833 301.729 187.646 301.82C187.464 301.907 187.327 302.021 187.236 302.162C187.15 302.303 187.106 302.458 187.106 302.627C187.106 302.75 187.129 302.862 187.175 302.962C187.225 303.058 187.307 303.146 187.421 303.229C187.535 303.306 187.69 303.379 187.886 303.447C188.086 303.516 188.337 303.582 188.638 303.646C189.203 303.764 189.688 303.917 190.094 304.104C190.504 304.286 190.818 304.523 191.037 304.814C191.256 305.102 191.365 305.466 191.365 305.908C191.365 306.236 191.295 306.537 191.153 306.811C191.017 307.079 190.816 307.314 190.552 307.515C190.287 307.711 189.971 307.863 189.602 307.973C189.237 308.082 188.827 308.137 188.371 308.137C187.701 308.137 187.134 308.018 186.669 307.781C186.204 307.54 185.851 307.232 185.609 306.858C185.372 306.48 185.254 306.088 185.254 305.683H186.847C186.865 305.988 186.949 306.232 187.1 306.414C187.255 306.592 187.446 306.722 187.674 306.804C187.906 306.881 188.146 306.92 188.392 306.92C188.688 306.92 188.936 306.881 189.137 306.804C189.337 306.722 189.49 306.612 189.595 306.476C189.7 306.334 189.752 306.175 189.752 305.997ZM194.571 300.604V308H192.917V300.604H194.571ZM192.808 298.662C192.808 298.411 192.89 298.204 193.054 298.04C193.222 297.871 193.455 297.787 193.751 297.787C194.043 297.787 194.273 297.871 194.441 298.04C194.61 298.204 194.694 298.411 194.694 298.662C194.694 298.908 194.61 299.113 194.441 299.277C194.273 299.441 194.043 299.523 193.751 299.523C193.455 299.523 193.222 299.441 193.054 299.277C192.89 299.113 192.808 298.908 192.808 298.662ZM201.113 300.604H202.61V307.795C202.61 308.46 202.469 309.025 202.187 309.49C201.904 309.955 201.51 310.308 201.004 310.55C200.498 310.796 199.912 310.919 199.247 310.919C198.965 310.919 198.65 310.878 198.304 310.796C197.962 310.714 197.629 310.582 197.306 310.399C196.987 310.222 196.72 309.987 196.506 309.695L197.278 308.725C197.543 309.039 197.834 309.269 198.153 309.415C198.472 309.561 198.807 309.634 199.158 309.634C199.536 309.634 199.858 309.563 200.122 309.422C200.391 309.285 200.598 309.082 200.744 308.813C200.89 308.545 200.963 308.216 200.963 307.829V302.278L201.113 300.604ZM196.089 304.384V304.24C196.089 303.68 196.157 303.169 196.294 302.709C196.431 302.244 196.627 301.845 196.882 301.513C197.137 301.175 197.447 300.918 197.812 300.74C198.176 300.558 198.589 300.467 199.049 300.467C199.527 300.467 199.935 300.553 200.272 300.727C200.614 300.9 200.899 301.148 201.127 301.472C201.355 301.791 201.533 302.174 201.66 302.62C201.792 303.062 201.89 303.554 201.954 304.097V304.555C201.895 305.083 201.795 305.566 201.653 306.004C201.512 306.441 201.325 306.82 201.093 307.139C200.86 307.458 200.573 307.704 200.231 307.877C199.894 308.05 199.495 308.137 199.035 308.137C198.584 308.137 198.176 308.043 197.812 307.856C197.451 307.67 197.142 307.408 196.882 307.07C196.627 306.733 196.431 306.337 196.294 305.881C196.157 305.421 196.089 304.922 196.089 304.384ZM197.736 304.24V304.384C197.736 304.721 197.768 305.035 197.832 305.327C197.9 305.619 198.003 305.876 198.14 306.1C198.281 306.318 198.459 306.492 198.673 306.619C198.892 306.742 199.149 306.804 199.445 306.804C199.833 306.804 200.149 306.722 200.396 306.558C200.646 306.394 200.838 306.173 200.97 305.895C201.106 305.612 201.202 305.298 201.257 304.951V303.714C201.229 303.445 201.173 303.194 201.086 302.962C201.004 302.729 200.892 302.527 200.751 302.354C200.61 302.176 200.432 302.039 200.218 301.943C200.004 301.843 199.751 301.793 199.459 301.793C199.163 301.793 198.905 301.857 198.687 301.984C198.468 302.112 198.288 302.287 198.146 302.511C198.01 302.734 197.907 302.994 197.839 303.29C197.771 303.586 197.736 303.903 197.736 304.24ZM205.953 302.183V308H204.306V300.604H205.857L205.953 302.183ZM205.659 304.028L205.126 304.021C205.131 303.497 205.203 303.017 205.345 302.579C205.491 302.142 205.691 301.766 205.946 301.451C206.206 301.137 206.516 300.895 206.876 300.727C207.236 300.553 207.637 300.467 208.079 300.467C208.435 300.467 208.756 300.517 209.043 300.617C209.335 300.713 209.583 300.87 209.788 301.089C209.998 301.308 210.157 301.592 210.267 301.943C210.376 302.29 210.431 302.716 210.431 303.222V308H208.776V303.215C208.776 302.859 208.724 302.579 208.619 302.374C208.519 302.164 208.371 302.016 208.175 301.93C207.983 301.839 207.744 301.793 207.457 301.793C207.174 301.793 206.922 301.852 206.698 301.971C206.475 302.089 206.286 302.251 206.131 302.456C205.98 302.661 205.864 302.898 205.782 303.167C205.7 303.436 205.659 303.723 205.659 304.028ZM215.373 308.137C214.826 308.137 214.332 308.048 213.89 307.87C213.452 307.688 213.078 307.435 212.769 307.111C212.463 306.788 212.229 306.407 212.064 305.97C211.9 305.532 211.818 305.061 211.818 304.555V304.281C211.818 303.702 211.903 303.178 212.071 302.709C212.24 302.24 212.475 301.839 212.775 301.506C213.076 301.169 213.432 300.911 213.842 300.733C214.252 300.556 214.696 300.467 215.175 300.467C215.703 300.467 216.166 300.556 216.562 300.733C216.959 300.911 217.287 301.162 217.547 301.485C217.811 301.804 218.007 302.185 218.135 302.627C218.267 303.069 218.333 303.557 218.333 304.09V304.794H212.618V303.611H216.706V303.481C216.697 303.185 216.638 302.907 216.528 302.647C216.424 302.388 216.262 302.178 216.043 302.019C215.824 301.859 215.533 301.779 215.168 301.779C214.895 301.779 214.651 301.839 214.437 301.957C214.227 302.071 214.051 302.237 213.91 302.456C213.769 302.675 213.66 302.939 213.582 303.249C213.509 303.554 213.473 303.898 213.473 304.281V304.555C213.473 304.878 213.516 305.179 213.603 305.457C213.694 305.73 213.826 305.97 213.999 306.175C214.172 306.38 214.382 306.542 214.628 306.66C214.874 306.774 215.154 306.831 215.469 306.831C215.865 306.831 216.218 306.751 216.528 306.592C216.838 306.432 217.107 306.207 217.335 305.915L218.203 306.756C218.044 306.988 217.836 307.212 217.581 307.426C217.326 307.635 217.014 307.806 216.645 307.938C216.28 308.071 215.856 308.137 215.373 308.137ZM224.13 306.469V297.5H225.784V308H224.287L224.13 306.469ZM219.317 304.384V304.24C219.317 303.68 219.383 303.169 219.516 302.709C219.648 302.244 219.839 301.845 220.09 301.513C220.34 301.175 220.646 300.918 221.006 300.74C221.366 300.558 221.771 300.467 222.223 300.467C222.669 300.467 223.061 300.553 223.398 300.727C223.736 300.9 224.023 301.148 224.26 301.472C224.497 301.791 224.686 302.174 224.827 302.62C224.968 303.062 225.069 303.554 225.128 304.097V304.555C225.069 305.083 224.968 305.566 224.827 306.004C224.686 306.441 224.497 306.82 224.26 307.139C224.023 307.458 223.733 307.704 223.392 307.877C223.054 308.05 222.66 308.137 222.209 308.137C221.762 308.137 221.359 308.043 220.999 307.856C220.644 307.67 220.34 307.408 220.09 307.07C219.839 306.733 219.648 306.337 219.516 305.881C219.383 305.421 219.317 304.922 219.317 304.384ZM220.965 304.24V304.384C220.965 304.721 220.994 305.035 221.054 305.327C221.118 305.619 221.215 305.876 221.348 306.1C221.48 306.318 221.651 306.492 221.86 306.619C222.075 306.742 222.33 306.804 222.626 306.804C223 306.804 223.307 306.722 223.549 306.558C223.79 306.394 223.979 306.173 224.116 305.895C224.257 305.612 224.353 305.298 224.403 304.951V303.714C224.376 303.445 224.319 303.194 224.232 302.962C224.15 302.729 224.039 302.527 223.897 302.354C223.756 302.176 223.581 302.039 223.371 301.943C223.166 301.843 222.922 301.793 222.64 301.793C222.339 301.793 222.084 301.857 221.874 301.984C221.664 302.112 221.491 302.287 221.354 302.511C221.222 302.734 221.124 302.994 221.061 303.29C220.997 303.586 220.965 303.903 220.965 304.24ZM235.033 299.373L232.06 308H230.262L234.008 298.047H235.156L235.033 299.373ZM237.521 308L234.541 299.373L234.411 298.047H235.566L239.326 308H237.521ZM237.378 304.309V305.669H231.964V304.309H237.378ZM241.787 302.183V308H240.14V300.604H241.691L241.787 302.183ZM241.493 304.028L240.96 304.021C240.965 303.497 241.037 303.017 241.179 302.579C241.325 302.142 241.525 301.766 241.78 301.451C242.04 301.137 242.35 300.895 242.71 300.727C243.07 300.553 243.471 300.467 243.913 300.467C244.269 300.467 244.59 300.517 244.877 300.617C245.169 300.713 245.417 300.87 245.622 301.089C245.832 301.308 245.991 301.592 246.101 301.943C246.21 302.29 246.265 302.716 246.265 303.222V308H244.61V303.215C244.61 302.859 244.558 302.579 244.453 302.374C244.353 302.164 244.205 302.016 244.009 301.93C243.817 301.839 243.578 301.793 243.291 301.793C243.008 301.793 242.756 301.852 242.532 301.971C242.309 302.089 242.12 302.251 241.965 302.456C241.814 302.661 241.698 302.898 241.616 303.167C241.534 303.436 241.493 303.723 241.493 304.028ZM250.093 307.193L252.103 300.604H253.866L250.899 309.128C250.831 309.31 250.742 309.508 250.633 309.723C250.523 309.937 250.38 310.14 250.202 310.331C250.029 310.527 249.812 310.684 249.553 310.803C249.293 310.926 248.979 310.987 248.609 310.987C248.464 310.987 248.322 310.974 248.186 310.946C248.053 310.924 247.928 310.898 247.81 310.871L247.803 309.613C247.848 309.618 247.903 309.622 247.967 309.627C248.035 309.632 248.09 309.634 248.131 309.634C248.404 309.634 248.632 309.6 248.814 309.531C248.997 309.467 249.145 309.363 249.259 309.217C249.377 309.071 249.478 308.875 249.56 308.629L250.093 307.193ZM248.958 300.604L250.715 306.141L251.009 307.877L249.867 308.171L247.181 300.604H248.958ZM262.24 304.288H259.649V302.928H262.24C262.691 302.928 263.056 302.855 263.334 302.709C263.612 302.563 263.815 302.363 263.942 302.107C264.075 301.848 264.141 301.551 264.141 301.219C264.141 300.904 264.075 300.61 263.942 300.337C263.815 300.059 263.612 299.836 263.334 299.667C263.056 299.498 262.691 299.414 262.24 299.414H260.176V308H258.46V298.047H262.24C263.01 298.047 263.664 298.184 264.202 298.457C264.744 298.726 265.157 299.1 265.439 299.578C265.722 300.052 265.863 300.594 265.863 301.205C265.863 301.848 265.722 302.399 265.439 302.859C265.157 303.32 264.744 303.673 264.202 303.919C263.664 304.165 263.01 304.288 262.24 304.288ZM268.892 302.012V308H267.244V300.604H268.816L268.892 302.012ZM271.154 300.556L271.141 302.087C271.04 302.069 270.931 302.055 270.812 302.046C270.699 302.037 270.585 302.032 270.471 302.032C270.188 302.032 269.94 302.073 269.726 302.155C269.511 302.233 269.331 302.347 269.186 302.497C269.044 302.643 268.935 302.821 268.857 303.03C268.78 303.24 268.734 303.475 268.721 303.734L268.345 303.762C268.345 303.297 268.39 302.866 268.481 302.47C268.573 302.073 268.709 301.725 268.892 301.424C269.078 301.123 269.311 300.888 269.589 300.72C269.871 300.551 270.197 300.467 270.566 300.467C270.667 300.467 270.774 300.476 270.888 300.494C271.006 300.512 271.095 300.533 271.154 300.556ZM271.694 304.384V304.227C271.694 303.693 271.772 303.199 271.927 302.743C272.082 302.283 272.305 301.884 272.597 301.547C272.893 301.205 273.253 300.941 273.677 300.754C274.105 300.562 274.588 300.467 275.126 300.467C275.668 300.467 276.151 300.562 276.575 300.754C277.004 300.941 277.366 301.205 277.662 301.547C277.958 301.884 278.184 302.283 278.339 302.743C278.494 303.199 278.571 303.693 278.571 304.227V304.384C278.571 304.917 278.494 305.411 278.339 305.867C278.184 306.323 277.958 306.722 277.662 307.063C277.366 307.401 277.006 307.665 276.582 307.856C276.158 308.043 275.677 308.137 275.14 308.137C274.597 308.137 274.112 308.043 273.684 307.856C273.26 307.665 272.9 307.401 272.604 307.063C272.307 306.722 272.082 306.323 271.927 305.867C271.772 305.411 271.694 304.917 271.694 304.384ZM273.342 304.227V304.384C273.342 304.716 273.376 305.031 273.444 305.327C273.513 305.623 273.62 305.883 273.766 306.106C273.911 306.33 274.098 306.505 274.326 306.633C274.554 306.76 274.825 306.824 275.14 306.824C275.445 306.824 275.709 306.76 275.933 306.633C276.16 306.505 276.347 306.33 276.493 306.106C276.639 305.883 276.746 305.623 276.814 305.327C276.887 305.031 276.924 304.716 276.924 304.384V304.227C276.924 303.898 276.887 303.589 276.814 303.297C276.746 303.001 276.637 302.739 276.486 302.511C276.34 302.283 276.154 302.105 275.926 301.978C275.702 301.845 275.436 301.779 275.126 301.779C274.816 301.779 274.547 301.845 274.319 301.978C274.096 302.105 273.911 302.283 273.766 302.511C273.62 302.739 273.513 303.001 273.444 303.297C273.376 303.589 273.342 303.898 273.342 304.227ZM282.071 308H280.417V300.125C280.417 299.528 280.535 299.024 280.772 298.614C281.014 298.204 281.358 297.892 281.805 297.678C282.256 297.464 282.791 297.356 283.411 297.356C283.776 297.356 284.127 297.395 284.464 297.473C284.806 297.55 285.159 297.648 285.523 297.767L285.271 299.106C285.038 299.029 284.781 298.956 284.498 298.888C284.215 298.815 283.89 298.778 283.521 298.778C283.024 298.778 282.657 298.892 282.42 299.12C282.188 299.343 282.071 299.678 282.071 300.125V308ZM283.555 300.604V301.807H279.282V300.604H283.555ZM286.303 300.604V308H284.655V300.604H286.303ZM289.905 297.5V308H288.251V297.5H289.905ZM294.971 308.137C294.424 308.137 293.929 308.048 293.487 307.87C293.05 307.688 292.676 307.435 292.366 307.111C292.061 306.788 291.826 306.407 291.662 305.97C291.498 305.532 291.416 305.061 291.416 304.555V304.281C291.416 303.702 291.5 303.178 291.669 302.709C291.838 302.24 292.072 301.839 292.373 301.506C292.674 301.169 293.029 300.911 293.439 300.733C293.85 300.556 294.294 300.467 294.772 300.467C295.301 300.467 295.764 300.556 296.16 300.733C296.557 300.911 296.885 301.162 297.145 301.485C297.409 301.804 297.605 302.185 297.732 302.627C297.865 303.069 297.931 303.557 297.931 304.09V304.794H292.216V303.611H296.304V303.481C296.295 303.185 296.235 302.907 296.126 302.647C296.021 302.388 295.859 302.178 295.641 302.019C295.422 301.859 295.13 301.779 294.766 301.779C294.492 301.779 294.248 301.839 294.034 301.957C293.825 302.071 293.649 302.237 293.508 302.456C293.367 302.675 293.257 302.939 293.18 303.249C293.107 303.554 293.07 303.898 293.07 304.281V304.555C293.07 304.878 293.114 305.179 293.2 305.457C293.291 305.73 293.424 305.97 293.597 306.175C293.77 306.38 293.979 306.542 294.226 306.66C294.472 306.774 294.752 306.831 295.066 306.831C295.463 306.831 295.816 306.751 296.126 306.592C296.436 306.432 296.705 306.207 296.933 305.915L297.801 306.756C297.641 306.988 297.434 307.212 297.179 307.426C296.924 307.635 296.611 307.806 296.242 307.938C295.878 308.071 295.454 308.137 294.971 308.137ZM303.365 305.997C303.365 305.833 303.324 305.685 303.242 305.553C303.16 305.416 303.003 305.293 302.771 305.184C302.543 305.074 302.205 304.974 301.759 304.883C301.367 304.796 301.007 304.694 300.679 304.575C300.355 304.452 300.077 304.304 299.845 304.131C299.612 303.958 299.432 303.753 299.305 303.516C299.177 303.279 299.113 303.005 299.113 302.695C299.113 302.395 299.179 302.11 299.312 301.841C299.444 301.572 299.633 301.335 299.879 301.13C300.125 300.925 300.424 300.763 300.774 300.645C301.13 300.526 301.526 300.467 301.964 300.467C302.584 300.467 303.115 300.572 303.557 300.781C304.003 300.986 304.345 301.267 304.582 301.622C304.819 301.973 304.938 302.369 304.938 302.812H303.29C303.29 302.616 303.24 302.433 303.14 302.265C303.044 302.091 302.898 301.952 302.702 301.848C302.506 301.738 302.26 301.684 301.964 301.684C301.681 301.684 301.447 301.729 301.26 301.82C301.077 301.907 300.941 302.021 300.85 302.162C300.763 302.303 300.72 302.458 300.72 302.627C300.72 302.75 300.743 302.862 300.788 302.962C300.838 303.058 300.92 303.146 301.034 303.229C301.148 303.306 301.303 303.379 301.499 303.447C301.7 303.516 301.95 303.582 302.251 303.646C302.816 303.764 303.301 303.917 303.707 304.104C304.117 304.286 304.432 304.523 304.65 304.814C304.869 305.102 304.979 305.466 304.979 305.908C304.979 306.236 304.908 306.537 304.767 306.811C304.63 307.079 304.429 307.314 304.165 307.515C303.901 307.711 303.584 307.863 303.215 307.973C302.85 308.082 302.44 308.137 301.984 308.137C301.314 308.137 300.747 308.018 300.282 307.781C299.817 307.54 299.464 307.232 299.223 306.858C298.986 306.48 298.867 306.088 298.867 305.683H300.46C300.478 305.988 300.562 306.232 300.713 306.414C300.868 306.592 301.059 306.722 301.287 306.804C301.52 306.881 301.759 306.92 302.005 306.92C302.301 306.92 302.549 306.881 302.75 306.804C302.951 306.722 303.103 306.612 303.208 306.476C303.313 306.334 303.365 306.175 303.365 305.997ZM306.489 307.18C306.489 306.924 306.576 306.71 306.749 306.537C306.922 306.359 307.157 306.271 307.453 306.271C307.754 306.271 307.989 306.359 308.157 306.537C308.33 306.71 308.417 306.924 308.417 307.18C308.417 307.435 308.33 307.649 308.157 307.822C307.989 307.995 307.754 308.082 307.453 308.082C307.157 308.082 306.922 307.995 306.749 307.822C306.576 307.649 306.489 307.435 306.489 307.18Z" fill="black"/>
<defs>
<linearGradient id="paint0_linear_20294_183205" x1="399" y1="-27.5" x2="340.825" y2="311.49" gradientUnits="userSpaceOnUse">
<stop stop-color="#DB3B72" stop-opacity="0.06"/>
<stop offset="0.994987" stop-color="#D39C6E" stop-opacity="0.06"/>
</linearGradient>
<linearGradient id="paint1_linear_20294_183205" x1="27.0998" y1="237.901" x2="316.262" y2="237.901" gradientUnits="userSpaceOnUse">
<stop stop-color="white"/>
<stop offset="0.1841" stop-color="#FAFCFE"/>
<stop offset="0.3992" stop-color="#ECF1FC"/>
<stop offset="0.6297" stop-color="#D5E0F7"/>
<stop offset="0.8695" stop-color="#B4C9F2"/>
<stop offset="1" stop-color="#9FBAEE"/>
</linearGradient>
</defs>
</svg>
