<svg width="121" height="41" viewBox="0 0 121 41" fill="none" xmlns="http://www.w3.org/2000/svg">
<g filter="url(#filter0_d_10542_342438)">
<path d="M4 20C4 8.9543 12.9543 0 24 0H106L116.5 12.5L106 26H42H19.2843C13.9799 26 8.89286 28.1071 5.14214 31.8579L4 33V20Z" fill="#D7D7D7"/>
</g>
<path d="M25.3623 8.89062V16H24.1367L20.9482 10.9072V16H19.7227V8.89062H20.9482L24.1465 13.9932V8.89062H25.3623ZM26.4805 13.417V13.3047C26.4805 12.9238 26.5358 12.5706 26.6465 12.2451C26.7572 11.9163 26.9167 11.6315 27.125 11.3906C27.3366 11.1465 27.5938 10.9577 27.8965 10.8242C28.2025 10.6875 28.5475 10.6191 28.9316 10.6191C29.319 10.6191 29.6641 10.6875 29.9668 10.8242C30.2728 10.9577 30.5316 11.1465 30.7432 11.3906C30.9548 11.6315 31.1159 11.9163 31.2266 12.2451C31.3372 12.5706 31.3926 12.9238 31.3926 13.3047V13.417C31.3926 13.7979 31.3372 14.151 31.2266 14.4766C31.1159 14.8021 30.9548 15.0869 30.7432 15.3311C30.5316 15.5719 30.2744 15.7607 29.9717 15.8975C29.6689 16.0309 29.3255 16.0977 28.9414 16.0977C28.554 16.0977 28.2074 16.0309 27.9014 15.8975C27.5986 15.7607 27.3415 15.5719 27.1299 15.3311C26.9183 15.0869 26.7572 14.8021 26.6465 14.4766C26.5358 14.151 26.4805 13.7979 26.4805 13.417ZM27.6572 13.3047V13.417C27.6572 13.6546 27.6816 13.8792 27.7305 14.0908C27.7793 14.3024 27.8558 14.488 27.96 14.6475C28.0641 14.807 28.1976 14.9323 28.3604 15.0234C28.5231 15.1146 28.7168 15.1602 28.9414 15.1602C29.1595 15.1602 29.3483 15.1146 29.5078 15.0234C29.6706 14.9323 29.804 14.807 29.9082 14.6475C30.0124 14.488 30.0889 14.3024 30.1377 14.0908C30.1898 13.8792 30.2158 13.6546 30.2158 13.417V13.3047C30.2158 13.0703 30.1898 12.849 30.1377 12.6406C30.0889 12.429 30.0107 12.2419 29.9033 12.0791C29.7992 11.9163 29.6657 11.7894 29.5029 11.6982C29.3434 11.6038 29.153 11.5566 28.9316 11.5566C28.7103 11.5566 28.5182 11.6038 28.3555 11.6982C28.196 11.7894 28.0641 11.9163 27.96 12.0791C27.8558 12.2419 27.7793 12.429 27.7305 12.6406C27.6816 12.849 27.6572 13.0703 27.6572 13.3047ZM37.6865 13.3486H35.8359V12.377H37.6865C38.0088 12.377 38.2692 12.3249 38.4678 12.2207C38.6663 12.1165 38.8112 11.9733 38.9023 11.791C38.9967 11.6055 39.0439 11.3939 39.0439 11.1562C39.0439 10.9316 38.9967 10.7217 38.9023 10.5264C38.8112 10.3278 38.6663 10.1683 38.4678 10.0479C38.2692 9.92741 38.0088 9.86719 37.6865 9.86719H36.2119V16H34.9863V8.89062H37.6865C38.2367 8.89062 38.7038 8.98828 39.0879 9.18359C39.4753 9.37565 39.7699 9.64258 39.9717 9.98438C40.1735 10.3229 40.2744 10.7103 40.2744 11.1465C40.2744 11.6055 40.1735 11.9993 39.9717 12.3281C39.7699 12.6569 39.4753 12.9092 39.0879 13.085C38.7038 13.2607 38.2367 13.3486 37.6865 13.3486ZM42.4375 11.7227V16H41.2607V10.7168H42.3838L42.4375 11.7227ZM44.0537 10.6826L44.0439 11.7764C43.9723 11.7633 43.8942 11.7536 43.8096 11.7471C43.7282 11.7406 43.6468 11.7373 43.5654 11.7373C43.3636 11.7373 43.1862 11.7666 43.0332 11.8252C42.8802 11.8805 42.7516 11.9619 42.6475 12.0693C42.5465 12.1735 42.4684 12.3005 42.4131 12.4502C42.3577 12.5999 42.3252 12.7676 42.3154 12.9531L42.0469 12.9727C42.0469 12.6406 42.0794 12.333 42.1445 12.0498C42.2096 11.7666 42.3073 11.5176 42.4375 11.3027C42.571 11.0879 42.737 10.9202 42.9355 10.7998C43.1374 10.6794 43.3701 10.6191 43.6338 10.6191C43.7054 10.6191 43.7819 10.6257 43.8633 10.6387C43.9479 10.6517 44.0114 10.6663 44.0537 10.6826ZM44.4395 13.417V13.3047C44.4395 12.9238 44.4948 12.5706 44.6055 12.2451C44.7161 11.9163 44.8757 11.6315 45.084 11.3906C45.2956 11.1465 45.5527 10.9577 45.8555 10.8242C46.1615 10.6875 46.5065 10.6191 46.8906 10.6191C47.278 10.6191 47.623 10.6875 47.9258 10.8242C48.2318 10.9577 48.4906 11.1465 48.7021 11.3906C48.9137 11.6315 49.0749 11.9163 49.1855 12.2451C49.2962 12.5706 49.3516 12.9238 49.3516 13.3047V13.417C49.3516 13.7979 49.2962 14.151 49.1855 14.4766C49.0749 14.8021 48.9137 15.0869 48.7021 15.3311C48.4906 15.5719 48.2334 15.7607 47.9307 15.8975C47.6279 16.0309 47.2845 16.0977 46.9004 16.0977C46.513 16.0977 46.1663 16.0309 45.8604 15.8975C45.5576 15.7607 45.3005 15.5719 45.0889 15.3311C44.8773 15.0869 44.7161 14.8021 44.6055 14.4766C44.4948 14.151 44.4395 13.7979 44.4395 13.417ZM45.6162 13.3047V13.417C45.6162 13.6546 45.6406 13.8792 45.6895 14.0908C45.7383 14.3024 45.8148 14.488 45.9189 14.6475C46.0231 14.807 46.1566 14.9323 46.3193 15.0234C46.4821 15.1146 46.6758 15.1602 46.9004 15.1602C47.1185 15.1602 47.3073 15.1146 47.4668 15.0234C47.6296 14.9323 47.763 14.807 47.8672 14.6475C47.9714 14.488 48.0479 14.3024 48.0967 14.0908C48.1488 13.8792 48.1748 13.6546 48.1748 13.417V13.3047C48.1748 13.0703 48.1488 12.849 48.0967 12.6406C48.0479 12.429 47.9697 12.2419 47.8623 12.0791C47.7581 11.9163 47.6247 11.7894 47.4619 11.6982C47.3024 11.6038 47.112 11.5566 46.8906 11.5566C46.6693 11.5566 46.4772 11.6038 46.3145 11.6982C46.1549 11.7894 46.0231 11.9163 45.9189 12.0791C45.8148 12.2419 45.7383 12.429 45.6895 12.6406C45.6406 12.849 45.6162 13.0703 45.6162 13.3047ZM51.8516 16H50.6699V10.375C50.6699 9.94857 50.7546 9.58887 50.9238 9.2959C51.0964 9.00293 51.3421 8.77995 51.6611 8.62695C51.9834 8.47396 52.3659 8.39746 52.8086 8.39746C53.069 8.39746 53.3197 8.42513 53.5605 8.48047C53.8047 8.53581 54.057 8.60579 54.3174 8.69043L54.1367 9.64746C53.9707 9.59212 53.7868 9.54004 53.585 9.49121C53.3831 9.43913 53.1504 9.41309 52.8867 9.41309C52.5319 9.41309 52.2699 9.49447 52.1006 9.65723C51.9346 9.81673 51.8516 10.056 51.8516 10.375V16ZM52.9111 10.7168V11.5762H49.8594V10.7168H52.9111ZM54.874 10.7168V16H53.6973V10.7168H54.874ZM57.4473 8.5V16H56.2656V8.5H57.4473ZM61.0654 16.0977C60.6748 16.0977 60.3216 16.0342 60.0059 15.9072C59.6934 15.777 59.4264 15.5964 59.2051 15.3652C58.987 15.1341 58.8193 14.8623 58.7021 14.5498C58.585 14.2373 58.5264 13.9004 58.5264 13.5391V13.3438C58.5264 12.9303 58.5866 12.556 58.707 12.2207C58.8275 11.8854 58.9951 11.599 59.21 11.3613C59.4248 11.1204 59.6787 10.9365 59.9717 10.8096C60.2646 10.6826 60.582 10.6191 60.9238 10.6191C61.3014 10.6191 61.6318 10.6826 61.915 10.8096C62.1982 10.9365 62.4326 11.1156 62.6182 11.3467C62.807 11.5745 62.9469 11.8464 63.0381 12.1621C63.1325 12.4779 63.1797 12.8262 63.1797 13.207V13.71H59.0977V12.8652H62.0176V12.7725C62.0111 12.5609 61.9688 12.3623 61.8906 12.1768C61.8158 11.9912 61.7002 11.8415 61.5439 11.7275C61.3877 11.6136 61.1794 11.5566 60.9189 11.5566C60.7236 11.5566 60.5495 11.599 60.3965 11.6836C60.2467 11.765 60.1214 11.8838 60.0205 12.04C59.9196 12.1963 59.8415 12.3851 59.7861 12.6064C59.734 12.8245 59.708 13.0703 59.708 13.3438V13.5391C59.708 13.7702 59.7389 13.985 59.8008 14.1836C59.8659 14.3789 59.9603 14.5498 60.084 14.6963C60.2077 14.8428 60.3574 14.9583 60.5332 15.043C60.709 15.1243 60.9092 15.165 61.1338 15.165C61.417 15.165 61.6693 15.1081 61.8906 14.9941C62.112 14.8802 62.304 14.7191 62.4668 14.5107L63.0869 15.1113C62.973 15.2773 62.8249 15.4368 62.6426 15.5898C62.4603 15.7396 62.2373 15.8617 61.9736 15.9561C61.7132 16.0505 61.4105 16.0977 61.0654 16.0977ZM68.7705 16H67.252L67.2617 15.0283H68.7705C69.21 15.0283 69.5778 14.9323 69.874 14.7402C70.1735 14.5482 70.3981 14.2731 70.5479 13.915C70.7008 13.557 70.7773 13.1305 70.7773 12.6357V12.25C70.7773 11.8659 70.7334 11.5257 70.6455 11.2295C70.5609 10.9333 70.4339 10.6842 70.2646 10.4824C70.0986 10.2806 69.8936 10.1276 69.6494 10.0234C69.4085 9.91927 69.1302 9.86719 68.8145 9.86719H67.2227V8.89062H68.8145C69.2865 8.89062 69.7178 8.97038 70.1084 9.12988C70.499 9.28613 70.8359 9.51237 71.1191 9.80859C71.4056 10.1048 71.6253 10.4596 71.7783 10.873C71.9313 11.2865 72.0078 11.7487 72.0078 12.2598V12.6357C72.0078 13.1468 71.9313 13.609 71.7783 14.0225C71.6253 14.4359 71.4056 14.7907 71.1191 15.0869C70.8327 15.3799 70.4909 15.6061 70.0938 15.7656C69.6999 15.9219 69.2588 16 68.7705 16ZM67.9307 8.89062V16H66.7051V8.89062H67.9307ZM75.4502 16.0977C75.0596 16.0977 74.7064 16.0342 74.3906 15.9072C74.0781 15.777 73.8112 15.5964 73.5898 15.3652C73.3717 15.1341 73.2041 14.8623 73.0869 14.5498C72.9697 14.2373 72.9111 13.9004 72.9111 13.5391V13.3438C72.9111 12.9303 72.9714 12.556 73.0918 12.2207C73.2122 11.8854 73.3799 11.599 73.5947 11.3613C73.8096 11.1204 74.0635 10.9365 74.3564 10.8096C74.6494 10.6826 74.9668 10.6191 75.3086 10.6191C75.6862 10.6191 76.0166 10.6826 76.2998 10.8096C76.583 10.9365 76.8174 11.1156 77.0029 11.3467C77.1917 11.5745 77.3317 11.8464 77.4229 12.1621C77.5173 12.4779 77.5645 12.8262 77.5645 13.207V13.71H73.4824V12.8652H76.4023V12.7725C76.3958 12.5609 76.3535 12.3623 76.2754 12.1768C76.2005 11.9912 76.085 11.8415 75.9287 11.7275C75.7725 11.6136 75.5641 11.5566 75.3037 11.5566C75.1084 11.5566 74.9342 11.599 74.7812 11.6836C74.6315 11.765 74.5062 11.8838 74.4053 12.04C74.3044 12.1963 74.2262 12.3851 74.1709 12.6064C74.1188 12.8245 74.0928 13.0703 74.0928 13.3438V13.5391C74.0928 13.7702 74.1237 13.985 74.1855 14.1836C74.2507 14.3789 74.3451 14.5498 74.4688 14.6963C74.5924 14.8428 74.7422 14.9583 74.918 15.043C75.0938 15.1243 75.2939 15.165 75.5186 15.165C75.8018 15.165 76.054 15.1081 76.2754 14.9941C76.4967 14.8802 76.6888 14.7191 76.8516 14.5107L77.4717 15.1113C77.3577 15.2773 77.2096 15.4368 77.0273 15.5898C76.8451 15.7396 76.6221 15.8617 76.3584 15.9561C76.098 16.0505 75.7952 16.0977 75.4502 16.0977ZM80.9043 10.7168V11.5762H77.9258V10.7168H80.9043ZM78.7852 9.42285H79.9619V14.54C79.9619 14.7028 79.9847 14.8281 80.0303 14.916C80.0791 15.0007 80.1458 15.0576 80.2305 15.0869C80.3151 15.1162 80.4144 15.1309 80.5283 15.1309C80.6097 15.1309 80.6878 15.126 80.7627 15.1162C80.8376 15.1064 80.8978 15.0967 80.9434 15.0869L80.9482 15.9854C80.8506 16.0146 80.7367 16.0407 80.6064 16.0635C80.4795 16.0863 80.333 16.0977 80.167 16.0977C79.8968 16.0977 79.6576 16.0505 79.4492 15.9561C79.2409 15.8584 79.0781 15.7005 78.9609 15.4824C78.8438 15.2643 78.7852 14.9746 78.7852 14.6133V9.42285ZM84.791 14.9404V12.4209C84.791 12.2321 84.7568 12.0693 84.6885 11.9326C84.6201 11.7959 84.516 11.6901 84.376 11.6152C84.2393 11.5404 84.0667 11.5029 83.8584 11.5029C83.6663 11.5029 83.5003 11.5355 83.3604 11.6006C83.2204 11.6657 83.1113 11.7536 83.0332 11.8643C82.9551 11.9749 82.916 12.1003 82.916 12.2402H81.7441C81.7441 12.0319 81.7946 11.8301 81.8955 11.6348C81.9964 11.4395 82.1429 11.2653 82.335 11.1123C82.527 10.9593 82.7565 10.8389 83.0234 10.751C83.2904 10.6631 83.5898 10.6191 83.9219 10.6191C84.319 10.6191 84.6706 10.6859 84.9766 10.8193C85.2858 10.9528 85.5283 11.1546 85.7041 11.4248C85.8831 11.6917 85.9727 12.027 85.9727 12.4307V14.7793C85.9727 15.0202 85.9889 15.2367 86.0215 15.4287C86.0573 15.6175 86.1077 15.7819 86.1729 15.9219V16H84.9668C84.9115 15.873 84.8675 15.7119 84.835 15.5166C84.8057 15.318 84.791 15.126 84.791 14.9404ZM84.9619 12.7871L84.9717 13.5146H84.127C83.9089 13.5146 83.7168 13.5358 83.5508 13.5781C83.3848 13.6172 83.2464 13.6758 83.1357 13.7539C83.0251 13.832 82.9421 13.9264 82.8867 14.0371C82.8314 14.1478 82.8037 14.2731 82.8037 14.4131C82.8037 14.5531 82.8363 14.6816 82.9014 14.7988C82.9665 14.9128 83.0609 15.0023 83.1846 15.0674C83.3115 15.1325 83.4645 15.165 83.6436 15.165C83.8844 15.165 84.0944 15.1162 84.2734 15.0186C84.4557 14.9176 84.599 14.7956 84.7031 14.6523C84.8073 14.5059 84.8626 14.3675 84.8691 14.2373L85.25 14.7598C85.2109 14.8932 85.1442 15.0365 85.0498 15.1895C84.9554 15.3424 84.8317 15.4889 84.6787 15.6289C84.529 15.7656 84.3483 15.8779 84.1367 15.9658C83.9284 16.0537 83.6875 16.0977 83.4141 16.0977C83.069 16.0977 82.7614 16.0293 82.4912 15.8926C82.221 15.7526 82.0094 15.5654 81.8564 15.3311C81.7035 15.0934 81.627 14.8249 81.627 14.5254C81.627 14.2454 81.679 13.998 81.7832 13.7832C81.8906 13.5651 82.0469 13.3828 82.252 13.2363C82.4603 13.0898 82.7142 12.9792 83.0137 12.9043C83.3132 12.8262 83.6549 12.7871 84.0391 12.7871H84.9619ZM88.4629 10.7168V16H87.2812V10.7168H88.4629ZM87.2031 9.33008C87.2031 9.15104 87.2617 9.00293 87.3789 8.88574C87.4993 8.7653 87.6654 8.70508 87.877 8.70508C88.0853 8.70508 88.2497 8.7653 88.3701 8.88574C88.4906 9.00293 88.5508 9.15104 88.5508 9.33008C88.5508 9.50586 88.4906 9.65234 88.3701 9.76953C88.2497 9.88672 88.0853 9.94531 87.877 9.94531C87.6654 9.94531 87.4993 9.88672 87.3789 9.76953C87.2617 9.65234 87.2031 9.50586 87.2031 9.33008ZM91.0117 8.5V16H89.8301V8.5H91.0117ZM95.2646 14.5693C95.2646 14.4521 95.2354 14.3464 95.1768 14.252C95.1182 14.1543 95.0059 14.0664 94.8398 13.9883C94.6771 13.9102 94.4362 13.8385 94.1172 13.7734C93.8372 13.7116 93.5801 13.6383 93.3457 13.5537C93.1146 13.4658 92.916 13.36 92.75 13.2363C92.584 13.1126 92.4554 12.9661 92.3643 12.7969C92.2731 12.6276 92.2275 12.4323 92.2275 12.2109C92.2275 11.9961 92.2747 11.7926 92.3691 11.6006C92.4635 11.4085 92.5986 11.2393 92.7744 11.0928C92.9502 10.9463 93.1634 10.8307 93.4141 10.7461C93.668 10.6615 93.9512 10.6191 94.2637 10.6191C94.7064 10.6191 95.0856 10.694 95.4014 10.8438C95.7204 10.9902 95.9645 11.1904 96.1338 11.4443C96.3031 11.695 96.3877 11.9782 96.3877 12.2939H95.2109C95.2109 12.154 95.1751 12.0238 95.1035 11.9033C95.0352 11.7796 94.931 11.6803 94.791 11.6055C94.651 11.5273 94.4753 11.4883 94.2637 11.4883C94.0618 11.4883 93.8942 11.5208 93.7607 11.5859C93.6305 11.6478 93.5329 11.7292 93.4678 11.8301C93.4059 11.931 93.375 12.0417 93.375 12.1621C93.375 12.25 93.3913 12.3298 93.4238 12.4014C93.4596 12.4697 93.5182 12.5332 93.5996 12.5918C93.681 12.6471 93.7917 12.6992 93.9316 12.748C94.0749 12.7969 94.2539 12.8441 94.4688 12.8896C94.8724 12.9743 95.2191 13.0833 95.5088 13.2168C95.8018 13.347 96.0264 13.5163 96.1826 13.7246C96.3389 13.9297 96.417 14.1901 96.417 14.5059C96.417 14.7402 96.3665 14.9551 96.2656 15.1504C96.168 15.3424 96.0247 15.5101 95.8359 15.6533C95.6471 15.7933 95.4209 15.9023 95.1572 15.9805C94.8968 16.0586 94.6038 16.0977 94.2783 16.0977C93.7998 16.0977 93.3945 16.013 93.0625 15.8438C92.7305 15.6712 92.4782 15.4515 92.3057 15.1846C92.1364 14.9144 92.0518 14.6344 92.0518 14.3447H93.1895C93.2025 14.5628 93.2627 14.737 93.3701 14.8672C93.4808 14.9941 93.6175 15.0869 93.7803 15.1455C93.9463 15.2008 94.1172 15.2285 94.293 15.2285C94.5046 15.2285 94.682 15.2008 94.8252 15.1455C94.9684 15.0869 95.0775 15.0088 95.1523 14.9111C95.2272 14.8102 95.2646 14.6963 95.2646 14.5693Z" fill="#262425"/>
<defs>
<filter id="filter0_d_10542_342438" x="0" y="0" width="120.5" height="41" filterUnits="userSpaceOnUse" color-interpolation-filters="sRGB">
<feFlood flood-opacity="0" result="BackgroundImageFix"/>
<feColorMatrix in="SourceAlpha" type="matrix" values="0 0 0 0 0 0 0 0 0 0 0 0 0 0 0 0 0 0 127 0" result="hardAlpha"/>
<feOffset dy="4"/>
<feGaussianBlur stdDeviation="2"/>
<feComposite in2="hardAlpha" operator="out"/>
<feColorMatrix type="matrix" values="0 0 0 0 0 0 0 0 0 0 0 0 0 0 0 0 0 0 0.2 0"/>
<feBlend mode="normal" in2="BackgroundImageFix" result="effect1_dropShadow_10542_342438"/>
<feBlend mode="normal" in="SourceGraphic" in2="effect1_dropShadow_10542_342438" result="shape"/>
</filter>
</defs>
</svg>
