<svg width="18" height="20" viewBox="0 0 18 20" fill="none" xmlns="http://www.w3.org/2000/svg">
<path d="M14.1937 0C12.4196 0 10.9678 1.45181 10.9678 3.22586C10.9678 3.58814 11.0277 3.93849 11.1393 4.26407L5.61513 7.8529C5.02353 7.1965 4.17346 6.77414 3.22586 6.77414C1.45181 6.77414 0 8.22595 0 10C0 11.7741 1.45181 13.2259 3.22586 13.2259C4.17726 13.2259 5.03321 12.8082 5.62498 12.1471L11.1393 15.7359C11.0259 16.0642 10.9678 16.4088 10.9678 16.7741C10.9678 18.5482 12.4196 20 14.1937 20C15.9678 20 17.4196 18.5482 17.4196 16.7741C17.4196 15.0001 15.9678 13.5483 14.1937 13.5483C13.2462 13.5483 12.3963 13.9706 11.8044 14.627L6.28026 11.0382C6.39164 10.7124 6.45172 10.362 6.45172 10C6.45172 9.63457 6.39367 9.29008 6.28026 8.96179L11.7946 5.37296C12.3864 6.03409 13.2424 6.45172 14.1937 6.45172C15.9678 6.45172 17.4196 4.99991 17.4196 3.22586C17.4196 1.45181 15.9678 0 14.1937 0ZM14.1937 1.29023C15.2702 1.29023 16.1293 2.14912 16.1293 3.22586C16.1293 4.30238 15.2704 5.16149 14.1937 5.16149C13.1172 5.16149 12.2581 4.30261 12.2581 3.22586C12.2581 2.14935 13.117 1.29023 14.1937 1.29023ZM3.22577 8.06454C4.30229 8.06454 5.1614 8.92343 5.1614 10.0002C5.1614 11.0767 4.30252 11.9358 3.22577 11.9358C2.14925 11.9358 1.29014 11.0769 1.29014 10.0002C1.29014 8.92343 2.14902 8.06454 3.22577 8.06454ZM14.1937 14.8389C15.2702 14.8389 16.1293 15.6977 16.1293 16.7745C16.1293 17.851 15.2704 18.7101 14.1937 18.7101C13.1172 18.7101 12.2581 17.8512 12.2581 16.7745C12.2581 15.698 13.117 14.8389 14.1937 14.8389Z" fill="black"/>
</svg>
