<svg width="14" height="13" viewBox="0 0 14 13" fill="none" xmlns="http://www.w3.org/2000/svg">
<path fill-rule="evenodd" clip-rule="evenodd" d="M9.52761 8.67615H11.6498C12.3049 8.67615 12.8602 8.25904 13.0427 7.6299L13.9389 4.53893C14.0701 4.08661 13.9888 3.64073 13.7057 3.26406C13.4226 2.8874 13.0173 2.68522 12.5465 2.68522H4.94185C4.52474 2.68522 4.15888 2.8442 3.88379 3.14225L3.1638 0.659426C3.1182 0.501872 2.97432 0.399422 2.81817 0.399422V0.398438H0.361578C0.162148 0.398438 0 0.560146 0 0.760016C0 0.959447 0.161708 1.12159 0.361578 1.12159H2.54821L4.4649 7.73122C4.479 7.78009 4.50251 7.82339 4.53258 7.86002C4.7705 8.35936 5.26612 8.67731 5.83796 8.67731H9.52736L9.52761 8.67615ZM11.4001 9.62225C12.0674 9.62225 12.6086 10.163 12.6086 10.8303C12.6086 11.4976 12.0678 12.0384 11.4001 12.0384C10.7328 12.0384 10.192 11.4976 10.192 10.8303C10.192 10.163 10.7328 9.62225 11.4001 9.62225ZM6.24626 9.62225C6.91354 9.62225 7.45476 10.163 7.45476 10.8303C7.45476 11.4976 6.91399 12.0384 6.24626 12.0384C5.57897 12.0384 5.03819 11.4976 5.03819 10.8303C5.03819 10.163 5.57897 9.62225 6.24626 9.62225Z" fill="black"/>
</svg>
