<svg width="20" height="19" viewBox="0 0 20 19" fill="none" xmlns="http://www.w3.org/2000/svg">
<mask id="path-1-inside-1_15865_78083" fill="white">
<path d="M14.476 0.25C13.0474 0.25 11.5236 0.817088 10.4762 1.85693L10 2.32948L9.52373 1.85693C8.38099 0.817291 6.95245 0.25 5.5239 0.25C2.38098 0.25 0 2.70769 0 5.8267C0 9.41861 3.04761 12.4435 7.23815 16.2241C8.19059 17.0748 9.14282 17.9256 10 18.8707C10.8572 18.0199 11.8094 17.0748 12.7618 16.2241C17.0475 12.4431 20 9.41841 20 5.8267C20 2.70753 17.6191 0.25 14.476 0.25Z"/>
</mask>
<path d="M10.4762 1.85693L11.3919 2.77962L11.392 2.77953L10.4762 1.85693ZM10 2.32948L9.08446 3.25236L10.0002 4.16089L10.9158 3.25216L10 2.32948ZM9.52373 1.85693L10.4393 0.934047L10.4194 0.91425L10.3986 0.895334L9.52373 1.85693ZM7.23815 16.2241L6.36733 17.1893L6.37212 17.1936L7.23815 16.2241ZM10 18.8707L9.03707 19.744L9.95062 20.7513L10.9158 19.7934L10 18.8707ZM12.7618 16.2241L11.9018 15.2492L11.8958 15.2545L12.7618 16.2241ZM14.476 -1.05C12.7347 -1.05 10.872 -0.367852 9.5603 0.934328L11.392 2.77953C12.1752 2.00203 13.3602 1.55 14.476 1.55V-1.05ZM9.56039 0.934238L9.08427 1.40679L10.9158 3.25216L11.3919 2.77962L9.56039 0.934238ZM10.9156 1.4066L10.4393 0.934047L8.60815 2.77981L9.08446 3.25236L10.9156 1.4066ZM10.3986 0.895334C9.03306 -0.346978 7.29772 -1.05 5.5239 -1.05V1.55C6.60717 1.55 7.72893 1.98156 8.6489 2.81852L10.3986 0.895334ZM5.5239 -1.05C1.64318 -1.05 -1.3 2.00971 -1.3 5.8267H1.3C1.3 3.40566 3.11879 1.55 5.5239 1.55V-1.05ZM-1.3 5.8267C-1.3 8.01721 -0.363549 9.94546 1.01576 11.7454C2.3841 13.531 4.28018 15.3063 6.36734 17.1893L8.10896 15.2588C6.00558 13.3612 4.28258 11.7339 3.07948 10.1639C1.88735 8.60824 1.3 7.2281 1.3 5.8267H-1.3ZM6.37212 17.1936C7.33305 18.0519 8.23345 18.858 9.03707 19.744L10.9629 17.9973C10.0522 16.9932 9.04813 16.0977 8.10418 15.2545L6.37212 17.1936ZM10.9158 19.7934C11.7773 18.9383 12.7053 18.0177 13.6279 17.1936L11.8958 15.2545C10.9135 16.132 9.93707 17.1015 9.08423 17.948L10.9158 19.7934ZM13.6219 17.1989C15.764 15.309 17.663 13.5323 19.0234 11.7405C20.396 9.93272 21.3 8.00717 21.3 5.8267H18.7C18.7 7.23793 18.1278 8.62057 16.9527 10.1683C15.7654 11.732 14.0453 13.3581 11.9018 15.2492L13.6219 17.1989ZM21.3 5.8267C21.3 2.00954 18.3569 -1.05 14.476 -1.05V1.55C16.8813 1.55 18.7 3.40553 18.7 5.8267H21.3Z" fill="black" mask="url(#path-1-inside-1_15865_78083)"/>
</svg>
