<svg width="20" height="20" viewBox="0 0 20 20" fill="none" xmlns="http://www.w3.org/2000/svg">
<path d="M14.939 1.42969C16.28 1.42969 17.57 1.93445 18.519 2.84016C19.469 3.74397 20 4.96302 20 6.23921V13.763C20 16.4202 17.73 18.5725 14.939 18.5725H5.06C2.269 18.5725 0 16.4202 0 13.763V6.23921C0 3.58207 2.259 1.42969 5.06 1.42969H14.939ZM16.07 6.38207C15.86 6.37159 15.66 6.43921 15.509 6.57254L11 10.0011C10.42 10.4592 9.589 10.4592 9 10.0011L4.5 6.57254C4.189 6.3535 3.759 6.38207 3.5 6.63921C3.23 6.89635 3.2 7.30588 3.429 7.59159L3.56 7.7154L8.11 11.0964C8.67 11.5154 9.349 11.744 10.06 11.744C10.769 11.744 11.46 11.5154 12.019 11.0964L16.53 7.65826L16.61 7.58207C16.849 7.30588 16.849 6.90588 16.599 6.62969C16.46 6.48778 16.269 6.40112 16.07 6.38207Z" fill="#E6427A"/>
</svg>
