<svg width="17" height="16" viewBox="0 0 17 16" fill="none" xmlns="http://www.w3.org/2000/svg">
<path d="M9.23315 2.64042L9.23318 2.64039C9.96953 1.90942 11.0582 1.5 12.0808 1.5C14.3115 1.5 16 3.23449 16 5.46136C16 6.75011 15.4733 7.96898 14.4922 9.26117C13.5064 10.5595 12.0932 11.8917 10.3787 13.4043L10.3787 13.4043L10.3764 13.4064C9.73781 13.9768 9.10082 14.5981 8.51308 15.1795C7.9076 14.5533 7.26135 13.976 6.63079 13.4128L6.62545 13.408C6.62514 13.4077 6.62483 13.4075 6.62453 13.4072C4.94559 11.8925 3.53158 10.5601 2.53497 9.25958C1.54239 7.96432 1 6.74637 1 5.46136C1 3.2346 2.68856 1.5 4.91912 1.5C5.92599 1.5 6.94757 1.89911 7.7747 2.6483L8.14789 3.01853L8.50011 3.36797L8.85226 3.01846L9.23315 2.64042Z" stroke="black"/>
</svg>
