<svg width="15" height="14" viewBox="0 0 15 14" fill="none" xmlns="http://www.w3.org/2000/svg">
<path fill-rule="evenodd" clip-rule="evenodd" d="M9.95166 3.06831C9.87498 2.83706 9.83335 2.58997 9.83335 2.33337C9.83335 1.04566 10.879 0 12.1666 0C13.4543 0 14.5 1.04566 14.5 2.33337C14.5 3.62097 13.4543 4.66663 12.1666 4.66663C11.3733 4.66663 10.672 4.26997 10.2503 3.66429L5.04833 6.26494C5.125 6.49631 5.16663 6.74329 5.16663 7C5.16663 7.25671 5.125 7.50369 5.04833 7.73506L10.2503 10.3357C10.672 9.73003 11.3733 9.33337 12.1666 9.33337C13.4543 9.33337 14.5 10.379 14.5 11.6666C14.5 12.9543 13.4543 14 12.1666 14C10.879 14 9.83335 12.9543 9.83335 11.6666C9.83335 11.41 9.87498 11.1629 9.95166 10.9317L4.74966 8.33103C4.328 8.93671 3.62666 9.33337 2.83337 9.33337C1.54566 9.33337 0.5 8.2876 0.5 7C0.5 5.7124 1.54566 4.66663 2.83337 4.66663C3.62669 4.66663 4.328 5.06329 4.74966 5.66897L9.95166 3.06831Z" fill="black"/>
</svg>
