<svg width="14" height="14" viewBox="0 0 14 14" fill="none" xmlns="http://www.w3.org/2000/svg">
<path d="M12.8865 12.6601L12.2934 1.20683C12.2587 0.530753 11.6997 0 11.0214 0H2.5661C1.88864 0 1.33014 0.530753 1.29549 1.20683L0.701937 12.6601C0.683675 13.0087 0.809653 13.3503 1.04999 13.6032C1.29032 13.8562 1.62442 14 1.97344 14H11.615C11.9645 14 12.2981 13.8562 12.538 13.6032C12.7783 13.3502 12.9047 13.0092 12.8865 12.6601ZM10.5927 2.92434C10.1574 4.62455 8.62598 5.86186 6.79792 5.86186C4.97174 5.86186 3.44065 4.6269 3.00465 2.92809C2.66167 2.7941 2.41812 2.46051 2.41812 2.06979C2.41812 1.56098 2.83042 1.14831 3.3396 1.14831C3.8484 1.14821 4.26071 1.56101 4.26071 2.06979C4.26071 2.36119 4.12535 2.62076 3.91403 2.78941C4.27898 4.04547 5.43104 4.94823 6.79854 4.94823C8.16468 4.94823 9.31481 4.04772 9.68106 2.79411C9.46602 2.62595 9.32783 2.36354 9.32783 2.06931C9.32783 1.56051 9.74053 1.14783 10.2493 1.14783C10.7576 1.14783 11.1699 1.56053 11.1699 2.06931C11.1699 2.45671 10.931 2.78796 10.5928 2.92429L10.5927 2.92434Z" fill="white"/>
</svg>
