<svg width="20" height="20" viewBox="0 0 20 20" fill="none" xmlns="http://www.w3.org/2000/svg">
<path d="M5.25876 0.447149L7.45057 2.64158C7.59349 2.78467 7.71265 2.95171 7.7841 3.14257C8.02241 3.71507 7.92702 4.38294 7.45057 4.85995L5.28254 7.03057C5.354 8.46181 6.33084 10.3698 7.99849 12.0157C9.66613 13.6617 11.5483 14.6634 12.9777 14.7349L15.1458 12.5643C15.5985 12.1111 16.2893 11.9918 16.8611 12.2304C17.0517 12.3019 17.2184 12.4212 17.3615 12.5643L19.5533 14.7587C20.1489 15.3551 20.1489 16.3569 19.5533 16.9532L17.3615 19.1476C15.2411 21.2705 9.80924 19.2907 5.25884 14.7349C0.70844 10.1791 -1.26896 4.78839 0.851385 2.64167L3.0432 0.447235C3.66259 -0.149078 4.63942 -0.149078 5.25876 0.447235V0.447149Z" fill="#E6427A"/>
</svg>
