<svg width="13" height="14" viewBox="0 0 13 14" fill="none" xmlns="http://www.w3.org/2000/svg">
<path d="M12.8855 12.6601L12.2924 1.20683C12.2577 0.530753 11.6987 0 11.0204 0H2.56512C1.88767 0 1.32916 0.530753 1.29451 1.20683L0.70096 12.6601C0.682699 13.0087 0.808676 13.3503 1.04901 13.6032C1.28935 13.8562 1.62344 14 1.97247 14H11.614C11.9635 14 12.2971 13.8562 12.537 13.6032C12.7773 13.3502 12.9038 13.0092 12.8855 12.6601ZM10.5917 2.92434C10.1565 4.62455 8.625 5.86186 6.79694 5.86186C4.97076 5.86186 3.43968 4.6269 3.00367 2.92809C2.6607 2.7941 2.41714 2.46051 2.41714 2.06979C2.41714 1.56098 2.82945 1.14831 3.33862 1.14831C3.84743 1.14821 4.25973 1.56101 4.25973 2.06979C4.25973 2.36119 4.12438 2.62076 3.91305 2.78941C4.278 4.04547 5.43006 4.94823 6.79757 4.94823C8.1637 4.94823 9.31383 4.04772 9.68008 2.79411C9.46504 2.62595 9.32686 2.36354 9.32686 2.06931C9.32686 1.56051 9.73956 1.14783 10.2483 1.14783C10.7566 1.14783 11.1689 1.56053 11.1689 2.06931C11.1689 2.45671 10.9301 2.78796 10.5918 2.92429L10.5917 2.92434Z" fill="white"/>
</svg>
